<?xml version="1.0" encoding="UTF-8"?>
<svg height="600" width="800" xmlns="http://www.w3.org/2000/svg" xmlns:xlink="http://www.w3.org/1999/xlink">
    <g id="Notes" font-family="'LucidaGrande', 'Lucida Grande', sans-serif" font-size="13">
        <rect fill="white" height="600.0" width="800.0" x="0.0" y="0.0" />
        <g font-size="13">
            <text x="18.0" y="176.0">Small</text>
            <text x="18.0" y="376.0">Medium</text>
            <text x="18.0" y="576.0">Large</text>
        </g>
        <g font-size="9">
            <text x="250.0" y="30.0">Ultralight</text>
            <text x="450.0" y="30.0">Regular</text>
            <text x="650.0" y="30.0">Black</text>
            <text id="template-version" fill="#505050" text-anchor="end" x="785.0" y="575.0">Template v.3.0</text>
            <a href="https://github.com/swhitty/SwiftDraw">
                <text fill="#505050" text-anchor="end" x="785.0" y="590.0">https://github.com/swhitty/SwiftDraw</text>
            </a>
        </g>
    </g>
    <g id="Guides" stroke="rgb(39, 170, 225)" stroke-width="0.5">
        <path id="Capline-S" d="M18,76 l800,0" />
        <path id="H-reference" d="M85,145.755 L87.685,145.755 L113.369,79.287 L114.052,79.287 L114.052,76 L112.148,76 L85,145.755 Z M95.693,121.536 L130.996,121.536 L130.263,119.313 L96.474,119.313 L95.693,121.536 Z M139.15,145.755 L141.787,145.755 L114.638,76 L113.466,76 L113.466,79.287 L139.15,145.755 Z" stroke="none" />
        <path id="Baseline-S" d="M18,146 l800,0" />
        <path id="left-margin-Ultralight-S" d="M220,56 l0,110" />
        <path id="right-margin-Ultralight-S" d="M310,56 l0,110" />
        <path id="left-margin-Regular-S" d="M420,56 l0,110" />
        <path id="right-margin-Regular-S" d="M510,56 l0,110" />
        <path id="left-margin-Black-S" d="M620,56 l0,110" />
        <path id="right-margin-Black-S" d="M710,56 l0,110" />
        <path id="Capline-M" d="M18,276 l800,0" />
        <path id="Baseline-M" d="M18,346 l800,0" />
        <path id="Capline-L" d="M18,476 l800,0" />
        <path id="Baseline-L" d="M18,546 l800,0" />
    </g>
    <g id="Symbols">
        <g id="Ultralight-S">
            <path d="M294.878,111 L294.878,140.024 C294.878,140.251 294.788,140.468 294.628,140.628 C294.468,140.788 294.251,140.878 294.024,140.878 L235.976,140.878 C235.749,140.878 235.532,140.788 235.372,140.628 C235.212,140.468 235.122,140.251 235.122,140.024 L235.122,81.976 C235.122,81.749 235.212,81.532 235.372,81.372 C235.532,81.212 235.749,81.122 235.976,81.122 L294.024,81.122 C294.251,81.122 294.468,81.212 294.628,81.372 C294.788,81.532 294.878,81.749 294.878,81.976 L294.878,111 Z M300,111 L300,81.976 C300,80.391 299.37,78.871 298.25,77.75 C297.129,76.63 295.609,76 294.024,76 L235.976,76 C234.391,76 232.871,76.63 231.75,77.75 C230.63,78.871 230,80.391 230,81.976 L230,140.024 C230,141.609 230.63,143.129 231.75,144.25 C232.871,145.37 234.391,146 235.976,146 L294.024,146 C295.609,146 297.129,145.37 298.25,144.25 C299.37,143.129 300,141.609 300,140.024 L300,111 Z" />
            <path d="M262.439,78.561 L262.439,143.439 C262.439,144.853 263.586,146 265,146 C266.414,146 267.561,144.853 267.561,143.439 L267.561,78.561 C267.561,77.147 266.414,76 265,76 C263.586,76 262.439,77.147 262.439,78.561 Z" />
            <path d="M232.561,113.561 L297.439,113.561 C298.853,113.561 300,112.414 300,111 C300,109.586 298.853,108.439 297.439,108.439 L232.561,108.439 C231.147,108.439 230,109.586 230,111 C230,112.414 231.147,113.561 232.561,113.561 Z" />
        </g>
        <g id="Regular-S">
            <path d="M494.878,111 L494.878,140.024 C494.878,140.251 494.788,140.468 494.628,140.628 C494.468,140.788 494.251,140.878 494.024,140.878 L435.976,140.878 C435.749,140.878 435.532,140.788 435.372,140.628 C435.212,140.468 435.122,140.251 435.122,140.024 L435.122,81.976 C435.122,81.749 435.212,81.532 435.372,81.372 C435.532,81.212 435.749,81.122 435.976,81.122 L494.024,81.122 C494.251,81.122 494.468,81.212 494.628,81.372 C494.788,81.532 494.878,81.749 494.878,81.976 L494.878,111 Z M500,111 L500,81.976 C500,80.391 499.37,78.871 498.25,77.75 C497.129,76.63 495.609,76 494.024,76 L435.976,76 C434.391,76 432.871,76.63 431.75,77.75 C430.63,78.871 430,80.391 430,81.976 L430,140.024 C430,141.609 430.63,143.129 431.75,144.25 C432.871,145.37 434.391,146 435.976,146 L494.024,146 C495.609,146 497.129,145.37 498.25,144.25 C499.37,143.129 500,141.609 500,140.024 L500,111 Z" />
            <path d="M462.439,78.561 L462.439,143.439 C462.439,144.853 463.586,146 465,146 C466.414,146 467.561,144.853 467.561,143.439 L467.561,78.561 C467.561,77.147 466.414,76 465,76 C463.586,76 462.439,77.147 462.439,78.561 Z" />
            <path d="M432.561,113.561 L497.439,113.561 C498.853,113.561 500,112.414 500,111 C500,109.586 498.853,108.439 497.439,108.439 L432.561,108.439 C431.147,108.439 430,109.586 430,111 C430,112.414 431.147,113.561 432.561,113.561 Z" />
        </g>
        <g id="Black-S">
            <path d="M694.878,111 L694.878,140.024 C694.878,140.251 694.788,140.468 694.628,140.628 C694.468,140.788 694.251,140.878 694.024,140.878 L635.976,140.878 C635.749,140.878 635.532,140.788 635.372,140.628 C635.212,140.468 635.122,140.251 635.122,140.024 L635.122,81.976 C635.122,81.749 635.212,81.532 635.372,81.372 C635.532,81.212 635.749,81.122 635.976,81.122 L694.024,81.122 C694.251,81.122 694.468,81.212 694.628,81.372 C694.788,81.532 694.878,81.749 694.878,81.976 L694.878,111 Z M700,111 L700,81.976 C700,80.391 699.37,78.871 698.25,77.75 C697.129,76.63 695.609,76 694.024,76 L635.976,76 C634.391,76 632.871,76.63 631.75,77.75 C630.63,78.871 630,80.391 630,81.976 L630,140.024 C630,141.609 630.63,143.129 631.75,144.25 C632.871,145.37 634.391,146 635.976,146 L694.024,146 C695.609,146 697.129,145.37 698.25,144.25 C699.37,143.129 700,141.609 700,140.024 L700,111 Z" />
            <path d="M662.439,78.561 L662.439,143.439 C662.439,144.853 663.586,146 665,146 C666.414,146 667.561,144.853 667.561,143.439 L667.561,78.561 C667.561,77.147 666.414,76 665,76 C663.586,76 662.439,77.147 662.439,78.561 Z" />
            <path d="M632.561,113.561 L697.439,113.561 C698.853,113.561 700,112.414 700,111 C700,109.586 698.853,108.439 697.439,108.439 L632.561,108.439 C631.147,108.439 630,109.586 630,111 C630,112.414 631.147,113.561 632.561,113.561 Z" />
        </g>
    </g>
</svg>