<?xml version="1.0" encoding="UTF-8"?>
<svg height="600" width="800" xmlns="http://www.w3.org/2000/svg" xmlns:xlink="http://www.w3.org/1999/xlink">
    <g id="Notes" font-family="'LucidaGrande', 'Lucida Grande', sans-serif" font-size="13">
        <rect fill="white" height="600.0" width="800.0" x="0.0" y="0.0" />
        <g font-size="13">
            <text x="18.0" y="176.0">Small</text>
            <text x="18.0" y="376.0">Medium</text>
            <text x="18.0" y="576.0">Large</text>
        </g>
        <g font-size="9">
            <text x="250.0" y="30.0">Ultralight</text>
            <text x="450.0" y="30.0">Regular</text>
            <text x="650.0" y="30.0">Black</text>
            <text id="template-version" fill="#505050" text-anchor="end" x="785.0" y="575.0">Template v.3.0</text>
            <a href="https://github.com/swhitty/SwiftDraw">
                <text fill="#505050" text-anchor="end" x="785.0" y="590.0">https://github.com/swhitty/SwiftDraw</text>
            </a>
        </g>
    </g>
    <g id="Guides" stroke="rgb(39, 170, 225)" stroke-width="0.5">
        <path id="Capline-S" d="M18,76 l800,0" />
        <path id="H-reference" d="M85,145.755 L87.685,145.755 L113.369,79.287 L114.052,79.287 L114.052,76 L112.148,76 L85,145.755 Z M95.693,121.536 L130.996,121.536 L130.263,119.313 L96.474,119.313 L95.693,121.536 Z M139.15,145.755 L141.787,145.755 L114.638,76 L113.466,76 L113.466,79.287 L139.15,145.755 Z" stroke="none" />
        <path id="Baseline-S" d="M18,146 l800,0" />
        <path id="left-margin-Ultralight-S" d="M211,56 l0,110" />
        <path id="right-margin-Ultralight-S" d="M319,56 l0,110" />
        <path id="left-margin-Regular-S" d="M411,56 l0,110" />
        <path id="right-margin-Regular-S" d="M519,56 l0,110" />
        <path id="left-margin-Black-S" d="M611,56 l0,110" />
        <path id="right-margin-Black-S" d="M719,56 l0,110" />
        <path id="Capline-M" d="M18,276 l800,0" />
        <path id="Baseline-M" d="M18,346 l800,0" />
        <path id="Capline-L" d="M18,476 l800,0" />
        <path id="Baseline-L" d="M18,546 l800,0" />
    </g>
    <g id="Symbols">
        <g id="Ultralight-S">
            <path d="M229.624,90.068 C230.064,90.802 230.88,92.017 232.058,93.554 C234.002,96.09 236.282,98.623 238.889,100.992 C246.442,107.859 255.186,112.023 265,112.023 C274.813,112.023 283.558,107.859 291.111,100.992 C293.718,98.623 295.998,96.09 297.942,93.554 C299.12,92.017 299.936,90.802 300.376,90.068 L295.112,86.909 C295.042,87.025 294.88,87.281 294.628,87.657 C294.193,88.304 293.673,89.031 293.07,89.818 C291.337,92.079 289.299,94.343 286.982,96.45 C280.465,102.373 273.093,105.884 265,105.884 C256.907,105.884 249.535,102.373 243.018,96.45 C240.701,94.343 238.663,92.079 236.93,89.818 C236.327,89.031 235.807,88.304 235.372,87.657 C235.12,87.281 234.958,87.025 234.888,86.909 L229.624,90.068 Z" />
            <path d="M229.186,82.349 L229.186,139.651 C229.186,141.346 230.561,142.721 232.256,142.721 C233.951,142.721 235.326,141.346 235.326,139.651 L235.326,82.349 C235.326,80.654 233.951,79.279 232.256,79.279 C230.561,79.279 229.186,80.654 229.186,82.349 Z" />
            <path d="M294.674,82.349 L294.674,139.651 C294.674,141.346 296.049,142.721 297.744,142.721 C299.439,142.721 300.814,141.346 300.814,139.651 L300.814,82.349 C300.814,80.654 299.439,79.279 297.744,79.279 C296.049,79.279 294.674,80.654 294.674,82.349 Z" />
            <path d="M224.22,127.368 C224.383,127.36 224.702,127.345 225.16,127.324 C225.924,127.288 226.803,127.249 227.783,127.206 C230.584,127.084 233.632,126.961 236.823,126.847 C241.774,126.671 246.605,126.53 251.141,126.439 C256.394,126.334 261.055,126.3 264.962,126.349 C268.865,126.397 273.518,126.547 278.759,126.783 C282.291,126.942 286.017,127.136 289.86,127.358 C293.756,127.583 297.563,127.825 301.125,128.066 C302.371,128.15 303.497,128.229 304.484,128.299 C305.076,128.341 305.489,128.371 305.703,128.387 C307.394,128.512 308.866,127.243 308.991,125.552 C309.117,123.862 307.848,122.389 306.157,122.264 C305.936,122.248 305.518,122.217 304.921,122.175 C303.927,122.104 302.793,122.025 301.539,121.94 C297.959,121.698 294.132,121.455 290.214,121.229 C286.346,121.005 282.594,120.81 279.035,120.65 C273.732,120.411 269.017,120.259 265.038,120.21 C261.056,120.16 256.333,120.194 251.018,120.301 C246.447,120.392 241.585,120.534 236.604,120.712 C233.396,120.826 230.332,120.949 227.516,121.072 C226.53,121.115 225.645,121.155 224.874,121.191 C224.411,121.212 224.09,121.228 223.92,121.236 C222.226,121.319 220.921,122.759 221.004,124.453 C221.087,126.146 222.527,127.451 224.22,127.368 Z" />
            <path d="M245.558,104.86 L245.558,123.279 C245.558,124.974 246.933,126.349 248.628,126.349 C250.323,126.349 251.698,124.974 251.698,123.279 L251.698,104.86 C251.698,103.165 250.323,101.791 248.628,101.791 C246.933,101.791 245.558,103.165 245.558,104.86 Z" />
            <path d="M261.93,108.953 L261.93,123.279 C261.93,124.974 263.305,126.349 265,126.349 C266.695,126.349 268.07,124.974 268.07,123.279 L268.07,108.953 C268.07,107.258 266.695,105.884 265,105.884 C263.305,105.884 261.93,107.258 261.93,108.953 Z" />
            <path d="M278.302,104.86 L278.302,123.279 C278.302,124.974 279.677,126.349 281.372,126.349 C283.067,126.349 284.442,124.974 284.442,123.279 L284.442,104.86 C284.442,103.165 283.067,101.791 281.372,101.791 C279.677,101.791 278.302,103.165 278.302,104.86 Z" />
            <path d="M229.859,86.571 L221.673,96.803 C220.614,98.127 220.828,100.059 222.152,101.118 C223.476,102.177 225.408,101.962 226.467,100.639 L234.653,90.406 C235.712,89.082 235.497,87.15 234.174,86.091 C232.85,85.032 230.918,85.247 229.859,86.571 Z" />
            <path d="M308.327,96.803 L300.141,86.571 C299.082,85.247 297.15,85.032 295.826,86.091 C294.503,87.15 294.288,89.082 295.347,90.406 L303.533,100.639 C304.592,101.962 306.524,102.177 307.848,101.118 C309.172,100.059 309.386,98.127 308.327,96.803 Z" />
        </g>
        <g id="Regular-S">
            <path d="M429.624,90.068 C430.064,90.802 430.88,92.017 432.058,93.554 C434.002,96.09 436.282,98.623 438.889,100.992 C446.442,107.859 455.186,112.023 465,112.023 C474.813,112.023 483.558,107.859 491.111,100.992 C493.718,98.623 495.998,96.09 497.942,93.554 C499.12,92.017 499.936,90.802 500.376,90.068 L495.112,86.909 C495.042,87.025 494.88,87.281 494.628,87.657 C494.193,88.304 493.673,89.031 493.07,89.818 C491.337,92.079 489.299,94.343 486.982,96.45 C480.465,102.373 473.093,105.884 465,105.884 C456.907,105.884 449.535,102.373 443.018,96.45 C440.701,94.343 438.663,92.079 436.93,89.818 C436.327,89.031 435.807,88.304 435.372,87.657 C435.12,87.281 434.958,87.025 434.888,86.909 L429.624,90.068 Z" />
            <path d="M429.186,82.349 L429.186,139.651 C429.186,141.346 430.561,142.721 432.256,142.721 C433.951,142.721 435.326,141.346 435.326,139.651 L435.326,82.349 C435.326,80.654 433.951,79.279 432.256,79.279 C430.561,79.279 429.186,80.654 429.186,82.349 Z" />
            <path d="M494.674,82.349 L494.674,139.651 C494.674,141.346 496.049,142.721 497.744,142.721 C499.439,142.721 500.814,141.346 500.814,139.651 L500.814,82.349 C500.814,80.654 499.439,79.279 497.744,79.279 C496.049,79.279 494.674,80.654 494.674,82.349 Z" />
            <path d="M424.22,127.368 C424.383,127.36 424.702,127.345 425.16,127.324 C425.924,127.288 426.803,127.249 427.783,127.206 C430.584,127.084 433.632,126.961 436.823,126.847 C441.774,126.671 446.605,126.53 451.141,126.439 C456.394,126.334 461.055,126.3 464.962,126.349 C468.865,126.397 473.518,126.547 478.759,126.783 C482.291,126.942 486.017,127.136 489.86,127.358 C493.756,127.583 497.563,127.825 501.125,128.066 C502.371,128.15 503.497,128.229 504.484,128.299 C505.076,128.341 505.489,128.371 505.703,128.387 C507.394,128.512 508.866,127.243 508.991,125.552 C509.117,123.862 507.848,122.389 506.157,122.264 C505.936,122.248 505.518,122.217 504.921,122.175 C503.927,122.104 502.793,122.025 501.539,121.94 C497.959,121.698 494.132,121.455 490.214,121.229 C486.346,121.005 482.594,120.81 479.035,120.65 C473.732,120.411 469.017,120.259 465.038,120.21 C461.056,120.16 456.333,120.194 451.018,120.301 C446.447,120.392 441.585,120.534 436.604,120.712 C433.396,120.826 430.332,120.949 427.516,121.072 C426.53,121.115 425.645,121.155 424.874,121.191 C424.411,121.212 424.09,121.228 423.92,121.236 C422.226,121.319 420.921,122.759 421.004,124.453 C421.087,126.146 422.527,127.451 424.22,127.368 Z" />
            <path d="M445.558,104.86 L445.558,123.279 C445.558,124.974 446.933,126.349 448.628,126.349 C450.323,126.349 451.698,124.974 451.698,123.279 L451.698,104.86 C451.698,103.165 450.323,101.791 448.628,101.791 C446.933,101.791 445.558,103.165 445.558,104.86 Z" />
            <path d="M461.93,108.953 L461.93,123.279 C461.93,124.974 463.305,126.349 465,126.349 C466.695,126.349 468.07,124.974 468.07,123.279 L468.07,108.953 C468.07,107.258 466.695,105.884 465,105.884 C463.305,105.884 461.93,107.258 461.93,108.953 Z" />
            <path d="M478.302,104.86 L478.302,123.279 C478.302,124.974 479.677,126.349 481.372,126.349 C483.067,126.349 484.442,124.974 484.442,123.279 L484.442,104.86 C484.442,103.165 483.067,101.791 481.372,101.791 C479.677,101.791 478.302,103.165 478.302,104.86 Z" />
            <path d="M429.859,86.571 L421.673,96.803 C420.614,98.127 420.828,100.059 422.152,101.118 C423.476,102.177 425.408,101.962 426.467,100.639 L434.653,90.406 C435.712,89.082 435.497,87.15 434.174,86.091 C432.85,85.032 430.918,85.247 429.859,86.571 Z" />
            <path d="M508.327,96.803 L500.141,86.571 C499.082,85.247 497.15,85.032 495.826,86.091 C494.503,87.15 494.288,89.082 495.347,90.406 L503.533,100.639 C504.592,101.962 506.524,102.177 507.848,101.118 C509.172,100.059 509.386,98.127 508.327,96.803 Z" />
        </g>
        <g id="Black-S">
            <path d="M629.624,90.068 C630.064,90.802 630.88,92.017 632.058,93.554 C634.002,96.09 636.282,98.623 638.889,100.992 C646.442,107.859 655.187,112.023 665,112.023 C674.813,112.023 683.558,107.859 691.111,100.992 C693.718,98.623 695.998,96.09 697.942,93.554 C699.12,92.017 699.936,90.802 700.376,90.068 L695.112,86.909 C695.042,87.025 694.88,87.281 694.628,87.657 C694.193,88.304 693.673,89.031 693.07,89.818 C691.337,92.079 689.299,94.343 686.982,96.45 C680.465,102.373 673.093,105.884 665,105.884 C656.907,105.884 649.535,102.373 643.018,96.45 C640.701,94.343 638.663,92.079 636.93,89.818 C636.327,89.031 635.807,88.304 635.372,87.657 C635.12,87.281 634.958,87.025 634.888,86.909 L629.624,90.068 Z" />
            <path d="M629.186,82.349 L629.186,139.651 C629.186,141.346 630.561,142.721 632.256,142.721 C633.951,142.721 635.326,141.346 635.326,139.651 L635.326,82.349 C635.326,80.654 633.951,79.279 632.256,79.279 C630.561,79.279 629.186,80.654 629.186,82.349 Z" />
            <path d="M694.674,82.349 L694.674,139.651 C694.674,141.346 696.049,142.721 697.744,142.721 C699.439,142.721 700.814,141.346 700.814,139.651 L700.814,82.349 C700.814,80.654 699.439,79.279 697.744,79.279 C696.049,79.279 694.674,80.654 694.674,82.349 Z" />
            <path d="M624.22,127.368 C624.383,127.36 624.702,127.345 625.16,127.324 C625.924,127.288 626.803,127.249 627.783,127.206 C630.584,127.084 633.632,126.961 636.823,126.847 C641.774,126.671 646.605,126.53 651.141,126.439 C656.394,126.334 661.055,126.3 664.962,126.349 C668.865,126.397 673.518,126.547 678.759,126.783 C682.291,126.942 686.017,127.136 689.86,127.358 C693.756,127.583 697.563,127.825 701.125,128.066 C702.371,128.15 703.497,128.229 704.484,128.299 C705.076,128.341 705.489,128.371 705.703,128.387 C707.394,128.512 708.866,127.243 708.991,125.552 C709.117,123.862 707.848,122.389 706.157,122.264 C705.936,122.248 705.518,122.217 704.921,122.175 C703.927,122.104 702.793,122.025 701.539,121.94 C697.959,121.698 694.132,121.455 690.214,121.229 C686.346,121.005 682.594,120.81 679.035,120.65 C673.732,120.411 669.017,120.259 665.038,120.21 C661.056,120.16 656.333,120.194 651.018,120.301 C646.447,120.392 641.585,120.534 636.604,120.712 C633.396,120.826 630.332,120.949 627.516,121.072 C626.53,121.115 625.645,121.155 624.874,121.191 C624.411,121.212 624.09,121.228 623.92,121.236 C622.226,121.319 620.921,122.759 621.004,124.453 C621.087,126.146 622.527,127.451 624.22,127.368 Z" />
            <path d="M645.558,104.86 L645.558,123.279 C645.558,124.974 646.933,126.349 648.628,126.349 C650.323,126.349 651.698,124.974 651.698,123.279 L651.698,104.86 C651.698,103.165 650.323,101.791 648.628,101.791 C646.933,101.791 645.558,103.165 645.558,104.86 Z" />
            <path d="M661.93,108.953 L661.93,123.279 C661.93,124.974 663.305,126.349 665,126.349 C666.695,126.349 668.07,124.974 668.07,123.279 L668.07,108.953 C668.07,107.258 666.695,105.884 665,105.884 C663.305,105.884 661.93,107.258 661.93,108.953 Z" />
            <path d="M678.302,104.86 L678.302,123.279 C678.302,124.974 679.677,126.349 681.372,126.349 C683.067,126.349 684.442,124.974 684.442,123.279 L684.442,104.86 C684.442,103.165 683.067,101.791 681.372,101.791 C679.677,101.791 678.302,103.165 678.302,104.86 Z" />
            <path d="M629.859,86.571 L621.673,96.803 C620.614,98.127 620.828,100.059 622.152,101.118 C623.476,102.177 625.408,101.962 626.467,100.639 L634.653,90.406 C635.712,89.082 635.497,87.15 634.174,86.091 C632.85,85.032 630.918,85.247 629.859,86.571 Z" />
            <path d="M708.327,96.803 L700.141,86.571 C699.082,85.247 697.15,85.032 695.826,86.091 C694.503,87.15 694.288,89.082 695.347,90.406 L703.533,100.639 C704.592,101.962 706.524,102.177 707.848,101.118 C709.172,100.059 709.386,98.127 708.327,96.803 Z" />
        </g>
    </g>
</svg>