<?xml version="1.0" encoding="UTF-8"?>
<svg height="600" width="800" xmlns="http://www.w3.org/2000/svg" xmlns:xlink="http://www.w3.org/1999/xlink">
    <g id="Notes" font-family="'LucidaGrande', 'Lucida Grande', sans-serif" font-size="13">
        <rect fill="white" height="600.0" width="800.0" x="0.0" y="0.0" />
        <g font-size="13">
            <text x="18.0" y="176.0">Small</text>
            <text x="18.0" y="376.0">Medium</text>
            <text x="18.0" y="576.0">Large</text>
        </g>
        <g font-size="9">
            <text x="250.0" y="30.0">Ultralight</text>
            <text x="450.0" y="30.0">Regular</text>
            <text x="650.0" y="30.0">Black</text>
            <text id="template-version" fill="#505050" text-anchor="end" x="785.0" y="575.0">Template v.3.0</text>
            <a href="https://github.com/swhitty/SwiftDraw">
                <text fill="#505050" text-anchor="end" x="785.0" y="590.0">https://github.com/swhitty/SwiftDraw</text>
            </a>
        </g>
    </g>
    <g id="Guides" stroke="rgb(39, 170, 225)" stroke-width="0.5">
        <path id="Capline-S" d="M18,76 l800,0" />
        <path id="H-reference" d="M85,145.755 L87.685,145.755 L113.369,79.287 L114.052,79.287 L114.052,76 L112.148,76 L85,145.755 Z M95.693,121.536 L130.996,121.536 L130.263,119.313 L96.474,119.313 L95.693,121.536 Z M139.15,145.755 L141.787,145.755 L114.638,76 L113.466,76 L113.466,79.287 L139.15,145.755 Z" stroke="none" />
        <path id="Baseline-S" d="M18,146 l800,0" />
        <path id="left-margin-Ultralight-S" d="M218.293,56 l0,110" />
        <path id="right-margin-Ultralight-S" d="M311.707,56 l0,110" />
        <path id="left-margin-Regular-S" d="M418.293,56 l0,110" />
        <path id="right-margin-Regular-S" d="M511.707,56 l0,110" />
        <path id="left-margin-Black-S" d="M618.293,56 l0,110" />
        <path id="right-margin-Black-S" d="M711.707,56 l0,110" />
        <path id="Capline-M" d="M18,276 l800,0" />
        <path id="Baseline-M" d="M18,346 l800,0" />
        <path id="Capline-L" d="M18,476 l800,0" />
        <path id="Baseline-L" d="M18,546 l800,0" />
    </g>
    <g id="Symbols">
        <g id="Ultralight-S">
            <path d="M278.659,99.902 L251.341,99.902 C238.612,99.902 228.293,110.222 228.293,122.951 C228.293,135.681 238.612,146 251.341,146 L278.659,146 C291.388,146 301.707,135.681 301.707,122.951 C301.707,110.222 291.388,99.902 278.659,99.902 Z M278.659,105.024 C288.559,105.024 296.585,113.051 296.585,122.951 C296.585,132.852 288.559,140.878 278.659,140.878 L251.341,140.878 C241.441,140.878 233.415,132.852 233.415,122.951 C233.415,113.051 241.441,105.024 251.341,105.024 L278.659,105.024 Z" />
            <path d="M248.78,116.122 L248.78,129.78 C248.78,131.195 249.927,132.341 251.341,132.341 C252.756,132.341 253.902,131.195 253.902,129.78 L253.902,116.122 C253.902,114.708 252.756,113.561 251.341,113.561 C249.927,113.561 248.78,114.708 248.78,116.122 Z" />
            <path d="M244.512,125.512 L258.171,125.512 C259.585,125.512 260.732,124.366 260.732,122.951 C260.732,121.537 259.585,120.39 258.171,120.39 L244.512,120.39 C243.098,120.39 241.951,121.537 241.951,122.951 C241.951,124.366 243.098,125.512 244.512,125.512 Z" />
            <path d="M267.561,99.049 L267.561,88.317 L265,90.878 L278.659,90.878 C280.073,90.878 281.22,89.731 281.22,88.317 L281.22,78.561 C281.22,77.147 280.073,76 278.659,76 C277.244,76 276.098,77.147 276.098,78.561 L276.098,88.317 L278.659,85.756 L265,85.756 C263.586,85.756 262.439,86.903 262.439,88.317 L262.439,99.049 C262.439,100.463 263.586,101.61 265,101.61 C266.414,101.61 267.561,100.463 267.561,99.049 Z" />
            <path d="M278.659,132.341 C283.845,132.341 288.049,128.137 288.049,122.951 C288.049,117.765 283.845,113.561 278.659,113.561 C273.473,113.561 269.268,117.765 269.268,122.951 C269.268,128.137 273.473,132.341 278.659,132.341 Z M278.659,127.22 C276.301,127.22 274.39,125.308 274.39,122.951 C274.39,120.594 276.301,118.683 278.659,118.683 C281.016,118.683 282.927,120.594 282.927,122.951 C282.927,125.308 281.016,127.22 278.659,127.22 Z" />
        </g>
        <g id="Regular-S">
            <path d="M478.659,99.902 L451.341,99.902 C438.612,99.902 428.293,110.222 428.293,122.951 C428.293,135.681 438.612,146 451.341,146 L478.659,146 C491.388,146 501.707,135.681 501.707,122.951 C501.707,110.222 491.388,99.902 478.659,99.902 Z M478.659,105.024 C488.559,105.024 496.585,113.051 496.585,122.951 C496.585,132.852 488.559,140.878 478.659,140.878 L451.341,140.878 C441.441,140.878 433.415,132.852 433.415,122.951 C433.415,113.051 441.441,105.024 451.341,105.024 L478.659,105.024 Z" />
            <path d="M448.78,116.122 L448.78,129.78 C448.78,131.195 449.927,132.341 451.341,132.341 C452.756,132.341 453.902,131.195 453.902,129.78 L453.902,116.122 C453.902,114.708 452.756,113.561 451.341,113.561 C449.927,113.561 448.78,114.708 448.78,116.122 Z" />
            <path d="M444.512,125.512 L458.171,125.512 C459.585,125.512 460.732,124.366 460.732,122.951 C460.732,121.537 459.585,120.39 458.171,120.39 L444.512,120.39 C443.098,120.39 441.951,121.537 441.951,122.951 C441.951,124.366 443.098,125.512 444.512,125.512 Z" />
            <path d="M467.561,99.049 L467.561,88.317 L465,90.878 L478.659,90.878 C480.073,90.878 481.22,89.731 481.22,88.317 L481.22,78.561 C481.22,77.147 480.073,76 478.659,76 C477.244,76 476.098,77.147 476.098,78.561 L476.098,88.317 L478.659,85.756 L465,85.756 C463.586,85.756 462.439,86.903 462.439,88.317 L462.439,99.049 C462.439,100.463 463.586,101.61 465,101.61 C466.414,101.61 467.561,100.463 467.561,99.049 Z" />
            <path d="M478.659,132.341 C483.845,132.341 488.049,128.137 488.049,122.951 C488.049,117.765 483.845,113.561 478.659,113.561 C473.473,113.561 469.268,117.765 469.268,122.951 C469.268,128.137 473.473,132.341 478.659,132.341 Z M478.659,127.22 C476.301,127.22 474.39,125.308 474.39,122.951 C474.39,120.594 476.301,118.683 478.659,118.683 C481.016,118.683 482.927,120.594 482.927,122.951 C482.927,125.308 481.016,127.22 478.659,127.22 Z" />
        </g>
        <g id="Black-S">
            <path d="M678.659,99.902 L651.341,99.902 C638.612,99.902 628.293,110.222 628.293,122.951 C628.293,135.681 638.612,146 651.341,146 L678.659,146 C691.388,146 701.707,135.681 701.707,122.951 C701.707,110.222 691.388,99.902 678.659,99.902 Z M678.659,105.024 C688.559,105.024 696.585,113.051 696.585,122.951 C696.585,132.852 688.559,140.878 678.659,140.878 L651.341,140.878 C641.441,140.878 633.415,132.852 633.415,122.951 C633.415,113.051 641.441,105.024 651.341,105.024 L678.659,105.024 Z" />
            <path d="M648.781,116.122 L648.781,129.78 C648.781,131.195 649.927,132.341 651.341,132.341 C652.756,132.341 653.902,131.195 653.902,129.78 L653.902,116.122 C653.902,114.708 652.756,113.561 651.341,113.561 C649.927,113.561 648.781,114.708 648.781,116.122 Z" />
            <path d="M644.512,125.512 L658.171,125.512 C659.585,125.512 660.732,124.366 660.732,122.951 C660.732,121.537 659.585,120.39 658.171,120.39 L644.512,120.39 C643.098,120.39 641.951,121.537 641.951,122.951 C641.951,124.366 643.098,125.512 644.512,125.512 Z" />
            <path d="M667.561,99.049 L667.561,88.317 L665,90.878 L678.659,90.878 C680.073,90.878 681.22,89.731 681.22,88.317 L681.22,78.561 C681.22,77.147 680.073,76 678.659,76 C677.244,76 676.098,77.147 676.098,78.561 L676.098,88.317 L678.659,85.756 L665,85.756 C663.586,85.756 662.439,86.903 662.439,88.317 L662.439,99.049 C662.439,100.463 663.586,101.61 665,101.61 C666.414,101.61 667.561,100.463 667.561,99.049 Z" />
            <path d="M678.659,132.341 C683.845,132.341 688.049,128.137 688.049,122.951 C688.049,117.765 683.845,113.561 678.659,113.561 C673.473,113.561 669.268,117.765 669.268,122.951 C669.268,128.137 673.473,132.341 678.659,132.341 Z M678.659,127.22 C676.301,127.22 674.39,125.308 674.39,122.951 C674.39,120.594 676.301,118.683 678.659,118.683 C681.016,118.683 682.927,120.594 682.927,122.951 C682.927,125.308 681.016,127.22 678.659,127.22 Z" />
        </g>
    </g>
</svg>