<?xml version="1.0" encoding="UTF-8"?>
<svg height="600" width="800" xmlns="http://www.w3.org/2000/svg" xmlns:xlink="http://www.w3.org/1999/xlink">
    <g id="Notes" font-family="'LucidaGrande', 'Lucida Grande', sans-serif" font-size="13">
        <rect fill="white" height="600.0" width="800.0" x="0.0" y="0.0" />
        <g font-size="13">
            <text x="18.0" y="176.0">Small</text>
            <text x="18.0" y="376.0">Medium</text>
            <text x="18.0" y="576.0">Large</text>
        </g>
        <g font-size="9">
            <text x="250.0" y="30.0">Ultralight</text>
            <text x="450.0" y="30.0">Regular</text>
            <text x="650.0" y="30.0">Black</text>
            <text id="template-version" fill="#505050" text-anchor="end" x="785.0" y="575.0">Template v.3.0</text>
            <a href="https://github.com/swhitty/SwiftDraw">
                <text fill="#505050" text-anchor="end" x="785.0" y="590.0">https://github.com/swhitty/SwiftDraw</text>
            </a>
        </g>
    </g>
    <g id="Guides" stroke="rgb(39, 170, 225)" stroke-width="0.5">
        <path id="Capline-S" d="M18,76 l800,0" />
        <path id="H-reference" d="M85,145.755 L87.685,145.755 L113.369,79.287 L114.052,79.287 L114.052,76 L112.148,76 L85,145.755 Z M95.693,121.536 L130.996,121.536 L130.263,119.313 L96.474,119.313 L95.693,121.536 Z M139.15,145.755 L141.787,145.755 L114.638,76 L113.466,76 L113.466,79.287 L139.15,145.755 Z" stroke="none" />
        <path id="Baseline-S" d="M18,146 l800,0" />
        <path id="left-margin-Ultralight-S" d="M216.41,56 l0,110" />
        <path id="right-margin-Ultralight-S" d="M313.59,56 l0,110" />
        <path id="left-margin-Regular-S" d="M416.41,56 l0,110" />
        <path id="right-margin-Regular-S" d="M513.59,56 l0,110" />
        <path id="left-margin-Black-S" d="M616.41,56 l0,110" />
        <path id="right-margin-Black-S" d="M713.59,56 l0,110" />
        <path id="Capline-M" d="M18,276 l800,0" />
        <path id="Baseline-M" d="M18,346 l800,0" />
        <path id="Capline-L" d="M18,476 l800,0" />
        <path id="Baseline-L" d="M18,546 l800,0" />
    </g>
    <g id="Symbols">
        <g id="Ultralight-S">
            <path d="M298.205,105.615 L298.205,128.949 C298.205,129.187 298.111,129.415 297.942,129.583 C297.774,129.752 297.546,129.846 297.308,129.846 L232.692,129.846 C232.454,129.846 232.226,129.752 232.058,129.583 C231.889,129.415 231.795,129.187 231.795,128.949 L231.795,82.282 C231.795,82.044 231.889,81.816 232.058,81.647 C232.226,81.479 232.454,81.385 232.692,81.385 L297.308,81.385 C297.546,81.385 297.774,81.479 297.942,81.647 C298.111,81.816 298.205,82.044 298.205,82.282 L298.205,105.615 Z M303.59,105.615 L303.59,82.282 C303.59,80.616 302.928,79.018 301.75,77.84 C300.572,76.662 298.974,76 297.308,76 L232.692,76 C231.026,76 229.428,76.662 228.25,77.84 C227.072,79.018 226.41,80.616 226.41,82.282 L226.41,128.949 C226.41,130.615 227.072,132.213 228.25,133.391 C229.428,134.569 231.026,135.231 232.692,135.231 L297.308,135.231 C298.974,135.231 300.572,134.569 301.75,133.391 C302.928,132.213 303.59,130.615 303.59,128.949 L303.59,105.615 Z" />
            <path d="M290.129,92.154 L282.949,92.154 C281.462,92.154 280.257,93.359 280.257,94.846 C280.257,96.333 281.462,97.538 282.949,97.538 L290.129,97.538 C291.615,97.538 292.821,96.333 292.821,94.846 C292.821,93.359 291.615,92.154 290.129,92.154 Z" />
            <path d="M290.128,102.923 L282.949,102.923 C281.462,102.923 280.256,104.128 280.256,105.615 C280.256,107.102 281.462,108.308 282.949,108.308 L290.128,108.308 C291.615,108.308 292.821,107.102 292.821,105.615 C292.821,104.128 291.615,102.923 290.128,102.923 Z" />
            <path d="M267.692,94.846 L267.692,116.385 L270.385,113.692 L239.872,113.692 L242.564,116.385 L242.564,94.846 L239.872,97.538 L270.385,97.538 L267.692,94.846 Z M273.077,94.846 C273.077,93.359 271.872,92.154 270.385,92.154 L239.872,92.154 C238.385,92.154 237.179,93.359 237.179,94.846 L237.179,116.385 C237.179,117.872 238.385,119.077 239.872,119.077 L270.385,119.077 C271.872,119.077 273.077,117.872 273.077,116.385 L273.077,94.846 Z" />
            <path d="M282.949,116.385 C282.949,114.402 284.556,112.795 286.538,112.795 C288.521,112.795 290.128,114.402 290.128,116.385 C290.128,118.367 288.521,119.974 286.538,119.974 C284.556,119.974 282.949,118.367 282.949,116.385 Z" />
            <path d="M240.769,132.538 L240.769,143.308 C240.769,144.795 241.975,146 243.462,146 C244.948,146 246.154,144.795 246.154,143.308 L246.154,132.538 C246.154,131.052 244.948,129.846 243.462,129.846 C241.975,129.846 240.769,131.052 240.769,132.538 Z" />
            <path d="M283.846,132.538 L283.846,143.308 C283.846,144.795 285.052,146 286.538,146 C288.025,146 289.231,144.795 289.231,143.308 L289.231,132.538 C289.231,131.052 288.025,129.846 286.538,129.846 C285.052,129.846 283.846,131.052 283.846,132.538 Z" />
        </g>
        <g id="Regular-S">
            <path d="M498.205,105.615 L498.205,128.949 C498.205,129.187 498.111,129.415 497.942,129.583 C497.774,129.752 497.546,129.846 497.308,129.846 L432.692,129.846 C432.454,129.846 432.226,129.752 432.058,129.583 C431.889,129.415 431.795,129.187 431.795,128.949 L431.795,82.282 C431.795,82.044 431.889,81.816 432.058,81.647 C432.226,81.479 432.454,81.385 432.692,81.385 L497.308,81.385 C497.546,81.385 497.774,81.479 497.942,81.647 C498.111,81.816 498.205,82.044 498.205,82.282 L498.205,105.615 Z M503.59,105.615 L503.59,82.282 C503.59,80.616 502.928,79.018 501.75,77.84 C500.572,76.662 498.974,76 497.308,76 L432.692,76 C431.026,76 429.428,76.662 428.25,77.84 C427.072,79.018 426.41,80.616 426.41,82.282 L426.41,128.949 C426.41,130.615 427.072,132.213 428.25,133.391 C429.428,134.569 431.026,135.231 432.692,135.231 L497.308,135.231 C498.974,135.231 500.572,134.569 501.75,133.391 C502.928,132.213 503.59,130.615 503.59,128.949 L503.59,105.615 Z" />
            <path d="M490.129,92.154 L482.949,92.154 C481.462,92.154 480.257,93.359 480.257,94.846 C480.257,96.333 481.462,97.538 482.949,97.538 L490.129,97.538 C491.615,97.538 492.821,96.333 492.821,94.846 C492.821,93.359 491.615,92.154 490.129,92.154 Z" />
            <path d="M490.128,102.923 L482.949,102.923 C481.462,102.923 480.256,104.128 480.256,105.615 C480.256,107.102 481.462,108.308 482.949,108.308 L490.128,108.308 C491.615,108.308 492.82,107.102 492.82,105.615 C492.82,104.128 491.615,102.923 490.128,102.923 Z" />
            <path d="M467.692,94.846 L467.692,116.385 L470.385,113.692 L439.872,113.692 L442.564,116.385 L442.564,94.846 L439.872,97.538 L470.385,97.538 L467.692,94.846 Z M473.077,94.846 C473.077,93.359 471.872,92.154 470.385,92.154 L439.872,92.154 C438.385,92.154 437.179,93.359 437.179,94.846 L437.179,116.385 C437.179,117.872 438.385,119.077 439.872,119.077 L470.385,119.077 C471.872,119.077 473.077,117.872 473.077,116.385 L473.077,94.846 Z" />
            <path d="M482.949,116.385 C482.949,114.402 484.556,112.795 486.538,112.795 C488.521,112.795 490.128,114.402 490.128,116.385 C490.128,118.367 488.521,119.974 486.538,119.974 C484.556,119.974 482.949,118.367 482.949,116.385 Z" />
            <path d="M440.769,132.538 L440.769,143.308 C440.769,144.795 441.975,146 443.462,146 C444.948,146 446.154,144.795 446.154,143.308 L446.154,132.538 C446.154,131.052 444.948,129.846 443.462,129.846 C441.975,129.846 440.769,131.052 440.769,132.538 Z" />
            <path d="M483.846,132.538 L483.846,143.308 C483.846,144.795 485.052,146 486.538,146 C488.025,146 489.231,144.795 489.231,143.308 L489.231,132.538 C489.231,131.052 488.025,129.846 486.538,129.846 C485.052,129.846 483.846,131.052 483.846,132.538 Z" />
        </g>
        <g id="Black-S">
            <path d="M698.205,105.615 L698.205,128.949 C698.205,129.187 698.111,129.415 697.942,129.583 C697.774,129.752 697.546,129.846 697.308,129.846 L632.692,129.846 C632.454,129.846 632.226,129.752 632.058,129.583 C631.889,129.415 631.795,129.187 631.795,128.949 L631.795,82.282 C631.795,82.044 631.889,81.816 632.058,81.647 C632.226,81.479 632.454,81.385 632.692,81.385 L697.308,81.385 C697.546,81.385 697.774,81.479 697.942,81.647 C698.111,81.816 698.205,82.044 698.205,82.282 L698.205,105.615 Z M703.59,105.615 L703.59,82.282 C703.59,80.616 702.928,79.018 701.75,77.84 C700.572,76.662 698.974,76 697.308,76 L632.692,76 C631.026,76 629.428,76.662 628.25,77.84 C627.072,79.018 626.41,80.616 626.41,82.282 L626.41,128.949 C626.41,130.615 627.072,132.213 628.25,133.391 C629.428,134.569 631.026,135.231 632.692,135.231 L697.308,135.231 C698.974,135.231 700.572,134.569 701.75,133.391 C702.928,132.213 703.59,130.615 703.59,128.949 L703.59,105.615 Z" />
            <path d="M690.129,92.154 L682.949,92.154 C681.462,92.154 680.257,93.359 680.257,94.846 C680.257,96.333 681.462,97.538 682.949,97.538 L690.129,97.538 C691.615,97.538 692.821,96.333 692.821,94.846 C692.821,93.359 691.615,92.154 690.129,92.154 Z" />
            <path d="M690.128,102.923 L682.949,102.923 C681.462,102.923 680.256,104.128 680.256,105.615 C680.256,107.102 681.462,108.308 682.949,108.308 L690.128,108.308 C691.615,108.308 692.821,107.102 692.821,105.615 C692.821,104.128 691.615,102.923 690.128,102.923 Z" />
            <path d="M667.692,94.846 L667.692,116.385 L670.385,113.692 L639.872,113.692 L642.564,116.385 L642.564,94.846 L639.872,97.538 L670.385,97.538 L667.692,94.846 Z M673.077,94.846 C673.077,93.359 671.872,92.154 670.385,92.154 L639.872,92.154 C638.385,92.154 637.18,93.359 637.18,94.846 L637.18,116.385 C637.18,117.872 638.385,119.077 639.872,119.077 L670.385,119.077 C671.872,119.077 673.077,117.872 673.077,116.385 L673.077,94.846 Z" />
            <path d="M682.949,116.385 C682.949,114.402 684.556,112.795 686.538,112.795 C688.521,112.795 690.128,114.402 690.128,116.385 C690.128,118.367 688.521,119.974 686.538,119.974 C684.556,119.974 682.949,118.367 682.949,116.385 Z" />
            <path d="M640.769,132.538 L640.769,143.308 C640.769,144.795 641.975,146 643.462,146 C644.948,146 646.154,144.795 646.154,143.308 L646.154,132.538 C646.154,131.052 644.948,129.846 643.462,129.846 C641.975,129.846 640.769,131.052 640.769,132.538 Z" />
            <path d="M683.846,132.538 L683.846,143.308 C683.846,144.795 685.052,146 686.538,146 C688.025,146 689.231,144.795 689.231,143.308 L689.231,132.538 C689.231,131.052 688.025,129.846 686.538,129.846 C685.052,129.846 683.846,131.052 683.846,132.538 Z" />
        </g>
    </g>
</svg>