<?xml version="1.0" encoding="UTF-8"?>
<svg height="600" width="800" xmlns="http://www.w3.org/2000/svg" xmlns:xlink="http://www.w3.org/1999/xlink">
    <g id="Notes" font-family="'LucidaGrande', 'Lucida Grande', sans-serif" font-size="13">
        <rect fill="white" height="600.0" width="800.0" x="0.0" y="0.0" />
        <g font-size="13">
            <text x="18.0" y="176.0">Small</text>
            <text x="18.0" y="376.0">Medium</text>
            <text x="18.0" y="576.0">Large</text>
        </g>
        <g font-size="9">
            <text x="250.0" y="30.0">Ultralight</text>
            <text x="450.0" y="30.0">Regular</text>
            <text x="650.0" y="30.0">Black</text>
            <text id="template-version" fill="#505050" text-anchor="end" x="785.0" y="575.0">Template v.3.0</text>
            <a href="https://github.com/swhitty/SwiftDraw">
                <text fill="#505050" text-anchor="end" x="785.0" y="590.0">https://github.com/swhitty/SwiftDraw</text>
            </a>
        </g>
    </g>
    <g id="Guides" stroke="rgb(39, 170, 225)" stroke-width="0.5">
        <path id="Capline-S" d="M18,76 l800,0" />
        <path id="H-reference" d="M85,145.755 L87.685,145.755 L113.369,79.287 L114.052,79.287 L114.052,76 L112.148,76 L85,145.755 Z M95.693,121.536 L130.996,121.536 L130.263,119.313 L96.474,119.313 L95.693,121.536 Z M139.15,145.755 L141.787,145.755 L114.638,76 L113.466,76 L113.466,79.287 L139.15,145.755 Z" stroke="none" />
        <path id="Baseline-S" d="M18,146 l800,0" />
        <path id="left-margin-Ultralight-S" d="M221,56 l0,110" />
        <path id="right-margin-Ultralight-S" d="M309,56 l0,110" />
        <path id="left-margin-Regular-S" d="M421,56 l0,110" />
        <path id="right-margin-Regular-S" d="M509,56 l0,110" />
        <path id="left-margin-Black-S" d="M621,56 l0,110" />
        <path id="right-margin-Black-S" d="M709,56 l0,110" />
        <path id="Capline-M" d="M18,276 l800,0" />
        <path id="Baseline-M" d="M18,346 l800,0" />
        <path id="Capline-L" d="M18,476 l800,0" />
        <path id="Baseline-L" d="M18,546 l800,0" />
    </g>
    <g id="Symbols">
        <g id="Ultralight-S">
            <path d="M237.326,100.419 L292.674,100.419 L290.305,97.385 L278.91,142.966 L281.279,141.116 L248.721,141.116 L251.09,142.966 L239.695,97.385 L237.326,100.419 Z M237.326,95.535 C235.737,95.535 234.571,97.028 234.957,98.569 L246.352,144.15 C246.624,145.237 247.6,146 248.721,146 L281.279,146 C282.4,146 283.376,145.237 283.648,144.15 L295.043,98.569 C295.429,97.028 294.263,95.535 292.674,95.535 L237.326,95.535 Z" />
            <path d="M256.047,97.977 L256.047,143.558 C256.047,144.907 257.14,146 258.488,146 C259.837,146 260.93,144.907 260.93,143.558 L260.93,97.977 C260.93,96.628 259.837,95.535 258.488,95.535 C257.14,95.535 256.047,96.628 256.047,97.977 Z" />
            <path d="M269.07,97.977 L269.07,143.558 C269.07,144.907 270.163,146 271.512,146 C272.86,146 273.953,144.907 273.953,143.558 L273.953,97.977 C273.953,96.628 272.86,95.535 271.512,95.535 C270.163,95.535 269.07,96.628 269.07,97.977 Z" />
            <path d="M279.651,84.14 C274.706,84.14 270.698,88.148 270.698,93.093 C270.698,95.694 271.816,98.12 273.728,99.808 C274.174,100.201 274.749,100.419 275.344,100.419 L283.958,100.419 C284.553,100.419 285.128,100.201 285.574,99.808 C287.486,98.12 288.605,95.694 288.605,93.093 C288.605,88.148 284.596,84.14 279.651,84.14 Z M279.651,89.023 C281.899,89.023 283.721,90.845 283.721,93.093 C283.721,94.278 283.215,95.376 282.342,96.146 L283.958,97.977 L283.958,95.535 L275.344,95.535 L275.344,97.977 L276.96,96.146 C276.088,95.376 275.581,94.278 275.581,93.093 C275.581,90.845 277.404,89.023 279.651,89.023 Z" />
            <path d="M265,84.14 C260.055,84.14 256.047,88.148 256.047,93.093 C256.047,95.694 257.165,98.12 259.077,99.808 C259.523,100.201 260.098,100.419 260.693,100.419 L269.307,100.419 C269.902,100.419 270.477,100.201 270.923,99.808 C272.835,98.12 273.953,95.694 273.953,93.093 C273.953,88.148 269.945,84.14 265,84.14 Z M265,89.023 C267.248,89.023 269.07,90.845 269.07,93.093 C269.07,94.278 268.563,95.376 267.691,96.146 L269.307,97.977 L269.307,95.535 L260.693,95.535 L260.693,97.977 L262.309,96.146 C261.437,95.376 260.93,94.278 260.93,93.093 C260.93,90.845 262.752,89.023 265,89.023 Z" />
            <path d="M250.349,84.14 C245.404,84.14 241.395,88.148 241.395,93.093 C241.395,95.694 242.514,98.12 244.426,99.808 C244.872,100.201 245.447,100.419 246.042,100.419 L254.656,100.419 C255.251,100.419 255.826,100.201 256.272,99.808 C258.184,98.12 259.302,95.694 259.302,93.093 C259.302,88.148 255.294,84.14 250.349,84.14 Z M250.349,89.023 C252.596,89.023 254.419,90.845 254.419,93.093 C254.419,94.278 253.912,95.376 253.04,96.146 L254.656,97.977 L254.656,95.535 L246.042,95.535 L246.042,97.977 L247.658,96.146 C246.785,95.376 246.279,94.278 246.279,93.093 C246.279,90.845 248.101,89.023 250.349,89.023 Z" />
            <path d="M265.532,87.19 C265.719,86.464 265.814,85.714 265.814,84.953 C265.814,80.009 261.805,76 256.86,76 C251.916,76 247.907,80.009 247.907,84.953 C247.907,85.714 248.002,86.464 248.189,87.19 C248.525,88.496 249.856,89.282 251.162,88.946 C252.468,88.61 253.255,87.279 252.919,85.973 C252.834,85.644 252.791,85.302 252.791,84.953 C252.791,82.706 254.613,80.884 256.86,80.884 C259.108,80.884 260.93,82.706 260.93,84.953 C260.93,85.302 260.887,85.644 260.802,85.973 C260.466,87.279 261.253,88.61 262.559,88.946 C263.865,89.282 265.196,88.496 265.532,87.19 Z" />
            <path d="M281.811,87.19 C281.998,86.464 282.093,85.714 282.093,84.953 C282.093,80.009 278.084,76 273.14,76 C268.195,76 264.186,80.009 264.186,84.953 C264.186,85.714 264.281,86.464 264.468,87.19 C264.804,88.496 266.135,89.282 267.441,88.946 C268.747,88.61 269.534,87.279 269.198,85.973 C269.113,85.644 269.07,85.302 269.07,84.953 C269.07,82.706 270.892,80.884 273.14,80.884 C275.387,80.884 277.209,82.706 277.209,84.953 C277.209,85.302 277.166,85.644 277.081,85.973 C276.745,87.279 277.532,88.61 278.838,88.946 C280.144,89.282 281.475,88.496 281.811,87.19 Z" />
            <path d="M251.977,100.419 L278.023,100.419 C279.372,100.419 280.465,99.325 280.465,97.977 C280.465,96.628 279.372,95.535 278.023,95.535 L251.977,95.535 C250.628,95.535 249.535,96.628 249.535,97.977 C249.535,99.325 250.628,100.419 251.977,100.419 Z" />
            <path d="M251.977,146 L278.023,146 C279.372,146 280.465,144.907 280.465,143.558 C280.465,142.21 279.372,141.116 278.023,141.116 L251.977,141.116 C250.628,141.116 249.535,142.21 249.535,143.558 C249.535,144.907 250.628,146 251.977,146 Z" />
        </g>
        <g id="Regular-S">
            <path d="M437.326,100.419 L492.674,100.419 L490.305,97.385 L478.91,142.966 L481.279,141.116 L448.721,141.116 L451.09,142.966 L439.695,97.385 L437.326,100.419 Z M437.326,95.535 C435.737,95.535 434.571,97.028 434.957,98.569 L446.352,144.15 C446.624,145.237 447.6,146 448.721,146 L481.279,146 C482.4,146 483.376,145.237 483.648,144.15 L495.043,98.569 C495.429,97.028 494.263,95.535 492.674,95.535 L437.326,95.535 Z" />
            <path d="M456.047,97.977 L456.047,143.558 C456.047,144.907 457.14,146 458.488,146 C459.837,146 460.93,144.907 460.93,143.558 L460.93,97.977 C460.93,96.628 459.837,95.535 458.488,95.535 C457.14,95.535 456.047,96.628 456.047,97.977 Z" />
            <path d="M469.07,97.977 L469.07,143.558 C469.07,144.907 470.163,146 471.512,146 C472.86,146 473.953,144.907 473.953,143.558 L473.953,97.977 C473.953,96.628 472.86,95.535 471.512,95.535 C470.163,95.535 469.07,96.628 469.07,97.977 Z" />
            <path d="M479.651,84.14 C474.706,84.14 470.698,88.148 470.698,93.093 C470.698,95.694 471.816,98.12 473.728,99.808 C474.174,100.201 474.749,100.419 475.344,100.419 L483.958,100.419 C484.553,100.419 485.128,100.201 485.574,99.808 C487.486,98.12 488.605,95.694 488.605,93.093 C488.605,88.148 484.596,84.14 479.651,84.14 Z M479.651,89.023 C481.899,89.023 483.721,90.845 483.721,93.093 C483.721,94.278 483.215,95.376 482.342,96.146 L483.958,97.977 L483.958,95.535 L475.344,95.535 L475.344,97.977 L476.96,96.146 C476.088,95.376 475.581,94.278 475.581,93.093 C475.581,90.845 477.404,89.023 479.651,89.023 Z" />
            <path d="M465,84.14 C460.055,84.14 456.047,88.148 456.047,93.093 C456.047,95.694 457.165,98.12 459.077,99.808 C459.523,100.201 460.098,100.419 460.693,100.419 L469.307,100.419 C469.902,100.419 470.477,100.201 470.923,99.808 C472.835,98.12 473.953,95.694 473.953,93.093 C473.953,88.148 469.945,84.14 465,84.14 Z M465,89.023 C467.248,89.023 469.07,90.845 469.07,93.093 C469.07,94.278 468.563,95.376 467.691,96.146 L469.307,97.977 L469.307,95.535 L460.693,95.535 L460.693,97.977 L462.309,96.146 C461.437,95.376 460.93,94.278 460.93,93.093 C460.93,90.845 462.752,89.023 465,89.023 Z" />
            <path d="M450.349,84.14 C445.404,84.14 441.395,88.148 441.395,93.093 C441.395,95.694 442.514,98.12 444.426,99.808 C444.872,100.201 445.447,100.419 446.042,100.419 L454.656,100.419 C455.251,100.419 455.826,100.201 456.272,99.808 C458.184,98.12 459.302,95.694 459.302,93.093 C459.302,88.148 455.294,84.14 450.349,84.14 Z M450.349,89.023 C452.596,89.023 454.419,90.845 454.419,93.093 C454.419,94.278 453.912,95.376 453.04,96.146 L454.656,97.977 L454.656,95.535 L446.042,95.535 L446.042,97.977 L447.658,96.146 C446.785,95.376 446.279,94.278 446.279,93.093 C446.279,90.845 448.101,89.023 450.349,89.023 Z" />
            <path d="M465.532,87.19 C465.719,86.464 465.814,85.714 465.814,84.953 C465.814,80.009 461.805,76 456.86,76 C451.916,76 447.907,80.009 447.907,84.953 C447.907,85.714 448.002,86.464 448.189,87.19 C448.525,88.496 449.856,89.282 451.162,88.946 C452.468,88.61 453.255,87.279 452.919,85.973 C452.834,85.644 452.791,85.302 452.791,84.953 C452.791,82.706 454.613,80.884 456.86,80.884 C459.108,80.884 460.93,82.706 460.93,84.953 C460.93,85.302 460.887,85.644 460.802,85.973 C460.466,87.279 461.253,88.61 462.559,88.946 C463.865,89.282 465.196,88.496 465.532,87.19 Z" />
            <path d="M481.811,87.19 C481.998,86.464 482.093,85.714 482.093,84.953 C482.093,80.009 478.084,76 473.14,76 C468.195,76 464.186,80.009 464.186,84.953 C464.186,85.714 464.281,86.464 464.468,87.19 C464.804,88.496 466.135,89.282 467.441,88.946 C468.747,88.61 469.534,87.279 469.198,85.973 C469.113,85.644 469.07,85.302 469.07,84.953 C469.07,82.706 470.892,80.884 473.14,80.884 C475.387,80.884 477.209,82.706 477.209,84.953 C477.209,85.302 477.166,85.644 477.081,85.973 C476.745,87.279 477.532,88.61 478.838,88.946 C480.144,89.282 481.475,88.496 481.811,87.19 Z" />
            <path d="M451.977,100.419 L478.023,100.419 C479.372,100.419 480.465,99.325 480.465,97.977 C480.465,96.628 479.372,95.535 478.023,95.535 L451.977,95.535 C450.628,95.535 449.535,96.628 449.535,97.977 C449.535,99.325 450.628,100.419 451.977,100.419 Z" />
            <path d="M451.977,146 L478.023,146 C479.372,146 480.465,144.907 480.465,143.558 C480.465,142.21 479.372,141.116 478.023,141.116 L451.977,141.116 C450.628,141.116 449.535,142.21 449.535,143.558 C449.535,144.907 450.628,146 451.977,146 Z" />
        </g>
        <g id="Black-S">
            <path d="M637.326,100.419 L692.674,100.419 L690.305,97.385 L678.91,142.966 L681.279,141.116 L648.721,141.116 L651.09,142.966 L639.695,97.385 L637.326,100.419 Z M637.326,95.535 C635.737,95.535 634.571,97.028 634.957,98.569 L646.352,144.15 C646.624,145.237 647.6,146 648.721,146 L681.279,146 C682.4,146 683.376,145.237 683.648,144.15 L695.043,98.569 C695.429,97.028 694.263,95.535 692.674,95.535 L637.326,95.535 Z" />
            <path d="M656.047,97.977 L656.047,143.558 C656.047,144.907 657.14,146 658.488,146 C659.837,146 660.93,144.907 660.93,143.558 L660.93,97.977 C660.93,96.628 659.837,95.535 658.488,95.535 C657.14,95.535 656.047,96.628 656.047,97.977 Z" />
            <path d="M669.07,97.977 L669.07,143.558 C669.07,144.907 670.163,146 671.512,146 C672.86,146 673.953,144.907 673.953,143.558 L673.953,97.977 C673.953,96.628 672.86,95.535 671.512,95.535 C670.163,95.535 669.07,96.628 669.07,97.977 Z" />
            <path d="M679.651,84.14 C674.706,84.14 670.698,88.148 670.698,93.093 C670.698,95.694 671.816,98.12 673.728,99.808 C674.174,100.201 674.749,100.419 675.344,100.419 L683.958,100.419 C684.553,100.419 685.128,100.201 685.574,99.808 C687.486,98.12 688.605,95.694 688.605,93.093 C688.605,88.148 684.596,84.14 679.651,84.14 Z M679.651,89.023 C681.899,89.023 683.721,90.845 683.721,93.093 C683.721,94.278 683.215,95.376 682.342,96.146 L683.958,97.977 L683.958,95.535 L675.344,95.535 L675.344,97.977 L676.96,96.146 C676.088,95.376 675.581,94.278 675.581,93.093 C675.581,90.845 677.404,89.023 679.651,89.023 Z" />
            <path d="M665,84.14 C660.055,84.14 656.047,88.148 656.047,93.093 C656.047,95.694 657.165,98.12 659.077,99.808 C659.523,100.201 660.098,100.419 660.693,100.419 L669.307,100.419 C669.902,100.419 670.477,100.201 670.923,99.808 C672.835,98.12 673.953,95.694 673.953,93.093 C673.953,88.148 669.945,84.14 665,84.14 Z M665,89.023 C667.248,89.023 669.07,90.845 669.07,93.093 C669.07,94.278 668.563,95.376 667.691,96.146 L669.307,97.977 L669.307,95.535 L660.693,95.535 L660.693,97.977 L662.309,96.146 C661.437,95.376 660.93,94.278 660.93,93.093 C660.93,90.845 662.752,89.023 665,89.023 Z" />
            <path d="M650.349,84.14 C645.404,84.14 641.395,88.148 641.395,93.093 C641.395,95.694 642.514,98.12 644.426,99.808 C644.872,100.201 645.447,100.419 646.042,100.419 L654.656,100.419 C655.251,100.419 655.826,100.201 656.272,99.808 C658.184,98.12 659.302,95.694 659.302,93.093 C659.302,88.148 655.294,84.14 650.349,84.14 Z M650.349,89.023 C652.596,89.023 654.419,90.845 654.419,93.093 C654.419,94.278 653.912,95.376 653.04,96.146 L654.656,97.977 L654.656,95.535 L646.042,95.535 L646.042,97.977 L647.658,96.146 C646.785,95.376 646.279,94.278 646.279,93.093 C646.279,90.845 648.101,89.023 650.349,89.023 Z" />
            <path d="M665.532,87.19 C665.719,86.464 665.814,85.714 665.814,84.953 C665.814,80.009 661.805,76 656.86,76 C651.916,76 647.907,80.009 647.907,84.953 C647.907,85.714 648.002,86.464 648.189,87.19 C648.525,88.496 649.856,89.282 651.162,88.946 C652.468,88.61 653.255,87.279 652.919,85.973 C652.834,85.644 652.791,85.302 652.791,84.953 C652.791,82.706 654.613,80.884 656.86,80.884 C659.108,80.884 660.93,82.706 660.93,84.953 C660.93,85.302 660.887,85.644 660.802,85.973 C660.466,87.279 661.253,88.61 662.559,88.946 C663.865,89.282 665.196,88.496 665.532,87.19 Z" />
            <path d="M681.811,87.19 C681.998,86.464 682.093,85.714 682.093,84.953 C682.093,80.009 678.084,76 673.14,76 C668.195,76 664.186,80.009 664.186,84.953 C664.186,85.714 664.281,86.464 664.468,87.19 C664.804,88.496 666.135,89.282 667.441,88.946 C668.747,88.61 669.534,87.279 669.198,85.973 C669.113,85.644 669.07,85.302 669.07,84.953 C669.07,82.706 670.892,80.884 673.14,80.884 C675.387,80.884 677.209,82.706 677.209,84.953 C677.209,85.302 677.166,85.644 677.081,85.973 C676.745,87.279 677.532,88.61 678.838,88.946 C680.144,89.282 681.475,88.496 681.811,87.19 Z" />
            <path d="M651.977,100.419 L678.023,100.419 C679.372,100.419 680.465,99.325 680.465,97.977 C680.465,96.628 679.372,95.535 678.023,95.535 L651.977,95.535 C650.628,95.535 649.535,96.628 649.535,97.977 C649.535,99.325 650.628,100.419 651.977,100.419 Z" />
            <path d="M651.977,146 L678.023,146 C679.372,146 680.465,144.907 680.465,143.558 C680.465,142.21 679.372,141.116 678.023,141.116 L651.977,141.116 C650.628,141.116 649.535,142.21 649.535,143.558 C649.535,144.907 650.628,146 651.977,146 Z" />
        </g>
    </g>
</svg>