<?xml version="1.0" encoding="UTF-8"?>
<svg height="600" width="800" xmlns="http://www.w3.org/2000/svg" xmlns:xlink="http://www.w3.org/1999/xlink">
    <g id="Notes" font-family="'LucidaGrande', 'Lucida Grande', sans-serif" font-size="13">
        <rect fill="white" height="600.0" width="800.0" x="0.0" y="0.0" />
        <g font-size="13">
            <text x="18.0" y="176.0">Small</text>
            <text x="18.0" y="376.0">Medium</text>
            <text x="18.0" y="576.0">Large</text>
        </g>
        <g font-size="9">
            <text x="250.0" y="30.0">Ultralight</text>
            <text x="450.0" y="30.0">Regular</text>
            <text x="650.0" y="30.0">Black</text>
            <text id="template-version" fill="#505050" text-anchor="end" x="785.0" y="575.0">Template v.3.0</text>
            <a href="https://github.com/swhitty/SwiftDraw">
                <text fill="#505050" text-anchor="end" x="785.0" y="590.0">https://github.com/swhitty/SwiftDraw</text>
            </a>
        </g>
    </g>
    <g id="Guides" stroke="rgb(39, 170, 225)" stroke-width="0.5">
        <path id="Capline-S" d="M18,76 l800,0" />
        <path id="H-reference" d="M85,145.755 L87.685,145.755 L113.369,79.287 L114.052,79.287 L114.052,76 L112.148,76 L85,145.755 Z M95.693,121.536 L130.996,121.536 L130.263,119.313 L96.474,119.313 L95.693,121.536 Z M139.15,145.755 L141.787,145.755 L114.638,76 L113.466,76 L113.466,79.287 L139.15,145.755 Z" stroke="none" />
        <path id="Baseline-S" d="M18,146 l800,0" />
        <path id="left-margin-Ultralight-S" d="M221,56 l0,110" />
        <path id="right-margin-Ultralight-S" d="M309,56 l0,110" />
        <path id="left-margin-Regular-S" d="M421,56 l0,110" />
        <path id="right-margin-Regular-S" d="M509,56 l0,110" />
        <path id="left-margin-Black-S" d="M621,56 l0,110" />
        <path id="right-margin-Black-S" d="M709,56 l0,110" />
        <path id="Capline-M" d="M18,276 l800,0" />
        <path id="Baseline-M" d="M18,346 l800,0" />
        <path id="Capline-L" d="M18,476 l800,0" />
        <path id="Baseline-L" d="M18,546 l800,0" />
    </g>
    <g id="Symbols">
        <g id="Ultralight-S">
            <path d="M273.953,100.419 L273.953,111 C273.953,113.375 273.01,115.652 271.331,117.331 C269.652,119.01 267.375,119.953 265,119.953 C262.625,119.953 260.348,119.01 258.669,117.331 C256.99,115.652 256.047,113.375 256.047,111 L256.047,89.837 C256.047,87.463 256.99,85.185 258.669,83.506 C260.348,81.827 262.625,80.884 265,80.884 C267.375,80.884 269.652,81.827 271.331,83.506 C273.01,85.185 273.953,87.463 273.953,89.837 L273.953,100.419 Z M278.837,100.419 L278.837,89.837 C278.837,86.167 277.379,82.648 274.784,80.053 C272.189,77.458 268.67,76 265,76 C261.33,76 257.811,77.458 255.216,80.053 C252.621,82.648 251.163,86.167 251.163,89.837 L251.163,111 C251.163,114.67 252.621,118.189 255.216,120.784 C257.811,123.379 261.33,124.837 265,124.837 C268.67,124.837 272.189,123.379 274.784,120.784 C277.379,118.189 278.837,114.67 278.837,111 L278.837,100.419 Z" />
            <path d="M238.14,109.372 C238.14,124.207 250.165,136.233 265,136.233 C279.835,136.233 291.86,124.207 291.86,109.372 C291.86,108.023 290.767,106.93 289.419,106.93 C288.07,106.93 286.977,108.023 286.977,109.372 C286.977,121.51 277.137,131.349 265,131.349 C252.863,131.349 243.023,121.51 243.023,109.372 C243.023,108.023 241.93,106.93 240.581,106.93 C239.233,106.93 238.14,108.023 238.14,109.372 Z" />
            <path d="M262.558,133.791 L262.558,143.558 C262.558,144.907 263.651,146 265,146 C266.349,146 267.442,144.907 267.442,143.558 L267.442,133.791 C267.442,132.442 266.349,131.349 265,131.349 C263.651,131.349 262.558,132.442 262.558,133.791 Z" />
        </g>
        <g id="Regular-S">
            <path d="M473.953,100.419 L473.953,111 C473.953,113.375 473.01,115.652 471.331,117.331 C469.652,119.01 467.375,119.953 465,119.953 C462.625,119.953 460.348,119.01 458.669,117.331 C456.99,115.652 456.047,113.375 456.047,111 L456.047,89.837 C456.047,87.463 456.99,85.185 458.669,83.506 C460.348,81.827 462.625,80.884 465,80.884 C467.375,80.884 469.652,81.827 471.331,83.506 C473.01,85.185 473.953,87.463 473.953,89.837 L473.953,100.419 Z M478.837,100.419 L478.837,89.837 C478.837,86.167 477.379,82.648 474.784,80.053 C472.189,77.458 468.67,76 465,76 C461.33,76 457.811,77.458 455.216,80.053 C452.621,82.648 451.163,86.167 451.163,89.837 L451.163,111 C451.163,114.67 452.621,118.189 455.216,120.784 C457.811,123.379 461.33,124.837 465,124.837 C468.67,124.837 472.189,123.379 474.784,120.784 C477.379,118.189 478.837,114.67 478.837,111 L478.837,100.419 Z" />
            <path d="M438.14,109.372 C438.14,124.207 450.165,136.233 465,136.233 C479.835,136.233 491.86,124.207 491.86,109.372 C491.86,108.023 490.767,106.93 489.419,106.93 C488.07,106.93 486.977,108.023 486.977,109.372 C486.977,121.51 477.137,131.349 465,131.349 C452.863,131.349 443.023,121.51 443.023,109.372 C443.023,108.023 441.93,106.93 440.581,106.93 C439.233,106.93 438.14,108.023 438.14,109.372 Z" />
            <path d="M462.558,133.791 L462.558,143.558 C462.558,144.907 463.651,146 465,146 C466.349,146 467.442,144.907 467.442,143.558 L467.442,133.791 C467.442,132.442 466.349,131.349 465,131.349 C463.651,131.349 462.558,132.442 462.558,133.791 Z" />
        </g>
        <g id="Black-S">
            <path d="M673.953,100.419 L673.953,111 C673.953,113.375 673.01,115.652 671.331,117.331 C669.652,119.01 667.375,119.953 665,119.953 C662.625,119.953 660.348,119.01 658.669,117.331 C656.99,115.652 656.047,113.375 656.047,111 L656.047,89.837 C656.047,87.463 656.99,85.185 658.669,83.506 C660.348,81.827 662.625,80.884 665,80.884 C667.375,80.884 669.652,81.827 671.331,83.506 C673.01,85.185 673.953,87.463 673.953,89.837 L673.953,100.419 Z M678.837,100.419 L678.837,89.837 C678.837,86.167 677.379,82.648 674.784,80.053 C672.189,77.458 668.67,76 665,76 C661.33,76 657.811,77.458 655.216,80.053 C652.621,82.648 651.163,86.167 651.163,89.837 L651.163,111 C651.163,114.67 652.621,118.189 655.216,120.784 C657.811,123.379 661.33,124.837 665,124.837 C668.67,124.837 672.189,123.379 674.784,120.784 C677.379,118.189 678.837,114.67 678.837,111 L678.837,100.419 Z" />
            <path d="M638.14,109.372 C638.14,124.207 650.165,136.233 665,136.233 C679.835,136.233 691.86,124.207 691.86,109.372 C691.86,108.023 690.767,106.93 689.419,106.93 C688.07,106.93 686.977,108.023 686.977,109.372 C686.977,121.51 677.137,131.349 665,131.349 C652.863,131.349 643.023,121.51 643.023,109.372 C643.023,108.023 641.93,106.93 640.581,106.93 C639.233,106.93 638.14,108.023 638.14,109.372 Z" />
            <path d="M662.558,133.791 L662.558,143.558 C662.558,144.907 663.651,146 665,146 C666.349,146 667.442,144.907 667.442,143.558 L667.442,133.791 C667.442,132.442 666.349,131.349 665,131.349 C663.651,131.349 662.558,132.442 662.558,133.791 Z" />
        </g>
    </g>
</svg>