<?xml version="1.0" encoding="UTF-8"?>
<svg height="600" width="800" xmlns="http://www.w3.org/2000/svg" xmlns:xlink="http://www.w3.org/1999/xlink">
    <g id="Notes" font-family="'LucidaGrande', 'Lucida Grande', sans-serif" font-size="13">
        <rect fill="white" height="600.0" width="800.0" x="0.0" y="0.0" />
        <g font-size="13">
            <text x="18.0" y="176.0">Small</text>
            <text x="18.0" y="376.0">Medium</text>
            <text x="18.0" y="576.0">Large</text>
        </g>
        <g font-size="9">
            <text x="250.0" y="30.0">Ultralight</text>
            <text x="450.0" y="30.0">Regular</text>
            <text x="650.0" y="30.0">Black</text>
            <text id="template-version" fill="#505050" text-anchor="end" x="785.0" y="575.0">Template v.3.0</text>
            <a href="https://github.com/swhitty/SwiftDraw">
                <text fill="#505050" text-anchor="end" x="785.0" y="590.0">https://github.com/swhitty/SwiftDraw</text>
            </a>
        </g>
    </g>
    <g id="Guides" stroke="rgb(39, 170, 225)" stroke-width="0.5">
        <path id="Capline-S" d="M18,76 l800,0" />
        <path id="H-reference" d="M85,145.755 L87.685,145.755 L113.369,79.287 L114.052,79.287 L114.052,76 L112.148,76 L85,145.755 Z M95.693,121.536 L130.996,121.536 L130.263,119.313 L96.474,119.313 L95.693,121.536 Z M139.15,145.755 L141.787,145.755 L114.638,76 L113.466,76 L113.466,79.287 L139.15,145.755 Z" stroke="none" />
        <path id="Baseline-S" d="M18,146 l800,0" />
        <path id="left-margin-Ultralight-S" d="M220,56 l0,110" />
        <path id="right-margin-Ultralight-S" d="M310,56 l0,110" />
        <path id="left-margin-Regular-S" d="M420,56 l0,110" />
        <path id="right-margin-Regular-S" d="M510,56 l0,110" />
        <path id="left-margin-Black-S" d="M620,56 l0,110" />
        <path id="right-margin-Black-S" d="M710,56 l0,110" />
        <path id="Capline-M" d="M18,276 l800,0" />
        <path id="Baseline-M" d="M18,346 l800,0" />
        <path id="Capline-L" d="M18,476 l800,0" />
        <path id="Baseline-L" d="M18,546 l800,0" />
    </g>
    <g id="Symbols">
        <g id="Ultralight-S">
            <path d="M292.62,98.031 L292.62,142.31 L296.31,138.62 L252.031,138.62 C249.994,138.62 248.341,140.272 248.341,142.31 C248.341,144.348 249.994,146 252.031,146 L296.31,146 C298.348,146 300,144.348 300,142.31 L300,98.031 C300,95.994 298.348,94.341 296.31,94.341 C294.272,94.341 292.62,95.994 292.62,98.031 Z" />
            <path d="M231.081,82.299 L293.7,144.919 C295.141,146.359 297.478,146.359 298.919,144.919 C300.359,143.478 300.359,141.141 298.919,139.7 L236.299,77.081 C234.858,75.64 232.522,75.64 231.081,77.081 C229.64,78.522 229.64,80.858 231.081,82.299 Z" />
        </g>
        <g id="Regular-S">
            <path d="M492.62,98.031 L492.62,142.31 L496.31,138.62 L452.031,138.62 C449.994,138.62 448.341,140.272 448.341,142.31 C448.341,144.348 449.994,146 452.031,146 L496.31,146 C498.348,146 500,144.348 500,142.31 L500,98.031 C500,95.994 498.348,94.341 496.31,94.341 C494.272,94.341 492.62,95.994 492.62,98.031 Z" />
            <path d="M431.081,82.299 L493.7,144.919 C495.141,146.359 497.478,146.359 498.919,144.919 C500.359,143.478 500.359,141.141 498.919,139.7 L436.299,77.081 C434.858,75.64 432.522,75.64 431.081,77.081 C429.64,78.522 429.64,80.858 431.081,82.299 Z" />
        </g>
        <g id="Black-S">
            <path d="M692.62,98.031 L692.62,142.31 L696.31,138.62 L652.031,138.62 C649.994,138.62 648.341,140.272 648.341,142.31 C648.341,144.348 649.994,146 652.031,146 L696.31,146 C698.348,146 700,144.348 700,142.31 L700,98.031 C700,95.994 698.348,94.341 696.31,94.341 C694.272,94.341 692.62,95.994 692.62,98.031 Z" />
            <path d="M631.081,82.299 L693.7,144.919 C695.141,146.359 697.478,146.359 698.919,144.919 C700.359,143.478 700.359,141.141 698.919,139.7 L636.299,77.081 C634.858,75.64 632.522,75.64 631.081,77.081 C629.64,78.522 629.64,80.858 631.081,82.299 Z" />
        </g>
    </g>
</svg>