<?xml version="1.0" encoding="UTF-8"?>
<svg height="600" width="800" xmlns="http://www.w3.org/2000/svg" xmlns:xlink="http://www.w3.org/1999/xlink">
    <g id="Notes" font-family="'LucidaGrande', 'Lucida Grande', sans-serif" font-size="13">
        <rect fill="white" height="600.0" width="800.0" x="0.0" y="0.0" />
        <g font-size="13">
            <text x="18.0" y="176.0">Small</text>
            <text x="18.0" y="376.0">Medium</text>
            <text x="18.0" y="576.0">Large</text>
        </g>
        <g font-size="9">
            <text x="250.0" y="30.0">Ultralight</text>
            <text x="450.0" y="30.0">Regular</text>
            <text x="650.0" y="30.0">Black</text>
            <text id="template-version" fill="#505050" text-anchor="end" x="785.0" y="575.0">Template v.3.0</text>
            <a href="https://github.com/swhitty/SwiftDraw">
                <text fill="#505050" text-anchor="end" x="785.0" y="590.0">https://github.com/swhitty/SwiftDraw</text>
            </a>
        </g>
    </g>
    <g id="Guides" stroke="rgb(39, 170, 225)" stroke-width="0.5">
        <path id="Capline-S" d="M18,76 l800,0" />
        <path id="H-reference" d="M85,145.755 L87.685,145.755 L113.369,79.287 L114.052,79.287 L114.052,76 L112.148,76 L85,145.755 Z M95.693,121.536 L130.996,121.536 L130.263,119.313 L96.474,119.313 L95.693,121.536 Z M139.15,145.755 L141.787,145.755 L114.638,76 L113.466,76 L113.466,79.287 L139.15,145.755 Z" stroke="none" />
        <path id="Baseline-S" d="M18,146 l800,0" />
        <path id="left-margin-Ultralight-S" d="M220,56 l0,110" />
        <path id="right-margin-Ultralight-S" d="M310,56 l0,110" />
        <path id="left-margin-Regular-S" d="M420,56 l0,110" />
        <path id="right-margin-Regular-S" d="M510,56 l0,110" />
        <path id="left-margin-Black-S" d="M620,56 l0,110" />
        <path id="right-margin-Black-S" d="M710,56 l0,110" />
        <path id="Capline-M" d="M18,276 l800,0" />
        <path id="Baseline-M" d="M18,346 l800,0" />
        <path id="Capline-L" d="M18,476 l800,0" />
        <path id="Baseline-L" d="M18,546 l800,0" />
    </g>
    <g id="Symbols">
        <g id="Ultralight-S">
            <path d="M300,143.558 L300,78.442 C300,77.093 298.907,76 297.558,76 L265,76 C263.651,76 262.558,77.093 262.558,78.442 L262.558,104.488 L265,102.047 L232.442,102.047 C231.093,102.047 230,103.14 230,104.488 L230,143.558 C230,144.907 231.093,146 232.442,146 L297.558,146 C298.907,146 300,144.907 300,143.558 Z M295.116,143.558 L297.558,141.116 L232.442,141.116 L234.884,143.558 L234.884,104.488 L232.442,106.93 L265,106.93 C266.349,106.93 267.442,105.837 267.442,104.488 L267.442,78.442 L265,80.884 L297.558,80.884 L295.116,78.442 L295.116,143.558 Z" />
            <path d="M258.39,115.785 L251.878,122.297 C250.924,123.25 250.924,124.796 251.878,125.75 L258.39,132.262 C259.343,133.215 260.889,133.215 261.843,132.262 C262.797,131.308 262.797,129.762 261.843,128.808 L255.331,122.297 L255.331,125.75 L261.843,119.238 C262.797,118.285 262.797,116.739 261.843,115.785 C260.889,114.831 259.343,114.831 258.39,115.785 Z" />
            <path d="M278.837,109.372 L278.837,124.023 L281.279,121.581 L253.605,121.581 C252.256,121.581 251.163,122.675 251.163,124.023 C251.163,125.372 252.256,126.465 253.605,126.465 L281.279,126.465 C282.628,126.465 283.721,125.372 283.721,124.023 L283.721,109.372 C283.721,108.023 282.628,106.93 281.279,106.93 C279.93,106.93 278.837,108.023 278.837,109.372 Z" />
        </g>
        <g id="Regular-S">
            <path d="M500,143.558 L500,78.442 C500,77.093 498.907,76 497.558,76 L465,76 C463.651,76 462.558,77.093 462.558,78.442 L462.558,104.488 L465,102.047 L432.442,102.047 C431.093,102.047 430,103.14 430,104.488 L430,143.558 C430,144.907 431.093,146 432.442,146 L497.558,146 C498.907,146 500,144.907 500,143.558 Z M495.116,143.558 L497.558,141.116 L432.442,141.116 L434.884,143.558 L434.884,104.488 L432.442,106.93 L465,106.93 C466.349,106.93 467.442,105.837 467.442,104.488 L467.442,78.442 L465,80.884 L497.558,80.884 L495.116,78.442 L495.116,143.558 Z" />
            <path d="M458.39,115.785 L451.878,122.297 C450.924,123.25 450.924,124.796 451.878,125.75 L458.39,132.262 C459.343,133.215 460.889,133.215 461.843,132.262 C462.797,131.308 462.797,129.762 461.843,128.808 L455.331,122.297 L455.331,125.75 L461.843,119.238 C462.797,118.285 462.797,116.739 461.843,115.785 C460.889,114.831 459.343,114.831 458.39,115.785 Z" />
            <path d="M478.837,109.372 L478.837,124.023 L481.279,121.581 L453.605,121.581 C452.256,121.581 451.163,122.675 451.163,124.023 C451.163,125.372 452.256,126.465 453.605,126.465 L481.279,126.465 C482.628,126.465 483.721,125.372 483.721,124.023 L483.721,109.372 C483.721,108.023 482.628,106.93 481.279,106.93 C479.93,106.93 478.837,108.023 478.837,109.372 Z" />
        </g>
        <g id="Black-S">
            <path d="M700,143.558 L700,78.442 C700,77.093 698.907,76 697.558,76 L665,76 C663.651,76 662.558,77.093 662.558,78.442 L662.558,104.488 L665,102.047 L632.442,102.047 C631.093,102.047 630,103.14 630,104.488 L630,143.558 C630,144.907 631.093,146 632.442,146 L697.558,146 C698.907,146 700,144.907 700,143.558 Z M695.116,143.558 L697.558,141.116 L632.442,141.116 L634.884,143.558 L634.884,104.488 L632.442,106.93 L665,106.93 C666.349,106.93 667.442,105.837 667.442,104.488 L667.442,78.442 L665,80.884 L697.558,80.884 L695.116,78.442 L695.116,143.558 Z" />
            <path d="M658.39,115.785 L651.878,122.297 C650.924,123.25 650.924,124.796 651.878,125.75 L658.39,132.262 C659.343,133.215 660.889,133.215 661.843,132.262 C662.797,131.308 662.797,129.762 661.843,128.808 L655.331,122.297 L655.331,125.75 L661.843,119.238 C662.797,118.285 662.797,116.739 661.843,115.785 C660.889,114.831 659.343,114.831 658.39,115.785 Z" />
            <path d="M678.837,109.372 L678.837,124.023 L681.279,121.581 L653.605,121.581 C652.256,121.581 651.163,122.675 651.163,124.023 C651.163,125.372 652.256,126.465 653.605,126.465 L681.279,126.465 C682.628,126.465 683.721,125.372 683.721,124.023 L683.721,109.372 C683.721,108.023 682.628,106.93 681.279,106.93 C679.93,106.93 678.837,108.023 678.837,109.372 Z" />
        </g>
    </g>
</svg>