<?xml version="1.0" encoding="UTF-8"?>
<svg height="600" width="800" xmlns="http://www.w3.org/2000/svg" xmlns:xlink="http://www.w3.org/1999/xlink">
    <g id="Notes" font-family="'LucidaGrande', 'Lucida Grande', sans-serif" font-size="13">
        <rect fill="white" height="600.0" width="800.0" x="0.0" y="0.0" />
        <g font-size="13">
            <text x="18.0" y="176.0">Small</text>
            <text x="18.0" y="376.0">Medium</text>
            <text x="18.0" y="576.0">Large</text>
        </g>
        <g font-size="9">
            <text x="250.0" y="30.0">Ultralight</text>
            <text x="450.0" y="30.0">Regular</text>
            <text x="650.0" y="30.0">Black</text>
            <text id="template-version" fill="#505050" text-anchor="end" x="785.0" y="575.0">Template v.3.0</text>
            <a href="https://github.com/swhitty/SwiftDraw">
                <text fill="#505050" text-anchor="end" x="785.0" y="590.0">https://github.com/swhitty/SwiftDraw</text>
            </a>
        </g>
    </g>
    <g id="Guides" stroke="rgb(39, 170, 225)" stroke-width="0.5">
        <path id="Capline-S" d="M18,76 l800,0" />
        <path id="H-reference" d="M85,145.755 L87.685,145.755 L113.369,79.287 L114.052,79.287 L114.052,76 L112.148,76 L85,145.755 Z M95.693,121.536 L130.996,121.536 L130.263,119.313 L96.474,119.313 L95.693,121.536 Z M139.15,145.755 L141.787,145.755 L114.638,76 L113.466,76 L113.466,79.287 L139.15,145.755 Z" stroke="none" />
        <path id="Baseline-S" d="M18,146 l800,0" />
        <path id="left-margin-Ultralight-S" d="M220,56 l0,110" />
        <path id="right-margin-Ultralight-S" d="M310,56 l0,110" />
        <path id="left-margin-Regular-S" d="M420,56 l0,110" />
        <path id="right-margin-Regular-S" d="M510,56 l0,110" />
        <path id="left-margin-Black-S" d="M620,56 l0,110" />
        <path id="right-margin-Black-S" d="M710,56 l0,110" />
        <path id="Capline-M" d="M18,276 l800,0" />
        <path id="Baseline-M" d="M18,346 l800,0" />
        <path id="Capline-L" d="M18,476 l800,0" />
        <path id="Baseline-L" d="M18,546 l800,0" />
    </g>
    <g id="Symbols">
        <g id="Ultralight-S">
            <path d="M265,146 C284.33,146 300,130.33 300,111 C300,91.67 284.33,76 265,76 C245.67,76 230,91.67 230,111 C230,130.33 245.67,146 265,146 Z M265,141.116 C248.367,141.116 234.884,127.633 234.884,111 C234.884,94.367 248.367,80.884 265,80.884 C281.633,80.884 295.116,94.367 295.116,111 C295.116,127.633 281.633,141.116 265,141.116 Z" />
            <path d="M276.297,97.878 L271.413,102.762 C270.459,103.715 270.459,105.261 271.413,106.215 L276.297,111.099 C277.25,112.052 278.796,112.052 279.75,111.099 C280.704,110.145 280.704,108.599 279.75,107.645 L274.866,102.762 L274.866,106.215 L279.75,101.331 C280.704,100.378 280.704,98.832 279.75,97.878 C278.796,96.924 277.25,96.924 276.297,97.878 Z" />
            <path d="M250.25,101.331 L255.134,106.215 L255.134,102.762 L250.25,107.645 C249.296,108.599 249.296,110.145 250.25,111.099 C251.204,112.052 252.75,112.052 253.703,111.099 L258.587,106.215 C259.541,105.261 259.541,103.715 258.587,102.762 L253.703,97.878 C252.75,96.924 251.204,96.924 250.25,97.878 C249.296,98.832 249.296,100.378 250.25,101.331 Z" />
            <path d="M248.622,124.122 L253.506,129.006 C254.46,129.959 256.006,129.959 256.959,129.006 L261.843,124.122 L258.39,124.122 L263.273,129.006 C264.227,129.959 265.773,129.959 266.727,129.006 L271.61,124.122 L268.157,124.122 L273.041,129.006 C273.994,129.959 275.54,129.959 276.494,129.006 L281.378,124.122 C282.331,123.168 282.331,121.622 281.378,120.669 C280.424,119.715 278.878,119.715 277.924,120.669 L273.041,125.552 L276.494,125.552 L271.61,120.669 C270.657,119.715 269.111,119.715 268.157,120.669 L263.273,125.552 L266.727,125.552 L261.843,120.669 C260.889,119.715 259.343,119.715 258.39,120.669 L253.506,125.552 L256.959,125.552 L252.076,120.669 C251.122,119.715 249.576,119.715 248.622,120.669 C247.669,121.622 247.669,123.168 248.622,124.122 Z" />
        </g>
        <g id="Regular-S">
            <path d="M465,146 C484.33,146 500,130.33 500,111 C500,91.67 484.33,76 465,76 C445.67,76 430,91.67 430,111 C430,130.33 445.67,146 465,146 Z M465,141.116 C448.367,141.116 434.884,127.633 434.884,111 C434.884,94.367 448.367,80.884 465,80.884 C481.633,80.884 495.116,94.367 495.116,111 C495.116,127.633 481.633,141.116 465,141.116 Z" />
            <path d="M476.297,97.878 L471.413,102.762 C470.459,103.715 470.459,105.261 471.413,106.215 L476.297,111.099 C477.25,112.052 478.796,112.052 479.75,111.099 C480.704,110.145 480.704,108.599 479.75,107.645 L474.866,102.762 L474.866,106.215 L479.75,101.331 C480.704,100.378 480.704,98.832 479.75,97.878 C478.796,96.924 477.25,96.924 476.297,97.878 Z" />
            <path d="M450.25,101.331 L455.134,106.215 L455.134,102.762 L450.25,107.645 C449.296,108.599 449.296,110.145 450.25,111.099 C451.204,112.052 452.75,112.052 453.703,111.099 L458.587,106.215 C459.541,105.261 459.541,103.715 458.587,102.762 L453.703,97.878 C452.75,96.924 451.204,96.924 450.25,97.878 C449.296,98.832 449.296,100.378 450.25,101.331 Z" />
            <path d="M448.622,124.122 L453.506,129.006 C454.46,129.959 456.006,129.959 456.959,129.006 L461.843,124.122 L458.39,124.122 L463.273,129.006 C464.227,129.959 465.773,129.959 466.727,129.006 L471.61,124.122 L468.157,124.122 L473.041,129.006 C473.994,129.959 475.54,129.959 476.494,129.006 L481.378,124.122 C482.331,123.168 482.331,121.622 481.378,120.669 C480.424,119.715 478.878,119.715 477.924,120.669 L473.041,125.552 L476.494,125.552 L471.61,120.669 C470.657,119.715 469.111,119.715 468.157,120.669 L463.273,125.552 L466.727,125.552 L461.843,120.669 C460.889,119.715 459.343,119.715 458.39,120.669 L453.506,125.552 L456.959,125.552 L452.076,120.669 C451.122,119.715 449.576,119.715 448.622,120.669 C447.669,121.622 447.669,123.168 448.622,124.122 Z" />
        </g>
        <g id="Black-S">
            <path d="M665,146 C684.33,146 700,130.33 700,111 C700,91.67 684.33,76 665,76 C645.67,76 630,91.67 630,111 C630,130.33 645.67,146 665,146 Z M665,141.116 C648.367,141.116 634.884,127.633 634.884,111 C634.884,94.367 648.367,80.884 665,80.884 C681.633,80.884 695.116,94.367 695.116,111 C695.116,127.633 681.633,141.116 665,141.116 Z" />
            <path d="M676.297,97.878 L671.413,102.762 C670.459,103.715 670.459,105.261 671.413,106.215 L676.297,111.099 C677.25,112.052 678.796,112.052 679.75,111.099 C680.703,110.145 680.703,108.599 679.75,107.645 L674.866,102.762 L674.866,106.215 L679.75,101.331 C680.703,100.378 680.703,98.832 679.75,97.878 C678.796,96.924 677.25,96.924 676.297,97.878 Z" />
            <path d="M650.25,101.331 L655.134,106.215 L655.134,102.762 L650.25,107.645 C649.297,108.599 649.297,110.145 650.25,111.099 C651.204,112.052 652.75,112.052 653.703,111.099 L658.587,106.215 C659.541,105.261 659.541,103.715 658.587,102.762 L653.703,97.878 C652.75,96.924 651.204,96.924 650.25,97.878 C649.297,98.832 649.297,100.378 650.25,101.331 Z" />
            <path d="M648.622,124.122 L653.506,129.006 C654.46,129.959 656.006,129.959 656.959,129.006 L661.843,124.122 L658.39,124.122 L663.273,129.006 C664.227,129.959 665.773,129.959 666.727,129.006 L671.61,124.122 L668.157,124.122 L673.041,129.006 C673.994,129.959 675.541,129.959 676.494,129.006 L681.378,124.122 C682.331,123.168 682.331,121.622 681.378,120.669 C680.424,119.715 678.878,119.715 677.924,120.669 L673.041,125.552 L676.494,125.552 L671.61,120.669 C670.657,119.715 669.111,119.715 668.157,120.669 L663.273,125.552 L666.727,125.552 L661.843,120.669 C660.889,119.715 659.343,119.715 658.39,120.669 L653.506,125.552 L656.959,125.552 L652.076,120.669 C651.122,119.715 649.576,119.715 648.622,120.669 C647.669,121.622 647.669,123.168 648.622,124.122 Z" />
        </g>
    </g>
</svg>