<?xml version="1.0" encoding="UTF-8"?>
<svg height="600" width="800" xmlns="http://www.w3.org/2000/svg" xmlns:xlink="http://www.w3.org/1999/xlink">
    <g id="Notes" font-family="'LucidaGrande', 'Lucida Grande', sans-serif" font-size="13">
        <rect fill="white" height="600.0" width="800.0" x="0.0" y="0.0" />
        <g font-size="13">
            <text x="18.0" y="176.0">Small</text>
            <text x="18.0" y="376.0">Medium</text>
            <text x="18.0" y="576.0">Large</text>
        </g>
        <g font-size="9">
            <text x="250.0" y="30.0">Ultralight</text>
            <text x="450.0" y="30.0">Regular</text>
            <text x="650.0" y="30.0">Black</text>
            <text id="template-version" fill="#505050" text-anchor="end" x="785.0" y="575.0">Template v.3.0</text>
            <a href="https://github.com/swhitty/SwiftDraw">
                <text fill="#505050" text-anchor="end" x="785.0" y="590.0">https://github.com/swhitty/SwiftDraw</text>
            </a>
        </g>
    </g>
    <g id="Guides" stroke="rgb(39, 170, 225)" stroke-width="0.5">
        <path id="Capline-S" d="M18,76 l800,0" />
        <path id="H-reference" d="M85,145.755 L87.685,145.755 L113.369,79.287 L114.052,79.287 L114.052,76 L112.148,76 L85,145.755 Z M95.693,121.536 L130.996,121.536 L130.263,119.313 L96.474,119.313 L95.693,121.536 Z M139.15,145.755 L141.787,145.755 L114.638,76 L113.466,76 L113.466,79.287 L139.15,145.755 Z" stroke="none" />
        <path id="Baseline-S" d="M18,146 l800,0" />
        <path id="left-margin-Ultralight-S" d="M220,56 l0,110" />
        <path id="right-margin-Ultralight-S" d="M310,56 l0,110" />
        <path id="left-margin-Regular-S" d="M420,56 l0,110" />
        <path id="right-margin-Regular-S" d="M510,56 l0,110" />
        <path id="left-margin-Black-S" d="M620,56 l0,110" />
        <path id="right-margin-Black-S" d="M710,56 l0,110" />
        <path id="Capline-M" d="M18,276 l800,0" />
        <path id="Baseline-M" d="M18,346 l800,0" />
        <path id="Capline-L" d="M18,476 l800,0" />
        <path id="Baseline-L" d="M18,546 l800,0" />
    </g>
    <g id="Symbols">
        <g id="Ultralight-S">
            <path d="M254.188,77.721 C235.807,83.685 225.752,103.433 231.721,121.814 C237.687,140.185 257.439,150.248 275.813,144.281 C294.193,138.317 304.248,118.569 298.279,100.188 C292.315,81.807 272.568,71.752 254.187,77.721 Z M255.696,82.366 C271.512,77.229 288.503,85.882 293.634,101.696 C298.771,117.512 290.119,134.505 274.305,139.636 C258.495,144.77 241.499,136.111 236.366,120.305 C231.229,104.489 239.881,87.497 255.695,82.366 Z" />
            <path d="M282.81,104.216 L266.532,91.193 C265.64,90.479 264.373,90.479 263.481,91.193 L247.202,104.216 C246.403,104.855 246.088,105.924 246.411,106.895 L252.923,126.429 C253.255,127.426 254.188,128.099 255.239,128.099 L274.774,128.099 C275.825,128.099 276.758,127.426 277.09,126.429 L283.602,106.895 C283.925,105.924 283.609,104.855 282.81,104.216 Z M279.76,108.029 L278.969,105.35 L272.457,124.885 L274.774,123.215 L255.239,123.215 L257.556,124.885 L251.044,105.35 L250.253,108.029 L266.532,95.006 L263.481,95.006 L279.76,108.029 Z" />
            <path d="M282.057,108.439 L296.708,103.555 C297.987,103.129 298.679,101.746 298.252,100.467 C297.826,99.187 296.443,98.496 295.164,98.922 L280.513,103.806 C279.234,104.232 278.542,105.615 278.969,106.895 C279.395,108.174 280.778,108.865 282.057,108.439 Z" />
            <path d="M286.395,135.463 L276.628,124.068 C275.75,123.044 274.208,122.925 273.184,123.803 C272.161,124.681 272.042,126.222 272.92,127.246 L282.687,138.641 C283.564,139.665 285.106,139.784 286.13,138.906 C287.154,138.028 287.272,136.487 286.395,135.463 Z" />
            <path d="M253.385,124.068 L243.618,135.463 C242.74,136.487 242.859,138.028 243.883,138.906 C244.907,139.784 246.448,139.665 247.326,138.641 L257.093,127.246 C257.971,126.222 257.852,124.681 256.828,123.803 C255.804,122.925 254.263,123.044 253.385,124.068 Z" />
            <path d="M249.5,103.806 L234.849,98.922 C233.57,98.496 232.187,99.187 231.76,100.467 C231.334,101.746 232.025,103.129 233.305,103.555 L247.956,108.439 C249.235,108.865 250.618,108.174 251.044,106.895 C251.471,105.615 250.779,104.232 249.5,103.806 Z" />
            <path d="M267.448,93.1 L267.448,78.449 C267.448,77.1 266.355,76.007 265.006,76.007 C263.658,76.007 262.565,77.1 262.565,78.449 L262.565,93.1 C262.565,94.448 263.658,95.541 265.006,95.541 C266.355,95.541 267.448,94.448 267.448,93.1 Z" />
        </g>
        <g id="Regular-S">
            <path d="M454.188,77.721 C435.807,83.685 425.752,103.433 431.721,121.814 C437.687,140.185 457.439,150.248 475.813,144.281 C494.193,138.317 504.248,118.569 498.279,100.188 C492.315,81.807 472.568,71.752 454.187,77.721 Z M455.696,82.366 C471.511,77.229 488.503,85.882 493.634,101.696 C498.771,117.512 490.119,134.505 474.305,139.636 C458.495,144.77 441.499,136.111 436.366,120.305 C431.229,104.489 439.881,87.497 455.695,82.366 Z" />
            <path d="M482.81,104.216 L466.532,91.193 C465.64,90.479 464.373,90.479 463.481,91.193 L447.202,104.216 C446.403,104.855 446.088,105.924 446.411,106.895 L452.923,126.429 C453.255,127.426 454.188,128.099 455.239,128.099 L474.774,128.099 C475.825,128.099 476.758,127.426 477.09,126.429 L483.602,106.895 C483.925,105.924 483.609,104.855 482.81,104.216 Z M479.76,108.029 L478.969,105.35 L472.457,124.885 L474.774,123.215 L455.239,123.215 L457.556,124.885 L451.044,105.35 L450.253,108.029 L466.532,95.006 L463.481,95.006 L479.76,108.029 Z" />
            <path d="M482.057,108.439 L496.708,103.555 C497.987,103.129 498.679,101.746 498.252,100.467 C497.826,99.187 496.443,98.496 495.164,98.922 L480.513,103.806 C479.234,104.232 478.542,105.615 478.969,106.895 C479.395,108.174 480.778,108.865 482.057,108.439 Z" />
            <path d="M486.395,135.463 L476.628,124.068 C475.75,123.044 474.208,122.925 473.184,123.803 C472.161,124.681 472.042,126.222 472.92,127.246 L482.687,138.641 C483.564,139.665 485.106,139.784 486.13,138.906 C487.154,138.028 487.272,136.487 486.395,135.463 Z" />
            <path d="M453.385,124.068 L443.618,135.463 C442.74,136.487 442.859,138.028 443.883,138.906 C444.907,139.784 446.448,139.665 447.326,138.641 L457.093,127.246 C457.971,126.222 457.852,124.681 456.828,123.803 C455.804,122.925 454.263,123.044 453.385,124.068 Z" />
            <path d="M449.5,103.806 L434.849,98.922 C433.57,98.496 432.187,99.187 431.76,100.467 C431.334,101.746 432.025,103.129 433.305,103.555 L447.956,108.439 C449.235,108.865 450.618,108.174 451.044,106.895 C451.471,105.615 450.779,104.232 449.5,103.806 Z" />
            <path d="M467.448,93.1 L467.448,78.449 C467.448,77.1 466.355,76.007 465.006,76.007 C463.658,76.007 462.565,77.1 462.565,78.449 L462.565,93.1 C462.565,94.448 463.658,95.541 465.006,95.541 C466.355,95.541 467.448,94.448 467.448,93.1 Z" />
        </g>
        <g id="Black-S">
            <path d="M654.188,77.721 C635.807,83.685 625.752,103.433 631.721,121.814 C637.687,140.185 657.439,150.248 675.813,144.281 C694.193,138.317 704.248,118.569 698.279,100.188 C692.315,81.807 672.568,71.752 654.187,77.721 Z M655.696,82.366 C671.511,77.229 688.503,85.882 693.634,101.696 C698.771,117.512 690.119,134.505 674.305,139.636 C658.495,144.77 641.499,136.111 636.366,120.305 C631.229,104.489 639.881,87.497 655.695,82.366 Z" />
            <path d="M682.81,104.216 L666.532,91.193 C665.64,90.479 664.373,90.479 663.481,91.193 L647.202,104.216 C646.403,104.855 646.088,105.924 646.411,106.895 L652.923,126.429 C653.255,127.426 654.188,128.099 655.239,128.099 L674.774,128.099 C675.825,128.099 676.758,127.426 677.09,126.429 L683.602,106.895 C683.925,105.924 683.609,104.855 682.81,104.216 Z M679.76,108.029 L678.969,105.35 L672.457,124.885 L674.774,123.215 L655.239,123.215 L657.556,124.885 L651.044,105.35 L650.253,108.029 L666.532,95.006 L663.481,95.006 L679.76,108.029 Z" />
            <path d="M682.057,108.439 L696.708,103.555 C697.987,103.129 698.679,101.746 698.252,100.467 C697.826,99.187 696.443,98.496 695.164,98.922 L680.513,103.806 C679.234,104.232 678.542,105.615 678.969,106.895 C679.395,108.174 680.778,108.865 682.057,108.439 Z" />
            <path d="M686.395,135.463 L676.628,124.068 C675.75,123.044 674.208,122.925 673.184,123.803 C672.161,124.681 672.042,126.222 672.92,127.246 L682.687,138.641 C683.564,139.665 685.106,139.784 686.13,138.906 C687.154,138.028 687.272,136.487 686.395,135.463 Z" />
            <path d="M653.385,124.068 L643.618,135.463 C642.74,136.487 642.859,138.028 643.883,138.906 C644.907,139.784 646.448,139.665 647.326,138.641 L657.093,127.246 C657.971,126.222 657.852,124.681 656.828,123.803 C655.804,122.925 654.263,123.044 653.385,124.068 Z" />
            <path d="M649.5,103.806 L634.849,98.922 C633.57,98.496 632.187,99.187 631.76,100.467 C631.334,101.746 632.025,103.129 633.305,103.555 L647.956,108.439 C649.235,108.865 650.618,108.174 651.044,106.895 C651.471,105.615 650.779,104.232 649.5,103.806 Z" />
            <path d="M667.448,93.1 L667.448,78.449 C667.448,77.1 666.355,76.007 665.006,76.007 C663.658,76.007 662.565,77.1 662.565,78.449 L662.565,93.1 C662.565,94.448 663.658,95.541 665.006,95.541 C666.355,95.541 667.448,94.448 667.448,93.1 Z" />
        </g>
    </g>
</svg>