<?xml version="1.0" encoding="UTF-8"?>
<svg height="600" width="800" xmlns="http://www.w3.org/2000/svg" xmlns:xlink="http://www.w3.org/1999/xlink">
    <g id="Notes" font-family="'LucidaGrande', 'Lucida Grande', sans-serif" font-size="13">
        <rect fill="white" height="600.0" width="800.0" x="0.0" y="0.0" />
        <g font-size="13">
            <text x="18.0" y="176.0">Small</text>
            <text x="18.0" y="376.0">Medium</text>
            <text x="18.0" y="576.0">Large</text>
        </g>
        <g font-size="9">
            <text x="250.0" y="30.0">Ultralight</text>
            <text x="450.0" y="30.0">Regular</text>
            <text x="650.0" y="30.0">Black</text>
            <text id="template-version" fill="#505050" text-anchor="end" x="785.0" y="575.0">Template v.3.0</text>
            <a href="https://github.com/swhitty/SwiftDraw">
                <text fill="#505050" text-anchor="end" x="785.0" y="590.0">https://github.com/swhitty/SwiftDraw</text>
            </a>
        </g>
    </g>
    <g id="Guides" stroke="rgb(39, 170, 225)" stroke-width="0.5">
        <path id="Capline-S" d="M18,76 l800,0" />
        <path id="H-reference" d="M85,145.755 L87.685,145.755 L113.369,79.287 L114.052,79.287 L114.052,76 L112.148,76 L85,145.755 Z M95.693,121.536 L130.996,121.536 L130.263,119.313 L96.474,119.313 L95.693,121.536 Z M139.15,145.755 L141.787,145.755 L114.638,76 L113.466,76 L113.466,79.287 L139.15,145.755 Z" stroke="none" />
        <path id="Baseline-S" d="M18,146 l800,0" />
        <path id="left-margin-Ultralight-S" d="M214,56 l0,110" />
        <path id="right-margin-Ultralight-S" d="M316,56 l0,110" />
        <path id="left-margin-Regular-S" d="M414,56 l0,110" />
        <path id="right-margin-Regular-S" d="M516,56 l0,110" />
        <path id="left-margin-Black-S" d="M614,56 l0,110" />
        <path id="right-margin-Black-S" d="M716,56 l0,110" />
        <path id="Capline-M" d="M18,276 l800,0" />
        <path id="Baseline-M" d="M18,346 l800,0" />
        <path id="Capline-L" d="M18,476 l800,0" />
        <path id="Baseline-L" d="M18,546 l800,0" />
    </g>
    <g id="Symbols">
        <g id="Ultralight-S">
            <path d="M227,82 L303,82 C304.657,82 306,80.657 306,79 C306,77.343 304.657,76 303,76 L227,76 C225.343,76 224,77.343 224,79 C224,80.657 225.343,82 227,82 Z" />
            <path d="M227,146 L303,146 C304.657,146 306,144.657 306,143 C306,141.343 304.657,140 303,140 L227,140 C225.343,140 224,141.343 224,143 C224,144.657 225.343,146 227,146 Z" />
            <path d="M282,103 L282,119 L285,116 L245,116 L248,119 L248,103 L245,106 L285,106 L282,103 Z M288,103 C288,101.343 286.657,100 285,100 L245,100 C243.343,100 242,101.343 242,103 L242,119 C242,120.657 243.343,122 245,122 L285,122 C286.657,122 288,120.657 288,119 L288,103 Z" />
        </g>
        <g id="Regular-S">
            <path d="M427,82 L503,82 C504.657,82 506,80.657 506,79 C506,77.343 504.657,76 503,76 L427,76 C425.343,76 424,77.343 424,79 C424,80.657 425.343,82 427,82 Z" />
            <path d="M427,146 L503,146 C504.657,146 506,144.657 506,143 C506,141.343 504.657,140 503,140 L427,140 C425.343,140 424,141.343 424,143 C424,144.657 425.343,146 427,146 Z" />
            <path d="M482,103 L482,119 L485,116 L445,116 L448,119 L448,103 L445,106 L485,106 L482,103 Z M488,103 C488,101.343 486.657,100 485,100 L445,100 C443.343,100 442,101.343 442,103 L442,119 C442,120.657 443.343,122 445,122 L485,122 C486.657,122 488,120.657 488,119 L488,103 Z" />
        </g>
        <g id="Black-S">
            <path d="M627,82 L703,82 C704.657,82 706,80.657 706,79 C706,77.343 704.657,76 703,76 L627,76 C625.343,76 624,77.343 624,79 C624,80.657 625.343,82 627,82 Z" />
            <path d="M627,146 L703,146 C704.657,146 706,144.657 706,143 C706,141.343 704.657,140 703,140 L627,140 C625.343,140 624,141.343 624,143 C624,144.657 625.343,146 627,146 Z" />
            <path d="M682,103 L682,119 L685,116 L645,116 L648,119 L648,103 L645,106 L685,106 L682,103 Z M688,103 C688,101.343 686.657,100 685,100 L645,100 C643.343,100 642,101.343 642,103 L642,119 C642,120.657 643.343,122 645,122 L685,122 C686.657,122 688,120.657 688,119 L688,103 Z" />
        </g>
    </g>
</svg>