<?xml version="1.0" encoding="UTF-8"?>
<svg height="600" width="800" xmlns="http://www.w3.org/2000/svg" xmlns:xlink="http://www.w3.org/1999/xlink">
    <g id="Notes" font-family="'LucidaGrande', 'Lucida Grande', sans-serif" font-size="13">
        <rect fill="white" height="600.0" width="800.0" x="0.0" y="0.0" />
        <g font-size="13">
            <text x="18.0" y="176.0">Small</text>
            <text x="18.0" y="376.0">Medium</text>
            <text x="18.0" y="576.0">Large</text>
        </g>
        <g font-size="9">
            <text x="250.0" y="30.0">Ultralight</text>
            <text x="450.0" y="30.0">Regular</text>
            <text x="650.0" y="30.0">Black</text>
            <text id="template-version" fill="#505050" text-anchor="end" x="785.0" y="575.0">Template v.3.0</text>
            <a href="https://github.com/swhitty/SwiftDraw">
                <text fill="#505050" text-anchor="end" x="785.0" y="590.0">https://github.com/swhitty/SwiftDraw</text>
            </a>
        </g>
    </g>
    <g id="Guides" stroke="rgb(39, 170, 225)" stroke-width="0.5">
        <path id="Capline-S" d="M18,76 l800,0" />
        <path id="H-reference" d="M85,145.755 L87.685,145.755 L113.369,79.287 L114.052,79.287 L114.052,76 L112.148,76 L85,145.755 Z M95.693,121.536 L130.996,121.536 L130.263,119.313 L96.474,119.313 L95.693,121.536 Z M139.15,145.755 L141.787,145.755 L114.638,76 L113.466,76 L113.466,79.287 L139.15,145.755 Z" stroke="none" />
        <path id="Baseline-S" d="M18,146 l800,0" />
        <path id="left-margin-Ultralight-S" d="M221,56 l0,110" />
        <path id="right-margin-Ultralight-S" d="M309,56 l0,110" />
        <path id="left-margin-Regular-S" d="M421,56 l0,110" />
        <path id="right-margin-Regular-S" d="M509,56 l0,110" />
        <path id="left-margin-Black-S" d="M621,56 l0,110" />
        <path id="right-margin-Black-S" d="M709,56 l0,110" />
        <path id="Capline-M" d="M18,276 l800,0" />
        <path id="Baseline-M" d="M18,346 l800,0" />
        <path id="Capline-L" d="M18,476 l800,0" />
        <path id="Baseline-L" d="M18,546 l800,0" />
    </g>
    <g id="Symbols">
        <g id="Ultralight-S">
            <path d="M289.419,76 L240.581,76 C239.233,76 238.14,77.093 238.14,78.442 L238.14,88.209 C238.14,89.316 238.883,90.284 239.952,90.569 L264.371,97.08 C264.783,97.19 265.217,97.19 265.629,97.08 L290.048,90.569 C291.117,90.284 291.86,89.316 291.86,88.209 L291.86,78.442 C291.86,77.093 290.767,76 289.419,76 Z M289.419,80.884 L286.977,78.442 L286.977,88.209 L288.789,85.85 L264.371,92.362 L265.629,92.362 L241.211,85.85 L243.023,88.209 L243.023,78.442 L240.581,80.884 L289.419,80.884 Z" />
            <path d="M286.977,99.605 L286.977,143.558 L289.419,141.116 L240.581,141.116 L243.023,143.558 L243.023,99.605 C243.023,98.256 241.93,97.163 240.581,97.163 C239.233,97.163 238.14,98.256 238.14,99.605 L238.14,143.558 C238.14,144.907 239.233,146 240.581,146 L289.419,146 C290.767,146 291.86,144.907 291.86,143.558 L291.86,99.605 C291.86,98.256 290.767,97.163 289.419,97.163 C288.07,97.163 286.977,98.256 286.977,99.605 Z" />
            <path d="M254.985,104.424 L263.124,114.191 C264.1,115.363 265.9,115.363 266.876,114.191 L275.015,104.424 C275.879,103.388 275.739,101.848 274.703,100.985 C273.667,100.121 272.127,100.261 271.264,101.297 L263.124,111.065 L266.876,111.065 L258.736,101.297 C257.873,100.261 256.333,100.121 255.297,100.985 C254.261,101.848 254.121,103.388 254.985,104.424 Z" />
            <path d="M255.233,124.837 L274.767,124.837 C276.116,124.837 277.209,123.744 277.209,122.395 C277.209,121.047 276.116,119.953 274.767,119.953 L255.233,119.953 C253.884,119.953 252.791,121.047 252.791,122.395 C252.791,123.744 253.884,124.837 255.233,124.837 Z" />
            <path d="M255.233,115.07 L274.767,115.07 C276.116,115.07 277.209,113.977 277.209,112.628 C277.209,111.279 276.116,110.186 274.767,110.186 L255.233,110.186 C253.884,110.186 252.791,111.279 252.791,112.628 C252.791,113.977 253.884,115.07 255.233,115.07 Z" />
            <path d="M262.558,112.628 L262.558,132.163 C262.558,133.511 263.651,134.605 265,134.605 C266.349,134.605 267.442,133.511 267.442,132.163 L267.442,112.628 C267.442,111.279 266.349,110.186 265,110.186 C263.651,110.186 262.558,111.279 262.558,112.628 Z" />
        </g>
        <g id="Regular-S">
            <path d="M489.419,76 L440.581,76 C439.233,76 438.14,77.093 438.14,78.442 L438.14,88.209 C438.14,89.316 438.883,90.284 439.952,90.569 L464.371,97.08 C464.783,97.19 465.217,97.19 465.629,97.08 L490.048,90.569 C491.117,90.284 491.86,89.316 491.86,88.209 L491.86,78.442 C491.86,77.093 490.767,76 489.419,76 Z M489.419,80.884 L486.977,78.442 L486.977,88.209 L488.789,85.85 L464.371,92.362 L465.629,92.362 L441.211,85.85 L443.023,88.209 L443.023,78.442 L440.581,80.884 L489.419,80.884 Z" />
            <path d="M486.977,99.605 L486.977,143.558 L489.419,141.116 L440.581,141.116 L443.023,143.558 L443.023,99.605 C443.023,98.256 441.93,97.163 440.581,97.163 C439.233,97.163 438.14,98.256 438.14,99.605 L438.14,143.558 C438.14,144.907 439.233,146 440.581,146 L489.419,146 C490.767,146 491.86,144.907 491.86,143.558 L491.86,99.605 C491.86,98.256 490.767,97.163 489.419,97.163 C488.07,97.163 486.977,98.256 486.977,99.605 Z" />
            <path d="M454.985,104.424 L463.124,114.191 C464.1,115.363 465.9,115.363 466.876,114.191 L475.015,104.424 C475.879,103.388 475.739,101.848 474.703,100.985 C473.667,100.121 472.127,100.261 471.264,101.297 L463.124,111.065 L466.876,111.065 L458.736,101.297 C457.873,100.261 456.333,100.121 455.297,100.985 C454.261,101.848 454.121,103.388 454.985,104.424 Z" />
            <path d="M455.233,124.837 L474.767,124.837 C476.116,124.837 477.209,123.744 477.209,122.395 C477.209,121.047 476.116,119.953 474.767,119.953 L455.233,119.953 C453.884,119.953 452.791,121.047 452.791,122.395 C452.791,123.744 453.884,124.837 455.233,124.837 Z" />
            <path d="M455.233,115.07 L474.767,115.07 C476.116,115.07 477.209,113.977 477.209,112.628 C477.209,111.279 476.116,110.186 474.767,110.186 L455.233,110.186 C453.884,110.186 452.791,111.279 452.791,112.628 C452.791,113.977 453.884,115.07 455.233,115.07 Z" />
            <path d="M462.558,112.628 L462.558,132.163 C462.558,133.511 463.651,134.605 465,134.605 C466.349,134.605 467.442,133.511 467.442,132.163 L467.442,112.628 C467.442,111.279 466.349,110.186 465,110.186 C463.651,110.186 462.558,111.279 462.558,112.628 Z" />
        </g>
        <g id="Black-S">
            <path d="M689.419,76 L640.581,76 C639.233,76 638.14,77.093 638.14,78.442 L638.14,88.209 C638.14,89.316 638.883,90.284 639.952,90.569 L664.371,97.08 C664.783,97.19 665.217,97.19 665.629,97.08 L690.048,90.569 C691.117,90.284 691.86,89.316 691.86,88.209 L691.86,78.442 C691.86,77.093 690.767,76 689.419,76 Z M689.419,80.884 L686.977,78.442 L686.977,88.209 L688.789,85.85 L664.371,92.362 L665.629,92.362 L641.211,85.85 L643.023,88.209 L643.023,78.442 L640.581,80.884 L689.419,80.884 Z" />
            <path d="M686.977,99.605 L686.977,143.558 L689.419,141.116 L640.581,141.116 L643.023,143.558 L643.023,99.605 C643.023,98.256 641.93,97.163 640.581,97.163 C639.233,97.163 638.14,98.256 638.14,99.605 L638.14,143.558 C638.14,144.907 639.233,146 640.581,146 L689.419,146 C690.767,146 691.86,144.907 691.86,143.558 L691.86,99.605 C691.86,98.256 690.767,97.163 689.419,97.163 C688.07,97.163 686.977,98.256 686.977,99.605 Z" />
            <path d="M654.985,104.424 L663.124,114.191 C664.1,115.363 665.9,115.363 666.876,114.191 L675.015,104.424 C675.879,103.388 675.739,101.848 674.703,100.985 C673.667,100.121 672.127,100.261 671.264,101.297 L663.124,111.065 L666.876,111.065 L658.736,101.297 C657.873,100.261 656.333,100.121 655.297,100.985 C654.261,101.848 654.121,103.388 654.985,104.424 Z" />
            <path d="M655.233,124.837 L674.767,124.837 C676.116,124.837 677.209,123.744 677.209,122.395 C677.209,121.047 676.116,119.953 674.767,119.953 L655.233,119.953 C653.884,119.953 652.791,121.047 652.791,122.395 C652.791,123.744 653.884,124.837 655.233,124.837 Z" />
            <path d="M655.233,115.07 L674.767,115.07 C676.116,115.07 677.209,113.977 677.209,112.628 C677.209,111.279 676.116,110.186 674.767,110.186 L655.233,110.186 C653.884,110.186 652.791,111.279 652.791,112.628 C652.791,113.977 653.884,115.07 655.233,115.07 Z" />
            <path d="M662.558,112.628 L662.558,132.163 C662.558,133.511 663.651,134.605 665,134.605 C666.349,134.605 667.442,133.511 667.442,132.163 L667.442,112.628 C667.442,111.279 666.349,110.186 665,110.186 C663.651,110.186 662.558,111.279 662.558,112.628 Z" />
        </g>
    </g>
</svg>