<?xml version="1.0" encoding="UTF-8"?>
<svg height="600" width="800" xmlns="http://www.w3.org/2000/svg" xmlns:xlink="http://www.w3.org/1999/xlink">
    <g id="Notes" font-family="'LucidaGrande', 'Lucida Grande', sans-serif" font-size="13">
        <rect fill="white" height="600.0" width="800.0" x="0.0" y="0.0" />
        <g font-size="13">
            <text x="18.0" y="176.0">Small</text>
            <text x="18.0" y="376.0">Medium</text>
            <text x="18.0" y="576.0">Large</text>
        </g>
        <g font-size="9">
            <text x="250.0" y="30.0">Ultralight</text>
            <text x="450.0" y="30.0">Regular</text>
            <text x="650.0" y="30.0">Black</text>
            <text id="template-version" fill="#505050" text-anchor="end" x="785.0" y="575.0">Template v.3.0</text>
            <a href="https://github.com/swhitty/SwiftDraw">
                <text fill="#505050" text-anchor="end" x="785.0" y="590.0">https://github.com/swhitty/SwiftDraw</text>
            </a>
        </g>
    </g>
    <g id="Guides" stroke="rgb(39, 170, 225)" stroke-width="0.5">
        <path id="Capline-S" d="M18,76 l800,0" />
        <path id="H-reference" d="M85,145.755 L87.685,145.755 L113.369,79.287 L114.052,79.287 L114.052,76 L112.148,76 L85,145.755 Z M95.693,121.536 L130.996,121.536 L130.263,119.313 L96.474,119.313 L95.693,121.536 Z M139.15,145.755 L141.787,145.755 L114.638,76 L113.466,76 L113.466,79.287 L139.15,145.755 Z" stroke="none" />
        <path id="Baseline-S" d="M18,146 l800,0" />
        <path id="left-margin-Ultralight-S" d="M221,56 l0,110" />
        <path id="right-margin-Ultralight-S" d="M309,56 l0,110" />
        <path id="left-margin-Regular-S" d="M421,56 l0,110" />
        <path id="right-margin-Regular-S" d="M509,56 l0,110" />
        <path id="left-margin-Black-S" d="M621,56 l0,110" />
        <path id="right-margin-Black-S" d="M709,56 l0,110" />
        <path id="Capline-M" d="M18,276 l800,0" />
        <path id="Baseline-M" d="M18,346 l800,0" />
        <path id="Capline-L" d="M18,476 l800,0" />
        <path id="Baseline-L" d="M18,546 l800,0" />
    </g>
    <g id="Symbols">
        <g id="Ultralight-S">
            <path d="M293.171,129.78 L293.171,99.049 C293.171,95.748 290.495,93.073 287.195,93.073 L282.607,93.073 L269.002,93.073 L242.805,93.073 C239.505,93.073 236.829,95.748 236.829,99.049 L236.829,129.78 C236.829,133.081 239.505,135.756 242.805,135.756 L287.195,135.756 C290.495,135.756 293.171,133.081 293.171,129.78 Z M288.049,129.78 C288.049,130.252 287.667,130.634 287.195,130.634 L242.805,130.634 C242.333,130.634 241.951,130.252 241.951,129.78 L241.951,99.049 C241.951,98.577 242.333,98.195 242.805,98.195 L269.002,98.195 L282.607,98.195 L287.195,98.195 C287.667,98.195 288.049,98.577 288.049,99.049 L288.049,129.78 Z" />
            <path d="M234.268,135.756 L295.732,135.756 C297.146,135.756 298.293,134.61 298.293,133.195 C298.293,131.781 297.146,130.634 295.732,130.634 L234.268,130.634 C232.854,130.634 231.707,131.781 231.707,133.195 C231.707,134.61 232.854,135.756 234.268,135.756 Z" />
            <path d="M234.268,146 L295.732,146 C297.146,146 298.293,144.853 298.293,143.439 C298.293,142.025 297.146,140.878 295.732,140.878 L234.268,140.878 C232.854,140.878 231.707,142.025 231.707,143.439 C231.707,144.853 232.854,146 234.268,146 Z" />
            <path d="M239.39,110.146 L249.634,110.146 L247.073,107.585 L247.073,116.122 C247.073,117.536 248.22,118.683 249.634,118.683 L259.878,118.683 C261.292,118.683 262.439,117.536 262.439,116.122 L262.439,107.585 L259.878,110.146 L270.122,110.146 L267.561,107.585 L267.561,121.244 C267.561,122.658 268.708,123.805 270.122,123.805 L280.366,123.805 C281.78,123.805 282.927,122.658 282.927,121.244 L282.927,107.585 L280.366,110.146 L290.61,110.146 C292.024,110.146 293.171,109 293.171,107.585 C293.171,106.171 292.024,105.024 290.61,105.024 L280.366,105.024 C278.951,105.024 277.805,106.171 277.805,107.585 L277.805,121.244 L280.366,118.683 L270.122,118.683 L272.683,121.244 L272.683,107.585 C272.683,106.171 271.536,105.024 270.122,105.024 L259.878,105.024 C258.464,105.024 257.317,106.171 257.317,107.585 L257.317,116.122 L259.878,113.561 L249.634,113.561 L252.195,116.122 L252.195,107.585 C252.195,106.171 251.049,105.024 249.634,105.024 L239.39,105.024 C237.976,105.024 236.829,106.171 236.829,107.585 C236.829,109 237.976,110.146 239.39,110.146 Z" />
            <path d="M241.951,111 L241.951,104.171 C241.951,102.756 240.805,101.61 239.39,101.61 C237.976,101.61 236.829,102.756 236.829,104.171 L236.829,111 C236.829,112.414 237.976,113.561 239.39,113.561 C240.805,113.561 241.951,112.414 241.951,111 Z" />
            <path d="M293.171,111 L293.171,104.171 C293.171,102.756 292.024,101.61 290.61,101.61 C289.195,101.61 288.049,102.756 288.049,104.171 L288.049,111 C288.049,112.414 289.195,113.561 290.61,113.561 C292.024,113.561 293.171,112.414 293.171,111 Z" />
            <path d="M282.927,95.634 L282.927,85.39 C282.927,83.976 281.78,82.829 280.366,82.829 C278.951,82.829 277.805,83.976 277.805,85.39 L277.805,95.634 C277.805,97.049 278.951,98.195 280.366,98.195 C281.78,98.195 282.927,97.049 282.927,95.634 Z" />
            <path d="M267.561,95.634 L267.561,78.561 C267.561,77.147 266.414,76 265,76 C263.586,76 262.439,77.147 262.439,78.561 L262.439,95.634 C262.439,97.049 263.586,98.195 265,98.195 C266.414,98.195 267.561,97.049 267.561,95.634 Z" />
            <path d="M252.195,95.634 L252.195,85.39 C252.195,83.976 251.049,82.829 249.634,82.829 C248.22,82.829 247.073,83.976 247.073,85.39 L247.073,95.634 C247.073,97.049 248.22,98.195 249.634,98.195 C251.049,98.195 252.195,97.049 252.195,95.634 Z" />
        </g>
        <g id="Regular-S">
            <path d="M493.171,129.78 L493.171,99.049 C493.171,95.748 490.495,93.073 487.195,93.073 L482.607,93.073 L469.002,93.073 L442.805,93.073 C439.505,93.073 436.829,95.748 436.829,99.049 L436.829,129.78 C436.829,133.081 439.505,135.756 442.805,135.756 L487.195,135.756 C490.495,135.756 493.171,133.081 493.171,129.78 Z M488.049,129.78 C488.049,130.252 487.667,130.634 487.195,130.634 L442.805,130.634 C442.333,130.634 441.951,130.252 441.951,129.78 L441.951,99.049 C441.951,98.577 442.333,98.195 442.805,98.195 L469.002,98.195 L482.607,98.195 L487.195,98.195 C487.667,98.195 488.049,98.577 488.049,99.049 L488.049,129.78 Z" />
            <path d="M434.268,135.756 L495.732,135.756 C497.146,135.756 498.293,134.61 498.293,133.195 C498.293,131.781 497.146,130.634 495.732,130.634 L434.268,130.634 C432.854,130.634 431.707,131.781 431.707,133.195 C431.707,134.61 432.854,135.756 434.268,135.756 Z" />
            <path d="M434.268,146 L495.732,146 C497.146,146 498.293,144.853 498.293,143.439 C498.293,142.025 497.146,140.878 495.732,140.878 L434.268,140.878 C432.854,140.878 431.707,142.025 431.707,143.439 C431.707,144.853 432.854,146 434.268,146 Z" />
            <path d="M439.39,110.146 L449.634,110.146 L447.073,107.585 L447.073,116.122 C447.073,117.536 448.22,118.683 449.634,118.683 L459.878,118.683 C461.292,118.683 462.439,117.536 462.439,116.122 L462.439,107.585 L459.878,110.146 L470.122,110.146 L467.561,107.585 L467.561,121.244 C467.561,122.658 468.708,123.805 470.122,123.805 L480.366,123.805 C481.78,123.805 482.927,122.658 482.927,121.244 L482.927,107.585 L480.366,110.146 L490.61,110.146 C492.024,110.146 493.171,109 493.171,107.585 C493.171,106.171 492.024,105.024 490.61,105.024 L480.366,105.024 C478.951,105.024 477.805,106.171 477.805,107.585 L477.805,121.244 L480.366,118.683 L470.122,118.683 L472.683,121.244 L472.683,107.585 C472.683,106.171 471.536,105.024 470.122,105.024 L459.878,105.024 C458.464,105.024 457.317,106.171 457.317,107.585 L457.317,116.122 L459.878,113.561 L449.634,113.561 L452.195,116.122 L452.195,107.585 C452.195,106.171 451.049,105.024 449.634,105.024 L439.39,105.024 C437.976,105.024 436.829,106.171 436.829,107.585 C436.829,109 437.976,110.146 439.39,110.146 Z" />
            <path d="M441.951,111 L441.951,104.171 C441.951,102.756 440.805,101.61 439.39,101.61 C437.976,101.61 436.829,102.756 436.829,104.171 L436.829,111 C436.829,112.414 437.976,113.561 439.39,113.561 C440.805,113.561 441.951,112.414 441.951,111 Z" />
            <path d="M493.171,111 L493.171,104.171 C493.171,102.756 492.024,101.61 490.61,101.61 C489.195,101.61 488.049,102.756 488.049,104.171 L488.049,111 C488.049,112.414 489.195,113.561 490.61,113.561 C492.024,113.561 493.171,112.414 493.171,111 Z" />
            <path d="M482.927,95.634 L482.927,85.39 C482.927,83.976 481.78,82.829 480.366,82.829 C478.951,82.829 477.805,83.976 477.805,85.39 L477.805,95.634 C477.805,97.049 478.951,98.195 480.366,98.195 C481.78,98.195 482.927,97.049 482.927,95.634 Z" />
            <path d="M467.561,95.634 L467.561,78.561 C467.561,77.147 466.414,76 465,76 C463.586,76 462.439,77.147 462.439,78.561 L462.439,95.634 C462.439,97.049 463.586,98.195 465,98.195 C466.414,98.195 467.561,97.049 467.561,95.634 Z" />
            <path d="M452.195,95.634 L452.195,85.39 C452.195,83.976 451.049,82.829 449.634,82.829 C448.22,82.829 447.073,83.976 447.073,85.39 L447.073,95.634 C447.073,97.049 448.22,98.195 449.634,98.195 C451.049,98.195 452.195,97.049 452.195,95.634 Z" />
        </g>
        <g id="Black-S">
            <path d="M693.171,129.78 L693.171,99.049 C693.171,95.748 690.495,93.073 687.195,93.073 L682.607,93.073 L669.002,93.073 L642.805,93.073 C639.505,93.073 636.829,95.748 636.829,99.049 L636.829,129.78 C636.829,133.081 639.505,135.756 642.805,135.756 L687.195,135.756 C690.495,135.756 693.171,133.081 693.171,129.78 Z M688.049,129.78 C688.049,130.252 687.667,130.634 687.195,130.634 L642.805,130.634 C642.333,130.634 641.951,130.252 641.951,129.78 L641.951,99.049 C641.951,98.577 642.333,98.195 642.805,98.195 L669.002,98.195 L682.607,98.195 L687.195,98.195 C687.667,98.195 688.049,98.577 688.049,99.049 L688.049,129.78 Z" />
            <path d="M634.268,135.756 L695.732,135.756 C697.146,135.756 698.293,134.61 698.293,133.195 C698.293,131.781 697.146,130.634 695.732,130.634 L634.268,130.634 C632.854,130.634 631.707,131.781 631.707,133.195 C631.707,134.61 632.854,135.756 634.268,135.756 Z" />
            <path d="M634.268,146 L695.732,146 C697.146,146 698.293,144.853 698.293,143.439 C698.293,142.025 697.146,140.878 695.732,140.878 L634.268,140.878 C632.854,140.878 631.707,142.025 631.707,143.439 C631.707,144.853 632.854,146 634.268,146 Z" />
            <path d="M639.39,110.146 L649.634,110.146 L647.073,107.585 L647.073,116.122 C647.073,117.536 648.22,118.683 649.634,118.683 L659.878,118.683 C661.292,118.683 662.439,117.536 662.439,116.122 L662.439,107.585 L659.878,110.146 L670.122,110.146 L667.561,107.585 L667.561,121.244 C667.561,122.658 668.708,123.805 670.122,123.805 L680.366,123.805 C681.78,123.805 682.927,122.658 682.927,121.244 L682.927,107.585 L680.366,110.146 L690.61,110.146 C692.024,110.146 693.171,109 693.171,107.585 C693.171,106.171 692.024,105.024 690.61,105.024 L680.366,105.024 C678.951,105.024 677.805,106.171 677.805,107.585 L677.805,121.244 L680.366,118.683 L670.122,118.683 L672.683,121.244 L672.683,107.585 C672.683,106.171 671.536,105.024 670.122,105.024 L659.878,105.024 C658.464,105.024 657.317,106.171 657.317,107.585 L657.317,116.122 L659.878,113.561 L649.634,113.561 L652.195,116.122 L652.195,107.585 C652.195,106.171 651.049,105.024 649.634,105.024 L639.39,105.024 C637.976,105.024 636.829,106.171 636.829,107.585 C636.829,109 637.976,110.146 639.39,110.146 Z" />
            <path d="M641.951,111 L641.951,104.171 C641.951,102.756 640.805,101.61 639.39,101.61 C637.976,101.61 636.829,102.756 636.829,104.171 L636.829,111 C636.829,112.414 637.976,113.561 639.39,113.561 C640.805,113.561 641.951,112.414 641.951,111 Z" />
            <path d="M693.171,111 L693.171,104.171 C693.171,102.756 692.024,101.61 690.61,101.61 C689.195,101.61 688.049,102.756 688.049,104.171 L688.049,111 C688.049,112.414 689.195,113.561 690.61,113.561 C692.024,113.561 693.171,112.414 693.171,111 Z" />
            <path d="M682.927,95.634 L682.927,85.39 C682.927,83.976 681.78,82.829 680.366,82.829 C678.951,82.829 677.805,83.976 677.805,85.39 L677.805,95.634 C677.805,97.049 678.951,98.195 680.366,98.195 C681.78,98.195 682.927,97.049 682.927,95.634 Z" />
            <path d="M667.561,95.634 L667.561,78.561 C667.561,77.147 666.414,76 665,76 C663.586,76 662.439,77.147 662.439,78.561 L662.439,95.634 C662.439,97.049 663.586,98.195 665,98.195 C666.414,98.195 667.561,97.049 667.561,95.634 Z" />
            <path d="M652.195,95.634 L652.195,85.39 C652.195,83.976 651.049,82.829 649.634,82.829 C648.22,82.829 647.073,83.976 647.073,85.39 L647.073,95.634 C647.073,97.049 648.22,98.195 649.634,98.195 C651.049,98.195 652.195,97.049 652.195,95.634 Z" />
        </g>
    </g>
</svg>