<?xml version="1.0" encoding="UTF-8"?>
<svg height="600" width="800" xmlns="http://www.w3.org/2000/svg" xmlns:xlink="http://www.w3.org/1999/xlink">
    <g id="Notes" font-family="'LucidaGrande', 'Lucida Grande', sans-serif" font-size="13">
        <rect fill="white" height="600.0" width="800.0" x="0.0" y="0.0" />
        <g font-size="13">
            <text x="18.0" y="176.0">Small</text>
            <text x="18.0" y="376.0">Medium</text>
            <text x="18.0" y="576.0">Large</text>
        </g>
        <g font-size="9">
            <text x="250.0" y="30.0">Ultralight</text>
            <text x="450.0" y="30.0">Regular</text>
            <text x="650.0" y="30.0">Black</text>
            <text id="template-version" fill="#505050" text-anchor="end" x="785.0" y="575.0">Template v.3.0</text>
            <a href="https://github.com/swhitty/SwiftDraw">
                <text fill="#505050" text-anchor="end" x="785.0" y="590.0">https://github.com/swhitty/SwiftDraw</text>
            </a>
        </g>
    </g>
    <g id="Guides" stroke="rgb(39, 170, 225)" stroke-width="0.5">
        <path id="Capline-S" d="M18,76 l800,0" />
        <path id="H-reference" d="M85,145.755 L87.685,145.755 L113.369,79.287 L114.052,79.287 L114.052,76 L112.148,76 L85,145.755 Z M95.693,121.536 L130.996,121.536 L130.263,119.313 L96.474,119.313 L95.693,121.536 Z M139.15,145.755 L141.787,145.755 L114.638,76 L113.466,76 L113.466,79.287 L139.15,145.755 Z" stroke="none" />
        <path id="Baseline-S" d="M18,146 l800,0" />
        <path id="left-margin-Ultralight-S" d="M221,56 l0,110" />
        <path id="right-margin-Ultralight-S" d="M309,56 l0,110" />
        <path id="left-margin-Regular-S" d="M421,56 l0,110" />
        <path id="right-margin-Regular-S" d="M509,56 l0,110" />
        <path id="left-margin-Black-S" d="M621,56 l0,110" />
        <path id="right-margin-Black-S" d="M709,56 l0,110" />
        <path id="Capline-M" d="M18,276 l800,0" />
        <path id="Baseline-M" d="M18,346 l800,0" />
        <path id="Capline-L" d="M18,476 l800,0" />
        <path id="Baseline-L" d="M18,546 l800,0" />
    </g>
    <g id="Symbols">
        <g id="Ultralight-S">
            <path d="M285.488,88.975 L277.376,88.975 L275.222,88.975 C271.953,88.975 269.303,91.625 269.303,94.894 L269.303,106.676 C269.303,108.09 270.449,109.237 271.864,109.237 L285.488,109.237 L282.956,106.287 L280.961,119.257 L283.492,117.085 L271.864,117.085 C270.449,117.085 269.303,118.232 269.303,119.646 L269.303,143.439 L271.864,140.878 L256.882,140.878 L259.443,143.439 L259.443,119.646 C259.443,118.232 258.296,117.085 256.882,117.085 L244.512,117.085 L247.073,119.646 L247.073,106.676 L244.512,109.237 L256.722,109.237 C258.123,109.237 259.264,108.111 259.283,106.709 L259.442,94.398 L259.42,92.103 C259.359,86.099 264.177,81.183 270.181,81.123 C270.235,81.122 270.235,81.122 270.291,81.122 L285.488,81.122 L282.927,78.561 L282.927,91.536 L285.488,88.975 Z M285.488,94.097 C286.902,94.097 288.048,92.95 288.048,91.536 L288.048,78.561 C288.048,77.147 286.902,76 285.488,76 L270.291,76 C270.21,76 270.21,76 270.129,76.001 C261.296,76.09 254.209,83.323 254.298,92.155 L254.321,94.39 L254.161,106.643 L256.722,104.115 L244.512,104.115 C243.098,104.115 241.951,105.262 241.951,106.676 L241.951,119.646 C241.951,121.061 243.098,122.207 244.512,122.207 L256.882,122.207 L254.321,119.646 L254.321,143.439 C254.321,144.853 255.467,146 256.882,146 L271.864,146 C273.278,146 274.425,144.853 274.425,143.439 L274.425,119.646 L271.864,122.207 L283.492,122.207 C284.756,122.207 285.831,121.285 286.023,120.036 L288.019,107.065 C288.257,105.514 287.057,104.115 285.488,104.115 L271.864,104.115 L274.425,106.676 L274.425,94.894 C274.425,94.454 274.781,94.097 275.222,94.097 L277.376,94.097 L285.488,94.097 Z" />
        </g>
        <g id="Regular-S">
            <path d="M485.488,88.975 L477.376,88.975 L475.222,88.975 C471.953,88.975 469.303,91.625 469.303,94.894 L469.303,106.676 C469.303,108.09 470.449,109.237 471.864,109.237 L485.488,109.237 L482.956,106.287 L480.961,119.257 L483.492,117.085 L471.864,117.085 C470.449,117.085 469.303,118.232 469.303,119.646 L469.303,143.439 L471.864,140.878 L456.882,140.878 L459.443,143.439 L459.443,119.646 C459.443,118.232 458.296,117.085 456.882,117.085 L444.512,117.085 L447.073,119.646 L447.073,106.676 L444.512,109.237 L456.722,109.237 C458.123,109.237 459.264,108.111 459.283,106.709 L459.442,94.398 L459.42,92.103 C459.359,86.099 464.177,81.183 470.181,81.123 C470.235,81.122 470.235,81.122 470.291,81.122 L485.488,81.122 L482.927,78.561 L482.927,91.536 L485.488,88.975 Z M485.488,94.097 C486.902,94.097 488.048,92.95 488.048,91.536 L488.048,78.561 C488.048,77.147 486.902,76 485.488,76 L470.291,76 C470.21,76 470.21,76 470.129,76.001 C461.296,76.09 454.209,83.323 454.298,92.155 L454.321,94.39 L454.161,106.643 L456.722,104.115 L444.512,104.115 C443.098,104.115 441.951,105.262 441.951,106.676 L441.951,119.646 C441.951,121.061 443.098,122.207 444.512,122.207 L456.882,122.207 L454.321,119.646 L454.321,143.439 C454.321,144.853 455.467,146 456.882,146 L471.864,146 C473.278,146 474.425,144.853 474.425,143.439 L474.425,119.646 L471.864,122.207 L483.492,122.207 C484.756,122.207 485.831,121.285 486.023,120.036 L488.019,107.065 C488.257,105.514 487.057,104.115 485.488,104.115 L471.864,104.115 L474.425,106.676 L474.425,94.894 C474.425,94.454 474.781,94.097 475.222,94.097 L477.376,94.097 L485.488,94.097 Z" />
        </g>
        <g id="Black-S">
            <path d="M685.488,88.975 L677.376,88.975 L675.222,88.975 C671.953,88.975 669.303,91.625 669.303,94.894 L669.303,106.676 C669.303,108.09 670.449,109.237 671.864,109.237 L685.488,109.237 L682.956,106.287 L680.961,119.257 L683.492,117.085 L671.864,117.085 C670.449,117.085 669.303,118.232 669.303,119.646 L669.303,143.439 L671.864,140.878 L656.882,140.878 L659.443,143.439 L659.443,119.646 C659.443,118.232 658.296,117.085 656.882,117.085 L644.512,117.085 L647.073,119.646 L647.073,106.676 L644.512,109.237 L656.722,109.237 C658.123,109.237 659.264,108.111 659.283,106.709 L659.442,94.398 L659.42,92.103 C659.359,86.099 664.177,81.183 670.181,81.123 C670.235,81.122 670.235,81.122 670.291,81.122 L685.488,81.122 L682.927,78.561 L682.927,91.536 L685.488,88.975 Z M685.488,94.097 C686.902,94.097 688.049,92.95 688.049,91.536 L688.049,78.561 C688.049,77.147 686.902,76 685.488,76 L670.291,76 C670.21,76 670.21,76 670.129,76.001 C661.296,76.09 654.209,83.323 654.298,92.155 L654.321,94.39 L654.161,106.643 L656.722,104.115 L644.512,104.115 C643.098,104.115 641.951,105.262 641.951,106.676 L641.951,119.646 C641.951,121.061 643.098,122.207 644.512,122.207 L656.882,122.207 L654.321,119.646 L654.321,143.439 C654.321,144.853 655.467,146 656.882,146 L671.864,146 C673.278,146 674.425,144.853 674.425,143.439 L674.425,119.646 L671.864,122.207 L683.492,122.207 C684.756,122.207 685.831,121.285 686.023,120.036 L688.019,107.065 C688.257,105.514 687.057,104.115 685.488,104.115 L671.864,104.115 L674.425,106.676 L674.425,94.894 C674.425,94.454 674.781,94.097 675.222,94.097 L677.376,94.097 L685.488,94.097 Z" />
        </g>
    </g>
</svg>