<?xml version="1.0" encoding="UTF-8"?>
<svg height="600" width="800" xmlns="http://www.w3.org/2000/svg" xmlns:xlink="http://www.w3.org/1999/xlink">
    <g id="Notes" font-family="'LucidaGrande', 'Lucida Grande', sans-serif" font-size="13">
        <rect fill="white" height="600.0" width="800.0" x="0.0" y="0.0" />
        <g font-size="13">
            <text x="18.0" y="176.0">Small</text>
            <text x="18.0" y="376.0">Medium</text>
            <text x="18.0" y="576.0">Large</text>
        </g>
        <g font-size="9">
            <text x="250.0" y="30.0">Ultralight</text>
            <text x="450.0" y="30.0">Regular</text>
            <text x="650.0" y="30.0">Black</text>
            <text id="template-version" fill="#505050" text-anchor="end" x="785.0" y="575.0">Template v.3.0</text>
            <a href="https://github.com/swhitty/SwiftDraw">
                <text fill="#505050" text-anchor="end" x="785.0" y="590.0">https://github.com/swhitty/SwiftDraw</text>
            </a>
        </g>
    </g>
    <g id="Guides" stroke="rgb(39, 170, 225)" stroke-width="0.5">
        <path id="Capline-S" d="M18,76 l800,0" />
        <path id="H-reference" d="M85,145.755 L87.685,145.755 L113.369,79.287 L114.052,79.287 L114.052,76 L112.148,76 L85,145.755 Z M95.693,121.536 L130.996,121.536 L130.263,119.313 L96.474,119.313 L95.693,121.536 Z M139.15,145.755 L141.787,145.755 L114.638,76 L113.466,76 L113.466,79.287 L139.15,145.755 Z" stroke="none" />
        <path id="Baseline-S" d="M18,146 l800,0" />
        <path id="left-margin-Ultralight-S" d="M214.87,56 l0,110" />
        <path id="right-margin-Ultralight-S" d="M315.13,56 l0,110" />
        <path id="left-margin-Regular-S" d="M414.87,56 l0,110" />
        <path id="right-margin-Regular-S" d="M515.13,56 l0,110" />
        <path id="left-margin-Black-S" d="M614.87,56 l0,110" />
        <path id="right-margin-Black-S" d="M715.13,56 l0,110" />
        <path id="Capline-M" d="M18,276 l800,0" />
        <path id="Baseline-M" d="M18,346 l800,0" />
        <path id="Capline-L" d="M18,476 l800,0" />
        <path id="Baseline-L" d="M18,546 l800,0" />
    </g>
    <g id="Symbols">
        <g id="Ultralight-S">
            <path d="M264.978,145.986 C292.456,146.198 305.13,144.123 305.13,137.074 C305.13,128.568 274.266,95.603 265,95.603 C255.897,95.603 224.87,129.054 224.87,137.074 C224.87,143.675 237.254,145.703 264.971,145.985 Z M265.029,140.386 C252.715,140.261 243.508,139.696 237.455,138.705 C234.578,138.234 232.473,137.674 231.196,137.072 C230.72,136.848 230.427,136.65 230.312,136.526 C230.378,136.597 230.47,136.81 230.47,137.074 C230.47,135.407 237.224,126.199 245.298,117.493 C254.084,108.021 262.422,101.202 265,101.202 C271.088,101.202 299.53,131.581 299.53,137.074 C299.53,136.925 299.581,136.795 299.601,136.77 C299.482,136.913 299.196,137.123 298.732,137.358 C297.478,137.994 295.398,138.572 292.545,139.039 C286.512,140.027 277.32,140.481 265.022,140.386 Z" />
            <path d="M257.363,118.37 L250.607,126.468 C249.616,127.656 249.776,129.421 250.963,130.412 C252.15,131.402 253.916,131.243 254.906,130.055 L261.663,121.957 C262.653,120.77 262.494,119.004 261.306,118.014 C260.119,117.023 258.353,117.183 257.363,118.37 Z" />
            <path d="M265.933,85.332 C268.51,85.332 270.599,83.243 270.599,80.666 C270.599,78.089 268.51,76 265.933,76 C263.356,76 261.267,78.089 261.267,80.666 C261.267,83.243 263.356,85.332 265.933,85.332 Z" />
            <path d="M283.665,94.665 C285.727,94.665 287.398,92.994 287.398,90.932 C287.398,88.87 285.727,87.199 283.665,87.199 C281.603,87.199 279.932,88.87 279.932,90.932 C279.932,92.994 281.603,94.665 283.665,94.665 Z" />
            <path d="M242.602,103.997 C244.664,103.997 246.335,102.326 246.335,100.264 C246.335,98.203 244.664,96.531 242.602,96.531 C240.54,96.531 238.869,98.203 238.869,100.264 C238.869,102.326 240.54,103.997 242.602,103.997 Z" />
            <path d="M252.868,92.798 C254.414,92.798 255.668,91.545 255.668,89.999 C255.668,88.452 254.414,87.199 252.868,87.199 C251.322,87.199 250.068,88.452 250.068,89.999 C250.068,91.545 251.322,92.798 252.868,92.798 Z" />
        </g>
        <g id="Regular-S">
            <path d="M464.978,145.986 C492.456,146.198 505.13,144.123 505.13,137.074 C505.13,128.568 474.266,95.603 465,95.603 C455.897,95.603 424.87,129.054 424.87,137.074 C424.87,143.675 437.254,145.703 464.971,145.985 Z M465.029,140.386 C452.715,140.261 443.508,139.696 437.455,138.705 C434.578,138.234 432.473,137.674 431.196,137.072 C430.72,136.848 430.427,136.65 430.312,136.526 C430.378,136.597 430.47,136.81 430.47,137.074 C430.47,135.407 437.224,126.199 445.298,117.493 C454.083,108.021 462.422,101.202 465,101.202 C471.088,101.202 499.53,131.581 499.53,137.074 C499.53,136.925 499.581,136.795 499.601,136.77 C499.482,136.913 499.196,137.123 498.731,137.358 C497.478,137.994 495.398,138.572 492.545,139.039 C486.512,140.027 477.32,140.481 465.022,140.386 Z" />
            <path d="M457.363,118.37 L450.607,126.468 C449.616,127.656 449.776,129.421 450.963,130.412 C452.15,131.402 453.916,131.243 454.906,130.055 L461.663,121.957 C462.653,120.77 462.494,119.004 461.306,118.014 C460.119,117.023 458.353,117.183 457.363,118.37 Z" />
            <path d="M465.933,85.332 C468.51,85.332 470.599,83.243 470.599,80.666 C470.599,78.089 468.51,76 465.933,76 C463.356,76 461.267,78.089 461.267,80.666 C461.267,83.243 463.356,85.332 465.933,85.332 Z" />
            <path d="M483.665,94.665 C485.727,94.665 487.398,92.994 487.398,90.932 C487.398,88.87 485.727,87.199 483.665,87.199 C481.603,87.199 479.932,88.87 479.932,90.932 C479.932,92.994 481.603,94.665 483.665,94.665 Z" />
            <path d="M442.602,103.997 C444.664,103.997 446.335,102.326 446.335,100.264 C446.335,98.203 444.664,96.531 442.602,96.531 C440.54,96.531 438.869,98.203 438.869,100.264 C438.869,102.326 440.54,103.997 442.602,103.997 Z" />
            <path d="M452.868,92.798 C454.414,92.798 455.668,91.545 455.668,89.999 C455.668,88.452 454.414,87.199 452.868,87.199 C451.322,87.199 450.068,88.452 450.068,89.999 C450.068,91.545 451.322,92.798 452.868,92.798 Z" />
        </g>
        <g id="Black-S">
            <path d="M664.978,145.986 C692.456,146.198 705.13,144.123 705.13,137.074 C705.13,128.568 674.266,95.603 665,95.603 C655.897,95.603 624.87,129.054 624.87,137.074 C624.87,143.675 637.254,145.703 664.971,145.985 Z M665.029,140.386 C652.715,140.261 643.508,139.696 637.455,138.705 C634.578,138.234 632.473,137.674 631.196,137.072 C630.72,136.848 630.427,136.65 630.312,136.526 C630.378,136.597 630.47,136.81 630.47,137.074 C630.47,135.407 637.224,126.199 645.298,117.493 C654.083,108.021 662.422,101.202 665,101.202 C671.088,101.202 699.53,131.581 699.53,137.074 C699.53,136.925 699.581,136.795 699.601,136.77 C699.482,136.913 699.196,137.123 698.732,137.358 C697.478,137.994 695.398,138.572 692.545,139.039 C686.512,140.027 677.32,140.481 665.022,140.386 Z" />
            <path d="M657.363,118.37 L650.607,126.468 C649.616,127.656 649.776,129.421 650.963,130.412 C652.15,131.402 653.916,131.243 654.906,130.055 L661.663,121.957 C662.653,120.77 662.494,119.004 661.306,118.014 C660.119,117.023 658.353,117.183 657.363,118.37 Z" />
            <path d="M665.933,85.332 C668.51,85.332 670.599,83.243 670.599,80.666 C670.599,78.089 668.51,76 665.933,76 C663.356,76 661.267,78.089 661.267,80.666 C661.267,83.243 663.356,85.332 665.933,85.332 Z" />
            <path d="M683.665,94.665 C685.727,94.665 687.398,92.994 687.398,90.932 C687.398,88.87 685.727,87.199 683.665,87.199 C681.603,87.199 679.932,88.87 679.932,90.932 C679.932,92.994 681.603,94.665 683.665,94.665 Z" />
            <path d="M642.602,103.997 C644.664,103.997 646.335,102.326 646.335,100.264 C646.335,98.203 644.664,96.531 642.602,96.531 C640.54,96.531 638.869,98.203 638.869,100.264 C638.869,102.326 640.54,103.997 642.602,103.997 Z" />
            <path d="M652.868,92.798 C654.414,92.798 655.668,91.545 655.668,89.999 C655.668,88.452 654.414,87.199 652.868,87.199 C651.322,87.199 650.068,88.452 650.068,89.999 C650.068,91.545 651.322,92.798 652.868,92.798 Z" />
        </g>
    </g>
</svg>