<?xml version="1.0" encoding="UTF-8"?>
<svg height="600" width="800" xmlns="http://www.w3.org/2000/svg" xmlns:xlink="http://www.w3.org/1999/xlink">
    <g id="Notes" font-family="'LucidaGrande', 'Lucida Grande', sans-serif" font-size="13">
        <rect fill="white" height="600.0" width="800.0" x="0.0" y="0.0" />
        <g font-size="13">
            <text x="18.0" y="176.0">Small</text>
            <text x="18.0" y="376.0">Medium</text>
            <text x="18.0" y="576.0">Large</text>
        </g>
        <g font-size="9">
            <text x="250.0" y="30.0">Ultralight</text>
            <text x="450.0" y="30.0">Regular</text>
            <text x="650.0" y="30.0">Black</text>
            <text id="template-version" fill="#505050" text-anchor="end" x="785.0" y="575.0">Template v.3.0</text>
            <a href="https://github.com/swhitty/SwiftDraw">
                <text fill="#505050" text-anchor="end" x="785.0" y="590.0">https://github.com/swhitty/SwiftDraw</text>
            </a>
        </g>
    </g>
    <g id="Guides" stroke="rgb(39, 170, 225)" stroke-width="0.5">
        <path id="Capline-S" d="M18,76 l800,0" />
        <path id="H-reference" d="M85,145.755 L87.685,145.755 L113.369,79.287 L114.052,79.287 L114.052,76 L112.148,76 L85,145.755 Z M95.693,121.536 L130.996,121.536 L130.263,119.313 L96.474,119.313 L95.693,121.536 Z M139.15,145.755 L141.787,145.755 L114.638,76 L113.466,76 L113.466,79.287 L139.15,145.755 Z" stroke="none" />
        <path id="Baseline-S" d="M18,146 l800,0" />
        <path id="left-margin-Ultralight-S" d="M221,56 l0,110" />
        <path id="right-margin-Ultralight-S" d="M309,56 l0,110" />
        <path id="left-margin-Regular-S" d="M421,56 l0,110" />
        <path id="right-margin-Regular-S" d="M509,56 l0,110" />
        <path id="left-margin-Black-S" d="M621,56 l0,110" />
        <path id="right-margin-Black-S" d="M709,56 l0,110" />
        <path id="Capline-M" d="M18,276 l800,0" />
        <path id="Baseline-M" d="M18,346 l800,0" />
        <path id="Capline-L" d="M18,476 l800,0" />
        <path id="Baseline-L" d="M18,546 l800,0" />
    </g>
    <g id="Symbols">
        <g id="Ultralight-S">
            <path d="M288.605,111 L288.605,140.302 C288.605,140.518 288.519,140.725 288.366,140.878 C288.214,141.031 288.007,141.116 287.791,141.116 L242.209,141.116 C241.993,141.116 241.786,141.031 241.634,140.878 C241.481,140.725 241.395,140.518 241.395,140.302 L241.395,81.698 C241.395,81.482 241.481,81.275 241.634,81.122 C241.786,80.969 241.993,80.884 242.209,80.884 L287.791,80.884 C288.007,80.884 288.214,80.969 288.366,81.122 C288.519,81.275 288.605,81.482 288.605,81.698 L288.605,111 Z M293.488,111 L293.488,81.698 C293.488,80.187 292.888,78.737 291.82,77.669 C290.751,76.6 289.302,76 287.791,76 L242.209,76 C240.698,76 239.249,76.6 238.18,77.669 C237.112,78.737 236.512,80.187 236.512,81.698 L236.512,140.302 C236.512,141.813 237.112,143.263 238.18,144.331 C239.249,145.4 240.698,146 242.209,146 L287.791,146 C289.302,146 290.751,145.4 291.82,144.331 C292.888,143.263 293.488,141.813 293.488,140.302 L293.488,111 Z" />
            <path d="M248.721,100.419 L281.279,100.419 C282.628,100.419 283.721,99.325 283.721,97.977 C283.721,96.628 282.628,95.535 281.279,95.535 L248.721,95.535 C247.372,95.535 246.279,96.628 246.279,97.977 C246.279,99.325 247.372,100.419 248.721,100.419 Z" />
            <path d="M248.721,113.442 L281.279,113.442 C282.628,113.442 283.721,112.349 283.721,111 C283.721,109.651 282.628,108.558 281.279,108.558 L248.721,108.558 C247.372,108.558 246.279,109.651 246.279,111 C246.279,112.349 247.372,113.442 248.721,113.442 Z" />
            <path d="M248.721,126.465 L281.279,126.465 C282.628,126.465 283.721,125.372 283.721,124.023 C283.721,122.675 282.628,121.581 281.279,121.581 L248.721,121.581 C247.372,121.581 246.279,122.675 246.279,124.023 C246.279,125.372 247.372,126.465 248.721,126.465 Z" />
            <path d="M252.791,91.465 L252.791,130.535 C252.791,131.883 253.884,132.977 255.233,132.977 C256.581,132.977 257.674,131.883 257.674,130.535 L257.674,91.465 C257.674,90.117 256.581,89.023 255.233,89.023 C253.884,89.023 252.791,90.117 252.791,91.465 Z" />
        </g>
        <g id="Regular-S">
            <path d="M488.605,111 L488.605,140.302 C488.605,140.518 488.519,140.725 488.366,140.878 C488.214,141.031 488.007,141.116 487.791,141.116 L442.209,141.116 C441.993,141.116 441.786,141.031 441.634,140.878 C441.481,140.725 441.395,140.518 441.395,140.302 L441.395,81.698 C441.395,81.482 441.481,81.275 441.634,81.122 C441.786,80.969 441.993,80.884 442.209,80.884 L487.791,80.884 C488.007,80.884 488.214,80.969 488.366,81.122 C488.519,81.275 488.605,81.482 488.605,81.698 L488.605,111 Z M493.488,111 L493.488,81.698 C493.488,80.187 492.888,78.737 491.82,77.669 C490.751,76.6 489.302,76 487.791,76 L442.209,76 C440.698,76 439.249,76.6 438.18,77.669 C437.112,78.737 436.512,80.187 436.512,81.698 L436.512,140.302 C436.512,141.813 437.112,143.263 438.18,144.331 C439.249,145.4 440.698,146 442.209,146 L487.791,146 C489.302,146 490.751,145.4 491.82,144.331 C492.888,143.263 493.488,141.813 493.488,140.302 L493.488,111 Z" />
            <path d="M448.721,100.419 L481.279,100.419 C482.628,100.419 483.721,99.325 483.721,97.977 C483.721,96.628 482.628,95.535 481.279,95.535 L448.721,95.535 C447.372,95.535 446.279,96.628 446.279,97.977 C446.279,99.325 447.372,100.419 448.721,100.419 Z" />
            <path d="M448.721,113.442 L481.279,113.442 C482.628,113.442 483.721,112.349 483.721,111 C483.721,109.651 482.628,108.558 481.279,108.558 L448.721,108.558 C447.372,108.558 446.279,109.651 446.279,111 C446.279,112.349 447.372,113.442 448.721,113.442 Z" />
            <path d="M448.721,126.465 L481.279,126.465 C482.628,126.465 483.721,125.372 483.721,124.023 C483.721,122.675 482.628,121.581 481.279,121.581 L448.721,121.581 C447.372,121.581 446.279,122.675 446.279,124.023 C446.279,125.372 447.372,126.465 448.721,126.465 Z" />
            <path d="M452.791,91.465 L452.791,130.535 C452.791,131.883 453.884,132.977 455.233,132.977 C456.581,132.977 457.674,131.883 457.674,130.535 L457.674,91.465 C457.674,90.117 456.581,89.023 455.233,89.023 C453.884,89.023 452.791,90.117 452.791,91.465 Z" />
        </g>
        <g id="Black-S">
            <path d="M688.605,111 L688.605,140.302 C688.605,140.518 688.519,140.725 688.366,140.878 C688.214,141.031 688.007,141.116 687.791,141.116 L642.209,141.116 C641.993,141.116 641.786,141.031 641.634,140.878 C641.481,140.725 641.395,140.518 641.395,140.302 L641.395,81.698 C641.395,81.482 641.481,81.275 641.634,81.122 C641.786,80.969 641.993,80.884 642.209,80.884 L687.791,80.884 C688.007,80.884 688.214,80.969 688.366,81.122 C688.519,81.275 688.605,81.482 688.605,81.698 L688.605,111 Z M693.488,111 L693.488,81.698 C693.488,80.187 692.888,78.737 691.82,77.669 C690.751,76.6 689.302,76 687.791,76 L642.209,76 C640.698,76 639.249,76.6 638.18,77.669 C637.112,78.737 636.512,80.187 636.512,81.698 L636.512,140.302 C636.512,141.813 637.112,143.263 638.18,144.331 C639.249,145.4 640.698,146 642.209,146 L687.791,146 C689.302,146 690.751,145.4 691.82,144.331 C692.888,143.263 693.488,141.813 693.488,140.302 L693.488,111 Z" />
            <path d="M648.721,100.419 L681.279,100.419 C682.628,100.419 683.721,99.325 683.721,97.977 C683.721,96.628 682.628,95.535 681.279,95.535 L648.721,95.535 C647.372,95.535 646.279,96.628 646.279,97.977 C646.279,99.325 647.372,100.419 648.721,100.419 Z" />
            <path d="M648.721,113.442 L681.279,113.442 C682.628,113.442 683.721,112.349 683.721,111 C683.721,109.651 682.628,108.558 681.279,108.558 L648.721,108.558 C647.372,108.558 646.279,109.651 646.279,111 C646.279,112.349 647.372,113.442 648.721,113.442 Z" />
            <path d="M648.721,126.465 L681.279,126.465 C682.628,126.465 683.721,125.372 683.721,124.023 C683.721,122.675 682.628,121.581 681.279,121.581 L648.721,121.581 C647.372,121.581 646.279,122.675 646.279,124.023 C646.279,125.372 647.372,126.465 648.721,126.465 Z" />
            <path d="M652.791,91.465 L652.791,130.535 C652.791,131.883 653.884,132.977 655.233,132.977 C656.581,132.977 657.674,131.883 657.674,130.535 L657.674,91.465 C657.674,90.117 656.581,89.023 655.233,89.023 C653.884,89.023 652.791,90.117 652.791,91.465 Z" />
        </g>
    </g>
</svg>