<?xml version="1.0" encoding="UTF-8"?>
<svg height="600" width="800" xmlns="http://www.w3.org/2000/svg" xmlns:xlink="http://www.w3.org/1999/xlink">
    <g id="Notes" font-family="'LucidaGrande', 'Lucida Grande', sans-serif" font-size="13">
        <rect fill="white" height="600.0" width="800.0" x="0.0" y="0.0" />
        <g font-size="13">
            <text x="18.0" y="176.0">Small</text>
            <text x="18.0" y="376.0">Medium</text>
            <text x="18.0" y="576.0">Large</text>
        </g>
        <g font-size="9">
            <text x="250.0" y="30.0">Ultralight</text>
            <text x="450.0" y="30.0">Regular</text>
            <text x="650.0" y="30.0">Black</text>
            <text id="template-version" fill="#505050" text-anchor="end" x="785.0" y="575.0">Template v.3.0</text>
            <a href="https://github.com/swhitty/SwiftDraw">
                <text fill="#505050" text-anchor="end" x="785.0" y="590.0">https://github.com/swhitty/SwiftDraw</text>
            </a>
        </g>
    </g>
    <g id="Guides" stroke="rgb(39, 170, 225)" stroke-width="0.5">
        <path id="Capline-S" d="M18,76 l800,0" />
        <path id="H-reference" d="M85,145.755 L87.685,145.755 L113.369,79.287 L114.052,79.287 L114.052,76 L112.148,76 L85,145.755 Z M95.693,121.536 L130.996,121.536 L130.263,119.313 L96.474,119.313 L95.693,121.536 Z M139.15,145.755 L141.787,145.755 L114.638,76 L113.466,76 L113.466,79.287 L139.15,145.755 Z" stroke="none" />
        <path id="Baseline-S" d="M18,146 l800,0" />
        <path id="left-margin-Ultralight-S" d="M220,56 l0,110" />
        <path id="right-margin-Ultralight-S" d="M310,56 l0,110" />
        <path id="left-margin-Regular-S" d="M420,56 l0,110" />
        <path id="right-margin-Regular-S" d="M510,56 l0,110" />
        <path id="left-margin-Black-S" d="M620,56 l0,110" />
        <path id="right-margin-Black-S" d="M710,56 l0,110" />
        <path id="Capline-M" d="M18,276 l800,0" />
        <path id="Baseline-M" d="M18,346 l800,0" />
        <path id="Capline-L" d="M18,476 l800,0" />
        <path id="Baseline-L" d="M18,546 l800,0" />
    </g>
    <g id="Symbols">
        <g id="Ultralight-S">
            <path d="M294.302,76 L235.698,76 C232.551,76 230,78.551 230,81.698 L230,140.302 C230,143.449 232.551,146 235.698,146 L294.302,146 C297.449,146 300,143.449 300,140.302 L300,81.698 C300,78.551 297.449,76 294.302,76 Z M294.302,80.884 C294.752,80.884 295.116,81.248 295.116,81.698 L295.116,140.302 C295.116,140.752 294.752,141.116 294.302,141.116 L235.698,141.116 C235.248,141.116 234.884,140.752 234.884,140.302 L234.884,81.698 C234.884,81.248 235.248,80.884 235.698,80.884 L294.302,80.884 Z" />
            <path d="M243.031,110.044 L288.612,93.765 C289.882,93.311 290.544,91.914 290.09,90.644 C289.637,89.374 288.239,88.712 286.969,89.166 L241.388,105.445 C240.118,105.898 239.456,107.295 239.91,108.565 C240.363,109.836 241.761,110.497 243.031,110.044 Z" />
            <path d="M243.031,121.439 L288.612,105.16 C289.882,104.706 290.544,103.309 290.09,102.039 C289.637,100.769 288.239,100.107 286.969,100.561 L241.388,116.84 C240.118,117.294 239.456,118.691 239.91,119.961 C240.363,121.231 241.761,121.893 243.031,121.439 Z" />
            <path d="M243.031,132.834 L288.612,116.555 C289.882,116.102 290.544,114.705 290.09,113.435 C289.637,112.164 288.239,111.503 286.969,111.956 L241.388,128.235 C240.118,128.689 239.456,130.086 239.91,131.356 C240.363,132.626 241.761,133.288 243.031,132.834 Z" />
            <path d="M254.263,102.003 L249.379,88.98 C248.906,87.717 247.498,87.077 246.236,87.551 C244.973,88.024 244.333,89.432 244.807,90.695 L249.69,103.718 C250.164,104.981 251.571,105.62 252.834,105.147 C254.097,104.673 254.737,103.266 254.263,102.003 Z" />
            <path d="M288.449,129.677 L283.565,116.654 C283.092,115.391 281.684,114.752 280.422,115.225 C279.159,115.699 278.519,117.106 278.993,118.369 L283.876,131.392 C284.35,132.655 285.757,133.295 287.02,132.821 C288.283,132.348 288.923,130.94 288.449,129.677 Z" />
        </g>
        <g id="Regular-S">
            <path d="M494.302,76 L435.698,76 C432.551,76 430,78.551 430,81.698 L430,140.302 C430,143.449 432.551,146 435.698,146 L494.302,146 C497.449,146 500,143.449 500,140.302 L500,81.698 C500,78.551 497.449,76 494.302,76 Z M494.302,80.884 C494.752,80.884 495.116,81.248 495.116,81.698 L495.116,140.302 C495.116,140.752 494.752,141.116 494.302,141.116 L435.698,141.116 C435.248,141.116 434.884,140.752 434.884,140.302 L434.884,81.698 C434.884,81.248 435.248,80.884 435.698,80.884 L494.302,80.884 Z" />
            <path d="M443.031,110.044 L488.612,93.765 C489.882,93.311 490.544,91.914 490.09,90.644 C489.637,89.374 488.239,88.712 486.969,89.166 L441.388,105.445 C440.118,105.898 439.456,107.295 439.91,108.565 C440.363,109.836 441.761,110.497 443.031,110.044 Z" />
            <path d="M443.031,121.439 L488.612,105.16 C489.882,104.706 490.544,103.309 490.09,102.039 C489.637,100.769 488.239,100.107 486.969,100.561 L441.388,116.84 C440.118,117.294 439.456,118.691 439.91,119.961 C440.363,121.231 441.761,121.893 443.031,121.439 Z" />
            <path d="M443.031,132.834 L488.612,116.555 C489.882,116.102 490.544,114.705 490.09,113.435 C489.637,112.164 488.239,111.503 486.969,111.956 L441.388,128.235 C440.118,128.689 439.456,130.086 439.91,131.356 C440.363,132.626 441.761,133.288 443.031,132.834 Z" />
            <path d="M454.263,102.003 L449.379,88.98 C448.906,87.717 447.498,87.077 446.236,87.551 C444.973,88.024 444.333,89.432 444.807,90.695 L449.69,103.718 C450.164,104.981 451.571,105.62 452.834,105.147 C454.097,104.673 454.737,103.266 454.263,102.003 Z" />
            <path d="M488.449,129.677 L483.565,116.654 C483.092,115.391 481.684,114.752 480.422,115.225 C479.159,115.699 478.519,117.106 478.993,118.369 L483.876,131.392 C484.35,132.655 485.757,133.295 487.02,132.821 C488.283,132.348 488.923,130.94 488.449,129.677 Z" />
        </g>
        <g id="Black-S">
            <path d="M694.302,76 L635.698,76 C632.551,76 630,78.551 630,81.698 L630,140.302 C630,143.449 632.551,146 635.698,146 L694.302,146 C697.449,146 700,143.449 700,140.302 L700,81.698 C700,78.551 697.449,76 694.302,76 Z M694.302,80.884 C694.752,80.884 695.116,81.248 695.116,81.698 L695.116,140.302 C695.116,140.752 694.752,141.116 694.302,141.116 L635.698,141.116 C635.248,141.116 634.884,140.752 634.884,140.302 L634.884,81.698 C634.884,81.248 635.248,80.884 635.698,80.884 L694.302,80.884 Z" />
            <path d="M643.031,110.044 L688.612,93.765 C689.882,93.311 690.544,91.914 690.09,90.644 C689.637,89.374 688.239,88.712 686.969,89.166 L641.388,105.445 C640.118,105.898 639.456,107.295 639.91,108.565 C640.363,109.836 641.761,110.497 643.031,110.044 Z" />
            <path d="M643.031,121.439 L688.612,105.16 C689.882,104.706 690.544,103.309 690.09,102.039 C689.637,100.769 688.239,100.107 686.969,100.561 L641.388,116.84 C640.118,117.294 639.456,118.691 639.91,119.961 C640.363,121.231 641.761,121.893 643.031,121.439 Z" />
            <path d="M643.031,132.834 L688.612,116.555 C689.882,116.102 690.544,114.705 690.09,113.435 C689.637,112.164 688.239,111.503 686.969,111.956 L641.388,128.235 C640.118,128.689 639.456,130.086 639.91,131.356 C640.363,132.626 641.761,133.288 643.031,132.834 Z" />
            <path d="M654.263,102.003 L649.379,88.98 C648.906,87.717 647.498,87.077 646.236,87.551 C644.973,88.024 644.333,89.432 644.807,90.695 L649.69,103.718 C650.164,104.981 651.571,105.62 652.834,105.147 C654.097,104.673 654.737,103.266 654.263,102.003 Z" />
            <path d="M688.449,129.677 L683.565,116.654 C683.092,115.391 681.684,114.752 680.422,115.225 C679.159,115.699 678.519,117.106 678.993,118.369 L683.876,131.392 C684.35,132.655 685.757,133.295 687.02,132.821 C688.283,132.348 688.923,130.94 688.449,129.677 Z" />
        </g>
    </g>
</svg>