<?xml version="1.0" encoding="UTF-8"?>
<svg height="600" width="800" xmlns="http://www.w3.org/2000/svg" xmlns:xlink="http://www.w3.org/1999/xlink">
    <g id="Notes" font-family="'LucidaGrande', 'Lucida Grande', sans-serif" font-size="13">
        <rect fill="white" height="600.0" width="800.0" x="0.0" y="0.0" />
        <g font-size="13">
            <text x="18.0" y="176.0">Small</text>
            <text x="18.0" y="376.0">Medium</text>
            <text x="18.0" y="576.0">Large</text>
        </g>
        <g font-size="9">
            <text x="250.0" y="30.0">Ultralight</text>
            <text x="450.0" y="30.0">Regular</text>
            <text x="650.0" y="30.0">Black</text>
            <text id="template-version" fill="#505050" text-anchor="end" x="785.0" y="575.0">Template v.3.0</text>
            <a href="https://github.com/swhitty/SwiftDraw">
                <text fill="#505050" text-anchor="end" x="785.0" y="590.0">https://github.com/swhitty/SwiftDraw</text>
            </a>
        </g>
    </g>
    <g id="Guides" stroke="rgb(39, 170, 225)" stroke-width="0.5">
        <path id="Capline-S" d="M18,76 l800,0" />
        <path id="H-reference" d="M85,145.755 L87.685,145.755 L113.369,79.287 L114.052,79.287 L114.052,76 L112.148,76 L85,145.755 Z M95.693,121.536 L130.996,121.536 L130.263,119.313 L96.474,119.313 L95.693,121.536 Z M139.15,145.755 L141.787,145.755 L114.638,76 L113.466,76 L113.466,79.287 L139.15,145.755 Z" stroke="none" />
        <path id="Baseline-S" d="M18,146 l800,0" />
        <path id="left-margin-Ultralight-S" d="M217.375,56 l0,110" />
        <path id="right-margin-Ultralight-S" d="M312.625,56 l0,110" />
        <path id="left-margin-Regular-S" d="M417.375,56 l0,110" />
        <path id="right-margin-Regular-S" d="M512.625,56 l0,110" />
        <path id="left-margin-Black-S" d="M617.375,56 l0,110" />
        <path id="right-margin-Black-S" d="M712.625,56 l0,110" />
        <path id="Capline-M" d="M18,276 l800,0" />
        <path id="Baseline-M" d="M18,346 l800,0" />
        <path id="Capline-L" d="M18,476 l800,0" />
        <path id="Baseline-L" d="M18,546 l800,0" />
    </g>
    <g id="Symbols">
        <g id="Ultralight-S">
            <path d="M255.375,90.875 C255.375,85.559 259.684,81.25 265,81.25 C270.316,81.25 274.625,85.559 274.625,90.875 C274.625,96.191 270.316,100.5 265,100.5 C259.684,100.5 255.375,96.191 255.375,90.875 Z M250.125,90.875 C250.125,99.09 256.785,105.75 265,105.75 C273.215,105.75 279.875,99.09 279.875,90.875 C279.875,82.66 273.215,76 265,76 C256.785,76 250.125,82.66 250.125,90.875 Z" />
            <path d="M232.625,143.375 C232.625,129.434 245.488,118 261.5,118 C262.95,118 264.125,116.825 264.125,115.375 C264.125,113.925 262.95,112.75 261.5,112.75 C242.718,112.75 227.375,126.388 227.375,143.375 C227.375,144.825 228.55,146 230,146 C231.45,146 232.625,144.825 232.625,143.375 Z" />
            <path d="M276.375,131.125 C276.375,126.776 279.901,123.25 284.25,123.25 C288.599,123.25 292.125,126.776 292.125,131.125 C292.125,135.474 288.599,139 284.25,139 C279.901,139 276.375,135.474 276.375,131.125 Z M271.125,131.125 C271.125,138.374 277.001,144.25 284.25,144.25 C291.499,144.25 297.375,138.374 297.375,131.125 C297.375,123.876 291.499,118 284.25,118 C277.001,118 271.125,123.876 271.125,131.125 Z" />
            <path d="M291.425,140.225 L298.425,145.475 C299.585,146.345 301.23,146.11 302.1,144.95 C302.97,143.79 302.735,142.145 301.575,141.275 L294.575,136.025 C293.415,135.155 291.77,135.39 290.9,136.55 C290.03,137.71 290.265,139.355 291.425,140.225 Z" />
        </g>
        <g id="Regular-S">
            <path d="M455.375,90.875 C455.375,85.559 459.684,81.25 465,81.25 C470.316,81.25 474.625,85.559 474.625,90.875 C474.625,96.191 470.316,100.5 465,100.5 C459.684,100.5 455.375,96.191 455.375,90.875 Z M450.125,90.875 C450.125,99.09 456.785,105.75 465,105.75 C473.215,105.75 479.875,99.09 479.875,90.875 C479.875,82.66 473.215,76 465,76 C456.785,76 450.125,82.66 450.125,90.875 Z" />
            <path d="M432.625,143.375 C432.625,129.434 445.488,118 461.5,118 C462.95,118 464.125,116.825 464.125,115.375 C464.125,113.925 462.95,112.75 461.5,112.75 C442.718,112.75 427.375,126.388 427.375,143.375 C427.375,144.825 428.55,146 430,146 C431.45,146 432.625,144.825 432.625,143.375 Z" />
            <path d="M476.375,131.125 C476.375,126.776 479.901,123.25 484.25,123.25 C488.599,123.25 492.125,126.776 492.125,131.125 C492.125,135.474 488.599,139 484.25,139 C479.901,139 476.375,135.474 476.375,131.125 Z M471.125,131.125 C471.125,138.374 477.001,144.25 484.25,144.25 C491.499,144.25 497.375,138.374 497.375,131.125 C497.375,123.876 491.499,118 484.25,118 C477.001,118 471.125,123.876 471.125,131.125 Z" />
            <path d="M491.425,140.225 L498.425,145.475 C499.585,146.345 501.23,146.11 502.1,144.95 C502.97,143.79 502.735,142.145 501.575,141.275 L494.575,136.025 C493.415,135.155 491.77,135.39 490.9,136.55 C490.03,137.71 490.265,139.355 491.425,140.225 Z" />
        </g>
        <g id="Black-S">
            <path d="M655.375,90.875 C655.375,85.559 659.684,81.25 665,81.25 C670.316,81.25 674.625,85.559 674.625,90.875 C674.625,96.191 670.316,100.5 665,100.5 C659.684,100.5 655.375,96.191 655.375,90.875 Z M650.125,90.875 C650.125,99.09 656.785,105.75 665,105.75 C673.215,105.75 679.875,99.09 679.875,90.875 C679.875,82.66 673.215,76 665,76 C656.785,76 650.125,82.66 650.125,90.875 Z" />
            <path d="M632.625,143.375 C632.625,129.434 645.488,118 661.5,118 C662.95,118 664.125,116.825 664.125,115.375 C664.125,113.925 662.95,112.75 661.5,112.75 C642.718,112.75 627.375,126.388 627.375,143.375 C627.375,144.825 628.55,146 630,146 C631.45,146 632.625,144.825 632.625,143.375 Z" />
            <path d="M676.375,131.125 C676.375,126.776 679.901,123.25 684.25,123.25 C688.599,123.25 692.125,126.776 692.125,131.125 C692.125,135.474 688.599,139 684.25,139 C679.901,139 676.375,135.474 676.375,131.125 Z M671.125,131.125 C671.125,138.374 677.001,144.25 684.25,144.25 C691.499,144.25 697.375,138.374 697.375,131.125 C697.375,123.876 691.499,118 684.25,118 C677.001,118 671.125,123.876 671.125,131.125 Z" />
            <path d="M691.425,140.225 L698.425,145.475 C699.585,146.345 701.23,146.11 702.1,144.95 C702.97,143.79 702.735,142.145 701.575,141.275 L694.575,136.025 C693.415,135.155 691.77,135.39 690.9,136.55 C690.03,137.71 690.265,139.355 691.425,140.225 Z" />
        </g>
    </g>
</svg>