<?xml version="1.0" encoding="UTF-8"?>
<svg height="600" width="800" xmlns="http://www.w3.org/2000/svg" xmlns:xlink="http://www.w3.org/1999/xlink">
    <g id="Notes" font-family="'LucidaGrande', 'Lucida Grande', sans-serif" font-size="13">
        <rect fill="white" height="600.0" width="800.0" x="0.0" y="0.0" />
        <g font-size="13">
            <text x="18.0" y="176.0">Small</text>
            <text x="18.0" y="376.0">Medium</text>
            <text x="18.0" y="576.0">Large</text>
        </g>
        <g font-size="9">
            <text x="250.0" y="30.0">Ultralight</text>
            <text x="450.0" y="30.0">Regular</text>
            <text x="650.0" y="30.0">Black</text>
            <text id="template-version" fill="#505050" text-anchor="end" x="785.0" y="575.0">Template v.3.0</text>
            <a href="https://github.com/swhitty/SwiftDraw">
                <text fill="#505050" text-anchor="end" x="785.0" y="590.0">https://github.com/swhitty/SwiftDraw</text>
            </a>
        </g>
    </g>
    <g id="Guides" stroke="rgb(39, 170, 225)" stroke-width="0.5">
        <path id="Capline-S" d="M18,76 l800,0" />
        <path id="H-reference" d="M85,145.755 L87.685,145.755 L113.369,79.287 L114.052,79.287 L114.052,76 L112.148,76 L85,145.755 Z M95.693,121.536 L130.996,121.536 L130.263,119.313 L96.474,119.313 L95.693,121.536 Z M139.15,145.755 L141.787,145.755 L114.638,76 L113.466,76 L113.466,79.287 L139.15,145.755 Z" stroke="none" />
        <path id="Baseline-S" d="M18,146 l800,0" />
        <path id="left-margin-Ultralight-S" d="M221,56 l0,110" />
        <path id="right-margin-Ultralight-S" d="M309,56 l0,110" />
        <path id="left-margin-Regular-S" d="M421,56 l0,110" />
        <path id="right-margin-Regular-S" d="M509,56 l0,110" />
        <path id="left-margin-Black-S" d="M621,56 l0,110" />
        <path id="right-margin-Black-S" d="M709,56 l0,110" />
        <path id="Capline-M" d="M18,276 l800,0" />
        <path id="Baseline-M" d="M18,346 l800,0" />
        <path id="Capline-L" d="M18,476 l800,0" />
        <path id="Baseline-L" d="M18,546 l800,0" />
    </g>
    <g id="Symbols">
        <g id="Ultralight-S">
            <path d="M233.822,83.261 L250.101,102.796 C250.964,103.832 252.504,103.972 253.54,103.109 C254.576,102.245 254.716,100.706 253.853,99.67 L237.574,80.135 C236.71,79.099 235.171,78.959 234.135,79.822 C233.099,80.686 232.959,82.225 233.822,83.261 Z" />
            <path d="M292.426,80.135 L276.147,99.67 C275.284,100.706 275.424,102.245 276.46,103.109 C277.496,103.972 279.036,103.832 279.899,102.796 L296.178,83.261 C297.041,82.225 296.901,80.686 295.865,79.822 C294.829,78.959 293.29,79.099 292.426,80.135 Z" />
            <path d="M274.141,77.503 L266.002,97.038 C265.483,98.283 266.072,99.713 267.317,100.231 C268.561,100.75 269.991,100.161 270.51,98.916 L278.649,79.382 C279.168,78.137 278.579,76.707 277.334,76.188 C276.09,75.67 274.66,76.258 274.141,77.503 Z" />
            <path d="M251.351,79.382 L259.49,98.916 C260.009,100.161 261.439,100.75 262.683,100.231 C263.928,99.713 264.517,98.283 263.998,97.038 L255.859,77.503 C255.34,76.258 253.91,75.67 252.666,76.188 C251.421,76.707 250.832,78.137 251.351,79.382 Z" />
            <path d="M244.651,120.768 C244.651,109.529 253.762,100.419 265,100.419 C276.238,100.419 285.349,109.529 285.349,120.768 C285.349,132.006 276.238,141.116 265,141.116 C253.762,141.116 244.651,132.006 244.651,120.768 Z M239.768,120.768 C239.768,134.703 251.065,146 265,146 C278.935,146 290.232,134.703 290.232,120.768 C290.232,106.832 278.935,95.535 265,95.535 C251.065,95.535 239.768,106.832 239.768,120.768 Z" />
            <path d="M256.047,120.768 C256.047,115.823 260.055,111.814 265,111.814 C269.945,111.814 273.953,115.823 273.953,120.768 C273.953,125.713 269.945,129.721 265,129.721 C260.055,129.721 256.047,125.713 256.047,120.768 Z M251.163,120.768 C251.163,128.41 257.358,134.605 265,134.605 C272.642,134.605 278.837,128.41 278.837,120.768 C278.837,113.126 272.642,106.931 265,106.931 C257.358,106.931 251.163,113.126 251.163,120.768 Z" />
        </g>
        <g id="Regular-S">
            <path d="M433.822,83.261 L450.101,102.796 C450.964,103.832 452.504,103.972 453.54,103.109 C454.576,102.245 454.716,100.706 453.853,99.67 L437.574,80.135 C436.71,79.099 435.171,78.959 434.135,79.822 C433.099,80.686 432.959,82.225 433.822,83.261 Z" />
            <path d="M492.426,80.135 L476.147,99.67 C475.284,100.706 475.424,102.245 476.46,103.109 C477.496,103.972 479.036,103.832 479.899,102.796 L496.178,83.261 C497.041,82.225 496.901,80.686 495.865,79.822 C494.829,78.959 493.29,79.099 492.426,80.135 Z" />
            <path d="M474.141,77.503 L466.002,97.038 C465.483,98.283 466.072,99.713 467.317,100.231 C468.561,100.75 469.991,100.161 470.51,98.916 L478.649,79.382 C479.168,78.137 478.579,76.707 477.334,76.188 C476.09,75.67 474.66,76.258 474.141,77.503 Z" />
            <path d="M451.351,79.382 L459.49,98.916 C460.009,100.161 461.439,100.75 462.683,100.231 C463.928,99.713 464.517,98.283 463.998,97.038 L455.859,77.503 C455.34,76.258 453.91,75.67 452.666,76.188 C451.421,76.707 450.832,78.137 451.351,79.382 Z" />
            <path d="M444.651,120.768 C444.651,109.529 453.762,100.419 465,100.419 C476.238,100.419 485.349,109.529 485.349,120.768 C485.349,132.006 476.238,141.116 465,141.116 C453.762,141.116 444.651,132.006 444.651,120.768 Z M439.768,120.768 C439.768,134.703 451.065,146 465,146 C478.935,146 490.232,134.703 490.232,120.768 C490.232,106.832 478.935,95.535 465,95.535 C451.065,95.535 439.768,106.832 439.768,120.768 Z" />
            <path d="M456.047,120.768 C456.047,115.823 460.055,111.814 465,111.814 C469.945,111.814 473.953,115.823 473.953,120.768 C473.953,125.713 469.945,129.721 465,129.721 C460.055,129.721 456.047,125.713 456.047,120.768 Z M451.163,120.768 C451.163,128.41 457.358,134.605 465,134.605 C472.642,134.605 478.837,128.41 478.837,120.768 C478.837,113.126 472.642,106.931 465,106.931 C457.358,106.931 451.163,113.126 451.163,120.768 Z" />
        </g>
        <g id="Black-S">
            <path d="M633.822,83.261 L650.101,102.796 C650.964,103.832 652.504,103.972 653.54,103.109 C654.576,102.245 654.716,100.706 653.853,99.67 L637.574,80.135 C636.711,79.099 635.171,78.959 634.135,79.822 C633.099,80.686 632.959,82.225 633.822,83.261 Z" />
            <path d="M692.426,80.135 L676.147,99.67 C675.284,100.706 675.424,102.245 676.46,103.109 C677.496,103.972 679.036,103.832 679.899,102.796 L696.178,83.261 C697.041,82.225 696.901,80.686 695.865,79.822 C694.829,78.959 693.29,79.099 692.426,80.135 Z" />
            <path d="M674.141,77.503 L666.002,97.038 C665.483,98.283 666.072,99.713 667.317,100.231 C668.561,100.75 669.991,100.161 670.51,98.916 L678.649,79.382 C679.168,78.137 678.579,76.707 677.334,76.188 C676.09,75.67 674.66,76.258 674.141,77.503 Z" />
            <path d="M651.351,79.382 L659.49,98.916 C660.009,100.161 661.439,100.75 662.683,100.231 C663.928,99.713 664.517,98.283 663.998,97.038 L655.859,77.503 C655.34,76.258 653.91,75.67 652.666,76.188 C651.421,76.707 650.832,78.137 651.351,79.382 Z" />
            <path d="M644.651,120.768 C644.651,109.529 653.762,100.419 665,100.419 C676.238,100.419 685.349,109.529 685.349,120.768 C685.349,132.006 676.238,141.116 665,141.116 C653.762,141.116 644.651,132.006 644.651,120.768 Z M639.768,120.768 C639.768,134.703 651.065,146 665,146 C678.935,146 690.232,134.703 690.232,120.768 C690.232,106.832 678.935,95.535 665,95.535 C651.065,95.535 639.768,106.832 639.768,120.768 Z" />
            <path d="M656.047,120.768 C656.047,115.823 660.055,111.814 665,111.814 C669.945,111.814 673.953,115.823 673.953,120.768 C673.953,125.713 669.945,129.721 665,129.721 C660.055,129.721 656.047,125.713 656.047,120.768 Z M651.163,120.768 C651.163,128.41 657.358,134.605 665,134.605 C672.642,134.605 678.837,128.41 678.837,120.768 C678.837,113.126 672.642,106.931 665,106.931 C657.358,106.931 651.163,113.126 651.163,120.768 Z" />
        </g>
    </g>
</svg>