<?xml version="1.0" encoding="UTF-8"?>
<svg height="600" width="800" xmlns="http://www.w3.org/2000/svg" xmlns:xlink="http://www.w3.org/1999/xlink">
    <g id="Notes" font-family="'LucidaGrande', 'Lucida Grande', sans-serif" font-size="13">
        <rect fill="white" height="600.0" width="800.0" x="0.0" y="0.0" />
        <g font-size="13">
            <text x="18.0" y="176.0">Small</text>
            <text x="18.0" y="376.0">Medium</text>
            <text x="18.0" y="576.0">Large</text>
        </g>
        <g font-size="9">
            <text x="250.0" y="30.0">Ultralight</text>
            <text x="450.0" y="30.0">Regular</text>
            <text x="650.0" y="30.0">Black</text>
            <text id="template-version" fill="#505050" text-anchor="end" x="785.0" y="575.0">Template v.3.0</text>
            <a href="https://github.com/swhitty/SwiftDraw">
                <text fill="#505050" text-anchor="end" x="785.0" y="590.0">https://github.com/swhitty/SwiftDraw</text>
            </a>
        </g>
    </g>
    <g id="Guides" stroke="rgb(39, 170, 225)" stroke-width="0.5">
        <path id="Capline-S" d="M18,76 l800,0" />
        <path id="H-reference" d="M85,145.755 L87.685,145.755 L113.369,79.287 L114.052,79.287 L114.052,76 L112.148,76 L85,145.755 Z M95.693,121.536 L130.996,121.536 L130.263,119.313 L96.474,119.313 L95.693,121.536 Z M139.15,145.755 L141.787,145.755 L114.638,76 L113.466,76 L113.466,79.287 L139.15,145.755 Z" stroke="none" />
        <path id="Baseline-S" d="M18,146 l800,0" />
        <path id="left-margin-Ultralight-S" d="M220,56 l0,110" />
        <path id="right-margin-Ultralight-S" d="M310,56 l0,110" />
        <path id="left-margin-Regular-S" d="M420,56 l0,110" />
        <path id="right-margin-Regular-S" d="M510,56 l0,110" />
        <path id="left-margin-Black-S" d="M620,56 l0,110" />
        <path id="right-margin-Black-S" d="M710,56 l0,110" />
        <path id="Capline-M" d="M18,276 l800,0" />
        <path id="Baseline-M" d="M18,346 l800,0" />
        <path id="Capline-L" d="M18,476 l800,0" />
        <path id="Baseline-L" d="M18,546 l800,0" />
    </g>
    <g id="Symbols">
        <g id="Ultralight-S">
            <path d="M292.462,76 L237.538,76 C233.375,76 230,79.375 230,83.538 L230,138.462 C230,142.625 233.375,146 237.538,146 L292.462,146 C296.625,146 300,142.625 300,138.462 L300,83.538 C300,79.375 296.625,76 292.462,76 Z M292.462,81.385 C293.651,81.385 294.615,82.349 294.615,83.538 L294.615,138.462 C294.615,139.651 293.651,140.615 292.462,140.615 L237.538,140.615 C236.349,140.615 235.385,139.651 235.385,138.462 L235.385,83.538 C235.385,82.349 236.349,81.385 237.538,81.385 L292.462,81.385 Z" />
            <path d="M262.308,78.692 L262.308,143.308 C262.308,144.795 263.513,146 265,146 C266.487,146 267.692,144.795 267.692,143.308 L267.692,78.692 C267.692,77.205 266.487,76 265,76 C263.513,76 262.308,77.205 262.308,78.692 Z" />
        </g>
        <g id="Regular-S">
            <path d="M492.462,76 L437.538,76 C433.375,76 430,79.375 430,83.538 L430,138.462 C430,142.625 433.375,146 437.538,146 L492.462,146 C496.625,146 500,142.625 500,138.462 L500,83.538 C500,79.375 496.625,76 492.462,76 Z M492.462,81.385 C493.651,81.385 494.615,82.349 494.615,83.538 L494.615,138.462 C494.615,139.651 493.651,140.615 492.462,140.615 L437.538,140.615 C436.349,140.615 435.385,139.651 435.385,138.462 L435.385,83.538 C435.385,82.349 436.349,81.385 437.538,81.385 L492.462,81.385 Z" />
            <path d="M462.308,78.692 L462.308,143.308 C462.308,144.795 463.513,146 465,146 C466.487,146 467.692,144.795 467.692,143.308 L467.692,78.692 C467.692,77.205 466.487,76 465,76 C463.513,76 462.308,77.205 462.308,78.692 Z" />
        </g>
        <g id="Black-S">
            <path d="M692.462,76 L637.538,76 C633.375,76 630,79.375 630,83.538 L630,138.462 C630,142.625 633.375,146 637.538,146 L692.462,146 C696.625,146 700,142.625 700,138.462 L700,83.538 C700,79.375 696.625,76 692.462,76 Z M692.462,81.385 C693.651,81.385 694.615,82.349 694.615,83.538 L694.615,138.462 C694.615,139.651 693.651,140.615 692.462,140.615 L637.538,140.615 C636.349,140.615 635.385,139.651 635.385,138.462 L635.385,83.538 C635.385,82.349 636.349,81.385 637.538,81.385 L692.462,81.385 Z" />
            <path d="M662.308,78.692 L662.308,143.308 C662.308,144.795 663.513,146 665,146 C666.487,146 667.692,144.795 667.692,143.308 L667.692,78.692 C667.692,77.205 666.487,76 665,76 C663.513,76 662.308,77.205 662.308,78.692 Z" />
        </g>
    </g>
</svg>