<?xml version="1.0" encoding="UTF-8"?>
<svg height="600" width="800" xmlns="http://www.w3.org/2000/svg" xmlns:xlink="http://www.w3.org/1999/xlink">
    <g id="Notes" font-family="'LucidaGrande', 'Lucida Grande', sans-serif" font-size="13">
        <rect fill="white" height="600.0" width="800.0" x="0.0" y="0.0" />
        <g font-size="13">
            <text x="18.0" y="176.0">Small</text>
            <text x="18.0" y="376.0">Medium</text>
            <text x="18.0" y="576.0">Large</text>
        </g>
        <g font-size="9">
            <text x="250.0" y="30.0">Ultralight</text>
            <text x="450.0" y="30.0">Regular</text>
            <text x="650.0" y="30.0">Black</text>
            <text id="template-version" fill="#505050" text-anchor="end" x="785.0" y="575.0">Template v.3.0</text>
            <a href="https://github.com/swhitty/SwiftDraw">
                <text fill="#505050" text-anchor="end" x="785.0" y="590.0">https://github.com/swhitty/SwiftDraw</text>
            </a>
        </g>
    </g>
    <g id="Guides" stroke="rgb(39, 170, 225)" stroke-width="0.5">
        <path id="Capline-S" d="M18,76 l800,0" />
        <path id="H-reference" d="M85,145.755 L87.685,145.755 L113.369,79.287 L114.052,79.287 L114.052,76 L112.148,76 L85,145.755 Z M95.693,121.536 L130.996,121.536 L130.263,119.313 L96.474,119.313 L95.693,121.536 Z M139.15,145.755 L141.787,145.755 L114.638,76 L113.466,76 L113.466,79.287 L139.15,145.755 Z" stroke="none" />
        <path id="Baseline-S" d="M18,146 l800,0" />
        <path id="left-margin-Ultralight-S" d="M220,56 l0,110" />
        <path id="right-margin-Ultralight-S" d="M310,56 l0,110" />
        <path id="left-margin-Regular-S" d="M420,56 l0,110" />
        <path id="right-margin-Regular-S" d="M510,56 l0,110" />
        <path id="left-margin-Black-S" d="M620,56 l0,110" />
        <path id="right-margin-Black-S" d="M710,56 l0,110" />
        <path id="Capline-M" d="M18,276 l800,0" />
        <path id="Baseline-M" d="M18,346 l800,0" />
        <path id="Capline-L" d="M18,476 l800,0" />
        <path id="Baseline-L" d="M18,546 l800,0" />
    </g>
    <g id="Symbols">
        <g id="Ultralight-S">
            <path d="M254.86,92.323 L266.811,80.372 L263.189,80.372 L275.14,92.323 L275.14,88.701 L263.189,100.653 L266.811,100.653 L254.86,88.701 L254.86,92.323 Z M251.238,88.701 C250.238,89.701 250.238,91.323 251.238,92.323 L263.189,104.274 C264.189,105.274 265.811,105.274 266.811,104.274 L278.762,92.323 C279.762,91.323 279.762,89.701 278.762,88.701 L266.811,76.75 C265.811,75.75 264.189,75.75 263.189,76.75 L251.238,88.701 Z" />
            <path d="M254.86,133.299 L266.811,121.347 L263.189,121.347 L275.14,133.299 L275.14,129.677 L263.189,141.628 L266.811,141.628 L254.86,129.677 L254.86,133.299 Z M251.238,129.677 C250.238,130.677 250.238,132.299 251.238,133.299 L263.189,145.25 C264.189,146.25 265.811,146.25 266.811,145.25 L278.762,133.299 C279.762,132.299 279.762,130.677 278.762,129.677 L266.811,117.726 C265.811,116.726 264.189,116.726 263.189,117.726 L251.238,129.677 Z" />
            <path d="M275.347,112.811 L287.299,100.86 L283.677,100.86 L295.628,112.811 L295.628,109.189 L283.677,121.14 L287.299,121.14 L275.347,109.189 L275.347,112.811 Z M271.726,109.189 C270.726,110.189 270.726,111.811 271.726,112.811 L283.677,124.762 C284.677,125.762 286.299,125.762 287.299,124.762 L299.25,112.811 C300.25,111.811 300.25,110.189 299.25,109.189 L287.299,97.238 C286.299,96.238 284.677,96.238 283.677,97.238 L271.726,109.189 Z" />
            <path d="M234.372,112.811 L246.323,100.86 L242.701,100.86 L254.653,112.811 L254.653,109.189 L242.701,121.14 L246.323,121.14 L234.372,109.189 L234.372,112.811 Z M230.75,109.189 C229.75,110.189 229.75,111.811 230.75,112.811 L242.701,124.762 C243.701,125.762 245.323,125.762 246.323,124.762 L258.274,112.811 C259.274,111.811 259.274,110.189 258.274,109.189 L246.323,97.238 C245.323,96.238 243.701,96.238 242.701,97.238 L230.75,109.189 Z" />
        </g>
        <g id="Regular-S">
            <path d="M454.86,92.323 L466.811,80.372 L463.189,80.372 L475.14,92.323 L475.14,88.701 L463.189,100.653 L466.811,100.653 L454.86,88.701 L454.86,92.323 Z M451.238,88.701 C450.238,89.701 450.238,91.323 451.238,92.323 L463.189,104.274 C464.189,105.274 465.811,105.274 466.811,104.274 L478.762,92.323 C479.762,91.323 479.762,89.701 478.762,88.701 L466.811,76.75 C465.811,75.75 464.189,75.75 463.189,76.75 L451.238,88.701 Z" />
            <path d="M454.86,133.299 L466.811,121.347 L463.189,121.347 L475.14,133.299 L475.14,129.677 L463.189,141.628 L466.811,141.628 L454.86,129.677 L454.86,133.299 Z M451.238,129.677 C450.238,130.677 450.238,132.299 451.238,133.299 L463.189,145.25 C464.189,146.25 465.811,146.25 466.811,145.25 L478.762,133.299 C479.762,132.299 479.762,130.677 478.762,129.677 L466.811,117.726 C465.811,116.726 464.189,116.726 463.189,117.726 L451.238,129.677 Z" />
            <path d="M475.347,112.811 L487.299,100.86 L483.677,100.86 L495.628,112.811 L495.628,109.189 L483.677,121.14 L487.299,121.14 L475.347,109.189 L475.347,112.811 Z M471.726,109.189 C470.726,110.189 470.726,111.811 471.726,112.811 L483.677,124.762 C484.677,125.762 486.299,125.762 487.299,124.762 L499.25,112.811 C500.25,111.811 500.25,110.189 499.25,109.189 L487.299,97.238 C486.299,96.238 484.677,96.238 483.677,97.238 L471.726,109.189 Z" />
            <path d="M434.372,112.811 L446.323,100.86 L442.701,100.86 L454.653,112.811 L454.653,109.189 L442.701,121.14 L446.323,121.14 L434.372,109.189 L434.372,112.811 Z M430.75,109.189 C429.75,110.189 429.75,111.811 430.75,112.811 L442.701,124.762 C443.701,125.762 445.323,125.762 446.323,124.762 L458.274,112.811 C459.274,111.811 459.274,110.189 458.274,109.189 L446.323,97.238 C445.323,96.238 443.701,96.238 442.701,97.238 L430.75,109.189 Z" />
        </g>
        <g id="Black-S">
            <path d="M654.86,92.323 L666.811,80.372 L663.189,80.372 L675.14,92.323 L675.14,88.701 L663.189,100.653 L666.811,100.653 L654.86,88.701 L654.86,92.323 Z M651.238,88.701 C650.238,89.701 650.238,91.323 651.238,92.323 L663.189,104.274 C664.189,105.274 665.811,105.274 666.811,104.274 L678.762,92.323 C679.762,91.323 679.762,89.701 678.762,88.701 L666.811,76.75 C665.811,75.75 664.189,75.75 663.189,76.75 L651.238,88.701 Z" />
            <path d="M654.86,133.299 L666.811,121.347 L663.189,121.347 L675.14,133.299 L675.14,129.677 L663.189,141.628 L666.811,141.628 L654.86,129.677 L654.86,133.299 Z M651.238,129.677 C650.238,130.677 650.238,132.299 651.238,133.299 L663.189,145.25 C664.189,146.25 665.811,146.25 666.811,145.25 L678.762,133.299 C679.762,132.299 679.762,130.677 678.762,129.677 L666.811,117.726 C665.811,116.726 664.189,116.726 663.189,117.726 L651.238,129.677 Z" />
            <path d="M675.347,112.811 L687.299,100.86 L683.677,100.86 L695.628,112.811 L695.628,109.189 L683.677,121.14 L687.299,121.14 L675.347,109.189 L675.347,112.811 Z M671.726,109.189 C670.726,110.189 670.726,111.811 671.726,112.811 L683.677,124.762 C684.677,125.762 686.299,125.762 687.299,124.762 L699.25,112.811 C700.25,111.811 700.25,110.189 699.25,109.189 L687.299,97.238 C686.299,96.238 684.677,96.238 683.677,97.238 L671.726,109.189 Z" />
            <path d="M634.372,112.811 L646.323,100.86 L642.701,100.86 L654.653,112.811 L654.653,109.189 L642.701,121.14 L646.323,121.14 L634.372,109.189 L634.372,112.811 Z M630.75,109.189 C629.75,110.189 629.75,111.811 630.75,112.811 L642.701,124.762 C643.701,125.762 645.323,125.762 646.323,124.762 L658.274,112.811 C659.274,111.811 659.274,110.189 658.274,109.189 L646.323,97.238 C645.323,96.238 643.701,96.238 642.701,97.238 L630.75,109.189 Z" />
        </g>
    </g>
</svg>