<?xml version="1.0" encoding="UTF-8"?>
<svg height="600" width="800" xmlns="http://www.w3.org/2000/svg" xmlns:xlink="http://www.w3.org/1999/xlink">
    <g id="Notes" font-family="'LucidaGrande', 'Lucida Grande', sans-serif" font-size="13">
        <rect fill="white" height="600.0" width="800.0" x="0.0" y="0.0" />
        <g font-size="13">
            <text x="18.0" y="176.0">Small</text>
            <text x="18.0" y="376.0">Medium</text>
            <text x="18.0" y="576.0">Large</text>
        </g>
        <g font-size="9">
            <text x="250.0" y="30.0">Ultralight</text>
            <text x="450.0" y="30.0">Regular</text>
            <text x="650.0" y="30.0">Black</text>
            <text id="template-version" fill="#505050" text-anchor="end" x="785.0" y="575.0">Template v.3.0</text>
            <a href="https://github.com/swhitty/SwiftDraw">
                <text fill="#505050" text-anchor="end" x="785.0" y="590.0">https://github.com/swhitty/SwiftDraw</text>
            </a>
        </g>
    </g>
    <g id="Guides" stroke="rgb(39, 170, 225)" stroke-width="0.5">
        <path id="Capline-S" d="M18,76 l800,0" />
        <path id="H-reference" d="M85,145.755 L87.685,145.755 L113.369,79.287 L114.052,79.287 L114.052,76 L112.148,76 L85,145.755 Z M95.693,121.536 L130.996,121.536 L130.263,119.313 L96.474,119.313 L95.693,121.536 Z M139.15,145.755 L141.787,145.755 L114.638,76 L113.466,76 L113.466,79.287 L139.15,145.755 Z" stroke="none" />
        <path id="Baseline-S" d="M18,146 l800,0" />
        <path id="left-margin-Ultralight-S" d="M220,56 l0,110" />
        <path id="right-margin-Ultralight-S" d="M310,56 l0,110" />
        <path id="left-margin-Regular-S" d="M420,56 l0,110" />
        <path id="right-margin-Regular-S" d="M510,56 l0,110" />
        <path id="left-margin-Black-S" d="M620,56 l0,110" />
        <path id="right-margin-Black-S" d="M710,56 l0,110" />
        <path id="Capline-M" d="M18,276 l800,0" />
        <path id="Baseline-M" d="M18,346 l800,0" />
        <path id="Capline-L" d="M18,476 l800,0" />
        <path id="Baseline-L" d="M18,546 l800,0" />
    </g>
    <g id="Symbols">
        <g id="Ultralight-S">
            <path d="M277.969,138.62 L233.69,138.62 L237.38,142.31 L237.38,98.031 C237.38,95.994 235.728,94.341 233.69,94.341 C231.652,94.341 230,95.994 230,98.031 L230,142.31 C230,144.348 231.652,146 233.69,146 L277.969,146 C280.007,146 281.659,144.348 281.659,142.31 C281.659,140.272 280.007,138.62 277.969,138.62 Z" />
            <path d="M236.299,144.919 L298.919,82.299 C300.36,80.858 300.36,78.522 298.919,77.081 C297.478,75.64 295.142,75.64 293.701,77.081 L231.081,139.7 C229.64,141.141 229.64,143.478 231.081,144.919 C232.522,146.36 234.858,146.36 236.299,144.919 Z" />
        </g>
        <g id="Regular-S">
            <path d="M477.969,138.62 L433.69,138.62 L437.38,142.31 L437.38,98.031 C437.38,95.994 435.728,94.341 433.69,94.341 C431.652,94.341 430,95.994 430,98.031 L430,142.31 C430,144.348 431.652,146 433.69,146 L477.969,146 C480.007,146 481.659,144.348 481.659,142.31 C481.659,140.272 480.007,138.62 477.969,138.62 Z" />
            <path d="M436.299,144.919 L498.919,82.299 C500.36,80.858 500.36,78.522 498.919,77.081 C497.478,75.64 495.142,75.64 493.701,77.081 L431.081,139.7 C429.64,141.141 429.64,143.478 431.081,144.919 C432.522,146.36 434.858,146.36 436.299,144.919 Z" />
        </g>
        <g id="Black-S">
            <path d="M677.969,138.62 L633.69,138.62 L637.38,142.31 L637.38,98.031 C637.38,95.994 635.728,94.341 633.69,94.341 C631.652,94.341 630,95.994 630,98.031 L630,142.31 C630,144.348 631.652,146 633.69,146 L677.969,146 C680.007,146 681.659,144.348 681.659,142.31 C681.659,140.272 680.007,138.62 677.969,138.62 Z" />
            <path d="M636.299,144.919 L698.919,82.299 C700.36,80.858 700.36,78.522 698.919,77.081 C697.478,75.64 695.142,75.64 693.701,77.081 L631.081,139.7 C629.64,141.141 629.64,143.478 631.081,144.919 C632.522,146.36 634.858,146.36 636.299,144.919 Z" />
        </g>
    </g>
</svg>