<?xml version="1.0" encoding="UTF-8"?>
<svg height="600" width="800" xmlns="http://www.w3.org/2000/svg" xmlns:xlink="http://www.w3.org/1999/xlink">
    <g id="Notes" font-family="'LucidaGrande', 'Lucida Grande', sans-serif" font-size="13">
        <rect fill="white" height="600.0" width="800.0" x="0.0" y="0.0" />
        <g font-size="13">
            <text x="18.0" y="176.0">Small</text>
            <text x="18.0" y="376.0">Medium</text>
            <text x="18.0" y="576.0">Large</text>
        </g>
        <g font-size="9">
            <text x="250.0" y="30.0">Ultralight</text>
            <text x="450.0" y="30.0">Regular</text>
            <text x="650.0" y="30.0">Black</text>
            <text id="template-version" fill="#505050" text-anchor="end" x="785.0" y="575.0">Template v.3.0</text>
            <a href="https://github.com/swhitty/SwiftDraw">
                <text fill="#505050" text-anchor="end" x="785.0" y="590.0">https://github.com/swhitty/SwiftDraw</text>
            </a>
        </g>
    </g>
    <g id="Guides" stroke="rgb(39, 170, 225)" stroke-width="0.5">
        <path id="Capline-S" d="M18,76 l800,0" />
        <path id="H-reference" d="M85,145.755 L87.685,145.755 L113.369,79.287 L114.052,79.287 L114.052,76 L112.148,76 L85,145.755 Z M95.693,121.536 L130.996,121.536 L130.263,119.313 L96.474,119.313 L95.693,121.536 Z M139.15,145.755 L141.787,145.755 L114.638,76 L113.466,76 L113.466,79.287 L139.15,145.755 Z" stroke="none" />
        <path id="Baseline-S" d="M18,146 l800,0" />
        <path id="left-margin-Ultralight-S" d="M221,56 l0,110" />
        <path id="right-margin-Ultralight-S" d="M309,56 l0,110" />
        <path id="left-margin-Regular-S" d="M421,56 l0,110" />
        <path id="right-margin-Regular-S" d="M509,56 l0,110" />
        <path id="left-margin-Black-S" d="M621,56 l0,110" />
        <path id="right-margin-Black-S" d="M709,56 l0,110" />
        <path id="Capline-M" d="M18,276 l800,0" />
        <path id="Baseline-M" d="M18,346 l800,0" />
        <path id="Capline-L" d="M18,476 l800,0" />
        <path id="Baseline-L" d="M18,546 l800,0" />
    </g>
    <g id="Symbols">
        <g id="Ultralight-S">
            <path d="M257.674,88.209 C257.674,84.163 260.954,80.884 265,80.884 C269.046,80.884 272.326,84.163 272.326,88.209 C272.326,92.255 269.046,95.535 265,95.535 C260.954,95.535 257.674,92.255 257.674,88.209 Z M252.791,88.209 C252.791,94.952 258.257,100.419 265,100.419 C271.743,100.419 277.209,94.952 277.209,88.209 C277.209,81.466 271.743,76 265,76 C258.257,76 252.791,81.466 252.791,88.209 Z" />
            <path d="M278.837,143.558 L278.837,128.907 L277.652,131.001 L285.791,126.117 C286.754,125.539 287.199,124.379 286.869,123.305 L280.357,102.142 C280.205,101.649 279.901,101.217 279.488,100.907 C278.566,100.215 277.023,99.223 275.045,98.235 C271.684,96.554 268.288,95.535 265,95.535 C261.712,95.535 258.316,96.554 254.954,98.235 C252.977,99.223 251.434,100.215 250.512,100.907 C250.114,101.205 249.817,101.617 249.66,102.088 L243.148,121.623 C242.825,122.594 243.141,123.663 243.94,124.302 L252.079,130.814 L251.163,128.907 L251.163,143.558 C251.163,144.907 252.256,146 253.605,146 C254.953,146 256.046,144.907 256.046,143.558 L256.046,128.907 C256.046,128.165 255.709,127.464 255.13,127 L246.99,120.489 L247.782,123.168 L254.293,103.633 L253.442,104.814 C253.6,104.695 253.934,104.461 254.416,104.151 C255.236,103.624 256.153,103.095 257.138,102.603 C259.881,101.231 262.59,100.419 265,100.419 C267.41,100.419 270.119,101.231 272.861,102.603 C273.847,103.095 274.764,103.624 275.584,104.151 C276.066,104.461 276.4,104.695 276.558,104.814 L275.689,103.579 L282.201,124.741 L283.279,121.929 L275.139,126.813 C274.403,127.254 273.953,128.049 273.953,128.907 L273.953,143.558 C273.953,144.907 275.047,146 276.395,146 C277.744,146 278.837,144.907 278.837,143.558 Z" />
        </g>
        <g id="Regular-S">
            <path d="M457.674,88.209 C457.674,84.163 460.954,80.884 465,80.884 C469.046,80.884 472.326,84.163 472.326,88.209 C472.326,92.255 469.046,95.535 465,95.535 C460.954,95.535 457.674,92.255 457.674,88.209 Z M452.791,88.209 C452.791,94.952 458.257,100.419 465,100.419 C471.743,100.419 477.209,94.952 477.209,88.209 C477.209,81.466 471.743,76 465,76 C458.257,76 452.791,81.466 452.791,88.209 Z" />
            <path d="M478.837,143.558 L478.837,128.907 L477.652,131.001 L485.791,126.117 C486.754,125.539 487.199,124.379 486.869,123.305 L480.357,102.142 C480.205,101.649 479.901,101.217 479.488,100.907 C478.566,100.215 477.023,99.223 475.045,98.235 C471.684,96.554 468.288,95.535 465,95.535 C461.712,95.535 458.316,96.554 454.954,98.235 C452.977,99.223 451.434,100.215 450.512,100.907 C450.114,101.205 449.817,101.617 449.66,102.088 L443.148,121.623 C442.825,122.594 443.141,123.663 443.94,124.302 L452.079,130.814 L451.163,128.907 L451.163,143.558 C451.163,144.907 452.256,146 453.605,146 C454.953,146 456.046,144.907 456.046,143.558 L456.046,128.907 C456.046,128.165 455.709,127.464 455.13,127 L446.99,120.489 L447.782,123.168 L454.293,103.633 L453.442,104.814 C453.6,104.695 453.934,104.461 454.416,104.151 C455.236,103.624 456.153,103.095 457.138,102.603 C459.881,101.231 462.59,100.419 465,100.419 C467.41,100.419 470.119,101.231 472.861,102.603 C473.847,103.095 474.764,103.624 475.584,104.151 C476.066,104.461 476.4,104.695 476.558,104.814 L475.689,103.579 L482.201,124.741 L483.279,121.929 L475.139,126.813 C474.403,127.254 473.953,128.049 473.953,128.907 L473.953,143.558 C473.953,144.907 475.047,146 476.395,146 C477.744,146 478.837,144.907 478.837,143.558 Z" />
        </g>
        <g id="Black-S">
            <path d="M657.674,88.209 C657.674,84.163 660.954,80.884 665,80.884 C669.046,80.884 672.326,84.163 672.326,88.209 C672.326,92.255 669.046,95.535 665,95.535 C660.954,95.535 657.674,92.255 657.674,88.209 Z M652.791,88.209 C652.791,94.952 658.257,100.419 665,100.419 C671.743,100.419 677.209,94.952 677.209,88.209 C677.209,81.466 671.743,76 665,76 C658.257,76 652.791,81.466 652.791,88.209 Z" />
            <path d="M678.837,143.558 L678.837,128.907 L677.652,131.001 L685.791,126.117 C686.754,125.539 687.199,124.379 686.869,123.305 L680.357,102.142 C680.205,101.649 679.901,101.217 679.488,100.907 C678.566,100.215 677.023,99.223 675.045,98.235 C671.684,96.554 668.288,95.535 665,95.535 C661.712,95.535 658.316,96.554 654.954,98.235 C652.977,99.223 651.434,100.215 650.512,100.907 C650.114,101.205 649.817,101.617 649.66,102.088 L643.148,121.623 C642.825,122.594 643.141,123.663 643.94,124.302 L652.079,130.814 L651.163,128.907 L651.163,143.558 C651.163,144.907 652.256,146 653.605,146 C654.953,146 656.046,144.907 656.046,143.558 L656.046,128.907 C656.046,128.165 655.709,127.464 655.13,127 L646.99,120.489 L647.782,123.168 L654.293,103.633 L653.442,104.814 C653.6,104.695 653.934,104.461 654.416,104.151 C655.236,103.624 656.153,103.095 657.138,102.603 C659.881,101.231 662.59,100.419 665,100.419 C667.41,100.419 670.119,101.231 672.861,102.603 C673.847,103.095 674.764,103.624 675.584,104.151 C676.066,104.461 676.4,104.695 676.558,104.814 L675.689,103.579 L682.201,124.741 L683.279,121.929 L675.139,126.813 C674.403,127.254 673.953,128.049 673.953,128.907 L673.953,143.558 C673.953,144.907 675.047,146 676.395,146 C677.744,146 678.837,144.907 678.837,143.558 Z" />
        </g>
    </g>
</svg>