<?xml version="1.0" encoding="UTF-8"?>
<svg height="600" width="800" xmlns="http://www.w3.org/2000/svg" xmlns:xlink="http://www.w3.org/1999/xlink">
    <g id="Notes" font-family="'LucidaGrande', 'Lucida Grande', sans-serif" font-size="13">
        <rect fill="white" height="600.0" width="800.0" x="0.0" y="0.0" />
        <g font-size="13">
            <text x="18.0" y="176.0">Small</text>
            <text x="18.0" y="376.0">Medium</text>
            <text x="18.0" y="576.0">Large</text>
        </g>
        <g font-size="9">
            <text x="250.0" y="30.0">Ultralight</text>
            <text x="450.0" y="30.0">Regular</text>
            <text x="650.0" y="30.0">Black</text>
            <text id="template-version" fill="#505050" text-anchor="end" x="785.0" y="575.0">Template v.3.0</text>
            <a href="https://github.com/swhitty/SwiftDraw">
                <text fill="#505050" text-anchor="end" x="785.0" y="590.0">https://github.com/swhitty/SwiftDraw</text>
            </a>
        </g>
    </g>
    <g id="Guides" stroke="rgb(39, 170, 225)" stroke-width="0.5">
        <path id="Capline-S" d="M18,76 l800,0" />
        <path id="H-reference" d="M85,145.755 L87.685,145.755 L113.369,79.287 L114.052,79.287 L114.052,76 L112.148,76 L85,145.755 Z M95.693,121.536 L130.996,121.536 L130.263,119.313 L96.474,119.313 L95.693,121.536 Z M139.15,145.755 L141.787,145.755 L114.638,76 L113.466,76 L113.466,79.287 L139.15,145.755 Z" stroke="none" />
        <path id="Baseline-S" d="M18,146 l800,0" />
        <path id="left-margin-Ultralight-S" d="M220,56 l0,110" />
        <path id="right-margin-Ultralight-S" d="M310,56 l0,110" />
        <path id="left-margin-Regular-S" d="M420,56 l0,110" />
        <path id="right-margin-Regular-S" d="M510,56 l0,110" />
        <path id="left-margin-Black-S" d="M620,56 l0,110" />
        <path id="right-margin-Black-S" d="M710,56 l0,110" />
        <path id="Capline-M" d="M18,276 l800,0" />
        <path id="Baseline-M" d="M18,346 l800,0" />
        <path id="Capline-L" d="M18,476 l800,0" />
        <path id="Baseline-L" d="M18,546 l800,0" />
    </g>
    <g id="Symbols">
        <g id="Ultralight-S">
            <path d="M265,141.116 C281.635,141.116 295.116,127.635 295.116,111 C295.116,94.365 281.635,80.884 265,80.884 C248.365,80.884 234.884,94.365 234.884,111 C234.884,127.635 248.365,141.116 265,141.116 Z M265,136.233 C251.063,136.233 239.767,124.937 239.767,111 C239.767,97.063 251.063,85.767 265,85.767 C278.937,85.767 290.233,97.063 290.233,111 C290.233,124.937 278.937,136.233 265,136.233 Z" />
            <path d="M265,126.465 C273.544,126.465 280.465,119.544 280.465,111 C280.465,102.456 273.544,95.535 265,95.535 C256.456,95.535 249.535,102.456 249.535,111 C249.535,119.544 256.456,126.465 265,126.465 Z M265,121.581 C259.153,121.581 254.419,116.847 254.419,111 C254.419,105.153 259.153,100.419 265,100.419 C270.847,100.419 275.581,105.153 275.581,111 C275.581,116.847 270.847,121.581 265,121.581 Z" />
            <path d="M232.442,113.442 L297.558,113.442 C298.907,113.442 300,112.349 300,111 C300,109.651 298.907,108.558 297.558,108.558 L232.442,108.558 C231.093,108.558 230,109.651 230,111 C230,112.349 231.093,113.442 232.442,113.442 Z" />
            <path d="M262.558,78.442 L262.558,143.558 C262.558,144.907 263.651,146 265,146 C266.349,146 267.442,144.907 267.442,143.558 L267.442,78.442 C267.442,77.093 266.349,76 265,76 C263.651,76 262.558,77.093 262.558,78.442 Z" />
        </g>
        <g id="Regular-S">
            <path d="M465,141.116 C481.635,141.116 495.116,127.635 495.116,111 C495.116,94.365 481.635,80.884 465,80.884 C448.365,80.884 434.884,94.365 434.884,111 C434.884,127.635 448.365,141.116 465,141.116 Z M465,136.233 C451.063,136.233 439.767,124.937 439.767,111 C439.767,97.063 451.063,85.767 465,85.767 C478.937,85.767 490.233,97.063 490.233,111 C490.233,124.937 478.937,136.233 465,136.233 Z" />
            <path d="M465,126.465 C473.544,126.465 480.465,119.544 480.465,111 C480.465,102.456 473.544,95.535 465,95.535 C456.456,95.535 449.535,102.456 449.535,111 C449.535,119.544 456.456,126.465 465,126.465 Z M465,121.581 C459.153,121.581 454.419,116.847 454.419,111 C454.419,105.153 459.153,100.419 465,100.419 C470.847,100.419 475.581,105.153 475.581,111 C475.581,116.847 470.847,121.581 465,121.581 Z" />
            <path d="M432.442,113.442 L497.558,113.442 C498.907,113.442 500,112.349 500,111 C500,109.651 498.907,108.558 497.558,108.558 L432.442,108.558 C431.093,108.558 430,109.651 430,111 C430,112.349 431.093,113.442 432.442,113.442 Z" />
            <path d="M462.558,78.442 L462.558,143.558 C462.558,144.907 463.651,146 465,146 C466.349,146 467.442,144.907 467.442,143.558 L467.442,78.442 C467.442,77.093 466.349,76 465,76 C463.651,76 462.558,77.093 462.558,78.442 Z" />
        </g>
        <g id="Black-S">
            <path d="M665,141.116 C681.635,141.116 695.116,127.635 695.116,111 C695.116,94.365 681.635,80.884 665,80.884 C648.365,80.884 634.884,94.365 634.884,111 C634.884,127.635 648.365,141.116 665,141.116 Z M665,136.233 C651.063,136.233 639.767,124.937 639.767,111 C639.767,97.063 651.063,85.767 665,85.767 C678.937,85.767 690.233,97.063 690.233,111 C690.233,124.937 678.937,136.233 665,136.233 Z" />
            <path d="M665,126.465 C673.544,126.465 680.465,119.544 680.465,111 C680.465,102.456 673.544,95.535 665,95.535 C656.456,95.535 649.535,102.456 649.535,111 C649.535,119.544 656.456,126.465 665,126.465 Z M665,121.581 C659.153,121.581 654.419,116.847 654.419,111 C654.419,105.153 659.153,100.419 665,100.419 C670.847,100.419 675.581,105.153 675.581,111 C675.581,116.847 670.847,121.581 665,121.581 Z" />
            <path d="M632.442,113.442 L697.558,113.442 C698.907,113.442 700,112.349 700,111 C700,109.651 698.907,108.558 697.558,108.558 L632.442,108.558 C631.093,108.558 630,109.651 630,111 C630,112.349 631.093,113.442 632.442,113.442 Z" />
            <path d="M662.558,78.442 L662.558,143.558 C662.558,144.907 663.651,146 665,146 C666.349,146 667.442,144.907 667.442,143.558 L667.442,78.442 C667.442,77.093 666.349,76 665,76 C663.651,76 662.558,77.093 662.558,78.442 Z" />
        </g>
    </g>
</svg>