<?xml version="1.0" encoding="UTF-8"?>
<svg height="600" width="800" xmlns="http://www.w3.org/2000/svg" xmlns:xlink="http://www.w3.org/1999/xlink">
    <g id="Notes" font-family="'LucidaGrande', 'Lucida Grande', sans-serif" font-size="13">
        <rect fill="white" height="600.0" width="800.0" x="0.0" y="0.0" />
        <g font-size="13">
            <text x="18.0" y="176.0">Small</text>
            <text x="18.0" y="376.0">Medium</text>
            <text x="18.0" y="576.0">Large</text>
        </g>
        <g font-size="9">
            <text x="250.0" y="30.0">Ultralight</text>
            <text x="450.0" y="30.0">Regular</text>
            <text x="650.0" y="30.0">Black</text>
            <text id="template-version" fill="#505050" text-anchor="end" x="785.0" y="575.0">Template v.3.0</text>
            <a href="https://github.com/swhitty/SwiftDraw">
                <text fill="#505050" text-anchor="end" x="785.0" y="590.0">https://github.com/swhitty/SwiftDraw</text>
            </a>
        </g>
    </g>
    <g id="Guides" stroke="rgb(39, 170, 225)" stroke-width="0.5">
        <path id="Capline-S" d="M18,76 l800,0" />
        <path id="H-reference" d="M85,145.755 L87.685,145.755 L113.369,79.287 L114.052,79.287 L114.052,76 L112.148,76 L85,145.755 Z M95.693,121.536 L130.996,121.536 L130.263,119.313 L96.474,119.313 L95.693,121.536 Z M139.15,145.755 L141.787,145.755 L114.638,76 L113.466,76 L113.466,79.287 L139.15,145.755 Z" stroke="none" />
        <path id="Baseline-S" d="M18,146 l800,0" />
        <path id="left-margin-Ultralight-S" d="M220,56 l0,110" />
        <path id="right-margin-Ultralight-S" d="M310,56 l0,110" />
        <path id="left-margin-Regular-S" d="M420,56 l0,110" />
        <path id="right-margin-Regular-S" d="M510,56 l0,110" />
        <path id="left-margin-Black-S" d="M620,56 l0,110" />
        <path id="right-margin-Black-S" d="M710,56 l0,110" />
        <path id="Capline-M" d="M18,276 l800,0" />
        <path id="Baseline-M" d="M18,346 l800,0" />
        <path id="Capline-L" d="M18,476 l800,0" />
        <path id="Baseline-L" d="M18,546 l800,0" />
    </g>
    <g id="Symbols">
        <g id="Ultralight-S">
            <path d="M265,146 C284.33,146 300,130.33 300,111 C300,91.67 284.33,76 265,76 C245.67,76 230,91.67 230,111 C230,130.33 245.67,146 265,146 Z M265,141.116 C248.367,141.116 234.884,127.633 234.884,111 C234.884,94.367 248.367,80.884 265,80.884 C281.633,80.884 295.116,94.367 295.116,111 C295.116,127.633 281.633,141.116 265,141.116 Z" />
            <path d="M257.674,111 C257.674,106.954 260.954,103.674 265,103.674 C269.046,103.674 272.326,106.954 272.326,111 C272.326,115.046 269.046,118.326 265,118.326 C260.954,118.326 257.674,115.046 257.674,111 Z M252.791,111 C252.791,117.743 258.257,123.209 265,123.209 C271.743,123.209 277.209,117.743 277.209,111 C277.209,104.257 271.743,98.791 265,98.791 C258.257,98.791 252.791,104.257 252.791,111 Z" />
            <path d="M274.767,113.442 L297.558,113.442 C298.907,113.442 300,112.349 300,111 C300,109.651 298.907,108.558 297.558,108.558 L274.767,108.558 C273.419,108.558 272.326,109.651 272.326,111 C272.326,112.349 273.419,113.442 274.767,113.442 Z" />
            <path d="M232.442,113.442 L255.233,113.442 C256.581,113.442 257.674,112.349 257.674,111 C257.674,109.651 256.581,108.558 255.233,108.558 L232.442,108.558 C231.093,108.558 230,109.651 230,111 C230,112.349 231.093,113.442 232.442,113.442 Z" />
            <path d="M261.744,111 C261.744,109.202 263.202,107.744 265,107.744 C266.798,107.744 268.256,109.202 268.256,111 C268.256,112.798 266.798,114.256 265,114.256 C263.202,114.256 261.744,112.798 261.744,111 Z" />
        </g>
        <g id="Regular-S">
            <path d="M465,146 C484.33,146 500,130.33 500,111 C500,91.67 484.33,76 465,76 C445.67,76 430,91.67 430,111 C430,130.33 445.67,146 465,146 Z M465,141.116 C448.367,141.116 434.884,127.633 434.884,111 C434.884,94.367 448.367,80.884 465,80.884 C481.633,80.884 495.116,94.367 495.116,111 C495.116,127.633 481.633,141.116 465,141.116 Z" />
            <path d="M457.674,111 C457.674,106.954 460.954,103.674 465,103.674 C469.046,103.674 472.326,106.954 472.326,111 C472.326,115.046 469.046,118.326 465,118.326 C460.954,118.326 457.674,115.046 457.674,111 Z M452.791,111 C452.791,117.743 458.257,123.209 465,123.209 C471.743,123.209 477.209,117.743 477.209,111 C477.209,104.257 471.743,98.791 465,98.791 C458.257,98.791 452.791,104.257 452.791,111 Z" />
            <path d="M474.767,113.442 L497.558,113.442 C498.907,113.442 500,112.349 500,111 C500,109.651 498.907,108.558 497.558,108.558 L474.767,108.558 C473.419,108.558 472.326,109.651 472.326,111 C472.326,112.349 473.419,113.442 474.767,113.442 Z" />
            <path d="M432.442,113.442 L455.233,113.442 C456.581,113.442 457.674,112.349 457.674,111 C457.674,109.651 456.581,108.558 455.233,108.558 L432.442,108.558 C431.093,108.558 430,109.651 430,111 C430,112.349 431.093,113.442 432.442,113.442 Z" />
            <path d="M461.744,111 C461.744,109.202 463.202,107.744 465,107.744 C466.798,107.744 468.256,109.202 468.256,111 C468.256,112.798 466.798,114.256 465,114.256 C463.202,114.256 461.744,112.798 461.744,111 Z" />
        </g>
        <g id="Black-S">
            <path d="M665,146 C684.33,146 700,130.33 700,111 C700,91.67 684.33,76 665,76 C645.67,76 630,91.67 630,111 C630,130.33 645.67,146 665,146 Z M665,141.116 C648.367,141.116 634.884,127.633 634.884,111 C634.884,94.367 648.367,80.884 665,80.884 C681.633,80.884 695.116,94.367 695.116,111 C695.116,127.633 681.633,141.116 665,141.116 Z" />
            <path d="M657.674,111 C657.674,106.954 660.954,103.674 665,103.674 C669.046,103.674 672.326,106.954 672.326,111 C672.326,115.046 669.046,118.326 665,118.326 C660.954,118.326 657.674,115.046 657.674,111 Z M652.791,111 C652.791,117.743 658.257,123.209 665,123.209 C671.743,123.209 677.209,117.743 677.209,111 C677.209,104.257 671.743,98.791 665,98.791 C658.257,98.791 652.791,104.257 652.791,111 Z" />
            <path d="M674.767,113.442 L697.558,113.442 C698.907,113.442 700,112.349 700,111 C700,109.651 698.907,108.558 697.558,108.558 L674.767,108.558 C673.419,108.558 672.326,109.651 672.326,111 C672.326,112.349 673.419,113.442 674.767,113.442 Z" />
            <path d="M632.442,113.442 L655.233,113.442 C656.581,113.442 657.674,112.349 657.674,111 C657.674,109.651 656.581,108.558 655.233,108.558 L632.442,108.558 C631.093,108.558 630,109.651 630,111 C630,112.349 631.093,113.442 632.442,113.442 Z" />
            <path d="M661.744,111 C661.744,109.202 663.202,107.744 665,107.744 C666.798,107.744 668.256,109.202 668.256,111 C668.256,112.798 666.798,114.256 665,114.256 C663.202,114.256 661.744,112.798 661.744,111 Z" />
        </g>
    </g>
</svg>