<?xml version="1.0" encoding="UTF-8"?>
<svg height="600" width="800" xmlns="http://www.w3.org/2000/svg" xmlns:xlink="http://www.w3.org/1999/xlink">
    <g id="Notes" font-family="'LucidaGrande', 'Lucida Grande', sans-serif" font-size="13">
        <rect fill="white" height="600.0" width="800.0" x="0.0" y="0.0" />
        <g font-size="13">
            <text x="18.0" y="176.0">Small</text>
            <text x="18.0" y="376.0">Medium</text>
            <text x="18.0" y="576.0">Large</text>
        </g>
        <g font-size="9">
            <text x="250.0" y="30.0">Ultralight</text>
            <text x="450.0" y="30.0">Regular</text>
            <text x="650.0" y="30.0">Black</text>
            <text id="template-version" fill="#505050" text-anchor="end" x="785.0" y="575.0">Template v.3.0</text>
            <a href="https://github.com/swhitty/SwiftDraw">
                <text fill="#505050" text-anchor="end" x="785.0" y="590.0">https://github.com/swhitty/SwiftDraw</text>
            </a>
        </g>
    </g>
    <g id="Guides" stroke="rgb(39, 170, 225)" stroke-width="0.5">
        <path id="Capline-S" d="M18,76 l800,0" />
        <path id="H-reference" d="M85,145.755 L87.685,145.755 L113.369,79.287 L114.052,79.287 L114.052,76 L112.148,76 L85,145.755 Z M95.693,121.536 L130.996,121.536 L130.263,119.313 L96.474,119.313 L95.693,121.536 Z M139.15,145.755 L141.787,145.755 L114.638,76 L113.466,76 L113.466,79.287 L139.15,145.755 Z" stroke="none" />
        <path id="Baseline-S" d="M18,146 l800,0" />
        <path id="left-margin-Ultralight-S" d="M220,56 l0,110" />
        <path id="right-margin-Ultralight-S" d="M310,56 l0,110" />
        <path id="left-margin-Regular-S" d="M420,56 l0,110" />
        <path id="right-margin-Regular-S" d="M510,56 l0,110" />
        <path id="left-margin-Black-S" d="M620,56 l0,110" />
        <path id="right-margin-Black-S" d="M710,56 l0,110" />
        <path id="Capline-M" d="M18,276 l800,0" />
        <path id="Baseline-M" d="M18,346 l800,0" />
        <path id="Capline-L" d="M18,476 l800,0" />
        <path id="Baseline-L" d="M18,546 l800,0" />
    </g>
    <g id="Symbols">
        <g id="Ultralight-S">
            <path d="M235.385,84.077 C235.385,82.59 236.59,81.385 238.077,81.385 L283.454,81.385 L281.616,80.66 L295.47,93.595 L294.615,91.627 L294.615,137.923 C294.615,139.41 293.41,140.615 291.923,140.615 L238.077,140.615 C236.59,140.615 235.385,139.41 235.385,137.923 L235.385,84.077 Z M230,84.077 L230,137.923 C230,142.384 233.616,146 238.077,146 L291.923,146 C296.384,146 300,142.384 300,137.923 L300,91.627 C300,90.881 299.69,90.168 299.145,89.659 L285.291,76.724 C284.793,76.259 284.136,76 283.454,76 L238.077,76 C233.616,76 230,79.616 230,84.077 Z" />
            <path d="M262.323,78.689 L262.308,91.944 C262.308,90.723 262.9,90.359 263.205,90.359 L248.846,90.359 C249.151,90.359 249.744,90.723 249.744,91.947 L249.744,78.692 L247.051,81.385 L265.015,81.385 L262.323,78.689 Z M267.707,78.695 C267.709,77.207 266.503,76 265.015,76 L247.051,76 C245.564,76 244.359,77.205 244.359,78.692 L244.359,91.947 C244.359,94.39 246.558,95.744 248.846,95.744 L263.205,95.744 C265.493,95.744 267.692,94.39 267.692,91.947 L267.707,78.695 Z" />
            <path d="M238.077,81.385 L283.454,81.385 C284.941,81.385 286.146,80.179 286.146,78.692 C286.146,77.205 284.941,76 283.454,76 L238.077,76 C236.59,76 235.385,77.205 235.385,78.692 C235.385,80.179 236.59,81.385 238.077,81.385 Z" />
            <path d="M247.051,117.282 L282.949,117.282 C284.436,117.282 285.641,116.077 285.641,114.59 C285.641,113.103 284.436,111.897 282.949,111.897 L247.051,111.897 C245.564,111.897 244.359,113.103 244.359,114.59 C244.359,116.077 245.564,117.282 247.051,117.282 Z" />
            <path d="M247.051,131.641 L265.015,131.641 C266.502,131.641 267.707,130.436 267.707,128.949 C267.707,127.462 266.502,126.256 265.015,126.256 L247.051,126.256 C245.564,126.256 244.359,127.462 244.359,128.949 C244.359,130.436 245.564,131.641 247.051,131.641 Z" />
        </g>
        <g id="Regular-S">
            <path d="M435.385,84.077 C435.385,82.59 436.59,81.385 438.077,81.385 L483.454,81.385 L481.616,80.66 L495.47,93.595 L494.615,91.627 L494.615,137.923 C494.615,139.41 493.41,140.615 491.923,140.615 L438.077,140.615 C436.59,140.615 435.385,139.41 435.385,137.923 L435.385,84.077 Z M430,84.077 L430,137.923 C430,142.384 433.616,146 438.077,146 L491.923,146 C496.384,146 500,142.384 500,137.923 L500,91.627 C500,90.881 499.69,90.168 499.145,89.659 L485.291,76.724 C484.793,76.259 484.136,76 483.454,76 L438.077,76 C433.616,76 430,79.616 430,84.077 Z" />
            <path d="M462.323,78.689 L462.308,91.944 C462.308,90.723 462.9,90.359 463.205,90.359 L448.846,90.359 C449.151,90.359 449.744,90.723 449.744,91.947 L449.744,78.692 L447.051,81.385 L465.015,81.385 L462.323,78.689 Z M467.707,78.695 C467.709,77.207 466.503,76 465.015,76 L447.051,76 C445.564,76 444.359,77.205 444.359,78.692 L444.359,91.947 C444.359,94.39 446.558,95.744 448.846,95.744 L463.205,95.744 C465.493,95.744 467.692,94.39 467.692,91.947 L467.707,78.695 Z" />
            <path d="M438.077,81.385 L483.454,81.385 C484.941,81.385 486.146,80.179 486.146,78.692 C486.146,77.205 484.941,76 483.454,76 L438.077,76 C436.59,76 435.385,77.205 435.385,78.692 C435.385,80.179 436.59,81.385 438.077,81.385 Z" />
            <path d="M447.051,117.282 L482.949,117.282 C484.436,117.282 485.641,116.077 485.641,114.59 C485.641,113.103 484.436,111.897 482.949,111.897 L447.051,111.897 C445.564,111.897 444.359,113.103 444.359,114.59 C444.359,116.077 445.564,117.282 447.051,117.282 Z" />
            <path d="M447.051,131.641 L465.015,131.641 C466.502,131.641 467.707,130.436 467.707,128.949 C467.707,127.462 466.502,126.256 465.015,126.256 L447.051,126.256 C445.564,126.256 444.359,127.462 444.359,128.949 C444.359,130.436 445.564,131.641 447.051,131.641 Z" />
        </g>
        <g id="Black-S">
            <path d="M635.385,84.077 C635.385,82.59 636.59,81.385 638.077,81.385 L683.454,81.385 L681.616,80.66 L695.47,93.595 L694.615,91.627 L694.615,137.923 C694.615,139.41 693.41,140.615 691.923,140.615 L638.077,140.615 C636.59,140.615 635.385,139.41 635.385,137.923 L635.385,84.077 Z M630,84.077 L630,137.923 C630,142.384 633.616,146 638.077,146 L691.923,146 C696.384,146 700,142.384 700,137.923 L700,91.627 C700,90.881 699.69,90.168 699.145,89.659 L685.291,76.724 C684.793,76.259 684.136,76 683.454,76 L638.077,76 C633.616,76 630,79.616 630,84.077 Z" />
            <path d="M662.323,78.689 L662.308,91.944 C662.308,90.723 662.9,90.359 663.205,90.359 L648.846,90.359 C649.151,90.359 649.744,90.723 649.744,91.947 L649.744,78.692 L647.051,81.385 L665.015,81.385 L662.323,78.689 Z M667.707,78.695 C667.709,77.207 666.503,76 665.015,76 L647.051,76 C645.564,76 644.359,77.205 644.359,78.692 L644.359,91.947 C644.359,94.39 646.558,95.744 648.846,95.744 L663.205,95.744 C665.493,95.744 667.692,94.39 667.692,91.947 L667.707,78.695 Z" />
            <path d="M638.077,81.385 L683.454,81.385 C684.941,81.385 686.146,80.179 686.146,78.692 C686.146,77.205 684.941,76 683.454,76 L638.077,76 C636.59,76 635.385,77.205 635.385,78.692 C635.385,80.179 636.59,81.385 638.077,81.385 Z" />
            <path d="M647.051,117.282 L682.949,117.282 C684.436,117.282 685.641,116.077 685.641,114.59 C685.641,113.103 684.436,111.897 682.949,111.897 L647.051,111.897 C645.564,111.897 644.359,113.103 644.359,114.59 C644.359,116.077 645.564,117.282 647.051,117.282 Z" />
            <path d="M647.051,131.641 L665.015,131.641 C666.502,131.641 667.707,130.436 667.707,128.949 C667.707,127.462 666.502,126.256 665.015,126.256 L647.051,126.256 C645.564,126.256 644.359,127.462 644.359,128.949 C644.359,130.436 645.564,131.641 647.051,131.641 Z" />
        </g>
    </g>
</svg>