<?xml version="1.0" encoding="UTF-8"?>
<svg height="600" width="800" xmlns="http://www.w3.org/2000/svg" xmlns:xlink="http://www.w3.org/1999/xlink">
    <g id="Notes" font-family="'LucidaGrande', 'Lucida Grande', sans-serif" font-size="13">
        <rect fill="white" height="600.0" width="800.0" x="0.0" y="0.0" />
        <g font-size="13">
            <text x="18.0" y="176.0">Small</text>
            <text x="18.0" y="376.0">Medium</text>
            <text x="18.0" y="576.0">Large</text>
        </g>
        <g font-size="9">
            <text x="250.0" y="30.0">Ultralight</text>
            <text x="450.0" y="30.0">Regular</text>
            <text x="650.0" y="30.0">Black</text>
            <text id="template-version" fill="#505050" text-anchor="end" x="785.0" y="575.0">Template v.3.0</text>
            <a href="https://github.com/swhitty/SwiftDraw">
                <text fill="#505050" text-anchor="end" x="785.0" y="590.0">https://github.com/swhitty/SwiftDraw</text>
            </a>
        </g>
    </g>
    <g id="Guides" stroke="rgb(39, 170, 225)" stroke-width="0.5">
        <path id="Capline-S" d="M18,76 l800,0" />
        <path id="H-reference" d="M85,145.755 L87.685,145.755 L113.369,79.287 L114.052,79.287 L114.052,76 L112.148,76 L85,145.755 Z M95.693,121.536 L130.996,121.536 L130.263,119.313 L96.474,119.313 L95.693,121.536 Z M139.15,145.755 L141.787,145.755 L114.638,76 L113.466,76 L113.466,79.287 L139.15,145.755 Z" stroke="none" />
        <path id="Baseline-S" d="M18,146 l800,0" />
        <path id="left-margin-Ultralight-S" d="M220,56 l0,110" />
        <path id="right-margin-Ultralight-S" d="M310,56 l0,110" />
        <path id="left-margin-Regular-S" d="M420,56 l0,110" />
        <path id="right-margin-Regular-S" d="M510,56 l0,110" />
        <path id="left-margin-Black-S" d="M620,56 l0,110" />
        <path id="right-margin-Black-S" d="M710,56 l0,110" />
        <path id="Capline-M" d="M18,276 l800,0" />
        <path id="Baseline-M" d="M18,346 l800,0" />
        <path id="Capline-L" d="M18,476 l800,0" />
        <path id="Baseline-L" d="M18,546 l800,0" />
    </g>
    <g id="Symbols">
        <g id="Ultralight-S">
            <path d="M232.442,146 L297.558,146 C298.907,146 300,144.907 300,143.558 C300,142.21 298.907,141.116 297.558,141.116 L232.442,141.116 C231.093,141.116 230,142.21 230,143.558 C230,144.907 231.093,146 232.442,146 Z" />
            <path d="M239.988,85.982 C240.294,85.838 240.922,85.569 241.84,85.216 C243.395,84.617 245.177,84.016 247.151,83.454 C252.797,81.848 258.834,80.884 265,80.884 C271.166,80.884 277.203,81.848 282.849,83.454 C284.823,84.016 286.605,84.617 288.16,85.216 C289.078,85.569 289.706,85.838 290.012,85.982 L288.605,83.77 L288.605,93.093 L291.047,90.651 L238.953,90.651 L241.395,93.093 L241.395,83.77 L239.988,85.982 Z M237.919,81.558 C237.06,81.959 236.512,82.821 236.512,83.77 L236.512,93.093 C236.512,94.442 237.605,95.535 238.953,95.535 L291.047,95.535 C292.395,95.535 293.488,94.442 293.488,93.093 L293.488,83.77 C293.488,82.821 292.94,81.959 292.081,81.558 C291.675,81.368 290.942,81.054 289.914,80.658 C288.226,80.008 286.307,79.361 284.186,78.757 C278.131,77.034 271.654,76 265,76 C258.346,76 251.869,77.034 245.814,78.757 C243.693,79.361 241.774,80.008 240.086,80.658 C239.058,81.054 238.325,81.368 237.919,81.558 Z" />
            <path d="M239.767,93.093 L239.767,133.791 C239.767,135.139 240.861,136.233 242.209,136.233 C243.558,136.233 244.651,135.139 244.651,133.791 L244.651,93.093 C244.651,91.744 243.558,90.651 242.209,90.651 C240.861,90.651 239.767,91.744 239.767,93.093 Z" />
            <path d="M251.163,93.093 L251.163,133.791 C251.163,135.139 252.256,136.233 253.605,136.233 C254.953,136.233 256.047,135.139 256.047,133.791 L256.047,93.093 C256.047,91.744 254.953,90.651 253.605,90.651 C252.256,90.651 251.163,91.744 251.163,93.093 Z" />
            <path d="M262.558,93.093 L262.558,133.791 C262.558,135.139 263.651,136.233 265,136.233 C266.349,136.233 267.442,135.139 267.442,133.791 L267.442,93.093 C267.442,91.744 266.349,90.651 265,90.651 C263.651,90.651 262.558,91.744 262.558,93.093 Z" />
            <path d="M273.953,93.093 L273.953,133.791 C273.953,135.139 275.047,136.233 276.395,136.233 C277.744,136.233 278.837,135.139 278.837,133.791 L278.837,93.093 C278.837,91.744 277.744,90.651 276.395,90.651 C275.047,90.651 273.953,91.744 273.953,93.093 Z" />
            <path d="M285.349,93.093 L285.349,133.791 C285.349,135.139 286.442,136.233 287.791,136.233 C289.139,136.233 290.233,135.139 290.233,133.791 L290.233,93.093 C290.233,91.744 289.139,90.651 287.791,90.651 C286.442,90.651 285.349,91.744 285.349,93.093 Z" />
            <path d="M290.233,133.791 L290.233,143.558 L292.674,141.116 L237.326,141.116 L239.767,143.558 L239.767,133.791 L237.326,136.233 L292.674,136.233 L290.233,133.791 Z M295.116,133.791 C295.116,132.442 294.023,131.349 292.674,131.349 L237.326,131.349 C235.977,131.349 234.884,132.442 234.884,133.791 L234.884,143.558 C234.884,144.907 235.977,146 237.326,146 L292.674,146 C294.023,146 295.116,144.907 295.116,143.558 L295.116,133.791 Z" />
        </g>
        <g id="Regular-S">
            <path d="M432.442,146 L497.558,146 C498.907,146 500,144.907 500,143.558 C500,142.21 498.907,141.116 497.558,141.116 L432.442,141.116 C431.093,141.116 430,142.21 430,143.558 C430,144.907 431.093,146 432.442,146 Z" />
            <path d="M439.988,85.982 C440.294,85.838 440.922,85.569 441.84,85.216 C443.395,84.617 445.177,84.016 447.151,83.454 C452.797,81.848 458.834,80.884 465,80.884 C471.166,80.884 477.203,81.848 482.849,83.454 C484.823,84.016 486.605,84.617 488.16,85.216 C489.078,85.569 489.706,85.838 490.012,85.982 L488.605,83.77 L488.605,93.093 L491.047,90.651 L438.953,90.651 L441.395,93.093 L441.395,83.77 L439.988,85.982 Z M437.919,81.558 C437.06,81.959 436.512,82.821 436.512,83.77 L436.512,93.093 C436.512,94.442 437.605,95.535 438.953,95.535 L491.047,95.535 C492.395,95.535 493.488,94.442 493.488,93.093 L493.488,83.77 C493.488,82.821 492.94,81.959 492.081,81.558 C491.675,81.368 490.942,81.054 489.914,80.658 C488.226,80.008 486.307,79.361 484.186,78.757 C478.131,77.034 471.654,76 465,76 C458.346,76 451.869,77.034 445.814,78.757 C443.693,79.361 441.774,80.008 440.086,80.658 C439.058,81.054 438.325,81.368 437.919,81.558 Z" />
            <path d="M439.767,93.093 L439.767,133.791 C439.767,135.139 440.861,136.233 442.209,136.233 C443.558,136.233 444.651,135.139 444.651,133.791 L444.651,93.093 C444.651,91.744 443.558,90.651 442.209,90.651 C440.861,90.651 439.767,91.744 439.767,93.093 Z" />
            <path d="M451.163,93.093 L451.163,133.791 C451.163,135.139 452.256,136.233 453.605,136.233 C454.953,136.233 456.047,135.139 456.047,133.791 L456.047,93.093 C456.047,91.744 454.953,90.651 453.605,90.651 C452.256,90.651 451.163,91.744 451.163,93.093 Z" />
            <path d="M462.558,93.093 L462.558,133.791 C462.558,135.139 463.651,136.233 465,136.233 C466.349,136.233 467.442,135.139 467.442,133.791 L467.442,93.093 C467.442,91.744 466.349,90.651 465,90.651 C463.651,90.651 462.558,91.744 462.558,93.093 Z" />
            <path d="M473.953,93.093 L473.953,133.791 C473.953,135.139 475.047,136.233 476.395,136.233 C477.744,136.233 478.837,135.139 478.837,133.791 L478.837,93.093 C478.837,91.744 477.744,90.651 476.395,90.651 C475.047,90.651 473.953,91.744 473.953,93.093 Z" />
            <path d="M485.349,93.093 L485.349,133.791 C485.349,135.139 486.442,136.233 487.791,136.233 C489.139,136.233 490.233,135.139 490.233,133.791 L490.233,93.093 C490.233,91.744 489.139,90.651 487.791,90.651 C486.442,90.651 485.349,91.744 485.349,93.093 Z" />
            <path d="M490.233,133.791 L490.233,143.558 L492.674,141.116 L437.326,141.116 L439.767,143.558 L439.767,133.791 L437.326,136.233 L492.674,136.233 L490.233,133.791 Z M495.116,133.791 C495.116,132.442 494.023,131.349 492.674,131.349 L437.326,131.349 C435.977,131.349 434.884,132.442 434.884,133.791 L434.884,143.558 C434.884,144.907 435.977,146 437.326,146 L492.674,146 C494.023,146 495.116,144.907 495.116,143.558 L495.116,133.791 Z" />
        </g>
        <g id="Black-S">
            <path d="M632.442,146 L697.558,146 C698.907,146 700,144.907 700,143.558 C700,142.21 698.907,141.116 697.558,141.116 L632.442,141.116 C631.093,141.116 630,142.21 630,143.558 C630,144.907 631.093,146 632.442,146 Z" />
            <path d="M639.988,85.982 C640.294,85.838 640.922,85.569 641.84,85.216 C643.395,84.617 645.177,84.016 647.151,83.454 C652.797,81.848 658.834,80.884 665,80.884 C671.166,80.884 677.203,81.848 682.849,83.454 C684.823,84.016 686.605,84.617 688.16,85.216 C689.078,85.569 689.706,85.838 690.012,85.982 L688.605,83.77 L688.605,93.093 L691.047,90.651 L638.953,90.651 L641.395,93.093 L641.395,83.77 L639.988,85.982 Z M637.919,81.558 C637.06,81.959 636.512,82.821 636.512,83.77 L636.512,93.093 C636.512,94.442 637.605,95.535 638.953,95.535 L691.047,95.535 C692.395,95.535 693.488,94.442 693.488,93.093 L693.488,83.77 C693.488,82.821 692.94,81.959 692.081,81.558 C691.675,81.368 690.942,81.054 689.914,80.658 C688.226,80.008 686.307,79.361 684.186,78.757 C678.131,77.034 671.654,76 665,76 C658.346,76 651.869,77.034 645.814,78.757 C643.693,79.361 641.774,80.008 640.086,80.658 C639.058,81.054 638.325,81.368 637.919,81.558 Z" />
            <path d="M639.767,93.093 L639.767,133.791 C639.767,135.139 640.861,136.233 642.209,136.233 C643.558,136.233 644.651,135.139 644.651,133.791 L644.651,93.093 C644.651,91.744 643.558,90.651 642.209,90.651 C640.861,90.651 639.767,91.744 639.767,93.093 Z" />
            <path d="M651.163,93.093 L651.163,133.791 C651.163,135.139 652.256,136.233 653.605,136.233 C654.953,136.233 656.047,135.139 656.047,133.791 L656.047,93.093 C656.047,91.744 654.953,90.651 653.605,90.651 C652.256,90.651 651.163,91.744 651.163,93.093 Z" />
            <path d="M662.558,93.093 L662.558,133.791 C662.558,135.139 663.651,136.233 665,136.233 C666.349,136.233 667.442,135.139 667.442,133.791 L667.442,93.093 C667.442,91.744 666.349,90.651 665,90.651 C663.651,90.651 662.558,91.744 662.558,93.093 Z" />
            <path d="M673.953,93.093 L673.953,133.791 C673.953,135.139 675.047,136.233 676.395,136.233 C677.744,136.233 678.837,135.139 678.837,133.791 L678.837,93.093 C678.837,91.744 677.744,90.651 676.395,90.651 C675.047,90.651 673.953,91.744 673.953,93.093 Z" />
            <path d="M685.349,93.093 L685.349,133.791 C685.349,135.139 686.442,136.233 687.791,136.233 C689.139,136.233 690.233,135.139 690.233,133.791 L690.233,93.093 C690.233,91.744 689.139,90.651 687.791,90.651 C686.442,90.651 685.349,91.744 685.349,93.093 Z" />
            <path d="M690.233,133.791 L690.233,143.558 L692.674,141.116 L637.326,141.116 L639.767,143.558 L639.767,133.791 L637.326,136.233 L692.674,136.233 L690.233,133.791 Z M695.116,133.791 C695.116,132.442 694.023,131.349 692.674,131.349 L637.326,131.349 C635.977,131.349 634.884,132.442 634.884,133.791 L634.884,143.558 C634.884,144.907 635.977,146 637.326,146 L692.674,146 C694.023,146 695.116,144.907 695.116,143.558 L695.116,133.791 Z" />
        </g>
    </g>
</svg>