<?xml version="1.0" encoding="UTF-8"?>
<svg height="600" width="800" xmlns="http://www.w3.org/2000/svg" xmlns:xlink="http://www.w3.org/1999/xlink">
    <g id="Notes" font-family="'LucidaGrande', 'Lucida Grande', sans-serif" font-size="13">
        <rect fill="white" height="600.0" width="800.0" x="0.0" y="0.0" />
        <g font-size="13">
            <text x="18.0" y="176.0">Small</text>
            <text x="18.0" y="376.0">Medium</text>
            <text x="18.0" y="576.0">Large</text>
        </g>
        <g font-size="9">
            <text x="250.0" y="30.0">Ultralight</text>
            <text x="450.0" y="30.0">Regular</text>
            <text x="650.0" y="30.0">Black</text>
            <text id="template-version" fill="#505050" text-anchor="end" x="785.0" y="575.0">Template v.3.0</text>
            <a href="https://github.com/swhitty/SwiftDraw">
                <text fill="#505050" text-anchor="end" x="785.0" y="590.0">https://github.com/swhitty/SwiftDraw</text>
            </a>
        </g>
    </g>
    <g id="Guides" stroke="rgb(39, 170, 225)" stroke-width="0.5">
        <path id="Capline-S" d="M18,76 l800,0" />
        <path id="H-reference" d="M85,145.755 L87.685,145.755 L113.369,79.287 L114.052,79.287 L114.052,76 L112.148,76 L85,145.755 Z M95.693,121.536 L130.996,121.536 L130.263,119.313 L96.474,119.313 L95.693,121.536 Z M139.15,145.755 L141.787,145.755 L114.638,76 L113.466,76 L113.466,79.287 L139.15,145.755 Z" stroke="none" />
        <path id="Baseline-S" d="M18,146 l800,0" />
        <path id="left-margin-Ultralight-S" d="M221,56 l0,110" />
        <path id="right-margin-Ultralight-S" d="M309,56 l0,110" />
        <path id="left-margin-Regular-S" d="M421,56 l0,110" />
        <path id="right-margin-Regular-S" d="M509,56 l0,110" />
        <path id="left-margin-Black-S" d="M621,56 l0,110" />
        <path id="right-margin-Black-S" d="M709,56 l0,110" />
        <path id="Capline-M" d="M18,276 l800,0" />
        <path id="Baseline-M" d="M18,346 l800,0" />
        <path id="Capline-L" d="M18,476 l800,0" />
        <path id="Baseline-L" d="M18,546 l800,0" />
    </g>
    <g id="Symbols">
        <g id="Ultralight-S">
            <path d="M251.815,126.683 C258.548,133.416 273.053,128.581 284.693,116.941 C296.333,105.301 301.168,90.796 294.435,84.063 C293.426,83.054 291.79,83.054 290.782,84.063 C289.773,85.072 289.773,86.707 290.782,87.716 C294.809,91.743 290.921,103.407 281.04,113.288 C271.159,123.169 259.495,127.057 255.468,123.03 C254.459,122.021 252.824,122.021 251.815,123.03 C250.806,124.038 250.806,125.674 251.815,126.683 Z" />
            <path d="M267.644,84.062 L270.08,86.498 C271.088,87.507 272.724,87.507 273.733,86.498 C274.742,85.489 274.742,83.854 273.733,82.845 L271.297,80.409 C270.289,79.401 268.653,79.401 267.644,80.409 C266.635,81.418 266.635,83.054 267.644,84.062 Z" />
            <path d="M259.121,92.586 L261.557,95.022 C262.565,96.031 264.201,96.031 265.21,95.022 C266.219,94.013 266.219,92.377 265.21,91.369 L262.774,88.933 C261.766,87.924 260.13,87.924 259.121,88.933 C258.112,89.942 258.112,91.578 259.121,92.586 Z" />
            <path d="M251.814,102.329 L254.249,104.764 C255.258,105.773 256.894,105.773 257.903,104.764 C258.911,103.755 258.911,102.12 257.903,101.111 L255.467,98.676 C254.458,97.667 252.823,97.667 251.814,98.676 C250.805,99.684 250.805,101.32 251.814,102.329 Z" />
            <path d="M249.379,114.505 L251.814,116.941 C252.823,117.949 254.459,117.949 255.467,116.941 C256.476,115.932 256.476,114.296 255.467,113.288 L253.032,110.852 C252.023,109.843 250.388,109.843 249.379,110.852 C248.37,111.861 248.37,113.496 249.379,114.505 Z" />
            <path d="M281.039,80.41 L283.475,82.845 C284.483,83.854 286.119,83.854 287.128,82.845 C288.137,81.836 288.137,80.201 287.128,79.192 L284.692,76.757 C283.684,75.748 282.048,75.748 281.039,76.757 C280.03,77.765 280.03,79.401 281.039,80.41 Z" />
            <path d="M278.604,95.022 L283.475,99.893 C284.484,100.902 286.119,100.902 287.128,99.893 C288.137,98.884 288.137,97.249 287.128,96.24 L282.257,91.369 C281.248,90.361 279.613,90.361 278.604,91.369 C277.595,92.378 277.595,94.014 278.604,95.022 Z" />
            <path d="M270.081,103.546 L274.952,108.417 C275.961,109.426 277.596,109.426 278.605,108.417 C279.614,107.408 279.614,105.773 278.605,104.764 L273.734,99.893 C272.725,98.884 271.09,98.884 270.081,99.893 C269.072,100.902 269.072,102.538 270.081,103.546 Z" />
            <path d="M260.339,110.852 L265.21,115.723 C266.218,116.732 267.854,116.732 268.863,115.724 C269.871,114.715 269.871,113.079 268.863,112.07 L263.992,107.199 C262.983,106.191 261.348,106.191 260.339,107.199 C259.33,108.208 259.33,109.844 260.339,110.852 Z" />
            <path d="M246.944,135.206 L242.073,140.077 C241.588,140.562 240.931,140.834 240.246,140.834 C239.561,140.834 238.904,140.562 238.42,140.077 C237.935,139.593 237.663,138.936 237.663,138.251 C237.663,137.565 237.935,136.908 238.42,136.424 L248.161,126.682 C248.646,126.198 249.303,125.926 249.988,125.926 C250.673,125.926 251.33,126.198 251.814,126.682 C252.299,127.167 252.571,127.824 252.571,128.509 C252.571,129.194 252.299,129.851 251.814,130.335 L246.944,135.206 Z M250.597,138.859 L255.467,133.989 C256.921,132.535 257.737,130.564 257.737,128.509 C257.737,126.454 256.921,124.482 255.467,123.029 C254.014,121.576 252.043,120.759 249.988,120.759 C247.933,120.759 245.961,121.576 244.508,123.029 L234.766,132.771 C233.313,134.224 232.497,136.195 232.497,138.251 C232.497,140.306 233.313,142.277 234.766,143.73 C236.22,145.184 238.191,146 240.246,146 C242.301,146 244.273,145.184 245.726,143.73 L250.597,138.859 Z" />
        </g>
        <g id="Regular-S">
            <path d="M451.815,126.683 C458.548,133.416 473.053,128.581 484.693,116.941 C496.333,105.301 501.168,90.796 494.435,84.063 C493.426,83.054 491.79,83.054 490.782,84.063 C489.773,85.072 489.773,86.707 490.782,87.716 C494.809,91.743 490.921,103.407 481.04,113.288 C471.159,123.169 459.495,127.057 455.468,123.03 C454.459,122.021 452.824,122.021 451.815,123.03 C450.806,124.038 450.806,125.674 451.815,126.683 Z" />
            <path d="M467.644,84.062 L470.08,86.498 C471.088,87.507 472.724,87.507 473.733,86.498 C474.742,85.489 474.742,83.854 473.733,82.845 L471.297,80.409 C470.289,79.401 468.653,79.401 467.644,80.409 C466.635,81.418 466.635,83.054 467.644,84.062 Z" />
            <path d="M459.121,92.586 L461.557,95.022 C462.565,96.031 464.201,96.031 465.21,95.022 C466.219,94.013 466.219,92.377 465.21,91.369 L462.774,88.933 C461.766,87.924 460.13,87.924 459.121,88.933 C458.112,89.942 458.112,91.578 459.121,92.586 Z" />
            <path d="M451.814,102.329 L454.249,104.764 C455.258,105.773 456.894,105.773 457.903,104.764 C458.911,103.755 458.911,102.12 457.903,101.111 L455.467,98.676 C454.458,97.667 452.823,97.667 451.814,98.676 C450.805,99.684 450.805,101.32 451.814,102.329 Z" />
            <path d="M449.379,114.505 L451.814,116.941 C452.823,117.949 454.459,117.949 455.467,116.941 C456.476,115.932 456.476,114.296 455.467,113.288 L453.032,110.852 C452.023,109.843 450.388,109.843 449.379,110.852 C448.37,111.861 448.37,113.496 449.379,114.505 Z" />
            <path d="M481.039,80.41 L483.475,82.845 C484.483,83.854 486.119,83.854 487.128,82.845 C488.137,81.836 488.137,80.201 487.128,79.192 L484.692,76.757 C483.684,75.748 482.048,75.748 481.039,76.757 C480.031,77.765 480.03,79.401 481.039,80.41 Z" />
            <path d="M478.604,95.022 L483.475,99.893 C484.484,100.902 486.119,100.902 487.128,99.893 C488.137,98.884 488.137,97.249 487.128,96.24 L482.257,91.369 C481.248,90.361 479.613,90.361 478.604,91.369 C477.595,92.378 477.595,94.014 478.604,95.022 Z" />
            <path d="M470.081,103.546 L474.952,108.417 C475.961,109.426 477.596,109.426 478.605,108.417 C479.614,107.408 479.614,105.773 478.605,104.764 L473.734,99.893 C472.725,98.884 471.09,98.884 470.081,99.893 C469.072,100.902 469.072,102.538 470.081,103.546 Z" />
            <path d="M460.339,110.852 L465.21,115.723 C466.218,116.732 467.854,116.732 468.863,115.724 C469.871,114.715 469.871,113.079 468.863,112.07 L463.992,107.199 C462.983,106.191 461.348,106.191 460.339,107.199 C459.33,108.208 459.33,109.844 460.339,110.852 Z" />
            <path d="M446.944,135.206 L442.073,140.077 C441.588,140.562 440.931,140.834 440.246,140.834 C439.561,140.834 438.904,140.562 438.42,140.077 C437.935,139.593 437.663,138.936 437.663,138.251 C437.663,137.565 437.935,136.908 438.42,136.424 L448.161,126.682 C448.646,126.198 449.303,125.926 449.988,125.926 C450.673,125.926 451.33,126.198 451.814,126.682 C452.299,127.167 452.571,127.824 452.571,128.509 C452.571,129.194 452.299,129.851 451.814,130.335 L446.944,135.206 Z M450.597,138.859 L455.468,133.989 C456.921,132.535 457.737,130.564 457.737,128.509 C457.737,126.454 456.921,124.482 455.468,123.029 C454.014,121.576 452.043,120.759 449.988,120.759 C447.933,120.759 445.961,121.576 444.508,123.029 L434.766,132.771 C433.313,134.224 432.497,136.195 432.497,138.251 C432.497,140.306 433.313,142.277 434.766,143.73 C436.22,145.184 438.191,146 440.246,146 C442.301,146 444.273,145.184 445.726,143.73 L450.597,138.859 Z" />
        </g>
        <g id="Black-S">
            <path d="M651.815,126.683 C658.548,133.416 673.053,128.581 684.693,116.941 C696.333,105.301 701.168,90.796 694.435,84.063 C693.426,83.054 691.79,83.054 690.782,84.063 C689.773,85.072 689.773,86.707 690.782,87.716 C694.809,91.743 690.921,103.407 681.04,113.288 C671.159,123.169 659.495,127.057 655.468,123.03 C654.459,122.021 652.824,122.021 651.815,123.03 C650.806,124.038 650.806,125.674 651.815,126.683 Z" />
            <path d="M667.644,84.062 L670.08,86.498 C671.088,87.507 672.724,87.507 673.733,86.498 C674.742,85.489 674.742,83.854 673.733,82.845 L671.297,80.409 C670.289,79.401 668.653,79.401 667.644,80.409 C666.635,81.418 666.635,83.054 667.644,84.062 Z" />
            <path d="M659.121,92.586 L661.557,95.022 C662.565,96.031 664.201,96.031 665.21,95.022 C666.219,94.013 666.219,92.377 665.21,91.369 L662.774,88.933 C661.766,87.924 660.13,87.924 659.121,88.933 C658.112,89.942 658.112,91.578 659.121,92.586 Z" />
            <path d="M651.814,102.329 L654.249,104.764 C655.258,105.773 656.894,105.773 657.903,104.764 C658.911,103.755 658.911,102.12 657.903,101.111 L655.467,98.676 C654.458,97.667 652.823,97.667 651.814,98.676 C650.805,99.684 650.805,101.32 651.814,102.329 Z" />
            <path d="M649.379,114.505 L651.814,116.941 C652.823,117.949 654.458,117.949 655.467,116.941 C656.476,115.932 656.476,114.296 655.467,113.288 L653.032,110.852 C652.023,109.843 650.388,109.843 649.379,110.852 C648.37,111.861 648.37,113.496 649.379,114.505 Z" />
            <path d="M681.039,80.41 L683.475,82.845 C684.483,83.854 686.119,83.854 687.128,82.845 C688.137,81.836 688.137,80.201 687.128,79.192 L684.692,76.757 C683.684,75.748 682.048,75.748 681.039,76.757 C680.031,77.765 680.031,79.401 681.039,80.41 Z" />
            <path d="M678.604,95.022 L683.475,99.893 C684.484,100.902 686.119,100.902 687.128,99.893 C688.137,98.884 688.137,97.249 687.128,96.24 L682.257,91.369 C681.248,90.361 679.613,90.361 678.604,91.369 C677.595,92.378 677.595,94.014 678.604,95.022 Z" />
            <path d="M670.081,103.546 L674.952,108.417 C675.961,109.426 677.596,109.426 678.605,108.417 C679.614,107.408 679.614,105.773 678.605,104.764 L673.734,99.893 C672.725,98.884 671.09,98.884 670.081,99.893 C669.072,100.902 669.072,102.538 670.081,103.546 Z" />
            <path d="M660.339,110.852 L665.21,115.723 C666.218,116.732 667.854,116.732 668.863,115.724 C669.871,114.715 669.871,113.079 668.863,112.07 L663.992,107.199 C662.983,106.191 661.348,106.191 660.339,107.199 C659.33,108.208 659.33,109.844 660.339,110.852 Z" />
            <path d="M646.944,135.206 L642.073,140.077 C641.588,140.562 640.931,140.834 640.246,140.834 C639.561,140.834 638.904,140.562 638.42,140.077 C637.935,139.593 637.663,138.936 637.663,138.251 C637.663,137.565 637.935,136.908 638.42,136.424 L648.161,126.682 C648.646,126.198 649.303,125.926 649.988,125.926 C650.673,125.926 651.33,126.198 651.814,126.682 C652.299,127.167 652.571,127.824 652.571,128.509 C652.571,129.194 652.299,129.851 651.814,130.335 L646.944,135.206 Z M650.597,138.859 L655.468,133.989 C656.921,132.535 657.737,130.564 657.737,128.509 C657.737,126.454 656.921,124.482 655.468,123.029 C654.014,121.576 652.043,120.759 649.988,120.759 C647.933,120.759 645.961,121.576 644.508,123.029 L634.766,132.771 C633.313,134.224 632.497,136.195 632.497,138.251 C632.497,140.306 633.313,142.277 634.766,143.73 C636.22,145.184 638.191,146 640.246,146 C642.301,146 644.273,145.184 645.726,143.73 L650.597,138.859 Z" />
        </g>
    </g>
</svg>