<?xml version="1.0" encoding="UTF-8"?>
<svg height="600" width="800" xmlns="http://www.w3.org/2000/svg" xmlns:xlink="http://www.w3.org/1999/xlink">
    <g id="Notes" font-family="'LucidaGrande', 'Lucida Grande', sans-serif" font-size="13">
        <rect fill="white" height="600.0" width="800.0" x="0.0" y="0.0" />
        <g font-size="13">
            <text x="18.0" y="176.0">Small</text>
            <text x="18.0" y="376.0">Medium</text>
            <text x="18.0" y="576.0">Large</text>
        </g>
        <g font-size="9">
            <text x="250.0" y="30.0">Ultralight</text>
            <text x="450.0" y="30.0">Regular</text>
            <text x="650.0" y="30.0">Black</text>
            <text id="template-version" fill="#505050" text-anchor="end" x="785.0" y="575.0">Template v.3.0</text>
            <a href="https://github.com/swhitty/SwiftDraw">
                <text fill="#505050" text-anchor="end" x="785.0" y="590.0">https://github.com/swhitty/SwiftDraw</text>
            </a>
        </g>
    </g>
    <g id="Guides" stroke="rgb(39, 170, 225)" stroke-width="0.5">
        <path id="Capline-S" d="M18,76 l800,0" />
        <path id="H-reference" d="M85,145.755 L87.685,145.755 L113.369,79.287 L114.052,79.287 L114.052,76 L112.148,76 L85,145.755 Z M95.693,121.536 L130.996,121.536 L130.263,119.313 L96.474,119.313 L95.693,121.536 Z M139.15,145.755 L141.787,145.755 L114.638,76 L113.466,76 L113.466,79.287 L139.15,145.755 Z" stroke="none" />
        <path id="Baseline-S" d="M18,146 l800,0" />
        <path id="left-margin-Ultralight-S" d="M211,56 l0,110" />
        <path id="right-margin-Ultralight-S" d="M319,56 l0,110" />
        <path id="left-margin-Regular-S" d="M411,56 l0,110" />
        <path id="right-margin-Regular-S" d="M519,56 l0,110" />
        <path id="left-margin-Black-S" d="M611,56 l0,110" />
        <path id="right-margin-Black-S" d="M719,56 l0,110" />
        <path id="Capline-M" d="M18,276 l800,0" />
        <path id="Baseline-M" d="M18,346 l800,0" />
        <path id="Capline-L" d="M18,476 l800,0" />
        <path id="Baseline-L" d="M18,546 l800,0" />
    </g>
    <g id="Symbols">
        <g id="Ultralight-S">
            <path d="M224.07,124.302 L305.93,124.302 L302.86,121.233 L302.86,133.512 L305.93,130.442 L224.07,130.442 L227.14,133.512 L227.14,121.233 L224.07,124.302 Z M224.07,118.163 C222.374,118.163 221,119.537 221,121.233 L221,133.512 C221,135.207 222.374,136.581 224.07,136.581 L305.93,136.581 C307.626,136.581 309,135.207 309,133.512 L309,121.233 C309,119.537 307.626,118.163 305.93,118.163 L224.07,118.163 Z" />
            <path d="M261.726,86.467 C255.294,93.819 253.804,104.035 253.804,121.233 C253.804,122.928 255.179,124.302 256.874,124.302 L297.804,124.302 C299.5,124.302 300.874,122.928 300.874,121.233 L300.874,103.837 C300.874,102.636 300.173,101.545 299.081,101.045 C298.793,100.914 298.793,100.914 297.499,100.323 C296.241,99.748 294.838,99.107 293.327,98.417 C289.01,96.447 284.686,94.476 280.643,92.636 C280.575,92.605 280.575,92.605 280.506,92.574 C273.75,89.5 268.488,87.117 265.29,85.686 C264.06,85.136 262.614,85.453 261.726,86.467 Z M266.347,90.51 L262.783,91.291 C265.965,92.714 271.219,95.094 277.964,98.162 C278.032,98.193 278.032,98.193 278.1,98.224 C282.141,100.063 286.462,102.033 290.778,104.003 C292.288,104.692 293.69,105.332 294.948,105.907 C296.241,106.498 296.241,106.498 296.528,106.629 L294.734,103.837 L294.734,121.233 L297.804,118.163 L256.874,118.163 L259.944,121.233 C259.943,105.691 261.319,96.256 266.347,90.51 Z" />
        </g>
        <g id="Regular-S">
            <path d="M424.07,124.302 L505.93,124.302 L502.86,121.233 L502.86,133.512 L505.93,130.442 L424.07,130.442 L427.14,133.512 L427.14,121.233 L424.07,124.302 Z M424.07,118.163 C422.374,118.163 421,119.537 421,121.233 L421,133.512 C421,135.207 422.374,136.581 424.07,136.581 L505.93,136.581 C507.626,136.581 509,135.207 509,133.512 L509,121.233 C509,119.537 507.626,118.163 505.93,118.163 L424.07,118.163 Z" />
            <path d="M461.726,86.467 C455.294,93.819 453.804,104.035 453.804,121.233 C453.804,122.928 455.179,124.302 456.874,124.302 L497.804,124.302 C499.5,124.302 500.874,122.928 500.874,121.233 L500.874,103.837 C500.874,102.636 500.173,101.545 499.081,101.045 C498.793,100.914 498.793,100.914 497.499,100.323 C496.241,99.748 494.838,99.107 493.327,98.417 C489.01,96.447 484.686,94.476 480.643,92.636 C480.575,92.605 480.575,92.605 480.506,92.574 C473.75,89.5 468.488,87.117 465.29,85.686 C464.06,85.136 462.614,85.453 461.726,86.467 Z M466.347,90.51 L462.783,91.291 C465.965,92.714 471.219,95.094 477.964,98.162 C478.032,98.193 478.032,98.193 478.1,98.224 C482.141,100.063 486.462,102.033 490.778,104.003 C492.288,104.692 493.69,105.332 494.948,105.907 C496.241,106.498 496.241,106.498 496.528,106.629 L494.734,103.837 L494.734,121.233 L497.804,118.163 L456.874,118.163 L459.944,121.233 C459.943,105.691 461.319,96.256 466.347,90.51 Z" />
        </g>
        <g id="Black-S">
            <path d="M624.07,124.302 L705.93,124.302 L702.86,121.233 L702.86,133.512 L705.93,130.442 L624.07,130.442 L627.14,133.512 L627.14,121.233 L624.07,124.302 Z M624.07,118.163 C622.374,118.163 621,119.537 621,121.233 L621,133.512 C621,135.207 622.374,136.581 624.07,136.581 L705.93,136.581 C707.626,136.581 709,135.207 709,133.512 L709,121.233 C709,119.537 707.626,118.163 705.93,118.163 L624.07,118.163 Z" />
            <path d="M661.727,86.467 C655.294,93.819 653.804,104.035 653.804,121.233 C653.804,122.928 655.179,124.302 656.874,124.302 L697.804,124.302 C699.5,124.302 700.874,122.928 700.874,121.233 L700.874,103.837 C700.874,102.636 700.173,101.545 699.081,101.045 C698.793,100.914 698.793,100.914 697.499,100.323 C696.241,99.748 694.838,99.107 693.327,98.417 C689.01,96.447 684.686,94.476 680.643,92.636 C680.575,92.605 680.575,92.605 680.506,92.574 C673.75,89.5 668.488,87.117 665.29,85.686 C664.06,85.136 662.614,85.453 661.727,86.467 Z M666.347,90.51 L662.783,91.291 C665.965,92.714 671.219,95.094 677.964,98.162 C678.032,98.193 678.032,98.193 678.1,98.224 C682.141,100.063 686.462,102.033 690.778,104.003 C692.288,104.692 693.69,105.332 694.948,105.907 C696.241,106.498 696.241,106.498 696.528,106.629 L694.734,103.837 L694.734,121.233 L697.804,118.163 L656.874,118.163 L659.944,121.233 C659.943,105.691 661.319,96.256 666.347,90.51 Z" />
        </g>
    </g>
</svg>