<?xml version="1.0" encoding="UTF-8"?>
<svg height="600" width="800" xmlns="http://www.w3.org/2000/svg" xmlns:xlink="http://www.w3.org/1999/xlink">
    <g id="Notes" font-family="'LucidaGrande', 'Lucida Grande', sans-serif" font-size="13">
        <rect fill="white" height="600.0" width="800.0" x="0.0" y="0.0" />
        <g font-size="13">
            <text x="18.0" y="176.0">Small</text>
            <text x="18.0" y="376.0">Medium</text>
            <text x="18.0" y="576.0">Large</text>
        </g>
        <g font-size="9">
            <text x="250.0" y="30.0">Ultralight</text>
            <text x="450.0" y="30.0">Regular</text>
            <text x="650.0" y="30.0">Black</text>
            <text id="template-version" fill="#505050" text-anchor="end" x="785.0" y="575.0">Template v.3.0</text>
            <a href="https://github.com/swhitty/SwiftDraw">
                <text fill="#505050" text-anchor="end" x="785.0" y="590.0">https://github.com/swhitty/SwiftDraw</text>
            </a>
        </g>
    </g>
    <g id="Guides" stroke="rgb(39, 170, 225)" stroke-width="0.5">
        <path id="Capline-S" d="M18,76 l800,0" />
        <path id="H-reference" d="M85,145.755 L87.685,145.755 L113.369,79.287 L114.052,79.287 L114.052,76 L112.148,76 L85,145.755 Z M95.693,121.536 L130.996,121.536 L130.263,119.313 L96.474,119.313 L95.693,121.536 Z M139.15,145.755 L141.787,145.755 L114.638,76 L113.466,76 L113.466,79.287 L139.15,145.755 Z" stroke="none" />
        <path id="Baseline-S" d="M18,146 l800,0" />
        <path id="left-margin-Ultralight-S" d="M221,56 l0,110" />
        <path id="right-margin-Ultralight-S" d="M309,56 l0,110" />
        <path id="left-margin-Regular-S" d="M421,56 l0,110" />
        <path id="right-margin-Regular-S" d="M509,56 l0,110" />
        <path id="left-margin-Black-S" d="M621,56 l0,110" />
        <path id="right-margin-Black-S" d="M709,56 l0,110" />
        <path id="Capline-M" d="M18,276 l800,0" />
        <path id="Baseline-M" d="M18,346 l800,0" />
        <path id="Capline-L" d="M18,476 l800,0" />
        <path id="Baseline-L" d="M18,546 l800,0" />
    </g>
    <g id="Symbols">
        <g id="Ultralight-S">
            <path d="M262.558,130.535 L262.558,143.558 C262.558,144.907 263.651,146 265,146 C266.349,146 267.442,144.907 267.442,143.558 L267.442,130.535 C267.442,129.186 266.349,128.093 265,128.093 C263.651,128.093 262.558,129.186 262.558,130.535 Z" />
            <path d="M250.528,97.991 L266.807,80.084 L263.193,80.084 L279.472,97.991 L279.552,94.622 L274.669,99.506 C273.715,100.46 273.715,102.006 274.669,102.959 L287.692,115.982 L288.868,111.877 L280.728,113.762 C278.913,114.182 278.219,116.398 279.468,117.779 L292.492,132.173 L294.302,128.093 L235.698,128.093 L237.508,132.173 L250.532,117.779 C251.781,116.398 251.087,114.182 249.272,113.762 L241.132,111.877 L242.308,115.982 L255.331,102.959 C256.285,102.006 256.285,100.46 255.331,99.506 L250.448,94.622 L250.528,97.991 Z M246.914,94.706 C246.037,95.671 246.073,97.154 246.994,98.075 L251.878,102.959 L251.878,99.506 L238.855,112.529 C237.499,113.885 238.163,116.202 240.03,116.635 L248.17,118.52 L246.91,114.502 L233.887,128.897 C232.467,130.467 233.581,132.977 235.698,132.977 L294.302,132.977 C296.419,132.977 297.533,130.467 296.113,128.897 L283.09,114.502 L281.83,118.52 L289.97,116.635 C291.837,116.202 292.501,113.885 291.145,112.529 L278.122,99.506 L278.122,102.959 L283.006,98.075 C283.927,97.154 283.963,95.671 283.086,94.706 L266.807,76.799 C265.838,75.734 264.162,75.734 263.193,76.799 L246.914,94.706 Z" />
        </g>
        <g id="Regular-S">
            <path d="M462.558,130.535 L462.558,143.558 C462.558,144.907 463.651,146 465,146 C466.349,146 467.442,144.907 467.442,143.558 L467.442,130.535 C467.442,129.186 466.349,128.093 465,128.093 C463.651,128.093 462.558,129.186 462.558,130.535 Z" />
            <path d="M450.528,97.991 L466.807,80.084 L463.193,80.084 L479.472,97.991 L479.552,94.622 L474.669,99.506 C473.715,100.46 473.715,102.006 474.669,102.959 L487.692,115.982 L488.868,111.877 L480.728,113.762 C478.913,114.182 478.219,116.398 479.468,117.779 L492.492,132.173 L494.302,128.093 L435.698,128.093 L437.508,132.173 L450.532,117.779 C451.781,116.398 451.087,114.182 449.272,113.762 L441.132,111.877 L442.308,115.982 L455.331,102.959 C456.285,102.006 456.285,100.46 455.331,99.506 L450.448,94.622 L450.528,97.991 Z M446.914,94.706 C446.037,95.671 446.073,97.154 446.994,98.075 L451.878,102.959 L451.878,99.506 L438.855,112.529 C437.499,113.885 438.163,116.202 440.03,116.635 L448.17,118.52 L446.91,114.502 L433.887,128.897 C432.467,130.467 433.581,132.977 435.698,132.977 L494.302,132.977 C496.419,132.977 497.533,130.467 496.113,128.897 L483.09,114.502 L481.83,118.52 L489.97,116.635 C491.837,116.202 492.501,113.885 491.145,112.529 L478.122,99.506 L478.122,102.959 L483.006,98.075 C483.927,97.154 483.963,95.671 483.086,94.706 L466.807,76.799 C465.838,75.734 464.162,75.734 463.193,76.799 L446.914,94.706 Z" />
        </g>
        <g id="Black-S">
            <path d="M662.558,130.535 L662.558,143.558 C662.558,144.907 663.651,146 665,146 C666.349,146 667.442,144.907 667.442,143.558 L667.442,130.535 C667.442,129.186 666.349,128.093 665,128.093 C663.651,128.093 662.558,129.186 662.558,130.535 Z" />
            <path d="M650.528,97.991 L666.807,80.084 L663.193,80.084 L679.472,97.991 L679.552,94.622 L674.669,99.506 C673.715,100.46 673.715,102.006 674.669,102.959 L687.692,115.982 L688.868,111.877 L680.728,113.762 C678.913,114.182 678.219,116.398 679.468,117.779 L692.492,132.173 L694.302,128.093 L635.698,128.093 L637.508,132.173 L650.532,117.779 C651.781,116.398 651.087,114.182 649.272,113.762 L641.132,111.877 L642.308,115.982 L655.331,102.959 C656.285,102.006 656.285,100.46 655.331,99.506 L650.448,94.622 L650.528,97.991 Z M646.914,94.706 C646.037,95.671 646.073,97.154 646.994,98.075 L651.878,102.959 L651.878,99.506 L638.855,112.529 C637.499,113.885 638.163,116.202 640.031,116.635 L648.17,118.52 L646.91,114.502 L633.887,128.897 C632.467,130.467 633.581,132.977 635.698,132.977 L694.302,132.977 C696.419,132.977 697.533,130.467 696.113,128.897 L683.09,114.502 L681.83,118.52 L689.969,116.635 C691.837,116.202 692.501,113.885 691.145,112.529 L678.122,99.506 L678.122,102.959 L683.006,98.075 C683.927,97.154 683.963,95.671 683.086,94.706 L666.807,76.799 C665.838,75.734 664.162,75.734 663.193,76.799 L646.914,94.706 Z" />
        </g>
    </g>
</svg>