<?xml version="1.0" encoding="UTF-8"?>
<svg height="600" width="800" xmlns="http://www.w3.org/2000/svg" xmlns:xlink="http://www.w3.org/1999/xlink">
    <g id="Notes" font-family="'LucidaGrande', 'Lucida Grande', sans-serif" font-size="13">
        <rect fill="white" height="600.0" width="800.0" x="0.0" y="0.0" />
        <g font-size="13">
            <text x="18.0" y="176.0">Small</text>
            <text x="18.0" y="376.0">Medium</text>
            <text x="18.0" y="576.0">Large</text>
        </g>
        <g font-size="9">
            <text x="250.0" y="30.0">Ultralight</text>
            <text x="450.0" y="30.0">Regular</text>
            <text x="650.0" y="30.0">Black</text>
            <text id="template-version" fill="#505050" text-anchor="end" x="785.0" y="575.0">Template v.3.0</text>
            <a href="https://github.com/swhitty/SwiftDraw">
                <text fill="#505050" text-anchor="end" x="785.0" y="590.0">https://github.com/swhitty/SwiftDraw</text>
            </a>
        </g>
    </g>
    <g id="Guides" stroke="rgb(39, 170, 225)" stroke-width="0.5">
        <path id="Capline-S" d="M18,76 l800,0" />
        <path id="H-reference" d="M85,145.755 L87.685,145.755 L113.369,79.287 L114.052,79.287 L114.052,76 L112.148,76 L85,145.755 Z M95.693,121.536 L130.996,121.536 L130.263,119.313 L96.474,119.313 L95.693,121.536 Z M139.15,145.755 L141.787,145.755 L114.638,76 L113.466,76 L113.466,79.287 L139.15,145.755 Z" stroke="none" />
        <path id="Baseline-S" d="M18,146 l800,0" />
        <path id="left-margin-Ultralight-S" d="M221,56 l0,110" />
        <path id="right-margin-Ultralight-S" d="M309,56 l0,110" />
        <path id="left-margin-Regular-S" d="M421,56 l0,110" />
        <path id="right-margin-Regular-S" d="M509,56 l0,110" />
        <path id="left-margin-Black-S" d="M621,56 l0,110" />
        <path id="right-margin-Black-S" d="M709,56 l0,110" />
        <path id="Capline-M" d="M18,276 l800,0" />
        <path id="Baseline-M" d="M18,346 l800,0" />
        <path id="Capline-L" d="M18,476 l800,0" />
        <path id="Baseline-L" d="M18,546 l800,0" />
    </g>
    <g id="Symbols">
        <g id="Ultralight-S">
            <path d="M261.039,93.849 C260.967,93.989 260.842,94.243 260.671,94.603 C260.392,95.191 260.082,95.871 259.749,96.635 C258.804,98.808 257.86,101.233 256.979,103.853 C255.798,107.366 254.822,110.962 254.121,114.581 C253.657,116.977 253.291,119.651 253.014,122.558 C252.424,128.745 252.278,135.214 252.378,140.78 C252.388,141.315 252.397,141.694 252.404,141.9 C252.449,143.285 253.607,144.371 254.992,144.326 C256.377,144.282 257.463,143.123 257.419,141.738 C257.413,141.556 257.404,141.2 257.395,140.69 C257.298,135.297 257.44,129.001 258.009,123.034 C258.272,120.278 258.616,117.759 259.047,115.536 C259.703,112.148 260.622,108.764 261.735,105.452 C262.568,102.975 263.46,100.683 264.35,98.637 C264.66,97.925 264.947,97.295 265.203,96.756 C265.354,96.44 265.458,96.228 265.509,96.129 C266.138,94.894 265.648,93.384 264.414,92.754 C263.18,92.124 261.669,92.614 261.039,93.849 Z" />
            <path d="M281.877,112.586 C282.729,113.152 283.812,113.516 285.142,113.793 C288.265,114.444 291.201,112.168 291.119,108.937 C290.99,103.853 288.536,98.939 282.877,95.181 C277.593,91.672 271.948,90.755 266.547,91.578 C262.7,92.165 261.047,96.45 263.223,99.608 C264.821,101.929 266.027,103.295 267.451,103.801 C268.548,104.191 269.526,104.157 270.822,103.889 C270.954,103.862 271.059,103.839 271.272,103.792 C271.852,103.663 272.067,103.625 272.235,103.619 C272.252,103.619 272.161,103.598 272.054,103.527 C272.024,103.507 272.085,103.623 272.3,104.298 C272.857,106.038 273.298,106.889 274.55,107.72 C275.801,108.551 276.756,108.628 278.576,108.465 C279.282,108.403 279.412,108.413 279.382,108.393 C279.352,108.373 279.412,108.489 279.628,109.164 C280.185,110.904 280.626,111.755 281.877,112.586 Z M284.653,108.406 C284.683,108.426 284.623,108.31 284.407,107.636 C283.851,105.895 283.409,105.045 282.158,104.213 C280.906,103.382 279.951,103.306 278.131,103.468 C277.426,103.531 277.295,103.52 277.325,103.54 C277.355,103.56 277.295,103.444 277.079,102.769 C276.523,101.029 276.081,100.178 274.83,99.347 C273.38,98.384 272.319,98.419 270.183,98.894 C269.984,98.938 269.908,98.955 269.808,98.975 C269.338,99.072 269.148,99.079 269.132,99.073 C269.267,99.122 269.285,99.133 269.249,99.102 C269.12,98.993 268.949,98.821 268.752,98.597 C268.346,98.137 267.869,97.509 267.355,96.761 C267.221,96.568 267.228,96.55 267.303,96.538 C271.553,95.89 275.951,96.605 280.101,99.36 C284.327,102.167 286.013,105.544 286.103,109.064 C286.101,108.97 286.205,108.89 286.166,108.881 C285.412,108.724 284.844,108.533 284.653,108.406 Z" />
            <path d="M260.722,102.386 C262.836,101.681 264.172,99.923 265.082,97.618 C265.944,95.436 265.136,92.979 263.107,91.78 C259.142,89.437 253.772,88.661 247.123,90.592 C240.231,92.593 236.747,96.963 235.856,102.134 C235.387,104.856 237.276,107.367 240.022,107.672 C241.781,107.867 243.295,107.653 244.504,106.627 C244.936,106.261 245.305,105.869 245.679,105.406 C245.858,105.183 246.419,104.442 246.322,104.568 C246.636,104.16 246.708,104.099 246.753,104.087 C246.609,104.125 246.496,104.119 246.469,104.11 C246.577,104.143 246.727,104.212 247.12,104.413 C247.12,104.413 247.12,104.413 247.12,104.413 C247.781,104.75 248.1,104.897 248.588,105.046 C249.402,105.295 250.226,105.343 251.069,105.117 C251.913,104.891 252.601,104.438 253.182,103.815 C253.53,103.442 253.734,103.155 254.137,102.533 C254.377,102.163 254.472,102.028 254.549,101.945 C254.53,101.966 254.435,102.028 254.292,102.067 C254.259,102.076 254.529,102.116 255.516,102.353 C257.626,102.86 259.004,102.959 260.722,102.386 Z M259.136,97.626 C258.551,97.821 257.95,97.778 256.688,97.475 C255.653,97.226 255.585,97.211 255.148,97.145 C254.383,97.029 253.694,97.033 252.993,97.22 C252.15,97.446 251.461,97.9 250.88,98.523 C250.532,98.896 250.329,99.182 249.926,99.805 C249.686,100.175 249.59,100.31 249.513,100.393 C249.533,100.372 249.627,100.309 249.771,100.271 C249.914,100.232 250.027,100.239 250.054,100.247 C249.946,100.214 249.796,100.145 249.403,99.945 C249.402,99.944 249.402,99.944 249.402,99.944 C248.742,99.607 248.422,99.46 247.934,99.312 C247.121,99.063 246.298,99.014 245.454,99.24 C244.097,99.604 243.269,100.306 242.344,101.511 C242.394,101.446 241.896,102.104 241.775,102.254 C241.584,102.49 241.423,102.661 241.257,102.801 C241.371,102.705 241.411,102.69 241.36,102.697 C241.173,102.723 240.9,102.721 240.576,102.685 C240.701,102.699 240.823,102.86 240.801,102.985 C241.383,99.609 243.588,96.843 248.522,95.41 C253.809,93.875 257.755,94.445 260.553,96.099 C260.436,96.03 260.381,95.863 260.415,95.775 C259.999,96.828 259.481,97.511 259.136,97.626 Z" />
            <path d="M270.705,79.279 C265.915,81.195 260.763,90.124 260.765,94.99 C260.766,96.82 262.663,98.034 264.325,97.267 L286.069,87.232 C287.409,86.613 287.928,84.977 287.191,83.699 C284.337,78.757 276.323,77.032 270.705,79.279 Z M272.568,83.938 C276.07,82.538 281.387,83.682 282.845,86.208 L283.967,82.676 L262.223,92.711 L265.783,94.988 C265.782,92.049 269.829,85.033 272.568,83.938 Z" />
            <path d="M259.089,82.3 C262.971,83.68 263.539,89.513 261.102,93.734 L264.675,92.908 L244.606,79.397 L245.43,82.636 C245.737,82.046 247.402,81.333 249.909,81.109 C252.804,80.85 256.195,81.272 259.089,82.3 Z M260.769,77.572 C252.991,74.808 243.4,75.667 240.979,80.32 C240.39,81.452 240.745,82.846 241.804,83.559 L261.873,97.07 C263.079,97.882 264.72,97.502 265.447,96.243 C269.237,89.679 268.319,80.256 260.769,77.572 Z" />
            <path d="M269.964,132.62 C281.787,132.62 289.198,135.042 289.198,136.801 C289.198,136.67 289.225,136.597 289.206,136.622 C289.074,136.795 288.804,137.027 288.397,137.283 C287.381,137.924 285.775,138.558 283.712,139.108 C279.265,140.294 273.158,140.982 266.619,140.982 C260.08,140.982 253.973,140.294 249.526,139.108 C247.463,138.558 245.857,137.924 244.841,137.283 C244.434,137.027 244.164,136.795 244.031,136.622 C244.012,136.597 244.04,136.67 244.04,136.801 C244.04,136.93 244.012,137.006 244.026,136.988 C244.147,136.826 244.397,136.606 244.776,136.36 C245.94,135.607 246.272,134.054 245.519,132.891 C244.767,131.728 243.213,131.395 242.05,132.148 C240.172,133.364 239.022,134.899 239.022,136.801 C239.022,142.759 251.175,146 266.619,146 C282.062,146 294.215,142.759 294.215,136.801 C294.215,130.754 284.575,127.602 269.964,127.602 C268.578,127.602 267.455,128.726 267.455,130.111 C267.455,131.497 268.578,132.62 269.964,132.62 Z" />
        </g>
        <g id="Regular-S">
            <path d="M461.039,93.849 C460.967,93.989 460.842,94.243 460.671,94.603 C460.392,95.191 460.082,95.871 459.749,96.635 C458.804,98.808 457.86,101.233 456.979,103.853 C455.798,107.366 454.822,110.962 454.121,114.581 C453.657,116.977 453.291,119.651 453.014,122.558 C452.424,128.745 452.278,135.214 452.378,140.78 C452.388,141.315 452.397,141.694 452.404,141.9 C452.449,143.285 453.607,144.371 454.992,144.326 C456.377,144.282 457.463,143.123 457.419,141.738 C457.413,141.556 457.404,141.2 457.395,140.69 C457.298,135.297 457.44,129.001 458.009,123.034 C458.272,120.278 458.616,117.759 459.047,115.536 C459.703,112.148 460.622,108.764 461.735,105.452 C462.568,102.975 463.46,100.683 464.35,98.637 C464.66,97.925 464.947,97.295 465.203,96.756 C465.354,96.44 465.458,96.228 465.509,96.129 C466.138,94.894 465.648,93.384 464.414,92.754 C463.18,92.124 461.669,92.614 461.039,93.849 Z" />
            <path d="M481.877,112.586 C482.729,113.152 483.812,113.516 485.142,113.793 C488.265,114.444 491.201,112.168 491.119,108.937 C490.99,103.853 488.536,98.939 482.877,95.181 C477.593,91.672 471.948,90.755 466.547,91.578 C462.7,92.165 461.047,96.45 463.223,99.608 C464.821,101.929 466.027,103.295 467.451,103.801 C468.548,104.191 469.526,104.157 470.822,103.889 C470.954,103.862 471.059,103.839 471.272,103.792 C471.852,103.663 472.067,103.625 472.235,103.619 C472.252,103.619 472.161,103.598 472.054,103.527 C472.024,103.507 472.085,103.623 472.3,104.298 C472.857,106.038 473.298,106.889 474.55,107.72 C475.801,108.551 476.756,108.628 478.576,108.465 C479.282,108.403 479.412,108.413 479.382,108.393 C479.352,108.373 479.412,108.489 479.628,109.164 C480.185,110.904 480.626,111.755 481.877,112.586 Z M484.653,108.406 C484.683,108.426 484.623,108.31 484.407,107.636 C483.851,105.895 483.409,105.045 482.158,104.213 C480.906,103.382 479.951,103.306 478.131,103.468 C477.426,103.531 477.295,103.52 477.325,103.54 C477.355,103.56 477.295,103.444 477.079,102.769 C476.523,101.029 476.081,100.178 474.83,99.347 C473.38,98.384 472.319,98.419 470.183,98.894 C469.984,98.938 469.908,98.955 469.808,98.975 C469.338,99.072 469.148,99.079 469.132,99.073 C469.267,99.122 469.285,99.133 469.249,99.102 C469.12,98.993 468.949,98.821 468.752,98.597 C468.346,98.137 467.869,97.509 467.355,96.761 C467.221,96.568 467.228,96.55 467.303,96.538 C471.553,95.89 475.951,96.605 480.101,99.36 C484.327,102.167 486.013,105.544 486.103,109.064 C486.101,108.97 486.205,108.89 486.166,108.881 C485.412,108.724 484.844,108.533 484.653,108.406 Z" />
            <path d="M460.722,102.386 C462.836,101.681 464.172,99.923 465.082,97.618 C465.944,95.436 465.136,92.979 463.107,91.78 C459.142,89.437 453.772,88.661 447.123,90.592 C440.231,92.593 436.747,96.963 435.856,102.134 C435.387,104.856 437.276,107.367 440.022,107.672 C441.781,107.867 443.295,107.653 444.504,106.627 C444.936,106.261 445.305,105.869 445.679,105.406 C445.858,105.183 446.419,104.442 446.322,104.568 C446.636,104.16 446.708,104.099 446.753,104.087 C446.609,104.125 446.496,104.119 446.469,104.11 C446.577,104.143 446.727,104.212 447.12,104.413 C447.12,104.413 447.12,104.413 447.12,104.413 C447.781,104.75 448.1,104.897 448.588,105.046 C449.402,105.295 450.226,105.343 451.069,105.117 C451.913,104.891 452.601,104.438 453.182,103.815 C453.53,103.442 453.734,103.155 454.137,102.533 C454.377,102.163 454.472,102.028 454.549,101.945 C454.53,101.966 454.435,102.028 454.292,102.067 C454.259,102.076 454.529,102.116 455.516,102.353 C457.626,102.86 459.004,102.959 460.722,102.386 Z M459.136,97.626 C458.551,97.821 457.95,97.778 456.688,97.475 C455.653,97.226 455.585,97.211 455.148,97.145 C454.383,97.029 453.694,97.033 452.993,97.22 C452.15,97.446 451.461,97.9 450.88,98.523 C450.532,98.896 450.329,99.182 449.926,99.805 C449.686,100.175 449.59,100.31 449.513,100.393 C449.533,100.372 449.627,100.309 449.771,100.271 C449.914,100.232 450.027,100.239 450.054,100.247 C449.946,100.214 449.796,100.145 449.403,99.945 C449.402,99.944 449.402,99.944 449.402,99.944 C448.742,99.607 448.422,99.46 447.934,99.312 C447.121,99.063 446.298,99.014 445.454,99.24 C444.097,99.604 443.269,100.306 442.344,101.511 C442.394,101.446 441.896,102.104 441.775,102.254 C441.584,102.49 441.423,102.661 441.257,102.801 C441.371,102.705 441.411,102.69 441.36,102.697 C441.173,102.723 440.9,102.721 440.576,102.685 C440.701,102.699 440.823,102.86 440.801,102.985 C441.383,99.609 443.588,96.843 448.522,95.41 C453.809,93.875 457.755,94.445 460.553,96.099 C460.436,96.03 460.381,95.863 460.415,95.775 C459.999,96.828 459.481,97.511 459.136,97.626 Z" />
            <path d="M470.705,79.279 C465.915,81.195 460.763,90.124 460.765,94.99 C460.766,96.82 462.663,98.034 464.325,97.267 L486.069,87.232 C487.409,86.613 487.928,84.977 487.191,83.699 C484.337,78.757 476.323,77.032 470.705,79.279 Z M472.568,83.938 C476.07,82.538 481.387,83.682 482.845,86.208 L483.967,82.676 L462.223,92.711 L465.783,94.988 C465.782,92.049 469.829,85.033 472.568,83.938 Z" />
            <path d="M459.089,82.3 C462.971,83.68 463.539,89.513 461.102,93.734 L464.675,92.908 L444.606,79.397 L445.43,82.636 C445.737,82.046 447.402,81.333 449.909,81.109 C452.804,80.85 456.195,81.272 459.089,82.3 Z M460.769,77.572 C452.991,74.808 443.4,75.667 440.979,80.32 C440.39,81.452 440.745,82.846 441.804,83.559 L461.873,97.07 C463.079,97.882 464.72,97.502 465.447,96.243 C469.237,89.679 468.319,80.256 460.769,77.572 Z" />
            <path d="M469.964,132.62 C481.787,132.62 489.198,135.042 489.198,136.801 C489.198,136.67 489.225,136.597 489.206,136.622 C489.074,136.795 488.804,137.027 488.397,137.283 C487.381,137.924 485.775,138.558 483.712,139.108 C479.265,140.294 473.158,140.982 466.619,140.982 C460.08,140.982 453.973,140.294 449.526,139.108 C447.463,138.558 445.857,137.924 444.841,137.283 C444.434,137.027 444.164,136.795 444.031,136.622 C444.012,136.597 444.04,136.67 444.04,136.801 C444.04,136.93 444.012,137.006 444.026,136.988 C444.147,136.826 444.397,136.606 444.776,136.36 C445.94,135.607 446.272,134.054 445.519,132.891 C444.767,131.728 443.213,131.395 442.05,132.148 C440.172,133.364 439.022,134.899 439.022,136.801 C439.022,142.759 451.175,146 466.619,146 C482.062,146 494.215,142.759 494.215,136.801 C494.215,130.754 484.575,127.602 469.964,127.602 C468.578,127.602 467.455,128.726 467.455,130.111 C467.455,131.497 468.578,132.62 469.964,132.62 Z" />
        </g>
        <g id="Black-S">
            <path d="M661.039,93.849 C660.967,93.989 660.842,94.243 660.671,94.603 C660.392,95.191 660.082,95.871 659.75,96.635 C658.804,98.808 657.86,101.233 656.979,103.853 C655.798,107.366 654.822,110.962 654.121,114.581 C653.657,116.977 653.291,119.651 653.014,122.558 C652.424,128.745 652.278,135.214 652.378,140.78 C652.388,141.315 652.397,141.694 652.404,141.9 C652.449,143.285 653.607,144.371 654.992,144.326 C656.377,144.282 657.463,143.123 657.419,141.738 C657.413,141.556 657.404,141.2 657.395,140.69 C657.298,135.297 657.44,129.001 658.009,123.034 C658.272,120.278 658.616,117.759 659.047,115.536 C659.703,112.148 660.622,108.764 661.735,105.452 C662.568,102.975 663.46,100.683 664.35,98.637 C664.66,97.925 664.947,97.295 665.203,96.756 C665.354,96.44 665.458,96.228 665.509,96.129 C666.138,94.894 665.648,93.384 664.414,92.754 C663.18,92.124 661.669,92.614 661.039,93.849 Z" />
            <path d="M681.877,112.586 C682.729,113.152 683.812,113.516 685.142,113.793 C688.265,114.444 691.201,112.168 691.119,108.937 C690.99,103.853 688.536,98.939 682.877,95.181 C677.593,91.672 671.948,90.755 666.547,91.578 C662.7,92.165 661.047,96.45 663.223,99.608 C664.821,101.929 666.027,103.295 667.451,103.801 C668.548,104.191 669.526,104.157 670.822,103.889 C670.954,103.862 671.059,103.839 671.272,103.792 C671.852,103.663 672.067,103.625 672.236,103.619 C672.252,103.619 672.161,103.598 672.054,103.527 C672.024,103.507 672.085,103.623 672.3,104.298 C672.857,106.038 673.298,106.889 674.55,107.72 C675.801,108.551 676.756,108.628 678.576,108.465 C679.282,108.403 679.412,108.413 679.382,108.393 C679.352,108.373 679.412,108.489 679.628,109.164 C680.185,110.904 680.626,111.755 681.878,112.586 Z M684.653,108.406 C684.683,108.426 684.623,108.31 684.407,107.636 C683.851,105.895 683.409,105.045 682.158,104.213 C680.906,103.382 679.951,103.306 678.131,103.468 C677.426,103.531 677.295,103.52 677.325,103.54 C677.355,103.56 677.295,103.444 677.079,102.769 C676.523,101.029 676.081,100.178 674.83,99.347 C673.38,98.384 672.319,98.419 670.183,98.894 C669.984,98.938 669.908,98.955 669.808,98.975 C669.338,99.072 669.148,99.079 669.132,99.073 C669.267,99.122 669.285,99.133 669.249,99.102 C669.12,98.993 668.949,98.821 668.752,98.597 C668.346,98.137 667.869,97.509 667.355,96.761 C667.221,96.568 667.228,96.55 667.303,96.538 C671.553,95.89 675.951,96.605 680.101,99.36 C684.327,102.167 686.013,105.544 686.103,109.064 C686.101,108.97 686.205,108.89 686.166,108.881 C685.412,108.724 684.844,108.533 684.653,108.406 Z" />
            <path d="M660.722,102.386 C662.836,101.681 664.172,99.923 665.082,97.618 C665.944,95.436 665.136,92.979 663.107,91.78 C659.142,89.437 653.772,88.661 647.123,90.592 C640.231,92.593 636.747,96.963 635.856,102.134 C635.387,104.856 637.276,107.367 640.022,107.672 C641.781,107.867 643.295,107.653 644.504,106.627 C644.936,106.261 645.305,105.869 645.679,105.406 C645.858,105.183 646.419,104.442 646.322,104.568 C646.636,104.16 646.708,104.099 646.753,104.087 C646.609,104.125 646.496,104.119 646.469,104.11 C646.577,104.143 646.727,104.212 647.12,104.413 C647.12,104.413 647.12,104.413 647.12,104.413 C647.781,104.75 648.1,104.897 648.588,105.046 C649.402,105.295 650.226,105.343 651.069,105.117 C651.913,104.891 652.602,104.438 653.182,103.815 C653.53,103.442 653.734,103.155 654.137,102.533 C654.377,102.163 654.472,102.028 654.549,101.945 C654.53,101.966 654.435,102.028 654.292,102.067 C654.259,102.076 654.529,102.116 655.516,102.353 C657.626,102.86 659.004,102.959 660.722,102.386 Z M659.136,97.626 C658.551,97.821 657.95,97.778 656.688,97.475 C655.653,97.226 655.585,97.211 655.148,97.145 C654.383,97.029 653.694,97.033 652.993,97.22 C652.15,97.446 651.461,97.9 650.88,98.523 C650.532,98.896 650.329,99.182 649.926,99.805 C649.686,100.175 649.59,100.31 649.513,100.393 C649.533,100.372 649.627,100.309 649.771,100.271 C649.914,100.232 650.027,100.239 650.054,100.247 C649.946,100.214 649.796,100.145 649.403,99.945 C649.402,99.944 649.402,99.944 649.402,99.944 C648.742,99.607 648.422,99.46 647.934,99.312 C647.121,99.063 646.298,99.014 645.454,99.24 C644.097,99.604 643.269,100.306 642.344,101.511 C642.394,101.446 641.896,102.104 641.775,102.254 C641.584,102.49 641.423,102.661 641.257,102.801 C641.371,102.705 641.411,102.69 641.36,102.697 C641.173,102.723 640.9,102.721 640.576,102.685 C640.701,102.699 640.823,102.86 640.801,102.985 C641.383,99.609 643.588,96.843 648.522,95.41 C653.809,93.875 657.755,94.445 660.553,96.099 C660.436,96.03 660.381,95.863 660.415,95.775 C659.999,96.828 659.481,97.511 659.136,97.626 Z" />
            <path d="M670.705,79.279 C665.915,81.195 660.763,90.124 660.765,94.99 C660.766,96.82 662.663,98.034 664.325,97.267 L686.069,87.232 C687.409,86.613 687.928,84.977 687.191,83.699 C684.337,78.757 676.323,77.032 670.705,79.279 Z M672.568,83.938 C676.07,82.538 681.387,83.682 682.845,86.208 L683.967,82.676 L662.223,92.711 L665.783,94.988 C665.782,92.049 669.829,85.033 672.568,83.938 Z" />
            <path d="M659.089,82.3 C662.971,83.68 663.539,89.513 661.102,93.734 L664.675,92.908 L644.606,79.397 L645.43,82.636 C645.737,82.046 647.402,81.333 649.909,81.109 C652.804,80.85 656.196,81.272 659.089,82.3 Z M660.769,77.572 C652.991,74.808 643.4,75.667 640.979,80.32 C640.39,81.452 640.745,82.846 641.804,83.559 L661.873,97.07 C663.079,97.882 664.72,97.502 665.447,96.243 C669.237,89.679 668.319,80.256 660.769,77.572 Z" />
            <path d="M669.964,132.62 C681.787,132.62 689.198,135.042 689.198,136.801 C689.198,136.67 689.225,136.597 689.206,136.622 C689.074,136.795 688.804,137.027 688.397,137.283 C687.381,137.924 685.775,138.558 683.712,139.108 C679.265,140.294 673.158,140.982 666.619,140.982 C660.08,140.982 653.973,140.294 649.526,139.108 C647.463,138.558 645.857,137.924 644.841,137.283 C644.434,137.027 644.164,136.795 644.031,136.622 C644.012,136.597 644.04,136.67 644.04,136.801 C644.04,136.93 644.012,137.006 644.026,136.988 C644.147,136.826 644.397,136.606 644.776,136.36 C645.94,135.607 646.272,134.054 645.519,132.891 C644.767,131.728 643.213,131.395 642.05,132.148 C640.172,133.364 639.023,134.899 639.023,136.801 C639.023,142.759 651.175,146 666.619,146 C682.062,146 694.215,142.759 694.215,136.801 C694.215,130.754 684.575,127.602 669.964,127.602 C668.578,127.602 667.455,128.726 667.455,130.111 C667.455,131.497 668.578,132.62 669.964,132.62 Z" />
        </g>
    </g>
</svg>