<?xml version="1.0" encoding="UTF-8"?>
<svg height="600" width="800" xmlns="http://www.w3.org/2000/svg" xmlns:xlink="http://www.w3.org/1999/xlink">
    <g id="Notes" font-family="'LucidaGrande', 'Lucida Grande', sans-serif" font-size="13">
        <rect fill="white" height="600.0" width="800.0" x="0.0" y="0.0" />
        <g font-size="13">
            <text x="18.0" y="176.0">Small</text>
            <text x="18.0" y="376.0">Medium</text>
            <text x="18.0" y="576.0">Large</text>
        </g>
        <g font-size="9">
            <text x="250.0" y="30.0">Ultralight</text>
            <text x="450.0" y="30.0">Regular</text>
            <text x="650.0" y="30.0">Black</text>
            <text id="template-version" fill="#505050" text-anchor="end" x="785.0" y="575.0">Template v.3.0</text>
            <a href="https://github.com/swhitty/SwiftDraw">
                <text fill="#505050" text-anchor="end" x="785.0" y="590.0">https://github.com/swhitty/SwiftDraw</text>
            </a>
        </g>
    </g>
    <g id="Guides" stroke="rgb(39, 170, 225)" stroke-width="0.5">
        <path id="Capline-S" d="M18,76 l800,0" />
        <path id="H-reference" d="M85,145.755 L87.685,145.755 L113.369,79.287 L114.052,79.287 L114.052,76 L112.148,76 L85,145.755 Z M95.693,121.536 L130.996,121.536 L130.263,119.313 L96.474,119.313 L95.693,121.536 Z M139.15,145.755 L141.787,145.755 L114.638,76 L113.466,76 L113.466,79.287 L139.15,145.755 Z" stroke="none" />
        <path id="Baseline-S" d="M18,146 l800,0" />
        <path id="left-margin-Ultralight-S" d="M219.9,56 l0,110" />
        <path id="right-margin-Ultralight-S" d="M310.1,56 l0,110" />
        <path id="left-margin-Regular-S" d="M419.9,56 l0,110" />
        <path id="right-margin-Regular-S" d="M510.1,56 l0,110" />
        <path id="left-margin-Black-S" d="M619.9,56 l0,110" />
        <path id="right-margin-Black-S" d="M710.1,56 l0,110" />
        <path id="Capline-M" d="M18,276 l800,0" />
        <path id="Baseline-M" d="M18,346 l800,0" />
        <path id="Capline-L" d="M18,476 l800,0" />
        <path id="Baseline-L" d="M18,546 l800,0" />
    </g>
    <g id="Symbols">
        <g id="Ultralight-S">
            <path d="M258.012,104.937 C257.686,104.122 257.431,103.362 257.241,102.684 C257.132,102.299 257.072,102.042 257.052,101.939 L254.165,102.501 L256.796,103.816 L261.417,94.573 C262.43,92.548 262.378,90.153 261.279,88.173 L256.482,79.532 C255.272,77.352 252.975,76 250.481,76 L240.535,76 C233.447,76 228.383,82.692 230.644,89.392 C233.832,98.839 237.868,107.86 242.82,115.476 C243.706,116.838 245.527,117.224 246.889,116.338 C248.251,115.453 248.637,113.631 247.752,112.269 C243.107,105.126 239.261,96.53 236.218,87.511 C235.268,84.697 237.398,81.883 240.535,81.883 L250.481,81.883 C250.838,81.883 251.166,82.076 251.339,82.387 L256.136,91.028 C256.293,91.311 256.3,91.653 256.155,91.943 L251.534,101.185 C251.244,101.766 251.154,102.425 251.278,103.062 C251.451,103.951 251.848,105.367 252.55,107.121 C253.153,108.629 254.864,109.363 256.373,108.76 C257.881,108.157 258.615,106.445 258.012,104.937 Z M268.313,123.269 C270.325,124.124 271.976,124.6 273.022,124.801 C273.657,124.922 274.314,124.832 274.892,124.543 L284.133,119.922 C284.422,119.777 284.765,119.785 285.048,119.942 L293.713,124.76 C294.024,124.933 294.217,125.261 294.217,125.617 L294.217,135.565 C294.217,138.702 291.401,140.832 288.586,139.881 C279.079,136.673 270.078,132.589 262.757,127.636 C261.412,126.726 259.583,127.079 258.673,128.424 C257.763,129.77 258.115,131.598 259.461,132.508 C267.287,137.803 276.739,142.092 286.705,145.455 C293.406,147.716 300.1,142.653 300.1,135.565 L300.1,125.617 C300.1,123.125 298.75,120.829 296.572,119.619 L287.906,114.801 C285.926,113.7 283.529,113.647 281.502,114.66 L272.261,119.281 L273.576,121.912 L274.13,119.023 C274.002,118.999 273.694,118.926 273.237,118.794 C272.439,118.564 271.554,118.254 270.615,117.855 C269.12,117.219 267.393,117.916 266.758,119.411 C266.122,120.906 266.819,122.633 268.313,123.269 Z" />
            <path d="M293.508,77.477 L230.762,140.224 C229.613,141.373 229.613,143.235 230.762,144.384 C231.91,145.533 233.772,145.533 234.921,144.384 L297.668,81.637 C298.817,80.488 298.817,78.626 297.668,77.477 C296.519,76.329 294.657,76.329 293.508,77.477 Z" />
        </g>
        <g id="Regular-S">
            <path d="M458.012,104.937 C457.686,104.122 457.431,103.362 457.241,102.684 C457.132,102.299 457.072,102.042 457.052,101.939 L454.165,102.501 L456.796,103.816 L461.417,94.573 C462.43,92.548 462.378,90.153 461.279,88.173 L456.482,79.532 C455.272,77.352 452.975,76 450.481,76 L440.535,76 C433.447,76 428.383,82.692 430.644,89.392 C433.832,98.839 437.868,107.86 442.82,115.476 C443.706,116.838 445.527,117.224 446.889,116.338 C448.251,115.453 448.637,113.631 447.752,112.269 C443.107,105.126 439.261,96.53 436.218,87.511 C435.268,84.697 437.398,81.883 440.535,81.883 L450.481,81.883 C450.838,81.883 451.166,82.076 451.339,82.387 L456.136,91.028 C456.293,91.311 456.3,91.653 456.155,91.943 L451.534,101.185 C451.244,101.766 451.154,102.425 451.278,103.062 C451.45,103.951 451.848,105.367 452.55,107.121 C453.153,108.629 454.864,109.363 456.373,108.76 C457.881,108.157 458.615,106.445 458.012,104.937 Z M468.313,123.269 C470.325,124.124 471.976,124.6 473.022,124.801 C473.657,124.922 474.314,124.832 474.892,124.543 L484.133,119.922 C484.422,119.777 484.765,119.785 485.048,119.942 L493.713,124.76 C494.024,124.933 494.217,125.261 494.217,125.617 L494.217,135.565 C494.217,138.702 491.401,140.832 488.586,139.881 C479.079,136.673 470.078,132.589 462.757,127.636 C461.412,126.726 459.583,127.079 458.673,128.424 C457.763,129.77 458.115,131.598 459.461,132.508 C467.287,137.803 476.739,142.092 486.705,145.455 C493.406,147.716 500.1,142.653 500.1,135.565 L500.1,125.617 C500.1,123.125 498.75,120.829 496.572,119.619 L487.906,114.801 C485.926,113.7 483.529,113.647 481.502,114.66 L472.261,119.281 L473.576,121.912 L474.13,119.023 C474.002,118.999 473.694,118.926 473.237,118.794 C472.439,118.564 471.554,118.254 470.615,117.855 C469.12,117.219 467.393,117.916 466.758,119.411 C466.122,120.906 466.819,122.633 468.313,123.269 Z" />
            <path d="M493.508,77.477 L430.762,140.224 C429.613,141.373 429.613,143.235 430.762,144.384 C431.91,145.533 433.772,145.533 434.921,144.384 L497.668,81.637 C498.817,80.488 498.817,78.626 497.668,77.477 C496.519,76.329 494.657,76.329 493.508,77.477 Z" />
        </g>
        <g id="Black-S">
            <path d="M658.012,104.937 C657.686,104.122 657.431,103.362 657.241,102.684 C657.132,102.299 657.072,102.042 657.052,101.939 L654.165,102.501 L656.796,103.816 L661.417,94.573 C662.43,92.548 662.378,90.153 661.279,88.173 L656.482,79.532 C655.272,77.352 652.975,76 650.481,76 L640.535,76 C633.447,76 628.383,82.692 630.644,89.392 C633.832,98.839 637.868,107.86 642.82,115.476 C643.706,116.838 645.527,117.224 646.889,116.338 C648.251,115.453 648.637,113.631 647.752,112.269 C643.107,105.126 639.261,96.53 636.218,87.511 C635.268,84.697 637.398,81.883 640.535,81.883 L650.481,81.883 C650.838,81.883 651.166,82.076 651.339,82.387 L656.136,91.028 C656.293,91.311 656.3,91.653 656.155,91.943 L651.534,101.185 C651.244,101.766 651.154,102.425 651.278,103.062 C651.451,103.951 651.848,105.367 652.55,107.121 C653.153,108.629 654.864,109.363 656.373,108.76 C657.881,108.157 658.615,106.445 658.012,104.937 Z M668.313,123.269 C670.325,124.124 671.976,124.6 673.022,124.801 C673.657,124.922 674.314,124.832 674.892,124.543 L684.133,119.922 C684.422,119.777 684.765,119.785 685.048,119.942 L693.713,124.76 C694.024,124.933 694.217,125.261 694.217,125.617 L694.217,135.565 C694.217,138.702 691.401,140.832 688.586,139.881 C679.079,136.673 670.078,132.589 662.757,127.636 C661.412,126.726 659.583,127.079 658.673,128.424 C657.763,129.77 658.115,131.598 659.461,132.508 C667.287,137.803 676.739,142.092 686.705,145.455 C693.406,147.716 700.1,142.653 700.1,135.565 L700.1,125.617 C700.1,123.125 698.75,120.829 696.572,119.619 L687.906,114.801 C685.926,113.7 683.529,113.647 681.502,114.66 L672.261,119.281 L673.576,121.912 L674.13,119.023 C674.002,118.999 673.694,118.926 673.237,118.794 C672.439,118.564 671.554,118.254 670.615,117.855 C669.12,117.219 667.393,117.916 666.758,119.411 C666.122,120.906 666.818,122.633 668.313,123.269 Z" />
            <path d="M693.508,77.477 L630.761,140.224 C629.613,141.373 629.613,143.235 630.761,144.384 C631.91,145.533 633.772,145.533 634.921,144.384 L697.668,81.637 C698.817,80.488 698.817,78.626 697.668,77.477 C696.519,76.329 694.657,76.329 693.508,77.477 Z" />
        </g>
    </g>
</svg>