<?xml version="1.0" encoding="UTF-8"?>
<svg height="600" width="800" xmlns="http://www.w3.org/2000/svg" xmlns:xlink="http://www.w3.org/1999/xlink">
    <g id="Notes" font-family="'LucidaGrande', 'Lucida Grande', sans-serif" font-size="13">
        <rect fill="white" height="600.0" width="800.0" x="0.0" y="0.0" />
        <g font-size="13">
            <text x="18.0" y="176.0">Small</text>
            <text x="18.0" y="376.0">Medium</text>
            <text x="18.0" y="576.0">Large</text>
        </g>
        <g font-size="9">
            <text x="250.0" y="30.0">Ultralight</text>
            <text x="450.0" y="30.0">Regular</text>
            <text x="650.0" y="30.0">Black</text>
            <text id="template-version" fill="#505050" text-anchor="end" x="785.0" y="575.0">Template v.3.0</text>
            <a href="https://github.com/swhitty/SwiftDraw">
                <text fill="#505050" text-anchor="end" x="785.0" y="590.0">https://github.com/swhitty/SwiftDraw</text>
            </a>
        </g>
    </g>
    <g id="Guides" stroke="rgb(39, 170, 225)" stroke-width="0.5">
        <path id="Capline-S" d="M18,76 l800,0" />
        <path id="H-reference" d="M85,145.755 L87.685,145.755 L113.369,79.287 L114.052,79.287 L114.052,76 L112.148,76 L85,145.755 Z M95.693,121.536 L130.996,121.536 L130.263,119.313 L96.474,119.313 L95.693,121.536 Z M139.15,145.755 L141.787,145.755 L114.638,76 L113.466,76 L113.466,79.287 L139.15,145.755 Z" stroke="none" />
        <path id="Baseline-S" d="M18,146 l800,0" />
        <path id="left-margin-Ultralight-S" d="M211,56 l0,110" />
        <path id="right-margin-Ultralight-S" d="M319,56 l0,110" />
        <path id="left-margin-Regular-S" d="M411,56 l0,110" />
        <path id="right-margin-Regular-S" d="M519,56 l0,110" />
        <path id="left-margin-Black-S" d="M611,56 l0,110" />
        <path id="right-margin-Black-S" d="M719,56 l0,110" />
        <path id="Capline-M" d="M18,276 l800,0" />
        <path id="Baseline-M" d="M18,346 l800,0" />
        <path id="Capline-L" d="M18,476 l800,0" />
        <path id="Baseline-L" d="M18,546 l800,0" />
    </g>
    <g id="Symbols">
        <g id="Ultralight-S">
            <path d="M245.558,92.581 L245.558,86.442 C245.558,81.356 241.435,77.233 236.349,77.233 C231.263,77.233 227.14,81.356 227.14,86.442 L227.14,100.767 C227.14,102.463 228.514,103.837 230.209,103.837 C231.905,103.837 233.279,102.463 233.279,100.767 L233.279,86.442 C233.279,84.746 234.653,83.372 236.349,83.372 C238.044,83.372 239.419,84.746 239.419,86.442 L239.419,92.581 C239.419,94.277 240.793,95.651 242.488,95.651 C244.184,95.651 245.558,94.277 245.558,92.581 Z" />
            <path d="M227.14,117.14 C227.14,105.272 236.76,95.651 248.628,95.651 C260.496,95.651 270.116,105.272 270.116,117.14 L270.116,141.698 L273.186,138.628 L224.07,138.628 L227.14,141.698 L227.14,117.14 Z M221,117.14 L221,141.698 C221,143.393 222.374,144.767 224.07,144.767 L273.186,144.767 C274.881,144.767 276.256,143.393 276.256,141.698 L276.256,117.14 C276.256,101.881 263.886,89.512 248.628,89.512 C233.369,89.512 221,101.881 221,117.14 Z" />
            <path d="M302.86,117.14 L302.86,141.698 L305.93,138.628 L273.186,138.628 L276.256,141.698 L276.256,117.14 L273.186,120.209 L305.93,120.209 L302.86,117.14 Z M309,117.14 C309,115.444 307.626,114.07 305.93,114.07 L273.186,114.07 C271.491,114.07 270.116,115.444 270.116,117.14 L270.116,141.698 C270.116,143.393 271.491,144.767 273.186,144.767 L305.93,144.767 C307.626,144.767 309,143.393 309,141.698 L309,117.14 Z" />
            <path d="M243.512,117.14 C243.512,114.314 245.802,112.023 248.628,112.023 C251.454,112.023 253.744,114.314 253.744,117.14 C253.744,119.965 251.454,122.256 248.628,122.256 C245.802,122.256 243.512,119.965 243.512,117.14 Z M237.372,117.14 C237.372,123.356 242.411,128.395 248.628,128.395 C254.844,128.395 259.884,123.356 259.884,117.14 C259.884,110.923 254.844,105.884 248.628,105.884 C242.411,105.884 237.372,110.923 237.372,117.14 Z" />
            <path d="M292.628,117.14 L292.628,125.326 C292.628,127.021 294.002,128.395 295.698,128.395 C297.393,128.395 298.767,127.021 298.767,125.326 L298.767,117.14 C298.767,115.444 297.393,114.07 295.698,114.07 C294.002,114.07 292.628,115.444 292.628,117.14 Z" />
            <path d="M280.349,117.14 L280.349,125.326 C280.349,127.021 281.723,128.395 283.419,128.395 C285.114,128.395 286.488,127.021 286.488,125.326 L286.488,117.14 C286.488,115.444 285.114,114.07 283.419,114.07 C281.723,114.07 280.349,115.444 280.349,117.14 Z" />
            <path d="M277.279,120.209 L301.837,120.209 C303.533,120.209 304.907,118.835 304.907,117.14 C304.907,115.444 303.533,114.07 301.837,114.07 L277.279,114.07 C275.584,114.07 274.209,115.444 274.209,117.14 C274.209,118.835 275.584,120.209 277.279,120.209 Z" />
        </g>
        <g id="Regular-S">
            <path d="M445.558,92.581 L445.558,86.442 C445.558,81.356 441.435,77.233 436.349,77.233 C431.263,77.233 427.14,81.356 427.14,86.442 L427.14,100.767 C427.14,102.463 428.514,103.837 430.209,103.837 C431.905,103.837 433.279,102.463 433.279,100.767 L433.279,86.442 C433.279,84.746 434.653,83.372 436.349,83.372 C438.044,83.372 439.419,84.746 439.419,86.442 L439.419,92.581 C439.419,94.277 440.793,95.651 442.488,95.651 C444.184,95.651 445.558,94.277 445.558,92.581 Z" />
            <path d="M427.14,117.14 C427.14,105.272 436.76,95.651 448.628,95.651 C460.496,95.651 470.116,105.272 470.116,117.14 L470.116,141.698 L473.186,138.628 L424.07,138.628 L427.14,141.698 L427.14,117.14 Z M421,117.14 L421,141.698 C421,143.393 422.374,144.767 424.07,144.767 L473.186,144.767 C474.881,144.767 476.256,143.393 476.256,141.698 L476.256,117.14 C476.256,101.881 463.886,89.512 448.628,89.512 C433.369,89.512 421,101.881 421,117.14 Z" />
            <path d="M502.86,117.14 L502.86,141.698 L505.93,138.628 L473.186,138.628 L476.256,141.698 L476.256,117.14 L473.186,120.209 L505.93,120.209 L502.86,117.14 Z M509,117.14 C509,115.444 507.626,114.07 505.93,114.07 L473.186,114.07 C471.491,114.07 470.116,115.444 470.116,117.14 L470.116,141.698 C470.116,143.393 471.491,144.767 473.186,144.767 L505.93,144.767 C507.626,144.767 509,143.393 509,141.698 L509,117.14 Z" />
            <path d="M443.512,117.14 C443.512,114.314 445.802,112.023 448.628,112.023 C451.454,112.023 453.744,114.314 453.744,117.14 C453.744,119.965 451.454,122.256 448.628,122.256 C445.802,122.256 443.512,119.965 443.512,117.14 Z M437.372,117.14 C437.372,123.356 442.411,128.395 448.628,128.395 C454.844,128.395 459.884,123.356 459.884,117.14 C459.884,110.923 454.844,105.884 448.628,105.884 C442.411,105.884 437.372,110.923 437.372,117.14 Z" />
            <path d="M492.628,117.14 L492.628,125.326 C492.628,127.021 494.002,128.395 495.698,128.395 C497.393,128.395 498.767,127.021 498.767,125.326 L498.767,117.14 C498.767,115.444 497.393,114.07 495.698,114.07 C494.002,114.07 492.628,115.444 492.628,117.14 Z" />
            <path d="M480.349,117.14 L480.349,125.326 C480.349,127.021 481.723,128.395 483.419,128.395 C485.114,128.395 486.488,127.021 486.488,125.326 L486.488,117.14 C486.488,115.444 485.114,114.07 483.419,114.07 C481.723,114.07 480.349,115.444 480.349,117.14 Z" />
            <path d="M477.279,120.209 L501.837,120.209 C503.533,120.209 504.907,118.835 504.907,117.14 C504.907,115.444 503.533,114.07 501.837,114.07 L477.279,114.07 C475.584,114.07 474.209,115.444 474.209,117.14 C474.209,118.835 475.584,120.209 477.279,120.209 Z" />
        </g>
        <g id="Black-S">
            <path d="M645.558,92.581 L645.558,86.442 C645.558,81.356 641.435,77.233 636.349,77.233 C631.263,77.233 627.14,81.356 627.14,86.442 L627.14,100.767 C627.14,102.463 628.514,103.837 630.209,103.837 C631.905,103.837 633.279,102.463 633.279,100.767 L633.279,86.442 C633.279,84.746 634.653,83.372 636.349,83.372 C638.044,83.372 639.419,84.746 639.419,86.442 L639.419,92.581 C639.419,94.277 640.793,95.651 642.488,95.651 C644.184,95.651 645.558,94.277 645.558,92.581 Z" />
            <path d="M627.14,117.14 C627.14,105.272 636.76,95.651 648.628,95.651 C660.496,95.651 670.116,105.272 670.116,117.14 L670.116,141.698 L673.186,138.628 L624.07,138.628 L627.14,141.698 L627.14,117.14 Z M621,117.14 L621,141.698 C621,143.393 622.374,144.767 624.07,144.767 L673.186,144.767 C674.881,144.767 676.256,143.393 676.256,141.698 L676.256,117.14 C676.256,101.881 663.886,89.512 648.628,89.512 C633.369,89.512 621,101.881 621,117.14 Z" />
            <path d="M702.86,117.14 L702.86,141.698 L705.93,138.628 L673.186,138.628 L676.256,141.698 L676.256,117.14 L673.186,120.209 L705.93,120.209 L702.86,117.14 Z M709,117.14 C709,115.444 707.626,114.07 705.93,114.07 L673.186,114.07 C671.491,114.07 670.116,115.444 670.116,117.14 L670.116,141.698 C670.116,143.393 671.491,144.767 673.186,144.767 L705.93,144.767 C707.626,144.767 709,143.393 709,141.698 L709,117.14 Z" />
            <path d="M643.512,117.14 C643.512,114.314 645.802,112.023 648.628,112.023 C651.454,112.023 653.744,114.314 653.744,117.14 C653.744,119.965 651.454,122.256 648.628,122.256 C645.802,122.256 643.512,119.965 643.512,117.14 Z M637.372,117.14 C637.372,123.356 642.411,128.395 648.628,128.395 C654.844,128.395 659.884,123.356 659.884,117.14 C659.884,110.923 654.844,105.884 648.628,105.884 C642.411,105.884 637.372,110.923 637.372,117.14 Z" />
            <path d="M692.628,117.14 L692.628,125.326 C692.628,127.021 694.002,128.395 695.698,128.395 C697.393,128.395 698.767,127.021 698.767,125.326 L698.767,117.14 C698.767,115.444 697.393,114.07 695.698,114.07 C694.002,114.07 692.628,115.444 692.628,117.14 Z" />
            <path d="M680.349,117.14 L680.349,125.326 C680.349,127.021 681.723,128.395 683.419,128.395 C685.114,128.395 686.488,127.021 686.488,125.326 L686.488,117.14 C686.488,115.444 685.114,114.07 683.419,114.07 C681.723,114.07 680.349,115.444 680.349,117.14 Z" />
            <path d="M677.279,120.209 L701.837,120.209 C703.533,120.209 704.907,118.835 704.907,117.14 C704.907,115.444 703.533,114.07 701.837,114.07 L677.279,114.07 C675.584,114.07 674.209,115.444 674.209,117.14 C674.209,118.835 675.584,120.209 677.279,120.209 Z" />
        </g>
    </g>
</svg>