<?xml version="1.0" encoding="UTF-8"?>
<svg height="600" width="800" xmlns="http://www.w3.org/2000/svg" xmlns:xlink="http://www.w3.org/1999/xlink">
    <g id="Notes" font-family="'LucidaGrande', 'Lucida Grande', sans-serif" font-size="13">
        <rect fill="white" height="600.0" width="800.0" x="0.0" y="0.0" />
        <g font-size="13">
            <text x="18.0" y="176.0">Small</text>
            <text x="18.0" y="376.0">Medium</text>
            <text x="18.0" y="576.0">Large</text>
        </g>
        <g font-size="9">
            <text x="250.0" y="30.0">Ultralight</text>
            <text x="450.0" y="30.0">Regular</text>
            <text x="650.0" y="30.0">Black</text>
            <text id="template-version" fill="#505050" text-anchor="end" x="785.0" y="575.0">Template v.3.0</text>
            <a href="https://github.com/swhitty/SwiftDraw">
                <text fill="#505050" text-anchor="end" x="785.0" y="590.0">https://github.com/swhitty/SwiftDraw</text>
            </a>
        </g>
    </g>
    <g id="Guides" stroke="rgb(39, 170, 225)" stroke-width="0.5">
        <path id="Capline-S" d="M18,76 l800,0" />
        <path id="H-reference" d="M85,145.755 L87.685,145.755 L113.369,79.287 L114.052,79.287 L114.052,76 L112.148,76 L85,145.755 Z M95.693,121.536 L130.996,121.536 L130.263,119.313 L96.474,119.313 L95.693,121.536 Z M139.15,145.755 L141.787,145.755 L114.638,76 L113.466,76 L113.466,79.287 L139.15,145.755 Z" stroke="none" />
        <path id="Baseline-S" d="M18,146 l800,0" />
        <path id="left-margin-Ultralight-S" d="M221,56 l0,110" />
        <path id="right-margin-Ultralight-S" d="M309,56 l0,110" />
        <path id="left-margin-Regular-S" d="M421,56 l0,110" />
        <path id="right-margin-Regular-S" d="M509,56 l0,110" />
        <path id="left-margin-Black-S" d="M621,56 l0,110" />
        <path id="right-margin-Black-S" d="M709,56 l0,110" />
        <path id="Capline-M" d="M18,276 l800,0" />
        <path id="Baseline-M" d="M18,346 l800,0" />
        <path id="Capline-L" d="M18,476 l800,0" />
        <path id="Baseline-L" d="M18,546 l800,0" />
    </g>
    <g id="Symbols">
        <g id="Ultralight-S">
            <path d="M291.86,109.372 L291.86,94.721 C291.86,94.118 291.637,93.536 291.234,93.087 L276.582,76.808 C276.119,76.294 275.46,76 274.767,76 L240.581,76 C237.435,76 234.884,78.551 234.884,81.698 L234.884,140.302 C234.884,143.449 237.435,146 240.581,146 L260.116,146 C261.465,146 262.558,144.907 262.558,143.558 C262.558,142.21 261.465,141.116 260.116,141.116 L240.581,141.116 C240.132,141.116 239.767,140.752 239.767,140.302 L239.767,81.698 C239.767,81.248 240.132,80.884 240.581,80.884 L274.767,80.884 L272.952,80.075 L287.604,96.354 L286.977,94.721 L286.977,109.372 C286.977,110.721 288.07,111.814 289.419,111.814 C290.767,111.814 291.86,110.721 291.86,109.372 Z" />
            <path d="M282.808,124.122 L290.948,132.262 L290.948,128.808 L282.808,136.948 C281.855,137.901 281.855,139.447 282.808,140.401 C283.762,141.355 285.308,141.355 286.262,140.401 L294.401,132.262 C295.355,131.308 295.355,129.762 294.401,128.808 L286.262,120.669 C285.308,119.715 283.762,119.715 282.808,120.669 C281.855,121.622 281.855,123.168 282.808,124.122 Z" />
            <path d="M273.041,120.669 L264.901,128.808 C263.948,129.762 263.948,131.308 264.901,132.262 L273.041,140.401 C273.994,141.355 275.54,141.355 276.494,140.401 C277.448,139.447 277.448,137.901 276.494,136.948 L268.355,128.808 L268.355,132.262 L276.494,124.122 C277.448,123.168 277.448,121.622 276.494,120.669 C275.54,119.715 273.994,119.715 273.041,120.669 Z" />
            <path d="M270.698,78.442 L270.698,94.721 C270.698,96.07 271.791,97.163 273.14,97.163 L289.419,97.163 C290.767,97.163 291.86,96.07 291.86,94.721 C291.86,93.372 290.767,92.279 289.419,92.279 L273.14,92.279 L275.581,94.721 L275.581,78.442 C275.581,77.093 274.488,76 273.14,76 C271.791,76 270.698,77.093 270.698,78.442 Z" />
        </g>
        <g id="Regular-S">
            <path d="M491.86,109.372 L491.86,94.721 C491.86,94.118 491.637,93.536 491.234,93.087 L476.582,76.808 C476.119,76.294 475.46,76 474.767,76 L440.581,76 C437.435,76 434.884,78.551 434.884,81.698 L434.884,140.302 C434.884,143.449 437.435,146 440.581,146 L460.116,146 C461.465,146 462.558,144.907 462.558,143.558 C462.558,142.21 461.465,141.116 460.116,141.116 L440.581,141.116 C440.132,141.116 439.767,140.752 439.767,140.302 L439.767,81.698 C439.767,81.248 440.132,80.884 440.581,80.884 L474.767,80.884 L472.952,80.075 L487.604,96.354 L486.977,94.721 L486.977,109.372 C486.977,110.721 488.07,111.814 489.419,111.814 C490.767,111.814 491.86,110.721 491.86,109.372 Z" />
            <path d="M482.808,124.122 L490.948,132.262 L490.948,128.808 L482.808,136.948 C481.855,137.901 481.855,139.447 482.808,140.401 C483.762,141.355 485.308,141.355 486.262,140.401 L494.401,132.262 C495.355,131.308 495.355,129.762 494.401,128.808 L486.262,120.669 C485.308,119.715 483.762,119.715 482.808,120.669 C481.855,121.622 481.855,123.168 482.808,124.122 Z" />
            <path d="M473.041,120.669 L464.901,128.808 C463.948,129.762 463.948,131.308 464.901,132.262 L473.041,140.401 C473.994,141.355 475.54,141.355 476.494,140.401 C477.448,139.447 477.448,137.901 476.494,136.948 L468.355,128.808 L468.355,132.262 L476.494,124.122 C477.448,123.168 477.448,121.622 476.494,120.669 C475.54,119.715 473.994,119.715 473.041,120.669 Z" />
            <path d="M470.698,78.442 L470.698,94.721 C470.698,96.07 471.791,97.163 473.14,97.163 L489.419,97.163 C490.767,97.163 491.86,96.07 491.86,94.721 C491.86,93.372 490.767,92.279 489.419,92.279 L473.14,92.279 L475.581,94.721 L475.581,78.442 C475.581,77.093 474.488,76 473.14,76 C471.791,76 470.698,77.093 470.698,78.442 Z" />
        </g>
        <g id="Black-S">
            <path d="M691.86,109.372 L691.86,94.721 C691.86,94.118 691.637,93.536 691.234,93.087 L676.582,76.808 C676.119,76.294 675.46,76 674.767,76 L640.581,76 C637.435,76 634.884,78.551 634.884,81.698 L634.884,140.302 C634.884,143.449 637.435,146 640.581,146 L660.116,146 C661.465,146 662.558,144.907 662.558,143.558 C662.558,142.21 661.465,141.116 660.116,141.116 L640.581,141.116 C640.132,141.116 639.767,140.752 639.767,140.302 L639.767,81.698 C639.767,81.248 640.132,80.884 640.581,80.884 L674.767,80.884 L672.952,80.075 L687.604,96.354 L686.977,94.721 L686.977,109.372 C686.977,110.721 688.07,111.814 689.419,111.814 C690.767,111.814 691.86,110.721 691.86,109.372 Z" />
            <path d="M682.808,124.122 L690.948,132.262 L690.948,128.808 L682.808,136.948 C681.855,137.901 681.855,139.447 682.808,140.401 C683.762,141.355 685.308,141.355 686.262,140.401 L694.401,132.262 C695.355,131.308 695.355,129.762 694.401,128.808 L686.262,120.669 C685.308,119.715 683.762,119.715 682.808,120.669 C681.855,121.622 681.855,123.168 682.808,124.122 Z" />
            <path d="M673.041,120.669 L664.901,128.808 C663.948,129.762 663.948,131.308 664.901,132.262 L673.041,140.401 C673.994,141.355 675.54,141.355 676.494,140.401 C677.448,139.447 677.448,137.901 676.494,136.948 L668.355,128.808 L668.355,132.262 L676.494,124.122 C677.448,123.168 677.448,121.622 676.494,120.669 C675.54,119.715 673.994,119.715 673.041,120.669 Z" />
            <path d="M670.698,78.442 L670.698,94.721 C670.698,96.07 671.791,97.163 673.14,97.163 L689.419,97.163 C690.767,97.163 691.86,96.07 691.86,94.721 C691.86,93.372 690.767,92.279 689.419,92.279 L673.14,92.279 L675.581,94.721 L675.581,78.442 C675.581,77.093 674.488,76 673.14,76 C671.791,76 670.698,77.093 670.698,78.442 Z" />
        </g>
    </g>
</svg>