<?xml version="1.0" encoding="UTF-8"?>
<svg height="600" width="800" xmlns="http://www.w3.org/2000/svg" xmlns:xlink="http://www.w3.org/1999/xlink">
    <g id="Notes" font-family="'LucidaGrande', 'Lucida Grande', sans-serif" font-size="13">
        <rect fill="white" height="600.0" width="800.0" x="0.0" y="0.0" />
        <g font-size="13">
            <text x="18.0" y="176.0">Small</text>
            <text x="18.0" y="376.0">Medium</text>
            <text x="18.0" y="576.0">Large</text>
        </g>
        <g font-size="9">
            <text x="250.0" y="30.0">Ultralight</text>
            <text x="450.0" y="30.0">Regular</text>
            <text x="650.0" y="30.0">Black</text>
            <text id="template-version" fill="#505050" text-anchor="end" x="785.0" y="575.0">Template v.3.0</text>
            <a href="https://github.com/swhitty/SwiftDraw">
                <text fill="#505050" text-anchor="end" x="785.0" y="590.0">https://github.com/swhitty/SwiftDraw</text>
            </a>
        </g>
    </g>
    <g id="Guides" stroke="rgb(39, 170, 225)" stroke-width="0.5">
        <path id="Capline-S" d="M18,76 l800,0" />
        <path id="H-reference" d="M85,145.755 L87.685,145.755 L113.369,79.287 L114.052,79.287 L114.052,76 L112.148,76 L85,145.755 Z M95.693,121.536 L130.996,121.536 L130.263,119.313 L96.474,119.313 L95.693,121.536 Z M139.15,145.755 L141.787,145.755 L114.638,76 L113.466,76 L113.466,79.287 L139.15,145.755 Z" stroke="none" />
        <path id="Baseline-S" d="M18,146 l800,0" />
        <path id="left-margin-Ultralight-S" d="M215.928,56 l0,110" />
        <path id="right-margin-Ultralight-S" d="M314.072,56 l0,110" />
        <path id="left-margin-Regular-S" d="M415.928,56 l0,110" />
        <path id="right-margin-Regular-S" d="M514.072,56 l0,110" />
        <path id="left-margin-Black-S" d="M615.928,56 l0,110" />
        <path id="right-margin-Black-S" d="M714.072,56 l0,110" />
        <path id="Capline-M" d="M18,276 l800,0" />
        <path id="Baseline-M" d="M18,346 l800,0" />
        <path id="Capline-L" d="M18,476 l800,0" />
        <path id="Baseline-L" d="M18,546 l800,0" />
    </g>
    <g id="Symbols">
        <g id="Ultralight-S">
            <path d="M294.985,114.197 C294.985,128.674 281.627,140.548 265,140.548 C248.373,140.548 235.015,128.674 235.015,114.197 C235.015,112.692 233.794,111.471 232.289,111.471 C230.783,111.471 229.563,112.692 229.563,114.197 C229.563,131.838 245.495,146 265,146 C284.505,146 300.437,131.838 300.437,114.197 C300.437,112.692 299.217,111.471 297.711,111.471 C296.206,111.471 294.985,112.692 294.985,114.197 Z M249.891,91.435 C254.436,89.098 259.61,87.846 265,87.846 C270.39,87.846 275.564,89.098 280.109,91.435 C281.448,92.123 283.092,91.596 283.78,90.257 C284.468,88.918 283.941,87.275 282.602,86.586 C277.285,83.852 271.257,82.395 265,82.395 C258.743,82.395 252.715,83.852 247.398,86.586 C246.059,87.275 245.532,88.918 246.22,90.257 C246.908,91.596 248.552,92.123 249.891,91.435 Z" />
            <path d="M235.015,114.197 L235.015,82.373 C235.015,81.587 235.946,81.171 236.531,81.697 L246.822,90.951 C247.941,91.958 249.665,91.866 250.671,90.747 C251.678,89.627 251.586,87.904 250.467,86.897 L240.176,77.643 C236.082,73.962 229.563,76.868 229.563,82.373 L229.563,114.197 C229.563,115.703 230.783,116.923 232.289,116.923 C233.794,116.923 235.015,115.703 235.015,114.197 Z" />
            <path d="M300.437,114.197 L300.437,82.373 C300.437,76.868 293.917,73.962 289.824,77.643 L279.533,86.897 C278.414,87.904 278.322,89.627 279.329,90.747 C280.335,91.866 282.059,91.958 283.178,90.951 L293.469,81.697 C294.054,81.172 294.985,81.587 294.985,82.373 L294.985,114.197 C294.985,115.703 296.206,116.923 297.711,116.923 C299.217,116.923 300.437,115.703 300.437,114.197 Z" />
            <path d="M272.269,106.928 C272.269,104.921 273.896,103.294 275.904,103.294 C277.911,103.294 279.538,104.921 279.538,106.928 C279.538,108.935 277.911,110.563 275.904,110.563 C273.896,110.563 272.269,108.935 272.269,106.928 Z" />
            <path d="M250.462,106.928 C250.462,104.921 252.089,103.294 254.096,103.294 C256.104,103.294 257.731,104.921 257.731,106.928 C257.731,108.935 256.104,110.563 254.096,110.563 C252.089,110.563 250.462,108.935 250.462,106.928 Z" />
            <path d="M261.365,117.832 C261.365,115.825 262.993,114.197 265,114.197 C267.007,114.197 268.635,115.825 268.635,117.832 C268.635,119.839 267.007,121.466 265,121.466 C262.993,121.466 261.365,119.839 261.365,117.832 Z" />
            <path d="M250.235,118.75 L228.428,120.567 C226.927,120.692 225.812,122.01 225.938,123.51 C226.063,125.01 227.38,126.125 228.88,126 L250.688,124.183 C252.188,124.058 253.303,122.74 253.178,121.24 C253.053,119.74 251.736,118.625 250.235,118.75 Z" />
            <path d="M254.694,128.115 L232.887,139.019 C231.54,139.692 230.995,141.329 231.668,142.676 C232.341,144.022 233.978,144.568 235.325,143.895 L257.133,132.991 C258.479,132.318 259.025,130.68 258.352,129.334 C257.678,127.987 256.041,127.442 254.694,128.115 Z" />
            <path d="M279.312,124.183 L301.12,126 C302.62,126.125 303.937,125.01 304.062,123.51 C304.188,122.01 303.073,120.692 301.572,120.567 L279.765,118.75 C278.264,118.625 276.947,119.74 276.822,121.24 C276.697,122.74 277.812,124.058 279.312,124.183 Z" />
            <path d="M272.867,132.991 L294.675,143.895 C296.022,144.568 297.659,144.022 298.332,142.676 C299.005,141.329 298.46,139.692 297.113,139.019 L275.306,128.115 C273.959,127.442 272.322,127.987 271.648,129.334 C270.975,130.68 271.521,132.318 272.867,132.991 Z" />
        </g>
        <g id="Regular-S">
            <path d="M494.985,114.197 C494.985,128.674 481.627,140.548 465,140.548 C448.373,140.548 435.015,128.674 435.015,114.197 C435.015,112.692 433.794,111.471 432.289,111.471 C430.783,111.471 429.563,112.692 429.563,114.197 C429.563,131.838 445.495,146 465,146 C484.505,146 500.437,131.838 500.437,114.197 C500.437,112.692 499.217,111.471 497.711,111.471 C496.206,111.471 494.985,112.692 494.985,114.197 Z M449.891,91.435 C454.436,89.098 459.61,87.846 465,87.846 C470.39,87.846 475.564,89.098 480.109,91.435 C481.448,92.123 483.092,91.596 483.78,90.257 C484.468,88.918 483.941,87.275 482.602,86.586 C477.285,83.852 471.257,82.395 465,82.395 C458.743,82.395 452.715,83.852 447.398,86.586 C446.059,87.275 445.532,88.918 446.22,90.257 C446.908,91.596 448.552,92.123 449.891,91.435 Z" />
            <path d="M435.015,114.197 L435.015,82.373 C435.015,81.587 435.946,81.171 436.531,81.697 L446.822,90.951 C447.941,91.958 449.665,91.866 450.671,90.747 C451.678,89.627 451.586,87.904 450.467,86.897 L440.176,77.643 C436.082,73.962 429.563,76.868 429.563,82.373 L429.563,114.197 C429.563,115.703 430.783,116.923 432.289,116.923 C433.794,116.923 435.015,115.703 435.015,114.197 Z" />
            <path d="M500.437,114.197 L500.437,82.373 C500.437,76.868 493.917,73.962 489.824,77.643 L479.533,86.897 C478.414,87.904 478.322,89.627 479.329,90.747 C480.335,91.866 482.059,91.958 483.178,90.951 L493.469,81.697 C494.054,81.172 494.985,81.587 494.985,82.373 L494.985,114.197 C494.985,115.703 496.206,116.923 497.711,116.923 C499.217,116.923 500.437,115.703 500.437,114.197 Z" />
            <path d="M472.269,106.928 C472.269,104.921 473.896,103.294 475.904,103.294 C477.911,103.294 479.538,104.921 479.538,106.928 C479.538,108.935 477.911,110.563 475.904,110.563 C473.896,110.563 472.269,108.935 472.269,106.928 Z" />
            <path d="M450.462,106.928 C450.462,104.921 452.089,103.294 454.096,103.294 C456.104,103.294 457.731,104.921 457.731,106.928 C457.731,108.935 456.104,110.563 454.096,110.563 C452.089,110.563 450.462,108.935 450.462,106.928 Z" />
            <path d="M461.365,117.832 C461.365,115.825 462.993,114.197 465,114.197 C467.007,114.197 468.635,115.825 468.635,117.832 C468.635,119.839 467.007,121.466 465,121.466 C462.993,121.466 461.365,119.839 461.365,117.832 Z" />
            <path d="M450.235,118.75 L428.428,120.567 C426.927,120.692 425.812,122.01 425.938,123.51 C426.063,125.01 427.38,126.125 428.88,126 L450.688,124.183 C452.188,124.058 453.303,122.74 453.178,121.24 C453.053,119.74 451.736,118.625 450.235,118.75 Z" />
            <path d="M454.694,128.115 L432.887,139.019 C431.54,139.692 430.995,141.329 431.668,142.676 C432.341,144.022 433.978,144.568 435.325,143.895 L457.133,132.991 C458.479,132.318 459.025,130.68 458.352,129.334 C457.678,127.987 456.041,127.442 454.694,128.115 Z" />
            <path d="M479.312,124.183 L501.12,126 C502.62,126.125 503.937,125.01 504.062,123.51 C504.188,122.01 503.073,120.692 501.572,120.567 L479.765,118.75 C478.264,118.625 476.947,119.74 476.822,121.24 C476.697,122.74 477.812,124.058 479.312,124.183 Z" />
            <path d="M472.867,132.991 L494.675,143.895 C496.022,144.568 497.659,144.022 498.332,142.676 C499.005,141.329 498.46,139.692 497.113,139.019 L475.306,128.115 C473.959,127.442 472.322,127.987 471.648,129.334 C470.975,130.68 471.521,132.318 472.867,132.991 Z" />
        </g>
        <g id="Black-S">
            <path d="M694.985,114.197 C694.985,128.674 681.627,140.548 665,140.548 C648.373,140.548 635.015,128.674 635.015,114.197 C635.015,112.692 633.794,111.471 632.289,111.471 C630.783,111.471 629.563,112.692 629.563,114.197 C629.563,131.838 645.495,146 665,146 C684.505,146 700.437,131.838 700.437,114.197 C700.437,112.692 699.217,111.471 697.711,111.471 C696.206,111.471 694.985,112.692 694.985,114.197 Z M649.891,91.435 C654.436,89.098 659.61,87.846 665,87.846 C670.39,87.846 675.564,89.098 680.109,91.435 C681.448,92.123 683.091,91.596 683.78,90.257 C684.468,88.918 683.941,87.275 682.602,86.586 C677.285,83.852 671.257,82.395 665,82.395 C658.743,82.395 652.715,83.852 647.398,86.586 C646.059,87.275 645.532,88.918 646.22,90.257 C646.908,91.596 648.552,92.123 649.891,91.435 Z" />
            <path d="M635.015,114.197 L635.015,82.373 C635.015,81.587 635.946,81.171 636.531,81.697 L646.822,90.951 C647.941,91.958 649.665,91.866 650.671,90.747 C651.678,89.627 651.586,87.904 650.467,86.897 L640.176,77.643 C636.082,73.962 629.563,76.868 629.563,82.373 L629.563,114.197 C629.563,115.703 630.783,116.923 632.289,116.923 C633.794,116.923 635.015,115.703 635.015,114.197 Z" />
            <path d="M700.437,114.197 L700.437,82.373 C700.437,76.868 693.917,73.962 689.824,77.643 L679.533,86.897 C678.414,87.904 678.322,89.627 679.329,90.747 C680.335,91.866 682.059,91.958 683.178,90.951 L693.469,81.697 C694.054,81.172 694.985,81.587 694.985,82.373 L694.985,114.197 C694.985,115.703 696.206,116.923 697.711,116.923 C699.217,116.923 700.437,115.703 700.437,114.197 Z" />
            <path d="M672.269,106.928 C672.269,104.921 673.896,103.294 675.904,103.294 C677.911,103.294 679.538,104.921 679.538,106.928 C679.538,108.935 677.911,110.563 675.904,110.563 C673.896,110.563 672.269,108.935 672.269,106.928 Z" />
            <path d="M650.462,106.928 C650.462,104.921 652.089,103.294 654.096,103.294 C656.104,103.294 657.731,104.921 657.731,106.928 C657.731,108.935 656.104,110.563 654.096,110.563 C652.089,110.563 650.462,108.935 650.462,106.928 Z" />
            <path d="M661.365,117.832 C661.365,115.825 662.993,114.197 665,114.197 C667.007,114.197 668.635,115.825 668.635,117.832 C668.635,119.839 667.007,121.466 665,121.466 C662.993,121.466 661.365,119.839 661.365,117.832 Z" />
            <path d="M650.235,118.75 L628.428,120.567 C626.927,120.692 625.812,122.01 625.938,123.51 C626.062,125.01 627.38,126.125 628.88,126 L650.688,124.183 C652.188,124.058 653.303,122.74 653.178,121.24 C653.053,119.74 651.736,118.625 650.235,118.75 Z" />
            <path d="M654.694,128.115 L632.887,139.019 C631.54,139.692 630.994,141.329 631.668,142.676 C632.341,144.022 633.978,144.568 635.325,143.895 L657.133,132.991 C658.479,132.318 659.025,130.68 658.352,129.334 C657.678,127.987 656.041,127.442 654.694,128.115 Z" />
            <path d="M679.312,124.183 L701.12,126 C702.62,126.125 703.937,125.01 704.062,123.51 C704.188,122.01 703.073,120.692 701.572,120.567 L679.765,118.75 C678.264,118.625 676.947,119.74 676.822,121.24 C676.697,122.74 677.812,124.058 679.312,124.183 Z" />
            <path d="M672.867,132.991 L694.675,143.895 C696.021,144.568 697.659,144.022 698.332,142.676 C699.005,141.329 698.46,139.692 697.113,139.019 L675.306,128.115 C673.959,127.442 672.322,127.987 671.648,129.334 C670.975,130.68 671.521,132.318 672.867,132.991 Z" />
        </g>
    </g>
</svg>