<?xml version="1.0" encoding="UTF-8"?>
<svg height="600" width="800" xmlns="http://www.w3.org/2000/svg" xmlns:xlink="http://www.w3.org/1999/xlink">
    <g id="Notes" font-family="'LucidaGrande', 'Lucida Grande', sans-serif" font-size="13">
        <rect fill="white" height="600.0" width="800.0" x="0.0" y="0.0" />
        <g font-size="13">
            <text x="18.0" y="176.0">Small</text>
            <text x="18.0" y="376.0">Medium</text>
            <text x="18.0" y="576.0">Large</text>
        </g>
        <g font-size="9">
            <text x="250.0" y="30.0">Ultralight</text>
            <text x="450.0" y="30.0">Regular</text>
            <text x="650.0" y="30.0">Black</text>
            <text id="template-version" fill="#505050" text-anchor="end" x="785.0" y="575.0">Template v.3.0</text>
            <a href="https://github.com/swhitty/SwiftDraw">
                <text fill="#505050" text-anchor="end" x="785.0" y="590.0">https://github.com/swhitty/SwiftDraw</text>
            </a>
        </g>
    </g>
    <g id="Guides" stroke="rgb(39, 170, 225)" stroke-width="0.5">
        <path id="Capline-S" d="M18,76 l800,0" />
        <path id="H-reference" d="M85,145.755 L87.685,145.755 L113.369,79.287 L114.052,79.287 L114.052,76 L112.148,76 L85,145.755 Z M95.693,121.536 L130.996,121.536 L130.263,119.313 L96.474,119.313 L95.693,121.536 Z M139.15,145.755 L141.787,145.755 L114.638,76 L113.466,76 L113.466,79.287 L139.15,145.755 Z" stroke="none" />
        <path id="Baseline-S" d="M18,146 l800,0" />
        <path id="left-margin-Ultralight-S" d="M220,56 l0,110" />
        <path id="right-margin-Ultralight-S" d="M310,56 l0,110" />
        <path id="left-margin-Regular-S" d="M420,56 l0,110" />
        <path id="right-margin-Regular-S" d="M510,56 l0,110" />
        <path id="left-margin-Black-S" d="M620,56 l0,110" />
        <path id="right-margin-Black-S" d="M710,56 l0,110" />
        <path id="Capline-M" d="M18,276 l800,0" />
        <path id="Baseline-M" d="M18,346 l800,0" />
        <path id="Capline-L" d="M18,476 l800,0" />
        <path id="Baseline-L" d="M18,546 l800,0" />
    </g>
    <g id="Symbols">
        <g id="Ultralight-S">
            <path d="M242.209,146 C248.952,146 254.419,140.534 254.419,133.791 L254.419,110.21 C254.419,108.861 253.325,107.768 251.977,107.768 C250.628,107.768 249.535,108.861 249.535,110.21 L249.535,133.791 C249.535,137.836 246.255,141.116 242.209,141.116 C240.861,141.116 239.767,142.21 239.767,143.558 C239.767,144.907 240.861,146 242.209,146 Z M242.209,141.116 C238.163,141.116 234.884,137.837 234.884,133.791 L234.884,78.442 L232.442,80.884 L251.977,80.884 L249.535,78.442 L249.535,110.21 C249.535,111.559 250.628,112.652 251.977,112.652 C253.325,112.652 254.419,111.559 254.419,110.21 L254.419,78.442 C254.419,77.093 253.325,76 251.977,76 L232.442,76 C231.093,76 230,77.093 230,78.442 L230,133.791 C230,140.534 235.466,146 242.209,146 C243.558,146 244.651,144.907 244.651,143.558 C244.651,142.21 243.558,141.116 242.209,141.116 Z M242.209,146 L297.558,146 C298.907,146 300,144.907 300,143.558 L300,124.023 C300,122.675 298.907,121.581 297.558,121.581 L265.79,121.581 C264.441,121.581 263.348,122.675 263.348,124.023 C263.348,125.372 264.441,126.465 265.79,126.465 L297.558,126.465 L295.116,124.023 L295.116,143.558 L297.558,141.116 L242.209,141.116 C240.861,141.116 239.767,142.21 239.767,143.558 C239.767,144.907 240.861,146 242.209,146 Z M233.576,142.424 C238.344,147.192 246.075,147.192 250.843,142.424 L267.517,125.75 C268.47,124.796 268.47,123.25 267.517,122.297 C266.563,121.343 265.017,121.343 264.063,122.297 L247.389,138.971 C244.528,141.831 239.89,141.831 237.029,138.971 C236.076,138.017 234.53,138.017 233.576,138.971 C232.622,139.924 232.622,141.47 233.576,142.424 Z M253.703,111.937 L284.658,80.982 L285.475,80.115 L283.697,78.442 L281.97,80.169 L295.808,94.006 L295.808,90.552 L264.063,122.297 C263.11,123.25 263.11,124.796 264.063,125.75 C265.017,126.704 266.563,126.704 267.517,125.75 L299.261,94.006 C300.214,93.052 300.214,91.506 299.261,90.552 L285.424,76.715 C284.45,75.741 282.863,75.765 281.919,76.768 L281.153,77.582 L250.25,108.483 C249.296,109.437 249.296,110.983 250.25,111.937 C251.204,112.89 252.75,112.89 253.703,111.937 Z" />
            <path d="M250.843,142.424 L299.261,94.006 C300.214,93.052 300.214,91.506 299.261,90.552 L285.424,76.715 C284.47,75.761 282.922,75.762 281.969,76.717 L250.249,108.485 C249.296,109.439 249.297,110.985 250.251,111.938 C251.206,112.891 252.752,112.89 253.705,111.935 L285.425,80.167 L281.97,80.169 L295.808,94.006 L295.808,90.552 L247.389,138.971 C246.436,139.924 246.436,141.47 247.389,142.424 C248.343,143.378 249.889,143.378 250.843,142.424 Z" />
            <path d="M265.79,126.465 L297.558,126.465 L295.116,124.023 L295.116,143.558 L297.558,141.116 L246.279,141.116 C244.93,141.116 243.837,142.21 243.837,143.558 C243.837,144.907 244.93,146 246.279,146 L297.558,146 C298.907,146 300,144.907 300,143.558 L300,124.023 C300,122.675 298.907,121.581 297.558,121.581 L265.79,121.581 C264.441,121.581 263.348,122.675 263.348,124.023 C263.348,125.372 264.441,126.465 265.79,126.465 Z" />
            <path d="M265.79,126.465 L297.558,126.465 L295.116,124.023 L295.116,143.558 L297.558,141.116 L246.279,141.116 C244.93,141.116 243.837,142.21 243.837,143.558 C243.837,144.907 244.93,146 246.279,146 L297.558,146 C298.907,146 300,144.907 300,143.558 L300,124.023 C300,122.675 298.907,121.581 297.558,121.581 L265.79,121.581 C264.441,121.581 263.348,122.675 263.348,124.023 C263.348,125.372 264.441,126.465 265.79,126.465 Z" />
            <path d="M242.209,146 C248.952,146 254.419,140.534 254.419,133.791 L254.419,110.21 L254.419,78.442 C254.419,77.093 253.325,76 251.977,76 L232.442,76 C231.093,76 230,77.093 230,78.442 L230,133.791 C230,140.534 235.466,146 242.209,146 Z M242.209,141.116 C238.163,141.116 234.884,137.837 234.884,133.791 L234.884,78.442 L232.442,80.884 L251.977,80.884 L249.535,78.442 L249.535,110.21 L249.535,133.791 C249.535,137.836 246.255,141.116 242.209,141.116 Z" />
        </g>
        <g id="Regular-S">
            <path d="M442.209,146 C448.952,146 454.419,140.534 454.419,133.791 L454.419,110.21 C454.419,108.861 453.325,107.768 451.977,107.768 C450.628,107.768 449.535,108.861 449.535,110.21 L449.535,133.791 C449.535,137.836 446.255,141.116 442.209,141.116 C440.861,141.116 439.767,142.21 439.767,143.558 C439.767,144.907 440.861,146 442.209,146 Z M442.209,141.116 C438.164,141.116 434.884,137.837 434.884,133.791 L434.884,78.442 L432.442,80.884 L451.977,80.884 L449.535,78.442 L449.535,110.21 C449.535,111.559 450.628,112.652 451.977,112.652 C453.325,112.652 454.419,111.559 454.419,110.21 L454.419,78.442 C454.419,77.093 453.325,76 451.977,76 L432.442,76 C431.093,76 430,77.093 430,78.442 L430,133.791 C430,140.534 435.466,146 442.209,146 C443.558,146 444.651,144.907 444.651,143.558 C444.651,142.21 443.558,141.116 442.209,141.116 Z M442.209,146 L497.558,146 C498.907,146 500,144.907 500,143.558 L500,124.023 C500,122.675 498.907,121.581 497.558,121.581 L465.79,121.581 C464.441,121.581 463.348,122.675 463.348,124.023 C463.348,125.372 464.441,126.465 465.79,126.465 L497.558,126.465 L495.116,124.023 L495.116,143.558 L497.558,141.116 L442.209,141.116 C440.861,141.116 439.767,142.21 439.767,143.558 C439.767,144.907 440.861,146 442.209,146 Z M433.576,142.424 C438.344,147.192 446.075,147.192 450.843,142.424 L467.517,125.75 C468.47,124.796 468.47,123.25 467.517,122.297 C466.563,121.343 465.017,121.343 464.063,122.297 L447.389,138.971 C444.528,141.831 439.89,141.831 437.029,138.971 C436.076,138.017 434.53,138.017 433.576,138.971 C432.622,139.924 432.622,141.47 433.576,142.424 Z M453.703,111.937 L484.658,80.982 L485.475,80.115 L483.697,78.442 L481.97,80.169 L495.808,94.006 L495.808,90.552 L464.063,122.297 C463.11,123.25 463.11,124.796 464.063,125.75 C465.017,126.704 466.563,126.704 467.517,125.75 L499.261,94.006 C500.214,93.052 500.214,91.506 499.261,90.552 L485.424,76.715 C484.45,75.741 482.863,75.765 481.919,76.768 L481.153,77.582 L450.25,108.483 C449.296,109.437 449.296,110.983 450.25,111.937 C451.204,112.89 452.75,112.89 453.703,111.937 Z" />
            <path d="M450.843,142.424 L499.261,94.006 C500.214,93.052 500.214,91.506 499.261,90.552 L485.424,76.715 C484.47,75.761 482.922,75.762 481.969,76.717 L450.249,108.485 C449.296,109.439 449.297,110.985 450.251,111.938 C451.206,112.891 452.752,112.89 453.705,111.935 L485.425,80.167 L481.97,80.169 L495.808,94.006 L495.808,90.552 L447.389,138.971 C446.436,139.924 446.436,141.47 447.389,142.424 C448.343,143.378 449.889,143.378 450.843,142.424 Z" />
            <path d="M465.79,126.465 L497.558,126.465 L495.116,124.023 L495.116,143.558 L497.558,141.116 L446.279,141.116 C444.93,141.116 443.837,142.21 443.837,143.558 C443.837,144.907 444.93,146 446.279,146 L497.558,146 C498.907,146 500,144.907 500,143.558 L500,124.023 C500,122.675 498.907,121.581 497.558,121.581 L465.79,121.581 C464.441,121.581 463.348,122.675 463.348,124.023 C463.348,125.372 464.441,126.465 465.79,126.465 Z" />
            <path d="M465.79,126.465 L497.558,126.465 L495.116,124.023 L495.116,143.558 L497.558,141.116 L446.279,141.116 C444.93,141.116 443.837,142.21 443.837,143.558 C443.837,144.907 444.93,146 446.279,146 L497.558,146 C498.907,146 500,144.907 500,143.558 L500,124.023 C500,122.675 498.907,121.581 497.558,121.581 L465.79,121.581 C464.441,121.581 463.348,122.675 463.348,124.023 C463.348,125.372 464.441,126.465 465.79,126.465 Z" />
            <path d="M442.209,146 C448.952,146 454.419,140.534 454.419,133.791 L454.419,110.21 L454.419,78.442 C454.419,77.093 453.325,76 451.977,76 L432.442,76 C431.093,76 430,77.093 430,78.442 L430,133.791 C430,140.534 435.466,146 442.209,146 Z M442.209,141.116 C438.164,141.116 434.884,137.837 434.884,133.791 L434.884,78.442 L432.442,80.884 L451.977,80.884 L449.535,78.442 L449.535,110.21 L449.535,133.791 C449.535,137.836 446.255,141.116 442.209,141.116 Z" />
        </g>
        <g id="Black-S">
            <path d="M642.209,146 C648.952,146 654.419,140.534 654.419,133.791 L654.419,110.21 C654.419,108.861 653.325,107.768 651.977,107.768 C650.628,107.768 649.535,108.861 649.535,110.21 L649.535,133.791 C649.535,137.836 646.255,141.116 642.209,141.116 C640.861,141.116 639.767,142.21 639.767,143.558 C639.767,144.907 640.861,146 642.209,146 Z M642.209,141.116 C638.164,141.116 634.884,137.837 634.884,133.791 L634.884,78.442 L632.442,80.884 L651.977,80.884 L649.535,78.442 L649.535,110.21 C649.535,111.559 650.628,112.652 651.977,112.652 C653.325,112.652 654.419,111.559 654.419,110.21 L654.419,78.442 C654.419,77.093 653.325,76 651.977,76 L632.442,76 C631.093,76 630,77.093 630,78.442 L630,133.791 C630,140.534 635.466,146 642.209,146 C643.558,146 644.651,144.907 644.651,143.558 C644.651,142.21 643.558,141.116 642.209,141.116 Z M642.209,146 L697.558,146 C698.907,146 700,144.907 700,143.558 L700,124.023 C700,122.675 698.907,121.581 697.558,121.581 L665.79,121.581 C664.441,121.581 663.348,122.675 663.348,124.023 C663.348,125.372 664.441,126.465 665.79,126.465 L697.558,126.465 L695.116,124.023 L695.116,143.558 L697.558,141.116 L642.209,141.116 C640.861,141.116 639.767,142.21 639.767,143.558 C639.767,144.907 640.861,146 642.209,146 Z M633.576,142.424 C638.344,147.192 646.075,147.192 650.843,142.424 L667.517,125.75 C668.47,124.796 668.47,123.25 667.517,122.297 C666.563,121.343 665.017,121.343 664.063,122.297 L647.389,138.971 C644.528,141.831 639.89,141.831 637.029,138.971 C636.076,138.017 634.53,138.017 633.576,138.971 C632.622,139.924 632.622,141.47 633.576,142.424 Z M653.703,111.937 L684.658,80.982 L685.475,80.115 L683.697,78.442 L681.97,80.169 L695.808,94.006 L695.808,90.552 L664.063,122.297 C663.11,123.25 663.11,124.796 664.063,125.75 C665.017,126.704 666.563,126.704 667.517,125.75 L699.261,94.006 C700.214,93.052 700.214,91.506 699.261,90.552 L685.424,76.715 C684.45,75.741 682.863,75.765 681.919,76.768 L681.153,77.582 L650.25,108.483 C649.297,109.437 649.297,110.983 650.25,111.937 C651.204,112.89 652.75,112.89 653.703,111.937 Z" />
            <path d="M650.843,142.424 L699.261,94.006 C700.214,93.052 700.214,91.506 699.261,90.552 L685.424,76.715 C684.47,75.761 682.922,75.762 681.969,76.717 L650.249,108.485 C649.296,109.439 649.297,110.985 650.251,111.938 C651.206,112.891 652.752,112.89 653.705,111.935 L685.425,80.167 L681.97,80.169 L695.808,94.006 L695.808,90.552 L647.389,138.971 C646.436,139.924 646.436,141.47 647.389,142.424 C648.343,143.378 649.889,143.378 650.843,142.424 Z" />
            <path d="M665.79,126.465 L697.558,126.465 L695.116,124.023 L695.116,143.558 L697.558,141.116 L646.279,141.116 C644.93,141.116 643.837,142.21 643.837,143.558 C643.837,144.907 644.93,146 646.279,146 L697.558,146 C698.907,146 700,144.907 700,143.558 L700,124.023 C700,122.675 698.907,121.581 697.558,121.581 L665.79,121.581 C664.441,121.581 663.348,122.675 663.348,124.023 C663.348,125.372 664.441,126.465 665.79,126.465 Z" />
            <path d="M665.79,126.465 L697.558,126.465 L695.116,124.023 L695.116,143.558 L697.558,141.116 L646.279,141.116 C644.93,141.116 643.837,142.21 643.837,143.558 C643.837,144.907 644.93,146 646.279,146 L697.558,146 C698.907,146 700,144.907 700,143.558 L700,124.023 C700,122.675 698.907,121.581 697.558,121.581 L665.79,121.581 C664.441,121.581 663.348,122.675 663.348,124.023 C663.348,125.372 664.441,126.465 665.79,126.465 Z" />
            <path d="M642.209,146 C648.952,146 654.419,140.534 654.419,133.791 L654.419,110.21 L654.419,78.442 C654.419,77.093 653.325,76 651.977,76 L632.442,76 C631.093,76 630,77.093 630,78.442 L630,133.791 C630,140.534 635.466,146 642.209,146 Z M642.209,141.116 C638.164,141.116 634.884,137.837 634.884,133.791 L634.884,78.442 L632.442,80.884 L651.977,80.884 L649.535,78.442 L649.535,110.21 L649.535,133.791 C649.535,137.836 646.255,141.116 642.209,141.116 Z" />
        </g>
    </g>
</svg>