<?xml version="1.0" encoding="UTF-8"?>
<svg height="600" width="800" xmlns="http://www.w3.org/2000/svg" xmlns:xlink="http://www.w3.org/1999/xlink">
    <g id="Notes" font-family="'LucidaGrande', 'Lucida Grande', sans-serif" font-size="13">
        <rect fill="white" height="600.0" width="800.0" x="0.0" y="0.0" />
        <g font-size="13">
            <text x="18.0" y="176.0">Small</text>
            <text x="18.0" y="376.0">Medium</text>
            <text x="18.0" y="576.0">Large</text>
        </g>
        <g font-size="9">
            <text x="250.0" y="30.0">Ultralight</text>
            <text x="450.0" y="30.0">Regular</text>
            <text x="650.0" y="30.0">Black</text>
            <text id="template-version" fill="#505050" text-anchor="end" x="785.0" y="575.0">Template v.3.0</text>
            <a href="https://github.com/swhitty/SwiftDraw">
                <text fill="#505050" text-anchor="end" x="785.0" y="590.0">https://github.com/swhitty/SwiftDraw</text>
            </a>
        </g>
    </g>
    <g id="Guides" stroke="rgb(39, 170, 225)" stroke-width="0.5">
        <path id="Capline-S" d="M18,76 l800,0" />
        <path id="H-reference" d="M85,145.755 L87.685,145.755 L113.369,79.287 L114.052,79.287 L114.052,76 L112.148,76 L85,145.755 Z M95.693,121.536 L130.996,121.536 L130.263,119.313 L96.474,119.313 L95.693,121.536 Z M139.15,145.755 L141.787,145.755 L114.638,76 L113.466,76 L113.466,79.287 L139.15,145.755 Z" stroke="none" />
        <path id="Baseline-S" d="M18,146 l800,0" />
        <path id="left-margin-Ultralight-S" d="M220,56 l0,110" />
        <path id="right-margin-Ultralight-S" d="M310,56 l0,110" />
        <path id="left-margin-Regular-S" d="M420,56 l0,110" />
        <path id="right-margin-Regular-S" d="M510,56 l0,110" />
        <path id="left-margin-Black-S" d="M620,56 l0,110" />
        <path id="right-margin-Black-S" d="M710,56 l0,110" />
        <path id="Capline-M" d="M18,276 l800,0" />
        <path id="Baseline-M" d="M18,346 l800,0" />
        <path id="Capline-L" d="M18,476 l800,0" />
        <path id="Baseline-L" d="M18,546 l800,0" />
    </g>
    <g id="Symbols">
        <g id="Ultralight-S">
            <path d="M291.923,76 L238.077,76 C233.616,76 230,79.616 230,84.077 L230,137.923 C230,142.384 233.616,146 238.077,146 L291.923,146 C296.384,146 300,142.384 300,137.923 L300,84.077 C300,79.616 296.384,76 291.923,76 Z M291.923,81.385 C293.41,81.385 294.615,82.59 294.615,84.077 L294.615,137.923 C294.615,139.41 293.41,140.615 291.923,140.615 L238.077,140.615 C236.59,140.615 235.385,139.41 235.385,137.923 L235.385,84.077 C235.385,82.59 236.59,81.385 238.077,81.385 L291.923,81.385 Z" />
            <path d="M247.95,123.376 L258.103,113.223 L254.298,113.225 L262.174,121.083 C263.227,122.133 264.933,122.131 265.982,121.077 L284.856,102.131 C285.905,101.078 285.902,99.373 284.849,98.324 C283.795,97.274 282.091,97.277 281.041,98.331 L262.168,117.276 L265.977,117.271 L258.101,109.413 C257.049,108.364 255.346,108.365 254.295,109.415 L244.142,119.569 C243.091,120.62 243.091,122.325 244.142,123.376 C245.193,124.428 246.898,124.428 247.95,123.376 Z" />
            <path d="M268.59,102.923 L282.949,102.923 L280.256,100.231 L280.256,114.59 C280.256,116.077 281.462,117.282 282.949,117.282 C284.436,117.282 285.641,116.077 285.641,114.59 L285.641,100.231 C285.641,98.744 284.436,97.538 282.949,97.538 L268.59,97.538 C267.103,97.538 265.897,98.744 265.897,100.231 C265.897,101.718 267.103,102.923 268.59,102.923 Z" />
        </g>
        <g id="Regular-S">
            <path d="M491.923,76 L438.077,76 C433.616,76 430,79.616 430,84.077 L430,137.923 C430,142.384 433.616,146 438.077,146 L491.923,146 C496.384,146 500,142.384 500,137.923 L500,84.077 C500,79.616 496.384,76 491.923,76 Z M491.923,81.385 C493.41,81.385 494.615,82.59 494.615,84.077 L494.615,137.923 C494.615,139.41 493.41,140.615 491.923,140.615 L438.077,140.615 C436.59,140.615 435.385,139.41 435.385,137.923 L435.385,84.077 C435.385,82.59 436.59,81.385 438.077,81.385 L491.923,81.385 Z" />
            <path d="M447.95,123.376 L458.103,113.223 L454.298,113.225 L462.174,121.083 C463.227,122.133 464.932,122.131 465.982,121.077 L484.856,102.131 C485.905,101.078 485.902,99.373 484.849,98.324 C483.795,97.274 482.091,97.277 481.041,98.331 L462.168,117.276 L465.977,117.271 L458.101,109.413 C457.049,108.364 455.346,108.365 454.295,109.415 L444.142,119.569 C443.091,120.62 443.091,122.325 444.142,123.376 C445.193,124.428 446.898,124.428 447.95,123.376 Z" />
            <path d="M468.59,102.923 L482.949,102.923 L480.256,100.231 L480.256,114.59 C480.256,116.077 481.462,117.282 482.949,117.282 C484.436,117.282 485.641,116.077 485.641,114.59 L485.641,100.231 C485.641,98.744 484.436,97.538 482.949,97.538 L468.59,97.538 C467.103,97.538 465.897,98.744 465.897,100.231 C465.897,101.718 467.103,102.923 468.59,102.923 Z" />
        </g>
        <g id="Black-S">
            <path d="M691.923,76 L638.077,76 C633.616,76 630,79.616 630,84.077 L630,137.923 C630,142.384 633.616,146 638.077,146 L691.923,146 C696.384,146 700,142.384 700,137.923 L700,84.077 C700,79.616 696.384,76 691.923,76 Z M691.923,81.385 C693.41,81.385 694.615,82.59 694.615,84.077 L694.615,137.923 C694.615,139.41 693.41,140.615 691.923,140.615 L638.077,140.615 C636.59,140.615 635.385,139.41 635.385,137.923 L635.385,84.077 C635.385,82.59 636.59,81.385 638.077,81.385 L691.923,81.385 Z" />
            <path d="M647.95,123.376 L658.103,113.223 L654.298,113.225 L662.174,121.083 C663.227,122.133 664.933,122.131 665.982,121.077 L684.856,102.131 C685.906,101.078 685.902,99.373 684.849,98.324 C683.795,97.274 682.091,97.277 681.041,98.331 L662.168,117.276 L665.977,117.271 L658.101,109.413 C657.049,108.364 655.346,108.365 654.295,109.415 L644.142,119.569 C643.091,120.62 643.091,122.325 644.142,123.376 C645.193,124.428 646.898,124.428 647.95,123.376 Z" />
            <path d="M668.59,102.923 L682.949,102.923 L680.256,100.231 L680.256,114.59 C680.256,116.077 681.462,117.282 682.949,117.282 C684.436,117.282 685.641,116.077 685.641,114.59 L685.641,100.231 C685.641,98.744 684.436,97.538 682.949,97.538 L668.59,97.538 C667.103,97.538 665.897,98.744 665.897,100.231 C665.897,101.718 667.103,102.923 668.59,102.923 Z" />
        </g>
    </g>
</svg>