<?xml version="1.0" encoding="UTF-8"?>
<svg height="600" width="800" xmlns="http://www.w3.org/2000/svg" xmlns:xlink="http://www.w3.org/1999/xlink">
    <g id="Notes" font-family="'LucidaGrande', 'Lucida Grande', sans-serif" font-size="13">
        <rect fill="white" height="600.0" width="800.0" x="0.0" y="0.0" />
        <g font-size="13">
            <text x="18.0" y="176.0">Small</text>
            <text x="18.0" y="376.0">Medium</text>
            <text x="18.0" y="576.0">Large</text>
        </g>
        <g font-size="9">
            <text x="250.0" y="30.0">Ultralight</text>
            <text x="450.0" y="30.0">Regular</text>
            <text x="650.0" y="30.0">Black</text>
            <text id="template-version" fill="#505050" text-anchor="end" x="785.0" y="575.0">Template v.3.0</text>
            <a href="https://github.com/swhitty/SwiftDraw">
                <text fill="#505050" text-anchor="end" x="785.0" y="590.0">https://github.com/swhitty/SwiftDraw</text>
            </a>
        </g>
    </g>
    <g id="Guides" stroke="rgb(39, 170, 225)" stroke-width="0.5">
        <path id="Capline-S" d="M18,76 l800,0" />
        <path id="H-reference" d="M85,145.755 L87.685,145.755 L113.369,79.287 L114.052,79.287 L114.052,76 L112.148,76 L85,145.755 Z M95.693,121.536 L130.996,121.536 L130.263,119.313 L96.474,119.313 L95.693,121.536 Z M139.15,145.755 L141.787,145.755 L114.638,76 L113.466,76 L113.466,79.287 L139.15,145.755 Z" stroke="none" />
        <path id="Baseline-S" d="M18,146 l800,0" />
        <path id="left-margin-Ultralight-S" d="M220,56 l0,110" />
        <path id="right-margin-Ultralight-S" d="M310,56 l0,110" />
        <path id="left-margin-Regular-S" d="M420,56 l0,110" />
        <path id="right-margin-Regular-S" d="M510,56 l0,110" />
        <path id="left-margin-Black-S" d="M620,56 l0,110" />
        <path id="right-margin-Black-S" d="M710,56 l0,110" />
        <path id="Capline-M" d="M18,276 l800,0" />
        <path id="Baseline-M" d="M18,346 l800,0" />
        <path id="Capline-L" d="M18,476 l800,0" />
        <path id="Baseline-L" d="M18,546 l800,0" />
    </g>
    <g id="Symbols">
        <g id="Ultralight-S">
            <path d="M230,111.015 L230,143.308 C230,144.795 231.205,146 232.692,146 L297.308,146 C298.795,146 300,144.795 300,143.308 L300,111 C300,109.513 298.795,108.308 297.308,108.308 C295.821,108.308 294.615,109.513 294.615,111 L294.615,143.308 L297.308,140.615 L232.692,140.615 L235.385,143.308 L235.385,111.015 C235.385,109.528 234.179,108.323 232.692,108.323 C231.205,108.323 230,109.528 230,111.015 Z" />
            <path d="M279.25,107.301 L263.096,123.455 L266.904,123.455 L250.75,107.301 C249.698,106.25 247.994,106.25 246.942,107.301 C245.891,108.353 245.891,110.057 246.942,111.109 L263.096,127.263 C264.148,128.314 265.852,128.314 266.904,127.263 L283.058,111.109 C284.109,110.057 284.109,108.353 283.058,107.301 C282.006,106.25 280.302,106.25 279.25,107.301 Z" />
            <path d="M262.293,78.692 L262.293,125.359 C262.293,126.846 263.498,128.051 264.985,128.051 C266.472,128.051 267.677,126.846 267.677,125.359 L267.677,78.692 C267.677,77.205 266.472,76 264.985,76 C263.498,76 262.293,77.205 262.293,78.692 Z" />
        </g>
        <g id="Regular-S">
            <path d="M430,111.015 L430,143.308 C430,144.795 431.205,146 432.692,146 L497.308,146 C498.795,146 500,144.795 500,143.308 L500,111 C500,109.513 498.795,108.308 497.308,108.308 C495.821,108.308 494.615,109.513 494.615,111 L494.615,143.308 L497.308,140.615 L432.692,140.615 L435.385,143.308 L435.385,111.015 C435.385,109.528 434.179,108.323 432.692,108.323 C431.205,108.323 430,109.528 430,111.015 Z" />
            <path d="M479.25,107.301 L463.096,123.455 L466.904,123.455 L450.75,107.301 C449.698,106.25 447.994,106.25 446.942,107.301 C445.891,108.353 445.891,110.057 446.942,111.109 L463.096,127.263 C464.148,128.314 465.852,128.314 466.904,127.263 L483.058,111.109 C484.109,110.057 484.109,108.353 483.058,107.301 C482.006,106.25 480.302,106.25 479.25,107.301 Z" />
            <path d="M462.293,78.692 L462.293,125.359 C462.293,126.846 463.498,128.051 464.985,128.051 C466.472,128.051 467.677,126.846 467.677,125.359 L467.677,78.692 C467.677,77.205 466.472,76 464.985,76 C463.498,76 462.293,77.205 462.293,78.692 Z" />
        </g>
        <g id="Black-S">
            <path d="M630,111.015 L630,143.308 C630,144.795 631.205,146 632.692,146 L697.308,146 C698.795,146 700,144.795 700,143.308 L700,111 C700,109.513 698.795,108.308 697.308,108.308 C695.821,108.308 694.615,109.513 694.615,111 L694.615,143.308 L697.308,140.615 L632.692,140.615 L635.385,143.308 L635.385,111.015 C635.385,109.528 634.179,108.323 632.692,108.323 C631.205,108.323 630,109.528 630,111.015 Z" />
            <path d="M679.25,107.301 L663.096,123.455 L666.904,123.455 L650.75,107.301 C649.698,106.25 647.994,106.25 646.942,107.301 C645.891,108.353 645.891,110.057 646.942,111.109 L663.096,127.263 C664.148,128.314 665.852,128.314 666.904,127.263 L683.058,111.109 C684.109,110.057 684.109,108.353 683.058,107.301 C682.006,106.25 680.302,106.25 679.25,107.301 Z" />
            <path d="M662.293,78.692 L662.293,125.359 C662.293,126.846 663.498,128.051 664.985,128.051 C666.472,128.051 667.677,126.846 667.677,125.359 L667.677,78.692 C667.677,77.205 666.472,76 664.985,76 C663.498,76 662.293,77.205 662.293,78.692 Z" />
        </g>
    </g>
</svg>