<?xml version="1.0" encoding="UTF-8"?>
<svg height="600" width="800" xmlns="http://www.w3.org/2000/svg" xmlns:xlink="http://www.w3.org/1999/xlink">
    <g id="Notes" font-family="'LucidaGrande', 'Lucida Grande', sans-serif" font-size="13">
        <rect fill="white" height="600.0" width="800.0" x="0.0" y="0.0" />
        <g font-size="13">
            <text x="18.0" y="176.0">Small</text>
            <text x="18.0" y="376.0">Medium</text>
            <text x="18.0" y="576.0">Large</text>
        </g>
        <g font-size="9">
            <text x="250.0" y="30.0">Ultralight</text>
            <text x="450.0" y="30.0">Regular</text>
            <text x="650.0" y="30.0">Black</text>
            <text id="template-version" fill="#505050" text-anchor="end" x="785.0" y="575.0">Template v.3.0</text>
            <a href="https://github.com/swhitty/SwiftDraw">
                <text fill="#505050" text-anchor="end" x="785.0" y="590.0">https://github.com/swhitty/SwiftDraw</text>
            </a>
        </g>
    </g>
    <g id="Guides" stroke="rgb(39, 170, 225)" stroke-width="0.5">
        <path id="Capline-S" d="M18,76 l800,0" />
        <path id="H-reference" d="M85,145.755 L87.685,145.755 L113.369,79.287 L114.052,79.287 L114.052,76 L112.148,76 L85,145.755 Z M95.693,121.536 L130.996,121.536 L130.263,119.313 L96.474,119.313 L95.693,121.536 Z M139.15,145.755 L141.787,145.755 L114.638,76 L113.466,76 L113.466,79.287 L139.15,145.755 Z" stroke="none" />
        <path id="Baseline-S" d="M18,146 l800,0" />
        <path id="left-margin-Ultralight-S" d="M220,56 l0,110" />
        <path id="right-margin-Ultralight-S" d="M310,56 l0,110" />
        <path id="left-margin-Regular-S" d="M420,56 l0,110" />
        <path id="right-margin-Regular-S" d="M510,56 l0,110" />
        <path id="left-margin-Black-S" d="M620,56 l0,110" />
        <path id="right-margin-Black-S" d="M710,56 l0,110" />
        <path id="Capline-M" d="M18,276 l800,0" />
        <path id="Baseline-M" d="M18,346 l800,0" />
        <path id="Capline-L" d="M18,476 l800,0" />
        <path id="Baseline-L" d="M18,546 l800,0" />
    </g>
    <g id="Symbols">
        <g id="Ultralight-S">
            <path d="M261.813,139.625 C279.382,139.625 293.625,125.382 293.625,107.813 C293.625,90.243 279.382,76 261.813,76 C244.243,76 230,90.243 230,107.813 C230,125.382 244.243,139.625 261.813,139.625 Z M261.813,134.467 C247.092,134.467 235.159,122.533 235.159,107.813 C235.159,93.092 247.092,81.159 261.813,81.159 C276.533,81.159 288.467,93.092 288.467,107.813 C288.467,122.533 276.533,134.467 261.813,134.467 Z" />
            <path d="M259.233,97.495 L259.233,118.13 C259.233,119.555 260.388,120.71 261.813,120.71 C263.237,120.71 264.392,119.555 264.392,118.13 L264.392,97.495 C264.392,96.071 263.237,94.916 261.813,94.916 C260.388,94.916 259.233,96.071 259.233,97.495 Z" />
            <path d="M251.525,110.419 L272.134,110.392 C273.558,110.39 274.712,109.234 274.71,107.809 C274.708,106.385 273.552,105.231 272.127,105.233 L251.519,105.26 C250.094,105.262 248.941,106.418 248.943,107.843 C248.944,109.267 250.101,110.421 251.525,110.419 Z" />
            <path d="M281.005,130.653 L295.597,145.245 C296.604,146.252 298.237,146.252 299.244,145.245 C300.252,144.237 300.252,142.604 299.244,141.597 L284.653,127.005 C283.646,125.998 282.013,125.998 281.005,127.005 C279.998,128.013 279.998,129.646 281.005,130.653 Z" />
        </g>
        <g id="Regular-S">
            <path d="M461.813,139.625 C479.382,139.625 493.626,125.382 493.626,107.813 C493.626,90.243 479.382,76 461.813,76 C444.243,76 430,90.243 430,107.813 C430,125.382 444.243,139.625 461.813,139.625 Z M461.813,134.467 C447.092,134.467 435.159,122.533 435.159,107.813 C435.159,93.092 447.092,81.159 461.813,81.159 C476.533,81.159 488.467,93.092 488.467,107.813 C488.467,122.533 476.533,134.467 461.813,134.467 Z" />
            <path d="M459.233,97.495 L459.233,118.13 C459.233,119.555 460.388,120.71 461.813,120.71 C463.237,120.71 464.392,119.555 464.392,118.13 L464.392,97.495 C464.392,96.071 463.237,94.916 461.813,94.916 C460.388,94.916 459.233,96.071 459.233,97.495 Z" />
            <path d="M451.525,110.419 L472.134,110.392 C473.558,110.39 474.712,109.234 474.71,107.809 C474.708,106.385 473.552,105.231 472.127,105.233 L451.519,105.26 C450.094,105.262 448.941,106.418 448.943,107.843 C448.944,109.267 450.101,110.421 451.525,110.419 Z" />
            <path d="M481.005,130.653 L495.597,145.245 C496.604,146.252 498.237,146.252 499.244,145.245 C500.252,144.237 500.252,142.604 499.244,141.597 L484.653,127.005 C483.646,125.998 482.013,125.998 481.005,127.005 C479.998,128.013 479.998,129.646 481.005,130.653 Z" />
        </g>
        <g id="Black-S">
            <path d="M661.813,139.625 C679.382,139.625 693.625,125.382 693.625,107.813 C693.625,90.243 679.382,76 661.813,76 C644.243,76 630,90.243 630,107.813 C630,125.382 644.243,139.625 661.813,139.625 Z M661.813,134.467 C647.092,134.467 635.159,122.533 635.159,107.813 C635.159,93.092 647.092,81.159 661.813,81.159 C676.533,81.159 688.467,93.092 688.467,107.813 C688.467,122.533 676.533,134.467 661.813,134.467 Z" />
            <path d="M659.233,97.495 L659.233,118.13 C659.233,119.555 660.388,120.71 661.813,120.71 C663.237,120.71 664.392,119.555 664.392,118.13 L664.392,97.495 C664.392,96.071 663.237,94.916 661.813,94.916 C660.388,94.916 659.233,96.071 659.233,97.495 Z" />
            <path d="M651.525,110.419 L672.134,110.392 C673.558,110.39 674.712,109.234 674.71,107.809 C674.708,106.385 673.552,105.231 672.127,105.233 L651.519,105.26 C650.094,105.262 648.941,106.418 648.943,107.843 C648.944,109.267 650.101,110.421 651.525,110.419 Z" />
            <path d="M681.005,130.653 L695.597,145.245 C696.604,146.252 698.237,146.252 699.244,145.245 C700.252,144.237 700.252,142.604 699.244,141.597 L684.653,127.005 C683.646,125.998 682.013,125.998 681.005,127.005 C679.998,128.013 679.998,129.646 681.005,130.653 Z" />
        </g>
    </g>
</svg>