<?xml version="1.0" encoding="UTF-8"?>
<svg height="600" width="800" xmlns="http://www.w3.org/2000/svg" xmlns:xlink="http://www.w3.org/1999/xlink">
    <g id="Notes" font-family="'LucidaGrande', 'Lucida Grande', sans-serif" font-size="13">
        <rect fill="white" height="600.0" width="800.0" x="0.0" y="0.0" />
        <g font-size="13">
            <text x="18.0" y="176.0">Small</text>
            <text x="18.0" y="376.0">Medium</text>
            <text x="18.0" y="576.0">Large</text>
        </g>
        <g font-size="9">
            <text x="250.0" y="30.0">Ultralight</text>
            <text x="450.0" y="30.0">Regular</text>
            <text x="650.0" y="30.0">Black</text>
            <text id="template-version" fill="#505050" text-anchor="end" x="785.0" y="575.0">Template v.3.0</text>
            <a href="https://github.com/swhitty/SwiftDraw">
                <text fill="#505050" text-anchor="end" x="785.0" y="590.0">https://github.com/swhitty/SwiftDraw</text>
            </a>
        </g>
    </g>
    <g id="Guides" stroke="rgb(39, 170, 225)" stroke-width="0.5">
        <path id="Capline-S" d="M18,76 l800,0" />
        <path id="H-reference" d="M85,145.755 L87.685,145.755 L113.369,79.287 L114.052,79.287 L114.052,76 L112.148,76 L85,145.755 Z M95.693,121.536 L130.996,121.536 L130.263,119.313 L96.474,119.313 L95.693,121.536 Z M139.15,145.755 L141.787,145.755 L114.638,76 L113.466,76 L113.466,79.287 L139.15,145.755 Z" stroke="none" />
        <path id="Baseline-S" d="M18,146 l800,0" />
        <path id="left-margin-Ultralight-S" d="M220,56 l0,110" />
        <path id="right-margin-Ultralight-S" d="M310,56 l0,110" />
        <path id="left-margin-Regular-S" d="M420,56 l0,110" />
        <path id="right-margin-Regular-S" d="M510,56 l0,110" />
        <path id="left-margin-Black-S" d="M620,56 l0,110" />
        <path id="right-margin-Black-S" d="M710,56 l0,110" />
        <path id="Capline-M" d="M18,276 l800,0" />
        <path id="Baseline-M" d="M18,346 l800,0" />
        <path id="Capline-L" d="M18,476 l800,0" />
        <path id="Baseline-L" d="M18,546 l800,0" />
    </g>
    <g id="Symbols">
        <g id="Ultralight-S">
            <path d="M294.615,103.821 L294.615,123.564 C294.615,124.278 294.332,124.963 293.827,125.468 C293.322,125.973 292.637,126.256 291.923,126.256 L238.077,126.256 C237.363,126.256 236.678,125.973 236.173,125.468 C235.668,124.963 235.385,124.278 235.385,123.564 L235.385,84.077 C235.385,83.363 235.668,82.678 236.173,82.173 C236.678,81.668 237.363,81.385 238.077,81.385 L291.923,81.385 C292.637,81.385 293.322,81.668 293.827,82.173 C294.332,82.678 294.615,83.363 294.615,84.077 L294.615,103.821 Z M300,103.821 L300,84.077 C300,81.935 299.149,79.88 297.634,78.366 C296.12,76.851 294.065,76 291.923,76 L238.077,76 C235.935,76 233.88,76.851 232.366,78.366 C230.851,79.88 230,81.935 230,84.077 L230,123.564 C230,125.706 230.851,127.761 232.366,129.275 C233.88,130.79 235.935,131.641 238.077,131.641 L291.923,131.641 C294.065,131.641 296.12,130.79 297.634,129.275 C299.149,127.761 300,125.706 300,123.564 L300,103.821 Z" />
            <path d="M247.051,146 L282.949,146 C284.436,146 285.641,144.795 285.641,143.308 C285.641,141.821 284.436,140.615 282.949,140.615 L247.051,140.615 C245.564,140.615 244.359,141.821 244.359,143.308 C244.359,144.795 245.564,146 247.051,146 Z" />
            <path d="M262.308,128.949 L262.308,143.308 C262.308,144.795 263.513,146 265,146 C266.487,146 267.692,144.795 267.692,143.308 L267.692,128.949 C267.692,127.462 266.487,126.256 265,126.256 C263.513,126.256 262.308,127.462 262.308,128.949 Z" />
        </g>
        <g id="Regular-S">
            <path d="M494.615,103.821 L494.615,123.564 C494.615,124.278 494.332,124.963 493.827,125.468 C493.322,125.973 492.637,126.256 491.923,126.256 L438.077,126.256 C437.363,126.256 436.678,125.973 436.173,125.468 C435.668,124.963 435.385,124.278 435.385,123.564 L435.385,84.077 C435.385,83.363 435.668,82.678 436.173,82.173 C436.678,81.668 437.363,81.385 438.077,81.385 L491.923,81.385 C492.637,81.385 493.322,81.668 493.827,82.173 C494.332,82.678 494.615,83.363 494.615,84.077 L494.615,103.821 Z M500,103.821 L500,84.077 C500,81.935 499.149,79.88 497.634,78.366 C496.12,76.851 494.065,76 491.923,76 L438.077,76 C435.935,76 433.88,76.851 432.366,78.366 C430.851,79.88 430,81.935 430,84.077 L430,123.564 C430,125.706 430.851,127.761 432.366,129.275 C433.88,130.79 435.935,131.641 438.077,131.641 L491.923,131.641 C494.065,131.641 496.12,130.79 497.634,129.275 C499.149,127.761 500,125.706 500,123.564 L500,103.821 Z" />
            <path d="M447.051,146 L482.949,146 C484.436,146 485.641,144.795 485.641,143.308 C485.641,141.821 484.436,140.615 482.949,140.615 L447.051,140.615 C445.564,140.615 444.359,141.821 444.359,143.308 C444.359,144.795 445.564,146 447.051,146 Z" />
            <path d="M462.308,128.949 L462.308,143.308 C462.308,144.795 463.513,146 465,146 C466.487,146 467.692,144.795 467.692,143.308 L467.692,128.949 C467.692,127.462 466.487,126.256 465,126.256 C463.513,126.256 462.308,127.462 462.308,128.949 Z" />
        </g>
        <g id="Black-S">
            <path d="M694.615,103.821 L694.615,123.564 C694.615,124.278 694.332,124.963 693.827,125.468 C693.322,125.973 692.637,126.256 691.923,126.256 L638.077,126.256 C637.363,126.256 636.678,125.973 636.173,125.468 C635.668,124.963 635.385,124.278 635.385,123.564 L635.385,84.077 C635.385,83.363 635.668,82.678 636.173,82.173 C636.678,81.668 637.363,81.385 638.077,81.385 L691.923,81.385 C692.637,81.385 693.322,81.668 693.827,82.173 C694.332,82.678 694.615,83.363 694.615,84.077 L694.615,103.821 Z M700,103.821 L700,84.077 C700,81.935 699.149,79.88 697.634,78.366 C696.12,76.851 694.065,76 691.923,76 L638.077,76 C635.935,76 633.88,76.851 632.366,78.366 C630.851,79.88 630,81.935 630,84.077 L630,123.564 C630,125.706 630.851,127.761 632.366,129.275 C633.88,130.79 635.935,131.641 638.077,131.641 L691.923,131.641 C694.065,131.641 696.12,130.79 697.634,129.275 C699.149,127.761 700,125.706 700,123.564 L700,103.821 Z" />
            <path d="M647.051,146 L682.949,146 C684.436,146 685.641,144.795 685.641,143.308 C685.641,141.821 684.436,140.615 682.949,140.615 L647.051,140.615 C645.564,140.615 644.359,141.821 644.359,143.308 C644.359,144.795 645.564,146 647.051,146 Z" />
            <path d="M662.308,128.949 L662.308,143.308 C662.308,144.795 663.513,146 665,146 C666.487,146 667.692,144.795 667.692,143.308 L667.692,128.949 C667.692,127.462 666.487,126.256 665,126.256 C663.513,126.256 662.308,127.462 662.308,128.949 Z" />
        </g>
    </g>
</svg>