<?xml version="1.0" encoding="UTF-8"?>
<svg height="600" width="800" xmlns="http://www.w3.org/2000/svg" xmlns:xlink="http://www.w3.org/1999/xlink">
    <g id="Notes" font-family="'LucidaGrande', 'Lucida Grande', sans-serif" font-size="13">
        <rect fill="white" height="600.0" width="800.0" x="0.0" y="0.0" />
        <g font-size="13">
            <text x="18.0" y="176.0">Small</text>
            <text x="18.0" y="376.0">Medium</text>
            <text x="18.0" y="576.0">Large</text>
        </g>
        <g font-size="9">
            <text x="250.0" y="30.0">Ultralight</text>
            <text x="450.0" y="30.0">Regular</text>
            <text x="650.0" y="30.0">Black</text>
            <text id="template-version" fill="#505050" text-anchor="end" x="785.0" y="575.0">Template v.3.0</text>
            <a href="https://github.com/swhitty/SwiftDraw">
                <text fill="#505050" text-anchor="end" x="785.0" y="590.0">https://github.com/swhitty/SwiftDraw</text>
            </a>
        </g>
    </g>
    <g id="Guides" stroke="rgb(39, 170, 225)" stroke-width="0.5">
        <path id="Capline-S" d="M18,76 l800,0" />
        <path id="H-reference" d="M85,145.755 L87.685,145.755 L113.369,79.287 L114.052,79.287 L114.052,76 L112.148,76 L85,145.755 Z M95.693,121.536 L130.996,121.536 L130.263,119.313 L96.474,119.313 L95.693,121.536 Z M139.15,145.755 L141.787,145.755 L114.638,76 L113.466,76 L113.466,79.287 L139.15,145.755 Z" stroke="none" />
        <path id="Baseline-S" d="M18,146 l800,0" />
        <path id="left-margin-Ultralight-S" d="M220,56 l0,110" />
        <path id="right-margin-Ultralight-S" d="M310,56 l0,110" />
        <path id="left-margin-Regular-S" d="M420,56 l0,110" />
        <path id="right-margin-Regular-S" d="M510,56 l0,110" />
        <path id="left-margin-Black-S" d="M620,56 l0,110" />
        <path id="right-margin-Black-S" d="M710,56 l0,110" />
        <path id="Capline-M" d="M18,276 l800,0" />
        <path id="Baseline-M" d="M18,346 l800,0" />
        <path id="Capline-L" d="M18,476 l800,0" />
        <path id="Baseline-L" d="M18,546 l800,0" />
    </g>
    <g id="Symbols">
        <g id="Ultralight-S">
            <path d="M234.884,104.488 C234.884,99.256 248.256,93.907 265,93.907 C281.744,93.907 295.116,99.256 295.116,104.488 C295.116,109.721 281.744,115.07 265,115.07 C248.256,115.07 234.884,109.721 234.884,104.488 Z M230,104.488 C230,113.641 245.781,119.953 265,119.953 C284.219,119.953 300,113.641 300,104.488 C300,95.336 284.219,89.023 265,89.023 C245.781,89.023 230,95.336 230,104.488 Z" />
            <path d="M262.558,78.442 L262.558,102.86 C262.558,104.209 263.651,105.302 265,105.302 C266.349,105.302 267.442,104.209 267.442,102.86 L267.442,78.442 C267.442,77.093 266.349,76 265,76 C263.651,76 262.558,77.093 262.558,78.442 Z" />
            <path d="M249.535,127.279 L249.535,140.302 C249.535,141.651 250.628,142.744 251.977,142.744 C253.325,142.744 254.419,141.651 254.419,140.302 L254.419,127.279 C254.419,125.93 253.325,124.837 251.977,124.837 C250.628,124.837 249.535,125.93 249.535,127.279 Z" />
            <path d="M262.558,127.279 L262.558,143.558 C262.558,144.907 263.651,146 265,146 C266.349,146 267.442,144.907 267.442,143.558 L267.442,127.279 C267.442,125.93 266.349,124.837 265,124.837 C263.651,124.837 262.558,125.93 262.558,127.279 Z" />
            <path d="M275.581,127.279 L275.581,140.302 C275.581,141.651 276.675,142.744 278.023,142.744 C279.372,142.744 280.465,141.651 280.465,140.302 L280.465,127.279 C280.465,125.93 279.372,124.837 278.023,124.837 C276.675,124.837 275.581,125.93 275.581,127.279 Z" />
            <path d="M230,104.488 L230,124.615 C230,124.97 230.077,125.32 230.226,125.641 C230.503,126.24 231.054,127.165 231.933,128.304 C233.346,130.134 235.193,131.947 237.527,133.626 C237.815,133.834 238.109,134.038 238.409,134.239 C239.53,134.989 241.047,134.688 241.797,133.568 C242.547,132.447 242.246,130.93 241.125,130.18 C240.871,130.01 240.622,129.837 240.379,129.663 C238.44,128.267 236.93,126.785 235.799,125.32 C235.152,124.481 234.787,123.869 234.658,123.589 L234.884,124.615 L234.884,104.488 C234.884,103.14 233.79,102.047 232.442,102.047 C231.093,102.047 230,103.14 230,104.488 Z" />
            <path d="M295.116,104.488 L295.116,124.615 L295.342,123.589 C295.213,123.869 294.848,124.481 294.201,125.32 C293.07,126.785 291.56,128.267 289.621,129.663 C289.378,129.837 289.129,130.01 288.875,130.18 C287.754,130.93 287.453,132.447 288.203,133.568 C288.953,134.688 290.47,134.989 291.591,134.239 C291.891,134.038 292.185,133.834 292.473,133.626 C294.807,131.947 296.654,130.134 298.067,128.304 C298.946,127.165 299.497,126.24 299.774,125.641 C299.923,125.32 300,124.97 300,124.615 L300,104.488 C300,103.14 298.907,102.047 297.558,102.047 C296.21,102.047 295.116,103.14 295.116,104.488 Z" />
        </g>
        <g id="Regular-S">
            <path d="M434.884,104.488 C434.884,99.256 448.256,93.907 465,93.907 C481.744,93.907 495.116,99.256 495.116,104.488 C495.116,109.721 481.744,115.07 465,115.07 C448.256,115.07 434.884,109.721 434.884,104.488 Z M430,104.488 C430,113.641 445.781,119.953 465,119.953 C484.219,119.953 500,113.641 500,104.488 C500,95.336 484.219,89.023 465,89.023 C445.781,89.023 430,95.336 430,104.488 Z" />
            <path d="M462.558,78.442 L462.558,102.86 C462.558,104.209 463.651,105.302 465,105.302 C466.349,105.302 467.442,104.209 467.442,102.86 L467.442,78.442 C467.442,77.093 466.349,76 465,76 C463.651,76 462.558,77.093 462.558,78.442 Z" />
            <path d="M449.535,127.279 L449.535,140.302 C449.535,141.651 450.628,142.744 451.977,142.744 C453.325,142.744 454.419,141.651 454.419,140.302 L454.419,127.279 C454.419,125.93 453.325,124.837 451.977,124.837 C450.628,124.837 449.535,125.93 449.535,127.279 Z" />
            <path d="M462.558,127.279 L462.558,143.558 C462.558,144.907 463.651,146 465,146 C466.349,146 467.442,144.907 467.442,143.558 L467.442,127.279 C467.442,125.93 466.349,124.837 465,124.837 C463.651,124.837 462.558,125.93 462.558,127.279 Z" />
            <path d="M475.581,127.279 L475.581,140.302 C475.581,141.651 476.675,142.744 478.023,142.744 C479.372,142.744 480.465,141.651 480.465,140.302 L480.465,127.279 C480.465,125.93 479.372,124.837 478.023,124.837 C476.675,124.837 475.581,125.93 475.581,127.279 Z" />
            <path d="M430,104.488 L430,124.615 C430,124.97 430.077,125.32 430.226,125.641 C430.503,126.24 431.054,127.165 431.933,128.304 C433.346,130.134 435.193,131.947 437.527,133.626 C437.815,133.834 438.109,134.038 438.409,134.239 C439.53,134.989 441.047,134.688 441.797,133.568 C442.547,132.447 442.246,130.93 441.125,130.18 C440.871,130.01 440.622,129.837 440.379,129.663 C438.44,128.267 436.93,126.785 435.799,125.32 C435.152,124.481 434.787,123.869 434.658,123.589 L434.884,124.615 L434.884,104.488 C434.884,103.14 433.79,102.047 432.442,102.047 C431.093,102.047 430,103.14 430,104.488 Z" />
            <path d="M495.116,104.488 L495.116,124.615 L495.342,123.589 C495.213,123.869 494.848,124.481 494.201,125.32 C493.07,126.785 491.56,128.267 489.621,129.663 C489.378,129.837 489.129,130.01 488.875,130.18 C487.754,130.93 487.453,132.447 488.203,133.568 C488.953,134.688 490.47,134.989 491.591,134.239 C491.891,134.038 492.185,133.834 492.473,133.626 C494.807,131.947 496.654,130.134 498.067,128.304 C498.946,127.165 499.497,126.24 499.774,125.641 C499.923,125.32 500,124.97 500,124.615 L500,104.488 C500,103.14 498.907,102.047 497.558,102.047 C496.21,102.047 495.116,103.14 495.116,104.488 Z" />
        </g>
        <g id="Black-S">
            <path d="M634.884,104.488 C634.884,99.256 648.256,93.907 665,93.907 C681.744,93.907 695.116,99.256 695.116,104.488 C695.116,109.721 681.744,115.07 665,115.07 C648.256,115.07 634.884,109.721 634.884,104.488 Z M630,104.488 C630,113.641 645.781,119.953 665,119.953 C684.219,119.953 700,113.641 700,104.488 C700,95.336 684.219,89.023 665,89.023 C645.781,89.023 630,95.336 630,104.488 Z" />
            <path d="M662.558,78.442 L662.558,102.86 C662.558,104.209 663.651,105.302 665,105.302 C666.349,105.302 667.442,104.209 667.442,102.86 L667.442,78.442 C667.442,77.093 666.349,76 665,76 C663.651,76 662.558,77.093 662.558,78.442 Z" />
            <path d="M649.535,127.279 L649.535,140.302 C649.535,141.651 650.628,142.744 651.977,142.744 C653.325,142.744 654.419,141.651 654.419,140.302 L654.419,127.279 C654.419,125.93 653.325,124.837 651.977,124.837 C650.628,124.837 649.535,125.93 649.535,127.279 Z" />
            <path d="M662.558,127.279 L662.558,143.558 C662.558,144.907 663.651,146 665,146 C666.349,146 667.442,144.907 667.442,143.558 L667.442,127.279 C667.442,125.93 666.349,124.837 665,124.837 C663.651,124.837 662.558,125.93 662.558,127.279 Z" />
            <path d="M675.581,127.279 L675.581,140.302 C675.581,141.651 676.675,142.744 678.023,142.744 C679.372,142.744 680.465,141.651 680.465,140.302 L680.465,127.279 C680.465,125.93 679.372,124.837 678.023,124.837 C676.675,124.837 675.581,125.93 675.581,127.279 Z" />
            <path d="M630,104.488 L630,124.615 C630,124.97 630.077,125.32 630.226,125.641 C630.503,126.24 631.054,127.165 631.933,128.304 C633.346,130.134 635.193,131.947 637.527,133.626 C637.815,133.834 638.109,134.038 638.409,134.239 C639.53,134.989 641.047,134.688 641.797,133.568 C642.547,132.447 642.246,130.93 641.125,130.18 C640.871,130.01 640.622,129.837 640.379,129.663 C638.44,128.267 636.93,126.785 635.799,125.32 C635.152,124.481 634.787,123.869 634.658,123.589 L634.884,124.615 L634.884,104.488 C634.884,103.14 633.79,102.047 632.442,102.047 C631.093,102.047 630,103.14 630,104.488 Z" />
            <path d="M695.116,104.488 L695.116,124.615 L695.342,123.589 C695.213,123.869 694.848,124.481 694.201,125.32 C693.07,126.785 691.56,128.267 689.621,129.663 C689.378,129.837 689.129,130.01 688.875,130.18 C687.754,130.93 687.453,132.447 688.203,133.568 C688.953,134.688 690.47,134.989 691.591,134.239 C691.891,134.038 692.185,133.834 692.473,133.626 C694.807,131.947 696.654,130.134 698.067,128.304 C698.946,127.165 699.497,126.24 699.774,125.641 C699.923,125.32 700,124.97 700,124.615 L700,104.488 C700,103.14 698.907,102.047 697.558,102.047 C696.21,102.047 695.116,103.14 695.116,104.488 Z" />
        </g>
    </g>
</svg>