<?xml version="1.0" encoding="UTF-8"?>
<svg height="600" width="800" xmlns="http://www.w3.org/2000/svg" xmlns:xlink="http://www.w3.org/1999/xlink">
    <g id="Notes" font-family="'LucidaGrande', 'Lucida Grande', sans-serif" font-size="13">
        <rect fill="white" height="600.0" width="800.0" x="0.0" y="0.0" />
        <g font-size="13">
            <text x="18.0" y="176.0">Small</text>
            <text x="18.0" y="376.0">Medium</text>
            <text x="18.0" y="576.0">Large</text>
        </g>
        <g font-size="9">
            <text x="250.0" y="30.0">Ultralight</text>
            <text x="450.0" y="30.0">Regular</text>
            <text x="650.0" y="30.0">Black</text>
            <text id="template-version" fill="#505050" text-anchor="end" x="785.0" y="575.0">Template v.3.0</text>
            <a href="https://github.com/swhitty/SwiftDraw">
                <text fill="#505050" text-anchor="end" x="785.0" y="590.0">https://github.com/swhitty/SwiftDraw</text>
            </a>
        </g>
    </g>
    <g id="Guides" stroke="rgb(39, 170, 225)" stroke-width="0.5">
        <path id="Capline-S" d="M18,76 l800,0" />
        <path id="H-reference" d="M85,145.755 L87.685,145.755 L113.369,79.287 L114.052,79.287 L114.052,76 L112.148,76 L85,145.755 Z M95.693,121.536 L130.996,121.536 L130.263,119.313 L96.474,119.313 L95.693,121.536 Z M139.15,145.755 L141.787,145.755 L114.638,76 L113.466,76 L113.466,79.287 L139.15,145.755 Z" stroke="none" />
        <path id="Baseline-S" d="M18,146 l800,0" />
        <path id="left-margin-Ultralight-S" d="M211,56 l0,110" />
        <path id="right-margin-Ultralight-S" d="M319,56 l0,110" />
        <path id="left-margin-Regular-S" d="M411,56 l0,110" />
        <path id="right-margin-Regular-S" d="M519,56 l0,110" />
        <path id="left-margin-Black-S" d="M611,56 l0,110" />
        <path id="right-margin-Black-S" d="M719,56 l0,110" />
        <path id="Capline-M" d="M18,276 l800,0" />
        <path id="Baseline-M" d="M18,346 l800,0" />
        <path id="Capline-L" d="M18,476 l800,0" />
        <path id="Baseline-L" d="M18,546 l800,0" />
    </g>
    <g id="Symbols">
        <g id="Ultralight-S">
            <path d="M286.605,122.036 L307.07,113.85 C308.644,113.221 309.409,111.434 308.78,109.86 C308.15,108.286 306.364,107.52 304.789,108.15 L284.325,116.336 C282.75,116.965 281.985,118.752 282.614,120.326 C283.244,121.9 285.031,122.666 286.605,122.036 Z" />
            <path d="M224.07,122.256 L285.465,122.256 L282.415,118.834 L281.517,126.616 C280.862,132.295 276.053,136.581 270.336,136.581 L239.199,136.581 C233.482,136.581 228.673,132.295 228.017,126.616 L227.12,118.834 L224.07,122.256 Z M224.07,116.116 C222.235,116.116 220.81,117.715 221.021,119.538 L221.918,127.319 C222.931,136.097 230.363,142.72 239.199,142.72 L270.336,142.72 C279.171,142.72 286.603,136.097 287.616,127.319 L288.514,119.538 C288.724,117.715 287.299,116.116 285.465,116.116 L224.07,116.116 Z" />
            <path d="M251.698,82.349 L251.698,102.814 C251.698,104.509 253.072,105.884 254.767,105.884 C256.463,105.884 257.837,104.509 257.837,102.814 L257.837,82.349 C257.837,80.654 256.463,79.28 254.767,79.28 C253.072,79.28 251.698,80.654 251.698,82.349 Z" />
            <path d="M235.326,86.442 L235.326,98.721 C235.326,100.416 236.7,101.791 238.396,101.791 C240.091,101.791 241.465,100.416 241.465,98.721 L241.465,86.442 C241.465,84.747 240.091,83.372 238.396,83.372 C236.7,83.372 235.326,84.747 235.326,86.442 Z" />
            <path d="M268.07,86.442 L268.07,98.721 C268.07,100.416 269.444,101.791 271.139,101.791 C272.835,101.791 274.209,100.416 274.209,98.721 L274.209,86.442 C274.209,84.747 272.835,83.372 271.139,83.372 C269.444,83.372 268.07,84.747 268.07,86.442 Z" />
        </g>
        <g id="Regular-S">
            <path d="M486.605,122.036 L507.07,113.85 C508.644,113.221 509.409,111.434 508.78,109.86 C508.15,108.286 506.364,107.52 504.789,108.15 L484.325,116.336 C482.75,116.965 481.985,118.752 482.614,120.326 C483.244,121.9 485.031,122.666 486.605,122.036 Z" />
            <path d="M424.07,122.256 L485.465,122.256 L482.415,118.834 L481.517,126.616 C480.862,132.295 476.053,136.581 470.336,136.581 L439.199,136.581 C433.482,136.581 428.673,132.295 428.017,126.616 L427.12,118.834 L424.07,122.256 Z M424.07,116.116 C422.235,116.116 420.81,117.715 421.021,119.538 L421.918,127.319 C422.931,136.097 430.363,142.72 439.199,142.72 L470.336,142.72 C479.171,142.72 486.603,136.097 487.616,127.319 L488.514,119.538 C488.724,117.715 487.299,116.116 485.465,116.116 L424.07,116.116 Z" />
            <path d="M451.698,82.349 L451.698,102.814 C451.698,104.509 453.072,105.884 454.767,105.884 C456.463,105.884 457.837,104.509 457.837,102.814 L457.837,82.349 C457.837,80.654 456.463,79.28 454.767,79.28 C453.072,79.28 451.698,80.654 451.698,82.349 Z" />
            <path d="M435.326,86.442 L435.326,98.721 C435.326,100.416 436.7,101.791 438.396,101.791 C440.091,101.791 441.465,100.416 441.465,98.721 L441.465,86.442 C441.465,84.747 440.091,83.372 438.396,83.372 C436.7,83.372 435.326,84.747 435.326,86.442 Z" />
            <path d="M468.07,86.442 L468.07,98.721 C468.07,100.416 469.444,101.791 471.139,101.791 C472.835,101.791 474.209,100.416 474.209,98.721 L474.209,86.442 C474.209,84.747 472.835,83.372 471.139,83.372 C469.444,83.372 468.07,84.747 468.07,86.442 Z" />
        </g>
        <g id="Black-S">
            <path d="M686.605,122.036 L707.07,113.85 C708.644,113.221 709.409,111.434 708.78,109.86 C708.15,108.286 706.363,107.52 704.789,108.15 L684.325,116.336 C682.75,116.965 681.985,118.752 682.614,120.326 C683.244,121.9 685.031,122.666 686.605,122.036 Z" />
            <path d="M624.07,122.256 L685.465,122.256 L682.415,118.834 L681.517,126.616 C680.862,132.295 676.053,136.581 670.336,136.581 L639.199,136.581 C633.482,136.581 628.673,132.295 628.017,126.616 L627.12,118.834 L624.07,122.256 Z M624.07,116.116 C622.235,116.116 620.81,117.715 621.021,119.538 L621.918,127.319 C622.931,136.097 630.363,142.72 639.199,142.72 L670.336,142.72 C679.171,142.72 686.603,136.097 687.616,127.319 L688.514,119.538 C688.724,117.715 687.299,116.116 685.465,116.116 L624.07,116.116 Z" />
            <path d="M651.698,82.349 L651.698,102.814 C651.698,104.509 653.072,105.884 654.767,105.884 C656.463,105.884 657.837,104.509 657.837,102.814 L657.837,82.349 C657.837,80.654 656.463,79.28 654.767,79.28 C653.072,79.28 651.698,80.654 651.698,82.349 Z" />
            <path d="M635.326,86.442 L635.326,98.721 C635.326,100.416 636.7,101.791 638.396,101.791 C640.091,101.791 641.465,100.416 641.465,98.721 L641.465,86.442 C641.465,84.747 640.091,83.372 638.396,83.372 C636.7,83.372 635.326,84.747 635.326,86.442 Z" />
            <path d="M668.07,86.442 L668.07,98.721 C668.07,100.416 669.444,101.791 671.139,101.791 C672.835,101.791 674.209,100.416 674.209,98.721 L674.209,86.442 C674.209,84.747 672.835,83.372 671.139,83.372 C669.444,83.372 668.07,84.747 668.07,86.442 Z" />
        </g>
    </g>
</svg>