<?xml version="1.0" encoding="UTF-8"?>
<svg height="600" width="800" xmlns="http://www.w3.org/2000/svg" xmlns:xlink="http://www.w3.org/1999/xlink">
    <g id="Notes" font-family="'LucidaGrande', 'Lucida Grande', sans-serif" font-size="13">
        <rect fill="white" height="600.0" width="800.0" x="0.0" y="0.0" />
        <g font-size="13">
            <text x="18.0" y="176.0">Small</text>
            <text x="18.0" y="376.0">Medium</text>
            <text x="18.0" y="576.0">Large</text>
        </g>
        <g font-size="9">
            <text x="250.0" y="30.0">Ultralight</text>
            <text x="450.0" y="30.0">Regular</text>
            <text x="650.0" y="30.0">Black</text>
            <text id="template-version" fill="#505050" text-anchor="end" x="785.0" y="575.0">Template v.3.0</text>
            <a href="https://github.com/swhitty/SwiftDraw">
                <text fill="#505050" text-anchor="end" x="785.0" y="590.0">https://github.com/swhitty/SwiftDraw</text>
            </a>
        </g>
    </g>
    <g id="Guides" stroke="rgb(39, 170, 225)" stroke-width="0.5">
        <path id="Capline-S" d="M18,76 l800,0" />
        <path id="H-reference" d="M85,145.755 L87.685,145.755 L113.369,79.287 L114.052,79.287 L114.052,76 L112.148,76 L85,145.755 Z M95.693,121.536 L130.996,121.536 L130.263,119.313 L96.474,119.313 L95.693,121.536 Z M139.15,145.755 L141.787,145.755 L114.638,76 L113.466,76 L113.466,79.287 L139.15,145.755 Z" stroke="none" />
        <path id="Baseline-S" d="M18,146 l800,0" />
        <path id="left-margin-Ultralight-S" d="M220.541,56 l0,110" />
        <path id="right-margin-Ultralight-S" d="M309.459,56 l0,110" />
        <path id="left-margin-Regular-S" d="M420.541,56 l0,110" />
        <path id="right-margin-Regular-S" d="M509.459,56 l0,110" />
        <path id="left-margin-Black-S" d="M620.541,56 l0,110" />
        <path id="right-margin-Black-S" d="M709.459,56 l0,110" />
        <path id="Capline-M" d="M18,276 l800,0" />
        <path id="Baseline-M" d="M18,346 l800,0" />
        <path id="Capline-L" d="M18,476 l800,0" />
        <path id="Baseline-L" d="M18,546 l800,0" />
    </g>
    <g id="Symbols">
        <g id="Ultralight-S">
            <path d="M262.439,113.925 L262.439,81.865 C262.439,78.626 259.813,76 256.574,76 C253.808,76 251.418,77.932 250.839,80.636 L243.815,113.415 C243.798,113.491 243.771,113.565 243.735,113.634 L231.244,137.228 C229.137,141.208 232.022,146 236.525,146 L250.327,146 C253.114,146 255.531,144.073 256.152,141.356 L261.487,118.014 L262.198,115.605 C262.358,115.059 262.439,114.493 262.439,113.925 Z M257.317,113.925 C257.317,114.006 257.305,114.087 257.283,114.165 L256.533,116.723 L251.159,140.215 C251.07,140.603 250.725,140.878 250.327,140.878 L236.525,140.878 C235.882,140.878 235.47,140.193 235.771,139.625 L248.261,116.032 C248.518,115.546 248.708,115.026 248.823,114.488 L255.847,81.71 C255.92,81.367 256.223,81.122 256.574,81.122 C256.984,81.122 257.317,81.455 257.317,81.865 L257.317,113.925 Z" />
            <path d="M245.211,116.769 L257.162,121.89 C258.462,122.448 259.967,121.845 260.525,120.545 C261.082,119.245 260.48,117.74 259.18,117.183 L247.228,112.061 C245.928,111.504 244.423,112.106 243.866,113.406 C243.308,114.706 243.911,116.211 245.211,116.769 Z" />
            <path d="M272.683,113.925 L272.683,81.865 C272.683,81.455 273.016,81.122 273.426,81.122 C273.777,81.122 274.08,81.367 274.153,81.709 L281.177,114.488 C281.292,115.026 281.482,115.546 281.739,116.032 L294.229,139.625 C294.53,140.193 294.118,140.878 293.475,140.878 L279.673,140.878 C279.275,140.878 278.93,140.603 278.841,140.214 L273.506,116.873 L272.717,114.165 C272.695,114.087 272.683,114.006 272.683,113.925 Z M267.561,113.925 C267.561,114.493 267.642,115.059 267.802,115.605 L268.552,118.163 L273.848,141.356 C274.469,144.073 276.886,146 279.673,146 L293.475,146 C297.978,146 300.863,141.208 298.756,137.229 L286.266,113.635 C286.229,113.565 286.202,113.491 286.185,113.415 L279.161,80.636 C278.582,77.932 276.192,76 273.426,76 C270.187,76 267.561,78.626 267.561,81.865 L267.561,113.925 Z" />
            <path d="M282.772,112.061 L270.82,117.183 C269.52,117.74 268.918,119.245 269.475,120.545 C270.033,121.845 271.538,122.448 272.838,121.89 L284.789,116.769 C286.089,116.211 286.692,114.706 286.134,113.406 C285.577,112.106 284.072,111.504 282.772,112.061 Z" />
        </g>
        <g id="Regular-S">
            <path d="M462.439,113.925 L462.439,81.865 C462.439,78.626 459.813,76 456.574,76 C453.808,76 451.418,77.932 450.839,80.636 L443.815,113.415 C443.798,113.491 443.771,113.565 443.735,113.634 L431.244,137.228 C429.137,141.208 432.022,146 436.525,146 L450.327,146 C453.114,146 455.531,144.073 456.152,141.356 L461.487,118.014 L462.198,115.605 C462.358,115.059 462.439,114.493 462.439,113.925 Z M457.317,113.925 C457.317,114.006 457.305,114.087 457.283,114.165 L456.533,116.723 L451.159,140.215 C451.07,140.603 450.725,140.878 450.327,140.878 L436.525,140.878 C435.882,140.878 435.47,140.193 435.771,139.625 L448.261,116.032 C448.518,115.546 448.708,115.026 448.823,114.488 L455.847,81.71 C455.92,81.367 456.223,81.122 456.574,81.122 C456.984,81.122 457.317,81.455 457.317,81.865 L457.317,113.925 Z" />
            <path d="M445.211,116.769 L457.162,121.89 C458.462,122.448 459.967,121.845 460.525,120.545 C461.082,119.245 460.48,117.74 459.18,117.183 L447.228,112.061 C445.928,111.504 444.423,112.106 443.866,113.406 C443.308,114.706 443.911,116.211 445.211,116.769 Z" />
            <path d="M472.683,113.925 L472.683,81.865 C472.683,81.455 473.016,81.122 473.426,81.122 C473.777,81.122 474.08,81.367 474.153,81.709 L481.177,114.488 C481.292,115.026 481.482,115.546 481.739,116.032 L494.229,139.625 C494.53,140.193 494.118,140.878 493.475,140.878 L479.673,140.878 C479.275,140.878 478.93,140.603 478.841,140.214 L473.506,116.873 L472.717,114.165 C472.695,114.087 472.683,114.006 472.683,113.925 Z M467.561,113.925 C467.561,114.493 467.642,115.059 467.802,115.605 L468.552,118.163 L473.848,141.356 C474.469,144.073 476.886,146 479.673,146 L493.475,146 C497.978,146 500.863,141.208 498.756,137.229 L486.266,113.635 C486.229,113.565 486.202,113.491 486.185,113.415 L479.161,80.636 C478.582,77.932 476.192,76 473.426,76 C470.187,76 467.561,78.626 467.561,81.865 L467.561,113.925 Z" />
            <path d="M482.772,112.061 L470.82,117.183 C469.52,117.74 468.918,119.245 469.475,120.545 C470.033,121.845 471.538,122.448 472.838,121.89 L484.789,116.769 C486.089,116.211 486.692,114.706 486.134,113.406 C485.577,112.106 484.072,111.504 482.772,112.061 Z" />
        </g>
        <g id="Black-S">
            <path d="M662.439,113.925 L662.439,81.865 C662.439,78.626 659.813,76 656.574,76 C653.808,76 651.418,77.932 650.839,80.636 L643.815,113.415 C643.798,113.491 643.771,113.565 643.735,113.634 L631.244,137.228 C629.137,141.208 632.022,146 636.525,146 L650.327,146 C653.114,146 655.531,144.073 656.152,141.356 L661.487,118.014 L662.198,115.605 C662.358,115.059 662.439,114.493 662.439,113.925 Z M657.317,113.925 C657.317,114.006 657.305,114.087 657.283,114.165 L656.533,116.723 L651.159,140.215 C651.07,140.603 650.725,140.878 650.327,140.878 L636.525,140.878 C635.882,140.878 635.47,140.193 635.771,139.625 L648.261,116.032 C648.518,115.546 648.708,115.026 648.823,114.488 L655.847,81.71 C655.92,81.367 656.223,81.122 656.574,81.122 C656.984,81.122 657.317,81.455 657.317,81.865 L657.317,113.925 Z" />
            <path d="M645.211,116.769 L657.162,121.89 C658.462,122.448 659.968,121.845 660.525,120.545 C661.082,119.245 660.48,117.74 659.18,117.183 L647.228,112.061 C645.928,111.504 644.423,112.106 643.866,113.406 C643.308,114.706 643.911,116.211 645.211,116.769 Z" />
            <path d="M672.683,113.925 L672.683,81.865 C672.683,81.455 673.016,81.122 673.426,81.122 C673.777,81.122 674.08,81.367 674.153,81.709 L681.177,114.488 C681.292,115.026 681.482,115.546 681.739,116.032 L694.229,139.625 C694.53,140.193 694.118,140.878 693.475,140.878 L679.673,140.878 C679.275,140.878 678.93,140.603 678.841,140.214 L673.506,116.873 L672.717,114.165 C672.695,114.087 672.683,114.006 672.683,113.925 Z M667.561,113.925 C667.561,114.493 667.642,115.059 667.802,115.605 L668.552,118.163 L673.848,141.356 C674.469,144.073 676.886,146 679.673,146 L693.475,146 C697.978,146 700.863,141.208 698.756,137.229 L686.266,113.635 C686.229,113.565 686.202,113.491 686.185,113.415 L679.161,80.636 C678.582,77.932 676.192,76 673.426,76 C670.187,76 667.561,78.626 667.561,81.865 L667.561,113.925 Z" />
            <path d="M682.772,112.061 L670.82,117.183 C669.52,117.74 668.918,119.245 669.475,120.545 C670.033,121.845 671.538,122.448 672.838,121.89 L684.789,116.769 C686.089,116.211 686.692,114.706 686.134,113.406 C685.577,112.106 684.072,111.504 682.772,112.061 Z" />
        </g>
    </g>
</svg>