<?xml version="1.0" encoding="UTF-8"?>
<svg height="600" width="800" xmlns="http://www.w3.org/2000/svg" xmlns:xlink="http://www.w3.org/1999/xlink">
    <g id="Notes" font-family="'LucidaGrande', 'Lucida Grande', sans-serif" font-size="13">
        <rect fill="white" height="600.0" width="800.0" x="0.0" y="0.0" />
        <g font-size="13">
            <text x="18.0" y="176.0">Small</text>
            <text x="18.0" y="376.0">Medium</text>
            <text x="18.0" y="576.0">Large</text>
        </g>
        <g font-size="9">
            <text x="250.0" y="30.0">Ultralight</text>
            <text x="450.0" y="30.0">Regular</text>
            <text x="650.0" y="30.0">Black</text>
            <text id="template-version" fill="#505050" text-anchor="end" x="785.0" y="575.0">Template v.3.0</text>
            <a href="https://github.com/swhitty/SwiftDraw">
                <text fill="#505050" text-anchor="end" x="785.0" y="590.0">https://github.com/swhitty/SwiftDraw</text>
            </a>
        </g>
    </g>
    <g id="Guides" stroke="rgb(39, 170, 225)" stroke-width="0.5">
        <path id="Capline-S" d="M18,76 l800,0" />
        <path id="H-reference" d="M85,145.755 L87.685,145.755 L113.369,79.287 L114.052,79.287 L114.052,76 L112.148,76 L85,145.755 Z M95.693,121.536 L130.996,121.536 L130.263,119.313 L96.474,119.313 L95.693,121.536 Z M139.15,145.755 L141.787,145.755 L114.638,76 L113.466,76 L113.466,79.287 L139.15,145.755 Z" stroke="none" />
        <path id="Baseline-S" d="M18,146 l800,0" />
        <path id="left-margin-Ultralight-S" d="M218.164,56 l0,110" />
        <path id="right-margin-Ultralight-S" d="M311.836,56 l0,110" />
        <path id="left-margin-Regular-S" d="M418.164,56 l0,110" />
        <path id="right-margin-Regular-S" d="M511.836,56 l0,110" />
        <path id="left-margin-Black-S" d="M618.164,56 l0,110" />
        <path id="right-margin-Black-S" d="M711.836,56 l0,110" />
        <path id="Capline-M" d="M18,276 l800,0" />
        <path id="Baseline-M" d="M18,346 l800,0" />
        <path id="Capline-L" d="M18,476 l800,0" />
        <path id="Baseline-L" d="M18,546 l800,0" />
    </g>
    <g id="Symbols">
        <g id="Ultralight-S">
            <path d="M233.287,107.684 C233.243,107.185 233.636,106.757 234.137,106.757 L240.652,106.757 C241.123,106.757 241.505,107.139 241.505,107.61 L241.505,140.028 C241.505,140.499 241.123,140.881 240.652,140.881 L236.956,140.881 C236.513,140.881 236.144,140.543 236.106,140.102 L233.287,107.684 Z M228.187,108.127 L231.006,140.546 C231.275,143.632 233.858,146 236.956,146 L240.652,146 C243.95,146 246.624,143.326 246.624,140.028 L246.624,107.61 C246.624,104.312 243.95,101.638 240.652,101.638 L234.137,101.638 C230.634,101.638 227.884,104.638 228.187,108.127 Z" />
            <path d="M256.861,106.543 C256.861,106.157 257.13,105.754 257.569,105.547 C262.331,103.303 266.316,100.493 268.44,96.949 C269.878,94.551 270.846,91.336 271.481,87.552 C271.894,85.092 272.113,82.733 272.2,80.78 C272.202,80.716 272.202,80.716 272.204,80.657 C272.207,80.559 272.207,80.559 272.209,80.477 C272.213,80.295 272.216,80.236 272.219,80.212 C272.161,80.635 271.609,81.136 271.137,81.163 C271.261,81.156 271.75,81.308 272.391,81.655 C274.062,82.562 275.904,84.277 276.847,85.851 C277.693,87.261 278.008,89.385 277.857,91.834 C277.75,93.571 277.403,95.032 276.436,98.261 C276.411,98.343 276.411,98.343 276.386,98.426 L274.884,103.436 C274.392,105.078 275.622,106.73 277.336,106.73 L295.86,106.73 C296.426,106.73 296.835,107.271 296.681,107.815 L287.518,140.26 C287.414,140.628 287.079,140.881 286.697,140.881 L257.714,140.881 C257.243,140.881 256.861,140.499 256.861,140.028 L256.861,106.543 Z M251.742,106.543 L251.742,140.028 C251.742,143.326 254.416,146 257.714,146 L286.697,146 C289.37,146 291.718,144.224 292.444,141.651 L301.607,109.206 C302.684,105.396 299.82,101.611 295.86,101.611 L277.336,101.611 L279.787,104.906 L281.289,99.896 C281.314,99.813 281.314,99.813 281.339,99.73 C282.419,96.128 282.827,94.407 282.966,92.148 C283.174,88.762 282.719,85.69 281.237,83.219 C279.809,80.838 277.288,78.489 274.832,77.156 C271.34,75.262 267.71,75.464 267.149,79.509 C267.109,79.794 267.1,79.984 267.091,80.363 C267.09,80.438 267.09,80.438 267.088,80.497 C267.087,80.528 267.087,80.528 267.086,80.553 C267.008,82.314 266.807,84.475 266.433,86.704 C265.894,89.912 265.092,92.58 264.05,94.317 C262.591,96.751 259.296,99.074 255.386,100.917 C253.196,101.95 251.742,104.127 251.742,106.543 Z" />
        </g>
        <g id="Regular-S">
            <path d="M433.287,107.684 C433.243,107.185 433.636,106.757 434.137,106.757 L440.652,106.757 C441.123,106.757 441.505,107.139 441.505,107.61 L441.505,140.028 C441.505,140.499 441.123,140.881 440.652,140.881 L436.956,140.881 C436.513,140.881 436.144,140.543 436.106,140.102 L433.287,107.684 Z M428.187,108.127 L431.006,140.546 C431.275,143.632 433.858,146 436.956,146 L440.652,146 C443.95,146 446.624,143.326 446.624,140.028 L446.624,107.61 C446.624,104.312 443.95,101.638 440.652,101.638 L434.137,101.638 C430.634,101.638 427.884,104.638 428.187,108.127 Z" />
            <path d="M456.861,106.543 C456.861,106.157 457.13,105.754 457.569,105.547 C462.331,103.303 466.316,100.493 468.44,96.949 C469.878,94.551 470.846,91.336 471.481,87.552 C471.894,85.092 472.113,82.733 472.2,80.78 C472.202,80.716 472.202,80.716 472.204,80.657 C472.207,80.559 472.207,80.559 472.209,80.477 C472.213,80.295 472.216,80.236 472.219,80.212 C472.161,80.635 471.609,81.136 471.137,81.163 C471.261,81.156 471.75,81.308 472.391,81.655 C474.062,82.562 475.904,84.277 476.847,85.851 C477.693,87.261 478.008,89.385 477.857,91.834 C477.75,93.571 477.403,95.032 476.436,98.261 C476.411,98.343 476.411,98.343 476.386,98.426 L474.884,103.436 C474.392,105.078 475.622,106.73 477.336,106.73 L495.86,106.73 C496.426,106.73 496.835,107.271 496.681,107.815 L487.518,140.26 C487.414,140.628 487.079,140.881 486.697,140.881 L457.714,140.881 C457.243,140.881 456.861,140.499 456.861,140.028 L456.861,106.543 Z M451.742,106.543 L451.742,140.028 C451.742,143.326 454.416,146 457.714,146 L486.697,146 C489.37,146 491.718,144.224 492.444,141.651 L501.607,109.206 C502.684,105.396 499.82,101.611 495.86,101.611 L477.336,101.611 L479.787,104.906 L481.289,99.896 C481.314,99.813 481.314,99.813 481.339,99.73 C482.419,96.128 482.827,94.407 482.966,92.148 C483.174,88.762 482.719,85.69 481.237,83.219 C479.809,80.838 477.288,78.489 474.832,77.156 C471.34,75.262 467.71,75.464 467.149,79.509 C467.109,79.794 467.1,79.984 467.091,80.363 C467.09,80.438 467.09,80.438 467.088,80.497 C467.087,80.528 467.087,80.528 467.086,80.553 C467.008,82.314 466.807,84.475 466.433,86.704 C465.894,89.912 465.092,92.58 464.05,94.317 C462.591,96.751 459.296,99.074 455.386,100.917 C453.196,101.95 451.742,104.127 451.742,106.543 Z" />
        </g>
        <g id="Black-S">
            <path d="M633.287,107.684 C633.243,107.185 633.636,106.757 634.137,106.757 L640.652,106.757 C641.123,106.757 641.505,107.139 641.505,107.61 L641.505,140.028 C641.505,140.499 641.123,140.881 640.652,140.881 L636.956,140.881 C636.513,140.881 636.144,140.543 636.106,140.102 L633.287,107.684 Z M628.187,108.127 L631.006,140.546 C631.275,143.632 633.858,146 636.956,146 L640.652,146 C643.95,146 646.624,143.326 646.624,140.028 L646.624,107.61 C646.624,104.312 643.95,101.638 640.652,101.638 L634.137,101.638 C630.634,101.638 627.884,104.638 628.187,108.127 Z" />
            <path d="M656.861,106.543 C656.861,106.157 657.13,105.754 657.569,105.547 C662.331,103.303 666.316,100.493 668.44,96.949 C669.878,94.551 670.846,91.336 671.481,87.552 C671.894,85.092 672.113,82.733 672.2,80.78 C672.202,80.716 672.202,80.716 672.204,80.657 C672.207,80.559 672.207,80.559 672.209,80.477 C672.213,80.295 672.216,80.236 672.219,80.212 C672.161,80.635 671.609,81.136 671.137,81.163 C671.261,81.156 671.75,81.308 672.391,81.655 C674.062,82.562 675.904,84.277 676.847,85.851 C677.693,87.261 678.008,89.385 677.857,91.834 C677.75,93.571 677.404,95.032 676.436,98.261 C676.411,98.343 676.411,98.343 676.386,98.426 L674.884,103.436 C674.392,105.078 675.622,106.73 677.336,106.73 L695.86,106.73 C696.426,106.73 696.835,107.271 696.681,107.815 L687.518,140.26 C687.414,140.628 687.079,140.881 686.697,140.881 L657.714,140.881 C657.243,140.881 656.861,140.499 656.861,140.028 L656.861,106.543 Z M651.742,106.543 L651.742,140.028 C651.742,143.326 654.416,146 657.714,146 L686.697,146 C689.37,146 691.718,144.224 692.444,141.651 L701.607,109.206 C702.684,105.396 699.82,101.611 695.86,101.611 L677.336,101.611 L679.787,104.906 L681.289,99.896 C681.314,99.813 681.314,99.813 681.339,99.73 C682.419,96.128 682.827,94.407 682.966,92.148 C683.174,88.762 682.719,85.69 681.237,83.219 C679.809,80.838 677.288,78.489 674.832,77.156 C671.34,75.262 667.71,75.464 667.149,79.509 C667.109,79.794 667.1,79.984 667.091,80.363 C667.09,80.438 667.09,80.438 667.088,80.497 C667.087,80.528 667.087,80.528 667.086,80.553 C667.008,82.314 666.807,84.475 666.433,86.704 C665.894,89.912 665.092,92.58 664.05,94.317 C662.591,96.751 659.296,99.074 655.386,100.917 C653.196,101.95 651.742,104.127 651.742,106.543 Z" />
        </g>
    </g>
</svg>