<?xml version="1.0" encoding="UTF-8"?>
<svg height="600" width="800" xmlns="http://www.w3.org/2000/svg" xmlns:xlink="http://www.w3.org/1999/xlink">
    <g id="Notes" font-family="'LucidaGrande', 'Lucida Grande', sans-serif" font-size="13">
        <rect fill="white" height="600.0" width="800.0" x="0.0" y="0.0" />
        <g font-size="13">
            <text x="18.0" y="176.0">Small</text>
            <text x="18.0" y="376.0">Medium</text>
            <text x="18.0" y="576.0">Large</text>
        </g>
        <g font-size="9">
            <text x="250.0" y="30.0">Ultralight</text>
            <text x="450.0" y="30.0">Regular</text>
            <text x="650.0" y="30.0">Black</text>
            <text id="template-version" fill="#505050" text-anchor="end" x="785.0" y="575.0">Template v.3.0</text>
            <a href="https://github.com/swhitty/SwiftDraw">
                <text fill="#505050" text-anchor="end" x="785.0" y="590.0">https://github.com/swhitty/SwiftDraw</text>
            </a>
        </g>
    </g>
    <g id="Guides" stroke="rgb(39, 170, 225)" stroke-width="0.5">
        <path id="Capline-S" d="M18,76 l800,0" />
        <path id="H-reference" d="M85,145.755 L87.685,145.755 L113.369,79.287 L114.052,79.287 L114.052,76 L112.148,76 L85,145.755 Z M95.693,121.536 L130.996,121.536 L130.263,119.313 L96.474,119.313 L95.693,121.536 Z M139.15,145.755 L141.787,145.755 L114.638,76 L113.466,76 L113.466,79.287 L139.15,145.755 Z" stroke="none" />
        <path id="Baseline-S" d="M18,146 l800,0" />
        <path id="left-margin-Ultralight-S" d="M214.3,56 l0,110" />
        <path id="right-margin-Ultralight-S" d="M315.7,56 l0,110" />
        <path id="left-margin-Regular-S" d="M414.3,56 l0,110" />
        <path id="right-margin-Regular-S" d="M515.7,56 l0,110" />
        <path id="left-margin-Black-S" d="M614.3,56 l0,110" />
        <path id="right-margin-Black-S" d="M715.7,56 l0,110" />
        <path id="Capline-M" d="M18,276 l800,0" />
        <path id="Baseline-M" d="M18,346 l800,0" />
        <path id="Capline-L" d="M18,476 l800,0" />
        <path id="Baseline-L" d="M18,546 l800,0" />
    </g>
    <g id="Symbols">
        <g id="Ultralight-S">
            <path d="M241.337,143.16 L241.337,101.514 C241.337,99.946 240.066,98.674 238.498,98.674 L227.14,98.674 C225.572,98.674 224.3,99.946 224.3,101.514 L224.3,143.16 C224.3,144.728 225.572,146 227.14,146 L238.498,146 C240.066,146 241.337,144.728 241.337,143.16 Z M235.658,143.16 L238.498,140.321 L227.14,140.321 L229.979,143.16 L229.979,101.514 L227.14,104.353 L238.498,104.353 L235.658,101.514 L235.658,143.16 Z" />
            <path d="M240.415,103.609 C253.858,91.306 261.675,84.222 263.779,82.435 C265.355,81.096 265.954,81.462 265.954,85.524 C265.954,87.39 264.822,89.095 261.787,92.118 C261.614,92.291 261.426,92.477 261.059,92.84 C260.756,93.14 260.537,93.36 260.321,93.577 C259.75,94.155 259.289,94.643 258.868,95.122 C256.974,97.28 255.949,99.234 255.949,101.514 L258.788,101.514 L256.008,100.938 L256.001,102.059 L256.784,103.526 C257.611,104.103 257.611,104.103 257.9,104.212 C258.219,104.3 258.219,104.3 258.347,104.32 C258.513,104.342 258.513,104.342 258.58,104.347 C258.672,104.353 258.672,104.353 258.72,104.355 C258.804,104.357 258.804,104.357 258.888,104.359 C259.083,104.362 259.083,104.362 259.365,104.364 C259.769,104.367 260.373,104.37 261.176,104.372 C262.778,104.376 265.178,104.378 268.379,104.379 C274.778,104.38 284.377,104.373 297.176,104.36 C298.746,104.358 300.019,105.629 300.021,107.198 L300.021,107.201 C300.021,108.774 298.746,110.049 297.173,110.049 L282.011,110.049 C280.608,110.049 279.414,111.074 279.204,112.462 C276.925,127.492 275.658,135.726 275.429,137.003 C275.102,138.821 273.566,140.321 270.55,140.321 C262.218,140.321 262.218,140.321 238.498,140.321 L241.337,143.16 L241.337,101.514 L240.415,103.609 Z M236.581,99.42 C235.993,99.957 235.658,100.718 235.658,101.514 L235.658,143.16 C235.658,144.729 236.93,146 238.498,146 C262.218,146 262.218,146 270.55,146 C276.516,146 280.235,142.369 281.019,138.006 C281.263,136.647 282.519,128.483 284.819,113.314 L282.011,115.728 L297.173,115.728 C301.882,115.728 305.7,111.91 305.7,107.201 L305.7,107.195 C305.695,102.486 301.876,98.676 297.17,98.681 C284.373,98.694 274.776,98.701 268.38,98.7 C265.183,98.699 262.787,98.697 261.191,98.693 C260.396,98.691 259.801,98.688 259.407,98.685 C259.14,98.683 259.14,98.683 258.986,98.681 C258.933,98.68 258.933,98.68 258.93,98.679 C258.944,98.68 258.944,98.68 259.014,98.684 C259.072,98.689 259.072,98.689 259.234,98.71 C259.359,98.729 259.359,98.729 259.677,98.818 C259.966,98.926 259.966,98.926 260.159,99.028 L260.792,99.503 L261.575,100.969 C261.608,101.901 261.628,101.708 261.628,101.514 C261.628,100.923 262.066,100.087 263.136,98.869 C263.472,98.486 263.86,98.075 264.359,97.571 C264.559,97.369 264.767,97.161 265.058,96.873 C265.421,96.513 265.616,96.32 265.795,96.142 C269.864,92.088 271.633,89.424 271.633,85.524 C271.633,76.982 265.694,73.358 260.102,78.107 C257.917,79.963 250.109,87.039 236.581,99.42 Z" />
        </g>
        <g id="Regular-S">
            <path d="M441.337,143.16 L441.337,101.514 C441.337,99.946 440.066,98.674 438.498,98.674 L427.14,98.674 C425.572,98.674 424.3,99.946 424.3,101.514 L424.3,143.16 C424.3,144.728 425.572,146 427.14,146 L438.498,146 C440.066,146 441.337,144.728 441.337,143.16 Z M435.658,143.16 L438.498,140.321 L427.14,140.321 L429.979,143.16 L429.979,101.514 L427.14,104.353 L438.498,104.353 L435.658,101.514 L435.658,143.16 Z" />
            <path d="M440.415,103.609 C453.858,91.306 461.675,84.222 463.779,82.435 C465.355,81.096 465.954,81.462 465.954,85.524 C465.954,87.39 464.822,89.095 461.787,92.118 C461.614,92.291 461.426,92.477 461.059,92.84 C460.756,93.14 460.537,93.36 460.321,93.577 C459.75,94.155 459.289,94.643 458.868,95.122 C456.974,97.28 455.949,99.234 455.949,101.514 L458.788,101.514 L456.008,100.938 L456.001,102.059 L456.784,103.526 C457.611,104.103 457.611,104.103 457.9,104.212 C458.219,104.3 458.219,104.3 458.347,104.32 C458.513,104.342 458.513,104.342 458.58,104.347 C458.672,104.353 458.672,104.353 458.721,104.355 C458.804,104.357 458.804,104.357 458.888,104.359 C459.083,104.362 459.083,104.362 459.365,104.364 C459.769,104.367 460.373,104.37 461.176,104.372 C462.778,104.376 465.178,104.378 468.379,104.379 C474.778,104.38 484.377,104.373 497.176,104.36 C498.746,104.358 500.019,105.629 500.021,107.198 L500.021,107.201 C500.021,108.774 498.746,110.049 497.173,110.049 L482.011,110.049 C480.608,110.049 479.414,111.074 479.204,112.462 C476.925,127.492 475.658,135.726 475.429,137.003 C475.102,138.821 473.566,140.321 470.55,140.321 C462.218,140.321 462.218,140.321 438.498,140.321 L441.337,143.16 L441.337,101.514 L440.415,103.609 Z M436.581,99.42 C435.993,99.957 435.658,100.718 435.658,101.514 L435.658,143.16 C435.658,144.729 436.93,146 438.498,146 C462.218,146 462.218,146 470.55,146 C476.516,146 480.235,142.369 481.019,138.006 C481.263,136.647 482.519,128.483 484.819,113.314 L482.011,115.728 L497.173,115.728 C501.882,115.728 505.7,111.91 505.7,107.201 L505.7,107.195 C505.695,102.486 501.876,98.676 497.17,98.681 C484.373,98.694 474.776,98.701 468.38,98.7 C465.183,98.699 462.787,98.697 461.191,98.693 C460.396,98.691 459.801,98.688 459.407,98.685 C459.14,98.683 459.14,98.683 458.986,98.681 C458.933,98.68 458.933,98.68 458.93,98.679 C458.944,98.68 458.944,98.68 459.014,98.684 C459.072,98.689 459.072,98.689 459.234,98.71 C459.359,98.729 459.359,98.729 459.677,98.818 C459.966,98.926 459.966,98.926 460.159,99.028 L460.792,99.503 L461.575,100.969 C461.608,101.901 461.628,101.708 461.628,101.514 C461.628,100.923 462.066,100.087 463.136,98.869 C463.472,98.486 463.86,98.075 464.359,97.571 C464.559,97.369 464.767,97.161 465.058,96.873 C465.421,96.513 465.616,96.32 465.795,96.142 C469.864,92.088 471.633,89.424 471.633,85.524 C471.633,76.982 465.694,73.358 460.102,78.107 C457.917,79.963 450.109,87.039 436.581,99.42 Z" />
        </g>
        <g id="Black-S">
            <path d="M641.337,143.16 L641.337,101.514 C641.337,99.946 640.066,98.674 638.498,98.674 L627.14,98.674 C625.572,98.674 624.3,99.946 624.3,101.514 L624.3,143.16 C624.3,144.728 625.572,146 627.14,146 L638.498,146 C640.066,146 641.337,144.728 641.337,143.16 Z M635.658,143.16 L638.498,140.321 L627.14,140.321 L629.979,143.16 L629.979,101.514 L627.14,104.353 L638.498,104.353 L635.658,101.514 L635.658,143.16 Z" />
            <path d="M640.415,103.609 C653.858,91.306 661.675,84.222 663.779,82.435 C665.355,81.096 665.954,81.462 665.954,85.524 C665.954,87.39 664.822,89.095 661.787,92.118 C661.614,92.291 661.426,92.477 661.059,92.84 C660.756,93.14 660.537,93.36 660.321,93.577 C659.75,94.155 659.289,94.643 658.868,95.122 C656.974,97.28 655.949,99.234 655.949,101.514 L658.788,101.514 L656.008,100.938 L656.001,102.059 L656.784,103.526 C657.611,104.103 657.611,104.103 657.9,104.212 C658.219,104.3 658.219,104.3 658.347,104.32 C658.513,104.342 658.513,104.342 658.58,104.347 C658.672,104.353 658.672,104.353 658.721,104.355 C658.804,104.357 658.804,104.357 658.888,104.359 C659.083,104.362 659.083,104.362 659.365,104.364 C659.769,104.367 660.373,104.37 661.176,104.372 C662.778,104.376 665.178,104.378 668.379,104.379 C674.778,104.38 684.377,104.373 697.176,104.36 C698.746,104.358 700.019,105.629 700.021,107.198 L700.021,107.201 C700.021,108.774 698.746,110.049 697.173,110.049 L682.011,110.049 C680.608,110.049 679.414,111.074 679.204,112.462 C676.925,127.492 675.658,135.726 675.429,137.003 C675.102,138.821 673.566,140.321 670.55,140.321 C662.218,140.321 662.218,140.321 638.498,140.321 L641.337,143.16 L641.337,101.514 L640.415,103.609 Z M636.581,99.42 C635.993,99.957 635.658,100.718 635.658,101.514 L635.658,143.16 C635.658,144.729 636.93,146 638.498,146 C662.218,146 662.218,146 670.55,146 C676.516,146 680.235,142.369 681.019,138.006 C681.263,136.647 682.519,128.483 684.819,113.314 L682.011,115.728 L697.173,115.728 C701.882,115.728 705.7,111.91 705.7,107.201 L705.7,107.195 C705.695,102.486 701.876,98.676 697.17,98.681 C684.373,98.694 674.776,98.701 668.38,98.7 C665.183,98.699 662.787,98.697 661.191,98.693 C660.396,98.691 659.801,98.688 659.407,98.685 C659.14,98.683 659.14,98.683 658.986,98.681 C658.933,98.68 658.933,98.68 658.93,98.679 C658.944,98.68 658.944,98.68 659.014,98.684 C659.072,98.689 659.072,98.689 659.234,98.71 C659.359,98.729 659.359,98.729 659.677,98.818 C659.966,98.926 659.966,98.926 660.159,99.028 L660.792,99.503 L661.575,100.969 C661.608,101.901 661.628,101.708 661.628,101.514 C661.628,100.923 662.066,100.087 663.136,98.869 C663.472,98.486 663.86,98.075 664.359,97.571 C664.559,97.369 664.767,97.161 665.058,96.873 C665.421,96.513 665.616,96.32 665.795,96.142 C669.864,92.088 671.633,89.424 671.633,85.524 C671.633,76.982 665.694,73.358 660.102,78.107 C657.917,79.963 650.109,87.039 636.581,99.42 Z" />
        </g>
    </g>
</svg>