<?xml version="1.0" encoding="UTF-8"?>
<svg height="600" width="800" xmlns="http://www.w3.org/2000/svg" xmlns:xlink="http://www.w3.org/1999/xlink">
    <g id="Notes" font-family="'LucidaGrande', 'Lucida Grande', sans-serif" font-size="13">
        <rect fill="white" height="600.0" width="800.0" x="0.0" y="0.0" />
        <g font-size="13">
            <text x="18.0" y="176.0">Small</text>
            <text x="18.0" y="376.0">Medium</text>
            <text x="18.0" y="576.0">Large</text>
        </g>
        <g font-size="9">
            <text x="250.0" y="30.0">Ultralight</text>
            <text x="450.0" y="30.0">Regular</text>
            <text x="650.0" y="30.0">Black</text>
            <text id="template-version" fill="#505050" text-anchor="end" x="785.0" y="575.0">Template v.3.0</text>
            <a href="https://github.com/swhitty/SwiftDraw">
                <text fill="#505050" text-anchor="end" x="785.0" y="590.0">https://github.com/swhitty/SwiftDraw</text>
            </a>
        </g>
    </g>
    <g id="Guides" stroke="rgb(39, 170, 225)" stroke-width="0.5">
        <path id="Capline-S" d="M18,76 l800,0" />
        <path id="H-reference" d="M85,145.755 L87.685,145.755 L113.369,79.287 L114.052,79.287 L114.052,76 L112.148,76 L85,145.755 Z M95.693,121.536 L130.996,121.536 L130.263,119.313 L96.474,119.313 L95.693,121.536 Z M139.15,145.755 L141.787,145.755 L114.638,76 L113.466,76 L113.466,79.287 L139.15,145.755 Z" stroke="none" />
        <path id="Baseline-S" d="M18,146 l800,0" />
        <path id="left-margin-Ultralight-S" d="M221,56 l0,110" />
        <path id="right-margin-Ultralight-S" d="M309,56 l0,110" />
        <path id="left-margin-Regular-S" d="M421,56 l0,110" />
        <path id="right-margin-Regular-S" d="M509,56 l0,110" />
        <path id="left-margin-Black-S" d="M621,56 l0,110" />
        <path id="right-margin-Black-S" d="M709,56 l0,110" />
        <path id="Capline-M" d="M18,276 l800,0" />
        <path id="Baseline-M" d="M18,346 l800,0" />
        <path id="Capline-L" d="M18,476 l800,0" />
        <path id="Baseline-L" d="M18,546 l800,0" />
    </g>
    <g id="Symbols">
        <g id="Ultralight-S">
            <path d="M242.079,110.5 L264.343,81.278 C264.674,80.844 265.326,80.844 265.657,81.278 L287.921,110.5 C288.146,110.795 288.146,111.205 287.921,111.5 L265.657,140.722 C265.326,141.156 264.674,141.156 264.343,140.722 L242.079,111.5 C241.854,111.205 241.854,110.795 242.079,110.5 Z M238.14,107.498 C236.564,109.567 236.564,112.433 238.14,114.502 L260.404,143.724 C262.716,146.759 267.284,146.759 269.596,143.724 L291.86,114.502 C293.436,112.433 293.436,109.567 291.86,107.498 L269.596,78.276 C267.284,75.241 262.716,75.241 260.404,78.276 L238.14,107.498 Z" />
        </g>
        <g id="Regular-S">
            <path d="M442.079,110.5 L464.343,81.278 C464.674,80.844 465.326,80.844 465.657,81.278 L487.921,110.5 C488.146,110.795 488.146,111.205 487.921,111.5 L465.657,140.722 C465.326,141.156 464.674,141.156 464.343,140.722 L442.079,111.5 C441.854,111.205 441.854,110.795 442.079,110.5 Z M438.14,107.498 C436.564,109.567 436.564,112.433 438.14,114.502 L460.404,143.724 C462.716,146.759 467.284,146.759 469.596,143.724 L491.86,114.502 C493.436,112.433 493.436,109.567 491.86,107.498 L469.596,78.276 C467.284,75.241 462.716,75.241 460.404,78.276 L438.14,107.498 Z" />
        </g>
        <g id="Black-S">
            <path d="M642.079,110.5 L664.343,81.278 C664.674,80.844 665.326,80.844 665.657,81.278 L687.921,110.5 C688.146,110.795 688.146,111.205 687.921,111.5 L665.657,140.722 C665.326,141.156 664.674,141.156 664.343,140.722 L642.079,111.5 C641.854,111.205 641.854,110.795 642.079,110.5 Z M638.14,107.498 C636.563,109.567 636.563,112.433 638.14,114.502 L660.404,143.724 C662.716,146.759 667.284,146.759 669.596,143.724 L691.86,114.502 C693.436,112.433 693.436,109.567 691.86,107.498 L669.596,78.276 C667.284,75.241 662.716,75.241 660.404,78.276 L638.14,107.498 Z" />
        </g>
    </g>
</svg>