<?xml version="1.0" encoding="UTF-8"?>
<svg height="600" width="800" xmlns="http://www.w3.org/2000/svg" xmlns:xlink="http://www.w3.org/1999/xlink">
    <g id="Notes" font-family="'LucidaGrande', 'Lucida Grande', sans-serif" font-size="13">
        <rect fill="white" height="600.0" width="800.0" x="0.0" y="0.0" />
        <g font-size="13">
            <text x="18.0" y="176.0">Small</text>
            <text x="18.0" y="376.0">Medium</text>
            <text x="18.0" y="576.0">Large</text>
        </g>
        <g font-size="9">
            <text x="250.0" y="30.0">Ultralight</text>
            <text x="450.0" y="30.0">Regular</text>
            <text x="650.0" y="30.0">Black</text>
            <text id="template-version" fill="#505050" text-anchor="end" x="785.0" y="575.0">Template v.3.0</text>
            <a href="https://github.com/swhitty/SwiftDraw">
                <text fill="#505050" text-anchor="end" x="785.0" y="590.0">https://github.com/swhitty/SwiftDraw</text>
            </a>
        </g>
    </g>
    <g id="Guides" stroke="rgb(39, 170, 225)" stroke-width="0.5">
        <path id="Capline-S" d="M18,76 l800,0" />
        <path id="H-reference" d="M85,145.755 L87.685,145.755 L113.369,79.287 L114.052,79.287 L114.052,76 L112.148,76 L85,145.755 Z M95.693,121.536 L130.996,121.536 L130.263,119.313 L96.474,119.313 L95.693,121.536 Z M139.15,145.755 L141.787,145.755 L114.638,76 L113.466,76 L113.466,79.287 L139.15,145.755 Z" stroke="none" />
        <path id="Baseline-S" d="M18,146 l800,0" />
        <path id="left-margin-Ultralight-S" d="M219.966,56 l0,110" />
        <path id="right-margin-Ultralight-S" d="M310.034,56 l0,110" />
        <path id="left-margin-Regular-S" d="M419.966,56 l0,110" />
        <path id="right-margin-Regular-S" d="M510.034,56 l0,110" />
        <path id="left-margin-Black-S" d="M619.966,56 l0,110" />
        <path id="right-margin-Black-S" d="M710.034,56 l0,110" />
        <path id="Capline-M" d="M18,276 l800,0" />
        <path id="Baseline-M" d="M18,346 l800,0" />
        <path id="Capline-L" d="M18,476 l800,0" />
        <path id="Baseline-L" d="M18,546 l800,0" />
    </g>
    <g id="Symbols">
        <g id="Ultralight-S">
            <path d="M283.157,101.304 L270.235,78.924 C267.946,74.958 262.193,75.044 260.022,79.075 L251.166,95.521 C250.51,96.74 250.966,98.26 252.184,98.916 C253.403,99.573 254.923,99.117 255.579,97.898 L264.435,81.452 C264.745,80.876 265.567,80.864 265.894,81.43 L278.816,103.811 C279.508,105.009 281.04,105.42 282.239,104.728 C283.438,104.036 283.849,102.503 283.157,101.304 Z" />
            <path d="M266.74,139.317 L294.177,139.317 C298.752,139.317 301.555,134.3 299.157,130.404 L288.924,113.776 C288.199,112.597 286.655,112.229 285.476,112.955 C284.298,113.68 283.93,115.224 284.655,116.403 L294.888,133.031 C295.231,133.587 294.83,134.304 294.177,134.304 L266.74,134.304 C265.355,134.304 264.233,135.426 264.233,136.81 C264.233,138.194 265.355,139.317 266.74,139.317 Z" />
            <path d="M244.529,107.135 L230.782,130.504 C228.489,134.402 231.3,139.317 235.823,139.317 L253.373,139.317 C254.757,139.317 255.879,138.194 255.879,136.81 C255.879,135.426 254.757,134.304 253.373,134.304 L235.823,134.304 C235.177,134.304 234.775,133.602 235.103,133.045 L248.849,109.676 C249.551,108.483 249.153,106.947 247.96,106.245 C246.767,105.544 245.231,105.942 244.529,107.135 Z" />
            <path d="M271.651,128.355 L264.967,135.038 C263.989,136.017 263.989,137.604 264.967,138.582 L271.651,145.266 C272.63,146.245 274.216,146.245 275.195,145.266 C276.174,144.287 276.174,142.7 275.195,141.721 L268.512,135.038 L268.512,138.582 L275.195,131.899 C276.174,130.92 276.174,129.333 275.195,128.355 C274.216,127.376 272.63,127.376 271.651,128.355 Z" />
            <path d="M271.103,102.807 L280.233,105.253 C281.57,105.612 282.945,104.818 283.303,103.481 L285.749,94.351 C286.107,93.014 285.314,91.64 283.977,91.282 C282.64,90.924 281.266,91.717 280.907,93.054 L278.461,102.184 L281.531,100.412 L272.401,97.965 C271.064,97.607 269.69,98.4 269.331,99.737 C268.973,101.074 269.766,102.449 271.103,102.807 Z" />
            <path d="M238.148,113.273 L247.278,110.826 L244.208,109.054 L246.655,118.184 C247.013,119.521 248.387,120.315 249.724,119.956 C251.061,119.598 251.855,118.224 251.496,116.887 L249.05,107.757 C248.692,106.42 247.318,105.626 245.981,105.985 L236.851,108.431 C235.514,108.789 234.72,110.164 235.079,111.501 C235.437,112.838 236.811,113.631 238.148,113.273 Z" />
        </g>
        <g id="Regular-S">
            <path d="M483.157,101.304 L470.235,78.924 C467.946,74.958 462.193,75.044 460.022,79.075 L451.166,95.521 C450.51,96.74 450.966,98.26 452.184,98.916 C453.403,99.573 454.923,99.117 455.579,97.898 L464.435,81.452 C464.745,80.876 465.567,80.864 465.894,81.43 L478.816,103.811 C479.508,105.009 481.04,105.42 482.239,104.728 C483.438,104.036 483.849,102.503 483.157,101.304 Z" />
            <path d="M466.74,139.317 L494.177,139.317 C498.752,139.317 501.555,134.3 499.157,130.404 L488.924,113.776 C488.199,112.597 486.655,112.229 485.476,112.955 C484.298,113.68 483.93,115.224 484.655,116.403 L494.888,133.031 C495.231,133.587 494.83,134.304 494.177,134.304 L466.74,134.304 C465.355,134.304 464.233,135.426 464.233,136.81 C464.233,138.194 465.355,139.317 466.74,139.317 Z" />
            <path d="M444.529,107.135 L430.782,130.504 C428.489,134.402 431.3,139.317 435.823,139.317 L453.372,139.317 C454.757,139.317 455.879,138.194 455.879,136.81 C455.879,135.426 454.757,134.304 453.372,134.304 L435.823,134.304 C435.177,134.304 434.775,133.602 435.103,133.045 L448.849,109.676 C449.551,108.483 449.153,106.947 447.96,106.245 C446.767,105.544 445.231,105.942 444.529,107.135 Z" />
            <path d="M471.651,128.355 L464.967,135.038 C463.989,136.017 463.989,137.604 464.967,138.582 L471.651,145.266 C472.63,146.245 474.216,146.245 475.195,145.266 C476.174,144.287 476.174,142.7 475.195,141.721 L468.512,135.038 L468.512,138.582 L475.195,131.899 C476.174,130.92 476.174,129.333 475.195,128.355 C474.216,127.376 472.63,127.376 471.651,128.355 Z" />
            <path d="M471.103,102.807 L480.233,105.253 C481.57,105.612 482.945,104.818 483.303,103.481 L485.749,94.351 C486.107,93.014 485.314,91.64 483.977,91.282 C482.64,90.924 481.266,91.717 480.907,93.054 L478.461,102.184 L481.531,100.412 L472.401,97.965 C471.064,97.607 469.69,98.4 469.331,99.737 C468.973,101.074 469.766,102.449 471.103,102.807 Z" />
            <path d="M438.148,113.273 L447.278,110.826 L444.208,109.054 L446.655,118.184 C447.013,119.521 448.387,120.315 449.724,119.956 C451.061,119.598 451.855,118.224 451.496,116.887 L449.05,107.757 C448.692,106.42 447.318,105.626 445.981,105.985 L436.851,108.431 C435.514,108.789 434.72,110.164 435.079,111.501 C435.437,112.838 436.811,113.631 438.148,113.273 Z" />
        </g>
        <g id="Black-S">
            <path d="M683.156,101.304 L670.235,78.924 C667.946,74.958 662.193,75.044 660.022,79.075 L651.166,95.521 C650.51,96.74 650.966,98.26 652.184,98.916 C653.403,99.573 654.923,99.117 655.579,97.898 L664.435,81.452 C664.745,80.876 665.567,80.864 665.894,81.43 L678.815,103.811 C679.508,105.009 681.04,105.42 682.239,104.728 C683.438,104.036 683.849,102.503 683.156,101.304 Z" />
            <path d="M666.74,139.317 L694.177,139.317 C698.752,139.317 701.555,134.3 699.157,130.404 L688.924,113.776 C688.199,112.597 686.655,112.229 685.476,112.955 C684.298,113.68 683.93,115.224 684.655,116.403 L694.888,133.031 C695.231,133.587 694.83,134.304 694.177,134.304 L666.74,134.304 C665.355,134.304 664.233,135.426 664.233,136.81 C664.233,138.194 665.355,139.317 666.74,139.317 Z" />
            <path d="M644.529,107.135 L630.782,130.504 C628.489,134.402 631.3,139.317 635.823,139.317 L653.372,139.317 C654.757,139.317 655.879,138.194 655.879,136.81 C655.879,135.426 654.757,134.304 653.372,134.304 L635.823,134.304 C635.177,134.304 634.775,133.602 635.103,133.045 L648.849,109.676 C649.551,108.483 649.153,106.947 647.96,106.245 C646.767,105.544 645.231,105.942 644.529,107.135 Z" />
            <path d="M671.651,128.355 L664.967,135.038 C663.989,136.017 663.989,137.604 664.967,138.582 L671.651,145.266 C672.63,146.245 674.216,146.245 675.195,145.266 C676.174,144.287 676.174,142.7 675.195,141.721 L668.512,135.038 L668.512,138.582 L675.195,131.899 C676.174,130.92 676.174,129.333 675.195,128.355 C674.216,127.376 672.63,127.376 671.651,128.355 Z" />
            <path d="M671.103,102.807 L680.233,105.253 C681.57,105.612 682.945,104.818 683.303,103.481 L685.749,94.351 C686.107,93.014 685.314,91.64 683.977,91.282 C682.64,90.924 681.266,91.717 680.907,93.054 L678.461,102.184 L681.531,100.412 L672.401,97.965 C671.064,97.607 669.69,98.4 669.331,99.737 C668.973,101.074 669.766,102.449 671.103,102.807 Z" />
            <path d="M638.148,113.273 L647.278,110.826 L644.208,109.054 L646.655,118.184 C647.013,119.521 648.387,120.315 649.724,119.956 C651.061,119.598 651.855,118.224 651.496,116.887 L649.05,107.757 C648.692,106.42 647.318,105.626 645.981,105.985 L636.851,108.431 C635.514,108.789 634.72,110.164 635.079,111.501 C635.437,112.838 636.811,113.631 638.148,113.273 Z" />
        </g>
    </g>
</svg>