<?xml version="1.0" encoding="UTF-8"?>
<svg height="600" width="800" xmlns="http://www.w3.org/2000/svg" xmlns:xlink="http://www.w3.org/1999/xlink">
    <g id="Notes" font-family="'LucidaGrande', 'Lucida Grande', sans-serif" font-size="13">
        <rect fill="white" height="600.0" width="800.0" x="0.0" y="0.0" />
        <g font-size="13">
            <text x="18.0" y="176.0">Small</text>
            <text x="18.0" y="376.0">Medium</text>
            <text x="18.0" y="576.0">Large</text>
        </g>
        <g font-size="9">
            <text x="250.0" y="30.0">Ultralight</text>
            <text x="450.0" y="30.0">Regular</text>
            <text x="650.0" y="30.0">Black</text>
            <text id="template-version" fill="#505050" text-anchor="end" x="785.0" y="575.0">Template v.3.0</text>
            <a href="https://github.com/swhitty/SwiftDraw">
                <text fill="#505050" text-anchor="end" x="785.0" y="590.0">https://github.com/swhitty/SwiftDraw</text>
            </a>
        </g>
    </g>
    <g id="Guides" stroke="rgb(39, 170, 225)" stroke-width="0.5">
        <path id="Capline-S" d="M18,76 l800,0" />
        <path id="H-reference" d="M85,145.755 L87.685,145.755 L113.369,79.287 L114.052,79.287 L114.052,76 L112.148,76 L85,145.755 Z M95.693,121.536 L130.996,121.536 L130.263,119.313 L96.474,119.313 L95.693,121.536 Z M139.15,145.755 L141.787,145.755 L114.638,76 L113.466,76 L113.466,79.287 L139.15,145.755 Z" stroke="none" />
        <path id="Baseline-S" d="M18,146 l800,0" />
        <path id="left-margin-Ultralight-S" d="M211,56 l0,110" />
        <path id="right-margin-Ultralight-S" d="M319,56 l0,110" />
        <path id="left-margin-Regular-S" d="M411,56 l0,110" />
        <path id="right-margin-Regular-S" d="M519,56 l0,110" />
        <path id="left-margin-Black-S" d="M611,56 l0,110" />
        <path id="right-margin-Black-S" d="M719,56 l0,110" />
        <path id="Capline-M" d="M18,276 l800,0" />
        <path id="Baseline-M" d="M18,346 l800,0" />
        <path id="Capline-L" d="M18,476 l800,0" />
        <path id="Baseline-L" d="M18,546 l800,0" />
    </g>
    <g id="Symbols">
        <g id="Ultralight-S">
            <path d="M242.588,125.202 L226.241,108.843 L226.241,113.183 L242.613,96.798 C243.812,95.598 243.811,93.655 242.612,92.456 C241.412,91.258 239.469,91.259 238.27,92.458 L221.898,108.843 C220.701,110.042 220.701,111.984 221.898,113.183 L238.245,129.542 C239.443,130.741 241.387,130.742 242.586,129.544 C243.786,128.345 243.786,126.402 242.588,125.202 Z" />
            <path d="M287.412,96.798 L303.759,113.157 L303.759,108.818 L287.387,125.202 C286.188,126.402 286.189,128.345 287.388,129.544 C288.588,130.742 290.531,130.741 291.73,129.542 L308.102,113.157 C309.299,111.959 309.299,110.016 308.102,108.818 L291.755,92.458 C290.557,91.259 288.613,91.258 287.414,92.456 C286.214,93.655 286.214,95.598 287.412,96.798 Z" />
            <path d="M224.07,114.07 L305.93,114.07 C307.626,114.07 309,112.695 309,111 C309,109.305 307.626,107.93 305.93,107.93 L224.07,107.93 C222.374,107.93 221,109.305 221,111 C221,112.695 222.374,114.07 224.07,114.07 Z" />
        </g>
        <g id="Regular-S">
            <path d="M442.588,125.202 L426.241,108.843 L426.241,113.183 L442.613,96.798 C443.812,95.598 443.811,93.655 442.612,92.456 C441.412,91.258 439.469,91.259 438.27,92.458 L421.898,108.843 C420.701,110.042 420.701,111.984 421.898,113.183 L438.245,129.542 C439.443,130.741 441.387,130.742 442.586,129.544 C443.786,128.345 443.786,126.402 442.588,125.202 Z" />
            <path d="M487.412,96.798 L503.759,113.157 L503.759,108.818 L487.387,125.202 C486.188,126.402 486.189,128.345 487.388,129.544 C488.588,130.742 490.531,130.741 491.73,129.542 L508.102,113.157 C509.299,111.959 509.299,110.016 508.102,108.818 L491.755,92.458 C490.557,91.259 488.613,91.258 487.414,92.456 C486.214,93.655 486.214,95.598 487.412,96.798 Z" />
            <path d="M424.07,114.07 L505.93,114.07 C507.626,114.07 509,112.695 509,111 C509,109.305 507.626,107.93 505.93,107.93 L424.07,107.93 C422.374,107.93 421,109.305 421,111 C421,112.695 422.374,114.07 424.07,114.07 Z" />
        </g>
        <g id="Black-S">
            <path d="M642.588,125.202 L626.241,108.843 L626.241,113.183 L642.613,96.798 C643.812,95.598 643.811,93.655 642.612,92.456 C641.412,91.258 639.469,91.259 638.27,92.458 L621.898,108.843 C620.701,110.042 620.701,111.984 621.898,113.183 L638.245,129.542 C639.443,130.741 641.387,130.742 642.586,129.544 C643.786,128.345 643.786,126.402 642.588,125.202 Z" />
            <path d="M687.412,96.798 L703.759,113.157 L703.759,108.818 L687.387,125.202 C686.188,126.402 686.189,128.345 687.388,129.544 C688.588,130.742 690.531,130.741 691.73,129.542 L708.102,113.157 C709.299,111.959 709.299,110.016 708.102,108.818 L691.755,92.458 C690.557,91.259 688.613,91.258 687.414,92.456 C686.214,93.655 686.214,95.598 687.412,96.798 Z" />
            <path d="M624.07,114.07 L705.93,114.07 C707.626,114.07 709,112.695 709,111 C709,109.305 707.626,107.93 705.93,107.93 L624.07,107.93 C622.374,107.93 621,109.305 621,111 C621,112.695 622.374,114.07 624.07,114.07 Z" />
        </g>
    </g>
</svg>