<?xml version="1.0" encoding="UTF-8"?>
<svg height="600" width="800" xmlns="http://www.w3.org/2000/svg" xmlns:xlink="http://www.w3.org/1999/xlink">
    <g id="Notes" font-family="'LucidaGrande', 'Lucida Grande', sans-serif" font-size="13">
        <rect fill="white" height="600.0" width="800.0" x="0.0" y="0.0" />
        <g font-size="13">
            <text x="18.0" y="176.0">Small</text>
            <text x="18.0" y="376.0">Medium</text>
            <text x="18.0" y="576.0">Large</text>
        </g>
        <g font-size="9">
            <text x="250.0" y="30.0">Ultralight</text>
            <text x="450.0" y="30.0">Regular</text>
            <text x="650.0" y="30.0">Black</text>
            <text id="template-version" fill="#505050" text-anchor="end" x="785.0" y="575.0">Template v.3.0</text>
            <a href="https://github.com/swhitty/SwiftDraw">
                <text fill="#505050" text-anchor="end" x="785.0" y="590.0">https://github.com/swhitty/SwiftDraw</text>
            </a>
        </g>
    </g>
    <g id="Guides" stroke="rgb(39, 170, 225)" stroke-width="0.5">
        <path id="Capline-S" d="M18,76 l800,0" />
        <path id="H-reference" d="M85,145.755 L87.685,145.755 L113.369,79.287 L114.052,79.287 L114.052,76 L112.148,76 L85,145.755 Z M95.693,121.536 L130.996,121.536 L130.263,119.313 L96.474,119.313 L95.693,121.536 Z M139.15,145.755 L141.787,145.755 L114.638,76 L113.466,76 L113.466,79.287 L139.15,145.755 Z" stroke="none" />
        <path id="Baseline-S" d="M18,146 l800,0" />
        <path id="left-margin-Ultralight-S" d="M218.292,56 l0,110" />
        <path id="right-margin-Ultralight-S" d="M311.708,56 l0,110" />
        <path id="left-margin-Regular-S" d="M418.292,56 l0,110" />
        <path id="right-margin-Regular-S" d="M511.708,56 l0,110" />
        <path id="left-margin-Black-S" d="M618.292,56 l0,110" />
        <path id="right-margin-Black-S" d="M711.708,56 l0,110" />
        <path id="Capline-M" d="M18,276 l800,0" />
        <path id="Baseline-M" d="M18,346 l800,0" />
        <path id="Capline-L" d="M18,476 l800,0" />
        <path id="Baseline-L" d="M18,546 l800,0" />
    </g>
    <g id="Symbols">
        <g id="Ultralight-S">
            <path d="M232.876,104.742 L266.168,87.669 L263.854,87.681 L298.001,104.754 C299.266,105.387 300.804,104.874 301.437,103.609 C302.069,102.344 301.556,100.805 300.291,100.173 L266.145,83.1 C265.416,82.735 264.557,82.739 263.831,83.111 L230.538,100.185 C229.28,100.83 228.783,102.373 229.428,103.632 C230.074,104.891 231.617,105.388 232.876,104.742 Z" />
            <path d="M267.561,102.463 L267.561,78.561 C267.561,77.147 266.414,76 265,76 C263.585,76 262.439,77.147 262.439,78.561 L262.439,102.463 C262.439,103.878 263.585,105.024 265,105.024 C266.414,105.024 267.561,103.878 267.561,102.463 Z" />
            <path d="M243.658,122.951 L243.658,99.049 C243.658,97.634 242.512,96.488 241.097,96.488 C239.683,96.488 238.536,97.634 238.536,99.049 L238.536,122.951 C238.536,124.366 239.683,125.512 241.097,125.512 C242.512,125.512 243.658,124.366 243.658,122.951 Z" />
            <path d="M233.414,133.195 C233.414,128.952 236.854,125.512 241.097,125.512 C245.34,125.512 248.78,128.952 248.78,133.195 C248.78,137.438 245.34,140.878 241.097,140.878 C236.854,140.878 233.414,137.438 233.414,133.195 Z M228.292,133.195 C228.292,140.267 234.025,146 241.097,146 C248.169,146 253.902,140.267 253.902,133.195 C253.902,126.123 248.169,120.39 241.097,120.39 C234.025,120.39 228.292,126.123 228.292,133.195 Z" />
            <path d="M291.463,122.951 L291.463,99.049 C291.463,97.634 290.317,96.488 288.902,96.488 C287.488,96.488 286.341,97.634 286.341,99.049 L286.341,122.951 C286.341,124.366 287.488,125.512 288.902,125.512 C290.317,125.512 291.463,124.366 291.463,122.951 Z" />
            <path d="M280.469,135.006 L290.713,124.762 L287.091,124.762 L297.335,135.006 L297.335,131.384 L287.091,141.628 L290.713,141.628 L280.469,131.384 L280.469,135.006 Z M276.847,131.384 C275.847,132.384 275.847,134.006 276.847,135.006 L287.091,145.25 C288.091,146.25 289.713,146.25 290.713,145.25 L300.957,135.006 C301.957,134.006 301.957,132.384 300.957,131.384 L290.713,121.14 C289.713,120.14 288.091,120.14 287.091,121.14 L276.847,131.384 Z" />
            <path d="M276.097,111 L276.097,102.463 C276.097,101.049 274.951,99.902 273.536,99.902 L256.463,99.902 C255.049,99.902 253.902,101.049 253.902,102.463 L253.902,111 C253.902,112.414 255.049,113.561 256.463,113.561 C257.878,113.561 259.024,112.414 259.024,111 L259.024,102.463 L256.463,105.024 L273.536,105.024 L270.975,102.463 L270.975,111 C270.975,112.414 272.122,113.561 273.536,113.561 C274.951,113.561 276.097,112.414 276.097,111 Z" />
        </g>
        <g id="Regular-S">
            <path d="M432.876,104.742 L466.168,87.669 L463.854,87.681 L498.001,104.754 C499.266,105.387 500.804,104.874 501.437,103.609 C502.069,102.344 501.556,100.805 500.291,100.173 L466.145,83.1 C465.416,82.735 464.557,82.739 463.831,83.111 L430.538,100.185 C429.28,100.83 428.783,102.373 429.428,103.632 C430.074,104.891 431.617,105.388 432.876,104.742 Z" />
            <path d="M467.561,102.463 L467.561,78.561 C467.561,77.147 466.414,76 465,76 C463.585,76 462.439,77.147 462.439,78.561 L462.439,102.463 C462.439,103.878 463.585,105.024 465,105.024 C466.414,105.024 467.561,103.878 467.561,102.463 Z" />
            <path d="M443.658,122.951 L443.658,99.049 C443.658,97.634 442.512,96.488 441.097,96.488 C439.683,96.488 438.536,97.634 438.536,99.049 L438.536,122.951 C438.536,124.366 439.683,125.512 441.097,125.512 C442.512,125.512 443.658,124.366 443.658,122.951 Z" />
            <path d="M433.414,133.195 C433.414,128.952 436.854,125.512 441.097,125.512 C445.34,125.512 448.78,128.952 448.78,133.195 C448.78,137.438 445.34,140.878 441.097,140.878 C436.854,140.878 433.414,137.438 433.414,133.195 Z M428.292,133.195 C428.292,140.267 434.025,146 441.097,146 C448.169,146 453.902,140.267 453.902,133.195 C453.902,126.123 448.169,120.39 441.097,120.39 C434.025,120.39 428.292,126.123 428.292,133.195 Z" />
            <path d="M491.463,122.951 L491.463,99.049 C491.463,97.634 490.317,96.488 488.902,96.488 C487.488,96.488 486.341,97.634 486.341,99.049 L486.341,122.951 C486.341,124.366 487.488,125.512 488.902,125.512 C490.317,125.512 491.463,124.366 491.463,122.951 Z" />
            <path d="M480.469,135.006 L490.713,124.762 L487.091,124.762 L497.335,135.006 L497.335,131.384 L487.091,141.628 L490.713,141.628 L480.469,131.384 L480.469,135.006 Z M476.847,131.384 C475.847,132.384 475.847,134.006 476.847,135.006 L487.091,145.25 C488.091,146.25 489.713,146.25 490.713,145.25 L500.957,135.006 C501.957,134.006 501.957,132.384 500.957,131.384 L490.713,121.14 C489.713,120.14 488.091,120.14 487.091,121.14 L476.847,131.384 Z" />
            <path d="M476.097,111 L476.097,102.463 C476.097,101.049 474.951,99.902 473.536,99.902 L456.463,99.902 C455.049,99.902 453.902,101.049 453.902,102.463 L453.902,111 C453.902,112.414 455.049,113.561 456.463,113.561 C457.878,113.561 459.024,112.414 459.024,111 L459.024,102.463 L456.463,105.024 L473.536,105.024 L470.975,102.463 L470.975,111 C470.975,112.414 472.122,113.561 473.536,113.561 C474.951,113.561 476.097,112.414 476.097,111 Z" />
        </g>
        <g id="Black-S">
            <path d="M632.876,104.742 L666.168,87.669 L663.854,87.681 L698.001,104.754 C699.266,105.387 700.804,104.874 701.437,103.609 C702.069,102.344 701.556,100.805 700.291,100.173 L666.145,83.1 C665.416,82.735 664.557,82.739 663.831,83.111 L630.538,100.185 C629.28,100.83 628.783,102.373 629.428,103.632 C630.074,104.891 631.617,105.388 632.876,104.742 Z" />
            <path d="M667.561,102.463 L667.561,78.561 C667.561,77.147 666.414,76 665,76 C663.585,76 662.439,77.147 662.439,78.561 L662.439,102.463 C662.439,103.878 663.585,105.024 665,105.024 C666.414,105.024 667.561,103.878 667.561,102.463 Z" />
            <path d="M643.658,122.951 L643.658,99.049 C643.658,97.634 642.512,96.488 641.097,96.488 C639.683,96.488 638.536,97.634 638.536,99.049 L638.536,122.951 C638.536,124.366 639.683,125.512 641.097,125.512 C642.512,125.512 643.658,124.366 643.658,122.951 Z" />
            <path d="M633.414,133.195 C633.414,128.952 636.854,125.512 641.097,125.512 C645.34,125.512 648.78,128.952 648.78,133.195 C648.78,137.438 645.34,140.878 641.097,140.878 C636.854,140.878 633.414,137.438 633.414,133.195 Z M628.292,133.195 C628.292,140.267 634.025,146 641.097,146 C648.169,146 653.902,140.267 653.902,133.195 C653.902,126.123 648.169,120.39 641.097,120.39 C634.025,120.39 628.292,126.123 628.292,133.195 Z" />
            <path d="M691.463,122.951 L691.463,99.049 C691.463,97.634 690.317,96.488 688.902,96.488 C687.488,96.488 686.341,97.634 686.341,99.049 L686.341,122.951 C686.341,124.366 687.488,125.512 688.902,125.512 C690.317,125.512 691.463,124.366 691.463,122.951 Z" />
            <path d="M680.469,135.006 L690.713,124.762 L687.091,124.762 L697.335,135.006 L697.335,131.384 L687.091,141.628 L690.713,141.628 L680.469,131.384 L680.469,135.006 Z M676.847,131.384 C675.847,132.384 675.847,134.006 676.847,135.006 L687.091,145.25 C688.091,146.25 689.713,146.25 690.713,145.25 L700.957,135.006 C701.957,134.006 701.957,132.384 700.957,131.384 L690.713,121.14 C689.713,120.14 688.091,120.14 687.091,121.14 L676.847,131.384 Z" />
            <path d="M676.097,111 L676.097,102.463 C676.097,101.049 674.951,99.902 673.536,99.902 L656.463,99.902 C655.049,99.902 653.902,101.049 653.902,102.463 L653.902,111 C653.902,112.414 655.049,113.561 656.463,113.561 C657.878,113.561 659.024,112.414 659.024,111 L659.024,102.463 L656.463,105.024 L673.536,105.024 L670.975,102.463 L670.975,111 C670.975,112.414 672.122,113.561 673.536,113.561 C674.951,113.561 676.097,112.414 676.097,111 Z" />
        </g>
    </g>
</svg>