<?xml version="1.0" encoding="UTF-8"?>
<svg height="600" width="800" xmlns="http://www.w3.org/2000/svg" xmlns:xlink="http://www.w3.org/1999/xlink">
    <g id="Notes" font-family="'LucidaGrande', 'Lucida Grande', sans-serif" font-size="13">
        <rect fill="white" height="600.0" width="800.0" x="0.0" y="0.0" />
        <g font-size="13">
            <text x="18.0" y="176.0">Small</text>
            <text x="18.0" y="376.0">Medium</text>
            <text x="18.0" y="576.0">Large</text>
        </g>
        <g font-size="9">
            <text x="250.0" y="30.0">Ultralight</text>
            <text x="450.0" y="30.0">Regular</text>
            <text x="650.0" y="30.0">Black</text>
            <text id="template-version" fill="#505050" text-anchor="end" x="785.0" y="575.0">Template v.3.0</text>
            <a href="https://github.com/swhitty/SwiftDraw">
                <text fill="#505050" text-anchor="end" x="785.0" y="590.0">https://github.com/swhitty/SwiftDraw</text>
            </a>
        </g>
    </g>
    <g id="Guides" stroke="rgb(39, 170, 225)" stroke-width="0.5">
        <path id="Capline-S" d="M18,76 l800,0" />
        <path id="H-reference" d="M85,145.755 L87.685,145.755 L113.369,79.287 L114.052,79.287 L114.052,76 L112.148,76 L85,145.755 Z M95.693,121.536 L130.996,121.536 L130.263,119.313 L96.474,119.313 L95.693,121.536 Z M139.15,145.755 L141.787,145.755 L114.638,76 L113.466,76 L113.466,79.287 L139.15,145.755 Z" stroke="none" />
        <path id="Baseline-S" d="M18,146 l800,0" />
        <path id="left-margin-Ultralight-S" d="M221,56 l0,110" />
        <path id="right-margin-Ultralight-S" d="M309,56 l0,110" />
        <path id="left-margin-Regular-S" d="M421,56 l0,110" />
        <path id="right-margin-Regular-S" d="M509,56 l0,110" />
        <path id="left-margin-Black-S" d="M621,56 l0,110" />
        <path id="right-margin-Black-S" d="M709,56 l0,110" />
        <path id="Capline-M" d="M18,276 l800,0" />
        <path id="Baseline-M" d="M18,346 l800,0" />
        <path id="Capline-L" d="M18,476 l800,0" />
        <path id="Baseline-L" d="M18,546 l800,0" />
    </g>
    <g id="Symbols">
        <g id="Ultralight-S">
            <path d="M267.53,141.227 L266.106,141.227 C258.622,141.227 251.641,137.455 247.54,131.195 L244.047,125.864 C242.229,123.089 242.766,119.393 245.298,117.25 L248.938,114.171 C249.889,113.366 250.437,112.184 250.437,110.938 L250.437,85.148 C250.437,83.61 251.683,82.364 253.221,82.364 C254.758,82.364 256.005,83.61 256.005,85.148 L258.391,85.148 L260.778,85.148 L260.778,83.557 C260.778,82.019 262.024,80.773 263.562,80.773 C265.099,80.773 266.346,82.019 266.346,83.557 L266.346,101.852 L271.119,101.852 C271.119,100.315 272.365,99.068 273.903,99.068 C275.44,99.068 276.687,100.315 276.687,101.852 L276.687,108.216 L281.46,108.216 C281.46,106.678 282.706,105.432 284.244,105.432 C285.781,105.432 287.028,106.678 287.028,108.216 L287.028,124.473 C287.028,126.615 286.38,128.708 285.171,130.476 L283.622,132.74 C279.987,138.051 273.966,141.227 267.53,141.227 Z M267.53,146 C275.542,146 283.037,142.047 287.561,135.435 L289.11,133.171 C290.863,130.609 291.8,127.577 291.8,124.473 L291.8,108.216 C291.8,104.042 288.417,100.659 284.244,100.659 C280.07,100.659 276.687,104.042 276.687,108.216 C276.687,111.398 281.46,111.398 281.46,108.216 L281.46,101.852 C281.46,97.679 278.076,94.295 273.903,94.295 C269.729,94.295 266.346,97.679 266.346,101.852 C266.346,105.034 271.119,105.034 271.119,101.852 L271.119,83.557 C271.119,79.383 267.735,76 263.562,76 C259.388,76 256.005,79.383 256.005,83.557 L256.005,85.148 C256.005,88.33 260.778,88.33 260.778,85.148 C260.778,80.974 257.394,77.591 253.221,77.591 C249.047,77.591 245.664,80.974 245.664,85.148 L245.664,110.938 C245.664,110.78 245.734,110.63 245.854,110.528 L242.215,113.607 C237.842,117.307 236.915,123.688 240.055,128.48 L243.548,133.811 C248.531,141.417 257.013,146 266.106,146 L267.53,146 Z" />
        </g>
        <g id="Regular-S">
            <path d="M467.53,141.227 L466.106,141.227 C458.622,141.227 451.641,137.455 447.54,131.195 L444.047,125.864 C442.229,123.089 442.766,119.393 445.298,117.25 L448.938,114.171 C449.889,113.366 450.437,112.184 450.437,110.938 L450.437,85.148 C450.437,83.61 451.683,82.364 453.221,82.364 C454.758,82.364 456.005,83.61 456.005,85.148 L458.391,85.148 L460.778,85.148 L460.778,83.557 C460.778,82.019 462.024,80.773 463.562,80.773 C465.099,80.773 466.346,82.019 466.346,83.557 L466.346,101.852 L471.119,101.852 C471.119,100.315 472.365,99.068 473.903,99.068 C475.44,99.068 476.687,100.315 476.687,101.852 L476.687,108.216 L481.46,108.216 C481.46,106.678 482.706,105.432 484.244,105.432 C485.781,105.432 487.028,106.678 487.028,108.216 L487.028,124.473 C487.028,126.615 486.38,128.708 485.171,130.476 L483.622,132.74 C479.987,138.051 473.966,141.227 467.53,141.227 Z M467.53,146 C475.542,146 483.037,142.047 487.561,135.435 L489.11,133.171 C490.862,130.609 491.8,127.577 491.8,124.473 L491.8,108.216 C491.8,104.042 488.417,100.659 484.244,100.659 C480.07,100.659 476.687,104.042 476.687,108.216 C476.687,111.398 481.46,111.398 481.46,108.216 L481.46,101.852 C481.46,97.679 478.076,94.295 473.903,94.295 C469.729,94.295 466.346,97.679 466.346,101.852 C466.346,105.034 471.119,105.034 471.119,101.852 L471.119,83.557 C471.119,79.383 467.735,76 463.562,76 C459.388,76 456.005,79.383 456.005,83.557 L456.005,85.148 C456.005,88.33 460.778,88.33 460.778,85.148 C460.778,80.974 457.394,77.591 453.221,77.591 C449.047,77.591 445.664,80.974 445.664,85.148 L445.664,110.938 C445.664,110.78 445.734,110.63 445.854,110.528 L442.215,113.607 C437.842,117.307 436.915,123.688 440.055,128.48 L443.548,133.811 C448.531,141.417 457.013,146 466.106,146 L467.53,146 Z" />
        </g>
        <g id="Black-S">
            <path d="M667.53,141.227 L666.106,141.227 C658.622,141.227 651.641,137.455 647.54,131.195 L644.047,125.864 C642.229,123.089 642.766,119.393 645.298,117.25 L648.938,114.171 C649.889,113.366 650.437,112.184 650.437,110.938 L650.437,85.148 C650.437,83.61 651.683,82.364 653.221,82.364 C654.758,82.364 656.005,83.61 656.005,85.148 L658.391,85.148 L660.778,85.148 L660.778,83.557 C660.778,82.019 662.024,80.773 663.562,80.773 C665.099,80.773 666.346,82.019 666.346,83.557 L666.346,101.852 L671.119,101.852 C671.119,100.315 672.365,99.068 673.903,99.068 C675.44,99.068 676.687,100.315 676.687,101.852 L676.687,108.216 L681.46,108.216 C681.46,106.678 682.706,105.432 684.244,105.432 C685.781,105.432 687.028,106.678 687.028,108.216 L687.028,124.473 C687.028,126.615 686.38,128.708 685.171,130.476 L683.622,132.74 C679.987,138.051 673.966,141.227 667.53,141.227 Z M667.53,146 C675.542,146 683.037,142.047 687.561,135.435 L689.11,133.171 C690.862,130.609 691.8,127.577 691.8,124.473 L691.8,108.216 C691.8,104.042 688.417,100.659 684.244,100.659 C680.07,100.659 676.687,104.042 676.687,108.216 C676.687,111.398 681.46,111.398 681.46,108.216 L681.46,101.852 C681.46,97.679 678.076,94.295 673.903,94.295 C669.729,94.295 666.346,97.679 666.346,101.852 C666.346,105.034 671.119,105.034 671.119,101.852 L671.119,83.557 C671.119,79.383 667.735,76 663.562,76 C659.388,76 656.005,79.383 656.005,83.557 L656.005,85.148 C656.005,88.33 660.778,88.33 660.778,85.148 C660.778,80.974 657.394,77.591 653.221,77.591 C649.047,77.591 645.664,80.974 645.664,85.148 L645.664,110.938 C645.664,110.78 645.734,110.63 645.854,110.528 L642.215,113.607 C637.842,117.307 636.915,123.688 640.055,128.48 L643.548,133.811 C648.531,141.417 657.013,146 666.106,146 L667.53,146 Z" />
        </g>
    </g>
</svg>