<?xml version="1.0" encoding="UTF-8"?>
<svg height="600" width="800" xmlns="http://www.w3.org/2000/svg" xmlns:xlink="http://www.w3.org/1999/xlink">
    <g id="Notes" font-family="'LucidaGrande', 'Lucida Grande', sans-serif" font-size="13">
        <rect fill="white" height="600.0" width="800.0" x="0.0" y="0.0" />
        <g font-size="13">
            <text x="18.0" y="176.0">Small</text>
            <text x="18.0" y="376.0">Medium</text>
            <text x="18.0" y="576.0">Large</text>
        </g>
        <g font-size="9">
            <text x="250.0" y="30.0">Ultralight</text>
            <text x="450.0" y="30.0">Regular</text>
            <text x="650.0" y="30.0">Black</text>
            <text id="template-version" fill="#505050" text-anchor="end" x="785.0" y="575.0">Template v.3.0</text>
            <a href="https://github.com/swhitty/SwiftDraw">
                <text fill="#505050" text-anchor="end" x="785.0" y="590.0">https://github.com/swhitty/SwiftDraw</text>
            </a>
        </g>
    </g>
    <g id="Guides" stroke="rgb(39, 170, 225)" stroke-width="0.5">
        <path id="Capline-S" d="M18,76 l800,0" />
        <path id="H-reference" d="M85,145.755 L87.685,145.755 L113.369,79.287 L114.052,79.287 L114.052,76 L112.148,76 L85,145.755 Z M95.693,121.536 L130.996,121.536 L130.263,119.313 L96.474,119.313 L95.693,121.536 Z M139.15,145.755 L141.787,145.755 L114.638,76 L113.466,76 L113.466,79.287 L139.15,145.755 Z" stroke="none" />
        <path id="Baseline-S" d="M18,146 l800,0" />
        <path id="left-margin-Ultralight-S" d="M221,56 l0,110" />
        <path id="right-margin-Ultralight-S" d="M309,56 l0,110" />
        <path id="left-margin-Regular-S" d="M421,56 l0,110" />
        <path id="right-margin-Regular-S" d="M509,56 l0,110" />
        <path id="left-margin-Black-S" d="M621,56 l0,110" />
        <path id="right-margin-Black-S" d="M709,56 l0,110" />
        <path id="Capline-M" d="M18,276 l800,0" />
        <path id="Baseline-M" d="M18,346 l800,0" />
        <path id="Capline-L" d="M18,476 l800,0" />
        <path id="Baseline-L" d="M18,546 l800,0" />
    </g>
    <g id="Symbols">
        <g id="Ultralight-S">
            <path d="M265,105.302 L277.209,105.302 C277.659,105.302 278.023,105.667 278.023,106.116 L278.023,143.558 L280.465,141.116 L244.651,141.116 L247.093,143.558 L247.093,106.116 C247.093,105.667 247.457,105.302 247.907,105.302 L251.977,105.302 C253.325,105.302 254.419,104.209 254.419,102.86 C254.419,101.512 253.325,100.419 251.977,100.419 L247.907,100.419 C244.76,100.419 242.209,102.969 242.209,106.116 L242.209,143.558 C242.209,144.907 243.303,146 244.651,146 L280.465,146 C281.814,146 282.907,144.907 282.907,143.558 L282.907,106.116 C282.907,102.969 280.356,100.419 277.209,100.419 L265,100.419 C263.651,100.419 262.558,101.512 262.558,102.86 C262.558,104.209 263.651,105.302 265,105.302 Z" />
            <path d="M251.163,82.512 L247.093,82.512 C240.799,82.512 235.698,87.613 235.698,93.907 C235.698,100.201 240.799,105.302 247.093,105.302 L254.419,105.302 L251.977,102.86 L251.977,119.953 C251.977,123.55 254.892,126.465 258.488,126.465 C262.085,126.465 265,123.55 265,119.953 L265,102.86 L262.558,105.302 L278.023,105.302 C284.317,105.302 289.419,100.201 289.419,93.907 C289.419,87.613 284.317,82.512 278.023,82.512 L270.698,82.512 L273.067,84.361 C272.777,83.202 272.061,81.641 270.704,80.09 C268.468,77.534 265.208,76 260.93,76 C256.652,76 253.393,77.534 251.156,80.09 C249.799,81.641 249.084,83.202 248.794,84.361 L251.163,82.512 Z M251.163,87.395 C252.283,87.395 253.26,86.633 253.532,85.546 C253.548,85.481 253.621,85.266 253.764,84.953 C254.02,84.394 254.373,83.83 254.832,83.306 C256.157,81.792 258.086,80.884 260.93,80.884 C263.774,80.884 265.704,81.792 267.029,83.306 C267.487,83.83 267.84,84.394 268.096,84.953 C268.24,85.266 268.313,85.481 268.329,85.546 C268.6,86.633 269.577,87.395 270.698,87.395 L278.023,87.395 C281.62,87.395 284.535,90.311 284.535,93.907 C284.535,97.503 281.62,100.419 278.023,100.419 L262.558,100.419 C261.21,100.419 260.116,101.512 260.116,102.86 L260.116,119.953 C260.116,120.853 259.387,121.581 258.488,121.581 C257.589,121.581 256.86,120.853 256.86,119.953 L256.86,102.86 C256.86,101.512 255.767,100.419 254.419,100.419 L247.093,100.419 C243.497,100.419 240.581,97.503 240.581,93.907 C240.581,90.311 243.497,87.395 247.093,87.395 L251.163,87.395 Z" />
            <path d="M280.465,108.558 L288.605,108.558 C289.054,108.558 289.419,108.923 289.419,109.372 L289.419,117.512 C289.419,119.759 287.596,121.581 285.349,121.581 L280.465,121.581 C279.117,121.581 278.023,122.675 278.023,124.023 C278.023,125.372 279.117,126.465 280.465,126.465 L285.349,126.465 C290.294,126.465 294.302,122.456 294.302,117.512 L294.302,109.372 C294.302,106.225 291.751,103.674 288.605,103.674 L280.465,103.674 C279.117,103.674 278.023,104.768 278.023,106.116 C278.023,107.465 279.117,108.558 280.465,108.558 Z" />
        </g>
        <g id="Regular-S">
            <path d="M465,105.302 L477.209,105.302 C477.659,105.302 478.023,105.667 478.023,106.116 L478.023,143.558 L480.465,141.116 L444.651,141.116 L447.093,143.558 L447.093,106.116 C447.093,105.667 447.457,105.302 447.907,105.302 L451.977,105.302 C453.325,105.302 454.419,104.209 454.419,102.86 C454.419,101.512 453.325,100.419 451.977,100.419 L447.907,100.419 C444.76,100.419 442.209,102.969 442.209,106.116 L442.209,143.558 C442.209,144.907 443.303,146 444.651,146 L480.465,146 C481.814,146 482.907,144.907 482.907,143.558 L482.907,106.116 C482.907,102.969 480.356,100.419 477.209,100.419 L465,100.419 C463.651,100.419 462.558,101.512 462.558,102.86 C462.558,104.209 463.651,105.302 465,105.302 Z" />
            <path d="M451.163,82.512 L447.093,82.512 C440.799,82.512 435.698,87.613 435.698,93.907 C435.698,100.201 440.799,105.302 447.093,105.302 L454.419,105.302 L451.977,102.86 L451.977,119.953 C451.977,123.55 454.892,126.465 458.488,126.465 C462.085,126.465 465,123.55 465,119.953 L465,102.86 L462.558,105.302 L478.023,105.302 C484.317,105.302 489.419,100.201 489.419,93.907 C489.419,87.613 484.317,82.512 478.023,82.512 L470.698,82.512 L473.067,84.361 C472.777,83.202 472.061,81.641 470.704,80.09 C468.468,77.534 465.208,76 460.93,76 C456.652,76 453.393,77.534 451.156,80.09 C449.799,81.641 449.084,83.202 448.794,84.361 L451.163,82.512 Z M451.163,87.395 C452.283,87.395 453.26,86.633 453.532,85.546 C453.548,85.481 453.621,85.266 453.764,84.953 C454.02,84.394 454.373,83.83 454.832,83.306 C456.157,81.792 458.086,80.884 460.93,80.884 C463.774,80.884 465.704,81.792 467.029,83.306 C467.487,83.83 467.84,84.394 468.096,84.953 C468.24,85.266 468.313,85.481 468.329,85.546 C468.6,86.633 469.577,87.395 470.698,87.395 L478.023,87.395 C481.62,87.395 484.535,90.311 484.535,93.907 C484.535,97.503 481.62,100.419 478.023,100.419 L462.558,100.419 C461.21,100.419 460.116,101.512 460.116,102.86 L460.116,119.953 C460.116,120.853 459.387,121.581 458.488,121.581 C457.589,121.581 456.86,120.853 456.86,119.953 L456.86,102.86 C456.86,101.512 455.767,100.419 454.419,100.419 L447.093,100.419 C443.497,100.419 440.581,97.503 440.581,93.907 C440.581,90.311 443.497,87.395 447.093,87.395 L451.163,87.395 Z" />
            <path d="M480.465,108.558 L488.605,108.558 C489.054,108.558 489.419,108.923 489.419,109.372 L489.419,117.512 C489.419,119.759 487.596,121.581 485.349,121.581 L480.465,121.581 C479.117,121.581 478.023,122.675 478.023,124.023 C478.023,125.372 479.117,126.465 480.465,126.465 L485.349,126.465 C490.294,126.465 494.302,122.456 494.302,117.512 L494.302,109.372 C494.302,106.225 491.751,103.674 488.605,103.674 L480.465,103.674 C479.117,103.674 478.023,104.768 478.023,106.116 C478.023,107.465 479.117,108.558 480.465,108.558 Z" />
        </g>
        <g id="Black-S">
            <path d="M665,105.302 L677.209,105.302 C677.659,105.302 678.023,105.667 678.023,106.116 L678.023,143.558 L680.465,141.116 L644.651,141.116 L647.093,143.558 L647.093,106.116 C647.093,105.667 647.457,105.302 647.907,105.302 L651.977,105.302 C653.325,105.302 654.419,104.209 654.419,102.86 C654.419,101.512 653.325,100.419 651.977,100.419 L647.907,100.419 C644.76,100.419 642.209,102.969 642.209,106.116 L642.209,143.558 C642.209,144.907 643.303,146 644.651,146 L680.465,146 C681.814,146 682.907,144.907 682.907,143.558 L682.907,106.116 C682.907,102.969 680.356,100.419 677.209,100.419 L665,100.419 C663.651,100.419 662.558,101.512 662.558,102.86 C662.558,104.209 663.651,105.302 665,105.302 Z" />
            <path d="M651.163,82.512 L647.093,82.512 C640.799,82.512 635.698,87.613 635.698,93.907 C635.698,100.201 640.799,105.302 647.093,105.302 L654.419,105.302 L651.977,102.86 L651.977,119.953 C651.977,123.55 654.892,126.465 658.488,126.465 C662.085,126.465 665,123.55 665,119.953 L665,102.86 L662.558,105.302 L678.023,105.302 C684.317,105.302 689.419,100.201 689.419,93.907 C689.419,87.613 684.317,82.512 678.023,82.512 L670.698,82.512 L673.067,84.361 C672.777,83.202 672.061,81.641 670.704,80.09 C668.468,77.534 665.208,76 660.93,76 C656.652,76 653.393,77.534 651.157,80.09 C649.799,81.641 649.084,83.202 648.794,84.361 L651.163,82.512 Z M651.163,87.395 C652.283,87.395 653.26,86.633 653.532,85.546 C653.548,85.481 653.621,85.266 653.764,84.953 C654.02,84.394 654.373,83.83 654.832,83.306 C656.157,81.792 658.086,80.884 660.93,80.884 C663.774,80.884 665.704,81.792 667.029,83.306 C667.487,83.83 667.84,84.394 668.096,84.953 C668.24,85.266 668.313,85.481 668.329,85.546 C668.601,86.633 669.577,87.395 670.698,87.395 L678.023,87.395 C681.62,87.395 684.535,90.311 684.535,93.907 C684.535,97.503 681.62,100.419 678.023,100.419 L662.558,100.419 C661.21,100.419 660.116,101.512 660.116,102.86 L660.116,119.953 C660.116,120.853 659.387,121.581 658.488,121.581 C657.589,121.581 656.86,120.853 656.86,119.953 L656.86,102.86 C656.86,101.512 655.767,100.419 654.419,100.419 L647.093,100.419 C643.497,100.419 640.581,97.503 640.581,93.907 C640.581,90.311 643.497,87.395 647.093,87.395 L651.163,87.395 Z" />
            <path d="M680.465,108.558 L688.605,108.558 C689.054,108.558 689.419,108.923 689.419,109.372 L689.419,117.512 C689.419,119.759 687.596,121.581 685.349,121.581 L680.465,121.581 C679.117,121.581 678.023,122.675 678.023,124.023 C678.023,125.372 679.117,126.465 680.465,126.465 L685.349,126.465 C690.294,126.465 694.302,122.456 694.302,117.512 L694.302,109.372 C694.302,106.225 691.751,103.674 688.605,103.674 L680.465,103.674 C679.117,103.674 678.023,104.768 678.023,106.116 C678.023,107.465 679.117,108.558 680.465,108.558 Z" />
        </g>
    </g>
</svg>