<?xml version="1.0" encoding="UTF-8"?>
<svg height="600" width="800" xmlns="http://www.w3.org/2000/svg" xmlns:xlink="http://www.w3.org/1999/xlink">
    <g id="Notes" font-family="'LucidaGrande', 'Lucida Grande', sans-serif" font-size="13">
        <rect fill="white" height="600.0" width="800.0" x="0.0" y="0.0" />
        <g font-size="13">
            <text x="18.0" y="176.0">Small</text>
            <text x="18.0" y="376.0">Medium</text>
            <text x="18.0" y="576.0">Large</text>
        </g>
        <g font-size="9">
            <text x="250.0" y="30.0">Ultralight</text>
            <text x="450.0" y="30.0">Regular</text>
            <text x="650.0" y="30.0">Black</text>
            <text id="template-version" fill="#505050" text-anchor="end" x="785.0" y="575.0">Template v.3.0</text>
            <a href="https://github.com/swhitty/SwiftDraw">
                <text fill="#505050" text-anchor="end" x="785.0" y="590.0">https://github.com/swhitty/SwiftDraw</text>
            </a>
        </g>
    </g>
    <g id="Guides" stroke="rgb(39, 170, 225)" stroke-width="0.5">
        <path id="Capline-S" d="M18,76 l800,0" />
        <path id="H-reference" d="M85,145.755 L87.685,145.755 L113.369,79.287 L114.052,79.287 L114.052,76 L112.148,76 L85,145.755 Z M95.693,121.536 L130.996,121.536 L130.263,119.313 L96.474,119.313 L95.693,121.536 Z M139.15,145.755 L141.787,145.755 L114.638,76 L113.466,76 L113.466,79.287 L139.15,145.755 Z" stroke="none" />
        <path id="Baseline-S" d="M18,146 l800,0" />
        <path id="left-margin-Ultralight-S" d="M211,56 l0,110" />
        <path id="right-margin-Ultralight-S" d="M319,56 l0,110" />
        <path id="left-margin-Regular-S" d="M411,56 l0,110" />
        <path id="right-margin-Regular-S" d="M519,56 l0,110" />
        <path id="left-margin-Black-S" d="M611,56 l0,110" />
        <path id="right-margin-Black-S" d="M719,56 l0,110" />
        <path id="Capline-M" d="M18,276 l800,0" />
        <path id="Baseline-M" d="M18,346 l800,0" />
        <path id="Capline-L" d="M18,476 l800,0" />
        <path id="Baseline-L" d="M18,546 l800,0" />
    </g>
    <g id="Symbols">
        <g id="Ultralight-S">
            <path d="M227.14,94.628 C227.14,94.063 227.598,93.605 228.163,93.605 L301.837,93.605 C302.402,93.605 302.86,94.063 302.86,94.628 L302.86,110.595 C302.86,110.662 302.854,110.73 302.84,110.796 L299.485,127.573 C299.39,128.051 298.97,128.395 298.482,128.395 L231.518,128.395 C231.03,128.395 230.611,128.051 230.515,127.573 L227.159,110.795 C227.146,110.729 227.14,110.662 227.14,110.595 L227.14,94.628 Z M221,94.628 L221,110.595 C221,111.066 221.047,111.537 221.139,111.999 L224.495,128.777 C225.164,132.125 228.104,134.535 231.518,134.535 L298.482,134.535 C301.896,134.535 304.836,132.125 305.506,128.777 L308.861,111.999 C308.953,111.536 309,111.066 309,110.595 L309,94.628 C309,90.672 305.793,87.465 301.837,87.465 L228.163,87.465 C224.207,87.465 221,90.672 221,94.628 Z" />
            <path d="M236.349,114.07 L248.628,114.07 C250.323,114.07 251.698,112.695 251.698,111 C251.698,109.305 250.323,107.93 248.628,107.93 L236.349,107.93 C234.653,107.93 233.279,109.305 233.279,111 C233.279,112.695 234.653,114.07 236.349,114.07 Z" />
            <path d="M258.86,107.93 L262.953,107.93 C264.649,107.93 266.023,106.556 266.023,104.86 C266.023,103.165 264.649,101.791 262.953,101.791 L258.86,101.791 C257.165,101.791 255.791,103.165 255.791,104.86 C255.791,106.556 257.165,107.93 258.86,107.93 Z" />
            <path d="M258.86,120.209 L262.953,120.209 C264.649,120.209 266.023,118.835 266.023,117.14 C266.023,115.444 264.649,114.07 262.953,114.07 L258.86,114.07 C257.165,114.07 255.791,115.444 255.791,117.14 C255.791,118.835 257.165,120.209 258.86,120.209 Z" />
            <path d="M273.186,107.93 L277.279,107.93 C278.974,107.93 280.349,106.556 280.349,104.86 C280.349,103.165 278.974,101.791 277.279,101.791 L273.186,101.791 C271.491,101.791 270.116,103.165 270.116,104.86 C270.116,106.556 271.491,107.93 273.186,107.93 Z" />
            <path d="M273.186,120.209 L277.279,120.209 C278.974,120.209 280.349,118.835 280.349,117.14 C280.349,115.444 278.974,114.07 277.279,114.07 L273.186,114.07 C271.491,114.07 270.116,115.444 270.116,117.14 C270.116,118.835 271.491,120.209 273.186,120.209 Z" />
            <path d="M287.512,107.93 L291.605,107.93 C293.3,107.93 294.674,106.556 294.674,104.86 C294.674,103.165 293.3,101.791 291.605,101.791 L287.512,101.791 C285.816,101.791 284.442,103.165 284.442,104.86 C284.442,106.556 285.816,107.93 287.512,107.93 Z" />
            <path d="M287.512,120.209 L291.605,120.209 C293.3,120.209 294.674,118.835 294.674,117.14 C294.674,115.444 293.3,114.07 291.605,114.07 L287.512,114.07 C285.816,114.07 284.442,115.444 284.442,117.14 C284.442,118.835 285.816,120.209 287.512,120.209 Z" />
        </g>
        <g id="Regular-S">
            <path d="M427.14,94.628 C427.14,94.063 427.598,93.605 428.163,93.605 L501.837,93.605 C502.402,93.605 502.86,94.063 502.86,94.628 L502.86,110.595 C502.86,110.662 502.854,110.73 502.84,110.796 L499.485,127.573 C499.39,128.051 498.97,128.395 498.482,128.395 L431.518,128.395 C431.03,128.395 430.611,128.051 430.515,127.573 L427.159,110.795 C427.146,110.729 427.14,110.662 427.14,110.595 L427.14,94.628 Z M421,94.628 L421,110.595 C421,111.066 421.047,111.537 421.139,111.999 L424.495,128.777 C425.164,132.125 428.104,134.535 431.518,134.535 L498.482,134.535 C501.896,134.535 504.836,132.125 505.506,128.777 L508.861,111.999 C508.953,111.536 509,111.066 509,110.595 L509,94.628 C509,90.672 505.793,87.465 501.837,87.465 L428.163,87.465 C424.207,87.465 421,90.672 421,94.628 Z" />
            <path d="M436.349,114.07 L448.628,114.07 C450.323,114.07 451.698,112.695 451.698,111 C451.698,109.305 450.323,107.93 448.628,107.93 L436.349,107.93 C434.653,107.93 433.279,109.305 433.279,111 C433.279,112.695 434.653,114.07 436.349,114.07 Z" />
            <path d="M458.86,107.93 L462.953,107.93 C464.649,107.93 466.023,106.556 466.023,104.86 C466.023,103.165 464.649,101.791 462.953,101.791 L458.86,101.791 C457.165,101.791 455.791,103.165 455.791,104.86 C455.791,106.556 457.165,107.93 458.86,107.93 Z" />
            <path d="M458.86,120.209 L462.953,120.209 C464.649,120.209 466.023,118.835 466.023,117.14 C466.023,115.444 464.649,114.07 462.953,114.07 L458.86,114.07 C457.165,114.07 455.791,115.444 455.791,117.14 C455.791,118.835 457.165,120.209 458.86,120.209 Z" />
            <path d="M473.186,107.93 L477.279,107.93 C478.974,107.93 480.349,106.556 480.349,104.86 C480.349,103.165 478.974,101.791 477.279,101.791 L473.186,101.791 C471.491,101.791 470.116,103.165 470.116,104.86 C470.116,106.556 471.491,107.93 473.186,107.93 Z" />
            <path d="M473.186,120.209 L477.279,120.209 C478.974,120.209 480.349,118.835 480.349,117.14 C480.349,115.444 478.974,114.07 477.279,114.07 L473.186,114.07 C471.491,114.07 470.116,115.444 470.116,117.14 C470.116,118.835 471.491,120.209 473.186,120.209 Z" />
            <path d="M487.512,107.93 L491.605,107.93 C493.3,107.93 494.674,106.556 494.674,104.86 C494.674,103.165 493.3,101.791 491.605,101.791 L487.512,101.791 C485.816,101.791 484.442,103.165 484.442,104.86 C484.442,106.556 485.816,107.93 487.512,107.93 Z" />
            <path d="M487.512,120.209 L491.605,120.209 C493.3,120.209 494.674,118.835 494.674,117.14 C494.674,115.444 493.3,114.07 491.605,114.07 L487.512,114.07 C485.816,114.07 484.442,115.444 484.442,117.14 C484.442,118.835 485.816,120.209 487.512,120.209 Z" />
        </g>
        <g id="Black-S">
            <path d="M627.14,94.628 C627.14,94.063 627.598,93.605 628.163,93.605 L701.837,93.605 C702.402,93.605 702.86,94.063 702.86,94.628 L702.86,110.595 C702.86,110.662 702.854,110.73 702.841,110.796 L699.485,127.573 C699.39,128.051 698.97,128.395 698.482,128.395 L631.518,128.395 C631.031,128.395 630.611,128.051 630.515,127.573 L627.159,110.795 C627.146,110.729 627.14,110.662 627.14,110.595 L627.14,94.628 Z M621,94.628 L621,110.595 C621,111.066 621.047,111.537 621.139,111.999 L624.495,128.777 C625.164,132.125 628.104,134.535 631.518,134.535 L698.482,134.535 C701.896,134.535 704.836,132.125 705.505,128.777 L708.861,111.999 C708.953,111.536 709,111.066 709,110.595 L709,94.628 C709,90.672 705.793,87.465 701.837,87.465 L628.163,87.465 C624.207,87.465 621,90.672 621,94.628 Z" />
            <path d="M636.349,114.07 L648.628,114.07 C650.323,114.07 651.698,112.695 651.698,111 C651.698,109.305 650.323,107.93 648.628,107.93 L636.349,107.93 C634.653,107.93 633.279,109.305 633.279,111 C633.279,112.695 634.653,114.07 636.349,114.07 Z" />
            <path d="M658.86,107.93 L662.953,107.93 C664.649,107.93 666.023,106.556 666.023,104.86 C666.023,103.165 664.649,101.791 662.953,101.791 L658.86,101.791 C657.165,101.791 655.791,103.165 655.791,104.86 C655.791,106.556 657.165,107.93 658.86,107.93 Z" />
            <path d="M658.86,120.209 L662.953,120.209 C664.649,120.209 666.023,118.835 666.023,117.14 C666.023,115.444 664.649,114.07 662.953,114.07 L658.86,114.07 C657.165,114.07 655.791,115.444 655.791,117.14 C655.791,118.835 657.165,120.209 658.86,120.209 Z" />
            <path d="M673.186,107.93 L677.279,107.93 C678.974,107.93 680.349,106.556 680.349,104.86 C680.349,103.165 678.974,101.791 677.279,101.791 L673.186,101.791 C671.491,101.791 670.116,103.165 670.116,104.86 C670.116,106.556 671.491,107.93 673.186,107.93 Z" />
            <path d="M673.186,120.209 L677.279,120.209 C678.974,120.209 680.349,118.835 680.349,117.14 C680.349,115.444 678.974,114.07 677.279,114.07 L673.186,114.07 C671.491,114.07 670.116,115.444 670.116,117.14 C670.116,118.835 671.491,120.209 673.186,120.209 Z" />
            <path d="M687.512,107.93 L691.605,107.93 C693.3,107.93 694.674,106.556 694.674,104.86 C694.674,103.165 693.3,101.791 691.605,101.791 L687.512,101.791 C685.816,101.791 684.442,103.165 684.442,104.86 C684.442,106.556 685.816,107.93 687.512,107.93 Z" />
            <path d="M687.512,120.209 L691.605,120.209 C693.3,120.209 694.674,118.835 694.674,117.14 C694.674,115.444 693.3,114.07 691.605,114.07 L687.512,114.07 C685.816,114.07 684.442,115.444 684.442,117.14 C684.442,118.835 685.816,120.209 687.512,120.209 Z" />
        </g>
    </g>
</svg>