<?xml version="1.0" encoding="UTF-8"?>
<svg height="600" width="800" xmlns="http://www.w3.org/2000/svg" xmlns:xlink="http://www.w3.org/1999/xlink">
    <g id="Notes" font-family="'LucidaGrande', 'Lucida Grande', sans-serif" font-size="13">
        <rect fill="white" height="600.0" width="800.0" x="0.0" y="0.0" />
        <g font-size="13">
            <text x="18.0" y="176.0">Small</text>
            <text x="18.0" y="376.0">Medium</text>
            <text x="18.0" y="576.0">Large</text>
        </g>
        <g font-size="9">
            <text x="250.0" y="30.0">Ultralight</text>
            <text x="450.0" y="30.0">Regular</text>
            <text x="650.0" y="30.0">Black</text>
            <text id="template-version" fill="#505050" text-anchor="end" x="785.0" y="575.0">Template v.3.0</text>
            <a href="https://github.com/swhitty/SwiftDraw">
                <text fill="#505050" text-anchor="end" x="785.0" y="590.0">https://github.com/swhitty/SwiftDraw</text>
            </a>
        </g>
    </g>
    <g id="Guides" stroke="rgb(39, 170, 225)" stroke-width="0.5">
        <path id="Capline-S" d="M18,76 l800,0" />
        <path id="H-reference" d="M85,145.755 L87.685,145.755 L113.369,79.287 L114.052,79.287 L114.052,76 L112.148,76 L85,145.755 Z M95.693,121.536 L130.996,121.536 L130.263,119.313 L96.474,119.313 L95.693,121.536 Z M139.15,145.755 L141.787,145.755 L114.638,76 L113.466,76 L113.466,79.287 L139.15,145.755 Z" stroke="none" />
        <path id="Baseline-S" d="M18,146 l800,0" />
        <path id="left-margin-Ultralight-S" d="M221,56 l0,110" />
        <path id="right-margin-Ultralight-S" d="M309,56 l0,110" />
        <path id="left-margin-Regular-S" d="M421,56 l0,110" />
        <path id="right-margin-Regular-S" d="M509,56 l0,110" />
        <path id="left-margin-Black-S" d="M621,56 l0,110" />
        <path id="right-margin-Black-S" d="M709,56 l0,110" />
        <path id="Capline-M" d="M18,276 l800,0" />
        <path id="Baseline-M" d="M18,346 l800,0" />
        <path id="Capline-L" d="M18,476 l800,0" />
        <path id="Baseline-L" d="M18,546 l800,0" />
    </g>
    <g id="Symbols">
        <g id="Ultralight-S">
            <path d="M288.049,111 L288.049,140.024 C288.049,140.251 287.959,140.468 287.799,140.628 C287.639,140.788 287.422,140.878 287.195,140.878 L242.805,140.878 C242.578,140.878 242.361,140.788 242.201,140.628 C242.041,140.468 241.951,140.251 241.951,140.024 L241.951,81.976 C241.951,81.749 242.041,81.532 242.201,81.372 C242.361,81.212 242.578,81.122 242.805,81.122 L287.195,81.122 C287.422,81.122 287.639,81.212 287.799,81.372 C287.959,81.532 288.049,81.749 288.049,81.976 L288.049,111 Z M293.171,111 L293.171,81.976 C293.171,80.391 292.541,78.871 291.421,77.75 C290.3,76.63 288.78,76 287.195,76 L242.805,76 C241.22,76 239.7,76.63 238.579,77.75 C237.459,78.871 236.829,80.391 236.829,81.976 L236.829,140.024 C236.829,141.609 237.459,143.129 238.579,144.25 C239.7,145.37 241.22,146 242.805,146 L287.195,146 C288.78,146 290.3,145.37 291.421,144.25 C292.541,143.129 293.171,141.609 293.171,140.024 L293.171,111 Z" />
            <path d="M239.39,103.317 L290.61,103.317 C292.024,103.317 293.171,102.17 293.171,100.756 C293.171,99.342 292.024,98.195 290.61,98.195 L239.39,98.195 C237.976,98.195 236.829,99.342 236.829,100.756 C236.829,102.17 237.976,103.317 239.39,103.317 Z" />
            <path d="M257.317,121.244 C257.317,117.001 260.757,113.561 265,113.561 C269.243,113.561 272.683,117.001 272.683,121.244 C272.683,125.487 269.243,128.927 265,128.927 C260.757,128.927 257.317,125.487 257.317,121.244 Z M252.195,121.244 C252.195,128.316 257.928,134.049 265,134.049 C272.072,134.049 277.805,128.316 277.805,121.244 C277.805,114.172 272.072,108.439 265,108.439 C257.928,108.439 252.195,114.172 252.195,121.244 Z" />
        </g>
        <g id="Regular-S">
            <path d="M488.049,111 L488.049,140.024 C488.049,140.251 487.959,140.468 487.799,140.628 C487.639,140.788 487.422,140.878 487.195,140.878 L442.805,140.878 C442.578,140.878 442.361,140.788 442.201,140.628 C442.041,140.468 441.951,140.251 441.951,140.024 L441.951,81.976 C441.951,81.749 442.041,81.532 442.201,81.372 C442.361,81.212 442.578,81.122 442.805,81.122 L487.195,81.122 C487.422,81.122 487.639,81.212 487.799,81.372 C487.959,81.532 488.049,81.749 488.049,81.976 L488.049,111 Z M493.171,111 L493.171,81.976 C493.171,80.391 492.541,78.871 491.421,77.75 C490.3,76.63 488.78,76 487.195,76 L442.805,76 C441.22,76 439.7,76.63 438.579,77.75 C437.459,78.871 436.829,80.391 436.829,81.976 L436.829,140.024 C436.829,141.609 437.459,143.129 438.579,144.25 C439.7,145.37 441.22,146 442.805,146 L487.195,146 C488.78,146 490.3,145.37 491.421,144.25 C492.541,143.129 493.171,141.609 493.171,140.024 L493.171,111 Z" />
            <path d="M439.39,103.317 L490.61,103.317 C492.024,103.317 493.171,102.17 493.171,100.756 C493.171,99.342 492.024,98.195 490.61,98.195 L439.39,98.195 C437.976,98.195 436.829,99.342 436.829,100.756 C436.829,102.17 437.976,103.317 439.39,103.317 Z" />
            <path d="M457.317,121.244 C457.317,117.001 460.757,113.561 465,113.561 C469.243,113.561 472.683,117.001 472.683,121.244 C472.683,125.487 469.243,128.927 465,128.927 C460.757,128.927 457.317,125.487 457.317,121.244 Z M452.195,121.244 C452.195,128.316 457.928,134.049 465,134.049 C472.072,134.049 477.805,128.316 477.805,121.244 C477.805,114.172 472.072,108.439 465,108.439 C457.928,108.439 452.195,114.172 452.195,121.244 Z" />
        </g>
        <g id="Black-S">
            <path d="M688.049,111 L688.049,140.024 C688.049,140.251 687.959,140.468 687.799,140.628 C687.639,140.788 687.422,140.878 687.195,140.878 L642.805,140.878 C642.578,140.878 642.361,140.788 642.201,140.628 C642.041,140.468 641.951,140.251 641.951,140.024 L641.951,81.976 C641.951,81.749 642.041,81.532 642.201,81.372 C642.361,81.212 642.578,81.122 642.805,81.122 L687.195,81.122 C687.422,81.122 687.639,81.212 687.799,81.372 C687.959,81.532 688.049,81.749 688.049,81.976 L688.049,111 Z M693.171,111 L693.171,81.976 C693.171,80.391 692.541,78.871 691.421,77.75 C690.3,76.63 688.78,76 687.195,76 L642.805,76 C641.22,76 639.7,76.63 638.58,77.75 C637.459,78.871 636.829,80.391 636.829,81.976 L636.829,140.024 C636.829,141.609 637.459,143.129 638.58,144.25 C639.7,145.37 641.22,146 642.805,146 L687.195,146 C688.78,146 690.3,145.37 691.421,144.25 C692.541,143.129 693.171,141.609 693.171,140.024 L693.171,111 Z" />
            <path d="M639.39,103.317 L690.61,103.317 C692.024,103.317 693.171,102.17 693.171,100.756 C693.171,99.342 692.024,98.195 690.61,98.195 L639.39,98.195 C637.976,98.195 636.829,99.342 636.829,100.756 C636.829,102.17 637.976,103.317 639.39,103.317 Z" />
            <path d="M657.317,121.244 C657.317,117.001 660.757,113.561 665,113.561 C669.243,113.561 672.683,117.001 672.683,121.244 C672.683,125.487 669.243,128.927 665,128.927 C660.757,128.927 657.317,125.487 657.317,121.244 Z M652.195,121.244 C652.195,128.316 657.928,134.049 665,134.049 C672.072,134.049 677.805,128.316 677.805,121.244 C677.805,114.172 672.072,108.439 665,108.439 C657.928,108.439 652.195,114.172 652.195,121.244 Z" />
        </g>
    </g>
</svg>