<?xml version="1.0" encoding="UTF-8"?>
<svg height="600" width="800" xmlns="http://www.w3.org/2000/svg" xmlns:xlink="http://www.w3.org/1999/xlink">
    <g id="Notes" font-family="'LucidaGrande', 'Lucida Grande', sans-serif" font-size="13">
        <rect fill="white" height="600.0" width="800.0" x="0.0" y="0.0" />
        <g font-size="13">
            <text x="18.0" y="176.0">Small</text>
            <text x="18.0" y="376.0">Medium</text>
            <text x="18.0" y="576.0">Large</text>
        </g>
        <g font-size="9">
            <text x="250.0" y="30.0">Ultralight</text>
            <text x="450.0" y="30.0">Regular</text>
            <text x="650.0" y="30.0">Black</text>
            <text id="template-version" fill="#505050" text-anchor="end" x="785.0" y="575.0">Template v.3.0</text>
            <a href="https://github.com/swhitty/SwiftDraw">
                <text fill="#505050" text-anchor="end" x="785.0" y="590.0">https://github.com/swhitty/SwiftDraw</text>
            </a>
        </g>
    </g>
    <g id="Guides" stroke="rgb(39, 170, 225)" stroke-width="0.5">
        <path id="Capline-S" d="M18,76 l800,0" />
        <path id="H-reference" d="M85,145.755 L87.685,145.755 L113.369,79.287 L114.052,79.287 L114.052,76 L112.148,76 L85,145.755 Z M95.693,121.536 L130.996,121.536 L130.263,119.313 L96.474,119.313 L95.693,121.536 Z M139.15,145.755 L141.787,145.755 L114.638,76 L113.466,76 L113.466,79.287 L139.15,145.755 Z" stroke="none" />
        <path id="Baseline-S" d="M18,146 l800,0" />
        <path id="left-margin-Ultralight-S" d="M221,56 l0,110" />
        <path id="right-margin-Ultralight-S" d="M309,56 l0,110" />
        <path id="left-margin-Regular-S" d="M421,56 l0,110" />
        <path id="right-margin-Regular-S" d="M509,56 l0,110" />
        <path id="left-margin-Black-S" d="M621,56 l0,110" />
        <path id="right-margin-Black-S" d="M709,56 l0,110" />
        <path id="Capline-M" d="M18,276 l800,0" />
        <path id="Baseline-M" d="M18,346 l800,0" />
        <path id="Capline-L" d="M18,476 l800,0" />
        <path id="Baseline-L" d="M18,546 l800,0" />
    </g>
    <g id="Symbols">
        <g id="Ultralight-S">
            <path d="M284.533,76 L245.466,76 C244.117,76 243.024,77.093 243.024,78.442 L243.024,143.554 C243.024,146.074 246.376,146.943 247.6,144.74 L263.878,115.439 L261.744,116.695 L274.766,116.695 C275.867,116.695 276.832,115.958 277.122,114.896 L286.889,79.084 C287.312,77.531 286.143,76 284.533,76 Z M284.533,80.883 L282.177,77.799 L272.411,113.611 L274.766,111.812 L261.744,111.812 C260.857,111.812 260.04,112.293 259.609,113.068 L243.331,142.368 L247.907,143.554 L247.907,78.442 L245.466,80.883 L284.533,80.883 Z" />
            <path d="M279.65,93.906 L263.371,93.906 C262.023,93.906 260.93,94.999 260.93,96.348 C260.93,97.696 262.023,98.789 263.371,98.789 L279.65,98.789 C280.998,98.789 282.091,97.696 282.091,96.348 C282.091,94.999 280.998,93.906 279.65,93.906 Z" />
            <path d="M279.957,85.938 L274.63,105.472 C274.275,106.773 275.042,108.115 276.343,108.47 C277.644,108.825 278.986,108.058 279.341,106.757 L284.668,87.223 C285.023,85.922 284.256,84.58 282.955,84.225 C281.654,83.87 280.312,84.637 279.957,85.938 Z" />
        </g>
        <g id="Regular-S">
            <path d="M484.533,76 L445.466,76 C444.117,76 443.024,77.093 443.024,78.442 L443.024,143.554 C443.024,146.074 446.376,146.943 447.6,144.74 L463.878,115.439 L461.744,116.695 L474.766,116.695 C475.867,116.695 476.832,115.958 477.122,114.896 L486.889,79.084 C487.312,77.531 486.143,76 484.533,76 Z M484.533,80.883 L482.177,77.799 L472.411,113.611 L474.766,111.812 L461.744,111.812 C460.857,111.812 460.04,112.293 459.609,113.068 L443.331,142.368 L447.907,143.554 L447.907,78.442 L445.466,80.883 L484.533,80.883 Z" />
            <path d="M479.65,93.906 L463.371,93.906 C462.023,93.906 460.93,94.999 460.93,96.348 C460.93,97.696 462.023,98.789 463.371,98.789 L479.65,98.789 C480.998,98.789 482.091,97.696 482.091,96.348 C482.091,94.999 480.998,93.906 479.65,93.906 Z" />
            <path d="M479.957,85.938 L474.63,105.472 C474.275,106.773 475.042,108.115 476.343,108.47 C477.644,108.825 478.986,108.058 479.341,106.757 L484.668,87.223 C485.023,85.922 484.256,84.58 482.955,84.225 C481.654,83.87 480.312,84.637 479.957,85.938 Z" />
        </g>
        <g id="Black-S">
            <path d="M684.533,76 L645.466,76 C644.117,76 643.024,77.093 643.024,78.442 L643.024,143.554 C643.024,146.074 646.376,146.943 647.6,144.74 L663.878,115.439 L661.744,116.695 L674.766,116.695 C675.867,116.695 676.832,115.958 677.122,114.896 L686.889,79.084 C687.312,77.531 686.143,76 684.533,76 Z M684.533,80.883 L682.177,77.799 L672.411,113.611 L674.766,111.812 L661.744,111.812 C660.857,111.812 660.04,112.293 659.609,113.068 L643.331,142.368 L647.907,143.554 L647.907,78.442 L645.466,80.883 L684.533,80.883 Z" />
            <path d="M679.65,93.906 L663.372,93.906 C662.023,93.906 660.93,94.999 660.93,96.348 C660.93,97.696 662.023,98.789 663.372,98.789 L679.65,98.789 C680.998,98.789 682.091,97.696 682.091,96.348 C682.091,94.999 680.998,93.906 679.65,93.906 Z" />
            <path d="M679.957,85.938 L674.63,105.472 C674.275,106.773 675.042,108.115 676.343,108.47 C677.644,108.825 678.986,108.058 679.341,106.757 L684.668,87.223 C685.023,85.922 684.256,84.58 682.955,84.225 C681.654,83.87 680.312,84.637 679.957,85.938 Z" />
        </g>
    </g>
</svg>