<?xml version="1.0" encoding="UTF-8"?>
<svg height="600" width="800" xmlns="http://www.w3.org/2000/svg" xmlns:xlink="http://www.w3.org/1999/xlink">
    <g id="Notes" font-family="'LucidaGrande', 'Lucida Grande', sans-serif" font-size="13">
        <rect fill="white" height="600.0" width="800.0" x="0.0" y="0.0" />
        <g font-size="13">
            <text x="18.0" y="176.0">Small</text>
            <text x="18.0" y="376.0">Medium</text>
            <text x="18.0" y="576.0">Large</text>
        </g>
        <g font-size="9">
            <text x="250.0" y="30.0">Ultralight</text>
            <text x="450.0" y="30.0">Regular</text>
            <text x="650.0" y="30.0">Black</text>
            <text id="template-version" fill="#505050" text-anchor="end" x="785.0" y="575.0">Template v.3.0</text>
            <a href="https://github.com/swhitty/SwiftDraw">
                <text fill="#505050" text-anchor="end" x="785.0" y="590.0">https://github.com/swhitty/SwiftDraw</text>
            </a>
        </g>
    </g>
    <g id="Guides" stroke="rgb(39, 170, 225)" stroke-width="0.5">
        <path id="Capline-S" d="M18,76 l800,0" />
        <path id="H-reference" d="M85,145.755 L87.685,145.755 L113.369,79.287 L114.052,79.287 L114.052,76 L112.148,76 L85,145.755 Z M95.693,121.536 L130.996,121.536 L130.263,119.313 L96.474,119.313 L95.693,121.536 Z M139.15,145.755 L141.787,145.755 L114.638,76 L113.466,76 L113.466,79.287 L139.15,145.755 Z" stroke="none" />
        <path id="Baseline-S" d="M18,146 l800,0" />
        <path id="left-margin-Ultralight-S" d="M221,56 l0,110" />
        <path id="right-margin-Ultralight-S" d="M309,56 l0,110" />
        <path id="left-margin-Regular-S" d="M421,56 l0,110" />
        <path id="right-margin-Regular-S" d="M509,56 l0,110" />
        <path id="left-margin-Black-S" d="M621,56 l0,110" />
        <path id="right-margin-Black-S" d="M709,56 l0,110" />
        <path id="Capline-M" d="M18,276 l800,0" />
        <path id="Baseline-M" d="M18,346 l800,0" />
        <path id="Capline-L" d="M18,476 l800,0" />
        <path id="Baseline-L" d="M18,546 l800,0" />
    </g>
    <g id="Symbols">
        <g id="Ultralight-S">
            <path d="M283.707,143.818 L288.591,98.237 C288.745,96.794 287.614,95.535 286.163,95.535 L243.837,95.535 C242.369,95.535 241.232,96.823 241.414,98.28 L247.112,143.861 C247.265,145.083 248.304,146 249.535,146 L281.279,146 C282.527,146 283.574,145.059 283.707,143.818 Z M278.851,143.298 L281.279,141.116 L249.535,141.116 L251.958,143.255 L246.26,97.674 L243.837,100.419 L286.163,100.419 L283.735,97.717 L278.851,143.298 Z" />
            <path d="M267.317,87.438 L264.061,77.67 C263.634,76.391 262.251,75.7 260.972,76.126 C259.693,76.552 259.001,77.935 259.428,79.215 L262.684,88.982 C263.11,90.261 264.493,90.953 265.772,90.526 C267.052,90.1 267.743,88.717 267.317,87.438 Z" />
            <path d="M235.698,100.419 L294.302,100.419 C295.651,100.419 296.744,99.326 296.744,97.977 C296.744,96.629 295.651,95.535 294.302,95.535 L235.698,95.535 C234.349,95.535 233.256,96.629 233.256,97.977 C233.256,99.326 234.349,100.419 235.698,100.419 Z" />
            <path d="M286.154,115.07 C286.311,115.07 286.655,115.089 287.116,115.148 C287.89,115.248 288.66,115.425 289.351,115.691 C291.225,116.413 292.053,117.496 291.824,119.524 C291.607,121.446 290.612,122.424 288.789,122.914 C287.658,123.217 286.388,123.267 285.257,123.162 C285.078,123.145 284.962,123.13 284.923,123.124 C283.591,122.909 282.338,123.815 282.124,125.146 C281.91,126.478 282.815,127.731 284.147,127.945 C284.289,127.968 284.512,127.997 284.804,128.024 C286.463,128.179 288.277,128.107 290.055,127.63 C293.684,126.656 296.214,124.166 296.676,120.072 C297.182,115.594 294.887,112.59 291.105,111.134 C289.244,110.417 287.446,110.186 286.154,110.186 C284.805,110.186 283.712,111.28 283.712,112.628 C283.712,113.977 284.805,115.07 286.154,115.07 Z" />
            <path d="M243.846,110.186 C242.554,110.186 240.756,110.417 238.895,111.134 C235.113,112.59 232.818,115.594 233.324,120.072 C233.786,124.166 236.316,126.656 239.945,127.63 C241.723,128.107 243.537,128.179 245.196,128.024 C245.488,127.997 245.711,127.968 245.854,127.945 C247.185,127.731 248.09,126.478 247.876,125.146 C247.662,123.815 246.409,122.909 245.077,123.124 C245.038,123.13 244.922,123.145 244.743,123.162 C243.612,123.267 242.342,123.217 241.211,122.914 C239.388,122.424 238.393,121.446 238.176,119.524 C237.947,117.496 238.775,116.413 240.649,115.691 C241.34,115.425 242.11,115.248 242.884,115.148 C243.346,115.089 243.689,115.07 243.846,115.07 C245.195,115.07 246.288,113.977 246.288,112.628 C246.288,111.28 245.195,110.186 243.846,110.186 Z" />
            <path d="M286.163,85.768 L243.837,85.768 C242.489,85.768 241.396,86.861 241.396,88.21 L241.396,97.977 C241.396,99.326 242.489,100.419 243.837,100.419 L286.163,100.419 C287.511,100.419 288.604,99.326 288.604,97.977 L288.604,88.21 C288.604,86.861 287.511,85.768 286.163,85.768 Z M286.163,90.652 L283.721,88.21 L283.721,97.977 L286.163,95.535 L243.837,95.535 L246.279,97.977 L246.279,88.21 L243.837,90.652 L286.163,90.652 Z" />
        </g>
        <g id="Regular-S">
            <path d="M483.707,143.818 L488.591,98.237 C488.745,96.794 487.614,95.535 486.163,95.535 L443.837,95.535 C442.369,95.535 441.232,96.823 441.414,98.28 L447.112,143.861 C447.265,145.083 448.304,146 449.535,146 L481.279,146 C482.527,146 483.574,145.059 483.707,143.818 Z M478.851,143.298 L481.279,141.116 L449.535,141.116 L451.958,143.255 L446.26,97.674 L443.837,100.419 L486.163,100.419 L483.735,97.717 L478.851,143.298 Z" />
            <path d="M467.317,87.438 L464.061,77.67 C463.634,76.391 462.251,75.7 460.972,76.126 C459.693,76.552 459.001,77.935 459.428,79.215 L462.684,88.982 C463.11,90.261 464.493,90.953 465.772,90.526 C467.052,90.1 467.743,88.717 467.317,87.438 Z" />
            <path d="M435.698,100.419 L494.302,100.419 C495.651,100.419 496.744,99.326 496.744,97.977 C496.744,96.629 495.651,95.535 494.302,95.535 L435.698,95.535 C434.349,95.535 433.256,96.629 433.256,97.977 C433.256,99.326 434.349,100.419 435.698,100.419 Z" />
            <path d="M486.154,115.07 C486.311,115.07 486.655,115.089 487.116,115.148 C487.89,115.248 488.66,115.425 489.351,115.691 C491.225,116.413 492.053,117.496 491.824,119.524 C491.607,121.446 490.612,122.424 488.789,122.914 C487.658,123.217 486.388,123.267 485.257,123.162 C485.078,123.145 484.962,123.13 484.923,123.124 C483.591,122.909 482.338,123.815 482.124,125.146 C481.91,126.478 482.815,127.731 484.147,127.945 C484.289,127.968 484.512,127.997 484.804,128.024 C486.463,128.179 488.277,128.107 490.055,127.63 C493.684,126.656 496.214,124.166 496.676,120.072 C497.182,115.594 494.887,112.59 491.105,111.134 C489.244,110.417 487.446,110.186 486.154,110.186 C484.805,110.186 483.712,111.28 483.712,112.628 C483.712,113.977 484.805,115.07 486.154,115.07 Z" />
            <path d="M443.846,110.186 C442.554,110.186 440.756,110.417 438.895,111.134 C435.113,112.59 432.818,115.594 433.324,120.072 C433.786,124.166 436.316,126.656 439.945,127.63 C441.723,128.107 443.537,128.179 445.196,128.024 C445.488,127.997 445.711,127.968 445.854,127.945 C447.185,127.731 448.091,126.478 447.876,125.146 C447.662,123.815 446.409,122.909 445.077,123.124 C445.038,123.13 444.922,123.145 444.743,123.162 C443.612,123.267 442.342,123.217 441.211,122.914 C439.388,122.424 438.393,121.446 438.176,119.524 C437.947,117.496 438.775,116.413 440.649,115.691 C441.34,115.425 442.11,115.248 442.884,115.148 C443.346,115.089 443.689,115.07 443.846,115.07 C445.195,115.07 446.288,113.977 446.288,112.628 C446.288,111.28 445.195,110.186 443.846,110.186 Z" />
            <path d="M486.163,85.768 L443.837,85.768 C442.489,85.768 441.396,86.861 441.396,88.21 L441.396,97.977 C441.396,99.326 442.489,100.419 443.837,100.419 L486.163,100.419 C487.511,100.419 488.604,99.326 488.604,97.977 L488.604,88.21 C488.604,86.861 487.511,85.768 486.163,85.768 Z M486.163,90.652 L483.721,88.21 L483.721,97.977 L486.163,95.535 L443.837,95.535 L446.279,97.977 L446.279,88.21 L443.837,90.652 L486.163,90.652 Z" />
        </g>
        <g id="Black-S">
            <path d="M683.707,143.818 L688.591,98.237 C688.745,96.794 687.614,95.535 686.163,95.535 L643.837,95.535 C642.369,95.535 641.232,96.823 641.414,98.28 L647.112,143.861 C647.265,145.083 648.304,146 649.535,146 L681.279,146 C682.527,146 683.574,145.059 683.707,143.818 Z M678.851,143.298 L681.279,141.116 L649.535,141.116 L651.958,143.255 L646.26,97.674 L643.837,100.419 L686.163,100.419 L683.735,97.717 L678.851,143.298 Z" />
            <path d="M667.317,87.438 L664.061,77.67 C663.634,76.391 662.251,75.7 660.972,76.126 C659.693,76.552 659.001,77.935 659.428,79.215 L662.683,88.982 C663.11,90.261 664.493,90.953 665.772,90.526 C667.052,90.1 667.743,88.717 667.317,87.438 Z" />
            <path d="M635.698,100.419 L694.302,100.419 C695.651,100.419 696.744,99.326 696.744,97.977 C696.744,96.629 695.651,95.535 694.302,95.535 L635.698,95.535 C634.349,95.535 633.256,96.629 633.256,97.977 C633.256,99.326 634.349,100.419 635.698,100.419 Z" />
            <path d="M686.154,115.07 C686.311,115.07 686.654,115.089 687.116,115.148 C687.89,115.248 688.66,115.425 689.351,115.691 C691.225,116.413 692.053,117.496 691.824,119.524 C691.607,121.446 690.612,122.424 688.789,122.914 C687.658,123.217 686.388,123.267 685.257,123.162 C685.078,123.145 684.962,123.13 684.923,123.124 C683.591,122.909 682.338,123.815 682.124,125.146 C681.91,126.478 682.815,127.731 684.146,127.945 C684.289,127.968 684.512,127.997 684.804,128.024 C686.463,128.179 688.277,128.107 690.055,127.63 C693.684,126.656 696.214,124.166 696.676,120.072 C697.182,115.594 694.887,112.59 691.105,111.134 C689.244,110.417 687.446,110.186 686.154,110.186 C684.805,110.186 683.712,111.28 683.712,112.628 C683.712,113.977 684.805,115.07 686.154,115.07 Z" />
            <path d="M643.846,110.186 C642.554,110.186 640.756,110.417 638.895,111.134 C635.113,112.59 632.818,115.594 633.324,120.072 C633.786,124.166 636.316,126.656 639.945,127.63 C641.723,128.107 643.537,128.179 645.196,128.024 C645.488,127.997 645.711,127.968 645.854,127.945 C647.185,127.731 648.09,126.478 647.876,125.146 C647.662,123.815 646.409,122.909 645.077,123.124 C645.038,123.13 644.922,123.145 644.743,123.162 C643.612,123.267 642.342,123.217 641.211,122.914 C639.388,122.424 638.393,121.446 638.176,119.524 C637.947,117.496 638.775,116.413 640.649,115.691 C641.34,115.425 642.11,115.248 642.884,115.148 C643.346,115.089 643.689,115.07 643.846,115.07 C645.195,115.07 646.288,113.977 646.288,112.628 C646.288,111.28 645.195,110.186 643.846,110.186 Z" />
            <path d="M686.163,85.768 L643.837,85.768 C642.489,85.768 641.396,86.861 641.396,88.21 L641.396,97.977 C641.396,99.326 642.489,100.419 643.837,100.419 L686.163,100.419 C687.511,100.419 688.604,99.326 688.604,97.977 L688.604,88.21 C688.604,86.861 687.511,85.768 686.163,85.768 Z M686.163,90.652 L683.721,88.21 L683.721,97.977 L686.163,95.535 L643.837,95.535 L646.279,97.977 L646.279,88.21 L643.837,90.652 L686.163,90.652 Z" />
        </g>
    </g>
</svg>