<?xml version="1.0" encoding="UTF-8"?>
<svg height="600" width="800" xmlns="http://www.w3.org/2000/svg" xmlns:xlink="http://www.w3.org/1999/xlink">
    <g id="Notes" font-family="'LucidaGrande', 'Lucida Grande', sans-serif" font-size="13">
        <rect fill="white" height="600.0" width="800.0" x="0.0" y="0.0" />
        <g font-size="13">
            <text x="18.0" y="176.0">Small</text>
            <text x="18.0" y="376.0">Medium</text>
            <text x="18.0" y="576.0">Large</text>
        </g>
        <g font-size="9">
            <text x="250.0" y="30.0">Ultralight</text>
            <text x="450.0" y="30.0">Regular</text>
            <text x="650.0" y="30.0">Black</text>
            <text id="template-version" fill="#505050" text-anchor="end" x="785.0" y="575.0">Template v.3.0</text>
            <a href="https://github.com/swhitty/SwiftDraw">
                <text fill="#505050" text-anchor="end" x="785.0" y="590.0">https://github.com/swhitty/SwiftDraw</text>
            </a>
        </g>
    </g>
    <g id="Guides" stroke="rgb(39, 170, 225)" stroke-width="0.5">
        <path id="Capline-S" d="M18,76 l800,0" />
        <path id="H-reference" d="M85,145.755 L87.685,145.755 L113.369,79.287 L114.052,79.287 L114.052,76 L112.148,76 L85,145.755 Z M95.693,121.536 L130.996,121.536 L130.263,119.313 L96.474,119.313 L95.693,121.536 Z M139.15,145.755 L141.787,145.755 L114.638,76 L113.466,76 L113.466,79.287 L139.15,145.755 Z" stroke="none" />
        <path id="Baseline-S" d="M18,146 l800,0" />
        <path id="left-margin-Ultralight-S" d="M220,56 l0,110" />
        <path id="right-margin-Ultralight-S" d="M310,56 l0,110" />
        <path id="left-margin-Regular-S" d="M420,56 l0,110" />
        <path id="right-margin-Regular-S" d="M510,56 l0,110" />
        <path id="left-margin-Black-S" d="M620,56 l0,110" />
        <path id="right-margin-Black-S" d="M710,56 l0,110" />
        <path id="Capline-M" d="M18,276 l800,0" />
        <path id="Baseline-M" d="M18,346 l800,0" />
        <path id="Capline-L" d="M18,476 l800,0" />
        <path id="Baseline-L" d="M18,546 l800,0" />
    </g>
    <g id="Symbols">
        <g id="Ultralight-S">
            <path d="M295.513,97.538 L256.026,97.538 C253.547,97.538 251.538,99.547 251.538,102.026 L251.538,141.513 C251.538,143.991 253.547,146 256.026,146 L295.513,146 C297.991,146 300,143.991 300,141.513 L300,102.026 C300,99.547 297.991,97.538 295.513,97.538 Z M295.513,102.923 C295.017,102.923 294.615,102.521 294.615,102.026 L294.615,141.513 C294.615,141.017 295.017,140.615 295.513,140.615 L256.026,140.615 C256.521,140.615 256.923,141.017 256.923,141.513 L256.923,102.026 C256.923,102.521 256.521,102.923 256.026,102.923 L295.513,102.923 Z" />
            <path d="M239.816,76 L232.692,76 C231.205,76 230,77.205 230,78.692 L230,85.932 C230,87.419 231.205,88.624 232.692,88.624 C234.179,88.624 235.385,87.419 235.385,85.932 L235.385,78.692 L232.692,81.385 L239.816,81.385 C241.303,81.385 242.509,80.179 242.509,78.692 C242.509,77.205 241.303,76 239.816,76 Z" />
            <path d="M239.867,119.077 L232.692,119.077 L235.385,121.769 L235.385,114.611 C235.385,113.124 234.179,111.919 232.692,111.919 C231.205,111.919 230,113.124 230,114.611 L230,121.769 C230,123.256 231.205,124.462 232.692,124.462 L239.867,124.462 C241.353,124.462 242.559,123.256 242.559,121.769 C242.559,120.282 241.353,119.077 239.867,119.077 Z" />
            <path d="M268.594,81.385 L275.769,81.385 L273.077,78.692 L273.077,85.899 C273.077,87.386 274.282,88.591 275.769,88.591 C277.256,88.591 278.462,87.386 278.462,85.899 L278.462,78.692 C278.462,77.205 277.256,76 275.769,76 L268.594,76 C267.107,76 265.902,77.205 265.902,78.692 C265.902,80.179 267.107,81.385 268.594,81.385 Z" />
            <path d="M250.692,81.385 L257.835,81.385 C259.322,81.385 260.528,80.179 260.528,78.692 C260.528,77.205 259.322,76 257.835,76 L250.692,76 C249.205,76 248,77.205 248,78.692 C248,80.179 249.205,81.385 250.692,81.385 Z" />
            <path d="M230,96.641 C230,102.6 230,102.6 230,103.821 C230,105.307 231.205,106.513 232.692,106.513 C234.179,106.513 235.385,105.307 235.385,103.821 C235.385,102.6 235.385,102.6 235.385,96.641 C235.385,95.154 234.179,93.949 232.692,93.949 C231.205,93.949 230,95.154 230,96.641 Z" />
            <path d="M273.077,96.641 C273.077,99.794 273.077,99.794 273.077,101.145 C273.077,101.342 273.077,101.342 273.077,101.426 C273.077,101.439 273.077,101.439 273.077,101.444 C273.077,101.445 273.077,101.445 273.077,101.445 L273.077,101.445 C278.462,101.445 278.462,101.445 278.462,101.445 C278.462,101.443 278.462,101.443 278.462,101.44 C278.462,101.419 278.462,101.419 278.462,101.37 C278.462,101.032 278.462,101.032 278.462,100.244 C278.462,98.757 277.256,97.552 275.769,97.552 C274.282,97.552 273.077,98.757 273.077,100.244 C273.077,101.032 273.077,101.032 273.077,101.37 C273.077,101.419 273.077,101.419 273.077,101.44 C273.077,101.443 273.077,101.443 273.077,101.445 C273.077,101.445 273.077,101.445 273.077,101.445 L278.462,101.445 C278.462,101.445 278.462,101.445 278.462,101.444 C278.462,101.439 278.462,101.439 278.462,101.426 C278.462,101.342 278.462,101.342 278.462,101.145 C278.462,99.794 278.462,99.794 278.462,96.641 C278.462,95.154 277.256,93.949 275.769,93.949 C274.282,93.949 273.077,95.154 273.077,96.641 Z" />
            <path d="M250.627,124.462 L254.23,124.462 C255.717,124.462 256.922,123.256 256.922,121.769 C256.922,120.282 255.717,119.077 254.23,119.077 L250.627,119.077 C249.14,119.077 247.935,120.282 247.935,121.769 C247.935,123.256 249.14,124.462 250.627,124.462 Z" />
        </g>
        <g id="Regular-S">
            <path d="M495.513,97.538 L456.026,97.538 C453.547,97.538 451.538,99.547 451.538,102.026 L451.538,141.513 C451.538,143.991 453.547,146 456.026,146 L495.513,146 C497.991,146 500,143.991 500,141.513 L500,102.026 C500,99.547 497.991,97.538 495.513,97.538 Z M495.513,102.923 C495.017,102.923 494.615,102.521 494.615,102.026 L494.615,141.513 C494.615,141.017 495.017,140.615 495.513,140.615 L456.026,140.615 C456.521,140.615 456.923,141.017 456.923,141.513 L456.923,102.026 C456.923,102.521 456.521,102.923 456.026,102.923 L495.513,102.923 Z" />
            <path d="M439.816,76 L432.692,76 C431.205,76 430,77.205 430,78.692 L430,85.932 C430,87.419 431.205,88.624 432.692,88.624 C434.179,88.624 435.385,87.419 435.385,85.932 L435.385,78.692 L432.692,81.385 L439.816,81.385 C441.303,81.385 442.509,80.179 442.509,78.692 C442.509,77.205 441.303,76 439.816,76 Z" />
            <path d="M439.866,119.077 L432.692,119.077 L435.385,121.769 L435.385,114.611 C435.385,113.124 434.179,111.919 432.692,111.919 C431.205,111.919 430,113.124 430,114.611 L430,121.769 C430,123.256 431.205,124.462 432.692,124.462 L439.866,124.462 C441.353,124.462 442.559,123.256 442.559,121.769 C442.559,120.282 441.353,119.077 439.866,119.077 Z" />
            <path d="M468.594,81.385 L475.769,81.385 L473.077,78.692 L473.077,85.899 C473.077,87.386 474.282,88.591 475.769,88.591 C477.256,88.591 478.462,87.386 478.462,85.899 L478.462,78.692 C478.462,77.205 477.256,76 475.769,76 L468.594,76 C467.107,76 465.902,77.205 465.902,78.692 C465.902,80.179 467.107,81.385 468.594,81.385 Z" />
            <path d="M450.692,81.385 L457.835,81.385 C459.322,81.385 460.528,80.179 460.528,78.692 C460.528,77.205 459.322,76 457.835,76 L450.692,76 C449.205,76 448,77.205 448,78.692 C448,80.179 449.205,81.385 450.692,81.385 Z" />
            <path d="M430,96.641 C430,102.6 430,102.6 430,103.821 C430,105.307 431.205,106.513 432.692,106.513 C434.179,106.513 435.385,105.307 435.385,103.821 C435.385,102.6 435.385,102.6 435.385,96.641 C435.385,95.154 434.179,93.949 432.692,93.949 C431.205,93.949 430,95.154 430,96.641 Z" />
            <path d="M473.077,96.641 C473.077,99.794 473.077,99.794 473.077,101.145 C473.077,101.342 473.077,101.342 473.077,101.426 C473.077,101.439 473.077,101.439 473.077,101.444 C473.077,101.445 473.077,101.445 473.077,101.445 L473.077,101.445 C478.462,101.445 478.462,101.445 478.462,101.445 C478.462,101.443 478.462,101.443 478.462,101.44 C478.462,101.419 478.462,101.419 478.462,101.37 C478.462,101.032 478.462,101.032 478.462,100.244 C478.462,98.757 477.256,97.552 475.769,97.552 C474.282,97.552 473.077,98.757 473.077,100.244 C473.077,101.032 473.077,101.032 473.077,101.37 C473.077,101.419 473.077,101.419 473.077,101.44 C473.077,101.443 473.077,101.443 473.077,101.445 C473.077,101.445 473.077,101.445 473.077,101.445 L478.462,101.445 C478.462,101.445 478.462,101.445 478.462,101.444 C478.462,101.439 478.462,101.439 478.462,101.426 C478.462,101.342 478.462,101.342 478.462,101.145 C478.462,99.794 478.462,99.794 478.462,96.641 C478.462,95.154 477.256,93.949 475.769,93.949 C474.282,93.949 473.077,95.154 473.077,96.641 Z" />
            <path d="M450.627,124.462 L454.23,124.462 C455.717,124.462 456.922,123.256 456.922,121.769 C456.922,120.282 455.717,119.077 454.23,119.077 L450.627,119.077 C449.14,119.077 447.935,120.282 447.935,121.769 C447.935,123.256 449.14,124.462 450.627,124.462 Z" />
        </g>
        <g id="Black-S">
            <path d="M695.513,97.538 L656.026,97.538 C653.547,97.538 651.538,99.547 651.538,102.026 L651.538,141.513 C651.538,143.991 653.547,146 656.026,146 L695.513,146 C697.991,146 700,143.991 700,141.513 L700,102.026 C700,99.547 697.991,97.538 695.513,97.538 Z M695.513,102.923 C695.017,102.923 694.615,102.521 694.615,102.026 L694.615,141.513 C694.615,141.017 695.017,140.615 695.513,140.615 L656.026,140.615 C656.521,140.615 656.923,141.017 656.923,141.513 L656.923,102.026 C656.923,102.521 656.521,102.923 656.026,102.923 L695.513,102.923 Z" />
            <path d="M639.816,76 L632.692,76 C631.205,76 630,77.205 630,78.692 L630,85.932 C630,87.419 631.205,88.624 632.692,88.624 C634.179,88.624 635.385,87.419 635.385,85.932 L635.385,78.692 L632.692,81.385 L639.816,81.385 C641.303,81.385 642.509,80.179 642.509,78.692 C642.509,77.205 641.303,76 639.816,76 Z" />
            <path d="M639.867,119.077 L632.692,119.077 L635.385,121.769 L635.385,114.611 C635.385,113.124 634.179,111.919 632.692,111.919 C631.205,111.919 630,113.124 630,114.611 L630,121.769 C630,123.256 631.205,124.462 632.692,124.462 L639.867,124.462 C641.353,124.462 642.559,123.256 642.559,121.769 C642.559,120.282 641.353,119.077 639.867,119.077 Z" />
            <path d="M668.594,81.385 L675.769,81.385 L673.077,78.692 L673.077,85.899 C673.077,87.386 674.282,88.591 675.769,88.591 C677.256,88.591 678.462,87.386 678.462,85.899 L678.462,78.692 C678.462,77.205 677.256,76 675.769,76 L668.594,76 C667.107,76 665.902,77.205 665.902,78.692 C665.902,80.179 667.107,81.385 668.594,81.385 Z" />
            <path d="M650.692,81.385 L657.835,81.385 C659.322,81.385 660.528,80.179 660.528,78.692 C660.528,77.205 659.322,76 657.835,76 L650.692,76 C649.205,76 648,77.205 648,78.692 C648,80.179 649.205,81.385 650.692,81.385 Z" />
            <path d="M630,96.641 C630,102.6 630,102.6 630,103.821 C630,105.307 631.205,106.513 632.692,106.513 C634.179,106.513 635.385,105.307 635.385,103.821 C635.385,102.6 635.385,102.6 635.385,96.641 C635.385,95.154 634.179,93.949 632.692,93.949 C631.205,93.949 630,95.154 630,96.641 Z" />
            <path d="M673.077,96.641 C673.077,99.794 673.077,99.794 673.077,101.145 C673.077,101.342 673.077,101.342 673.077,101.426 C673.077,101.439 673.077,101.439 673.077,101.444 C673.077,101.445 673.077,101.445 673.077,101.445 L673.077,101.445 C678.462,101.445 678.462,101.445 678.462,101.445 C678.462,101.443 678.462,101.443 678.462,101.44 C678.462,101.419 678.462,101.419 678.462,101.37 C678.462,101.032 678.462,101.032 678.462,100.244 C678.462,98.757 677.256,97.552 675.769,97.552 C674.282,97.552 673.077,98.757 673.077,100.244 C673.077,101.032 673.077,101.032 673.077,101.37 C673.077,101.419 673.077,101.419 673.077,101.44 C673.077,101.443 673.077,101.443 673.077,101.445 C673.077,101.445 673.077,101.445 673.077,101.445 L678.462,101.445 C678.462,101.445 678.462,101.445 678.462,101.444 C678.462,101.439 678.462,101.439 678.462,101.426 C678.462,101.342 678.462,101.342 678.462,101.145 C678.462,99.794 678.462,99.794 678.462,96.641 C678.462,95.154 677.256,93.949 675.769,93.949 C674.282,93.949 673.077,95.154 673.077,96.641 Z" />
            <path d="M650.627,124.462 L654.23,124.462 C655.717,124.462 656.922,123.256 656.922,121.769 C656.922,120.282 655.717,119.077 654.23,119.077 L650.627,119.077 C649.14,119.077 647.935,120.282 647.935,121.769 C647.935,123.256 649.14,124.462 650.627,124.462 Z" />
        </g>
    </g>
</svg>