<?xml version="1.0" encoding="UTF-8"?>
<svg height="600" width="800" xmlns="http://www.w3.org/2000/svg" xmlns:xlink="http://www.w3.org/1999/xlink">
    <g id="Notes" font-family="'LucidaGrande', 'Lucida Grande', sans-serif" font-size="13">
        <rect fill="white" height="600.0" width="800.0" x="0.0" y="0.0" />
        <g font-size="13">
            <text x="18.0" y="176.0">Small</text>
            <text x="18.0" y="376.0">Medium</text>
            <text x="18.0" y="576.0">Large</text>
        </g>
        <g font-size="9">
            <text x="250.0" y="30.0">Ultralight</text>
            <text x="450.0" y="30.0">Regular</text>
            <text x="650.0" y="30.0">Black</text>
            <text id="template-version" fill="#505050" text-anchor="end" x="785.0" y="575.0">Template v.3.0</text>
            <a href="https://github.com/swhitty/SwiftDraw">
                <text fill="#505050" text-anchor="end" x="785.0" y="590.0">https://github.com/swhitty/SwiftDraw</text>
            </a>
        </g>
    </g>
    <g id="Guides" stroke="rgb(39, 170, 225)" stroke-width="0.5">
        <path id="Capline-S" d="M18,76 l800,0" />
        <path id="H-reference" d="M85,145.755 L87.685,145.755 L113.369,79.287 L114.052,79.287 L114.052,76 L112.148,76 L85,145.755 Z M95.693,121.536 L130.996,121.536 L130.263,119.313 L96.474,119.313 L95.693,121.536 Z M139.15,145.755 L141.787,145.755 L114.638,76 L113.466,76 L113.466,79.287 L139.15,145.755 Z" stroke="none" />
        <path id="Baseline-S" d="M18,146 l800,0" />
        <path id="left-margin-Ultralight-S" d="M221,56 l0,110" />
        <path id="right-margin-Ultralight-S" d="M309,56 l0,110" />
        <path id="left-margin-Regular-S" d="M421,56 l0,110" />
        <path id="right-margin-Regular-S" d="M509,56 l0,110" />
        <path id="left-margin-Black-S" d="M621,56 l0,110" />
        <path id="right-margin-Black-S" d="M709,56 l0,110" />
        <path id="Capline-M" d="M18,276 l800,0" />
        <path id="Baseline-M" d="M18,346 l800,0" />
        <path id="Capline-L" d="M18,476 l800,0" />
        <path id="Baseline-L" d="M18,546 l800,0" />
    </g>
    <g id="Symbols">
        <g id="Ultralight-S">
            <path d="M261.052,93.705 C261.033,93.687 260.954,92.994 260.954,89.757 C260.954,87.655 261.953,85.424 263.669,83.25 C264.299,82.452 264.978,81.723 265.655,81.083 C266.053,80.707 266.351,80.453 266.497,80.339 L263.246,80.107 C263.348,80.213 263.565,80.459 263.857,80.828 C264.361,81.462 264.867,82.186 265.339,82.983 C266.652,85.202 267.428,87.511 267.428,89.757 C267.428,92.766 267.324,93.71 267.33,93.705 C266.381,94.653 266.381,96.191 267.33,97.139 C268.278,98.087 269.815,98.087 270.763,97.139 C272.173,95.729 272.283,94.716 272.283,89.757 C272.283,86.529 271.238,83.416 269.517,80.509 C268.501,78.794 267.479,77.507 266.754,76.749 C265.891,75.848 264.485,75.747 263.503,76.517 C262.554,77.26 261.207,78.533 259.857,80.242 C257.527,83.194 256.098,86.384 256.098,89.757 C256.098,94.855 256.197,95.717 257.619,97.139 C258.567,98.087 260.104,98.087 261.052,97.139 C262,96.191 262,94.653 261.052,93.705 Z" />
            <path d="M255.913,98.538 C253.915,93.723 249.048,87.372 245.44,84.596 L244.407,88.907 C250.886,87.692 257.152,90.876 261.509,96.158 C262.362,97.192 263.892,97.339 264.926,96.486 C265.961,95.633 266.107,94.103 265.254,93.068 C259.88,86.552 251.993,82.544 243.512,84.134 C241.45,84.521 240.816,87.165 242.479,88.445 C245.414,90.702 249.756,96.368 251.428,100.399 C251.942,101.637 253.363,102.225 254.601,101.711 C255.839,101.197 256.427,99.777 255.913,98.538 Z" />
            <path d="M276.849,99.001 C278.78,95.413 282.915,90.742 285.902,88.445 C287.565,87.165 286.932,84.521 284.869,84.134 C276.054,82.481 268.241,86.487 263.083,93.123 C262.26,94.182 262.452,95.707 263.51,96.53 C264.569,97.352 266.094,97.161 266.917,96.103 C271.058,90.774 277.185,87.633 283.974,88.906 L282.942,84.596 C279.436,87.292 274.846,92.477 272.573,96.699 C271.938,97.88 272.38,99.352 273.56,99.987 C274.741,100.623 276.213,100.181 276.849,99.001 Z" />
            <path d="M251.617,98.256 C250.662,99.101 249.695,100.011 248.718,100.989 C242.658,107.048 240.226,116.835 239.919,127.366 C239.836,130.21 239.997,131.965 240.76,133.835 C241.896,136.62 244.025,139.372 247.36,141.873 C254.696,147.376 275.305,147.376 282.642,141.873 C285.964,139.381 288.09,136.64 289.229,133.865 C290.003,131.98 290.165,130.209 290.081,127.337 C289.77,116.813 287.336,107.04 281.284,100.989 C280.305,100.01 279.338,99.099 278.384,98.255 C270.573,91.346 259.429,91.346 251.618,98.255 Z M254.835,101.892 C260.809,96.608 269.193,96.608 275.167,101.892 C276.046,102.67 276.941,103.513 277.851,104.422 C282.766,109.337 284.951,118.11 285.227,127.48 C285.293,129.713 285.18,130.941 284.737,132.021 C283.931,133.984 282.352,136.021 279.729,137.988 C274.118,142.197 255.883,142.197 250.273,137.988 C247.64,136.014 246.059,133.969 245.255,132 C244.819,130.931 244.708,129.716 244.772,127.507 C245.045,118.13 247.229,109.343 252.151,104.422 C253.059,103.514 253.954,102.671 254.835,101.892 Z" />
            <path d="M276.821,98.936 L242.833,116.74 C241.645,117.362 241.187,118.829 241.809,120.017 C242.431,121.204 243.898,121.663 245.086,121.041 L279.074,103.237 C280.262,102.615 280.721,101.148 280.099,99.96 C279.476,98.772 278.009,98.314 276.821,98.936 Z" />
            <path d="M250.925,103.237 L284.914,121.041 C286.102,121.663 287.569,121.204 288.191,120.017 C288.813,118.829 288.355,117.362 287.167,116.74 L253.178,98.936 C251.991,98.314 250.524,98.772 249.901,99.96 C249.279,101.148 249.738,102.615 250.925,103.237 Z" />
            <path d="M284.027,136.215 L245.183,113.556 C244.025,112.881 242.538,113.272 241.862,114.43 C241.187,115.588 241.578,117.075 242.736,117.75 L281.58,140.409 C282.738,141.085 284.225,140.694 284.9,139.535 C285.576,138.377 285.185,136.891 284.027,136.215 Z" />
            <path d="M284.817,113.556 L245.973,136.215 C244.815,136.891 244.424,138.377 245.099,139.535 C245.775,140.694 247.262,141.085 248.42,140.409 L287.264,117.75 C288.422,117.075 288.813,115.588 288.137,114.43 C287.462,113.272 285.975,112.881 284.817,113.556 Z" />
        </g>
        <g id="Regular-S">
            <path d="M461.052,93.705 C461.033,93.687 460.954,92.994 460.954,89.757 C460.954,87.655 461.953,85.424 463.669,83.25 C464.299,82.452 464.978,81.723 465.655,81.083 C466.053,80.707 466.351,80.453 466.497,80.339 L463.246,80.107 C463.348,80.213 463.565,80.459 463.857,80.828 C464.361,81.462 464.867,82.186 465.339,82.983 C466.652,85.202 467.428,87.511 467.428,89.757 C467.428,92.766 467.324,93.71 467.33,93.705 C466.381,94.653 466.381,96.191 467.33,97.139 C468.278,98.087 469.815,98.087 470.763,97.139 C472.173,95.729 472.283,94.716 472.283,89.757 C472.283,86.529 471.238,83.416 469.517,80.509 C468.501,78.794 467.479,77.507 466.754,76.749 C465.891,75.848 464.485,75.747 463.503,76.517 C462.554,77.26 461.207,78.533 459.857,80.242 C457.527,83.194 456.098,86.384 456.098,89.757 C456.098,94.855 456.197,95.717 457.619,97.139 C458.567,98.087 460.104,98.087 461.052,97.139 C462,96.191 462,94.653 461.052,93.705 Z" />
            <path d="M455.913,98.538 C453.915,93.723 449.048,87.372 445.44,84.596 L444.407,88.907 C450.886,87.692 457.152,90.876 461.509,96.158 C462.362,97.192 463.892,97.339 464.926,96.486 C465.961,95.633 466.107,94.103 465.254,93.068 C459.88,86.552 451.993,82.544 443.512,84.134 C441.45,84.521 440.816,87.165 442.479,88.445 C445.414,90.702 449.756,96.368 451.428,100.399 C451.942,101.637 453.363,102.225 454.601,101.711 C455.839,101.197 456.427,99.777 455.913,98.538 Z" />
            <path d="M476.849,99.001 C478.78,95.413 482.915,90.742 485.902,88.445 C487.565,87.165 486.932,84.521 484.869,84.134 C476.054,82.481 468.241,86.487 463.083,93.123 C462.26,94.182 462.452,95.707 463.51,96.53 C464.569,97.352 466.094,97.161 466.917,96.103 C471.058,90.774 477.185,87.633 483.974,88.906 L482.942,84.596 C479.436,87.292 474.846,92.477 472.573,96.699 C471.938,97.88 472.38,99.352 473.56,99.987 C474.741,100.623 476.213,100.181 476.849,99.001 Z" />
            <path d="M451.617,98.256 C450.662,99.101 449.695,100.011 448.718,100.989 C442.658,107.048 440.226,116.835 439.919,127.366 C439.836,130.21 439.997,131.965 440.76,133.835 C441.896,136.62 444.025,139.372 447.36,141.873 C454.696,147.376 475.305,147.376 482.642,141.873 C485.964,139.381 488.09,136.64 489.229,133.865 C490.003,131.98 490.165,130.209 490.081,127.337 C489.77,116.813 487.336,107.04 481.284,100.989 C480.305,100.01 479.338,99.099 478.384,98.255 C470.573,91.346 459.429,91.346 451.618,98.255 Z M454.835,101.892 C460.809,96.608 469.193,96.608 475.167,101.892 C476.046,102.67 476.941,103.513 477.851,104.422 C482.766,109.337 484.951,118.11 485.227,127.48 C485.293,129.713 485.18,130.941 484.737,132.021 C483.931,133.984 482.352,136.021 479.729,137.988 C474.118,142.197 455.883,142.197 450.273,137.988 C447.64,136.014 446.059,133.969 445.255,132 C444.819,130.931 444.708,129.716 444.772,127.507 C445.045,118.13 447.229,109.343 452.151,104.422 C453.059,103.514 453.954,102.671 454.835,101.892 Z" />
            <path d="M476.821,98.936 L442.833,116.74 C441.645,117.362 441.187,118.829 441.809,120.017 C442.431,121.204 443.898,121.663 445.086,121.041 L479.074,103.237 C480.262,102.615 480.721,101.148 480.099,99.96 C479.476,98.772 478.009,98.314 476.821,98.936 Z" />
            <path d="M450.925,103.237 L484.914,121.041 C486.102,121.663 487.569,121.204 488.191,120.017 C488.813,118.829 488.355,117.362 487.167,116.74 L453.178,98.936 C451.991,98.314 450.524,98.772 449.901,99.96 C449.279,101.148 449.738,102.615 450.925,103.237 Z" />
            <path d="M484.027,136.215 L445.183,113.556 C444.025,112.881 442.538,113.272 441.862,114.43 C441.187,115.588 441.578,117.075 442.736,117.75 L481.58,140.409 C482.738,141.085 484.225,140.694 484.9,139.535 C485.576,138.377 485.185,136.891 484.027,136.215 Z" />
            <path d="M484.817,113.556 L445.973,136.215 C444.815,136.891 444.424,138.377 445.099,139.535 C445.775,140.694 447.262,141.085 448.42,140.409 L487.264,117.75 C488.422,117.075 488.813,115.588 488.137,114.43 C487.462,113.272 485.975,112.881 484.817,113.556 Z" />
        </g>
        <g id="Black-S">
            <path d="M661.052,93.705 C661.033,93.687 660.954,92.994 660.954,89.757 C660.954,87.655 661.953,85.424 663.668,83.25 C664.299,82.452 664.978,81.723 665.655,81.083 C666.053,80.707 666.351,80.453 666.497,80.339 L663.246,80.107 C663.348,80.213 663.565,80.459 663.857,80.828 C664.361,81.462 664.867,82.186 665.339,82.983 C666.652,85.202 667.428,87.511 667.428,89.757 C667.428,92.766 667.324,93.71 667.329,93.705 C666.381,94.653 666.381,96.191 667.329,97.139 C668.278,98.087 669.815,98.087 670.763,97.139 C672.172,95.729 672.283,94.716 672.283,89.757 C672.283,86.529 671.238,83.416 669.517,80.509 C668.501,78.794 667.479,77.507 666.754,76.749 C665.891,75.848 664.485,75.747 663.503,76.517 C662.554,77.26 661.207,78.533 659.857,80.242 C657.527,83.194 656.098,86.384 656.098,89.757 C656.098,94.855 656.197,95.717 657.619,97.139 C658.567,98.087 660.104,98.087 661.052,97.139 C662,96.191 662,94.653 661.052,93.705 Z" />
            <path d="M655.913,98.538 C653.915,93.723 649.048,87.372 645.44,84.596 L644.407,88.907 C650.886,87.692 657.152,90.876 661.509,96.158 C662.362,97.192 663.892,97.339 664.926,96.486 C665.961,95.633 666.107,94.103 665.254,93.068 C659.88,86.552 651.993,82.544 643.512,84.134 C641.45,84.521 640.816,87.165 642.479,88.445 C645.414,90.702 649.755,96.368 651.428,100.399 C651.942,101.637 653.362,102.225 654.601,101.711 C655.839,101.197 656.427,99.777 655.913,98.538 Z" />
            <path d="M676.849,99.001 C678.78,95.413 682.915,90.742 685.902,88.445 C687.565,87.165 686.932,84.521 684.869,84.134 C676.054,82.481 668.241,86.487 663.083,93.123 C662.26,94.182 662.451,95.707 663.51,96.53 C664.569,97.352 666.094,97.161 666.917,96.103 C671.058,90.774 677.185,87.633 683.974,88.906 L682.942,84.596 C679.436,87.292 674.846,92.477 672.573,96.699 C671.938,97.88 672.38,99.352 673.56,99.987 C674.741,100.623 676.213,100.181 676.849,99.001 Z" />
            <path d="M651.617,98.256 C650.662,99.101 649.695,100.011 648.718,100.989 C642.658,107.048 640.225,116.835 639.919,127.366 C639.836,130.21 639.997,131.965 640.76,133.835 C641.896,136.62 644.025,139.372 647.36,141.873 C654.696,147.376 675.305,147.376 682.642,141.873 C685.964,139.381 688.09,136.64 689.229,133.865 C690.003,131.98 690.165,130.209 690.081,127.337 C689.77,116.813 687.336,107.04 681.284,100.989 C680.305,100.01 679.338,99.099 678.384,98.255 C670.573,91.346 659.429,91.346 651.618,98.255 Z M654.834,101.892 C660.809,96.608 669.193,96.608 675.167,101.892 C676.046,102.67 676.941,103.513 677.851,104.422 C682.766,109.337 684.951,118.11 685.227,127.48 C685.293,129.713 685.18,130.941 684.737,132.021 C683.931,133.984 682.352,136.021 679.729,137.988 C674.118,142.197 655.883,142.197 650.273,137.988 C647.64,136.014 646.059,133.969 645.255,132 C644.819,130.931 644.708,129.716 644.772,127.507 C645.045,118.13 647.229,109.343 652.151,104.422 C653.059,103.514 653.954,102.671 654.835,101.892 Z" />
            <path d="M676.821,98.936 L642.833,116.74 C641.645,117.362 641.187,118.829 641.809,120.017 C642.431,121.204 643.898,121.663 645.086,121.041 L679.074,103.237 C680.262,102.615 680.721,101.148 680.098,99.96 C679.476,98.772 678.009,98.314 676.821,98.936 Z" />
            <path d="M650.925,103.237 L684.914,121.041 C686.102,121.663 687.569,121.204 688.191,120.017 C688.813,118.829 688.355,117.362 687.167,116.74 L653.178,98.936 C651.991,98.314 650.523,98.772 649.901,99.96 C649.279,101.148 649.738,102.615 650.925,103.237 Z" />
            <path d="M684.027,136.215 L645.183,113.556 C644.025,112.881 642.538,113.272 641.862,114.43 C641.187,115.588 641.578,117.075 642.736,117.75 L681.58,140.409 C682.738,141.085 684.225,140.694 684.9,139.535 C685.576,138.377 685.185,136.891 684.027,136.215 Z" />
            <path d="M684.817,113.556 L645.973,136.215 C644.815,136.891 644.424,138.377 645.099,139.535 C645.775,140.694 647.262,141.085 648.42,140.409 L687.264,117.75 C688.422,117.075 688.813,115.588 688.137,114.43 C687.462,113.272 685.975,112.881 684.817,113.556 Z" />
        </g>
    </g>
</svg>