<?xml version="1.0" encoding="UTF-8"?>
<svg height="600" width="800" xmlns="http://www.w3.org/2000/svg" xmlns:xlink="http://www.w3.org/1999/xlink">
    <g id="Notes" font-family="'LucidaGrande', 'Lucida Grande', sans-serif" font-size="13">
        <rect fill="white" height="600.0" width="800.0" x="0.0" y="0.0" />
        <g font-size="13">
            <text x="18.0" y="176.0">Small</text>
            <text x="18.0" y="376.0">Medium</text>
            <text x="18.0" y="576.0">Large</text>
        </g>
        <g font-size="9">
            <text x="250.0" y="30.0">Ultralight</text>
            <text x="450.0" y="30.0">Regular</text>
            <text x="650.0" y="30.0">Black</text>
            <text id="template-version" fill="#505050" text-anchor="end" x="785.0" y="575.0">Template v.3.0</text>
            <a href="https://github.com/swhitty/SwiftDraw">
                <text fill="#505050" text-anchor="end" x="785.0" y="590.0">https://github.com/swhitty/SwiftDraw</text>
            </a>
        </g>
    </g>
    <g id="Guides" stroke="rgb(39, 170, 225)" stroke-width="0.5">
        <path id="Capline-S" d="M18,76 l800,0" />
        <path id="H-reference" d="M85,145.755 L87.685,145.755 L113.369,79.287 L114.052,79.287 L114.052,76 L112.148,76 L85,145.755 Z M95.693,121.536 L130.996,121.536 L130.263,119.313 L96.474,119.313 L95.693,121.536 Z M139.15,145.755 L141.787,145.755 L114.638,76 L113.466,76 L113.466,79.287 L139.15,145.755 Z" stroke="none" />
        <path id="Baseline-S" d="M18,146 l800,0" />
        <path id="left-margin-Ultralight-S" d="M220,56 l0,110" />
        <path id="right-margin-Ultralight-S" d="M310,56 l0,110" />
        <path id="left-margin-Regular-S" d="M420,56 l0,110" />
        <path id="right-margin-Regular-S" d="M510,56 l0,110" />
        <path id="left-margin-Black-S" d="M620,56 l0,110" />
        <path id="right-margin-Black-S" d="M710,56 l0,110" />
        <path id="Capline-M" d="M18,276 l800,0" />
        <path id="Baseline-M" d="M18,346 l800,0" />
        <path id="Capline-L" d="M18,476 l800,0" />
        <path id="Baseline-L" d="M18,546 l800,0" />
    </g>
    <g id="Symbols">
        <g id="Ultralight-S">
            <path d="M294.615,111 L294.615,137.923 C294.615,138.637 294.332,139.322 293.827,139.827 C293.322,140.332 292.637,140.615 291.923,140.615 L238.077,140.615 C237.363,140.615 236.678,140.332 236.173,139.827 C235.668,139.322 235.385,138.637 235.385,137.923 L235.385,84.077 C235.385,83.363 235.668,82.678 236.173,82.173 C236.678,81.668 237.363,81.385 238.077,81.385 L291.923,81.385 C292.637,81.385 293.322,81.668 293.827,82.173 C294.332,82.678 294.615,83.363 294.615,84.077 L294.615,111 Z M300,111 L300,84.077 C300,81.935 299.149,79.88 297.634,78.366 C296.12,76.851 294.065,76 291.923,76 L238.077,76 C235.935,76 233.88,76.851 232.366,78.366 C230.851,79.88 230,81.935 230,84.077 L230,137.923 C230,140.065 230.851,142.12 232.366,143.634 C233.88,145.149 235.935,146 238.077,146 L291.923,146 C294.065,146 296.12,145.149 297.634,143.634 C299.149,142.12 300,140.065 300,137.923 L300,111 Z" />
            <path d="M247.949,78.692 L247.949,143.308 C247.949,144.795 249.154,146 250.641,146 C252.128,146 253.333,144.795 253.333,143.308 L253.333,78.692 C253.333,77.205 252.128,76 250.641,76 C249.154,76 247.949,77.205 247.949,78.692 Z" />
            <path d="M245.256,146 L256.026,146 C257.513,146 258.718,144.795 258.718,143.308 C258.718,141.821 257.513,140.615 256.026,140.615 L245.256,140.615 C243.77,140.615 242.564,141.821 242.564,143.308 C242.564,144.795 243.77,146 245.256,146 Z" />
            <path d="M245.256,81.385 L256.026,81.385 C257.513,81.385 258.718,80.179 258.718,78.692 C258.718,77.205 257.513,76 256.026,76 L245.256,76 C243.77,76 242.564,77.205 242.564,78.692 C242.564,80.179 243.77,81.385 245.256,81.385 Z" />
        </g>
        <g id="Regular-S">
            <path d="M494.615,111 L494.615,137.923 C494.615,138.637 494.332,139.322 493.827,139.827 C493.322,140.332 492.637,140.615 491.923,140.615 L438.077,140.615 C437.363,140.615 436.678,140.332 436.173,139.827 C435.668,139.322 435.385,138.637 435.385,137.923 L435.385,84.077 C435.385,83.363 435.668,82.678 436.173,82.173 C436.678,81.668 437.363,81.385 438.077,81.385 L491.923,81.385 C492.637,81.385 493.322,81.668 493.827,82.173 C494.332,82.678 494.615,83.363 494.615,84.077 L494.615,111 Z M500,111 L500,84.077 C500,81.935 499.149,79.88 497.634,78.366 C496.12,76.851 494.065,76 491.923,76 L438.077,76 C435.935,76 433.88,76.851 432.366,78.366 C430.851,79.88 430,81.935 430,84.077 L430,137.923 C430,140.065 430.851,142.12 432.366,143.634 C433.88,145.149 435.935,146 438.077,146 L491.923,146 C494.065,146 496.12,145.149 497.634,143.634 C499.149,142.12 500,140.065 500,137.923 L500,111 Z" />
            <path d="M447.949,78.692 L447.949,143.308 C447.949,144.795 449.154,146 450.641,146 C452.128,146 453.333,144.795 453.333,143.308 L453.333,78.692 C453.333,77.205 452.128,76 450.641,76 C449.154,76 447.949,77.205 447.949,78.692 Z" />
            <path d="M445.256,146 L456.026,146 C457.513,146 458.718,144.795 458.718,143.308 C458.718,141.821 457.513,140.615 456.026,140.615 L445.256,140.615 C443.769,140.615 442.564,141.821 442.564,143.308 C442.564,144.795 443.769,146 445.256,146 Z" />
            <path d="M445.256,81.385 L456.026,81.385 C457.513,81.385 458.718,80.179 458.718,78.692 C458.718,77.205 457.513,76 456.026,76 L445.256,76 C443.769,76 442.564,77.205 442.564,78.692 C442.564,80.179 443.769,81.385 445.256,81.385 Z" />
        </g>
        <g id="Black-S">
            <path d="M694.615,111 L694.615,137.923 C694.615,138.637 694.332,139.322 693.827,139.827 C693.322,140.332 692.637,140.615 691.923,140.615 L638.077,140.615 C637.363,140.615 636.678,140.332 636.173,139.827 C635.668,139.322 635.385,138.637 635.385,137.923 L635.385,84.077 C635.385,83.363 635.668,82.678 636.173,82.173 C636.678,81.668 637.363,81.385 638.077,81.385 L691.923,81.385 C692.637,81.385 693.322,81.668 693.827,82.173 C694.332,82.678 694.615,83.363 694.615,84.077 L694.615,111 Z M700,111 L700,84.077 C700,81.935 699.149,79.88 697.634,78.366 C696.12,76.851 694.065,76 691.923,76 L638.077,76 C635.935,76 633.88,76.851 632.366,78.366 C630.851,79.88 630,81.935 630,84.077 L630,137.923 C630,140.065 630.851,142.12 632.366,143.634 C633.88,145.149 635.935,146 638.077,146 L691.923,146 C694.065,146 696.12,145.149 697.634,143.634 C699.149,142.12 700,140.065 700,137.923 L700,111 Z" />
            <path d="M647.949,78.692 L647.949,143.308 C647.949,144.795 649.154,146 650.641,146 C652.128,146 653.333,144.795 653.333,143.308 L653.333,78.692 C653.333,77.205 652.128,76 650.641,76 C649.154,76 647.949,77.205 647.949,78.692 Z" />
            <path d="M645.256,146 L656.026,146 C657.513,146 658.718,144.795 658.718,143.308 C658.718,141.821 657.513,140.615 656.026,140.615 L645.256,140.615 C643.77,140.615 642.564,141.821 642.564,143.308 C642.564,144.795 643.77,146 645.256,146 Z" />
            <path d="M645.256,81.385 L656.026,81.385 C657.513,81.385 658.718,80.179 658.718,78.692 C658.718,77.205 657.513,76 656.026,76 L645.256,76 C643.77,76 642.564,77.205 642.564,78.692 C642.564,80.179 643.77,81.385 645.256,81.385 Z" />
        </g>
    </g>
</svg>