<?xml version="1.0" encoding="UTF-8"?>
<svg height="600" width="800" xmlns="http://www.w3.org/2000/svg" xmlns:xlink="http://www.w3.org/1999/xlink">
    <g id="Notes" font-family="'LucidaGrande', 'Lucida Grande', sans-serif" font-size="13">
        <rect fill="white" height="600.0" width="800.0" x="0.0" y="0.0" />
        <g font-size="13">
            <text x="18.0" y="176.0">Small</text>
            <text x="18.0" y="376.0">Medium</text>
            <text x="18.0" y="576.0">Large</text>
        </g>
        <g font-size="9">
            <text x="250.0" y="30.0">Ultralight</text>
            <text x="450.0" y="30.0">Regular</text>
            <text x="650.0" y="30.0">Black</text>
            <text id="template-version" fill="#505050" text-anchor="end" x="785.0" y="575.0">Template v.3.0</text>
            <a href="https://github.com/swhitty/SwiftDraw">
                <text fill="#505050" text-anchor="end" x="785.0" y="590.0">https://github.com/swhitty/SwiftDraw</text>
            </a>
        </g>
    </g>
    <g id="Guides" stroke="rgb(39, 170, 225)" stroke-width="0.5">
        <path id="Capline-S" d="M18,76 l800,0" />
        <path id="H-reference" d="M85,145.755 L87.685,145.755 L113.369,79.287 L114.052,79.287 L114.052,76 L112.148,76 L85,145.755 Z M95.693,121.536 L130.996,121.536 L130.263,119.313 L96.474,119.313 L95.693,121.536 Z M139.15,145.755 L141.787,145.755 L114.638,76 L113.466,76 L113.466,79.287 L139.15,145.755 Z" stroke="none" />
        <path id="Baseline-S" d="M18,146 l800,0" />
        <path id="left-margin-Ultralight-S" d="M214.88,56 l0,110" />
        <path id="right-margin-Ultralight-S" d="M315.12,56 l0,110" />
        <path id="left-margin-Regular-S" d="M414.88,56 l0,110" />
        <path id="right-margin-Regular-S" d="M515.12,56 l0,110" />
        <path id="left-margin-Black-S" d="M614.88,56 l0,110" />
        <path id="right-margin-Black-S" d="M715.12,56 l0,110" />
        <path id="Capline-M" d="M18,276 l800,0" />
        <path id="Baseline-M" d="M18,346 l800,0" />
        <path id="Capline-L" d="M18,476 l800,0" />
        <path id="Baseline-L" d="M18,546 l800,0" />
    </g>
    <g id="Symbols">
        <g id="Ultralight-S">
            <path d="M278.607,119.4 L267.425,100.032 C266.652,98.693 264.939,98.234 263.6,99.007 C262.261,99.781 261.802,101.493 262.575,102.832 L273.757,122.2 C274.53,123.539 276.243,123.998 277.582,123.225 C278.921,122.452 279.38,120.739 278.607,119.4 Z M251.399,119.389 L238.333,141.789 C237.244,143.656 238.59,146 240.751,146 L289.249,146 C291.41,146 292.756,143.656 291.667,141.789 L278.601,119.389 C278.099,118.529 277.178,118 276.182,118 L253.818,118 C252.822,118 251.901,118.529 251.399,119.389 Z M256.237,122.211 L253.818,123.6 L276.182,123.6 L273.763,122.211 L286.83,144.611 L289.249,140.4 L240.751,140.4 L243.17,144.611 L256.237,122.211 Z M253.818,123.6 L302.315,123.6 C304.471,123.6 305.818,121.267 304.74,119.4 L280.491,77.4 C279.414,75.533 276.719,75.533 275.642,77.4 L262.575,100.032 L251.393,119.4 C250.315,121.267 251.663,123.6 253.818,123.6 Z M253.818,118 L256.243,122.2 L267.425,102.832 L280.491,80.2 L275.642,80.2 L299.89,122.2 L302.315,118 L253.818,118 Z M256.243,122.2 L267.425,102.832 L262.575,100.032 L251.393,119.4 L256.243,122.2 Z M251.393,119.4 C249.527,122.633 254.376,125.433 256.243,122.2 L267.425,102.832 C269.291,99.599 264.442,96.799 262.575,100.032 L251.393,119.4 Z M253.818,123.6 L276.182,123.6 L276.182,118 L253.818,118 L253.818,123.6 Z M253.818,118 C250.085,118 250.085,123.6 253.818,123.6 L276.182,123.6 C279.915,123.6 279.915,118 276.182,118 L253.818,118 Z M276.182,118 L227.685,118 L230.11,122.2 L254.358,80.2 L249.508,80.2 L262.575,102.832 L273.757,122.2 L276.182,118 Z M276.182,123.6 C278.337,123.6 279.685,121.267 278.607,119.4 L267.425,100.032 L254.358,77.4 C253.28,75.533 250.586,75.533 249.508,77.4 L225.26,119.4 C224.182,121.267 225.529,123.6 227.685,123.6 L276.182,123.6 Z" />
        </g>
        <g id="Regular-S">
            <path d="M478.607,119.4 L467.425,100.032 C466.652,98.693 464.939,98.234 463.6,99.007 C462.261,99.781 461.802,101.493 462.575,102.832 L473.757,122.2 C474.53,123.539 476.243,123.998 477.582,123.225 C478.921,122.452 479.38,120.739 478.607,119.4 Z M451.399,119.389 L438.333,141.789 C437.244,143.656 438.59,146 440.751,146 L489.249,146 C491.41,146 492.756,143.656 491.667,141.789 L478.601,119.389 C478.099,118.529 477.178,118 476.182,118 L453.818,118 C452.822,118 451.901,118.529 451.399,119.389 Z M456.237,122.211 L453.818,123.6 L476.182,123.6 L473.763,122.211 L486.83,144.611 L489.249,140.4 L440.751,140.4 L443.17,144.611 L456.237,122.211 Z M453.818,123.6 L502.315,123.6 C504.471,123.6 505.818,121.267 504.74,119.4 L480.491,77.4 C479.414,75.533 476.719,75.533 475.642,77.4 L462.575,100.032 L451.393,119.4 C450.315,121.267 451.663,123.6 453.818,123.6 Z M453.818,118 L456.243,122.2 L467.425,102.832 L480.491,80.2 L475.642,80.2 L499.89,122.2 L502.315,118 L453.818,118 Z M456.243,122.2 L467.425,102.832 L462.575,100.032 L451.393,119.4 L456.243,122.2 Z M451.393,119.4 C449.526,122.633 454.376,125.433 456.243,122.2 L467.425,102.832 C469.291,99.599 464.442,96.799 462.575,100.032 L451.393,119.4 Z M453.818,123.6 L476.182,123.6 L476.182,118 L453.818,118 L453.818,123.6 Z M453.818,118 C450.085,118 450.085,123.6 453.818,123.6 L476.182,123.6 C479.915,123.6 479.915,118 476.182,118 L453.818,118 Z M476.182,118 L427.685,118 L430.11,122.2 L454.358,80.2 L449.508,80.2 L462.575,102.832 L473.757,122.2 L476.182,118 Z M476.182,123.6 C478.337,123.6 479.685,121.267 478.607,119.4 L467.425,100.032 L454.358,77.4 C453.28,75.533 450.586,75.533 449.508,77.4 L425.26,119.4 C424.182,121.267 425.529,123.6 427.685,123.6 L476.182,123.6 Z" />
        </g>
        <g id="Black-S">
            <path d="M678.607,119.4 L667.425,100.032 C666.652,98.693 664.939,98.234 663.6,99.007 C662.261,99.781 661.802,101.493 662.575,102.832 L673.757,122.2 C674.53,123.539 676.243,123.998 677.582,123.225 C678.921,122.452 679.38,120.739 678.607,119.4 Z M651.399,119.389 L638.333,141.789 C637.244,143.656 638.59,146 640.751,146 L689.249,146 C691.41,146 692.756,143.656 691.667,141.789 L678.601,119.389 C678.099,118.529 677.178,118 676.182,118 L653.818,118 C652.822,118 651.901,118.529 651.399,119.389 Z M656.237,122.211 L653.818,123.6 L676.182,123.6 L673.763,122.211 L686.83,144.611 L689.249,140.4 L640.751,140.4 L643.17,144.611 L656.237,122.211 Z M653.818,123.6 L702.315,123.6 C704.471,123.6 705.818,121.267 704.74,119.4 L680.492,77.4 C679.414,75.533 676.719,75.533 675.642,77.4 L662.575,100.032 L651.393,119.4 C650.315,121.267 651.663,123.6 653.818,123.6 Z M653.818,118 L656.243,122.2 L667.425,102.832 L680.492,80.2 L675.642,80.2 L699.891,122.2 L702.315,118 L653.818,118 Z M656.243,122.2 L667.425,102.832 L662.575,100.032 L651.393,119.4 L656.243,122.2 Z M651.393,119.4 C649.527,122.633 654.376,125.433 656.243,122.2 L667.425,102.832 C669.292,99.599 664.442,96.799 662.575,100.032 L651.393,119.4 Z M653.818,123.6 L676.182,123.6 L676.182,118 L653.818,118 L653.818,123.6 Z M653.818,118 C650.085,118 650.085,123.6 653.818,123.6 L676.182,123.6 C679.915,123.6 679.915,118 676.182,118 L653.818,118 Z M676.182,118 L627.685,118 L630.11,122.2 L654.358,80.2 L649.508,80.2 L662.575,102.832 L673.757,122.2 L676.182,118 Z M676.182,123.6 C678.337,123.6 679.685,121.267 678.607,119.4 L667.425,100.032 L654.358,77.4 C653.28,75.533 650.586,75.533 649.508,77.4 L625.26,119.4 C624.182,121.267 625.529,123.6 627.685,123.6 L676.182,123.6 Z" />
        </g>
    </g>
</svg>