<?xml version="1.0" encoding="UTF-8"?>
<svg height="600" width="800" xmlns="http://www.w3.org/2000/svg" xmlns:xlink="http://www.w3.org/1999/xlink">
    <g id="Notes" font-family="'LucidaGrande', 'Lucida Grande', sans-serif" font-size="13">
        <rect fill="white" height="600.0" width="800.0" x="0.0" y="0.0" />
        <g font-size="13">
            <text x="18.0" y="176.0">Small</text>
            <text x="18.0" y="376.0">Medium</text>
            <text x="18.0" y="576.0">Large</text>
        </g>
        <g font-size="9">
            <text x="250.0" y="30.0">Ultralight</text>
            <text x="450.0" y="30.0">Regular</text>
            <text x="650.0" y="30.0">Black</text>
            <text id="template-version" fill="#505050" text-anchor="end" x="785.0" y="575.0">Template v.3.0</text>
            <a href="https://github.com/swhitty/SwiftDraw">
                <text fill="#505050" text-anchor="end" x="785.0" y="590.0">https://github.com/swhitty/SwiftDraw</text>
            </a>
        </g>
    </g>
    <g id="Guides" stroke="rgb(39, 170, 225)" stroke-width="0.5">
        <path id="Capline-S" d="M18,76 l800,0" />
        <path id="H-reference" d="M85,145.755 L87.685,145.755 L113.369,79.287 L114.052,79.287 L114.052,76 L112.148,76 L85,145.755 Z M95.693,121.536 L130.996,121.536 L130.263,119.313 L96.474,119.313 L95.693,121.536 Z M139.15,145.755 L141.787,145.755 L114.638,76 L113.466,76 L113.466,79.287 L139.15,145.755 Z" stroke="none" />
        <path id="Baseline-S" d="M18,146 l800,0" />
        <path id="left-margin-Ultralight-S" d="M212,56 l0,110" />
        <path id="right-margin-Ultralight-S" d="M318,56 l0,110" />
        <path id="left-margin-Regular-S" d="M412,56 l0,110" />
        <path id="right-margin-Regular-S" d="M518,56 l0,110" />
        <path id="left-margin-Black-S" d="M612,56 l0,110" />
        <path id="right-margin-Black-S" d="M718,56 l0,110" />
        <path id="Capline-M" d="M18,276 l800,0" />
        <path id="Baseline-M" d="M18,346 l800,0" />
        <path id="Capline-L" d="M18,476 l800,0" />
        <path id="Baseline-L" d="M18,546 l800,0" />
    </g>
    <g id="Symbols">
        <g id="Ultralight-S">
            <path d="M245,92 L283,92 C293.493,92 302,100.507 302,111 C302,121.493 293.493,130 283,130 L225,130 C223.343,130 222,131.343 222,133 C222,134.657 223.343,136 225,136 L283,136 C296.807,136 308,124.807 308,111 C308,97.193 296.807,86 283,86 L245,86 C243.343,86 242,87.343 242,89 C242,90.657 243.343,92 245,92 Z" />
            <path d="M237.121,140.879 L227.121,130.879 L227.121,135.121 L237.121,125.121 C238.293,123.95 238.293,122.05 237.121,120.879 C235.95,119.707 234.05,119.707 232.879,120.879 L222.879,130.879 C221.707,132.05 221.707,133.95 222.879,135.121 L232.879,145.121 C234.05,146.293 235.95,146.293 237.121,145.121 C238.293,143.95 238.293,142.05 237.121,140.879 Z" />
            <path d="M228,89 C228,85.134 231.134,82 235,82 C238.866,82 242,85.134 242,89 C242,92.866 238.866,96 235,96 C231.134,96 228,92.866 228,89 Z M222,89 C222,96.18 227.82,102 235,102 C242.18,102 248,96.18 248,89 C248,81.82 242.18,76 235,76 C227.82,76 222,81.82 222,89 Z" />
        </g>
        <g id="Regular-S">
            <path d="M445,92 L483,92 C493.493,92 502,100.507 502,111 C502,121.493 493.493,130 483,130 L425,130 C423.343,130 422,131.343 422,133 C422,134.657 423.343,136 425,136 L483,136 C496.807,136 508,124.807 508,111 C508,97.193 496.807,86 483,86 L445,86 C443.343,86 442,87.343 442,89 C442,90.657 443.343,92 445,92 Z" />
            <path d="M437.121,140.879 L427.121,130.879 L427.121,135.121 L437.121,125.121 C438.293,123.95 438.293,122.05 437.121,120.879 C435.95,119.707 434.05,119.707 432.879,120.879 L422.879,130.879 C421.707,132.05 421.707,133.95 422.879,135.121 L432.879,145.121 C434.05,146.293 435.95,146.293 437.121,145.121 C438.293,143.95 438.293,142.05 437.121,140.879 Z" />
            <path d="M428,89 C428,85.134 431.134,82 435,82 C438.866,82 442,85.134 442,89 C442,92.866 438.866,96 435,96 C431.134,96 428,92.866 428,89 Z M422,89 C422,96.18 427.82,102 435,102 C442.18,102 448,96.18 448,89 C448,81.82 442.18,76 435,76 C427.82,76 422,81.82 422,89 Z" />
        </g>
        <g id="Black-S">
            <path d="M645,92 L683,92 C693.493,92 702,100.507 702,111 C702,121.493 693.493,130 683,130 L625,130 C623.343,130 622,131.343 622,133 C622,134.657 623.343,136 625,136 L683,136 C696.807,136 708,124.807 708,111 C708,97.193 696.807,86 683,86 L645,86 C643.343,86 642,87.343 642,89 C642,90.657 643.343,92 645,92 Z" />
            <path d="M637.121,140.879 L627.121,130.879 L627.121,135.121 L637.121,125.121 C638.293,123.95 638.293,122.05 637.121,120.879 C635.95,119.707 634.05,119.707 632.879,120.879 L622.879,130.879 C621.707,132.05 621.707,133.95 622.879,135.121 L632.879,145.121 C634.05,146.293 635.95,146.293 637.121,145.121 C638.293,143.95 638.293,142.05 637.121,140.879 Z" />
            <path d="M628,89 C628,85.134 631.134,82 635,82 C638.866,82 642,85.134 642,89 C642,92.866 638.866,96 635,96 C631.134,96 628,92.866 628,89 Z M622,89 C622,96.18 627.82,102 635,102 C642.18,102 648,96.18 648,89 C648,81.82 642.18,76 635,76 C627.82,76 622,81.82 622,89 Z" />
        </g>
    </g>
</svg>