<?xml version="1.0" encoding="UTF-8"?>
<svg height="600" width="800" xmlns="http://www.w3.org/2000/svg" xmlns:xlink="http://www.w3.org/1999/xlink">
    <g id="Notes" font-family="'LucidaGrande', 'Lucida Grande', sans-serif" font-size="13">
        <rect fill="white" height="600.0" width="800.0" x="0.0" y="0.0" />
        <g font-size="13">
            <text x="18.0" y="176.0">Small</text>
            <text x="18.0" y="376.0">Medium</text>
            <text x="18.0" y="576.0">Large</text>
        </g>
        <g font-size="9">
            <text x="250.0" y="30.0">Ultralight</text>
            <text x="450.0" y="30.0">Regular</text>
            <text x="650.0" y="30.0">Black</text>
            <text id="template-version" fill="#505050" text-anchor="end" x="785.0" y="575.0">Template v.3.0</text>
            <a href="https://github.com/swhitty/SwiftDraw">
                <text fill="#505050" text-anchor="end" x="785.0" y="590.0">https://github.com/swhitty/SwiftDraw</text>
            </a>
        </g>
    </g>
    <g id="Guides" stroke="rgb(39, 170, 225)" stroke-width="0.5">
        <path id="Capline-S" d="M18,76 l800,0" />
        <path id="H-reference" d="M85,145.755 L87.685,145.755 L113.369,79.287 L114.052,79.287 L114.052,76 L112.148,76 L85,145.755 Z M95.693,121.536 L130.996,121.536 L130.263,119.313 L96.474,119.313 L95.693,121.536 Z M139.15,145.755 L141.787,145.755 L114.638,76 L113.466,76 L113.466,79.287 L139.15,145.755 Z" stroke="none" />
        <path id="Baseline-S" d="M18,146 l800,0" />
        <path id="left-margin-Ultralight-S" d="M218.205,56 l0,110" />
        <path id="right-margin-Ultralight-S" d="M311.795,56 l0,110" />
        <path id="left-margin-Regular-S" d="M418.205,56 l0,110" />
        <path id="right-margin-Regular-S" d="M511.795,56 l0,110" />
        <path id="left-margin-Black-S" d="M618.205,56 l0,110" />
        <path id="right-margin-Black-S" d="M711.795,56 l0,110" />
        <path id="Capline-M" d="M18,276 l800,0" />
        <path id="Baseline-M" d="M18,346 l800,0" />
        <path id="Capline-L" d="M18,476 l800,0" />
        <path id="Baseline-L" d="M18,546 l800,0" />
    </g>
    <g id="Symbols">
        <g id="Ultralight-S">
            <path d="M233.59,82.282 C233.59,81.786 233.992,81.385 234.487,81.385 L256.026,81.385 L253.957,80.416 L262.932,91.185 C263.443,91.799 264.201,92.154 265,92.154 L295.513,92.154 C296.009,92.154 296.41,92.556 296.41,93.051 L296.41,139.718 C296.41,140.214 296.009,140.615 295.513,140.615 L234.487,140.615 C233.992,140.615 233.59,140.214 233.59,139.718 L233.59,82.282 Z M228.205,82.282 L228.205,139.718 C228.205,143.187 231.018,146 234.487,146 L295.513,146 C298.982,146 301.795,143.187 301.795,139.718 L301.795,93.051 C301.795,89.582 298.982,86.769 295.513,86.769 L265,86.769 L267.068,87.738 L258.094,76.969 C257.582,76.355 256.825,76 256.026,76 L234.487,76 C231.018,76 228.205,78.813 228.205,82.282 Z" />
            <path d="M256.923,108.846 C256.923,109.455 256.727,109.868 256.487,110.148 C256.454,110.186 256.487,110.158 256.572,110.098 C256.895,109.872 257.443,109.574 258.161,109.238 C258.85,108.917 259.67,108.573 260.591,108.214 C261.727,107.773 262.951,107.335 264.177,106.921 C264.913,106.674 265.482,106.49 265.8,106.391 L264.2,106.391 C264.518,106.49 265.087,106.674 265.823,106.921 C267.049,107.335 268.273,107.773 269.409,108.214 C270.33,108.573 271.15,108.917 271.839,109.238 C272.557,109.574 273.105,109.872 273.428,110.098 C273.513,110.158 273.546,110.186 273.513,110.148 C273.273,109.868 273.077,109.455 273.077,108.846 C273.077,114.05 271.289,118.499 268.286,122.237 C267.228,123.554 266.093,124.684 264.964,125.62 C264.305,126.167 263.815,126.515 263.578,126.663 L266.422,126.663 C266.185,126.515 265.695,126.167 265.036,125.62 C263.907,124.684 262.772,123.554 261.714,122.237 C258.711,118.499 256.923,114.05 256.923,108.846 Z M251.538,108.846 C251.538,115.369 253.789,120.971 257.517,125.61 C259.748,128.386 261.993,130.249 263.578,131.235 C264.448,131.776 265.552,131.776 266.422,131.235 C268.007,130.249 270.252,128.386 272.483,125.61 C276.211,120.971 278.462,115.369 278.462,108.846 C278.462,106.691 277.16,105.78 274.116,104.359 C273.309,103.982 272.384,103.594 271.36,103.196 C270.14,102.721 268.841,102.256 267.543,101.819 C267.089,101.666 266.668,101.527 266.288,101.405 C266.059,101.331 265.892,101.279 265.8,101.25 C265.279,101.088 264.721,101.088 264.2,101.25 C264.108,101.279 263.941,101.331 263.712,101.405 C263.332,101.527 262.911,101.666 262.457,101.819 C261.159,102.256 259.86,102.721 258.64,103.196 C257.616,103.594 256.691,103.982 255.884,104.359 C252.84,105.78 251.538,106.691 251.538,108.846 Z" />
        </g>
        <g id="Regular-S">
            <path d="M433.59,82.282 C433.59,81.786 433.992,81.385 434.487,81.385 L456.026,81.385 L453.957,80.416 L462.932,91.185 C463.443,91.799 464.201,92.154 465,92.154 L495.513,92.154 C496.009,92.154 496.41,92.556 496.41,93.051 L496.41,139.718 C496.41,140.214 496.009,140.615 495.513,140.615 L434.487,140.615 C433.992,140.615 433.59,140.214 433.59,139.718 L433.59,82.282 Z M428.205,82.282 L428.205,139.718 C428.205,143.187 431.018,146 434.487,146 L495.513,146 C498.982,146 501.795,143.187 501.795,139.718 L501.795,93.051 C501.795,89.582 498.982,86.769 495.513,86.769 L465,86.769 L467.068,87.738 L458.094,76.969 C457.582,76.355 456.825,76 456.026,76 L434.487,76 C431.018,76 428.205,78.813 428.205,82.282 Z" />
            <path d="M456.923,108.846 C456.923,109.455 456.727,109.868 456.487,110.148 C456.454,110.186 456.487,110.158 456.572,110.098 C456.895,109.872 457.443,109.574 458.161,109.238 C458.85,108.917 459.67,108.573 460.591,108.214 C461.727,107.773 462.951,107.335 464.177,106.921 C464.913,106.674 465.482,106.49 465.8,106.391 L464.2,106.391 C464.518,106.49 465.087,106.674 465.823,106.921 C467.049,107.335 468.273,107.773 469.409,108.214 C470.33,108.573 471.15,108.917 471.839,109.238 C472.557,109.574 473.105,109.872 473.428,110.098 C473.513,110.158 473.546,110.186 473.513,110.148 C473.273,109.868 473.077,109.455 473.077,108.846 C473.077,114.05 471.289,118.499 468.286,122.237 C467.228,123.554 466.093,124.684 464.964,125.62 C464.305,126.167 463.815,126.515 463.578,126.663 L466.422,126.663 C466.185,126.515 465.695,126.167 465.036,125.62 C463.907,124.684 462.772,123.554 461.714,122.237 C458.711,118.499 456.923,114.05 456.923,108.846 Z M451.538,108.846 C451.538,115.369 453.789,120.971 457.517,125.61 C459.748,128.386 461.993,130.249 463.578,131.235 C464.448,131.776 465.552,131.776 466.422,131.235 C468.007,130.249 470.252,128.386 472.483,125.61 C476.211,120.971 478.462,115.369 478.462,108.846 C478.462,106.691 477.16,105.78 474.116,104.359 C473.309,103.982 472.384,103.594 471.36,103.196 C470.14,102.721 468.841,102.256 467.543,101.819 C467.089,101.666 466.668,101.527 466.288,101.405 C466.059,101.331 465.892,101.279 465.8,101.25 C465.279,101.088 464.721,101.088 464.2,101.25 C464.108,101.279 463.941,101.331 463.712,101.405 C463.332,101.527 462.911,101.666 462.457,101.819 C461.159,102.256 459.86,102.721 458.64,103.196 C457.616,103.594 456.691,103.982 455.884,104.359 C452.84,105.78 451.538,106.691 451.538,108.846 Z" />
        </g>
        <g id="Black-S">
            <path d="M633.59,82.282 C633.59,81.786 633.992,81.385 634.487,81.385 L656.026,81.385 L653.957,80.416 L662.932,91.185 C663.443,91.799 664.201,92.154 665,92.154 L695.513,92.154 C696.009,92.154 696.41,92.556 696.41,93.051 L696.41,139.718 C696.41,140.214 696.009,140.615 695.513,140.615 L634.487,140.615 C633.992,140.615 633.59,140.214 633.59,139.718 L633.59,82.282 Z M628.205,82.282 L628.205,139.718 C628.205,143.187 631.018,146 634.487,146 L695.513,146 C698.982,146 701.795,143.187 701.795,139.718 L701.795,93.051 C701.795,89.582 698.982,86.769 695.513,86.769 L665,86.769 L667.068,87.738 L658.094,76.969 C657.582,76.355 656.825,76 656.026,76 L634.487,76 C631.018,76 628.205,78.813 628.205,82.282 Z" />
            <path d="M656.923,108.846 C656.923,109.455 656.727,109.868 656.487,110.148 C656.454,110.186 656.487,110.158 656.572,110.098 C656.895,109.872 657.443,109.574 658.161,109.238 C658.85,108.917 659.67,108.573 660.591,108.214 C661.727,107.773 662.951,107.335 664.177,106.921 C664.913,106.674 665.482,106.49 665.8,106.391 L664.2,106.391 C664.518,106.49 665.087,106.674 665.823,106.921 C667.049,107.335 668.273,107.773 669.409,108.214 C670.33,108.573 671.15,108.917 671.839,109.238 C672.557,109.574 673.105,109.872 673.428,110.098 C673.513,110.158 673.546,110.186 673.513,110.148 C673.273,109.868 673.077,109.455 673.077,108.846 C673.077,114.05 671.289,118.499 668.286,122.237 C667.228,123.554 666.093,124.684 664.964,125.62 C664.305,126.167 663.815,126.515 663.578,126.663 L666.422,126.663 C666.185,126.515 665.695,126.167 665.036,125.62 C663.907,124.684 662.773,123.554 661.714,122.237 C658.711,118.499 656.923,114.05 656.923,108.846 Z M651.538,108.846 C651.538,115.369 653.789,120.971 657.517,125.61 C659.748,128.386 661.993,130.249 663.578,131.235 C664.448,131.776 665.552,131.776 666.422,131.235 C668.007,130.249 670.252,128.386 672.483,125.61 C676.211,120.971 678.462,115.369 678.462,108.846 C678.462,106.691 677.16,105.78 674.116,104.359 C673.309,103.982 672.384,103.594 671.36,103.196 C670.14,102.721 668.841,102.256 667.543,101.819 C667.089,101.666 666.668,101.527 666.288,101.405 C666.059,101.331 665.892,101.279 665.8,101.25 C665.279,101.088 664.721,101.088 664.2,101.25 C664.108,101.279 663.941,101.331 663.712,101.405 C663.332,101.527 662.911,101.666 662.457,101.819 C661.159,102.256 659.86,102.721 658.64,103.196 C657.616,103.594 656.692,103.982 655.884,104.359 C652.84,105.78 651.538,106.691 651.538,108.846 Z" />
        </g>
    </g>
</svg>