<?xml version="1.0" encoding="UTF-8"?>
<svg height="600" width="800" xmlns="http://www.w3.org/2000/svg" xmlns:xlink="http://www.w3.org/1999/xlink">
    <g id="Notes" font-family="'LucidaGrande', 'Lucida Grande', sans-serif" font-size="13">
        <rect fill="white" height="600.0" width="800.0" x="0.0" y="0.0" />
        <g font-size="13">
            <text x="18.0" y="176.0">Small</text>
            <text x="18.0" y="376.0">Medium</text>
            <text x="18.0" y="576.0">Large</text>
        </g>
        <g font-size="9">
            <text x="250.0" y="30.0">Ultralight</text>
            <text x="450.0" y="30.0">Regular</text>
            <text x="650.0" y="30.0">Black</text>
            <text id="template-version" fill="#505050" text-anchor="end" x="785.0" y="575.0">Template v.3.0</text>
            <a href="https://github.com/swhitty/SwiftDraw">
                <text fill="#505050" text-anchor="end" x="785.0" y="590.0">https://github.com/swhitty/SwiftDraw</text>
            </a>
        </g>
    </g>
    <g id="Guides" stroke="rgb(39, 170, 225)" stroke-width="0.5">
        <path id="Capline-S" d="M18,76 l800,0" />
        <path id="H-reference" d="M85,145.755 L87.685,145.755 L113.369,79.287 L114.052,79.287 L114.052,76 L112.148,76 L85,145.755 Z M95.693,121.536 L130.996,121.536 L130.263,119.313 L96.474,119.313 L95.693,121.536 Z M139.15,145.755 L141.787,145.755 L114.638,76 L113.466,76 L113.466,79.287 L139.15,145.755 Z" stroke="none" />
        <path id="Baseline-S" d="M18,146 l800,0" />
        <path id="left-margin-Ultralight-S" d="M216.381,56 l0,110" />
        <path id="right-margin-Ultralight-S" d="M313.619,56 l0,110" />
        <path id="left-margin-Regular-S" d="M416.381,56 l0,110" />
        <path id="right-margin-Regular-S" d="M513.619,56 l0,110" />
        <path id="left-margin-Black-S" d="M616.381,56 l0,110" />
        <path id="right-margin-Black-S" d="M713.619,56 l0,110" />
        <path id="Capline-M" d="M18,276 l800,0" />
        <path id="Baseline-M" d="M18,346 l800,0" />
        <path id="Capline-L" d="M18,476 l800,0" />
        <path id="Baseline-L" d="M18,546 l800,0" />
    </g>
    <g id="Symbols">
        <g id="Ultralight-S">
            <path d="M231.935,101.083 C231.796,100.504 232.235,99.947 232.831,99.947 L297.169,99.947 C297.765,99.947 298.204,100.504 298.065,101.083 L288.78,139.768 C288.681,140.182 288.311,140.474 287.885,140.474 L242.115,140.474 C241.689,140.474 241.319,140.182 241.22,139.768 L231.935,101.083 Z M226.562,102.373 L235.846,141.057 C236.542,143.956 239.134,146 242.115,146 L287.885,146 C290.866,146 293.459,143.956 294.154,141.057 L303.438,102.373 C304.411,98.319 301.338,94.421 297.169,94.421 L232.831,94.421 C228.662,94.421 225.589,98.319 226.562,102.373 Z" />
            <path d="M253.026,78.763 L253.026,97.184 L255.789,94.421 L241.053,94.421 L243.816,97.184 L243.816,78.763 L241.053,81.526 L255.789,81.526 L253.026,78.763 Z M258.553,78.763 C258.553,77.237 257.316,76 255.789,76 L241.053,76 C239.527,76 238.289,77.237 238.289,78.763 L238.289,97.184 C238.289,98.71 239.527,99.947 241.053,99.947 L255.789,99.947 C257.316,99.947 258.553,98.71 258.553,97.184 L258.553,78.763 Z" />
            <path d="M258.029,98.802 L270.003,82.223 L266.149,82.848 L289.175,99.427 C290.413,100.318 292.14,100.037 293.032,98.799 C293.924,97.56 293.642,95.833 292.404,94.942 L269.378,78.363 C268.141,77.472 266.416,77.752 265.523,78.987 L253.549,95.566 C252.656,96.804 252.935,98.531 254.172,99.424 C255.409,100.318 257.136,100.039 258.029,98.802 Z" />
            <path d="M248.421,114.684 L263.158,114.684 C264.684,114.684 265.921,113.447 265.921,111.921 C265.921,110.395 264.684,109.158 263.158,109.158 L248.421,109.158 C246.895,109.158 245.658,110.395 245.658,111.921 C245.658,113.447 246.895,114.684 248.421,114.684 Z" />
        </g>
        <g id="Regular-S">
            <path d="M431.935,101.083 C431.796,100.504 432.235,99.947 432.831,99.947 L497.169,99.947 C497.765,99.947 498.204,100.504 498.065,101.083 L488.78,139.768 C488.681,140.182 488.311,140.474 487.885,140.474 L442.115,140.474 C441.689,140.474 441.319,140.182 441.22,139.768 L431.935,101.083 Z M426.562,102.373 L435.846,141.057 C436.542,143.956 439.134,146 442.115,146 L487.885,146 C490.866,146 493.459,143.956 494.154,141.057 L503.438,102.373 C504.411,98.319 501.338,94.421 497.169,94.421 L432.831,94.421 C428.662,94.421 425.589,98.319 426.562,102.373 Z" />
            <path d="M453.026,78.763 L453.026,97.184 L455.789,94.421 L441.053,94.421 L443.816,97.184 L443.816,78.763 L441.053,81.526 L455.789,81.526 L453.026,78.763 Z M458.553,78.763 C458.553,77.237 457.316,76 455.789,76 L441.053,76 C439.527,76 438.289,77.237 438.289,78.763 L438.289,97.184 C438.289,98.71 439.527,99.947 441.053,99.947 L455.789,99.947 C457.316,99.947 458.553,98.71 458.553,97.184 L458.553,78.763 Z" />
            <path d="M458.029,98.802 L470.003,82.223 L466.149,82.848 L489.175,99.427 C490.413,100.318 492.14,100.037 493.032,98.799 C493.924,97.56 493.642,95.833 492.404,94.942 L469.378,78.363 C468.141,77.472 466.416,77.752 465.523,78.987 L453.549,95.566 C452.656,96.804 452.935,98.531 454.172,99.424 C455.409,100.318 457.136,100.039 458.029,98.802 Z" />
            <path d="M448.421,114.684 L463.158,114.684 C464.684,114.684 465.921,113.447 465.921,111.921 C465.921,110.395 464.684,109.158 463.158,109.158 L448.421,109.158 C446.895,109.158 445.658,110.395 445.658,111.921 C445.658,113.447 446.895,114.684 448.421,114.684 Z" />
        </g>
        <g id="Black-S">
            <path d="M631.935,101.083 C631.796,100.504 632.235,99.947 632.831,99.947 L697.169,99.947 C697.765,99.947 698.204,100.504 698.065,101.083 L688.781,139.768 C688.681,140.182 688.311,140.474 687.885,140.474 L642.115,140.474 C641.689,140.474 641.319,140.182 641.22,139.768 L631.935,101.083 Z M626.562,102.373 L635.846,141.057 C636.542,143.956 639.134,146 642.115,146 L687.885,146 C690.866,146 693.459,143.956 694.154,141.057 L703.438,102.373 C704.411,98.319 701.339,94.421 697.169,94.421 L632.831,94.421 C628.662,94.421 625.589,98.319 626.562,102.373 Z" />
            <path d="M653.026,78.763 L653.026,97.184 L655.789,94.421 L641.053,94.421 L643.816,97.184 L643.816,78.763 L641.053,81.526 L655.789,81.526 L653.026,78.763 Z M658.553,78.763 C658.553,77.237 657.316,76 655.789,76 L641.053,76 C639.527,76 638.289,77.237 638.289,78.763 L638.289,97.184 C638.289,98.71 639.527,99.947 641.053,99.947 L655.789,99.947 C657.316,99.947 658.553,98.71 658.553,97.184 L658.553,78.763 Z" />
            <path d="M658.03,98.802 L670.003,82.223 L666.149,82.848 L689.175,99.427 C690.413,100.318 692.14,100.037 693.032,98.799 C693.924,97.56 693.642,95.833 692.404,94.942 L669.378,78.363 C668.141,77.472 666.416,77.752 665.523,78.987 L653.549,95.566 C652.656,96.804 652.935,98.531 654.172,99.424 C655.409,100.318 657.136,100.039 658.03,98.802 Z" />
            <path d="M648.421,114.684 L663.158,114.684 C664.684,114.684 665.921,113.447 665.921,111.921 C665.921,110.395 664.684,109.158 663.158,109.158 L648.421,109.158 C646.895,109.158 645.658,110.395 645.658,111.921 C645.658,113.447 646.895,114.684 648.421,114.684 Z" />
        </g>
    </g>
</svg>