<?xml version="1.0" encoding="UTF-8"?>
<svg height="600" width="800" xmlns="http://www.w3.org/2000/svg" xmlns:xlink="http://www.w3.org/1999/xlink">
    <g id="Notes" font-family="'LucidaGrande', 'Lucida Grande', sans-serif" font-size="13">
        <rect fill="white" height="600.0" width="800.0" x="0.0" y="0.0" />
        <g font-size="13">
            <text x="18.0" y="176.0">Small</text>
            <text x="18.0" y="376.0">Medium</text>
            <text x="18.0" y="576.0">Large</text>
        </g>
        <g font-size="9">
            <text x="250.0" y="30.0">Ultralight</text>
            <text x="450.0" y="30.0">Regular</text>
            <text x="650.0" y="30.0">Black</text>
            <text id="template-version" fill="#505050" text-anchor="end" x="785.0" y="575.0">Template v.3.0</text>
            <a href="https://github.com/swhitty/SwiftDraw">
                <text fill="#505050" text-anchor="end" x="785.0" y="590.0">https://github.com/swhitty/SwiftDraw</text>
            </a>
        </g>
    </g>
    <g id="Guides" stroke="rgb(39, 170, 225)" stroke-width="0.5">
        <path id="Capline-S" d="M18,76 l800,0" />
        <path id="H-reference" d="M85,145.755 L87.685,145.755 L113.369,79.287 L114.052,79.287 L114.052,76 L112.148,76 L85,145.755 Z M95.693,121.536 L130.996,121.536 L130.263,119.313 L96.474,119.313 L95.693,121.536 Z M139.15,145.755 L141.787,145.755 L114.638,76 L113.466,76 L113.466,79.287 L139.15,145.755 Z" stroke="none" />
        <path id="Baseline-S" d="M18,146 l800,0" />
        <path id="left-margin-Ultralight-S" d="M220,56 l0,110" />
        <path id="right-margin-Ultralight-S" d="M310,56 l0,110" />
        <path id="left-margin-Regular-S" d="M420,56 l0,110" />
        <path id="right-margin-Regular-S" d="M510,56 l0,110" />
        <path id="left-margin-Black-S" d="M620,56 l0,110" />
        <path id="right-margin-Black-S" d="M710,56 l0,110" />
        <path id="Capline-M" d="M18,276 l800,0" />
        <path id="Baseline-M" d="M18,346 l800,0" />
        <path id="Capline-L" d="M18,476 l800,0" />
        <path id="Baseline-L" d="M18,546 l800,0" />
    </g>
    <g id="Symbols">
        <g id="Ultralight-S">
            <path d="M282.543,80.708 C277.256,77.64 271.245,76 265,76 C245.67,76 230,91.67 230,111 C230,130.33 245.67,146 265,146 C284.33,146 300,130.33 300,111 C300,104.798 298.383,98.826 295.354,93.564 C294.681,92.395 293.189,91.993 292.02,92.666 C290.851,93.339 290.449,94.832 291.122,96 C293.726,100.526 295.116,105.659 295.116,111 C295.116,127.633 281.633,141.116 265,141.116 C248.367,141.116 234.884,127.633 234.884,111 C234.884,94.367 248.367,80.884 265,80.884 C270.378,80.884 275.545,82.293 280.092,84.932 C281.258,85.609 282.752,85.212 283.429,84.045 C284.106,82.879 283.709,81.384 282.543,80.708 Z" />
            <path d="M275.655,97.202 C275.605,97.334 275.51,97.587 275.373,97.943 C275.145,98.539 274.887,99.203 274.605,99.919 C273.799,101.962 272.962,104.005 272.137,105.906 C271.769,106.755 271.411,107.557 271.067,108.306 C269.775,111.108 268.685,113.071 268.157,113.599 C266.568,115.188 263.991,115.188 262.402,113.599 C260.812,112.009 260.812,109.432 262.402,107.843 C262.929,107.316 264.892,106.225 267.694,104.934 C268.442,104.589 269.245,104.231 270.094,103.863 C271.995,103.038 274.038,102.201 276.081,101.395 C276.797,101.113 277.461,100.855 278.057,100.627 C278.413,100.491 278.666,100.395 278.798,100.345 L275.655,97.202 Z M280.228,98.915 C280.963,96.953 279.047,95.037 277.085,95.772 C276.942,95.826 276.678,95.925 276.31,96.066 C275.7,96.3 275.021,96.564 274.29,96.852 C272.199,97.676 270.108,98.534 268.151,99.382 C267.269,99.764 266.434,100.137 265.65,100.498 C262.274,102.055 260.046,103.292 258.948,104.39 C255.452,107.886 255.452,113.555 258.948,117.052 C262.445,120.548 268.114,120.548 271.611,117.052 C272.708,115.954 273.946,113.726 275.502,110.35 C275.863,109.566 276.236,108.731 276.618,107.849 C277.467,105.892 278.324,103.801 279.148,101.71 C279.437,100.979 279.7,100.3 279.934,99.69 C280.075,99.322 280.175,99.058 280.228,98.915 Z" />
        </g>
        <g id="Regular-S">
            <path d="M482.543,80.708 C477.256,77.64 471.245,76 465,76 C445.67,76 430,91.67 430,111 C430,130.33 445.67,146 465,146 C484.33,146 500,130.33 500,111 C500,104.798 498.383,98.826 495.354,93.564 C494.681,92.395 493.189,91.993 492.02,92.666 C490.851,93.339 490.449,94.832 491.122,96 C493.726,100.526 495.116,105.659 495.116,111 C495.116,127.633 481.633,141.116 465,141.116 C448.367,141.116 434.884,127.633 434.884,111 C434.884,94.367 448.367,80.884 465,80.884 C470.378,80.884 475.545,82.293 480.092,84.932 C481.258,85.609 482.752,85.212 483.429,84.045 C484.106,82.879 483.709,81.384 482.543,80.708 Z" />
            <path d="M475.655,97.202 C475.605,97.334 475.51,97.587 475.373,97.943 C475.145,98.539 474.887,99.203 474.605,99.919 C473.799,101.962 472.962,104.005 472.137,105.906 C471.769,106.755 471.411,107.557 471.067,108.306 C469.775,111.108 468.685,113.071 468.157,113.599 C466.568,115.188 463.991,115.188 462.402,113.599 C460.812,112.009 460.812,109.432 462.402,107.843 C462.929,107.316 464.892,106.225 467.694,104.934 C468.442,104.589 469.245,104.231 470.094,103.863 C471.995,103.038 474.038,102.201 476.081,101.395 C476.797,101.113 477.461,100.855 478.057,100.627 C478.413,100.491 478.666,100.395 478.798,100.345 L475.655,97.202 Z M480.228,98.915 C480.963,96.953 479.047,95.037 477.085,95.772 C476.942,95.826 476.678,95.925 476.31,96.066 C475.7,96.3 475.021,96.564 474.29,96.852 C472.199,97.676 470.108,98.534 468.151,99.382 C467.269,99.764 466.434,100.137 465.65,100.498 C462.274,102.055 460.046,103.292 458.948,104.39 C455.452,107.886 455.452,113.555 458.948,117.052 C462.445,120.548 468.114,120.548 471.611,117.052 C472.708,115.954 473.946,113.726 475.502,110.35 C475.863,109.566 476.236,108.731 476.618,107.849 C477.467,105.892 478.324,103.801 479.148,101.71 C479.437,100.979 479.7,100.3 479.934,99.69 C480.075,99.322 480.175,99.058 480.228,98.915 Z" />
        </g>
        <g id="Black-S">
            <path d="M682.543,80.708 C677.256,77.64 671.245,76 665,76 C645.67,76 630,91.67 630,111 C630,130.33 645.67,146 665,146 C684.33,146 700,130.33 700,111 C700,104.798 698.383,98.826 695.354,93.564 C694.681,92.395 693.189,91.993 692.02,92.666 C690.851,93.339 690.449,94.832 691.122,96 C693.726,100.526 695.116,105.659 695.116,111 C695.116,127.633 681.633,141.116 665,141.116 C648.367,141.116 634.884,127.633 634.884,111 C634.884,94.367 648.367,80.884 665,80.884 C670.378,80.884 675.545,82.293 680.092,84.932 C681.258,85.609 682.752,85.212 683.429,84.045 C684.106,82.879 683.709,81.384 682.543,80.708 Z" />
            <path d="M675.655,97.202 C675.605,97.334 675.51,97.587 675.373,97.943 C675.145,98.539 674.887,99.203 674.605,99.919 C673.799,101.962 672.962,104.005 672.137,105.906 C671.769,106.755 671.411,107.557 671.067,108.306 C669.775,111.108 668.685,113.071 668.157,113.599 C666.568,115.188 663.991,115.188 662.402,113.599 C660.812,112.009 660.812,109.432 662.402,107.843 C662.929,107.316 664.892,106.225 667.694,104.934 C668.442,104.589 669.245,104.231 670.094,103.863 C671.995,103.038 674.038,102.201 676.081,101.395 C676.797,101.113 677.461,100.855 678.057,100.627 C678.413,100.491 678.666,100.395 678.798,100.345 L675.655,97.202 Z M680.228,98.915 C680.963,96.953 679.047,95.037 677.085,95.772 C676.942,95.826 676.678,95.925 676.31,96.066 C675.7,96.3 675.021,96.564 674.29,96.852 C672.199,97.676 670.108,98.534 668.151,99.382 C667.269,99.764 666.433,100.137 665.65,100.498 C662.274,102.055 660.046,103.292 658.948,104.39 C655.452,107.886 655.452,113.555 658.948,117.052 C662.445,120.548 668.114,120.548 671.611,117.052 C672.708,115.954 673.946,113.726 675.502,110.35 C675.863,109.566 676.236,108.731 676.618,107.849 C677.467,105.892 678.324,103.801 679.148,101.71 C679.437,100.979 679.7,100.3 679.934,99.69 C680.075,99.322 680.175,99.058 680.228,98.915 Z" />
        </g>
    </g>
</svg>