<?xml version="1.0" encoding="UTF-8"?>
<svg height="600" width="800" xmlns="http://www.w3.org/2000/svg" xmlns:xlink="http://www.w3.org/1999/xlink">
    <g id="Notes" font-family="'LucidaGrande', 'Lucida Grande', sans-serif" font-size="13">
        <rect fill="white" height="600.0" width="800.0" x="0.0" y="0.0" />
        <g font-size="13">
            <text x="18.0" y="176.0">Small</text>
            <text x="18.0" y="376.0">Medium</text>
            <text x="18.0" y="576.0">Large</text>
        </g>
        <g font-size="9">
            <text x="250.0" y="30.0">Ultralight</text>
            <text x="450.0" y="30.0">Regular</text>
            <text x="650.0" y="30.0">Black</text>
            <text id="template-version" fill="#505050" text-anchor="end" x="785.0" y="575.0">Template v.3.0</text>
            <a href="https://github.com/swhitty/SwiftDraw">
                <text fill="#505050" text-anchor="end" x="785.0" y="590.0">https://github.com/swhitty/SwiftDraw</text>
            </a>
        </g>
    </g>
    <g id="Guides" stroke="rgb(39, 170, 225)" stroke-width="0.5">
        <path id="Capline-S" d="M18,76 l800,0" />
        <path id="H-reference" d="M85,145.755 L87.685,145.755 L113.369,79.287 L114.052,79.287 L114.052,76 L112.148,76 L85,145.755 Z M95.693,121.536 L130.996,121.536 L130.263,119.313 L96.474,119.313 L95.693,121.536 Z M139.15,145.755 L141.787,145.755 L114.638,76 L113.466,76 L113.466,79.287 L139.15,145.755 Z" stroke="none" />
        <path id="Baseline-S" d="M18,146 l800,0" />
        <path id="left-margin-Ultralight-S" d="M211,56 l0,110" />
        <path id="right-margin-Ultralight-S" d="M319,56 l0,110" />
        <path id="left-margin-Regular-S" d="M411,56 l0,110" />
        <path id="right-margin-Regular-S" d="M519,56 l0,110" />
        <path id="left-margin-Black-S" d="M611,56 l0,110" />
        <path id="right-margin-Black-S" d="M719,56 l0,110" />
        <path id="Capline-M" d="M18,276 l800,0" />
        <path id="Baseline-M" d="M18,346 l800,0" />
        <path id="Capline-L" d="M18,476 l800,0" />
        <path id="Baseline-L" d="M18,546 l800,0" />
    </g>
    <g id="Symbols">
        <g id="Ultralight-S">
            <path d="M269.513,114.385 L305.615,114.385 C307.485,114.385 309,112.869 309,111 C309,109.131 307.485,107.615 305.615,107.615 L269.513,107.615 C267.644,107.615 266.128,109.131 266.128,111 C266.128,112.869 267.644,114.385 269.513,114.385 Z" />
            <path d="M269.513,145.974 L305.615,145.974 C307.485,145.974 309,144.459 309,142.59 C309,140.72 307.485,139.205 305.615,139.205 L269.513,139.205 C267.644,139.205 266.128,140.72 266.128,142.59 C266.128,144.459 267.644,145.974 269.513,145.974 Z" />
            <path d="M269.513,82.795 L305.615,82.795 C307.485,82.795 309,81.28 309,79.41 C309,77.541 307.485,76.026 305.615,76.026 L269.513,76.026 C267.644,76.026 266.128,77.541 266.128,79.41 C266.128,81.28 267.644,82.795 269.513,82.795 Z" />
            <path d="M251.462,107.615 L224.385,107.615 L224.385,114.385 C226.254,114.385 226.254,114.385 233.41,114.385 C235.28,114.385 236.795,112.869 236.795,111 C236.795,109.131 235.28,107.615 233.41,107.615 C226.254,107.615 226.254,107.615 224.385,107.615 C219.872,107.615 219.872,114.385 224.385,114.385 L251.462,114.385 C253.331,114.385 254.846,112.869 254.846,111 C254.846,109.131 253.331,107.615 251.462,107.615 Z M252.532,139.379 C248.971,138.192 247.391,134.756 246.09,126.58 C246.007,126.056 246.005,126.043 245.781,124.588 C244.915,118.958 244.355,116.437 243.082,113.821 C241.156,109.861 237.933,107.615 233.41,107.615 C231.541,107.615 230.026,109.131 230.026,111 C230.026,112.869 231.541,114.385 233.41,114.385 C236.599,114.385 237.716,116.681 239.091,125.617 C239.317,127.089 239.319,127.103 239.405,127.644 C241.084,138.198 243.529,143.513 250.391,145.801 C252.165,146.392 254.081,145.433 254.672,143.66 C255.264,141.887 254.305,139.97 252.532,139.379 Z M250.391,76.199 C243.529,78.487 241.084,83.802 239.405,94.356 C239.319,94.897 239.317,94.911 239.091,96.383 C237.716,105.319 236.599,107.615 233.41,107.615 C231.541,107.615 230.026,109.131 230.026,111 C230.026,112.869 231.541,114.385 233.41,114.385 C237.933,114.385 241.156,112.139 243.082,108.179 C244.355,105.563 244.915,103.042 245.781,97.412 C246.005,95.957 246.007,95.944 246.09,95.42 C247.391,87.244 248.971,83.808 252.532,82.621 C254.305,82.03 255.264,80.113 254.672,78.34 C254.081,76.567 252.165,75.608 250.391,76.199 Z" />
        </g>
        <g id="Regular-S">
            <path d="M469.513,114.385 L505.615,114.385 C507.485,114.385 509,112.869 509,111 C509,109.131 507.485,107.615 505.615,107.615 L469.513,107.615 C467.644,107.615 466.128,109.131 466.128,111 C466.128,112.869 467.644,114.385 469.513,114.385 Z" />
            <path d="M469.513,145.974 L505.615,145.974 C507.485,145.974 509,144.459 509,142.59 C509,140.72 507.485,139.205 505.615,139.205 L469.513,139.205 C467.644,139.205 466.128,140.72 466.128,142.59 C466.128,144.459 467.644,145.974 469.513,145.974 Z" />
            <path d="M469.513,82.795 L505.615,82.795 C507.485,82.795 509,81.28 509,79.41 C509,77.541 507.485,76.026 505.615,76.026 L469.513,76.026 C467.644,76.026 466.128,77.541 466.128,79.41 C466.128,81.28 467.644,82.795 469.513,82.795 Z" />
            <path d="M451.462,107.615 L424.385,107.615 L424.385,114.385 C426.254,114.385 426.254,114.385 433.41,114.385 C435.28,114.385 436.795,112.869 436.795,111 C436.795,109.131 435.28,107.615 433.41,107.615 C426.254,107.615 426.254,107.615 424.385,107.615 C419.872,107.615 419.872,114.385 424.385,114.385 L451.462,114.385 C453.331,114.385 454.846,112.869 454.846,111 C454.846,109.131 453.331,107.615 451.462,107.615 Z M452.532,139.379 C448.971,138.192 447.391,134.756 446.09,126.58 C446.007,126.056 446.005,126.043 445.781,124.588 C444.915,118.958 444.355,116.437 443.082,113.821 C441.156,109.861 437.933,107.615 433.41,107.615 C431.541,107.615 430.026,109.131 430.026,111 C430.026,112.869 431.541,114.385 433.41,114.385 C436.599,114.385 437.716,116.681 439.091,125.617 C439.317,127.089 439.319,127.103 439.405,127.644 C441.084,138.198 443.529,143.513 450.391,145.801 C452.165,146.392 454.081,145.433 454.672,143.66 C455.264,141.887 454.305,139.97 452.532,139.379 Z M450.391,76.199 C443.529,78.487 441.084,83.802 439.405,94.356 C439.319,94.897 439.317,94.911 439.091,96.383 C437.716,105.319 436.599,107.615 433.41,107.615 C431.541,107.615 430.026,109.131 430.026,111 C430.026,112.869 431.541,114.385 433.41,114.385 C437.933,114.385 441.156,112.139 443.082,108.179 C444.355,105.563 444.915,103.042 445.781,97.412 C446.005,95.957 446.007,95.944 446.09,95.42 C447.391,87.244 448.971,83.808 452.532,82.621 C454.305,82.03 455.264,80.113 454.672,78.34 C454.081,76.567 452.165,75.608 450.391,76.199 Z" />
        </g>
        <g id="Black-S">
            <path d="M669.513,114.385 L705.615,114.385 C707.485,114.385 709,112.869 709,111 C709,109.131 707.485,107.615 705.615,107.615 L669.513,107.615 C667.644,107.615 666.128,109.131 666.128,111 C666.128,112.869 667.644,114.385 669.513,114.385 Z" />
            <path d="M669.513,145.974 L705.615,145.974 C707.485,145.974 709,144.459 709,142.59 C709,140.72 707.485,139.205 705.615,139.205 L669.513,139.205 C667.644,139.205 666.128,140.72 666.128,142.59 C666.128,144.459 667.644,145.974 669.513,145.974 Z" />
            <path d="M669.513,82.795 L705.615,82.795 C707.485,82.795 709,81.28 709,79.41 C709,77.541 707.485,76.026 705.615,76.026 L669.513,76.026 C667.644,76.026 666.128,77.541 666.128,79.41 C666.128,81.28 667.644,82.795 669.513,82.795 Z" />
            <path d="M651.462,107.615 L624.385,107.615 L624.385,114.385 C626.254,114.385 626.254,114.385 633.41,114.385 C635.279,114.385 636.795,112.869 636.795,111 C636.795,109.131 635.279,107.615 633.41,107.615 C626.254,107.615 626.254,107.615 624.385,107.615 C619.872,107.615 619.872,114.385 624.385,114.385 L651.462,114.385 C653.331,114.385 654.846,112.869 654.846,111 C654.846,109.131 653.331,107.615 651.462,107.615 Z M652.532,139.379 C648.971,138.192 647.391,134.756 646.09,126.58 C646.007,126.056 646.005,126.043 645.781,124.588 C644.915,118.958 644.355,116.437 643.082,113.821 C641.156,109.861 637.933,107.615 633.41,107.615 C631.541,107.615 630.026,109.131 630.026,111 C630.026,112.869 631.541,114.385 633.41,114.385 C636.599,114.385 637.716,116.681 639.091,125.617 C639.317,127.089 639.319,127.103 639.405,127.644 C641.084,138.198 643.529,143.513 650.391,145.801 C652.165,146.392 654.081,145.433 654.672,143.66 C655.264,141.887 654.305,139.97 652.532,139.379 Z M650.391,76.199 C643.529,78.487 641.084,83.802 639.405,94.356 C639.319,94.897 639.317,94.911 639.091,96.383 C637.716,105.319 636.599,107.615 633.41,107.615 C631.541,107.615 630.026,109.131 630.026,111 C630.026,112.869 631.541,114.385 633.41,114.385 C637.933,114.385 641.156,112.139 643.082,108.179 C644.355,105.563 644.915,103.042 645.781,97.412 C646.005,95.957 646.007,95.944 646.09,95.42 C647.391,87.244 648.971,83.808 652.532,82.621 C654.305,82.03 655.264,80.113 654.672,78.34 C654.081,76.567 652.165,75.608 650.391,76.199 Z" />
        </g>
    </g>
</svg>