<?xml version="1.0" encoding="UTF-8"?>
<svg height="600" width="800" xmlns="http://www.w3.org/2000/svg" xmlns:xlink="http://www.w3.org/1999/xlink">
    <g id="Notes" font-family="'LucidaGrande', 'Lucida Grande', sans-serif" font-size="13">
        <rect fill="white" height="600.0" width="800.0" x="0.0" y="0.0" />
        <g font-size="13">
            <text x="18.0" y="176.0">Small</text>
            <text x="18.0" y="376.0">Medium</text>
            <text x="18.0" y="576.0">Large</text>
        </g>
        <g font-size="9">
            <text x="250.0" y="30.0">Ultralight</text>
            <text x="450.0" y="30.0">Regular</text>
            <text x="650.0" y="30.0">Black</text>
            <text id="template-version" fill="#505050" text-anchor="end" x="785.0" y="575.0">Template v.3.0</text>
            <a href="https://github.com/swhitty/SwiftDraw">
                <text fill="#505050" text-anchor="end" x="785.0" y="590.0">https://github.com/swhitty/SwiftDraw</text>
            </a>
        </g>
    </g>
    <g id="Guides" stroke="rgb(39, 170, 225)" stroke-width="0.5">
        <path id="Capline-S" d="M18,76 l800,0" />
        <path id="H-reference" d="M85,145.755 L87.685,145.755 L113.369,79.287 L114.052,79.287 L114.052,76 L112.148,76 L85,145.755 Z M95.693,121.536 L130.996,121.536 L130.263,119.313 L96.474,119.313 L95.693,121.536 Z M139.15,145.755 L141.787,145.755 L114.638,76 L113.466,76 L113.466,79.287 L139.15,145.755 Z" stroke="none" />
        <path id="Baseline-S" d="M18,146 l800,0" />
        <path id="left-margin-Ultralight-S" d="M220,56 l0,110" />
        <path id="right-margin-Ultralight-S" d="M310,56 l0,110" />
        <path id="left-margin-Regular-S" d="M420,56 l0,110" />
        <path id="right-margin-Regular-S" d="M510,56 l0,110" />
        <path id="left-margin-Black-S" d="M620,56 l0,110" />
        <path id="right-margin-Black-S" d="M710,56 l0,110" />
        <path id="Capline-M" d="M18,276 l800,0" />
        <path id="Baseline-M" d="M18,346 l800,0" />
        <path id="Capline-L" d="M18,476 l800,0" />
        <path id="Baseline-L" d="M18,546 l800,0" />
    </g>
    <g id="Symbols">
        <g id="Ultralight-S">
            <path d="M283.721,102.861 L283.721,132.163 C283.721,133.512 284.814,134.605 286.163,134.605 C287.511,134.605 288.604,133.512 288.604,132.163 L288.604,102.861 C288.604,101.512 287.511,100.419 286.163,100.419 C284.814,100.419 283.721,101.512 283.721,102.861 Z M241.396,132.163 L241.396,143.558 C241.396,144.907 242.489,146 243.837,146 L286.163,146 C287.511,146 288.604,144.907 288.604,143.558 L288.604,132.163 C288.604,130.814 287.511,129.721 286.163,129.721 C284.814,129.721 283.721,130.814 283.721,132.163 L283.721,143.558 L286.163,141.116 L243.837,141.116 L246.279,143.558 L246.279,132.163 C246.279,130.814 245.186,129.721 243.837,129.721 C242.489,129.721 241.396,130.814 241.396,132.163 Z M243.837,129.721 L232.442,129.721 L234.884,132.163 L234.884,91.466 L234.169,93.192 L242.308,85.053 L241.543,85.571 L252.939,80.687 L251.977,80.884 L278.023,80.884 L277.061,80.687 L288.457,85.571 L287.692,85.053 L295.831,93.192 L295.116,91.466 L295.116,132.163 L297.558,129.721 L286.163,129.721 C284.814,129.721 283.721,130.814 283.721,132.163 C283.721,133.512 284.814,134.605 286.163,134.605 L297.558,134.605 C298.906,134.605 300,133.512 300,132.163 L300,91.466 C300,90.818 299.742,90.197 299.285,89.739 L291.145,81.599 C290.925,81.38 290.666,81.204 290.38,81.082 L278.985,76.198 C278.681,76.068 278.354,76.001 278.023,76.001 L251.977,76.001 C251.646,76.001 251.319,76.068 251.015,76.198 L239.62,81.082 C239.334,81.204 239.075,81.38 238.855,81.599 L230.715,89.739 C230.258,90.197 230,90.818 230,91.466 L230,132.163 C230,133.512 231.094,134.605 232.442,134.605 L243.837,134.605 C245.186,134.605 246.279,133.512 246.279,132.163 C246.279,130.814 245.186,129.721 243.837,129.721 Z M246.279,132.163 L246.279,102.861 C246.279,101.512 245.186,100.419 243.837,100.419 C242.489,100.419 241.396,101.512 241.396,102.861 L241.396,132.163 C241.396,133.512 242.489,134.605 243.837,134.605 C245.186,134.605 246.279,133.512 246.279,132.163 Z" />
            <path d="M262.558,106.117 L262.558,143.558 C262.558,144.907 263.651,146 265,146 C266.349,146 267.442,144.907 267.442,143.558 L267.442,106.117 C267.442,104.768 266.349,103.675 265,103.675 C263.651,103.675 262.558,104.768 262.558,106.117 Z" />
            <path d="M238.915,85.111 L263.334,107.902 C264.32,108.822 265.865,108.769 266.785,107.783 C267.705,106.797 267.652,105.252 266.666,104.331 L242.248,81.541 C241.262,80.621 239.717,80.674 238.796,81.66 C237.876,82.646 237.93,84.191 238.915,85.111 Z" />
            <path d="M249.767,79.482 L262.791,107.156 C263.365,108.377 264.82,108.9 266.04,108.326 C267.26,107.752 267.784,106.297 267.209,105.077 L254.186,77.403 C253.612,76.182 252.157,75.659 250.937,76.233 C249.717,76.807 249.193,78.262 249.767,79.482 Z" />
            <path d="M275.814,77.403 L262.791,105.077 C262.216,106.297 262.74,107.752 263.96,108.326 C265.181,108.9 266.635,108.377 267.209,107.156 L280.233,79.482 C280.807,78.262 280.283,76.807 279.063,76.233 C277.843,75.659 276.388,76.182 275.814,77.403 Z" />
            <path d="M287.752,81.541 L263.334,104.331 C262.348,105.252 262.295,106.797 263.215,107.783 C264.135,108.769 265.68,108.822 266.666,107.902 L291.085,85.111 C292.07,84.191 292.124,82.646 291.204,81.66 C290.283,80.674 288.738,80.621 287.752,81.541 Z" />
        </g>
        <g id="Regular-S">
            <path d="M483.721,102.861 L483.721,132.163 C483.721,133.512 484.814,134.605 486.163,134.605 C487.511,134.605 488.604,133.512 488.604,132.163 L488.604,102.861 C488.604,101.512 487.511,100.419 486.163,100.419 C484.814,100.419 483.721,101.512 483.721,102.861 Z M441.396,132.163 L441.396,143.558 C441.396,144.907 442.489,146 443.837,146 L486.163,146 C487.511,146 488.604,144.907 488.604,143.558 L488.604,132.163 C488.604,130.814 487.511,129.721 486.163,129.721 C484.814,129.721 483.721,130.814 483.721,132.163 L483.721,143.558 L486.163,141.116 L443.837,141.116 L446.279,143.558 L446.279,132.163 C446.279,130.814 445.186,129.721 443.837,129.721 C442.489,129.721 441.396,130.814 441.396,132.163 Z M443.837,129.721 L432.442,129.721 L434.884,132.163 L434.884,91.466 L434.169,93.192 L442.308,85.053 L441.543,85.571 L452.939,80.687 L451.977,80.884 L478.023,80.884 L477.061,80.687 L488.457,85.571 L487.692,85.053 L495.831,93.192 L495.116,91.466 L495.116,132.163 L497.558,129.721 L486.163,129.721 C484.814,129.721 483.721,130.814 483.721,132.163 C483.721,133.512 484.814,134.605 486.163,134.605 L497.558,134.605 C498.906,134.605 500,133.512 500,132.163 L500,91.466 C500,90.818 499.742,90.197 499.284,89.739 L491.145,81.599 C490.925,81.38 490.666,81.204 490.38,81.082 L478.985,76.198 C478.681,76.068 478.354,76.001 478.023,76.001 L451.977,76.001 C451.646,76.001 451.319,76.068 451.015,76.198 L439.62,81.082 C439.334,81.204 439.075,81.38 438.855,81.599 L430.715,89.739 C430.258,90.197 430,90.818 430,91.466 L430,132.163 C430,133.512 431.094,134.605 432.442,134.605 L443.837,134.605 C445.186,134.605 446.279,133.512 446.279,132.163 C446.279,130.814 445.186,129.721 443.837,129.721 Z M446.279,132.163 L446.279,102.861 C446.279,101.512 445.186,100.419 443.837,100.419 C442.489,100.419 441.396,101.512 441.396,102.861 L441.396,132.163 C441.396,133.512 442.489,134.605 443.837,134.605 C445.186,134.605 446.279,133.512 446.279,132.163 Z" />
            <path d="M462.558,106.117 L462.558,143.558 C462.558,144.907 463.651,146 465,146 C466.349,146 467.442,144.907 467.442,143.558 L467.442,106.117 C467.442,104.768 466.349,103.675 465,103.675 C463.651,103.675 462.558,104.768 462.558,106.117 Z" />
            <path d="M438.915,85.111 L463.334,107.902 C464.32,108.822 465.865,108.769 466.785,107.783 C467.705,106.797 467.652,105.252 466.666,104.331 L442.248,81.541 C441.262,80.621 439.717,80.674 438.796,81.66 C437.876,82.646 437.93,84.191 438.915,85.111 Z" />
            <path d="M449.767,79.482 L462.791,107.156 C463.365,108.377 464.819,108.9 466.04,108.326 C467.26,107.752 467.784,106.297 467.209,105.077 L454.186,77.403 C453.612,76.182 452.157,75.659 450.937,76.233 C449.717,76.807 449.193,78.262 449.767,79.482 Z" />
            <path d="M475.814,77.403 L462.791,105.077 C462.216,106.297 462.74,107.752 463.96,108.326 C465.18,108.9 466.635,108.377 467.209,107.156 L480.233,79.482 C480.807,78.262 480.283,76.807 479.063,76.233 C477.843,75.659 476.388,76.182 475.814,77.403 Z" />
            <path d="M487.752,81.541 L463.334,104.331 C462.348,105.252 462.295,106.797 463.215,107.783 C464.135,108.769 465.68,108.822 466.666,107.902 L491.085,85.111 C492.07,84.191 492.124,82.646 491.204,81.66 C490.283,80.674 488.738,80.621 487.752,81.541 Z" />
        </g>
        <g id="Black-S">
            <path d="M683.721,102.861 L683.721,132.163 C683.721,133.512 684.814,134.605 686.163,134.605 C687.511,134.605 688.604,133.512 688.604,132.163 L688.604,102.861 C688.604,101.512 687.511,100.419 686.163,100.419 C684.814,100.419 683.721,101.512 683.721,102.861 Z M641.396,132.163 L641.396,143.558 C641.396,144.907 642.489,146 643.837,146 L686.163,146 C687.511,146 688.604,144.907 688.604,143.558 L688.604,132.163 C688.604,130.814 687.511,129.721 686.163,129.721 C684.814,129.721 683.721,130.814 683.721,132.163 L683.721,143.558 L686.163,141.116 L643.837,141.116 L646.279,143.558 L646.279,132.163 C646.279,130.814 645.186,129.721 643.837,129.721 C642.489,129.721 641.396,130.814 641.396,132.163 Z M643.837,129.721 L632.442,129.721 L634.884,132.163 L634.884,91.466 L634.169,93.192 L642.308,85.053 L641.543,85.571 L652.939,80.687 L651.977,80.884 L678.023,80.884 L677.061,80.687 L688.456,85.571 L687.692,85.053 L695.831,93.192 L695.116,91.466 L695.116,132.163 L697.558,129.721 L686.163,129.721 C684.814,129.721 683.721,130.814 683.721,132.163 C683.721,133.512 684.814,134.605 686.163,134.605 L697.558,134.605 C698.906,134.605 700,133.512 700,132.163 L700,91.466 C700,90.818 699.742,90.197 699.284,89.739 L691.145,81.599 C690.925,81.38 690.666,81.204 690.38,81.082 L678.985,76.198 C678.681,76.068 678.354,76.001 678.023,76.001 L651.977,76.001 C651.646,76.001 651.319,76.068 651.015,76.198 L639.62,81.082 C639.334,81.204 639.075,81.38 638.855,81.599 L630.715,89.739 C630.258,90.197 630,90.818 630,91.466 L630,132.163 C630,133.512 631.094,134.605 632.442,134.605 L643.837,134.605 C645.186,134.605 646.279,133.512 646.279,132.163 C646.279,130.814 645.186,129.721 643.837,129.721 Z M646.279,132.163 L646.279,102.861 C646.279,101.512 645.186,100.419 643.837,100.419 C642.489,100.419 641.396,101.512 641.396,102.861 L641.396,132.163 C641.396,133.512 642.489,134.605 643.837,134.605 C645.186,134.605 646.279,133.512 646.279,132.163 Z" />
            <path d="M662.558,106.117 L662.558,143.558 C662.558,144.907 663.651,146 665,146 C666.349,146 667.442,144.907 667.442,143.558 L667.442,106.117 C667.442,104.768 666.349,103.675 665,103.675 C663.651,103.675 662.558,104.768 662.558,106.117 Z" />
            <path d="M638.915,85.111 L663.334,107.902 C664.32,108.822 665.865,108.769 666.785,107.783 C667.705,106.797 667.652,105.252 666.666,104.331 L642.248,81.541 C641.262,80.621 639.717,80.674 638.796,81.66 C637.876,82.646 637.93,84.191 638.915,85.111 Z" />
            <path d="M649.767,79.482 L662.791,107.156 C663.365,108.377 664.819,108.9 666.04,108.326 C667.26,107.752 667.784,106.297 667.209,105.077 L654.186,77.403 C653.612,76.182 652.157,75.659 650.937,76.233 C649.717,76.807 649.193,78.262 649.767,79.482 Z" />
            <path d="M675.814,77.403 L662.791,105.077 C662.216,106.297 662.74,107.752 663.96,108.326 C665.18,108.9 666.635,108.377 667.209,107.156 L680.233,79.482 C680.807,78.262 680.283,76.807 679.063,76.233 C677.843,75.659 676.388,76.182 675.814,77.403 Z" />
            <path d="M687.752,81.541 L663.334,104.331 C662.348,105.252 662.295,106.797 663.215,107.783 C664.135,108.769 665.68,108.822 666.666,107.902 L691.084,85.111 C692.07,84.191 692.124,82.646 691.203,81.66 C690.283,80.674 688.738,80.621 687.752,81.541 Z" />
        </g>
    </g>
</svg>