<?xml version="1.0" encoding="UTF-8"?>
<svg height="600" width="800" xmlns="http://www.w3.org/2000/svg" xmlns:xlink="http://www.w3.org/1999/xlink">
    <g id="Notes" font-family="'LucidaGrande', 'Lucida Grande', sans-serif" font-size="13">
        <rect fill="white" height="600.0" width="800.0" x="0.0" y="0.0" />
        <g font-size="13">
            <text x="18.0" y="176.0">Small</text>
            <text x="18.0" y="376.0">Medium</text>
            <text x="18.0" y="576.0">Large</text>
        </g>
        <g font-size="9">
            <text x="250.0" y="30.0">Ultralight</text>
            <text x="450.0" y="30.0">Regular</text>
            <text x="650.0" y="30.0">Black</text>
            <text id="template-version" fill="#505050" text-anchor="end" x="785.0" y="575.0">Template v.3.0</text>
            <a href="https://github.com/swhitty/SwiftDraw">
                <text fill="#505050" text-anchor="end" x="785.0" y="590.0">https://github.com/swhitty/SwiftDraw</text>
            </a>
        </g>
    </g>
    <g id="Guides" stroke="rgb(39, 170, 225)" stroke-width="0.5">
        <path id="Capline-S" d="M18,76 l800,0" />
        <path id="H-reference" d="M85,145.755 L87.685,145.755 L113.369,79.287 L114.052,79.287 L114.052,76 L112.148,76 L85,145.755 Z M95.693,121.536 L130.996,121.536 L130.263,119.313 L96.474,119.313 L95.693,121.536 Z M139.15,145.755 L141.787,145.755 L114.638,76 L113.466,76 L113.466,79.287 L139.15,145.755 Z" stroke="none" />
        <path id="Baseline-S" d="M18,146 l800,0" />
        <path id="left-margin-Ultralight-S" d="M220,56 l0,110" />
        <path id="right-margin-Ultralight-S" d="M310,56 l0,110" />
        <path id="left-margin-Regular-S" d="M420,56 l0,110" />
        <path id="right-margin-Regular-S" d="M510,56 l0,110" />
        <path id="left-margin-Black-S" d="M620,56 l0,110" />
        <path id="right-margin-Black-S" d="M710,56 l0,110" />
        <path id="Capline-M" d="M18,276 l800,0" />
        <path id="Baseline-M" d="M18,346 l800,0" />
        <path id="Capline-L" d="M18,476 l800,0" />
        <path id="Baseline-L" d="M18,546 l800,0" />
    </g>
    <g id="Symbols">
        <g id="Ultralight-S">
            <path d="M265,146 C284.33,146 300,130.33 300,111 C300,91.67 284.33,76 265,76 C245.67,76 230,91.67 230,111 C230,130.33 245.67,146 265,146 Z M265,141.116 C248.367,141.116 234.884,127.633 234.884,111 C234.884,94.367 248.367,80.884 265,80.884 C281.633,80.884 295.116,94.367 295.116,111 C295.116,127.633 281.633,141.116 265,141.116 Z" />
            <path d="M251.421,123.487 C251.956,124.558 252.995,126.025 254.628,127.476 C257.343,129.89 260.808,131.349 265,131.349 C269.192,131.349 272.657,129.89 275.372,127.476 C277.005,126.025 278.044,124.558 278.579,123.487 C279.183,122.281 278.694,120.814 277.487,120.211 C276.281,119.608 274.814,120.097 274.211,121.303 C274.163,121.4 274.015,121.65 273.767,122.001 C273.329,122.62 272.783,123.244 272.128,123.826 C270.265,125.482 267.93,126.465 265,126.465 C262.07,126.465 259.735,125.482 257.872,123.826 C257.217,123.244 256.671,122.62 256.233,122.001 C255.985,121.65 255.837,121.4 255.789,121.303 C255.186,120.097 253.719,119.608 252.513,120.211 C251.306,120.814 250.817,122.281 251.421,123.487 Z" />
            <path d="M250.25,99.703 L255.134,104.587 L255.134,101.134 L250.25,106.018 C249.296,106.971 249.296,108.517 250.25,109.471 C251.204,110.424 252.75,110.424 253.703,109.471 L258.587,104.587 C259.541,103.634 259.541,102.087 258.587,101.134 L253.703,96.25 C252.75,95.296 251.204,95.296 250.25,96.25 C249.296,97.204 249.296,98.75 250.25,99.703 Z" />
            <path d="M276.297,96.25 L271.413,101.134 C270.459,102.087 270.459,103.634 271.413,104.587 L276.297,109.471 C277.25,110.424 278.796,110.424 279.75,109.471 C280.704,108.517 280.704,106.971 279.75,106.018 L274.866,101.134 L274.866,104.587 L279.75,99.703 C280.704,98.75 280.704,97.204 279.75,96.25 C278.796,95.296 277.25,95.296 276.297,96.25 Z" />
        </g>
        <g id="Regular-S">
            <path d="M465,146 C484.33,146 500,130.33 500,111 C500,91.67 484.33,76 465,76 C445.67,76 430,91.67 430,111 C430,130.33 445.67,146 465,146 Z M465,141.116 C448.367,141.116 434.884,127.633 434.884,111 C434.884,94.367 448.367,80.884 465,80.884 C481.633,80.884 495.116,94.367 495.116,111 C495.116,127.633 481.633,141.116 465,141.116 Z" />
            <path d="M451.421,123.487 C451.956,124.558 452.995,126.025 454.628,127.476 C457.343,129.89 460.808,131.349 465,131.349 C469.192,131.349 472.657,129.89 475.372,127.476 C477.005,126.025 478.044,124.558 478.579,123.487 C479.183,122.281 478.694,120.814 477.487,120.211 C476.281,119.608 474.814,120.097 474.211,121.303 C474.163,121.4 474.015,121.65 473.767,122.001 C473.329,122.62 472.783,123.244 472.128,123.826 C470.265,125.482 467.93,126.465 465,126.465 C462.07,126.465 459.735,125.482 457.872,123.826 C457.217,123.244 456.671,122.62 456.233,122.001 C455.985,121.65 455.837,121.4 455.789,121.303 C455.186,120.097 453.719,119.608 452.513,120.211 C451.306,120.814 450.817,122.281 451.421,123.487 Z" />
            <path d="M450.25,99.703 L455.134,104.587 L455.134,101.134 L450.25,106.018 C449.296,106.971 449.296,108.517 450.25,109.471 C451.204,110.424 452.75,110.424 453.703,109.471 L458.587,104.587 C459.541,103.634 459.541,102.087 458.587,101.134 L453.703,96.25 C452.75,95.296 451.204,95.296 450.25,96.25 C449.296,97.204 449.296,98.75 450.25,99.703 Z" />
            <path d="M476.297,96.25 L471.413,101.134 C470.459,102.087 470.459,103.634 471.413,104.587 L476.297,109.471 C477.25,110.424 478.796,110.424 479.75,109.471 C480.704,108.517 480.704,106.971 479.75,106.018 L474.866,101.134 L474.866,104.587 L479.75,99.703 C480.704,98.75 480.704,97.204 479.75,96.25 C478.796,95.296 477.25,95.296 476.297,96.25 Z" />
        </g>
        <g id="Black-S">
            <path d="M665,146 C684.33,146 700,130.33 700,111 C700,91.67 684.33,76 665,76 C645.67,76 630,91.67 630,111 C630,130.33 645.67,146 665,146 Z M665,141.116 C648.367,141.116 634.884,127.633 634.884,111 C634.884,94.367 648.367,80.884 665,80.884 C681.633,80.884 695.116,94.367 695.116,111 C695.116,127.633 681.633,141.116 665,141.116 Z" />
            <path d="M651.421,123.487 C651.956,124.558 652.995,126.025 654.628,127.476 C657.343,129.89 660.808,131.349 665,131.349 C669.192,131.349 672.657,129.89 675.372,127.476 C677.005,126.025 678.044,124.558 678.579,123.487 C679.183,122.281 678.694,120.814 677.487,120.211 C676.281,119.608 674.814,120.097 674.211,121.303 C674.163,121.4 674.015,121.65 673.767,122.001 C673.329,122.62 672.783,123.244 672.128,123.826 C670.265,125.482 667.93,126.465 665,126.465 C662.07,126.465 659.735,125.482 657.872,123.826 C657.217,123.244 656.671,122.62 656.233,122.001 C655.985,121.65 655.837,121.4 655.789,121.303 C655.186,120.097 653.719,119.608 652.513,120.211 C651.306,120.814 650.818,122.281 651.421,123.487 Z" />
            <path d="M650.25,99.703 L655.134,104.587 L655.134,101.134 L650.25,106.018 C649.297,106.971 649.297,108.517 650.25,109.471 C651.204,110.424 652.75,110.424 653.703,109.471 L658.587,104.587 C659.541,103.634 659.541,102.087 658.587,101.134 L653.703,96.25 C652.75,95.296 651.204,95.296 650.25,96.25 C649.297,97.204 649.297,98.75 650.25,99.703 Z" />
            <path d="M676.297,96.25 L671.413,101.134 C670.459,102.087 670.459,103.634 671.413,104.587 L676.297,109.471 C677.25,110.424 678.796,110.424 679.75,109.471 C680.703,108.517 680.703,106.971 679.75,106.018 L674.866,101.134 L674.866,104.587 L679.75,99.703 C680.703,98.75 680.703,97.204 679.75,96.25 C678.796,95.296 677.25,95.296 676.297,96.25 Z" />
        </g>
    </g>
</svg>