<?xml version="1.0" encoding="UTF-8"?>
<svg height="600" width="800" xmlns="http://www.w3.org/2000/svg" xmlns:xlink="http://www.w3.org/1999/xlink">
    <g id="Notes" font-family="'LucidaGrande', 'Lucida Grande', sans-serif" font-size="13">
        <rect fill="white" height="600.0" width="800.0" x="0.0" y="0.0" />
        <g font-size="13">
            <text x="18.0" y="176.0">Small</text>
            <text x="18.0" y="376.0">Medium</text>
            <text x="18.0" y="576.0">Large</text>
        </g>
        <g font-size="9">
            <text x="250.0" y="30.0">Ultralight</text>
            <text x="450.0" y="30.0">Regular</text>
            <text x="650.0" y="30.0">Black</text>
            <text id="template-version" fill="#505050" text-anchor="end" x="785.0" y="575.0">Template v.3.0</text>
            <a href="https://github.com/swhitty/SwiftDraw">
                <text fill="#505050" text-anchor="end" x="785.0" y="590.0">https://github.com/swhitty/SwiftDraw</text>
            </a>
        </g>
    </g>
    <g id="Guides" stroke="rgb(39, 170, 225)" stroke-width="0.5">
        <path id="Capline-S" d="M18,76 l800,0" />
        <path id="H-reference" d="M85,145.755 L87.685,145.755 L113.369,79.287 L114.052,79.287 L114.052,76 L112.148,76 L85,145.755 Z M95.693,121.536 L130.996,121.536 L130.263,119.313 L96.474,119.313 L95.693,121.536 Z M139.15,145.755 L141.787,145.755 L114.638,76 L113.466,76 L113.466,79.287 L139.15,145.755 Z" stroke="none" />
        <path id="Baseline-S" d="M18,146 l800,0" />
        <path id="left-margin-Ultralight-S" d="M221,56 l0,110" />
        <path id="right-margin-Ultralight-S" d="M309,56 l0,110" />
        <path id="left-margin-Regular-S" d="M421,56 l0,110" />
        <path id="right-margin-Regular-S" d="M509,56 l0,110" />
        <path id="left-margin-Black-S" d="M621,56 l0,110" />
        <path id="right-margin-Black-S" d="M709,56 l0,110" />
        <path id="Capline-M" d="M18,276 l800,0" />
        <path id="Baseline-M" d="M18,346 l800,0" />
        <path id="Capline-L" d="M18,476 l800,0" />
        <path id="Baseline-L" d="M18,546 l800,0" />
    </g>
    <g id="Symbols">
        <g id="Ultralight-S">
            <path d="M262.558,99.605 L262.558,122.395 C262.558,123.744 263.651,124.837 265,124.837 C266.349,124.837 267.442,123.744 267.442,122.395 L267.442,99.605 C267.442,98.256 266.349,97.163 265,97.163 C263.651,97.163 262.558,98.256 262.558,99.605 Z" />
            <path d="M277.209,89.837 L277.209,132.163 C277.209,133.511 278.303,134.605 279.651,134.605 C281,134.605 282.093,133.511 282.093,132.163 L282.093,89.837 C282.093,88.489 281,87.395 279.651,87.395 C278.303,87.395 277.209,88.489 277.209,89.837 Z" />
            <path d="M233.256,99.605 L233.256,122.395 C233.256,123.744 234.349,124.837 235.698,124.837 C237.046,124.837 238.14,123.744 238.14,122.395 L238.14,99.605 C238.14,98.256 237.046,97.163 235.698,97.163 C234.349,97.163 233.256,98.256 233.256,99.605 Z" />
            <path d="M291.86,101.233 L291.86,120.767 C291.86,122.116 292.954,123.209 294.302,123.209 C295.651,123.209 296.744,122.116 296.744,120.767 L296.744,101.233 C296.744,99.884 295.651,98.791 294.302,98.791 C292.954,98.791 291.86,99.884 291.86,101.233 Z" />
            <path d="M247.907,78.442 L247.907,143.558 C247.907,144.907 249,146 250.349,146 C251.697,146 252.791,144.907 252.791,143.558 L252.791,78.442 C252.791,77.093 251.697,76 250.349,76 C249,76 247.907,77.093 247.907,78.442 Z" />
        </g>
        <g id="Regular-S">
            <path d="M462.558,99.605 L462.558,122.395 C462.558,123.744 463.651,124.837 465,124.837 C466.349,124.837 467.442,123.744 467.442,122.395 L467.442,99.605 C467.442,98.256 466.349,97.163 465,97.163 C463.651,97.163 462.558,98.256 462.558,99.605 Z" />
            <path d="M477.209,89.837 L477.209,132.163 C477.209,133.511 478.303,134.605 479.651,134.605 C481,134.605 482.093,133.511 482.093,132.163 L482.093,89.837 C482.093,88.489 481,87.395 479.651,87.395 C478.303,87.395 477.209,88.489 477.209,89.837 Z" />
            <path d="M433.256,99.605 L433.256,122.395 C433.256,123.744 434.349,124.837 435.698,124.837 C437.046,124.837 438.14,123.744 438.14,122.395 L438.14,99.605 C438.14,98.256 437.046,97.163 435.698,97.163 C434.349,97.163 433.256,98.256 433.256,99.605 Z" />
            <path d="M491.86,101.233 L491.86,120.767 C491.86,122.116 492.954,123.209 494.302,123.209 C495.651,123.209 496.744,122.116 496.744,120.767 L496.744,101.233 C496.744,99.884 495.651,98.791 494.302,98.791 C492.954,98.791 491.86,99.884 491.86,101.233 Z" />
            <path d="M447.907,78.442 L447.907,143.558 C447.907,144.907 449,146 450.349,146 C451.697,146 452.791,144.907 452.791,143.558 L452.791,78.442 C452.791,77.093 451.697,76 450.349,76 C449,76 447.907,77.093 447.907,78.442 Z" />
        </g>
        <g id="Black-S">
            <path d="M662.558,99.605 L662.558,122.395 C662.558,123.744 663.651,124.837 665,124.837 C666.349,124.837 667.442,123.744 667.442,122.395 L667.442,99.605 C667.442,98.256 666.349,97.163 665,97.163 C663.651,97.163 662.558,98.256 662.558,99.605 Z" />
            <path d="M677.209,89.837 L677.209,132.163 C677.209,133.511 678.303,134.605 679.651,134.605 C681,134.605 682.093,133.511 682.093,132.163 L682.093,89.837 C682.093,88.489 681,87.395 679.651,87.395 C678.303,87.395 677.209,88.489 677.209,89.837 Z" />
            <path d="M633.256,99.605 L633.256,122.395 C633.256,123.744 634.349,124.837 635.698,124.837 C637.046,124.837 638.14,123.744 638.14,122.395 L638.14,99.605 C638.14,98.256 637.046,97.163 635.698,97.163 C634.349,97.163 633.256,98.256 633.256,99.605 Z" />
            <path d="M691.86,101.233 L691.86,120.767 C691.86,122.116 692.954,123.209 694.302,123.209 C695.651,123.209 696.744,122.116 696.744,120.767 L696.744,101.233 C696.744,99.884 695.651,98.791 694.302,98.791 C692.954,98.791 691.86,99.884 691.86,101.233 Z" />
            <path d="M647.907,78.442 L647.907,143.558 C647.907,144.907 649,146 650.349,146 C651.697,146 652.791,144.907 652.791,143.558 L652.791,78.442 C652.791,77.093 651.697,76 650.349,76 C649,76 647.907,77.093 647.907,78.442 Z" />
        </g>
    </g>
</svg>