<?xml version="1.0" encoding="UTF-8"?>
<svg height="600" width="800" xmlns="http://www.w3.org/2000/svg" xmlns:xlink="http://www.w3.org/1999/xlink">
    <g id="Notes" font-family="'LucidaGrande', 'Lucida Grande', sans-serif" font-size="13">
        <rect fill="white" height="600.0" width="800.0" x="0.0" y="0.0" />
        <g font-size="13">
            <text x="18.0" y="176.0">Small</text>
            <text x="18.0" y="376.0">Medium</text>
            <text x="18.0" y="576.0">Large</text>
        </g>
        <g font-size="9">
            <text x="250.0" y="30.0">Ultralight</text>
            <text x="450.0" y="30.0">Regular</text>
            <text x="650.0" y="30.0">Black</text>
            <text id="template-version" fill="#505050" text-anchor="end" x="785.0" y="575.0">Template v.3.0</text>
            <a href="https://github.com/swhitty/SwiftDraw">
                <text fill="#505050" text-anchor="end" x="785.0" y="590.0">https://github.com/swhitty/SwiftDraw</text>
            </a>
        </g>
    </g>
    <g id="Guides" stroke="rgb(39, 170, 225)" stroke-width="0.5">
        <path id="Capline-S" d="M18,76 l800,0" />
        <path id="H-reference" d="M85,145.755 L87.685,145.755 L113.369,79.287 L114.052,79.287 L114.052,76 L112.148,76 L85,145.755 Z M95.693,121.536 L130.996,121.536 L130.263,119.313 L96.474,119.313 L95.693,121.536 Z M139.15,145.755 L141.787,145.755 L114.638,76 L113.466,76 L113.466,79.287 L139.15,145.755 Z" stroke="none" />
        <path id="Baseline-S" d="M18,146 l800,0" />
        <path id="left-margin-Ultralight-S" d="M221,56 l0,110" />
        <path id="right-margin-Ultralight-S" d="M309,56 l0,110" />
        <path id="left-margin-Regular-S" d="M421,56 l0,110" />
        <path id="right-margin-Regular-S" d="M509,56 l0,110" />
        <path id="left-margin-Black-S" d="M621,56 l0,110" />
        <path id="right-margin-Black-S" d="M709,56 l0,110" />
        <path id="Capline-M" d="M18,276 l800,0" />
        <path id="Baseline-M" d="M18,346 l800,0" />
        <path id="Capline-L" d="M18,476 l800,0" />
        <path id="Baseline-L" d="M18,546 l800,0" />
    </g>
    <g id="Symbols">
        <g id="Ultralight-S">
            <path d="M238.14,91.465 L238.14,78.442 L235.698,80.884 L261.744,80.884 L259.302,78.442 L259.302,91.465 C259.302,92.814 260.396,93.907 261.744,93.907 C263.093,93.907 264.186,92.814 264.186,91.465 L264.186,78.442 C264.186,77.093 263.093,76 261.744,76 L235.698,76 C234.349,76 233.256,77.093 233.256,78.442 L233.256,91.465 C233.256,92.814 234.349,93.907 235.698,93.907 C237.046,93.907 238.14,92.814 238.14,91.465 Z" />
            <path d="M259.302,130.535 L259.302,143.558 L261.744,141.116 L235.698,141.116 L238.14,143.558 L238.14,130.535 C238.14,129.186 237.046,128.093 235.698,128.093 C234.349,128.093 233.256,129.186 233.256,130.535 L233.256,143.558 C233.256,144.907 234.349,146 235.698,146 L261.744,146 C263.093,146 264.186,144.907 264.186,143.558 L264.186,130.535 C264.186,129.186 263.093,128.093 261.744,128.093 C260.396,128.093 259.302,129.186 259.302,130.535 Z" />
            <path d="M294.302,108.558 L261.744,108.558 C260.396,108.558 259.302,109.651 259.302,111 C259.302,112.349 260.396,113.442 261.744,113.442 L294.302,113.442 C295.651,113.442 296.744,112.349 296.744,111 C296.744,109.651 295.651,108.558 294.302,108.558 Z" />
            <path d="M251.163,127.279 L251.163,94.721 C251.163,93.372 250.07,92.279 248.721,92.279 C247.372,92.279 246.279,93.372 246.279,94.721 L246.279,127.279 C246.279,128.628 247.372,129.721 248.721,129.721 C250.07,129.721 251.163,128.628 251.163,127.279 Z" />
            <path d="M279.552,99.703 L292.576,112.727 L292.576,109.273 L279.552,122.297 C278.599,123.25 278.599,124.796 279.552,125.75 C280.506,126.704 282.052,126.704 283.006,125.75 L296.029,112.727 C296.983,111.773 296.983,110.227 296.029,109.273 L283.006,96.25 C282.052,95.296 280.506,95.296 279.552,96.25 C278.599,97.204 278.599,98.75 279.552,99.703 Z" />
        </g>
        <g id="Regular-S">
            <path d="M438.14,91.465 L438.14,78.442 L435.698,80.884 L461.744,80.884 L459.302,78.442 L459.302,91.465 C459.302,92.814 460.396,93.907 461.744,93.907 C463.093,93.907 464.186,92.814 464.186,91.465 L464.186,78.442 C464.186,77.093 463.093,76 461.744,76 L435.698,76 C434.349,76 433.256,77.093 433.256,78.442 L433.256,91.465 C433.256,92.814 434.349,93.907 435.698,93.907 C437.046,93.907 438.14,92.814 438.14,91.465 Z" />
            <path d="M459.302,130.535 L459.302,143.558 L461.744,141.116 L435.698,141.116 L438.14,143.558 L438.14,130.535 C438.14,129.186 437.046,128.093 435.698,128.093 C434.349,128.093 433.256,129.186 433.256,130.535 L433.256,143.558 C433.256,144.907 434.349,146 435.698,146 L461.744,146 C463.093,146 464.186,144.907 464.186,143.558 L464.186,130.535 C464.186,129.186 463.093,128.093 461.744,128.093 C460.396,128.093 459.302,129.186 459.302,130.535 Z" />
            <path d="M494.302,108.558 L461.744,108.558 C460.396,108.558 459.302,109.651 459.302,111 C459.302,112.349 460.396,113.442 461.744,113.442 L494.302,113.442 C495.651,113.442 496.744,112.349 496.744,111 C496.744,109.651 495.651,108.558 494.302,108.558 Z" />
            <path d="M451.163,127.279 L451.163,94.721 C451.163,93.372 450.07,92.279 448.721,92.279 C447.372,92.279 446.279,93.372 446.279,94.721 L446.279,127.279 C446.279,128.628 447.372,129.721 448.721,129.721 C450.07,129.721 451.163,128.628 451.163,127.279 Z" />
            <path d="M479.552,99.703 L492.576,112.727 L492.576,109.273 L479.552,122.297 C478.599,123.25 478.599,124.796 479.552,125.75 C480.506,126.704 482.052,126.704 483.006,125.75 L496.029,112.727 C496.983,111.773 496.983,110.227 496.029,109.273 L483.006,96.25 C482.052,95.296 480.506,95.296 479.552,96.25 C478.599,97.204 478.599,98.75 479.552,99.703 Z" />
        </g>
        <g id="Black-S">
            <path d="M638.14,91.465 L638.14,78.442 L635.698,80.884 L661.744,80.884 L659.302,78.442 L659.302,91.465 C659.302,92.814 660.396,93.907 661.744,93.907 C663.093,93.907 664.186,92.814 664.186,91.465 L664.186,78.442 C664.186,77.093 663.093,76 661.744,76 L635.698,76 C634.349,76 633.256,77.093 633.256,78.442 L633.256,91.465 C633.256,92.814 634.349,93.907 635.698,93.907 C637.046,93.907 638.14,92.814 638.14,91.465 Z" />
            <path d="M659.302,130.535 L659.302,143.558 L661.744,141.116 L635.698,141.116 L638.14,143.558 L638.14,130.535 C638.14,129.186 637.046,128.093 635.698,128.093 C634.349,128.093 633.256,129.186 633.256,130.535 L633.256,143.558 C633.256,144.907 634.349,146 635.698,146 L661.744,146 C663.093,146 664.186,144.907 664.186,143.558 L664.186,130.535 C664.186,129.186 663.093,128.093 661.744,128.093 C660.396,128.093 659.302,129.186 659.302,130.535 Z" />
            <path d="M694.302,108.558 L661.744,108.558 C660.396,108.558 659.302,109.651 659.302,111 C659.302,112.349 660.396,113.442 661.744,113.442 L694.302,113.442 C695.651,113.442 696.744,112.349 696.744,111 C696.744,109.651 695.651,108.558 694.302,108.558 Z" />
            <path d="M651.163,127.279 L651.163,94.721 C651.163,93.372 650.07,92.279 648.721,92.279 C647.372,92.279 646.279,93.372 646.279,94.721 L646.279,127.279 C646.279,128.628 647.372,129.721 648.721,129.721 C650.07,129.721 651.163,128.628 651.163,127.279 Z" />
            <path d="M679.552,99.703 L692.576,112.727 L692.576,109.273 L679.552,122.297 C678.599,123.25 678.599,124.796 679.552,125.75 C680.506,126.704 682.052,126.704 683.006,125.75 L696.029,112.727 C696.983,111.773 696.983,110.227 696.029,109.273 L683.006,96.25 C682.052,95.296 680.506,95.296 679.552,96.25 C678.599,97.204 678.599,98.75 679.552,99.703 Z" />
        </g>
    </g>
</svg>