<?xml version="1.0" encoding="UTF-8"?>
<svg height="600" width="800" xmlns="http://www.w3.org/2000/svg" xmlns:xlink="http://www.w3.org/1999/xlink">
    <g id="Notes" font-family="'LucidaGrande', 'Lucida Grande', sans-serif" font-size="13">
        <rect fill="white" height="600.0" width="800.0" x="0.0" y="0.0" />
        <g font-size="13">
            <text x="18.0" y="176.0">Small</text>
            <text x="18.0" y="376.0">Medium</text>
            <text x="18.0" y="576.0">Large</text>
        </g>
        <g font-size="9">
            <text x="250.0" y="30.0">Ultralight</text>
            <text x="450.0" y="30.0">Regular</text>
            <text x="650.0" y="30.0">Black</text>
            <text id="template-version" fill="#505050" text-anchor="end" x="785.0" y="575.0">Template v.3.0</text>
            <a href="https://github.com/swhitty/SwiftDraw">
                <text fill="#505050" text-anchor="end" x="785.0" y="590.0">https://github.com/swhitty/SwiftDraw</text>
            </a>
        </g>
    </g>
    <g id="Guides" stroke="rgb(39, 170, 225)" stroke-width="0.5">
        <path id="Capline-S" d="M18,76 l800,0" />
        <path id="H-reference" d="M85,145.755 L87.685,145.755 L113.369,79.287 L114.052,79.287 L114.052,76 L112.148,76 L85,145.755 Z M95.693,121.536 L130.996,121.536 L130.263,119.313 L96.474,119.313 L95.693,121.536 Z M139.15,145.755 L141.787,145.755 L114.638,76 L113.466,76 L113.466,79.287 L139.15,145.755 Z" stroke="none" />
        <path id="Baseline-S" d="M18,146 l800,0" />
        <path id="left-margin-Ultralight-S" d="M220,56 l0,110" />
        <path id="right-margin-Ultralight-S" d="M310,56 l0,110" />
        <path id="left-margin-Regular-S" d="M420,56 l0,110" />
        <path id="right-margin-Regular-S" d="M510,56 l0,110" />
        <path id="left-margin-Black-S" d="M620,56 l0,110" />
        <path id="right-margin-Black-S" d="M710,56 l0,110" />
        <path id="Capline-M" d="M18,276 l800,0" />
        <path id="Baseline-M" d="M18,346 l800,0" />
        <path id="Capline-L" d="M18,476 l800,0" />
        <path id="Baseline-L" d="M18,546 l800,0" />
    </g>
    <g id="Symbols">
        <g id="Ultralight-S">
            <path d="M239.534,94.256 C239.535,89.443 243.439,85.54 248.254,85.54 C253.069,85.539 256.973,89.441 256.976,94.256 C256.977,97.374 255.315,100.254 252.616,101.813 C249.917,103.371 246.591,103.371 243.893,101.812 C241.194,100.253 239.532,97.373 239.534,94.256 C239.535,91.005 234.66,90.996 234.65,94.248 L234.65,94.248 L237.092,94.256 L239.534,94.256 Z M234.65,94.255 C234.649,97.506 239.524,97.514 239.534,94.263 L239.534,94.262 L237.092,94.255 L234.65,94.254 C234.648,99.116 237.24,103.609 241.45,106.041 C245.66,108.473 250.847,108.473 255.058,106.042 C259.268,103.611 261.861,99.117 261.859,94.254 C261.856,86.743 255.765,80.656 248.254,80.656 C240.743,80.657 234.653,86.744 234.65,94.255 Z" />
            <path d="M273.022,127.745 C273.024,122.931 276.927,119.028 281.742,119.028 C286.557,119.028 290.461,122.93 290.464,127.745 C290.465,130.862 288.803,133.742 286.104,135.301 C283.405,136.859 280.079,136.859 277.381,135.3 C274.682,133.741 273.02,130.861 273.022,127.744 L270.58,127.743 L268.138,127.743 L268.138,127.744 L270.58,127.744 L273.022,127.745 Z M268.138,127.743 C268.137,130.999 273.022,130.999 273.022,127.744 L273.022,127.743 C273.022,124.487 268.14,124.486 268.138,127.742 C268.136,132.604 270.728,137.097 274.938,139.529 C279.148,141.961 284.336,141.961 288.546,139.53 C292.757,137.099 295.349,132.606 295.348,127.742 C295.344,120.231 289.253,114.144 281.742,114.144 C274.231,114.145 268.141,120.233 268.138,127.743 Z" />
            <path d="M265,141.116 C248.367,141.116 234.884,127.633 234.884,111 L231.35,113.184 L242.202,118.61 C243.409,119.213 244.875,118.725 245.479,117.518 C246.082,116.312 245.593,114.845 244.387,114.242 L233.534,108.816 C231.91,108.004 230,109.185 230,111 C230,130.33 245.67,146 265,146 C266.349,146 267.442,144.907 267.442,143.558 C267.442,142.21 266.349,141.116 265,141.116 Z" />
            <path d="M265,80.884 C281.633,80.884 295.116,94.367 295.116,111 L298.65,108.816 L287.797,103.39 C286.591,102.787 285.124,103.275 284.521,104.482 C283.918,105.688 284.407,107.155 285.613,107.758 L296.466,113.184 C298.09,113.996 300,112.815 300,111 C300,91.67 284.33,76 265,76 C263.651,76 262.558,77.093 262.558,78.442 C262.558,79.79 263.651,80.884 265,80.884 Z" />
        </g>
        <g id="Regular-S">
            <path d="M439.534,94.256 C439.535,89.443 443.439,85.54 448.254,85.54 C453.069,85.539 456.973,89.441 456.976,94.256 C456.977,97.374 455.315,100.254 452.616,101.813 C449.917,103.371 446.591,103.371 443.893,101.812 C441.194,100.253 439.532,97.373 439.534,94.256 C439.535,91.005 434.66,90.996 434.65,94.248 L434.65,94.248 L437.092,94.256 L439.534,94.256 Z M434.65,94.255 C434.649,97.506 439.524,97.514 439.534,94.263 L439.534,94.262 L437.092,94.255 L434.65,94.254 C434.648,99.116 437.24,103.609 441.45,106.041 C445.66,108.473 450.847,108.473 455.058,106.042 C459.268,103.611 461.861,99.117 461.859,94.254 C461.856,86.743 455.765,80.656 448.254,80.656 C440.743,80.657 434.653,86.744 434.65,94.255 Z" />
            <path d="M473.022,127.745 C473.024,122.931 476.927,119.028 481.742,119.028 C486.557,119.028 490.461,122.93 490.464,127.745 C490.465,130.862 488.803,133.742 486.104,135.301 C483.405,136.859 480.079,136.859 477.381,135.3 C474.682,133.741 473.02,130.861 473.022,127.744 L470.58,127.743 L468.138,127.743 L468.138,127.744 L470.58,127.744 L473.022,127.745 Z M468.138,127.743 C468.137,130.999 473.022,130.999 473.022,127.744 L473.022,127.743 C473.022,124.487 468.14,124.486 468.138,127.742 C468.136,132.604 470.728,137.097 474.938,139.529 C479.148,141.961 484.336,141.961 488.546,139.53 C492.757,137.099 495.349,132.606 495.348,127.742 C495.344,120.231 489.253,114.144 481.742,114.144 C474.231,114.145 468.141,120.233 468.138,127.743 Z" />
            <path d="M465,141.116 C448.367,141.116 434.884,127.633 434.884,111 L431.35,113.184 L442.202,118.61 C443.409,119.213 444.875,118.725 445.479,117.518 C446.082,116.312 445.593,114.845 444.387,114.242 L433.534,108.816 C431.91,108.004 430,109.185 430,111 C430,130.33 445.67,146 465,146 C466.349,146 467.442,144.907 467.442,143.558 C467.442,142.21 466.349,141.116 465,141.116 Z" />
            <path d="M465,80.884 C481.633,80.884 495.116,94.367 495.116,111 L498.65,108.816 L487.797,103.39 C486.591,102.787 485.124,103.275 484.521,104.482 C483.918,105.688 484.407,107.155 485.613,107.758 L496.466,113.184 C498.09,113.996 500,112.815 500,111 C500,91.67 484.33,76 465,76 C463.651,76 462.558,77.093 462.558,78.442 C462.558,79.79 463.651,80.884 465,80.884 Z" />
        </g>
        <g id="Black-S">
            <path d="M639.534,94.256 C639.535,89.443 643.439,85.54 648.254,85.54 C653.069,85.539 656.973,89.441 656.976,94.256 C656.977,97.374 655.315,100.254 652.616,101.813 C649.917,103.371 646.591,103.371 643.893,101.812 C641.194,100.253 639.532,97.373 639.534,94.256 C639.535,91.005 634.66,90.996 634.65,94.248 L634.65,94.248 L637.092,94.256 L639.534,94.256 Z M634.65,94.255 C634.649,97.506 639.524,97.514 639.534,94.263 L639.534,94.262 L637.092,94.255 L634.65,94.254 C634.648,99.116 637.24,103.609 641.45,106.041 C645.66,108.473 650.847,108.473 655.058,106.042 C659.268,103.611 661.861,99.117 661.859,94.254 C661.856,86.743 655.765,80.656 648.254,80.656 C640.743,80.657 634.653,86.744 634.65,94.255 Z" />
            <path d="M673.022,127.745 C673.024,122.931 676.927,119.028 681.742,119.028 C686.557,119.028 690.461,122.93 690.464,127.745 C690.465,130.862 688.803,133.742 686.104,135.301 C683.405,136.859 680.079,136.859 677.381,135.3 C674.682,133.741 673.02,130.861 673.022,127.744 L670.58,127.743 L668.138,127.743 L668.138,127.744 L670.58,127.744 L673.022,127.745 Z M668.138,127.743 C668.137,130.999 673.022,130.999 673.022,127.744 L673.022,127.743 C673.022,124.487 668.14,124.486 668.138,127.742 C668.136,132.604 670.728,137.097 674.938,139.529 C679.148,141.961 684.336,141.961 688.546,139.53 C692.757,137.099 695.349,132.606 695.348,127.742 C695.344,120.231 689.253,114.144 681.742,114.144 C674.231,114.145 668.141,120.233 668.138,127.743 Z" />
            <path d="M665,141.116 C648.367,141.116 634.884,127.633 634.884,111 L631.35,113.184 L642.202,118.61 C643.409,119.213 644.875,118.725 645.479,117.518 C646.082,116.312 645.593,114.845 644.387,114.242 L633.534,108.816 C631.91,108.004 630,109.185 630,111 C630,130.33 645.67,146 665,146 C666.349,146 667.442,144.907 667.442,143.558 C667.442,142.21 666.349,141.116 665,141.116 Z" />
            <path d="M665,80.884 C681.633,80.884 695.116,94.367 695.116,111 L698.65,108.816 L687.797,103.39 C686.591,102.787 685.124,103.275 684.521,104.482 C683.918,105.688 684.407,107.155 685.613,107.758 L696.466,113.184 C698.09,113.996 700,112.815 700,111 C700,91.67 684.33,76 665,76 C663.651,76 662.558,77.093 662.558,78.442 C662.558,79.79 663.651,80.884 665,80.884 Z" />
        </g>
    </g>
</svg>