<?xml version="1.0" encoding="UTF-8"?>
<svg height="600" width="800" xmlns="http://www.w3.org/2000/svg" xmlns:xlink="http://www.w3.org/1999/xlink">
    <g id="Notes" font-family="'LucidaGrande', 'Lucida Grande', sans-serif" font-size="13">
        <rect fill="white" height="600.0" width="800.0" x="0.0" y="0.0" />
        <g font-size="13">
            <text x="18.0" y="176.0">Small</text>
            <text x="18.0" y="376.0">Medium</text>
            <text x="18.0" y="576.0">Large</text>
        </g>
        <g font-size="9">
            <text x="250.0" y="30.0">Ultralight</text>
            <text x="450.0" y="30.0">Regular</text>
            <text x="650.0" y="30.0">Black</text>
            <text id="template-version" fill="#505050" text-anchor="end" x="785.0" y="575.0">Template v.3.0</text>
            <a href="https://github.com/swhitty/SwiftDraw">
                <text fill="#505050" text-anchor="end" x="785.0" y="590.0">https://github.com/swhitty/SwiftDraw</text>
            </a>
        </g>
    </g>
    <g id="Guides" stroke="rgb(39, 170, 225)" stroke-width="0.5">
        <path id="Capline-S" d="M18,76 l800,0" />
        <path id="H-reference" d="M85,145.755 L87.685,145.755 L113.369,79.287 L114.052,79.287 L114.052,76 L112.148,76 L85,145.755 Z M95.693,121.536 L130.996,121.536 L130.263,119.313 L96.474,119.313 L95.693,121.536 Z M139.15,145.755 L141.787,145.755 L114.638,76 L113.466,76 L113.466,79.287 L139.15,145.755 Z" stroke="none" />
        <path id="Baseline-S" d="M18,146 l800,0" />
        <path id="left-margin-Ultralight-S" d="M220.814,56 l0,110" />
        <path id="right-margin-Ultralight-S" d="M309.186,56 l0,110" />
        <path id="left-margin-Regular-S" d="M420.814,56 l0,110" />
        <path id="right-margin-Regular-S" d="M509.186,56 l0,110" />
        <path id="left-margin-Black-S" d="M620.814,56 l0,110" />
        <path id="right-margin-Black-S" d="M709.186,56 l0,110" />
        <path id="Capline-M" d="M18,276 l800,0" />
        <path id="Baseline-M" d="M18,346 l800,0" />
        <path id="Capline-L" d="M18,476 l800,0" />
        <path id="Baseline-L" d="M18,546 l800,0" />
    </g>
    <g id="Symbols">
        <g id="Ultralight-S">
            <path d="M285.25,124.122 L295.017,133.889 C295.971,134.843 297.517,134.843 298.471,133.889 C299.424,132.936 299.424,131.39 298.471,130.436 L288.703,120.669 C287.75,119.715 286.204,119.715 285.25,120.669 C284.296,121.622 284.296,123.169 285.25,124.122 Z" />
            <path d="M235.698,143.558 L235.698,101.233 C235.698,92.274 239.971,86.687 251.693,84.082 L251.508,84.115 L274.299,80.859 C275.634,80.669 276.561,79.432 276.371,78.097 C276.18,76.762 274.943,75.834 273.608,76.025 L250.818,79.281 L250.633,79.314 C236.629,82.426 230.814,90.031 230.814,101.233 L230.814,143.558 C230.814,144.907 231.907,146 233.256,146 C234.605,146 235.698,144.907 235.698,143.558 Z" />
            <path d="M254.32,106.215 C254.537,106.432 256.666,108.878 257.554,109.753 C261.025,113.173 265.087,115.07 270.698,115.07 C278.082,115.07 284.535,118.712 284.535,125.651 L284.535,143.558 C284.535,144.907 285.628,146 286.977,146 C288.325,146 289.418,144.907 289.418,143.558 L289.418,125.651 C289.418,115.264 280.421,110.186 270.698,110.186 C266.463,110.186 263.591,108.845 260.982,106.274 C260.267,105.57 258.153,103.142 257.773,102.762 C256.82,101.808 255.273,101.808 254.32,102.762 C253.366,103.715 253.366,105.262 254.32,106.215 Z" />
            <path d="M251.163,84.14 C259.724,84.14 263.372,88.092 263.372,97.977 C263.372,99.326 264.465,100.419 265.814,100.419 C267.163,100.419 268.256,99.326 268.256,97.977 C268.256,85.478 262.512,79.256 251.163,79.256 C249.814,79.256 248.721,80.349 248.721,81.698 C248.721,83.047 249.814,84.14 251.163,84.14 Z" />
            <path d="M276.395,143.558 C276.395,135.017 269.471,128.093 260.93,128.093 C252.389,128.093 245.465,135.017 245.465,143.558 C245.465,144.907 246.558,146 247.907,146 C249.256,146 250.349,144.907 250.349,143.558 C250.349,137.714 255.086,132.977 260.93,132.977 C266.774,132.977 271.512,137.714 271.512,143.558 C271.512,144.907 272.605,146 273.953,146 C275.302,146 276.395,144.907 276.395,143.558 Z" />
        </g>
        <g id="Regular-S">
            <path d="M485.25,124.122 L495.017,133.889 C495.971,134.843 497.517,134.843 498.471,133.889 C499.424,132.936 499.424,131.39 498.471,130.436 L488.703,120.669 C487.75,119.715 486.204,119.715 485.25,120.669 C484.296,121.622 484.296,123.169 485.25,124.122 Z" />
            <path d="M435.698,143.558 L435.698,101.233 C435.698,92.274 439.971,86.687 451.693,84.082 L451.508,84.115 L474.299,80.859 C475.634,80.669 476.561,79.432 476.371,78.097 C476.18,76.762 474.943,75.834 473.608,76.025 L450.818,79.281 L450.633,79.314 C436.629,82.426 430.814,90.031 430.814,101.233 L430.814,143.558 C430.814,144.907 431.907,146 433.256,146 C434.605,146 435.698,144.907 435.698,143.558 Z" />
            <path d="M454.32,106.215 C454.537,106.432 456.666,108.878 457.554,109.753 C461.025,113.173 465.087,115.07 470.698,115.07 C478.082,115.07 484.535,118.712 484.535,125.651 L484.535,143.558 C484.535,144.907 485.628,146 486.977,146 C488.325,146 489.418,144.907 489.418,143.558 L489.418,125.651 C489.418,115.264 480.421,110.186 470.698,110.186 C466.463,110.186 463.591,108.845 460.982,106.274 C460.267,105.57 458.153,103.142 457.773,102.762 C456.82,101.808 455.273,101.808 454.32,102.762 C453.366,103.715 453.366,105.262 454.32,106.215 Z" />
            <path d="M451.163,84.14 C459.724,84.14 463.372,88.092 463.372,97.977 C463.372,99.326 464.465,100.419 465.814,100.419 C467.163,100.419 468.256,99.326 468.256,97.977 C468.256,85.478 462.512,79.256 451.163,79.256 C449.814,79.256 448.721,80.349 448.721,81.698 C448.721,83.047 449.814,84.14 451.163,84.14 Z" />
            <path d="M476.395,143.558 C476.395,135.017 469.471,128.093 460.93,128.093 C452.389,128.093 445.465,135.017 445.465,143.558 C445.465,144.907 446.558,146 447.907,146 C449.256,146 450.349,144.907 450.349,143.558 C450.349,137.714 455.086,132.977 460.93,132.977 C466.774,132.977 471.512,137.714 471.512,143.558 C471.512,144.907 472.605,146 473.953,146 C475.302,146 476.395,144.907 476.395,143.558 Z" />
        </g>
        <g id="Black-S">
            <path d="M685.25,124.122 L695.017,133.889 C695.971,134.843 697.517,134.843 698.471,133.889 C699.424,132.936 699.424,131.39 698.471,130.436 L688.703,120.669 C687.75,119.715 686.204,119.715 685.25,120.669 C684.296,121.622 684.296,123.169 685.25,124.122 Z" />
            <path d="M635.698,143.558 L635.698,101.233 C635.698,92.274 639.971,86.687 651.693,84.082 L651.508,84.115 L674.299,80.859 C675.634,80.669 676.561,79.432 676.371,78.097 C676.18,76.762 674.943,75.834 673.608,76.025 L650.818,79.281 L650.633,79.314 C636.629,82.426 630.814,90.031 630.814,101.233 L630.814,143.558 C630.814,144.907 631.907,146 633.256,146 C634.605,146 635.698,144.907 635.698,143.558 Z" />
            <path d="M654.32,106.215 C654.537,106.432 656.666,108.878 657.554,109.753 C661.025,113.173 665.087,115.07 670.698,115.07 C678.082,115.07 684.535,118.712 684.535,125.651 L684.535,143.558 C684.535,144.907 685.628,146 686.977,146 C688.325,146 689.419,144.907 689.419,143.558 L689.419,125.651 C689.419,115.264 680.421,110.186 670.698,110.186 C666.463,110.186 663.591,108.845 660.982,106.274 C660.267,105.57 658.153,103.142 657.773,102.762 C656.82,101.808 655.273,101.808 654.32,102.762 C653.366,103.715 653.366,105.262 654.32,106.215 Z" />
            <path d="M651.163,84.14 C659.724,84.14 663.372,88.092 663.372,97.977 C663.372,99.326 664.465,100.419 665.814,100.419 C667.163,100.419 668.256,99.326 668.256,97.977 C668.256,85.478 662.512,79.256 651.163,79.256 C649.814,79.256 648.721,80.349 648.721,81.698 C648.721,83.047 649.814,84.14 651.163,84.14 Z" />
            <path d="M676.395,143.558 C676.395,135.017 669.471,128.093 660.93,128.093 C652.389,128.093 645.465,135.017 645.465,143.558 C645.465,144.907 646.558,146 647.907,146 C649.256,146 650.349,144.907 650.349,143.558 C650.349,137.714 655.086,132.977 660.93,132.977 C666.774,132.977 671.512,137.714 671.512,143.558 C671.512,144.907 672.605,146 673.953,146 C675.302,146 676.395,144.907 676.395,143.558 Z" />
        </g>
    </g>
</svg>