<?xml version="1.0" encoding="UTF-8"?>
<svg height="600" width="800" xmlns="http://www.w3.org/2000/svg" xmlns:xlink="http://www.w3.org/1999/xlink">
    <g id="Notes" font-family="'LucidaGrande', 'Lucida Grande', sans-serif" font-size="13">
        <rect fill="white" height="600.0" width="800.0" x="0.0" y="0.0" />
        <g font-size="13">
            <text x="18.0" y="176.0">Small</text>
            <text x="18.0" y="376.0">Medium</text>
            <text x="18.0" y="576.0">Large</text>
        </g>
        <g font-size="9">
            <text x="250.0" y="30.0">Ultralight</text>
            <text x="450.0" y="30.0">Regular</text>
            <text x="650.0" y="30.0">Black</text>
            <text id="template-version" fill="#505050" text-anchor="end" x="785.0" y="575.0">Template v.3.0</text>
            <a href="https://github.com/swhitty/SwiftDraw">
                <text fill="#505050" text-anchor="end" x="785.0" y="590.0">https://github.com/swhitty/SwiftDraw</text>
            </a>
        </g>
    </g>
    <g id="Guides" stroke="rgb(39, 170, 225)" stroke-width="0.5">
        <path id="Capline-S" d="M18,76 l800,0" />
        <path id="H-reference" d="M85,145.755 L87.685,145.755 L113.369,79.287 L114.052,79.287 L114.052,76 L112.148,76 L85,145.755 Z M95.693,121.536 L130.996,121.536 L130.263,119.313 L96.474,119.313 L95.693,121.536 Z M139.15,145.755 L141.787,145.755 L114.638,76 L113.466,76 L113.466,79.287 L139.15,145.755 Z" stroke="none" />
        <path id="Baseline-S" d="M18,146 l800,0" />
        <path id="left-margin-Ultralight-S" d="M212.033,56 l0,110" />
        <path id="right-margin-Ultralight-S" d="M317.967,56 l0,110" />
        <path id="left-margin-Regular-S" d="M412.033,56 l0,110" />
        <path id="right-margin-Regular-S" d="M517.967,56 l0,110" />
        <path id="left-margin-Black-S" d="M612.033,56 l0,110" />
        <path id="right-margin-Black-S" d="M717.967,56 l0,110" />
        <path id="Capline-M" d="M18,276 l800,0" />
        <path id="Baseline-M" d="M18,346 l800,0" />
        <path id="Capline-L" d="M18,476 l800,0" />
        <path id="Baseline-L" d="M18,546 l800,0" />
    </g>
    <g id="Symbols">
        <g id="Ultralight-S">
            <path d="M267.12,145.068 L291.101,121.086 L286.862,116.847 L278.868,124.841 L270.874,132.835 L262.88,140.829 L267.12,145.068 Z M262.88,140.829 C260.054,143.655 264.293,147.894 267.12,145.068 L275.113,137.074 L283.107,129.08 L291.101,121.086 C293.927,118.26 289.688,114.021 286.862,116.847 L262.88,140.829 Z M267.12,140.829 L227.151,100.859 L227.151,105.099 L251.132,81.117 L246.893,81.117 L262.88,97.105 C264.051,98.276 265.949,98.276 267.12,97.105 C268.29,95.934 268.29,94.036 267.12,92.866 L251.132,76.878 C249.961,75.707 248.063,75.707 246.893,76.878 L222.911,100.859 C221.741,102.03 221.741,103.928 222.911,105.099 L262.88,145.068 C264.051,146.239 265.949,146.239 267.12,145.068 C268.29,143.897 268.29,141.999 267.12,140.829 Z" />
            <path d="M253.13,111.094 L283.107,81.117 L278.868,81.117 L302.849,105.099 L302.849,100.859 L286.862,116.847 L291.101,116.847 L275.113,100.859 C273.943,99.689 272.045,99.689 270.874,100.859 L258.883,112.85 L262.545,112.399 L252.553,106.404 L253.13,111.094 Z M248.891,106.855 C247.512,108.234 247.796,110.542 249.469,111.545 L259.461,117.54 C260.64,118.248 262.15,118.062 263.123,117.09 L275.113,105.099 L270.874,105.099 L286.862,121.086 C288.032,122.257 289.93,122.257 291.101,121.086 L307.089,105.099 C308.259,103.928 308.259,102.03 307.089,100.859 L283.107,76.878 C281.937,75.707 280.039,75.707 278.868,76.878 L248.891,106.855 Z M253.13,111.094 L267.12,97.105 C268.29,95.934 268.29,94.036 267.12,92.866 C265.949,91.695 264.051,91.695 262.88,92.866 L248.891,106.855 C247.72,108.026 247.72,109.924 248.891,111.094 C250.062,112.265 251.96,112.265 253.13,111.094 Z" />
            <path d="M275.113,132.835 L269.118,126.839 C267.947,125.669 266.049,125.669 264.879,126.839 C263.708,128.01 263.708,129.908 264.879,131.079 L270.874,137.074 C272.045,138.245 273.943,138.245 275.113,137.074 C276.284,135.903 276.284,134.005 275.113,132.835 Z" />
            <path d="M283.107,124.841 L277.112,118.846 C275.941,117.675 274.043,117.675 272.873,118.846 C271.702,120.016 271.702,121.914 272.873,123.085 L278.868,129.08 C280.039,130.251 281.937,130.251 283.107,129.08 C284.278,127.91 284.278,126.012 283.107,124.841 Z" />
        </g>
        <g id="Regular-S">
            <path d="M467.12,145.068 L491.101,121.086 L486.862,116.847 L478.868,124.841 L470.874,132.835 L462.88,140.829 L467.12,145.068 Z M462.88,140.829 C460.054,143.655 464.293,147.894 467.12,145.068 L475.113,137.074 L483.107,129.08 L491.101,121.086 C493.927,118.26 489.688,114.021 486.862,116.847 L462.88,140.829 Z M467.12,140.829 L427.151,100.859 L427.151,105.099 L451.132,81.117 L446.893,81.117 L462.88,97.105 C464.051,98.276 465.949,98.276 467.12,97.105 C468.29,95.934 468.29,94.036 467.12,92.866 L451.132,76.878 C449.961,75.707 448.063,75.707 446.893,76.878 L422.911,100.859 C421.741,102.03 421.741,103.928 422.911,105.099 L462.88,145.068 C464.051,146.239 465.949,146.239 467.12,145.068 C468.29,143.897 468.29,141.999 467.12,140.829 Z" />
            <path d="M453.13,111.094 L483.107,81.117 L478.868,81.117 L502.849,105.099 L502.849,100.859 L486.862,116.847 L491.101,116.847 L475.113,100.859 C473.943,99.689 472.045,99.689 470.874,100.859 L458.883,112.85 L462.545,112.399 L452.553,106.404 L453.13,111.094 Z M448.891,106.855 C447.512,108.234 447.796,110.542 449.469,111.545 L459.461,117.54 C460.64,118.248 462.15,118.062 463.123,117.09 L475.113,105.099 L470.874,105.099 L486.862,121.086 C488.032,122.257 489.93,122.257 491.101,121.086 L507.089,105.099 C508.259,103.928 508.259,102.03 507.089,100.859 L483.107,76.878 C481.937,75.707 480.039,75.707 478.868,76.878 L448.891,106.855 Z M453.13,111.094 L467.12,97.105 C468.29,95.934 468.29,94.036 467.12,92.866 C465.949,91.695 464.051,91.695 462.88,92.866 L448.891,106.855 C447.72,108.026 447.72,109.924 448.891,111.094 C450.062,112.265 451.96,112.265 453.13,111.094 Z" />
            <path d="M475.113,132.835 L469.118,126.839 C467.947,125.669 466.049,125.669 464.879,126.839 C463.708,128.01 463.708,129.908 464.879,131.079 L470.874,137.074 C472.045,138.245 473.943,138.245 475.113,137.074 C476.284,135.903 476.284,134.005 475.113,132.835 Z" />
            <path d="M483.107,124.841 L477.112,118.846 C475.941,117.675 474.043,117.675 472.873,118.846 C471.702,120.016 471.702,121.914 472.873,123.085 L478.868,129.08 C480.039,130.251 481.937,130.251 483.107,129.08 C484.278,127.91 484.278,126.012 483.107,124.841 Z" />
        </g>
        <g id="Black-S">
            <path d="M667.12,145.068 L691.101,121.086 L686.862,116.847 L678.868,124.841 L670.874,132.835 L662.88,140.829 L667.12,145.068 Z M662.88,140.829 C660.054,143.655 664.293,147.894 667.12,145.068 L675.113,137.074 L683.107,129.08 L691.101,121.086 C693.927,118.26 689.688,114.021 686.862,116.847 L662.88,140.829 Z M667.12,140.829 L627.151,100.859 L627.151,105.099 L651.132,81.117 L646.893,81.117 L662.88,97.105 C664.051,98.276 665.949,98.276 667.12,97.105 C668.29,95.934 668.29,94.036 667.12,92.866 L651.132,76.878 C649.961,75.707 648.063,75.707 646.893,76.878 L622.911,100.859 C621.741,102.03 621.741,103.928 622.911,105.099 L662.88,145.068 C664.051,146.239 665.949,146.239 667.12,145.068 C668.29,143.897 668.29,141.999 667.12,140.829 Z" />
            <path d="M653.13,111.094 L683.107,81.117 L678.868,81.117 L702.849,105.099 L702.849,100.859 L686.862,116.847 L691.101,116.847 L675.113,100.859 C673.943,99.689 672.045,99.689 670.874,100.859 L658.883,112.85 L662.545,112.399 L652.553,106.404 L653.13,111.094 Z M648.891,106.855 C647.512,108.234 647.796,110.542 649.469,111.545 L659.461,117.54 C660.64,118.248 662.15,118.062 663.123,117.09 L675.113,105.099 L670.874,105.099 L686.862,121.086 C688.032,122.257 689.93,122.257 691.101,121.086 L707.089,105.099 C708.259,103.928 708.259,102.03 707.089,100.859 L683.107,76.878 C681.937,75.707 680.039,75.707 678.868,76.878 L648.891,106.855 Z M653.13,111.094 L667.12,97.105 C668.29,95.934 668.29,94.036 667.12,92.866 C665.949,91.695 664.051,91.695 662.88,92.866 L648.891,106.855 C647.72,108.026 647.72,109.924 648.891,111.094 C650.062,112.265 651.96,112.265 653.13,111.094 Z" />
            <path d="M675.113,132.835 L669.118,126.839 C667.947,125.669 666.049,125.669 664.879,126.839 C663.708,128.01 663.708,129.908 664.879,131.079 L670.874,137.074 C672.045,138.245 673.943,138.245 675.113,137.074 C676.284,135.903 676.284,134.005 675.113,132.835 Z" />
            <path d="M683.107,124.841 L677.112,118.846 C675.941,117.675 674.043,117.675 672.873,118.846 C671.702,120.016 671.702,121.914 672.873,123.085 L678.868,129.08 C680.039,130.251 681.937,130.251 683.107,129.08 C684.278,127.91 684.278,126.012 683.107,124.841 Z" />
        </g>
    </g>
</svg>