<?xml version="1.0" encoding="UTF-8"?>
<svg height="600" width="800" xmlns="http://www.w3.org/2000/svg" xmlns:xlink="http://www.w3.org/1999/xlink">
    <g id="Notes" font-family="'LucidaGrande', 'Lucida Grande', sans-serif" font-size="13">
        <rect fill="white" height="600.0" width="800.0" x="0.0" y="0.0" />
        <g font-size="13">
            <text x="18.0" y="176.0">Small</text>
            <text x="18.0" y="376.0">Medium</text>
            <text x="18.0" y="576.0">Large</text>
        </g>
        <g font-size="9">
            <text x="250.0" y="30.0">Ultralight</text>
            <text x="450.0" y="30.0">Regular</text>
            <text x="650.0" y="30.0">Black</text>
            <text id="template-version" fill="#505050" text-anchor="end" x="785.0" y="575.0">Template v.3.0</text>
            <a href="https://github.com/swhitty/SwiftDraw">
                <text fill="#505050" text-anchor="end" x="785.0" y="590.0">https://github.com/swhitty/SwiftDraw</text>
            </a>
        </g>
    </g>
    <g id="Guides" stroke="rgb(39, 170, 225)" stroke-width="0.5">
        <path id="Capline-S" d="M18,76 l800,0" />
        <path id="H-reference" d="M85,145.755 L87.685,145.755 L113.369,79.287 L114.052,79.287 L114.052,76 L112.148,76 L85,145.755 Z M95.693,121.536 L130.996,121.536 L130.263,119.313 L96.474,119.313 L95.693,121.536 Z M139.15,145.755 L141.787,145.755 L114.638,76 L113.466,76 L113.466,79.287 L139.15,145.755 Z" stroke="none" />
        <path id="Baseline-S" d="M18,146 l800,0" />
        <path id="left-margin-Ultralight-S" d="M217.852,56 l0,110" />
        <path id="right-margin-Ultralight-S" d="M312.148,56 l0,110" />
        <path id="left-margin-Regular-S" d="M417.852,56 l0,110" />
        <path id="right-margin-Regular-S" d="M512.148,56 l0,110" />
        <path id="left-margin-Black-S" d="M617.852,56 l0,110" />
        <path id="right-margin-Black-S" d="M712.148,56 l0,110" />
        <path id="Capline-M" d="M18,276 l800,0" />
        <path id="Baseline-M" d="M18,346 l800,0" />
        <path id="Capline-L" d="M18,476 l800,0" />
        <path id="Baseline-L" d="M18,546 l800,0" />
    </g>
    <g id="Symbols">
        <g id="Ultralight-S">
            <path d="M230.447,132.179 L299.553,132.179 L297.355,128.214 L288.717,142.035 L290.915,140.817 L239.085,140.817 L241.283,142.035 L232.645,128.214 L230.447,132.179 Z M230.447,126.996 C228.412,126.996 227.171,129.235 228.25,130.961 L236.888,144.782 C237.361,145.54 238.192,146 239.085,146 L290.915,146 C291.808,146 292.639,145.54 293.112,144.782 L301.75,130.961 C302.829,129.235 301.588,126.996 299.553,126.996 L230.447,126.996 Z" />
            <path d="M239.949,119.222 L239.949,129.588 C239.949,131.019 241.109,132.179 242.541,132.179 L287.459,132.179 C288.891,132.179 290.051,131.019 290.051,129.588 L290.051,120.949 C290.051,115.948 288.953,111.924 287.09,108.818 C285.909,106.85 284.666,105.606 283.714,104.972 L284.3,108.747 C289.254,102.555 289.888,95.267 283.714,91.151 C277.872,87.256 272.32,89.594 268.11,95.207 L270.504,94.191 C270.306,94.166 269.969,94.133 269.509,94.101 C265.21,93.8 260.28,94.187 255.519,95.823 C245.874,99.139 239.949,106.73 239.949,119.222 Z M245.132,119.222 C245.132,109.038 249.573,103.348 257.204,100.725 C261.202,99.351 265.482,99.015 269.148,99.271 C269.511,99.296 269.754,99.32 269.862,99.334 C270.784,99.449 271.698,99.061 272.256,98.317 C275.023,94.628 277.82,93.45 280.839,95.463 C283.895,97.501 283.558,101.378 280.253,105.509 C279.303,106.696 279.574,108.441 280.839,109.284 C281.183,109.514 281.883,110.214 282.646,111.485 C284.022,113.778 284.868,116.88 284.868,120.949 L284.868,129.588 L287.459,126.996 L242.541,126.996 L245.132,129.588 L245.132,119.222 Z" />
            <path d="M258.658,106.538 C257.411,107.161 255.767,108.531 254.206,110.873 C252.581,113.311 252.043,115.732 252.043,117.494 C252.043,118.925 253.203,120.085 254.634,120.085 C256.065,120.085 257.226,118.925 257.226,117.494 C257.226,117.348 257.262,116.967 257.38,116.436 C257.584,115.517 257.952,114.597 258.518,113.748 C259.548,112.203 260.496,111.414 260.976,111.174 C262.256,110.533 262.775,108.977 262.135,107.697 C261.495,106.417 259.938,105.898 258.658,106.538 Z" />
            <path d="M288.924,81.282 C288.3,82.031 288.3,82.031 287.071,83.505 C285.642,85.22 285.642,85.22 284.011,87.178 C281.943,89.659 281.943,89.659 280.286,91.648 L284.267,94.966 C285.925,92.977 285.925,92.977 287.993,90.496 C289.623,88.539 289.623,88.539 291.053,86.823 C292.281,85.349 292.281,85.349 292.906,84.6 L288.924,81.282 Z" />
            <path d="M286.267,77.838 C287.637,75.885 290.331,75.414 292.283,76.785 C294.236,78.155 294.707,80.849 293.336,82.801 C291.966,84.754 289.272,85.225 287.32,83.854 C285.367,82.484 284.896,79.79 286.267,77.838 Z" />
            <path d="M290.508,80.816 C291.879,78.864 294.573,78.392 296.525,79.763 C298.477,81.133 298.949,83.827 297.578,85.779 C296.207,87.732 293.514,88.203 291.561,86.833 C289.609,85.462 289.138,82.768 290.508,80.816 Z" />
        </g>
        <g id="Regular-S">
            <path d="M430.447,132.179 L499.553,132.179 L497.355,128.214 L488.717,142.035 L490.915,140.817 L439.085,140.817 L441.283,142.035 L432.645,128.214 L430.447,132.179 Z M430.447,126.996 C428.412,126.996 427.171,129.235 428.25,130.961 L436.888,144.782 C437.361,145.54 438.192,146 439.085,146 L490.915,146 C491.808,146 492.639,145.54 493.112,144.782 L501.75,130.961 C502.829,129.235 501.588,126.996 499.553,126.996 L430.447,126.996 Z" />
            <path d="M439.949,119.222 L439.949,129.588 C439.949,131.019 441.109,132.179 442.541,132.179 L487.459,132.179 C488.891,132.179 490.051,131.019 490.051,129.588 L490.051,120.949 C490.051,115.948 488.953,111.924 487.09,108.818 C485.909,106.85 484.666,105.606 483.714,104.972 L484.3,108.747 C489.254,102.555 489.888,95.267 483.714,91.151 C477.872,87.256 472.32,89.594 468.11,95.207 L470.504,94.191 C470.306,94.166 469.969,94.133 469.509,94.101 C465.21,93.8 460.28,94.187 455.519,95.823 C445.874,99.139 439.949,106.73 439.949,119.222 Z M445.132,119.222 C445.132,109.038 449.573,103.348 457.204,100.725 C461.202,99.351 465.482,99.015 469.148,99.271 C469.511,99.296 469.754,99.32 469.862,99.334 C470.784,99.449 471.698,99.061 472.256,98.317 C475.023,94.628 477.82,93.45 480.839,95.463 C483.895,97.501 483.558,101.378 480.253,105.509 C479.303,106.696 479.574,108.441 480.839,109.284 C481.183,109.514 481.883,110.214 482.646,111.485 C484.022,113.778 484.868,116.88 484.868,120.949 L484.868,129.588 L487.459,126.996 L442.541,126.996 L445.132,129.588 L445.132,119.222 Z" />
            <path d="M458.658,106.538 C457.411,107.161 455.767,108.531 454.206,110.873 C452.581,113.311 452.043,115.732 452.043,117.494 C452.043,118.925 453.203,120.085 454.634,120.085 C456.065,120.085 457.226,118.925 457.226,117.494 C457.226,117.348 457.262,116.967 457.38,116.436 C457.584,115.517 457.952,114.597 458.518,113.748 C459.548,112.203 460.496,111.414 460.976,111.174 C462.256,110.533 462.775,108.977 462.135,107.697 C461.495,106.417 459.938,105.898 458.658,106.538 Z" />
            <path d="M488.924,81.282 C488.3,82.031 488.3,82.031 487.071,83.505 C485.642,85.22 485.642,85.22 484.011,87.178 C481.943,89.659 481.943,89.659 480.286,91.648 L484.267,94.966 C485.925,92.977 485.925,92.977 487.993,90.496 C489.623,88.539 489.623,88.539 491.053,86.823 C492.281,85.349 492.281,85.349 492.906,84.6 L488.924,81.282 Z" />
            <path d="M486.267,77.838 C487.637,75.885 490.331,75.414 492.283,76.785 C494.236,78.155 494.707,80.849 493.336,82.801 C491.966,84.754 489.272,85.225 487.32,83.854 C485.367,82.484 484.896,79.79 486.267,77.838 Z" />
            <path d="M490.508,80.816 C491.879,78.864 494.573,78.392 496.525,79.763 C498.477,81.133 498.949,83.827 497.578,85.779 C496.207,87.732 493.514,88.203 491.561,86.833 C489.609,85.462 489.138,82.768 490.508,80.816 Z" />
        </g>
        <g id="Black-S">
            <path d="M630.447,132.179 L699.553,132.179 L697.355,128.214 L688.717,142.035 L690.915,140.817 L639.085,140.817 L641.283,142.035 L632.645,128.214 L630.447,132.179 Z M630.447,126.996 C628.412,126.996 627.171,129.235 628.25,130.961 L636.888,144.782 C637.361,145.54 638.192,146 639.085,146 L690.915,146 C691.808,146 692.639,145.54 693.112,144.782 L701.75,130.961 C702.829,129.235 701.588,126.996 699.553,126.996 L630.447,126.996 Z" />
            <path d="M639.949,119.222 L639.949,129.588 C639.949,131.019 641.109,132.179 642.541,132.179 L687.459,132.179 C688.891,132.179 690.051,131.019 690.051,129.588 L690.051,120.949 C690.051,115.948 688.953,111.924 687.09,108.818 C685.909,106.85 684.666,105.606 683.714,104.972 L684.3,108.747 C689.254,102.555 689.888,95.267 683.714,91.151 C677.872,87.256 672.32,89.594 668.11,95.207 L670.504,94.191 C670.306,94.166 669.969,94.133 669.509,94.101 C665.21,93.8 660.28,94.187 655.519,95.823 C645.874,99.139 639.949,106.73 639.949,119.222 Z M645.132,119.222 C645.132,109.038 649.573,103.348 657.204,100.725 C661.202,99.351 665.482,99.015 669.148,99.271 C669.51,99.296 669.754,99.32 669.862,99.334 C670.784,99.449 671.698,99.061 672.256,98.317 C675.023,94.628 677.82,93.45 680.839,95.463 C683.895,97.501 683.558,101.378 680.253,105.509 C679.303,106.696 679.574,108.441 680.839,109.284 C681.183,109.514 681.883,110.214 682.646,111.485 C684.022,113.778 684.868,116.88 684.868,120.949 L684.868,129.588 L687.459,126.996 L642.541,126.996 L645.132,129.588 L645.132,119.222 Z" />
            <path d="M658.658,106.538 C657.411,107.161 655.767,108.531 654.206,110.873 C652.581,113.311 652.043,115.732 652.043,117.494 C652.043,118.925 653.203,120.085 654.634,120.085 C656.065,120.085 657.226,118.925 657.226,117.494 C657.226,117.348 657.262,116.967 657.38,116.436 C657.584,115.517 657.952,114.597 658.518,113.748 C659.548,112.203 660.496,111.414 660.976,111.174 C662.256,110.533 662.775,108.977 662.135,107.697 C661.495,106.417 659.938,105.898 658.658,106.538 Z" />
            <path d="M688.924,81.282 C688.3,82.031 688.3,82.031 687.071,83.505 C685.642,85.22 685.642,85.22 684.011,87.178 C681.943,89.659 681.943,89.659 680.286,91.648 L684.267,94.966 C685.925,92.977 685.925,92.977 687.992,90.496 C689.623,88.539 689.623,88.539 691.053,86.823 C692.281,85.349 692.281,85.349 692.906,84.6 L688.924,81.282 Z" />
            <path d="M686.267,77.838 C687.637,75.885 690.331,75.414 692.283,76.785 C694.236,78.155 694.707,80.849 693.336,82.801 C691.966,84.754 689.272,85.225 687.32,83.854 C685.367,82.484 684.896,79.79 686.267,77.838 Z" />
            <path d="M690.508,80.816 C691.879,78.864 694.573,78.392 696.525,79.763 C698.477,81.133 698.949,83.827 697.578,85.779 C696.207,87.732 693.514,88.203 691.561,86.833 C689.609,85.462 689.138,82.768 690.508,80.816 Z" />
        </g>
    </g>
</svg>