<?xml version="1.0" encoding="UTF-8"?>
<svg height="600" width="800" xmlns="http://www.w3.org/2000/svg" xmlns:xlink="http://www.w3.org/1999/xlink">
    <g id="Notes" font-family="'LucidaGrande', 'Lucida Grande', sans-serif" font-size="13">
        <rect fill="white" height="600.0" width="800.0" x="0.0" y="0.0" />
        <g font-size="13">
            <text x="18.0" y="176.0">Small</text>
            <text x="18.0" y="376.0">Medium</text>
            <text x="18.0" y="576.0">Large</text>
        </g>
        <g font-size="9">
            <text x="250.0" y="30.0">Ultralight</text>
            <text x="450.0" y="30.0">Regular</text>
            <text x="650.0" y="30.0">Black</text>
            <text id="template-version" fill="#505050" text-anchor="end" x="785.0" y="575.0">Template v.3.0</text>
            <a href="https://github.com/swhitty/SwiftDraw">
                <text fill="#505050" text-anchor="end" x="785.0" y="590.0">https://github.com/swhitty/SwiftDraw</text>
            </a>
        </g>
    </g>
    <g id="Guides" stroke="rgb(39, 170, 225)" stroke-width="0.5">
        <path id="Capline-S" d="M18,76 l800,0" />
        <path id="H-reference" d="M85,145.755 L87.685,145.755 L113.369,79.287 L114.052,79.287 L114.052,76 L112.148,76 L85,145.755 Z M95.693,121.536 L130.996,121.536 L130.263,119.313 L96.474,119.313 L95.693,121.536 Z M139.15,145.755 L141.787,145.755 L114.638,76 L113.466,76 L113.466,79.287 L139.15,145.755 Z" stroke="none" />
        <path id="Baseline-S" d="M18,146 l800,0" />
        <path id="left-margin-Ultralight-S" d="M221,56 l0,110" />
        <path id="right-margin-Ultralight-S" d="M309,56 l0,110" />
        <path id="left-margin-Regular-S" d="M421,56 l0,110" />
        <path id="right-margin-Regular-S" d="M509,56 l0,110" />
        <path id="left-margin-Black-S" d="M621,56 l0,110" />
        <path id="right-margin-Black-S" d="M709,56 l0,110" />
        <path id="Capline-M" d="M18,276 l800,0" />
        <path id="Baseline-M" d="M18,346 l800,0" />
        <path id="Capline-L" d="M18,476 l800,0" />
        <path id="Baseline-L" d="M18,546 l800,0" />
    </g>
    <g id="Symbols">
        <g id="Ultralight-S">
            <path d="M244.651,120.767 C244.651,109.529 253.762,100.419 265,100.419 C276.238,100.419 285.349,109.529 285.349,120.767 C285.349,132.006 276.238,141.116 265,141.116 C253.762,141.116 244.651,132.006 244.651,120.767 Z M239.767,120.767 C239.767,134.703 251.064,146 265,146 C278.936,146 290.233,134.703 290.233,120.767 C290.233,106.832 278.936,95.535 265,95.535 C251.064,95.535 239.767,106.832 239.767,120.767 Z" />
            <path d="M278.837,101.233 L278.837,89.837 C278.837,82.195 272.642,76 265,76 C257.358,76 251.163,82.195 251.163,89.837 L251.163,101.233 L256.047,101.233 L256.047,89.837 C256.047,84.892 260.055,80.884 265,80.884 C269.945,80.884 273.953,84.892 273.953,89.837 L273.953,101.233 L278.837,101.233 Z" />
            <path d="M262.558,114.256 L262.558,127.279 C262.558,128.628 263.651,129.721 265,129.721 C266.349,129.721 267.442,128.628 267.442,127.279 L267.442,114.256 C267.442,112.907 266.349,111.814 265,111.814 C263.651,111.814 262.558,112.907 262.558,114.256 Z" />
        </g>
        <g id="Regular-S">
            <path d="M444.651,120.767 C444.651,109.529 453.762,100.419 465,100.419 C476.238,100.419 485.349,109.529 485.349,120.767 C485.349,132.006 476.238,141.116 465,141.116 C453.762,141.116 444.651,132.006 444.651,120.767 Z M439.767,120.767 C439.767,134.703 451.064,146 465,146 C478.936,146 490.233,134.703 490.233,120.767 C490.233,106.832 478.936,95.535 465,95.535 C451.064,95.535 439.767,106.832 439.767,120.767 Z" />
            <path d="M478.837,101.233 L478.837,89.837 C478.837,82.195 472.642,76 465,76 C457.358,76 451.163,82.195 451.163,89.837 L451.163,101.233 L456.047,101.233 L456.047,89.837 C456.047,84.892 460.055,80.884 465,80.884 C469.945,80.884 473.953,84.892 473.953,89.837 L473.953,101.233 L478.837,101.233 Z" />
            <path d="M462.558,114.256 L462.558,127.279 C462.558,128.628 463.651,129.721 465,129.721 C466.349,129.721 467.442,128.628 467.442,127.279 L467.442,114.256 C467.442,112.907 466.349,111.814 465,111.814 C463.651,111.814 462.558,112.907 462.558,114.256 Z" />
        </g>
        <g id="Black-S">
            <path d="M644.651,120.767 C644.651,109.529 653.762,100.419 665,100.419 C676.238,100.419 685.349,109.529 685.349,120.767 C685.349,132.006 676.238,141.116 665,141.116 C653.762,141.116 644.651,132.006 644.651,120.767 Z M639.767,120.767 C639.767,134.703 651.064,146 665,146 C678.936,146 690.233,134.703 690.233,120.767 C690.233,106.832 678.936,95.535 665,95.535 C651.064,95.535 639.767,106.832 639.767,120.767 Z" />
            <path d="M678.837,101.233 L678.837,89.837 C678.837,82.195 672.642,76 665,76 C657.358,76 651.163,82.195 651.163,89.837 L651.163,101.233 L656.047,101.233 L656.047,89.837 C656.047,84.892 660.055,80.884 665,80.884 C669.945,80.884 673.953,84.892 673.953,89.837 L673.953,101.233 L678.837,101.233 Z" />
            <path d="M662.558,114.256 L662.558,127.279 C662.558,128.628 663.651,129.721 665,129.721 C666.349,129.721 667.442,128.628 667.442,127.279 L667.442,114.256 C667.442,112.907 666.349,111.814 665,111.814 C663.651,111.814 662.558,112.907 662.558,114.256 Z" />
        </g>
    </g>
</svg>