<?xml version="1.0" encoding="UTF-8"?>
<svg height="600" width="800" xmlns="http://www.w3.org/2000/svg" xmlns:xlink="http://www.w3.org/1999/xlink">
    <g id="Notes" font-family="'LucidaGrande', 'Lucida Grande', sans-serif" font-size="13">
        <rect fill="white" height="600.0" width="800.0" x="0.0" y="0.0" />
        <g font-size="13">
            <text x="18.0" y="176.0">Small</text>
            <text x="18.0" y="376.0">Medium</text>
            <text x="18.0" y="576.0">Large</text>
        </g>
        <g font-size="9">
            <text x="250.0" y="30.0">Ultralight</text>
            <text x="450.0" y="30.0">Regular</text>
            <text x="650.0" y="30.0">Black</text>
            <text id="template-version" fill="#505050" text-anchor="end" x="785.0" y="575.0">Template v.3.0</text>
            <a href="https://github.com/swhitty/SwiftDraw">
                <text fill="#505050" text-anchor="end" x="785.0" y="590.0">https://github.com/swhitty/SwiftDraw</text>
            </a>
        </g>
    </g>
    <g id="Guides" stroke="rgb(39, 170, 225)" stroke-width="0.5">
        <path id="Capline-S" d="M18,76 l800,0" />
        <path id="H-reference" d="M85,145.755 L87.685,145.755 L113.369,79.287 L114.052,79.287 L114.052,76 L112.148,76 L85,145.755 Z M95.693,121.536 L130.996,121.536 L130.263,119.313 L96.474,119.313 L95.693,121.536 Z M139.15,145.755 L141.787,145.755 L114.638,76 L113.466,76 L113.466,79.287 L139.15,145.755 Z" stroke="none" />
        <path id="Baseline-S" d="M18,146 l800,0" />
        <path id="left-margin-Ultralight-S" d="M220,56 l0,110" />
        <path id="right-margin-Ultralight-S" d="M310,56 l0,110" />
        <path id="left-margin-Regular-S" d="M420,56 l0,110" />
        <path id="right-margin-Regular-S" d="M510,56 l0,110" />
        <path id="left-margin-Black-S" d="M620,56 l0,110" />
        <path id="right-margin-Black-S" d="M710,56 l0,110" />
        <path id="Capline-M" d="M18,276 l800,0" />
        <path id="Baseline-M" d="M18,346 l800,0" />
        <path id="Capline-L" d="M18,476 l800,0" />
        <path id="Baseline-L" d="M18,546 l800,0" />
    </g>
    <g id="Symbols">
        <g id="Ultralight-S">
            <path d="M290.926,76 L239.074,76 C234.063,76 230,80.063 230,85.074 L230,136.926 C230,141.937 234.063,146 239.074,146 L290.926,146 C295.937,146 300,141.937 300,136.926 L300,85.074 C300,80.063 295.937,76 290.926,76 Z M290.926,83.778 C291.642,83.778 292.222,84.358 292.222,85.074 L292.222,136.926 C292.222,137.642 291.642,138.222 290.926,138.222 L239.074,138.222 C238.358,138.222 237.778,137.642 237.778,136.926 L237.778,85.074 C237.778,84.358 238.358,83.778 239.074,83.778 L290.926,83.778 Z" />
        </g>
        <g id="Regular-S">
            <path d="M490.926,76 L439.074,76 C434.062,76 430,80.063 430,85.074 L430,136.926 C430,141.937 434.062,146 439.074,146 L490.926,146 C495.937,146 500,141.937 500,136.926 L500,85.074 C500,80.063 495.937,76 490.926,76 Z M490.926,83.778 C491.642,83.778 492.222,84.358 492.222,85.074 L492.222,136.926 C492.222,137.642 491.642,138.222 490.926,138.222 L439.074,138.222 C438.358,138.222 437.778,137.642 437.778,136.926 L437.778,85.074 C437.778,84.358 438.358,83.778 439.074,83.778 L490.926,83.778 Z" />
        </g>
        <g id="Black-S">
            <path d="M690.926,76 L639.074,76 C634.062,76 630,80.063 630,85.074 L630,136.926 C630,141.937 634.062,146 639.074,146 L690.926,146 C695.937,146 700,141.937 700,136.926 L700,85.074 C700,80.063 695.937,76 690.926,76 Z M690.926,83.778 C691.642,83.778 692.222,84.358 692.222,85.074 L692.222,136.926 C692.222,137.642 691.642,138.222 690.926,138.222 L639.074,138.222 C638.358,138.222 637.778,137.642 637.778,136.926 L637.778,85.074 C637.778,84.358 638.358,83.778 639.074,83.778 L690.926,83.778 Z" />
        </g>
    </g>
</svg>