<?xml version="1.0" encoding="UTF-8"?>
<svg height="600" width="800" xmlns="http://www.w3.org/2000/svg" xmlns:xlink="http://www.w3.org/1999/xlink">
    <g id="Notes" font-family="'LucidaGrande', 'Lucida Grande', sans-serif" font-size="13">
        <rect fill="white" height="600.0" width="800.0" x="0.0" y="0.0" />
        <g font-size="13">
            <text x="18.0" y="176.0">Small</text>
            <text x="18.0" y="376.0">Medium</text>
            <text x="18.0" y="576.0">Large</text>
        </g>
        <g font-size="9">
            <text x="250.0" y="30.0">Ultralight</text>
            <text x="450.0" y="30.0">Regular</text>
            <text x="650.0" y="30.0">Black</text>
            <text id="template-version" fill="#505050" text-anchor="end" x="785.0" y="575.0">Template v.3.0</text>
            <a href="https://github.com/swhitty/SwiftDraw">
                <text fill="#505050" text-anchor="end" x="785.0" y="590.0">https://github.com/swhitty/SwiftDraw</text>
            </a>
        </g>
    </g>
    <g id="Guides" stroke="rgb(39, 170, 225)" stroke-width="0.5">
        <path id="Capline-S" d="M18,76 l800,0" />
        <path id="H-reference" d="M85,145.755 L87.685,145.755 L113.369,79.287 L114.052,79.287 L114.052,76 L112.148,76 L85,145.755 Z M95.693,121.536 L130.996,121.536 L130.263,119.313 L96.474,119.313 L95.693,121.536 Z M139.15,145.755 L141.787,145.755 L114.638,76 L113.466,76 L113.466,79.287 L139.15,145.755 Z" stroke="none" />
        <path id="Baseline-S" d="M18,146 l800,0" />
        <path id="left-margin-Ultralight-S" d="M218.205,56 l0,110" />
        <path id="right-margin-Ultralight-S" d="M311.795,56 l0,110" />
        <path id="left-margin-Regular-S" d="M418.205,56 l0,110" />
        <path id="right-margin-Regular-S" d="M511.795,56 l0,110" />
        <path id="left-margin-Black-S" d="M618.205,56 l0,110" />
        <path id="right-margin-Black-S" d="M711.795,56 l0,110" />
        <path id="Capline-M" d="M18,276 l800,0" />
        <path id="Baseline-M" d="M18,346 l800,0" />
        <path id="Capline-L" d="M18,476 l800,0" />
        <path id="Baseline-L" d="M18,546 l800,0" />
    </g>
    <g id="Symbols">
        <g id="Ultralight-S">
            <path d="M296.41,96.641 L296.41,111 C296.41,111.238 296.316,111.466 296.147,111.635 C295.979,111.803 295.751,111.897 295.513,111.897 L234.487,111.897 C234.249,111.897 234.021,111.803 233.853,111.635 C233.684,111.466 233.59,111.238 233.59,111 L233.59,82.282 C233.59,82.044 233.684,81.816 233.853,81.647 C234.021,81.479 234.249,81.385 234.487,81.385 L295.513,81.385 C295.751,81.385 295.979,81.479 296.147,81.647 C296.316,81.816 296.41,82.044 296.41,82.282 L296.41,96.641 Z M301.795,96.641 L301.795,82.282 C301.795,80.616 301.133,79.018 299.955,77.84 C298.777,76.662 297.179,76 295.513,76 L234.487,76 C232.821,76 231.223,76.662 230.045,77.84 C228.867,79.018 228.205,80.616 228.205,82.282 L228.205,111 C228.205,112.666 228.867,114.264 230.045,115.442 C231.223,116.62 232.821,117.282 234.487,117.282 L295.513,117.282 C297.179,117.282 298.777,116.62 299.955,115.442 C301.133,114.264 301.795,112.666 301.795,111 L301.795,96.641 Z" />
            <path d="M240.769,114.59 L240.769,143.308 C240.769,144.795 241.975,146 243.462,146 C244.948,146 246.154,144.795 246.154,143.308 L246.154,114.59 C246.154,113.103 244.948,111.897 243.462,111.897 C241.975,111.897 240.769,113.103 240.769,114.59 Z" />
            <path d="M286.538,124.462 L243.462,124.462 C241.975,124.462 240.769,125.667 240.769,127.154 C240.769,128.641 241.975,129.846 243.462,129.846 L286.538,129.846 C288.025,129.846 289.231,128.641 289.231,127.154 C289.231,125.667 288.025,124.462 286.538,124.462 Z" />
            <path d="M250.641,140.615 L236.282,140.615 C234.795,140.615 233.59,141.821 233.59,143.308 C233.59,144.795 234.795,146 236.282,146 L250.641,146 C252.128,146 253.333,144.795 253.333,143.308 C253.333,141.821 252.128,140.615 250.641,140.615 Z" />
            <path d="M293.718,140.615 L279.359,140.615 C277.872,140.615 276.667,141.821 276.667,143.308 C276.667,144.795 277.872,146 279.359,146 L293.718,146 C295.205,146 296.41,144.795 296.41,143.308 C296.41,141.821 295.205,140.615 293.718,140.615 Z" />
            <path d="M283.846,114.59 L283.846,143.308 C283.846,144.795 285.052,146 286.538,146 C288.025,146 289.231,144.795 289.231,143.308 L289.231,114.59 C289.231,113.103 288.025,111.897 286.538,111.897 C285.052,111.897 283.846,113.103 283.846,114.59 Z" />
        </g>
        <g id="Regular-S">
            <path d="M496.41,96.641 L496.41,111 C496.41,111.238 496.316,111.466 496.147,111.635 C495.979,111.803 495.751,111.897 495.513,111.897 L434.487,111.897 C434.249,111.897 434.021,111.803 433.853,111.635 C433.684,111.466 433.59,111.238 433.59,111 L433.59,82.282 C433.59,82.044 433.684,81.816 433.853,81.647 C434.021,81.479 434.249,81.385 434.487,81.385 L495.513,81.385 C495.751,81.385 495.979,81.479 496.147,81.647 C496.316,81.816 496.41,82.044 496.41,82.282 L496.41,96.641 Z M501.795,96.641 L501.795,82.282 C501.795,80.616 501.133,79.018 499.955,77.84 C498.777,76.662 497.179,76 495.513,76 L434.487,76 C432.821,76 431.223,76.662 430.045,77.84 C428.867,79.018 428.205,80.616 428.205,82.282 L428.205,111 C428.205,112.666 428.867,114.264 430.045,115.442 C431.223,116.62 432.821,117.282 434.487,117.282 L495.513,117.282 C497.179,117.282 498.777,116.62 499.955,115.442 C501.133,114.264 501.795,112.666 501.795,111 L501.795,96.641 Z" />
            <path d="M440.769,114.59 L440.769,143.308 C440.769,144.795 441.975,146 443.462,146 C444.948,146 446.154,144.795 446.154,143.308 L446.154,114.59 C446.154,113.103 444.948,111.897 443.462,111.897 C441.975,111.897 440.769,113.103 440.769,114.59 Z" />
            <path d="M486.538,124.462 L443.462,124.462 C441.975,124.462 440.769,125.667 440.769,127.154 C440.769,128.641 441.975,129.846 443.462,129.846 L486.538,129.846 C488.025,129.846 489.231,128.641 489.231,127.154 C489.231,125.667 488.025,124.462 486.538,124.462 Z" />
            <path d="M450.641,140.615 L436.282,140.615 C434.795,140.615 433.59,141.821 433.59,143.308 C433.59,144.795 434.795,146 436.282,146 L450.641,146 C452.128,146 453.333,144.795 453.333,143.308 C453.333,141.821 452.128,140.615 450.641,140.615 Z" />
            <path d="M493.718,140.615 L479.359,140.615 C477.872,140.615 476.667,141.821 476.667,143.308 C476.667,144.795 477.872,146 479.359,146 L493.718,146 C495.205,146 496.41,144.795 496.41,143.308 C496.41,141.821 495.205,140.615 493.718,140.615 Z" />
            <path d="M483.846,114.59 L483.846,143.308 C483.846,144.795 485.052,146 486.538,146 C488.025,146 489.231,144.795 489.231,143.308 L489.231,114.59 C489.231,113.103 488.025,111.897 486.538,111.897 C485.052,111.897 483.846,113.103 483.846,114.59 Z" />
        </g>
        <g id="Black-S">
            <path d="M696.41,96.641 L696.41,111 C696.41,111.238 696.316,111.466 696.147,111.635 C695.979,111.803 695.751,111.897 695.513,111.897 L634.487,111.897 C634.249,111.897 634.021,111.803 633.853,111.635 C633.684,111.466 633.59,111.238 633.59,111 L633.59,82.282 C633.59,82.044 633.684,81.816 633.853,81.647 C634.021,81.479 634.249,81.385 634.487,81.385 L695.513,81.385 C695.751,81.385 695.979,81.479 696.147,81.647 C696.316,81.816 696.41,82.044 696.41,82.282 L696.41,96.641 Z M701.795,96.641 L701.795,82.282 C701.795,80.616 701.133,79.018 699.955,77.84 C698.777,76.662 697.179,76 695.513,76 L634.487,76 C632.821,76 631.223,76.662 630.045,77.84 C628.867,79.018 628.205,80.616 628.205,82.282 L628.205,111 C628.205,112.666 628.867,114.264 630.045,115.442 C631.223,116.62 632.821,117.282 634.487,117.282 L695.513,117.282 C697.179,117.282 698.777,116.62 699.955,115.442 C701.133,114.264 701.795,112.666 701.795,111 L701.795,96.641 Z" />
            <path d="M640.769,114.59 L640.769,143.308 C640.769,144.795 641.975,146 643.462,146 C644.948,146 646.154,144.795 646.154,143.308 L646.154,114.59 C646.154,113.103 644.948,111.897 643.462,111.897 C641.975,111.897 640.769,113.103 640.769,114.59 Z" />
            <path d="M686.538,124.462 L643.462,124.462 C641.975,124.462 640.769,125.667 640.769,127.154 C640.769,128.641 641.975,129.846 643.462,129.846 L686.538,129.846 C688.025,129.846 689.231,128.641 689.231,127.154 C689.231,125.667 688.025,124.462 686.538,124.462 Z" />
            <path d="M650.641,140.615 L636.282,140.615 C634.795,140.615 633.59,141.821 633.59,143.308 C633.59,144.795 634.795,146 636.282,146 L650.641,146 C652.128,146 653.333,144.795 653.333,143.308 C653.333,141.821 652.128,140.615 650.641,140.615 Z" />
            <path d="M693.718,140.615 L679.359,140.615 C677.872,140.615 676.667,141.821 676.667,143.308 C676.667,144.795 677.872,146 679.359,146 L693.718,146 C695.205,146 696.41,144.795 696.41,143.308 C696.41,141.821 695.205,140.615 693.718,140.615 Z" />
            <path d="M683.846,114.59 L683.846,143.308 C683.846,144.795 685.052,146 686.538,146 C688.025,146 689.231,144.795 689.231,143.308 L689.231,114.59 C689.231,113.103 688.025,111.897 686.538,111.897 C685.052,111.897 683.846,113.103 683.846,114.59 Z" />
        </g>
    </g>
</svg>