<?xml version="1.0" encoding="UTF-8"?>
<svg height="600" width="800" xmlns="http://www.w3.org/2000/svg" xmlns:xlink="http://www.w3.org/1999/xlink">
    <g id="Notes" font-family="'LucidaGrande', 'Lucida Grande', sans-serif" font-size="13">
        <rect fill="white" height="600.0" width="800.0" x="0.0" y="0.0" />
        <g font-size="13">
            <text x="18.0" y="176.0">Small</text>
            <text x="18.0" y="376.0">Medium</text>
            <text x="18.0" y="576.0">Large</text>
        </g>
        <g font-size="9">
            <text x="250.0" y="30.0">Ultralight</text>
            <text x="450.0" y="30.0">Regular</text>
            <text x="650.0" y="30.0">Black</text>
            <text id="template-version" fill="#505050" text-anchor="end" x="785.0" y="575.0">Template v.3.0</text>
            <a href="https://github.com/swhitty/SwiftDraw">
                <text fill="#505050" text-anchor="end" x="785.0" y="590.0">https://github.com/swhitty/SwiftDraw</text>
            </a>
        </g>
    </g>
    <g id="Guides" stroke="rgb(39, 170, 225)" stroke-width="0.5">
        <path id="Capline-S" d="M18,76 l800,0" />
        <path id="H-reference" d="M85,145.755 L87.685,145.755 L113.369,79.287 L114.052,79.287 L114.052,76 L112.148,76 L85,145.755 Z M95.693,121.536 L130.996,121.536 L130.263,119.313 L96.474,119.313 L95.693,121.536 Z M139.15,145.755 L141.787,145.755 L114.638,76 L113.466,76 L113.466,79.287 L139.15,145.755 Z" stroke="none" />
        <path id="Baseline-S" d="M18,146 l800,0" />
        <path id="left-margin-Ultralight-S" d="M220,56 l0,110" />
        <path id="right-margin-Ultralight-S" d="M310,56 l0,110" />
        <path id="left-margin-Regular-S" d="M420,56 l0,110" />
        <path id="right-margin-Regular-S" d="M510,56 l0,110" />
        <path id="left-margin-Black-S" d="M620,56 l0,110" />
        <path id="right-margin-Black-S" d="M710,56 l0,110" />
        <path id="Capline-M" d="M18,276 l800,0" />
        <path id="Baseline-M" d="M18,346 l800,0" />
        <path id="Capline-L" d="M18,476 l800,0" />
        <path id="Baseline-L" d="M18,546 l800,0" />
    </g>
    <g id="Symbols">
        <g id="Ultralight-S">
            <path d="M265,76 C284.33,76 300,91.67 300,111 C300,130.33 284.33,146 265,146 C245.67,146 230,130.33 230,111 C230,91.67 245.67,76 265,76 Z M265,82.364 C249.185,82.364 236.364,95.185 236.364,111 C236.364,126.815 249.185,139.636 265,139.636 C274.826,139.636 283.496,134.687 288.654,127.146 C286.564,126.527 283.224,125.455 278.908,123.642 C277.104,122.885 274.411,121.689 270.827,120.057 C266.539,124.378 260.288,128.5 253.587,128.5 C248.937,128.477 241.136,126.127 241.136,118.796 C241.136,111.465 248.364,109.72 253.053,109.72 C255.891,109.72 260.913,111.286 268.119,114.419 L268.23,114.462 C270.164,112.096 271.491,109.348 272.213,106.218 L272.358,105.542 L259.742,105.542 C257.831,105.541 255.779,105.541 253.587,105.541 L253.587,102.158 L262.13,102.158 L262.13,97.929 L250.17,97.93 L250.17,95.392 L262.13,95.392 L262.131,90.318 L268.967,90.318 L268.966,95.392 L282.637,95.392 L282.637,97.93 L268.966,97.929 L268.966,102.158 L279.884,102.158 C279.723,103.214 279.543,104.173 279.342,105.035 L279.22,105.541 C278.717,107.358 277.587,110.003 275.83,113.477 C275.363,114.4 274.689,115.466 273.837,116.597 C276.527,117.594 279.249,118.561 282.005,119.498 C285.572,120.713 288.656,121.695 291.257,122.446 C292.788,118.941 293.636,115.069 293.636,111 C293.636,95.185 280.815,82.364 265,82.364 Z M245.043,117.626 C245.043,122.29 254.799,124.148 262.703,119.239 C263.592,118.686 264.424,118.097 265.197,117.47 L265.17,117.458 L264.548,117.076 C259.616,114.075 255.784,112.448 253.053,112.195 C250.547,111.963 245.043,112.962 245.043,117.626 Z M272.358,105.541 L272.358,105.542 L275.578,105.542 L272.358,105.541 Z" />
        </g>
        <g id="Regular-S">
            <path d="M465,76 C484.33,76 500,91.67 500,111 C500,130.33 484.33,146 465,146 C445.67,146 430,130.33 430,111 C430,91.67 445.67,76 465,76 Z M465,82.364 C449.185,82.364 436.364,95.185 436.364,111 C436.364,126.815 449.185,139.636 465,139.636 C474.826,139.636 483.496,134.687 488.654,127.146 C486.564,126.527 483.224,125.455 478.908,123.642 C477.104,122.885 474.411,121.689 470.827,120.057 C466.539,124.378 460.288,128.5 453.587,128.5 C448.937,128.477 441.136,126.127 441.136,118.796 C441.136,111.465 448.364,109.72 453.053,109.72 C455.891,109.72 460.913,111.286 468.119,114.419 L468.23,114.462 C470.164,112.096 471.491,109.348 472.213,106.218 L472.358,105.542 L459.742,105.542 C457.831,105.541 455.779,105.541 453.587,105.541 L453.587,102.158 L462.13,102.158 L462.13,97.929 L450.17,97.93 L450.17,95.392 L462.13,95.392 L462.131,90.318 L468.967,90.318 L468.966,95.392 L482.637,95.392 L482.637,97.93 L468.966,97.929 L468.966,102.158 L479.884,102.158 C479.723,103.214 479.543,104.173 479.342,105.035 L479.22,105.541 C478.717,107.358 477.587,110.003 475.83,113.477 C475.363,114.4 474.689,115.466 473.837,116.597 C476.527,117.594 479.249,118.561 482.005,119.498 C485.572,120.713 488.656,121.695 491.257,122.446 C492.788,118.941 493.636,115.069 493.636,111 C493.636,95.185 480.815,82.364 465,82.364 Z M445.043,117.626 C445.043,122.29 454.799,124.148 462.703,119.239 C463.592,118.686 464.424,118.097 465.197,117.47 L465.17,117.458 L464.548,117.076 C459.616,114.075 455.784,112.448 453.053,112.195 C450.547,111.963 445.043,112.962 445.043,117.626 Z M472.358,105.541 L472.358,105.542 L475.578,105.542 L472.358,105.541 Z" />
        </g>
        <g id="Black-S">
            <path d="M665,76 C684.33,76 700,91.67 700,111 C700,130.33 684.33,146 665,146 C645.67,146 630,130.33 630,111 C630,91.67 645.67,76 665,76 Z M665,82.364 C649.185,82.364 636.364,95.185 636.364,111 C636.364,126.815 649.185,139.636 665,139.636 C674.826,139.636 683.496,134.687 688.654,127.146 C686.564,126.527 683.224,125.455 678.908,123.642 C677.104,122.885 674.411,121.689 670.827,120.057 C666.539,124.378 660.288,128.5 653.587,128.5 C648.937,128.477 641.136,126.127 641.136,118.796 C641.136,111.465 648.364,109.72 653.053,109.72 C655.891,109.72 660.913,111.286 668.119,114.419 L668.23,114.462 C670.164,112.096 671.491,109.348 672.213,106.218 L672.358,105.542 L659.742,105.542 C657.831,105.541 655.779,105.541 653.587,105.541 L653.587,102.158 L662.13,102.158 L662.13,97.929 L650.17,97.93 L650.17,95.392 L662.13,95.392 L662.131,90.318 L668.967,90.318 L668.966,95.392 L682.637,95.392 L682.637,97.93 L668.966,97.929 L668.966,102.158 L679.884,102.158 C679.723,103.214 679.543,104.173 679.342,105.035 L679.22,105.541 C678.717,107.358 677.587,110.003 675.83,113.477 C675.363,114.4 674.689,115.466 673.837,116.597 C676.527,117.594 679.249,118.561 682.005,119.498 C685.572,120.713 688.656,121.695 691.257,122.446 C692.788,118.941 693.636,115.069 693.636,111 C693.636,95.185 680.815,82.364 665,82.364 Z M645.043,117.626 C645.043,122.29 654.799,124.148 662.703,119.239 C663.592,118.686 664.424,118.097 665.197,117.47 L665.17,117.458 L664.548,117.076 C659.616,114.075 655.784,112.448 653.053,112.195 C650.547,111.963 645.043,112.962 645.043,117.626 Z M672.358,105.541 L672.358,105.542 L675.578,105.542 L672.358,105.541 Z" />
        </g>
    </g>
</svg>