<?xml version="1.0" encoding="UTF-8"?>
<svg height="600" width="800" xmlns="http://www.w3.org/2000/svg" xmlns:xlink="http://www.w3.org/1999/xlink">
    <g id="Notes" font-family="'LucidaGrande', 'Lucida Grande', sans-serif" font-size="13">
        <rect fill="white" height="600.0" width="800.0" x="0.0" y="0.0" />
        <g font-size="13">
            <text x="18.0" y="176.0">Small</text>
            <text x="18.0" y="376.0">Medium</text>
            <text x="18.0" y="576.0">Large</text>
        </g>
        <g font-size="9">
            <text x="250.0" y="30.0">Ultralight</text>
            <text x="450.0" y="30.0">Regular</text>
            <text x="650.0" y="30.0">Black</text>
            <text id="template-version" fill="#505050" text-anchor="end" x="785.0" y="575.0">Template v.3.0</text>
            <a href="https://github.com/swhitty/SwiftDraw">
                <text fill="#505050" text-anchor="end" x="785.0" y="590.0">https://github.com/swhitty/SwiftDraw</text>
            </a>
        </g>
    </g>
    <g id="Guides" stroke="rgb(39, 170, 225)" stroke-width="0.5">
        <path id="Capline-S" d="M18,76 l800,0" />
        <path id="H-reference" d="M85,145.755 L87.685,145.755 L113.369,79.287 L114.052,79.287 L114.052,76 L112.148,76 L85,145.755 Z M95.693,121.536 L130.996,121.536 L130.263,119.313 L96.474,119.313 L95.693,121.536 Z M139.15,145.755 L141.787,145.755 L114.638,76 L113.466,76 L113.466,79.287 L139.15,145.755 Z" stroke="none" />
        <path id="Baseline-S" d="M18,146 l800,0" />
        <path id="left-margin-Ultralight-S" d="M216.41,56 l0,110" />
        <path id="right-margin-Ultralight-S" d="M313.59,56 l0,110" />
        <path id="left-margin-Regular-S" d="M416.41,56 l0,110" />
        <path id="right-margin-Regular-S" d="M513.59,56 l0,110" />
        <path id="left-margin-Black-S" d="M616.41,56 l0,110" />
        <path id="right-margin-Black-S" d="M713.59,56 l0,110" />
        <path id="Capline-M" d="M18,276 l800,0" />
        <path id="Baseline-M" d="M18,346 l800,0" />
        <path id="Capline-L" d="M18,476 l800,0" />
        <path id="Baseline-L" d="M18,546 l800,0" />
    </g>
    <g id="Symbols">
        <g id="Ultralight-S">
            <path d="M289.231,121.769 L289.231,139.718 C289.231,139.956 289.136,140.184 288.968,140.353 C288.8,140.521 288.571,140.615 288.333,140.615 L241.667,140.615 C241.429,140.615 241.2,140.521 241.032,140.353 C240.864,140.184 240.769,139.956 240.769,139.718 L240.769,103.821 C240.769,103.583 240.864,103.354 241.032,103.186 C241.2,103.018 241.429,102.923 241.667,102.923 L288.333,102.923 C288.571,102.923 288.8,103.018 288.968,103.186 C289.136,103.354 289.231,103.582 289.231,103.821 L289.231,121.769 Z M294.615,121.769 L294.615,103.821 C294.615,102.154 293.954,100.557 292.775,99.378 C291.597,98.2 289.999,97.538 288.333,97.538 L241.667,97.538 C240.001,97.538 238.403,98.2 237.225,99.378 C236.046,100.557 235.385,102.154 235.385,103.821 L235.385,139.718 C235.385,141.384 236.046,142.982 237.225,144.16 C238.403,145.338 240.001,146 241.667,146 L288.333,146 C289.999,146 291.597,145.338 292.775,144.16 C293.954,142.982 294.615,141.384 294.615,139.718 L294.615,121.769 Z" />
            <path d="M248.846,114.59 C248.846,112.607 250.453,111 252.436,111 C254.418,111 256.026,112.607 256.026,114.59 C256.026,116.572 254.418,118.179 252.436,118.179 C250.453,118.179 248.846,116.572 248.846,114.59 Z" />
            <path d="M273.974,114.59 C273.974,112.607 275.582,111 277.564,111 C279.547,111 281.154,112.607 281.154,114.59 C281.154,116.572 279.547,118.179 277.564,118.179 C275.582,118.179 273.974,116.572 273.974,114.59 Z" />
            <path d="M257.821,125.359 C255.838,125.359 254.231,126.966 254.231,128.949 C254.231,130.931 255.838,132.538 257.821,132.538 L257.821,125.359 Z M272.18,132.538 C274.162,132.538 275.769,130.931 275.769,128.949 C275.769,126.966 274.162,125.359 272.18,125.359 L272.18,132.538 Z M257.821,132.538 L272.18,132.538 L272.18,125.359 L257.821,125.359 L257.821,132.538 Z" />
            <path d="M262.308,85.872 L262.308,100.231 C262.308,101.718 263.513,102.923 265,102.923 C266.487,102.923 267.692,101.718 267.692,100.231 L267.692,85.872 C267.692,84.385 266.487,83.179 265,83.179 C263.513,83.179 262.308,84.385 262.308,85.872 Z" />
            <path d="M226.41,114.59 L226.41,128.949 C226.41,130.436 227.616,131.641 229.103,131.641 C230.589,131.641 231.795,130.436 231.795,128.949 L231.795,114.59 C231.795,113.103 230.589,111.897 229.103,111.897 C227.616,111.897 226.41,113.103 226.41,114.59 Z" />
            <path d="M298.205,114.59 L298.205,128.949 C298.205,130.436 299.411,131.641 300.897,131.641 C302.384,131.641 303.59,130.436 303.59,128.949 L303.59,114.59 C303.59,113.103 302.384,111.897 300.897,111.897 C299.411,111.897 298.205,113.103 298.205,114.59 Z" />
            <path d="M264.103,82.282 C264.103,81.786 264.504,81.385 265,81.385 C265.496,81.385 265.897,81.786 265.897,82.282 C265.897,82.778 265.496,83.179 265,83.179 C264.504,83.179 264.103,82.778 264.103,82.282 Z M258.718,82.282 C258.718,85.752 261.531,88.564 265,88.564 C268.469,88.564 271.282,85.752 271.282,82.282 C271.282,78.813 268.469,76 265,76 C261.531,76 258.718,78.813 258.718,82.282 Z" />
        </g>
        <g id="Regular-S">
            <path d="M489.231,121.769 L489.231,139.718 C489.231,139.956 489.136,140.184 488.968,140.353 C488.8,140.521 488.571,140.615 488.333,140.615 L441.667,140.615 C441.429,140.615 441.2,140.521 441.032,140.353 C440.864,140.184 440.769,139.956 440.769,139.718 L440.769,103.821 C440.769,103.583 440.864,103.354 441.032,103.186 C441.2,103.018 441.429,102.923 441.667,102.923 L488.333,102.923 C488.571,102.923 488.8,103.018 488.968,103.186 C489.136,103.354 489.231,103.582 489.231,103.821 L489.231,121.769 Z M494.615,121.769 L494.615,103.821 C494.615,102.154 493.954,100.557 492.775,99.378 C491.597,98.2 489.999,97.538 488.333,97.538 L441.667,97.538 C440.001,97.538 438.403,98.2 437.225,99.378 C436.046,100.557 435.385,102.154 435.385,103.821 L435.385,139.718 C435.385,141.384 436.046,142.982 437.225,144.16 C438.403,145.338 440.001,146 441.667,146 L488.333,146 C489.999,146 491.597,145.338 492.775,144.16 C493.954,142.982 494.615,141.384 494.615,139.718 L494.615,121.769 Z" />
            <path d="M448.846,114.59 C448.846,112.607 450.453,111 452.436,111 C454.418,111 456.026,112.607 456.026,114.59 C456.026,116.572 454.418,118.179 452.436,118.179 C450.453,118.179 448.846,116.572 448.846,114.59 Z" />
            <path d="M473.974,114.59 C473.974,112.607 475.582,111 477.564,111 C479.547,111 481.154,112.607 481.154,114.59 C481.154,116.572 479.547,118.179 477.564,118.179 C475.582,118.179 473.974,116.572 473.974,114.59 Z" />
            <path d="M457.82,125.359 C455.838,125.359 454.231,126.966 454.231,128.949 C454.231,130.931 455.838,132.538 457.82,132.538 L457.82,125.359 Z M472.179,132.538 C474.162,132.538 475.769,130.931 475.769,128.949 C475.769,126.966 474.162,125.359 472.179,125.359 L472.179,132.538 Z M457.82,132.538 L472.179,132.538 L472.179,125.359 L457.82,125.359 L457.82,132.538 Z" />
            <path d="M462.308,85.872 L462.308,100.231 C462.308,101.718 463.513,102.923 465,102.923 C466.487,102.923 467.692,101.718 467.692,100.231 L467.692,85.872 C467.692,84.385 466.487,83.179 465,83.179 C463.513,83.179 462.308,84.385 462.308,85.872 Z" />
            <path d="M426.41,114.59 L426.41,128.949 C426.41,130.436 427.616,131.641 429.103,131.641 C430.589,131.641 431.795,130.436 431.795,128.949 L431.795,114.59 C431.795,113.103 430.589,111.897 429.103,111.897 C427.616,111.897 426.41,113.103 426.41,114.59 Z" />
            <path d="M498.205,114.59 L498.205,128.949 C498.205,130.436 499.411,131.641 500.897,131.641 C502.384,131.641 503.59,130.436 503.59,128.949 L503.59,114.59 C503.59,113.103 502.384,111.897 500.897,111.897 C499.411,111.897 498.205,113.103 498.205,114.59 Z" />
            <path d="M464.103,82.282 C464.103,81.786 464.504,81.385 465,81.385 C465.496,81.385 465.897,81.786 465.897,82.282 C465.897,82.778 465.496,83.179 465,83.179 C464.504,83.179 464.103,82.778 464.103,82.282 Z M458.718,82.282 C458.718,85.752 461.531,88.564 465,88.564 C468.469,88.564 471.282,85.752 471.282,82.282 C471.282,78.813 468.469,76 465,76 C461.531,76 458.718,78.813 458.718,82.282 Z" />
        </g>
        <g id="Black-S">
            <path d="M689.231,121.769 L689.231,139.718 C689.231,139.956 689.136,140.184 688.968,140.353 C688.8,140.521 688.571,140.615 688.333,140.615 L641.667,140.615 C641.429,140.615 641.2,140.521 641.032,140.353 C640.864,140.184 640.769,139.956 640.769,139.718 L640.769,103.821 C640.769,103.583 640.864,103.354 641.032,103.186 C641.2,103.018 641.429,102.923 641.667,102.923 L688.333,102.923 C688.571,102.923 688.8,103.018 688.968,103.186 C689.136,103.354 689.231,103.582 689.231,103.821 L689.231,121.769 Z M694.615,121.769 L694.615,103.821 C694.615,102.154 693.954,100.557 692.775,99.378 C691.597,98.2 689.999,97.538 688.333,97.538 L641.667,97.538 C640.001,97.538 638.403,98.2 637.225,99.378 C636.047,100.557 635.385,102.154 635.385,103.821 L635.385,139.718 C635.385,141.384 636.047,142.982 637.225,144.16 C638.403,145.338 640.001,146 641.667,146 L688.333,146 C689.999,146 691.597,145.338 692.775,144.16 C693.954,142.982 694.615,141.384 694.615,139.718 L694.615,121.769 Z" />
            <path d="M648.846,114.59 C648.846,112.607 650.453,111 652.436,111 C654.418,111 656.026,112.607 656.026,114.59 C656.026,116.572 654.418,118.179 652.436,118.179 C650.453,118.179 648.846,116.572 648.846,114.59 Z" />
            <path d="M673.974,114.59 C673.974,112.607 675.582,111 677.564,111 C679.547,111 681.154,112.607 681.154,114.59 C681.154,116.572 679.547,118.179 677.564,118.179 C675.582,118.179 673.974,116.572 673.974,114.59 Z" />
            <path d="M657.821,125.359 C655.838,125.359 654.231,126.966 654.231,128.949 C654.231,130.931 655.838,132.538 657.821,132.538 L657.821,125.359 Z M672.18,132.538 C674.162,132.538 675.769,130.931 675.769,128.949 C675.769,126.966 674.162,125.359 672.18,125.359 L672.18,132.538 Z M657.821,132.538 L672.18,132.538 L672.18,125.359 L657.821,125.359 L657.821,132.538 Z" />
            <path d="M662.308,85.872 L662.308,100.231 C662.308,101.718 663.513,102.923 665,102.923 C666.487,102.923 667.692,101.718 667.692,100.231 L667.692,85.872 C667.692,84.385 666.487,83.179 665,83.179 C663.513,83.179 662.308,84.385 662.308,85.872 Z" />
            <path d="M626.41,114.59 L626.41,128.949 C626.41,130.436 627.616,131.641 629.103,131.641 C630.589,131.641 631.795,130.436 631.795,128.949 L631.795,114.59 C631.795,113.103 630.589,111.897 629.103,111.897 C627.616,111.897 626.41,113.103 626.41,114.59 Z" />
            <path d="M698.205,114.59 L698.205,128.949 C698.205,130.436 699.411,131.641 700.897,131.641 C702.384,131.641 703.59,130.436 703.59,128.949 L703.59,114.59 C703.59,113.103 702.384,111.897 700.897,111.897 C699.411,111.897 698.205,113.103 698.205,114.59 Z" />
            <path d="M664.103,82.282 C664.103,81.786 664.504,81.385 665,81.385 C665.496,81.385 665.897,81.786 665.897,82.282 C665.897,82.778 665.496,83.179 665,83.179 C664.504,83.179 664.103,82.778 664.103,82.282 Z M658.718,82.282 C658.718,85.752 661.531,88.564 665,88.564 C668.469,88.564 671.282,85.752 671.282,82.282 C671.282,78.813 668.469,76 665,76 C661.531,76 658.718,78.813 658.718,82.282 Z" />
        </g>
    </g>
</svg>