<?xml version="1.0" encoding="UTF-8"?>
<svg height="600" width="800" xmlns="http://www.w3.org/2000/svg" xmlns:xlink="http://www.w3.org/1999/xlink">
    <g id="Notes" font-family="'LucidaGrande', 'Lucida Grande', sans-serif" font-size="13">
        <rect fill="white" height="600.0" width="800.0" x="0.0" y="0.0" />
        <g font-size="13">
            <text x="18.0" y="176.0">Small</text>
            <text x="18.0" y="376.0">Medium</text>
            <text x="18.0" y="576.0">Large</text>
        </g>
        <g font-size="9">
            <text x="250.0" y="30.0">Ultralight</text>
            <text x="450.0" y="30.0">Regular</text>
            <text x="650.0" y="30.0">Black</text>
            <text id="template-version" fill="#505050" text-anchor="end" x="785.0" y="575.0">Template v.3.0</text>
            <a href="https://github.com/swhitty/SwiftDraw">
                <text fill="#505050" text-anchor="end" x="785.0" y="590.0">https://github.com/swhitty/SwiftDraw</text>
            </a>
        </g>
    </g>
    <g id="Guides" stroke="rgb(39, 170, 225)" stroke-width="0.5">
        <path id="Capline-S" d="M18,76 l800,0" />
        <path id="H-reference" d="M85,145.755 L87.685,145.755 L113.369,79.287 L114.052,79.287 L114.052,76 L112.148,76 L85,145.755 Z M95.693,121.536 L130.996,121.536 L130.263,119.313 L96.474,119.313 L95.693,121.536 Z M139.15,145.755 L141.787,145.755 L114.638,76 L113.466,76 L113.466,79.287 L139.15,145.755 Z" stroke="none" />
        <path id="Baseline-S" d="M18,146 l800,0" />
        <path id="left-margin-Ultralight-S" d="M220,56 l0,110" />
        <path id="right-margin-Ultralight-S" d="M310,56 l0,110" />
        <path id="left-margin-Regular-S" d="M420,56 l0,110" />
        <path id="right-margin-Regular-S" d="M510,56 l0,110" />
        <path id="left-margin-Black-S" d="M620,56 l0,110" />
        <path id="right-margin-Black-S" d="M710,56 l0,110" />
        <path id="Capline-M" d="M18,276 l800,0" />
        <path id="Baseline-M" d="M18,346 l800,0" />
        <path id="Capline-L" d="M18,476 l800,0" />
        <path id="Baseline-L" d="M18,546 l800,0" />
    </g>
    <g id="Symbols">
        <g id="Ultralight-S">
            <path d="M257.674,110.898 L257.674,88.209 C257.674,84.164 260.954,80.884 265,80.884 C269.046,80.884 272.326,84.164 272.326,88.209 L272.326,91.474 C272.326,92.823 273.419,93.916 274.767,93.916 C276.116,93.916 277.209,92.823 277.209,91.474 L277.209,88.209 C277.209,81.466 271.743,76 265,76 C258.257,76 252.791,81.466 252.791,88.209 L252.791,110.898 C252.791,112.246 253.884,113.34 255.233,113.34 C256.581,113.34 257.674,112.246 257.674,110.898 Z" />
            <path d="M272.326,111.006 L272.326,133.791 C272.326,137.836 269.046,141.116 265,141.116 C260.954,141.116 257.674,137.836 257.674,133.791 L257.674,130.486 C257.674,129.137 256.581,128.044 255.233,128.044 C253.884,128.044 252.791,129.137 252.791,130.486 L252.791,133.791 C252.791,140.534 258.257,146 265,146 C271.743,146 277.209,140.534 277.209,133.791 L277.209,111.006 C277.209,109.657 276.116,108.564 274.767,108.564 C273.419,108.564 272.326,109.657 272.326,111.006 Z" />
            <path d="M265,118.326 L242.183,118.326 C238.153,118.326 234.884,115.047 234.884,111 C234.884,106.953 238.153,103.674 242.183,103.674 L245.447,103.674 C246.795,103.674 247.888,102.581 247.888,101.233 C247.888,99.884 246.795,98.791 245.447,98.791 L242.183,98.791 C235.453,98.791 230,104.258 230,111 C230,117.742 235.453,123.209 242.183,123.209 L265,123.209 C266.349,123.209 267.442,122.116 267.442,120.768 C267.442,119.419 266.349,118.326 265,118.326 Z" />
            <path d="M265,103.674 L287.773,103.674 C291.829,103.674 295.116,106.955 295.116,111 C295.116,115.045 291.829,118.326 287.773,118.326 L284.643,118.326 C283.294,118.326 282.201,119.419 282.201,120.768 C282.201,122.116 283.294,123.209 284.643,123.209 L287.773,123.209 C294.525,123.209 300,117.744 300,111 C300,104.256 294.525,98.791 287.773,98.791 L265,98.791 C263.651,98.791 262.558,99.884 262.558,101.233 C262.558,102.581 263.651,103.674 265,103.674 Z" />
        </g>
        <g id="Regular-S">
            <path d="M457.674,110.898 L457.674,88.209 C457.674,84.164 460.954,80.884 465,80.884 C469.046,80.884 472.326,84.164 472.326,88.209 L472.326,91.474 C472.326,92.823 473.419,93.916 474.767,93.916 C476.116,93.916 477.209,92.823 477.209,91.474 L477.209,88.209 C477.209,81.466 471.743,76 465,76 C458.257,76 452.791,81.466 452.791,88.209 L452.791,110.898 C452.791,112.246 453.884,113.34 455.233,113.34 C456.581,113.34 457.674,112.246 457.674,110.898 Z" />
            <path d="M472.326,111.006 L472.326,133.791 C472.326,137.836 469.046,141.116 465,141.116 C460.954,141.116 457.674,137.836 457.674,133.791 L457.674,130.486 C457.674,129.137 456.581,128.044 455.233,128.044 C453.884,128.044 452.791,129.137 452.791,130.486 L452.791,133.791 C452.791,140.534 458.257,146 465,146 C471.743,146 477.209,140.534 477.209,133.791 L477.209,111.006 C477.209,109.657 476.116,108.564 474.767,108.564 C473.419,108.564 472.326,109.657 472.326,111.006 Z" />
            <path d="M465,118.326 L442.183,118.326 C438.153,118.326 434.884,115.047 434.884,111 C434.884,106.953 438.153,103.674 442.183,103.674 L445.447,103.674 C446.795,103.674 447.888,102.581 447.888,101.233 C447.888,99.884 446.795,98.791 445.447,98.791 L442.183,98.791 C435.453,98.791 430,104.258 430,111 C430,117.742 435.453,123.209 442.183,123.209 L465,123.209 C466.349,123.209 467.442,122.116 467.442,120.768 C467.442,119.419 466.349,118.326 465,118.326 Z" />
            <path d="M465,103.674 L487.773,103.674 C491.829,103.674 495.116,106.955 495.116,111 C495.116,115.045 491.829,118.326 487.773,118.326 L484.643,118.326 C483.294,118.326 482.201,119.419 482.201,120.768 C482.201,122.116 483.294,123.209 484.643,123.209 L487.773,123.209 C494.525,123.209 500,117.744 500,111 C500,104.256 494.525,98.791 487.773,98.791 L465,98.791 C463.651,98.791 462.558,99.884 462.558,101.233 C462.558,102.581 463.651,103.674 465,103.674 Z" />
        </g>
        <g id="Black-S">
            <path d="M657.674,110.898 L657.674,88.209 C657.674,84.164 660.954,80.884 665,80.884 C669.046,80.884 672.326,84.164 672.326,88.209 L672.326,91.474 C672.326,92.823 673.419,93.916 674.767,93.916 C676.116,93.916 677.209,92.823 677.209,91.474 L677.209,88.209 C677.209,81.466 671.743,76 665,76 C658.257,76 652.791,81.466 652.791,88.209 L652.791,110.898 C652.791,112.246 653.884,113.34 655.232,113.34 C656.581,113.34 657.674,112.246 657.674,110.898 Z" />
            <path d="M672.326,111.006 L672.326,133.791 C672.326,137.836 669.046,141.116 665,141.116 C660.954,141.116 657.674,137.836 657.674,133.791 L657.674,130.486 C657.674,129.137 656.581,128.044 655.232,128.044 C653.884,128.044 652.791,129.137 652.791,130.486 L652.791,133.791 C652.791,140.534 658.257,146 665,146 C671.743,146 677.209,140.534 677.209,133.791 L677.209,111.006 C677.209,109.657 676.116,108.564 674.767,108.564 C673.419,108.564 672.326,109.657 672.326,111.006 Z" />
            <path d="M665,118.326 L642.183,118.326 C638.153,118.326 634.884,115.047 634.884,111 C634.884,106.953 638.153,103.674 642.183,103.674 L645.446,103.674 C646.795,103.674 647.888,102.581 647.888,101.233 C647.888,99.884 646.795,98.791 645.446,98.791 L642.183,98.791 C635.453,98.791 630,104.258 630,111 C630,117.742 635.453,123.209 642.183,123.209 L665,123.209 C666.349,123.209 667.442,122.116 667.442,120.768 C667.442,119.419 666.349,118.326 665,118.326 Z" />
            <path d="M665,103.674 L687.772,103.674 C691.829,103.674 695.116,106.955 695.116,111 C695.116,115.045 691.829,118.326 687.772,118.326 L684.643,118.326 C683.294,118.326 682.201,119.419 682.201,120.768 C682.201,122.116 683.294,123.209 684.643,123.209 L687.772,123.209 C694.525,123.209 700,117.744 700,111 C700,104.256 694.525,98.791 687.772,98.791 L665,98.791 C663.651,98.791 662.558,99.884 662.558,101.233 C662.558,102.581 663.651,103.674 665,103.674 Z" />
        </g>
    </g>
</svg>