<?xml version="1.0" encoding="UTF-8"?>
<svg height="600" width="800" xmlns="http://www.w3.org/2000/svg" xmlns:xlink="http://www.w3.org/1999/xlink">
    <g id="Notes" font-family="'LucidaGrande', 'Lucida Grande', sans-serif" font-size="13">
        <rect fill="white" height="600.0" width="800.0" x="0.0" y="0.0" />
        <g font-size="13">
            <text x="18.0" y="176.0">Small</text>
            <text x="18.0" y="376.0">Medium</text>
            <text x="18.0" y="576.0">Large</text>
        </g>
        <g font-size="9">
            <text x="250.0" y="30.0">Ultralight</text>
            <text x="450.0" y="30.0">Regular</text>
            <text x="650.0" y="30.0">Black</text>
            <text id="template-version" fill="#505050" text-anchor="end" x="785.0" y="575.0">Template v.3.0</text>
            <a href="https://github.com/swhitty/SwiftDraw">
                <text fill="#505050" text-anchor="end" x="785.0" y="590.0">https://github.com/swhitty/SwiftDraw</text>
            </a>
        </g>
    </g>
    <g id="Guides" stroke="rgb(39, 170, 225)" stroke-width="0.5">
        <path id="Capline-S" d="M18,76 l800,0" />
        <path id="H-reference" d="M85,145.755 L87.685,145.755 L113.369,79.287 L114.052,79.287 L114.052,76 L112.148,76 L85,145.755 Z M95.693,121.536 L130.996,121.536 L130.263,119.313 L96.474,119.313 L95.693,121.536 Z M139.15,145.755 L141.787,145.755 L114.638,76 L113.466,76 L113.466,79.287 L139.15,145.755 Z" stroke="none" />
        <path id="Baseline-S" d="M18,146 l800,0" />
        <path id="left-margin-Ultralight-S" d="M220,56 l0,110" />
        <path id="right-margin-Ultralight-S" d="M310,56 l0,110" />
        <path id="left-margin-Regular-S" d="M420,56 l0,110" />
        <path id="right-margin-Regular-S" d="M510,56 l0,110" />
        <path id="left-margin-Black-S" d="M620,56 l0,110" />
        <path id="right-margin-Black-S" d="M710,56 l0,110" />
        <path id="Capline-M" d="M18,276 l800,0" />
        <path id="Baseline-M" d="M18,346 l800,0" />
        <path id="Capline-L" d="M18,476 l800,0" />
        <path id="Baseline-L" d="M18,546 l800,0" />
    </g>
    <g id="Symbols">
        <g id="Ultralight-S">
            <path d="M232.442,146 L297.558,146 C298.907,146 300,144.907 300,143.558 C300,142.21 298.907,141.116 297.558,141.116 L232.442,141.116 C231.093,141.116 230,142.21 230,143.558 C230,144.907 231.093,146 232.442,146 Z" />
            <path d="M246.279,83.326 C246.279,83.661 246.171,83.896 246.08,83.995 C246.158,83.911 246.368,83.761 246.7,83.586 C247.584,83.122 248.994,82.658 250.804,82.256 C254.711,81.388 260.073,80.884 265.814,80.884 C271.554,80.884 276.917,81.388 280.824,82.256 C282.634,82.658 284.044,83.122 284.928,83.586 C285.26,83.761 285.47,83.911 285.548,83.995 C285.457,83.896 285.349,83.661 285.349,83.326 C285.349,82.991 285.457,82.755 285.548,82.656 C285.47,82.741 285.26,82.89 284.928,83.065 C284.044,83.529 282.634,83.993 280.824,84.395 C276.917,85.263 271.554,85.767 265.814,85.767 C260.073,85.767 254.711,85.263 250.804,84.395 C248.994,83.993 247.584,83.529 246.7,83.065 C246.368,82.89 246.158,82.741 246.08,82.656 C246.171,82.755 246.279,82.991 246.279,83.326 Z M241.395,83.326 C241.395,88.318 251.895,90.651 265.814,90.651 C279.733,90.651 290.233,88.318 290.233,83.326 C290.233,78.333 279.733,76 265.814,76 C251.895,76 241.395,78.333 241.395,83.326 Z" />
            <path d="M249.765,87.617 C249.826,87.746 249.944,88.003 250.111,88.373 C250.391,88.995 250.705,89.706 251.042,90.492 C252.008,92.741 252.974,95.14 253.875,97.584 C254.707,99.84 255.44,102.024 256.048,104.089 C256.848,106.803 257.41,109.244 257.697,111.332 C258.11,114.336 258.246,117.974 258.138,122.098 C258.027,126.356 257.663,130.93 257.126,135.553 C256.897,137.532 256.651,139.385 256.405,141.06 C256.319,141.644 256.239,142.164 256.168,142.613 C256.126,142.879 256.096,143.06 256.081,143.151 L260.896,143.966 C260.914,143.859 260.946,143.662 260.991,143.379 C261.066,142.912 261.148,142.373 261.237,141.769 C261.489,140.048 261.742,138.146 261.977,136.117 C262.53,131.359 262.904,126.646 263.02,122.226 C263.135,117.857 262.989,113.968 262.535,110.668 C262.211,108.309 261.596,105.64 260.733,102.71 C260.092,100.532 259.324,98.248 258.457,95.895 C257.525,93.365 256.527,90.888 255.53,88.565 C255.18,87.751 254.855,87.014 254.563,86.366 C254.386,85.974 254.258,85.696 254.188,85.546 L249.765,87.617 Z" />
            <path d="M276.181,85.546 C276.11,85.696 275.983,85.974 275.806,86.366 C275.514,87.014 275.189,87.751 274.839,88.565 C273.841,90.888 272.844,93.365 271.911,95.895 C271.044,98.248 270.277,100.532 269.636,102.71 C268.773,105.64 268.158,108.309 267.833,110.668 C267.381,113.959 267.212,117.841 267.284,122.202 C267.358,126.728 267.684,131.558 268.182,136.419 C268.382,138.367 268.595,140.186 268.81,141.829 C268.885,142.405 268.954,142.919 269.017,143.364 C269.055,143.633 269.083,143.821 269.098,143.922 L273.927,143.194 C273.914,143.108 273.889,142.935 273.853,142.681 C273.793,142.253 273.725,141.757 273.652,141.198 C273.444,139.598 273.235,137.822 273.04,135.921 C272.556,131.189 272.238,126.493 272.167,122.122 C272.099,117.99 272.258,114.345 272.672,111.332 C272.959,109.244 273.521,106.803 274.32,104.089 C274.929,102.024 275.662,99.84 276.494,97.584 C277.394,95.14 278.361,92.741 279.327,90.492 C279.664,89.706 279.978,88.995 280.258,88.373 C280.425,88.003 280.543,87.746 280.604,87.617 L276.181,85.546 Z" />
        </g>
        <g id="Regular-S">
            <path d="M432.442,146 L497.558,146 C498.907,146 500,144.907 500,143.558 C500,142.21 498.907,141.116 497.558,141.116 L432.442,141.116 C431.093,141.116 430,142.21 430,143.558 C430,144.907 431.093,146 432.442,146 Z" />
            <path d="M446.279,83.326 C446.279,83.661 446.171,83.896 446.08,83.995 C446.158,83.911 446.368,83.761 446.7,83.586 C447.584,83.122 448.994,82.658 450.804,82.256 C454.711,81.388 460.073,80.884 465.814,80.884 C471.554,80.884 476.917,81.388 480.824,82.256 C482.634,82.658 484.044,83.122 484.928,83.586 C485.26,83.761 485.47,83.911 485.548,83.995 C485.457,83.896 485.349,83.661 485.349,83.326 C485.349,82.991 485.457,82.755 485.548,82.656 C485.47,82.741 485.26,82.89 484.928,83.065 C484.044,83.529 482.634,83.993 480.824,84.395 C476.917,85.263 471.554,85.767 465.814,85.767 C460.073,85.767 454.711,85.263 450.804,84.395 C448.994,83.993 447.584,83.529 446.7,83.065 C446.368,82.89 446.158,82.741 446.08,82.656 C446.171,82.755 446.279,82.991 446.279,83.326 Z M441.395,83.326 C441.395,88.318 451.895,90.651 465.814,90.651 C479.733,90.651 490.233,88.318 490.233,83.326 C490.233,78.333 479.733,76 465.814,76 C451.895,76 441.395,78.333 441.395,83.326 Z" />
            <path d="M449.765,87.617 C449.826,87.746 449.944,88.003 450.111,88.373 C450.391,88.995 450.705,89.706 451.042,90.492 C452.008,92.741 452.974,95.14 453.875,97.584 C454.707,99.84 455.44,102.024 456.048,104.089 C456.848,106.803 457.41,109.244 457.697,111.332 C458.11,114.336 458.246,117.974 458.138,122.098 C458.027,126.356 457.663,130.93 457.126,135.553 C456.897,137.532 456.651,139.385 456.405,141.06 C456.319,141.644 456.239,142.164 456.168,142.613 C456.126,142.879 456.096,143.06 456.081,143.151 L460.896,143.966 C460.914,143.859 460.946,143.662 460.991,143.379 C461.066,142.912 461.148,142.373 461.237,141.769 C461.489,140.048 461.742,138.146 461.977,136.117 C462.53,131.359 462.904,126.646 463.02,122.226 C463.135,117.857 462.989,113.968 462.535,110.668 C462.211,108.309 461.596,105.64 460.733,102.71 C460.092,100.532 459.324,98.248 458.457,95.895 C457.525,93.365 456.527,90.888 455.53,88.565 C455.18,87.751 454.855,87.014 454.563,86.366 C454.386,85.974 454.258,85.696 454.188,85.546 L449.765,87.617 Z" />
            <path d="M476.181,85.546 C476.11,85.696 475.983,85.974 475.806,86.366 C475.514,87.014 475.189,87.751 474.839,88.565 C473.841,90.888 472.844,93.365 471.911,95.895 C471.044,98.248 470.277,100.532 469.636,102.71 C468.773,105.64 468.158,108.309 467.833,110.668 C467.381,113.959 467.212,117.841 467.284,122.202 C467.358,126.728 467.684,131.558 468.182,136.419 C468.382,138.367 468.595,140.186 468.81,141.829 C468.885,142.405 468.954,142.919 469.017,143.364 C469.055,143.633 469.083,143.821 469.098,143.922 L473.927,143.194 C473.914,143.108 473.889,142.935 473.853,142.681 C473.793,142.253 473.725,141.757 473.652,141.198 C473.444,139.598 473.235,137.822 473.04,135.921 C472.556,131.189 472.238,126.493 472.167,122.122 C472.099,117.99 472.258,114.345 472.672,111.332 C472.959,109.244 473.521,106.803 474.32,104.089 C474.929,102.024 475.662,99.84 476.494,97.584 C477.394,95.14 478.361,92.741 479.327,90.492 C479.664,89.706 479.978,88.995 480.258,88.373 C480.425,88.003 480.543,87.746 480.604,87.617 L476.181,85.546 Z" />
        </g>
        <g id="Black-S">
            <path d="M632.442,146 L697.558,146 C698.907,146 700,144.907 700,143.558 C700,142.21 698.907,141.116 697.558,141.116 L632.442,141.116 C631.093,141.116 630,142.21 630,143.558 C630,144.907 631.093,146 632.442,146 Z" />
            <path d="M646.279,83.326 C646.279,83.661 646.171,83.896 646.08,83.995 C646.158,83.911 646.368,83.761 646.7,83.586 C647.584,83.122 648.994,82.658 650.804,82.256 C654.711,81.388 660.073,80.884 665.814,80.884 C671.554,80.884 676.917,81.388 680.824,82.256 C682.634,82.658 684.044,83.122 684.928,83.586 C685.26,83.761 685.47,83.911 685.548,83.995 C685.457,83.896 685.349,83.661 685.349,83.326 C685.349,82.991 685.457,82.755 685.548,82.656 C685.47,82.741 685.26,82.89 684.928,83.065 C684.044,83.529 682.634,83.993 680.824,84.395 C676.917,85.263 671.554,85.767 665.814,85.767 C660.073,85.767 654.711,85.263 650.804,84.395 C648.994,83.993 647.584,83.529 646.7,83.065 C646.368,82.89 646.158,82.741 646.08,82.656 C646.171,82.755 646.279,82.991 646.279,83.326 Z M641.395,83.326 C641.395,88.318 651.895,90.651 665.814,90.651 C679.733,90.651 690.233,88.318 690.233,83.326 C690.233,78.333 679.733,76 665.814,76 C651.895,76 641.395,78.333 641.395,83.326 Z" />
            <path d="M649.765,87.617 C649.826,87.746 649.944,88.003 650.111,88.373 C650.391,88.995 650.705,89.706 651.042,90.492 C652.008,92.741 652.974,95.14 653.875,97.584 C654.707,99.84 655.44,102.024 656.048,104.089 C656.848,106.803 657.41,109.244 657.697,111.332 C658.11,114.336 658.246,117.974 658.138,122.098 C658.027,126.356 657.663,130.93 657.126,135.553 C656.897,137.532 656.651,139.385 656.405,141.06 C656.319,141.644 656.239,142.164 656.168,142.613 C656.126,142.879 656.096,143.06 656.081,143.151 L660.896,143.966 C660.914,143.859 660.946,143.662 660.991,143.379 C661.066,142.912 661.148,142.373 661.237,141.769 C661.489,140.048 661.742,138.146 661.977,136.117 C662.53,131.359 662.904,126.646 663.02,122.226 C663.135,117.857 662.989,113.968 662.535,110.668 C662.211,108.309 661.596,105.64 660.733,102.71 C660.092,100.532 659.324,98.248 658.457,95.895 C657.525,93.365 656.527,90.888 655.53,88.565 C655.18,87.751 654.855,87.014 654.563,86.366 C654.386,85.974 654.258,85.696 654.188,85.546 L649.765,87.617 Z" />
            <path d="M676.181,85.546 C676.11,85.696 675.983,85.974 675.806,86.366 C675.514,87.014 675.189,87.751 674.839,88.565 C673.841,90.888 672.844,93.365 671.911,95.895 C671.044,98.248 670.277,100.532 669.636,102.71 C668.773,105.64 668.158,108.309 667.833,110.668 C667.381,113.959 667.212,117.841 667.284,122.202 C667.357,126.728 667.684,131.558 668.182,136.419 C668.382,138.367 668.596,140.186 668.81,141.829 C668.885,142.405 668.954,142.919 669.017,143.364 C669.055,143.633 669.083,143.821 669.098,143.922 L673.927,143.194 C673.914,143.108 673.889,142.935 673.853,142.681 C673.793,142.253 673.725,141.757 673.652,141.198 C673.444,139.598 673.235,137.822 673.04,135.921 C672.555,131.189 672.238,126.493 672.167,122.122 C672.099,117.99 672.258,114.345 672.672,111.332 C672.959,109.244 673.521,106.803 674.32,104.089 C674.929,102.024 675.662,99.84 676.494,97.584 C677.394,95.14 678.361,92.741 679.327,90.492 C679.664,89.706 679.978,88.995 680.258,88.373 C680.425,88.003 680.543,87.746 680.604,87.617 L676.181,85.546 Z" />
        </g>
    </g>
</svg>