<?xml version="1.0" encoding="UTF-8"?>
<svg height="600" width="800" xmlns="http://www.w3.org/2000/svg" xmlns:xlink="http://www.w3.org/1999/xlink">
    <g id="Notes" font-family="'LucidaGrande', 'Lucida Grande', sans-serif" font-size="13">
        <rect fill="white" height="600.0" width="800.0" x="0.0" y="0.0" />
        <g font-size="13">
            <text x="18.0" y="176.0">Small</text>
            <text x="18.0" y="376.0">Medium</text>
            <text x="18.0" y="576.0">Large</text>
        </g>
        <g font-size="9">
            <text x="250.0" y="30.0">Ultralight</text>
            <text x="450.0" y="30.0">Regular</text>
            <text x="650.0" y="30.0">Black</text>
            <text id="template-version" fill="#505050" text-anchor="end" x="785.0" y="575.0">Template v.3.0</text>
            <a href="https://github.com/swhitty/SwiftDraw">
                <text fill="#505050" text-anchor="end" x="785.0" y="590.0">https://github.com/swhitty/SwiftDraw</text>
            </a>
        </g>
    </g>
    <g id="Guides" stroke="rgb(39, 170, 225)" stroke-width="0.5">
        <path id="Capline-S" d="M18,76 l800,0" />
        <path id="H-reference" d="M85,145.755 L87.685,145.755 L113.369,79.287 L114.052,79.287 L114.052,76 L112.148,76 L85,145.755 Z M95.693,121.536 L130.996,121.536 L130.263,119.313 L96.474,119.313 L95.693,121.536 Z M139.15,145.755 L141.787,145.755 L114.638,76 L113.466,76 L113.466,79.287 L139.15,145.755 Z" stroke="none" />
        <path id="Baseline-S" d="M18,146 l800,0" />
        <path id="left-margin-Ultralight-S" d="M212,56 l0,110" />
        <path id="right-margin-Ultralight-S" d="M318,56 l0,110" />
        <path id="left-margin-Regular-S" d="M412,56 l0,110" />
        <path id="right-margin-Regular-S" d="M518,56 l0,110" />
        <path id="left-margin-Black-S" d="M612,56 l0,110" />
        <path id="right-margin-Black-S" d="M718,56 l0,110" />
        <path id="Capline-M" d="M18,276 l800,0" />
        <path id="Baseline-M" d="M18,346 l800,0" />
        <path id="Capline-L" d="M18,476 l800,0" />
        <path id="Baseline-L" d="M18,546 l800,0" />
    </g>
    <g id="Symbols">
        <g id="Ultralight-S">
            <path d="M225,146 L305,146 C306.804,146 308.2,144.418 307.977,142.628 L303.977,110.628 C303.789,109.127 302.513,108 301,108 L257,108 C237.67,108 222,123.67 222,143 C222,144.657 223.343,146 225,146 Z M225,140 L228,143 C228,126.984 240.983,114 257,114 L301,114 L298.023,111.372 L302.023,143.372 L305,140 L225,140 Z" />
            <path d="M249,82 L297,82 L294.023,79.372 L298.023,111.372 C298.228,113.016 299.728,114.182 301.372,113.977 C303.016,113.771 304.182,112.272 303.977,110.628 L299.977,78.628 C299.789,77.127 298.513,76 297,76 L249,76 C247.343,76 246,77.343 246,79 C246,80.657 247.343,82 249,82 Z" />
            <path d="M251,130 L255,130 C256.657,130 258,128.657 258,127 C258,125.343 256.657,124 255,124 L251,124 C249.343,124 248,125.343 248,127 C248,128.657 249.343,130 251,130 Z" />
            <path d="M267,130 L271,130 C272.657,130 274,128.657 274,127 C274,125.343 272.657,124 271,124 L267,124 C265.343,124 264,125.343 264,127 C264,128.657 265.343,130 267,130 Z" />
            <path d="M283,130 L287,130 C288.657,130 290,128.657 290,127 C290,125.343 288.657,124 287,124 L283,124 C281.343,124 280,125.343 280,127 C280,128.657 281.343,130 283,130 Z" />
        </g>
        <g id="Regular-S">
            <path d="M425,146 L505,146 C506.804,146 508.2,144.418 507.977,142.628 L503.977,110.628 C503.789,109.127 502.513,108 501,108 L457,108 C437.67,108 422,123.67 422,143 C422,144.657 423.343,146 425,146 Z M425,140 L428,143 C428,126.984 440.983,114 457,114 L501,114 L498.023,111.372 L502.023,143.372 L505,140 L425,140 Z" />
            <path d="M449,82 L497,82 L494.023,79.372 L498.023,111.372 C498.228,113.016 499.728,114.182 501.372,113.977 C503.016,113.771 504.182,112.272 503.977,110.628 L499.977,78.628 C499.789,77.127 498.513,76 497,76 L449,76 C447.343,76 446,77.343 446,79 C446,80.657 447.343,82 449,82 Z" />
            <path d="M451,130 L455,130 C456.657,130 458,128.657 458,127 C458,125.343 456.657,124 455,124 L451,124 C449.343,124 448,125.343 448,127 C448,128.657 449.343,130 451,130 Z" />
            <path d="M467,130 L471,130 C472.657,130 474,128.657 474,127 C474,125.343 472.657,124 471,124 L467,124 C465.343,124 464,125.343 464,127 C464,128.657 465.343,130 467,130 Z" />
            <path d="M483,130 L487,130 C488.657,130 490,128.657 490,127 C490,125.343 488.657,124 487,124 L483,124 C481.343,124 480,125.343 480,127 C480,128.657 481.343,130 483,130 Z" />
        </g>
        <g id="Black-S">
            <path d="M625,146 L705,146 C706.804,146 708.2,144.418 707.977,142.628 L703.977,110.628 C703.789,109.127 702.513,108 701,108 L657,108 C637.67,108 622,123.67 622,143 C622,144.657 623.343,146 625,146 Z M625,140 L628,143 C628,126.984 640.983,114 657,114 L701,114 L698.023,111.372 L702.023,143.372 L705,140 L625,140 Z" />
            <path d="M649,82 L697,82 L694.023,79.372 L698.023,111.372 C698.228,113.016 699.728,114.182 701.372,113.977 C703.016,113.771 704.182,112.272 703.977,110.628 L699.977,78.628 C699.789,77.127 698.513,76 697,76 L649,76 C647.343,76 646,77.343 646,79 C646,80.657 647.343,82 649,82 Z" />
            <path d="M651,130 L655,130 C656.657,130 658,128.657 658,127 C658,125.343 656.657,124 655,124 L651,124 C649.343,124 648,125.343 648,127 C648,128.657 649.343,130 651,130 Z" />
            <path d="M667,130 L671,130 C672.657,130 674,128.657 674,127 C674,125.343 672.657,124 671,124 L667,124 C665.343,124 664,125.343 664,127 C664,128.657 665.343,130 667,130 Z" />
            <path d="M683,130 L687,130 C688.657,130 690,128.657 690,127 C690,125.343 688.657,124 687,124 L683,124 C681.343,124 680,125.343 680,127 C680,128.657 681.343,130 683,130 Z" />
        </g>
    </g>
</svg>