<?xml version="1.0" encoding="UTF-8"?>
<svg height="600" width="800" xmlns="http://www.w3.org/2000/svg" xmlns:xlink="http://www.w3.org/1999/xlink">
    <g id="Notes" font-family="'LucidaGrande', 'Lucida Grande', sans-serif" font-size="13">
        <rect fill="white" height="600.0" width="800.0" x="0.0" y="0.0" />
        <g font-size="13">
            <text x="18.0" y="176.0">Small</text>
            <text x="18.0" y="376.0">Medium</text>
            <text x="18.0" y="576.0">Large</text>
        </g>
        <g font-size="9">
            <text x="250.0" y="30.0">Ultralight</text>
            <text x="450.0" y="30.0">Regular</text>
            <text x="650.0" y="30.0">Black</text>
            <text id="template-version" fill="#505050" text-anchor="end" x="785.0" y="575.0">Template v.3.0</text>
            <a href="https://github.com/swhitty/SwiftDraw">
                <text fill="#505050" text-anchor="end" x="785.0" y="590.0">https://github.com/swhitty/SwiftDraw</text>
            </a>
        </g>
    </g>
    <g id="Guides" stroke="rgb(39, 170, 225)" stroke-width="0.5">
        <path id="Capline-S" d="M18,76 l800,0" />
        <path id="H-reference" d="M85,145.755 L87.685,145.755 L113.369,79.287 L114.052,79.287 L114.052,76 L112.148,76 L85,145.755 Z M95.693,121.536 L130.996,121.536 L130.263,119.313 L96.474,119.313 L95.693,121.536 Z M139.15,145.755 L141.787,145.755 L114.638,76 L113.466,76 L113.466,79.287 L139.15,145.755 Z" stroke="none" />
        <path id="Baseline-S" d="M18,146 l800,0" />
        <path id="left-margin-Ultralight-S" d="M219.125,56 l0,110" />
        <path id="right-margin-Ultralight-S" d="M310.875,56 l0,110" />
        <path id="left-margin-Regular-S" d="M419.125,56 l0,110" />
        <path id="right-margin-Regular-S" d="M510.875,56 l0,110" />
        <path id="left-margin-Black-S" d="M619.125,56 l0,110" />
        <path id="right-margin-Black-S" d="M710.875,56 l0,110" />
        <path id="Capline-M" d="M18,276 l800,0" />
        <path id="Baseline-M" d="M18,346 l800,0" />
        <path id="Capline-L" d="M18,476 l800,0" />
        <path id="Baseline-L" d="M18,546 l800,0" />
    </g>
    <g id="Symbols">
        <g id="Ultralight-S">
            <path d="M265,100.5 L294.75,100.5 C294.982,100.5 295.204,100.593 295.368,100.757 C295.533,100.921 295.625,101.143 295.625,101.375 L295.625,139.875 C295.625,140.107 295.533,140.33 295.368,140.494 C295.204,140.658 294.982,140.75 294.75,140.75 L235.25,140.75 C235.018,140.75 234.796,140.658 234.632,140.494 C234.467,140.33 234.375,140.107 234.375,139.875 L234.375,101.375 C234.375,101.143 234.467,100.921 234.632,100.757 C234.796,100.593 235.018,100.5 235.25,100.5 L265,100.5 Z M265,95.25 L235.25,95.25 C233.626,95.25 232.068,95.896 230.919,97.044 C229.771,98.193 229.125,99.751 229.125,101.375 L229.125,139.875 C229.125,141.499 229.771,143.057 230.919,144.206 C232.068,145.355 233.626,146 235.25,146 L294.75,146 C296.374,146 297.932,145.355 299.081,144.206 C300.229,143.057 300.875,141.499 300.875,139.875 L300.875,101.375 C300.875,99.751 300.229,98.193 299.081,97.044 C297.932,95.896 296.374,95.251 294.75,95.251 L265,95.25 Z" />
            <path d="M239.883,100.244 L280.132,80.994 L276.61,79.712 L285.36,98.962 C285.96,100.281 287.516,100.865 288.836,100.265 C290.156,99.665 290.739,98.109 290.139,96.789 L281.39,77.539 C280.781,76.201 279.193,75.623 277.867,76.258 L237.618,95.507 C236.31,96.133 235.757,97.7 236.382,99.008 C237.008,100.316 238.575,100.869 239.883,100.244 Z" />
            <path d="M242.25,110.125 C242.25,108.192 243.817,106.625 245.75,106.625 C247.683,106.625 249.25,108.192 249.25,110.125 C249.25,112.058 247.683,113.625 245.75,113.625 C243.817,113.625 242.25,112.058 242.25,110.125 Z" />
            <path d="M242.25,120.625 C242.25,118.692 243.817,117.125 245.75,117.125 C247.683,117.125 249.25,118.692 249.25,120.625 C249.25,122.558 247.683,124.125 245.75,124.125 C243.817,124.125 242.25,122.558 242.25,120.625 Z" />
            <path d="M242.25,131.125 C242.25,129.192 243.817,127.625 245.75,127.625 C247.683,127.625 249.25,129.192 249.25,131.125 C249.25,133.058 247.683,134.625 245.75,134.625 C243.817,134.625 242.25,133.058 242.25,131.125 Z" />
            <path d="M259.75,133.75 L266.75,133.75 C267.486,133.75 268.188,133.441 268.685,132.899 L287.935,111.899 C288.914,110.83 288.842,109.17 287.774,108.19 C286.705,107.211 285.044,107.283 284.065,108.352 L264.815,129.351 L266.75,128.5 L259.75,128.5 C258.3,128.5 257.125,129.675 257.125,131.125 C257.125,132.575 258.3,133.75 259.75,133.75 Z" />
            <path d="M265,123.25 L275.5,123.25 C276.95,123.25 278.125,122.075 278.125,120.625 C278.125,119.176 276.95,118 275.5,118 L265,118 C263.55,118 262.375,119.176 262.375,120.625 C262.375,122.075 263.55,123.25 265,123.25 Z" />
        </g>
        <g id="Regular-S">
            <path d="M465,100.5 L494.75,100.5 C494.982,100.5 495.204,100.593 495.368,100.757 C495.533,100.921 495.625,101.143 495.625,101.375 L495.625,139.875 C495.625,140.107 495.533,140.33 495.368,140.494 C495.204,140.658 494.982,140.75 494.75,140.75 L435.25,140.75 C435.018,140.75 434.796,140.658 434.632,140.494 C434.467,140.33 434.375,140.107 434.375,139.875 L434.375,101.375 C434.375,101.143 434.467,100.921 434.632,100.757 C434.796,100.593 435.018,100.5 435.25,100.5 L465,100.5 Z M465,95.25 L435.25,95.25 C433.626,95.25 432.068,95.896 430.919,97.044 C429.771,98.193 429.125,99.751 429.125,101.375 L429.125,139.875 C429.125,141.499 429.771,143.057 430.919,144.206 C432.068,145.355 433.626,146 435.25,146 L494.75,146 C496.374,146 497.932,145.355 499.081,144.206 C500.229,143.057 500.875,141.499 500.875,139.875 L500.875,101.375 C500.875,99.751 500.229,98.193 499.081,97.044 C497.932,95.896 496.374,95.251 494.75,95.251 L465,95.25 Z" />
            <path d="M439.883,100.244 L480.132,80.994 L476.61,79.712 L485.36,98.962 C485.96,100.281 487.516,100.865 488.836,100.265 C490.156,99.665 490.739,98.109 490.139,96.789 L481.39,77.539 C480.781,76.201 479.193,75.623 477.867,76.258 L437.618,95.507 C436.31,96.133 435.757,97.7 436.382,99.008 C437.008,100.316 438.575,100.869 439.883,100.244 Z" />
            <path d="M442.25,110.125 C442.25,108.192 443.817,106.625 445.75,106.625 C447.683,106.625 449.25,108.192 449.25,110.125 C449.25,112.058 447.683,113.625 445.75,113.625 C443.817,113.625 442.25,112.058 442.25,110.125 Z" />
            <path d="M442.25,120.625 C442.25,118.692 443.817,117.125 445.75,117.125 C447.683,117.125 449.25,118.692 449.25,120.625 C449.25,122.558 447.683,124.125 445.75,124.125 C443.817,124.125 442.25,122.558 442.25,120.625 Z" />
            <path d="M442.25,131.125 C442.25,129.192 443.817,127.625 445.75,127.625 C447.683,127.625 449.25,129.192 449.25,131.125 C449.25,133.058 447.683,134.625 445.75,134.625 C443.817,134.625 442.25,133.058 442.25,131.125 Z" />
            <path d="M459.75,133.75 L466.75,133.75 C467.486,133.75 468.188,133.441 468.685,132.899 L487.935,111.899 C488.914,110.83 488.842,109.17 487.774,108.19 C486.705,107.211 485.044,107.283 484.065,108.352 L464.815,129.351 L466.75,128.5 L459.75,128.5 C458.3,128.5 457.125,129.675 457.125,131.125 C457.125,132.575 458.3,133.75 459.75,133.75 Z" />
            <path d="M465,123.25 L475.5,123.25 C476.95,123.25 478.125,122.075 478.125,120.625 C478.125,119.176 476.95,118 475.5,118 L465,118 C463.55,118 462.375,119.176 462.375,120.625 C462.375,122.075 463.55,123.25 465,123.25 Z" />
        </g>
        <g id="Black-S">
            <path d="M665,100.5 L694.75,100.5 C694.982,100.5 695.204,100.593 695.368,100.757 C695.533,100.921 695.625,101.143 695.625,101.375 L695.625,139.875 C695.625,140.107 695.533,140.33 695.368,140.494 C695.204,140.658 694.982,140.75 694.75,140.75 L635.25,140.75 C635.018,140.75 634.796,140.658 634.632,140.494 C634.467,140.33 634.375,140.107 634.375,139.875 L634.375,101.375 C634.375,101.143 634.468,100.921 634.632,100.757 C634.796,100.593 635.018,100.5 635.25,100.5 L665,100.5 Z M665,95.25 L635.25,95.25 C633.626,95.25 632.068,95.896 630.919,97.044 C629.771,98.193 629.125,99.751 629.125,101.375 L629.125,139.875 C629.125,141.499 629.771,143.057 630.919,144.206 C632.068,145.355 633.626,146 635.25,146 L694.75,146 C696.374,146 697.932,145.355 699.081,144.206 C700.229,143.057 700.875,141.499 700.875,139.875 L700.875,101.375 C700.875,99.751 700.229,98.193 699.081,97.044 C697.932,95.896 696.374,95.251 694.75,95.251 L665,95.25 Z" />
            <path d="M639.883,100.244 L680.132,80.994 L676.61,79.712 L685.36,98.962 C685.96,100.281 687.516,100.865 688.836,100.265 C690.156,99.665 690.739,98.109 690.139,96.789 L681.39,77.539 C680.781,76.201 679.193,75.623 677.867,76.258 L637.618,95.507 C636.31,96.133 635.757,97.7 636.382,99.008 C637.008,100.316 638.575,100.869 639.883,100.244 Z" />
            <path d="M642.25,110.125 C642.25,108.192 643.817,106.625 645.75,106.625 C647.683,106.625 649.25,108.192 649.25,110.125 C649.25,112.058 647.683,113.625 645.75,113.625 C643.817,113.625 642.25,112.058 642.25,110.125 Z" />
            <path d="M642.25,120.625 C642.25,118.692 643.817,117.125 645.75,117.125 C647.683,117.125 649.25,118.692 649.25,120.625 C649.25,122.558 647.683,124.125 645.75,124.125 C643.817,124.125 642.25,122.558 642.25,120.625 Z" />
            <path d="M642.25,131.125 C642.25,129.192 643.817,127.625 645.75,127.625 C647.683,127.625 649.25,129.192 649.25,131.125 C649.25,133.058 647.683,134.625 645.75,134.625 C643.817,134.625 642.25,133.058 642.25,131.125 Z" />
            <path d="M659.75,133.75 L666.75,133.75 C667.486,133.75 668.188,133.441 668.685,132.899 L687.935,111.899 C688.914,110.83 688.842,109.17 687.774,108.19 C686.705,107.211 685.044,107.283 684.065,108.352 L664.815,129.351 L666.75,128.5 L659.75,128.5 C658.3,128.5 657.125,129.675 657.125,131.125 C657.125,132.575 658.3,133.75 659.75,133.75 Z" />
            <path d="M665,123.25 L675.5,123.25 C676.95,123.25 678.125,122.075 678.125,120.625 C678.125,119.176 676.95,118 675.5,118 L665,118 C663.55,118 662.375,119.176 662.375,120.625 C662.375,122.075 663.55,123.25 665,123.25 Z" />
        </g>
    </g>
</svg>