<?xml version="1.0" encoding="UTF-8"?>
<svg height="600" width="800" xmlns="http://www.w3.org/2000/svg" xmlns:xlink="http://www.w3.org/1999/xlink">
    <g id="Notes" font-family="'LucidaGrande', 'Lucida Grande', sans-serif" font-size="13">
        <rect fill="white" height="600.0" width="800.0" x="0.0" y="0.0" />
        <g font-size="13">
            <text x="18.0" y="176.0">Small</text>
            <text x="18.0" y="376.0">Medium</text>
            <text x="18.0" y="576.0">Large</text>
        </g>
        <g font-size="9">
            <text x="250.0" y="30.0">Ultralight</text>
            <text x="450.0" y="30.0">Regular</text>
            <text x="650.0" y="30.0">Black</text>
            <text id="template-version" fill="#505050" text-anchor="end" x="785.0" y="575.0">Template v.3.0</text>
            <a href="https://github.com/swhitty/SwiftDraw">
                <text fill="#505050" text-anchor="end" x="785.0" y="590.0">https://github.com/swhitty/SwiftDraw</text>
            </a>
        </g>
    </g>
    <g id="Guides" stroke="rgb(39, 170, 225)" stroke-width="0.5">
        <path id="Capline-S" d="M18,76 l800,0" />
        <path id="H-reference" d="M85,145.755 L87.685,145.755 L113.369,79.287 L114.052,79.287 L114.052,76 L112.148,76 L85,145.755 Z M95.693,121.536 L130.996,121.536 L130.263,119.313 L96.474,119.313 L95.693,121.536 Z M139.15,145.755 L141.787,145.755 L114.638,76 L113.466,76 L113.466,79.287 L139.15,145.755 Z" stroke="none" />
        <path id="Baseline-S" d="M18,146 l800,0" />
        <path id="left-margin-Ultralight-S" d="M221,56 l0,110" />
        <path id="right-margin-Ultralight-S" d="M309,56 l0,110" />
        <path id="left-margin-Regular-S" d="M421,56 l0,110" />
        <path id="right-margin-Regular-S" d="M509,56 l0,110" />
        <path id="left-margin-Black-S" d="M621,56 l0,110" />
        <path id="right-margin-Black-S" d="M709,56 l0,110" />
        <path id="Capline-M" d="M18,276 l800,0" />
        <path id="Baseline-M" d="M18,346 l800,0" />
        <path id="Capline-L" d="M18,476 l800,0" />
        <path id="Baseline-L" d="M18,546 l800,0" />
    </g>
    <g id="Symbols">
        <g id="Ultralight-S">
            <path d="M290.233,98.624 L290.233,81.698 C290.233,78.551 287.682,76 284.535,76 L238.953,76 C235.807,76 233.256,78.551 233.256,81.698 L233.256,140.302 C233.256,143.449 235.807,146 238.953,146 L255.233,146 C256.581,146 257.674,144.907 257.674,143.558 C257.674,142.21 256.581,141.116 255.233,141.116 L238.953,141.116 C238.504,141.116 238.14,140.752 238.14,140.302 L238.14,81.698 C238.14,81.248 238.504,80.884 238.953,80.884 L284.535,80.884 C284.984,80.884 285.349,81.248 285.349,81.698 L285.349,98.624 C285.349,99.973 286.442,101.066 287.791,101.066 C289.139,101.066 290.233,99.973 290.233,98.624 Z" />
            <path d="M248.721,97.163 L269.884,97.163 C271.232,97.163 272.326,96.07 272.326,94.721 C272.326,93.372 271.232,92.279 269.884,92.279 L248.721,92.279 C247.372,92.279 246.279,93.372 246.279,94.721 C246.279,96.07 247.372,97.163 248.721,97.163 Z" />
            <path d="M248.721,108.558 L256.86,108.558 C258.209,108.558 259.302,107.465 259.302,106.116 C259.302,104.768 258.209,103.674 256.86,103.674 L248.721,103.674 C247.372,103.674 246.279,104.768 246.279,106.116 C246.279,107.465 247.372,108.558 248.721,108.558 Z" />
            <path d="M278.023,113.442 C285.665,113.442 291.86,119.637 291.86,127.279 C291.86,134.921 285.665,141.116 278.023,141.116 C270.381,141.116 264.186,134.921 264.186,127.279 C264.186,119.637 270.381,113.442 278.023,113.442 Z M278.023,108.558 C267.684,108.558 259.302,116.94 259.302,127.279 C259.302,137.618 267.684,146 278.023,146 C288.363,146 296.744,137.618 296.744,127.279 C296.744,116.94 288.363,108.558 278.023,108.558 Z" />
            <path d="M275.581,130.535 L275.581,135.419 C275.581,136.767 276.675,137.86 278.023,137.86 C279.372,137.86 280.465,136.767 280.465,135.419 L280.465,130.535 C280.465,129.186 279.372,128.093 278.023,128.093 C276.675,128.093 275.581,129.186 275.581,130.535 Z" />
            <path d="M274.767,120.767 C274.767,118.969 276.225,117.512 278.023,117.512 C279.821,117.512 281.279,118.969 281.279,120.767 C281.279,122.566 279.821,124.023 278.023,124.023 C276.225,124.023 274.767,122.566 274.767,120.767 Z" />
        </g>
        <g id="Regular-S">
            <path d="M490.233,98.624 L490.233,81.698 C490.233,78.551 487.682,76 484.535,76 L438.953,76 C435.807,76 433.256,78.551 433.256,81.698 L433.256,140.302 C433.256,143.449 435.807,146 438.953,146 L455.233,146 C456.581,146 457.674,144.907 457.674,143.558 C457.674,142.21 456.581,141.116 455.233,141.116 L438.953,141.116 C438.504,141.116 438.14,140.752 438.14,140.302 L438.14,81.698 C438.14,81.248 438.504,80.884 438.953,80.884 L484.535,80.884 C484.984,80.884 485.349,81.248 485.349,81.698 L485.349,98.624 C485.349,99.973 486.442,101.066 487.791,101.066 C489.139,101.066 490.233,99.973 490.233,98.624 Z" />
            <path d="M448.721,97.163 L469.884,97.163 C471.232,97.163 472.326,96.07 472.326,94.721 C472.326,93.372 471.232,92.279 469.884,92.279 L448.721,92.279 C447.372,92.279 446.279,93.372 446.279,94.721 C446.279,96.07 447.372,97.163 448.721,97.163 Z" />
            <path d="M448.721,108.558 L456.86,108.558 C458.209,108.558 459.302,107.465 459.302,106.116 C459.302,104.768 458.209,103.674 456.86,103.674 L448.721,103.674 C447.372,103.674 446.279,104.768 446.279,106.116 C446.279,107.465 447.372,108.558 448.721,108.558 Z" />
            <path d="M478.023,113.442 C485.665,113.442 491.86,119.637 491.86,127.279 C491.86,134.921 485.665,141.116 478.023,141.116 C470.381,141.116 464.186,134.921 464.186,127.279 C464.186,119.637 470.381,113.442 478.023,113.442 Z M478.023,108.558 C467.684,108.558 459.302,116.94 459.302,127.279 C459.302,137.618 467.684,146 478.023,146 C488.363,146 496.744,137.618 496.744,127.279 C496.744,116.94 488.363,108.558 478.023,108.558 Z" />
            <path d="M475.581,130.535 L475.581,135.419 C475.581,136.767 476.675,137.86 478.023,137.86 C479.372,137.86 480.465,136.767 480.465,135.419 L480.465,130.535 C480.465,129.186 479.372,128.093 478.023,128.093 C476.675,128.093 475.581,129.186 475.581,130.535 Z" />
            <path d="M474.767,120.767 C474.767,118.969 476.225,117.512 478.023,117.512 C479.821,117.512 481.279,118.969 481.279,120.767 C481.279,122.566 479.821,124.023 478.023,124.023 C476.225,124.023 474.767,122.566 474.767,120.767 Z" />
        </g>
        <g id="Black-S">
            <path d="M690.233,98.624 L690.233,81.698 C690.233,78.551 687.682,76 684.535,76 L638.953,76 C635.807,76 633.256,78.551 633.256,81.698 L633.256,140.302 C633.256,143.449 635.807,146 638.953,146 L655.233,146 C656.581,146 657.674,144.907 657.674,143.558 C657.674,142.21 656.581,141.116 655.233,141.116 L638.953,141.116 C638.504,141.116 638.14,140.752 638.14,140.302 L638.14,81.698 C638.14,81.248 638.504,80.884 638.953,80.884 L684.535,80.884 C684.984,80.884 685.349,81.248 685.349,81.698 L685.349,98.624 C685.349,99.973 686.442,101.066 687.791,101.066 C689.139,101.066 690.233,99.973 690.233,98.624 Z" />
            <path d="M648.721,97.163 L669.884,97.163 C671.232,97.163 672.326,96.07 672.326,94.721 C672.326,93.372 671.232,92.279 669.884,92.279 L648.721,92.279 C647.372,92.279 646.279,93.372 646.279,94.721 C646.279,96.07 647.372,97.163 648.721,97.163 Z" />
            <path d="M648.721,108.558 L656.86,108.558 C658.209,108.558 659.302,107.465 659.302,106.116 C659.302,104.768 658.209,103.674 656.86,103.674 L648.721,103.674 C647.372,103.674 646.279,104.768 646.279,106.116 C646.279,107.465 647.372,108.558 648.721,108.558 Z" />
            <path d="M678.023,113.442 C685.665,113.442 691.86,119.637 691.86,127.279 C691.86,134.921 685.665,141.116 678.023,141.116 C670.381,141.116 664.186,134.921 664.186,127.279 C664.186,119.637 670.381,113.442 678.023,113.442 Z M678.023,108.558 C667.684,108.558 659.302,116.94 659.302,127.279 C659.302,137.618 667.684,146 678.023,146 C688.363,146 696.744,137.618 696.744,127.279 C696.744,116.94 688.363,108.558 678.023,108.558 Z" />
            <path d="M675.581,130.535 L675.581,135.419 C675.581,136.767 676.675,137.86 678.023,137.86 C679.372,137.86 680.465,136.767 680.465,135.419 L680.465,130.535 C680.465,129.186 679.372,128.093 678.023,128.093 C676.675,128.093 675.581,129.186 675.581,130.535 Z" />
            <path d="M674.767,120.767 C674.767,118.969 676.225,117.512 678.023,117.512 C679.821,117.512 681.279,118.969 681.279,120.767 C681.279,122.566 679.821,124.023 678.023,124.023 C676.225,124.023 674.767,122.566 674.767,120.767 Z" />
        </g>
    </g>
</svg>