<?xml version="1.0" encoding="UTF-8"?>
<svg height="600" width="800" xmlns="http://www.w3.org/2000/svg" xmlns:xlink="http://www.w3.org/1999/xlink">
    <g id="Notes" font-family="'LucidaGrande', 'Lucida Grande', sans-serif" font-size="13">
        <rect fill="white" height="600.0" width="800.0" x="0.0" y="0.0" />
        <g font-size="13">
            <text x="18.0" y="176.0">Small</text>
            <text x="18.0" y="376.0">Medium</text>
            <text x="18.0" y="576.0">Large</text>
        </g>
        <g font-size="9">
            <text x="250.0" y="30.0">Ultralight</text>
            <text x="450.0" y="30.0">Regular</text>
            <text x="650.0" y="30.0">Black</text>
            <text id="template-version" fill="#505050" text-anchor="end" x="785.0" y="575.0">Template v.3.0</text>
            <a href="https://github.com/swhitty/SwiftDraw">
                <text fill="#505050" text-anchor="end" x="785.0" y="590.0">https://github.com/swhitty/SwiftDraw</text>
            </a>
        </g>
    </g>
    <g id="Guides" stroke="rgb(39, 170, 225)" stroke-width="0.5">
        <path id="Capline-S" d="M18,76 l800,0" />
        <path id="H-reference" d="M85,145.755 L87.685,145.755 L113.369,79.287 L114.052,79.287 L114.052,76 L112.148,76 L85,145.755 Z M95.693,121.536 L130.996,121.536 L130.263,119.313 L96.474,119.313 L95.693,121.536 Z M139.15,145.755 L141.787,145.755 L114.638,76 L113.466,76 L113.466,79.287 L139.15,145.755 Z" stroke="none" />
        <path id="Baseline-S" d="M18,146 l800,0" />
        <path id="left-margin-Ultralight-S" d="M221,56 l0,110" />
        <path id="right-margin-Ultralight-S" d="M309,56 l0,110" />
        <path id="left-margin-Regular-S" d="M421,56 l0,110" />
        <path id="right-margin-Regular-S" d="M509,56 l0,110" />
        <path id="left-margin-Black-S" d="M621,56 l0,110" />
        <path id="right-margin-Black-S" d="M709,56 l0,110" />
        <path id="Capline-M" d="M18,276 l800,0" />
        <path id="Baseline-M" d="M18,346 l800,0" />
        <path id="Capline-L" d="M18,476 l800,0" />
        <path id="Baseline-L" d="M18,546 l800,0" />
    </g>
    <g id="Symbols">
        <g id="Ultralight-S">
            <path d="M238.14,130.535 L238.14,143.558 C238.14,144.907 239.233,146 240.581,146 L292.674,146 C294.023,146 295.116,144.907 295.116,143.558 L295.116,78.442 C295.116,77.093 294.023,76 292.674,76 L240.581,76 C239.233,76 238.14,77.093 238.14,78.442 L238.14,91.465 C238.14,92.814 239.233,93.907 240.581,93.907 C241.93,93.907 243.023,92.814 243.023,91.465 L243.023,78.442 L240.581,80.884 L292.674,80.884 L290.233,78.442 L290.233,143.558 L292.674,141.116 L240.581,141.116 L243.023,143.558 L243.023,130.535 C243.023,129.186 241.93,128.093 240.581,128.093 C239.233,128.093 238.14,129.186 238.14,130.535 Z" />
            <path d="M237.326,123.209 L243.837,123.209 C245.186,123.209 246.279,122.116 246.279,120.767 C246.279,119.419 245.186,118.326 243.837,118.326 L237.326,118.326 C235.977,118.326 234.884,119.419 234.884,120.767 C234.884,122.116 235.977,123.209 237.326,123.209 Z" />
            <path d="M237.326,113.442 L243.837,113.442 C245.186,113.442 246.279,112.349 246.279,111 C246.279,109.651 245.186,108.558 243.837,108.558 L237.326,108.558 C235.977,108.558 234.884,109.651 234.884,111 C234.884,112.349 235.977,113.442 237.326,113.442 Z" />
            <path d="M237.326,103.674 L243.837,103.674 C245.186,103.674 246.279,102.581 246.279,101.233 C246.279,99.884 245.186,98.791 243.837,98.791 L237.326,98.791 C235.977,98.791 234.884,99.884 234.884,101.233 C234.884,102.581 235.977,103.674 237.326,103.674 Z" />
            <path d="M262.558,99.605 C262.558,97.357 264.38,95.535 266.628,95.535 C268.876,95.535 270.698,97.357 270.698,99.605 C270.698,101.852 268.876,103.674 266.628,103.674 C264.38,103.674 262.558,101.852 262.558,99.605 Z M257.674,99.605 C257.674,104.55 261.683,108.558 266.628,108.558 C271.573,108.558 275.581,104.55 275.581,99.605 C275.581,94.66 271.573,90.651 266.628,90.651 C261.683,90.651 257.674,94.66 257.674,99.605 Z" />
            <path d="M282.093,128.907 C282.093,120.366 275.169,113.442 266.628,113.442 C258.087,113.442 251.163,120.366 251.163,128.907 C251.163,130.256 252.256,131.349 253.605,131.349 C254.953,131.349 256.047,130.256 256.047,128.907 C256.047,123.063 260.784,118.326 266.628,118.326 C272.472,118.326 277.209,123.063 277.209,128.907 C277.209,130.256 278.303,131.349 279.651,131.349 C281,131.349 282.093,130.256 282.093,128.907 Z" />
        </g>
        <g id="Regular-S">
            <path d="M438.14,130.535 L438.14,143.558 C438.14,144.907 439.233,146 440.581,146 L492.674,146 C494.023,146 495.116,144.907 495.116,143.558 L495.116,78.442 C495.116,77.093 494.023,76 492.674,76 L440.581,76 C439.233,76 438.14,77.093 438.14,78.442 L438.14,91.465 C438.14,92.814 439.233,93.907 440.581,93.907 C441.93,93.907 443.023,92.814 443.023,91.465 L443.023,78.442 L440.581,80.884 L492.674,80.884 L490.233,78.442 L490.233,143.558 L492.674,141.116 L440.581,141.116 L443.023,143.558 L443.023,130.535 C443.023,129.186 441.93,128.093 440.581,128.093 C439.233,128.093 438.14,129.186 438.14,130.535 Z" />
            <path d="M437.326,123.209 L443.837,123.209 C445.186,123.209 446.279,122.116 446.279,120.767 C446.279,119.419 445.186,118.326 443.837,118.326 L437.326,118.326 C435.977,118.326 434.884,119.419 434.884,120.767 C434.884,122.116 435.977,123.209 437.326,123.209 Z" />
            <path d="M437.326,113.442 L443.837,113.442 C445.186,113.442 446.279,112.349 446.279,111 C446.279,109.651 445.186,108.558 443.837,108.558 L437.326,108.558 C435.977,108.558 434.884,109.651 434.884,111 C434.884,112.349 435.977,113.442 437.326,113.442 Z" />
            <path d="M437.326,103.674 L443.837,103.674 C445.186,103.674 446.279,102.581 446.279,101.233 C446.279,99.884 445.186,98.791 443.837,98.791 L437.326,98.791 C435.977,98.791 434.884,99.884 434.884,101.233 C434.884,102.581 435.977,103.674 437.326,103.674 Z" />
            <path d="M462.558,99.605 C462.558,97.357 464.38,95.535 466.628,95.535 C468.876,95.535 470.698,97.357 470.698,99.605 C470.698,101.852 468.876,103.674 466.628,103.674 C464.38,103.674 462.558,101.852 462.558,99.605 Z M457.674,99.605 C457.674,104.55 461.683,108.558 466.628,108.558 C471.573,108.558 475.581,104.55 475.581,99.605 C475.581,94.66 471.573,90.651 466.628,90.651 C461.683,90.651 457.674,94.66 457.674,99.605 Z" />
            <path d="M482.093,128.907 C482.093,120.366 475.169,113.442 466.628,113.442 C458.087,113.442 451.163,120.366 451.163,128.907 C451.163,130.256 452.256,131.349 453.605,131.349 C454.953,131.349 456.047,130.256 456.047,128.907 C456.047,123.063 460.784,118.326 466.628,118.326 C472.472,118.326 477.209,123.063 477.209,128.907 C477.209,130.256 478.303,131.349 479.651,131.349 C481,131.349 482.093,130.256 482.093,128.907 Z" />
        </g>
        <g id="Black-S">
            <path d="M638.14,130.535 L638.14,143.558 C638.14,144.907 639.233,146 640.581,146 L692.674,146 C694.023,146 695.116,144.907 695.116,143.558 L695.116,78.442 C695.116,77.093 694.023,76 692.674,76 L640.581,76 C639.233,76 638.14,77.093 638.14,78.442 L638.14,91.465 C638.14,92.814 639.233,93.907 640.581,93.907 C641.93,93.907 643.023,92.814 643.023,91.465 L643.023,78.442 L640.581,80.884 L692.674,80.884 L690.233,78.442 L690.233,143.558 L692.674,141.116 L640.581,141.116 L643.023,143.558 L643.023,130.535 C643.023,129.186 641.93,128.093 640.581,128.093 C639.233,128.093 638.14,129.186 638.14,130.535 Z" />
            <path d="M637.326,123.209 L643.837,123.209 C645.186,123.209 646.279,122.116 646.279,120.767 C646.279,119.419 645.186,118.326 643.837,118.326 L637.326,118.326 C635.977,118.326 634.884,119.419 634.884,120.767 C634.884,122.116 635.977,123.209 637.326,123.209 Z" />
            <path d="M637.326,113.442 L643.837,113.442 C645.186,113.442 646.279,112.349 646.279,111 C646.279,109.651 645.186,108.558 643.837,108.558 L637.326,108.558 C635.977,108.558 634.884,109.651 634.884,111 C634.884,112.349 635.977,113.442 637.326,113.442 Z" />
            <path d="M637.326,103.674 L643.837,103.674 C645.186,103.674 646.279,102.581 646.279,101.233 C646.279,99.884 645.186,98.791 643.837,98.791 L637.326,98.791 C635.977,98.791 634.884,99.884 634.884,101.233 C634.884,102.581 635.977,103.674 637.326,103.674 Z" />
            <path d="M662.558,99.605 C662.558,97.357 664.38,95.535 666.628,95.535 C668.876,95.535 670.698,97.357 670.698,99.605 C670.698,101.852 668.876,103.674 666.628,103.674 C664.38,103.674 662.558,101.852 662.558,99.605 Z M657.674,99.605 C657.674,104.55 661.683,108.558 666.628,108.558 C671.573,108.558 675.581,104.55 675.581,99.605 C675.581,94.66 671.573,90.651 666.628,90.651 C661.683,90.651 657.674,94.66 657.674,99.605 Z" />
            <path d="M682.093,128.907 C682.093,120.366 675.169,113.442 666.628,113.442 C658.087,113.442 651.163,120.366 651.163,128.907 C651.163,130.256 652.256,131.349 653.605,131.349 C654.953,131.349 656.047,130.256 656.047,128.907 C656.047,123.063 660.784,118.326 666.628,118.326 C672.472,118.326 677.209,123.063 677.209,128.907 C677.209,130.256 678.303,131.349 679.651,131.349 C681,131.349 682.093,130.256 682.093,128.907 Z" />
        </g>
    </g>
</svg>