<?xml version="1.0" encoding="UTF-8"?>
<svg height="600" width="800" xmlns="http://www.w3.org/2000/svg" xmlns:xlink="http://www.w3.org/1999/xlink">
    <g id="Notes" font-family="'LucidaGrande', 'Lucida Grande', sans-serif" font-size="13">
        <rect fill="white" height="600.0" width="800.0" x="0.0" y="0.0" />
        <g font-size="13">
            <text x="18.0" y="176.0">Small</text>
            <text x="18.0" y="376.0">Medium</text>
            <text x="18.0" y="576.0">Large</text>
        </g>
        <g font-size="9">
            <text x="250.0" y="30.0">Ultralight</text>
            <text x="450.0" y="30.0">Regular</text>
            <text x="650.0" y="30.0">Black</text>
            <text id="template-version" fill="#505050" text-anchor="end" x="785.0" y="575.0">Template v.3.0</text>
            <a href="https://github.com/swhitty/SwiftDraw">
                <text fill="#505050" text-anchor="end" x="785.0" y="590.0">https://github.com/swhitty/SwiftDraw</text>
            </a>
        </g>
    </g>
    <g id="Guides" stroke="rgb(39, 170, 225)" stroke-width="0.5">
        <path id="Capline-S" d="M18,76 l800,0" />
        <path id="H-reference" d="M85,145.755 L87.685,145.755 L113.369,79.287 L114.052,79.287 L114.052,76 L112.148,76 L85,145.755 Z M95.693,121.536 L130.996,121.536 L130.263,119.313 L96.474,119.313 L95.693,121.536 Z M139.15,145.755 L141.787,145.755 L114.638,76 L113.466,76 L113.466,79.287 L139.15,145.755 Z" stroke="none" />
        <path id="Baseline-S" d="M18,146 l800,0" />
        <path id="left-margin-Ultralight-S" d="M220,56 l0,110" />
        <path id="right-margin-Ultralight-S" d="M310,56 l0,110" />
        <path id="left-margin-Regular-S" d="M420,56 l0,110" />
        <path id="right-margin-Regular-S" d="M510,56 l0,110" />
        <path id="left-margin-Black-S" d="M620,56 l0,110" />
        <path id="right-margin-Black-S" d="M710,56 l0,110" />
        <path id="Capline-M" d="M18,276 l800,0" />
        <path id="Baseline-M" d="M18,346 l800,0" />
        <path id="Capline-L" d="M18,476 l800,0" />
        <path id="Baseline-L" d="M18,546 l800,0" />
    </g>
    <g id="Symbols">
        <g id="Ultralight-S">
            <path d="M300,115.038 L300,84.077 C300,79.616 296.384,76 291.923,76 L238.077,76 C233.616,76 230,79.616 230,84.077 L230,137.923 C230,142.384 233.616,146 238.077,146 L260.962,146 C262.448,146 263.654,144.795 263.654,143.308 C263.654,141.821 262.448,140.615 260.962,140.615 L238.077,140.615 C236.59,140.615 235.385,139.41 235.385,137.923 L235.385,84.077 C235.385,82.59 236.59,81.385 238.077,81.385 L291.923,81.385 C293.41,81.385 294.615,82.59 294.615,84.077 L294.615,115.038 C294.615,116.525 295.821,117.731 297.308,117.731 C298.795,117.731 300,116.525 300,115.038 Z" />
            <path d="M297.308,126.256 L265,126.256 C263.513,126.256 262.308,127.462 262.308,128.949 C262.308,130.436 263.513,131.641 265,131.641 L297.308,131.641 C298.795,131.641 300,130.436 300,128.949 C300,127.462 298.795,126.256 297.308,126.256 Z" />
            <path d="M277.673,137.814 L266.904,127.045 L266.904,130.852 L277.673,120.083 C278.724,119.032 278.724,117.327 277.673,116.276 C276.622,115.224 274.917,115.224 273.865,116.276 L263.096,127.045 C262.045,128.096 262.045,129.801 263.096,130.852 L273.865,141.622 C274.917,142.673 276.622,142.673 277.673,141.622 C278.724,140.57 278.724,138.866 277.673,137.814 Z" />
        </g>
        <g id="Regular-S">
            <path d="M500,115.038 L500,84.077 C500,79.616 496.384,76 491.923,76 L438.077,76 C433.616,76 430,79.616 430,84.077 L430,137.923 C430,142.384 433.616,146 438.077,146 L460.962,146 C462.448,146 463.654,144.795 463.654,143.308 C463.654,141.821 462.448,140.615 460.962,140.615 L438.077,140.615 C436.59,140.615 435.385,139.41 435.385,137.923 L435.385,84.077 C435.385,82.59 436.59,81.385 438.077,81.385 L491.923,81.385 C493.41,81.385 494.615,82.59 494.615,84.077 L494.615,115.038 C494.615,116.525 495.821,117.731 497.308,117.731 C498.795,117.731 500,116.525 500,115.038 Z" />
            <path d="M497.308,126.256 L465,126.256 C463.513,126.256 462.308,127.462 462.308,128.949 C462.308,130.436 463.513,131.641 465,131.641 L497.308,131.641 C498.795,131.641 500,130.436 500,128.949 C500,127.462 498.795,126.256 497.308,126.256 Z" />
            <path d="M477.673,137.814 L466.904,127.045 L466.904,130.852 L477.673,120.083 C478.724,119.032 478.724,117.327 477.673,116.276 C476.622,115.224 474.917,115.224 473.865,116.276 L463.096,127.045 C462.045,128.096 462.045,129.801 463.096,130.852 L473.865,141.622 C474.917,142.673 476.622,142.673 477.673,141.622 C478.724,140.57 478.724,138.866 477.673,137.814 Z" />
        </g>
        <g id="Black-S">
            <path d="M700,115.038 L700,84.077 C700,79.616 696.384,76 691.923,76 L638.077,76 C633.616,76 630,79.616 630,84.077 L630,137.923 C630,142.384 633.616,146 638.077,146 L660.962,146 C662.448,146 663.654,144.795 663.654,143.308 C663.654,141.821 662.448,140.615 660.962,140.615 L638.077,140.615 C636.59,140.615 635.385,139.41 635.385,137.923 L635.385,84.077 C635.385,82.59 636.59,81.385 638.077,81.385 L691.923,81.385 C693.41,81.385 694.615,82.59 694.615,84.077 L694.615,115.038 C694.615,116.525 695.821,117.731 697.308,117.731 C698.795,117.731 700,116.525 700,115.038 Z" />
            <path d="M697.308,126.256 L665,126.256 C663.513,126.256 662.308,127.462 662.308,128.949 C662.308,130.436 663.513,131.641 665,131.641 L697.308,131.641 C698.795,131.641 700,130.436 700,128.949 C700,127.462 698.795,126.256 697.308,126.256 Z" />
            <path d="M677.673,137.814 L666.904,127.045 L666.904,130.852 L677.673,120.083 C678.724,119.032 678.724,117.327 677.673,116.276 C676.622,115.224 674.917,115.224 673.865,116.276 L663.096,127.045 C662.045,128.096 662.045,129.801 663.096,130.852 L673.865,141.622 C674.917,142.673 676.622,142.673 677.673,141.622 C678.724,140.57 678.724,138.866 677.673,137.814 Z" />
        </g>
    </g>
</svg>