<?xml version="1.0" encoding="UTF-8"?>
<svg height="600" width="800" xmlns="http://www.w3.org/2000/svg" xmlns:xlink="http://www.w3.org/1999/xlink">
    <g id="Notes" font-family="'LucidaGrande', 'Lucida Grande', sans-serif" font-size="13">
        <rect fill="white" height="600.0" width="800.0" x="0.0" y="0.0" />
        <g font-size="13">
            <text x="18.0" y="176.0">Small</text>
            <text x="18.0" y="376.0">Medium</text>
            <text x="18.0" y="576.0">Large</text>
        </g>
        <g font-size="9">
            <text x="250.0" y="30.0">Ultralight</text>
            <text x="450.0" y="30.0">Regular</text>
            <text x="650.0" y="30.0">Black</text>
            <text id="template-version" fill="#505050" text-anchor="end" x="785.0" y="575.0">Template v.3.0</text>
            <a href="https://github.com/swhitty/SwiftDraw">
                <text fill="#505050" text-anchor="end" x="785.0" y="590.0">https://github.com/swhitty/SwiftDraw</text>
            </a>
        </g>
    </g>
    <g id="Guides" stroke="rgb(39, 170, 225)" stroke-width="0.5">
        <path id="Capline-S" d="M18,76 l800,0" />
        <path id="H-reference" d="M85,145.755 L87.685,145.755 L113.369,79.287 L114.052,79.287 L114.052,76 L112.148,76 L85,145.755 Z M95.693,121.536 L130.996,121.536 L130.263,119.313 L96.474,119.313 L95.693,121.536 Z M139.15,145.755 L141.787,145.755 L114.638,76 L113.466,76 L113.466,79.287 L139.15,145.755 Z" stroke="none" />
        <path id="Baseline-S" d="M18,146 l800,0" />
        <path id="left-margin-Ultralight-S" d="M218,56 l0,110" />
        <path id="right-margin-Ultralight-S" d="M312,56 l0,110" />
        <path id="left-margin-Regular-S" d="M418,56 l0,110" />
        <path id="right-margin-Regular-S" d="M512,56 l0,110" />
        <path id="left-margin-Black-S" d="M618,56 l0,110" />
        <path id="right-margin-Black-S" d="M712,56 l0,110" />
        <path id="Capline-M" d="M18,276 l800,0" />
        <path id="Baseline-M" d="M18,346 l800,0" />
        <path id="Capline-L" d="M18,476 l800,0" />
        <path id="Baseline-L" d="M18,546 l800,0" />
    </g>
    <g id="Symbols">
        <g id="Ultralight-S">
            <path d="M240,95 L240,143 L243,140 L231,140 L234,143 L234,95 L231,98 L243,98 L240,95 Z M246,95 C246,93.343 244.657,92 243,92 L231,92 C229.343,92 228,93.343 228,95 L228,143 C228,144.657 229.343,146 231,146 L243,146 C244.657,146 246,144.657 246,143 L246,95 Z" />
            <path d="M268,79 L268,143 L271,140 L259,140 L262,143 L262,79 L259,82 L271,82 L268,79 Z M274,79 C274,77.343 272.657,76 271,76 L259,76 C257.343,76 256,77.343 256,79 L256,143 C256,144.657 257.343,146 259,146 L271,146 C272.657,146 274,144.657 274,143 L274,79 Z" />
            <path d="M296,107 L296,143 L299,140 L287,140 L290,143 L290,107 L287,110 L299,110 L296,107 Z M302,107 C302,105.343 300.657,104 299,104 L287,104 C285.343,104 284,105.343 284,107 L284,143 C284,144.657 285.343,146 287,146 L299,146 C300.657,146 302,144.657 302,143 L302,107 Z" />
        </g>
        <g id="Regular-S">
            <path d="M440,95 L440,143 L443,140 L431,140 L434,143 L434,95 L431,98 L443,98 L440,95 Z M446,95 C446,93.343 444.657,92 443,92 L431,92 C429.343,92 428,93.343 428,95 L428,143 C428,144.657 429.343,146 431,146 L443,146 C444.657,146 446,144.657 446,143 L446,95 Z" />
            <path d="M468,79 L468,143 L471,140 L459,140 L462,143 L462,79 L459,82 L471,82 L468,79 Z M474,79 C474,77.343 472.657,76 471,76 L459,76 C457.343,76 456,77.343 456,79 L456,143 C456,144.657 457.343,146 459,146 L471,146 C472.657,146 474,144.657 474,143 L474,79 Z" />
            <path d="M496,107 L496,143 L499,140 L487,140 L490,143 L490,107 L487,110 L499,110 L496,107 Z M502,107 C502,105.343 500.657,104 499,104 L487,104 C485.343,104 484,105.343 484,107 L484,143 C484,144.657 485.343,146 487,146 L499,146 C500.657,146 502,144.657 502,143 L502,107 Z" />
        </g>
        <g id="Black-S">
            <path d="M640,95 L640,143 L643,140 L631,140 L634,143 L634,95 L631,98 L643,98 L640,95 Z M646,95 C646,93.343 644.657,92 643,92 L631,92 C629.343,92 628,93.343 628,95 L628,143 C628,144.657 629.343,146 631,146 L643,146 C644.657,146 646,144.657 646,143 L646,95 Z" />
            <path d="M668,79 L668,143 L671,140 L659,140 L662,143 L662,79 L659,82 L671,82 L668,79 Z M674,79 C674,77.343 672.657,76 671,76 L659,76 C657.343,76 656,77.343 656,79 L656,143 C656,144.657 657.343,146 659,146 L671,146 C672.657,146 674,144.657 674,143 L674,79 Z" />
            <path d="M696,107 L696,143 L699,140 L687,140 L690,143 L690,107 L687,110 L699,110 L696,107 Z M702,107 C702,105.343 700.657,104 699,104 L687,104 C685.343,104 684,105.343 684,107 L684,143 C684,144.657 685.343,146 687,146 L699,146 C700.657,146 702,144.657 702,143 L702,107 Z" />
        </g>
    </g>
</svg>