<?xml version="1.0" encoding="UTF-8"?>
<svg height="600" width="800" xmlns="http://www.w3.org/2000/svg" xmlns:xlink="http://www.w3.org/1999/xlink">
    <g id="Notes" font-family="'LucidaGrande', 'Lucida Grande', sans-serif" font-size="13">
        <rect fill="white" height="600.0" width="800.0" x="0.0" y="0.0" />
        <g font-size="13">
            <text x="18.0" y="176.0">Small</text>
            <text x="18.0" y="376.0">Medium</text>
            <text x="18.0" y="576.0">Large</text>
        </g>
        <g font-size="9">
            <text x="250.0" y="30.0">Ultralight</text>
            <text x="450.0" y="30.0">Regular</text>
            <text x="650.0" y="30.0">Black</text>
            <text id="template-version" fill="#505050" text-anchor="end" x="785.0" y="575.0">Template v.3.0</text>
            <a href="https://github.com/swhitty/SwiftDraw">
                <text fill="#505050" text-anchor="end" x="785.0" y="590.0">https://github.com/swhitty/SwiftDraw</text>
            </a>
        </g>
    </g>
    <g id="Guides" stroke="rgb(39, 170, 225)" stroke-width="0.5">
        <path id="Capline-S" d="M18,76 l800,0" />
        <path id="H-reference" d="M85,145.755 L87.685,145.755 L113.369,79.287 L114.052,79.287 L114.052,76 L112.148,76 L85,145.755 Z M95.693,121.536 L130.996,121.536 L130.263,119.313 L96.474,119.313 L95.693,121.536 Z M139.15,145.755 L141.787,145.755 L114.638,76 L113.466,76 L113.466,79.287 L139.15,145.755 Z" stroke="none" />
        <path id="Baseline-S" d="M18,146 l800,0" />
        <path id="left-margin-Ultralight-S" d="M217.375,56 l0,110" />
        <path id="right-margin-Ultralight-S" d="M312.625,56 l0,110" />
        <path id="left-margin-Regular-S" d="M417.375,56 l0,110" />
        <path id="right-margin-Regular-S" d="M512.625,56 l0,110" />
        <path id="left-margin-Black-S" d="M617.375,56 l0,110" />
        <path id="right-margin-Black-S" d="M712.625,56 l0,110" />
        <path id="Capline-M" d="M18,276 l800,0" />
        <path id="Baseline-M" d="M18,346 l800,0" />
        <path id="Capline-L" d="M18,476 l800,0" />
        <path id="Baseline-L" d="M18,546 l800,0" />
    </g>
    <g id="Symbols">
        <g id="Ultralight-S">
            <path d="M295.625,129.375 C295.625,109.228 280.733,83 265,83 C249.267,83 234.375,109.228 234.375,129.375 C234.375,130.825 235.55,132 237,132 C238.45,132 239.625,130.825 239.625,129.375 C239.625,111.742 252.964,88.25 265,88.25 C277.036,88.25 290.375,111.742 290.375,129.375 C290.375,130.825 291.55,132 293,132 C294.45,132 295.625,130.825 295.625,129.375 Z" />
            <path d="M241.375,129.375 L241.375,143.375 L244,140.75 L230,140.75 L232.625,143.375 L232.625,129.375 L230,132 L244,132 L241.375,129.375 Z M246.625,129.375 C246.625,127.925 245.45,126.75 244,126.75 L230,126.75 C228.55,126.75 227.375,127.925 227.375,129.375 L227.375,143.375 C227.375,144.825 228.55,146 230,146 L244,146 C245.45,146 246.625,144.825 246.625,143.375 L246.625,129.375 Z" />
            <path d="M241.375,78.625 L241.375,92.625 L244,90 L230,90 L232.625,92.625 L232.625,78.625 L230,81.25 L244,81.25 L241.375,78.625 Z M246.625,78.625 C246.625,77.175 245.45,76 244,76 L230,76 C228.55,76 227.375,77.175 227.375,78.625 L227.375,92.625 C227.375,94.075 228.55,95.25 230,95.25 L244,95.25 C245.45,95.25 246.625,94.075 246.625,92.625 L246.625,78.625 Z" />
            <path d="M297.375,129.375 L297.375,143.375 L300,140.75 L286,140.75 L288.625,143.375 L288.625,129.375 L286,132 L300,132 L297.375,129.375 Z M302.625,129.375 C302.625,127.925 301.45,126.75 300,126.75 L286,126.75 C284.55,126.75 283.375,127.925 283.375,129.375 L283.375,143.375 C283.375,144.825 284.55,146 286,146 L300,146 C301.45,146 302.625,144.825 302.625,143.375 L302.625,129.375 Z" />
            <path d="M297.375,78.625 L297.375,92.625 L300,90 L286,90 L288.625,92.625 L288.625,78.625 L286,81.25 L300,81.25 L297.375,78.625 Z M302.625,78.625 C302.625,77.175 301.45,76 300,76 L286,76 C284.55,76 283.375,77.175 283.375,78.625 L283.375,92.625 C283.375,94.075 284.55,95.25 286,95.25 L300,95.25 C301.45,95.25 302.625,94.075 302.625,92.625 L302.625,78.625 Z" />
            <path d="M244,88.25 L286,88.25 C287.45,88.25 288.625,87.075 288.625,85.625 C288.625,84.175 287.45,83 286,83 L244,83 C242.55,83 241.375,84.175 241.375,85.625 C241.375,87.075 242.55,88.25 244,88.25 Z" />
        </g>
        <g id="Regular-S">
            <path d="M495.625,129.375 C495.625,109.228 480.733,83 465,83 C449.267,83 434.375,109.228 434.375,129.375 C434.375,130.825 435.55,132 437,132 C438.45,132 439.625,130.825 439.625,129.375 C439.625,111.742 452.964,88.25 465,88.25 C477.036,88.25 490.375,111.742 490.375,129.375 C490.375,130.825 491.55,132 493,132 C494.45,132 495.625,130.825 495.625,129.375 Z" />
            <path d="M441.375,129.375 L441.375,143.375 L444,140.75 L430,140.75 L432.625,143.375 L432.625,129.375 L430,132 L444,132 L441.375,129.375 Z M446.625,129.375 C446.625,127.925 445.45,126.75 444,126.75 L430,126.75 C428.55,126.75 427.375,127.925 427.375,129.375 L427.375,143.375 C427.375,144.825 428.55,146 430,146 L444,146 C445.45,146 446.625,144.825 446.625,143.375 L446.625,129.375 Z" />
            <path d="M441.375,78.625 L441.375,92.625 L444,90 L430,90 L432.625,92.625 L432.625,78.625 L430,81.25 L444,81.25 L441.375,78.625 Z M446.625,78.625 C446.625,77.175 445.45,76 444,76 L430,76 C428.55,76 427.375,77.175 427.375,78.625 L427.375,92.625 C427.375,94.075 428.55,95.25 430,95.25 L444,95.25 C445.45,95.25 446.625,94.075 446.625,92.625 L446.625,78.625 Z" />
            <path d="M497.375,129.375 L497.375,143.375 L500,140.75 L486,140.75 L488.625,143.375 L488.625,129.375 L486,132 L500,132 L497.375,129.375 Z M502.625,129.375 C502.625,127.925 501.45,126.75 500,126.75 L486,126.75 C484.55,126.75 483.375,127.925 483.375,129.375 L483.375,143.375 C483.375,144.825 484.55,146 486,146 L500,146 C501.45,146 502.625,144.825 502.625,143.375 L502.625,129.375 Z" />
            <path d="M497.375,78.625 L497.375,92.625 L500,90 L486,90 L488.625,92.625 L488.625,78.625 L486,81.25 L500,81.25 L497.375,78.625 Z M502.625,78.625 C502.625,77.175 501.45,76 500,76 L486,76 C484.55,76 483.375,77.175 483.375,78.625 L483.375,92.625 C483.375,94.075 484.55,95.25 486,95.25 L500,95.25 C501.45,95.25 502.625,94.075 502.625,92.625 L502.625,78.625 Z" />
            <path d="M444,88.25 L486,88.25 C487.45,88.25 488.625,87.075 488.625,85.625 C488.625,84.175 487.45,83 486,83 L444,83 C442.55,83 441.375,84.175 441.375,85.625 C441.375,87.075 442.55,88.25 444,88.25 Z" />
        </g>
        <g id="Black-S">
            <path d="M695.625,129.375 C695.625,109.228 680.733,83 665,83 C649.267,83 634.375,109.228 634.375,129.375 C634.375,130.825 635.55,132 637,132 C638.45,132 639.625,130.825 639.625,129.375 C639.625,111.742 652.964,88.25 665,88.25 C677.036,88.25 690.375,111.742 690.375,129.375 C690.375,130.825 691.55,132 693,132 C694.45,132 695.625,130.825 695.625,129.375 Z" />
            <path d="M641.375,129.375 L641.375,143.375 L644,140.75 L630,140.75 L632.625,143.375 L632.625,129.375 L630,132 L644,132 L641.375,129.375 Z M646.625,129.375 C646.625,127.925 645.45,126.75 644,126.75 L630,126.75 C628.55,126.75 627.375,127.925 627.375,129.375 L627.375,143.375 C627.375,144.825 628.55,146 630,146 L644,146 C645.45,146 646.625,144.825 646.625,143.375 L646.625,129.375 Z" />
            <path d="M641.375,78.625 L641.375,92.625 L644,90 L630,90 L632.625,92.625 L632.625,78.625 L630,81.25 L644,81.25 L641.375,78.625 Z M646.625,78.625 C646.625,77.175 645.45,76 644,76 L630,76 C628.55,76 627.375,77.175 627.375,78.625 L627.375,92.625 C627.375,94.075 628.55,95.25 630,95.25 L644,95.25 C645.45,95.25 646.625,94.075 646.625,92.625 L646.625,78.625 Z" />
            <path d="M697.375,129.375 L697.375,143.375 L700,140.75 L686,140.75 L688.625,143.375 L688.625,129.375 L686,132 L700,132 L697.375,129.375 Z M702.625,129.375 C702.625,127.925 701.45,126.75 700,126.75 L686,126.75 C684.55,126.75 683.375,127.925 683.375,129.375 L683.375,143.375 C683.375,144.825 684.55,146 686,146 L700,146 C701.45,146 702.625,144.825 702.625,143.375 L702.625,129.375 Z" />
            <path d="M697.375,78.625 L697.375,92.625 L700,90 L686,90 L688.625,92.625 L688.625,78.625 L686,81.25 L700,81.25 L697.375,78.625 Z M702.625,78.625 C702.625,77.175 701.45,76 700,76 L686,76 C684.55,76 683.375,77.175 683.375,78.625 L683.375,92.625 C683.375,94.075 684.55,95.25 686,95.25 L700,95.25 C701.45,95.25 702.625,94.075 702.625,92.625 L702.625,78.625 Z" />
            <path d="M644,88.25 L686,88.25 C687.45,88.25 688.625,87.075 688.625,85.625 C688.625,84.175 687.45,83 686,83 L644,83 C642.55,83 641.375,84.175 641.375,85.625 C641.375,87.075 642.55,88.25 644,88.25 Z" />
        </g>
    </g>
</svg>