<?xml version="1.0" encoding="UTF-8"?>
<svg height="600" width="800" xmlns="http://www.w3.org/2000/svg" xmlns:xlink="http://www.w3.org/1999/xlink">
    <g id="Notes" font-family="'LucidaGrande', 'Lucida Grande', sans-serif" font-size="13">
        <rect fill="white" height="600.0" width="800.0" x="0.0" y="0.0" />
        <g font-size="13">
            <text x="18.0" y="176.0">Small</text>
            <text x="18.0" y="376.0">Medium</text>
            <text x="18.0" y="576.0">Large</text>
        </g>
        <g font-size="9">
            <text x="250.0" y="30.0">Ultralight</text>
            <text x="450.0" y="30.0">Regular</text>
            <text x="650.0" y="30.0">Black</text>
            <text id="template-version" fill="#505050" text-anchor="end" x="785.0" y="575.0">Template v.3.0</text>
            <a href="https://github.com/swhitty/SwiftDraw">
                <text fill="#505050" text-anchor="end" x="785.0" y="590.0">https://github.com/swhitty/SwiftDraw</text>
            </a>
        </g>
    </g>
    <g id="Guides" stroke="rgb(39, 170, 225)" stroke-width="0.5">
        <path id="Capline-S" d="M18,76 l800,0" />
        <path id="H-reference" d="M85,145.755 L87.685,145.755 L113.369,79.287 L114.052,79.287 L114.052,76 L112.148,76 L85,145.755 Z M95.693,121.536 L130.996,121.536 L130.263,119.313 L96.474,119.313 L95.693,121.536 Z M139.15,145.755 L141.787,145.755 L114.638,76 L113.466,76 L113.466,79.287 L139.15,145.755 Z" stroke="none" />
        <path id="Baseline-S" d="M18,146 l800,0" />
        <path id="left-margin-Ultralight-S" d="M220,56 l0,110" />
        <path id="right-margin-Ultralight-S" d="M310,56 l0,110" />
        <path id="left-margin-Regular-S" d="M420,56 l0,110" />
        <path id="right-margin-Regular-S" d="M510,56 l0,110" />
        <path id="left-margin-Black-S" d="M620,56 l0,110" />
        <path id="right-margin-Black-S" d="M710,56 l0,110" />
        <path id="Capline-M" d="M18,276 l800,0" />
        <path id="Baseline-M" d="M18,346 l800,0" />
        <path id="Capline-L" d="M18,476 l800,0" />
        <path id="Baseline-L" d="M18,546 l800,0" />
    </g>
    <g id="Symbols">
        <g id="Ultralight-S">
            <path d="M291.923,76 L238.077,76 C233.616,76 230,79.616 230,84.077 L230,137.923 C230,142.384 233.616,146 238.077,146 L291.923,146 C296.384,146 300,142.384 300,137.923 L300,84.077 C300,79.616 296.384,76 291.923,76 Z M291.923,81.385 C293.41,81.385 294.615,82.59 294.615,84.077 L294.615,137.923 C294.615,139.41 293.41,140.615 291.923,140.615 L238.077,140.615 C236.59,140.615 235.385,139.41 235.385,137.923 L235.385,84.077 C235.385,82.59 236.59,81.385 238.077,81.385 L291.923,81.385 Z" />
            <path d="M269.862,89.887 L258.195,109.63 L255.278,114.566 L253.82,117.034 C253.064,118.314 253.488,119.965 254.768,120.722 C256.048,121.478 257.699,121.054 258.456,119.774 L259.914,117.306 L262.831,112.37 L274.497,92.626 C275.254,91.346 274.829,89.695 273.549,88.939 C272.269,88.182 270.618,88.607 269.862,89.887 Z" />
            <path d="M251.164,132.113 L252.622,129.645 C253.379,128.365 252.954,126.714 251.674,125.958 C250.394,125.201 248.743,125.626 247.987,126.906 L246.528,129.374 C245.772,130.654 246.196,132.305 247.477,133.061 C248.757,133.818 250.408,133.393 251.164,132.113 Z" />
            <path d="M243.462,122.667 L263.205,122.667 C264.692,122.667 265.897,121.461 265.897,119.974 C265.897,118.487 264.692,117.282 263.205,117.282 L243.462,117.282 C241.975,117.282 240.769,118.487 240.769,119.974 C240.769,121.461 241.975,122.667 243.462,122.667 Z" />
            <path d="M275.769,122.667 L286.538,122.667 C288.025,122.667 289.231,121.461 289.231,119.974 C289.231,118.487 288.025,117.282 286.538,117.282 L275.769,117.282 C274.282,117.282 273.077,118.487 273.077,119.974 C273.077,121.461 274.282,122.667 275.769,122.667 Z" />
            <path d="M253.754,92.702 L260.036,102.574 L261.607,105.042 C262.405,106.296 264.069,106.666 265.324,105.868 C266.578,105.069 266.948,103.405 266.15,102.151 L264.579,99.683 L258.297,89.811 C257.499,88.557 255.835,88.187 254.58,88.985 C253.326,89.783 252.956,91.447 253.754,92.702 Z" />
            <path d="M283.425,129.298 L277.143,119.426 L274.002,114.49 L272.432,112.023 C271.633,110.768 269.969,110.398 268.715,111.197 C267.46,111.995 267.091,113.659 267.889,114.913 L269.459,117.381 L272.6,122.317 L278.882,132.189 C279.681,133.443 281.345,133.813 282.599,133.015 C283.854,132.217 284.224,130.553 283.425,129.298 Z" />
        </g>
        <g id="Regular-S">
            <path d="M491.923,76 L438.077,76 C433.616,76 430,79.616 430,84.077 L430,137.923 C430,142.384 433.616,146 438.077,146 L491.923,146 C496.384,146 500,142.384 500,137.923 L500,84.077 C500,79.616 496.384,76 491.923,76 Z M491.923,81.385 C493.41,81.385 494.615,82.59 494.615,84.077 L494.615,137.923 C494.615,139.41 493.41,140.615 491.923,140.615 L438.077,140.615 C436.59,140.615 435.385,139.41 435.385,137.923 L435.385,84.077 C435.385,82.59 436.59,81.385 438.077,81.385 L491.923,81.385 Z" />
            <path d="M469.862,89.887 L458.195,109.63 L455.278,114.566 L453.82,117.034 C453.063,118.314 453.488,119.965 454.768,120.722 C456.048,121.478 457.699,121.054 458.456,119.774 L459.914,117.306 L462.831,112.37 L474.497,92.626 C475.254,91.346 474.829,89.695 473.549,88.939 C472.269,88.182 470.618,88.607 469.862,89.887 Z" />
            <path d="M451.164,132.113 L452.622,129.645 C453.379,128.365 452.954,126.714 451.674,125.958 C450.394,125.201 448.743,125.626 447.987,126.906 L446.528,129.374 C445.772,130.654 446.196,132.305 447.477,133.061 C448.757,133.818 450.408,133.393 451.164,132.113 Z" />
            <path d="M443.462,122.667 L463.205,122.667 C464.692,122.667 465.897,121.461 465.897,119.974 C465.897,118.487 464.692,117.282 463.205,117.282 L443.462,117.282 C441.975,117.282 440.769,118.487 440.769,119.974 C440.769,121.461 441.975,122.667 443.462,122.667 Z" />
            <path d="M475.769,122.667 L486.538,122.667 C488.025,122.667 489.231,121.461 489.231,119.974 C489.231,118.487 488.025,117.282 486.538,117.282 L475.769,117.282 C474.282,117.282 473.077,118.487 473.077,119.974 C473.077,121.461 474.282,122.667 475.769,122.667 Z" />
            <path d="M453.754,92.702 L460.036,102.574 L461.607,105.042 C462.405,106.296 464.069,106.666 465.324,105.868 C466.578,105.069 466.948,103.405 466.15,102.151 L464.579,99.683 L458.297,89.811 C457.499,88.557 455.835,88.187 454.58,88.985 C453.326,89.783 452.956,91.447 453.754,92.702 Z" />
            <path d="M483.425,129.298 L477.143,119.426 L474.002,114.49 L472.432,112.023 C471.633,110.768 469.969,110.398 468.715,111.197 C467.46,111.995 467.091,113.659 467.889,114.913 L469.459,117.381 L472.6,122.317 L478.882,132.189 C479.681,133.443 481.345,133.813 482.599,133.015 C483.854,132.217 484.224,130.553 483.425,129.298 Z" />
        </g>
        <g id="Black-S">
            <path d="M691.923,76 L638.077,76 C633.616,76 630,79.616 630,84.077 L630,137.923 C630,142.384 633.616,146 638.077,146 L691.923,146 C696.384,146 700,142.384 700,137.923 L700,84.077 C700,79.616 696.384,76 691.923,76 Z M691.923,81.385 C693.41,81.385 694.615,82.59 694.615,84.077 L694.615,137.923 C694.615,139.41 693.41,140.615 691.923,140.615 L638.077,140.615 C636.59,140.615 635.385,139.41 635.385,137.923 L635.385,84.077 C635.385,82.59 636.59,81.385 638.077,81.385 L691.923,81.385 Z" />
            <path d="M669.862,89.887 L658.195,109.63 L655.278,114.566 L653.82,117.034 C653.064,118.314 653.488,119.965 654.768,120.722 C656.048,121.478 657.699,121.054 658.456,119.774 L659.914,117.306 L662.831,112.37 L674.497,92.626 C675.254,91.346 674.829,89.695 673.549,88.939 C672.269,88.182 670.618,88.607 669.862,89.887 Z" />
            <path d="M651.164,132.113 L652.622,129.645 C653.379,128.365 652.954,126.714 651.674,125.958 C650.394,125.201 648.743,125.626 647.987,126.906 L646.528,129.374 C645.772,130.654 646.196,132.305 647.477,133.061 C648.757,133.818 650.408,133.393 651.164,132.113 Z" />
            <path d="M643.462,122.667 L663.205,122.667 C664.692,122.667 665.897,121.461 665.897,119.974 C665.897,118.487 664.692,117.282 663.205,117.282 L643.462,117.282 C641.975,117.282 640.769,118.487 640.769,119.974 C640.769,121.461 641.975,122.667 643.462,122.667 Z" />
            <path d="M675.769,122.667 L686.538,122.667 C688.025,122.667 689.231,121.461 689.231,119.974 C689.231,118.487 688.025,117.282 686.538,117.282 L675.769,117.282 C674.282,117.282 673.077,118.487 673.077,119.974 C673.077,121.461 674.282,122.667 675.769,122.667 Z" />
            <path d="M653.754,92.702 L660.036,102.574 L661.607,105.042 C662.405,106.296 664.069,106.666 665.324,105.868 C666.578,105.069 666.948,103.405 666.15,102.151 L664.579,99.683 L658.297,89.811 C657.499,88.557 655.835,88.187 654.58,88.985 C653.326,89.783 652.956,91.447 653.754,92.702 Z" />
            <path d="M683.425,129.298 L677.143,119.426 L674.002,114.49 L672.432,112.023 C671.633,110.768 669.969,110.398 668.715,111.197 C667.46,111.995 667.091,113.659 667.889,114.913 L669.459,117.381 L672.6,122.317 L678.882,132.189 C679.681,133.443 681.345,133.813 682.599,133.015 C683.854,132.217 684.224,130.553 683.425,129.298 Z" />
        </g>
    </g>
</svg>