<?xml version="1.0" encoding="UTF-8"?>
<svg height="600" width="800" xmlns="http://www.w3.org/2000/svg" xmlns:xlink="http://www.w3.org/1999/xlink">
    <g id="Notes" font-family="'LucidaGrande', 'Lucida Grande', sans-serif" font-size="13">
        <rect fill="white" height="600.0" width="800.0" x="0.0" y="0.0" />
        <g font-size="13">
            <text x="18.0" y="176.0">Small</text>
            <text x="18.0" y="376.0">Medium</text>
            <text x="18.0" y="576.0">Large</text>
        </g>
        <g font-size="9">
            <text x="250.0" y="30.0">Ultralight</text>
            <text x="450.0" y="30.0">Regular</text>
            <text x="650.0" y="30.0">Black</text>
            <text id="template-version" fill="#505050" text-anchor="end" x="785.0" y="575.0">Template v.3.0</text>
            <a href="https://github.com/swhitty/SwiftDraw">
                <text fill="#505050" text-anchor="end" x="785.0" y="590.0">https://github.com/swhitty/SwiftDraw</text>
            </a>
        </g>
    </g>
    <g id="Guides" stroke="rgb(39, 170, 225)" stroke-width="0.5">
        <path id="Capline-S" d="M18,76 l800,0" />
        <path id="H-reference" d="M85,145.755 L87.685,145.755 L113.369,79.287 L114.052,79.287 L114.052,76 L112.148,76 L85,145.755 Z M95.693,121.536 L130.996,121.536 L130.263,119.313 L96.474,119.313 L95.693,121.536 Z M139.15,145.755 L141.787,145.755 L114.638,76 L113.466,76 L113.466,79.287 L139.15,145.755 Z" stroke="none" />
        <path id="Baseline-S" d="M18,146 l800,0" />
        <path id="left-margin-Ultralight-S" d="M220,56 l0,110" />
        <path id="right-margin-Ultralight-S" d="M310,56 l0,110" />
        <path id="left-margin-Regular-S" d="M420,56 l0,110" />
        <path id="right-margin-Regular-S" d="M510,56 l0,110" />
        <path id="left-margin-Black-S" d="M620,56 l0,110" />
        <path id="right-margin-Black-S" d="M710,56 l0,110" />
        <path id="Capline-M" d="M18,276 l800,0" />
        <path id="Baseline-M" d="M18,346 l800,0" />
        <path id="Capline-L" d="M18,476 l800,0" />
        <path id="Baseline-L" d="M18,546 l800,0" />
    </g>
    <g id="Symbols">
        <g id="Ultralight-S">
            <path d="M265,146 C284.33,146 300,130.33 300,111 C300,91.67 284.33,76 265,76 C245.67,76 230,91.67 230,111 C230,130.33 245.67,146 265,146 Z M265,141.116 C248.367,141.116 234.884,127.633 234.884,111 C234.884,94.367 248.367,80.884 265,80.884 C281.633,80.884 295.116,94.367 295.116,111 C295.116,127.633 281.633,141.116 265,141.116 Z" />
            <path d="M267.442,126.465 L267.442,97.163 C267.442,95.814 266.349,94.721 265,94.721 C263.651,94.721 262.558,95.814 262.558,97.163 L262.558,126.465 C262.558,127.814 263.651,128.907 265,128.907 C266.349,128.907 267.442,127.814 267.442,126.465 Z" />
            <path d="M281.378,110.087 L266.727,95.436 C265.773,94.483 264.227,94.483 263.273,95.436 L248.622,110.087 C247.669,111.041 247.669,112.587 248.622,113.541 C249.576,114.494 251.122,114.494 252.076,113.541 L266.727,98.889 L263.273,98.889 L277.924,113.541 C278.878,114.494 280.424,114.494 281.378,113.541 C282.331,112.587 282.331,111.041 281.378,110.087 Z" />
        </g>
        <g id="Regular-S">
            <path d="M465,146 C484.33,146 500,130.33 500,111 C500,91.67 484.33,76 465,76 C445.67,76 430,91.67 430,111 C430,130.33 445.67,146 465,146 Z M465,141.116 C448.367,141.116 434.884,127.633 434.884,111 C434.884,94.367 448.367,80.884 465,80.884 C481.633,80.884 495.116,94.367 495.116,111 C495.116,127.633 481.633,141.116 465,141.116 Z" />
            <path d="M467.442,126.465 L467.442,97.163 C467.442,95.814 466.349,94.721 465,94.721 C463.651,94.721 462.558,95.814 462.558,97.163 L462.558,126.465 C462.558,127.814 463.651,128.907 465,128.907 C466.349,128.907 467.442,127.814 467.442,126.465 Z" />
            <path d="M481.378,110.087 L466.727,95.436 C465.773,94.483 464.227,94.483 463.273,95.436 L448.622,110.087 C447.669,111.041 447.669,112.587 448.622,113.541 C449.576,114.494 451.122,114.494 452.076,113.541 L466.727,98.889 L463.273,98.889 L477.924,113.541 C478.878,114.494 480.424,114.494 481.378,113.541 C482.331,112.587 482.331,111.041 481.378,110.087 Z" />
        </g>
        <g id="Black-S">
            <path d="M665,146 C684.33,146 700,130.33 700,111 C700,91.67 684.33,76 665,76 C645.67,76 630,91.67 630,111 C630,130.33 645.67,146 665,146 Z M665,141.116 C648.367,141.116 634.884,127.633 634.884,111 C634.884,94.367 648.367,80.884 665,80.884 C681.633,80.884 695.116,94.367 695.116,111 C695.116,127.633 681.633,141.116 665,141.116 Z" />
            <path d="M667.442,126.465 L667.442,97.163 C667.442,95.814 666.349,94.721 665,94.721 C663.651,94.721 662.558,95.814 662.558,97.163 L662.558,126.465 C662.558,127.814 663.651,128.907 665,128.907 C666.349,128.907 667.442,127.814 667.442,126.465 Z" />
            <path d="M681.378,110.087 L666.727,95.436 C665.773,94.483 664.227,94.483 663.273,95.436 L648.622,110.087 C647.669,111.041 647.669,112.587 648.622,113.541 C649.576,114.494 651.122,114.494 652.076,113.541 L666.727,98.889 L663.273,98.889 L677.924,113.541 C678.878,114.494 680.424,114.494 681.378,113.541 C682.331,112.587 682.331,111.041 681.378,110.087 Z" />
        </g>
    </g>
</svg>