<?xml version="1.0" encoding="UTF-8"?>
<svg height="600" width="800" xmlns="http://www.w3.org/2000/svg" xmlns:xlink="http://www.w3.org/1999/xlink">
    <g id="Notes" font-family="'LucidaGrande', 'Lucida Grande', sans-serif" font-size="13">
        <rect fill="white" height="600.0" width="800.0" x="0.0" y="0.0" />
        <g font-size="13">
            <text x="18.0" y="176.0">Small</text>
            <text x="18.0" y="376.0">Medium</text>
            <text x="18.0" y="576.0">Large</text>
        </g>
        <g font-size="9">
            <text x="250.0" y="30.0">Ultralight</text>
            <text x="450.0" y="30.0">Regular</text>
            <text x="650.0" y="30.0">Black</text>
            <text id="template-version" fill="#505050" text-anchor="end" x="785.0" y="575.0">Template v.3.0</text>
            <a href="https://github.com/swhitty/SwiftDraw">
                <text fill="#505050" text-anchor="end" x="785.0" y="590.0">https://github.com/swhitty/SwiftDraw</text>
            </a>
        </g>
    </g>
    <g id="Guides" stroke="rgb(39, 170, 225)" stroke-width="0.5">
        <path id="Capline-S" d="M18,76 l800,0" />
        <path id="H-reference" d="M85,145.755 L87.685,145.755 L113.369,79.287 L114.052,79.287 L114.052,76 L112.148,76 L85,145.755 Z M95.693,121.536 L130.996,121.536 L130.263,119.313 L96.474,119.313 L95.693,121.536 Z M139.15,145.755 L141.787,145.755 L114.638,76 L113.466,76 L113.466,79.287 L139.15,145.755 Z" stroke="none" />
        <path id="Baseline-S" d="M18,146 l800,0" />
        <path id="left-margin-Ultralight-S" d="M221,56 l0,110" />
        <path id="right-margin-Ultralight-S" d="M309,56 l0,110" />
        <path id="left-margin-Regular-S" d="M421,56 l0,110" />
        <path id="right-margin-Regular-S" d="M509,56 l0,110" />
        <path id="left-margin-Black-S" d="M621,56 l0,110" />
        <path id="right-margin-Black-S" d="M709,56 l0,110" />
        <path id="Capline-M" d="M18,276 l800,0" />
        <path id="Baseline-M" d="M18,346 l800,0" />
        <path id="Capline-L" d="M18,476 l800,0" />
        <path id="Baseline-L" d="M18,546 l800,0" />
    </g>
    <g id="Symbols">
        <g id="Ultralight-S">
            <path d="M267.692,143.308 L267.692,78.692 C267.692,77.205 266.487,76 265,76 C263.513,76 262.308,77.205 262.308,78.692 L262.308,143.308 C262.308,144.795 263.513,146 265,146 C266.487,146 267.692,144.795 267.692,143.308 Z" />
            <path d="M284.635,119.865 L263.096,141.404 L266.904,141.404 L245.365,119.865 C244.314,118.814 242.609,118.814 241.558,119.865 C240.506,120.917 240.506,122.622 241.558,123.673 L263.096,145.211 C264.148,146.263 265.852,146.263 266.904,145.211 L288.442,123.673 C289.494,122.622 289.494,120.917 288.442,119.865 C287.391,118.814 285.686,118.814 284.635,119.865 Z" />
        </g>
        <g id="Regular-S">
            <path d="M467.692,143.308 L467.692,78.692 C467.692,77.205 466.487,76 465,76 C463.513,76 462.308,77.205 462.308,78.692 L462.308,143.308 C462.308,144.795 463.513,146 465,146 C466.487,146 467.692,144.795 467.692,143.308 Z" />
            <path d="M484.635,119.865 L463.096,141.404 L466.904,141.404 L445.365,119.865 C444.314,118.814 442.609,118.814 441.558,119.865 C440.506,120.917 440.506,122.622 441.558,123.673 L463.096,145.211 C464.148,146.263 465.852,146.263 466.904,145.211 L488.442,123.673 C489.494,122.622 489.494,120.917 488.442,119.865 C487.391,118.814 485.686,118.814 484.635,119.865 Z" />
        </g>
        <g id="Black-S">
            <path d="M667.692,143.308 L667.692,78.692 C667.692,77.205 666.487,76 665,76 C663.513,76 662.308,77.205 662.308,78.692 L662.308,143.308 C662.308,144.795 663.513,146 665,146 C666.487,146 667.692,144.795 667.692,143.308 Z" />
            <path d="M684.635,119.865 L663.096,141.404 L666.904,141.404 L645.365,119.865 C644.314,118.814 642.609,118.814 641.558,119.865 C640.506,120.917 640.506,122.622 641.558,123.673 L663.096,145.211 C664.148,146.263 665.852,146.263 666.904,145.211 L688.442,123.673 C689.494,122.622 689.494,120.917 688.442,119.865 C687.391,118.814 685.686,118.814 684.635,119.865 Z" />
        </g>
    </g>
</svg>