<?xml version="1.0" encoding="UTF-8"?>
<svg height="600" width="800" xmlns="http://www.w3.org/2000/svg" xmlns:xlink="http://www.w3.org/1999/xlink">
    <g id="Notes" font-family="'LucidaGrande', 'Lucida Grande', sans-serif" font-size="13">
        <rect fill="white" height="600.0" width="800.0" x="0.0" y="0.0" />
        <g font-size="13">
            <text x="18.0" y="176.0">Small</text>
            <text x="18.0" y="376.0">Medium</text>
            <text x="18.0" y="576.0">Large</text>
        </g>
        <g font-size="9">
            <text x="250.0" y="30.0">Ultralight</text>
            <text x="450.0" y="30.0">Regular</text>
            <text x="650.0" y="30.0">Black</text>
            <text id="template-version" fill="#505050" text-anchor="end" x="785.0" y="575.0">Template v.3.0</text>
            <a href="https://github.com/swhitty/SwiftDraw">
                <text fill="#505050" text-anchor="end" x="785.0" y="590.0">https://github.com/swhitty/SwiftDraw</text>
            </a>
        </g>
    </g>
    <g id="Guides" stroke="rgb(39, 170, 225)" stroke-width="0.5">
        <path id="Capline-S" d="M18,76 l800,0" />
        <path id="H-reference" d="M85,145.755 L87.685,145.755 L113.369,79.287 L114.052,79.287 L114.052,76 L112.148,76 L85,145.755 Z M95.693,121.536 L130.996,121.536 L130.263,119.313 L96.474,119.313 L95.693,121.536 Z M139.15,145.755 L141.787,145.755 L114.638,76 L113.466,76 L113.466,79.287 L139.15,145.755 Z" stroke="none" />
        <path id="Baseline-S" d="M18,146 l800,0" />
        <path id="left-margin-Ultralight-S" d="M221,56 l0,110" />
        <path id="right-margin-Ultralight-S" d="M309,56 l0,110" />
        <path id="left-margin-Regular-S" d="M421,56 l0,110" />
        <path id="right-margin-Regular-S" d="M509,56 l0,110" />
        <path id="left-margin-Black-S" d="M621,56 l0,110" />
        <path id="right-margin-Black-S" d="M709,56 l0,110" />
        <path id="Capline-M" d="M18,276 l800,0" />
        <path id="Baseline-M" d="M18,346 l800,0" />
        <path id="Capline-L" d="M18,476 l800,0" />
        <path id="Baseline-L" d="M18,546 l800,0" />
    </g>
    <g id="Symbols">
        <g id="Ultralight-S">
            <path d="M239.625,132.877 L239.633,118.951 C239.632,119.435 239.243,119.824 238.762,119.825 C247.33,119.825 247.33,119.825 255.901,119.825 C256.082,119.825 256.082,119.825 256.262,119.825 C258.278,119.825 259.71,118.648 260.207,116.729 C260.46,115.751 260.491,114.999 260.491,112.417 C260.491,112.39 260.491,112.39 260.491,112.364 C260.491,111.943 260.434,111.527 260.325,111.12 C260.008,109.933 259.367,108.993 258.205,107.693 C257.93,107.386 256.879,106.251 256.918,106.292 C256.398,105.726 255.997,105.269 255.615,104.798 C253.181,101.803 251.913,98.64 251.913,94.117 C251.913,85.378 257.376,81.25 265.56,81.25 C273.452,81.25 278.364,85.229 278.364,94.117 C278.364,98.6 277.154,101.52 274.719,104.395 C274.573,104.568 271.808,107.546 271.161,108.477 C270.303,109.713 269.831,110.962 269.831,112.364 C269.831,115.528 269.852,116.172 270.085,117.075 C270.583,119.009 271.983,119.825 273.822,119.825 C282.536,119.825 282.536,119.825 291.25,119.825 C290.767,119.825 290.375,119.433 290.375,118.95 L290.375,132.875 L293,130.25 L237,130.25 L239.625,132.877 Z M234.375,132.873 C234.374,134.324 235.549,135.5 237,135.5 L293,135.5 C294.45,135.5 295.625,134.325 295.625,132.875 L295.625,118.95 C295.625,116.533 293.666,114.575 291.25,114.575 C282.536,114.575 282.536,114.575 273.822,114.575 C274.153,114.575 274.987,115.06 275.169,115.765 C275.105,115.518 275.081,114.779 275.081,112.364 C275.081,112.155 275.179,111.896 275.473,111.472 C275.869,110.902 278.365,108.213 278.725,107.788 C281.92,104.016 283.614,99.928 283.614,94.117 C283.614,82.057 276.136,76 265.56,76 C254.745,76 246.663,82.108 246.663,94.117 C246.663,99.928 248.387,104.228 251.54,108.108 C251.999,108.673 252.464,109.203 253.048,109.841 C253.039,109.831 254.051,110.924 254.29,111.192 C254.933,111.91 255.212,112.319 255.253,112.476 C255.247,112.451 255.241,112.411 255.241,112.364 C255.241,112.39 255.241,112.39 255.241,112.417 C255.241,114.398 255.214,115.069 255.124,115.413 C255.212,115.074 255.821,114.575 256.262,114.575 C256.082,114.575 256.082,114.575 255.901,114.575 C247.33,114.575 247.33,114.575 238.759,114.575 C236.343,114.577 234.387,116.532 234.383,118.945 L234.375,132.873 Z" />
            <path d="M237,146 L293,146 C294.449,146 295.625,144.825 295.625,143.375 C295.625,141.925 294.449,140.75 293,140.75 L237,140.75 C235.55,140.75 234.375,141.925 234.375,143.375 C234.375,144.825 235.55,146 237,146 Z" />
        </g>
        <g id="Regular-S">
            <path d="M439.625,132.877 L439.633,118.951 C439.632,119.435 439.243,119.824 438.762,119.825 C447.33,119.825 447.33,119.825 455.901,119.825 C456.082,119.825 456.082,119.825 456.262,119.825 C458.278,119.825 459.71,118.648 460.207,116.729 C460.46,115.751 460.491,114.999 460.491,112.417 C460.491,112.39 460.491,112.39 460.491,112.364 C460.491,111.943 460.434,111.527 460.325,111.12 C460.008,109.933 459.367,108.993 458.205,107.693 C457.93,107.386 456.879,106.251 456.918,106.292 C456.398,105.726 455.997,105.269 455.615,104.798 C453.181,101.803 451.913,98.64 451.913,94.117 C451.913,85.378 457.376,81.25 465.56,81.25 C473.452,81.25 478.364,85.229 478.364,94.117 C478.364,98.6 477.154,101.52 474.719,104.395 C474.573,104.568 471.808,107.546 471.161,108.477 C470.303,109.713 469.831,110.962 469.831,112.364 C469.831,115.528 469.852,116.172 470.085,117.075 C470.583,119.009 471.983,119.825 473.822,119.825 C482.536,119.825 482.536,119.825 491.25,119.825 C490.767,119.825 490.375,119.433 490.375,118.95 L490.375,132.875 L493,130.25 L437,130.25 L439.625,132.877 Z M434.375,132.873 C434.374,134.324 435.549,135.5 437,135.5 L493,135.5 C494.45,135.5 495.625,134.325 495.625,132.875 L495.625,118.95 C495.625,116.533 493.666,114.575 491.25,114.575 C482.536,114.575 482.536,114.575 473.822,114.575 C474.153,114.575 474.987,115.06 475.169,115.765 C475.105,115.518 475.081,114.779 475.081,112.364 C475.081,112.155 475.179,111.896 475.473,111.472 C475.869,110.902 478.365,108.213 478.725,107.788 C481.919,104.016 483.614,99.928 483.614,94.117 C483.614,82.057 476.136,76 465.56,76 C454.745,76 446.663,82.108 446.663,94.117 C446.663,99.928 448.387,104.228 451.54,108.108 C451.999,108.673 452.464,109.203 453.048,109.841 C453.039,109.831 454.051,110.924 454.29,111.192 C454.933,111.91 455.211,112.319 455.253,112.476 C455.247,112.451 455.241,112.411 455.241,112.364 C455.241,112.39 455.241,112.39 455.241,112.417 C455.241,114.398 455.214,115.069 455.124,115.413 C455.212,115.074 455.82,114.575 456.262,114.575 C456.082,114.575 456.082,114.575 455.901,114.575 C447.33,114.575 447.33,114.575 438.759,114.575 C436.343,114.577 434.387,116.532 434.383,118.945 L434.375,132.873 Z" />
            <path d="M437,146 L493,146 C494.449,146 495.625,144.825 495.625,143.375 C495.625,141.925 494.449,140.75 493,140.75 L437,140.75 C435.55,140.75 434.375,141.925 434.375,143.375 C434.375,144.825 435.55,146 437,146 Z" />
        </g>
        <g id="Black-S">
            <path d="M639.625,132.877 L639.633,118.951 C639.632,119.435 639.243,119.824 638.762,119.825 C647.33,119.825 647.33,119.825 655.901,119.825 C656.082,119.825 656.082,119.825 656.262,119.825 C658.278,119.825 659.71,118.648 660.207,116.729 C660.46,115.751 660.491,114.999 660.491,112.417 C660.491,112.39 660.491,112.39 660.491,112.364 C660.491,111.943 660.434,111.527 660.325,111.12 C660.008,109.933 659.367,108.993 658.205,107.693 C657.93,107.386 656.879,106.251 656.918,106.292 C656.398,105.726 655.997,105.269 655.615,104.798 C653.181,101.803 651.913,98.64 651.913,94.117 C651.913,85.378 657.376,81.25 665.56,81.25 C673.452,81.25 678.364,85.229 678.364,94.117 C678.364,98.6 677.154,101.52 674.719,104.395 C674.573,104.568 671.808,107.546 671.161,108.477 C670.303,109.713 669.831,110.962 669.831,112.364 C669.831,115.528 669.852,116.172 670.085,117.075 C670.583,119.009 671.983,119.825 673.822,119.825 C682.536,119.825 682.536,119.825 691.25,119.825 C690.767,119.825 690.375,119.433 690.375,118.95 L690.375,132.875 L693,130.25 L637,130.25 L639.625,132.877 Z M634.375,132.873 C634.374,134.324 635.549,135.5 637,135.5 L693,135.5 C694.45,135.5 695.625,134.325 695.625,132.875 L695.625,118.95 C695.625,116.533 693.666,114.575 691.25,114.575 C682.536,114.575 682.536,114.575 673.822,114.575 C674.153,114.575 674.987,115.06 675.169,115.765 C675.105,115.518 675.081,114.779 675.081,112.364 C675.081,112.155 675.179,111.896 675.474,111.472 C675.869,110.902 678.365,108.213 678.726,107.788 C681.92,104.016 683.614,99.928 683.614,94.117 C683.614,82.057 676.136,76 665.56,76 C654.745,76 646.663,82.108 646.663,94.117 C646.663,99.928 648.387,104.228 651.54,108.108 C651.999,108.673 652.464,109.203 653.048,109.841 C653.039,109.831 654.051,110.924 654.29,111.192 C654.933,111.91 655.212,112.319 655.253,112.476 C655.247,112.451 655.241,112.411 655.241,112.364 C655.241,112.39 655.241,112.39 655.241,112.417 C655.241,114.398 655.214,115.069 655.125,115.413 C655.212,115.074 655.821,114.575 656.262,114.575 C656.082,114.575 656.082,114.575 655.901,114.575 C647.33,114.575 647.33,114.575 638.759,114.575 C636.343,114.577 634.387,116.532 634.383,118.945 L634.375,132.873 Z" />
            <path d="M637,146 L693,146 C694.45,146 695.625,144.825 695.625,143.375 C695.625,141.925 694.45,140.75 693,140.75 L637,140.75 C635.55,140.75 634.375,141.925 634.375,143.375 C634.375,144.825 635.55,146 637,146 Z" />
        </g>
    </g>
</svg>