<?xml version="1.0" encoding="UTF-8"?>
<svg height="600" width="800" xmlns="http://www.w3.org/2000/svg" xmlns:xlink="http://www.w3.org/1999/xlink">
    <g id="Notes" font-family="'LucidaGrande', 'Lucida Grande', sans-serif" font-size="13">
        <rect fill="white" height="600.0" width="800.0" x="0.0" y="0.0" />
        <g font-size="13">
            <text x="18.0" y="176.0">Small</text>
            <text x="18.0" y="376.0">Medium</text>
            <text x="18.0" y="576.0">Large</text>
        </g>
        <g font-size="9">
            <text x="250.0" y="30.0">Ultralight</text>
            <text x="450.0" y="30.0">Regular</text>
            <text x="650.0" y="30.0">Black</text>
            <text id="template-version" fill="#505050" text-anchor="end" x="785.0" y="575.0">Template v.3.0</text>
            <a href="https://github.com/swhitty/SwiftDraw">
                <text fill="#505050" text-anchor="end" x="785.0" y="590.0">https://github.com/swhitty/SwiftDraw</text>
            </a>
        </g>
    </g>
    <g id="Guides" stroke="rgb(39, 170, 225)" stroke-width="0.5">
        <path id="Capline-S" d="M18,76 l800,0" />
        <path id="H-reference" d="M85,145.755 L87.685,145.755 L113.369,79.287 L114.052,79.287 L114.052,76 L112.148,76 L85,145.755 Z M95.693,121.536 L130.996,121.536 L130.263,119.313 L96.474,119.313 L95.693,121.536 Z M139.15,145.755 L141.787,145.755 L114.638,76 L113.466,76 L113.466,79.287 L139.15,145.755 Z" stroke="none" />
        <path id="Baseline-S" d="M18,146 l800,0" />
        <path id="left-margin-Ultralight-S" d="M221,56 l0,110" />
        <path id="right-margin-Ultralight-S" d="M309,56 l0,110" />
        <path id="left-margin-Regular-S" d="M421,56 l0,110" />
        <path id="right-margin-Regular-S" d="M509,56 l0,110" />
        <path id="left-margin-Black-S" d="M621,56 l0,110" />
        <path id="right-margin-Black-S" d="M709,56 l0,110" />
        <path id="Capline-M" d="M18,276 l800,0" />
        <path id="Baseline-M" d="M18,346 l800,0" />
        <path id="Capline-L" d="M18,476 l800,0" />
        <path id="Baseline-L" d="M18,546 l800,0" />
    </g>
    <g id="Symbols">
        <g id="Ultralight-S">
            <path d="M237.179,143.308 L237.179,78.692 C237.179,77.205 235.974,76 234.487,76 C233,76 231.795,77.205 231.795,78.692 L231.795,143.308 C231.795,144.795 233,146 234.487,146 C235.974,146 237.179,144.795 237.179,143.308 Z" />
            <path d="M256.134,94.939 L266.895,84.187 L263.089,84.187 L273.866,94.956 C274.918,96.007 276.623,96.006 277.674,94.954 C278.725,93.902 278.724,92.198 277.672,91.147 L266.895,80.378 C265.844,79.327 264.14,79.327 263.089,80.378 L252.328,91.13 C251.276,92.181 251.275,93.886 252.326,94.938 C253.377,95.989 255.082,95.99 256.134,94.939 Z" />
            <path d="M273.866,127.061 L263.105,137.813 L266.911,137.813 L256.134,127.044 C255.082,125.993 253.377,125.994 252.326,127.046 C251.275,128.098 251.276,129.802 252.328,130.853 L263.105,141.622 C264.156,142.673 265.86,142.673 266.911,141.622 L277.672,130.87 C278.724,129.819 278.725,128.114 277.674,127.062 C276.623,126.011 274.918,126.01 273.866,127.061 Z" />
            <path d="M262.308,82.282 L262.308,139.718 C262.308,141.205 263.513,142.41 265,142.41 C266.487,142.41 267.692,141.205 267.692,139.718 L267.692,82.282 C267.692,80.795 266.487,79.59 265,79.59 C263.513,79.59 262.308,80.795 262.308,82.282 Z" />
            <path d="M298.205,143.308 L298.205,78.692 C298.205,77.205 297,76 295.513,76 C294.026,76 292.821,77.205 292.821,78.692 L292.821,143.308 C292.821,144.795 294.026,146 295.513,146 C297,146 298.205,144.795 298.205,143.308 Z" />
        </g>
        <g id="Regular-S">
            <path d="M437.179,143.308 L437.179,78.692 C437.179,77.205 435.974,76 434.487,76 C433,76 431.795,77.205 431.795,78.692 L431.795,143.308 C431.795,144.795 433,146 434.487,146 C435.974,146 437.179,144.795 437.179,143.308 Z" />
            <path d="M456.134,94.939 L466.895,84.187 L463.089,84.187 L473.866,94.956 C474.918,96.007 476.623,96.006 477.674,94.954 C478.725,93.902 478.724,92.198 477.672,91.147 L466.895,80.378 C465.844,79.327 464.14,79.327 463.089,80.378 L452.328,91.13 C451.276,92.181 451.275,93.886 452.326,94.938 C453.377,95.989 455.082,95.99 456.134,94.939 Z" />
            <path d="M473.866,127.061 L463.105,137.813 L466.911,137.813 L456.134,127.044 C455.082,125.993 453.377,125.994 452.326,127.046 C451.275,128.098 451.276,129.802 452.328,130.853 L463.105,141.622 C464.156,142.673 465.86,142.673 466.911,141.622 L477.672,130.87 C478.724,129.819 478.725,128.114 477.674,127.062 C476.623,126.011 474.918,126.01 473.866,127.061 Z" />
            <path d="M462.308,82.282 L462.308,139.718 C462.308,141.205 463.513,142.41 465,142.41 C466.487,142.41 467.692,141.205 467.692,139.718 L467.692,82.282 C467.692,80.795 466.487,79.59 465,79.59 C463.513,79.59 462.308,80.795 462.308,82.282 Z" />
            <path d="M498.205,143.308 L498.205,78.692 C498.205,77.205 497,76 495.513,76 C494.026,76 492.82,77.205 492.82,78.692 L492.82,143.308 C492.82,144.795 494.026,146 495.513,146 C497,146 498.205,144.795 498.205,143.308 Z" />
        </g>
        <g id="Black-S">
            <path d="M637.18,143.308 L637.18,78.692 C637.18,77.205 635.974,76 634.487,76 C633,76 631.795,77.205 631.795,78.692 L631.795,143.308 C631.795,144.795 633,146 634.487,146 C635.974,146 637.18,144.795 637.18,143.308 Z" />
            <path d="M656.134,94.939 L666.895,84.187 L663.089,84.187 L673.866,94.956 C674.918,96.007 676.623,96.006 677.674,94.954 C678.725,93.902 678.724,92.198 677.672,91.147 L666.895,80.378 C665.844,79.327 664.14,79.327 663.089,80.378 L652.328,91.13 C651.276,92.181 651.275,93.886 652.326,94.938 C653.377,95.989 655.082,95.99 656.134,94.939 Z" />
            <path d="M673.866,127.061 L663.105,137.813 L666.911,137.813 L656.134,127.044 C655.082,125.993 653.377,125.994 652.326,127.046 C651.275,128.098 651.276,129.802 652.328,130.853 L663.105,141.622 C664.156,142.673 665.86,142.673 666.911,141.622 L677.672,130.87 C678.724,129.819 678.725,128.114 677.674,127.062 C676.623,126.011 674.918,126.01 673.866,127.061 Z" />
            <path d="M662.308,82.282 L662.308,139.718 C662.308,141.205 663.513,142.41 665,142.41 C666.487,142.41 667.692,141.205 667.692,139.718 L667.692,82.282 C667.692,80.795 666.487,79.59 665,79.59 C663.513,79.59 662.308,80.795 662.308,82.282 Z" />
            <path d="M698.205,143.308 L698.205,78.692 C698.205,77.205 697,76 695.513,76 C694.026,76 692.821,77.205 692.821,78.692 L692.821,143.308 C692.821,144.795 694.026,146 695.513,146 C697,146 698.205,144.795 698.205,143.308 Z" />
        </g>
    </g>
</svg>