<?xml version="1.0" encoding="UTF-8"?>
<svg height="600" width="800" xmlns="http://www.w3.org/2000/svg" xmlns:xlink="http://www.w3.org/1999/xlink">
    <g id="Notes" font-family="'LucidaGrande', 'Lucida Grande', sans-serif" font-size="13">
        <rect fill="white" height="600.0" width="800.0" x="0.0" y="0.0" />
        <g font-size="13">
            <text x="18.0" y="176.0">Small</text>
            <text x="18.0" y="376.0">Medium</text>
            <text x="18.0" y="576.0">Large</text>
        </g>
        <g font-size="9">
            <text x="250.0" y="30.0">Ultralight</text>
            <text x="450.0" y="30.0">Regular</text>
            <text x="650.0" y="30.0">Black</text>
            <text id="template-version" fill="#505050" text-anchor="end" x="785.0" y="575.0">Template v.3.0</text>
            <a href="https://github.com/swhitty/SwiftDraw">
                <text fill="#505050" text-anchor="end" x="785.0" y="590.0">https://github.com/swhitty/SwiftDraw</text>
            </a>
        </g>
    </g>
    <g id="Guides" stroke="rgb(39, 170, 225)" stroke-width="0.5">
        <path id="Capline-S" d="M18,76 l800,0" />
        <path id="H-reference" d="M85,145.755 L87.685,145.755 L113.369,79.287 L114.052,79.287 L114.052,76 L112.148,76 L85,145.755 Z M95.693,121.536 L130.996,121.536 L130.263,119.313 L96.474,119.313 L95.693,121.536 Z M139.15,145.755 L141.787,145.755 L114.638,76 L113.466,76 L113.466,79.287 L139.15,145.755 Z" stroke="none" />
        <path id="Baseline-S" d="M18,146 l800,0" />
        <path id="left-margin-Ultralight-S" d="M221,56 l0,110" />
        <path id="right-margin-Ultralight-S" d="M309,56 l0,110" />
        <path id="left-margin-Regular-S" d="M421,56 l0,110" />
        <path id="right-margin-Regular-S" d="M509,56 l0,110" />
        <path id="left-margin-Black-S" d="M621,56 l0,110" />
        <path id="right-margin-Black-S" d="M709,56 l0,110" />
        <path id="Capline-M" d="M18,276 l800,0" />
        <path id="Baseline-M" d="M18,346 l800,0" />
        <path id="Capline-L" d="M18,476 l800,0" />
        <path id="Baseline-L" d="M18,546 l800,0" />
    </g>
    <g id="Symbols">
        <g id="Ultralight-S">
            <path d="M284.535,102.047 L245.465,102.047 C244.117,102.047 243.023,103.14 243.023,104.488 L243.023,143.558 C243.023,144.907 244.117,146 245.465,146 L284.535,146 C285.883,146 286.977,144.907 286.977,143.558 L286.977,104.488 C286.977,103.14 285.883,102.047 284.535,102.047 Z M284.535,106.93 L282.093,104.488 L282.093,143.558 L284.535,141.116 L245.465,141.116 L247.907,143.558 L247.907,104.488 L245.465,106.93 L284.535,106.93 Z" />
            <path d="M268.256,132.977 L284.535,132.977 C285.883,132.977 286.977,131.883 286.977,130.535 C286.977,129.186 285.883,128.093 284.535,128.093 L268.256,128.093 C266.907,128.093 265.814,129.186 265.814,130.535 C265.814,131.883 266.907,132.977 268.256,132.977 Z" />
            <path d="M268.256,119.953 L284.535,119.953 C285.883,119.953 286.977,118.86 286.977,117.512 C286.977,116.163 285.883,115.07 284.535,115.07 L268.256,115.07 C266.907,115.07 265.814,116.163 265.814,117.512 C265.814,118.86 266.907,119.953 268.256,119.953 Z" />
            <path d="M238.953,106.93 L291.047,106.93 C292.395,106.93 293.488,105.837 293.488,104.488 C293.488,103.14 292.395,102.047 291.047,102.047 L238.953,102.047 C237.605,102.047 236.512,103.14 236.512,104.488 C236.512,105.837 237.605,106.93 238.953,106.93 Z" />
            <path d="M245.465,97.163 L259.14,97.163 C260.488,97.163 261.581,96.07 261.581,94.721 L261.581,84.302 C261.581,82.858 263.162,80.884 265,80.884 C266.838,80.884 268.419,82.858 268.419,84.302 L268.419,94.721 C268.419,96.07 269.512,97.163 270.86,97.163 L284.535,97.163 C285.883,97.163 286.977,96.07 286.977,94.721 C286.977,93.372 285.883,92.279 284.535,92.279 L270.86,92.279 L273.302,94.721 L273.302,84.302 C273.302,80.37 269.805,76 265,76 C260.195,76 256.698,80.37 256.698,84.302 L256.698,94.721 L259.14,92.279 L245.465,92.279 C244.117,92.279 243.023,93.372 243.023,94.721 C243.023,96.07 244.117,97.163 245.465,97.163 Z" />
        </g>
        <g id="Regular-S">
            <path d="M484.535,102.047 L445.465,102.047 C444.117,102.047 443.023,103.14 443.023,104.488 L443.023,143.558 C443.023,144.907 444.117,146 445.465,146 L484.535,146 C485.883,146 486.977,144.907 486.977,143.558 L486.977,104.488 C486.977,103.14 485.883,102.047 484.535,102.047 Z M484.535,106.93 L482.093,104.488 L482.093,143.558 L484.535,141.116 L445.465,141.116 L447.907,143.558 L447.907,104.488 L445.465,106.93 L484.535,106.93 Z" />
            <path d="M468.256,132.977 L484.535,132.977 C485.883,132.977 486.977,131.883 486.977,130.535 C486.977,129.186 485.883,128.093 484.535,128.093 L468.256,128.093 C466.907,128.093 465.814,129.186 465.814,130.535 C465.814,131.883 466.907,132.977 468.256,132.977 Z" />
            <path d="M468.256,119.953 L484.535,119.953 C485.883,119.953 486.977,118.86 486.977,117.512 C486.977,116.163 485.883,115.07 484.535,115.07 L468.256,115.07 C466.907,115.07 465.814,116.163 465.814,117.512 C465.814,118.86 466.907,119.953 468.256,119.953 Z" />
            <path d="M438.953,106.93 L491.047,106.93 C492.395,106.93 493.488,105.837 493.488,104.488 C493.488,103.14 492.395,102.047 491.047,102.047 L438.953,102.047 C437.605,102.047 436.512,103.14 436.512,104.488 C436.512,105.837 437.605,106.93 438.953,106.93 Z" />
            <path d="M445.465,97.163 L459.14,97.163 C460.488,97.163 461.581,96.07 461.581,94.721 L461.581,84.302 C461.581,82.858 463.162,80.884 465,80.884 C466.838,80.884 468.419,82.858 468.419,84.302 L468.419,94.721 C468.419,96.07 469.512,97.163 470.86,97.163 L484.535,97.163 C485.883,97.163 486.977,96.07 486.977,94.721 C486.977,93.372 485.883,92.279 484.535,92.279 L470.86,92.279 L473.302,94.721 L473.302,84.302 C473.302,80.37 469.805,76 465,76 C460.195,76 456.698,80.37 456.698,84.302 L456.698,94.721 L459.14,92.279 L445.465,92.279 C444.117,92.279 443.023,93.372 443.023,94.721 C443.023,96.07 444.117,97.163 445.465,97.163 Z" />
        </g>
        <g id="Black-S">
            <path d="M684.535,102.047 L645.465,102.047 C644.117,102.047 643.023,103.14 643.023,104.488 L643.023,143.558 C643.023,144.907 644.117,146 645.465,146 L684.535,146 C685.883,146 686.977,144.907 686.977,143.558 L686.977,104.488 C686.977,103.14 685.883,102.047 684.535,102.047 Z M684.535,106.93 L682.093,104.488 L682.093,143.558 L684.535,141.116 L645.465,141.116 L647.907,143.558 L647.907,104.488 L645.465,106.93 L684.535,106.93 Z" />
            <path d="M668.256,132.977 L684.535,132.977 C685.883,132.977 686.977,131.883 686.977,130.535 C686.977,129.186 685.883,128.093 684.535,128.093 L668.256,128.093 C666.907,128.093 665.814,129.186 665.814,130.535 C665.814,131.883 666.907,132.977 668.256,132.977 Z" />
            <path d="M668.256,119.953 L684.535,119.953 C685.883,119.953 686.977,118.86 686.977,117.512 C686.977,116.163 685.883,115.07 684.535,115.07 L668.256,115.07 C666.907,115.07 665.814,116.163 665.814,117.512 C665.814,118.86 666.907,119.953 668.256,119.953 Z" />
            <path d="M638.953,106.93 L691.047,106.93 C692.395,106.93 693.488,105.837 693.488,104.488 C693.488,103.14 692.395,102.047 691.047,102.047 L638.953,102.047 C637.605,102.047 636.512,103.14 636.512,104.488 C636.512,105.837 637.605,106.93 638.953,106.93 Z" />
            <path d="M645.465,97.163 L659.14,97.163 C660.488,97.163 661.581,96.07 661.581,94.721 L661.581,84.302 C661.581,82.858 663.162,80.884 665,80.884 C666.838,80.884 668.419,82.858 668.419,84.302 L668.419,94.721 C668.419,96.07 669.512,97.163 670.86,97.163 L684.535,97.163 C685.883,97.163 686.977,96.07 686.977,94.721 C686.977,93.372 685.883,92.279 684.535,92.279 L670.86,92.279 L673.302,94.721 L673.302,84.302 C673.302,80.37 669.805,76 665,76 C660.195,76 656.698,80.37 656.698,84.302 L656.698,94.721 L659.14,92.279 L645.465,92.279 C644.117,92.279 643.023,93.372 643.023,94.721 C643.023,96.07 644.117,97.163 645.465,97.163 Z" />
        </g>
    </g>
</svg>