<?xml version="1.0" encoding="UTF-8"?>
<svg height="600" width="800" xmlns="http://www.w3.org/2000/svg" xmlns:xlink="http://www.w3.org/1999/xlink">
    <g id="Notes" font-family="'LucidaGrande', 'Lucida Grande', sans-serif" font-size="13">
        <rect fill="white" height="600.0" width="800.0" x="0.0" y="0.0" />
        <g font-size="13">
            <text x="18.0" y="176.0">Small</text>
            <text x="18.0" y="376.0">Medium</text>
            <text x="18.0" y="576.0">Large</text>
        </g>
        <g font-size="9">
            <text x="250.0" y="30.0">Ultralight</text>
            <text x="450.0" y="30.0">Regular</text>
            <text x="650.0" y="30.0">Black</text>
            <text id="template-version" fill="#505050" text-anchor="end" x="785.0" y="575.0">Template v.3.0</text>
            <a href="https://github.com/swhitty/SwiftDraw">
                <text fill="#505050" text-anchor="end" x="785.0" y="590.0">https://github.com/swhitty/SwiftDraw</text>
            </a>
        </g>
    </g>
    <g id="Guides" stroke="rgb(39, 170, 225)" stroke-width="0.5">
        <path id="Capline-S" d="M18,76 l800,0" />
        <path id="H-reference" d="M85,145.755 L87.685,145.755 L113.369,79.287 L114.052,79.287 L114.052,76 L112.148,76 L85,145.755 Z M95.693,121.536 L130.996,121.536 L130.263,119.313 L96.474,119.313 L95.693,121.536 Z M139.15,145.755 L141.787,145.755 L114.638,76 L113.466,76 L113.466,79.287 L139.15,145.755 Z" stroke="none" />
        <path id="Baseline-S" d="M18,146 l800,0" />
        <path id="left-margin-Ultralight-S" d="M220.875,56 l0,110" />
        <path id="right-margin-Ultralight-S" d="M309.125,56 l0,110" />
        <path id="left-margin-Regular-S" d="M420.875,56 l0,110" />
        <path id="right-margin-Regular-S" d="M509.125,56 l0,110" />
        <path id="left-margin-Black-S" d="M620.875,56 l0,110" />
        <path id="right-margin-Black-S" d="M709.125,56 l0,110" />
        <path id="Capline-M" d="M18,276 l800,0" />
        <path id="Baseline-M" d="M18,346 l800,0" />
        <path id="Capline-L" d="M18,476 l800,0" />
        <path id="Baseline-L" d="M18,546 l800,0" />
    </g>
    <g id="Symbols">
        <g id="Ultralight-S">
            <path d="M258.875,87.375 C258.875,83.992 261.617,81.25 265,81.25 C268.383,81.25 271.125,83.992 271.125,87.375 C271.125,90.758 268.383,93.5 265,93.5 C261.617,93.5 258.875,90.758 258.875,87.375 Z M253.625,87.375 C253.625,93.657 258.718,98.75 265,98.75 C271.282,98.75 276.375,93.657 276.375,87.375 C276.375,81.093 271.282,76 265,76 C258.718,76 253.625,81.093 253.625,87.375 Z" />
            <path d="M265,104 C258.503,104 253.345,99.702 249.379,92.265 C247.932,89.553 246.762,86.626 245.85,83.697 C245.531,82.671 245.268,81.721 245.058,80.872 C244.934,80.373 244.857,80.027 244.824,79.86 C244.502,78.251 242.799,77.328 241.275,77.938 L232.525,81.438 C231.366,81.901 230.694,83.117 230.917,84.345 L236.167,113.22 C236.306,113.982 236.775,114.645 237.448,115.029 C237.358,114.978 238.408,115.573 238.788,115.793 C239.435,116.167 240.053,116.537 240.686,116.933 C242.358,117.979 243.94,119.09 245.42,120.291 C247.527,122.003 249.289,123.796 250.614,125.651 C251.196,126.465 251.709,127.331 252.239,128.36 C252.451,128.772 252.659,129.197 252.923,129.752 C252.925,129.756 253.444,130.852 253.594,131.163 C256.271,136.715 259.208,139 265.875,139 C272.731,139 276.351,135.933 279.147,129.936 C279.315,129.576 279.478,129.214 279.688,128.738 C279.656,128.811 280.072,127.867 280.182,127.622 C280.62,126.64 280.933,126.006 281.251,125.476 C283.323,122.022 290.039,116.008 292.172,115.208 C293.037,114.883 293.667,114.128 293.833,113.22 L299.083,84.345 C299.306,83.117 298.634,81.901 297.475,81.438 L288.725,77.938 C287.201,77.328 285.498,78.251 285.176,79.86 C285.143,80.027 285.066,80.373 284.942,80.872 C284.732,81.721 284.469,82.671 284.15,83.697 C283.238,86.626 282.068,89.553 280.621,92.265 C276.655,99.702 271.497,104 265,104 Z M265,109.25 C273.815,109.25 280.47,103.704 285.254,94.735 C286.87,91.705 288.16,88.48 289.163,85.256 C289.514,84.129 289.804,83.08 290.038,82.134 C290.181,81.556 290.275,81.133 290.324,80.89 L286.775,82.812 L295.525,86.312 L293.917,83.405 L288.667,112.28 L291.25,112.75 L290.328,110.292 C287.017,111.534 279.402,118.353 276.749,122.774 C276.297,123.528 275.906,124.322 275.388,125.481 C275.272,125.74 274.85,126.699 274.887,126.615 C274.69,127.061 274.539,127.395 274.389,127.717 C272.369,132.048 270.361,133.75 265.875,133.75 C261.458,133.75 260.196,132.768 258.323,128.883 C258.182,128.592 257.672,127.514 257.663,127.494 C257.378,126.896 257.148,126.427 256.907,125.959 C256.27,124.719 255.63,123.641 254.886,122.599 C253.261,120.324 251.177,118.205 248.73,116.217 C247.07,114.868 245.315,113.637 243.472,112.483 C242.783,112.052 242.113,111.651 241.416,111.248 C241.013,111.015 239.945,110.409 240.052,110.471 L238.75,112.75 L241.333,112.28 L236.083,83.405 L234.475,86.312 L243.225,82.812 L239.676,80.89 C239.725,81.133 239.819,81.556 239.962,82.134 C240.196,83.08 240.486,84.129 240.837,85.256 C241.84,88.48 243.13,91.705 244.746,94.735 C249.53,103.704 256.185,109.25 265,109.25 Z" />
            <path d="M281.198,122.904 C281.474,123.062 282.037,123.436 282.792,124.029 C284.086,125.045 285.385,126.289 286.599,127.762 C290.059,131.964 292.125,137.13 292.125,143.375 L294.75,140.75 L286,140.75 L288.625,143.375 C288.625,138.118 286.745,133.606 283.642,129.882 C281.79,127.661 279.928,126.17 278.601,125.374 C277.357,124.628 275.745,125.031 274.999,126.274 C274.253,127.518 274.656,129.13 275.899,129.876 C276.076,129.982 276.459,130.244 276.977,130.659 C277.871,131.374 278.771,132.238 279.608,133.243 C281.974,136.081 283.375,139.445 283.375,143.375 C283.375,144.825 284.55,146 286,146 L294.75,146 C296.2,146 297.375,144.825 297.375,143.375 C297.375,135.839 294.848,129.521 290.651,124.425 C288.129,121.363 285.589,119.367 283.802,118.346 C282.544,117.627 280.94,118.064 280.221,119.323 C279.502,120.581 279.939,122.185 281.198,122.904 Z" />
            <path d="M247.948,118.346 C246.161,119.367 243.621,121.363 241.099,124.425 C236.902,129.521 234.375,135.839 234.375,143.375 C234.375,144.825 235.55,146 237,146 L245.75,146 C247.2,146 248.375,144.825 248.375,143.375 C248.375,139.445 249.776,136.081 252.142,133.243 C252.979,132.238 253.879,131.374 254.773,130.659 C255.291,130.244 255.674,129.982 255.851,129.876 C257.094,129.13 257.497,127.518 256.751,126.274 C256.005,125.031 254.393,124.628 253.149,125.374 C251.822,126.17 249.96,127.661 248.108,129.882 C245.005,133.606 243.125,138.118 243.125,143.375 L245.75,140.75 L237,140.75 L239.625,143.375 C239.625,137.13 241.691,131.964 245.151,127.762 C246.365,126.289 247.664,125.045 248.958,124.029 C249.713,123.436 250.276,123.062 250.552,122.904 C251.811,122.185 252.248,120.581 251.529,119.323 C250.81,118.064 249.206,117.627 247.948,118.346 Z" />
        </g>
        <g id="Regular-S">
            <path d="M458.875,87.375 C458.875,83.992 461.617,81.25 465,81.25 C468.383,81.25 471.125,83.992 471.125,87.375 C471.125,90.758 468.383,93.5 465,93.5 C461.617,93.5 458.875,90.758 458.875,87.375 Z M453.625,87.375 C453.625,93.657 458.718,98.75 465,98.75 C471.282,98.75 476.375,93.657 476.375,87.375 C476.375,81.093 471.282,76 465,76 C458.718,76 453.625,81.093 453.625,87.375 Z" />
            <path d="M465,104 C458.503,104 453.345,99.702 449.379,92.265 C447.932,89.553 446.762,86.626 445.85,83.697 C445.531,82.671 445.268,81.721 445.058,80.872 C444.934,80.373 444.857,80.027 444.824,79.86 C444.502,78.251 442.799,77.328 441.275,77.938 L432.525,81.438 C431.366,81.901 430.694,83.117 430.917,84.345 L436.167,113.22 C436.306,113.982 436.775,114.645 437.448,115.029 C437.358,114.978 438.408,115.573 438.788,115.793 C439.435,116.167 440.053,116.537 440.686,116.933 C442.358,117.979 443.94,119.09 445.42,120.291 C447.527,122.003 449.289,123.796 450.614,125.651 C451.196,126.465 451.709,127.331 452.239,128.36 C452.451,128.772 452.659,129.197 452.923,129.752 C452.925,129.756 453.444,130.852 453.594,131.163 C456.271,136.715 459.208,139 465.875,139 C472.731,139 476.351,135.933 479.147,129.936 C479.315,129.576 479.478,129.214 479.688,128.738 C479.656,128.811 480.072,127.867 480.182,127.622 C480.62,126.64 480.933,126.006 481.251,125.476 C483.323,122.022 490.039,116.008 492.172,115.208 C493.037,114.883 493.667,114.128 493.833,113.22 L499.083,84.345 C499.306,83.117 498.634,81.901 497.475,81.438 L488.725,77.938 C487.201,77.328 485.498,78.251 485.176,79.86 C485.143,80.027 485.066,80.373 484.942,80.872 C484.732,81.721 484.469,82.671 484.15,83.697 C483.238,86.626 482.068,89.553 480.621,92.265 C476.655,99.702 471.497,104 465,104 Z M465,109.25 C473.815,109.25 480.47,103.704 485.254,94.735 C486.87,91.705 488.16,88.48 489.163,85.256 C489.514,84.129 489.804,83.08 490.038,82.134 C490.181,81.556 490.275,81.133 490.324,80.89 L486.775,82.812 L495.525,86.312 L493.917,83.405 L488.667,112.28 L491.25,112.75 L490.328,110.292 C487.017,111.534 479.402,118.353 476.749,122.774 C476.297,123.528 475.906,124.322 475.388,125.481 C475.272,125.74 474.85,126.699 474.887,126.615 C474.69,127.061 474.539,127.395 474.389,127.717 C472.369,132.048 470.361,133.75 465.875,133.75 C461.458,133.75 460.196,132.768 458.323,128.883 C458.182,128.592 457.672,127.514 457.663,127.494 C457.378,126.896 457.148,126.427 456.907,125.959 C456.27,124.719 455.63,123.641 454.886,122.599 C453.261,120.324 451.177,118.205 448.73,116.217 C447.07,114.868 445.315,113.637 443.472,112.483 C442.783,112.052 442.113,111.651 441.416,111.248 C441.013,111.015 439.945,110.409 440.052,110.471 L438.75,112.75 L441.333,112.28 L436.083,83.405 L434.475,86.312 L443.225,82.812 L439.676,80.89 C439.725,81.133 439.819,81.556 439.962,82.134 C440.196,83.08 440.486,84.129 440.837,85.256 C441.84,88.48 443.13,91.705 444.746,94.735 C449.53,103.704 456.185,109.25 465,109.25 Z" />
            <path d="M481.198,122.904 C481.474,123.062 482.037,123.436 482.792,124.029 C484.086,125.045 485.385,126.289 486.599,127.762 C490.059,131.964 492.125,137.13 492.125,143.375 L494.75,140.75 L486,140.75 L488.625,143.375 C488.625,138.118 486.745,133.606 483.642,129.882 C481.79,127.661 479.928,126.17 478.601,125.374 C477.357,124.628 475.745,125.031 474.999,126.274 C474.253,127.518 474.656,129.13 475.899,129.876 C476.076,129.982 476.459,130.244 476.977,130.659 C477.871,131.374 478.771,132.238 479.608,133.243 C481.974,136.081 483.375,139.445 483.375,143.375 C483.375,144.825 484.55,146 486,146 L494.75,146 C496.2,146 497.375,144.825 497.375,143.375 C497.375,135.839 494.848,129.521 490.651,124.425 C488.129,121.363 485.589,119.367 483.802,118.346 C482.544,117.627 480.94,118.064 480.221,119.323 C479.502,120.581 479.939,122.185 481.198,122.904 Z" />
            <path d="M447.948,118.346 C446.161,119.367 443.621,121.363 441.099,124.425 C436.902,129.521 434.375,135.839 434.375,143.375 C434.375,144.825 435.55,146 437,146 L445.75,146 C447.2,146 448.375,144.825 448.375,143.375 C448.375,139.445 449.776,136.081 452.142,133.243 C452.979,132.238 453.879,131.374 454.773,130.659 C455.291,130.244 455.674,129.982 455.851,129.876 C457.094,129.13 457.497,127.518 456.751,126.274 C456.005,125.031 454.393,124.628 453.149,125.374 C451.822,126.17 449.96,127.661 448.108,129.882 C445.005,133.606 443.125,138.118 443.125,143.375 L445.75,140.75 L437,140.75 L439.625,143.375 C439.625,137.13 441.691,131.964 445.151,127.762 C446.365,126.289 447.664,125.045 448.958,124.029 C449.713,123.436 450.276,123.062 450.552,122.904 C451.811,122.185 452.248,120.581 451.529,119.323 C450.81,118.064 449.206,117.627 447.948,118.346 Z" />
        </g>
        <g id="Black-S">
            <path d="M658.875,87.375 C658.875,83.992 661.617,81.25 665,81.25 C668.383,81.25 671.125,83.992 671.125,87.375 C671.125,90.758 668.383,93.5 665,93.5 C661.617,93.5 658.875,90.758 658.875,87.375 Z M653.625,87.375 C653.625,93.657 658.718,98.75 665,98.75 C671.282,98.75 676.375,93.657 676.375,87.375 C676.375,81.093 671.282,76 665,76 C658.718,76 653.625,81.093 653.625,87.375 Z" />
            <path d="M665,104 C658.503,104 653.345,99.702 649.379,92.265 C647.932,89.553 646.762,86.626 645.85,83.697 C645.531,82.671 645.268,81.721 645.058,80.872 C644.934,80.373 644.857,80.027 644.824,79.86 C644.502,78.251 642.799,77.328 641.275,77.938 L632.525,81.438 C631.366,81.901 630.694,83.117 630.917,84.345 L636.167,113.22 C636.306,113.982 636.775,114.645 637.448,115.029 C637.358,114.978 638.408,115.573 638.788,115.793 C639.435,116.167 640.053,116.537 640.686,116.933 C642.358,117.979 643.94,119.09 645.42,120.291 C647.527,122.003 649.289,123.796 650.614,125.651 C651.196,126.465 651.709,127.331 652.239,128.36 C652.451,128.772 652.659,129.197 652.923,129.752 C652.925,129.756 653.444,130.852 653.594,131.163 C656.271,136.715 659.208,139 665.875,139 C672.731,139 676.351,135.933 679.147,129.936 C679.315,129.576 679.478,129.214 679.688,128.738 C679.656,128.811 680.072,127.867 680.182,127.622 C680.62,126.64 680.933,126.006 681.251,125.476 C683.323,122.022 690.039,116.008 692.172,115.208 C693.037,114.883 693.667,114.128 693.833,113.22 L699.083,84.345 C699.306,83.117 698.634,81.901 697.475,81.438 L688.725,77.938 C687.201,77.328 685.498,78.251 685.176,79.86 C685.143,80.027 685.066,80.373 684.942,80.872 C684.732,81.721 684.469,82.671 684.15,83.697 C683.238,86.626 682.068,89.553 680.621,92.265 C676.655,99.702 671.497,104 665,104 Z M665,109.25 C673.815,109.25 680.47,103.704 685.254,94.735 C686.87,91.705 688.16,88.48 689.163,85.256 C689.514,84.129 689.804,83.08 690.038,82.134 C690.181,81.556 690.275,81.133 690.324,80.89 L686.775,82.812 L695.525,86.312 L693.917,83.405 L688.667,112.28 L691.25,112.75 L690.328,110.292 C687.017,111.534 679.402,118.353 676.749,122.774 C676.297,123.528 675.906,124.322 675.388,125.481 C675.272,125.74 674.85,126.699 674.887,126.615 C674.69,127.061 674.539,127.395 674.389,127.717 C672.369,132.048 670.361,133.75 665.875,133.75 C661.458,133.75 660.196,132.768 658.323,128.883 C658.182,128.592 657.672,127.514 657.663,127.494 C657.378,126.896 657.148,126.427 656.907,125.959 C656.27,124.719 655.63,123.641 654.886,122.599 C653.261,120.324 651.177,118.205 648.73,116.217 C647.07,114.868 645.315,113.637 643.472,112.483 C642.783,112.052 642.113,111.651 641.416,111.248 C641.013,111.015 639.945,110.409 640.052,110.471 L638.75,112.75 L641.333,112.28 L636.083,83.405 L634.475,86.312 L643.225,82.812 L639.676,80.89 C639.725,81.133 639.819,81.556 639.962,82.134 C640.196,83.08 640.486,84.129 640.837,85.256 C641.84,88.48 643.13,91.705 644.746,94.735 C649.53,103.704 656.185,109.25 665,109.25 Z" />
            <path d="M681.198,122.904 C681.474,123.062 682.037,123.436 682.792,124.029 C684.086,125.045 685.385,126.289 686.599,127.762 C690.059,131.964 692.125,137.13 692.125,143.375 L694.75,140.75 L686,140.75 L688.625,143.375 C688.625,138.118 686.745,133.606 683.642,129.882 C681.79,127.661 679.927,126.17 678.601,125.374 C677.357,124.628 675.745,125.031 674.999,126.274 C674.253,127.518 674.656,129.13 675.899,129.876 C676.076,129.982 676.459,130.244 676.977,130.659 C677.871,131.374 678.771,132.238 679.608,133.243 C681.974,136.081 683.375,139.445 683.375,143.375 C683.375,144.825 684.55,146 686,146 L694.75,146 C696.2,146 697.375,144.825 697.375,143.375 C697.375,135.839 694.848,129.521 690.651,124.425 C688.13,121.363 685.589,119.367 683.802,118.346 C682.544,117.627 680.94,118.064 680.221,119.323 C679.502,120.581 679.939,122.185 681.198,122.904 Z" />
            <path d="M647.948,118.346 C646.161,119.367 643.62,121.363 641.099,124.425 C636.902,129.521 634.375,135.839 634.375,143.375 C634.375,144.825 635.55,146 637,146 L645.75,146 C647.2,146 648.375,144.825 648.375,143.375 C648.375,139.445 649.776,136.081 652.142,133.243 C652.979,132.238 653.879,131.374 654.773,130.659 C655.291,130.244 655.674,129.982 655.851,129.876 C657.094,129.13 657.497,127.518 656.751,126.274 C656.005,125.031 654.393,124.628 653.149,125.374 C651.823,126.17 649.96,127.661 648.108,129.882 C645.005,133.606 643.125,138.118 643.125,143.375 L645.75,140.75 L637,140.75 L639.625,143.375 C639.625,137.13 641.691,131.964 645.151,127.762 C646.365,126.289 647.664,125.045 648.958,124.029 C649.713,123.436 650.276,123.062 650.552,122.904 C651.811,122.185 652.248,120.581 651.529,119.323 C650.81,118.064 649.206,117.627 647.948,118.346 Z" />
        </g>
    </g>
</svg>