<?xml version="1.0" encoding="UTF-8"?>
<svg height="600" width="800" xmlns="http://www.w3.org/2000/svg" xmlns:xlink="http://www.w3.org/1999/xlink">
    <g id="Notes" font-family="'LucidaGrande', 'Lucida Grande', sans-serif" font-size="13">
        <rect fill="white" height="600.0" width="800.0" x="0.0" y="0.0" />
        <g font-size="13">
            <text x="18.0" y="176.0">Small</text>
            <text x="18.0" y="376.0">Medium</text>
            <text x="18.0" y="576.0">Large</text>
        </g>
        <g font-size="9">
            <text x="250.0" y="30.0">Ultralight</text>
            <text x="450.0" y="30.0">Regular</text>
            <text x="650.0" y="30.0">Black</text>
            <text id="template-version" fill="#505050" text-anchor="end" x="785.0" y="575.0">Template v.3.0</text>
            <a href="https://github.com/swhitty/SwiftDraw">
                <text fill="#505050" text-anchor="end" x="785.0" y="590.0">https://github.com/swhitty/SwiftDraw</text>
            </a>
        </g>
    </g>
    <g id="Guides" stroke="rgb(39, 170, 225)" stroke-width="0.5">
        <path id="Capline-S" d="M18,76 l800,0" />
        <path id="H-reference" d="M85,145.755 L87.685,145.755 L113.369,79.287 L114.052,79.287 L114.052,76 L112.148,76 L85,145.755 Z M95.693,121.536 L130.996,121.536 L130.263,119.313 L96.474,119.313 L95.693,121.536 Z M139.15,145.755 L141.787,145.755 L114.638,76 L113.466,76 L113.466,79.287 L139.15,145.755 Z" stroke="none" />
        <path id="Baseline-S" d="M18,146 l800,0" />
        <path id="left-margin-Ultralight-S" d="M221,56 l0,110" />
        <path id="right-margin-Ultralight-S" d="M309,56 l0,110" />
        <path id="left-margin-Regular-S" d="M421,56 l0,110" />
        <path id="right-margin-Regular-S" d="M509,56 l0,110" />
        <path id="left-margin-Black-S" d="M621,56 l0,110" />
        <path id="right-margin-Black-S" d="M709,56 l0,110" />
        <path id="Capline-M" d="M18,276 l800,0" />
        <path id="Baseline-M" d="M18,346 l800,0" />
        <path id="Capline-L" d="M18,476 l800,0" />
        <path id="Baseline-L" d="M18,546 l800,0" />
    </g>
    <g id="Symbols">
        <g id="Ultralight-S">
            <path d="M257.66,146 C263.062,146 267.428,141.635 267.428,136.233 L267.428,102.86 C267.428,101.512 266.335,100.419 264.986,100.419 L258.474,100.419 C257.349,100.419 256.369,101.188 256.102,102.282 L247.962,135.654 C247.916,135.843 247.893,136.038 247.893,136.233 C247.893,141.635 252.258,146 257.66,146 Z M257.66,141.116 C254.956,141.116 252.777,138.937 252.777,136.233 L252.707,136.811 L260.847,103.439 L258.474,105.302 L264.986,105.302 L262.544,102.86 L262.544,136.233 C262.544,138.937 260.365,141.116 257.66,141.116 Z" />
            <path d="M258.475,100.419 L251.963,100.419 C251.034,100.419 250.185,100.947 249.773,101.781 L234.601,132.548 C232.09,138.443 235.687,145.21 241.88,145.935 C242.252,145.978 242.624,146 243.01,146 C248.412,146 252.777,141.635 252.777,136.233 C252.777,134.884 251.684,133.791 250.335,133.791 C248.987,133.791 247.894,134.884 247.894,136.233 C247.894,138.937 245.715,141.116 243.01,141.116 C242.814,141.116 242.632,141.106 242.449,141.084 C239.586,140.749 237.825,137.436 239.038,134.584 L254.153,103.94 L251.963,105.302 L258.475,105.302 C259.824,105.302 260.917,104.209 260.917,102.86 C260.917,101.512 259.824,100.419 258.475,100.419 Z" />
            <path d="M272.312,141.116 C269.607,141.116 267.428,138.937 267.428,136.233 L267.428,102.86 L264.986,105.302 L271.498,105.302 L269.125,103.439 L277.265,136.811 L277.195,136.233 C277.195,138.937 275.016,141.116 272.312,141.116 Z M272.312,146 C277.714,146 282.079,141.635 282.079,136.233 C282.079,136.038 282.056,135.843 282.009,135.654 L273.87,102.282 C273.603,101.188 272.623,100.419 271.498,100.419 L264.986,100.419 C263.637,100.419 262.544,101.512 262.544,102.86 L262.544,136.233 C262.544,141.635 266.909,146 272.312,146 Z" />
            <path d="M271.498,105.302 L278.009,105.302 L275.819,103.94 L290.991,134.708 C292.147,137.436 290.386,140.749 287.525,141.084 C287.34,141.106 287.159,141.116 286.963,141.116 C284.258,141.116 282.079,138.937 282.079,136.233 C282.079,134.884 280.986,133.791 279.637,133.791 C278.289,133.791 277.195,134.884 277.195,136.233 C277.195,141.635 281.561,146 286.963,146 C287.349,146 287.721,145.978 288.095,145.934 C294.286,145.21 297.883,138.443 295.428,132.672 L280.199,101.781 C279.788,100.947 278.939,100.419 278.009,100.419 L271.498,100.419 C270.149,100.419 269.056,101.512 269.056,102.86 C269.056,104.209 270.149,105.302 271.498,105.302 Z" />
            <path d="M254.485,92.799 C254.431,92.358 254.405,91.919 254.405,91.465 C254.405,85.618 259.139,80.884 264.986,80.884 C270.833,80.884 275.567,85.618 275.567,91.465 C275.567,91.919 275.541,92.358 275.487,92.799 L277.912,93.093 L277.912,90.651 L252.06,90.651 L252.06,93.093 L254.485,92.799 Z M249.636,93.387 C249.785,94.613 250.825,95.535 252.06,95.535 L277.912,95.535 C279.147,95.535 280.187,94.613 280.336,93.387 C280.413,92.75 280.451,92.115 280.451,91.465 C280.451,82.921 273.53,76 264.986,76 C256.442,76 249.521,82.921 249.521,91.465 C249.521,92.115 249.559,92.75 249.636,93.387 Z" />
        </g>
        <g id="Regular-S">
            <path d="M457.66,146 C463.062,146 467.428,141.635 467.428,136.233 L467.428,102.86 C467.428,101.512 466.335,100.419 464.986,100.419 L458.474,100.419 C457.349,100.419 456.369,101.188 456.102,102.282 L447.962,135.654 C447.916,135.843 447.893,136.038 447.893,136.233 C447.893,141.635 452.258,146 457.66,146 Z M457.66,141.116 C454.956,141.116 452.777,138.937 452.777,136.233 L452.707,136.811 L460.847,103.439 L458.474,105.302 L464.986,105.302 L462.544,102.86 L462.544,136.233 C462.544,138.937 460.365,141.116 457.66,141.116 Z" />
            <path d="M458.475,100.419 L451.963,100.419 C451.034,100.419 450.185,100.947 449.773,101.781 L434.601,132.548 C432.09,138.443 435.687,145.21 441.88,145.935 C442.252,145.978 442.624,146 443.01,146 C448.412,146 452.777,141.635 452.777,136.233 C452.777,134.884 451.684,133.791 450.335,133.791 C448.987,133.791 447.894,134.884 447.894,136.233 C447.894,138.937 445.715,141.116 443.01,141.116 C442.814,141.116 442.632,141.106 442.449,141.084 C439.586,140.749 437.825,137.436 439.038,134.584 L454.153,103.94 L451.963,105.302 L458.475,105.302 C459.824,105.302 460.917,104.209 460.917,102.86 C460.917,101.512 459.824,100.419 458.475,100.419 Z" />
            <path d="M472.312,141.116 C469.607,141.116 467.428,138.937 467.428,136.233 L467.428,102.86 L464.986,105.302 L471.498,105.302 L469.125,103.439 L477.265,136.811 L477.195,136.233 C477.195,138.937 475.016,141.116 472.312,141.116 Z M472.312,146 C477.714,146 482.079,141.635 482.079,136.233 C482.079,136.038 482.056,135.843 482.009,135.654 L473.87,102.282 C473.603,101.188 472.623,100.419 471.498,100.419 L464.986,100.419 C463.637,100.419 462.544,101.512 462.544,102.86 L462.544,136.233 C462.544,141.635 466.909,146 472.312,146 Z" />
            <path d="M471.498,105.302 L478.009,105.302 L475.819,103.94 L490.991,134.708 C492.147,137.436 490.386,140.749 487.525,141.084 C487.34,141.106 487.159,141.116 486.963,141.116 C484.258,141.116 482.079,138.937 482.079,136.233 C482.079,134.884 480.986,133.791 479.637,133.791 C478.289,133.791 477.195,134.884 477.195,136.233 C477.195,141.635 481.561,146 486.963,146 C487.349,146 487.721,145.978 488.095,145.934 C494.286,145.21 497.883,138.443 495.428,132.672 L480.199,101.781 C479.788,100.947 478.939,100.419 478.009,100.419 L471.498,100.419 C470.149,100.419 469.056,101.512 469.056,102.86 C469.056,104.209 470.149,105.302 471.498,105.302 Z" />
            <path d="M454.484,92.799 C454.431,92.358 454.405,91.919 454.405,91.465 C454.405,85.618 459.139,80.884 464.986,80.884 C470.833,80.884 475.567,85.618 475.567,91.465 C475.567,91.919 475.541,92.358 475.487,92.799 L477.912,93.093 L477.912,90.651 L452.06,90.651 L452.06,93.093 L454.484,92.799 Z M449.636,93.387 C449.785,94.613 450.825,95.535 452.06,95.535 L477.912,95.535 C479.147,95.535 480.187,94.613 480.336,93.387 C480.413,92.75 480.451,92.115 480.451,91.465 C480.451,82.921 473.53,76 464.986,76 C456.442,76 449.521,82.921 449.521,91.465 C449.521,92.115 449.559,92.75 449.636,93.387 Z" />
        </g>
        <g id="Black-S">
            <path d="M657.66,146 C663.062,146 667.428,141.635 667.428,136.233 L667.428,102.86 C667.428,101.512 666.335,100.419 664.986,100.419 L658.474,100.419 C657.349,100.419 656.369,101.188 656.102,102.282 L647.962,135.654 C647.916,135.843 647.893,136.038 647.893,136.233 C647.893,141.635 652.258,146 657.66,146 Z M657.66,141.116 C654.956,141.116 652.777,138.937 652.777,136.233 L652.707,136.811 L660.847,103.439 L658.474,105.302 L664.986,105.302 L662.544,102.86 L662.544,136.233 C662.544,138.937 660.365,141.116 657.66,141.116 Z" />
            <path d="M658.475,100.419 L651.963,100.419 C651.034,100.419 650.185,100.947 649.773,101.781 L634.601,132.548 C632.09,138.443 635.687,145.21 641.88,145.935 C642.252,145.978 642.624,146 643.01,146 C648.412,146 652.777,141.635 652.777,136.233 C652.777,134.884 651.684,133.791 650.335,133.791 C648.987,133.791 647.894,134.884 647.894,136.233 C647.894,138.937 645.715,141.116 643.01,141.116 C642.814,141.116 642.632,141.106 642.449,141.084 C639.586,140.749 637.825,137.436 639.038,134.584 L654.153,103.94 L651.963,105.302 L658.475,105.302 C659.824,105.302 660.917,104.209 660.917,102.86 C660.917,101.512 659.824,100.419 658.475,100.419 Z" />
            <path d="M672.312,141.116 C669.607,141.116 667.428,138.937 667.428,136.233 L667.428,102.86 L664.986,105.302 L671.498,105.302 L669.125,103.439 L677.265,136.811 L677.195,136.233 C677.195,138.937 675.016,141.116 672.312,141.116 Z M672.312,146 C677.714,146 682.079,141.635 682.079,136.233 C682.079,136.038 682.056,135.843 682.009,135.654 L673.87,102.282 C673.603,101.188 672.623,100.419 671.498,100.419 L664.986,100.419 C663.637,100.419 662.544,101.512 662.544,102.86 L662.544,136.233 C662.544,141.635 666.909,146 672.312,146 Z" />
            <path d="M671.498,105.302 L678.009,105.302 L675.819,103.94 L690.991,134.708 C692.147,137.436 690.386,140.749 687.525,141.084 C687.34,141.106 687.159,141.116 686.963,141.116 C684.258,141.116 682.079,138.937 682.079,136.233 C682.079,134.884 680.986,133.791 679.637,133.791 C678.289,133.791 677.195,134.884 677.195,136.233 C677.195,141.635 681.561,146 686.963,146 C687.349,146 687.721,145.978 688.095,145.934 C694.286,145.21 697.883,138.443 695.428,132.672 L680.199,101.781 C679.788,100.947 678.939,100.419 678.009,100.419 L671.498,100.419 C670.149,100.419 669.056,101.512 669.056,102.86 C669.056,104.209 670.149,105.302 671.498,105.302 Z" />
            <path d="M654.484,92.799 C654.431,92.358 654.405,91.919 654.405,91.465 C654.405,85.618 659.139,80.884 664.986,80.884 C670.833,80.884 675.567,85.618 675.567,91.465 C675.567,91.919 675.541,92.358 675.487,92.799 L677.912,93.093 L677.912,90.651 L652.06,90.651 L652.06,93.093 L654.484,92.799 Z M649.636,93.387 C649.785,94.613 650.825,95.535 652.06,95.535 L677.912,95.535 C679.146,95.535 680.187,94.613 680.336,93.387 C680.413,92.75 680.451,92.115 680.451,91.465 C680.451,82.921 673.53,76 664.986,76 C656.442,76 649.521,82.921 649.521,91.465 C649.521,92.115 649.559,92.75 649.636,93.387 Z" />
        </g>
    </g>
</svg>