<?xml version="1.0" encoding="UTF-8"?>
<svg height="600" width="800" xmlns="http://www.w3.org/2000/svg" xmlns:xlink="http://www.w3.org/1999/xlink">
    <g id="Notes" font-family="'LucidaGrande', 'Lucida Grande', sans-serif" font-size="13">
        <rect fill="white" height="600.0" width="800.0" x="0.0" y="0.0" />
        <g font-size="13">
            <text x="18.0" y="176.0">Small</text>
            <text x="18.0" y="376.0">Medium</text>
            <text x="18.0" y="576.0">Large</text>
        </g>
        <g font-size="9">
            <text x="250.0" y="30.0">Ultralight</text>
            <text x="450.0" y="30.0">Regular</text>
            <text x="650.0" y="30.0">Black</text>
            <text id="template-version" fill="#505050" text-anchor="end" x="785.0" y="575.0">Template v.3.0</text>
            <a href="https://github.com/swhitty/SwiftDraw">
                <text fill="#505050" text-anchor="end" x="785.0" y="590.0">https://github.com/swhitty/SwiftDraw</text>
            </a>
        </g>
    </g>
    <g id="Guides" stroke="rgb(39, 170, 225)" stroke-width="0.5">
        <path id="Capline-S" d="M18,76 l800,0" />
        <path id="H-reference" d="M85,145.755 L87.685,145.755 L113.369,79.287 L114.052,79.287 L114.052,76 L112.148,76 L85,145.755 Z M95.693,121.536 L130.996,121.536 L130.263,119.313 L96.474,119.313 L95.693,121.536 Z M139.15,145.755 L141.787,145.755 L114.638,76 L113.466,76 L113.466,79.287 L139.15,145.755 Z" stroke="none" />
        <path id="Baseline-S" d="M18,146 l800,0" />
        <path id="left-margin-Ultralight-S" d="M221,56 l0,110" />
        <path id="right-margin-Ultralight-S" d="M309,56 l0,110" />
        <path id="left-margin-Regular-S" d="M421,56 l0,110" />
        <path id="right-margin-Regular-S" d="M509,56 l0,110" />
        <path id="left-margin-Black-S" d="M621,56 l0,110" />
        <path id="right-margin-Black-S" d="M709,56 l0,110" />
        <path id="Capline-M" d="M18,276 l800,0" />
        <path id="Baseline-M" d="M18,346 l800,0" />
        <path id="Capline-L" d="M18,476 l800,0" />
        <path id="Baseline-L" d="M18,546 l800,0" />
    </g>
    <g id="Symbols">
        <g id="Ultralight-S">
            <path d="M283.42,81.743 L292.587,114.183 C292.741,114.727 292.332,115.268 291.766,115.268 L272.163,115.268 C269.315,115.268 267.208,117.917 267.848,120.692 L268.701,124.387 C269.424,127.519 269.656,130.743 269.389,133.946 L269.232,135.829 C269.114,137.246 268.497,138.575 267.492,139.58 C266.661,140.411 265.534,140.878 264.358,140.878 L263.95,140.878 C263.759,140.878 263.582,140.774 263.489,140.607 L258.951,132.438 C256.68,128.351 253.295,124.992 249.19,122.753 L237.822,116.552 C237.547,116.402 237.377,116.115 237.377,115.802 L237.377,81.976 C237.377,81.504 237.759,81.122 238.23,81.122 L282.598,81.122 C282.98,81.122 283.316,81.376 283.42,81.743 Z M288.349,80.351 C287.622,77.777 285.273,76 282.598,76 L238.23,76 C234.93,76 232.255,78.675 232.255,81.976 L232.255,115.802 C232.255,117.989 233.449,120.001 235.369,121.048 L246.737,127.249 C249.991,129.024 252.674,131.686 254.473,134.926 L259.012,143.094 C260.008,144.888 261.898,146 263.95,146 L264.358,146 C266.892,146 269.322,144.993 271.114,143.202 C272.976,141.34 274.117,138.878 274.336,136.254 L274.493,134.371 C274.804,130.64 274.534,126.884 273.692,123.236 L272.839,119.54 C272.939,119.975 272.609,120.39 272.163,120.39 L291.766,120.39 C295.729,120.39 298.594,116.603 297.516,112.79 L288.349,80.351 Z" />
        </g>
        <g id="Regular-S">
            <path d="M483.42,81.743 L492.587,114.183 C492.741,114.727 492.332,115.268 491.766,115.268 L472.163,115.268 C469.315,115.268 467.208,117.917 467.848,120.692 L468.701,124.387 C469.424,127.519 469.656,130.743 469.389,133.946 L469.232,135.829 C469.114,137.246 468.497,138.575 467.492,139.58 C466.661,140.411 465.534,140.878 464.358,140.878 L463.95,140.878 C463.759,140.878 463.582,140.774 463.489,140.607 L458.951,132.438 C456.68,128.351 453.295,124.992 449.19,122.753 L437.822,116.552 C437.547,116.402 437.377,116.115 437.377,115.802 L437.377,81.976 C437.377,81.504 437.759,81.122 438.23,81.122 L482.598,81.122 C482.98,81.122 483.316,81.376 483.42,81.743 Z M488.349,80.351 C487.622,77.777 485.273,76 482.598,76 L438.23,76 C434.93,76 432.255,78.675 432.255,81.976 L432.255,115.802 C432.255,117.989 433.449,120.001 435.369,121.048 L446.737,127.249 C449.991,129.024 452.674,131.686 454.473,134.926 L459.012,143.094 C460.008,144.888 461.898,146 463.95,146 L464.358,146 C466.892,146 469.322,144.993 471.114,143.202 C472.976,141.34 474.117,138.878 474.336,136.254 L474.493,134.371 C474.804,130.64 474.534,126.884 473.692,123.236 L472.839,119.54 C472.939,119.975 472.609,120.39 472.163,120.39 L491.766,120.39 C495.729,120.39 498.594,116.603 497.516,112.79 L488.349,80.351 Z" />
        </g>
        <g id="Black-S">
            <path d="M683.42,81.743 L692.587,114.183 C692.741,114.727 692.332,115.268 691.766,115.268 L672.163,115.268 C669.315,115.268 667.208,117.917 667.848,120.692 L668.701,124.387 C669.424,127.519 669.656,130.743 669.389,133.946 L669.232,135.829 C669.114,137.246 668.497,138.575 667.492,139.58 C666.661,140.411 665.534,140.878 664.358,140.878 L663.95,140.878 C663.759,140.878 663.582,140.774 663.489,140.607 L658.951,132.438 C656.68,128.351 653.295,124.992 649.19,122.753 L637.822,116.552 C637.547,116.402 637.377,116.115 637.377,115.802 L637.377,81.976 C637.377,81.504 637.759,81.122 638.23,81.122 L682.598,81.122 C682.98,81.122 683.316,81.376 683.42,81.743 Z M688.349,80.351 C687.622,77.777 685.273,76 682.598,76 L638.23,76 C634.93,76 632.255,78.675 632.255,81.976 L632.255,115.802 C632.255,117.989 633.449,120.001 635.369,121.048 L646.737,127.249 C649.991,129.024 652.674,131.686 654.474,134.926 L659.012,143.094 C660.008,144.888 661.898,146 663.95,146 L664.358,146 C666.892,146 669.322,144.993 671.114,143.202 C672.976,141.34 674.117,138.878 674.336,136.254 L674.493,134.371 C674.804,130.64 674.534,126.884 673.692,123.236 L672.839,119.54 C672.939,119.975 672.609,120.39 672.163,120.39 L691.766,120.39 C695.729,120.39 698.594,116.603 697.516,112.79 L688.349,80.351 Z" />
        </g>
    </g>
</svg>