<?xml version="1.0" encoding="UTF-8"?>
<svg height="600" width="800" xmlns="http://www.w3.org/2000/svg" xmlns:xlink="http://www.w3.org/1999/xlink">
    <g id="Notes" font-family="'LucidaGrande', 'Lucida Grande', sans-serif" font-size="13">
        <rect fill="white" height="600.0" width="800.0" x="0.0" y="0.0" />
        <g font-size="13">
            <text x="18.0" y="176.0">Small</text>
            <text x="18.0" y="376.0">Medium</text>
            <text x="18.0" y="576.0">Large</text>
        </g>
        <g font-size="9">
            <text x="250.0" y="30.0">Ultralight</text>
            <text x="450.0" y="30.0">Regular</text>
            <text x="650.0" y="30.0">Black</text>
            <text id="template-version" fill="#505050" text-anchor="end" x="785.0" y="575.0">Template v.3.0</text>
            <a href="https://github.com/swhitty/SwiftDraw">
                <text fill="#505050" text-anchor="end" x="785.0" y="590.0">https://github.com/swhitty/SwiftDraw</text>
            </a>
        </g>
    </g>
    <g id="Guides" stroke="rgb(39, 170, 225)" stroke-width="0.5">
        <path id="Capline-S" d="M18,76 l800,0" />
        <path id="H-reference" d="M85,145.755 L87.685,145.755 L113.369,79.287 L114.052,79.287 L114.052,76 L112.148,76 L85,145.755 Z M95.693,121.536 L130.996,121.536 L130.263,119.313 L96.474,119.313 L95.693,121.536 Z M139.15,145.755 L141.787,145.755 L114.638,76 L113.466,76 L113.466,79.287 L139.15,145.755 Z" stroke="none" />
        <path id="Baseline-S" d="M18,146 l800,0" />
        <path id="left-margin-Ultralight-S" d="M221,56 l0,110" />
        <path id="right-margin-Ultralight-S" d="M309,56 l0,110" />
        <path id="left-margin-Regular-S" d="M421,56 l0,110" />
        <path id="right-margin-Regular-S" d="M509,56 l0,110" />
        <path id="left-margin-Black-S" d="M621,56 l0,110" />
        <path id="right-margin-Black-S" d="M709,56 l0,110" />
        <path id="Capline-M" d="M18,276 l800,0" />
        <path id="Baseline-M" d="M18,346 l800,0" />
        <path id="Capline-L" d="M18,476 l800,0" />
        <path id="Baseline-L" d="M18,546 l800,0" />
    </g>
    <g id="Symbols">
        <g id="Ultralight-S">
            <path d="M242.209,87.395 L287.791,87.395 L285.349,84.953 L285.349,99.605 L285.804,98.185 L277.664,109.581 C277.368,109.995 277.209,110.491 277.209,111 L277.209,130.535 C277.209,130.8 277.164,131.364 277.022,132.12 C276.782,133.4 276.351,134.676 275.691,135.849 C273.832,139.155 270.522,141.116 265,141.116 C259.478,141.116 256.168,139.155 254.309,135.849 C253.649,134.676 253.218,133.4 252.978,132.12 C252.836,131.364 252.791,130.8 252.791,130.535 L252.791,111 C252.791,110.491 252.632,109.995 252.336,109.581 L244.196,98.185 L244.651,99.605 L244.651,84.953 L242.209,87.395 Z M242.209,82.512 C240.861,82.512 239.767,83.605 239.767,84.953 L239.767,99.605 C239.767,100.114 239.926,100.61 240.222,101.024 L248.362,112.419 L247.907,111 L247.907,130.535 C247.907,131.084 247.976,131.944 248.178,133.02 C248.51,134.792 249.109,136.568 250.052,138.244 C252.771,143.078 257.703,146 265,146 C272.297,146 277.229,143.078 279.948,138.244 C280.891,136.568 281.49,134.792 281.822,133.02 C282.024,131.944 282.093,131.084 282.093,130.535 L282.093,111 L281.638,112.419 L289.778,101.024 C290.074,100.61 290.233,100.114 290.233,99.605 L290.233,84.953 C290.233,83.605 289.139,82.512 287.791,82.512 L242.209,82.512 Z" />
            <path d="M247.907,78.442 L247.907,88.209 C247.907,89.558 249,90.651 250.349,90.651 C251.697,90.651 252.791,89.558 252.791,88.209 L252.791,78.442 C252.791,77.093 251.697,76 250.349,76 C249,76 247.907,77.093 247.907,78.442 Z" />
            <path d="M257.674,78.442 L257.674,88.209 C257.674,89.558 258.768,90.651 260.116,90.651 C261.465,90.651 262.558,89.558 262.558,88.209 L262.558,78.442 C262.558,77.093 261.465,76 260.116,76 C258.768,76 257.674,77.093 257.674,78.442 Z" />
            <path d="M267.442,78.442 L267.442,88.209 C267.442,89.558 268.535,90.651 269.884,90.651 C271.232,90.651 272.326,89.558 272.326,88.209 L272.326,78.442 C272.326,77.093 271.232,76 269.884,76 C268.535,76 267.442,77.093 267.442,78.442 Z" />
            <path d="M267.442,125.651 L267.442,128.907 C267.442,129.555 267.185,130.176 266.727,130.634 C266.269,131.092 265.648,131.349 265,131.349 C264.352,131.349 263.731,131.092 263.273,130.634 C262.815,130.176 262.558,129.555 262.558,128.907 L262.558,122.395 C262.558,121.748 262.815,121.127 263.273,120.669 C263.731,120.211 264.352,119.953 265,119.953 C265.648,119.953 266.269,120.211 266.727,120.669 C267.185,121.127 267.442,121.748 267.442,122.395 L267.442,125.651 Z M272.326,125.651 L272.326,122.395 C272.326,120.452 271.554,118.589 270.18,117.215 C268.806,115.842 266.943,115.07 265,115.07 C263.057,115.07 261.194,115.842 259.82,117.215 C258.446,118.589 257.674,120.452 257.674,122.395 L257.674,128.907 C257.674,130.85 258.446,132.713 259.82,134.087 C261.194,135.461 263.057,136.233 265,136.233 C266.943,136.233 268.806,135.461 270.18,134.087 C271.554,132.713 272.326,130.85 272.326,128.907 L272.326,125.651 Z" />
            <path d="M242.209,102.047 L287.791,102.047 C289.139,102.047 290.233,100.953 290.233,99.605 C290.233,98.256 289.139,97.163 287.791,97.163 L242.209,97.163 C240.861,97.163 239.767,98.256 239.767,99.605 C239.767,100.953 240.861,102.047 242.209,102.047 Z" />
            <path d="M277.209,78.442 L277.209,88.209 C277.209,89.558 278.303,90.651 279.651,90.651 C281,90.651 282.093,89.558 282.093,88.209 L282.093,78.442 C282.093,77.093 281,76 279.651,76 C278.303,76 277.209,77.093 277.209,78.442 Z" />
        </g>
        <g id="Regular-S">
            <path d="M442.209,87.395 L487.791,87.395 L485.349,84.953 L485.349,99.605 L485.804,98.185 L477.664,109.581 C477.368,109.995 477.209,110.491 477.209,111 L477.209,130.535 C477.209,130.8 477.164,131.364 477.022,132.12 C476.782,133.4 476.351,134.676 475.691,135.849 C473.832,139.155 470.522,141.116 465,141.116 C459.478,141.116 456.168,139.155 454.309,135.849 C453.649,134.676 453.218,133.4 452.978,132.12 C452.836,131.364 452.791,130.8 452.791,130.535 L452.791,111 C452.791,110.491 452.632,109.995 452.336,109.581 L444.196,98.185 L444.651,99.605 L444.651,84.953 L442.209,87.395 Z M442.209,82.512 C440.861,82.512 439.767,83.605 439.767,84.953 L439.767,99.605 C439.767,100.114 439.926,100.61 440.222,101.024 L448.362,112.419 L447.907,111 L447.907,130.535 C447.907,131.084 447.976,131.944 448.178,133.02 C448.51,134.792 449.109,136.568 450.052,138.244 C452.771,143.078 457.703,146 465,146 C472.297,146 477.229,143.078 479.948,138.244 C480.891,136.568 481.49,134.792 481.822,133.02 C482.024,131.944 482.093,131.084 482.093,130.535 L482.093,111 L481.638,112.419 L489.778,101.024 C490.074,100.61 490.233,100.114 490.233,99.605 L490.233,84.953 C490.233,83.605 489.139,82.512 487.791,82.512 L442.209,82.512 Z" />
            <path d="M447.907,78.442 L447.907,88.209 C447.907,89.558 449,90.651 450.349,90.651 C451.697,90.651 452.791,89.558 452.791,88.209 L452.791,78.442 C452.791,77.093 451.697,76 450.349,76 C449,76 447.907,77.093 447.907,78.442 Z" />
            <path d="M457.674,78.442 L457.674,88.209 C457.674,89.558 458.768,90.651 460.116,90.651 C461.465,90.651 462.558,89.558 462.558,88.209 L462.558,78.442 C462.558,77.093 461.465,76 460.116,76 C458.768,76 457.674,77.093 457.674,78.442 Z" />
            <path d="M467.442,78.442 L467.442,88.209 C467.442,89.558 468.535,90.651 469.884,90.651 C471.232,90.651 472.326,89.558 472.326,88.209 L472.326,78.442 C472.326,77.093 471.232,76 469.884,76 C468.535,76 467.442,77.093 467.442,78.442 Z" />
            <path d="M467.442,125.651 L467.442,128.907 C467.442,129.555 467.185,130.176 466.727,130.634 C466.269,131.092 465.648,131.349 465,131.349 C464.352,131.349 463.731,131.092 463.273,130.634 C462.815,130.176 462.558,129.555 462.558,128.907 L462.558,122.395 C462.558,121.748 462.815,121.127 463.273,120.669 C463.731,120.211 464.352,119.953 465,119.953 C465.648,119.953 466.269,120.211 466.727,120.669 C467.185,121.127 467.442,121.748 467.442,122.395 L467.442,125.651 Z M472.326,125.651 L472.326,122.395 C472.326,120.452 471.554,118.589 470.18,117.215 C468.806,115.842 466.943,115.07 465,115.07 C463.057,115.07 461.194,115.842 459.82,117.215 C458.446,118.589 457.674,120.452 457.674,122.395 L457.674,128.907 C457.674,130.85 458.446,132.713 459.82,134.087 C461.194,135.461 463.057,136.233 465,136.233 C466.943,136.233 468.806,135.461 470.18,134.087 C471.554,132.713 472.326,130.85 472.326,128.907 L472.326,125.651 Z" />
            <path d="M442.209,102.047 L487.791,102.047 C489.139,102.047 490.233,100.953 490.233,99.605 C490.233,98.256 489.139,97.163 487.791,97.163 L442.209,97.163 C440.861,97.163 439.767,98.256 439.767,99.605 C439.767,100.953 440.861,102.047 442.209,102.047 Z" />
            <path d="M477.209,78.442 L477.209,88.209 C477.209,89.558 478.303,90.651 479.651,90.651 C481,90.651 482.093,89.558 482.093,88.209 L482.093,78.442 C482.093,77.093 481,76 479.651,76 C478.303,76 477.209,77.093 477.209,78.442 Z" />
        </g>
        <g id="Black-S">
            <path d="M642.209,87.395 L687.791,87.395 L685.349,84.953 L685.349,99.605 L685.804,98.185 L677.664,109.581 C677.368,109.995 677.209,110.491 677.209,111 L677.209,130.535 C677.209,130.8 677.164,131.364 677.022,132.12 C676.782,133.4 676.351,134.676 675.692,135.849 C673.832,139.155 670.522,141.116 665,141.116 C659.478,141.116 656.168,139.155 654.308,135.849 C653.649,134.676 653.218,133.4 652.978,132.12 C652.836,131.364 652.791,130.8 652.791,130.535 L652.791,111 C652.791,110.491 652.632,109.995 652.336,109.581 L644.196,98.185 L644.651,99.605 L644.651,84.953 L642.209,87.395 Z M642.209,82.512 C640.861,82.512 639.767,83.605 639.767,84.953 L639.767,99.605 C639.767,100.114 639.926,100.61 640.222,101.024 L648.362,112.419 L647.907,111 L647.907,130.535 C647.907,131.084 647.976,131.944 648.178,133.02 C648.51,134.792 649.109,136.568 650.052,138.244 C652.771,143.078 657.703,146 665,146 C672.297,146 677.229,143.078 679.948,138.244 C680.891,136.568 681.49,134.792 681.822,133.02 C682.024,131.944 682.093,131.084 682.093,130.535 L682.093,111 L681.638,112.419 L689.778,101.024 C690.074,100.61 690.233,100.114 690.233,99.605 L690.233,84.953 C690.233,83.605 689.139,82.512 687.791,82.512 L642.209,82.512 Z" />
            <path d="M647.907,78.442 L647.907,88.209 C647.907,89.558 649,90.651 650.349,90.651 C651.697,90.651 652.791,89.558 652.791,88.209 L652.791,78.442 C652.791,77.093 651.697,76 650.349,76 C649,76 647.907,77.093 647.907,78.442 Z" />
            <path d="M657.674,78.442 L657.674,88.209 C657.674,89.558 658.768,90.651 660.116,90.651 C661.465,90.651 662.558,89.558 662.558,88.209 L662.558,78.442 C662.558,77.093 661.465,76 660.116,76 C658.768,76 657.674,77.093 657.674,78.442 Z" />
            <path d="M667.442,78.442 L667.442,88.209 C667.442,89.558 668.535,90.651 669.884,90.651 C671.232,90.651 672.326,89.558 672.326,88.209 L672.326,78.442 C672.326,77.093 671.232,76 669.884,76 C668.535,76 667.442,77.093 667.442,78.442 Z" />
            <path d="M667.442,125.651 L667.442,128.907 C667.442,129.555 667.185,130.176 666.727,130.634 C666.269,131.092 665.648,131.349 665,131.349 C664.352,131.349 663.731,131.092 663.273,130.634 C662.815,130.176 662.558,129.555 662.558,128.907 L662.558,122.395 C662.558,121.748 662.815,121.127 663.273,120.669 C663.731,120.211 664.352,119.953 665,119.953 C665.648,119.953 666.269,120.211 666.727,120.669 C667.185,121.127 667.442,121.748 667.442,122.395 L667.442,125.651 Z M672.326,125.651 L672.326,122.395 C672.326,120.452 671.554,118.589 670.18,117.215 C668.806,115.842 666.943,115.07 665,115.07 C663.057,115.07 661.194,115.842 659.82,117.215 C658.446,118.589 657.674,120.452 657.674,122.395 L657.674,128.907 C657.674,130.85 658.446,132.713 659.82,134.087 C661.194,135.461 663.057,136.233 665,136.233 C666.943,136.233 668.806,135.461 670.18,134.087 C671.554,132.713 672.326,130.85 672.326,128.907 L672.326,125.651 Z" />
            <path d="M642.209,102.047 L687.791,102.047 C689.139,102.047 690.233,100.953 690.233,99.605 C690.233,98.256 689.139,97.163 687.791,97.163 L642.209,97.163 C640.861,97.163 639.767,98.256 639.767,99.605 C639.767,100.953 640.861,102.047 642.209,102.047 Z" />
            <path d="M677.209,78.442 L677.209,88.209 C677.209,89.558 678.303,90.651 679.651,90.651 C681,90.651 682.093,89.558 682.093,88.209 L682.093,78.442 C682.093,77.093 681,76 679.651,76 C678.303,76 677.209,77.093 677.209,78.442 Z" />
        </g>
    </g>
</svg>