<?xml version="1.0" encoding="UTF-8"?>
<svg height="600" width="800" xmlns="http://www.w3.org/2000/svg" xmlns:xlink="http://www.w3.org/1999/xlink">
    <g id="Notes" font-family="'LucidaGrande', 'Lucida Grande', sans-serif" font-size="13">
        <rect fill="white" height="600.0" width="800.0" x="0.0" y="0.0" />
        <g font-size="13">
            <text x="18.0" y="176.0">Small</text>
            <text x="18.0" y="376.0">Medium</text>
            <text x="18.0" y="576.0">Large</text>
        </g>
        <g font-size="9">
            <text x="250.0" y="30.0">Ultralight</text>
            <text x="450.0" y="30.0">Regular</text>
            <text x="650.0" y="30.0">Black</text>
            <text id="template-version" fill="#505050" text-anchor="end" x="785.0" y="575.0">Template v.3.0</text>
            <a href="https://github.com/swhitty/SwiftDraw">
                <text fill="#505050" text-anchor="end" x="785.0" y="590.0">https://github.com/swhitty/SwiftDraw</text>
            </a>
        </g>
    </g>
    <g id="Guides" stroke="rgb(39, 170, 225)" stroke-width="0.5">
        <path id="Capline-S" d="M18,76 l800,0" />
        <path id="H-reference" d="M85,145.755 L87.685,145.755 L113.369,79.287 L114.052,79.287 L114.052,76 L112.148,76 L85,145.755 Z M95.693,121.536 L130.996,121.536 L130.263,119.313 L96.474,119.313 L95.693,121.536 Z M139.15,145.755 L141.787,145.755 L114.638,76 L113.466,76 L113.466,79.287 L139.15,145.755 Z" stroke="none" />
        <path id="Baseline-S" d="M18,146 l800,0" />
        <path id="left-margin-Ultralight-S" d="M221,56 l0,110" />
        <path id="right-margin-Ultralight-S" d="M309,56 l0,110" />
        <path id="left-margin-Regular-S" d="M421,56 l0,110" />
        <path id="right-margin-Regular-S" d="M509,56 l0,110" />
        <path id="left-margin-Black-S" d="M621,56 l0,110" />
        <path id="right-margin-Black-S" d="M709,56 l0,110" />
        <path id="Capline-M" d="M18,276 l800,0" />
        <path id="Baseline-M" d="M18,346 l800,0" />
        <path id="Capline-L" d="M18,476 l800,0" />
        <path id="Baseline-L" d="M18,546 l800,0" />
    </g>
    <g id="Symbols">
        <g id="Ultralight-S">
            <path d="M256.047,84.953 C256.047,86.033 255.618,87.068 254.855,87.831 C254.091,88.594 253.056,89.023 251.977,89.023 C250.897,89.023 249.862,88.594 249.099,87.831 C248.336,87.068 247.907,86.033 247.907,84.953 C247.907,83.874 248.336,82.839 249.099,82.076 C249.862,81.312 250.897,80.884 251.977,80.884 C253.056,80.884 254.091,81.312 254.855,82.076 C255.618,82.839 256.047,83.874 256.047,84.953 Z M260.93,84.953 C260.93,82.579 259.987,80.302 258.308,78.622 C256.629,76.943 254.351,76 251.977,76 C249.602,76 247.325,76.943 245.646,78.622 C243.967,80.302 243.023,82.579 243.023,84.953 C243.023,87.328 243.967,89.605 245.646,91.285 C247.325,92.964 249.602,93.907 251.977,93.907 C254.351,93.907 256.629,92.964 258.308,91.285 C259.987,89.605 260.93,87.328 260.93,84.953 Z" />
            <path d="M256.047,114.256 C256.047,115.335 255.618,116.37 254.855,117.134 C254.091,117.897 253.056,118.326 251.977,118.326 C250.897,118.326 249.862,117.897 249.099,117.134 C248.336,116.37 247.907,115.335 247.907,114.256 C247.907,113.176 248.336,112.141 249.099,111.378 C249.862,110.615 250.897,110.186 251.977,110.186 C253.056,110.186 254.091,110.615 254.855,111.378 C255.618,112.141 256.047,113.176 256.047,114.256 Z M260.93,114.256 C260.93,111.881 259.987,109.604 258.308,107.925 C256.629,106.246 254.351,105.302 251.977,105.302 C249.602,105.302 247.325,106.246 245.646,107.925 C243.967,109.604 243.023,111.881 243.023,114.256 C243.023,116.63 243.967,118.908 245.646,120.587 C247.325,122.266 249.602,123.209 251.977,123.209 C254.351,123.209 256.629,122.266 258.308,120.587 C259.987,118.908 260.93,116.63 260.93,114.256 Z" />
            <path d="M249.535,122.395 L249.535,143.558 C249.535,144.907 250.628,146 251.977,146 C253.325,146 254.419,144.907 254.419,143.558 L254.419,122.395 C254.419,121.047 253.325,119.953 251.977,119.953 C250.628,119.953 249.535,121.047 249.535,122.395 Z" />
            <path d="M282.093,84.953 C282.093,86.033 281.664,87.068 280.901,87.831 C280.138,88.594 279.103,89.023 278.023,89.023 C276.944,89.023 275.909,88.594 275.146,87.831 C274.382,87.068 273.953,86.033 273.953,84.953 C273.953,83.874 274.382,82.839 275.146,82.076 C275.909,81.312 276.944,80.884 278.023,80.884 C279.103,80.884 280.138,81.312 280.901,82.076 C281.664,82.839 282.093,83.874 282.093,84.953 Z M286.977,84.953 C286.977,82.579 286.033,80.302 284.354,78.622 C282.675,76.943 280.398,76 278.023,76 C275.649,76 273.371,76.943 271.692,78.622 C270.013,80.302 269.07,82.579 269.07,84.953 C269.07,87.328 270.013,89.605 271.692,91.285 C273.371,92.964 275.649,93.907 278.023,93.907 C280.398,93.907 282.675,92.964 284.354,91.285 C286.033,89.605 286.977,87.328 286.977,84.953 Z" />
            <path d="M282.093,114.256 C282.093,115.335 281.664,116.37 280.901,117.134 C280.138,117.897 279.103,118.326 278.023,118.326 C276.944,118.326 275.909,117.897 275.146,117.134 C274.382,116.37 273.953,115.335 273.953,114.256 C273.953,113.176 274.382,112.141 275.146,111.378 C275.909,110.615 276.944,110.186 278.023,110.186 C279.103,110.186 280.138,110.615 280.901,111.378 C281.664,112.141 282.093,113.176 282.093,114.256 Z M286.977,114.256 C286.977,111.881 286.033,109.604 284.354,107.925 C282.675,106.246 280.398,105.302 278.023,105.302 C275.649,105.302 273.371,106.246 271.692,107.925 C270.013,109.604 269.07,111.881 269.07,114.256 C269.07,116.63 270.013,118.908 271.692,120.587 C273.371,122.266 275.649,123.209 278.023,123.209 C280.398,123.209 282.675,122.266 284.354,120.587 C286.033,118.908 286.977,116.63 286.977,114.256 Z" />
            <path d="M275.581,122.395 L275.581,143.558 C275.581,144.907 276.675,146 278.023,146 C279.372,146 280.465,144.907 280.465,143.558 L280.465,122.395 C280.465,121.047 279.372,119.953 278.023,119.953 C276.675,119.953 275.581,121.047 275.581,122.395 Z" />
            <path d="M247.093,102.047 L256.86,102.047 C258.209,102.047 259.302,100.953 259.302,99.605 C259.302,98.256 258.209,97.163 256.86,97.163 L247.093,97.163 C245.744,97.163 244.651,98.256 244.651,99.605 C244.651,100.953 245.744,102.047 247.093,102.047 Z" />
            <path d="M273.14,102.047 L282.907,102.047 C284.256,102.047 285.349,100.953 285.349,99.605 C285.349,98.256 284.256,97.163 282.907,97.163 L273.14,97.163 C271.791,97.163 270.698,98.256 270.698,99.605 C270.698,100.953 271.791,102.047 273.14,102.047 Z" />
            <path d="M247.093,132.977 L256.86,132.977 C258.209,132.977 259.302,131.883 259.302,130.535 C259.302,129.186 258.209,128.093 256.86,128.093 L247.093,128.093 C245.744,128.093 244.651,129.186 244.651,130.535 C244.651,131.883 245.744,132.977 247.093,132.977 Z" />
            <path d="M273.14,132.977 L282.907,132.977 C284.256,132.977 285.349,131.883 285.349,130.535 C285.349,129.186 284.256,128.093 282.907,128.093 L273.14,128.093 C271.791,128.093 270.698,129.186 270.698,130.535 C270.698,131.883 271.791,132.977 273.14,132.977 Z" />
            <path d="M249.535,94.721 L249.535,104.488 C249.535,105.837 250.628,106.93 251.977,106.93 C253.325,106.93 254.419,105.837 254.419,104.488 L254.419,94.721 C254.419,93.372 253.325,92.279 251.977,92.279 C250.628,92.279 249.535,93.372 249.535,94.721 Z" />
            <path d="M275.581,94.721 L275.581,104.488 C275.581,105.837 276.675,106.93 278.023,106.93 C279.372,106.93 280.465,105.837 280.465,104.488 L280.465,94.721 C280.465,93.372 279.372,92.279 278.023,92.279 C276.675,92.279 275.581,93.372 275.581,94.721 Z" />
        </g>
        <g id="Regular-S">
            <path d="M456.047,84.953 C456.047,86.033 455.618,87.068 454.854,87.831 C454.091,88.594 453.056,89.023 451.977,89.023 C450.897,89.023 449.862,88.594 449.099,87.831 C448.336,87.068 447.907,86.033 447.907,84.953 C447.907,83.874 448.336,82.839 449.099,82.076 C449.862,81.312 450.897,80.884 451.977,80.884 C453.056,80.884 454.091,81.312 454.854,82.076 C455.618,82.839 456.047,83.874 456.047,84.953 Z M460.93,84.953 C460.93,82.579 459.987,80.302 458.308,78.622 C456.629,76.943 454.351,76 451.977,76 C449.602,76 447.325,76.943 445.646,78.622 C443.967,80.302 443.023,82.579 443.023,84.953 C443.023,87.328 443.967,89.605 445.646,91.285 C447.325,92.964 449.602,93.907 451.977,93.907 C454.351,93.907 456.629,92.964 458.308,91.285 C459.987,89.605 460.93,87.328 460.93,84.953 Z" />
            <path d="M456.047,114.256 C456.047,115.335 455.618,116.37 454.854,117.134 C454.091,117.897 453.056,118.326 451.977,118.326 C450.897,118.326 449.862,117.897 449.099,117.134 C448.336,116.37 447.907,115.335 447.907,114.256 C447.907,113.176 448.336,112.141 449.099,111.378 C449.862,110.615 450.897,110.186 451.977,110.186 C453.056,110.186 454.091,110.615 454.854,111.378 C455.618,112.141 456.047,113.176 456.047,114.256 Z M460.93,114.256 C460.93,111.881 459.987,109.604 458.308,107.925 C456.629,106.246 454.351,105.302 451.977,105.302 C449.602,105.302 447.325,106.246 445.646,107.925 C443.967,109.604 443.023,111.881 443.023,114.256 C443.023,116.63 443.967,118.908 445.646,120.587 C447.325,122.266 449.602,123.209 451.977,123.209 C454.351,123.209 456.629,122.266 458.308,120.587 C459.987,118.908 460.93,116.63 460.93,114.256 Z" />
            <path d="M449.535,122.395 L449.535,143.558 C449.535,144.907 450.628,146 451.977,146 C453.325,146 454.419,144.907 454.419,143.558 L454.419,122.395 C454.419,121.047 453.325,119.953 451.977,119.953 C450.628,119.953 449.535,121.047 449.535,122.395 Z" />
            <path d="M482.093,84.953 C482.093,86.033 481.664,87.068 480.901,87.831 C480.138,88.594 479.103,89.023 478.023,89.023 C476.944,89.023 475.909,88.594 475.146,87.831 C474.382,87.068 473.953,86.033 473.953,84.953 C473.953,83.874 474.382,82.839 475.146,82.076 C475.909,81.312 476.944,80.884 478.023,80.884 C479.103,80.884 480.138,81.312 480.901,82.076 C481.664,82.839 482.093,83.874 482.093,84.953 Z M486.977,84.953 C486.977,82.579 486.033,80.302 484.354,78.622 C482.675,76.943 480.398,76 478.023,76 C475.649,76 473.371,76.943 471.692,78.622 C470.013,80.302 469.07,82.579 469.07,84.953 C469.07,87.328 470.013,89.605 471.692,91.285 C473.371,92.964 475.649,93.907 478.023,93.907 C480.398,93.907 482.675,92.964 484.354,91.285 C486.033,89.605 486.977,87.328 486.977,84.953 Z" />
            <path d="M482.093,114.256 C482.093,115.335 481.664,116.37 480.901,117.134 C480.138,117.897 479.103,118.326 478.023,118.326 C476.944,118.326 475.909,117.897 475.146,117.134 C474.382,116.37 473.953,115.335 473.953,114.256 C473.953,113.176 474.382,112.141 475.146,111.378 C475.909,110.615 476.944,110.186 478.023,110.186 C479.103,110.186 480.138,110.615 480.901,111.378 C481.664,112.141 482.093,113.176 482.093,114.256 Z M486.977,114.256 C486.977,111.881 486.033,109.604 484.354,107.925 C482.675,106.246 480.398,105.302 478.023,105.302 C475.649,105.302 473.371,106.246 471.692,107.925 C470.013,109.604 469.07,111.881 469.07,114.256 C469.07,116.63 470.013,118.908 471.692,120.587 C473.371,122.266 475.649,123.209 478.023,123.209 C480.398,123.209 482.675,122.266 484.354,120.587 C486.033,118.908 486.977,116.63 486.977,114.256 Z" />
            <path d="M475.581,122.395 L475.581,143.558 C475.581,144.907 476.675,146 478.023,146 C479.372,146 480.465,144.907 480.465,143.558 L480.465,122.395 C480.465,121.047 479.372,119.953 478.023,119.953 C476.675,119.953 475.581,121.047 475.581,122.395 Z" />
            <path d="M447.093,102.047 L456.86,102.047 C458.209,102.047 459.302,100.953 459.302,99.605 C459.302,98.256 458.209,97.163 456.86,97.163 L447.093,97.163 C445.744,97.163 444.651,98.256 444.651,99.605 C444.651,100.953 445.744,102.047 447.093,102.047 Z" />
            <path d="M473.14,102.047 L482.907,102.047 C484.256,102.047 485.349,100.953 485.349,99.605 C485.349,98.256 484.256,97.163 482.907,97.163 L473.14,97.163 C471.791,97.163 470.698,98.256 470.698,99.605 C470.698,100.953 471.791,102.047 473.14,102.047 Z" />
            <path d="M447.093,132.977 L456.86,132.977 C458.209,132.977 459.302,131.883 459.302,130.535 C459.302,129.186 458.209,128.093 456.86,128.093 L447.093,128.093 C445.744,128.093 444.651,129.186 444.651,130.535 C444.651,131.883 445.744,132.977 447.093,132.977 Z" />
            <path d="M473.14,132.977 L482.907,132.977 C484.256,132.977 485.349,131.883 485.349,130.535 C485.349,129.186 484.256,128.093 482.907,128.093 L473.14,128.093 C471.791,128.093 470.698,129.186 470.698,130.535 C470.698,131.883 471.791,132.977 473.14,132.977 Z" />
            <path d="M449.535,94.721 L449.535,104.488 C449.535,105.837 450.628,106.93 451.977,106.93 C453.325,106.93 454.419,105.837 454.419,104.488 L454.419,94.721 C454.419,93.372 453.325,92.279 451.977,92.279 C450.628,92.279 449.535,93.372 449.535,94.721 Z" />
            <path d="M475.581,94.721 L475.581,104.488 C475.581,105.837 476.675,106.93 478.023,106.93 C479.372,106.93 480.465,105.837 480.465,104.488 L480.465,94.721 C480.465,93.372 479.372,92.279 478.023,92.279 C476.675,92.279 475.581,93.372 475.581,94.721 Z" />
        </g>
        <g id="Black-S">
            <path d="M656.047,84.953 C656.047,86.033 655.618,87.068 654.854,87.831 C654.091,88.594 653.056,89.023 651.977,89.023 C650.897,89.023 649.862,88.594 649.099,87.831 C648.336,87.068 647.907,86.033 647.907,84.953 C647.907,83.874 648.336,82.839 649.099,82.076 C649.862,81.312 650.897,80.884 651.977,80.884 C653.056,80.884 654.091,81.312 654.854,82.076 C655.618,82.839 656.047,83.874 656.047,84.953 Z M660.93,84.953 C660.93,82.579 659.987,80.302 658.308,78.622 C656.629,76.943 654.351,76 651.977,76 C649.602,76 647.325,76.943 645.646,78.622 C643.967,80.302 643.023,82.579 643.023,84.953 C643.023,87.328 643.967,89.605 645.646,91.285 C647.325,92.964 649.602,93.907 651.977,93.907 C654.351,93.907 656.629,92.964 658.308,91.285 C659.987,89.605 660.93,87.328 660.93,84.953 Z" />
            <path d="M656.047,114.256 C656.047,115.335 655.618,116.37 654.854,117.134 C654.091,117.897 653.056,118.326 651.977,118.326 C650.897,118.326 649.862,117.897 649.099,117.134 C648.336,116.37 647.907,115.335 647.907,114.256 C647.907,113.176 648.336,112.141 649.099,111.378 C649.862,110.615 650.897,110.186 651.977,110.186 C653.056,110.186 654.091,110.615 654.854,111.378 C655.618,112.141 656.047,113.176 656.047,114.256 Z M660.93,114.256 C660.93,111.881 659.987,109.604 658.308,107.925 C656.629,106.246 654.351,105.302 651.977,105.302 C649.602,105.302 647.325,106.246 645.646,107.925 C643.967,109.604 643.023,111.881 643.023,114.256 C643.023,116.63 643.967,118.908 645.646,120.587 C647.325,122.266 649.602,123.209 651.977,123.209 C654.351,123.209 656.629,122.266 658.308,120.587 C659.987,118.908 660.93,116.63 660.93,114.256 Z" />
            <path d="M649.535,122.395 L649.535,143.558 C649.535,144.907 650.628,146 651.977,146 C653.325,146 654.419,144.907 654.419,143.558 L654.419,122.395 C654.419,121.047 653.325,119.953 651.977,119.953 C650.628,119.953 649.535,121.047 649.535,122.395 Z" />
            <path d="M682.093,84.953 C682.093,86.033 681.664,87.068 680.901,87.831 C680.138,88.594 679.103,89.023 678.023,89.023 C676.944,89.023 675.909,88.594 675.146,87.831 C674.382,87.068 673.953,86.033 673.953,84.953 C673.953,83.874 674.382,82.839 675.146,82.076 C675.909,81.312 676.944,80.884 678.023,80.884 C679.103,80.884 680.138,81.312 680.901,82.076 C681.664,82.839 682.093,83.874 682.093,84.953 Z M686.977,84.953 C686.977,82.579 686.033,80.302 684.354,78.622 C682.675,76.943 680.398,76 678.023,76 C675.649,76 673.371,76.943 671.692,78.622 C670.013,80.302 669.07,82.579 669.07,84.953 C669.07,87.328 670.013,89.605 671.692,91.285 C673.371,92.964 675.649,93.907 678.023,93.907 C680.398,93.907 682.675,92.964 684.354,91.285 C686.033,89.605 686.977,87.328 686.977,84.953 Z" />
            <path d="M682.093,114.256 C682.093,115.335 681.664,116.37 680.901,117.134 C680.138,117.897 679.103,118.326 678.023,118.326 C676.944,118.326 675.909,117.897 675.146,117.134 C674.382,116.37 673.953,115.335 673.953,114.256 C673.953,113.176 674.382,112.141 675.146,111.378 C675.909,110.615 676.944,110.186 678.023,110.186 C679.103,110.186 680.138,110.615 680.901,111.378 C681.664,112.141 682.093,113.176 682.093,114.256 Z M686.977,114.256 C686.977,111.881 686.033,109.604 684.354,107.925 C682.675,106.246 680.398,105.302 678.023,105.302 C675.649,105.302 673.371,106.246 671.692,107.925 C670.013,109.604 669.07,111.881 669.07,114.256 C669.07,116.63 670.013,118.908 671.692,120.587 C673.371,122.266 675.649,123.209 678.023,123.209 C680.398,123.209 682.675,122.266 684.354,120.587 C686.033,118.908 686.977,116.63 686.977,114.256 Z" />
            <path d="M675.581,122.395 L675.581,143.558 C675.581,144.907 676.675,146 678.023,146 C679.372,146 680.465,144.907 680.465,143.558 L680.465,122.395 C680.465,121.047 679.372,119.953 678.023,119.953 C676.675,119.953 675.581,121.047 675.581,122.395 Z" />
            <path d="M647.093,102.047 L656.86,102.047 C658.209,102.047 659.302,100.953 659.302,99.605 C659.302,98.256 658.209,97.163 656.86,97.163 L647.093,97.163 C645.744,97.163 644.651,98.256 644.651,99.605 C644.651,100.953 645.744,102.047 647.093,102.047 Z" />
            <path d="M673.14,102.047 L682.907,102.047 C684.256,102.047 685.349,100.953 685.349,99.605 C685.349,98.256 684.256,97.163 682.907,97.163 L673.14,97.163 C671.791,97.163 670.698,98.256 670.698,99.605 C670.698,100.953 671.791,102.047 673.14,102.047 Z" />
            <path d="M647.093,132.977 L656.86,132.977 C658.209,132.977 659.302,131.883 659.302,130.535 C659.302,129.186 658.209,128.093 656.86,128.093 L647.093,128.093 C645.744,128.093 644.651,129.186 644.651,130.535 C644.651,131.883 645.744,132.977 647.093,132.977 Z" />
            <path d="M673.14,132.977 L682.907,132.977 C684.256,132.977 685.349,131.883 685.349,130.535 C685.349,129.186 684.256,128.093 682.907,128.093 L673.14,128.093 C671.791,128.093 670.698,129.186 670.698,130.535 C670.698,131.883 671.791,132.977 673.14,132.977 Z" />
            <path d="M649.535,94.721 L649.535,104.488 C649.535,105.837 650.628,106.93 651.977,106.93 C653.325,106.93 654.419,105.837 654.419,104.488 L654.419,94.721 C654.419,93.372 653.325,92.279 651.977,92.279 C650.628,92.279 649.535,93.372 649.535,94.721 Z" />
            <path d="M675.581,94.721 L675.581,104.488 C675.581,105.837 676.675,106.93 678.023,106.93 C679.372,106.93 680.465,105.837 680.465,104.488 L680.465,94.721 C680.465,93.372 679.372,92.279 678.023,92.279 C676.675,92.279 675.581,93.372 675.581,94.721 Z" />
        </g>
    </g>
</svg>