<?xml version="1.0" encoding="UTF-8"?>
<svg height="600" width="800" xmlns="http://www.w3.org/2000/svg" xmlns:xlink="http://www.w3.org/1999/xlink">
    <g id="Notes" font-family="'LucidaGrande', 'Lucida Grande', sans-serif" font-size="13">
        <rect fill="white" height="600.0" width="800.0" x="0.0" y="0.0" />
        <g font-size="13">
            <text x="18.0" y="176.0">Small</text>
            <text x="18.0" y="376.0">Medium</text>
            <text x="18.0" y="576.0">Large</text>
        </g>
        <g font-size="9">
            <text x="250.0" y="30.0">Ultralight</text>
            <text x="450.0" y="30.0">Regular</text>
            <text x="650.0" y="30.0">Black</text>
            <text id="template-version" fill="#505050" text-anchor="end" x="785.0" y="575.0">Template v.3.0</text>
            <a href="https://github.com/swhitty/SwiftDraw">
                <text fill="#505050" text-anchor="end" x="785.0" y="590.0">https://github.com/swhitty/SwiftDraw</text>
            </a>
        </g>
    </g>
    <g id="Guides" stroke="rgb(39, 170, 225)" stroke-width="0.5">
        <path id="Capline-S" d="M18,76 l800,0" />
        <path id="H-reference" d="M85,145.755 L87.685,145.755 L113.369,79.287 L114.052,79.287 L114.052,76 L112.148,76 L85,145.755 Z M95.693,121.536 L130.996,121.536 L130.263,119.313 L96.474,119.313 L95.693,121.536 Z M139.15,145.755 L141.787,145.755 L114.638,76 L113.466,76 L113.466,79.287 L139.15,145.755 Z" stroke="none" />
        <path id="Baseline-S" d="M18,146 l800,0" />
        <path id="left-margin-Ultralight-S" d="M221,56 l0,110" />
        <path id="right-margin-Ultralight-S" d="M309,56 l0,110" />
        <path id="left-margin-Regular-S" d="M421,56 l0,110" />
        <path id="right-margin-Regular-S" d="M509,56 l0,110" />
        <path id="left-margin-Black-S" d="M621,56 l0,110" />
        <path id="right-margin-Black-S" d="M709,56 l0,110" />
        <path id="Capline-M" d="M18,276 l800,0" />
        <path id="Baseline-M" d="M18,346 l800,0" />
        <path id="Capline-L" d="M18,476 l800,0" />
        <path id="Baseline-L" d="M18,546 l800,0" />
    </g>
    <g id="Symbols">
        <g id="Ultralight-S">
            <path d="M253.605,129.721 L276.395,129.721 C277.744,129.721 278.837,128.628 278.837,127.279 C278.837,125.93 277.744,124.837 276.395,124.837 L253.605,124.837 C252.256,124.837 251.163,125.93 251.163,127.279 C251.163,128.628 252.256,129.721 253.605,129.721 Z" />
            <path d="M251.977,118.326 L278.023,118.326 C279.372,118.326 280.465,117.232 280.465,115.884 C280.465,114.535 279.372,113.442 278.023,113.442 L251.977,113.442 C250.628,113.442 249.535,114.535 249.535,115.884 C249.535,117.232 250.628,118.326 251.977,118.326 Z" />
            <path d="M286.977,91.465 L286.977,97.977 C286.977,99.056 286.548,100.091 285.785,100.855 C285.022,101.618 283.986,102.047 282.907,102.047 L247.093,102.047 C246.014,102.047 244.979,101.618 244.215,100.855 C243.452,100.091 243.023,99.056 243.023,97.977 L243.023,84.953 C243.023,83.874 243.452,82.839 244.215,82.076 C244.979,81.312 246.014,80.884 247.093,80.884 L282.907,80.884 C283.986,80.884 285.022,81.312 285.785,82.076 C286.548,82.839 286.977,83.874 286.977,84.953 L286.977,91.465 Z M291.86,91.465 L291.86,84.953 C291.86,82.579 290.917,80.302 289.238,78.622 C287.559,76.943 285.282,76 282.907,76 L247.093,76 C244.718,76 242.441,76.943 240.762,78.622 C239.083,80.302 238.14,82.579 238.14,84.953 L238.14,97.977 C238.14,100.351 239.083,102.629 240.762,104.308 C242.441,105.987 244.718,106.93 247.093,106.93 L282.907,106.93 C285.282,106.93 287.559,105.987 289.238,104.308 C290.917,102.629 291.86,100.351 291.86,97.977 L291.86,91.465 Z" />
            <path d="M246.33,104.986 L254.47,144.056 C254.706,145.189 255.704,146 256.86,146 L273.139,146 C274.296,146 275.294,145.189 275.53,144.056 L283.669,104.986 C283.944,103.666 283.097,102.373 281.777,102.098 C280.457,101.823 279.163,102.67 278.888,103.99 L270.749,143.06 L273.139,141.116 L256.86,141.116 L259.251,143.06 L251.111,103.99 C250.836,102.67 249.543,101.823 248.223,102.098 C246.902,102.373 246.055,103.666 246.33,104.986 Z" />
            <path d="M253.605,93.907 L274.767,93.907 C276.116,93.907 277.209,92.814 277.209,91.465 C277.209,90.117 276.116,89.023 274.767,89.023 L253.605,89.023 C252.256,89.023 251.163,90.117 251.163,91.465 C251.163,92.814 252.256,93.907 253.605,93.907 Z" />
        </g>
        <g id="Regular-S">
            <path d="M453.605,129.721 L476.395,129.721 C477.744,129.721 478.837,128.628 478.837,127.279 C478.837,125.93 477.744,124.837 476.395,124.837 L453.605,124.837 C452.256,124.837 451.163,125.93 451.163,127.279 C451.163,128.628 452.256,129.721 453.605,129.721 Z" />
            <path d="M451.977,118.326 L478.023,118.326 C479.372,118.326 480.465,117.232 480.465,115.884 C480.465,114.535 479.372,113.442 478.023,113.442 L451.977,113.442 C450.628,113.442 449.535,114.535 449.535,115.884 C449.535,117.232 450.628,118.326 451.977,118.326 Z" />
            <path d="M486.977,91.465 L486.977,97.977 C486.977,99.056 486.548,100.091 485.785,100.855 C485.022,101.618 483.986,102.047 482.907,102.047 L447.093,102.047 C446.014,102.047 444.978,101.618 444.215,100.855 C443.452,100.091 443.023,99.056 443.023,97.977 L443.023,84.953 C443.023,83.874 443.452,82.839 444.215,82.076 C444.978,81.312 446.014,80.884 447.093,80.884 L482.907,80.884 C483.986,80.884 485.022,81.312 485.785,82.076 C486.548,82.839 486.977,83.874 486.977,84.953 L486.977,91.465 Z M491.86,91.465 L491.86,84.953 C491.86,82.579 490.917,80.302 489.238,78.622 C487.559,76.943 485.282,76 482.907,76 L447.093,76 C444.718,76 442.441,76.943 440.762,78.622 C439.083,80.302 438.14,82.579 438.14,84.953 L438.14,97.977 C438.14,100.351 439.083,102.629 440.762,104.308 C442.441,105.987 444.718,106.93 447.093,106.93 L482.907,106.93 C485.282,106.93 487.559,105.987 489.238,104.308 C490.917,102.629 491.86,100.351 491.86,97.977 L491.86,91.465 Z" />
            <path d="M446.33,104.986 L454.47,144.056 C454.706,145.189 455.704,146 456.86,146 L473.139,146 C474.296,146 475.294,145.189 475.53,144.056 L483.669,104.986 C483.944,103.666 483.097,102.373 481.777,102.098 C480.457,101.823 479.163,102.67 478.888,103.99 L470.749,143.06 L473.139,141.116 L456.86,141.116 L459.251,143.06 L451.111,103.99 C450.836,102.67 449.543,101.823 448.223,102.098 C446.902,102.373 446.055,103.666 446.33,104.986 Z" />
            <path d="M453.605,93.907 L474.767,93.907 C476.116,93.907 477.209,92.814 477.209,91.465 C477.209,90.117 476.116,89.023 474.767,89.023 L453.605,89.023 C452.256,89.023 451.163,90.117 451.163,91.465 C451.163,92.814 452.256,93.907 453.605,93.907 Z" />
        </g>
        <g id="Black-S">
            <path d="M653.605,129.721 L676.395,129.721 C677.744,129.721 678.837,128.628 678.837,127.279 C678.837,125.93 677.744,124.837 676.395,124.837 L653.605,124.837 C652.256,124.837 651.163,125.93 651.163,127.279 C651.163,128.628 652.256,129.721 653.605,129.721 Z" />
            <path d="M651.977,118.326 L678.023,118.326 C679.372,118.326 680.465,117.232 680.465,115.884 C680.465,114.535 679.372,113.442 678.023,113.442 L651.977,113.442 C650.628,113.442 649.535,114.535 649.535,115.884 C649.535,117.232 650.628,118.326 651.977,118.326 Z" />
            <path d="M686.977,91.465 L686.977,97.977 C686.977,99.056 686.548,100.091 685.785,100.855 C685.021,101.618 683.986,102.047 682.907,102.047 L647.093,102.047 C646.014,102.047 644.979,101.618 644.215,100.855 C643.452,100.091 643.023,99.056 643.023,97.977 L643.023,84.953 C643.023,83.874 643.452,82.839 644.215,82.076 C644.979,81.312 646.014,80.884 647.093,80.884 L682.907,80.884 C683.986,80.884 685.021,81.312 685.785,82.076 C686.548,82.839 686.977,83.874 686.977,84.953 L686.977,91.465 Z M691.86,91.465 L691.86,84.953 C691.86,82.579 690.917,80.302 689.238,78.622 C687.559,76.943 685.282,76 682.907,76 L647.093,76 C644.718,76 642.441,76.943 640.762,78.622 C639.083,80.302 638.14,82.579 638.14,84.953 L638.14,97.977 C638.14,100.351 639.083,102.629 640.762,104.308 C642.441,105.987 644.718,106.93 647.093,106.93 L682.907,106.93 C685.282,106.93 687.559,105.987 689.238,104.308 C690.917,102.629 691.86,100.351 691.86,97.977 L691.86,91.465 Z" />
            <path d="M646.33,104.986 L654.47,144.056 C654.706,145.189 655.704,146 656.86,146 L673.139,146 C674.296,146 675.294,145.189 675.53,144.056 L683.669,104.986 C683.945,103.666 683.097,102.373 681.777,102.098 C680.457,101.823 679.163,102.67 678.888,103.99 L670.749,143.06 L673.139,141.116 L656.86,141.116 L659.251,143.06 L651.111,103.99 C650.836,102.67 649.543,101.823 648.223,102.098 C646.902,102.373 646.055,103.666 646.33,104.986 Z" />
            <path d="M653.605,93.907 L674.767,93.907 C676.116,93.907 677.209,92.814 677.209,91.465 C677.209,90.117 676.116,89.023 674.767,89.023 L653.605,89.023 C652.256,89.023 651.163,90.117 651.163,91.465 C651.163,92.814 652.256,93.907 653.605,93.907 Z" />
        </g>
    </g>
</svg>