<?xml version="1.0" encoding="UTF-8"?>
<svg height="600" width="800" xmlns="http://www.w3.org/2000/svg" xmlns:xlink="http://www.w3.org/1999/xlink">
    <g id="Notes" font-family="'LucidaGrande', 'Lucida Grande', sans-serif" font-size="13">
        <rect fill="white" height="600.0" width="800.0" x="0.0" y="0.0" />
        <g font-size="13">
            <text x="18.0" y="176.0">Small</text>
            <text x="18.0" y="376.0">Medium</text>
            <text x="18.0" y="576.0">Large</text>
        </g>
        <g font-size="9">
            <text x="250.0" y="30.0">Ultralight</text>
            <text x="450.0" y="30.0">Regular</text>
            <text x="650.0" y="30.0">Black</text>
            <text id="template-version" fill="#505050" text-anchor="end" x="785.0" y="575.0">Template v.3.0</text>
            <a href="https://github.com/swhitty/SwiftDraw">
                <text fill="#505050" text-anchor="end" x="785.0" y="590.0">https://github.com/swhitty/SwiftDraw</text>
            </a>
        </g>
    </g>
    <g id="Guides" stroke="rgb(39, 170, 225)" stroke-width="0.5">
        <path id="Capline-S" d="M18,76 l800,0" />
        <path id="H-reference" d="M85,145.755 L87.685,145.755 L113.369,79.287 L114.052,79.287 L114.052,76 L112.148,76 L85,145.755 Z M95.693,121.536 L130.996,121.536 L130.263,119.313 L96.474,119.313 L95.693,121.536 Z M139.15,145.755 L141.787,145.755 L114.638,76 L113.466,76 L113.466,79.287 L139.15,145.755 Z" stroke="none" />
        <path id="Baseline-S" d="M18,146 l800,0" />
        <path id="left-margin-Ultralight-S" d="M220,56 l0,110" />
        <path id="right-margin-Ultralight-S" d="M310,56 l0,110" />
        <path id="left-margin-Regular-S" d="M420,56 l0,110" />
        <path id="right-margin-Regular-S" d="M510,56 l0,110" />
        <path id="left-margin-Black-S" d="M620,56 l0,110" />
        <path id="right-margin-Black-S" d="M710,56 l0,110" />
        <path id="Capline-M" d="M18,276 l800,0" />
        <path id="Baseline-M" d="M18,346 l800,0" />
        <path id="Capline-L" d="M18,476 l800,0" />
        <path id="Baseline-L" d="M18,546 l800,0" />
    </g>
    <g id="Symbols">
        <g id="Ultralight-S">
            <path d="M234.884,111 C234.884,94.367 248.367,80.884 265,80.884 C281.633,80.884 295.116,94.367 295.116,111 C295.116,127.633 281.633,141.116 265,141.116 C248.367,141.116 234.884,127.633 234.884,111 Z M230,111 C230,130.33 245.67,146 265,146 C284.33,146 300,130.33 300,111 C300,91.67 284.33,76 265,76 C245.67,76 230,91.67 230,111 Z" />
            <path d="M256.047,97.977 L256.047,111 C256.047,112.349 257.14,113.442 258.488,113.442 L269.884,113.442 C274.829,113.442 278.837,109.433 278.837,104.488 C278.837,99.544 274.829,95.535 269.884,95.535 L266.628,95.535 C265.279,95.535 264.186,96.628 264.186,97.977 C264.186,99.325 265.279,100.419 266.628,100.419 L269.884,100.419 C272.131,100.419 273.953,102.241 273.953,104.488 C273.953,106.736 272.131,108.558 269.884,108.558 L258.488,108.558 L260.93,111 L260.93,97.977 C260.93,96.628 259.837,95.535 258.488,95.535 C257.14,95.535 256.047,96.628 256.047,97.977 Z M258.488,95.535 L251.977,95.535 C250.628,95.535 249.535,96.628 249.535,97.977 C249.535,99.325 250.628,100.419 251.977,100.419 L258.488,100.419 C259.837,100.419 260.93,99.325 260.93,97.977 C260.93,96.628 259.837,95.535 258.488,95.535 Z M260.93,97.977 L260.93,91.465 C260.93,90.117 259.837,89.023 258.488,89.023 C257.14,89.023 256.047,90.117 256.047,91.465 L256.047,97.977 C256.047,99.325 257.14,100.419 258.488,100.419 C259.837,100.419 260.93,99.325 260.93,97.977 Z M258.488,100.419 L266.628,100.419 C267.977,100.419 269.07,99.325 269.07,97.977 C269.07,96.628 267.977,95.535 266.628,95.535 L258.488,95.535 C257.14,95.535 256.047,96.628 256.047,97.977 C256.047,99.325 257.14,100.419 258.488,100.419 Z M269.07,97.977 L269.07,91.465 C269.07,90.117 267.977,89.023 266.628,89.023 C265.279,89.023 264.186,90.117 264.186,91.465 L264.186,97.977 C264.186,99.325 265.279,100.419 266.628,100.419 C267.977,100.419 269.07,99.325 269.07,97.977 Z" />
            <path d="M260.93,124.023 L260.93,111 L258.488,113.442 L273.14,113.442 C275.387,113.442 277.209,115.264 277.209,117.512 C277.209,119.759 275.387,121.581 273.14,121.581 L266.628,121.581 C265.279,121.581 264.186,122.675 264.186,124.023 C264.186,125.372 265.279,126.465 266.628,126.465 L273.14,126.465 C278.084,126.465 282.093,122.456 282.093,117.512 C282.093,112.567 278.084,108.558 273.14,108.558 L258.488,108.558 C257.14,108.558 256.047,109.651 256.047,111 L256.047,124.023 C256.047,125.372 257.14,126.465 258.488,126.465 C259.837,126.465 260.93,125.372 260.93,124.023 Z M256.047,124.023 L256.047,130.535 C256.047,131.883 257.14,132.977 258.488,132.977 C259.837,132.977 260.93,131.883 260.93,130.535 L260.93,124.023 C260.93,122.675 259.837,121.581 258.488,121.581 C257.14,121.581 256.047,122.675 256.047,124.023 Z M258.488,121.581 L251.977,121.581 L251.977,126.465 L266.628,126.465 C267.977,126.465 269.07,125.372 269.07,124.023 C269.07,122.675 267.977,121.581 266.628,121.581 L251.977,121.581 C248.721,121.581 248.721,126.465 251.977,126.465 L258.488,126.465 C259.837,126.465 260.93,125.372 260.93,124.023 C260.93,122.675 259.837,121.581 258.488,121.581 Z M258.488,126.465 L266.628,126.465 C267.977,126.465 269.07,125.372 269.07,124.023 C269.07,122.675 267.977,121.581 266.628,121.581 L258.488,121.581 C257.14,121.581 256.047,122.675 256.047,124.023 C256.047,125.372 257.14,126.465 258.488,126.465 Z M264.186,124.023 L264.186,130.535 C264.186,131.883 265.279,132.977 266.628,132.977 C267.977,132.977 269.07,131.883 269.07,130.535 L269.07,124.023 C269.07,122.675 267.977,121.581 266.628,121.581 C265.279,121.581 264.186,122.675 264.186,124.023 Z" />
        </g>
        <g id="Regular-S">
            <path d="M434.884,111 C434.884,94.367 448.367,80.884 465,80.884 C481.633,80.884 495.116,94.367 495.116,111 C495.116,127.633 481.633,141.116 465,141.116 C448.367,141.116 434.884,127.633 434.884,111 Z M430,111 C430,130.33 445.67,146 465,146 C484.33,146 500,130.33 500,111 C500,91.67 484.33,76 465,76 C445.67,76 430,91.67 430,111 Z" />
            <path d="M456.047,97.977 L456.047,111 C456.047,112.349 457.14,113.442 458.488,113.442 L469.884,113.442 C474.829,113.442 478.837,109.433 478.837,104.488 C478.837,99.544 474.829,95.535 469.884,95.535 L466.628,95.535 C465.279,95.535 464.186,96.628 464.186,97.977 C464.186,99.325 465.279,100.419 466.628,100.419 L469.884,100.419 C472.131,100.419 473.953,102.241 473.953,104.488 C473.953,106.736 472.131,108.558 469.884,108.558 L458.488,108.558 L460.93,111 L460.93,97.977 C460.93,96.628 459.837,95.535 458.488,95.535 C457.14,95.535 456.047,96.628 456.047,97.977 Z M458.488,95.535 L451.977,95.535 C450.628,95.535 449.535,96.628 449.535,97.977 C449.535,99.325 450.628,100.419 451.977,100.419 L458.488,100.419 C459.837,100.419 460.93,99.325 460.93,97.977 C460.93,96.628 459.837,95.535 458.488,95.535 Z M460.93,97.977 L460.93,91.465 C460.93,90.117 459.837,89.023 458.488,89.023 C457.14,89.023 456.047,90.117 456.047,91.465 L456.047,97.977 C456.047,99.325 457.14,100.419 458.488,100.419 C459.837,100.419 460.93,99.325 460.93,97.977 Z M458.488,100.419 L466.628,100.419 C467.977,100.419 469.07,99.325 469.07,97.977 C469.07,96.628 467.977,95.535 466.628,95.535 L458.488,95.535 C457.14,95.535 456.047,96.628 456.047,97.977 C456.047,99.325 457.14,100.419 458.488,100.419 Z M469.07,97.977 L469.07,91.465 C469.07,90.117 467.977,89.023 466.628,89.023 C465.279,89.023 464.186,90.117 464.186,91.465 L464.186,97.977 C464.186,99.325 465.279,100.419 466.628,100.419 C467.977,100.419 469.07,99.325 469.07,97.977 Z" />
            <path d="M460.93,124.023 L460.93,111 L458.488,113.442 L473.14,113.442 C475.387,113.442 477.209,115.264 477.209,117.512 C477.209,119.759 475.387,121.581 473.14,121.581 L466.628,121.581 C465.279,121.581 464.186,122.675 464.186,124.023 C464.186,125.372 465.279,126.465 466.628,126.465 L473.14,126.465 C478.084,126.465 482.093,122.456 482.093,117.512 C482.093,112.567 478.084,108.558 473.14,108.558 L458.488,108.558 C457.14,108.558 456.047,109.651 456.047,111 L456.047,124.023 C456.047,125.372 457.14,126.465 458.488,126.465 C459.837,126.465 460.93,125.372 460.93,124.023 Z M456.047,124.023 L456.047,130.535 C456.047,131.883 457.14,132.977 458.488,132.977 C459.837,132.977 460.93,131.883 460.93,130.535 L460.93,124.023 C460.93,122.675 459.837,121.581 458.488,121.581 C457.14,121.581 456.047,122.675 456.047,124.023 Z M458.488,121.581 L451.977,121.581 L451.977,126.465 L466.628,126.465 C467.977,126.465 469.07,125.372 469.07,124.023 C469.07,122.675 467.977,121.581 466.628,121.581 L451.977,121.581 C448.721,121.581 448.721,126.465 451.977,126.465 L458.488,126.465 C459.837,126.465 460.93,125.372 460.93,124.023 C460.93,122.675 459.837,121.581 458.488,121.581 Z M458.488,126.465 L466.628,126.465 C467.977,126.465 469.07,125.372 469.07,124.023 C469.07,122.675 467.977,121.581 466.628,121.581 L458.488,121.581 C457.14,121.581 456.047,122.675 456.047,124.023 C456.047,125.372 457.14,126.465 458.488,126.465 Z M464.186,124.023 L464.186,130.535 C464.186,131.883 465.279,132.977 466.628,132.977 C467.977,132.977 469.07,131.883 469.07,130.535 L469.07,124.023 C469.07,122.675 467.977,121.581 466.628,121.581 C465.279,121.581 464.186,122.675 464.186,124.023 Z" />
        </g>
        <g id="Black-S">
            <path d="M634.884,111 C634.884,94.367 648.367,80.884 665,80.884 C681.633,80.884 695.116,94.367 695.116,111 C695.116,127.633 681.633,141.116 665,141.116 C648.367,141.116 634.884,127.633 634.884,111 Z M630,111 C630,130.33 645.67,146 665,146 C684.33,146 700,130.33 700,111 C700,91.67 684.33,76 665,76 C645.67,76 630,91.67 630,111 Z" />
            <path d="M656.047,97.977 L656.047,111 C656.047,112.349 657.14,113.442 658.488,113.442 L669.884,113.442 C674.829,113.442 678.837,109.433 678.837,104.488 C678.837,99.544 674.829,95.535 669.884,95.535 L666.628,95.535 C665.279,95.535 664.186,96.628 664.186,97.977 C664.186,99.325 665.279,100.419 666.628,100.419 L669.884,100.419 C672.131,100.419 673.953,102.241 673.953,104.488 C673.953,106.736 672.131,108.558 669.884,108.558 L658.488,108.558 L660.93,111 L660.93,97.977 C660.93,96.628 659.837,95.535 658.488,95.535 C657.14,95.535 656.047,96.628 656.047,97.977 Z M658.488,95.535 L651.977,95.535 C650.628,95.535 649.535,96.628 649.535,97.977 C649.535,99.325 650.628,100.419 651.977,100.419 L658.488,100.419 C659.837,100.419 660.93,99.325 660.93,97.977 C660.93,96.628 659.837,95.535 658.488,95.535 Z M660.93,97.977 L660.93,91.465 C660.93,90.117 659.837,89.023 658.488,89.023 C657.14,89.023 656.047,90.117 656.047,91.465 L656.047,97.977 C656.047,99.325 657.14,100.419 658.488,100.419 C659.837,100.419 660.93,99.325 660.93,97.977 Z M658.488,100.419 L666.628,100.419 C667.977,100.419 669.07,99.325 669.07,97.977 C669.07,96.628 667.977,95.535 666.628,95.535 L658.488,95.535 C657.14,95.535 656.047,96.628 656.047,97.977 C656.047,99.325 657.14,100.419 658.488,100.419 Z M669.07,97.977 L669.07,91.465 C669.07,90.117 667.977,89.023 666.628,89.023 C665.279,89.023 664.186,90.117 664.186,91.465 L664.186,97.977 C664.186,99.325 665.279,100.419 666.628,100.419 C667.977,100.419 669.07,99.325 669.07,97.977 Z" />
            <path d="M660.93,124.023 L660.93,111 L658.488,113.442 L673.14,113.442 C675.387,113.442 677.209,115.264 677.209,117.512 C677.209,119.759 675.387,121.581 673.14,121.581 L666.628,121.581 C665.279,121.581 664.186,122.675 664.186,124.023 C664.186,125.372 665.279,126.465 666.628,126.465 L673.14,126.465 C678.084,126.465 682.093,122.456 682.093,117.512 C682.093,112.567 678.084,108.558 673.14,108.558 L658.488,108.558 C657.14,108.558 656.047,109.651 656.047,111 L656.047,124.023 C656.047,125.372 657.14,126.465 658.488,126.465 C659.837,126.465 660.93,125.372 660.93,124.023 Z M656.047,124.023 L656.047,130.535 C656.047,131.883 657.14,132.977 658.488,132.977 C659.837,132.977 660.93,131.883 660.93,130.535 L660.93,124.023 C660.93,122.675 659.837,121.581 658.488,121.581 C657.14,121.581 656.047,122.675 656.047,124.023 Z M658.488,121.581 L651.977,121.581 L651.977,126.465 L666.628,126.465 C667.977,126.465 669.07,125.372 669.07,124.023 C669.07,122.675 667.977,121.581 666.628,121.581 L651.977,121.581 C648.721,121.581 648.721,126.465 651.977,126.465 L658.488,126.465 C659.837,126.465 660.93,125.372 660.93,124.023 C660.93,122.675 659.837,121.581 658.488,121.581 Z M658.488,126.465 L666.628,126.465 C667.977,126.465 669.07,125.372 669.07,124.023 C669.07,122.675 667.977,121.581 666.628,121.581 L658.488,121.581 C657.14,121.581 656.047,122.675 656.047,124.023 C656.047,125.372 657.14,126.465 658.488,126.465 Z M664.186,124.023 L664.186,130.535 C664.186,131.883 665.279,132.977 666.628,132.977 C667.977,132.977 669.07,131.883 669.07,130.535 L669.07,124.023 C669.07,122.675 667.977,121.581 666.628,121.581 C665.279,121.581 664.186,122.675 664.186,124.023 Z" />
        </g>
    </g>
</svg>