<?xml version="1.0" encoding="UTF-8"?>
<svg height="600" width="800" xmlns="http://www.w3.org/2000/svg" xmlns:xlink="http://www.w3.org/1999/xlink">
    <g id="Notes" font-family="'LucidaGrande', 'Lucida Grande', sans-serif" font-size="13">
        <rect fill="white" height="600.0" width="800.0" x="0.0" y="0.0" />
        <g font-size="13">
            <text x="18.0" y="176.0">Small</text>
            <text x="18.0" y="376.0">Medium</text>
            <text x="18.0" y="576.0">Large</text>
        </g>
        <g font-size="9">
            <text x="250.0" y="30.0">Ultralight</text>
            <text x="450.0" y="30.0">Regular</text>
            <text x="650.0" y="30.0">Black</text>
            <text id="template-version" fill="#505050" text-anchor="end" x="785.0" y="575.0">Template v.3.0</text>
            <a href="https://github.com/swhitty/SwiftDraw">
                <text fill="#505050" text-anchor="end" x="785.0" y="590.0">https://github.com/swhitty/SwiftDraw</text>
            </a>
        </g>
    </g>
    <g id="Guides" stroke="rgb(39, 170, 225)" stroke-width="0.5">
        <path id="Capline-S" d="M18,76 l800,0" />
        <path id="H-reference" d="M85,145.755 L87.685,145.755 L113.369,79.287 L114.052,79.287 L114.052,76 L112.148,76 L85,145.755 Z M95.693,121.536 L130.996,121.536 L130.263,119.313 L96.474,119.313 L95.693,121.536 Z M139.15,145.755 L141.787,145.755 L114.638,76 L113.466,76 L113.466,79.287 L139.15,145.755 Z" stroke="none" />
        <path id="Baseline-S" d="M18,146 l800,0" />
        <path id="left-margin-Ultralight-S" d="M220,56 l0,110" />
        <path id="right-margin-Ultralight-S" d="M310,56 l0,110" />
        <path id="left-margin-Regular-S" d="M420,56 l0,110" />
        <path id="right-margin-Regular-S" d="M510,56 l0,110" />
        <path id="left-margin-Black-S" d="M620,56 l0,110" />
        <path id="right-margin-Black-S" d="M710,56 l0,110" />
        <path id="Capline-M" d="M18,276 l800,0" />
        <path id="Baseline-M" d="M18,346 l800,0" />
        <path id="Capline-L" d="M18,476 l800,0" />
        <path id="Baseline-L" d="M18,546 l800,0" />
    </g>
    <g id="Symbols">
        <g id="Ultralight-S">
            <path d="M265,146 C284.33,146 300,130.33 300,111 C300,91.67 284.33,76 265,76 C245.67,76 230,91.67 230,111 C230,130.33 245.67,146 265,146 Z M265,141.116 C248.367,141.116 234.884,127.633 234.884,111 C234.884,94.367 248.367,80.884 265,80.884 C281.633,80.884 295.116,94.367 295.116,111 C295.116,127.633 281.633,141.116 265,141.116 Z" />
            <path d="M265,111.814 C270.844,111.814 275.581,107.076 275.581,101.233 C275.581,95.389 270.844,90.651 265,90.651 C259.156,90.651 254.419,95.389 254.419,101.233 C254.419,107.076 259.156,111.814 265,111.814 Z M265,106.93 C261.853,106.93 259.302,104.379 259.302,101.233 C259.302,98.086 261.853,95.535 265,95.535 C268.147,95.535 270.698,98.086 270.698,101.233 C270.698,104.379 268.147,106.93 265,106.93 Z" />
            <path d="M265,131.349 C271.743,131.349 277.209,125.883 277.209,119.14 C277.209,112.397 271.743,106.93 265,106.93 C258.257,106.93 252.791,112.397 252.791,119.14 C252.791,125.883 258.257,131.349 265,131.349 Z M265,126.465 C260.954,126.465 257.674,123.185 257.674,119.14 C257.674,115.094 260.954,111.814 265,111.814 C269.046,111.814 272.326,115.094 272.326,119.14 C272.326,123.185 269.046,126.465 265,126.465 Z" />
        </g>
        <g id="Regular-S">
            <path d="M465,146 C484.33,146 500,130.33 500,111 C500,91.67 484.33,76 465,76 C445.67,76 430,91.67 430,111 C430,130.33 445.67,146 465,146 Z M465,141.116 C448.367,141.116 434.884,127.633 434.884,111 C434.884,94.367 448.367,80.884 465,80.884 C481.633,80.884 495.116,94.367 495.116,111 C495.116,127.633 481.633,141.116 465,141.116 Z" />
            <path d="M465,111.814 C470.844,111.814 475.581,107.076 475.581,101.233 C475.581,95.389 470.844,90.651 465,90.651 C459.156,90.651 454.419,95.389 454.419,101.233 C454.419,107.076 459.156,111.814 465,111.814 Z M465,106.93 C461.853,106.93 459.302,104.379 459.302,101.233 C459.302,98.086 461.853,95.535 465,95.535 C468.147,95.535 470.698,98.086 470.698,101.233 C470.698,104.379 468.147,106.93 465,106.93 Z" />
            <path d="M465,131.349 C471.743,131.349 477.209,125.883 477.209,119.14 C477.209,112.397 471.743,106.93 465,106.93 C458.257,106.93 452.791,112.397 452.791,119.14 C452.791,125.883 458.257,131.349 465,131.349 Z M465,126.465 C460.954,126.465 457.674,123.185 457.674,119.14 C457.674,115.094 460.954,111.814 465,111.814 C469.046,111.814 472.326,115.094 472.326,119.14 C472.326,123.185 469.046,126.465 465,126.465 Z" />
        </g>
        <g id="Black-S">
            <path d="M665,146 C684.33,146 700,130.33 700,111 C700,91.67 684.33,76 665,76 C645.67,76 630,91.67 630,111 C630,130.33 645.67,146 665,146 Z M665,141.116 C648.367,141.116 634.884,127.633 634.884,111 C634.884,94.367 648.367,80.884 665,80.884 C681.633,80.884 695.116,94.367 695.116,111 C695.116,127.633 681.633,141.116 665,141.116 Z" />
            <path d="M665,111.814 C670.844,111.814 675.581,107.076 675.581,101.233 C675.581,95.389 670.844,90.651 665,90.651 C659.156,90.651 654.419,95.389 654.419,101.233 C654.419,107.076 659.156,111.814 665,111.814 Z M665,106.93 C661.853,106.93 659.302,104.379 659.302,101.233 C659.302,98.086 661.853,95.535 665,95.535 C668.147,95.535 670.698,98.086 670.698,101.233 C670.698,104.379 668.147,106.93 665,106.93 Z" />
            <path d="M665,131.349 C671.743,131.349 677.209,125.883 677.209,119.14 C677.209,112.397 671.743,106.93 665,106.93 C658.257,106.93 652.791,112.397 652.791,119.14 C652.791,125.883 658.257,131.349 665,131.349 Z M665,126.465 C660.954,126.465 657.674,123.185 657.674,119.14 C657.674,115.094 660.954,111.814 665,111.814 C669.046,111.814 672.326,115.094 672.326,119.14 C672.326,123.185 669.046,126.465 665,126.465 Z" />
        </g>
    </g>
</svg>