<?xml version="1.0" encoding="UTF-8"?>
<svg height="600" width="800" xmlns="http://www.w3.org/2000/svg" xmlns:xlink="http://www.w3.org/1999/xlink">
    <g id="Notes" font-family="'LucidaGrande', 'Lucida Grande', sans-serif" font-size="13">
        <rect fill="white" height="600.0" width="800.0" x="0.0" y="0.0" />
        <g font-size="13">
            <text x="18.0" y="176.0">Small</text>
            <text x="18.0" y="376.0">Medium</text>
            <text x="18.0" y="576.0">Large</text>
        </g>
        <g font-size="9">
            <text x="250.0" y="30.0">Ultralight</text>
            <text x="450.0" y="30.0">Regular</text>
            <text x="650.0" y="30.0">Black</text>
            <text id="template-version" fill="#505050" text-anchor="end" x="785.0" y="575.0">Template v.3.0</text>
            <a href="https://github.com/swhitty/SwiftDraw">
                <text fill="#505050" text-anchor="end" x="785.0" y="590.0">https://github.com/swhitty/SwiftDraw</text>
            </a>
        </g>
    </g>
    <g id="Guides" stroke="rgb(39, 170, 225)" stroke-width="0.5">
        <path id="Capline-S" d="M18,76 l800,0" />
        <path id="H-reference" d="M85,145.755 L87.685,145.755 L113.369,79.287 L114.052,79.287 L114.052,76 L112.148,76 L85,145.755 Z M95.693,121.536 L130.996,121.536 L130.263,119.313 L96.474,119.313 L95.693,121.536 Z M139.15,145.755 L141.787,145.755 L114.638,76 L113.466,76 L113.466,79.287 L139.15,145.755 Z" stroke="none" />
        <path id="Baseline-S" d="M18,146 l800,0" />
        <path id="left-margin-Ultralight-S" d="M211,56 l0,110" />
        <path id="right-margin-Ultralight-S" d="M319,56 l0,110" />
        <path id="left-margin-Regular-S" d="M411,56 l0,110" />
        <path id="right-margin-Regular-S" d="M519,56 l0,110" />
        <path id="left-margin-Black-S" d="M611,56 l0,110" />
        <path id="right-margin-Black-S" d="M719,56 l0,110" />
        <path id="Capline-M" d="M18,276 l800,0" />
        <path id="Baseline-M" d="M18,346 l800,0" />
        <path id="Capline-L" d="M18,476 l800,0" />
        <path id="Baseline-L" d="M18,546 l800,0" />
    </g>
    <g id="Symbols">
        <g id="Ultralight-S">
            <path d="M224.385,114.385 L251.462,114.385 L248.077,111 L248.077,138.077 L251.462,134.692 L224.385,134.692 L227.769,138.077 L227.769,111 L224.385,114.385 Z M224.385,107.615 C222.515,107.615 221,109.131 221,111 L221,138.077 C221,139.946 222.515,141.462 224.385,141.462 L251.462,141.462 C253.331,141.462 254.846,139.946 254.846,138.077 L254.846,111 C254.846,109.131 253.331,107.615 251.462,107.615 L224.385,107.615 Z" />
            <path d="M278.538,114.385 L305.615,114.385 L302.231,111 L302.231,138.077 L305.615,134.692 L278.538,134.692 L281.923,138.077 L281.923,111 L278.538,114.385 Z M278.538,107.615 C276.669,107.615 275.154,109.131 275.154,111 L275.154,138.077 C275.154,139.946 276.669,141.462 278.538,141.462 L305.615,141.462 C307.485,141.462 309,139.946 309,138.077 L309,111 C309,109.131 307.485,107.615 305.615,107.615 L278.538,107.615 Z" />
            <path d="M224.385,87.308 L251.462,87.308 L248.077,83.923 L248.077,111 L251.462,107.615 L224.385,107.615 L227.769,111 L227.769,83.923 L224.385,87.308 Z M224.385,80.538 C222.515,80.538 221,82.054 221,83.923 L221,111 C221,112.869 222.515,114.385 224.385,114.385 L251.462,114.385 C253.331,114.385 254.846,112.869 254.846,111 L254.846,83.923 C254.846,82.054 253.331,80.538 251.462,80.538 L224.385,80.538 Z" />
            <path d="M251.462,87.308 L278.538,87.308 L275.154,83.923 L275.154,111 L278.538,107.615 L251.462,107.615 L254.846,111 L254.846,83.923 L251.462,87.308 Z M251.462,80.538 C249.592,80.538 248.077,82.054 248.077,83.923 L248.077,111 C248.077,112.869 249.592,114.385 251.462,114.385 L278.538,114.385 C280.408,114.385 281.923,112.869 281.923,111 L281.923,83.923 C281.923,82.054 280.408,80.538 278.538,80.538 L251.462,80.538 Z" />
            <path d="M278.538,87.308 L305.615,87.308 L302.231,83.923 L302.231,111 L305.615,107.615 L278.538,107.615 L281.923,111 L281.923,83.923 L278.538,87.308 Z M278.538,80.538 C276.669,80.538 275.154,82.054 275.154,83.923 L275.154,111 C275.154,112.869 276.669,114.385 278.538,114.385 L305.615,114.385 C307.485,114.385 309,112.869 309,111 L309,83.923 C309,82.054 307.485,80.538 305.615,80.538 L278.538,80.538 Z" />
        </g>
        <g id="Regular-S">
            <path d="M424.385,114.385 L451.462,114.385 L448.077,111 L448.077,138.077 L451.462,134.692 L424.385,134.692 L427.769,138.077 L427.769,111 L424.385,114.385 Z M424.385,107.615 C422.515,107.615 421,109.131 421,111 L421,138.077 C421,139.946 422.515,141.462 424.385,141.462 L451.462,141.462 C453.331,141.462 454.846,139.946 454.846,138.077 L454.846,111 C454.846,109.131 453.331,107.615 451.462,107.615 L424.385,107.615 Z" />
            <path d="M478.538,114.385 L505.615,114.385 L502.231,111 L502.231,138.077 L505.615,134.692 L478.538,134.692 L481.923,138.077 L481.923,111 L478.538,114.385 Z M478.538,107.615 C476.669,107.615 475.154,109.131 475.154,111 L475.154,138.077 C475.154,139.946 476.669,141.462 478.538,141.462 L505.615,141.462 C507.485,141.462 509,139.946 509,138.077 L509,111 C509,109.131 507.485,107.615 505.615,107.615 L478.538,107.615 Z" />
            <path d="M424.385,87.308 L451.462,87.308 L448.077,83.923 L448.077,111 L451.462,107.615 L424.385,107.615 L427.769,111 L427.769,83.923 L424.385,87.308 Z M424.385,80.538 C422.515,80.538 421,82.054 421,83.923 L421,111 C421,112.869 422.515,114.385 424.385,114.385 L451.462,114.385 C453.331,114.385 454.846,112.869 454.846,111 L454.846,83.923 C454.846,82.054 453.331,80.538 451.462,80.538 L424.385,80.538 Z" />
            <path d="M451.462,87.308 L478.538,87.308 L475.154,83.923 L475.154,111 L478.538,107.615 L451.462,107.615 L454.846,111 L454.846,83.923 L451.462,87.308 Z M451.462,80.538 C449.592,80.538 448.077,82.054 448.077,83.923 L448.077,111 C448.077,112.869 449.592,114.385 451.462,114.385 L478.538,114.385 C480.408,114.385 481.923,112.869 481.923,111 L481.923,83.923 C481.923,82.054 480.408,80.538 478.538,80.538 L451.462,80.538 Z" />
            <path d="M478.538,87.308 L505.615,87.308 L502.231,83.923 L502.231,111 L505.615,107.615 L478.538,107.615 L481.923,111 L481.923,83.923 L478.538,87.308 Z M478.538,80.538 C476.669,80.538 475.154,82.054 475.154,83.923 L475.154,111 C475.154,112.869 476.669,114.385 478.538,114.385 L505.615,114.385 C507.485,114.385 509,112.869 509,111 L509,83.923 C509,82.054 507.485,80.538 505.615,80.538 L478.538,80.538 Z" />
        </g>
        <g id="Black-S">
            <path d="M624.385,114.385 L651.462,114.385 L648.077,111 L648.077,138.077 L651.462,134.692 L624.385,134.692 L627.769,138.077 L627.769,111 L624.385,114.385 Z M624.385,107.615 C622.515,107.615 621,109.131 621,111 L621,138.077 C621,139.946 622.515,141.462 624.385,141.462 L651.462,141.462 C653.331,141.462 654.846,139.946 654.846,138.077 L654.846,111 C654.846,109.131 653.331,107.615 651.462,107.615 L624.385,107.615 Z" />
            <path d="M678.538,114.385 L705.615,114.385 L702.231,111 L702.231,138.077 L705.615,134.692 L678.538,134.692 L681.923,138.077 L681.923,111 L678.538,114.385 Z M678.538,107.615 C676.669,107.615 675.154,109.131 675.154,111 L675.154,138.077 C675.154,139.946 676.669,141.462 678.538,141.462 L705.615,141.462 C707.485,141.462 709,139.946 709,138.077 L709,111 C709,109.131 707.485,107.615 705.615,107.615 L678.538,107.615 Z" />
            <path d="M624.385,87.308 L651.462,87.308 L648.077,83.923 L648.077,111 L651.462,107.615 L624.385,107.615 L627.769,111 L627.769,83.923 L624.385,87.308 Z M624.385,80.538 C622.515,80.538 621,82.054 621,83.923 L621,111 C621,112.869 622.515,114.385 624.385,114.385 L651.462,114.385 C653.331,114.385 654.846,112.869 654.846,111 L654.846,83.923 C654.846,82.054 653.331,80.538 651.462,80.538 L624.385,80.538 Z" />
            <path d="M651.462,87.308 L678.538,87.308 L675.154,83.923 L675.154,111 L678.538,107.615 L651.462,107.615 L654.846,111 L654.846,83.923 L651.462,87.308 Z M651.462,80.538 C649.592,80.538 648.077,82.054 648.077,83.923 L648.077,111 C648.077,112.869 649.592,114.385 651.462,114.385 L678.538,114.385 C680.408,114.385 681.923,112.869 681.923,111 L681.923,83.923 C681.923,82.054 680.408,80.538 678.538,80.538 L651.462,80.538 Z" />
            <path d="M678.538,87.308 L705.615,87.308 L702.231,83.923 L702.231,111 L705.615,107.615 L678.538,107.615 L681.923,111 L681.923,83.923 L678.538,87.308 Z M678.538,80.538 C676.669,80.538 675.154,82.054 675.154,83.923 L675.154,111 C675.154,112.869 676.669,114.385 678.538,114.385 L705.615,114.385 C707.485,114.385 709,112.869 709,111 L709,83.923 C709,82.054 707.485,80.538 705.615,80.538 L678.538,80.538 Z" />
        </g>
    </g>
</svg>