<?xml version="1.0" encoding="UTF-8"?>
<svg height="600" width="800" xmlns="http://www.w3.org/2000/svg" xmlns:xlink="http://www.w3.org/1999/xlink">
    <g id="Notes" font-family="'LucidaGrande', 'Lucida Grande', sans-serif" font-size="13">
        <rect fill="white" height="600.0" width="800.0" x="0.0" y="0.0" />
        <g font-size="13">
            <text x="18.0" y="176.0">Small</text>
            <text x="18.0" y="376.0">Medium</text>
            <text x="18.0" y="576.0">Large</text>
        </g>
        <g font-size="9">
            <text x="250.0" y="30.0">Ultralight</text>
            <text x="450.0" y="30.0">Regular</text>
            <text x="650.0" y="30.0">Black</text>
            <text id="template-version" fill="#505050" text-anchor="end" x="785.0" y="575.0">Template v.3.0</text>
            <a href="https://github.com/swhitty/SwiftDraw">
                <text fill="#505050" text-anchor="end" x="785.0" y="590.0">https://github.com/swhitty/SwiftDraw</text>
            </a>
        </g>
    </g>
    <g id="Guides" stroke="rgb(39, 170, 225)" stroke-width="0.5">
        <path id="Capline-S" d="M18,76 l800,0" />
        <path id="H-reference" d="M85,145.755 L87.685,145.755 L113.369,79.287 L114.052,79.287 L114.052,76 L112.148,76 L85,145.755 Z M95.693,121.536 L130.996,121.536 L130.263,119.313 L96.474,119.313 L95.693,121.536 Z M139.15,145.755 L141.787,145.755 L114.638,76 L113.466,76 L113.466,79.287 L139.15,145.755 Z" stroke="none" />
        <path id="Baseline-S" d="M18,146 l800,0" />
        <path id="left-margin-Ultralight-S" d="M221,56 l0,110" />
        <path id="right-margin-Ultralight-S" d="M309,56 l0,110" />
        <path id="left-margin-Regular-S" d="M421,56 l0,110" />
        <path id="right-margin-Regular-S" d="M509,56 l0,110" />
        <path id="left-margin-Black-S" d="M621,56 l0,110" />
        <path id="right-margin-Black-S" d="M709,56 l0,110" />
        <path id="Capline-M" d="M18,276 l800,0" />
        <path id="Baseline-M" d="M18,346 l800,0" />
        <path id="Capline-L" d="M18,476 l800,0" />
        <path id="Baseline-L" d="M18,546 l800,0" />
    </g>
    <g id="Symbols">
        <g id="Ultralight-S">
            <path d="M252.791,120.767 C252.791,118.126 253.648,115.555 255.233,113.442 L261.093,105.628 C262.044,104.36 262.558,102.818 262.558,101.233 L262.558,78.442 L260.116,80.884 L269.884,80.884 L267.442,78.442 L267.442,101.233 C267.442,102.818 267.956,104.36 268.907,105.628 L274.767,113.442 C276.352,115.555 277.209,118.126 277.209,120.767 L277.209,140.302 C277.209,140.752 276.845,141.116 276.395,141.116 L253.605,141.116 C253.155,141.116 252.791,140.752 252.791,140.302 L252.791,120.767 Z M247.907,120.767 L247.907,140.302 C247.907,143.449 250.458,146 253.605,146 L276.395,146 C279.542,146 282.093,143.449 282.093,140.302 L282.093,120.767 C282.093,117.069 280.893,113.47 278.674,110.512 L272.814,102.698 C272.497,102.275 272.326,101.761 272.326,101.233 L272.326,78.442 C272.326,77.093 271.232,76 269.884,76 L260.116,76 C258.768,76 257.674,77.093 257.674,78.442 L257.674,101.233 C257.674,101.761 257.503,102.275 257.186,102.698 L251.326,110.512 C249.107,113.47 247.907,117.069 247.907,120.767 Z" />
            <path d="M260.116,90.651 L269.884,90.651 C271.232,90.651 272.326,89.558 272.326,88.209 C272.326,86.861 271.232,85.767 269.884,85.767 L260.116,85.767 C258.768,85.767 257.674,86.861 257.674,88.209 C257.674,89.558 258.768,90.651 260.116,90.651 Z" />
            <path d="M262.558,91.465 L262.558,84.953 C262.558,83.605 261.465,82.512 260.116,82.512 C258.768,82.512 257.674,83.605 257.674,84.953 L257.674,91.465 C257.674,92.814 258.768,93.907 260.116,93.907 C261.465,93.907 262.558,92.814 262.558,91.465 Z" />
            <path d="M272.326,91.465 L272.326,84.953 C272.326,83.605 271.232,82.512 269.884,82.512 C268.535,82.512 267.442,83.605 267.442,84.953 L267.442,91.465 C267.442,92.814 268.535,93.907 269.884,93.907 C271.232,93.907 272.326,92.814 272.326,91.465 Z" />
        </g>
        <g id="Regular-S">
            <path d="M452.791,120.767 C452.791,118.126 453.648,115.555 455.233,113.442 L461.093,105.628 C462.044,104.36 462.558,102.818 462.558,101.233 L462.558,78.442 L460.116,80.884 L469.884,80.884 L467.442,78.442 L467.442,101.233 C467.442,102.818 467.956,104.36 468.907,105.628 L474.767,113.442 C476.352,115.555 477.209,118.126 477.209,120.767 L477.209,140.302 C477.209,140.752 476.845,141.116 476.395,141.116 L453.605,141.116 C453.155,141.116 452.791,140.752 452.791,140.302 L452.791,120.767 Z M447.907,120.767 L447.907,140.302 C447.907,143.449 450.458,146 453.605,146 L476.395,146 C479.542,146 482.093,143.449 482.093,140.302 L482.093,120.767 C482.093,117.069 480.893,113.47 478.674,110.512 L472.814,102.698 C472.497,102.275 472.326,101.761 472.326,101.233 L472.326,78.442 C472.326,77.093 471.232,76 469.884,76 L460.116,76 C458.768,76 457.674,77.093 457.674,78.442 L457.674,101.233 C457.674,101.761 457.503,102.275 457.186,102.698 L451.326,110.512 C449.107,113.47 447.907,117.069 447.907,120.767 Z" />
            <path d="M460.116,90.651 L469.884,90.651 C471.232,90.651 472.326,89.558 472.326,88.209 C472.326,86.861 471.232,85.767 469.884,85.767 L460.116,85.767 C458.768,85.767 457.674,86.861 457.674,88.209 C457.674,89.558 458.768,90.651 460.116,90.651 Z" />
            <path d="M462.558,91.465 L462.558,84.953 C462.558,83.605 461.465,82.512 460.116,82.512 C458.768,82.512 457.674,83.605 457.674,84.953 L457.674,91.465 C457.674,92.814 458.768,93.907 460.116,93.907 C461.465,93.907 462.558,92.814 462.558,91.465 Z" />
            <path d="M472.326,91.465 L472.326,84.953 C472.326,83.605 471.232,82.512 469.884,82.512 C468.535,82.512 467.442,83.605 467.442,84.953 L467.442,91.465 C467.442,92.814 468.535,93.907 469.884,93.907 C471.232,93.907 472.326,92.814 472.326,91.465 Z" />
        </g>
        <g id="Black-S">
            <path d="M652.791,120.767 C652.791,118.126 653.648,115.555 655.233,113.442 L661.093,105.628 C662.044,104.36 662.558,102.818 662.558,101.233 L662.558,78.442 L660.116,80.884 L669.884,80.884 L667.442,78.442 L667.442,101.233 C667.442,102.818 667.956,104.36 668.907,105.628 L674.767,113.442 C676.352,115.555 677.209,118.126 677.209,120.767 L677.209,140.302 C677.209,140.752 676.845,141.116 676.395,141.116 L653.605,141.116 C653.155,141.116 652.791,140.752 652.791,140.302 L652.791,120.767 Z M647.907,120.767 L647.907,140.302 C647.907,143.449 650.458,146 653.605,146 L676.395,146 C679.542,146 682.093,143.449 682.093,140.302 L682.093,120.767 C682.093,117.069 680.893,113.47 678.674,110.512 L672.814,102.698 C672.497,102.275 672.326,101.761 672.326,101.233 L672.326,78.442 C672.326,77.093 671.232,76 669.884,76 L660.116,76 C658.768,76 657.674,77.093 657.674,78.442 L657.674,101.233 C657.674,101.761 657.503,102.275 657.186,102.698 L651.326,110.512 C649.107,113.47 647.907,117.069 647.907,120.767 Z" />
            <path d="M660.116,90.651 L669.884,90.651 C671.232,90.651 672.326,89.558 672.326,88.209 C672.326,86.861 671.232,85.767 669.884,85.767 L660.116,85.767 C658.768,85.767 657.674,86.861 657.674,88.209 C657.674,89.558 658.768,90.651 660.116,90.651 Z" />
            <path d="M662.558,91.465 L662.558,84.953 C662.558,83.605 661.465,82.512 660.116,82.512 C658.768,82.512 657.674,83.605 657.674,84.953 L657.674,91.465 C657.674,92.814 658.768,93.907 660.116,93.907 C661.465,93.907 662.558,92.814 662.558,91.465 Z" />
            <path d="M672.326,91.465 L672.326,84.953 C672.326,83.605 671.232,82.512 669.884,82.512 C668.535,82.512 667.442,83.605 667.442,84.953 L667.442,91.465 C667.442,92.814 668.535,93.907 669.884,93.907 C671.232,93.907 672.326,92.814 672.326,91.465 Z" />
        </g>
    </g>
</svg>