<?xml version="1.0" encoding="UTF-8"?>
<svg height="600" width="800" xmlns="http://www.w3.org/2000/svg" xmlns:xlink="http://www.w3.org/1999/xlink">
    <g id="Notes" font-family="'LucidaGrande', 'Lucida Grande', sans-serif" font-size="13">
        <rect fill="white" height="600.0" width="800.0" x="0.0" y="0.0" />
        <g font-size="13">
            <text x="18.0" y="176.0">Small</text>
            <text x="18.0" y="376.0">Medium</text>
            <text x="18.0" y="576.0">Large</text>
        </g>
        <g font-size="9">
            <text x="250.0" y="30.0">Ultralight</text>
            <text x="450.0" y="30.0">Regular</text>
            <text x="650.0" y="30.0">Black</text>
            <text id="template-version" fill="#505050" text-anchor="end" x="785.0" y="575.0">Template v.3.0</text>
            <a href="https://github.com/swhitty/SwiftDraw">
                <text fill="#505050" text-anchor="end" x="785.0" y="590.0">https://github.com/swhitty/SwiftDraw</text>
            </a>
        </g>
    </g>
    <g id="Guides" stroke="rgb(39, 170, 225)" stroke-width="0.5">
        <path id="Capline-S" d="M18,76 l800,0" />
        <path id="H-reference" d="M85,145.755 L87.685,145.755 L113.369,79.287 L114.052,79.287 L114.052,76 L112.148,76 L85,145.755 Z M95.693,121.536 L130.996,121.536 L130.263,119.313 L96.474,119.313 L95.693,121.536 Z M139.15,145.755 L141.787,145.755 L114.638,76 L113.466,76 L113.466,79.287 L139.15,145.755 Z" stroke="none" />
        <path id="Baseline-S" d="M18,146 l800,0" />
        <path id="left-margin-Ultralight-S" d="M221,56 l0,110" />
        <path id="right-margin-Ultralight-S" d="M309,56 l0,110" />
        <path id="left-margin-Regular-S" d="M421,56 l0,110" />
        <path id="right-margin-Regular-S" d="M509,56 l0,110" />
        <path id="left-margin-Black-S" d="M621,56 l0,110" />
        <path id="right-margin-Black-S" d="M709,56 l0,110" />
        <path id="Capline-M" d="M18,276 l800,0" />
        <path id="Baseline-M" d="M18,346 l800,0" />
        <path id="Capline-L" d="M18,476 l800,0" />
        <path id="Baseline-L" d="M18,546 l800,0" />
    </g>
    <g id="Symbols">
        <g id="Ultralight-S">
            <path d="M260.422,90.651 L269.578,90.651 L267.442,89.392 L277.515,107.593 L277.209,106.41 L277.209,143.558 L279.651,141.116 L250.349,141.116 L252.791,143.558 L252.791,106.41 L252.485,107.593 L262.558,89.392 L260.422,90.651 Z M260.422,85.767 C259.533,85.767 258.715,86.25 258.285,87.027 L248.212,105.228 C248.012,105.59 247.907,105.997 247.907,106.41 L247.907,143.558 C247.907,144.907 249,146 250.349,146 L279.651,146 C281,146 282.093,144.907 282.093,143.558 L282.093,106.41 C282.093,105.997 281.988,105.59 281.788,105.228 L271.715,87.027 C271.285,86.25 270.467,85.767 269.578,85.767 L260.422,85.767 Z" />
            <path d="M269.07,78.442 L269.07,88.209 L271.512,85.767 L258.488,85.767 L260.93,88.209 L260.93,78.442 L258.488,80.884 L271.512,80.884 L269.07,78.442 Z M273.953,78.442 C273.953,77.093 272.86,76 271.512,76 L258.488,76 C257.14,76 256.047,77.093 256.047,78.442 L256.047,88.209 C256.047,89.558 257.14,90.651 258.488,90.651 L271.512,90.651 C272.86,90.651 273.953,89.558 273.953,88.209 L273.953,78.442 Z" />
            <path d="M267.442,119.14 L267.442,124.023 C267.442,124.671 267.185,125.292 266.727,125.75 C266.269,126.208 265.648,126.465 265,126.465 C264.352,126.465 263.731,126.208 263.273,125.75 C262.815,125.292 262.558,124.671 262.558,124.023 L262.558,114.256 C262.558,113.608 262.815,112.987 263.273,112.529 C263.731,112.071 264.352,111.814 265,111.814 C265.648,111.814 266.269,112.071 266.727,112.529 C267.185,112.987 267.442,113.608 267.442,114.256 L267.442,119.14 Z M272.326,119.14 L272.326,114.256 C272.326,112.313 271.554,110.45 270.18,109.076 C268.806,107.702 266.943,106.93 265,106.93 C263.057,106.93 261.194,107.702 259.82,109.076 C258.446,110.45 257.674,112.313 257.674,114.256 L257.674,124.023 C257.674,125.966 258.446,127.829 259.82,129.203 C261.194,130.577 263.057,131.349 265,131.349 C266.943,131.349 268.806,130.577 270.18,129.203 C271.554,127.829 272.326,125.966 272.326,124.023 L272.326,119.14 Z" />
        </g>
        <g id="Regular-S">
            <path d="M460.422,90.651 L469.578,90.651 L467.442,89.392 L477.515,107.593 L477.209,106.41 L477.209,143.558 L479.651,141.116 L450.349,141.116 L452.791,143.558 L452.791,106.41 L452.485,107.593 L462.558,89.392 L460.422,90.651 Z M460.422,85.767 C459.533,85.767 458.715,86.25 458.285,87.027 L448.212,105.228 C448.012,105.59 447.907,105.997 447.907,106.41 L447.907,143.558 C447.907,144.907 449,146 450.349,146 L479.651,146 C481,146 482.093,144.907 482.093,143.558 L482.093,106.41 C482.093,105.997 481.988,105.59 481.788,105.228 L471.715,87.027 C471.285,86.25 470.467,85.767 469.578,85.767 L460.422,85.767 Z" />
            <path d="M469.07,78.442 L469.07,88.209 L471.512,85.767 L458.488,85.767 L460.93,88.209 L460.93,78.442 L458.488,80.884 L471.512,80.884 L469.07,78.442 Z M473.953,78.442 C473.953,77.093 472.86,76 471.512,76 L458.488,76 C457.14,76 456.047,77.093 456.047,78.442 L456.047,88.209 C456.047,89.558 457.14,90.651 458.488,90.651 L471.512,90.651 C472.86,90.651 473.953,89.558 473.953,88.209 L473.953,78.442 Z" />
            <path d="M467.442,119.14 L467.442,124.023 C467.442,124.671 467.185,125.292 466.727,125.75 C466.269,126.208 465.648,126.465 465,126.465 C464.352,126.465 463.731,126.208 463.273,125.75 C462.815,125.292 462.558,124.671 462.558,124.023 L462.558,114.256 C462.558,113.608 462.815,112.987 463.273,112.529 C463.731,112.071 464.352,111.814 465,111.814 C465.648,111.814 466.269,112.071 466.727,112.529 C467.185,112.987 467.442,113.608 467.442,114.256 L467.442,119.14 Z M472.326,119.14 L472.326,114.256 C472.326,112.313 471.554,110.45 470.18,109.076 C468.806,107.702 466.943,106.93 465,106.93 C463.057,106.93 461.194,107.702 459.82,109.076 C458.446,110.45 457.674,112.313 457.674,114.256 L457.674,124.023 C457.674,125.966 458.446,127.829 459.82,129.203 C461.194,130.577 463.057,131.349 465,131.349 C466.943,131.349 468.806,130.577 470.18,129.203 C471.554,127.829 472.326,125.966 472.326,124.023 L472.326,119.14 Z" />
        </g>
        <g id="Black-S">
            <path d="M660.422,90.651 L669.578,90.651 L667.442,89.392 L677.515,107.593 L677.209,106.41 L677.209,143.558 L679.651,141.116 L650.349,141.116 L652.791,143.558 L652.791,106.41 L652.485,107.593 L662.558,89.392 L660.422,90.651 Z M660.422,85.767 C659.533,85.767 658.715,86.25 658.285,87.027 L648.212,105.228 C648.012,105.59 647.907,105.997 647.907,106.41 L647.907,143.558 C647.907,144.907 649,146 650.349,146 L679.651,146 C681,146 682.093,144.907 682.093,143.558 L682.093,106.41 C682.093,105.997 681.988,105.59 681.788,105.228 L671.715,87.027 C671.285,86.25 670.467,85.767 669.578,85.767 L660.422,85.767 Z" />
            <path d="M669.07,78.442 L669.07,88.209 L671.512,85.767 L658.488,85.767 L660.93,88.209 L660.93,78.442 L658.488,80.884 L671.512,80.884 L669.07,78.442 Z M673.953,78.442 C673.953,77.093 672.86,76 671.512,76 L658.488,76 C657.14,76 656.047,77.093 656.047,78.442 L656.047,88.209 C656.047,89.558 657.14,90.651 658.488,90.651 L671.512,90.651 C672.86,90.651 673.953,89.558 673.953,88.209 L673.953,78.442 Z" />
            <path d="M667.442,119.14 L667.442,124.023 C667.442,124.671 667.185,125.292 666.727,125.75 C666.269,126.208 665.648,126.465 665,126.465 C664.352,126.465 663.731,126.208 663.273,125.75 C662.815,125.292 662.558,124.671 662.558,124.023 L662.558,114.256 C662.558,113.608 662.815,112.987 663.273,112.529 C663.731,112.071 664.352,111.814 665,111.814 C665.648,111.814 666.269,112.071 666.727,112.529 C667.185,112.987 667.442,113.608 667.442,114.256 L667.442,119.14 Z M672.326,119.14 L672.326,114.256 C672.326,112.313 671.554,110.45 670.18,109.076 C668.806,107.702 666.943,106.93 665,106.93 C663.057,106.93 661.194,107.702 659.82,109.076 C658.446,110.45 657.674,112.313 657.674,114.256 L657.674,124.023 C657.674,125.966 658.446,127.829 659.82,129.203 C661.194,130.577 663.057,131.349 665,131.349 C666.943,131.349 668.806,130.577 670.18,129.203 C671.554,127.829 672.326,125.966 672.326,124.023 L672.326,119.14 Z" />
        </g>
    </g>
</svg>