<?xml version="1.0" encoding="UTF-8"?>
<svg height="600" width="800" xmlns="http://www.w3.org/2000/svg" xmlns:xlink="http://www.w3.org/1999/xlink">
    <g id="Notes" font-family="'LucidaGrande', 'Lucida Grande', sans-serif" font-size="13">
        <rect fill="white" height="600.0" width="800.0" x="0.0" y="0.0" />
        <g font-size="13">
            <text x="18.0" y="176.0">Small</text>
            <text x="18.0" y="376.0">Medium</text>
            <text x="18.0" y="576.0">Large</text>
        </g>
        <g font-size="9">
            <text x="250.0" y="30.0">Ultralight</text>
            <text x="450.0" y="30.0">Regular</text>
            <text x="650.0" y="30.0">Black</text>
            <text id="template-version" fill="#505050" text-anchor="end" x="785.0" y="575.0">Template v.3.0</text>
            <a href="https://github.com/swhitty/SwiftDraw">
                <text fill="#505050" text-anchor="end" x="785.0" y="590.0">https://github.com/swhitty/SwiftDraw</text>
            </a>
        </g>
    </g>
    <g id="Guides" stroke="rgb(39, 170, 225)" stroke-width="0.5">
        <path id="Capline-S" d="M18,76 l800,0" />
        <path id="H-reference" d="M85,145.755 L87.685,145.755 L113.369,79.287 L114.052,79.287 L114.052,76 L112.148,76 L85,145.755 Z M95.693,121.536 L130.996,121.536 L130.263,119.313 L96.474,119.313 L95.693,121.536 Z M139.15,145.755 L141.787,145.755 L114.638,76 L113.466,76 L113.466,79.287 L139.15,145.755 Z" stroke="none" />
        <path id="Baseline-S" d="M18,146 l800,0" />
        <path id="left-margin-Ultralight-S" d="M219.998,56 l0,110" />
        <path id="right-margin-Ultralight-S" d="M310.002,56 l0,110" />
        <path id="left-margin-Regular-S" d="M419.998,56 l0,110" />
        <path id="right-margin-Regular-S" d="M510.002,56 l0,110" />
        <path id="left-margin-Black-S" d="M619.998,56 l0,110" />
        <path id="right-margin-Black-S" d="M710.002,56 l0,110" />
        <path id="Capline-M" d="M18,276 l800,0" />
        <path id="Baseline-M" d="M18,346 l800,0" />
        <path id="Capline-L" d="M18,476 l800,0" />
        <path id="Baseline-L" d="M18,546 l800,0" />
    </g>
    <g id="Symbols">
        <g id="Ultralight-S">
            <path d="M259.256,142.842 C257.525,137.197 254.857,132.898 251.22,130.011 C249.258,128.454 247.019,127.671 243.952,127.175 C243.32,127.073 242.959,127.023 241.69,126.857 C238.224,126.403 237.009,126.008 236.357,125.099 C235.66,124.126 235.821,122.235 236.962,119.33 C237.301,118.465 237.704,117.559 238.257,116.39 C238.435,116.013 239.174,114.476 239.355,114.092 C239.774,113.207 240.074,112.532 240.32,111.91 C241.65,108.534 239.951,106.152 236.625,104.14 C236.193,103.879 234.698,103.048 234.474,102.903 C234.405,102.859 234.401,102.856 234.514,103.011 C234.997,103.674 235.058,104.715 234.444,105.499 C234.732,105.131 239.046,102.685 246.014,99.144 C246.7,98.796 247.181,98.146 247.314,97.389 C249.267,86.251 256.219,80.884 268.906,80.884 C285.18,80.884 295.118,93.489 295.118,107.221 C295.118,117.708 285.889,128.377 273.896,130.663 C273.263,130.784 272.704,131.149 272.34,131.68 C270.158,134.857 272.294,139.106 277.82,145.198 C278.726,146.197 280.27,146.272 281.269,145.366 C282.268,144.46 282.343,142.916 281.437,141.917 C279.204,139.456 277.701,137.438 276.939,135.921 C276.417,134.883 276.371,134.436 276.366,134.444 L274.353,133.062 L274.81,135.461 C289.064,132.744 300.002,120.099 300.002,107.221 C300.002,91.012 288.166,76 268.906,76 C253.927,76 244.881,82.983 242.503,96.545 L243.802,94.79 C235.528,98.994 231.584,101.231 230.6,102.487 C229.764,103.553 229.843,104.892 230.566,105.886 C230.897,106.34 231.292,106.663 231.829,107.009 C232.216,107.259 233.795,108.136 234.098,108.319 C235.615,109.237 235.943,109.696 235.776,110.118 C235.578,110.621 235.316,111.209 234.94,112.006 C234.767,112.371 234.03,113.905 233.843,114.3 C233.246,115.56 232.802,116.559 232.416,117.545 C230.722,121.86 230.435,125.22 232.388,127.944 C234.144,130.394 236.209,131.064 241.055,131.699 C242.27,131.859 242.608,131.905 243.172,131.996 C245.488,132.371 247.006,132.901 248.183,133.836 C250.982,136.057 253.127,139.514 254.587,144.273 C254.982,145.563 256.348,146.287 257.637,145.892 C258.926,145.497 259.651,144.131 259.256,142.842 Z" />
            <path d="M255.311,94.925 C254.053,99.806 254.463,103.557 256.913,105.966 C259.058,108.076 262.426,109.346 266.995,109.92 L264.894,107.079 C263.731,113.751 265.638,117.962 270.94,117.416 C275.051,116.992 277.85,115.056 278.789,111.665 L276.436,111.013 L275.775,113.364 C282.045,115.126 286.35,113.257 286.963,107.769 C287.633,101.769 284.518,94.961 280.894,94.961 C280.127,94.961 279.371,94.896 278.821,94.751 C278.601,94.693 278.476,94.638 278.479,94.641 C278.692,94.81 278.878,95.156 278.878,95.534 C278.878,91.891 274.449,90.405 269.288,90.405 C268.757,90.405 268.849,90.445 268.711,90.31 C268.675,90.274 268.675,90.274 268.629,90.229 C267.249,88.861 265.721,88.504 262.817,89.068 C258.899,89.827 256.264,91.74 255.337,94.833 Z M260.015,96.236 C260.353,95.107 261.456,94.306 263.746,93.862 C265.166,93.587 265.053,93.56 265.193,93.699 C265.234,93.74 265.234,93.74 265.286,93.791 C266.312,94.801 267.438,95.289 269.288,95.289 C270.774,95.289 272.292,95.505 273.357,95.862 C273.802,96.011 274.113,96.167 274.247,96.278 C274.145,96.195 273.994,95.931 273.994,95.534 C273.994,97.724 275.508,98.929 277.578,99.474 C278.618,99.747 279.743,99.844 280.894,99.844 C280.498,99.844 280.244,99.748 280.079,99.638 C280.09,99.645 280.154,99.704 280.245,99.807 C280.548,100.15 280.892,100.696 281.196,101.36 C281.975,103.063 282.343,105.135 282.109,107.227 C281.886,109.226 280.791,109.701 277.097,108.662 C275.795,108.296 274.444,109.058 274.083,110.361 C273.737,111.611 272.705,112.324 270.44,112.558 C269.367,112.668 269.013,111.887 269.705,107.917 C269.944,106.543 268.987,105.249 267.604,105.075 C264,104.622 261.585,103.711 260.337,102.484 C259.395,101.557 259.172,99.514 260.04,96.144 Z" />
            <path d="M274.296,111.367 C272.051,112.76 269.796,114.581 268.715,116.089 C268.104,116.942 266.131,119.548 265.787,120.027 C264.724,121.508 264.088,122.63 263.722,123.846 C263.653,124.075 263.596,124.305 263.55,124.536 C263.287,125.859 264.146,127.145 265.468,127.408 C266.791,127.671 268.077,126.812 268.34,125.489 C268.355,125.413 268.375,125.334 268.399,125.251 C268.574,124.669 268.98,123.954 269.755,122.875 C270.05,122.463 272.024,119.855 272.685,118.934 C273.302,118.073 275.129,116.598 276.871,115.516 C278.017,114.805 278.37,113.3 277.658,112.154 C276.947,111.008 275.442,110.656 274.296,111.367 Z" />
        </g>
        <g id="Regular-S">
            <path d="M459.256,142.842 C457.525,137.197 454.857,132.898 451.22,130.011 C449.258,128.454 447.019,127.671 443.952,127.175 C443.32,127.073 442.959,127.023 441.69,126.857 C438.224,126.403 437.009,126.008 436.357,125.099 C435.66,124.126 435.821,122.235 436.962,119.33 C437.301,118.465 437.704,117.559 438.257,116.39 C438.435,116.013 439.174,114.476 439.355,114.092 C439.774,113.207 440.074,112.532 440.32,111.91 C441.65,108.534 439.951,106.152 436.625,104.14 C436.193,103.879 434.698,103.048 434.474,102.903 C434.405,102.859 434.401,102.856 434.514,103.011 C434.997,103.674 435.058,104.715 434.444,105.499 C434.732,105.131 439.046,102.685 446.014,99.144 C446.7,98.796 447.181,98.146 447.314,97.389 C449.267,86.251 456.219,80.884 468.906,80.884 C485.18,80.884 495.118,93.489 495.118,107.221 C495.118,117.708 485.889,128.377 473.896,130.663 C473.263,130.784 472.704,131.149 472.34,131.68 C470.158,134.857 472.294,139.106 477.82,145.198 C478.726,146.197 480.27,146.272 481.269,145.366 C482.268,144.46 482.343,142.916 481.437,141.917 C479.204,139.456 477.701,137.438 476.939,135.921 C476.417,134.883 476.371,134.436 476.366,134.444 L474.353,133.062 L474.81,135.461 C489.064,132.744 500.002,120.099 500.002,107.221 C500.002,91.012 488.166,76 468.906,76 C453.927,76 444.881,82.983 442.503,96.545 L443.802,94.79 C435.529,98.994 431.584,101.231 430.6,102.487 C429.764,103.553 429.843,104.892 430.566,105.886 C430.897,106.34 431.292,106.663 431.829,107.009 C432.216,107.259 433.795,108.136 434.098,108.319 C435.615,109.237 435.943,109.696 435.776,110.118 C435.578,110.621 435.316,111.209 434.94,112.006 C434.767,112.371 434.03,113.905 433.843,114.3 C433.246,115.56 432.802,116.559 432.416,117.545 C430.722,121.86 430.435,125.22 432.388,127.944 C434.144,130.394 436.209,131.064 441.055,131.699 C442.27,131.859 442.608,131.905 443.172,131.996 C445.488,132.371 447.006,132.901 448.183,133.836 C450.982,136.057 453.127,139.514 454.587,144.273 C454.982,145.563 456.348,146.287 457.637,145.892 C458.926,145.497 459.651,144.131 459.256,142.842 Z" />
            <path d="M455.311,94.925 C454.053,99.806 454.463,103.557 456.913,105.966 C459.058,108.076 462.426,109.346 466.995,109.92 L464.894,107.079 C463.731,113.751 465.638,117.962 470.94,117.416 C475.051,116.992 477.85,115.056 478.789,111.665 L476.436,111.013 L475.775,113.364 C482.045,115.126 486.35,113.257 486.963,107.769 C487.633,101.769 484.518,94.961 480.894,94.961 C480.127,94.961 479.371,94.896 478.821,94.751 C478.601,94.693 478.476,94.638 478.479,94.641 C478.692,94.81 478.878,95.156 478.878,95.534 C478.878,91.891 474.449,90.405 469.288,90.405 C468.757,90.405 468.849,90.445 468.711,90.31 C468.675,90.274 468.675,90.274 468.629,90.229 C467.249,88.861 465.721,88.504 462.817,89.068 C458.899,89.827 456.264,91.74 455.337,94.833 Z M460.015,96.236 C460.353,95.107 461.456,94.306 463.746,93.862 C465.166,93.587 465.053,93.56 465.193,93.699 C465.234,93.74 465.234,93.74 465.286,93.791 C466.312,94.801 467.438,95.289 469.288,95.289 C470.774,95.289 472.292,95.505 473.357,95.862 C473.802,96.011 474.113,96.167 474.247,96.278 C474.145,96.195 473.994,95.931 473.994,95.534 C473.994,97.724 475.508,98.929 477.578,99.474 C478.618,99.747 479.743,99.844 480.894,99.844 C480.498,99.844 480.244,99.748 480.079,99.638 C480.09,99.645 480.154,99.704 480.245,99.807 C480.548,100.15 480.892,100.696 481.196,101.36 C481.975,103.063 482.343,105.135 482.109,107.227 C481.886,109.226 480.791,109.701 477.097,108.662 C475.795,108.296 474.444,109.058 474.083,110.361 C473.737,111.611 472.705,112.324 470.44,112.558 C469.367,112.668 469.013,111.887 469.705,107.917 C469.944,106.543 468.987,105.249 467.604,105.075 C464,104.622 461.585,103.711 460.337,102.484 C459.395,101.557 459.172,99.514 460.04,96.144 Z" />
            <path d="M474.296,111.367 C472.051,112.76 469.796,114.581 468.715,116.089 C468.104,116.942 466.131,119.548 465.787,120.027 C464.724,121.508 464.088,122.63 463.722,123.846 C463.653,124.075 463.596,124.305 463.55,124.536 C463.287,125.859 464.146,127.145 465.468,127.408 C466.791,127.671 468.077,126.812 468.34,125.489 C468.355,125.413 468.375,125.334 468.399,125.251 C468.574,124.669 468.98,123.954 469.755,122.875 C470.05,122.463 472.024,119.855 472.685,118.934 C473.302,118.073 475.129,116.598 476.871,115.516 C478.017,114.805 478.37,113.3 477.658,112.154 C476.947,111.008 475.442,110.656 474.296,111.367 Z" />
        </g>
        <g id="Black-S">
            <path d="M659.256,142.842 C657.525,137.197 654.857,132.898 651.22,130.011 C649.258,128.454 647.019,127.671 643.952,127.175 C643.32,127.073 642.959,127.023 641.69,126.857 C638.224,126.403 637.009,126.008 636.357,125.099 C635.66,124.126 635.821,122.235 636.962,119.33 C637.301,118.465 637.704,117.559 638.257,116.39 C638.435,116.013 639.174,114.476 639.355,114.092 C639.774,113.207 640.074,112.532 640.32,111.91 C641.65,108.534 639.951,106.152 636.625,104.14 C636.193,103.879 634.698,103.048 634.473,102.903 C634.405,102.859 634.401,102.856 634.514,103.011 C634.997,103.674 635.058,104.715 634.444,105.499 C634.732,105.131 639.046,102.685 646.014,99.144 C646.699,98.796 647.181,98.146 647.313,97.389 C649.267,86.251 656.219,80.884 668.906,80.884 C685.18,80.884 695.118,93.489 695.118,107.221 C695.118,117.708 685.889,128.377 673.896,130.663 C673.263,130.784 672.704,131.149 672.34,131.68 C670.158,134.857 672.294,139.106 677.82,145.198 C678.726,146.197 680.27,146.272 681.269,145.366 C682.268,144.46 682.343,142.916 681.437,141.917 C679.204,139.456 677.701,137.438 676.939,135.921 C676.417,134.883 676.371,134.436 676.366,134.444 L674.353,133.062 L674.81,135.461 C689.064,132.744 700.002,120.099 700.002,107.221 C700.002,91.012 688.166,76 668.906,76 C653.927,76 644.881,82.983 642.503,96.545 L643.802,94.79 C635.528,98.994 631.584,101.231 630.6,102.487 C629.764,103.553 629.843,104.892 630.566,105.886 C630.897,106.34 631.292,106.663 631.829,107.009 C632.216,107.259 633.795,108.136 634.098,108.319 C635.615,109.237 635.943,109.696 635.776,110.118 C635.578,110.621 635.316,111.209 634.94,112.006 C634.767,112.371 634.03,113.905 633.843,114.3 C633.246,115.56 632.802,116.559 632.415,117.545 C630.722,121.86 630.435,125.22 632.388,127.944 C634.144,130.394 636.209,131.064 641.055,131.699 C642.27,131.859 642.608,131.905 643.172,131.996 C645.488,132.371 647.006,132.901 648.183,133.836 C650.982,136.057 653.127,139.514 654.587,144.273 C654.982,145.563 656.348,146.287 657.637,145.892 C658.926,145.497 659.651,144.131 659.256,142.842 Z" />
            <path d="M655.311,94.925 C654.053,99.806 654.463,103.557 656.913,105.966 C659.058,108.076 662.426,109.346 666.995,109.92 L664.894,107.079 C663.731,113.751 665.638,117.962 670.94,117.416 C675.051,116.992 677.85,115.056 678.789,111.665 L676.436,111.013 L675.775,113.364 C682.044,115.126 686.35,113.257 686.963,107.769 C687.633,101.769 684.518,94.961 680.894,94.961 C680.127,94.961 679.371,94.896 678.821,94.751 C678.601,94.693 678.476,94.638 678.479,94.641 C678.692,94.81 678.878,95.156 678.878,95.534 C678.878,91.891 674.449,90.405 669.288,90.405 C668.757,90.405 668.849,90.445 668.711,90.31 C668.675,90.274 668.675,90.274 668.629,90.229 C667.249,88.861 665.721,88.504 662.817,89.068 C658.899,89.827 656.264,91.74 655.337,94.833 Z M660.015,96.236 C660.353,95.107 661.456,94.306 663.746,93.862 C665.166,93.587 665.053,93.56 665.193,93.699 C665.234,93.74 665.234,93.74 665.286,93.791 C666.312,94.801 667.438,95.289 669.288,95.289 C670.774,95.289 672.292,95.505 673.357,95.862 C673.802,96.011 674.112,96.167 674.247,96.278 C674.145,96.195 673.994,95.931 673.994,95.534 C673.994,97.724 675.508,98.929 677.578,99.474 C678.618,99.747 679.743,99.844 680.894,99.844 C680.498,99.844 680.244,99.748 680.079,99.638 C680.09,99.645 680.154,99.704 680.245,99.807 C680.548,100.15 680.892,100.696 681.196,101.36 C681.975,103.063 682.343,105.135 682.109,107.227 C681.886,109.226 680.791,109.701 677.097,108.662 C675.795,108.296 674.444,109.058 674.083,110.361 C673.737,111.611 672.705,112.324 670.44,112.558 C669.367,112.668 669.013,111.887 669.705,107.917 C669.944,106.543 668.987,105.249 667.604,105.075 C664,104.622 661.585,103.711 660.337,102.484 C659.395,101.557 659.172,99.514 660.04,96.144 Z" />
            <path d="M674.296,111.367 C672.051,112.76 669.796,114.581 668.715,116.089 C668.104,116.942 666.131,119.548 665.787,120.027 C664.724,121.508 664.087,122.63 663.722,123.846 C663.653,124.075 663.596,124.305 663.55,124.536 C663.287,125.859 664.146,127.145 665.468,127.408 C666.791,127.671 668.076,126.812 668.34,125.489 C668.355,125.413 668.375,125.334 668.399,125.251 C668.574,124.669 668.98,123.954 669.755,122.875 C670.05,122.463 672.024,119.855 672.685,118.934 C673.302,118.073 675.129,116.598 676.871,115.516 C678.017,114.805 678.369,113.3 677.658,112.154 C676.947,111.008 675.442,110.656 674.296,111.367 Z" />
        </g>
    </g>
</svg>