<?xml version="1.0" encoding="UTF-8"?>
<svg height="600" width="800" xmlns="http://www.w3.org/2000/svg" xmlns:xlink="http://www.w3.org/1999/xlink">
    <g id="Notes" font-family="'LucidaGrande', 'Lucida Grande', sans-serif" font-size="13">
        <rect fill="white" height="600.0" width="800.0" x="0.0" y="0.0" />
        <g font-size="13">
            <text x="18.0" y="176.0">Small</text>
            <text x="18.0" y="376.0">Medium</text>
            <text x="18.0" y="576.0">Large</text>
        </g>
        <g font-size="9">
            <text x="250.0" y="30.0">Ultralight</text>
            <text x="450.0" y="30.0">Regular</text>
            <text x="650.0" y="30.0">Black</text>
            <text id="template-version" fill="#505050" text-anchor="end" x="785.0" y="575.0">Template v.3.0</text>
            <a href="https://github.com/swhitty/SwiftDraw">
                <text fill="#505050" text-anchor="end" x="785.0" y="590.0">https://github.com/swhitty/SwiftDraw</text>
            </a>
        </g>
    </g>
    <g id="Guides" stroke="rgb(39, 170, 225)" stroke-width="0.5">
        <path id="Capline-S" d="M18,76 l800,0" />
        <path id="H-reference" d="M85,145.755 L87.685,145.755 L113.369,79.287 L114.052,79.287 L114.052,76 L112.148,76 L85,145.755 Z M95.693,121.536 L130.996,121.536 L130.263,119.313 L96.474,119.313 L95.693,121.536 Z M139.15,145.755 L141.787,145.755 L114.638,76 L113.466,76 L113.466,79.287 L139.15,145.755 Z" stroke="none" />
        <path id="Baseline-S" d="M18,146 l800,0" />
        <path id="left-margin-Ultralight-S" d="M220,56 l0,110" />
        <path id="right-margin-Ultralight-S" d="M310,56 l0,110" />
        <path id="left-margin-Regular-S" d="M420,56 l0,110" />
        <path id="right-margin-Regular-S" d="M510,56 l0,110" />
        <path id="left-margin-Black-S" d="M620,56 l0,110" />
        <path id="right-margin-Black-S" d="M710,56 l0,110" />
        <path id="Capline-M" d="M18,276 l800,0" />
        <path id="Baseline-M" d="M18,346 l800,0" />
        <path id="Capline-L" d="M18,476 l800,0" />
        <path id="Baseline-L" d="M18,546 l800,0" />
    </g>
    <g id="Symbols">
        <g id="Ultralight-S">
            <path d="M261.41,146 C278.758,146 292.82,131.937 292.82,114.59 C292.82,97.242 278.758,83.179 261.41,83.179 C244.063,83.179 230,97.242 230,114.59 C230,131.937 244.063,146 261.41,146 Z M261.41,140.615 C247.037,140.615 235.385,128.963 235.385,114.59 C235.385,100.216 247.037,88.564 261.41,88.564 C275.784,88.564 287.436,100.216 287.436,114.59 C287.436,128.963 275.784,140.615 261.41,140.615 Z" />
            <path d="M261.41,124.462 C266.862,124.462 271.282,120.042 271.282,114.59 C271.282,109.138 266.862,104.718 261.41,104.718 C255.958,104.718 251.538,109.138 251.538,114.59 C251.538,120.042 255.958,124.462 261.41,124.462 Z M261.41,119.077 C258.932,119.077 256.923,117.068 256.923,114.59 C256.923,112.112 258.932,110.103 261.41,110.103 C263.888,110.103 265.897,112.112 265.897,114.59 C265.897,117.068 263.888,119.077 261.41,119.077 Z" />
            <path d="M261.41,81.385 C265.771,81.385 270.089,82.244 274.117,83.912 C278.146,85.581 281.807,88.027 284.89,91.11 C287.973,94.193 290.419,97.854 292.088,101.883 C293.757,105.911 294.615,110.229 294.615,114.59 L297.308,111.897 L282.96,111.897 L285.653,114.59 C285.653,111.406 285.026,108.254 283.807,105.313 C282.589,102.371 280.803,99.699 278.552,97.448 C276.301,95.197 273.629,93.411 270.688,92.193 C267.746,90.974 264.594,90.347 261.41,90.347 L264.103,93.04 L264.103,78.692 L261.41,81.385 Z M261.41,76 C259.923,76 258.718,77.205 258.718,78.692 L258.718,93.04 C258.718,94.527 259.923,95.732 261.41,95.732 C263.887,95.732 266.339,96.22 268.627,97.167 C270.915,98.115 272.994,99.504 274.745,101.255 C276.496,103.006 277.885,105.085 278.833,107.373 C279.78,109.661 280.268,112.113 280.268,114.59 C280.268,116.077 281.473,117.282 282.96,117.282 L297.308,117.282 C298.795,117.282 300,116.077 300,114.59 C300,109.522 299.002,104.504 297.063,99.822 C295.123,95.14 292.281,90.886 288.697,87.303 C285.114,83.719 280.86,80.877 276.178,78.937 C271.496,76.998 266.478,76 261.41,76 Z" />
        </g>
        <g id="Regular-S">
            <path d="M461.41,146 C478.758,146 492.821,131.937 492.821,114.59 C492.821,97.242 478.758,83.179 461.41,83.179 C444.063,83.179 430,97.242 430,114.59 C430,131.937 444.063,146 461.41,146 Z M461.41,140.615 C447.037,140.615 435.385,128.963 435.385,114.59 C435.385,100.216 447.037,88.564 461.41,88.564 C475.784,88.564 487.436,100.216 487.436,114.59 C487.436,128.963 475.784,140.615 461.41,140.615 Z" />
            <path d="M461.41,124.462 C466.862,124.462 471.282,120.042 471.282,114.59 C471.282,109.138 466.862,104.718 461.41,104.718 C455.958,104.718 451.538,109.138 451.538,114.59 C451.538,120.042 455.958,124.462 461.41,124.462 Z M461.41,119.077 C458.932,119.077 456.923,117.068 456.923,114.59 C456.923,112.112 458.932,110.103 461.41,110.103 C463.888,110.103 465.897,112.112 465.897,114.59 C465.897,117.068 463.888,119.077 461.41,119.077 Z" />
            <path d="M461.41,81.385 C465.771,81.385 470.089,82.244 474.117,83.912 C478.146,85.581 481.807,88.027 484.89,91.11 C487.973,94.193 490.419,97.854 492.088,101.883 C493.757,105.911 494.615,110.229 494.615,114.59 L497.308,111.897 L482.96,111.897 L485.653,114.59 C485.653,111.406 485.026,108.254 483.807,105.313 C482.589,102.371 480.803,99.699 478.552,97.448 C476.301,95.197 473.629,93.411 470.688,92.193 C467.746,90.974 464.594,90.347 461.41,90.347 L464.103,93.04 L464.103,78.692 L461.41,81.385 Z M461.41,76 C459.923,76 458.718,77.205 458.718,78.692 L458.718,93.04 C458.718,94.527 459.923,95.732 461.41,95.732 C463.887,95.732 466.339,96.22 468.627,97.167 C470.915,98.115 472.994,99.504 474.745,101.255 C476.496,103.006 477.885,105.085 478.833,107.373 C479.78,109.661 480.268,112.113 480.268,114.59 C480.268,116.077 481.473,117.282 482.96,117.282 L497.308,117.282 C498.795,117.282 500,116.077 500,114.59 C500,109.522 499.002,104.504 497.063,99.822 C495.123,95.14 492.281,90.886 488.697,87.303 C485.114,83.719 480.86,80.877 476.178,78.937 C471.496,76.998 466.478,76 461.41,76 Z" />
        </g>
        <g id="Black-S">
            <path d="M661.41,146 C678.758,146 692.82,131.937 692.82,114.59 C692.82,97.242 678.758,83.179 661.41,83.179 C644.063,83.179 630,97.242 630,114.59 C630,131.937 644.063,146 661.41,146 Z M661.41,140.615 C647.037,140.615 635.385,128.963 635.385,114.59 C635.385,100.216 647.037,88.564 661.41,88.564 C675.784,88.564 687.436,100.216 687.436,114.59 C687.436,128.963 675.784,140.615 661.41,140.615 Z" />
            <path d="M661.41,124.462 C666.862,124.462 671.282,120.042 671.282,114.59 C671.282,109.138 666.862,104.718 661.41,104.718 C655.958,104.718 651.538,109.138 651.538,114.59 C651.538,120.042 655.958,124.462 661.41,124.462 Z M661.41,119.077 C658.932,119.077 656.923,117.068 656.923,114.59 C656.923,112.112 658.932,110.103 661.41,110.103 C663.888,110.103 665.897,112.112 665.897,114.59 C665.897,117.068 663.888,119.077 661.41,119.077 Z" />
            <path d="M661.41,81.385 C665.771,81.385 670.089,82.244 674.117,83.912 C678.146,85.581 681.807,88.027 684.89,91.11 C687.973,94.193 690.419,97.854 692.088,101.883 C693.756,105.911 694.615,110.229 694.615,114.59 L697.308,111.897 L682.96,111.897 L685.652,114.59 C685.652,111.406 685.026,108.254 683.807,105.313 C682.589,102.371 680.803,99.699 678.552,97.448 C676.301,95.197 673.629,93.411 670.688,92.193 C667.746,90.974 664.594,90.347 661.41,90.347 L664.103,93.04 L664.103,78.692 L661.41,81.385 Z M661.41,76 C659.923,76 658.718,77.205 658.718,78.692 L658.718,93.04 C658.718,94.527 659.923,95.732 661.41,95.732 C663.887,95.732 666.339,96.22 668.627,97.167 C670.915,98.115 672.994,99.504 674.745,101.255 C676.496,103.006 677.885,105.085 678.833,107.373 C679.78,109.661 680.268,112.113 680.268,114.59 C680.268,116.077 681.473,117.282 682.96,117.282 L697.308,117.282 C698.795,117.282 700,116.077 700,114.59 C700,109.522 699.002,104.504 697.062,99.822 C695.123,95.14 692.281,90.886 688.697,87.303 C685.114,83.719 680.86,80.877 676.178,78.937 C671.496,76.998 666.478,76 661.41,76 Z" />
        </g>
    </g>
</svg>