<?xml version="1.0" encoding="UTF-8"?>
<svg height="600" width="800" xmlns="http://www.w3.org/2000/svg" xmlns:xlink="http://www.w3.org/1999/xlink">
    <g id="Notes" font-family="'LucidaGrande', 'Lucida Grande', sans-serif" font-size="13">
        <rect fill="white" height="600.0" width="800.0" x="0.0" y="0.0" />
        <g font-size="13">
            <text x="18.0" y="176.0">Small</text>
            <text x="18.0" y="376.0">Medium</text>
            <text x="18.0" y="576.0">Large</text>
        </g>
        <g font-size="9">
            <text x="250.0" y="30.0">Ultralight</text>
            <text x="450.0" y="30.0">Regular</text>
            <text x="650.0" y="30.0">Black</text>
            <text id="template-version" fill="#505050" text-anchor="end" x="785.0" y="575.0">Template v.3.0</text>
            <a href="https://github.com/swhitty/SwiftDraw">
                <text fill="#505050" text-anchor="end" x="785.0" y="590.0">https://github.com/swhitty/SwiftDraw</text>
            </a>
        </g>
    </g>
    <g id="Guides" stroke="rgb(39, 170, 225)" stroke-width="0.5">
        <path id="Capline-S" d="M18,76 l800,0" />
        <path id="H-reference" d="M85,145.755 L87.685,145.755 L113.369,79.287 L114.052,79.287 L114.052,76 L112.148,76 L85,145.755 Z M95.693,121.536 L130.996,121.536 L130.263,119.313 L96.474,119.313 L95.693,121.536 Z M139.15,145.755 L141.787,145.755 L114.638,76 L113.466,76 L113.466,79.287 L139.15,145.755 Z" stroke="none" />
        <path id="Baseline-S" d="M18,146 l800,0" />
        <path id="left-margin-Ultralight-S" d="M221,56 l0,110" />
        <path id="right-margin-Ultralight-S" d="M309,56 l0,110" />
        <path id="left-margin-Regular-S" d="M421,56 l0,110" />
        <path id="right-margin-Regular-S" d="M509,56 l0,110" />
        <path id="left-margin-Black-S" d="M621,56 l0,110" />
        <path id="right-margin-Black-S" d="M709,56 l0,110" />
        <path id="Capline-M" d="M18,276 l800,0" />
        <path id="Baseline-M" d="M18,346 l800,0" />
        <path id="Capline-L" d="M18,476 l800,0" />
        <path id="Baseline-L" d="M18,546 l800,0" />
    </g>
    <g id="Symbols">
        <g id="Ultralight-S">
            <path d="M238.537,116.122 C238.537,109.993 243.505,105.024 249.634,105.024 L280.366,105.024 C286.495,105.024 291.463,109.993 291.463,116.122 L291.463,129.78 C291.463,132.138 289.552,134.049 287.195,134.049 L242.805,134.049 C240.448,134.049 238.537,132.138 238.537,129.78 L238.537,116.122 Z M233.415,116.122 L233.415,129.78 C233.415,134.967 237.619,139.171 242.805,139.171 L287.195,139.171 C292.381,139.171 296.585,134.967 296.585,129.78 L296.585,116.122 C296.585,107.164 289.324,99.902 280.366,99.902 L249.634,99.902 C240.676,99.902 233.415,107.164 233.415,116.122 Z" />
            <path d="M284.634,102.463 L284.634,90.512 L282.074,93.073 C294.024,93.073 294.024,76 282.074,76 C274.604,76 274.604,76 265,76 C255.397,76 255.397,76 247.927,76 C242.571,76 238.963,79.788 238.963,84.537 C238.963,89.285 242.571,93.073 247.927,93.073 L245.366,90.512 L245.366,102.463 C245.366,103.878 246.513,105.024 247.927,105.024 C249.342,105.024 250.488,103.878 250.488,102.463 L250.488,90.512 C250.488,89.098 249.342,87.951 247.927,87.951 C245.457,87.951 244.085,86.511 244.085,84.537 C244.085,82.563 245.457,81.122 247.927,81.122 C255.397,81.122 255.397,81.122 265,81.122 C274.604,81.122 274.604,81.122 282.074,81.122 C287.195,81.122 287.195,87.951 282.074,87.951 C280.659,87.951 279.513,89.098 279.513,90.512 L279.513,102.463 C279.513,103.878 280.659,105.024 282.074,105.024 C283.488,105.024 284.634,103.878 284.634,102.463 Z" />
            <path d="M259.774,86.994 L256.36,90.409 C255.36,91.409 255.36,93.03 256.36,94.03 C257.36,95.031 258.981,95.031 259.982,94.03 L263.396,90.616 C264.396,89.616 264.396,87.994 263.396,86.994 C262.396,85.994 260.775,85.994 259.774,86.994 Z" />
            <path d="M270.018,86.994 L266.604,90.409 C265.604,91.409 265.604,93.03 266.604,94.03 C267.604,95.031 269.225,95.031 270.226,94.03 L273.64,90.616 C274.64,89.616 274.64,87.994 273.64,86.994 C272.64,85.994 271.018,85.994 270.018,86.994 Z" />
            <path d="M260.732,119.537 C260.732,117.179 262.643,115.268 265,115.268 C267.357,115.268 269.268,117.179 269.268,119.537 C269.268,121.894 267.357,123.805 265,123.805 C262.643,123.805 260.732,121.894 260.732,119.537 Z M255.61,119.537 C255.61,124.723 259.814,128.927 265,128.927 C270.186,128.927 274.39,124.723 274.39,119.537 C274.39,114.35 270.186,110.146 265,110.146 C259.814,110.146 255.61,114.351 255.61,119.537 Z" />
            <path d="M247.073,136.61 L247.073,143.439 C247.073,144.853 248.22,146 249.634,146 C251.049,146 252.195,144.853 252.195,143.439 L252.195,136.61 C252.195,135.195 251.049,134.049 249.634,134.049 C248.22,134.049 247.073,135.195 247.073,136.61 Z" />
            <path d="M277.805,136.61 L277.805,143.439 C277.805,144.853 278.951,146 280.366,146 C281.78,146 282.927,144.853 282.927,143.439 L282.927,136.61 C282.927,135.195 281.78,134.049 280.366,134.049 C278.951,134.049 277.805,135.195 277.805,136.61 Z" />
        </g>
        <g id="Regular-S">
            <path d="M438.537,116.122 C438.537,109.993 443.505,105.024 449.634,105.024 L480.366,105.024 C486.495,105.024 491.463,109.993 491.463,116.122 L491.463,129.78 C491.463,132.138 489.552,134.049 487.195,134.049 L442.805,134.049 C440.448,134.049 438.537,132.138 438.537,129.78 L438.537,116.122 Z M433.415,116.122 L433.415,129.78 C433.415,134.967 437.619,139.171 442.805,139.171 L487.195,139.171 C492.381,139.171 496.585,134.967 496.585,129.78 L496.585,116.122 C496.585,107.164 489.324,99.902 480.366,99.902 L449.634,99.902 C440.676,99.902 433.415,107.164 433.415,116.122 Z" />
            <path d="M484.634,102.463 L484.634,90.512 L482.074,93.073 C494.024,93.073 494.024,76 482.074,76 C474.604,76 474.604,76 465,76 C455.397,76 455.397,76 447.927,76 C442.571,76 438.964,79.788 438.963,84.537 C438.963,89.285 442.571,93.073 447.927,93.073 L445.366,90.512 L445.366,102.463 C445.366,103.878 446.513,105.024 447.927,105.024 C449.342,105.024 450.488,103.878 450.488,102.463 L450.488,90.512 C450.488,89.098 449.342,87.951 447.927,87.951 C445.457,87.951 444.085,86.511 444.085,84.537 C444.085,82.563 445.457,81.122 447.927,81.122 C455.397,81.122 455.397,81.122 465,81.122 C474.604,81.122 474.604,81.122 482.074,81.122 C487.195,81.122 487.195,87.951 482.074,87.951 C480.659,87.951 479.513,89.098 479.513,90.512 L479.513,102.463 C479.513,103.878 480.659,105.024 482.074,105.024 C483.488,105.024 484.634,103.878 484.634,102.463 Z" />
            <path d="M459.774,86.994 L456.36,90.409 C455.36,91.409 455.36,93.03 456.36,94.03 C457.36,95.031 458.981,95.031 459.982,94.03 L463.396,90.616 C464.396,89.616 464.396,87.994 463.396,86.994 C462.396,85.994 460.775,85.994 459.774,86.994 Z" />
            <path d="M470.018,86.994 L466.604,90.409 C465.604,91.409 465.604,93.03 466.604,94.03 C467.604,95.031 469.225,95.031 470.226,94.03 L473.64,90.616 C474.64,89.616 474.64,87.994 473.64,86.994 C472.64,85.994 471.018,85.994 470.018,86.994 Z" />
            <path d="M460.732,119.537 C460.732,117.179 462.643,115.268 465,115.268 C467.357,115.268 469.268,117.179 469.268,119.537 C469.268,121.894 467.357,123.805 465,123.805 C462.643,123.805 460.732,121.894 460.732,119.537 Z M455.61,119.537 C455.61,124.723 459.814,128.927 465,128.927 C470.186,128.927 474.39,124.723 474.39,119.537 C474.39,114.35 470.186,110.146 465,110.146 C459.814,110.146 455.61,114.351 455.61,119.537 Z" />
            <path d="M447.073,136.61 L447.073,143.439 C447.073,144.853 448.22,146 449.634,146 C451.049,146 452.195,144.853 452.195,143.439 L452.195,136.61 C452.195,135.195 451.049,134.049 449.634,134.049 C448.22,134.049 447.073,135.195 447.073,136.61 Z" />
            <path d="M477.805,136.61 L477.805,143.439 C477.805,144.853 478.951,146 480.366,146 C481.78,146 482.927,144.853 482.927,143.439 L482.927,136.61 C482.927,135.195 481.78,134.049 480.366,134.049 C478.951,134.049 477.805,135.195 477.805,136.61 Z" />
        </g>
        <g id="Black-S">
            <path d="M638.537,116.122 C638.537,109.993 643.505,105.024 649.634,105.024 L680.366,105.024 C686.495,105.024 691.463,109.993 691.463,116.122 L691.463,129.78 C691.463,132.138 689.552,134.049 687.195,134.049 L642.805,134.049 C640.448,134.049 638.537,132.138 638.537,129.78 L638.537,116.122 Z M633.415,116.122 L633.415,129.78 C633.415,134.967 637.619,139.171 642.805,139.171 L687.195,139.171 C692.381,139.171 696.585,134.967 696.585,129.78 L696.585,116.122 C696.585,107.164 689.324,99.902 680.366,99.902 L649.634,99.902 C640.676,99.902 633.415,107.164 633.415,116.122 Z" />
            <path d="M684.635,102.463 L684.635,90.512 L682.074,93.073 C694.024,93.073 694.024,76 682.074,76 C674.604,76 674.604,76 665,76 C655.397,76 655.397,76 647.927,76 C642.571,76 638.964,79.788 638.963,84.537 C638.963,89.285 642.571,93.073 647.927,93.073 L645.366,90.512 L645.366,102.463 C645.366,103.878 646.513,105.024 647.927,105.024 C649.342,105.024 650.488,103.878 650.488,102.463 L650.488,90.512 C650.488,89.098 649.342,87.951 647.927,87.951 C645.457,87.951 644.085,86.511 644.085,84.537 C644.085,82.563 645.458,81.122 647.927,81.122 C655.397,81.122 655.397,81.122 665,81.122 C674.604,81.122 674.604,81.122 682.074,81.122 C687.195,81.122 687.195,87.951 682.074,87.951 C680.659,87.951 679.513,89.098 679.513,90.512 L679.513,102.463 C679.513,103.878 680.659,105.024 682.074,105.024 C683.488,105.024 684.635,103.878 684.635,102.463 Z" />
            <path d="M659.775,86.994 L656.36,90.409 C655.36,91.409 655.36,93.03 656.36,94.03 C657.36,95.031 658.982,95.031 659.982,94.03 L663.396,90.616 C664.396,89.616 664.396,87.994 663.396,86.994 C662.396,85.994 660.775,85.994 659.775,86.994 Z" />
            <path d="M670.018,86.994 L666.604,90.409 C665.604,91.409 665.604,93.03 666.604,94.03 C667.604,95.031 669.225,95.031 670.226,94.03 L673.64,90.616 C674.64,89.616 674.64,87.994 673.64,86.994 C672.64,85.994 671.019,85.994 670.018,86.994 Z" />
            <path d="M660.732,119.537 C660.732,117.179 662.643,115.268 665,115.268 C667.357,115.268 669.268,117.179 669.268,119.537 C669.268,121.894 667.357,123.805 665,123.805 C662.643,123.805 660.732,121.894 660.732,119.537 Z M655.61,119.537 C655.61,124.723 659.814,128.927 665,128.927 C670.186,128.927 674.39,124.723 674.39,119.537 C674.39,114.35 670.186,110.146 665,110.146 C659.814,110.146 655.61,114.351 655.61,119.537 Z" />
            <path d="M647.073,136.61 L647.073,143.439 C647.073,144.853 648.22,146 649.634,146 C651.049,146 652.195,144.853 652.195,143.439 L652.195,136.61 C652.195,135.195 651.049,134.049 649.634,134.049 C648.22,134.049 647.073,135.195 647.073,136.61 Z" />
            <path d="M677.805,136.61 L677.805,143.439 C677.805,144.853 678.951,146 680.366,146 C681.78,146 682.927,144.853 682.927,143.439 L682.927,136.61 C682.927,135.195 681.78,134.049 680.366,134.049 C678.951,134.049 677.805,135.195 677.805,136.61 Z" />
        </g>
    </g>
</svg>