<?xml version="1.0" encoding="UTF-8"?>
<svg height="600" width="800" xmlns="http://www.w3.org/2000/svg" xmlns:xlink="http://www.w3.org/1999/xlink">
    <g id="Notes" font-family="'LucidaGrande', 'Lucida Grande', sans-serif" font-size="13">
        <rect fill="white" height="600.0" width="800.0" x="0.0" y="0.0" />
        <g font-size="13">
            <text x="18.0" y="176.0">Small</text>
            <text x="18.0" y="376.0">Medium</text>
            <text x="18.0" y="576.0">Large</text>
        </g>
        <g font-size="9">
            <text x="250.0" y="30.0">Ultralight</text>
            <text x="450.0" y="30.0">Regular</text>
            <text x="650.0" y="30.0">Black</text>
            <text id="template-version" fill="#505050" text-anchor="end" x="785.0" y="575.0">Template v.3.0</text>
            <a href="https://github.com/swhitty/SwiftDraw">
                <text fill="#505050" text-anchor="end" x="785.0" y="590.0">https://github.com/swhitty/SwiftDraw</text>
            </a>
        </g>
    </g>
    <g id="Guides" stroke="rgb(39, 170, 225)" stroke-width="0.5">
        <path id="Capline-S" d="M18,76 l800,0" />
        <path id="H-reference" d="M85,145.755 L87.685,145.755 L113.369,79.287 L114.052,79.287 L114.052,76 L112.148,76 L85,145.755 Z M95.693,121.536 L130.996,121.536 L130.263,119.313 L96.474,119.313 L95.693,121.536 Z M139.15,145.755 L141.787,145.755 L114.638,76 L113.466,76 L113.466,79.287 L139.15,145.755 Z" stroke="none" />
        <path id="Baseline-S" d="M18,146 l800,0" />
        <path id="left-margin-Ultralight-S" d="M220,56 l0,110" />
        <path id="right-margin-Ultralight-S" d="M310,56 l0,110" />
        <path id="left-margin-Regular-S" d="M420,56 l0,110" />
        <path id="right-margin-Regular-S" d="M510,56 l0,110" />
        <path id="left-margin-Black-S" d="M620,56 l0,110" />
        <path id="right-margin-Black-S" d="M710,56 l0,110" />
        <path id="Capline-M" d="M18,276 l800,0" />
        <path id="Baseline-M" d="M18,346 l800,0" />
        <path id="Capline-L" d="M18,476 l800,0" />
        <path id="Baseline-L" d="M18,546 l800,0" />
    </g>
    <g id="Symbols">
        <g id="Ultralight-S">
            <path d="M265,142.744 C274.596,142.744 281.494,138.931 285.765,132.4 C288.786,127.78 290.233,122.077 290.233,117.512 C290.233,108.566 290.233,108.566 290.233,94.721 C290.233,93.372 289.139,92.279 287.791,92.279 L242.209,92.279 C240.861,92.279 239.767,93.372 239.767,94.721 C239.767,104.123 239.767,104.123 239.767,117.512 C239.767,122.014 241.219,127.722 244.233,132.347 C248.509,138.907 255.407,142.744 265,142.744 Z M265,137.86 C257.079,137.86 251.71,134.874 248.325,129.68 C245.869,125.912 244.651,121.124 244.651,117.512 C244.651,104.123 244.651,104.123 244.651,94.721 L242.209,97.163 L287.791,97.163 L285.349,94.721 C285.349,108.566 285.349,108.566 285.349,117.512 C285.349,121.186 284.136,125.967 281.677,129.727 C278.299,134.892 272.931,137.86 265,137.86 Z" />
            <path d="M230.715,86.68 L240.483,96.448 C241.436,97.401 242.982,97.401 243.936,96.448 C244.89,95.494 244.89,93.948 243.936,92.994 L234.169,83.227 C233.215,82.273 231.669,82.273 230.715,83.227 C229.762,84.18 229.762,85.727 230.715,86.68 Z" />
            <path d="M295.831,83.227 L286.064,92.994 C285.11,93.948 285.11,95.494 286.064,96.448 C287.018,97.401 288.564,97.401 289.517,96.448 L299.285,86.68 C300.238,85.727 300.238,84.18 299.285,83.227 C298.331,82.273 296.785,82.273 295.831,83.227 Z" />
            <path d="M232.442,118.326 L242.209,118.326 C243.558,118.326 244.651,117.232 244.651,115.884 C244.651,114.535 243.558,113.442 242.209,113.442 L232.442,113.442 C231.093,113.442 230,114.535 230,115.884 C230,117.232 231.093,118.326 232.442,118.326 Z" />
            <path d="M297.558,113.442 L287.791,113.442 C286.442,113.442 285.349,114.535 285.349,115.884 C285.349,117.232 286.442,118.326 287.791,118.326 L297.558,118.326 C298.907,118.326 300,117.232 300,115.884 C300,114.535 298.907,113.442 297.558,113.442 Z" />
            <path d="M239.052,145.285 L248.82,135.517 C249.773,134.564 249.773,133.018 248.82,132.064 C247.866,131.11 246.32,131.11 245.366,132.064 L235.599,141.831 C234.645,142.785 234.645,144.331 235.599,145.285 C236.553,146.238 238.099,146.238 239.052,145.285 Z" />
            <path d="M294.401,141.831 L284.634,132.064 C283.68,131.11 282.134,131.11 281.18,132.064 C280.227,133.018 280.227,134.564 281.18,135.517 L290.948,145.285 C291.901,146.238 293.447,146.238 294.401,145.285 C295.355,144.331 295.355,142.785 294.401,141.831 Z" />
            <path d="M267.442,140.302 L267.442,94.721 C267.442,93.372 266.349,92.279 265,92.279 C263.651,92.279 262.558,93.372 262.558,94.721 L262.558,140.302 C262.558,141.651 263.651,142.744 265,142.744 C266.349,142.744 267.442,141.651 267.442,140.302 Z" />
            <path d="M248.652,137.358 C252.823,140.848 258.272,142.744 265,142.744 C271.783,142.744 277.263,140.831 281.443,137.308 C282.474,136.439 282.606,134.899 281.737,133.867 C280.868,132.836 279.327,132.705 278.296,133.574 C275.016,136.338 270.655,137.86 265,137.86 C259.395,137.86 255.06,136.352 251.786,133.612 C250.752,132.747 249.212,132.884 248.347,133.918 C247.481,134.952 247.618,136.492 248.652,137.358 Z" />
            <path d="M280.465,92.008 C280.465,83.189 273.564,76 265,76 C256.436,76 249.535,83.189 249.535,92.008 L249.535,94.721 C249.535,96.07 250.628,97.163 251.977,97.163 L278.023,97.163 C279.372,97.163 280.465,96.07 280.465,94.721 L280.465,92.008 Z M275.581,92.008 L275.581,94.721 L278.023,92.279 L251.977,92.279 L254.419,94.721 L254.419,92.008 C254.419,85.842 259.179,80.884 265,80.884 C270.821,80.884 275.581,85.842 275.581,92.008 Z" />
        </g>
        <g id="Regular-S">
            <path d="M465,142.744 C474.596,142.744 481.494,138.931 485.765,132.4 C488.786,127.78 490.233,122.077 490.233,117.512 C490.233,108.566 490.233,108.566 490.233,94.721 C490.233,93.372 489.139,92.279 487.791,92.279 L442.209,92.279 C440.861,92.279 439.767,93.372 439.767,94.721 C439.767,104.123 439.767,104.123 439.767,117.512 C439.767,122.014 441.219,127.722 444.233,132.347 C448.509,138.907 455.407,142.744 465,142.744 Z M465,137.86 C457.079,137.86 451.71,134.874 448.325,129.68 C445.869,125.912 444.651,121.124 444.651,117.512 C444.651,104.123 444.651,104.123 444.651,94.721 L442.209,97.163 L487.791,97.163 L485.349,94.721 C485.349,108.566 485.349,108.566 485.349,117.512 C485.349,121.186 484.136,125.967 481.677,129.727 C478.299,134.892 472.931,137.86 465,137.86 Z" />
            <path d="M430.715,86.68 L440.483,96.448 C441.436,97.401 442.982,97.401 443.936,96.448 C444.89,95.494 444.89,93.948 443.936,92.994 L434.169,83.227 C433.215,82.273 431.669,82.273 430.715,83.227 C429.762,84.18 429.762,85.727 430.715,86.68 Z" />
            <path d="M495.831,83.227 L486.064,92.994 C485.11,93.948 485.11,95.494 486.064,96.448 C487.018,97.401 488.564,97.401 489.517,96.448 L499.285,86.68 C500.238,85.727 500.238,84.18 499.285,83.227 C498.331,82.273 496.785,82.273 495.831,83.227 Z" />
            <path d="M432.442,118.326 L442.209,118.326 C443.558,118.326 444.651,117.232 444.651,115.884 C444.651,114.535 443.558,113.442 442.209,113.442 L432.442,113.442 C431.093,113.442 430,114.535 430,115.884 C430,117.232 431.093,118.326 432.442,118.326 Z" />
            <path d="M497.558,113.442 L487.791,113.442 C486.442,113.442 485.349,114.535 485.349,115.884 C485.349,117.232 486.442,118.326 487.791,118.326 L497.558,118.326 C498.907,118.326 500,117.232 500,115.884 C500,114.535 498.907,113.442 497.558,113.442 Z" />
            <path d="M439.052,145.285 L448.82,135.517 C449.773,134.564 449.773,133.018 448.82,132.064 C447.866,131.11 446.32,131.11 445.366,132.064 L435.599,141.831 C434.645,142.785 434.645,144.331 435.599,145.285 C436.553,146.238 438.099,146.238 439.052,145.285 Z" />
            <path d="M494.401,141.831 L484.634,132.064 C483.68,131.11 482.134,131.11 481.18,132.064 C480.227,133.018 480.227,134.564 481.18,135.517 L490.948,145.285 C491.901,146.238 493.447,146.238 494.401,145.285 C495.355,144.331 495.355,142.785 494.401,141.831 Z" />
            <path d="M467.442,140.302 L467.442,94.721 C467.442,93.372 466.349,92.279 465,92.279 C463.651,92.279 462.558,93.372 462.558,94.721 L462.558,140.302 C462.558,141.651 463.651,142.744 465,142.744 C466.349,142.744 467.442,141.651 467.442,140.302 Z" />
            <path d="M448.652,137.358 C452.823,140.848 458.272,142.744 465,142.744 C471.783,142.744 477.263,140.831 481.443,137.308 C482.474,136.439 482.606,134.899 481.737,133.867 C480.868,132.836 479.327,132.705 478.296,133.574 C475.016,136.338 470.655,137.86 465,137.86 C459.395,137.86 455.06,136.352 451.786,133.612 C450.752,132.747 449.212,132.884 448.347,133.918 C447.481,134.952 447.618,136.492 448.652,137.358 Z" />
            <path d="M480.465,92.008 C480.465,83.189 473.564,76 465,76 C456.436,76 449.535,83.189 449.535,92.008 L449.535,94.721 C449.535,96.07 450.628,97.163 451.977,97.163 L478.023,97.163 C479.372,97.163 480.465,96.07 480.465,94.721 L480.465,92.008 Z M475.581,92.008 L475.581,94.721 L478.023,92.279 L451.977,92.279 L454.419,94.721 L454.419,92.008 C454.419,85.842 459.179,80.884 465,80.884 C470.821,80.884 475.581,85.842 475.581,92.008 Z" />
        </g>
        <g id="Black-S">
            <path d="M665,142.744 C674.596,142.744 681.494,138.931 685.765,132.4 C688.786,127.78 690.233,122.077 690.233,117.512 C690.233,108.566 690.233,108.566 690.233,94.721 C690.233,93.372 689.139,92.279 687.791,92.279 L642.209,92.279 C640.861,92.279 639.767,93.372 639.767,94.721 C639.767,104.123 639.767,104.123 639.767,117.512 C639.767,122.014 641.219,127.722 644.233,132.347 C648.509,138.907 655.407,142.744 665,142.744 Z M665,137.86 C657.079,137.86 651.71,134.874 648.325,129.68 C645.869,125.912 644.651,121.124 644.651,117.512 C644.651,104.123 644.651,104.123 644.651,94.721 L642.209,97.163 L687.791,97.163 L685.349,94.721 C685.349,108.566 685.349,108.566 685.349,117.512 C685.349,121.186 684.136,125.967 681.677,129.727 C678.299,134.892 672.931,137.86 665,137.86 Z" />
            <path d="M630.715,86.68 L640.483,96.448 C641.436,97.401 642.982,97.401 643.936,96.448 C644.89,95.494 644.89,93.948 643.936,92.994 L634.169,83.227 C633.215,82.273 631.669,82.273 630.715,83.227 C629.762,84.18 629.762,85.727 630.715,86.68 Z" />
            <path d="M695.831,83.227 L686.064,92.994 C685.11,93.948 685.11,95.494 686.064,96.448 C687.018,97.401 688.564,97.401 689.517,96.448 L699.285,86.68 C700.238,85.727 700.238,84.18 699.285,83.227 C698.331,82.273 696.785,82.273 695.831,83.227 Z" />
            <path d="M632.442,118.326 L642.209,118.326 C643.558,118.326 644.651,117.232 644.651,115.884 C644.651,114.535 643.558,113.442 642.209,113.442 L632.442,113.442 C631.093,113.442 630,114.535 630,115.884 C630,117.232 631.093,118.326 632.442,118.326 Z" />
            <path d="M697.558,113.442 L687.791,113.442 C686.442,113.442 685.349,114.535 685.349,115.884 C685.349,117.232 686.442,118.326 687.791,118.326 L697.558,118.326 C698.907,118.326 700,117.232 700,115.884 C700,114.535 698.907,113.442 697.558,113.442 Z" />
            <path d="M639.052,145.285 L648.82,135.517 C649.773,134.564 649.773,133.018 648.82,132.064 C647.866,131.11 646.32,131.11 645.366,132.064 L635.599,141.831 C634.645,142.785 634.645,144.331 635.599,145.285 C636.553,146.238 638.099,146.238 639.052,145.285 Z" />
            <path d="M694.401,141.831 L684.634,132.064 C683.68,131.11 682.134,131.11 681.18,132.064 C680.227,133.018 680.227,134.564 681.18,135.517 L690.948,145.285 C691.901,146.238 693.447,146.238 694.401,145.285 C695.355,144.331 695.355,142.785 694.401,141.831 Z" />
            <path d="M667.442,140.302 L667.442,94.721 C667.442,93.372 666.349,92.279 665,92.279 C663.651,92.279 662.558,93.372 662.558,94.721 L662.558,140.302 C662.558,141.651 663.651,142.744 665,142.744 C666.349,142.744 667.442,141.651 667.442,140.302 Z" />
            <path d="M648.652,137.358 C652.823,140.848 658.272,142.744 665,142.744 C671.783,142.744 677.263,140.831 681.443,137.308 C682.474,136.439 682.606,134.899 681.737,133.867 C680.868,132.836 679.327,132.705 678.296,133.574 C675.016,136.338 670.655,137.86 665,137.86 C659.395,137.86 655.06,136.352 651.786,133.612 C650.752,132.747 649.212,132.884 648.347,133.918 C647.481,134.952 647.618,136.492 648.652,137.358 Z" />
            <path d="M680.465,92.008 C680.465,83.189 673.564,76 665,76 C656.436,76 649.535,83.189 649.535,92.008 L649.535,94.721 C649.535,96.07 650.628,97.163 651.977,97.163 L678.023,97.163 C679.372,97.163 680.465,96.07 680.465,94.721 L680.465,92.008 Z M675.581,92.008 L675.581,94.721 L678.023,92.279 L651.977,92.279 L654.419,94.721 L654.419,92.008 C654.419,85.842 659.179,80.884 665,80.884 C670.821,80.884 675.581,85.842 675.581,92.008 Z" />
        </g>
    </g>
</svg>