<?xml version="1.0" encoding="UTF-8"?>
<svg height="600" width="800" xmlns="http://www.w3.org/2000/svg" xmlns:xlink="http://www.w3.org/1999/xlink">
    <g id="Notes" font-family="'LucidaGrande', 'Lucida Grande', sans-serif" font-size="13">
        <rect fill="white" height="600.0" width="800.0" x="0.0" y="0.0" />
        <g font-size="13">
            <text x="18.0" y="176.0">Small</text>
            <text x="18.0" y="376.0">Medium</text>
            <text x="18.0" y="576.0">Large</text>
        </g>
        <g font-size="9">
            <text x="250.0" y="30.0">Ultralight</text>
            <text x="450.0" y="30.0">Regular</text>
            <text x="650.0" y="30.0">Black</text>
            <text id="template-version" fill="#505050" text-anchor="end" x="785.0" y="575.0">Template v.3.0</text>
            <a href="https://github.com/swhitty/SwiftDraw">
                <text fill="#505050" text-anchor="end" x="785.0" y="590.0">https://github.com/swhitty/SwiftDraw</text>
            </a>
        </g>
    </g>
    <g id="Guides" stroke="rgb(39, 170, 225)" stroke-width="0.5">
        <path id="Capline-S" d="M18,76 l800,0" />
        <path id="H-reference" d="M85,145.755 L87.685,145.755 L113.369,79.287 L114.052,79.287 L114.052,76 L112.148,76 L85,145.755 Z M95.693,121.536 L130.996,121.536 L130.263,119.313 L96.474,119.313 L95.693,121.536 Z M139.15,145.755 L141.787,145.755 L114.638,76 L113.466,76 L113.466,79.287 L139.15,145.755 Z" stroke="none" />
        <path id="Baseline-S" d="M18,146 l800,0" />
        <path id="left-margin-Ultralight-S" d="M219.967,56 l0,110" />
        <path id="right-margin-Ultralight-S" d="M310.033,56 l0,110" />
        <path id="left-margin-Regular-S" d="M419.967,56 l0,110" />
        <path id="right-margin-Regular-S" d="M510.033,56 l0,110" />
        <path id="left-margin-Black-S" d="M619.967,56 l0,110" />
        <path id="right-margin-Black-S" d="M710.033,56 l0,110" />
        <path id="Capline-M" d="M18,276 l800,0" />
        <path id="Baseline-M" d="M18,346 l800,0" />
        <path id="Capline-L" d="M18,476 l800,0" />
        <path id="Baseline-L" d="M18,546 l800,0" />
    </g>
    <g id="Symbols">
        <g id="Ultralight-S">
            <path d="M235.379,128.942 L235.379,82.288 C235.379,81.792 235.782,81.39 236.278,81.39 L293.745,81.39 C294.241,81.39 294.643,81.792 294.643,82.288 L294.643,128.942 C294.643,130.43 293.436,131.637 291.948,131.637 L288.364,131.637 C286.875,131.637 285.669,132.843 285.669,134.332 L285.669,136.119 C285.669,138.6 283.658,140.61 281.178,140.61 L281.177,140.61 C278.696,140.61 276.686,138.6 276.686,136.119 L276.686,134.332 C276.686,132.843 275.479,131.637 273.991,131.637 L256.032,131.637 C254.543,131.637 253.337,132.843 253.337,134.332 L253.337,136.122 C253.337,138.601 251.327,140.61 248.848,140.61 C246.369,140.61 244.36,138.601 244.36,136.122 L244.36,134.332 C244.36,132.843 243.153,131.637 241.665,131.637 L238.074,131.637 C236.586,131.637 235.379,130.43 235.379,128.942 Z M229.99,128.942 C229.99,133.407 233.609,137.026 238.074,137.026 L241.665,137.026 L241.665,134.332 L238.97,134.332 L238.97,136.122 C238.97,141.578 243.393,146 248.848,146 C254.304,146 258.726,141.577 258.726,136.122 L258.726,134.332 L256.032,134.332 L256.032,137.026 L273.991,137.026 L273.991,134.332 L271.296,134.332 L271.296,136.119 C271.296,141.576 275.72,146 281.177,146 L281.178,146 C286.635,146 291.059,141.576 291.059,136.119 L291.059,134.332 L288.364,134.332 L288.364,137.026 L291.948,137.026 C296.413,137.026 300.033,133.407 300.033,128.942 L300.033,82.288 C300.033,78.815 297.217,76 293.745,76 L236.278,76 C232.805,76 229.99,78.815 229.99,82.288 L229.99,128.942 Z" />
            <path d="M297.338,106.476 L232.662,106.476 C231.174,106.476 229.967,107.683 229.967,109.171 C229.967,110.659 231.174,111.866 232.662,111.866 L297.338,111.866 C298.826,111.866 300.032,110.659 300.032,109.171 C300.032,107.683 298.826,106.476 297.338,106.476 Z" />
            <path d="M282.965,88.511 L247.035,88.511 C245.546,88.511 244.34,89.717 244.34,91.206 L244.34,109.171 C244.34,110.659 245.546,111.866 247.035,111.866 L282.965,111.866 C284.454,111.866 285.66,110.659 285.66,109.171 L285.66,91.206 C285.66,89.717 284.454,88.511 282.965,88.511 Z M282.965,93.9 L280.271,91.206 L280.271,109.171 L282.965,106.476 L247.035,106.476 L249.729,109.171 L249.729,91.206 L247.035,93.9 L282.965,93.9 Z" />
            <path d="M247.035,124.442 L250.628,124.442 C252.116,124.442 253.322,123.235 253.322,121.747 C253.322,120.259 252.116,119.052 250.628,119.052 L247.035,119.052 C245.546,119.052 244.34,120.259 244.34,121.747 C244.34,123.235 245.546,124.442 247.035,124.442 Z" />
            <path d="M279.372,124.442 L282.965,124.442 C284.454,124.442 285.66,123.235 285.66,121.747 C285.66,120.259 284.454,119.052 282.965,119.052 L279.372,119.052 C277.884,119.052 276.677,120.259 276.677,121.747 C276.677,123.235 277.884,124.442 279.372,124.442 Z" />
        </g>
        <g id="Regular-S">
            <path d="M435.379,128.942 L435.379,82.288 C435.379,81.792 435.782,81.39 436.278,81.39 L493.745,81.39 C494.241,81.39 494.643,81.792 494.643,82.288 L494.643,128.942 C494.643,130.43 493.436,131.637 491.948,131.637 L488.364,131.637 C486.875,131.637 485.669,132.843 485.669,134.332 L485.669,136.119 C485.669,138.6 483.658,140.61 481.178,140.61 L481.177,140.61 C478.696,140.61 476.686,138.6 476.686,136.119 L476.686,134.332 C476.686,132.843 475.479,131.637 473.991,131.637 L456.032,131.637 C454.543,131.637 453.337,132.843 453.337,134.332 L453.337,136.122 C453.337,138.601 451.327,140.61 448.848,140.61 C446.369,140.61 444.36,138.601 444.36,136.122 L444.36,134.332 C444.36,132.843 443.153,131.637 441.665,131.637 L438.074,131.637 C436.586,131.637 435.379,130.43 435.379,128.942 Z M429.99,128.942 C429.99,133.407 433.609,137.026 438.074,137.026 L441.665,137.026 L441.665,134.332 L438.97,134.332 L438.97,136.122 C438.97,141.578 443.393,146 448.848,146 C454.304,146 458.726,141.577 458.726,136.122 L458.726,134.332 L456.032,134.332 L456.032,137.026 L473.991,137.026 L473.991,134.332 L471.296,134.332 L471.296,136.119 C471.296,141.576 475.72,146 481.177,146 L481.178,146 C486.635,146 491.059,141.576 491.059,136.119 L491.059,134.332 L488.364,134.332 L488.364,137.026 L491.948,137.026 C496.413,137.026 500.033,133.407 500.033,128.942 L500.033,82.288 C500.033,78.815 497.217,76 493.745,76 L436.278,76 C432.805,76 429.99,78.815 429.99,82.288 L429.99,128.942 Z" />
            <path d="M497.338,106.476 L432.662,106.476 C431.174,106.476 429.967,107.683 429.967,109.171 C429.967,110.659 431.174,111.866 432.662,111.866 L497.338,111.866 C498.826,111.866 500.032,110.659 500.032,109.171 C500.032,107.683 498.826,106.476 497.338,106.476 Z" />
            <path d="M482.965,88.511 L447.035,88.511 C445.546,88.511 444.34,89.717 444.34,91.206 L444.34,109.171 C444.34,110.659 445.546,111.866 447.035,111.866 L482.965,111.866 C484.454,111.866 485.66,110.659 485.66,109.171 L485.66,91.206 C485.66,89.717 484.454,88.511 482.965,88.511 Z M482.965,93.9 L480.271,91.206 L480.271,109.171 L482.965,106.476 L447.035,106.476 L449.729,109.171 L449.729,91.206 L447.035,93.9 L482.965,93.9 Z" />
            <path d="M447.035,124.442 L450.628,124.442 C452.116,124.442 453.322,123.235 453.322,121.747 C453.322,120.259 452.116,119.052 450.628,119.052 L447.035,119.052 C445.546,119.052 444.34,120.259 444.34,121.747 C444.34,123.235 445.546,124.442 447.035,124.442 Z" />
            <path d="M479.372,124.442 L482.965,124.442 C484.454,124.442 485.66,123.235 485.66,121.747 C485.66,120.259 484.454,119.052 482.965,119.052 L479.372,119.052 C477.884,119.052 476.677,120.259 476.677,121.747 C476.677,123.235 477.884,124.442 479.372,124.442 Z" />
        </g>
        <g id="Black-S">
            <path d="M635.379,128.942 L635.379,82.288 C635.379,81.792 635.781,81.39 636.278,81.39 L693.745,81.39 C694.241,81.39 694.643,81.792 694.643,82.288 L694.643,128.942 C694.643,130.43 693.436,131.637 691.948,131.637 L688.364,131.637 C686.875,131.637 685.669,132.843 685.669,134.332 L685.669,136.119 C685.669,138.6 683.658,140.61 681.178,140.61 L681.177,140.61 C678.696,140.61 676.685,138.6 676.685,136.119 L676.685,134.332 C676.685,132.843 675.479,131.637 673.991,131.637 L656.032,131.637 C654.543,131.637 653.337,132.843 653.337,134.332 L653.337,136.122 C653.337,138.601 651.327,140.61 648.848,140.61 C646.369,140.61 644.36,138.601 644.36,136.122 L644.36,134.332 C644.36,132.843 643.154,131.637 641.665,131.637 L638.074,131.637 C636.586,131.637 635.379,130.43 635.379,128.942 Z M629.99,128.942 C629.99,133.407 633.609,137.026 638.074,137.026 L641.665,137.026 L641.665,134.332 L638.97,134.332 L638.97,136.122 C638.97,141.578 643.393,146 648.848,146 C654.304,146 658.726,141.577 658.726,136.122 L658.726,134.332 L656.032,134.332 L656.032,137.026 L673.991,137.026 L673.991,134.332 L671.296,134.332 L671.296,136.119 C671.296,141.576 675.72,146 681.177,146 L681.178,146 C686.635,146 691.059,141.576 691.059,136.119 L691.059,134.332 L688.364,134.332 L688.364,137.026 L691.948,137.026 C696.413,137.026 700.033,133.407 700.033,128.942 L700.033,82.288 C700.033,78.815 697.217,76 693.745,76 L636.278,76 C632.805,76 629.99,78.815 629.99,82.288 L629.99,128.942 Z" />
            <path d="M697.338,106.476 L632.662,106.476 C631.174,106.476 629.967,107.683 629.967,109.171 C629.967,110.659 631.174,111.866 632.662,111.866 L697.338,111.866 C698.826,111.866 700.032,110.659 700.032,109.171 C700.032,107.683 698.826,106.476 697.338,106.476 Z" />
            <path d="M682.965,88.511 L647.034,88.511 C645.546,88.511 644.34,89.717 644.34,91.206 L644.34,109.171 C644.34,110.659 645.546,111.866 647.034,111.866 L682.965,111.866 C684.454,111.866 685.66,110.659 685.66,109.171 L685.66,91.206 C685.66,89.717 684.454,88.511 682.965,88.511 Z M682.965,93.9 L680.271,91.206 L680.271,109.171 L682.965,106.476 L647.034,106.476 L649.729,109.171 L649.729,91.206 L647.034,93.9 L682.965,93.9 Z" />
            <path d="M647.034,124.442 L650.628,124.442 C652.116,124.442 653.322,123.235 653.322,121.747 C653.322,120.259 652.116,119.052 650.628,119.052 L647.034,119.052 C645.546,119.052 644.34,120.259 644.34,121.747 C644.34,123.235 645.546,124.442 647.034,124.442 Z" />
            <path d="M679.372,124.442 L682.965,124.442 C684.454,124.442 685.66,123.235 685.66,121.747 C685.66,120.259 684.454,119.052 682.965,119.052 L679.372,119.052 C677.884,119.052 676.677,120.259 676.677,121.747 C676.677,123.235 677.884,124.442 679.372,124.442 Z" />
        </g>
    </g>
</svg>