<?xml version="1.0" encoding="UTF-8"?>
<svg height="600" width="800" xmlns="http://www.w3.org/2000/svg" xmlns:xlink="http://www.w3.org/1999/xlink">
    <g id="Notes" font-family="'LucidaGrande', 'Lucida Grande', sans-serif" font-size="13">
        <rect fill="white" height="600.0" width="800.0" x="0.0" y="0.0" />
        <g font-size="13">
            <text x="18.0" y="176.0">Small</text>
            <text x="18.0" y="376.0">Medium</text>
            <text x="18.0" y="576.0">Large</text>
        </g>
        <g font-size="9">
            <text x="250.0" y="30.0">Ultralight</text>
            <text x="450.0" y="30.0">Regular</text>
            <text x="650.0" y="30.0">Black</text>
            <text id="template-version" fill="#505050" text-anchor="end" x="785.0" y="575.0">Template v.3.0</text>
            <a href="https://github.com/swhitty/SwiftDraw">
                <text fill="#505050" text-anchor="end" x="785.0" y="590.0">https://github.com/swhitty/SwiftDraw</text>
            </a>
        </g>
    </g>
    <g id="Guides" stroke="rgb(39, 170, 225)" stroke-width="0.5">
        <path id="Capline-S" d="M18,76 l800,0" />
        <path id="H-reference" d="M85,145.755 L87.685,145.755 L113.369,79.287 L114.052,79.287 L114.052,76 L112.148,76 L85,145.755 Z M95.693,121.536 L130.996,121.536 L130.263,119.313 L96.474,119.313 L95.693,121.536 Z M139.15,145.755 L141.787,145.755 L114.638,76 L113.466,76 L113.466,79.287 L139.15,145.755 Z" stroke="none" />
        <path id="Baseline-S" d="M18,146 l800,0" />
        <path id="left-margin-Ultralight-S" d="M221,56 l0,110" />
        <path id="right-margin-Ultralight-S" d="M309,56 l0,110" />
        <path id="left-margin-Regular-S" d="M421,56 l0,110" />
        <path id="right-margin-Regular-S" d="M509,56 l0,110" />
        <path id="left-margin-Black-S" d="M621,56 l0,110" />
        <path id="right-margin-Black-S" d="M709,56 l0,110" />
        <path id="Capline-M" d="M18,276 l800,0" />
        <path id="Baseline-M" d="M18,346 l800,0" />
        <path id="Capline-L" d="M18,476 l800,0" />
        <path id="Baseline-L" d="M18,546 l800,0" />
    </g>
    <g id="Symbols">
        <g id="Ultralight-S">
            <path d="M289.756,107.585 L289.756,131.488 C289.756,132.167 289.486,132.818 289.006,133.299 C288.526,133.779 287.874,134.049 287.195,134.049 L242.805,134.049 C242.126,134.049 241.474,133.779 240.994,133.299 C240.514,132.818 240.244,132.167 240.244,131.488 L240.244,83.683 C240.244,83.004 240.514,82.352 240.994,81.872 C241.474,81.392 242.126,81.122 242.805,81.122 L287.195,81.122 C287.874,81.122 288.526,81.392 289.006,81.872 C289.486,82.352 289.756,83.004 289.756,83.683 L289.756,107.585 Z M294.878,107.585 L294.878,83.683 C294.878,81.645 294.069,79.691 292.628,78.25 C291.187,76.809 289.233,76 287.195,76 L242.805,76 C240.767,76 238.813,76.809 237.372,78.25 C235.931,79.691 235.122,81.645 235.122,83.683 L235.122,131.488 C235.122,133.525 235.931,135.48 237.372,136.92 C238.813,138.361 240.767,139.171 242.805,139.171 L287.195,139.171 C289.233,139.171 291.187,138.361 292.628,136.92 C294.069,135.48 294.878,133.525 294.878,131.488 L294.878,107.585 Z" />
            <path d="M245.366,136.61 L245.366,143.439 C245.366,144.853 246.512,146 247.927,146 C249.341,146 250.488,144.853 250.488,143.439 L250.488,136.61 C250.488,135.195 249.341,134.049 247.927,134.049 C246.512,134.049 245.366,135.195 245.366,136.61 Z" />
            <path d="M279.512,136.61 L279.512,143.439 C279.512,144.853 280.659,146 282.073,146 C283.488,146 284.634,144.853 284.634,143.439 L284.634,136.61 C284.634,135.195 283.488,134.049 282.073,134.049 C280.659,134.049 279.512,135.195 279.512,136.61 Z" />
            <path d="M278.659,126.366 C278.659,124.48 280.187,122.951 282.073,122.951 C283.959,122.951 285.488,124.48 285.488,126.366 C285.488,128.252 283.959,129.78 282.073,129.78 C280.187,129.78 278.659,128.252 278.659,126.366 Z" />
            <path d="M244.512,126.366 C244.512,124.48 246.041,122.951 247.927,122.951 C249.813,122.951 251.341,124.48 251.341,126.366 C251.341,128.252 249.813,129.78 247.927,129.78 C246.041,129.78 244.512,128.252 244.512,126.366 Z" />
            <path d="M237.683,111.854 L292.317,111.854 C293.731,111.854 294.878,110.707 294.878,109.293 C294.878,107.878 293.731,106.732 292.317,106.732 L237.683,106.732 C236.269,106.732 235.122,107.878 235.122,109.293 C235.122,110.707 236.269,111.854 237.683,111.854 Z" />
            <path d="M235.122,105.878 L235.122,112.707 C235.122,114.122 236.269,115.268 237.683,115.268 C239.097,115.268 240.244,114.122 240.244,112.707 L240.244,105.878 C240.244,104.464 239.097,103.317 237.683,103.317 C236.269,103.317 235.122,104.464 235.122,105.878 Z" />
            <path d="M289.756,105.878 L289.756,112.707 C289.756,114.122 290.903,115.268 292.317,115.268 C293.731,115.268 294.878,114.122 294.878,112.707 L294.878,105.878 C294.878,104.464 293.731,103.317 292.317,103.317 C290.903,103.317 289.756,104.464 289.756,105.878 Z" />
            <path d="M254.756,94.78 L275.244,94.78 C276.658,94.78 277.805,93.634 277.805,92.22 C277.805,90.805 276.658,89.659 275.244,89.659 L254.756,89.659 C253.342,89.659 252.195,90.805 252.195,92.22 C252.195,93.634 253.342,94.78 254.756,94.78 Z" />
        </g>
        <g id="Regular-S">
            <path d="M489.756,107.585 L489.756,131.488 C489.756,132.167 489.486,132.818 489.006,133.299 C488.526,133.779 487.874,134.049 487.195,134.049 L442.805,134.049 C442.126,134.049 441.474,133.779 440.994,133.299 C440.514,132.818 440.244,132.167 440.244,131.488 L440.244,83.683 C440.244,83.004 440.514,82.352 440.994,81.872 C441.474,81.392 442.126,81.122 442.805,81.122 L487.195,81.122 C487.874,81.122 488.526,81.392 489.006,81.872 C489.486,82.352 489.756,83.004 489.756,83.683 L489.756,107.585 Z M494.878,107.585 L494.878,83.683 C494.878,81.645 494.069,79.691 492.628,78.25 C491.187,76.809 489.233,76 487.195,76 L442.805,76 C440.767,76 438.813,76.809 437.372,78.25 C435.931,79.691 435.122,81.645 435.122,83.683 L435.122,131.488 C435.122,133.525 435.931,135.48 437.372,136.92 C438.813,138.361 440.767,139.171 442.805,139.171 L487.195,139.171 C489.233,139.171 491.187,138.361 492.628,136.92 C494.069,135.48 494.878,133.525 494.878,131.488 L494.878,107.585 Z" />
            <path d="M445.366,136.61 L445.366,143.439 C445.366,144.853 446.512,146 447.927,146 C449.341,146 450.488,144.853 450.488,143.439 L450.488,136.61 C450.488,135.195 449.341,134.049 447.927,134.049 C446.512,134.049 445.366,135.195 445.366,136.61 Z" />
            <path d="M479.512,136.61 L479.512,143.439 C479.512,144.853 480.659,146 482.073,146 C483.488,146 484.634,144.853 484.634,143.439 L484.634,136.61 C484.634,135.195 483.488,134.049 482.073,134.049 C480.659,134.049 479.512,135.195 479.512,136.61 Z" />
            <path d="M478.659,126.366 C478.659,124.48 480.187,122.951 482.073,122.951 C483.959,122.951 485.488,124.48 485.488,126.366 C485.488,128.252 483.959,129.78 482.073,129.78 C480.187,129.78 478.659,128.252 478.659,126.366 Z" />
            <path d="M444.512,126.366 C444.512,124.48 446.041,122.951 447.927,122.951 C449.813,122.951 451.341,124.48 451.341,126.366 C451.341,128.252 449.813,129.78 447.927,129.78 C446.041,129.78 444.512,128.252 444.512,126.366 Z" />
            <path d="M437.683,111.854 L492.317,111.854 C493.731,111.854 494.878,110.707 494.878,109.293 C494.878,107.878 493.731,106.732 492.317,106.732 L437.683,106.732 C436.269,106.732 435.122,107.878 435.122,109.293 C435.122,110.707 436.269,111.854 437.683,111.854 Z" />
            <path d="M435.122,105.878 L435.122,112.707 C435.122,114.122 436.269,115.268 437.683,115.268 C439.097,115.268 440.244,114.122 440.244,112.707 L440.244,105.878 C440.244,104.464 439.097,103.317 437.683,103.317 C436.269,103.317 435.122,104.464 435.122,105.878 Z" />
            <path d="M489.756,105.878 L489.756,112.707 C489.756,114.122 490.903,115.268 492.317,115.268 C493.731,115.268 494.878,114.122 494.878,112.707 L494.878,105.878 C494.878,104.464 493.731,103.317 492.317,103.317 C490.903,103.317 489.756,104.464 489.756,105.878 Z" />
            <path d="M454.756,94.78 L475.244,94.78 C476.658,94.78 477.805,93.634 477.805,92.22 C477.805,90.805 476.658,89.659 475.244,89.659 L454.756,89.659 C453.342,89.659 452.195,90.805 452.195,92.22 C452.195,93.634 453.342,94.78 454.756,94.78 Z" />
        </g>
        <g id="Black-S">
            <path d="M689.756,107.585 L689.756,131.488 C689.756,132.167 689.486,132.818 689.006,133.299 C688.526,133.779 687.874,134.049 687.195,134.049 L642.805,134.049 C642.126,134.049 641.474,133.779 640.994,133.299 C640.514,132.818 640.244,132.167 640.244,131.488 L640.244,83.683 C640.244,83.004 640.514,82.352 640.994,81.872 C641.474,81.392 642.126,81.122 642.805,81.122 L687.195,81.122 C687.874,81.122 688.526,81.392 689.006,81.872 C689.486,82.352 689.756,83.004 689.756,83.683 L689.756,107.585 Z M694.878,107.585 L694.878,83.683 C694.878,81.645 694.069,79.691 692.628,78.25 C691.187,76.809 689.233,76 687.195,76 L642.805,76 C640.767,76 638.813,76.809 637.372,78.25 C635.931,79.691 635.122,81.645 635.122,83.683 L635.122,131.488 C635.122,133.525 635.931,135.48 637.372,136.92 C638.813,138.361 640.767,139.171 642.805,139.171 L687.195,139.171 C689.233,139.171 691.187,138.361 692.628,136.92 C694.069,135.48 694.878,133.525 694.878,131.488 L694.878,107.585 Z" />
            <path d="M645.366,136.61 L645.366,143.439 C645.366,144.853 646.512,146 647.927,146 C649.341,146 650.488,144.853 650.488,143.439 L650.488,136.61 C650.488,135.195 649.341,134.049 647.927,134.049 C646.512,134.049 645.366,135.195 645.366,136.61 Z" />
            <path d="M679.512,136.61 L679.512,143.439 C679.512,144.853 680.659,146 682.073,146 C683.488,146 684.634,144.853 684.634,143.439 L684.634,136.61 C684.634,135.195 683.488,134.049 682.073,134.049 C680.659,134.049 679.512,135.195 679.512,136.61 Z" />
            <path d="M678.659,126.366 C678.659,124.48 680.187,122.951 682.073,122.951 C683.959,122.951 685.488,124.48 685.488,126.366 C685.488,128.252 683.959,129.78 682.073,129.78 C680.187,129.78 678.659,128.252 678.659,126.366 Z" />
            <path d="M644.512,126.366 C644.512,124.48 646.041,122.951 647.927,122.951 C649.813,122.951 651.341,124.48 651.341,126.366 C651.341,128.252 649.813,129.78 647.927,129.78 C646.041,129.78 644.512,128.252 644.512,126.366 Z" />
            <path d="M637.683,111.854 L692.317,111.854 C693.732,111.854 694.878,110.707 694.878,109.293 C694.878,107.878 693.732,106.732 692.317,106.732 L637.683,106.732 C636.269,106.732 635.122,107.878 635.122,109.293 C635.122,110.707 636.269,111.854 637.683,111.854 Z" />
            <path d="M635.122,105.878 L635.122,112.707 C635.122,114.122 636.269,115.268 637.683,115.268 C639.097,115.268 640.244,114.122 640.244,112.707 L640.244,105.878 C640.244,104.464 639.097,103.317 637.683,103.317 C636.269,103.317 635.122,104.464 635.122,105.878 Z" />
            <path d="M689.756,105.878 L689.756,112.707 C689.756,114.122 690.903,115.268 692.317,115.268 C693.732,115.268 694.878,114.122 694.878,112.707 L694.878,105.878 C694.878,104.464 693.732,103.317 692.317,103.317 C690.903,103.317 689.756,104.464 689.756,105.878 Z" />
            <path d="M654.756,94.78 L675.244,94.78 C676.658,94.78 677.805,93.634 677.805,92.22 C677.805,90.805 676.658,89.659 675.244,89.659 L654.756,89.659 C653.342,89.659 652.195,90.805 652.195,92.22 C652.195,93.634 653.342,94.78 654.756,94.78 Z" />
        </g>
    </g>
</svg>