<?xml version="1.0" encoding="UTF-8"?>
<svg height="600" width="800" xmlns="http://www.w3.org/2000/svg" xmlns:xlink="http://www.w3.org/1999/xlink">
    <g id="Notes" font-family="'LucidaGrande', 'Lucida Grande', sans-serif" font-size="13">
        <rect fill="white" height="600.0" width="800.0" x="0.0" y="0.0" />
        <g font-size="13">
            <text x="18.0" y="176.0">Small</text>
            <text x="18.0" y="376.0">Medium</text>
            <text x="18.0" y="576.0">Large</text>
        </g>
        <g font-size="9">
            <text x="250.0" y="30.0">Ultralight</text>
            <text x="450.0" y="30.0">Regular</text>
            <text x="650.0" y="30.0">Black</text>
            <text id="template-version" fill="#505050" text-anchor="end" x="785.0" y="575.0">Template v.3.0</text>
            <a href="https://github.com/swhitty/SwiftDraw">
                <text fill="#505050" text-anchor="end" x="785.0" y="590.0">https://github.com/swhitty/SwiftDraw</text>
            </a>
        </g>
    </g>
    <g id="Guides" stroke="rgb(39, 170, 225)" stroke-width="0.5">
        <path id="Capline-S" d="M18,76 l800,0" />
        <path id="H-reference" d="M85,145.755 L87.685,145.755 L113.369,79.287 L114.052,79.287 L114.052,76 L112.148,76 L85,145.755 Z M95.693,121.536 L130.996,121.536 L130.263,119.313 L96.474,119.313 L95.693,121.536 Z M139.15,145.755 L141.787,145.755 L114.638,76 L113.466,76 L113.466,79.287 L139.15,145.755 Z" stroke="none" />
        <path id="Baseline-S" d="M18,146 l800,0" />
        <path id="left-margin-Ultralight-S" d="M221,56 l0,110" />
        <path id="right-margin-Ultralight-S" d="M309,56 l0,110" />
        <path id="left-margin-Regular-S" d="M421,56 l0,110" />
        <path id="right-margin-Regular-S" d="M509,56 l0,110" />
        <path id="left-margin-Black-S" d="M621,56 l0,110" />
        <path id="right-margin-Black-S" d="M709,56 l0,110" />
        <path id="Capline-M" d="M18,276 l800,0" />
        <path id="Baseline-M" d="M18,346 l800,0" />
        <path id="Capline-L" d="M18,476 l800,0" />
        <path id="Baseline-L" d="M18,546 l800,0" />
    </g>
    <g id="Symbols">
        <g id="Ultralight-S">
            <path d="M237.683,146 L292.317,146 C293.731,146 294.878,144.853 294.878,143.439 C294.878,142.025 293.731,140.878 292.317,140.878 L237.683,140.878 C236.269,140.878 235.122,142.025 235.122,143.439 C235.122,144.853 236.269,146 237.683,146 Z" />
            <path d="M231.707,97.341 C231.707,104.519 232.318,109.432 234.402,113.897 C237.363,120.243 242.943,123.805 251.341,123.805 C252.756,123.805 253.902,122.658 253.902,121.244 C253.902,119.83 252.756,118.683 251.341,118.683 C240.028,118.683 236.829,111.828 236.829,97.341 C236.829,95.927 235.683,94.78 234.268,94.78 C232.854,94.78 231.707,95.927 231.707,97.341 Z" />
            <path d="M293.171,93.927 C293.171,100.272 292.963,104.432 292.118,109.186 C290.249,119.699 286.029,125.512 278.659,125.512 C277.244,125.512 276.098,126.659 276.098,128.073 C276.098,129.488 277.244,130.634 278.659,130.634 C289.181,130.634 294.91,122.742 297.16,110.082 C298.073,104.949 298.293,100.557 298.293,93.927 C298.293,92.512 297.146,91.366 295.732,91.366 C294.317,91.366 293.171,92.512 293.171,93.927 Z" />
            <path d="M265,76 C256.042,76 248.78,83.262 248.78,92.22 L248.78,143.439 C248.78,144.853 249.927,146 251.341,146 L278.659,146 C280.073,146 281.22,144.853 281.22,143.439 L281.22,92.22 C281.22,83.262 273.958,76 265,76 Z M265,81.122 C271.129,81.122 276.098,86.09 276.098,92.22 L276.098,143.439 L278.659,140.878 L251.341,140.878 L253.902,143.439 L253.902,92.22 C253.902,86.09 258.871,81.122 265,81.122 Z" />
        </g>
        <g id="Regular-S">
            <path d="M437.683,146 L492.317,146 C493.731,146 494.878,144.853 494.878,143.439 C494.878,142.025 493.731,140.878 492.317,140.878 L437.683,140.878 C436.269,140.878 435.122,142.025 435.122,143.439 C435.122,144.853 436.269,146 437.683,146 Z" />
            <path d="M431.707,97.341 C431.707,104.519 432.318,109.432 434.402,113.897 C437.363,120.243 442.943,123.805 451.341,123.805 C452.756,123.805 453.902,122.658 453.902,121.244 C453.902,119.83 452.756,118.683 451.341,118.683 C440.028,118.683 436.829,111.828 436.829,97.341 C436.829,95.927 435.683,94.78 434.268,94.78 C432.854,94.78 431.707,95.927 431.707,97.341 Z" />
            <path d="M493.171,93.927 C493.171,100.272 492.963,104.432 492.118,109.186 C490.249,119.699 486.029,125.512 478.659,125.512 C477.244,125.512 476.098,126.659 476.098,128.073 C476.098,129.488 477.244,130.634 478.659,130.634 C489.181,130.634 494.91,122.742 497.16,110.082 C498.073,104.949 498.293,100.557 498.293,93.927 C498.293,92.512 497.146,91.366 495.732,91.366 C494.317,91.366 493.171,92.512 493.171,93.927 Z" />
            <path d="M465,76 C456.042,76 448.78,83.262 448.78,92.22 L448.78,143.439 C448.78,144.853 449.927,146 451.341,146 L478.659,146 C480.073,146 481.22,144.853 481.22,143.439 L481.22,92.22 C481.22,83.262 473.958,76 465,76 Z M465,81.122 C471.129,81.122 476.098,86.09 476.098,92.22 L476.098,143.439 L478.659,140.878 L451.341,140.878 L453.902,143.439 L453.902,92.22 C453.902,86.09 458.871,81.122 465,81.122 Z" />
        </g>
        <g id="Black-S">
            <path d="M637.683,146 L692.317,146 C693.732,146 694.878,144.853 694.878,143.439 C694.878,142.025 693.732,140.878 692.317,140.878 L637.683,140.878 C636.269,140.878 635.122,142.025 635.122,143.439 C635.122,144.853 636.269,146 637.683,146 Z" />
            <path d="M631.707,97.341 C631.707,104.519 632.318,109.432 634.402,113.897 C637.363,120.243 642.943,123.805 651.341,123.805 C652.756,123.805 653.902,122.658 653.902,121.244 C653.902,119.83 652.756,118.683 651.341,118.683 C640.028,118.683 636.829,111.828 636.829,97.341 C636.829,95.927 635.683,94.78 634.268,94.78 C632.854,94.78 631.707,95.927 631.707,97.341 Z" />
            <path d="M693.171,93.927 C693.171,100.272 692.963,104.432 692.118,109.186 C690.249,119.699 686.029,125.512 678.659,125.512 C677.244,125.512 676.098,126.659 676.098,128.073 C676.098,129.488 677.244,130.634 678.659,130.634 C689.181,130.634 694.91,122.742 697.161,110.082 C698.073,104.949 698.293,100.557 698.293,93.927 C698.293,92.512 697.146,91.366 695.732,91.366 C694.317,91.366 693.171,92.512 693.171,93.927 Z" />
            <path d="M665,76 C656.042,76 648.781,83.262 648.781,92.22 L648.781,143.439 C648.781,144.853 649.927,146 651.341,146 L678.659,146 C680.073,146 681.22,144.853 681.22,143.439 L681.22,92.22 C681.22,83.262 673.958,76 665,76 Z M665,81.122 C671.129,81.122 676.098,86.09 676.098,92.22 L676.098,143.439 L678.659,140.878 L651.341,140.878 L653.902,143.439 L653.902,92.22 C653.902,86.09 658.871,81.122 665,81.122 Z" />
        </g>
    </g>
</svg>