<?xml version="1.0" encoding="UTF-8"?>
<svg height="600" width="800" xmlns="http://www.w3.org/2000/svg" xmlns:xlink="http://www.w3.org/1999/xlink">
    <g id="Notes" font-family="'LucidaGrande', 'Lucida Grande', sans-serif" font-size="13">
        <rect fill="white" height="600.0" width="800.0" x="0.0" y="0.0" />
        <g font-size="13">
            <text x="18.0" y="176.0">Small</text>
            <text x="18.0" y="376.0">Medium</text>
            <text x="18.0" y="576.0">Large</text>
        </g>
        <g font-size="9">
            <text x="250.0" y="30.0">Ultralight</text>
            <text x="450.0" y="30.0">Regular</text>
            <text x="650.0" y="30.0">Black</text>
            <text id="template-version" fill="#505050" text-anchor="end" x="785.0" y="575.0">Template v.3.0</text>
            <a href="https://github.com/swhitty/SwiftDraw">
                <text fill="#505050" text-anchor="end" x="785.0" y="590.0">https://github.com/swhitty/SwiftDraw</text>
            </a>
        </g>
    </g>
    <g id="Guides" stroke="rgb(39, 170, 225)" stroke-width="0.5">
        <path id="Capline-S" d="M18,76 l800,0" />
        <path id="H-reference" d="M85,145.755 L87.685,145.755 L113.369,79.287 L114.052,79.287 L114.052,76 L112.148,76 L85,145.755 Z M95.693,121.536 L130.996,121.536 L130.263,119.313 L96.474,119.313 L95.693,121.536 Z M139.15,145.755 L141.787,145.755 L114.638,76 L113.466,76 L113.466,79.287 L139.15,145.755 Z" stroke="none" />
        <path id="Baseline-S" d="M18,146 l800,0" />
        <path id="left-margin-Ultralight-S" d="M221,56 l0,110" />
        <path id="right-margin-Ultralight-S" d="M309,56 l0,110" />
        <path id="left-margin-Regular-S" d="M421,56 l0,110" />
        <path id="right-margin-Regular-S" d="M509,56 l0,110" />
        <path id="left-margin-Black-S" d="M621,56 l0,110" />
        <path id="right-margin-Black-S" d="M709,56 l0,110" />
        <path id="Capline-M" d="M18,276 l800,0" />
        <path id="Baseline-M" d="M18,346 l800,0" />
        <path id="Capline-L" d="M18,476 l800,0" />
        <path id="Baseline-L" d="M18,546 l800,0" />
    </g>
    <g id="Symbols">
        <g id="Ultralight-S">
            <path d="M240.581,118.326 L289.419,118.326 L287.065,115.235 L279.434,142.909 L281.788,141.116 L248.212,141.116 L250.566,142.909 L242.935,115.235 L240.581,118.326 Z M240.581,113.442 C238.968,113.442 237.799,114.978 238.227,116.533 L245.858,144.207 C246.15,145.266 247.114,146 248.212,146 L281.788,146 C282.886,146 283.85,145.266 284.142,144.207 L291.773,116.533 C292.201,114.978 291.032,113.442 289.419,113.442 L240.581,113.442 Z" />
            <path d="M289.419,113.442 L240.581,113.442 L243.023,115.884 C243.023,112.703 244.394,110.025 246.744,107.781 C247.594,106.97 248.51,106.278 249.424,105.71 C249.959,105.378 250.357,105.169 250.545,105.083 C251.417,104.687 251.977,103.818 251.977,102.86 C251.977,97.957 256.641,92.279 265,92.279 C273.359,92.279 278.023,97.957 278.023,102.86 C278.023,103.818 278.583,104.687 279.455,105.083 C279.643,105.169 280.041,105.378 280.576,105.71 C281.49,106.278 282.406,106.97 283.256,107.781 C285.607,110.025 286.977,112.703 286.977,115.884 L289.419,113.442 Z M289.419,118.326 C290.767,118.326 291.86,117.232 291.86,115.884 C291.86,111.23 289.873,107.346 286.628,104.248 C284.724,102.431 282.824,101.25 281.476,100.637 L282.907,102.86 C282.907,95.448 276.292,87.395 265,87.395 C253.708,87.395 247.093,95.448 247.093,102.86 L248.524,100.637 C247.176,101.25 245.276,102.431 243.372,104.248 C240.127,107.346 238.14,111.23 238.14,115.884 C238.14,117.232 239.233,118.326 240.581,118.326 L289.419,118.326 Z" />
            <path d="M235.698,118.326 L294.302,118.326 C295.651,118.326 296.744,117.232 296.744,115.884 C296.744,114.535 295.651,113.442 294.302,113.442 L235.698,113.442 C234.349,113.442 233.256,114.535 233.256,115.884 C233.256,117.232 234.349,118.326 235.698,118.326 Z" />
            <path d="M273.953,91.465 C273.953,86.52 269.945,82.512 265,82.512 C260.055,82.512 256.047,86.52 256.047,91.465 L260.93,91.465 C260.93,89.217 262.752,87.395 265,87.395 C267.248,87.395 269.07,89.217 269.07,91.465 L273.953,91.465 Z" />
            <path d="M266.727,86.68 L273.238,80.169 C274.192,79.215 274.192,77.669 273.238,76.715 C272.285,75.762 270.739,75.762 269.785,76.715 L263.273,83.227 C262.32,84.18 262.32,85.727 263.273,86.68 C264.227,87.634 265.773,87.634 266.727,86.68 Z" />
            <path d="M256.047,115.884 L256.047,143.558 L260.93,143.558 L260.93,115.884 L256.047,115.884 Z" />
            <path d="M269.07,115.884 L269.07,143.558 L273.953,143.558 L273.953,115.884 L269.07,115.884 Z" />
        </g>
        <g id="Regular-S">
            <path d="M440.581,118.326 L489.419,118.326 L487.065,115.235 L479.434,142.909 L481.788,141.116 L448.212,141.116 L450.566,142.909 L442.935,115.235 L440.581,118.326 Z M440.581,113.442 C438.968,113.442 437.799,114.978 438.227,116.533 L445.858,144.207 C446.15,145.266 447.114,146 448.212,146 L481.788,146 C482.886,146 483.85,145.266 484.142,144.207 L491.773,116.533 C492.201,114.978 491.032,113.442 489.419,113.442 L440.581,113.442 Z" />
            <path d="M489.419,113.442 L440.581,113.442 L443.023,115.884 C443.023,112.703 444.394,110.025 446.744,107.781 C447.594,106.97 448.51,106.278 449.424,105.71 C449.959,105.378 450.357,105.169 450.545,105.083 C451.417,104.687 451.977,103.818 451.977,102.86 C451.977,97.957 456.641,92.279 465,92.279 C473.359,92.279 478.023,97.957 478.023,102.86 C478.023,103.818 478.583,104.687 479.455,105.083 C479.643,105.169 480.041,105.378 480.576,105.71 C481.49,106.278 482.406,106.97 483.256,107.781 C485.607,110.025 486.977,112.703 486.977,115.884 L489.419,113.442 Z M489.419,118.326 C490.767,118.326 491.86,117.232 491.86,115.884 C491.86,111.23 489.873,107.346 486.628,104.248 C484.724,102.431 482.824,101.25 481.476,100.637 L482.907,102.86 C482.907,95.448 476.292,87.395 465,87.395 C453.708,87.395 447.093,95.448 447.093,102.86 L448.524,100.637 C447.176,101.25 445.276,102.431 443.372,104.248 C440.127,107.346 438.14,111.23 438.14,115.884 C438.14,117.232 439.233,118.326 440.581,118.326 L489.419,118.326 Z" />
            <path d="M435.698,118.326 L494.302,118.326 C495.651,118.326 496.744,117.232 496.744,115.884 C496.744,114.535 495.651,113.442 494.302,113.442 L435.698,113.442 C434.349,113.442 433.256,114.535 433.256,115.884 C433.256,117.232 434.349,118.326 435.698,118.326 Z" />
            <path d="M473.953,91.465 C473.953,86.52 469.945,82.512 465,82.512 C460.055,82.512 456.047,86.52 456.047,91.465 L460.93,91.465 C460.93,89.217 462.752,87.395 465,87.395 C467.248,87.395 469.07,89.217 469.07,91.465 L473.953,91.465 Z" />
            <path d="M466.727,86.68 L473.238,80.169 C474.192,79.215 474.192,77.669 473.238,76.715 C472.285,75.762 470.739,75.762 469.785,76.715 L463.273,83.227 C462.32,84.18 462.32,85.727 463.273,86.68 C464.227,87.634 465.773,87.634 466.727,86.68 Z" />
            <path d="M456.047,115.884 L456.047,143.558 L460.93,143.558 L460.93,115.884 L456.047,115.884 Z" />
            <path d="M469.07,115.884 L469.07,143.558 L473.953,143.558 L473.953,115.884 L469.07,115.884 Z" />
        </g>
        <g id="Black-S">
            <path d="M640.581,118.326 L689.419,118.326 L687.065,115.235 L679.434,142.909 L681.788,141.116 L648.212,141.116 L650.566,142.909 L642.935,115.235 L640.581,118.326 Z M640.581,113.442 C638.968,113.442 637.799,114.978 638.227,116.533 L645.858,144.207 C646.15,145.266 647.114,146 648.212,146 L681.788,146 C682.886,146 683.85,145.266 684.142,144.207 L691.773,116.533 C692.201,114.978 691.032,113.442 689.419,113.442 L640.581,113.442 Z" />
            <path d="M689.419,113.442 L640.581,113.442 L643.023,115.884 C643.023,112.703 644.393,110.025 646.744,107.781 C647.594,106.97 648.51,106.278 649.424,105.71 C649.959,105.378 650.357,105.169 650.545,105.083 C651.417,104.687 651.977,103.818 651.977,102.86 C651.977,97.957 656.641,92.279 665,92.279 C673.359,92.279 678.023,97.957 678.023,102.86 C678.023,103.818 678.583,104.687 679.455,105.083 C679.643,105.169 680.041,105.378 680.576,105.71 C681.49,106.278 682.406,106.97 683.256,107.781 C685.607,110.025 686.977,112.703 686.977,115.884 L689.419,113.442 Z M689.419,118.326 C690.767,118.326 691.86,117.232 691.86,115.884 C691.86,111.23 689.873,107.346 686.628,104.248 C684.724,102.431 682.824,101.25 681.476,100.637 L682.907,102.86 C682.907,95.448 676.292,87.395 665,87.395 C653.708,87.395 647.093,95.448 647.093,102.86 L648.524,100.637 C647.176,101.25 645.276,102.431 643.372,104.248 C640.127,107.346 638.14,111.23 638.14,115.884 C638.14,117.232 639.233,118.326 640.581,118.326 L689.419,118.326 Z" />
            <path d="M635.698,118.326 L694.302,118.326 C695.651,118.326 696.744,117.232 696.744,115.884 C696.744,114.535 695.651,113.442 694.302,113.442 L635.698,113.442 C634.349,113.442 633.256,114.535 633.256,115.884 C633.256,117.232 634.349,118.326 635.698,118.326 Z" />
            <path d="M673.953,91.465 C673.953,86.52 669.945,82.512 665,82.512 C660.055,82.512 656.047,86.52 656.047,91.465 L660.93,91.465 C660.93,89.217 662.752,87.395 665,87.395 C667.248,87.395 669.07,89.217 669.07,91.465 L673.953,91.465 Z" />
            <path d="M666.727,86.68 L673.238,80.169 C674.192,79.215 674.192,77.669 673.238,76.715 C672.285,75.762 670.739,75.762 669.785,76.715 L663.273,83.227 C662.32,84.18 662.32,85.727 663.273,86.68 C664.227,87.634 665.773,87.634 666.727,86.68 Z" />
            <path d="M656.047,115.884 L656.047,143.558 L660.93,143.558 L660.93,115.884 L656.047,115.884 Z" />
            <path d="M669.07,115.884 L669.07,143.558 L673.953,143.558 L673.953,115.884 L669.07,115.884 Z" />
        </g>
    </g>
</svg>