<?xml version="1.0" encoding="UTF-8"?>
<svg height="600" width="800" xmlns="http://www.w3.org/2000/svg" xmlns:xlink="http://www.w3.org/1999/xlink">
    <g id="Notes" font-family="'LucidaGrande', 'Lucida Grande', sans-serif" font-size="13">
        <rect fill="white" height="600.0" width="800.0" x="0.0" y="0.0" />
        <g font-size="13">
            <text x="18.0" y="176.0">Small</text>
            <text x="18.0" y="376.0">Medium</text>
            <text x="18.0" y="576.0">Large</text>
        </g>
        <g font-size="9">
            <text x="250.0" y="30.0">Ultralight</text>
            <text x="450.0" y="30.0">Regular</text>
            <text x="650.0" y="30.0">Black</text>
            <text id="template-version" fill="#505050" text-anchor="end" x="785.0" y="575.0">Template v.3.0</text>
            <a href="https://github.com/swhitty/SwiftDraw">
                <text fill="#505050" text-anchor="end" x="785.0" y="590.0">https://github.com/swhitty/SwiftDraw</text>
            </a>
        </g>
    </g>
    <g id="Guides" stroke="rgb(39, 170, 225)" stroke-width="0.5">
        <path id="Capline-S" d="M18,76 l800,0" />
        <path id="H-reference" d="M85,145.755 L87.685,145.755 L113.369,79.287 L114.052,79.287 L114.052,76 L112.148,76 L85,145.755 Z M95.693,121.536 L130.996,121.536 L130.263,119.313 L96.474,119.313 L95.693,121.536 Z M139.15,145.755 L141.787,145.755 L114.638,76 L113.466,76 L113.466,79.287 L139.15,145.755 Z" stroke="none" />
        <path id="Baseline-S" d="M18,146 l800,0" />
        <path id="left-margin-Ultralight-S" d="M221,56 l0,110" />
        <path id="right-margin-Ultralight-S" d="M309,56 l0,110" />
        <path id="left-margin-Regular-S" d="M421,56 l0,110" />
        <path id="right-margin-Regular-S" d="M509,56 l0,110" />
        <path id="left-margin-Black-S" d="M621,56 l0,110" />
        <path id="right-margin-Black-S" d="M709,56 l0,110" />
        <path id="Capline-M" d="M18,276 l800,0" />
        <path id="Baseline-M" d="M18,346 l800,0" />
        <path id="Capline-L" d="M18,476 l800,0" />
        <path id="Baseline-L" d="M18,546 l800,0" />
    </g>
    <g id="Symbols">
        <g id="Ultralight-S">
            <path d="M231.837,115.219 L240.666,141.902 C241.476,144.348 243.762,146 246.339,146 L283.661,146 C286.238,146 288.525,144.348 289.335,141.902 L298.163,115.219 L293.301,113.61 L284.472,140.293 C284.356,140.642 284.03,140.878 283.661,140.878 L246.339,140.878 C245.971,140.878 245.644,140.642 245.529,140.292 L236.7,113.61 L231.837,115.219 Z" />
            <path d="M243.5,112.063 L234.809,112.063 C235.94,112.063 236.861,112.994 236.835,114.141 C237.076,103.568 245.349,94.294 257.099,91.286 L256.464,91.366 L273.537,91.366 L272.829,91.266 C284.357,94.582 292.91,104.042 293.165,114.147 C293.136,112.997 294.06,112.063 295.192,112.063 L286.5,112.063 C281.925,112.063 277.506,113.724 274.064,116.737 C268.875,121.279 261.126,121.279 255.937,116.737 C252.495,113.724 248.075,112.063 243.5,112.063 Z M243.5,117.185 C246.834,117.185 250.055,118.396 252.564,120.591 C259.684,126.823 270.317,126.823 277.437,120.591 C279.946,118.396 283.166,117.185 286.5,117.185 L295.192,117.185 C296.922,117.185 298.329,115.763 298.285,114.018 C297.97,101.501 287.786,90.239 274.245,86.344 C274.015,86.277 273.776,86.244 273.537,86.244 L256.464,86.244 C256.249,86.244 256.036,86.271 255.829,86.324 C241.96,89.874 232.011,101.028 231.714,114.024 C231.675,115.766 233.079,117.185 234.809,117.185 L243.5,117.185 Z" />
            <path d="M259.144,88.295 C259.065,87.905 259.025,87.505 259.025,87.098 C259.025,83.797 261.7,81.122 265,81.122 C268.301,81.122 270.976,83.797 270.976,87.098 C270.976,87.505 270.936,87.905 270.856,88.295 C270.575,89.681 271.471,91.033 272.857,91.315 C274.243,91.596 275.595,90.701 275.876,89.314 C276.023,88.589 276.098,87.848 276.098,87.098 C276.098,80.969 271.129,76 265,76 C258.871,76 253.903,80.969 253.903,87.098 C253.903,87.848 253.977,88.589 254.125,89.314 C254.406,90.701 255.758,91.596 257.144,91.315 C258.53,91.033 259.426,89.681 259.144,88.295 Z" />
        </g>
        <g id="Regular-S">
            <path d="M431.837,115.219 L440.666,141.902 C441.476,144.348 443.762,146 446.339,146 L483.661,146 C486.238,146 488.525,144.348 489.335,141.902 L498.163,115.219 L493.301,113.61 L484.472,140.293 C484.356,140.642 484.03,140.878 483.661,140.878 L446.339,140.878 C445.971,140.878 445.644,140.642 445.529,140.292 L436.7,113.61 L431.837,115.219 Z" />
            <path d="M443.5,112.063 L434.809,112.063 C435.94,112.063 436.861,112.994 436.835,114.141 C437.076,103.568 445.349,94.294 457.099,91.286 L456.464,91.366 L473.537,91.366 L472.829,91.266 C484.357,94.582 492.91,104.042 493.165,114.147 C493.136,112.997 494.06,112.063 495.192,112.063 L486.5,112.063 C481.925,112.063 477.506,113.724 474.064,116.737 C468.875,121.279 461.126,121.279 455.937,116.737 C452.495,113.724 448.075,112.063 443.5,112.063 Z M443.5,117.185 C446.834,117.185 450.055,118.396 452.564,120.591 C459.684,126.823 470.317,126.823 477.437,120.591 C479.946,118.396 483.166,117.185 486.5,117.185 L495.192,117.185 C496.922,117.185 498.329,115.763 498.285,114.018 C497.97,101.501 487.786,90.239 474.245,86.344 C474.015,86.277 473.776,86.244 473.537,86.244 L456.464,86.244 C456.249,86.244 456.036,86.271 455.829,86.324 C441.96,89.874 432.011,101.028 431.714,114.024 C431.675,115.766 433.079,117.185 434.809,117.185 L443.5,117.185 Z" />
            <path d="M459.144,88.295 C459.065,87.905 459.025,87.505 459.025,87.098 C459.025,83.797 461.7,81.122 465,81.122 C468.301,81.122 470.976,83.797 470.976,87.098 C470.976,87.505 470.936,87.905 470.856,88.295 C470.575,89.681 471.47,91.033 472.857,91.315 C474.243,91.596 475.595,90.701 475.876,89.314 C476.023,88.589 476.098,87.848 476.098,87.098 C476.098,80.969 471.129,76 465,76 C458.871,76 453.903,80.969 453.903,87.098 C453.903,87.848 453.977,88.589 454.125,89.314 C454.406,90.701 455.758,91.596 457.144,91.315 C458.53,91.033 459.426,89.681 459.144,88.295 Z" />
        </g>
        <g id="Black-S">
            <path d="M631.837,115.219 L640.666,141.902 C641.476,144.348 643.762,146 646.339,146 L683.661,146 C686.238,146 688.525,144.348 689.335,141.902 L698.163,115.219 L693.301,113.61 L684.472,140.293 C684.356,140.642 684.03,140.878 683.661,140.878 L646.339,140.878 C645.971,140.878 645.644,140.642 645.529,140.292 L636.7,113.61 L631.837,115.219 Z" />
            <path d="M643.5,112.063 L634.809,112.063 C635.94,112.063 636.861,112.994 636.835,114.141 C637.076,103.568 645.349,94.294 657.099,91.286 L656.464,91.366 L673.537,91.366 L672.829,91.266 C684.357,94.582 692.91,104.042 693.165,114.147 C693.136,112.997 694.06,112.063 695.192,112.063 L686.5,112.063 C681.925,112.063 677.506,113.724 674.064,116.737 C668.875,121.279 661.126,121.279 655.937,116.737 C652.495,113.724 648.075,112.063 643.5,112.063 Z M643.5,117.185 C646.834,117.185 650.055,118.396 652.564,120.591 C659.684,126.823 670.317,126.823 677.437,120.591 C679.946,118.396 683.166,117.185 686.5,117.185 L695.192,117.185 C696.922,117.185 698.329,115.763 698.285,114.018 C697.97,101.501 687.786,90.239 674.245,86.344 C674.015,86.277 673.776,86.244 673.537,86.244 L656.464,86.244 C656.25,86.244 656.036,86.271 655.829,86.324 C641.961,89.874 632.011,101.028 631.714,114.024 C631.675,115.766 633.079,117.185 634.809,117.185 L643.5,117.185 Z" />
            <path d="M659.144,88.295 C659.065,87.905 659.025,87.505 659.025,87.098 C659.025,83.797 661.7,81.122 665,81.122 C668.301,81.122 670.976,83.797 670.976,87.098 C670.976,87.505 670.936,87.905 670.856,88.295 C670.575,89.681 671.471,91.033 672.857,91.315 C674.243,91.596 675.595,90.701 675.876,89.314 C676.023,88.589 676.098,87.848 676.098,87.098 C676.098,80.969 671.129,76 665,76 C658.871,76 653.903,80.969 653.903,87.098 C653.903,87.848 653.977,88.589 654.125,89.314 C654.406,90.701 655.758,91.596 657.144,91.315 C658.53,91.033 659.426,89.681 659.144,88.295 Z" />
        </g>
    </g>
</svg>