<?xml version="1.0" encoding="UTF-8"?>
<svg height="600" width="800" xmlns="http://www.w3.org/2000/svg" xmlns:xlink="http://www.w3.org/1999/xlink">
    <g id="Notes" font-family="'LucidaGrande', 'Lucida Grande', sans-serif" font-size="13">
        <rect fill="white" height="600.0" width="800.0" x="0.0" y="0.0" />
        <g font-size="13">
            <text x="18.0" y="176.0">Small</text>
            <text x="18.0" y="376.0">Medium</text>
            <text x="18.0" y="576.0">Large</text>
        </g>
        <g font-size="9">
            <text x="250.0" y="30.0">Ultralight</text>
            <text x="450.0" y="30.0">Regular</text>
            <text x="650.0" y="30.0">Black</text>
            <text id="template-version" fill="#505050" text-anchor="end" x="785.0" y="575.0">Template v.3.0</text>
            <a href="https://github.com/swhitty/SwiftDraw">
                <text fill="#505050" text-anchor="end" x="785.0" y="590.0">https://github.com/swhitty/SwiftDraw</text>
            </a>
        </g>
    </g>
    <g id="Guides" stroke="rgb(39, 170, 225)" stroke-width="0.5">
        <path id="Capline-S" d="M18,76 l800,0" />
        <path id="H-reference" d="M85,145.755 L87.685,145.755 L113.369,79.287 L114.052,79.287 L114.052,76 L112.148,76 L85,145.755 Z M95.693,121.536 L130.996,121.536 L130.263,119.313 L96.474,119.313 L95.693,121.536 Z M139.15,145.755 L141.787,145.755 L114.638,76 L113.466,76 L113.466,79.287 L139.15,145.755 Z" stroke="none" />
        <path id="Baseline-S" d="M18,146 l800,0" />
        <path id="left-margin-Ultralight-S" d="M216,56 l0,110" />
        <path id="right-margin-Ultralight-S" d="M314,56 l0,110" />
        <path id="left-margin-Regular-S" d="M416,56 l0,110" />
        <path id="right-margin-Regular-S" d="M514,56 l0,110" />
        <path id="left-margin-Black-S" d="M616,56 l0,110" />
        <path id="right-margin-Black-S" d="M714,56 l0,110" />
        <path id="Capline-M" d="M18,276 l800,0" />
        <path id="Baseline-M" d="M18,346 l800,0" />
        <path id="Capline-L" d="M18,476 l800,0" />
        <path id="Baseline-L" d="M18,546 l800,0" />
    </g>
    <g id="Symbols">
        <g id="Ultralight-S">
            <path d="M298,117 L298,139 C298,139.265 297.895,139.52 297.707,139.707 C297.52,139.895 297.265,140 297,140 L233,140 C232.735,140 232.48,139.895 232.293,139.707 C232.105,139.52 232,139.265 232,139 L232,95 C232,94.735 232.105,94.48 232.293,94.293 C232.48,94.105 232.735,94 233,94 L297,94 C297.265,94 297.52,94.105 297.707,94.293 C297.895,94.48 298,94.735 298,95 L298,117 Z M304,117 L304,95 C304,93.143 303.263,91.363 301.95,90.05 C300.637,88.737 298.857,88 297,88 L233,88 C231.143,88 229.363,88.737 228.05,90.05 C226.738,91.363 226,93.143 226,95 L226,139 C226,140.857 226.737,142.637 228.05,143.95 C229.363,145.263 231.143,146 233,146 L297,146 C298.857,146 300.637,145.263 301.95,143.95 C303.263,142.637 304,140.857 304,139 L304,117 Z" />
            <path d="M239.822,92.019 L244.155,80.019 L241.333,82 L256.667,82 L253.845,80.019 L258.178,92.019 L261,88 L237,88 L239.822,92.019 Z M234.178,89.981 C233.472,91.937 234.921,94 237,94 L261,94 C263.079,94 264.528,91.937 263.822,89.981 L259.488,77.981 C259.059,76.792 257.931,76 256.667,76 L241.333,76 C240.069,76 238.941,76.792 238.512,77.981 L234.178,89.981 Z" />
            <path d="M264,117 C264,110.925 268.925,106 275,106 C281.075,106 286,110.925 286,117 C286,123.075 281.075,128 275,128 C268.925,128 264,123.075 264,117 Z M258,117 C258,126.389 265.611,134 275,134 C284.389,134 292,126.389 292,117 C292,107.611 284.389,100 275,100 C265.611,100 258,107.611 258,117 Z" />
            <path d="M286,83 L286,91 C286,92.657 287.343,94 289,94 C290.657,94 292,92.657 292,91 L292,83 C292,81.343 290.657,80 289,80 C287.343,80 286,81.343 286,83 Z" />
        </g>
        <g id="Regular-S">
            <path d="M498,117 L498,139 C498,139.265 497.895,139.52 497.707,139.707 C497.52,139.895 497.265,140 497,140 L433,140 C432.735,140 432.48,139.895 432.293,139.707 C432.105,139.52 432,139.265 432,139 L432,95 C432,94.735 432.105,94.48 432.293,94.293 C432.48,94.105 432.735,94 433,94 L497,94 C497.265,94 497.52,94.105 497.707,94.293 C497.895,94.48 498,94.735 498,95 L498,117 Z M504,117 L504,95 C504,93.143 503.263,91.363 501.95,90.05 C500.637,88.737 498.857,88 497,88 L433,88 C431.143,88 429.363,88.737 428.05,90.05 C426.737,91.363 426,93.143 426,95 L426,139 C426,140.857 426.737,142.637 428.05,143.95 C429.363,145.263 431.143,146 433,146 L497,146 C498.857,146 500.637,145.263 501.95,143.95 C503.263,142.637 504,140.857 504,139 L504,117 Z" />
            <path d="M439.822,92.019 L444.155,80.019 L441.333,82 L456.667,82 L453.845,80.019 L458.178,92.019 L461,88 L437,88 L439.822,92.019 Z M434.178,89.981 C433.472,91.937 434.921,94 437,94 L461,94 C463.079,94 464.528,91.937 463.822,89.981 L459.488,77.981 C459.059,76.792 457.931,76 456.667,76 L441.333,76 C440.069,76 438.941,76.792 438.512,77.981 L434.178,89.981 Z" />
            <path d="M464,117 C464,110.925 468.925,106 475,106 C481.075,106 486,110.925 486,117 C486,123.075 481.075,128 475,128 C468.925,128 464,123.075 464,117 Z M458,117 C458,126.389 465.611,134 475,134 C484.389,134 492,126.389 492,117 C492,107.611 484.389,100 475,100 C465.611,100 458,107.611 458,117 Z" />
            <path d="M486,83 L486,91 C486,92.657 487.343,94 489,94 C490.657,94 492,92.657 492,91 L492,83 C492,81.343 490.657,80 489,80 C487.343,80 486,81.343 486,83 Z" />
        </g>
        <g id="Black-S">
            <path d="M698,117 L698,139 C698,139.265 697.895,139.52 697.707,139.707 C697.52,139.895 697.265,140 697,140 L633,140 C632.735,140 632.48,139.895 632.293,139.707 C632.105,139.52 632,139.265 632,139 L632,95 C632,94.735 632.105,94.48 632.293,94.293 C632.48,94.105 632.735,94 633,94 L697,94 C697.265,94 697.52,94.105 697.707,94.293 C697.895,94.48 698,94.735 698,95 L698,117 Z M704,117 L704,95 C704,93.143 703.263,91.363 701.95,90.05 C700.637,88.737 698.857,88 697,88 L633,88 C631.143,88 629.363,88.737 628.05,90.05 C626.737,91.363 626,93.143 626,95 L626,139 C626,140.857 626.737,142.637 628.05,143.95 C629.363,145.263 631.143,146 633,146 L697,146 C698.857,146 700.637,145.263 701.95,143.95 C703.263,142.637 704,140.857 704,139 L704,117 Z" />
            <path d="M639.822,92.019 L644.155,80.019 L641.333,82 L656.667,82 L653.845,80.019 L658.178,92.019 L661,88 L637,88 L639.822,92.019 Z M634.178,89.981 C633.472,91.937 634.921,94 637,94 L661,94 C663.079,94 664.528,91.937 663.822,89.981 L659.488,77.981 C659.059,76.792 657.931,76 656.667,76 L641.333,76 C640.069,76 638.941,76.792 638.512,77.981 L634.178,89.981 Z" />
            <path d="M664,117 C664,110.925 668.925,106 675,106 C681.075,106 686,110.925 686,117 C686,123.075 681.075,128 675,128 C668.925,128 664,123.075 664,117 Z M658,117 C658,126.389 665.611,134 675,134 C684.389,134 692,126.389 692,117 C692,107.611 684.389,100 675,100 C665.611,100 658,107.611 658,117 Z" />
            <path d="M686,83 L686,91 C686,92.657 687.343,94 689,94 C690.657,94 692,92.657 692,91 L692,83 C692,81.343 690.657,80 689,80 C687.343,80 686,81.343 686,83 Z" />
        </g>
    </g>
</svg>