<?xml version="1.0" encoding="UTF-8"?>
<svg height="600" width="800" xmlns="http://www.w3.org/2000/svg" xmlns:xlink="http://www.w3.org/1999/xlink">
    <g id="Notes" font-family="'LucidaGrande', 'Lucida Grande', sans-serif" font-size="13">
        <rect fill="white" height="600.0" width="800.0" x="0.0" y="0.0" />
        <g font-size="13">
            <text x="18.0" y="176.0">Small</text>
            <text x="18.0" y="376.0">Medium</text>
            <text x="18.0" y="576.0">Large</text>
        </g>
        <g font-size="9">
            <text x="250.0" y="30.0">Ultralight</text>
            <text x="450.0" y="30.0">Regular</text>
            <text x="650.0" y="30.0">Black</text>
            <text id="template-version" fill="#505050" text-anchor="end" x="785.0" y="575.0">Template v.3.0</text>
            <a href="https://github.com/swhitty/SwiftDraw">
                <text fill="#505050" text-anchor="end" x="785.0" y="590.0">https://github.com/swhitty/SwiftDraw</text>
            </a>
        </g>
    </g>
    <g id="Guides" stroke="rgb(39, 170, 225)" stroke-width="0.5">
        <path id="Capline-S" d="M18,76 l800,0" />
        <path id="H-reference" d="M85,145.755 L87.685,145.755 L113.369,79.287 L114.052,79.287 L114.052,76 L112.148,76 L85,145.755 Z M95.693,121.536 L130.996,121.536 L130.263,119.313 L96.474,119.313 L95.693,121.536 Z M139.15,145.755 L141.787,145.755 L114.638,76 L113.466,76 L113.466,79.287 L139.15,145.755 Z" stroke="none" />
        <path id="Baseline-S" d="M18,146 l800,0" />
        <path id="left-margin-Ultralight-S" d="M216.41,56 l0,110" />
        <path id="right-margin-Ultralight-S" d="M313.59,56 l0,110" />
        <path id="left-margin-Regular-S" d="M416.41,56 l0,110" />
        <path id="right-margin-Regular-S" d="M513.59,56 l0,110" />
        <path id="left-margin-Black-S" d="M616.41,56 l0,110" />
        <path id="right-margin-Black-S" d="M713.59,56 l0,110" />
        <path id="Capline-M" d="M18,276 l800,0" />
        <path id="Baseline-M" d="M18,346 l800,0" />
        <path id="Capline-L" d="M18,476 l800,0" />
        <path id="Baseline-L" d="M18,546 l800,0" />
    </g>
    <g id="Symbols">
        <g id="Ultralight-S">
            <path d="M234.327,108.402 C234.017,107.746 233.734,107.092 233.479,106.44 C232.369,103.602 231.795,100.819 231.795,98.077 C231.795,88.864 239.35,81.385 248.683,81.385 C254.416,81.385 259.654,84.227 262.765,88.859 C263.832,90.447 266.168,90.447 267.235,88.859 C270.346,84.227 275.584,81.385 281.317,81.385 C290.65,81.385 298.205,88.864 298.205,98.077 C298.205,105.324 294.32,112.589 287.289,120.437 C286.018,121.856 284.678,123.259 283.127,124.815 C282.221,125.724 279.34,128.553 279.423,128.471 C275.206,132.646 269.904,136.845 263.517,141.061 L266.483,141.061 C260.096,136.845 254.794,132.646 250.577,128.471 C250.147,128.045 248.528,126.457 248.422,126.352 C247.362,125.309 245.658,125.323 244.615,126.382 C243.572,127.442 243.585,129.147 244.645,130.19 C244.758,130.301 246.369,131.882 246.789,132.298 C251.274,136.739 256.85,141.155 263.517,145.555 C264.417,146.148 265.583,146.148 266.483,145.555 C273.15,141.155 278.726,136.739 283.211,132.298 C283.111,132.397 286.01,129.549 286.94,128.617 C288.554,126.998 289.957,125.529 291.299,124.03 C299.133,115.286 303.59,106.953 303.59,98.077 C303.59,85.878 293.612,76 281.317,76 C273.775,76 266.868,79.748 262.765,85.857 L267.235,85.857 C263.132,79.748 256.225,76 248.683,76 C236.388,76 226.41,85.878 226.41,98.077 C226.41,101.524 227.12,104.965 228.464,108.401 C228.765,109.17 229.097,109.938 229.459,110.704 C230.095,112.049 231.7,112.623 233.044,111.987 C234.388,111.351 234.963,109.746 234.327,108.402 Z" />
            <path d="M238.17,123.641 L258.118,104.016 L254.297,103.971 L265.9,115.936 C266.954,117.023 268.696,117.027 269.756,115.946 L287.137,98.2 C288.178,97.137 288.16,95.433 287.098,94.392 C286.035,93.352 284.331,93.37 283.29,94.432 L265.909,112.178 L269.765,112.188 L258.163,100.222 C257.122,99.15 255.407,99.129 254.342,100.177 L234.394,119.802 C233.334,120.845 233.32,122.55 234.363,123.61 C235.406,124.67 237.11,124.684 238.17,123.641 Z" />
        </g>
        <g id="Regular-S">
            <path d="M434.327,108.402 C434.017,107.746 433.734,107.092 433.479,106.44 C432.369,103.602 431.795,100.819 431.795,98.077 C431.795,88.864 439.35,81.385 448.683,81.385 C454.416,81.385 459.654,84.227 462.765,88.859 C463.832,90.447 466.168,90.447 467.235,88.859 C470.346,84.227 475.584,81.385 481.317,81.385 C490.65,81.385 498.205,88.864 498.205,98.077 C498.205,105.324 494.32,112.589 487.289,120.437 C486.018,121.856 484.678,123.259 483.127,124.815 C482.221,125.724 479.34,128.553 479.423,128.471 C475.206,132.646 469.904,136.845 463.517,141.061 L466.483,141.061 C460.096,136.845 454.794,132.646 450.577,128.471 C450.147,128.045 448.528,126.457 448.422,126.352 C447.362,125.309 445.658,125.323 444.615,126.382 C443.572,127.442 443.585,129.147 444.645,130.19 C444.758,130.301 446.369,131.882 446.789,132.298 C451.274,136.739 456.85,141.155 463.517,145.555 C464.417,146.148 465.583,146.148 466.483,145.555 C473.15,141.155 478.726,136.739 483.211,132.298 C483.111,132.397 486.01,129.549 486.94,128.617 C488.554,126.998 489.957,125.529 491.299,124.03 C499.133,115.286 503.59,106.953 503.59,98.077 C503.59,85.878 493.612,76 481.317,76 C473.775,76 466.868,79.748 462.765,85.857 L467.235,85.857 C463.132,79.748 456.225,76 448.683,76 C436.388,76 426.41,85.878 426.41,98.077 C426.41,101.524 427.12,104.965 428.464,108.401 C428.765,109.17 429.097,109.938 429.459,110.704 C430.095,112.049 431.7,112.623 433.044,111.987 C434.388,111.351 434.963,109.746 434.327,108.402 Z" />
            <path d="M438.17,123.641 L458.118,104.016 L454.297,103.971 L465.9,115.936 C466.954,117.023 468.696,117.027 469.756,115.946 L487.137,98.2 C488.178,97.137 488.16,95.433 487.098,94.392 C486.035,93.352 484.331,93.37 483.29,94.432 L465.909,112.178 L469.765,112.188 L458.163,100.222 C457.122,99.15 455.407,99.129 454.342,100.177 L434.394,119.802 C433.334,120.845 433.32,122.55 434.363,123.61 C435.406,124.67 437.11,124.684 438.17,123.641 Z" />
        </g>
        <g id="Black-S">
            <path d="M634.327,108.402 C634.017,107.746 633.734,107.092 633.479,106.44 C632.369,103.602 631.795,100.819 631.795,98.077 C631.795,88.864 639.35,81.385 648.683,81.385 C654.416,81.385 659.654,84.227 662.765,88.859 C663.832,90.447 666.168,90.447 667.235,88.859 C670.346,84.227 675.584,81.385 681.317,81.385 C690.65,81.385 698.205,88.864 698.205,98.077 C698.205,105.324 694.32,112.589 687.289,120.437 C686.018,121.856 684.678,123.259 683.127,124.815 C682.221,125.724 679.341,128.553 679.423,128.471 C675.206,132.646 669.904,136.845 663.517,141.061 L666.483,141.061 C660.096,136.845 654.794,132.646 650.577,128.471 C650.147,128.045 648.528,126.457 648.422,126.352 C647.362,125.309 645.658,125.323 644.615,126.382 C643.572,127.442 643.585,129.147 644.645,130.19 C644.758,130.301 646.369,131.882 646.789,132.298 C651.274,136.739 656.85,141.155 663.517,145.555 C664.417,146.148 665.583,146.148 666.483,145.555 C673.15,141.155 678.726,136.739 683.211,132.298 C683.111,132.397 686.01,129.549 686.94,128.617 C688.554,126.998 689.957,125.529 691.299,124.03 C699.133,115.286 703.59,106.953 703.59,98.077 C703.59,85.878 693.612,76 681.317,76 C673.775,76 666.868,79.748 662.765,85.857 L667.235,85.857 C663.132,79.748 656.225,76 648.683,76 C636.388,76 626.41,85.878 626.41,98.077 C626.41,101.524 627.12,104.965 628.464,108.401 C628.765,109.17 629.097,109.938 629.459,110.704 C630.095,112.049 631.7,112.623 633.044,111.987 C634.388,111.351 634.963,109.746 634.327,108.402 Z" />
            <path d="M638.17,123.641 L658.118,104.016 L654.297,103.971 L665.9,115.936 C666.954,117.023 668.696,117.027 669.756,115.946 L687.137,98.2 C688.178,97.137 688.16,95.433 687.098,94.392 C686.035,93.352 684.331,93.37 683.29,94.432 L665.909,112.178 L669.765,112.188 L658.163,100.222 C657.122,99.15 655.407,99.129 654.342,100.177 L634.394,119.802 C633.334,120.845 633.32,122.55 634.363,123.61 C635.406,124.67 637.11,124.684 638.17,123.641 Z" />
        </g>
    </g>
</svg>