<?xml version="1.0" encoding="UTF-8"?>
<svg height="600" width="800" xmlns="http://www.w3.org/2000/svg" xmlns:xlink="http://www.w3.org/1999/xlink">
    <g id="Notes" font-family="'LucidaGrande', 'Lucida Grande', sans-serif" font-size="13">
        <rect fill="white" height="600.0" width="800.0" x="0.0" y="0.0" />
        <g font-size="13">
            <text x="18.0" y="176.0">Small</text>
            <text x="18.0" y="376.0">Medium</text>
            <text x="18.0" y="576.0">Large</text>
        </g>
        <g font-size="9">
            <text x="250.0" y="30.0">Ultralight</text>
            <text x="450.0" y="30.0">Regular</text>
            <text x="650.0" y="30.0">Black</text>
            <text id="template-version" fill="#505050" text-anchor="end" x="785.0" y="575.0">Template v.3.0</text>
            <a href="https://github.com/swhitty/SwiftDraw">
                <text fill="#505050" text-anchor="end" x="785.0" y="590.0">https://github.com/swhitty/SwiftDraw</text>
            </a>
        </g>
    </g>
    <g id="Guides" stroke="rgb(39, 170, 225)" stroke-width="0.5">
        <path id="Capline-S" d="M18,76 l800,0" />
        <path id="H-reference" d="M85,145.755 L87.685,145.755 L113.369,79.287 L114.052,79.287 L114.052,76 L112.148,76 L85,145.755 Z M95.693,121.536 L130.996,121.536 L130.263,119.313 L96.474,119.313 L95.693,121.536 Z M139.15,145.755 L141.787,145.755 L114.638,76 L113.466,76 L113.466,79.287 L139.15,145.755 Z" stroke="none" />
        <path id="Baseline-S" d="M18,146 l800,0" />
        <path id="left-margin-Ultralight-S" d="M219.995,56 l0,110" />
        <path id="right-margin-Ultralight-S" d="M310.005,56 l0,110" />
        <path id="left-margin-Regular-S" d="M419.995,56 l0,110" />
        <path id="right-margin-Regular-S" d="M510.005,56 l0,110" />
        <path id="left-margin-Black-S" d="M619.995,56 l0,110" />
        <path id="right-margin-Black-S" d="M710.005,56 l0,110" />
        <path id="Capline-M" d="M18,276 l800,0" />
        <path id="Baseline-M" d="M18,346 l800,0" />
        <path id="Capline-L" d="M18,476 l800,0" />
        <path id="Baseline-L" d="M18,546 l800,0" />
    </g>
    <g id="Symbols">
        <g id="Ultralight-S">
            <path d="M234.169,91.564 L245.564,80.169 L242.111,80.169 L253.506,91.564 L255.233,87.395 L232.442,87.395 L234.169,91.564 Z M230.715,88.111 C229.177,89.649 230.266,92.279 232.442,92.279 L255.233,92.279 C257.408,92.279 258.497,89.649 256.959,88.111 L245.564,76.715 C244.61,75.762 243.064,75.762 242.111,76.715 L230.715,88.111 Z" />
            <path d="M276.494,91.564 L287.889,80.169 L284.436,80.169 L295.831,91.564 L297.558,87.395 L274.767,87.395 L276.494,91.564 Z M273.041,88.111 C271.503,89.649 272.592,92.279 274.767,92.279 L297.558,92.279 C299.734,92.279 300.823,89.649 299.285,88.111 L287.889,76.715 C286.936,75.762 285.39,75.762 284.436,76.715 L273.041,88.111 Z" />
            <path d="M300,143.558 L300,114.256 C300,112.907 298.907,111.814 297.558,111.814 L291.047,111.814 L293.488,114.256 L293.488,99.605 C293.488,98.256 292.395,97.163 291.047,97.163 L281.279,97.163 C279.93,97.163 278.837,98.256 278.837,99.605 L278.837,114.256 L281.279,111.814 L271.512,111.814 L273.953,114.256 L273.953,106.116 C273.953,105.469 273.696,104.848 273.238,104.39 L266.727,97.878 C265.773,96.924 264.227,96.924 263.273,97.878 L256.762,104.39 C256.304,104.848 256.047,105.469 256.047,106.116 L256.047,114.256 L258.488,111.814 L248.721,111.814 L251.163,114.256 L251.163,99.605 C251.163,98.256 250.07,97.163 248.721,97.163 L238.953,97.163 C237.605,97.163 236.512,98.256 236.512,99.605 L236.512,114.256 L238.953,111.814 L232.442,111.814 C231.093,111.814 230,112.907 230,114.256 L230,143.558 C230,144.907 231.093,146 232.442,146 L255.233,146 C256.581,146 257.674,144.907 257.674,143.558 L257.674,137.047 C257.674,133.001 260.954,129.721 265,129.721 C269.046,129.721 272.326,133.001 272.326,137.047 L272.326,143.558 C272.326,144.907 273.419,146 274.767,146 L297.558,146 C298.907,146 300,144.907 300,143.558 Z M295.116,143.558 L297.558,141.116 L274.767,141.116 L277.209,143.558 L277.209,137.047 C277.209,130.304 271.743,124.837 265,124.837 C258.257,124.837 252.791,130.304 252.791,137.047 L252.791,143.558 L255.233,141.116 L232.442,141.116 L234.884,143.558 L234.884,114.256 L232.442,116.698 L238.953,116.698 C240.302,116.698 241.395,115.604 241.395,114.256 L241.395,99.605 L238.953,102.047 L248.721,102.047 L246.279,99.605 L246.279,114.256 C246.279,115.604 247.372,116.698 248.721,116.698 L258.488,116.698 C259.837,116.698 260.93,115.604 260.93,114.256 L260.93,106.116 L260.215,107.843 L266.727,101.331 L263.273,101.331 L269.785,107.843 L269.07,106.116 L269.07,114.256 C269.07,115.604 270.163,116.698 271.512,116.698 L281.279,116.698 C282.628,116.698 283.721,115.604 283.721,114.256 L283.721,99.605 L281.279,102.047 L291.047,102.047 L288.605,99.605 L288.605,114.256 C288.605,115.604 289.698,116.698 291.047,116.698 L297.558,116.698 L295.116,114.256 L295.116,143.558 Z" />
            <path d="M247.907,89.837 L247.907,99.605 L250.349,97.163 L237.326,97.163 L239.767,99.605 L239.767,89.837 L237.326,92.279 L250.349,92.279 L247.907,89.837 Z M252.791,89.837 C252.791,88.489 251.697,87.395 250.349,87.395 L237.326,87.395 C235.977,87.395 234.884,88.489 234.884,89.837 L234.884,99.605 C234.884,100.953 235.977,102.047 237.326,102.047 L250.349,102.047 C251.697,102.047 252.791,100.953 252.791,99.605 L252.791,89.837 Z" />
            <path d="M290.233,89.837 L290.233,99.605 L292.674,97.163 L279.651,97.163 L282.093,99.605 L282.093,89.837 L279.651,92.279 L292.674,92.279 L290.233,89.837 Z M295.116,89.837 C295.116,88.489 294.023,87.395 292.674,87.395 L279.651,87.395 C278.303,87.395 277.209,88.489 277.209,89.837 L277.209,99.605 C277.209,100.953 278.303,102.047 279.651,102.047 L292.674,102.047 C294.023,102.047 295.116,100.953 295.116,99.605 L295.116,89.837 Z" />
        </g>
        <g id="Regular-S">
            <path d="M434.169,91.564 L445.564,80.169 L442.111,80.169 L453.506,91.564 L455.233,87.395 L432.442,87.395 L434.169,91.564 Z M430.715,88.111 C429.177,89.649 430.266,92.279 432.442,92.279 L455.233,92.279 C457.408,92.279 458.497,89.649 456.959,88.111 L445.564,76.715 C444.61,75.762 443.064,75.762 442.111,76.715 L430.715,88.111 Z" />
            <path d="M476.494,91.564 L487.889,80.169 L484.436,80.169 L495.831,91.564 L497.558,87.395 L474.767,87.395 L476.494,91.564 Z M473.041,88.111 C471.503,89.649 472.592,92.279 474.767,92.279 L497.558,92.279 C499.734,92.279 500.823,89.649 499.285,88.111 L487.889,76.715 C486.936,75.762 485.39,75.762 484.436,76.715 L473.041,88.111 Z" />
            <path d="M500,143.558 L500,114.256 C500,112.907 498.907,111.814 497.558,111.814 L491.047,111.814 L493.488,114.256 L493.488,99.605 C493.488,98.256 492.395,97.163 491.047,97.163 L481.279,97.163 C479.93,97.163 478.837,98.256 478.837,99.605 L478.837,114.256 L481.279,111.814 L471.512,111.814 L473.953,114.256 L473.953,106.116 C473.953,105.469 473.696,104.848 473.238,104.39 L466.727,97.878 C465.773,96.924 464.227,96.924 463.273,97.878 L456.762,104.39 C456.304,104.848 456.047,105.469 456.047,106.116 L456.047,114.256 L458.488,111.814 L448.721,111.814 L451.163,114.256 L451.163,99.605 C451.163,98.256 450.07,97.163 448.721,97.163 L438.953,97.163 C437.605,97.163 436.512,98.256 436.512,99.605 L436.512,114.256 L438.953,111.814 L432.442,111.814 C431.093,111.814 430,112.907 430,114.256 L430,143.558 C430,144.907 431.093,146 432.442,146 L455.233,146 C456.581,146 457.674,144.907 457.674,143.558 L457.674,137.047 C457.674,133.001 460.954,129.721 465,129.721 C469.046,129.721 472.326,133.001 472.326,137.047 L472.326,143.558 C472.326,144.907 473.419,146 474.767,146 L497.558,146 C498.907,146 500,144.907 500,143.558 Z M495.116,143.558 L497.558,141.116 L474.767,141.116 L477.209,143.558 L477.209,137.047 C477.209,130.304 471.743,124.837 465,124.837 C458.257,124.837 452.791,130.304 452.791,137.047 L452.791,143.558 L455.233,141.116 L432.442,141.116 L434.884,143.558 L434.884,114.256 L432.442,116.698 L438.953,116.698 C440.302,116.698 441.395,115.604 441.395,114.256 L441.395,99.605 L438.953,102.047 L448.721,102.047 L446.279,99.605 L446.279,114.256 C446.279,115.604 447.372,116.698 448.721,116.698 L458.488,116.698 C459.837,116.698 460.93,115.604 460.93,114.256 L460.93,106.116 L460.215,107.843 L466.727,101.331 L463.273,101.331 L469.785,107.843 L469.07,106.116 L469.07,114.256 C469.07,115.604 470.163,116.698 471.512,116.698 L481.279,116.698 C482.628,116.698 483.721,115.604 483.721,114.256 L483.721,99.605 L481.279,102.047 L491.047,102.047 L488.605,99.605 L488.605,114.256 C488.605,115.604 489.698,116.698 491.047,116.698 L497.558,116.698 L495.116,114.256 L495.116,143.558 Z" />
            <path d="M447.907,89.837 L447.907,99.605 L450.349,97.163 L437.326,97.163 L439.767,99.605 L439.767,89.837 L437.326,92.279 L450.349,92.279 L447.907,89.837 Z M452.791,89.837 C452.791,88.489 451.697,87.395 450.349,87.395 L437.326,87.395 C435.977,87.395 434.884,88.489 434.884,89.837 L434.884,99.605 C434.884,100.953 435.977,102.047 437.326,102.047 L450.349,102.047 C451.697,102.047 452.791,100.953 452.791,99.605 L452.791,89.837 Z" />
            <path d="M490.233,89.837 L490.233,99.605 L492.674,97.163 L479.651,97.163 L482.093,99.605 L482.093,89.837 L479.651,92.279 L492.674,92.279 L490.233,89.837 Z M495.116,89.837 C495.116,88.489 494.023,87.395 492.674,87.395 L479.651,87.395 C478.303,87.395 477.209,88.489 477.209,89.837 L477.209,99.605 C477.209,100.953 478.303,102.047 479.651,102.047 L492.674,102.047 C494.023,102.047 495.116,100.953 495.116,99.605 L495.116,89.837 Z" />
        </g>
        <g id="Black-S">
            <path d="M634.169,91.564 L645.564,80.169 L642.111,80.169 L653.506,91.564 L655.233,87.395 L632.442,87.395 L634.169,91.564 Z M630.715,88.111 C629.177,89.649 630.266,92.279 632.442,92.279 L655.233,92.279 C657.408,92.279 658.497,89.649 656.959,88.111 L645.564,76.715 C644.61,75.762 643.064,75.762 642.111,76.715 L630.715,88.111 Z" />
            <path d="M676.494,91.564 L687.889,80.169 L684.436,80.169 L695.831,91.564 L697.558,87.395 L674.767,87.395 L676.494,91.564 Z M673.041,88.111 C671.503,89.649 672.592,92.279 674.767,92.279 L697.558,92.279 C699.734,92.279 700.823,89.649 699.285,88.111 L687.889,76.715 C686.936,75.762 685.39,75.762 684.436,76.715 L673.041,88.111 Z" />
            <path d="M700,143.558 L700,114.256 C700,112.907 698.907,111.814 697.558,111.814 L691.047,111.814 L693.488,114.256 L693.488,99.605 C693.488,98.256 692.395,97.163 691.047,97.163 L681.279,97.163 C679.93,97.163 678.837,98.256 678.837,99.605 L678.837,114.256 L681.279,111.814 L671.512,111.814 L673.953,114.256 L673.953,106.116 C673.953,105.469 673.696,104.848 673.238,104.39 L666.727,97.878 C665.773,96.924 664.227,96.924 663.273,97.878 L656.762,104.39 C656.304,104.848 656.047,105.469 656.047,106.116 L656.047,114.256 L658.488,111.814 L648.721,111.814 L651.163,114.256 L651.163,99.605 C651.163,98.256 650.07,97.163 648.721,97.163 L638.953,97.163 C637.605,97.163 636.512,98.256 636.512,99.605 L636.512,114.256 L638.953,111.814 L632.442,111.814 C631.093,111.814 630,112.907 630,114.256 L630,143.558 C630,144.907 631.093,146 632.442,146 L655.233,146 C656.581,146 657.674,144.907 657.674,143.558 L657.674,137.047 C657.674,133.001 660.954,129.721 665,129.721 C669.046,129.721 672.326,133.001 672.326,137.047 L672.326,143.558 C672.326,144.907 673.419,146 674.767,146 L697.558,146 C698.907,146 700,144.907 700,143.558 Z M695.116,143.558 L697.558,141.116 L674.767,141.116 L677.209,143.558 L677.209,137.047 C677.209,130.304 671.743,124.837 665,124.837 C658.257,124.837 652.791,130.304 652.791,137.047 L652.791,143.558 L655.233,141.116 L632.442,141.116 L634.884,143.558 L634.884,114.256 L632.442,116.698 L638.953,116.698 C640.302,116.698 641.395,115.604 641.395,114.256 L641.395,99.605 L638.953,102.047 L648.721,102.047 L646.279,99.605 L646.279,114.256 C646.279,115.604 647.372,116.698 648.721,116.698 L658.488,116.698 C659.837,116.698 660.93,115.604 660.93,114.256 L660.93,106.116 L660.215,107.843 L666.727,101.331 L663.273,101.331 L669.785,107.843 L669.07,106.116 L669.07,114.256 C669.07,115.604 670.163,116.698 671.512,116.698 L681.279,116.698 C682.628,116.698 683.721,115.604 683.721,114.256 L683.721,99.605 L681.279,102.047 L691.047,102.047 L688.605,99.605 L688.605,114.256 C688.605,115.604 689.698,116.698 691.047,116.698 L697.558,116.698 L695.116,114.256 L695.116,143.558 Z" />
            <path d="M647.907,89.837 L647.907,99.605 L650.349,97.163 L637.326,97.163 L639.767,99.605 L639.767,89.837 L637.326,92.279 L650.349,92.279 L647.907,89.837 Z M652.791,89.837 C652.791,88.489 651.697,87.395 650.349,87.395 L637.326,87.395 C635.977,87.395 634.884,88.489 634.884,89.837 L634.884,99.605 C634.884,100.953 635.977,102.047 637.326,102.047 L650.349,102.047 C651.697,102.047 652.791,100.953 652.791,99.605 L652.791,89.837 Z" />
            <path d="M690.233,89.837 L690.233,99.605 L692.674,97.163 L679.651,97.163 L682.093,99.605 L682.093,89.837 L679.651,92.279 L692.674,92.279 L690.233,89.837 Z M695.116,89.837 C695.116,88.489 694.023,87.395 692.674,87.395 L679.651,87.395 C678.303,87.395 677.209,88.489 677.209,89.837 L677.209,99.605 C677.209,100.953 678.303,102.047 679.651,102.047 L692.674,102.047 C694.023,102.047 695.116,100.953 695.116,99.605 L695.116,89.837 Z" />
        </g>
    </g>
</svg>