<?xml version="1.0" encoding="UTF-8"?>
<svg height="600" width="800" xmlns="http://www.w3.org/2000/svg" xmlns:xlink="http://www.w3.org/1999/xlink">
    <g id="Notes" font-family="'LucidaGrande', 'Lucida Grande', sans-serif" font-size="13">
        <rect fill="white" height="600.0" width="800.0" x="0.0" y="0.0" />
        <g font-size="13">
            <text x="18.0" y="176.0">Small</text>
            <text x="18.0" y="376.0">Medium</text>
            <text x="18.0" y="576.0">Large</text>
        </g>
        <g font-size="9">
            <text x="250.0" y="30.0">Ultralight</text>
            <text x="450.0" y="30.0">Regular</text>
            <text x="650.0" y="30.0">Black</text>
            <text id="template-version" fill="#505050" text-anchor="end" x="785.0" y="575.0">Template v.3.0</text>
            <a href="https://github.com/swhitty/SwiftDraw">
                <text fill="#505050" text-anchor="end" x="785.0" y="590.0">https://github.com/swhitty/SwiftDraw</text>
            </a>
        </g>
    </g>
    <g id="Guides" stroke="rgb(39, 170, 225)" stroke-width="0.5">
        <path id="Capline-S" d="M18,76 l800,0" />
        <path id="H-reference" d="M85,145.755 L87.685,145.755 L113.369,79.287 L114.052,79.287 L114.052,76 L112.148,76 L85,145.755 Z M95.693,121.536 L130.996,121.536 L130.263,119.313 L96.474,119.313 L95.693,121.536 Z M139.15,145.755 L141.787,145.755 L114.638,76 L113.466,76 L113.466,79.287 L139.15,145.755 Z" stroke="none" />
        <path id="Baseline-S" d="M18,146 l800,0" />
        <path id="left-margin-Ultralight-S" d="M212,56 l0,110" />
        <path id="right-margin-Ultralight-S" d="M318,56 l0,110" />
        <path id="left-margin-Regular-S" d="M412,56 l0,110" />
        <path id="right-margin-Regular-S" d="M518,56 l0,110" />
        <path id="left-margin-Black-S" d="M612,56 l0,110" />
        <path id="right-margin-Black-S" d="M718,56 l0,110" />
        <path id="Capline-M" d="M18,276 l800,0" />
        <path id="Baseline-M" d="M18,346 l800,0" />
        <path id="Capline-L" d="M18,476 l800,0" />
        <path id="Baseline-L" d="M18,546 l800,0" />
    </g>
    <g id="Symbols">
        <g id="Ultralight-S">
            <path d="M262,141 C262,121.67 246.33,106 227,106 C225.343,106 224,107.343 224,109 C224,110.657 225.343,112 227,112 C243.016,112 256,124.984 256,141 C256,142.657 257.343,144 259,144 C260.657,144 262,142.657 262,141 Z" />
            <path d="M246,141 C246,130.507 237.493,122 227,122 C225.343,122 224,123.343 224,125 C224,126.657 225.343,128 227,128 C234.18,128 240,133.82 240,141 C240,142.657 241.343,144 243,144 C244.657,144 246,142.657 246,141 Z" />
            <path d="M228,145 C230.761,145 233,142.761 233,140 C233,137.239 230.761,135 228,135 C225.239,135 223,137.239 223,140 C223,142.761 225.239,145 228,145 Z" />
            <path d="M228,95.113 L228,79 L225,82 L305,82 L302,79 L302,143 L305,140 L274.542,140 C272.886,140 271.542,141.343 271.542,143 C271.542,144.657 272.886,146 274.542,146 L305,146 C306.657,146 308,144.657 308,143 L308,79 C308,77.343 306.657,76 305,76 L225,76 C223.343,76 222,77.343 222,79 L222,95.113 C222,96.77 223.343,98.113 225,98.113 C226.657,98.113 228,96.77 228,95.113 Z" />
        </g>
        <g id="Regular-S">
            <path d="M462,141 C462,121.67 446.33,106 427,106 C425.343,106 424,107.343 424,109 C424,110.657 425.343,112 427,112 C443.016,112 456,124.984 456,141 C456,142.657 457.343,144 459,144 C460.657,144 462,142.657 462,141 Z" />
            <path d="M446,141 C446,130.507 437.493,122 427,122 C425.343,122 424,123.343 424,125 C424,126.657 425.343,128 427,128 C434.18,128 440,133.82 440,141 C440,142.657 441.343,144 443,144 C444.657,144 446,142.657 446,141 Z" />
            <path d="M428,145 C430.761,145 433,142.761 433,140 C433,137.239 430.761,135 428,135 C425.239,135 423,137.239 423,140 C423,142.761 425.239,145 428,145 Z" />
            <path d="M428,95.113 L428,79 L425,82 L505,82 L502,79 L502,143 L505,140 L474.542,140 C472.886,140 471.542,141.343 471.542,143 C471.542,144.657 472.886,146 474.542,146 L505,146 C506.657,146 508,144.657 508,143 L508,79 C508,77.343 506.657,76 505,76 L425,76 C423.343,76 422,77.343 422,79 L422,95.113 C422,96.77 423.343,98.113 425,98.113 C426.657,98.113 428,96.77 428,95.113 Z" />
        </g>
        <g id="Black-S">
            <path d="M662,141 C662,121.67 646.33,106 627,106 C625.343,106 624,107.343 624,109 C624,110.657 625.343,112 627,112 C643.016,112 656,124.984 656,141 C656,142.657 657.343,144 659,144 C660.657,144 662,142.657 662,141 Z" />
            <path d="M646,141 C646,130.507 637.493,122 627,122 C625.343,122 624,123.343 624,125 C624,126.657 625.343,128 627,128 C634.18,128 640,133.82 640,141 C640,142.657 641.343,144 643,144 C644.657,144 646,142.657 646,141 Z" />
            <path d="M628,145 C630.761,145 633,142.761 633,140 C633,137.239 630.761,135 628,135 C625.239,135 623,137.239 623,140 C623,142.761 625.239,145 628,145 Z" />
            <path d="M628,95.113 L628,79 L625,82 L705,82 L702,79 L702,143 L705,140 L674.542,140 C672.886,140 671.542,141.343 671.542,143 C671.542,144.657 672.886,146 674.542,146 L705,146 C706.657,146 708,144.657 708,143 L708,79 C708,77.343 706.657,76 705,76 L625,76 C623.343,76 622,77.343 622,79 L622,95.113 C622,96.77 623.343,98.113 625,98.113 C626.657,98.113 628,96.77 628,95.113 Z" />
        </g>
    </g>
</svg>