<?xml version="1.0" encoding="UTF-8"?>
<svg height="600" width="800" xmlns="http://www.w3.org/2000/svg" xmlns:xlink="http://www.w3.org/1999/xlink">
    <g id="Notes" font-family="'LucidaGrande', 'Lucida Grande', sans-serif" font-size="13">
        <rect fill="white" height="600.0" width="800.0" x="0.0" y="0.0" />
        <g font-size="13">
            <text x="18.0" y="176.0">Small</text>
            <text x="18.0" y="376.0">Medium</text>
            <text x="18.0" y="576.0">Large</text>
        </g>
        <g font-size="9">
            <text x="250.0" y="30.0">Ultralight</text>
            <text x="450.0" y="30.0">Regular</text>
            <text x="650.0" y="30.0">Black</text>
            <text id="template-version" fill="#505050" text-anchor="end" x="785.0" y="575.0">Template v.3.0</text>
            <a href="https://github.com/swhitty/SwiftDraw">
                <text fill="#505050" text-anchor="end" x="785.0" y="590.0">https://github.com/swhitty/SwiftDraw</text>
            </a>
        </g>
    </g>
    <g id="Guides" stroke="rgb(39, 170, 225)" stroke-width="0.5">
        <path id="Capline-S" d="M18,76 l800,0" />
        <path id="H-reference" d="M85,145.755 L87.685,145.755 L113.369,79.287 L114.052,79.287 L114.052,76 L112.148,76 L85,145.755 Z M95.693,121.536 L130.996,121.536 L130.263,119.313 L96.474,119.313 L95.693,121.536 Z M139.15,145.755 L141.787,145.755 L114.638,76 L113.466,76 L113.466,79.287 L139.15,145.755 Z" stroke="none" />
        <path id="Baseline-S" d="M18,146 l800,0" />
        <path id="left-margin-Ultralight-S" d="M218.293,56 l0,110" />
        <path id="right-margin-Ultralight-S" d="M311.707,56 l0,110" />
        <path id="left-margin-Regular-S" d="M418.293,56 l0,110" />
        <path id="right-margin-Regular-S" d="M511.707,56 l0,110" />
        <path id="left-margin-Black-S" d="M618.293,56 l0,110" />
        <path id="right-margin-Black-S" d="M711.707,56 l0,110" />
        <path id="Capline-M" d="M18,276 l800,0" />
        <path id="Baseline-M" d="M18,346 l800,0" />
        <path id="Capline-L" d="M18,476 l800,0" />
        <path id="Baseline-L" d="M18,546 l800,0" />
    </g>
    <g id="Symbols">
        <g id="Ultralight-S">
            <path d="M254.756,125.512 L288.902,125.512 C290.317,125.512 291.463,124.366 291.463,122.951 L291.463,78.561 C291.463,77.147 290.317,76 288.902,76 C287.488,76 286.341,77.147 286.341,78.561 L286.341,122.951 L288.902,120.39 L254.756,120.39 C253.342,120.39 252.195,121.537 252.195,122.951 C252.195,124.366 253.342,125.512 254.756,125.512 Z" />
            <path d="M275.244,103.317 L241.098,103.317 C239.683,103.317 238.537,104.464 238.537,105.878 L238.537,143.439 C238.537,144.853 239.683,146 241.098,146 C242.512,146 243.659,144.853 243.659,143.439 L243.659,105.878 L241.098,108.439 L275.244,108.439 C276.658,108.439 277.805,107.292 277.805,105.878 C277.805,104.464 276.658,103.317 275.244,103.317 Z" />
            <path d="M300.957,86.994 L290.713,76.75 C289.713,75.75 288.092,75.75 287.092,76.75 L276.848,86.994 C275.848,87.994 275.848,89.616 276.848,90.616 C277.848,91.616 279.469,91.616 280.469,90.616 L290.713,80.372 L287.092,80.372 L297.335,90.616 C298.336,91.616 299.957,91.616 300.957,90.616 C301.957,89.616 301.957,87.994 300.957,86.994 Z" />
            <path d="M249.531,131.384 L239.287,141.628 L242.908,141.628 L232.665,131.384 C231.664,130.384 230.043,130.384 229.043,131.384 C228.043,132.384 228.043,134.006 229.043,135.006 L239.287,145.25 C240.287,146.25 241.908,146.25 242.908,145.25 L253.152,135.006 C254.152,134.006 254.152,132.384 253.152,131.384 C252.152,130.384 250.531,130.384 249.531,131.384 Z" />
        </g>
        <g id="Regular-S">
            <path d="M454.756,125.512 L488.902,125.512 C490.317,125.512 491.463,124.366 491.463,122.951 L491.463,78.561 C491.463,77.147 490.317,76 488.902,76 C487.488,76 486.341,77.147 486.341,78.561 L486.341,122.951 L488.902,120.39 L454.756,120.39 C453.342,120.39 452.195,121.537 452.195,122.951 C452.195,124.366 453.342,125.512 454.756,125.512 Z" />
            <path d="M475.244,103.317 L441.098,103.317 C439.683,103.317 438.537,104.464 438.537,105.878 L438.537,143.439 C438.537,144.853 439.683,146 441.098,146 C442.512,146 443.659,144.853 443.659,143.439 L443.659,105.878 L441.098,108.439 L475.244,108.439 C476.658,108.439 477.805,107.292 477.805,105.878 C477.805,104.464 476.658,103.317 475.244,103.317 Z" />
            <path d="M500.957,86.994 L490.713,76.75 C489.713,75.75 488.092,75.75 487.092,76.75 L476.848,86.994 C475.848,87.994 475.848,89.616 476.848,90.616 C477.848,91.616 479.469,91.616 480.469,90.616 L490.713,80.372 L487.092,80.372 L497.335,90.616 C498.336,91.616 499.957,91.616 500.957,90.616 C501.957,89.616 501.957,87.994 500.957,86.994 Z" />
            <path d="M449.531,131.384 L439.287,141.628 L442.908,141.628 L432.665,131.384 C431.664,130.384 430.043,130.384 429.043,131.384 C428.043,132.384 428.043,134.006 429.043,135.006 L439.287,145.25 C440.287,146.25 441.908,146.25 442.908,145.25 L453.152,135.006 C454.152,134.006 454.152,132.384 453.152,131.384 C452.152,130.384 450.531,130.384 449.531,131.384 Z" />
        </g>
        <g id="Black-S">
            <path d="M654.756,125.512 L688.902,125.512 C690.317,125.512 691.463,124.366 691.463,122.951 L691.463,78.561 C691.463,77.147 690.317,76 688.902,76 C687.488,76 686.341,77.147 686.341,78.561 L686.341,122.951 L688.902,120.39 L654.756,120.39 C653.342,120.39 652.195,121.537 652.195,122.951 C652.195,124.366 653.342,125.512 654.756,125.512 Z" />
            <path d="M675.244,103.317 L641.098,103.317 C639.683,103.317 638.537,104.464 638.537,105.878 L638.537,143.439 C638.537,144.853 639.683,146 641.098,146 C642.512,146 643.659,144.853 643.659,143.439 L643.659,105.878 L641.098,108.439 L675.244,108.439 C676.658,108.439 677.805,107.292 677.805,105.878 C677.805,104.464 676.658,103.317 675.244,103.317 Z" />
            <path d="M700.957,86.994 L690.713,76.75 C689.713,75.75 688.092,75.75 687.092,76.75 L676.848,86.994 C675.848,87.994 675.848,89.616 676.848,90.616 C677.848,91.616 679.469,91.616 680.469,90.616 L690.713,80.372 L687.092,80.372 L697.335,90.616 C698.336,91.616 699.957,91.616 700.957,90.616 C701.957,89.616 701.957,87.994 700.957,86.994 Z" />
            <path d="M649.531,131.384 L639.287,141.628 L642.908,141.628 L632.665,131.384 C631.664,130.384 630.043,130.384 629.043,131.384 C628.043,132.384 628.043,134.006 629.043,135.006 L639.287,145.25 C640.287,146.25 641.908,146.25 642.908,145.25 L653.152,135.006 C654.152,134.006 654.152,132.384 653.152,131.384 C652.152,130.384 650.531,130.384 649.531,131.384 Z" />
        </g>
    </g>
</svg>