<?xml version="1.0" encoding="UTF-8"?>
<svg height="600" width="800" xmlns="http://www.w3.org/2000/svg" xmlns:xlink="http://www.w3.org/1999/xlink">
    <g id="Notes" font-family="'LucidaGrande', 'Lucida Grande', sans-serif" font-size="13">
        <rect fill="white" height="600.0" width="800.0" x="0.0" y="0.0" />
        <g font-size="13">
            <text x="18.0" y="176.0">Small</text>
            <text x="18.0" y="376.0">Medium</text>
            <text x="18.0" y="576.0">Large</text>
        </g>
        <g font-size="9">
            <text x="250.0" y="30.0">Ultralight</text>
            <text x="450.0" y="30.0">Regular</text>
            <text x="650.0" y="30.0">Black</text>
            <text id="template-version" fill="#505050" text-anchor="end" x="785.0" y="575.0">Template v.3.0</text>
            <a href="https://github.com/swhitty/SwiftDraw">
                <text fill="#505050" text-anchor="end" x="785.0" y="590.0">https://github.com/swhitty/SwiftDraw</text>
            </a>
        </g>
    </g>
    <g id="Guides" stroke="rgb(39, 170, 225)" stroke-width="0.5">
        <path id="Capline-S" d="M18,76 l800,0" />
        <path id="H-reference" d="M85,145.755 L87.685,145.755 L113.369,79.287 L114.052,79.287 L114.052,76 L112.148,76 L85,145.755 Z M95.693,121.536 L130.996,121.536 L130.263,119.313 L96.474,119.313 L95.693,121.536 Z M139.15,145.755 L141.787,145.755 L114.638,76 L113.466,76 L113.466,79.287 L139.15,145.755 Z" stroke="none" />
        <path id="Baseline-S" d="M18,146 l800,0" />
        <path id="left-margin-Ultralight-S" d="M220,56 l0,110" />
        <path id="right-margin-Ultralight-S" d="M310,56 l0,110" />
        <path id="left-margin-Regular-S" d="M420,56 l0,110" />
        <path id="right-margin-Regular-S" d="M510,56 l0,110" />
        <path id="left-margin-Black-S" d="M620,56 l0,110" />
        <path id="right-margin-Black-S" d="M710,56 l0,110" />
        <path id="Capline-M" d="M18,276 l800,0" />
        <path id="Baseline-M" d="M18,346 l800,0" />
        <path id="Capline-L" d="M18,476 l800,0" />
        <path id="Baseline-L" d="M18,546 l800,0" />
    </g>
    <g id="Symbols">
        <g id="Ultralight-S">
            <path d="M230,78.692 L230,143.308 C230,144.795 231.205,146 232.692,146 L297.308,146 C298.795,146 300,144.795 300,143.308 C300,141.821 298.795,140.615 297.308,140.615 L232.692,140.615 L235.385,143.308 L235.385,78.692 C235.385,77.205 234.179,76 232.692,76 C231.205,76 230,77.205 230,78.692 Z" />
            <path d="M254.231,126.256 L247.051,126.256 C245.564,126.256 244.359,127.462 244.359,128.949 C244.359,130.436 245.564,131.641 247.051,131.641 L254.231,131.641 C255.718,131.641 256.923,130.436 256.923,128.949 C256.923,127.462 255.718,126.256 254.231,126.256 Z" />
            <path d="M268.59,111.897 L247.051,111.897 C245.564,111.897 244.359,113.103 244.359,114.59 C244.359,116.077 245.564,117.282 247.051,117.282 L268.59,117.282 C270.077,117.282 271.282,116.077 271.282,114.59 C271.282,113.103 270.077,111.897 268.59,111.897 Z" />
            <path d="M297.308,97.538 L247.051,97.538 C245.564,97.538 244.359,98.744 244.359,100.231 C244.359,101.718 245.564,102.923 247.051,102.923 L297.308,102.923 C298.795,102.923 300,101.718 300,100.231 C300,98.744 298.795,97.538 297.308,97.538 Z" />
            <path d="M282.949,83.179 L247.051,83.179 C245.564,83.179 244.359,84.385 244.359,85.872 C244.359,87.359 245.564,88.564 247.051,88.564 L282.949,88.564 C284.436,88.564 285.641,87.359 285.641,85.872 C285.641,84.385 284.436,83.179 282.949,83.179 Z" />
        </g>
        <g id="Regular-S">
            <path d="M430,78.692 L430,143.308 C430,144.795 431.205,146 432.692,146 L497.308,146 C498.795,146 500,144.795 500,143.308 C500,141.821 498.795,140.615 497.308,140.615 L432.692,140.615 L435.385,143.308 L435.385,78.692 C435.385,77.205 434.179,76 432.692,76 C431.205,76 430,77.205 430,78.692 Z" />
            <path d="M454.231,126.256 L447.051,126.256 C445.564,126.256 444.359,127.462 444.359,128.949 C444.359,130.436 445.564,131.641 447.051,131.641 L454.231,131.641 C455.718,131.641 456.923,130.436 456.923,128.949 C456.923,127.462 455.718,126.256 454.231,126.256 Z" />
            <path d="M468.59,111.897 L447.051,111.897 C445.564,111.897 444.359,113.103 444.359,114.59 C444.359,116.077 445.564,117.282 447.051,117.282 L468.59,117.282 C470.077,117.282 471.282,116.077 471.282,114.59 C471.282,113.103 470.077,111.897 468.59,111.897 Z" />
            <path d="M497.308,97.538 L447.051,97.538 C445.564,97.538 444.359,98.744 444.359,100.231 C444.359,101.718 445.564,102.923 447.051,102.923 L497.308,102.923 C498.795,102.923 500,101.718 500,100.231 C500,98.744 498.795,97.538 497.308,97.538 Z" />
            <path d="M482.949,83.179 L447.051,83.179 C445.564,83.179 444.359,84.385 444.359,85.872 C444.359,87.359 445.564,88.564 447.051,88.564 L482.949,88.564 C484.436,88.564 485.641,87.359 485.641,85.872 C485.641,84.385 484.436,83.179 482.949,83.179 Z" />
        </g>
        <g id="Black-S">
            <path d="M630,78.692 L630,143.308 C630,144.795 631.205,146 632.692,146 L697.308,146 C698.795,146 700,144.795 700,143.308 C700,141.821 698.795,140.615 697.308,140.615 L632.692,140.615 L635.385,143.308 L635.385,78.692 C635.385,77.205 634.179,76 632.692,76 C631.205,76 630,77.205 630,78.692 Z" />
            <path d="M654.231,126.256 L647.051,126.256 C645.564,126.256 644.359,127.462 644.359,128.949 C644.359,130.436 645.564,131.641 647.051,131.641 L654.231,131.641 C655.718,131.641 656.923,130.436 656.923,128.949 C656.923,127.462 655.718,126.256 654.231,126.256 Z" />
            <path d="M668.59,111.897 L647.051,111.897 C645.564,111.897 644.359,113.103 644.359,114.59 C644.359,116.077 645.564,117.282 647.051,117.282 L668.59,117.282 C670.077,117.282 671.282,116.077 671.282,114.59 C671.282,113.103 670.077,111.897 668.59,111.897 Z" />
            <path d="M697.308,97.538 L647.051,97.538 C645.564,97.538 644.359,98.744 644.359,100.231 C644.359,101.718 645.564,102.923 647.051,102.923 L697.308,102.923 C698.795,102.923 700,101.718 700,100.231 C700,98.744 698.795,97.538 697.308,97.538 Z" />
            <path d="M682.949,83.179 L647.051,83.179 C645.564,83.179 644.359,84.385 644.359,85.872 C644.359,87.359 645.564,88.564 647.051,88.564 L682.949,88.564 C684.436,88.564 685.641,87.359 685.641,85.872 C685.641,84.385 684.436,83.179 682.949,83.179 Z" />
        </g>
    </g>
</svg>