<?xml version="1.0" encoding="UTF-8"?>
<svg height="600" width="800" xmlns="http://www.w3.org/2000/svg" xmlns:xlink="http://www.w3.org/1999/xlink">
    <g id="Notes" font-family="'LucidaGrande', 'Lucida Grande', sans-serif" font-size="13">
        <rect fill="white" height="600.0" width="800.0" x="0.0" y="0.0" />
        <g font-size="13">
            <text x="18.0" y="176.0">Small</text>
            <text x="18.0" y="376.0">Medium</text>
            <text x="18.0" y="576.0">Large</text>
        </g>
        <g font-size="9">
            <text x="250.0" y="30.0">Ultralight</text>
            <text x="450.0" y="30.0">Regular</text>
            <text x="650.0" y="30.0">Black</text>
            <text id="template-version" fill="#505050" text-anchor="end" x="785.0" y="575.0">Template v.3.0</text>
            <a href="https://github.com/swhitty/SwiftDraw">
                <text fill="#505050" text-anchor="end" x="785.0" y="590.0">https://github.com/swhitty/SwiftDraw</text>
            </a>
        </g>
    </g>
    <g id="Guides" stroke="rgb(39, 170, 225)" stroke-width="0.5">
        <path id="Capline-S" d="M18,76 l800,0" />
        <path id="H-reference" d="M85,145.755 L87.685,145.755 L113.369,79.287 L114.052,79.287 L114.052,76 L112.148,76 L85,145.755 Z M95.693,121.536 L130.996,121.536 L130.263,119.313 L96.474,119.313 L95.693,121.536 Z M139.15,145.755 L141.787,145.755 L114.638,76 L113.466,76 L113.466,79.287 L139.15,145.755 Z" stroke="none" />
        <path id="Baseline-S" d="M18,146 l800,0" />
        <path id="left-margin-Ultralight-S" d="M212,56 l0,110" />
        <path id="right-margin-Ultralight-S" d="M318,56 l0,110" />
        <path id="left-margin-Regular-S" d="M412,56 l0,110" />
        <path id="right-margin-Regular-S" d="M518,56 l0,110" />
        <path id="left-margin-Black-S" d="M612,56 l0,110" />
        <path id="right-margin-Black-S" d="M718,56 l0,110" />
        <path id="Capline-M" d="M18,276 l800,0" />
        <path id="Baseline-M" d="M18,346 l800,0" />
        <path id="Capline-L" d="M18,476 l800,0" />
        <path id="Baseline-L" d="M18,546 l800,0" />
    </g>
    <g id="Symbols">
        <g id="Ultralight-S">
            <path d="M245,82 C248.446,82 248.446,82 255.879,82 C264.64,82 264.64,82 274.73,82 C290.333,82 290.333,82 301.022,82 C301.565,82 302,82.438 302,83 L302,139 C302,139.563 301.567,140 301.025,140 C290.248,140 290.248,140 274.486,140 C264.804,140 264.804,140 256.277,140 C248.905,140 248.905,140 245,140 C234.518,140 228,132.667 228,111 C228,99.078 230.579,91.167 234.931,86.56 C237.928,83.387 241.608,82 245,82 Z M245,76 C232.192,76 222,86.792 222,111 C222,135.833 231.037,146 245,146 C248.905,146 248.905,146 256.277,146 C264.804,146 264.804,146 274.486,146 C290.248,146 290.248,146 301.025,146 C304.892,146 308,142.865 308,139 L308,83 C308,79.135 304.889,76 301.022,76 C290.333,76 290.333,76 274.73,76 C264.64,76 264.64,76 255.879,76 C248.446,76 248.446,76 245,76 Z" />
            <path d="M238,103 L238,119 C238,120.657 239.343,122 241,122 C242.657,122 244,120.657 244,119 L244,103 C244,101.343 242.657,100 241,100 C239.343,100 238,101.343 238,103 Z" />
        </g>
        <g id="Regular-S">
            <path d="M445,82 C448.446,82 448.446,82 455.879,82 C464.64,82 464.64,82 474.73,82 C490.333,82 490.333,82 501.022,82 C501.565,82 502,82.438 502,83 L502,139 C502,139.563 501.567,140 501.025,140 C490.248,140 490.248,140 474.486,140 C464.804,140 464.804,140 456.277,140 C448.905,140 448.905,140 445,140 C434.518,140 428,132.667 428,111 C428,99.078 430.579,91.167 434.931,86.56 C437.928,83.387 441.608,82 445,82 Z M445,76 C432.192,76 422,86.792 422,111 C422,135.833 431.037,146 445,146 C448.905,146 448.905,146 456.277,146 C464.804,146 464.804,146 474.486,146 C490.248,146 490.248,146 501.025,146 C504.892,146 508,142.865 508,139 L508,83 C508,79.135 504.889,76 501.022,76 C490.333,76 490.333,76 474.73,76 C464.64,76 464.64,76 455.879,76 C448.446,76 448.446,76 445,76 Z" />
            <path d="M438,103 L438,119 C438,120.657 439.343,122 441,122 C442.657,122 444,120.657 444,119 L444,103 C444,101.343 442.657,100 441,100 C439.343,100 438,101.343 438,103 Z" />
        </g>
        <g id="Black-S">
            <path d="M645,82 C648.446,82 648.446,82 655.879,82 C664.64,82 664.64,82 674.73,82 C690.333,82 690.333,82 701.022,82 C701.565,82 702,82.438 702,83 L702,139 C702,139.563 701.567,140 701.025,140 C690.248,140 690.248,140 674.486,140 C664.804,140 664.804,140 656.277,140 C648.905,140 648.905,140 645,140 C634.518,140 628,132.667 628,111 C628,99.078 630.579,91.167 634.931,86.56 C637.928,83.387 641.608,82 645,82 Z M645,76 C632.193,76 622,86.792 622,111 C622,135.833 631.037,146 645,146 C648.905,146 648.905,146 656.277,146 C664.804,146 664.804,146 674.486,146 C690.248,146 690.248,146 701.025,146 C704.892,146 708,142.865 708,139 L708,83 C708,79.135 704.889,76 701.022,76 C690.333,76 690.333,76 674.73,76 C664.64,76 664.64,76 655.879,76 C648.446,76 648.446,76 645,76 Z" />
            <path d="M638,103 L638,119 C638,120.657 639.343,122 641,122 C642.657,122 644,120.657 644,119 L644,103 C644,101.343 642.657,100 641,100 C639.343,100 638,101.343 638,103 Z" />
        </g>
    </g>
</svg>