<?xml version="1.0" encoding="UTF-8"?>
<svg height="600" width="800" xmlns="http://www.w3.org/2000/svg" xmlns:xlink="http://www.w3.org/1999/xlink">
    <g id="Notes" font-family="'LucidaGrande', 'Lucida Grande', sans-serif" font-size="13">
        <rect fill="white" height="600.0" width="800.0" x="0.0" y="0.0" />
        <g font-size="13">
            <text x="18.0" y="176.0">Small</text>
            <text x="18.0" y="376.0">Medium</text>
            <text x="18.0" y="576.0">Large</text>
        </g>
        <g font-size="9">
            <text x="250.0" y="30.0">Ultralight</text>
            <text x="450.0" y="30.0">Regular</text>
            <text x="650.0" y="30.0">Black</text>
            <text id="template-version" fill="#505050" text-anchor="end" x="785.0" y="575.0">Template v.3.0</text>
            <a href="https://github.com/swhitty/SwiftDraw">
                <text fill="#505050" text-anchor="end" x="785.0" y="590.0">https://github.com/swhitty/SwiftDraw</text>
            </a>
        </g>
    </g>
    <g id="Guides" stroke="rgb(39, 170, 225)" stroke-width="0.5">
        <path id="Capline-S" d="M18,76 l800,0" />
        <path id="H-reference" d="M85,145.755 L87.685,145.755 L113.369,79.287 L114.052,79.287 L114.052,76 L112.148,76 L85,145.755 Z M95.693,121.536 L130.996,121.536 L130.263,119.313 L96.474,119.313 L95.693,121.536 Z M139.15,145.755 L141.787,145.755 L114.638,76 L113.466,76 L113.466,79.287 L139.15,145.755 Z" stroke="none" />
        <path id="Baseline-S" d="M18,146 l800,0" />
        <path id="left-margin-Ultralight-S" d="M220,56 l0,110" />
        <path id="right-margin-Ultralight-S" d="M310,56 l0,110" />
        <path id="left-margin-Regular-S" d="M420,56 l0,110" />
        <path id="right-margin-Regular-S" d="M510,56 l0,110" />
        <path id="left-margin-Black-S" d="M620,56 l0,110" />
        <path id="right-margin-Black-S" d="M710,56 l0,110" />
        <path id="Capline-M" d="M18,276 l800,0" />
        <path id="Baseline-M" d="M18,346 l800,0" />
        <path id="Capline-L" d="M18,476 l800,0" />
        <path id="Baseline-L" d="M18,546 l800,0" />
    </g>
    <g id="Symbols">
        <g id="Ultralight-S">
            <path d="M255.233,76 L238.953,76 C234.3,76 233.188,76.149 231.669,77.669 C230.149,79.188 230,80.3 230,84.953 L230,137.047 C230,141.7 230.149,142.812 231.669,144.331 C233.188,145.851 234.3,146 238.953,146 L245.465,146 C246.113,146 246.734,145.743 247.192,145.285 L253.703,138.773 L250.25,138.773 L256.762,145.285 C257.22,145.743 257.841,146 258.488,146 L291.047,146 C295.7,146 296.812,145.851 298.331,144.331 C299.851,142.812 300,141.7 300,137.047 L300,124.796 C300,113.908 299.671,111.314 296.989,108.241 C294.71,105.63 291.783,104.606 285.374,103.638 C284.265,103.47 283.329,103.339 280.993,103.021 L278.969,102.745 C276.658,102.43 275.735,102.301 274.658,102.138 C269.342,101.335 267.263,100.608 265.993,99.152 C264.46,97.396 264.186,95.236 264.186,85.809 L264.186,84.953 C264.186,80.3 264.037,79.188 262.517,77.669 C260.998,76.149 259.886,76 255.233,76 Z M255.233,80.884 C258.253,80.884 258.914,80.973 259.064,81.122 C259.213,81.272 259.302,81.933 259.302,84.953 L259.302,85.809 C259.302,96.696 259.631,99.29 262.314,102.363 C264.593,104.975 267.52,105.999 273.928,106.967 C275.037,107.135 275.974,107.265 278.31,107.584 L280.333,107.86 C282.644,108.175 283.568,108.304 284.645,108.467 C289.96,109.27 292.039,109.997 293.31,111.453 C294.843,113.209 295.116,115.368 295.116,124.796 L295.116,137.047 C295.116,140.067 295.027,140.728 294.878,140.878 C294.728,141.027 294.067,141.116 291.047,141.116 L258.488,141.116 L260.215,141.831 L253.703,135.32 C252.75,134.366 251.204,134.366 250.25,135.32 L243.738,141.831 L245.465,141.116 L238.953,141.116 C235.933,141.116 235.272,141.027 235.122,140.878 C234.973,140.728 234.884,140.067 234.884,137.047 L234.884,84.953 C234.884,81.933 234.973,81.272 235.122,81.122 C235.272,80.973 235.933,80.884 238.953,80.884 L255.233,80.884 Z" />
            <path d="M297.558,124.837 L232.442,124.837 C231.093,124.837 230,125.93 230,127.279 C230,128.628 231.093,129.721 232.442,129.721 L297.558,129.721 C298.907,129.721 300,128.628 300,127.279 C300,125.93 298.907,124.837 297.558,124.837 Z" />
            <path d="M232.442,93.093 L261.744,93.093 C263.093,93.093 264.186,92 264.186,90.651 C264.186,89.303 263.093,88.209 261.744,88.209 L232.442,88.209 C231.093,88.209 230,89.303 230,90.651 C230,92 231.093,93.093 232.442,93.093 Z" />
            <path d="M247.907,109.372 C247.907,108.023 249,106.93 250.349,106.93 C251.697,106.93 252.791,108.023 252.791,109.372 C252.791,110.721 251.697,111.814 250.349,111.814 C249,111.814 247.907,110.721 247.907,109.372 Z M243.023,109.372 C243.023,113.418 246.303,116.698 250.349,116.698 C254.395,116.698 257.674,113.418 257.674,109.372 C257.674,105.326 254.395,102.047 250.349,102.047 C246.303,102.047 243.023,105.326 243.023,109.372 Z" />
        </g>
        <g id="Regular-S">
            <path d="M455.233,76 L438.953,76 C434.3,76 433.188,76.149 431.669,77.669 C430.149,79.188 430,80.3 430,84.953 L430,137.047 C430,141.7 430.149,142.812 431.669,144.331 C433.188,145.851 434.3,146 438.953,146 L445.465,146 C446.113,146 446.734,145.743 447.192,145.285 L453.703,138.773 L450.25,138.773 L456.762,145.285 C457.22,145.743 457.841,146 458.488,146 L491.047,146 C495.7,146 496.812,145.851 498.331,144.331 C499.851,142.812 500,141.7 500,137.047 L500,124.796 C500,113.908 499.671,111.314 496.989,108.241 C494.71,105.63 491.783,104.606 485.374,103.638 C484.265,103.47 483.329,103.339 480.993,103.021 L478.969,102.745 C476.658,102.43 475.735,102.301 474.658,102.138 C469.342,101.335 467.263,100.608 465.993,99.152 C464.46,97.396 464.186,95.236 464.186,85.809 L464.186,84.953 C464.186,80.3 464.037,79.188 462.517,77.669 C460.998,76.149 459.886,76 455.233,76 Z M455.233,80.884 C458.253,80.884 458.914,80.973 459.064,81.122 C459.213,81.272 459.302,81.933 459.302,84.953 L459.302,85.809 C459.302,96.696 459.631,99.29 462.314,102.363 C464.593,104.975 467.52,105.999 473.928,106.967 C475.037,107.135 475.974,107.265 478.31,107.584 L480.333,107.86 C482.644,108.175 483.568,108.304 484.645,108.467 C489.96,109.27 492.039,109.997 493.31,111.453 C494.843,113.209 495.116,115.368 495.116,124.796 L495.116,137.047 C495.116,140.067 495.027,140.728 494.878,140.878 C494.728,141.027 494.067,141.116 491.047,141.116 L458.488,141.116 L460.215,141.831 L453.703,135.32 C452.75,134.366 451.204,134.366 450.25,135.32 L443.738,141.831 L445.465,141.116 L438.953,141.116 C435.933,141.116 435.272,141.027 435.122,140.878 C434.973,140.728 434.884,140.067 434.884,137.047 L434.884,84.953 C434.884,81.933 434.973,81.272 435.122,81.122 C435.272,80.973 435.933,80.884 438.953,80.884 L455.233,80.884 Z" />
            <path d="M497.558,124.837 L432.442,124.837 C431.093,124.837 430,125.93 430,127.279 C430,128.628 431.093,129.721 432.442,129.721 L497.558,129.721 C498.907,129.721 500,128.628 500,127.279 C500,125.93 498.907,124.837 497.558,124.837 Z" />
            <path d="M432.442,93.093 L461.744,93.093 C463.093,93.093 464.186,92 464.186,90.651 C464.186,89.303 463.093,88.209 461.744,88.209 L432.442,88.209 C431.093,88.209 430,89.303 430,90.651 C430,92 431.093,93.093 432.442,93.093 Z" />
            <path d="M447.907,109.372 C447.907,108.023 449,106.93 450.349,106.93 C451.697,106.93 452.791,108.023 452.791,109.372 C452.791,110.721 451.697,111.814 450.349,111.814 C449,111.814 447.907,110.721 447.907,109.372 Z M443.023,109.372 C443.023,113.418 446.303,116.698 450.349,116.698 C454.395,116.698 457.674,113.418 457.674,109.372 C457.674,105.326 454.395,102.047 450.349,102.047 C446.303,102.047 443.023,105.326 443.023,109.372 Z" />
        </g>
        <g id="Black-S">
            <path d="M655.233,76 L638.953,76 C634.3,76 633.188,76.149 631.669,77.669 C630.149,79.188 630,80.3 630,84.953 L630,137.047 C630,141.7 630.149,142.812 631.669,144.331 C633.188,145.851 634.3,146 638.953,146 L645.465,146 C646.113,146 646.734,145.743 647.192,145.285 L653.703,138.773 L650.25,138.773 L656.762,145.285 C657.22,145.743 657.841,146 658.488,146 L691.047,146 C695.7,146 696.812,145.851 698.331,144.331 C699.851,142.812 700,141.7 700,137.047 L700,124.796 C700,113.908 699.671,111.314 696.989,108.241 C694.71,105.63 691.783,104.606 685.374,103.638 C684.265,103.47 683.329,103.339 680.993,103.021 L678.969,102.745 C676.658,102.43 675.735,102.301 674.658,102.138 C669.342,101.335 667.263,100.608 665.993,99.152 C664.46,97.396 664.186,95.236 664.186,85.809 L664.186,84.953 C664.186,80.3 664.037,79.188 662.517,77.669 C660.998,76.149 659.886,76 655.233,76 Z M655.233,80.884 C658.253,80.884 658.914,80.973 659.064,81.122 C659.213,81.272 659.302,81.933 659.302,84.953 L659.302,85.809 C659.302,96.696 659.631,99.29 662.314,102.363 C664.593,104.975 667.519,105.999 673.928,106.967 C675.037,107.135 675.974,107.265 678.31,107.584 L680.333,107.86 C682.644,108.175 683.568,108.304 684.645,108.467 C689.96,109.27 692.039,109.997 693.31,111.453 C694.843,113.209 695.116,115.368 695.116,124.796 L695.116,137.047 C695.116,140.067 695.027,140.728 694.878,140.878 C694.728,141.027 694.067,141.116 691.047,141.116 L658.488,141.116 L660.215,141.831 L653.703,135.32 C652.75,134.366 651.204,134.366 650.25,135.32 L643.738,141.831 L645.465,141.116 L638.953,141.116 C635.933,141.116 635.272,141.027 635.122,140.878 C634.973,140.728 634.884,140.067 634.884,137.047 L634.884,84.953 C634.884,81.933 634.973,81.272 635.122,81.122 C635.272,80.973 635.933,80.884 638.953,80.884 L655.233,80.884 Z" />
            <path d="M697.558,124.837 L632.442,124.837 C631.093,124.837 630,125.93 630,127.279 C630,128.628 631.093,129.721 632.442,129.721 L697.558,129.721 C698.907,129.721 700,128.628 700,127.279 C700,125.93 698.907,124.837 697.558,124.837 Z" />
            <path d="M632.442,93.093 L661.744,93.093 C663.093,93.093 664.186,92 664.186,90.651 C664.186,89.303 663.093,88.209 661.744,88.209 L632.442,88.209 C631.093,88.209 630,89.303 630,90.651 C630,92 631.093,93.093 632.442,93.093 Z" />
            <path d="M647.907,109.372 C647.907,108.023 649,106.93 650.349,106.93 C651.697,106.93 652.791,108.023 652.791,109.372 C652.791,110.721 651.697,111.814 650.349,111.814 C649,111.814 647.907,110.721 647.907,109.372 Z M643.023,109.372 C643.023,113.418 646.303,116.698 650.349,116.698 C654.395,116.698 657.674,113.418 657.674,109.372 C657.674,105.326 654.395,102.047 650.349,102.047 C646.303,102.047 643.023,105.326 643.023,109.372 Z" />
        </g>
    </g>
</svg>