<?xml version="1.0" encoding="UTF-8"?>
<svg height="600" width="800" xmlns="http://www.w3.org/2000/svg" xmlns:xlink="http://www.w3.org/1999/xlink">
    <g id="Notes" font-family="'LucidaGrande', 'Lucida Grande', sans-serif" font-size="13">
        <rect fill="white" height="600.0" width="800.0" x="0.0" y="0.0" />
        <g font-size="13">
            <text x="18.0" y="176.0">Small</text>
            <text x="18.0" y="376.0">Medium</text>
            <text x="18.0" y="576.0">Large</text>
        </g>
        <g font-size="9">
            <text x="250.0" y="30.0">Ultralight</text>
            <text x="450.0" y="30.0">Regular</text>
            <text x="650.0" y="30.0">Black</text>
            <text id="template-version" fill="#505050" text-anchor="end" x="785.0" y="575.0">Template v.3.0</text>
            <a href="https://github.com/swhitty/SwiftDraw">
                <text fill="#505050" text-anchor="end" x="785.0" y="590.0">https://github.com/swhitty/SwiftDraw</text>
            </a>
        </g>
    </g>
    <g id="Guides" stroke="rgb(39, 170, 225)" stroke-width="0.5">
        <path id="Capline-S" d="M18,76 l800,0" />
        <path id="H-reference" d="M85,145.755 L87.685,145.755 L113.369,79.287 L114.052,79.287 L114.052,76 L112.148,76 L85,145.755 Z M95.693,121.536 L130.996,121.536 L130.263,119.313 L96.474,119.313 L95.693,121.536 Z M139.15,145.755 L141.787,145.755 L114.638,76 L113.466,76 L113.466,79.287 L139.15,145.755 Z" stroke="none" />
        <path id="Baseline-S" d="M18,146 l800,0" />
        <path id="left-margin-Ultralight-S" d="M214.324,56 l0,110" />
        <path id="right-margin-Ultralight-S" d="M315.676,56 l0,110" />
        <path id="left-margin-Regular-S" d="M414.324,56 l0,110" />
        <path id="right-margin-Regular-S" d="M515.676,56 l0,110" />
        <path id="left-margin-Black-S" d="M614.324,56 l0,110" />
        <path id="right-margin-Black-S" d="M715.676,56 l0,110" />
        <path id="Capline-M" d="M18,276 l800,0" />
        <path id="Baseline-M" d="M18,346 l800,0" />
        <path id="Capline-L" d="M18,476 l800,0" />
        <path id="Baseline-L" d="M18,546 l800,0" />
    </g>
    <g id="Symbols">
        <g id="Ultralight-S">
            <path d="M261.216,79.784 L240.405,79.784 C235.704,79.784 231.892,83.595 231.892,88.297 L231.892,128.027 C231.892,129.594 233.162,130.865 234.73,130.865 L295.27,130.865 C296.838,130.865 298.108,129.594 298.108,128.027 L298.108,107.216 C298.108,105.649 296.838,104.378 295.27,104.378 C293.703,104.378 292.432,105.649 292.432,107.216 L292.432,128.027 L295.27,125.189 L234.73,125.189 L237.568,128.027 L237.568,88.297 C237.568,86.73 238.838,85.459 240.405,85.459 L261.216,85.459 C262.784,85.459 264.054,84.189 264.054,82.622 C264.054,81.054 262.784,79.784 261.216,79.784 Z" />
            <path d="M227.162,130.865 L302.838,130.865 L300,128.027 L300,131.811 C300,136.513 296.188,140.324 291.487,140.324 L238.514,140.324 C233.812,140.324 230,136.513 230,131.811 L230,128.027 L227.162,130.865 Z M227.162,125.189 C225.595,125.189 224.324,126.46 224.324,128.027 L224.324,131.811 C224.324,139.647 230.677,146 238.514,146 L291.487,146 C299.323,146 305.676,139.647 305.676,131.811 L305.676,128.027 C305.676,126.46 304.405,125.189 302.838,125.189 L227.162,125.189 Z" />
            <path d="M280.02,76.831 L272.453,84.399 C271.345,85.507 271.345,87.304 272.453,88.412 L280.02,95.98 C281.129,97.088 282.925,97.088 284.034,95.98 C285.142,94.871 285.142,93.075 284.034,91.966 L276.466,84.399 L276.466,88.412 L284.034,80.844 C285.142,79.736 285.142,77.939 284.034,76.831 C282.925,75.723 281.129,75.723 280.02,76.831 Z" />
            <path d="M291.372,80.844 L298.939,88.412 L298.939,84.399 L291.372,91.966 C290.263,93.075 290.263,94.871 291.372,95.98 C292.48,97.088 294.277,97.088 295.385,95.98 L302.953,88.412 C304.061,87.304 304.061,85.507 302.953,84.399 L295.385,76.831 C294.277,75.723 292.48,75.723 291.372,76.831 C290.263,77.939 290.263,79.736 291.372,80.844 Z" />
        </g>
        <g id="Regular-S">
            <path d="M461.216,79.784 L440.405,79.784 C435.704,79.784 431.892,83.595 431.892,88.297 L431.892,128.027 C431.892,129.594 433.162,130.865 434.73,130.865 L495.27,130.865 C496.838,130.865 498.108,129.594 498.108,128.027 L498.108,107.216 C498.108,105.649 496.838,104.378 495.27,104.378 C493.703,104.378 492.432,105.649 492.432,107.216 L492.432,128.027 L495.27,125.189 L434.73,125.189 L437.568,128.027 L437.568,88.297 C437.568,86.73 438.838,85.459 440.405,85.459 L461.216,85.459 C462.784,85.459 464.054,84.189 464.054,82.622 C464.054,81.054 462.784,79.784 461.216,79.784 Z" />
            <path d="M427.162,130.865 L502.838,130.865 L500,128.027 L500,131.811 C500,136.513 496.188,140.324 491.487,140.324 L438.514,140.324 C433.812,140.324 430,136.513 430,131.811 L430,128.027 L427.162,130.865 Z M427.162,125.189 C425.595,125.189 424.324,126.46 424.324,128.027 L424.324,131.811 C424.324,139.647 430.677,146 438.514,146 L491.487,146 C499.323,146 505.676,139.647 505.676,131.811 L505.676,128.027 C505.676,126.46 504.405,125.189 502.838,125.189 L427.162,125.189 Z" />
            <path d="M480.02,76.831 L472.453,84.399 C471.345,85.507 471.345,87.304 472.453,88.412 L480.02,95.98 C481.129,97.088 482.925,97.088 484.034,95.98 C485.142,94.871 485.142,93.075 484.034,91.966 L476.466,84.399 L476.466,88.412 L484.034,80.844 C485.142,79.736 485.142,77.939 484.034,76.831 C482.925,75.723 481.129,75.723 480.02,76.831 Z" />
            <path d="M491.372,80.844 L498.939,88.412 L498.939,84.399 L491.372,91.966 C490.263,93.075 490.263,94.871 491.372,95.98 C492.48,97.088 494.277,97.088 495.385,95.98 L502.953,88.412 C504.061,87.304 504.061,85.507 502.953,84.399 L495.385,76.831 C494.277,75.723 492.48,75.723 491.372,76.831 C490.263,77.939 490.263,79.736 491.372,80.844 Z" />
        </g>
        <g id="Black-S">
            <path d="M661.216,79.784 L640.405,79.784 C635.703,79.784 631.892,83.595 631.892,88.297 L631.892,128.027 C631.892,129.594 633.162,130.865 634.73,130.865 L695.27,130.865 C696.838,130.865 698.108,129.594 698.108,128.027 L698.108,107.216 C698.108,105.649 696.838,104.378 695.27,104.378 C693.703,104.378 692.432,105.649 692.432,107.216 L692.432,128.027 L695.27,125.189 L634.73,125.189 L637.568,128.027 L637.568,88.297 C637.568,86.73 638.838,85.459 640.405,85.459 L661.216,85.459 C662.784,85.459 664.054,84.189 664.054,82.622 C664.054,81.054 662.784,79.784 661.216,79.784 Z" />
            <path d="M627.162,130.865 L702.838,130.865 L700,128.027 L700,131.811 C700,136.513 696.188,140.324 691.487,140.324 L638.514,140.324 C633.812,140.324 630,136.513 630,131.811 L630,128.027 L627.162,130.865 Z M627.162,125.189 C625.595,125.189 624.324,126.46 624.324,128.027 L624.324,131.811 C624.324,139.647 630.677,146 638.514,146 L691.487,146 C699.323,146 705.676,139.647 705.676,131.811 L705.676,128.027 C705.676,126.46 704.405,125.189 702.838,125.189 L627.162,125.189 Z" />
            <path d="M680.02,76.831 L672.453,84.399 C671.345,85.507 671.345,87.304 672.453,88.412 L680.02,95.98 C681.129,97.088 682.925,97.088 684.034,95.98 C685.142,94.871 685.142,93.075 684.034,91.966 L676.466,84.399 L676.466,88.412 L684.034,80.844 C685.142,79.736 685.142,77.939 684.034,76.831 C682.925,75.723 681.129,75.723 680.02,76.831 Z" />
            <path d="M691.372,80.844 L698.939,88.412 L698.939,84.399 L691.372,91.966 C690.263,93.075 690.263,94.871 691.372,95.98 C692.48,97.088 694.277,97.088 695.385,95.98 L702.953,88.412 C704.061,87.304 704.061,85.507 702.953,84.399 L695.385,76.831 C694.277,75.723 692.48,75.723 691.372,76.831 C690.263,77.939 690.263,79.736 691.372,80.844 Z" />
        </g>
    </g>
</svg>