<?xml version="1.0" encoding="UTF-8"?>
<svg height="600" width="800" xmlns="http://www.w3.org/2000/svg" xmlns:xlink="http://www.w3.org/1999/xlink">
    <g id="Notes" font-family="'LucidaGrande', 'Lucida Grande', sans-serif" font-size="13">
        <rect fill="white" height="600.0" width="800.0" x="0.0" y="0.0" />
        <g font-size="13">
            <text x="18.0" y="176.0">Small</text>
            <text x="18.0" y="376.0">Medium</text>
            <text x="18.0" y="576.0">Large</text>
        </g>
        <g font-size="9">
            <text x="250.0" y="30.0">Ultralight</text>
            <text x="450.0" y="30.0">Regular</text>
            <text x="650.0" y="30.0">Black</text>
            <text id="template-version" fill="#505050" text-anchor="end" x="785.0" y="575.0">Template v.3.0</text>
            <a href="https://github.com/swhitty/SwiftDraw">
                <text fill="#505050" text-anchor="end" x="785.0" y="590.0">https://github.com/swhitty/SwiftDraw</text>
            </a>
        </g>
    </g>
    <g id="Guides" stroke="rgb(39, 170, 225)" stroke-width="0.5">
        <path id="Capline-S" d="M18,76 l800,0" />
        <path id="H-reference" d="M85,145.755 L87.685,145.755 L113.369,79.287 L114.052,79.287 L114.052,76 L112.148,76 L85,145.755 Z M95.693,121.536 L130.996,121.536 L130.263,119.313 L96.474,119.313 L95.693,121.536 Z M139.15,145.755 L141.787,145.755 L114.638,76 L113.466,76 L113.466,79.287 L139.15,145.755 Z" stroke="none" />
        <path id="Baseline-S" d="M18,146 l800,0" />
        <path id="left-margin-Ultralight-S" d="M216.53,56 l0,110" />
        <path id="right-margin-Ultralight-S" d="M313.47,56 l0,110" />
        <path id="left-margin-Regular-S" d="M416.53,56 l0,110" />
        <path id="right-margin-Regular-S" d="M513.47,56 l0,110" />
        <path id="left-margin-Black-S" d="M616.53,56 l0,110" />
        <path id="right-margin-Black-S" d="M713.47,56 l0,110" />
        <path id="Capline-M" d="M18,276 l800,0" />
        <path id="Baseline-M" d="M18,346 l800,0" />
        <path id="Capline-L" d="M18,476 l800,0" />
        <path id="Baseline-L" d="M18,546 l800,0" />
    </g>
    <g id="Symbols">
        <g id="Ultralight-S">
            <path d="M239.539,82.876 C239.601,82.376 240.027,82 240.531,82 L289.469,82 C289.973,82 290.399,82.376 290.461,82.876 L297.461,138.876 C297.536,139.473 297.07,140 296.469,140 L233.531,140 C232.93,140 232.464,139.473 232.539,138.876 L239.539,82.876 Z M233.585,82.132 L226.585,138.132 C226.063,142.31 229.321,146 233.531,146 L296.469,146 C300.679,146 303.937,142.31 303.415,138.132 L296.415,82.132 C295.977,78.629 292.999,76 289.469,76 L240.531,76 C237.001,76 234.023,78.629 233.585,82.132 Z" />
            <path d="M244.317,100.342 C245.019,101.746 246.503,103.621 248.985,105.426 C252.94,108.302 258.246,110 265,110 C271.754,110 277.06,108.302 281.015,105.426 C283.497,103.621 284.981,101.746 285.683,100.342 C286.424,98.86 285.824,97.058 284.342,96.317 C282.86,95.576 281.058,96.176 280.317,97.658 C280.281,97.731 280.116,97.994 279.804,98.388 C279.227,99.118 278.461,99.864 277.485,100.574 C274.565,102.698 270.496,104 265,104 C259.504,104 255.435,102.698 252.515,100.574 C251.539,99.864 250.773,99.118 250.196,98.388 C249.884,97.994 249.719,97.731 249.683,97.658 C248.942,96.176 247.14,95.576 245.658,96.317 C244.176,97.058 243.576,98.86 244.317,100.342 Z" />
        </g>
        <g id="Regular-S">
            <path d="M439.539,82.876 C439.601,82.376 440.027,82 440.531,82 L489.469,82 C489.973,82 490.399,82.376 490.461,82.876 L497.461,138.876 C497.536,139.473 497.07,140 496.469,140 L433.531,140 C432.93,140 432.464,139.473 432.539,138.876 L439.539,82.876 Z M433.585,82.132 L426.585,138.132 C426.063,142.31 429.321,146 433.531,146 L496.469,146 C500.679,146 503.937,142.31 503.415,138.132 L496.415,82.132 C495.977,78.629 492.999,76 489.469,76 L440.531,76 C437.001,76 434.023,78.629 433.585,82.132 Z" />
            <path d="M444.317,100.342 C445.019,101.746 446.503,103.621 448.985,105.426 C452.94,108.302 458.246,110 465,110 C471.754,110 477.06,108.302 481.015,105.426 C483.497,103.621 484.981,101.746 485.683,100.342 C486.424,98.86 485.824,97.058 484.342,96.317 C482.86,95.576 481.058,96.176 480.317,97.658 C480.281,97.731 480.116,97.994 479.804,98.388 C479.227,99.118 478.461,99.864 477.485,100.574 C474.565,102.698 470.496,104 465,104 C459.504,104 455.435,102.698 452.515,100.574 C451.539,99.864 450.773,99.118 450.196,98.388 C449.884,97.994 449.719,97.731 449.683,97.658 C448.942,96.176 447.14,95.576 445.658,96.317 C444.176,97.058 443.576,98.86 444.317,100.342 Z" />
        </g>
        <g id="Black-S">
            <path d="M639.539,82.876 C639.601,82.376 640.027,82 640.531,82 L689.469,82 C689.973,82 690.399,82.376 690.461,82.876 L697.461,138.876 C697.536,139.473 697.07,140 696.469,140 L633.531,140 C632.93,140 632.464,139.473 632.539,138.876 L639.539,82.876 Z M633.585,82.132 L626.585,138.132 C626.063,142.31 629.321,146 633.531,146 L696.469,146 C700.679,146 703.937,142.31 703.415,138.132 L696.415,82.132 C695.977,78.629 692.999,76 689.469,76 L640.531,76 C637.001,76 634.023,78.629 633.585,82.132 Z" />
            <path d="M644.317,100.342 C645.019,101.746 646.503,103.621 648.985,105.426 C652.94,108.302 658.246,110 665,110 C671.754,110 677.06,108.302 681.015,105.426 C683.497,103.621 684.981,101.746 685.683,100.342 C686.424,98.86 685.824,97.058 684.342,96.317 C682.86,95.576 681.058,96.176 680.317,97.658 C680.281,97.731 680.116,97.994 679.804,98.388 C679.227,99.118 678.461,99.864 677.485,100.574 C674.565,102.698 670.496,104 665,104 C659.504,104 655.435,102.698 652.515,100.574 C651.539,99.864 650.773,99.118 650.196,98.388 C649.884,97.994 649.719,97.731 649.683,97.658 C648.942,96.176 647.14,95.576 645.658,96.317 C644.176,97.058 643.576,98.86 644.317,100.342 Z" />
        </g>
    </g>
</svg>