<?xml version="1.0" encoding="UTF-8"?>
<svg height="600" width="800" xmlns="http://www.w3.org/2000/svg" xmlns:xlink="http://www.w3.org/1999/xlink">
    <g id="Notes" font-family="'LucidaGrande', 'Lucida Grande', sans-serif" font-size="13">
        <rect fill="white" height="600.0" width="800.0" x="0.0" y="0.0" />
        <g font-size="13">
            <text x="18.0" y="176.0">Small</text>
            <text x="18.0" y="376.0">Medium</text>
            <text x="18.0" y="576.0">Large</text>
        </g>
        <g font-size="9">
            <text x="250.0" y="30.0">Ultralight</text>
            <text x="450.0" y="30.0">Regular</text>
            <text x="650.0" y="30.0">Black</text>
            <text id="template-version" fill="#505050" text-anchor="end" x="785.0" y="575.0">Template v.3.0</text>
            <a href="https://github.com/swhitty/SwiftDraw">
                <text fill="#505050" text-anchor="end" x="785.0" y="590.0">https://github.com/swhitty/SwiftDraw</text>
            </a>
        </g>
    </g>
    <g id="Guides" stroke="rgb(39, 170, 225)" stroke-width="0.5">
        <path id="Capline-S" d="M18,76 l800,0" />
        <path id="H-reference" d="M85,145.755 L87.685,145.755 L113.369,79.287 L114.052,79.287 L114.052,76 L112.148,76 L85,145.755 Z M95.693,121.536 L130.996,121.536 L130.263,119.313 L96.474,119.313 L95.693,121.536 Z M139.15,145.755 L141.787,145.755 L114.638,76 L113.466,76 L113.466,79.287 L139.15,145.755 Z" stroke="none" />
        <path id="Baseline-S" d="M18,146 l800,0" />
        <path id="left-margin-Ultralight-S" d="M215.139,56 l0,110" />
        <path id="right-margin-Ultralight-S" d="M314.861,56 l0,110" />
        <path id="left-margin-Regular-S" d="M415.139,56 l0,110" />
        <path id="right-margin-Regular-S" d="M514.861,56 l0,110" />
        <path id="left-margin-Black-S" d="M615.139,56 l0,110" />
        <path id="right-margin-Black-S" d="M714.861,56 l0,110" />
        <path id="Capline-M" d="M18,276 l800,0" />
        <path id="Baseline-M" d="M18,346 l800,0" />
        <path id="Capline-L" d="M18,476 l800,0" />
        <path id="Baseline-L" d="M18,546 l800,0" />
    </g>
    <g id="Symbols">
        <g id="Ultralight-S">
            <path d="M271.806,125.583 L271.806,143.083 L274.722,140.167 L255.278,140.167 L258.194,143.083 L258.194,125.583 L255.278,128.5 L274.722,128.5 L271.806,125.583 Z M277.639,125.583 C277.639,123.973 276.333,122.667 274.722,122.667 L255.278,122.667 C253.667,122.667 252.361,123.973 252.361,125.583 L252.361,143.083 C252.361,144.694 253.667,146 255.278,146 L274.722,146 C276.333,146 277.639,144.694 277.639,143.083 L277.639,125.583 Z" />
            <path d="M299.028,102.25 L299.028,121.694 C299.028,121.952 298.925,122.2 298.743,122.382 C298.561,122.564 298.313,122.667 298.056,122.667 L231.944,122.667 C231.687,122.667 231.439,122.564 231.257,122.382 C231.075,122.2 230.972,121.952 230.972,121.694 L230.972,82.806 C230.972,82.548 231.075,82.3 231.257,82.118 C231.439,81.936 231.687,81.833 231.944,81.833 L298.056,81.833 C298.313,81.833 298.561,81.936 298.743,82.118 C298.925,82.3 299.028,82.548 299.028,82.806 L299.028,102.25 Z M304.861,102.25 L304.861,82.806 C304.861,81.001 304.144,79.27 302.868,77.993 C301.592,76.717 299.861,76 298.056,76 L231.944,76 C230.14,76 228.408,76.717 227.132,77.993 C225.856,79.27 225.139,81.001 225.139,82.806 L225.139,121.694 C225.139,123.499 225.856,125.23 227.132,126.507 C228.408,127.783 230.14,128.5 231.944,128.5 L298.056,128.5 C299.861,128.5 301.592,127.783 302.868,126.507 C304.144,125.23 304.861,123.499 304.861,121.694 L304.861,102.25 Z" />
            <path d="M261.111,118.778 L268.889,118.778 C270.5,118.778 271.806,117.472 271.806,115.861 C271.806,114.25 270.5,112.944 268.889,112.944 L261.111,112.944 C259.5,112.944 258.194,114.25 258.194,115.861 C258.194,117.472 259.5,118.778 261.111,118.778 Z" />
            <path d="M245.556,146 L284.444,146 C286.055,146 287.361,144.694 287.361,143.083 C287.361,141.473 286.055,140.167 284.444,140.167 L245.556,140.167 C243.945,140.167 242.639,141.473 242.639,143.083 C242.639,144.694 243.945,146 245.556,146 Z" />
        </g>
        <g id="Regular-S">
            <path d="M471.806,125.583 L471.806,143.083 L474.722,140.167 L455.278,140.167 L458.194,143.083 L458.194,125.583 L455.278,128.5 L474.722,128.5 L471.806,125.583 Z M477.639,125.583 C477.639,123.973 476.333,122.667 474.722,122.667 L455.278,122.667 C453.667,122.667 452.361,123.973 452.361,125.583 L452.361,143.083 C452.361,144.694 453.667,146 455.278,146 L474.722,146 C476.333,146 477.639,144.694 477.639,143.083 L477.639,125.583 Z" />
            <path d="M499.028,102.25 L499.028,121.694 C499.028,121.952 498.925,122.2 498.743,122.382 C498.561,122.564 498.313,122.667 498.056,122.667 L431.944,122.667 C431.687,122.667 431.439,122.564 431.257,122.382 C431.075,122.2 430.972,121.952 430.972,121.694 L430.972,82.806 C430.972,82.548 431.075,82.3 431.257,82.118 C431.439,81.936 431.687,81.833 431.944,81.833 L498.056,81.833 C498.313,81.833 498.561,81.936 498.743,82.118 C498.925,82.3 499.028,82.548 499.028,82.806 L499.028,102.25 Z M504.861,102.25 L504.861,82.806 C504.861,81.001 504.144,79.27 502.868,77.993 C501.592,76.717 499.861,76 498.056,76 L431.944,76 C430.139,76 428.408,76.717 427.132,77.993 C425.856,79.27 425.139,81.001 425.139,82.806 L425.139,121.694 C425.139,123.499 425.856,125.23 427.132,126.507 C428.408,127.783 430.139,128.5 431.944,128.5 L498.056,128.5 C499.861,128.5 501.592,127.783 502.868,126.507 C504.144,125.23 504.861,123.499 504.861,121.694 L504.861,102.25 Z" />
            <path d="M461.111,118.778 L468.889,118.778 C470.5,118.778 471.806,117.472 471.806,115.861 C471.806,114.25 470.5,112.944 468.889,112.944 L461.111,112.944 C459.5,112.944 458.194,114.25 458.194,115.861 C458.194,117.472 459.5,118.778 461.111,118.778 Z" />
            <path d="M445.556,146 L484.444,146 C486.055,146 487.361,144.694 487.361,143.083 C487.361,141.473 486.055,140.167 484.444,140.167 L445.556,140.167 C443.945,140.167 442.639,141.473 442.639,143.083 C442.639,144.694 443.945,146 445.556,146 Z" />
        </g>
        <g id="Black-S">
            <path d="M671.806,125.583 L671.806,143.083 L674.722,140.167 L655.278,140.167 L658.194,143.083 L658.194,125.583 L655.278,128.5 L674.722,128.5 L671.806,125.583 Z M677.639,125.583 C677.639,123.973 676.333,122.667 674.722,122.667 L655.278,122.667 C653.667,122.667 652.361,123.973 652.361,125.583 L652.361,143.083 C652.361,144.694 653.667,146 655.278,146 L674.722,146 C676.333,146 677.639,144.694 677.639,143.083 L677.639,125.583 Z" />
            <path d="M699.028,102.25 L699.028,121.694 C699.028,121.952 698.925,122.2 698.743,122.382 C698.561,122.564 698.313,122.667 698.056,122.667 L631.944,122.667 C631.687,122.667 631.439,122.564 631.257,122.382 C631.075,122.2 630.972,121.952 630.972,121.694 L630.972,82.806 C630.972,82.548 631.075,82.3 631.257,82.118 C631.439,81.936 631.687,81.833 631.944,81.833 L698.056,81.833 C698.313,81.833 698.561,81.936 698.743,82.118 C698.925,82.3 699.028,82.548 699.028,82.806 L699.028,102.25 Z M704.861,102.25 L704.861,82.806 C704.861,81.001 704.144,79.27 702.868,77.993 C701.591,76.717 699.86,76 698.056,76 L631.944,76 C630.139,76 628.408,76.717 627.132,77.993 C625.856,79.27 625.139,81.001 625.139,82.806 L625.139,121.694 C625.139,123.499 625.856,125.23 627.132,126.507 C628.408,127.783 630.139,128.5 631.944,128.5 L698.056,128.5 C699.86,128.5 701.591,127.783 702.868,126.507 C704.144,125.23 704.861,123.499 704.861,121.694 L704.861,102.25 Z" />
            <path d="M661.111,118.778 L668.889,118.778 C670.5,118.778 671.806,117.472 671.806,115.861 C671.806,114.25 670.5,112.944 668.889,112.944 L661.111,112.944 C659.5,112.944 658.194,114.25 658.194,115.861 C658.194,117.472 659.5,118.778 661.111,118.778 Z" />
            <path d="M645.556,146 L684.444,146 C686.055,146 687.361,144.694 687.361,143.083 C687.361,141.473 686.055,140.167 684.444,140.167 L645.556,140.167 C643.945,140.167 642.639,141.473 642.639,143.083 C642.639,144.694 643.945,146 645.556,146 Z" />
        </g>
    </g>
</svg>