<?xml version="1.0" encoding="UTF-8"?>
<svg height="600" width="800" xmlns="http://www.w3.org/2000/svg" xmlns:xlink="http://www.w3.org/1999/xlink">
    <g id="Notes" font-family="'LucidaGrande', 'Lucida Grande', sans-serif" font-size="13">
        <rect fill="white" height="600.0" width="800.0" x="0.0" y="0.0" />
        <g font-size="13">
            <text x="18.0" y="176.0">Small</text>
            <text x="18.0" y="376.0">Medium</text>
            <text x="18.0" y="576.0">Large</text>
        </g>
        <g font-size="9">
            <text x="250.0" y="30.0">Ultralight</text>
            <text x="450.0" y="30.0">Regular</text>
            <text x="650.0" y="30.0">Black</text>
            <text id="template-version" fill="#505050" text-anchor="end" x="785.0" y="575.0">Template v.3.0</text>
            <a href="https://github.com/swhitty/SwiftDraw">
                <text fill="#505050" text-anchor="end" x="785.0" y="590.0">https://github.com/swhitty/SwiftDraw</text>
            </a>
        </g>
    </g>
    <g id="Guides" stroke="rgb(39, 170, 225)" stroke-width="0.5">
        <path id="Capline-S" d="M18,76 l800,0" />
        <path id="H-reference" d="M85,145.755 L87.685,145.755 L113.369,79.287 L114.052,79.287 L114.052,76 L112.148,76 L85,145.755 Z M95.693,121.536 L130.996,121.536 L130.263,119.313 L96.474,119.313 L95.693,121.536 Z M139.15,145.755 L141.787,145.755 L114.638,76 L113.466,76 L113.466,79.287 L139.15,145.755 Z" stroke="none" />
        <path id="Baseline-S" d="M18,146 l800,0" />
        <path id="left-margin-Ultralight-S" d="M221,56 l0,110" />
        <path id="right-margin-Ultralight-S" d="M309,56 l0,110" />
        <path id="left-margin-Regular-S" d="M421,56 l0,110" />
        <path id="right-margin-Regular-S" d="M509,56 l0,110" />
        <path id="left-margin-Black-S" d="M621,56 l0,110" />
        <path id="right-margin-Black-S" d="M709,56 l0,110" />
        <path id="Capline-M" d="M18,276 l800,0" />
        <path id="Baseline-M" d="M18,346 l800,0" />
        <path id="Capline-L" d="M18,476 l800,0" />
        <path id="Baseline-L" d="M18,546 l800,0" />
    </g>
    <g id="Symbols">
        <g id="Ultralight-S">
            <path d="M247.752,144.415 L265.15,98.02 C265.624,96.757 264.984,95.35 263.721,94.876 C262.458,94.403 261.051,95.042 260.577,96.305 L243.179,142.7 C242.706,143.963 243.345,145.37 244.608,145.844 C245.871,146.317 247.278,145.678 247.752,144.415 Z" />
            <path d="M286.821,142.7 L269.423,96.305 C268.95,95.042 267.542,94.403 266.279,94.876 C265.017,95.35 264.377,96.757 264.85,98.02 L282.249,144.415 C282.722,145.678 284.13,146.317 285.392,145.844 C286.655,145.37 287.295,143.963 286.821,142.7 Z" />
            <path d="M260.931,91.465 C260.931,89.217 262.753,87.395 265,87.395 C267.248,87.395 269.07,89.217 269.07,91.465 C269.07,93.713 267.248,95.535 265,95.535 C262.753,95.535 260.931,93.713 260.931,91.465 Z M256.047,91.465 C256.047,96.41 260.055,100.418 265,100.418 C269.945,100.418 273.954,96.41 273.954,91.465 C273.954,86.52 269.945,82.512 265,82.512 C260.055,82.512 256.047,86.52 256.047,91.465 Z" />
            <path d="M285.764,123.601 C279.627,127.575 272.475,129.72 265,129.72 C257.525,129.72 250.373,127.575 244.236,123.601 C243.104,122.868 241.593,123.191 240.86,124.323 C240.127,125.455 240.45,126.967 241.582,127.7 C248.504,132.182 256.575,134.604 265,134.604 C273.425,134.604 281.496,132.182 288.418,127.7 C289.55,126.967 289.873,125.455 289.14,124.323 C288.407,123.191 286.896,122.868 285.764,123.601 Z" />
            <path d="M267.442,84.953 L267.442,78.442 C267.442,77.093 266.349,76 265,76 C263.652,76 262.558,77.093 262.558,78.442 L262.558,84.953 C262.558,86.302 263.652,87.395 265,87.395 C266.349,87.395 267.442,86.302 267.442,84.953 Z" />
        </g>
        <g id="Regular-S">
            <path d="M447.752,144.415 L465.15,98.02 C465.624,96.757 464.984,95.35 463.721,94.876 C462.458,94.403 461.051,95.042 460.577,96.305 L443.179,142.7 C442.706,143.963 443.345,145.37 444.608,145.844 C445.871,146.317 447.278,145.678 447.752,144.415 Z" />
            <path d="M486.821,142.7 L469.423,96.305 C468.95,95.042 467.542,94.403 466.279,94.876 C465.017,95.35 464.377,96.757 464.85,98.02 L482.249,144.415 C482.722,145.678 484.13,146.317 485.392,145.844 C486.655,145.37 487.295,143.963 486.821,142.7 Z" />
            <path d="M460.931,91.465 C460.931,89.217 462.753,87.395 465,87.395 C467.248,87.395 469.07,89.217 469.07,91.465 C469.07,93.713 467.248,95.535 465,95.535 C462.753,95.535 460.931,93.713 460.931,91.465 Z M456.047,91.465 C456.047,96.41 460.055,100.418 465,100.418 C469.945,100.418 473.954,96.41 473.954,91.465 C473.954,86.52 469.945,82.512 465,82.512 C460.055,82.512 456.047,86.52 456.047,91.465 Z" />
            <path d="M485.764,123.601 C479.627,127.575 472.475,129.72 465,129.72 C457.525,129.72 450.373,127.575 444.236,123.601 C443.104,122.868 441.593,123.191 440.86,124.323 C440.127,125.455 440.45,126.967 441.582,127.7 C448.504,132.182 456.575,134.604 465,134.604 C473.425,134.604 481.496,132.182 488.418,127.7 C489.55,126.967 489.873,125.455 489.14,124.323 C488.407,123.191 486.896,122.868 485.764,123.601 Z" />
            <path d="M467.442,84.953 L467.442,78.442 C467.442,77.093 466.349,76 465,76 C463.652,76 462.558,77.093 462.558,78.442 L462.558,84.953 C462.558,86.302 463.652,87.395 465,87.395 C466.349,87.395 467.442,86.302 467.442,84.953 Z" />
        </g>
        <g id="Black-S">
            <path d="M647.752,144.415 L665.15,98.02 C665.624,96.757 664.984,95.35 663.721,94.876 C662.458,94.403 661.051,95.042 660.577,96.305 L643.179,142.7 C642.706,143.963 643.345,145.37 644.608,145.844 C645.871,146.317 647.278,145.678 647.752,144.415 Z" />
            <path d="M686.821,142.7 L669.423,96.305 C668.95,95.042 667.542,94.403 666.279,94.876 C665.017,95.35 664.377,96.757 664.85,98.02 L682.249,144.415 C682.722,145.678 684.13,146.317 685.392,145.844 C686.655,145.37 687.295,143.963 686.821,142.7 Z" />
            <path d="M660.931,91.465 C660.931,89.217 662.753,87.395 665,87.395 C667.248,87.395 669.07,89.217 669.07,91.465 C669.07,93.713 667.248,95.535 665,95.535 C662.753,95.535 660.931,93.713 660.931,91.465 Z M656.047,91.465 C656.047,96.41 660.055,100.418 665,100.418 C669.945,100.418 673.954,96.41 673.954,91.465 C673.954,86.52 669.945,82.512 665,82.512 C660.055,82.512 656.047,86.52 656.047,91.465 Z" />
            <path d="M685.763,123.601 C679.627,127.575 672.475,129.72 665,129.72 C657.525,129.72 650.373,127.575 644.237,123.601 C643.104,122.868 641.593,123.191 640.86,124.323 C640.127,125.455 640.45,126.967 641.582,127.7 C648.504,132.182 656.575,134.604 665,134.604 C673.425,134.604 681.496,132.182 688.418,127.7 C689.55,126.967 689.873,125.455 689.14,124.323 C688.407,123.191 686.896,122.868 685.763,123.601 Z" />
            <path d="M667.442,84.953 L667.442,78.442 C667.442,77.093 666.349,76 665,76 C663.652,76 662.558,77.093 662.558,78.442 L662.558,84.953 C662.558,86.302 663.652,87.395 665,87.395 C666.349,87.395 667.442,86.302 667.442,84.953 Z" />
        </g>
    </g>
</svg>