<?xml version="1.0" encoding="UTF-8"?>
<svg height="600" width="800" xmlns="http://www.w3.org/2000/svg" xmlns:xlink="http://www.w3.org/1999/xlink">
    <g id="Notes" font-family="'LucidaGrande', 'Lucida Grande', sans-serif" font-size="13">
        <rect fill="white" height="600.0" width="800.0" x="0.0" y="0.0" />
        <g font-size="13">
            <text x="18.0" y="176.0">Small</text>
            <text x="18.0" y="376.0">Medium</text>
            <text x="18.0" y="576.0">Large</text>
        </g>
        <g font-size="9">
            <text x="250.0" y="30.0">Ultralight</text>
            <text x="450.0" y="30.0">Regular</text>
            <text x="650.0" y="30.0">Black</text>
            <text id="template-version" fill="#505050" text-anchor="end" x="785.0" y="575.0">Template v.3.0</text>
            <a href="https://github.com/swhitty/SwiftDraw">
                <text fill="#505050" text-anchor="end" x="785.0" y="590.0">https://github.com/swhitty/SwiftDraw</text>
            </a>
        </g>
    </g>
    <g id="Guides" stroke="rgb(39, 170, 225)" stroke-width="0.5">
        <path id="Capline-S" d="M18,76 l800,0" />
        <path id="H-reference" d="M85,145.755 L87.685,145.755 L113.369,79.287 L114.052,79.287 L114.052,76 L112.148,76 L85,145.755 Z M95.693,121.536 L130.996,121.536 L130.263,119.313 L96.474,119.313 L95.693,121.536 Z M139.15,145.755 L141.787,145.755 L114.638,76 L113.466,76 L113.466,79.287 L139.15,145.755 Z" stroke="none" />
        <path id="Baseline-S" d="M18,146 l800,0" />
        <path id="left-margin-Ultralight-S" d="M217.297,56 l0,110" />
        <path id="right-margin-Ultralight-S" d="M312.703,56 l0,110" />
        <path id="left-margin-Regular-S" d="M417.297,56 l0,110" />
        <path id="right-margin-Regular-S" d="M512.703,56 l0,110" />
        <path id="left-margin-Black-S" d="M617.297,56 l0,110" />
        <path id="right-margin-Black-S" d="M712.703,56 l0,110" />
        <path id="Capline-M" d="M18,276 l800,0" />
        <path id="Baseline-M" d="M18,346 l800,0" />
        <path id="Capline-L" d="M18,476 l800,0" />
        <path id="Baseline-L" d="M18,546 l800,0" />
    </g>
    <g id="Symbols">
        <g id="Ultralight-S">
            <path d="M234.314,99.532 C234.314,93.615 235.143,88.69 237.208,85.354 C239.801,81.165 244.214,79.947 251.828,82.716 L250.175,80.882 C250.877,83.688 249.903,87.619 247.369,90.707 C244.185,94.588 238.939,96.902 231.684,96.902 L234.314,99.532 Z M229.053,99.532 C229.053,100.985 230.231,102.162 231.684,102.162 C248.29,102.162 257.969,90.366 255.279,79.606 C255.067,78.758 254.447,78.071 253.626,77.772 C243.791,74.196 236.72,76.148 232.735,82.585 C230.019,86.973 229.053,92.71 229.053,99.532 Z" />
            <path d="M300.947,99.533 C300.947,92.712 299.981,86.973 297.265,82.585 C293.28,76.148 286.21,74.196 276.376,77.772 C275.554,78.071 274.935,78.758 274.723,79.606 C272.032,90.367 281.709,102.162 298.316,102.162 C299.769,102.162 300.946,100.985 300.947,99.533 Z M295.686,99.532 L298.316,96.902 C291.06,96.902 285.815,94.588 282.631,90.707 C280.098,87.619 279.124,83.689 279.826,80.882 L278.173,82.716 C285.787,79.947 290.199,81.165 292.793,85.354 C294.858,88.69 295.687,93.617 295.686,99.532 Z" />
            <path d="M290.426,125.835 C290.426,129.788 288.855,133.579 286.06,136.374 C283.265,139.169 279.474,140.74 275.521,140.74 L254.479,140.74 C250.526,140.74 246.735,139.169 243.94,136.374 C241.145,133.579 239.574,129.788 239.574,125.835 C239.574,121.882 241.145,118.091 243.94,115.296 C246.735,112.501 250.526,110.93 254.479,110.93 L275.521,110.93 C279.474,110.93 283.265,112.501 286.06,115.296 C288.855,118.091 290.426,121.882 290.426,125.835 Z M295.686,125.835 C295.686,120.487 293.562,115.358 289.78,111.576 C285.998,107.794 280.869,105.67 275.521,105.67 L254.479,105.67 C249.131,105.67 244.002,107.794 240.22,111.576 C236.438,115.358 234.314,120.487 234.314,125.835 C234.314,131.183 236.438,136.312 240.22,140.094 C244.002,143.875 249.131,146 254.479,146 L275.521,146 C280.869,146 285.998,143.875 289.78,140.094 C293.562,136.312 295.686,131.183 295.686,125.835 Z" />
            <path d="M272.891,108.3 L272.891,101.286 C272.891,99.833 271.713,98.656 270.26,98.656 C268.808,98.656 267.63,99.833 267.63,101.286 L267.63,108.3 C267.63,109.753 268.808,110.93 270.26,110.93 C271.713,110.93 272.891,109.753 272.891,108.3 Z" />
            <path d="M262.37,108.3 L262.37,101.286 C262.37,99.833 261.192,98.656 259.74,98.656 C258.287,98.656 257.109,99.833 257.109,101.286 L257.109,108.3 C257.109,109.753 258.287,110.93 259.74,110.93 C261.192,110.93 262.37,109.753 262.37,108.3 Z" />
            <path d="M295.821,100.364 C297.836,106.409 296.447,114.743 291.478,118.47 C290.316,119.342 290.08,120.99 290.952,122.153 C291.823,123.315 293.472,123.55 294.634,122.679 C301.689,117.388 303.473,106.684 300.812,98.701 C300.352,97.323 298.863,96.578 297.485,97.037 C296.106,97.497 295.362,98.986 295.821,100.364 Z" />
            <path d="M229.188,98.701 C227.047,105.126 229.322,114.795 234.84,122.153 C235.712,123.315 237.36,123.55 238.522,122.679 C239.684,121.807 239.92,120.158 239.048,118.996 C234.496,112.927 232.632,105.005 234.179,100.364 C234.638,98.986 233.894,97.497 232.515,97.037 C231.137,96.578 229.648,97.323 229.188,98.701 Z" />
            <path d="M275.521,146 L300.07,146 C301.973,146 303.246,144.041 302.473,142.302 L295.459,126.52 C294.869,125.193 293.315,124.595 291.988,125.185 C290.66,125.775 290.062,127.329 290.652,128.657 L297.666,144.438 L300.07,140.74 L275.521,140.74 C274.068,140.74 272.891,141.917 272.891,143.37 C272.891,144.822 274.068,146 275.521,146 Z" />
            <path d="M254.479,140.74 L229.93,140.74 L232.334,144.438 L239.348,128.657 C239.938,127.329 239.34,125.775 238.012,125.185 C236.685,124.595 235.131,125.193 234.541,126.52 L227.527,142.302 C226.754,144.041 228.027,146 229.93,146 L254.479,146 C255.932,146 257.109,144.822 257.109,143.37 C257.109,141.917 255.932,140.74 254.479,140.74 Z" />
        </g>
        <g id="Regular-S">
            <path d="M434.314,99.532 C434.314,93.615 435.143,88.69 437.208,85.354 C439.801,81.165 444.214,79.947 451.828,82.716 L450.175,80.882 C450.877,83.688 449.903,87.619 447.369,90.707 C444.185,94.588 438.939,96.902 431.684,96.902 L434.314,99.532 Z M429.053,99.532 C429.053,100.985 430.231,102.162 431.684,102.162 C448.29,102.162 457.969,90.366 455.279,79.606 C455.067,78.758 454.447,78.071 453.626,77.772 C443.791,74.196 436.72,76.148 432.735,82.585 C430.019,86.973 429.053,92.71 429.053,99.532 Z" />
            <path d="M500.947,99.533 C500.947,92.712 499.981,86.973 497.265,82.585 C493.28,76.148 486.21,74.196 476.376,77.772 C475.554,78.071 474.935,78.758 474.723,79.606 C472.032,90.367 481.709,102.162 498.316,102.162 C499.769,102.162 500.946,100.985 500.947,99.533 Z M495.686,99.532 L498.316,96.902 C491.06,96.902 485.815,94.588 482.631,90.707 C480.098,87.619 479.124,83.689 479.826,80.882 L478.173,82.716 C485.787,79.947 490.199,81.165 492.793,85.354 C494.858,88.69 495.687,93.617 495.686,99.532 Z" />
            <path d="M490.426,125.835 C490.426,129.788 488.855,133.579 486.06,136.374 C483.265,139.169 479.474,140.74 475.521,140.74 L454.479,140.74 C450.526,140.74 446.735,139.169 443.94,136.374 C441.145,133.579 439.574,129.788 439.574,125.835 C439.574,121.882 441.145,118.091 443.94,115.296 C446.735,112.501 450.526,110.93 454.479,110.93 L475.521,110.93 C479.474,110.93 483.265,112.501 486.06,115.296 C488.855,118.091 490.426,121.882 490.426,125.835 Z M495.686,125.835 C495.686,120.487 493.562,115.358 489.78,111.576 C485.998,107.794 480.869,105.67 475.521,105.67 L454.479,105.67 C449.131,105.67 444.002,107.794 440.22,111.576 C436.438,115.358 434.314,120.487 434.314,125.835 C434.314,131.183 436.438,136.312 440.22,140.094 C444.002,143.875 449.131,146 454.479,146 L475.521,146 C480.869,146 485.998,143.875 489.78,140.094 C493.562,136.312 495.686,131.183 495.686,125.835 Z" />
            <path d="M472.891,108.3 L472.891,101.286 C472.891,99.833 471.713,98.656 470.26,98.656 C468.808,98.656 467.63,99.833 467.63,101.286 L467.63,108.3 C467.63,109.753 468.808,110.93 470.26,110.93 C471.713,110.93 472.891,109.753 472.891,108.3 Z" />
            <path d="M462.37,108.3 L462.37,101.286 C462.37,99.833 461.192,98.656 459.74,98.656 C458.287,98.656 457.109,99.833 457.109,101.286 L457.109,108.3 C457.109,109.753 458.287,110.93 459.74,110.93 C461.192,110.93 462.37,109.753 462.37,108.3 Z" />
            <path d="M495.821,100.364 C497.836,106.409 496.447,114.743 491.478,118.47 C490.316,119.342 490.08,120.99 490.952,122.153 C491.823,123.315 493.472,123.55 494.634,122.679 C501.689,117.388 503.473,106.684 500.812,98.701 C500.352,97.323 498.863,96.578 497.485,97.037 C496.106,97.497 495.362,98.986 495.821,100.364 Z" />
            <path d="M429.188,98.701 C427.047,105.126 429.322,114.795 434.84,122.153 C435.712,123.315 437.36,123.55 438.522,122.679 C439.684,121.807 439.92,120.158 439.048,118.996 C434.496,112.927 432.632,105.005 434.179,100.364 C434.638,98.986 433.894,97.497 432.515,97.037 C431.137,96.578 429.648,97.323 429.188,98.701 Z" />
            <path d="M475.521,146 L500.07,146 C501.973,146 503.246,144.041 502.473,142.302 L495.459,126.52 C494.869,125.193 493.315,124.595 491.988,125.185 C490.66,125.775 490.062,127.329 490.652,128.657 L497.666,144.438 L500.07,140.74 L475.521,140.74 C474.068,140.74 472.891,141.917 472.891,143.37 C472.891,144.822 474.068,146 475.521,146 Z" />
            <path d="M454.479,140.74 L429.93,140.74 L432.334,144.438 L439.348,128.657 C439.938,127.329 439.34,125.775 438.012,125.185 C436.685,124.595 435.131,125.193 434.541,126.52 L427.527,142.302 C426.754,144.041 428.027,146 429.93,146 L454.479,146 C455.932,146 457.109,144.822 457.109,143.37 C457.109,141.917 455.932,140.74 454.479,140.74 Z" />
        </g>
        <g id="Black-S">
            <path d="M634.314,99.532 C634.314,93.615 635.143,88.69 637.208,85.354 C639.801,81.165 644.214,79.947 651.828,82.716 L650.175,80.882 C650.877,83.688 649.903,87.619 647.369,90.707 C644.185,94.588 638.939,96.902 631.684,96.902 L634.314,99.532 Z M629.053,99.532 C629.053,100.985 630.231,102.162 631.684,102.162 C648.29,102.162 657.969,90.366 655.279,79.606 C655.067,78.758 654.447,78.071 653.626,77.772 C643.791,74.196 636.72,76.148 632.735,82.585 C630.019,86.973 629.053,92.71 629.053,99.532 Z" />
            <path d="M700.947,99.533 C700.947,92.712 699.981,86.973 697.265,82.585 C693.28,76.148 686.21,74.196 676.376,77.772 C675.554,78.071 674.935,78.758 674.723,79.606 C672.032,90.367 681.709,102.162 698.316,102.162 C699.769,102.162 700.946,100.985 700.947,99.533 Z M695.686,99.532 L698.316,96.902 C691.06,96.902 685.815,94.588 682.631,90.707 C680.098,87.619 679.124,83.689 679.826,80.882 L678.173,82.716 C685.787,79.947 690.199,81.165 692.793,85.354 C694.858,88.69 695.687,93.617 695.686,99.532 Z" />
            <path d="M690.426,125.835 C690.426,129.788 688.855,133.579 686.06,136.374 C683.265,139.169 679.474,140.74 675.521,140.74 L654.479,140.74 C650.526,140.74 646.735,139.169 643.94,136.374 C641.145,133.579 639.574,129.788 639.574,125.835 C639.574,121.882 641.145,118.091 643.94,115.296 C646.735,112.501 650.526,110.93 654.479,110.93 L675.521,110.93 C679.474,110.93 683.265,112.501 686.06,115.296 C688.855,118.091 690.426,121.882 690.426,125.835 Z M695.686,125.835 C695.686,120.487 693.562,115.358 689.78,111.576 C685.998,107.794 680.869,105.67 675.521,105.67 L654.479,105.67 C649.131,105.67 644.002,107.794 640.22,111.576 C636.438,115.358 634.314,120.487 634.314,125.835 C634.314,131.183 636.438,136.312 640.22,140.094 C644.002,143.875 649.131,146 654.479,146 L675.521,146 C680.869,146 685.998,143.875 689.78,140.094 C693.562,136.312 695.686,131.183 695.686,125.835 Z" />
            <path d="M672.891,108.3 L672.891,101.286 C672.891,99.833 671.713,98.656 670.26,98.656 C668.808,98.656 667.63,99.833 667.63,101.286 L667.63,108.3 C667.63,109.753 668.808,110.93 670.26,110.93 C671.713,110.93 672.891,109.753 672.891,108.3 Z" />
            <path d="M662.37,108.3 L662.37,101.286 C662.37,99.833 661.192,98.656 659.74,98.656 C658.287,98.656 657.109,99.833 657.109,101.286 L657.109,108.3 C657.109,109.753 658.287,110.93 659.74,110.93 C661.192,110.93 662.37,109.753 662.37,108.3 Z" />
            <path d="M695.821,100.364 C697.836,106.409 696.447,114.743 691.478,118.47 C690.316,119.342 690.08,120.99 690.952,122.153 C691.823,123.315 693.472,123.55 694.634,122.679 C701.689,117.388 703.473,106.684 700.812,98.701 C700.352,97.323 698.863,96.578 697.485,97.037 C696.106,97.497 695.362,98.986 695.821,100.364 Z" />
            <path d="M629.188,98.701 C627.047,105.126 629.322,114.795 634.84,122.153 C635.712,123.315 637.36,123.55 638.522,122.679 C639.684,121.807 639.92,120.158 639.048,118.996 C634.496,112.927 632.632,105.005 634.179,100.364 C634.638,98.986 633.894,97.497 632.515,97.037 C631.137,96.578 629.648,97.323 629.188,98.701 Z" />
            <path d="M675.521,146 L700.07,146 C701.973,146 703.246,144.041 702.473,142.302 L695.459,126.52 C694.869,125.193 693.315,124.595 691.988,125.185 C690.66,125.775 690.062,127.329 690.652,128.657 L697.666,144.438 L700.07,140.74 L675.521,140.74 C674.068,140.74 672.891,141.917 672.891,143.37 C672.891,144.822 674.068,146 675.521,146 Z" />
            <path d="M654.479,140.74 L629.93,140.74 L632.334,144.438 L639.348,128.657 C639.938,127.329 639.34,125.775 638.012,125.185 C636.685,124.595 635.131,125.193 634.541,126.52 L627.527,142.302 C626.754,144.041 628.027,146 629.93,146 L654.479,146 C655.932,146 657.109,144.822 657.109,143.37 C657.109,141.917 655.932,140.74 654.479,140.74 Z" />
        </g>
    </g>
</svg>