<?xml version="1.0" encoding="UTF-8"?>
<svg height="600" width="800" xmlns="http://www.w3.org/2000/svg" xmlns:xlink="http://www.w3.org/1999/xlink">
    <g id="Notes" font-family="'LucidaGrande', 'Lucida Grande', sans-serif" font-size="13">
        <rect fill="white" height="600.0" width="800.0" x="0.0" y="0.0" />
        <g font-size="13">
            <text x="18.0" y="176.0">Small</text>
            <text x="18.0" y="376.0">Medium</text>
            <text x="18.0" y="576.0">Large</text>
        </g>
        <g font-size="9">
            <text x="250.0" y="30.0">Ultralight</text>
            <text x="450.0" y="30.0">Regular</text>
            <text x="650.0" y="30.0">Black</text>
            <text id="template-version" fill="#505050" text-anchor="end" x="785.0" y="575.0">Template v.3.0</text>
            <a href="https://github.com/swhitty/SwiftDraw">
                <text fill="#505050" text-anchor="end" x="785.0" y="590.0">https://github.com/swhitty/SwiftDraw</text>
            </a>
        </g>
    </g>
    <g id="Guides" stroke="rgb(39, 170, 225)" stroke-width="0.5">
        <path id="Capline-S" d="M18,76 l800,0" />
        <path id="H-reference" d="M85,145.755 L87.685,145.755 L113.369,79.287 L114.052,79.287 L114.052,76 L112.148,76 L85,145.755 Z M95.693,121.536 L130.996,121.536 L130.263,119.313 L96.474,119.313 L95.693,121.536 Z M139.15,145.755 L141.787,145.755 L114.638,76 L113.466,76 L113.466,79.287 L139.15,145.755 Z" stroke="none" />
        <path id="Baseline-S" d="M18,146 l800,0" />
        <path id="left-margin-Ultralight-S" d="M220,56 l0,110" />
        <path id="right-margin-Ultralight-S" d="M310,56 l0,110" />
        <path id="left-margin-Regular-S" d="M420,56 l0,110" />
        <path id="right-margin-Regular-S" d="M510,56 l0,110" />
        <path id="left-margin-Black-S" d="M620,56 l0,110" />
        <path id="right-margin-Black-S" d="M710,56 l0,110" />
        <path id="Capline-M" d="M18,276 l800,0" />
        <path id="Baseline-M" d="M18,346 l800,0" />
        <path id="Capline-L" d="M18,476 l800,0" />
        <path id="Baseline-L" d="M18,546 l800,0" />
    </g>
    <g id="Symbols">
        <g id="Ultralight-S">
            <path d="M265,93.907 C269.945,93.907 273.953,89.898 273.953,84.953 C273.953,80.009 269.945,76 265,76 C260.055,76 256.047,80.009 256.047,84.953 C256.047,89.898 260.055,93.907 265,93.907 Z M265,89.023 C262.752,89.023 260.93,87.201 260.93,84.953 C260.93,82.706 262.752,80.884 265,80.884 C267.248,80.884 269.07,82.706 269.07,84.953 C269.07,87.201 267.248,89.023 265,89.023 Z" />
            <path d="M265,146 C269.945,146 273.953,141.991 273.953,137.047 C273.953,132.102 269.945,128.093 265,128.093 C260.055,128.093 256.047,132.102 256.047,137.047 C256.047,141.991 260.055,146 265,146 Z M265,141.116 C262.752,141.116 260.93,139.294 260.93,137.047 C260.93,134.799 262.752,132.977 265,132.977 C267.248,132.977 269.07,134.799 269.07,137.047 C269.07,139.294 267.248,141.116 265,141.116 Z" />
            <path d="M238.953,119.953 C243.898,119.953 247.907,115.945 247.907,111 C247.907,106.055 243.898,102.047 238.953,102.047 C234.009,102.047 230,106.055 230,111 C230,115.945 234.009,119.953 238.953,119.953 Z M238.953,115.07 C236.706,115.07 234.884,113.248 234.884,111 C234.884,108.752 236.706,106.93 238.953,106.93 C241.201,106.93 243.023,108.752 243.023,111 C243.023,113.248 241.201,115.07 238.953,115.07 Z" />
            <path d="M291.047,119.953 C295.991,119.953 300,115.945 300,111 C300,106.055 295.991,102.047 291.047,102.047 C286.102,102.047 282.093,106.055 282.093,111 C282.093,115.945 286.102,119.953 291.047,119.953 Z M291.047,115.07 C288.799,115.07 286.977,113.248 286.977,111 C286.977,108.752 288.799,106.93 291.047,106.93 C293.294,106.93 295.116,108.752 295.116,111 C295.116,113.248 293.294,115.07 291.047,115.07 Z" />
            <path d="M245.465,113.442 L284.535,113.442 C285.883,113.442 286.977,112.349 286.977,111 C286.977,109.651 285.883,108.558 284.535,108.558 L245.465,108.558 C244.117,108.558 243.023,109.651 243.023,111 C243.023,112.349 244.117,113.442 245.465,113.442 Z" />
            <path d="M262.558,91.465 L262.558,130.535 C262.558,131.883 263.651,132.977 265,132.977 C266.349,132.977 267.442,131.883 267.442,130.535 L267.442,91.465 C267.442,90.117 266.349,89.023 265,89.023 C263.651,89.023 262.558,90.117 262.558,91.465 Z" />
            <path d="M288.689,95.17 C287.651,93.62 286.463,92.174 285.144,90.856 C283.825,89.537 282.38,88.349 280.83,87.311 C279.709,86.561 278.193,86.861 277.442,87.982 C276.692,89.103 276.992,90.619 278.113,91.37 C279.398,92.23 280.597,93.215 281.691,94.309 C282.785,95.403 283.77,96.602 284.631,97.887 C285.381,99.008 286.898,99.308 288.018,98.558 C289.139,97.808 289.439,96.291 288.689,95.17 Z M249.17,87.311 C247.62,88.349 246.175,89.537 244.856,90.856 C243.537,92.175 242.349,93.62 241.311,95.17 C239.669,97.624 242.98,100.343 245.067,98.255 L252.255,91.067 C254.343,88.98 251.624,85.669 249.17,87.311 Z M251.887,91.37 L250.529,89.34 L248.802,87.614 L241.614,94.802 L243.34,96.529 L245.37,97.887 C246.23,96.602 247.215,95.403 248.309,94.309 C249.403,93.215 250.602,92.23 251.887,91.37 Z M241.311,126.83 C242.349,128.38 243.537,129.825 244.856,131.144 C246.174,132.463 247.62,133.651 249.17,134.689 C251.624,136.331 254.343,133.021 252.255,130.933 L245.067,123.745 C242.98,121.657 239.669,124.377 241.311,126.83 Z M245.37,124.113 L243.34,125.471 L241.614,127.198 L248.802,134.386 L250.529,132.66 L251.887,130.631 C250.602,129.77 249.403,128.785 248.309,127.691 C247.215,126.597 246.23,125.398 245.37,124.113 Z M280.83,134.689 C282.38,133.651 283.826,132.463 285.144,131.144 C286.463,129.826 287.651,128.38 288.689,126.83 C290.331,124.377 287.021,121.657 284.933,123.745 L277.745,130.933 C275.657,133.021 278.377,136.331 280.83,134.689 Z M278.113,130.631 L279.471,132.66 L281.198,134.386 L288.386,127.198 L286.66,125.471 L284.631,124.113 C283.77,125.398 282.785,126.597 281.691,127.691 C280.597,128.785 279.398,129.77 278.113,130.631 Z" />
        </g>
        <g id="Regular-S">
            <path d="M465,93.907 C469.945,93.907 473.953,89.898 473.953,84.953 C473.953,80.009 469.945,76 465,76 C460.055,76 456.047,80.009 456.047,84.953 C456.047,89.898 460.055,93.907 465,93.907 Z M465,89.023 C462.752,89.023 460.93,87.201 460.93,84.953 C460.93,82.706 462.752,80.884 465,80.884 C467.248,80.884 469.07,82.706 469.07,84.953 C469.07,87.201 467.248,89.023 465,89.023 Z" />
            <path d="M465,146 C469.945,146 473.953,141.991 473.953,137.047 C473.953,132.102 469.945,128.093 465,128.093 C460.055,128.093 456.047,132.102 456.047,137.047 C456.047,141.991 460.055,146 465,146 Z M465,141.116 C462.752,141.116 460.93,139.294 460.93,137.047 C460.93,134.799 462.752,132.977 465,132.977 C467.248,132.977 469.07,134.799 469.07,137.047 C469.07,139.294 467.248,141.116 465,141.116 Z" />
            <path d="M438.953,119.953 C443.898,119.953 447.907,115.945 447.907,111 C447.907,106.055 443.898,102.047 438.953,102.047 C434.009,102.047 430,106.055 430,111 C430,115.945 434.009,119.953 438.953,119.953 Z M438.953,115.07 C436.706,115.07 434.884,113.248 434.884,111 C434.884,108.752 436.706,106.93 438.953,106.93 C441.201,106.93 443.023,108.752 443.023,111 C443.023,113.248 441.201,115.07 438.953,115.07 Z" />
            <path d="M491.047,119.953 C495.991,119.953 500,115.945 500,111 C500,106.055 495.991,102.047 491.047,102.047 C486.102,102.047 482.093,106.055 482.093,111 C482.093,115.945 486.102,119.953 491.047,119.953 Z M491.047,115.07 C488.799,115.07 486.977,113.248 486.977,111 C486.977,108.752 488.799,106.93 491.047,106.93 C493.294,106.93 495.116,108.752 495.116,111 C495.116,113.248 493.294,115.07 491.047,115.07 Z" />
            <path d="M445.465,113.442 L484.535,113.442 C485.883,113.442 486.977,112.349 486.977,111 C486.977,109.651 485.883,108.558 484.535,108.558 L445.465,108.558 C444.117,108.558 443.023,109.651 443.023,111 C443.023,112.349 444.117,113.442 445.465,113.442 Z" />
            <path d="M462.558,91.465 L462.558,130.535 C462.558,131.883 463.651,132.977 465,132.977 C466.349,132.977 467.442,131.883 467.442,130.535 L467.442,91.465 C467.442,90.117 466.349,89.023 465,89.023 C463.651,89.023 462.558,90.117 462.558,91.465 Z" />
            <path d="M488.689,95.17 C487.651,93.62 486.463,92.174 485.144,90.856 C483.825,89.537 482.38,88.349 480.83,87.311 C479.709,86.561 478.193,86.861 477.442,87.982 C476.692,89.103 476.992,90.619 478.113,91.37 C479.398,92.23 480.597,93.215 481.691,94.309 C482.785,95.403 483.77,96.602 484.631,97.887 C485.381,99.008 486.898,99.308 488.018,98.558 C489.139,97.808 489.439,96.291 488.689,95.17 Z M449.17,87.311 C447.62,88.349 446.175,89.537 444.856,90.856 C443.537,92.175 442.349,93.62 441.311,95.17 C439.669,97.624 442.98,100.343 445.067,98.255 L452.255,91.067 C454.343,88.98 451.624,85.669 449.17,87.311 Z M451.887,91.37 L450.529,89.34 L448.802,87.614 L441.614,94.802 L443.34,96.529 L445.37,97.887 C446.23,96.602 447.215,95.403 448.309,94.309 C449.403,93.215 450.602,92.23 451.887,91.37 Z M441.311,126.83 C442.349,128.38 443.537,129.825 444.856,131.144 C446.174,132.463 447.62,133.651 449.17,134.689 C451.624,136.331 454.343,133.021 452.255,130.933 L445.067,123.745 C442.98,121.657 439.669,124.377 441.311,126.83 Z M445.37,124.113 L443.34,125.471 L441.614,127.198 L448.802,134.386 L450.529,132.66 L451.887,130.631 C450.602,129.77 449.403,128.785 448.309,127.691 C447.215,126.597 446.23,125.398 445.37,124.113 Z M480.83,134.689 C482.38,133.651 483.826,132.463 485.144,131.144 C486.463,129.826 487.651,128.38 488.689,126.83 C490.331,124.377 487.021,121.657 484.933,123.745 L477.745,130.933 C475.657,133.021 478.377,136.331 480.83,134.689 Z M478.113,130.631 L479.471,132.66 L481.198,134.386 L488.386,127.198 L486.66,125.471 L484.631,124.113 C483.77,125.398 482.785,126.597 481.691,127.691 C480.597,128.785 479.398,129.77 478.113,130.631 Z" />
        </g>
        <g id="Black-S">
            <path d="M665,93.907 C669.945,93.907 673.953,89.898 673.953,84.953 C673.953,80.009 669.945,76 665,76 C660.055,76 656.047,80.009 656.047,84.953 C656.047,89.898 660.055,93.907 665,93.907 Z M665,89.023 C662.752,89.023 660.93,87.201 660.93,84.953 C660.93,82.706 662.752,80.884 665,80.884 C667.248,80.884 669.07,82.706 669.07,84.953 C669.07,87.201 667.248,89.023 665,89.023 Z" />
            <path d="M665,146 C669.945,146 673.953,141.991 673.953,137.047 C673.953,132.102 669.945,128.093 665,128.093 C660.055,128.093 656.047,132.102 656.047,137.047 C656.047,141.991 660.055,146 665,146 Z M665,141.116 C662.752,141.116 660.93,139.294 660.93,137.047 C660.93,134.799 662.752,132.977 665,132.977 C667.248,132.977 669.07,134.799 669.07,137.047 C669.07,139.294 667.248,141.116 665,141.116 Z" />
            <path d="M638.953,119.953 C643.898,119.953 647.907,115.945 647.907,111 C647.907,106.055 643.898,102.047 638.953,102.047 C634.009,102.047 630,106.055 630,111 C630,115.945 634.009,119.953 638.953,119.953 Z M638.953,115.07 C636.706,115.07 634.884,113.248 634.884,111 C634.884,108.752 636.706,106.93 638.953,106.93 C641.201,106.93 643.023,108.752 643.023,111 C643.023,113.248 641.201,115.07 638.953,115.07 Z" />
            <path d="M691.047,119.953 C695.991,119.953 700,115.945 700,111 C700,106.055 695.991,102.047 691.047,102.047 C686.102,102.047 682.093,106.055 682.093,111 C682.093,115.945 686.102,119.953 691.047,119.953 Z M691.047,115.07 C688.799,115.07 686.977,113.248 686.977,111 C686.977,108.752 688.799,106.93 691.047,106.93 C693.294,106.93 695.116,108.752 695.116,111 C695.116,113.248 693.294,115.07 691.047,115.07 Z" />
            <path d="M645.465,113.442 L684.535,113.442 C685.883,113.442 686.977,112.349 686.977,111 C686.977,109.651 685.883,108.558 684.535,108.558 L645.465,108.558 C644.117,108.558 643.023,109.651 643.023,111 C643.023,112.349 644.117,113.442 645.465,113.442 Z" />
            <path d="M662.558,91.465 L662.558,130.535 C662.558,131.883 663.651,132.977 665,132.977 C666.349,132.977 667.442,131.883 667.442,130.535 L667.442,91.465 C667.442,90.117 666.349,89.023 665,89.023 C663.651,89.023 662.558,90.117 662.558,91.465 Z" />
            <path d="M688.689,95.17 C687.651,93.62 686.463,92.174 685.144,90.856 C683.825,89.537 682.38,88.349 680.83,87.311 C679.709,86.561 678.193,86.861 677.442,87.982 C676.692,89.103 676.992,90.619 678.113,91.37 C679.398,92.23 680.597,93.215 681.691,94.309 C682.785,95.403 683.77,96.602 684.631,97.887 C685.381,99.008 686.898,99.308 688.018,98.558 C689.139,97.808 689.439,96.291 688.689,95.17 Z M649.17,87.311 C647.62,88.349 646.175,89.537 644.856,90.856 C643.537,92.175 642.349,93.62 641.311,95.17 C639.669,97.624 642.979,100.343 645.067,98.255 L652.255,91.067 C654.343,88.98 651.624,85.669 649.17,87.311 Z M651.887,91.37 L650.529,89.34 L648.802,87.614 L641.614,94.802 L643.34,96.529 L645.37,97.887 C646.23,96.602 647.215,95.403 648.309,94.309 C649.403,93.215 650.602,92.23 651.887,91.37 Z M641.311,126.83 C642.349,128.38 643.537,129.825 644.856,131.144 C646.174,132.463 647.62,133.651 649.17,134.689 C651.624,136.331 654.343,133.021 652.255,130.933 L645.067,123.745 C642.979,121.657 639.669,124.377 641.311,126.83 Z M645.37,124.113 L643.34,125.471 L641.614,127.198 L648.802,134.386 L650.529,132.66 L651.887,130.631 C650.602,129.77 649.403,128.785 648.309,127.691 C647.215,126.597 646.23,125.398 645.37,124.113 Z M680.83,134.689 C682.38,133.651 683.826,132.463 685.144,131.144 C686.463,129.826 687.651,128.38 688.689,126.83 C690.331,124.377 687.021,121.657 684.933,123.745 L677.745,130.933 C675.657,133.021 678.377,136.331 680.83,134.689 Z M678.113,130.631 L679.471,132.66 L681.198,134.386 L688.386,127.198 L686.66,125.471 L684.631,124.113 C683.77,125.398 682.785,126.597 681.691,127.691 C680.597,128.785 679.398,129.77 678.113,130.631 Z" />
        </g>
    </g>
</svg>