<?xml version="1.0" encoding="UTF-8"?>
<svg height="600" width="800" xmlns="http://www.w3.org/2000/svg" xmlns:xlink="http://www.w3.org/1999/xlink">
    <g id="Notes" font-family="'LucidaGrande', 'Lucida Grande', sans-serif" font-size="13">
        <rect fill="white" height="600.0" width="800.0" x="0.0" y="0.0" />
        <g font-size="13">
            <text x="18.0" y="176.0">Small</text>
            <text x="18.0" y="376.0">Medium</text>
            <text x="18.0" y="576.0">Large</text>
        </g>
        <g font-size="9">
            <text x="250.0" y="30.0">Ultralight</text>
            <text x="450.0" y="30.0">Regular</text>
            <text x="650.0" y="30.0">Black</text>
            <text id="template-version" fill="#505050" text-anchor="end" x="785.0" y="575.0">Template v.3.0</text>
            <a href="https://github.com/swhitty/SwiftDraw">
                <text fill="#505050" text-anchor="end" x="785.0" y="590.0">https://github.com/swhitty/SwiftDraw</text>
            </a>
        </g>
    </g>
    <g id="Guides" stroke="rgb(39, 170, 225)" stroke-width="0.5">
        <path id="Capline-S" d="M18,76 l800,0" />
        <path id="H-reference" d="M85,145.755 L87.685,145.755 L113.369,79.287 L114.052,79.287 L114.052,76 L112.148,76 L85,145.755 Z M95.693,121.536 L130.996,121.536 L130.263,119.313 L96.474,119.313 L95.693,121.536 Z M139.15,145.755 L141.787,145.755 L114.638,76 L113.466,76 L113.466,79.287 L139.15,145.755 Z" stroke="none" />
        <path id="Baseline-S" d="M18,146 l800,0" />
        <path id="left-margin-Ultralight-S" d="M211.997,56 l0,110" />
        <path id="right-margin-Ultralight-S" d="M318.003,56 l0,110" />
        <path id="left-margin-Regular-S" d="M411.997,56 l0,110" />
        <path id="right-margin-Regular-S" d="M518.003,56 l0,110" />
        <path id="left-margin-Black-S" d="M611.997,56 l0,110" />
        <path id="right-margin-Black-S" d="M718.003,56 l0,110" />
        <path id="Capline-M" d="M18,276 l800,0" />
        <path id="Baseline-M" d="M18,346 l800,0" />
        <path id="Capline-L" d="M18,476 l800,0" />
        <path id="Baseline-L" d="M18,546 l800,0" />
    </g>
    <g id="Symbols">
        <g id="Ultralight-S">
            <path d="M237.932,142.363 L227.932,96.363 L223.658,99.683 L243.658,109.683 C244.979,110.343 246.583,109.945 247.441,108.744 L267.441,80.744 L262.559,80.744 L282.559,108.744 C283.417,109.945 285.021,110.343 286.342,109.683 L306.342,99.683 L302.068,96.363 L292.068,142.363 L295,140 L235,140 L237.932,142.363 Z M232.068,143.637 C232.368,145.016 233.589,146 235,146 L295,146 C296.411,146 297.632,145.016 297.932,143.637 L307.932,97.637 C308.467,95.175 305.912,93.19 303.658,94.317 L283.658,104.317 L287.441,105.256 L267.441,77.256 C266.245,75.581 263.755,75.581 262.559,77.256 L242.559,105.256 L246.342,104.317 L226.342,94.317 C224.088,93.19 221.533,95.175 222.068,97.637 L232.068,143.637 Z" />
            <path d="M265,132 C271.075,132 276,127.075 276,121 C276,114.925 271.075,110 265,110 C258.925,110 254,114.925 254,121 C254,127.075 258.925,132 265,132 Z M265,126 C262.239,126 260,123.761 260,121 C260,118.239 262.239,116 265,116 C267.761,116 270,118.239 270,121 C270,123.761 267.761,126 265,126 Z" />
        </g>
        <g id="Regular-S">
            <path d="M437.932,142.363 L427.932,96.363 L423.658,99.683 L443.658,109.683 C444.979,110.343 446.583,109.945 447.441,108.744 L467.441,80.744 L462.559,80.744 L482.559,108.744 C483.417,109.945 485.021,110.343 486.342,109.683 L506.342,99.683 L502.068,96.363 L492.068,142.363 L495,140 L435,140 L437.932,142.363 Z M432.068,143.637 C432.368,145.016 433.589,146 435,146 L495,146 C496.411,146 497.632,145.016 497.932,143.637 L507.932,97.637 C508.467,95.175 505.912,93.19 503.658,94.317 L483.658,104.317 L487.441,105.256 L467.441,77.256 C466.245,75.581 463.755,75.581 462.559,77.256 L442.559,105.256 L446.342,104.317 L426.342,94.317 C424.088,93.19 421.533,95.175 422.068,97.637 L432.068,143.637 Z" />
            <path d="M465,132 C471.075,132 476,127.075 476,121 C476,114.925 471.075,110 465,110 C458.925,110 454,114.925 454,121 C454,127.075 458.925,132 465,132 Z M465,126 C462.239,126 460,123.761 460,121 C460,118.239 462.239,116 465,116 C467.761,116 470,118.239 470,121 C470,123.761 467.761,126 465,126 Z" />
        </g>
        <g id="Black-S">
            <path d="M637.932,142.363 L627.932,96.363 L623.658,99.683 L643.658,109.683 C644.979,110.343 646.583,109.945 647.441,108.744 L667.441,80.744 L662.559,80.744 L682.559,108.744 C683.417,109.945 685.021,110.343 686.342,109.683 L706.342,99.683 L702.068,96.363 L692.068,142.363 L695,140 L635,140 L637.932,142.363 Z M632.068,143.637 C632.368,145.016 633.589,146 635,146 L695,146 C696.411,146 697.632,145.016 697.932,143.637 L707.932,97.637 C708.467,95.175 705.912,93.19 703.658,94.317 L683.658,104.317 L687.441,105.256 L667.441,77.256 C666.245,75.581 663.755,75.581 662.559,77.256 L642.559,105.256 L646.342,104.317 L626.342,94.317 C624.088,93.19 621.533,95.175 622.068,97.637 L632.068,143.637 Z" />
            <path d="M665,132 C671.075,132 676,127.075 676,121 C676,114.925 671.075,110 665,110 C658.925,110 654,114.925 654,121 C654,127.075 658.925,132 665,132 Z M665,126 C662.239,126 660,123.761 660,121 C660,118.239 662.239,116 665,116 C667.761,116 670,118.239 670,121 C670,123.761 667.761,126 665,126 Z" />
        </g>
    </g>
</svg>