<?xml version="1.0" encoding="UTF-8"?>
<svg height="600" width="800" xmlns="http://www.w3.org/2000/svg" xmlns:xlink="http://www.w3.org/1999/xlink">
    <g id="Notes" font-family="'LucidaGrande', 'Lucida Grande', sans-serif" font-size="13">
        <rect fill="white" height="600.0" width="800.0" x="0.0" y="0.0" />
        <g font-size="13">
            <text x="18.0" y="176.0">Small</text>
            <text x="18.0" y="376.0">Medium</text>
            <text x="18.0" y="576.0">Large</text>
        </g>
        <g font-size="9">
            <text x="250.0" y="30.0">Ultralight</text>
            <text x="450.0" y="30.0">Regular</text>
            <text x="650.0" y="30.0">Black</text>
            <text id="template-version" fill="#505050" text-anchor="end" x="785.0" y="575.0">Template v.3.0</text>
            <a href="https://github.com/swhitty/SwiftDraw">
                <text fill="#505050" text-anchor="end" x="785.0" y="590.0">https://github.com/swhitty/SwiftDraw</text>
            </a>
        </g>
    </g>
    <g id="Guides" stroke="rgb(39, 170, 225)" stroke-width="0.5">
        <path id="Capline-S" d="M18,76 l800,0" />
        <path id="H-reference" d="M85,145.755 L87.685,145.755 L113.369,79.287 L114.052,79.287 L114.052,76 L112.148,76 L85,145.755 Z M95.693,121.536 L130.996,121.536 L130.263,119.313 L96.474,119.313 L95.693,121.536 Z M139.15,145.755 L141.787,145.755 L114.638,76 L113.466,76 L113.466,79.287 L139.15,145.755 Z" stroke="none" />
        <path id="Baseline-S" d="M18,146 l800,0" />
        <path id="left-margin-Ultralight-S" d="M220,56 l0,110" />
        <path id="right-margin-Ultralight-S" d="M310,56 l0,110" />
        <path id="left-margin-Regular-S" d="M420,56 l0,110" />
        <path id="right-margin-Regular-S" d="M510,56 l0,110" />
        <path id="left-margin-Black-S" d="M620,56 l0,110" />
        <path id="right-margin-Black-S" d="M710,56 l0,110" />
        <path id="Capline-M" d="M18,276 l800,0" />
        <path id="Baseline-M" d="M18,346 l800,0" />
        <path id="Capline-L" d="M18,476 l800,0" />
        <path id="Baseline-L" d="M18,546 l800,0" />
    </g>
    <g id="Symbols">
        <g id="Ultralight-S">
            <path d="M265,146 C282.532,146 296.744,131.788 296.744,114.256 C296.744,96.724 282.532,82.512 265,82.512 C247.468,82.512 233.256,96.724 233.256,114.256 C233.256,131.788 247.468,146 265,146 Z M265,141.116 C250.165,141.116 238.14,129.091 238.14,114.256 C238.14,99.422 250.165,87.396 265,87.396 C279.835,87.396 291.86,99.422 291.86,114.256 C291.86,129.091 279.835,141.116 265,141.116 Z" />
            <path d="M267.369,84.362 C266.333,80.217 261.664,76 255.233,76 C253.884,76 252.791,77.094 252.791,78.442 C252.791,79.791 253.884,80.884 255.233,80.884 C257.535,80.884 259.357,81.625 260.769,82.9 C261.772,83.806 262.482,84.951 262.631,85.546 C262.958,86.854 264.284,87.65 265.592,87.323 C266.901,86.996 267.696,85.67 267.369,84.362 Z" />
            <path d="M267.433,85.157 C267.588,83.303 268.469,81.133 269.467,80.562 C270.638,79.893 271.045,78.402 270.376,77.231 C269.707,76.06 268.215,75.653 267.044,76.322 C264.283,77.9 262.842,81.45 262.567,84.751 C262.455,86.095 263.453,87.275 264.797,87.387 C266.141,87.499 267.321,86.5 267.433,85.157 Z" />
            <path d="M278.579,127.815 C278.044,126.744 277.005,125.278 275.372,123.826 C272.657,121.412 269.192,119.954 265,119.954 C260.808,119.954 257.343,121.412 254.628,123.826 C252.995,125.278 251.956,126.744 251.421,127.815 C250.818,129.021 251.306,130.488 252.513,131.091 C253.719,131.694 255.186,131.205 255.789,129.999 C255.837,129.902 255.985,129.652 256.233,129.301 C256.671,128.683 257.217,128.058 257.872,127.476 C259.735,125.821 262.07,124.837 265,124.837 C267.93,124.837 270.265,125.821 272.128,127.476 C272.783,128.058 273.329,128.683 273.767,129.301 C274.015,129.652 274.163,129.902 274.211,129.999 C274.814,131.205 276.281,131.694 277.487,131.091 C278.694,130.488 279.182,129.021 278.579,127.815 Z" />
            <path d="M281.68,102.08 L271.913,100.452 C270.583,100.23 269.325,101.129 269.103,102.459 C268.881,103.79 269.78,105.048 271.11,105.269 L280.878,106.897 C282.208,107.119 283.466,106.22 283.688,104.89 C283.909,103.56 283.011,102.302 281.68,102.08 Z" />
            <path d="M258.087,100.452 L248.32,102.08 C246.989,102.302 246.091,103.56 246.312,104.89 C246.534,106.22 247.792,107.119 249.122,106.897 L258.89,105.269 C260.22,105.048 261.119,103.79 260.897,102.459 C260.675,101.129 259.417,100.23 258.087,100.452 Z" />
            <path d="M247.907,104.489 L247.907,112.628 C247.907,113.977 249,115.07 250.349,115.07 C251.698,115.07 252.791,113.977 252.791,112.628 L252.791,104.489 C252.791,103.14 251.698,102.047 250.349,102.047 C249,102.047 247.907,103.14 247.907,104.489 Z" />
            <path d="M277.209,104.489 L277.209,112.628 C277.209,113.977 278.302,115.07 279.651,115.07 C281,115.07 282.093,113.977 282.093,112.628 L282.093,104.489 C282.093,103.14 281,102.047 279.651,102.047 C278.302,102.047 277.209,103.14 277.209,104.489 Z" />
            <path d="M230,111 L230,117.512 C230,118.86 231.093,119.954 232.442,119.954 C233.791,119.954 234.884,118.86 234.884,117.512 L234.884,111 C234.884,109.652 233.791,108.558 232.442,108.558 C231.093,108.558 230,109.652 230,111 Z" />
            <path d="M295.116,111 L295.116,117.512 C295.116,118.86 296.209,119.954 297.558,119.954 C298.907,119.954 300,118.86 300,117.512 L300,111 C300,109.652 298.907,108.558 297.558,108.558 C296.209,108.558 295.116,109.652 295.116,111 Z" />
        </g>
        <g id="Regular-S">
            <path d="M465,146 C482.532,146 496.744,131.788 496.744,114.256 C496.744,96.724 482.532,82.512 465,82.512 C447.468,82.512 433.256,96.724 433.256,114.256 C433.256,131.788 447.468,146 465,146 Z M465,141.116 C450.166,141.116 438.14,129.091 438.14,114.256 C438.14,99.422 450.166,87.396 465,87.396 C479.835,87.396 491.86,99.422 491.86,114.256 C491.86,129.091 479.835,141.116 465,141.116 Z" />
            <path d="M467.369,84.362 C466.333,80.217 461.664,76 455.233,76 C453.884,76 452.791,77.094 452.791,78.442 C452.791,79.791 453.884,80.884 455.233,80.884 C457.535,80.884 459.357,81.625 460.769,82.9 C461.772,83.806 462.482,84.951 462.631,85.546 C462.958,86.854 464.284,87.65 465.592,87.323 C466.901,86.996 467.696,85.67 467.369,84.362 Z" />
            <path d="M467.433,85.157 C467.588,83.303 468.469,81.133 469.467,80.562 C470.638,79.893 471.045,78.402 470.376,77.231 C469.707,76.06 468.215,75.653 467.044,76.322 C464.283,77.9 462.842,81.45 462.567,84.751 C462.455,86.095 463.453,87.275 464.797,87.387 C466.141,87.499 467.321,86.5 467.433,85.157 Z" />
            <path d="M478.579,127.815 C478.044,126.744 477.005,125.278 475.372,123.826 C472.657,121.412 469.192,119.954 465,119.954 C460.808,119.954 457.343,121.412 454.628,123.826 C452.995,125.278 451.956,126.744 451.421,127.815 C450.818,129.021 451.306,130.488 452.513,131.091 C453.719,131.694 455.186,131.205 455.789,129.999 C455.837,129.902 455.985,129.652 456.233,129.301 C456.671,128.683 457.217,128.058 457.872,127.476 C459.735,125.821 462.07,124.837 465,124.837 C467.93,124.837 470.265,125.821 472.128,127.476 C472.783,128.058 473.329,128.683 473.767,129.301 C474.015,129.652 474.163,129.902 474.211,129.999 C474.814,131.205 476.281,131.694 477.487,131.091 C478.694,130.488 479.182,129.021 478.579,127.815 Z" />
            <path d="M481.68,102.08 L471.913,100.452 C470.583,100.23 469.325,101.129 469.103,102.459 C468.881,103.79 469.78,105.048 471.11,105.269 L480.878,106.897 C482.208,107.119 483.466,106.22 483.688,104.89 C483.909,103.56 483.011,102.302 481.68,102.08 Z" />
            <path d="M458.087,100.452 L448.32,102.08 C446.989,102.302 446.091,103.56 446.312,104.89 C446.534,106.22 447.792,107.119 449.122,106.897 L458.89,105.269 C460.22,105.048 461.119,103.79 460.897,102.459 C460.675,101.129 459.417,100.23 458.087,100.452 Z" />
            <path d="M447.907,104.489 L447.907,112.628 C447.907,113.977 449,115.07 450.349,115.07 C451.698,115.07 452.791,113.977 452.791,112.628 L452.791,104.489 C452.791,103.14 451.698,102.047 450.349,102.047 C449,102.047 447.907,103.14 447.907,104.489 Z" />
            <path d="M477.209,104.489 L477.209,112.628 C477.209,113.977 478.302,115.07 479.651,115.07 C481,115.07 482.093,113.977 482.093,112.628 L482.093,104.489 C482.093,103.14 481,102.047 479.651,102.047 C478.302,102.047 477.209,103.14 477.209,104.489 Z" />
            <path d="M430,111 L430,117.512 C430,118.86 431.093,119.954 432.442,119.954 C433.791,119.954 434.884,118.86 434.884,117.512 L434.884,111 C434.884,109.652 433.791,108.558 432.442,108.558 C431.093,108.558 430,109.652 430,111 Z" />
            <path d="M495.116,111 L495.116,117.512 C495.116,118.86 496.209,119.954 497.558,119.954 C498.907,119.954 500,118.86 500,117.512 L500,111 C500,109.652 498.907,108.558 497.558,108.558 C496.209,108.558 495.116,109.652 495.116,111 Z" />
        </g>
        <g id="Black-S">
            <path d="M665,146 C682.532,146 696.744,131.788 696.744,114.256 C696.744,96.724 682.532,82.512 665,82.512 C647.468,82.512 633.256,96.724 633.256,114.256 C633.256,131.788 647.468,146 665,146 Z M665,141.116 C650.166,141.116 638.14,129.091 638.14,114.256 C638.14,99.422 650.166,87.396 665,87.396 C679.835,87.396 691.86,99.422 691.86,114.256 C691.86,129.091 679.835,141.116 665,141.116 Z" />
            <path d="M667.369,84.362 C666.333,80.217 661.664,76 655.233,76 C653.884,76 652.791,77.094 652.791,78.442 C652.791,79.791 653.884,80.884 655.233,80.884 C657.535,80.884 659.357,81.625 660.769,82.9 C661.772,83.806 662.482,84.951 662.631,85.546 C662.958,86.854 664.284,87.65 665.592,87.323 C666.901,86.996 667.696,85.67 667.369,84.362 Z" />
            <path d="M667.433,85.157 C667.588,83.303 668.469,81.133 669.467,80.562 C670.638,79.893 671.045,78.402 670.376,77.231 C669.707,76.06 668.215,75.653 667.044,76.322 C664.283,77.9 662.842,81.45 662.567,84.751 C662.455,86.095 663.453,87.275 664.797,87.387 C666.141,87.499 667.321,86.5 667.433,85.157 Z" />
            <path d="M678.579,127.815 C678.044,126.744 677.005,125.278 675.372,123.826 C672.657,121.412 669.192,119.954 665,119.954 C660.808,119.954 657.344,121.412 654.628,123.826 C652.995,125.278 651.956,126.744 651.421,127.815 C650.818,129.021 651.307,130.488 652.513,131.091 C653.719,131.694 655.186,131.205 655.789,129.999 C655.837,129.902 655.985,129.652 656.233,129.301 C656.671,128.683 657.217,128.058 657.872,127.476 C659.735,125.821 662.07,124.837 665,124.837 C667.93,124.837 670.265,125.821 672.128,127.476 C672.783,128.058 673.329,128.683 673.767,129.301 C674.015,129.652 674.163,129.902 674.211,129.999 C674.814,131.205 676.281,131.694 677.487,131.091 C678.694,130.488 679.182,129.021 678.579,127.815 Z" />
            <path d="M681.68,102.08 L671.913,100.452 C670.583,100.23 669.325,101.129 669.103,102.459 C668.881,103.79 669.78,105.048 671.11,105.269 L680.878,106.897 C682.208,107.119 683.466,106.22 683.688,104.89 C683.909,103.56 683.011,102.302 681.68,102.08 Z" />
            <path d="M658.087,100.452 L648.32,102.08 C646.989,102.302 646.091,103.56 646.312,104.89 C646.534,106.22 647.792,107.119 649.122,106.897 L658.89,105.269 C660.22,105.048 661.119,103.79 660.897,102.459 C660.675,101.129 659.417,100.23 658.087,100.452 Z" />
            <path d="M647.907,104.489 L647.907,112.628 C647.907,113.977 649,115.07 650.349,115.07 C651.698,115.07 652.791,113.977 652.791,112.628 L652.791,104.489 C652.791,103.14 651.698,102.047 650.349,102.047 C649,102.047 647.907,103.14 647.907,104.489 Z" />
            <path d="M677.209,104.489 L677.209,112.628 C677.209,113.977 678.302,115.07 679.651,115.07 C681,115.07 682.093,113.977 682.093,112.628 L682.093,104.489 C682.093,103.14 681,102.047 679.651,102.047 C678.302,102.047 677.209,103.14 677.209,104.489 Z" />
            <path d="M630,111 L630,117.512 C630,118.86 631.094,119.954 632.442,119.954 C633.791,119.954 634.884,118.86 634.884,117.512 L634.884,111 C634.884,109.652 633.791,108.558 632.442,108.558 C631.094,108.558 630,109.652 630,111 Z" />
            <path d="M695.116,111 L695.116,117.512 C695.116,118.86 696.209,119.954 697.558,119.954 C698.907,119.954 700,118.86 700,117.512 L700,111 C700,109.652 698.907,108.558 697.558,108.558 C696.209,108.558 695.116,109.652 695.116,111 Z" />
        </g>
    </g>
</svg>