<?xml version="1.0" encoding="UTF-8"?>
<svg height="600" width="800" xmlns="http://www.w3.org/2000/svg" xmlns:xlink="http://www.w3.org/1999/xlink">
    <g id="Notes" font-family="'LucidaGrande', 'Lucida Grande', sans-serif" font-size="13">
        <rect fill="white" height="600.0" width="800.0" x="0.0" y="0.0" />
        <g font-size="13">
            <text x="18.0" y="176.0">Small</text>
            <text x="18.0" y="376.0">Medium</text>
            <text x="18.0" y="576.0">Large</text>
        </g>
        <g font-size="9">
            <text x="250.0" y="30.0">Ultralight</text>
            <text x="450.0" y="30.0">Regular</text>
            <text x="650.0" y="30.0">Black</text>
            <text id="template-version" fill="#505050" text-anchor="end" x="785.0" y="575.0">Template v.3.0</text>
            <a href="https://github.com/swhitty/SwiftDraw">
                <text fill="#505050" text-anchor="end" x="785.0" y="590.0">https://github.com/swhitty/SwiftDraw</text>
            </a>
        </g>
    </g>
    <g id="Guides" stroke="rgb(39, 170, 225)" stroke-width="0.5">
        <path id="Capline-S" d="M18,76 l800,0" />
        <path id="H-reference" d="M85,145.755 L87.685,145.755 L113.369,79.287 L114.052,79.287 L114.052,76 L112.148,76 L85,145.755 Z M95.693,121.536 L130.996,121.536 L130.263,119.313 L96.474,119.313 L95.693,121.536 Z M139.15,145.755 L141.787,145.755 L114.638,76 L113.466,76 L113.466,79.287 L139.15,145.755 Z" stroke="none" />
        <path id="Baseline-S" d="M18,146 l800,0" />
        <path id="left-margin-Ultralight-S" d="M220,56 l0,110" />
        <path id="right-margin-Ultralight-S" d="M310,56 l0,110" />
        <path id="left-margin-Regular-S" d="M420,56 l0,110" />
        <path id="right-margin-Regular-S" d="M510,56 l0,110" />
        <path id="left-margin-Black-S" d="M620,56 l0,110" />
        <path id="right-margin-Black-S" d="M710,56 l0,110" />
        <path id="Capline-M" d="M18,276 l800,0" />
        <path id="Baseline-M" d="M18,346 l800,0" />
        <path id="Capline-L" d="M18,476 l800,0" />
        <path id="Baseline-L" d="M18,546 l800,0" />
    </g>
    <g id="Symbols">
        <g id="Ultralight-S">
            <path d="M297.558,76 L232.442,76 C231.093,76 230,77.093 230,78.442 L230,143.558 C230,144.907 231.093,146 232.442,146 L297.558,146 C298.907,146 300,144.907 300,143.558 L300,78.442 C300,77.093 298.907,76 297.558,76 Z M297.558,80.884 L295.116,78.442 L295.116,143.558 L297.558,141.116 L232.442,141.116 L234.884,143.558 L234.884,78.442 L232.442,80.884 L297.558,80.884 Z" />
            <path d="M287.791,85.767 C276.177,85.767 267.576,93.915 262.661,110.298 C258.311,124.798 251.396,131.349 242.209,131.349 C240.861,131.349 239.767,132.442 239.767,133.791 C239.767,135.139 240.861,136.233 242.209,136.233 C253.824,136.233 262.424,128.085 267.339,111.702 C271.689,97.202 278.604,90.651 287.791,90.651 C289.139,90.651 290.233,89.558 290.233,88.209 C290.233,86.861 289.139,85.767 287.791,85.767 Z" />
        </g>
        <g id="Regular-S">
            <path d="M497.558,76 L432.442,76 C431.093,76 430,77.093 430,78.442 L430,143.558 C430,144.907 431.093,146 432.442,146 L497.558,146 C498.907,146 500,144.907 500,143.558 L500,78.442 C500,77.093 498.907,76 497.558,76 Z M497.558,80.884 L495.116,78.442 L495.116,143.558 L497.558,141.116 L432.442,141.116 L434.884,143.558 L434.884,78.442 L432.442,80.884 L497.558,80.884 Z" />
            <path d="M487.791,85.767 C476.177,85.767 467.576,93.915 462.661,110.298 C458.311,124.798 451.396,131.349 442.209,131.349 C440.861,131.349 439.767,132.442 439.767,133.791 C439.767,135.139 440.861,136.233 442.209,136.233 C453.824,136.233 462.424,128.085 467.339,111.702 C471.689,97.202 478.604,90.651 487.791,90.651 C489.139,90.651 490.233,89.558 490.233,88.209 C490.233,86.861 489.139,85.767 487.791,85.767 Z" />
        </g>
        <g id="Black-S">
            <path d="M697.558,76 L632.442,76 C631.093,76 630,77.093 630,78.442 L630,143.558 C630,144.907 631.093,146 632.442,146 L697.558,146 C698.907,146 700,144.907 700,143.558 L700,78.442 C700,77.093 698.907,76 697.558,76 Z M697.558,80.884 L695.116,78.442 L695.116,143.558 L697.558,141.116 L632.442,141.116 L634.884,143.558 L634.884,78.442 L632.442,80.884 L697.558,80.884 Z" />
            <path d="M687.791,85.767 C676.177,85.767 667.576,93.915 662.661,110.298 C658.311,124.798 651.396,131.349 642.209,131.349 C640.861,131.349 639.767,132.442 639.767,133.791 C639.767,135.139 640.861,136.233 642.209,136.233 C653.823,136.233 662.424,128.085 667.339,111.702 C671.689,97.202 678.604,90.651 687.791,90.651 C689.139,90.651 690.233,89.558 690.233,88.209 C690.233,86.861 689.139,85.767 687.791,85.767 Z" />
        </g>
    </g>
</svg>