<?xml version="1.0" encoding="UTF-8"?>
<svg height="600" width="800" xmlns="http://www.w3.org/2000/svg" xmlns:xlink="http://www.w3.org/1999/xlink">
    <g id="Notes" font-family="'LucidaGrande', 'Lucida Grande', sans-serif" font-size="13">
        <rect fill="white" height="600.0" width="800.0" x="0.0" y="0.0" />
        <g font-size="13">
            <text x="18.0" y="176.0">Small</text>
            <text x="18.0" y="376.0">Medium</text>
            <text x="18.0" y="576.0">Large</text>
        </g>
        <g font-size="9">
            <text x="250.0" y="30.0">Ultralight</text>
            <text x="450.0" y="30.0">Regular</text>
            <text x="650.0" y="30.0">Black</text>
            <text id="template-version" fill="#505050" text-anchor="end" x="785.0" y="575.0">Template v.3.0</text>
            <a href="https://github.com/swhitty/SwiftDraw">
                <text fill="#505050" text-anchor="end" x="785.0" y="590.0">https://github.com/swhitty/SwiftDraw</text>
            </a>
        </g>
    </g>
    <g id="Guides" stroke="rgb(39, 170, 225)" stroke-width="0.5">
        <path id="Capline-S" d="M18,76 l800,0" />
        <path id="H-reference" d="M85,145.755 L87.685,145.755 L113.369,79.287 L114.052,79.287 L114.052,76 L112.148,76 L85,145.755 Z M95.693,121.536 L130.996,121.536 L130.263,119.313 L96.474,119.313 L95.693,121.536 Z M139.15,145.755 L141.787,145.755 L114.638,76 L113.466,76 L113.466,79.287 L139.15,145.755 Z" stroke="none" />
        <path id="Baseline-S" d="M18,146 l800,0" />
        <path id="left-margin-Ultralight-S" d="M220,56 l0,110" />
        <path id="right-margin-Ultralight-S" d="M310,56 l0,110" />
        <path id="left-margin-Regular-S" d="M420,56 l0,110" />
        <path id="right-margin-Regular-S" d="M510,56 l0,110" />
        <path id="left-margin-Black-S" d="M620,56 l0,110" />
        <path id="right-margin-Black-S" d="M710,56 l0,110" />
        <path id="Capline-M" d="M18,276 l800,0" />
        <path id="Baseline-M" d="M18,346 l800,0" />
        <path id="Capline-L" d="M18,476 l800,0" />
        <path id="Baseline-L" d="M18,546 l800,0" />
    </g>
    <g id="Symbols">
        <g id="Ultralight-S">
            <path d="M232.692,146 L297.308,146 C298.795,146 300,144.795 300,143.308 L300,78.692 C300,77.205 298.795,76 297.308,76 L279.359,76 L275.769,76 C274.685,76 273.706,76.651 273.286,77.651 C271.3,82.389 268.622,84.504 265,84.504 C261.378,84.504 258.7,82.389 256.714,77.651 C256.294,76.651 255.316,76 254.231,76 L250.641,76 L232.692,76 C231.205,76 230,77.205 230,78.692 L230,143.308 C230,144.795 231.205,146 232.692,146 Z M232.692,140.615 L235.385,143.308 L235.385,78.692 L232.692,81.385 L250.641,81.385 L254.231,81.385 L251.748,79.733 C254.515,86.334 259.016,89.888 265,89.888 C270.984,89.888 275.485,86.334 278.252,79.733 L275.769,81.385 L279.359,81.385 L297.308,81.385 L294.615,78.692 L294.615,143.308 L297.308,140.615 L232.692,140.615 Z" />
            <path d="M246.942,112.904 L257.712,123.673 C258.763,124.724 260.468,124.724 261.519,123.673 L283.058,102.135 C284.109,101.083 284.109,99.378 283.058,98.327 C282.006,97.276 280.302,97.276 279.25,98.327 L257.712,119.865 L261.519,119.865 L250.75,109.096 C249.698,108.045 247.994,108.045 246.942,109.096 C245.891,110.148 245.891,111.852 246.942,112.904 Z" />
        </g>
        <g id="Regular-S">
            <path d="M432.692,146 L497.308,146 C498.795,146 500,144.795 500,143.308 L500,78.692 C500,77.205 498.795,76 497.308,76 L479.359,76 L475.769,76 C474.684,76 473.706,76.651 473.286,77.651 C471.3,82.389 468.622,84.504 465,84.504 C461.378,84.504 458.7,82.389 456.714,77.651 C456.294,76.651 455.315,76 454.231,76 L450.641,76 L432.692,76 C431.205,76 430,77.205 430,78.692 L430,143.308 C430,144.795 431.205,146 432.692,146 Z M432.692,140.615 L435.385,143.308 L435.385,78.692 L432.692,81.385 L450.641,81.385 L454.231,81.385 L451.748,79.733 C454.515,86.334 459.016,89.888 465,89.888 C470.984,89.888 475.485,86.334 478.252,79.733 L475.769,81.385 L479.359,81.385 L497.308,81.385 L494.615,78.692 L494.615,143.308 L497.308,140.615 L432.692,140.615 Z" />
            <path d="M446.942,112.904 L457.712,123.673 C458.763,124.724 460.468,124.724 461.519,123.673 L483.058,102.135 C484.109,101.083 484.109,99.378 483.058,98.327 C482.006,97.276 480.302,97.276 479.25,98.327 L457.712,119.865 L461.519,119.865 L450.75,109.096 C449.698,108.045 447.994,108.045 446.942,109.096 C445.891,110.148 445.891,111.852 446.942,112.904 Z" />
        </g>
        <g id="Black-S">
            <path d="M632.692,146 L697.308,146 C698.795,146 700,144.795 700,143.308 L700,78.692 C700,77.205 698.795,76 697.308,76 L679.359,76 L675.769,76 C674.685,76 673.706,76.651 673.286,77.651 C671.3,82.389 668.622,84.504 665,84.504 C661.378,84.504 658.7,82.389 656.714,77.651 C656.294,76.651 655.316,76 654.231,76 L650.641,76 L632.692,76 C631.205,76 630,77.205 630,78.692 L630,143.308 C630,144.795 631.205,146 632.692,146 Z M632.692,140.615 L635.385,143.308 L635.385,78.692 L632.692,81.385 L650.641,81.385 L654.231,81.385 L651.748,79.733 C654.515,86.334 659.016,89.888 665,89.888 C670.984,89.888 675.485,86.334 678.252,79.733 L675.769,81.385 L679.359,81.385 L697.308,81.385 L694.615,78.692 L694.615,143.308 L697.308,140.615 L632.692,140.615 Z" />
            <path d="M646.942,112.904 L657.712,123.673 C658.763,124.724 660.468,124.724 661.519,123.673 L683.058,102.135 C684.109,101.083 684.109,99.378 683.058,98.327 C682.006,97.276 680.302,97.276 679.25,98.327 L657.712,119.865 L661.519,119.865 L650.75,109.096 C649.698,108.045 647.994,108.045 646.942,109.096 C645.891,110.148 645.891,111.852 646.942,112.904 Z" />
        </g>
    </g>
</svg>