<?xml version="1.0" encoding="UTF-8"?>
<svg height="600" width="800" xmlns="http://www.w3.org/2000/svg" xmlns:xlink="http://www.w3.org/1999/xlink">
    <g id="Notes" font-family="'LucidaGrande', 'Lucida Grande', sans-serif" font-size="13">
        <rect fill="white" height="600.0" width="800.0" x="0.0" y="0.0" />
        <g font-size="13">
            <text x="18.0" y="176.0">Small</text>
            <text x="18.0" y="376.0">Medium</text>
            <text x="18.0" y="576.0">Large</text>
        </g>
        <g font-size="9">
            <text x="250.0" y="30.0">Ultralight</text>
            <text x="450.0" y="30.0">Regular</text>
            <text x="650.0" y="30.0">Black</text>
            <text id="template-version" fill="#505050" text-anchor="end" x="785.0" y="575.0">Template v.3.0</text>
            <a href="https://github.com/swhitty/SwiftDraw">
                <text fill="#505050" text-anchor="end" x="785.0" y="590.0">https://github.com/swhitty/SwiftDraw</text>
            </a>
        </g>
    </g>
    <g id="Guides" stroke="rgb(39, 170, 225)" stroke-width="0.5">
        <path id="Capline-S" d="M18,76 l800,0" />
        <path id="H-reference" d="M85,145.755 L87.685,145.755 L113.369,79.287 L114.052,79.287 L114.052,76 L112.148,76 L85,145.755 Z M95.693,121.536 L130.996,121.536 L130.263,119.313 L96.474,119.313 L95.693,121.536 Z M139.15,145.755 L141.787,145.755 L114.638,76 L113.466,76 L113.466,79.287 L139.15,145.755 Z" stroke="none" />
        <path id="Baseline-S" d="M18,146 l800,0" />
        <path id="left-margin-Ultralight-S" d="M219.167,56 l0,110" />
        <path id="right-margin-Ultralight-S" d="M310.833,56 l0,110" />
        <path id="left-margin-Regular-S" d="M419.167,56 l0,110" />
        <path id="right-margin-Regular-S" d="M510.833,56 l0,110" />
        <path id="left-margin-Black-S" d="M619.167,56 l0,110" />
        <path id="right-margin-Black-S" d="M710.833,56 l0,110" />
        <path id="Capline-M" d="M18,276 l800,0" />
        <path id="Baseline-M" d="M18,346 l800,0" />
        <path id="Capline-L" d="M18,476 l800,0" />
        <path id="Baseline-L" d="M18,546 l800,0" />
    </g>
    <g id="Symbols">
        <g id="Ultralight-S">
            <path d="M234.167,88.5 C234.167,88.092 234.608,87.444 235.732,86.647 C237.156,85.637 239.349,84.663 242.148,83.824 C248.108,82.035 256.268,81 265,81 C273.732,81 281.892,82.035 287.852,83.824 C290.651,84.663 292.844,85.637 294.268,86.647 C295.392,87.444 295.833,88.092 295.833,88.5 C295.833,88.908 295.392,89.556 294.268,90.353 C292.844,91.363 290.651,92.337 287.852,93.177 C281.892,94.965 273.732,96 265,96 C256.268,96 248.108,94.965 242.148,93.177 C239.349,92.337 237.156,91.363 235.732,90.353 C234.608,89.556 234.167,88.908 234.167,88.5 Z M229.167,88.5 C229.167,96.211 245.129,101 265,101 C284.871,101 300.833,96.211 300.833,88.5 C300.833,80.789 284.871,76 265,76 C245.129,76 229.167,80.789 229.167,88.5 Z" />
            <path d="M242.312,93.583 C234.148,95.745 229.167,98.986 229.167,103.5 C229.167,111.211 245.129,116 265,116 C284.871,116 300.833,111.211 300.833,103.5 C300.833,98.986 295.852,95.745 287.688,93.583 C287.269,93.472 286.828,93.472 286.409,93.583 C280.583,95.126 273.027,96 265,96 C256.973,96 249.417,95.126 243.591,93.583 C243.172,93.472 242.731,93.472 242.312,93.583 Z M243.591,98.417 L242.312,98.417 C248.58,100.077 256.562,101 265,101 C273.438,101 281.42,100.077 287.688,98.417 L286.409,98.417 C289.654,99.276 292.23,100.312 293.923,101.413 C295.284,102.298 295.833,103.042 295.833,103.5 C295.833,103.908 295.392,104.556 294.268,105.353 C292.844,106.363 290.651,107.337 287.852,108.176 C281.892,109.965 273.732,111 265,111 C256.268,111 248.108,109.965 242.148,108.176 C239.349,107.337 237.156,106.363 235.732,105.353 C234.608,104.556 234.167,103.908 234.167,103.5 C234.167,103.042 234.716,102.298 236.077,101.413 C237.77,100.312 240.346,99.276 243.591,98.417 Z" />
            <path d="M242.312,108.583 C234.148,110.745 229.167,113.986 229.167,118.5 C229.167,126.211 245.129,131 265,131 C284.871,131 300.833,126.211 300.833,118.5 C300.833,113.986 295.852,110.745 287.688,108.583 C287.269,108.472 286.828,108.472 286.409,108.583 C280.583,110.126 273.027,111 265,111 C256.973,111 249.417,110.126 243.591,108.583 C243.172,108.472 242.731,108.472 242.312,108.583 Z M243.591,113.417 L242.312,113.417 C248.58,115.077 256.562,116 265,116 C273.438,116 281.42,115.077 287.688,113.417 L286.409,113.417 C289.654,114.276 292.23,115.312 293.923,116.413 C295.284,117.298 295.833,118.042 295.833,118.5 C295.833,118.908 295.392,119.556 294.268,120.353 C292.844,121.363 290.651,122.337 287.852,123.176 C281.892,124.965 273.732,126 265,126 C256.268,126 248.108,124.965 242.148,123.176 C239.349,122.337 237.156,121.363 235.732,120.353 C234.608,119.556 234.167,118.908 234.167,118.5 C234.167,118.042 234.716,117.298 236.077,116.413 C237.77,115.312 240.346,114.276 243.591,113.417 Z" />
            <path d="M242.312,123.583 C234.148,125.745 229.167,128.986 229.167,133.5 C229.167,141.211 245.129,146 265,146 C284.871,146 300.833,141.211 300.833,133.5 C300.833,128.986 295.852,125.745 287.688,123.583 C287.269,123.472 286.828,123.472 286.409,123.583 C280.583,125.126 273.027,126 265,126 C256.973,126 249.417,125.126 243.591,123.583 C243.172,123.472 242.731,123.472 242.312,123.583 Z M243.591,128.417 L242.312,128.417 C248.58,130.077 256.562,131 265,131 C273.438,131 281.42,130.077 287.688,128.417 L286.409,128.417 C289.654,129.276 292.23,130.312 293.923,131.413 C295.284,132.298 295.833,133.042 295.833,133.5 C295.833,133.908 295.392,134.556 294.268,135.353 C292.844,136.363 290.651,137.337 287.852,138.177 C281.892,139.965 273.732,141 265,141 C256.268,141 248.108,139.965 242.148,138.177 C239.349,137.337 237.156,136.363 235.732,135.353 C234.608,134.556 234.167,133.908 234.167,133.5 C234.167,133.042 234.716,132.298 236.077,131.413 C237.77,130.312 240.346,129.276 243.591,128.417 Z" />
        </g>
        <g id="Regular-S">
            <path d="M434.167,88.5 C434.167,88.092 434.608,87.444 435.732,86.647 C437.156,85.637 439.349,84.663 442.148,83.824 C448.108,82.035 456.268,81 465,81 C473.732,81 481.892,82.035 487.852,83.824 C490.651,84.663 492.844,85.637 494.268,86.647 C495.392,87.444 495.833,88.092 495.833,88.5 C495.833,88.908 495.392,89.556 494.268,90.353 C492.844,91.363 490.651,92.337 487.852,93.177 C481.892,94.965 473.732,96 465,96 C456.268,96 448.108,94.965 442.148,93.177 C439.349,92.337 437.156,91.363 435.732,90.353 C434.608,89.556 434.167,88.908 434.167,88.5 Z M429.167,88.5 C429.167,96.211 445.129,101 465,101 C484.871,101 500.833,96.211 500.833,88.5 C500.833,80.789 484.871,76 465,76 C445.129,76 429.167,80.789 429.167,88.5 Z" />
            <path d="M442.312,93.583 C434.148,95.745 429.167,98.986 429.167,103.5 C429.167,111.211 445.129,116 465,116 C484.871,116 500.833,111.211 500.833,103.5 C500.833,98.986 495.852,95.745 487.688,93.583 C487.269,93.472 486.828,93.472 486.409,93.583 C480.583,95.126 473.027,96 465,96 C456.973,96 449.417,95.126 443.591,93.583 C443.172,93.472 442.731,93.472 442.312,93.583 Z M443.591,98.417 L442.312,98.417 C448.58,100.077 456.562,101 465,101 C473.438,101 481.42,100.077 487.688,98.417 L486.409,98.417 C489.654,99.276 492.23,100.312 493.923,101.413 C495.284,102.298 495.833,103.042 495.833,103.5 C495.833,103.908 495.392,104.556 494.268,105.353 C492.844,106.363 490.651,107.337 487.852,108.176 C481.892,109.965 473.732,111 465,111 C456.268,111 448.108,109.965 442.148,108.176 C439.349,107.337 437.156,106.363 435.732,105.353 C434.608,104.556 434.167,103.908 434.167,103.5 C434.167,103.042 434.716,102.298 436.077,101.413 C437.77,100.312 440.346,99.276 443.591,98.417 Z" />
            <path d="M442.312,108.583 C434.148,110.745 429.167,113.986 429.167,118.5 C429.167,126.211 445.129,131 465,131 C484.871,131 500.833,126.211 500.833,118.5 C500.833,113.986 495.852,110.745 487.688,108.583 C487.269,108.472 486.828,108.472 486.409,108.583 C480.583,110.126 473.027,111 465,111 C456.973,111 449.417,110.126 443.591,108.583 C443.172,108.472 442.731,108.472 442.312,108.583 Z M443.591,113.417 L442.312,113.417 C448.58,115.077 456.562,116 465,116 C473.438,116 481.42,115.077 487.688,113.417 L486.409,113.417 C489.654,114.276 492.23,115.312 493.923,116.413 C495.284,117.298 495.833,118.042 495.833,118.5 C495.833,118.908 495.392,119.556 494.268,120.353 C492.844,121.363 490.651,122.337 487.852,123.176 C481.892,124.965 473.732,126 465,126 C456.268,126 448.108,124.965 442.148,123.176 C439.349,122.337 437.156,121.363 435.732,120.353 C434.608,119.556 434.167,118.908 434.167,118.5 C434.167,118.042 434.716,117.298 436.077,116.413 C437.77,115.312 440.346,114.276 443.591,113.417 Z" />
            <path d="M442.312,123.583 C434.148,125.745 429.167,128.986 429.167,133.5 C429.167,141.211 445.129,146 465,146 C484.871,146 500.833,141.211 500.833,133.5 C500.833,128.986 495.852,125.745 487.688,123.583 C487.269,123.472 486.828,123.472 486.409,123.583 C480.583,125.126 473.027,126 465,126 C456.973,126 449.417,125.126 443.591,123.583 C443.172,123.472 442.731,123.472 442.312,123.583 Z M443.591,128.417 L442.312,128.417 C448.58,130.077 456.562,131 465,131 C473.438,131 481.42,130.077 487.688,128.417 L486.409,128.417 C489.654,129.276 492.23,130.312 493.923,131.413 C495.284,132.298 495.833,133.042 495.833,133.5 C495.833,133.908 495.392,134.556 494.268,135.353 C492.844,136.363 490.651,137.337 487.852,138.177 C481.892,139.965 473.732,141 465,141 C456.268,141 448.108,139.965 442.148,138.177 C439.349,137.337 437.156,136.363 435.732,135.353 C434.608,134.556 434.167,133.908 434.167,133.5 C434.167,133.042 434.716,132.298 436.077,131.413 C437.77,130.312 440.346,129.276 443.591,128.417 Z" />
        </g>
        <g id="Black-S">
            <path d="M634.167,88.5 C634.167,88.092 634.608,87.444 635.732,86.647 C637.156,85.637 639.349,84.663 642.148,83.824 C648.108,82.035 656.268,81 665,81 C673.732,81 681.892,82.035 687.852,83.824 C690.651,84.663 692.844,85.637 694.268,86.647 C695.392,87.444 695.833,88.092 695.833,88.5 C695.833,88.908 695.392,89.556 694.268,90.353 C692.844,91.363 690.651,92.337 687.852,93.177 C681.892,94.965 673.732,96 665,96 C656.268,96 648.108,94.965 642.148,93.177 C639.349,92.337 637.156,91.363 635.732,90.353 C634.608,89.556 634.167,88.908 634.167,88.5 Z M629.167,88.5 C629.167,96.211 645.129,101 665,101 C684.871,101 700.833,96.211 700.833,88.5 C700.833,80.789 684.871,76 665,76 C645.129,76 629.167,80.789 629.167,88.5 Z" />
            <path d="M642.312,93.583 C634.148,95.745 629.167,98.986 629.167,103.5 C629.167,111.211 645.129,116 665,116 C684.871,116 700.833,111.211 700.833,103.5 C700.833,98.986 695.852,95.745 687.688,93.583 C687.269,93.472 686.828,93.472 686.409,93.583 C680.583,95.126 673.027,96 665,96 C656.973,96 649.417,95.126 643.591,93.583 C643.172,93.472 642.731,93.472 642.312,93.583 Z M643.591,98.417 L642.312,98.417 C648.58,100.077 656.562,101 665,101 C673.438,101 681.42,100.077 687.688,98.417 L686.409,98.417 C689.654,99.276 692.23,100.312 693.923,101.413 C695.284,102.298 695.833,103.042 695.833,103.5 C695.833,103.908 695.392,104.556 694.268,105.353 C692.844,106.363 690.651,107.337 687.852,108.176 C681.892,109.965 673.732,111 665,111 C656.268,111 648.108,109.965 642.148,108.176 C639.349,107.337 637.156,106.363 635.732,105.353 C634.608,104.556 634.167,103.908 634.167,103.5 C634.167,103.042 634.716,102.298 636.077,101.413 C637.77,100.312 640.346,99.276 643.591,98.417 Z" />
            <path d="M642.312,108.583 C634.148,110.745 629.167,113.986 629.167,118.5 C629.167,126.211 645.129,131 665,131 C684.871,131 700.833,126.211 700.833,118.5 C700.833,113.986 695.852,110.745 687.688,108.583 C687.269,108.472 686.828,108.472 686.409,108.583 C680.583,110.126 673.027,111 665,111 C656.973,111 649.417,110.126 643.591,108.583 C643.172,108.472 642.731,108.472 642.312,108.583 Z M643.591,113.417 L642.312,113.417 C648.58,115.077 656.562,116 665,116 C673.438,116 681.42,115.077 687.688,113.417 L686.409,113.417 C689.654,114.276 692.23,115.312 693.923,116.413 C695.284,117.298 695.833,118.042 695.833,118.5 C695.833,118.908 695.392,119.556 694.268,120.353 C692.844,121.363 690.651,122.337 687.852,123.176 C681.892,124.965 673.732,126 665,126 C656.268,126 648.108,124.965 642.148,123.176 C639.349,122.337 637.156,121.363 635.732,120.353 C634.608,119.556 634.167,118.908 634.167,118.5 C634.167,118.042 634.716,117.298 636.077,116.413 C637.77,115.312 640.346,114.276 643.591,113.417 Z" />
            <path d="M642.312,123.583 C634.148,125.745 629.167,128.986 629.167,133.5 C629.167,141.211 645.129,146 665,146 C684.871,146 700.833,141.211 700.833,133.5 C700.833,128.986 695.852,125.745 687.688,123.583 C687.269,123.472 686.828,123.472 686.409,123.583 C680.583,125.126 673.027,126 665,126 C656.973,126 649.417,125.126 643.591,123.583 C643.172,123.472 642.731,123.472 642.312,123.583 Z M643.591,128.417 L642.312,128.417 C648.58,130.077 656.562,131 665,131 C673.438,131 681.42,130.077 687.688,128.417 L686.409,128.417 C689.654,129.276 692.23,130.312 693.923,131.413 C695.284,132.298 695.833,133.042 695.833,133.5 C695.833,133.908 695.392,134.556 694.268,135.353 C692.844,136.363 690.651,137.337 687.852,138.177 C681.892,139.965 673.732,141 665,141 C656.268,141 648.108,139.965 642.148,138.177 C639.349,137.337 637.156,136.363 635.732,135.353 C634.608,134.556 634.167,133.908 634.167,133.5 C634.167,133.042 634.716,132.298 636.077,131.413 C637.77,130.312 640.346,129.276 643.591,128.417 Z" />
        </g>
    </g>
</svg>