<?xml version="1.0" encoding="UTF-8"?>
<svg height="600" width="800" xmlns="http://www.w3.org/2000/svg" xmlns:xlink="http://www.w3.org/1999/xlink">
    <g id="Notes" font-family="'LucidaGrande', 'Lucida Grande', sans-serif" font-size="13">
        <rect fill="white" height="600.0" width="800.0" x="0.0" y="0.0" />
        <g font-size="13">
            <text x="18.0" y="176.0">Small</text>
            <text x="18.0" y="376.0">Medium</text>
            <text x="18.0" y="576.0">Large</text>
        </g>
        <g font-size="9">
            <text x="250.0" y="30.0">Ultralight</text>
            <text x="450.0" y="30.0">Regular</text>
            <text x="650.0" y="30.0">Black</text>
            <text id="template-version" fill="#505050" text-anchor="end" x="785.0" y="575.0">Template v.3.0</text>
            <a href="https://github.com/swhitty/SwiftDraw">
                <text fill="#505050" text-anchor="end" x="785.0" y="590.0">https://github.com/swhitty/SwiftDraw</text>
            </a>
        </g>
    </g>
    <g id="Guides" stroke="rgb(39, 170, 225)" stroke-width="0.5">
        <path id="Capline-S" d="M18,76 l800,0" />
        <path id="H-reference" d="M85,145.755 L87.685,145.755 L113.369,79.287 L114.052,79.287 L114.052,76 L112.148,76 L85,145.755 Z M95.693,121.536 L130.996,121.536 L130.263,119.313 L96.474,119.313 L95.693,121.536 Z M139.15,145.755 L141.787,145.755 L114.638,76 L113.466,76 L113.466,79.287 L139.15,145.755 Z" stroke="none" />
        <path id="Baseline-S" d="M18,146 l800,0" />
        <path id="left-margin-Ultralight-S" d="M212,56 l0,110" />
        <path id="right-margin-Ultralight-S" d="M318,56 l0,110" />
        <path id="left-margin-Regular-S" d="M412,56 l0,110" />
        <path id="right-margin-Regular-S" d="M518,56 l0,110" />
        <path id="left-margin-Black-S" d="M612,56 l0,110" />
        <path id="right-margin-Black-S" d="M718,56 l0,110" />
        <path id="Capline-M" d="M18,276 l800,0" />
        <path id="Baseline-M" d="M18,346 l800,0" />
        <path id="Capline-L" d="M18,476 l800,0" />
        <path id="Baseline-L" d="M18,546 l800,0" />
    </g>
    <g id="Symbols">
        <g id="Ultralight-S">
            <path d="M302,111 L302,139 C302,139.265 301.895,139.52 301.707,139.707 C301.52,139.895 301.265,140 301,140 L229,140 C228.735,140 228.48,139.895 228.293,139.707 C228.105,139.52 228,139.265 228,139 L228,83 C228,82.735 228.105,82.48 228.293,82.293 C228.48,82.105 228.735,82 229,82 L301,82 C301.265,82 301.52,82.105 301.707,82.293 C301.895,82.48 302,82.735 302,83 L302,111 Z M308,111 L308,83 C308,81.143 307.263,79.363 305.95,78.05 C304.637,76.737 302.857,76 301,76 L229,76 C227.143,76 225.363,76.737 224.05,78.05 C222.738,79.363 222,81.143 222,83 L222,139 C222,140.857 222.737,142.637 224.05,143.95 C225.363,145.263 227.143,146 229,146 L301,146 C302.857,146 304.637,145.263 305.95,143.95 C307.263,142.637 308,140.857 308,139 L308,111 Z" />
            <path d="M278,113 L278,127 C278,128.657 279.343,130 281,130 C282.657,130 284,128.657 284,127 L284,113 C284,111.343 282.657,110 281,110 C279.343,110 278,111.343 278,113 Z" />
            <path d="M262,95 L262,127 C262,128.657 263.343,130 265,130 C266.657,130 268,128.657 268,127 L268,95 C268,93.343 266.657,92 265,92 C263.343,92 262,93.343 262,95 Z" />
            <path d="M246,103 L246,127 C246,128.657 247.343,130 249,130 C250.657,130 252,128.657 252,127 L252,103 C252,101.343 250.657,100 249,100 C247.343,100 246,101.343 246,103 Z" />
        </g>
        <g id="Regular-S">
            <path d="M502,111 L502,139 C502,139.265 501.895,139.52 501.707,139.707 C501.52,139.895 501.265,140 501,140 L429,140 C428.735,140 428.48,139.895 428.293,139.707 C428.105,139.52 428,139.265 428,139 L428,83 C428,82.735 428.105,82.48 428.293,82.293 C428.48,82.105 428.735,82 429,82 L501,82 C501.265,82 501.52,82.105 501.707,82.293 C501.895,82.48 502,82.735 502,83 L502,111 Z M508,111 L508,83 C508,81.143 507.263,79.363 505.95,78.05 C504.637,76.737 502.857,76 501,76 L429,76 C427.143,76 425.363,76.737 424.05,78.05 C422.737,79.363 422,81.143 422,83 L422,139 C422,140.857 422.737,142.637 424.05,143.95 C425.363,145.263 427.143,146 429,146 L501,146 C502.857,146 504.637,145.263 505.95,143.95 C507.263,142.637 508,140.857 508,139 L508,111 Z" />
            <path d="M478,113 L478,127 C478,128.657 479.343,130 481,130 C482.657,130 484,128.657 484,127 L484,113 C484,111.343 482.657,110 481,110 C479.343,110 478,111.343 478,113 Z" />
            <path d="M462,95 L462,127 C462,128.657 463.343,130 465,130 C466.657,130 468,128.657 468,127 L468,95 C468,93.343 466.657,92 465,92 C463.343,92 462,93.343 462,95 Z" />
            <path d="M446,103 L446,127 C446,128.657 447.343,130 449,130 C450.657,130 452,128.657 452,127 L452,103 C452,101.343 450.657,100 449,100 C447.343,100 446,101.343 446,103 Z" />
        </g>
        <g id="Black-S">
            <path d="M702,111 L702,139 C702,139.265 701.895,139.52 701.707,139.707 C701.52,139.895 701.265,140 701,140 L629,140 C628.735,140 628.48,139.895 628.293,139.707 C628.105,139.52 628,139.265 628,139 L628,83 C628,82.735 628.105,82.48 628.293,82.293 C628.48,82.105 628.735,82 629,82 L701,82 C701.265,82 701.52,82.105 701.707,82.293 C701.895,82.48 702,82.735 702,83 L702,111 Z M708,111 L708,83 C708,81.143 707.263,79.363 705.95,78.05 C704.637,76.737 702.857,76 701,76 L629,76 C627.143,76 625.363,76.737 624.05,78.05 C622.737,79.363 622,81.143 622,83 L622,139 C622,140.857 622.737,142.637 624.05,143.95 C625.363,145.263 627.143,146 629,146 L701,146 C702.857,146 704.637,145.263 705.95,143.95 C707.263,142.637 708,140.857 708,139 L708,111 Z" />
            <path d="M678,113 L678,127 C678,128.657 679.343,130 681,130 C682.657,130 684,128.657 684,127 L684,113 C684,111.343 682.657,110 681,110 C679.343,110 678,111.343 678,113 Z" />
            <path d="M662,95 L662,127 C662,128.657 663.343,130 665,130 C666.657,130 668,128.657 668,127 L668,95 C668,93.343 666.657,92 665,92 C663.343,92 662,93.343 662,95 Z" />
            <path d="M646,103 L646,127 C646,128.657 647.343,130 649,130 C650.657,130 652,128.657 652,127 L652,103 C652,101.343 650.657,100 649,100 C647.343,100 646,101.343 646,103 Z" />
        </g>
    </g>
</svg>