<?xml version="1.0" encoding="UTF-8"?>
<svg height="600" width="800" xmlns="http://www.w3.org/2000/svg" xmlns:xlink="http://www.w3.org/1999/xlink">
    <g id="Notes" font-family="'LucidaGrande', 'Lucida Grande', sans-serif" font-size="13">
        <rect fill="white" height="600.0" width="800.0" x="0.0" y="0.0" />
        <g font-size="13">
            <text x="18.0" y="176.0">Small</text>
            <text x="18.0" y="376.0">Medium</text>
            <text x="18.0" y="576.0">Large</text>
        </g>
        <g font-size="9">
            <text x="250.0" y="30.0">Ultralight</text>
            <text x="450.0" y="30.0">Regular</text>
            <text x="650.0" y="30.0">Black</text>
            <text id="template-version" fill="#505050" text-anchor="end" x="785.0" y="575.0">Template v.3.0</text>
            <a href="https://github.com/swhitty/SwiftDraw">
                <text fill="#505050" text-anchor="end" x="785.0" y="590.0">https://github.com/swhitty/SwiftDraw</text>
            </a>
        </g>
    </g>
    <g id="Guides" stroke="rgb(39, 170, 225)" stroke-width="0.5">
        <path id="Capline-S" d="M18,76 l800,0" />
        <path id="H-reference" d="M85,145.755 L87.685,145.755 L113.369,79.287 L114.052,79.287 L114.052,76 L112.148,76 L85,145.755 Z M95.693,121.536 L130.996,121.536 L130.263,119.313 L96.474,119.313 L95.693,121.536 Z M139.15,145.755 L141.787,145.755 L114.638,76 L113.466,76 L113.466,79.287 L139.15,145.755 Z" stroke="none" />
        <path id="Baseline-S" d="M18,146 l800,0" />
        <path id="left-margin-Ultralight-S" d="M217.375,56 l0,110" />
        <path id="right-margin-Ultralight-S" d="M312.625,56 l0,110" />
        <path id="left-margin-Regular-S" d="M417.375,56 l0,110" />
        <path id="right-margin-Regular-S" d="M512.625,56 l0,110" />
        <path id="left-margin-Black-S" d="M617.375,56 l0,110" />
        <path id="right-margin-Black-S" d="M712.625,56 l0,110" />
        <path id="Capline-M" d="M18,276 l800,0" />
        <path id="Baseline-M" d="M18,346 l800,0" />
        <path id="Capline-L" d="M18,476 l800,0" />
        <path id="Baseline-L" d="M18,546 l800,0" />
    </g>
    <g id="Symbols">
        <g id="Ultralight-S">
            <path d="M297.375,104.875 L297.375,125.875 C297.375,126.571 297.098,127.239 296.606,127.731 C296.114,128.223 295.446,128.5 294.75,128.5 L235.25,128.5 C234.554,128.5 233.886,128.223 233.394,127.731 C232.902,127.239 232.625,126.571 232.625,125.875 L232.625,83.875 C232.625,83.179 232.902,82.511 233.394,82.019 C233.886,81.527 234.554,81.25 235.25,81.25 L294.75,81.25 C295.446,81.25 296.114,81.527 296.606,82.019 C297.098,82.511 297.375,83.179 297.375,83.875 L297.375,104.875 Z M302.625,104.875 L302.625,83.875 C302.625,81.786 301.795,79.783 300.318,78.307 C298.842,76.83 296.839,76 294.75,76 L235.25,76 C233.161,76 231.158,76.83 229.682,78.307 C228.205,79.783 227.375,81.786 227.375,83.875 L227.375,125.875 C227.375,127.964 228.205,129.967 229.682,131.443 C231.158,132.92 233.161,133.75 235.25,133.75 L294.75,133.75 C296.839,133.75 298.842,132.92 300.318,131.443 C301.795,129.967 302.625,127.964 302.625,125.875 L302.625,104.875 Z" />
            <path d="M262.375,131.125 L262.375,143.375 C262.375,144.825 263.55,146 265,146 C266.45,146 267.625,144.825 267.625,143.375 L267.625,131.125 C267.625,129.675 266.45,128.5 265,128.5 C263.55,128.5 262.375,129.675 262.375,131.125 Z" />
            <path d="M277.271,90.649 L249.271,115.149 C248.18,116.104 248.07,117.763 249.024,118.854 C249.979,119.945 251.638,120.055 252.729,119.101 L280.729,94.601 C281.82,93.646 281.93,91.987 280.976,90.896 C280.021,89.805 278.362,89.695 277.271,90.649 Z" />
            <path d="M240.5,146 L289.5,146 C290.95,146 292.125,144.825 292.125,143.375 C292.125,141.925 290.95,140.75 289.5,140.75 L240.5,140.75 C239.05,140.75 237.875,141.925 237.875,143.375 C237.875,144.825 239.05,146 240.5,146 Z" />
            <path d="M246.625,97.875 C246.625,96.425 247.8,95.25 249.25,95.25 C250.7,95.25 251.875,96.425 251.875,97.875 C251.875,99.325 250.7,100.5 249.25,100.5 C247.8,100.5 246.625,99.325 246.625,97.875 Z M241.375,97.875 C241.375,102.224 244.901,105.75 249.25,105.75 C253.599,105.75 257.125,102.224 257.125,97.875 C257.125,93.526 253.599,90 249.25,90 C244.901,90 241.375,93.526 241.375,97.875 Z" />
            <path d="M278.125,111.875 C278.125,110.425 279.3,109.25 280.75,109.25 C282.2,109.25 283.375,110.425 283.375,111.875 C283.375,113.325 282.2,114.5 280.75,114.5 C279.3,114.5 278.125,113.325 278.125,111.875 Z M272.875,111.875 C272.875,116.224 276.401,119.75 280.75,119.75 C285.099,119.75 288.625,116.224 288.625,111.875 C288.625,107.526 285.099,104 280.75,104 C276.401,104 272.875,107.526 272.875,111.875 Z" />
        </g>
        <g id="Regular-S">
            <path d="M497.375,104.875 L497.375,125.875 C497.375,126.571 497.098,127.239 496.606,127.731 C496.114,128.223 495.446,128.5 494.75,128.5 L435.25,128.5 C434.554,128.5 433.886,128.223 433.394,127.731 C432.902,127.239 432.625,126.571 432.625,125.875 L432.625,83.875 C432.625,83.179 432.902,82.511 433.394,82.019 C433.886,81.527 434.554,81.25 435.25,81.25 L494.75,81.25 C495.446,81.25 496.114,81.527 496.606,82.019 C497.098,82.511 497.375,83.179 497.375,83.875 L497.375,104.875 Z M502.625,104.875 L502.625,83.875 C502.625,81.786 501.795,79.783 500.318,78.307 C498.842,76.83 496.839,76 494.75,76 L435.25,76 C433.161,76 431.158,76.83 429.682,78.307 C428.205,79.783 427.375,81.786 427.375,83.875 L427.375,125.875 C427.375,127.964 428.205,129.967 429.682,131.443 C431.158,132.92 433.161,133.75 435.25,133.75 L494.75,133.75 C496.839,133.75 498.842,132.92 500.318,131.443 C501.795,129.967 502.625,127.964 502.625,125.875 L502.625,104.875 Z" />
            <path d="M462.375,131.125 L462.375,143.375 C462.375,144.825 463.55,146 465,146 C466.45,146 467.625,144.825 467.625,143.375 L467.625,131.125 C467.625,129.675 466.45,128.5 465,128.5 C463.55,128.5 462.375,129.675 462.375,131.125 Z" />
            <path d="M477.271,90.649 L449.271,115.149 C448.18,116.104 448.07,117.763 449.024,118.854 C449.979,119.945 451.638,120.055 452.729,119.101 L480.729,94.601 C481.82,93.646 481.93,91.987 480.976,90.896 C480.021,89.805 478.362,89.695 477.271,90.649 Z" />
            <path d="M440.5,146 L489.5,146 C490.95,146 492.125,144.825 492.125,143.375 C492.125,141.925 490.95,140.75 489.5,140.75 L440.5,140.75 C439.05,140.75 437.875,141.925 437.875,143.375 C437.875,144.825 439.05,146 440.5,146 Z" />
            <path d="M446.625,97.875 C446.625,96.425 447.8,95.25 449.25,95.25 C450.7,95.25 451.875,96.425 451.875,97.875 C451.875,99.325 450.7,100.5 449.25,100.5 C447.8,100.5 446.625,99.325 446.625,97.875 Z M441.375,97.875 C441.375,102.224 444.901,105.75 449.25,105.75 C453.599,105.75 457.125,102.224 457.125,97.875 C457.125,93.526 453.599,90 449.25,90 C444.901,90 441.375,93.526 441.375,97.875 Z" />
            <path d="M478.125,111.875 C478.125,110.425 479.3,109.25 480.75,109.25 C482.2,109.25 483.375,110.425 483.375,111.875 C483.375,113.325 482.2,114.5 480.75,114.5 C479.3,114.5 478.125,113.325 478.125,111.875 Z M472.875,111.875 C472.875,116.224 476.401,119.75 480.75,119.75 C485.099,119.75 488.625,116.224 488.625,111.875 C488.625,107.526 485.099,104 480.75,104 C476.401,104 472.875,107.526 472.875,111.875 Z" />
        </g>
        <g id="Black-S">
            <path d="M697.375,104.875 L697.375,125.875 C697.375,126.571 697.098,127.239 696.606,127.731 C696.114,128.223 695.446,128.5 694.75,128.5 L635.25,128.5 C634.554,128.5 633.886,128.223 633.394,127.731 C632.902,127.239 632.625,126.571 632.625,125.875 L632.625,83.875 C632.625,83.179 632.902,82.511 633.394,82.019 C633.886,81.527 634.554,81.25 635.25,81.25 L694.75,81.25 C695.446,81.25 696.114,81.527 696.606,82.019 C697.098,82.511 697.375,83.179 697.375,83.875 L697.375,104.875 Z M702.625,104.875 L702.625,83.875 C702.625,81.786 701.795,79.783 700.318,78.307 C698.842,76.83 696.839,76 694.75,76 L635.25,76 C633.161,76 631.158,76.83 629.682,78.307 C628.205,79.783 627.375,81.786 627.375,83.875 L627.375,125.875 C627.375,127.964 628.205,129.967 629.682,131.443 C631.158,132.92 633.161,133.75 635.25,133.75 L694.75,133.75 C696.839,133.75 698.842,132.92 700.318,131.443 C701.795,129.967 702.625,127.964 702.625,125.875 L702.625,104.875 Z" />
            <path d="M662.375,131.125 L662.375,143.375 C662.375,144.825 663.55,146 665,146 C666.45,146 667.625,144.825 667.625,143.375 L667.625,131.125 C667.625,129.675 666.45,128.5 665,128.5 C663.55,128.5 662.375,129.675 662.375,131.125 Z" />
            <path d="M677.271,90.649 L649.271,115.149 C648.18,116.104 648.07,117.763 649.024,118.854 C649.979,119.945 651.638,120.055 652.729,119.101 L680.729,94.601 C681.82,93.646 681.93,91.987 680.976,90.896 C680.021,89.805 678.362,89.695 677.271,90.649 Z" />
            <path d="M640.5,146 L689.5,146 C690.95,146 692.125,144.825 692.125,143.375 C692.125,141.925 690.95,140.75 689.5,140.75 L640.5,140.75 C639.05,140.75 637.875,141.925 637.875,143.375 C637.875,144.825 639.05,146 640.5,146 Z" />
            <path d="M646.625,97.875 C646.625,96.425 647.8,95.25 649.25,95.25 C650.7,95.25 651.875,96.425 651.875,97.875 C651.875,99.325 650.7,100.5 649.25,100.5 C647.8,100.5 646.625,99.325 646.625,97.875 Z M641.375,97.875 C641.375,102.224 644.901,105.75 649.25,105.75 C653.599,105.75 657.125,102.224 657.125,97.875 C657.125,93.526 653.599,90 649.25,90 C644.901,90 641.375,93.526 641.375,97.875 Z" />
            <path d="M678.125,111.875 C678.125,110.425 679.3,109.25 680.75,109.25 C682.2,109.25 683.375,110.425 683.375,111.875 C683.375,113.325 682.2,114.5 680.75,114.5 C679.3,114.5 678.125,113.325 678.125,111.875 Z M672.875,111.875 C672.875,116.224 676.401,119.75 680.75,119.75 C685.099,119.75 688.625,116.224 688.625,111.875 C688.625,107.526 685.099,104 680.75,104 C676.401,104 672.875,107.526 672.875,111.875 Z" />
        </g>
    </g>
</svg>