<?xml version="1.0" encoding="UTF-8"?>
<svg height="600" width="800" xmlns="http://www.w3.org/2000/svg" xmlns:xlink="http://www.w3.org/1999/xlink">
    <g id="Notes" font-family="'LucidaGrande', 'Lucida Grande', sans-serif" font-size="13">
        <rect fill="white" height="600.0" width="800.0" x="0.0" y="0.0" />
        <g font-size="13">
            <text x="18.0" y="176.0">Small</text>
            <text x="18.0" y="376.0">Medium</text>
            <text x="18.0" y="576.0">Large</text>
        </g>
        <g font-size="9">
            <text x="250.0" y="30.0">Ultralight</text>
            <text x="450.0" y="30.0">Regular</text>
            <text x="650.0" y="30.0">Black</text>
            <text id="template-version" fill="#505050" text-anchor="end" x="785.0" y="575.0">Template v.3.0</text>
            <a href="https://github.com/swhitty/SwiftDraw">
                <text fill="#505050" text-anchor="end" x="785.0" y="590.0">https://github.com/swhitty/SwiftDraw</text>
            </a>
        </g>
    </g>
    <g id="Guides" stroke="rgb(39, 170, 225)" stroke-width="0.5">
        <path id="Capline-S" d="M18,76 l800,0" />
        <path id="H-reference" d="M85,145.755 L87.685,145.755 L113.369,79.287 L114.052,79.287 L114.052,76 L112.148,76 L85,145.755 Z M95.693,121.536 L130.996,121.536 L130.263,119.313 L96.474,119.313 L95.693,121.536 Z M139.15,145.755 L141.787,145.755 L114.638,76 L113.466,76 L113.466,79.287 L139.15,145.755 Z" stroke="none" />
        <path id="Baseline-S" d="M18,146 l800,0" />
        <path id="left-margin-Ultralight-S" d="M214.325,56 l0,110" />
        <path id="right-margin-Ultralight-S" d="M315.675,56 l0,110" />
        <path id="left-margin-Regular-S" d="M414.325,56 l0,110" />
        <path id="right-margin-Regular-S" d="M515.675,56 l0,110" />
        <path id="left-margin-Black-S" d="M614.325,56 l0,110" />
        <path id="right-margin-Black-S" d="M715.675,56 l0,110" />
        <path id="Capline-M" d="M18,276 l800,0" />
        <path id="Baseline-M" d="M18,346 l800,0" />
        <path id="Capline-L" d="M18,476 l800,0" />
        <path id="Baseline-L" d="M18,546 l800,0" />
    </g>
    <g id="Symbols">
        <g id="Ultralight-S">
            <path d="M300,124.243 C300,133.124 292.8,140.324 283.919,140.324 C281.1,140.324 278.394,139.6 276,138.243 C271.819,135.872 268.883,131.739 268.069,126.977 C267.916,126.081 267.838,125.167 267.838,124.243 C267.838,120.219 269.318,116.433 271.952,113.501 C274.985,110.124 279.291,108.162 283.919,108.162 C292.8,108.162 300,115.362 300,124.243 Z M305.675,124.243 C305.675,112.227 295.935,102.486 283.919,102.486 C277.663,102.486 271.828,105.145 267.729,109.708 C264.168,113.672 262.162,118.805 262.162,124.243 C262.162,125.488 262.267,126.722 262.474,127.934 C263.578,134.386 267.548,139.974 273.2,143.18 C276.442,145.018 280.112,146 283.919,146 C295.935,146 305.675,136.259 305.675,124.243 Z" />
            <path d="M281.081,88.297 L281.081,103.432 L281.081,105.324 L283.919,105.324 L283.919,102.486 C277.663,102.486 271.828,105.145 267.729,109.708 C264.168,113.672 262.162,118.805 262.162,124.243 C262.162,125.488 262.267,126.722 262.474,127.934 C263.578,134.386 267.548,139.974 273.2,143.18 L273.778,137.995 C268.877,139.477 262.42,140.324 255.541,140.324 C248.2,140.324 241.349,139.358 236.372,137.699 C232.137,136.287 230,134.603 230,133.702 L230,118.567 L230,103.432 L230,88.297 C230,86.73 228.73,85.459 227.162,85.459 C225.595,85.459 224.325,86.73 224.325,88.297 L224.325,103.432 L224.325,118.567 L224.325,133.702 C224.325,141.338 238.308,146 255.541,146 C262.949,146 269.954,145.08 275.421,143.427 C277.809,142.705 278.17,139.474 276,138.243 C271.819,135.872 268.883,131.739 268.069,126.977 C267.916,126.081 267.838,125.167 267.838,124.243 C267.838,120.219 269.318,116.433 271.952,113.501 C274.985,110.124 279.291,108.162 283.919,108.162 C285.486,108.162 286.757,106.891 286.757,105.324 L286.757,103.432 L286.757,88.297 C286.757,86.73 285.486,85.459 283.919,85.459 C282.352,85.459 281.081,86.73 281.081,88.297 Z" />
            <path d="M281.081,88.297 C281.081,89.198 278.944,90.882 274.71,92.294 C269.732,93.953 262.881,94.919 255.541,94.919 C248.2,94.919 241.349,93.953 236.372,92.294 C232.137,90.882 230,89.198 230,88.297 C230,87.396 232.137,85.712 236.372,84.301 C241.349,82.642 248.2,81.676 255.541,81.676 C262.881,81.676 269.732,82.642 274.71,84.301 C278.944,85.712 281.081,87.396 281.081,88.297 Z M286.757,88.297 C286.757,80.661 272.773,76 255.541,76 C238.308,76 224.325,80.661 224.325,88.297 C224.325,95.933 238.308,100.594 255.541,100.594 C272.773,100.594 286.757,95.933 286.757,88.297 Z" />
            <path d="M224.325,118.567 C224.325,126.203 238.308,130.865 255.541,130.865 C259.014,130.865 262.409,130.663 265.614,130.273 C267.17,130.084 268.278,128.669 268.089,127.113 C267.899,125.557 266.485,124.45 264.929,124.639 C261.953,125.001 258.788,125.189 255.541,125.189 C248.2,125.189 241.349,124.223 236.372,122.564 C232.137,121.152 230,119.468 230,118.567 C230,117 228.73,115.729 227.162,115.729 C225.595,115.729 224.325,117 224.325,118.567 Z" />
            <path d="M224.325,103.432 C224.325,111.068 238.308,115.729 255.541,115.729 C260.814,115.729 265.895,115.265 270.383,114.39 C271.921,114.091 272.926,112.601 272.626,111.062 C272.326,109.524 270.836,108.52 269.298,108.819 C265.177,109.622 260.459,110.054 255.541,110.054 C248.2,110.054 241.349,109.088 236.372,107.429 C232.137,106.017 230,104.333 230,103.432 C230,101.865 228.73,100.594 227.162,100.594 C225.595,100.594 224.325,101.865 224.325,103.432 Z" />
            <path d="M286.355,141.707 C286.171,141.397 285.83,140.799 285.387,139.969 C284.643,138.576 283.898,137.064 283.204,135.492 C282.232,133.289 281.444,131.155 280.907,129.176 C280.4,127.309 280.135,125.642 280.135,124.243 C280.135,122.844 280.4,121.177 280.907,119.31 C281.444,117.331 282.232,115.197 283.204,112.994 C283.898,111.422 284.643,109.91 285.387,108.517 C285.83,107.687 286.171,107.089 286.355,106.779 C287.159,105.433 286.719,103.691 285.373,102.888 C284.028,102.084 282.286,102.524 281.482,103.869 C281.253,104.253 280.869,104.929 280.381,105.842 C279.573,107.354 278.767,108.992 278.012,110.702 C276.932,113.148 276.049,115.542 275.43,117.823 C274.801,120.139 274.459,122.285 274.459,124.243 C274.459,126.2 274.801,128.346 275.43,130.663 C276.049,132.944 276.932,135.338 278.012,137.783 C278.767,139.494 279.573,141.132 280.381,142.644 C280.869,143.557 281.253,144.233 281.482,144.616 C282.286,145.962 284.028,146.402 285.373,145.598 C286.719,144.795 287.159,143.053 286.355,141.707 Z" />
            <path d="M286.355,144.616 C286.584,144.233 286.969,143.557 287.456,142.644 C288.264,141.132 289.071,139.494 289.826,137.783 C290.905,135.338 291.789,132.944 292.408,130.663 C293.037,128.346 293.378,126.2 293.378,124.243 C293.378,122.285 293.037,120.139 292.408,117.823 C291.789,115.542 290.905,113.148 289.826,110.702 C289.071,108.992 288.264,107.354 287.456,105.842 C286.969,104.929 286.584,104.253 286.355,103.869 C285.552,102.524 283.81,102.084 282.464,102.888 C281.118,103.691 280.679,105.433 281.482,106.779 C281.667,107.089 282.007,107.687 282.45,108.517 C283.195,109.91 283.94,111.422 284.633,112.994 C285.606,115.197 286.393,117.331 286.931,119.31 C287.437,121.177 287.703,122.844 287.703,124.243 C287.703,125.642 287.437,127.309 286.931,129.176 C286.393,131.155 285.606,133.289 284.633,135.492 C283.94,137.064 283.195,138.576 282.45,139.969 C282.007,140.799 281.667,141.397 281.482,141.707 C280.679,143.053 281.118,144.795 282.464,145.598 C283.81,146.402 285.552,145.962 286.355,144.616 Z" />
            <path d="M302.838,121.405 L265,121.405 C263.433,121.405 262.162,122.676 262.162,124.243 C262.162,125.81 263.433,127.081 265,127.081 L302.838,127.081 C304.405,127.081 305.675,125.81 305.675,124.243 C305.675,122.676 304.405,121.405 302.838,121.405 Z" />
        </g>
        <g id="Regular-S">
            <path d="M500,124.243 C500,133.124 492.8,140.324 483.919,140.324 C481.1,140.324 478.394,139.6 476,138.243 C471.819,135.872 468.883,131.739 468.069,126.977 C467.916,126.081 467.838,125.167 467.838,124.243 C467.838,120.219 469.318,116.433 471.952,113.501 C474.985,110.124 479.291,108.162 483.919,108.162 C492.8,108.162 500,115.362 500,124.243 Z M505.675,124.243 C505.675,112.227 495.935,102.486 483.919,102.486 C477.663,102.486 471.828,105.145 467.729,109.708 C464.168,113.672 462.162,118.805 462.162,124.243 C462.162,125.488 462.267,126.722 462.474,127.934 C463.578,134.386 467.548,139.974 473.2,143.18 C476.442,145.018 480.112,146 483.919,146 C495.935,146 505.675,136.259 505.675,124.243 Z" />
            <path d="M481.081,88.297 L481.081,103.432 L481.081,105.324 L483.919,105.324 L483.919,102.486 C477.663,102.486 471.828,105.145 467.729,109.708 C464.168,113.672 462.162,118.805 462.162,124.243 C462.162,125.488 462.267,126.722 462.474,127.934 C463.578,134.386 467.548,139.974 473.2,143.18 L473.778,137.995 C468.877,139.477 462.42,140.324 455.541,140.324 C448.2,140.324 441.349,139.358 436.372,137.699 C432.137,136.287 430,134.603 430,133.702 L430,118.567 L430,103.432 L430,88.297 C430,86.73 428.73,85.459 427.162,85.459 C425.595,85.459 424.325,86.73 424.325,88.297 L424.325,103.432 L424.325,118.567 L424.325,133.702 C424.325,141.338 438.308,146 455.541,146 C462.949,146 469.954,145.08 475.421,143.427 C477.809,142.705 478.17,139.474 476,138.243 C471.819,135.872 468.883,131.739 468.069,126.977 C467.916,126.081 467.838,125.167 467.838,124.243 C467.838,120.219 469.318,116.433 471.952,113.501 C474.985,110.124 479.291,108.162 483.919,108.162 C485.486,108.162 486.757,106.891 486.757,105.324 L486.757,103.432 L486.757,88.297 C486.757,86.73 485.486,85.459 483.919,85.459 C482.352,85.459 481.081,86.73 481.081,88.297 Z" />
            <path d="M481.081,88.297 C481.081,89.198 478.944,90.882 474.71,92.294 C469.732,93.953 462.881,94.919 455.541,94.919 C448.2,94.919 441.349,93.953 436.372,92.294 C432.137,90.882 430,89.198 430,88.297 C430,87.396 432.137,85.712 436.372,84.301 C441.349,82.642 448.2,81.676 455.541,81.676 C462.881,81.676 469.732,82.642 474.71,84.301 C478.944,85.712 481.081,87.396 481.081,88.297 Z M486.757,88.297 C486.757,80.661 472.773,76 455.541,76 C438.308,76 424.325,80.661 424.325,88.297 C424.325,95.933 438.308,100.594 455.541,100.594 C472.773,100.594 486.757,95.933 486.757,88.297 Z" />
            <path d="M424.325,118.567 C424.325,126.203 438.308,130.865 455.541,130.865 C459.014,130.865 462.409,130.663 465.614,130.273 C467.17,130.084 468.278,128.669 468.089,127.113 C467.899,125.557 466.485,124.45 464.929,124.639 C461.953,125.001 458.788,125.189 455.541,125.189 C448.2,125.189 441.349,124.223 436.372,122.564 C432.137,121.152 430,119.468 430,118.567 C430,117 428.73,115.729 427.162,115.729 C425.595,115.729 424.325,117 424.325,118.567 Z" />
            <path d="M424.325,103.432 C424.325,111.068 438.308,115.729 455.541,115.729 C460.814,115.729 465.895,115.265 470.383,114.39 C471.921,114.091 472.926,112.601 472.626,111.062 C472.326,109.524 470.836,108.52 469.298,108.819 C465.177,109.622 460.459,110.054 455.541,110.054 C448.2,110.054 441.349,109.088 436.372,107.429 C432.137,106.017 430,104.333 430,103.432 C430,101.865 428.73,100.594 427.162,100.594 C425.595,100.594 424.325,101.865 424.325,103.432 Z" />
            <path d="M486.355,141.707 C486.171,141.397 485.83,140.799 485.387,139.969 C484.643,138.576 483.898,137.064 483.204,135.492 C482.232,133.289 481.444,131.155 480.907,129.176 C480.4,127.309 480.135,125.642 480.135,124.243 C480.135,122.844 480.4,121.177 480.907,119.31 C481.444,117.331 482.232,115.197 483.204,112.994 C483.898,111.422 484.643,109.91 485.387,108.517 C485.83,107.687 486.171,107.089 486.355,106.779 C487.159,105.433 486.719,103.691 485.373,102.888 C484.028,102.084 482.286,102.524 481.482,103.869 C481.253,104.253 480.869,104.929 480.381,105.842 C479.573,107.354 478.767,108.992 478.012,110.702 C476.932,113.148 476.049,115.542 475.43,117.823 C474.801,120.139 474.459,122.285 474.459,124.243 C474.459,126.2 474.801,128.346 475.43,130.663 C476.049,132.944 476.932,135.338 478.012,137.783 C478.767,139.494 479.573,141.132 480.381,142.644 C480.869,143.557 481.253,144.233 481.482,144.616 C482.286,145.962 484.028,146.402 485.373,145.598 C486.719,144.795 487.159,143.053 486.355,141.707 Z" />
            <path d="M486.355,144.616 C486.584,144.233 486.969,143.557 487.456,142.644 C488.264,141.132 489.071,139.494 489.826,137.783 C490.905,135.338 491.789,132.944 492.408,130.663 C493.037,128.346 493.378,126.2 493.378,124.243 C493.378,122.285 493.037,120.139 492.408,117.823 C491.789,115.542 490.905,113.148 489.826,110.702 C489.071,108.992 488.264,107.354 487.456,105.842 C486.969,104.929 486.584,104.253 486.355,103.869 C485.552,102.524 483.81,102.084 482.464,102.888 C481.118,103.691 480.679,105.433 481.482,106.779 C481.667,107.089 482.007,107.687 482.45,108.517 C483.195,109.91 483.94,111.422 484.633,112.994 C485.606,115.197 486.393,117.331 486.931,119.31 C487.437,121.177 487.703,122.844 487.703,124.243 C487.703,125.642 487.437,127.309 486.931,129.176 C486.393,131.155 485.606,133.289 484.633,135.492 C483.94,137.064 483.195,138.576 482.45,139.969 C482.007,140.799 481.667,141.397 481.482,141.707 C480.679,143.053 481.118,144.795 482.464,145.598 C483.81,146.402 485.552,145.962 486.355,144.616 Z" />
            <path d="M502.838,121.405 L465,121.405 C463.433,121.405 462.162,122.676 462.162,124.243 C462.162,125.81 463.433,127.081 465,127.081 L502.838,127.081 C504.405,127.081 505.675,125.81 505.675,124.243 C505.675,122.676 504.405,121.405 502.838,121.405 Z" />
        </g>
        <g id="Black-S">
            <path d="M700,124.243 C700,133.124 692.8,140.324 683.919,140.324 C681.1,140.324 678.394,139.6 676,138.243 C671.819,135.872 668.883,131.739 668.069,126.977 C667.916,126.081 667.838,125.167 667.838,124.243 C667.838,120.219 669.318,116.433 671.951,113.501 C674.985,110.124 679.291,108.162 683.919,108.162 C692.8,108.162 700,115.362 700,124.243 Z M705.675,124.243 C705.675,112.227 695.935,102.486 683.919,102.486 C677.663,102.486 671.828,105.145 667.729,109.708 C664.168,113.672 662.162,118.805 662.162,124.243 C662.162,125.488 662.267,126.722 662.474,127.934 C663.578,134.386 667.548,139.974 673.2,143.18 C676.442,145.018 680.112,146 683.919,146 C695.935,146 705.675,136.259 705.675,124.243 Z" />
            <path d="M681.081,88.297 L681.081,103.432 L681.081,105.324 L683.919,105.324 L683.919,102.486 C677.663,102.486 671.828,105.145 667.729,109.708 C664.168,113.672 662.162,118.805 662.162,124.243 C662.162,125.488 662.267,126.722 662.474,127.934 C663.578,134.386 667.548,139.974 673.2,143.18 L673.778,137.995 C668.877,139.477 662.42,140.324 655.541,140.324 C648.2,140.324 641.349,139.358 636.372,137.699 C632.137,136.287 630,134.603 630,133.702 L630,118.567 L630,103.432 L630,88.297 C630,86.73 628.73,85.459 627.162,85.459 C625.595,85.459 624.325,86.73 624.325,88.297 L624.325,103.432 L624.325,118.567 L624.325,133.702 C624.325,141.338 638.308,146 655.541,146 C662.949,146 669.954,145.08 675.421,143.427 C677.809,142.705 678.17,139.474 675.999,138.243 C671.819,135.872 668.883,131.739 668.069,126.977 C667.916,126.081 667.838,125.167 667.838,124.243 C667.838,120.219 669.318,116.433 671.951,113.501 C674.985,110.124 679.291,108.162 683.919,108.162 C685.486,108.162 686.757,106.891 686.757,105.324 L686.757,103.432 L686.757,88.297 C686.757,86.73 685.486,85.459 683.919,85.459 C682.352,85.459 681.081,86.73 681.081,88.297 Z" />
            <path d="M681.081,88.297 C681.081,89.198 678.944,90.882 674.71,92.294 C669.732,93.953 662.881,94.919 655.541,94.919 C648.2,94.919 641.349,93.953 636.372,92.294 C632.137,90.882 630,89.198 630,88.297 C630,87.396 632.137,85.712 636.372,84.301 C641.349,82.642 648.2,81.676 655.541,81.676 C662.881,81.676 669.732,82.642 674.71,84.301 C678.944,85.712 681.081,87.396 681.081,88.297 Z M686.757,88.297 C686.757,80.661 672.773,76 655.541,76 C638.308,76 624.325,80.661 624.325,88.297 C624.325,95.933 638.308,100.594 655.541,100.594 C672.773,100.594 686.757,95.933 686.757,88.297 Z" />
            <path d="M624.325,118.567 C624.325,126.203 638.308,130.865 655.541,130.865 C659.014,130.865 662.409,130.663 665.614,130.273 C667.17,130.084 668.278,128.669 668.089,127.113 C667.899,125.557 666.485,124.45 664.929,124.639 C661.953,125.001 658.787,125.189 655.541,125.189 C648.2,125.189 641.349,124.223 636.372,122.564 C632.137,121.152 630,119.468 630,118.567 C630,117 628.73,115.729 627.162,115.729 C625.595,115.729 624.325,117 624.325,118.567 Z" />
            <path d="M624.325,103.432 C624.325,111.068 638.308,115.729 655.541,115.729 C660.814,115.729 665.895,115.265 670.383,114.39 C671.921,114.091 672.925,112.601 672.626,111.062 C672.326,109.524 670.836,108.52 669.298,108.819 C665.177,109.622 660.459,110.054 655.541,110.054 C648.2,110.054 641.349,109.088 636.372,107.429 C632.137,106.017 630,104.333 630,103.432 C630,101.865 628.73,100.594 627.162,100.594 C625.595,100.594 624.325,101.865 624.325,103.432 Z" />
            <path d="M686.355,141.707 C686.171,141.397 685.83,140.799 685.387,139.969 C684.643,138.576 683.898,137.064 683.204,135.492 C682.232,133.289 681.444,131.155 680.907,129.176 C680.4,127.309 680.135,125.642 680.135,124.243 C680.135,122.844 680.4,121.177 680.907,119.31 C681.444,117.331 682.232,115.197 683.204,112.994 C683.898,111.422 684.643,109.91 685.387,108.517 C685.83,107.687 686.171,107.089 686.355,106.779 C687.159,105.433 686.719,103.691 685.373,102.888 C684.028,102.084 682.286,102.524 681.482,103.869 C681.253,104.253 680.869,104.929 680.381,105.842 C679.573,107.354 678.767,108.992 678.012,110.702 C676.932,113.148 676.049,115.542 675.43,117.823 C674.801,120.139 674.459,122.285 674.459,124.243 C674.459,126.2 674.801,128.346 675.43,130.663 C676.049,132.944 676.932,135.338 678.012,137.783 C678.767,139.494 679.573,141.132 680.381,142.644 C680.869,143.557 681.253,144.233 681.482,144.616 C682.286,145.962 684.028,146.402 685.373,145.598 C686.719,144.795 687.159,143.053 686.355,141.707 Z" />
            <path d="M686.355,144.616 C686.584,144.233 686.969,143.557 687.456,142.644 C688.264,141.132 689.071,139.494 689.826,137.783 C690.905,135.338 691.789,132.944 692.408,130.663 C693.037,128.346 693.378,126.2 693.378,124.243 C693.378,122.285 693.037,120.139 692.408,117.823 C691.789,115.542 690.905,113.148 689.826,110.702 C689.071,108.992 688.264,107.354 687.456,105.842 C686.969,104.929 686.584,104.253 686.355,103.869 C685.552,102.524 683.81,102.084 682.464,102.888 C681.118,103.691 680.679,105.433 681.482,106.779 C681.667,107.089 682.007,107.687 682.45,108.517 C683.195,109.91 683.94,111.422 684.633,112.994 C685.606,115.197 686.393,117.331 686.931,119.31 C687.437,121.177 687.703,122.844 687.703,124.243 C687.703,125.642 687.437,127.309 686.931,129.176 C686.393,131.155 685.606,133.289 684.633,135.492 C683.94,137.064 683.195,138.576 682.45,139.969 C682.007,140.799 681.667,141.397 681.482,141.707 C680.679,143.053 681.118,144.795 682.464,145.598 C683.81,146.402 685.552,145.962 686.355,144.616 Z" />
            <path d="M702.838,121.405 L665,121.405 C663.433,121.405 662.162,122.676 662.162,124.243 C662.162,125.81 663.433,127.081 665,127.081 L702.838,127.081 C704.405,127.081 705.675,125.81 705.675,124.243 C705.675,122.676 704.405,121.405 702.838,121.405 Z" />
        </g>
    </g>
</svg>