<?xml version="1.0" encoding="UTF-8"?>
<svg height="600" width="800" xmlns="http://www.w3.org/2000/svg" xmlns:xlink="http://www.w3.org/1999/xlink">
    <g id="Notes" font-family="'LucidaGrande', 'Lucida Grande', sans-serif" font-size="13">
        <rect fill="white" height="600.0" width="800.0" x="0.0" y="0.0" />
        <g font-size="13">
            <text x="18.0" y="176.0">Small</text>
            <text x="18.0" y="376.0">Medium</text>
            <text x="18.0" y="576.0">Large</text>
        </g>
        <g font-size="9">
            <text x="250.0" y="30.0">Ultralight</text>
            <text x="450.0" y="30.0">Regular</text>
            <text x="650.0" y="30.0">Black</text>
            <text id="template-version" fill="#505050" text-anchor="end" x="785.0" y="575.0">Template v.3.0</text>
            <a href="https://github.com/swhitty/SwiftDraw">
                <text fill="#505050" text-anchor="end" x="785.0" y="590.0">https://github.com/swhitty/SwiftDraw</text>
            </a>
        </g>
    </g>
    <g id="Guides" stroke="rgb(39, 170, 225)" stroke-width="0.5">
        <path id="Capline-S" d="M18,76 l800,0" />
        <path id="H-reference" d="M85,145.755 L87.685,145.755 L113.369,79.287 L114.052,79.287 L114.052,76 L112.148,76 L85,145.755 Z M95.693,121.536 L130.996,121.536 L130.263,119.313 L96.474,119.313 L95.693,121.536 Z M139.15,145.755 L141.787,145.755 L114.638,76 L113.466,76 L113.466,79.287 L139.15,145.755 Z" stroke="none" />
        <path id="Baseline-S" d="M18,146 l800,0" />
        <path id="left-margin-Ultralight-S" d="M220,56 l0,110" />
        <path id="right-margin-Ultralight-S" d="M310,56 l0,110" />
        <path id="left-margin-Regular-S" d="M420,56 l0,110" />
        <path id="right-margin-Regular-S" d="M510,56 l0,110" />
        <path id="left-margin-Black-S" d="M620,56 l0,110" />
        <path id="right-margin-Black-S" d="M710,56 l0,110" />
        <path id="Capline-M" d="M18,276 l800,0" />
        <path id="Baseline-M" d="M18,346 l800,0" />
        <path id="Capline-L" d="M18,476 l800,0" />
        <path id="Baseline-L" d="M18,546 l800,0" />
    </g>
    <g id="Symbols">
        <g id="Ultralight-S">
            <path d="M238.14,88.209 L238.14,143.558 C238.14,144.907 239.233,146 240.581,146 L289.419,146 C290.767,146 291.86,144.907 291.86,143.558 L291.86,88.209 C291.86,86.861 290.767,85.767 289.419,85.767 L240.581,85.767 C239.233,85.767 238.14,86.861 238.14,88.209 Z M243.023,88.209 L240.581,90.651 L289.419,90.651 L286.977,88.209 L286.977,143.558 L289.419,141.116 L240.581,141.116 L243.023,143.558 L243.023,88.209 Z" />
            <path d="M256.047,104.488 L256.047,125.651 C256.047,127 257.14,128.093 258.488,128.093 C259.837,128.093 260.93,127 260.93,125.651 L260.93,104.488 C260.93,103.14 259.837,102.047 258.488,102.047 C257.14,102.047 256.047,103.14 256.047,104.488 Z" />
            <path d="M269.07,104.488 L269.07,125.651 C269.07,127 270.163,128.093 271.512,128.093 C272.86,128.093 273.953,127 273.953,125.651 L273.953,104.488 C273.953,103.14 272.86,102.047 271.512,102.047 C270.163,102.047 269.07,103.14 269.07,104.488 Z" />
            <path d="M232.442,90.651 L297.558,90.651 C298.907,90.651 300,89.558 300,88.209 C300,86.861 298.907,85.767 297.558,85.767 L232.442,85.767 C231.093,85.767 230,86.861 230,88.209 C230,89.558 231.093,90.651 232.442,90.651 Z" />
            <path d="M254.118,89.383 L259.472,79.616 L257.331,80.884 L272.777,80.884 L270.626,79.597 L275.872,89.365 L278.023,85.767 L251.977,85.767 L254.118,89.383 Z M249.835,87.036 C248.943,88.663 250.121,90.651 251.977,90.651 L278.023,90.651 C279.87,90.651 281.048,88.681 280.174,87.054 L274.928,77.286 C274.502,76.494 273.676,76 272.777,76 L257.331,76 C256.439,76 255.618,76.486 255.19,77.268 L249.835,87.036 Z" />
        </g>
        <g id="Regular-S">
            <path d="M438.14,88.209 L438.14,143.558 C438.14,144.907 439.233,146 440.581,146 L489.419,146 C490.767,146 491.86,144.907 491.86,143.558 L491.86,88.209 C491.86,86.861 490.767,85.767 489.419,85.767 L440.581,85.767 C439.233,85.767 438.14,86.861 438.14,88.209 Z M443.023,88.209 L440.581,90.651 L489.419,90.651 L486.977,88.209 L486.977,143.558 L489.419,141.116 L440.581,141.116 L443.023,143.558 L443.023,88.209 Z" />
            <path d="M456.047,104.488 L456.047,125.651 C456.047,127 457.14,128.093 458.488,128.093 C459.837,128.093 460.93,127 460.93,125.651 L460.93,104.488 C460.93,103.14 459.837,102.047 458.488,102.047 C457.14,102.047 456.047,103.14 456.047,104.488 Z" />
            <path d="M469.07,104.488 L469.07,125.651 C469.07,127 470.163,128.093 471.512,128.093 C472.86,128.093 473.953,127 473.953,125.651 L473.953,104.488 C473.953,103.14 472.86,102.047 471.512,102.047 C470.163,102.047 469.07,103.14 469.07,104.488 Z" />
            <path d="M432.442,90.651 L497.558,90.651 C498.907,90.651 500,89.558 500,88.209 C500,86.861 498.907,85.767 497.558,85.767 L432.442,85.767 C431.093,85.767 430,86.861 430,88.209 C430,89.558 431.093,90.651 432.442,90.651 Z" />
            <path d="M454.118,89.383 L459.472,79.616 L457.331,80.884 L472.777,80.884 L470.626,79.597 L475.872,89.365 L478.023,85.767 L451.977,85.767 L454.118,89.383 Z M449.836,87.036 C448.943,88.663 450.121,90.651 451.977,90.651 L478.023,90.651 C479.87,90.651 481.048,88.681 480.174,87.054 L474.928,77.286 C474.502,76.494 473.676,76 472.777,76 L457.331,76 C456.439,76 455.618,76.486 455.19,77.268 L449.836,87.036 Z" />
        </g>
        <g id="Black-S">
            <path d="M638.14,88.209 L638.14,143.558 C638.14,144.907 639.233,146 640.581,146 L689.419,146 C690.767,146 691.86,144.907 691.86,143.558 L691.86,88.209 C691.86,86.861 690.767,85.767 689.419,85.767 L640.581,85.767 C639.233,85.767 638.14,86.861 638.14,88.209 Z M643.023,88.209 L640.581,90.651 L689.419,90.651 L686.977,88.209 L686.977,143.558 L689.419,141.116 L640.581,141.116 L643.023,143.558 L643.023,88.209 Z" />
            <path d="M656.047,104.488 L656.047,125.651 C656.047,127 657.14,128.093 658.488,128.093 C659.837,128.093 660.93,127 660.93,125.651 L660.93,104.488 C660.93,103.14 659.837,102.047 658.488,102.047 C657.14,102.047 656.047,103.14 656.047,104.488 Z" />
            <path d="M669.07,104.488 L669.07,125.651 C669.07,127 670.163,128.093 671.512,128.093 C672.86,128.093 673.953,127 673.953,125.651 L673.953,104.488 C673.953,103.14 672.86,102.047 671.512,102.047 C670.163,102.047 669.07,103.14 669.07,104.488 Z" />
            <path d="M632.442,90.651 L697.558,90.651 C698.907,90.651 700,89.558 700,88.209 C700,86.861 698.907,85.767 697.558,85.767 L632.442,85.767 C631.093,85.767 630,86.861 630,88.209 C630,89.558 631.093,90.651 632.442,90.651 Z" />
            <path d="M654.118,89.383 L659.472,79.616 L657.331,80.884 L672.777,80.884 L670.625,79.597 L675.872,89.365 L678.023,85.767 L651.977,85.767 L654.118,89.383 Z M649.836,87.036 C648.943,88.663 650.121,90.651 651.977,90.651 L678.023,90.651 C679.87,90.651 681.048,88.681 680.174,87.054 L674.928,77.286 C674.502,76.494 673.676,76 672.777,76 L657.331,76 C656.439,76 655.618,76.486 655.19,77.268 L649.836,87.036 Z" />
        </g>
    </g>
</svg>