<?xml version="1.0" encoding="UTF-8"?>
<svg height="600" width="800" xmlns="http://www.w3.org/2000/svg" xmlns:xlink="http://www.w3.org/1999/xlink">
    <g id="Notes" font-family="'LucidaGrande', 'Lucida Grande', sans-serif" font-size="13">
        <rect fill="white" height="600.0" width="800.0" x="0.0" y="0.0" />
        <g font-size="13">
            <text x="18.0" y="176.0">Small</text>
            <text x="18.0" y="376.0">Medium</text>
            <text x="18.0" y="576.0">Large</text>
        </g>
        <g font-size="9">
            <text x="250.0" y="30.0">Ultralight</text>
            <text x="450.0" y="30.0">Regular</text>
            <text x="650.0" y="30.0">Black</text>
            <text id="template-version" fill="#505050" text-anchor="end" x="785.0" y="575.0">Template v.3.0</text>
            <a href="https://github.com/swhitty/SwiftDraw">
                <text fill="#505050" text-anchor="end" x="785.0" y="590.0">https://github.com/swhitty/SwiftDraw</text>
            </a>
        </g>
    </g>
    <g id="Guides" stroke="rgb(39, 170, 225)" stroke-width="0.5">
        <path id="Capline-S" d="M18,76 l800,0" />
        <path id="H-reference" d="M85,145.755 L87.685,145.755 L113.369,79.287 L114.052,79.287 L114.052,76 L112.148,76 L85,145.755 Z M95.693,121.536 L130.996,121.536 L130.263,119.313 L96.474,119.313 L95.693,121.536 Z M139.15,145.755 L141.787,145.755 L114.638,76 L113.466,76 L113.466,79.287 L139.15,145.755 Z" stroke="none" />
        <path id="Baseline-S" d="M18,146 l800,0" />
        <path id="left-margin-Ultralight-S" d="M221,56 l0,110" />
        <path id="right-margin-Ultralight-S" d="M309,56 l0,110" />
        <path id="left-margin-Regular-S" d="M421,56 l0,110" />
        <path id="right-margin-Regular-S" d="M509,56 l0,110" />
        <path id="left-margin-Black-S" d="M621,56 l0,110" />
        <path id="right-margin-Black-S" d="M709,56 l0,110" />
        <path id="Capline-M" d="M18,276 l800,0" />
        <path id="Baseline-M" d="M18,346 l800,0" />
        <path id="Capline-L" d="M18,476 l800,0" />
        <path id="Baseline-L" d="M18,546 l800,0" />
    </g>
    <g id="Symbols">
        <g id="Ultralight-S">
            <path d="M254.674,126.885 L266.069,121.335 L263.931,121.335 L275.326,126.885 L273.954,124.689 L273.954,136.899 L275.163,134.79 L263.768,141.45 L266.232,141.45 L254.837,134.79 L256.047,136.899 L256.047,124.689 L254.674,126.885 Z M252.536,122.494 C251.696,122.903 251.163,123.755 251.163,124.689 L251.163,136.899 C251.163,137.766 251.623,138.569 252.373,139.007 L263.768,145.666 C264.529,146.111 265.471,146.111 266.232,145.666 L277.627,139.007 C278.377,138.569 278.837,137.766 278.837,136.899 L278.837,124.689 C278.837,123.755 278.304,122.903 277.465,122.494 L266.069,116.944 C265.394,116.616 264.606,116.616 263.931,116.944 L252.536,122.494 Z" />
            <path d="M236.515,78.575 C236.943,86.423 239.764,96.846 243.981,105 C249.327,115.338 256.457,121.581 265,121.581 C273.561,121.581 280.884,115.416 286.282,105.303 C290.737,96.958 293.488,86.408 293.488,78.442 C293.488,77.093 292.395,76 291.047,76 C289.698,76 288.605,77.093 288.605,78.442 C288.605,95.621 277.354,116.698 265,116.698 C252.996,116.698 242.364,96.136 241.392,78.309 C241.318,76.962 240.167,75.93 238.821,76.004 C237.474,76.077 236.442,77.228 236.515,78.575 Z" />
        </g>
        <g id="Regular-S">
            <path d="M454.674,126.885 L466.069,121.335 L463.931,121.335 L475.326,126.885 L473.954,124.689 L473.954,136.899 L475.163,134.79 L463.768,141.45 L466.232,141.45 L454.837,134.79 L456.047,136.899 L456.047,124.689 L454.674,126.885 Z M452.536,122.494 C451.696,122.903 451.163,123.755 451.163,124.689 L451.163,136.899 C451.163,137.766 451.623,138.569 452.373,139.007 L463.768,145.666 C464.529,146.111 465.471,146.111 466.232,145.666 L477.627,139.007 C478.377,138.569 478.837,137.766 478.837,136.899 L478.837,124.689 C478.837,123.755 478.304,122.903 477.465,122.494 L466.069,116.944 C465.394,116.616 464.606,116.616 463.931,116.944 L452.536,122.494 Z" />
            <path d="M436.515,78.575 C436.943,86.423 439.764,96.846 443.981,105 C449.327,115.338 456.457,121.581 465,121.581 C473.561,121.581 480.884,115.416 486.282,105.303 C490.737,96.958 493.488,86.408 493.488,78.442 C493.488,77.093 492.395,76 491.047,76 C489.698,76 488.605,77.093 488.605,78.442 C488.605,95.621 477.354,116.698 465,116.698 C452.996,116.698 442.364,96.136 441.392,78.309 C441.318,76.962 440.167,75.93 438.821,76.004 C437.474,76.077 436.442,77.228 436.515,78.575 Z" />
        </g>
        <g id="Black-S">
            <path d="M654.674,126.885 L666.069,121.335 L663.931,121.335 L675.326,126.885 L673.953,124.689 L673.953,136.899 L675.163,134.79 L663.768,141.45 L666.232,141.45 L654.837,134.79 L656.047,136.899 L656.047,124.689 L654.674,126.885 Z M652.536,122.494 C651.696,122.903 651.163,123.755 651.163,124.689 L651.163,136.899 C651.163,137.766 651.623,138.569 652.373,139.007 L663.768,145.666 C664.529,146.111 665.471,146.111 666.232,145.666 L677.627,139.007 C678.377,138.569 678.837,137.766 678.837,136.899 L678.837,124.689 C678.837,123.755 678.304,122.903 677.465,122.494 L666.069,116.944 C665.394,116.616 664.606,116.616 663.931,116.944 L652.536,122.494 Z" />
            <path d="M636.515,78.575 C636.943,86.423 639.764,96.846 643.981,105 C649.327,115.338 656.457,121.581 665,121.581 C673.561,121.581 680.884,115.416 686.282,105.303 C690.737,96.958 693.488,86.408 693.488,78.442 C693.488,77.093 692.395,76 691.047,76 C689.698,76 688.605,77.093 688.605,78.442 C688.605,95.621 677.354,116.698 665,116.698 C652.996,116.698 642.364,96.136 641.392,78.309 C641.318,76.962 640.167,75.93 638.821,76.004 C637.474,76.077 636.442,77.228 636.515,78.575 Z" />
        </g>
    </g>
</svg>