<?xml version="1.0" encoding="UTF-8"?>
<svg height="600" width="800" xmlns="http://www.w3.org/2000/svg" xmlns:xlink="http://www.w3.org/1999/xlink">
    <g id="Notes" font-family="'LucidaGrande', 'Lucida Grande', sans-serif" font-size="13">
        <rect fill="white" height="600.0" width="800.0" x="0.0" y="0.0" />
        <g font-size="13">
            <text x="18.0" y="176.0">Small</text>
            <text x="18.0" y="376.0">Medium</text>
            <text x="18.0" y="576.0">Large</text>
        </g>
        <g font-size="9">
            <text x="250.0" y="30.0">Ultralight</text>
            <text x="450.0" y="30.0">Regular</text>
            <text x="650.0" y="30.0">Black</text>
            <text id="template-version" fill="#505050" text-anchor="end" x="785.0" y="575.0">Template v.3.0</text>
            <a href="https://github.com/swhitty/SwiftDraw">
                <text fill="#505050" text-anchor="end" x="785.0" y="590.0">https://github.com/swhitty/SwiftDraw</text>
            </a>
        </g>
    </g>
    <g id="Guides" stroke="rgb(39, 170, 225)" stroke-width="0.5">
        <path id="Capline-S" d="M18,76 l800,0" />
        <path id="H-reference" d="M85,145.755 L87.685,145.755 L113.369,79.287 L114.052,79.287 L114.052,76 L112.148,76 L85,145.755 Z M95.693,121.536 L130.996,121.536 L130.263,119.313 L96.474,119.313 L95.693,121.536 Z M139.15,145.755 L141.787,145.755 L114.638,76 L113.466,76 L113.466,79.287 L139.15,145.755 Z" stroke="none" />
        <path id="Baseline-S" d="M18,146 l800,0" />
        <path id="left-margin-Ultralight-S" d="M221,56 l0,110" />
        <path id="right-margin-Ultralight-S" d="M309,56 l0,110" />
        <path id="left-margin-Regular-S" d="M421,56 l0,110" />
        <path id="right-margin-Regular-S" d="M509,56 l0,110" />
        <path id="left-margin-Black-S" d="M621,56 l0,110" />
        <path id="right-margin-Black-S" d="M709,56 l0,110" />
        <path id="Capline-M" d="M18,276 l800,0" />
        <path id="Baseline-M" d="M18,346 l800,0" />
        <path id="Capline-L" d="M18,476 l800,0" />
        <path id="Baseline-L" d="M18,546 l800,0" />
    </g>
    <g id="Symbols">
        <g id="Ultralight-S">
            <path d="M278.837,111 L278.837,124.023 C278.837,124.671 278.58,125.292 278.122,125.75 C277.664,126.208 277.043,126.465 276.395,126.465 L250.349,126.465 C249.701,126.465 249.08,126.208 248.622,125.75 C248.164,125.292 247.907,124.671 247.907,124.023 L247.907,97.977 C247.907,97.329 248.164,96.708 248.622,96.25 C249.08,95.792 249.701,95.535 250.349,95.535 L276.395,95.535 C277.043,95.535 277.664,95.792 278.122,96.25 C278.58,96.708 278.837,97.329 278.837,97.977 L278.837,111 Z M283.721,111 L283.721,97.977 C283.721,96.034 282.949,94.171 281.575,92.797 C280.202,91.423 278.338,90.651 276.395,90.651 L250.349,90.651 C248.406,90.651 246.543,91.423 245.169,92.797 C243.795,94.171 243.023,96.034 243.023,97.977 L243.023,124.023 C243.023,125.966 243.795,127.829 245.169,129.203 C246.543,130.577 248.406,131.349 250.349,131.349 L276.395,131.349 C278.338,131.349 280.202,130.577 281.575,129.203 C282.949,127.829 283.721,125.966 283.721,124.023 L283.721,111 Z" />
            <path d="M269.07,128.907 L269.07,140.302 C269.07,140.752 268.705,141.116 268.256,141.116 L258.488,141.116 C258.039,141.116 257.674,140.752 257.674,140.302 L257.674,128.907 C257.674,127.558 256.581,126.465 255.233,126.465 C253.884,126.465 252.791,127.558 252.791,128.907 L252.791,140.302 C252.791,143.449 255.342,146 258.488,146 L268.256,146 C271.403,146 273.953,143.449 273.953,140.302 L273.953,128.907 C273.953,127.558 272.86,126.465 271.512,126.465 C270.163,126.465 269.07,127.558 269.07,128.907 Z" />
            <path d="M257.674,93.093 L257.674,81.698 C257.674,81.248 258.039,80.884 258.488,80.884 L268.256,80.884 C268.705,80.884 269.07,81.248 269.07,81.698 L269.07,93.093 C269.07,94.442 270.163,95.535 271.512,95.535 C272.86,95.535 273.953,94.442 273.953,93.093 L273.953,81.698 C273.953,78.551 271.403,76 268.256,76 L258.488,76 C255.342,76 252.791,78.551 252.791,81.698 L252.791,93.093 C252.791,94.442 253.884,95.535 255.233,95.535 C256.581,95.535 257.674,94.442 257.674,93.093 Z" />
            <path d="M281.279,108.558 L284.535,108.558 C285.883,108.558 286.977,107.465 286.977,106.116 C286.977,104.768 285.883,103.674 284.535,103.674 L281.279,103.674 C279.93,103.674 278.837,104.768 278.837,106.116 C278.837,107.465 279.93,108.558 281.279,108.558 Z" />
            <path d="M255.233,113.442 L258.488,113.442 C259.837,113.442 260.93,112.349 260.93,111 C260.93,109.651 259.837,108.558 258.488,108.558 L255.233,108.558 C253.884,108.558 252.791,109.651 252.791,111 C252.791,112.349 253.884,113.442 255.233,113.442 Z" />
            <path d="M268.256,113.442 L271.512,113.442 C272.86,113.442 273.953,112.349 273.953,111 C273.953,109.651 272.86,108.558 271.512,108.558 L268.256,108.558 C266.907,108.558 265.814,109.651 265.814,111 C265.814,112.349 266.907,113.442 268.256,113.442 Z" />
        </g>
        <g id="Regular-S">
            <path d="M478.837,111 L478.837,124.023 C478.837,124.671 478.58,125.292 478.122,125.75 C477.664,126.208 477.043,126.465 476.395,126.465 L450.349,126.465 C449.701,126.465 449.08,126.208 448.622,125.75 C448.164,125.292 447.907,124.671 447.907,124.023 L447.907,97.977 C447.907,97.329 448.164,96.708 448.622,96.25 C449.08,95.792 449.701,95.535 450.349,95.535 L476.395,95.535 C477.043,95.535 477.664,95.792 478.122,96.25 C478.58,96.708 478.837,97.329 478.837,97.977 L478.837,111 Z M483.721,111 L483.721,97.977 C483.721,96.034 482.949,94.171 481.575,92.797 C480.202,91.423 478.338,90.651 476.395,90.651 L450.349,90.651 C448.406,90.651 446.543,91.423 445.169,92.797 C443.795,94.171 443.023,96.034 443.023,97.977 L443.023,124.023 C443.023,125.966 443.795,127.829 445.169,129.203 C446.543,130.577 448.406,131.349 450.349,131.349 L476.395,131.349 C478.338,131.349 480.202,130.577 481.575,129.203 C482.949,127.829 483.721,125.966 483.721,124.023 L483.721,111 Z" />
            <path d="M469.07,128.907 L469.07,140.302 C469.07,140.752 468.705,141.116 468.256,141.116 L458.488,141.116 C458.039,141.116 457.674,140.752 457.674,140.302 L457.674,128.907 C457.674,127.558 456.581,126.465 455.233,126.465 C453.884,126.465 452.791,127.558 452.791,128.907 L452.791,140.302 C452.791,143.449 455.342,146 458.488,146 L468.256,146 C471.403,146 473.953,143.449 473.953,140.302 L473.953,128.907 C473.953,127.558 472.86,126.465 471.512,126.465 C470.163,126.465 469.07,127.558 469.07,128.907 Z" />
            <path d="M457.674,93.093 L457.674,81.698 C457.674,81.248 458.039,80.884 458.488,80.884 L468.256,80.884 C468.705,80.884 469.07,81.248 469.07,81.698 L469.07,93.093 C469.07,94.442 470.163,95.535 471.512,95.535 C472.86,95.535 473.953,94.442 473.953,93.093 L473.953,81.698 C473.953,78.551 471.403,76 468.256,76 L458.488,76 C455.342,76 452.791,78.551 452.791,81.698 L452.791,93.093 C452.791,94.442 453.884,95.535 455.233,95.535 C456.581,95.535 457.674,94.442 457.674,93.093 Z" />
            <path d="M481.279,108.558 L484.535,108.558 C485.883,108.558 486.977,107.465 486.977,106.116 C486.977,104.768 485.883,103.674 484.535,103.674 L481.279,103.674 C479.93,103.674 478.837,104.768 478.837,106.116 C478.837,107.465 479.93,108.558 481.279,108.558 Z" />
            <path d="M455.233,113.442 L458.488,113.442 C459.837,113.442 460.93,112.349 460.93,111 C460.93,109.651 459.837,108.558 458.488,108.558 L455.233,108.558 C453.884,108.558 452.791,109.651 452.791,111 C452.791,112.349 453.884,113.442 455.233,113.442 Z" />
            <path d="M468.256,113.442 L471.512,113.442 C472.86,113.442 473.953,112.349 473.953,111 C473.953,109.651 472.86,108.558 471.512,108.558 L468.256,108.558 C466.907,108.558 465.814,109.651 465.814,111 C465.814,112.349 466.907,113.442 468.256,113.442 Z" />
        </g>
        <g id="Black-S">
            <path d="M678.837,111 L678.837,124.023 C678.837,124.671 678.58,125.292 678.122,125.75 C677.664,126.208 677.043,126.465 676.395,126.465 L650.349,126.465 C649.701,126.465 649.08,126.208 648.622,125.75 C648.164,125.292 647.907,124.671 647.907,124.023 L647.907,97.977 C647.907,97.329 648.164,96.708 648.622,96.25 C649.08,95.792 649.701,95.535 650.349,95.535 L676.395,95.535 C677.043,95.535 677.664,95.792 678.122,96.25 C678.58,96.708 678.837,97.329 678.837,97.977 L678.837,111 Z M683.721,111 L683.721,97.977 C683.721,96.034 682.949,94.171 681.575,92.797 C680.201,91.423 678.338,90.651 676.395,90.651 L650.349,90.651 C648.406,90.651 646.543,91.423 645.169,92.797 C643.795,94.171 643.023,96.034 643.023,97.977 L643.023,124.023 C643.023,125.966 643.795,127.829 645.169,129.203 C646.543,130.577 648.406,131.349 650.349,131.349 L676.395,131.349 C678.338,131.349 680.201,130.577 681.575,129.203 C682.949,127.829 683.721,125.966 683.721,124.023 L683.721,111 Z" />
            <path d="M669.07,128.907 L669.07,140.302 C669.07,140.752 668.705,141.116 668.256,141.116 L658.488,141.116 C658.039,141.116 657.674,140.752 657.674,140.302 L657.674,128.907 C657.674,127.558 656.581,126.465 655.233,126.465 C653.884,126.465 652.791,127.558 652.791,128.907 L652.791,140.302 C652.791,143.449 655.342,146 658.488,146 L668.256,146 C671.403,146 673.953,143.449 673.953,140.302 L673.953,128.907 C673.953,127.558 672.86,126.465 671.512,126.465 C670.163,126.465 669.07,127.558 669.07,128.907 Z" />
            <path d="M657.674,93.093 L657.674,81.698 C657.674,81.248 658.039,80.884 658.488,80.884 L668.256,80.884 C668.705,80.884 669.07,81.248 669.07,81.698 L669.07,93.093 C669.07,94.442 670.163,95.535 671.512,95.535 C672.86,95.535 673.953,94.442 673.953,93.093 L673.953,81.698 C673.953,78.551 671.403,76 668.256,76 L658.488,76 C655.342,76 652.791,78.551 652.791,81.698 L652.791,93.093 C652.791,94.442 653.884,95.535 655.233,95.535 C656.581,95.535 657.674,94.442 657.674,93.093 Z" />
            <path d="M681.279,108.558 L684.535,108.558 C685.883,108.558 686.977,107.465 686.977,106.116 C686.977,104.768 685.883,103.674 684.535,103.674 L681.279,103.674 C679.93,103.674 678.837,104.768 678.837,106.116 C678.837,107.465 679.93,108.558 681.279,108.558 Z" />
            <path d="M655.233,113.442 L658.488,113.442 C659.837,113.442 660.93,112.349 660.93,111 C660.93,109.651 659.837,108.558 658.488,108.558 L655.233,108.558 C653.884,108.558 652.791,109.651 652.791,111 C652.791,112.349 653.884,113.442 655.233,113.442 Z" />
            <path d="M668.256,113.442 L671.512,113.442 C672.86,113.442 673.953,112.349 673.953,111 C673.953,109.651 672.86,108.558 671.512,108.558 L668.256,108.558 C666.907,108.558 665.814,109.651 665.814,111 C665.814,112.349 666.907,113.442 668.256,113.442 Z" />
        </g>
    </g>
</svg>