<?xml version="1.0" encoding="UTF-8"?>
<svg height="600" width="800" xmlns="http://www.w3.org/2000/svg" xmlns:xlink="http://www.w3.org/1999/xlink">
    <g id="Notes" font-family="'LucidaGrande', 'Lucida Grande', sans-serif" font-size="13">
        <rect fill="white" height="600.0" width="800.0" x="0.0" y="0.0" />
        <g font-size="13">
            <text x="18.0" y="176.0">Small</text>
            <text x="18.0" y="376.0">Medium</text>
            <text x="18.0" y="576.0">Large</text>
        </g>
        <g font-size="9">
            <text x="250.0" y="30.0">Ultralight</text>
            <text x="450.0" y="30.0">Regular</text>
            <text x="650.0" y="30.0">Black</text>
            <text id="template-version" fill="#505050" text-anchor="end" x="785.0" y="575.0">Template v.3.0</text>
            <a href="https://github.com/swhitty/SwiftDraw">
                <text fill="#505050" text-anchor="end" x="785.0" y="590.0">https://github.com/swhitty/SwiftDraw</text>
            </a>
        </g>
    </g>
    <g id="Guides" stroke="rgb(39, 170, 225)" stroke-width="0.5">
        <path id="Capline-S" d="M18,76 l800,0" />
        <path id="H-reference" d="M85,145.755 L87.685,145.755 L113.369,79.287 L114.052,79.287 L114.052,76 L112.148,76 L85,145.755 Z M95.693,121.536 L130.996,121.536 L130.263,119.313 L96.474,119.313 L95.693,121.536 Z M139.15,145.755 L141.787,145.755 L114.638,76 L113.466,76 L113.466,79.287 L139.15,145.755 Z" stroke="none" />
        <path id="Baseline-S" d="M18,146 l800,0" />
        <path id="left-margin-Ultralight-S" d="M221,56 l0,110" />
        <path id="right-margin-Ultralight-S" d="M309,56 l0,110" />
        <path id="left-margin-Regular-S" d="M421,56 l0,110" />
        <path id="right-margin-Regular-S" d="M509,56 l0,110" />
        <path id="left-margin-Black-S" d="M621,56 l0,110" />
        <path id="right-margin-Black-S" d="M709,56 l0,110" />
        <path id="Capline-M" d="M18,276 l800,0" />
        <path id="Baseline-M" d="M18,346 l800,0" />
        <path id="Capline-L" d="M18,476 l800,0" />
        <path id="Baseline-L" d="M18,546 l800,0" />
    </g>
    <g id="Symbols">
        <g id="Ultralight-S">
            <path d="M293.488,115.884 L293.488,81.698 C293.488,78.551 290.937,76 287.791,76 L242.209,76 C239.063,76 236.512,78.551 236.512,81.698 L236.512,140.302 C236.512,143.449 239.063,146 242.209,146 L260.116,146 C261.465,146 262.558,144.907 262.558,143.558 C262.558,142.21 261.465,141.116 260.116,141.116 L242.209,141.116 C241.76,141.116 241.395,140.752 241.395,140.302 L241.395,81.698 C241.395,81.248 241.76,80.884 242.209,80.884 L287.791,80.884 C288.24,80.884 288.605,81.248 288.605,81.698 L288.605,115.884 C288.605,117.232 289.698,118.326 291.047,118.326 C292.395,118.326 293.488,117.232 293.488,115.884 Z" />
            <path d="M253.605,93.907 L276.395,93.907 C277.744,93.907 278.837,92.814 278.837,91.465 C278.837,90.117 277.744,89.023 276.395,89.023 L253.605,89.023 C252.256,89.023 251.163,90.117 251.163,91.465 C251.163,92.814 252.256,93.907 253.605,93.907 Z" />
            <path d="M253.605,106.93 L276.395,106.93 C277.744,106.93 278.837,105.837 278.837,104.488 C278.837,103.14 277.744,102.047 276.395,102.047 L253.605,102.047 C252.256,102.047 251.163,103.14 251.163,104.488 C251.163,105.837 252.256,106.93 253.605,106.93 Z" />
            <path d="M253.605,119.953 L263.372,119.953 C264.721,119.953 265.814,118.86 265.814,117.512 C265.814,116.163 264.721,115.07 263.372,115.07 L253.605,115.07 C252.256,115.07 251.163,116.163 251.163,117.512 C251.163,118.86 252.256,119.953 253.605,119.953 Z" />
            <path d="M291.145,141.831 L285.505,136.192 C284.552,135.238 283.006,135.238 282.052,136.192 C281.098,137.145 281.098,138.691 282.052,139.645 L287.692,145.285 C288.646,146.238 290.192,146.238 291.145,145.285 C292.099,144.331 292.099,142.785 291.145,141.831 Z M285.505,139.645 C287.475,137.675 288.605,135.005 288.605,132.163 C288.605,126.319 283.867,121.581 278.023,121.581 C272.179,121.581 267.442,126.319 267.442,132.163 C267.442,138.007 272.179,142.744 278.023,142.744 C280.866,142.744 283.536,141.615 285.505,139.645 Z M282.052,136.192 C280.989,137.255 279.557,137.86 278.023,137.86 C274.877,137.86 272.326,135.309 272.326,132.163 C272.326,129.016 274.877,126.465 278.023,126.465 C281.17,126.465 283.721,129.016 283.721,132.163 C283.721,133.697 283.115,135.128 282.052,136.191 Z" />
        </g>
        <g id="Regular-S">
            <path d="M493.488,115.884 L493.488,81.698 C493.488,78.551 490.937,76 487.791,76 L442.209,76 C439.063,76 436.512,78.551 436.512,81.698 L436.512,140.302 C436.512,143.449 439.063,146 442.209,146 L460.116,146 C461.465,146 462.558,144.907 462.558,143.558 C462.558,142.21 461.465,141.116 460.116,141.116 L442.209,141.116 C441.76,141.116 441.395,140.752 441.395,140.302 L441.395,81.698 C441.395,81.248 441.76,80.884 442.209,80.884 L487.791,80.884 C488.24,80.884 488.605,81.248 488.605,81.698 L488.605,115.884 C488.605,117.232 489.698,118.326 491.047,118.326 C492.395,118.326 493.488,117.232 493.488,115.884 Z" />
            <path d="M453.605,93.907 L476.395,93.907 C477.744,93.907 478.837,92.814 478.837,91.465 C478.837,90.117 477.744,89.023 476.395,89.023 L453.605,89.023 C452.256,89.023 451.163,90.117 451.163,91.465 C451.163,92.814 452.256,93.907 453.605,93.907 Z" />
            <path d="M453.605,106.93 L476.395,106.93 C477.744,106.93 478.837,105.837 478.837,104.488 C478.837,103.14 477.744,102.047 476.395,102.047 L453.605,102.047 C452.256,102.047 451.163,103.14 451.163,104.488 C451.163,105.837 452.256,106.93 453.605,106.93 Z" />
            <path d="M453.605,119.953 L463.372,119.953 C464.721,119.953 465.814,118.86 465.814,117.512 C465.814,116.163 464.721,115.07 463.372,115.07 L453.605,115.07 C452.256,115.07 451.163,116.163 451.163,117.512 C451.163,118.86 452.256,119.953 453.605,119.953 Z" />
            <path d="M491.145,141.831 L485.505,136.192 C484.552,135.238 483.006,135.238 482.052,136.192 C481.098,137.145 481.098,138.691 482.052,139.645 L487.692,145.285 C488.646,146.238 490.192,146.238 491.145,145.285 C492.099,144.331 492.099,142.785 491.145,141.831 Z M485.505,139.645 C487.475,137.675 488.605,135.005 488.605,132.163 C488.605,126.319 483.867,121.581 478.023,121.581 C472.179,121.581 467.442,126.319 467.442,132.163 C467.442,138.007 472.179,142.744 478.023,142.744 C480.866,142.744 483.536,141.615 485.505,139.645 Z M482.052,136.192 C480.989,137.255 479.557,137.86 478.023,137.86 C474.877,137.86 472.326,135.309 472.326,132.163 C472.326,129.016 474.877,126.465 478.023,126.465 C481.17,126.465 483.721,129.016 483.721,132.163 C483.721,133.697 483.115,135.128 482.052,136.191 Z" />
        </g>
        <g id="Black-S">
            <path d="M693.488,115.884 L693.488,81.698 C693.488,78.551 690.938,76 687.791,76 L642.209,76 C639.063,76 636.512,78.551 636.512,81.698 L636.512,140.302 C636.512,143.449 639.063,146 642.209,146 L660.116,146 C661.465,146 662.558,144.907 662.558,143.558 C662.558,142.21 661.465,141.116 660.116,141.116 L642.209,141.116 C641.76,141.116 641.395,140.752 641.395,140.302 L641.395,81.698 C641.395,81.248 641.76,80.884 642.209,80.884 L687.791,80.884 C688.24,80.884 688.605,81.248 688.605,81.698 L688.605,115.884 C688.605,117.232 689.698,118.326 691.047,118.326 C692.395,118.326 693.488,117.232 693.488,115.884 Z" />
            <path d="M653.605,93.907 L676.395,93.907 C677.744,93.907 678.837,92.814 678.837,91.465 C678.837,90.117 677.744,89.023 676.395,89.023 L653.605,89.023 C652.256,89.023 651.163,90.117 651.163,91.465 C651.163,92.814 652.256,93.907 653.605,93.907 Z" />
            <path d="M653.605,106.93 L676.395,106.93 C677.744,106.93 678.837,105.837 678.837,104.488 C678.837,103.14 677.744,102.047 676.395,102.047 L653.605,102.047 C652.256,102.047 651.163,103.14 651.163,104.488 C651.163,105.837 652.256,106.93 653.605,106.93 Z" />
            <path d="M653.605,119.953 L663.372,119.953 C664.721,119.953 665.814,118.86 665.814,117.512 C665.814,116.163 664.721,115.07 663.372,115.07 L653.605,115.07 C652.256,115.07 651.163,116.163 651.163,117.512 C651.163,118.86 652.256,119.953 653.605,119.953 Z" />
            <path d="M691.145,141.831 L685.505,136.192 C684.552,135.238 683.006,135.238 682.052,136.192 C681.098,137.145 681.098,138.691 682.052,139.645 L687.692,145.285 C688.646,146.238 690.192,146.238 691.145,145.285 C692.099,144.331 692.099,142.785 691.145,141.831 Z M685.505,139.645 C687.475,137.675 688.605,135.005 688.605,132.163 C688.605,126.319 683.867,121.581 678.023,121.581 C672.179,121.581 667.442,126.319 667.442,132.163 C667.442,138.007 672.179,142.744 678.023,142.744 C680.866,142.744 683.536,141.615 685.505,139.645 Z M682.052,136.192 C680.989,137.255 679.557,137.86 678.023,137.86 C674.877,137.86 672.326,135.309 672.326,132.163 C672.326,129.016 674.877,126.465 678.023,126.465 C681.17,126.465 683.721,129.016 683.721,132.163 C683.721,133.697 683.115,135.128 682.052,136.191 Z" />
        </g>
    </g>
</svg>