<?xml version="1.0" encoding="UTF-8"?>
<svg height="600" width="800" xmlns="http://www.w3.org/2000/svg" xmlns:xlink="http://www.w3.org/1999/xlink">
    <g id="Notes" font-family="'LucidaGrande', 'Lucida Grande', sans-serif" font-size="13">
        <rect fill="white" height="600.0" width="800.0" x="0.0" y="0.0" />
        <g font-size="13">
            <text x="18.0" y="176.0">Small</text>
            <text x="18.0" y="376.0">Medium</text>
            <text x="18.0" y="576.0">Large</text>
        </g>
        <g font-size="9">
            <text x="250.0" y="30.0">Ultralight</text>
            <text x="450.0" y="30.0">Regular</text>
            <text x="650.0" y="30.0">Black</text>
            <text id="template-version" fill="#505050" text-anchor="end" x="785.0" y="575.0">Template v.3.0</text>
            <a href="https://github.com/swhitty/SwiftDraw">
                <text fill="#505050" text-anchor="end" x="785.0" y="590.0">https://github.com/swhitty/SwiftDraw</text>
            </a>
        </g>
    </g>
    <g id="Guides" stroke="rgb(39, 170, 225)" stroke-width="0.5">
        <path id="Capline-S" d="M18,76 l800,0" />
        <path id="H-reference" d="M85,145.755 L87.685,145.755 L113.369,79.287 L114.052,79.287 L114.052,76 L112.148,76 L85,145.755 Z M95.693,121.536 L130.996,121.536 L130.263,119.313 L96.474,119.313 L95.693,121.536 Z M139.15,145.755 L141.787,145.755 L114.638,76 L113.466,76 L113.466,79.287 L139.15,145.755 Z" stroke="none" />
        <path id="Baseline-S" d="M18,146 l800,0" />
        <path id="left-margin-Ultralight-S" d="M220,56 l0,110" />
        <path id="right-margin-Ultralight-S" d="M310,56 l0,110" />
        <path id="left-margin-Regular-S" d="M420,56 l0,110" />
        <path id="right-margin-Regular-S" d="M510,56 l0,110" />
        <path id="left-margin-Black-S" d="M620,56 l0,110" />
        <path id="right-margin-Black-S" d="M710,56 l0,110" />
        <path id="Capline-M" d="M18,276 l800,0" />
        <path id="Baseline-M" d="M18,346 l800,0" />
        <path id="Capline-L" d="M18,476 l800,0" />
        <path id="Baseline-L" d="M18,546 l800,0" />
    </g>
    <g id="Symbols">
        <g id="Ultralight-S">
            <path d="M236.639,113.75 L267.75,82.639 L262.25,82.639 L293.361,113.75 C294.88,115.269 297.342,115.269 298.861,113.75 C300.38,112.231 300.38,109.769 298.861,108.25 L267.75,77.139 C266.231,75.62 263.769,75.62 262.25,77.139 L231.139,108.25 C229.62,109.769 229.62,112.231 231.139,113.75 C232.658,115.269 235.12,115.269 236.639,113.75 Z" />
            <path d="M236.639,144.861 L267.75,113.75 L262.25,113.75 L293.361,144.861 C294.88,146.38 297.342,146.38 298.861,144.861 C300.38,143.342 300.38,140.88 298.861,139.361 L267.75,108.25 C266.231,106.731 263.769,106.731 262.25,108.25 L231.139,139.361 C229.62,140.88 229.62,143.342 231.139,144.861 C232.658,146.38 235.12,146.38 236.639,144.861 Z" />
        </g>
        <g id="Regular-S">
            <path d="M436.639,113.75 L467.75,82.639 L462.25,82.639 L493.361,113.75 C494.88,115.269 497.342,115.269 498.861,113.75 C500.38,112.231 500.38,109.769 498.861,108.25 L467.75,77.139 C466.231,75.62 463.769,75.62 462.25,77.139 L431.139,108.25 C429.62,109.769 429.62,112.231 431.139,113.75 C432.658,115.269 435.12,115.269 436.639,113.75 Z" />
            <path d="M436.639,144.861 L467.75,113.75 L462.25,113.75 L493.361,144.861 C494.88,146.38 497.342,146.38 498.861,144.861 C500.38,143.342 500.38,140.88 498.861,139.361 L467.75,108.25 C466.231,106.731 463.769,106.731 462.25,108.25 L431.139,139.361 C429.62,140.88 429.62,143.342 431.139,144.861 C432.658,146.38 435.12,146.38 436.639,144.861 Z" />
        </g>
        <g id="Black-S">
            <path d="M636.639,113.75 L667.75,82.639 L662.25,82.639 L693.361,113.75 C694.88,115.269 697.342,115.269 698.861,113.75 C700.38,112.231 700.38,109.769 698.861,108.25 L667.75,77.139 C666.231,75.62 663.769,75.62 662.25,77.139 L631.139,108.25 C629.62,109.769 629.62,112.231 631.139,113.75 C632.658,115.269 635.12,115.269 636.639,113.75 Z" />
            <path d="M636.639,144.861 L667.75,113.75 L662.25,113.75 L693.361,144.861 C694.88,146.38 697.342,146.38 698.861,144.861 C700.38,143.342 700.38,140.88 698.861,139.361 L667.75,108.25 C666.231,106.731 663.769,106.731 662.25,108.25 L631.139,139.361 C629.62,140.88 629.62,143.342 631.139,144.861 C632.658,146.38 635.12,146.38 636.639,144.861 Z" />
        </g>
    </g>
</svg>