<?xml version="1.0" encoding="UTF-8"?>
<svg height="600" width="800" xmlns="http://www.w3.org/2000/svg" xmlns:xlink="http://www.w3.org/1999/xlink">
    <g id="Notes" font-family="'LucidaGrande', 'Lucida Grande', sans-serif" font-size="13">
        <rect fill="white" height="600.0" width="800.0" x="0.0" y="0.0" />
        <g font-size="13">
            <text x="18.0" y="176.0">Small</text>
            <text x="18.0" y="376.0">Medium</text>
            <text x="18.0" y="576.0">Large</text>
        </g>
        <g font-size="9">
            <text x="250.0" y="30.0">Ultralight</text>
            <text x="450.0" y="30.0">Regular</text>
            <text x="650.0" y="30.0">Black</text>
            <text id="template-version" fill="#505050" text-anchor="end" x="785.0" y="575.0">Template v.3.0</text>
            <a href="https://github.com/swhitty/SwiftDraw">
                <text fill="#505050" text-anchor="end" x="785.0" y="590.0">https://github.com/swhitty/SwiftDraw</text>
            </a>
        </g>
    </g>
    <g id="Guides" stroke="rgb(39, 170, 225)" stroke-width="0.5">
        <path id="Capline-S" d="M18,76 l800,0" />
        <path id="H-reference" d="M85,145.755 L87.685,145.755 L113.369,79.287 L114.052,79.287 L114.052,76 L112.148,76 L85,145.755 Z M95.693,121.536 L130.996,121.536 L130.263,119.313 L96.474,119.313 L95.693,121.536 Z M139.15,145.755 L141.787,145.755 L114.638,76 L113.466,76 L113.466,79.287 L139.15,145.755 Z" stroke="none" />
        <path id="Baseline-S" d="M18,146 l800,0" />
        <path id="left-margin-Ultralight-S" d="M221,56 l0,110" />
        <path id="right-margin-Ultralight-S" d="M309,56 l0,110" />
        <path id="left-margin-Regular-S" d="M421,56 l0,110" />
        <path id="right-margin-Regular-S" d="M509,56 l0,110" />
        <path id="left-margin-Black-S" d="M621,56 l0,110" />
        <path id="right-margin-Black-S" d="M709,56 l0,110" />
        <path id="Capline-M" d="M18,276 l800,0" />
        <path id="Baseline-M" d="M18,346 l800,0" />
        <path id="Capline-L" d="M18,476 l800,0" />
        <path id="Baseline-L" d="M18,546 l800,0" />
    </g>
    <g id="Symbols">
        <g id="Ultralight-S">
            <path d="M273.953,111 L273.953,140.302 C273.953,140.518 273.868,140.725 273.715,140.878 C273.562,141.031 273.355,141.116 273.14,141.116 L237.326,141.116 C237.11,141.116 236.903,141.031 236.75,140.878 C236.597,140.725 236.512,140.518 236.512,140.302 L236.512,81.698 C236.512,81.482 236.597,81.275 236.75,81.122 C236.903,80.969 237.11,80.884 237.326,80.884 L273.14,80.884 C273.355,80.884 273.562,80.969 273.715,81.122 C273.868,81.275 273.953,81.482 273.953,81.698 L273.953,111 Z M278.837,111 L278.837,81.698 C278.837,80.187 278.237,78.737 277.168,77.669 C276.1,76.6 274.651,76 273.14,76 L237.326,76 C235.814,76 234.365,76.6 233.297,77.669 C232.228,78.737 231.628,80.187 231.628,81.698 L231.628,140.302 C231.628,141.813 232.228,143.263 233.297,144.331 C234.365,145.4 235.814,146 237.326,146 L273.14,146 C274.651,146 276.1,145.4 277.168,144.331 C278.237,143.263 278.837,141.813 278.837,140.302 L278.837,111 Z" />
            <path d="M293.488,127.279 C293.488,128.358 293.06,129.394 292.296,130.157 C291.533,130.92 290.498,131.349 289.419,131.349 L263.372,131.349 C262.293,131.349 261.258,130.92 260.494,130.157 C259.731,129.394 259.302,128.358 259.302,127.279 C259.302,126.2 259.731,125.165 260.494,124.401 C261.258,123.638 262.293,123.209 263.372,123.209 L289.419,123.209 C290.498,123.209 291.533,123.638 292.296,124.401 C293.06,125.165 293.488,126.2 293.488,127.279 Z M298.372,127.279 C298.372,124.904 297.429,122.627 295.75,120.948 C294.071,119.269 291.793,118.326 289.419,118.326 L263.372,118.326 C260.997,118.326 258.72,119.269 257.041,120.948 C255.362,122.627 254.419,124.904 254.419,127.279 C254.419,129.654 255.362,131.931 257.041,133.61 C258.72,135.289 260.997,136.233 263.372,136.233 L289.419,136.233 C291.793,136.233 294.071,135.289 295.75,133.61 C297.429,131.931 298.372,129.654 298.372,127.279 Z" />
            <path d="M240.581,91.465 C240.581,89.667 242.039,88.209 243.837,88.209 C245.635,88.209 247.093,89.667 247.093,91.465 C247.093,93.263 245.635,94.721 243.837,94.721 C242.039,94.721 240.581,93.263 240.581,91.465 Z" />
            <path d="M240.581,101.233 C240.581,99.434 242.039,97.977 243.837,97.977 C245.635,97.977 247.093,99.434 247.093,101.233 C247.093,103.031 245.635,104.488 243.837,104.488 C242.039,104.488 240.581,103.031 240.581,101.233 Z" />
            <path d="M240.581,111 C240.581,109.202 242.039,107.744 243.837,107.744 C245.635,107.744 247.093,109.202 247.093,111 C247.093,112.798 245.635,114.256 243.837,114.256 C242.039,114.256 240.581,112.798 240.581,111 Z" />
            <path d="M251.977,91.465 C251.977,89.667 253.434,88.209 255.233,88.209 C257.031,88.209 258.488,89.667 258.488,91.465 C258.488,93.263 257.031,94.721 255.233,94.721 C253.434,94.721 251.977,93.263 251.977,91.465 Z" />
            <path d="M251.977,101.233 C251.977,99.434 253.434,97.977 255.233,97.977 C257.031,97.977 258.488,99.434 258.488,101.233 C258.488,103.031 257.031,104.488 255.233,104.488 C253.434,104.488 251.977,103.031 251.977,101.233 Z" />
            <path d="M251.977,111 C251.977,109.202 253.434,107.744 255.233,107.744 C257.031,107.744 258.488,109.202 258.488,111 C258.488,112.798 257.031,114.256 255.233,114.256 C253.434,114.256 251.977,112.798 251.977,111 Z" />
            <path d="M263.372,91.465 C263.372,89.667 264.83,88.209 266.628,88.209 C268.426,88.209 269.884,89.667 269.884,91.465 C269.884,93.263 268.426,94.721 266.628,94.721 C264.83,94.721 263.372,93.263 263.372,91.465 Z" />
            <path d="M263.372,101.233 C263.372,99.434 264.83,97.977 266.628,97.977 C268.426,97.977 269.884,99.434 269.884,101.233 C269.884,103.031 268.426,104.488 266.628,104.488 C264.83,104.488 263.372,103.031 263.372,101.233 Z" />
            <path d="M263.372,111 C263.372,109.202 264.83,107.744 266.628,107.744 C268.426,107.744 269.884,109.202 269.884,111 C269.884,112.798 268.426,114.256 266.628,114.256 C264.83,114.256 263.372,112.798 263.372,111 Z" />
        </g>
        <g id="Regular-S">
            <path d="M473.953,111 L473.953,140.302 C473.953,140.518 473.868,140.725 473.715,140.878 C473.562,141.031 473.355,141.116 473.14,141.116 L437.326,141.116 C437.11,141.116 436.903,141.031 436.75,140.878 C436.597,140.725 436.512,140.518 436.512,140.302 L436.512,81.698 C436.512,81.482 436.597,81.275 436.75,81.122 C436.903,80.969 437.11,80.884 437.326,80.884 L473.14,80.884 C473.355,80.884 473.562,80.969 473.715,81.122 C473.868,81.275 473.953,81.482 473.953,81.698 L473.953,111 Z M478.837,111 L478.837,81.698 C478.837,80.187 478.237,78.737 477.168,77.669 C476.1,76.6 474.651,76 473.14,76 L437.326,76 C435.814,76 434.365,76.6 433.297,77.669 C432.228,78.737 431.628,80.187 431.628,81.698 L431.628,140.302 C431.628,141.813 432.228,143.263 433.297,144.331 C434.365,145.4 435.814,146 437.326,146 L473.14,146 C474.651,146 476.1,145.4 477.168,144.331 C478.237,143.263 478.837,141.813 478.837,140.302 L478.837,111 Z" />
            <path d="M493.488,127.279 C493.488,128.358 493.06,129.394 492.296,130.157 C491.533,130.92 490.498,131.349 489.419,131.349 L463.372,131.349 C462.293,131.349 461.258,130.92 460.494,130.157 C459.731,129.394 459.302,128.358 459.302,127.279 C459.302,126.2 459.731,125.165 460.494,124.401 C461.258,123.638 462.293,123.209 463.372,123.209 L489.419,123.209 C490.498,123.209 491.533,123.638 492.296,124.401 C493.06,125.165 493.488,126.2 493.488,127.279 Z M498.372,127.279 C498.372,124.904 497.429,122.627 495.75,120.948 C494.071,119.269 491.793,118.326 489.419,118.326 L463.372,118.326 C460.997,118.326 458.72,119.269 457.041,120.948 C455.362,122.627 454.419,124.904 454.419,127.279 C454.419,129.654 455.362,131.931 457.041,133.61 C458.72,135.289 460.997,136.233 463.372,136.233 L489.419,136.233 C491.793,136.233 494.071,135.289 495.75,133.61 C497.429,131.931 498.372,129.654 498.372,127.279 Z" />
            <path d="M440.581,91.465 C440.581,89.667 442.039,88.209 443.837,88.209 C445.635,88.209 447.093,89.667 447.093,91.465 C447.093,93.263 445.635,94.721 443.837,94.721 C442.039,94.721 440.581,93.263 440.581,91.465 Z" />
            <path d="M440.581,101.233 C440.581,99.434 442.039,97.977 443.837,97.977 C445.635,97.977 447.093,99.434 447.093,101.233 C447.093,103.031 445.635,104.488 443.837,104.488 C442.039,104.488 440.581,103.031 440.581,101.233 Z" />
            <path d="M440.581,111 C440.581,109.202 442.039,107.744 443.837,107.744 C445.635,107.744 447.093,109.202 447.093,111 C447.093,112.798 445.635,114.256 443.837,114.256 C442.039,114.256 440.581,112.798 440.581,111 Z" />
            <path d="M451.977,91.465 C451.977,89.667 453.434,88.209 455.233,88.209 C457.031,88.209 458.488,89.667 458.488,91.465 C458.488,93.263 457.031,94.721 455.233,94.721 C453.434,94.721 451.977,93.263 451.977,91.465 Z" />
            <path d="M451.977,101.233 C451.977,99.434 453.434,97.977 455.233,97.977 C457.031,97.977 458.488,99.434 458.488,101.233 C458.488,103.031 457.031,104.488 455.233,104.488 C453.434,104.488 451.977,103.031 451.977,101.233 Z" />
            <path d="M451.977,111 C451.977,109.202 453.434,107.744 455.233,107.744 C457.031,107.744 458.488,109.202 458.488,111 C458.488,112.798 457.031,114.256 455.233,114.256 C453.434,114.256 451.977,112.798 451.977,111 Z" />
            <path d="M463.372,91.465 C463.372,89.667 464.83,88.209 466.628,88.209 C468.426,88.209 469.884,89.667 469.884,91.465 C469.884,93.263 468.426,94.721 466.628,94.721 C464.83,94.721 463.372,93.263 463.372,91.465 Z" />
            <path d="M463.372,101.233 C463.372,99.434 464.83,97.977 466.628,97.977 C468.426,97.977 469.884,99.434 469.884,101.233 C469.884,103.031 468.426,104.488 466.628,104.488 C464.83,104.488 463.372,103.031 463.372,101.233 Z" />
            <path d="M463.372,111 C463.372,109.202 464.83,107.744 466.628,107.744 C468.426,107.744 469.884,109.202 469.884,111 C469.884,112.798 468.426,114.256 466.628,114.256 C464.83,114.256 463.372,112.798 463.372,111 Z" />
        </g>
        <g id="Black-S">
            <path d="M673.953,111 L673.953,140.302 C673.953,140.518 673.868,140.725 673.715,140.878 C673.562,141.031 673.355,141.116 673.14,141.116 L637.326,141.116 C637.11,141.116 636.903,141.031 636.75,140.878 C636.597,140.725 636.512,140.518 636.512,140.302 L636.512,81.698 C636.512,81.482 636.597,81.275 636.75,81.122 C636.903,80.969 637.11,80.884 637.326,80.884 L673.14,80.884 C673.355,80.884 673.562,80.969 673.715,81.122 C673.868,81.275 673.953,81.482 673.953,81.698 L673.953,111 Z M678.837,111 L678.837,81.698 C678.837,80.187 678.237,78.737 677.168,77.669 C676.1,76.6 674.651,76 673.14,76 L637.326,76 C635.814,76 634.365,76.6 633.297,77.669 C632.228,78.737 631.628,80.187 631.628,81.698 L631.628,140.302 C631.628,141.813 632.228,143.263 633.297,144.331 C634.365,145.4 635.814,146 637.326,146 L673.14,146 C674.651,146 676.1,145.4 677.168,144.331 C678.237,143.263 678.837,141.813 678.837,140.302 L678.837,111 Z" />
            <path d="M693.488,127.279 C693.488,128.358 693.06,129.394 692.296,130.157 C691.533,130.92 690.498,131.349 689.419,131.349 L663.372,131.349 C662.293,131.349 661.258,130.92 660.494,130.157 C659.731,129.394 659.302,128.358 659.302,127.279 C659.302,126.2 659.731,125.165 660.494,124.401 C661.258,123.638 662.293,123.209 663.372,123.209 L689.419,123.209 C690.498,123.209 691.533,123.638 692.296,124.401 C693.06,125.165 693.488,126.2 693.488,127.279 Z M698.372,127.279 C698.372,124.904 697.429,122.627 695.75,120.948 C694.071,119.269 691.793,118.326 689.419,118.326 L663.372,118.326 C660.997,118.326 658.72,119.269 657.041,120.948 C655.362,122.627 654.419,124.904 654.419,127.279 C654.419,129.654 655.362,131.931 657.041,133.61 C658.72,135.289 660.997,136.233 663.372,136.233 L689.419,136.233 C691.793,136.233 694.071,135.289 695.75,133.61 C697.429,131.931 698.372,129.654 698.372,127.279 Z" />
            <path d="M640.581,91.465 C640.581,89.667 642.039,88.209 643.837,88.209 C645.635,88.209 647.093,89.667 647.093,91.465 C647.093,93.263 645.635,94.721 643.837,94.721 C642.039,94.721 640.581,93.263 640.581,91.465 Z" />
            <path d="M640.581,101.233 C640.581,99.434 642.039,97.977 643.837,97.977 C645.635,97.977 647.093,99.434 647.093,101.233 C647.093,103.031 645.635,104.488 643.837,104.488 C642.039,104.488 640.581,103.031 640.581,101.233 Z" />
            <path d="M640.581,111 C640.581,109.202 642.039,107.744 643.837,107.744 C645.635,107.744 647.093,109.202 647.093,111 C647.093,112.798 645.635,114.256 643.837,114.256 C642.039,114.256 640.581,112.798 640.581,111 Z" />
            <path d="M651.977,91.465 C651.977,89.667 653.434,88.209 655.233,88.209 C657.031,88.209 658.488,89.667 658.488,91.465 C658.488,93.263 657.031,94.721 655.233,94.721 C653.434,94.721 651.977,93.263 651.977,91.465 Z" />
            <path d="M651.977,101.233 C651.977,99.434 653.434,97.977 655.233,97.977 C657.031,97.977 658.488,99.434 658.488,101.233 C658.488,103.031 657.031,104.488 655.233,104.488 C653.434,104.488 651.977,103.031 651.977,101.233 Z" />
            <path d="M651.977,111 C651.977,109.202 653.434,107.744 655.233,107.744 C657.031,107.744 658.488,109.202 658.488,111 C658.488,112.798 657.031,114.256 655.233,114.256 C653.434,114.256 651.977,112.798 651.977,111 Z" />
            <path d="M663.372,91.465 C663.372,89.667 664.83,88.209 666.628,88.209 C668.426,88.209 669.884,89.667 669.884,91.465 C669.884,93.263 668.426,94.721 666.628,94.721 C664.83,94.721 663.372,93.263 663.372,91.465 Z" />
            <path d="M663.372,101.233 C663.372,99.434 664.83,97.977 666.628,97.977 C668.426,97.977 669.884,99.434 669.884,101.233 C669.884,103.031 668.426,104.488 666.628,104.488 C664.83,104.488 663.372,103.031 663.372,101.233 Z" />
            <path d="M663.372,111 C663.372,109.202 664.83,107.744 666.628,107.744 C668.426,107.744 669.884,109.202 669.884,111 C669.884,112.798 668.426,114.256 666.628,114.256 C664.83,114.256 663.372,112.798 663.372,111 Z" />
        </g>
    </g>
</svg>