<?xml version="1.0" encoding="UTF-8"?>
<svg height="600" width="800" xmlns="http://www.w3.org/2000/svg" xmlns:xlink="http://www.w3.org/1999/xlink">
    <g id="Notes" font-family="'LucidaGrande', 'Lucida Grande', sans-serif" font-size="13">
        <rect fill="white" height="600.0" width="800.0" x="0.0" y="0.0" />
        <g font-size="13">
            <text x="18.0" y="176.0">Small</text>
            <text x="18.0" y="376.0">Medium</text>
            <text x="18.0" y="576.0">Large</text>
        </g>
        <g font-size="9">
            <text x="250.0" y="30.0">Ultralight</text>
            <text x="450.0" y="30.0">Regular</text>
            <text x="650.0" y="30.0">Black</text>
            <text id="template-version" fill="#505050" text-anchor="end" x="785.0" y="575.0">Template v.3.0</text>
            <a href="https://github.com/swhitty/SwiftDraw">
                <text fill="#505050" text-anchor="end" x="785.0" y="590.0">https://github.com/swhitty/SwiftDraw</text>
            </a>
        </g>
    </g>
    <g id="Guides" stroke="rgb(39, 170, 225)" stroke-width="0.5">
        <path id="Capline-S" d="M18,76 l800,0" />
        <path id="H-reference" d="M85,145.755 L87.685,145.755 L113.369,79.287 L114.052,79.287 L114.052,76 L112.148,76 L85,145.755 Z M95.693,121.536 L130.996,121.536 L130.263,119.313 L96.474,119.313 L95.693,121.536 Z M139.15,145.755 L141.787,145.755 L114.638,76 L113.466,76 L113.466,79.287 L139.15,145.755 Z" stroke="none" />
        <path id="Baseline-S" d="M18,146 l800,0" />
        <path id="left-margin-Ultralight-S" d="M220,56 l0,110" />
        <path id="right-margin-Ultralight-S" d="M310,56 l0,110" />
        <path id="left-margin-Regular-S" d="M420,56 l0,110" />
        <path id="right-margin-Regular-S" d="M510,56 l0,110" />
        <path id="left-margin-Black-S" d="M620,56 l0,110" />
        <path id="right-margin-Black-S" d="M710,56 l0,110" />
        <path id="Capline-M" d="M18,276 l800,0" />
        <path id="Baseline-M" d="M18,346 l800,0" />
        <path id="Capline-L" d="M18,476 l800,0" />
        <path id="Baseline-L" d="M18,546 l800,0" />
    </g>
    <g id="Symbols">
        <g id="Ultralight-S">
            <path d="M281.18,91.366 L245.366,127.18 L247.093,126.465 L232.442,126.465 C231.093,126.465 230,127.558 230,128.907 L230,143.558 C230,144.907 231.093,146 232.442,146 L247.093,146 C247.741,146 248.362,145.743 248.82,145.285 L284.634,109.471 L282.907,110.186 L297.558,110.186 C298.907,110.186 300,109.093 300,107.744 L300,93.093 C300,91.744 298.907,90.651 297.558,90.651 L282.907,90.651 C282.259,90.651 281.638,90.908 281.18,91.366 Z M284.634,94.82 L282.907,95.535 L297.558,95.535 L295.116,93.093 L295.116,107.744 L297.558,105.302 L282.907,105.302 C282.259,105.302 281.638,105.56 281.18,106.018 L245.366,141.831 L247.093,141.116 L232.442,141.116 L234.884,143.558 L234.884,128.907 L232.442,131.349 L247.093,131.349 C247.741,131.349 248.362,131.092 248.82,130.634 L284.634,94.82 Z" />
            <path d="M258.587,94.82 L273.238,80.169 C274.192,79.215 274.192,77.669 273.238,76.715 C272.285,75.762 270.739,75.762 269.785,76.715 L255.134,91.366 C254.18,92.32 254.18,93.866 255.134,94.82 C256.087,95.773 257.634,95.773 258.587,94.82 Z" />
            <path d="M261.744,80.884 L271.512,80.884 L269.07,78.442 L269.07,88.209 C269.07,89.558 270.163,90.651 271.512,90.651 C272.86,90.651 273.953,89.558 273.953,88.209 L273.953,78.442 C273.953,77.093 272.86,76 271.512,76 L261.744,76 C260.396,76 259.302,77.093 259.302,78.442 C259.302,79.79 260.396,80.884 261.744,80.884 Z" />
            <path d="M246.994,99.506 L232.343,114.157 C231.39,115.111 231.39,116.657 232.343,117.61 C233.297,118.564 234.843,118.564 235.796,117.61 L250.448,102.959 C251.401,102.006 251.401,100.46 250.448,99.506 C249.494,98.552 247.948,98.552 246.994,99.506 Z" />
            <path d="M243.837,113.442 L234.07,113.442 L236.512,115.884 L236.512,106.116 C236.512,104.768 235.418,103.674 234.07,103.674 C232.721,103.674 231.628,104.768 231.628,106.116 L231.628,115.884 C231.628,117.232 232.721,118.326 234.07,118.326 L243.837,118.326 C245.186,118.326 246.279,117.232 246.279,115.884 C246.279,114.535 245.186,113.442 243.837,113.442 Z" />
        </g>
        <g id="Regular-S">
            <path d="M481.18,91.366 L445.366,127.18 L447.093,126.465 L432.442,126.465 C431.093,126.465 430,127.558 430,128.907 L430,143.558 C430,144.907 431.093,146 432.442,146 L447.093,146 C447.741,146 448.362,145.743 448.82,145.285 L484.634,109.471 L482.907,110.186 L497.558,110.186 C498.907,110.186 500,109.093 500,107.744 L500,93.093 C500,91.744 498.907,90.651 497.558,90.651 L482.907,90.651 C482.259,90.651 481.638,90.908 481.18,91.366 Z M484.634,94.82 L482.907,95.535 L497.558,95.535 L495.116,93.093 L495.116,107.744 L497.558,105.302 L482.907,105.302 C482.259,105.302 481.638,105.56 481.18,106.018 L445.366,141.831 L447.093,141.116 L432.442,141.116 L434.884,143.558 L434.884,128.907 L432.442,131.349 L447.093,131.349 C447.741,131.349 448.362,131.092 448.82,130.634 L484.634,94.82 Z" />
            <path d="M458.587,94.82 L473.238,80.169 C474.192,79.215 474.192,77.669 473.238,76.715 C472.285,75.762 470.739,75.762 469.785,76.715 L455.134,91.366 C454.18,92.32 454.18,93.866 455.134,94.82 C456.087,95.773 457.634,95.773 458.587,94.82 Z" />
            <path d="M461.744,80.884 L471.512,80.884 L469.07,78.442 L469.07,88.209 C469.07,89.558 470.163,90.651 471.512,90.651 C472.86,90.651 473.953,89.558 473.953,88.209 L473.953,78.442 C473.953,77.093 472.86,76 471.512,76 L461.744,76 C460.396,76 459.302,77.093 459.302,78.442 C459.302,79.79 460.396,80.884 461.744,80.884 Z" />
            <path d="M446.994,99.506 L432.343,114.157 C431.389,115.111 431.389,116.657 432.343,117.61 C433.297,118.564 434.843,118.564 435.796,117.61 L450.448,102.959 C451.401,102.006 451.401,100.46 450.448,99.506 C449.494,98.552 447.948,98.552 446.994,99.506 Z" />
            <path d="M443.837,113.442 L434.07,113.442 L436.512,115.884 L436.512,106.116 C436.512,104.768 435.418,103.674 434.07,103.674 C432.721,103.674 431.628,104.768 431.628,106.116 L431.628,115.884 C431.628,117.232 432.721,118.326 434.07,118.326 L443.837,118.326 C445.186,118.326 446.279,117.232 446.279,115.884 C446.279,114.535 445.186,113.442 443.837,113.442 Z" />
        </g>
        <g id="Black-S">
            <path d="M681.18,91.366 L645.366,127.18 L647.093,126.465 L632.442,126.465 C631.093,126.465 630,127.558 630,128.907 L630,143.558 C630,144.907 631.093,146 632.442,146 L647.093,146 C647.741,146 648.362,145.743 648.82,145.285 L684.634,109.471 L682.907,110.186 L697.558,110.186 C698.907,110.186 700,109.093 700,107.744 L700,93.093 C700,91.744 698.907,90.651 697.558,90.651 L682.907,90.651 C682.259,90.651 681.638,90.908 681.18,91.366 Z M684.634,94.82 L682.907,95.535 L697.558,95.535 L695.116,93.093 L695.116,107.744 L697.558,105.302 L682.907,105.302 C682.259,105.302 681.638,105.56 681.18,106.018 L645.366,141.831 L647.093,141.116 L632.442,141.116 L634.884,143.558 L634.884,128.907 L632.442,131.349 L647.093,131.349 C647.741,131.349 648.362,131.092 648.82,130.634 L684.634,94.82 Z" />
            <path d="M658.587,94.82 L673.238,80.169 C674.192,79.215 674.192,77.669 673.238,76.715 C672.285,75.762 670.739,75.762 669.785,76.715 L655.134,91.366 C654.18,92.32 654.18,93.866 655.134,94.82 C656.087,95.773 657.634,95.773 658.587,94.82 Z" />
            <path d="M661.744,80.884 L671.512,80.884 L669.07,78.442 L669.07,88.209 C669.07,89.558 670.163,90.651 671.512,90.651 C672.86,90.651 673.953,89.558 673.953,88.209 L673.953,78.442 C673.953,77.093 672.86,76 671.512,76 L661.744,76 C660.396,76 659.302,77.093 659.302,78.442 C659.302,79.79 660.396,80.884 661.744,80.884 Z" />
            <path d="M646.994,99.506 L632.343,114.157 C631.39,115.111 631.39,116.657 632.343,117.61 C633.297,118.564 634.843,118.564 635.796,117.61 L650.448,102.959 C651.401,102.006 651.401,100.46 650.448,99.506 C649.494,98.552 647.948,98.552 646.994,99.506 Z" />
            <path d="M643.837,113.442 L634.07,113.442 L636.512,115.884 L636.512,106.116 C636.512,104.768 635.418,103.674 634.07,103.674 C632.721,103.674 631.628,104.768 631.628,106.116 L631.628,115.884 C631.628,117.232 632.721,118.326 634.07,118.326 L643.837,118.326 C645.186,118.326 646.279,117.232 646.279,115.884 C646.279,114.535 645.186,113.442 643.837,113.442 Z" />
        </g>
    </g>
</svg>