<?xml version="1.0" encoding="UTF-8"?>
<svg height="600" width="800" xmlns="http://www.w3.org/2000/svg" xmlns:xlink="http://www.w3.org/1999/xlink">
    <g id="Notes" font-family="'LucidaGrande', 'Lucida Grande', sans-serif" font-size="13">
        <rect fill="white" height="600.0" width="800.0" x="0.0" y="0.0" />
        <g font-size="13">
            <text x="18.0" y="176.0">Small</text>
            <text x="18.0" y="376.0">Medium</text>
            <text x="18.0" y="576.0">Large</text>
        </g>
        <g font-size="9">
            <text x="250.0" y="30.0">Ultralight</text>
            <text x="450.0" y="30.0">Regular</text>
            <text x="650.0" y="30.0">Black</text>
            <text id="template-version" fill="#505050" text-anchor="end" x="785.0" y="575.0">Template v.3.0</text>
            <a href="https://github.com/swhitty/SwiftDraw">
                <text fill="#505050" text-anchor="end" x="785.0" y="590.0">https://github.com/swhitty/SwiftDraw</text>
            </a>
        </g>
    </g>
    <g id="Guides" stroke="rgb(39, 170, 225)" stroke-width="0.5">
        <path id="Capline-S" d="M18,76 l800,0" />
        <path id="H-reference" d="M85,145.755 L87.685,145.755 L113.369,79.287 L114.052,79.287 L114.052,76 L112.148,76 L85,145.755 Z M95.693,121.536 L130.996,121.536 L130.263,119.313 L96.474,119.313 L95.693,121.536 Z M139.15,145.755 L141.787,145.755 L114.638,76 L113.466,76 L113.466,79.287 L139.15,145.755 Z" stroke="none" />
        <path id="Baseline-S" d="M18,146 l800,0" />
        <path id="left-margin-Ultralight-S" d="M220,56 l0,110" />
        <path id="right-margin-Ultralight-S" d="M310,56 l0,110" />
        <path id="left-margin-Regular-S" d="M420,56 l0,110" />
        <path id="right-margin-Regular-S" d="M510,56 l0,110" />
        <path id="left-margin-Black-S" d="M620,56 l0,110" />
        <path id="right-margin-Black-S" d="M710,56 l0,110" />
        <path id="Capline-M" d="M18,276 l800,0" />
        <path id="Baseline-M" d="M18,346 l800,0" />
        <path id="Capline-L" d="M18,476 l800,0" />
        <path id="Baseline-L" d="M18,546 l800,0" />
    </g>
    <g id="Symbols">
        <g id="Ultralight-S">
            <path d="M261.042,77.639 L231.639,107.042 C229.454,109.228 229.453,112.772 231.64,114.958 L261.042,144.361 C263.228,146.546 266.772,146.546 268.958,144.361 L298.361,114.958 C300.546,112.772 300.546,109.228 298.361,107.042 L268.958,77.639 C266.772,75.453 263.228,75.453 261.042,77.64 Z M264.435,81.032 C264.747,80.72 265.253,80.72 265.565,81.032 L294.968,110.435 C295.28,110.747 295.28,111.253 294.968,111.565 L265.565,140.968 C265.253,141.28 264.747,141.28 264.435,140.968 L235.032,111.565 C234.72,111.253 234.72,110.747 235.032,110.435 L264.435,81.032 Z" />
            <path d="M256.825,122.274 L276.016,103.143 C276.955,102.208 276.957,100.689 276.022,99.75 C275.086,98.812 273.567,98.81 272.629,99.745 L253.438,118.876 C252.5,119.812 252.497,121.33 253.433,122.269 C254.368,123.207 255.887,123.209 256.825,122.274 Z" />
            <path d="M253.451,103.126 L272.612,122.286 C273.549,123.223 275.068,123.223 276.005,122.286 C276.941,121.35 276.941,119.831 276.005,118.894 L256.844,99.733 C255.907,98.796 254.388,98.796 253.451,99.733 C252.514,100.67 252.514,102.189 253.451,103.126 Z" />
        </g>
        <g id="Regular-S">
            <path d="M461.042,77.639 L431.639,107.042 C429.453,109.228 429.453,112.772 431.64,114.958 L461.042,144.361 C463.228,146.546 466.772,146.546 468.958,144.361 L498.361,114.958 C500.546,112.772 500.546,109.228 498.361,107.042 L468.958,77.639 C466.772,75.453 463.228,75.453 461.042,77.64 Z M464.435,81.032 C464.747,80.72 465.253,80.72 465.565,81.032 L494.968,110.435 C495.28,110.747 495.28,111.253 494.968,111.565 L465.565,140.968 C465.253,141.28 464.747,141.28 464.435,140.968 L435.032,111.565 C434.72,111.253 434.72,110.747 435.032,110.435 L464.435,81.032 Z" />
            <path d="M456.825,122.274 L476.016,103.143 C476.955,102.208 476.957,100.689 476.022,99.75 C475.086,98.812 473.567,98.81 472.629,99.745 L453.438,118.876 C452.5,119.812 452.497,121.33 453.433,122.269 C454.368,123.207 455.887,123.209 456.825,122.274 Z" />
            <path d="M453.451,103.126 L472.612,122.286 C473.549,123.223 475.068,123.223 476.005,122.286 C476.941,121.35 476.941,119.831 476.005,118.894 L456.844,99.733 C455.907,98.796 454.388,98.796 453.451,99.733 C452.514,100.67 452.514,102.189 453.451,103.126 Z" />
        </g>
        <g id="Black-S">
            <path d="M661.042,77.639 L631.639,107.042 C629.453,109.228 629.453,112.772 631.64,114.958 L661.042,144.361 C663.228,146.546 666.772,146.546 668.958,144.361 L698.361,114.958 C700.547,112.772 700.547,109.228 698.361,107.042 L668.958,77.639 C666.772,75.453 663.228,75.453 661.042,77.64 Z M664.435,81.032 C664.747,80.72 665.253,80.72 665.565,81.032 L694.968,110.435 C695.28,110.747 695.28,111.253 694.968,111.565 L665.565,140.968 C665.253,141.28 664.747,141.28 664.435,140.968 L635.032,111.565 C634.72,111.253 634.72,110.747 635.032,110.435 L664.435,81.032 Z" />
            <path d="M656.825,122.274 L676.016,103.143 C676.955,102.208 676.957,100.689 676.022,99.75 C675.086,98.812 673.567,98.81 672.629,99.745 L653.438,118.876 C652.5,119.812 652.497,121.33 653.433,122.269 C654.368,123.207 655.887,123.209 656.825,122.274 Z" />
            <path d="M653.451,103.126 L672.612,122.286 C673.549,123.223 675.068,123.223 676.005,122.286 C676.942,121.35 676.942,119.831 676.005,118.894 L656.844,99.733 C655.907,98.796 654.388,98.796 653.451,99.733 C652.514,100.67 652.514,102.189 653.451,103.126 Z" />
        </g>
    </g>
</svg>