<?xml version="1.0" encoding="UTF-8"?>
<svg height="600" width="800" xmlns="http://www.w3.org/2000/svg" xmlns:xlink="http://www.w3.org/1999/xlink">
    <g id="Notes" font-family="'LucidaGrande', 'Lucida Grande', sans-serif" font-size="13">
        <rect fill="white" height="600.0" width="800.0" x="0.0" y="0.0" />
        <g font-size="13">
            <text x="18.0" y="176.0">Small</text>
            <text x="18.0" y="376.0">Medium</text>
            <text x="18.0" y="576.0">Large</text>
        </g>
        <g font-size="9">
            <text x="250.0" y="30.0">Ultralight</text>
            <text x="450.0" y="30.0">Regular</text>
            <text x="650.0" y="30.0">Black</text>
            <text id="template-version" fill="#505050" text-anchor="end" x="785.0" y="575.0">Template v.3.0</text>
            <a href="https://github.com/swhitty/SwiftDraw">
                <text fill="#505050" text-anchor="end" x="785.0" y="590.0">https://github.com/swhitty/SwiftDraw</text>
            </a>
        </g>
    </g>
    <g id="Guides" stroke="rgb(39, 170, 225)" stroke-width="0.5">
        <path id="Capline-S" d="M18,76 l800,0" />
        <path id="H-reference" d="M85,145.755 L87.685,145.755 L113.369,79.287 L114.052,79.287 L114.052,76 L112.148,76 L85,145.755 Z M95.693,121.536 L130.996,121.536 L130.263,119.313 L96.474,119.313 L95.693,121.536 Z M139.15,145.755 L141.787,145.755 L114.638,76 L113.466,76 L113.466,79.287 L139.15,145.755 Z" stroke="none" />
        <path id="Baseline-S" d="M18,146 l800,0" />
        <path id="left-margin-Ultralight-S" d="M220,56 l0,110" />
        <path id="right-margin-Ultralight-S" d="M310,56 l0,110" />
        <path id="left-margin-Regular-S" d="M420,56 l0,110" />
        <path id="right-margin-Regular-S" d="M510,56 l0,110" />
        <path id="left-margin-Black-S" d="M620,56 l0,110" />
        <path id="right-margin-Black-S" d="M710,56 l0,110" />
        <path id="Capline-M" d="M18,276 l800,0" />
        <path id="Baseline-M" d="M18,346 l800,0" />
        <path id="Capline-L" d="M18,476 l800,0" />
        <path id="Baseline-L" d="M18,546 l800,0" />
    </g>
    <g id="Symbols">
        <g id="Ultralight-S">
            <path d="M280.366,81.122 L294.024,81.122 C294.496,81.122 294.878,81.504 294.878,81.976 L294.878,95.634 C294.878,97.049 296.025,98.195 297.439,98.195 C298.853,98.195 300,97.049 300,95.634 L300,81.976 C300,78.675 297.325,76 294.024,76 L280.366,76 C278.951,76 277.805,77.147 277.805,78.561 C277.805,79.975 278.951,81.122 280.366,81.122 Z M294.878,126.366 L294.878,140.024 C294.878,140.496 294.496,140.878 294.024,140.878 L280.366,140.878 C278.951,140.878 277.805,142.025 277.805,143.439 C277.805,144.853 278.951,146 280.366,146 L294.024,146 C297.325,146 300,143.325 300,140.024 L300,126.366 C300,124.951 298.853,123.805 297.439,123.805 C296.025,123.805 294.878,124.951 294.878,126.366 Z M249.634,140.878 L235.976,140.878 C235.504,140.878 235.122,140.496 235.122,140.024 L235.122,126.366 C235.122,124.951 233.975,123.805 232.561,123.805 C231.147,123.805 230,124.951 230,126.366 L230,140.024 C230,143.325 232.675,146 235.976,146 L249.634,146 C251.049,146 252.195,144.853 252.195,143.439 C252.195,142.025 251.049,140.878 249.634,140.878 Z M235.122,95.634 L235.122,81.976 C235.122,81.504 235.504,81.122 235.976,81.122 L249.634,81.122 C251.049,81.122 252.195,79.975 252.195,78.561 C252.195,77.147 251.049,76 249.634,76 L235.976,76 C232.675,76 230,78.675 230,81.976 L230,95.634 C230,97.049 231.147,98.195 232.561,98.195 C233.975,98.195 235.122,97.049 235.122,95.634 Z" />
            <path d="M265,137.464 C277.825,137.464 288.049,125.536 288.049,111 C288.049,96.465 277.825,84.537 265,84.537 C252.175,84.537 241.951,96.465 241.951,111 C241.951,125.536 252.175,137.464 265,137.464 Z M265,132.342 C255.194,132.342 247.073,122.867 247.073,111 C247.073,99.134 255.194,89.659 265,89.659 C274.806,89.659 282.927,99.134 282.927,111 C282.927,122.867 274.806,132.342 265,132.342 Z" />
            <path d="M234.268,113.561 L295.732,113.561 C297.146,113.561 298.293,112.415 298.293,111 C298.293,109.586 297.146,108.439 295.732,108.439 L234.268,108.439 C232.854,108.439 231.707,109.586 231.707,111 C231.707,112.415 232.854,113.561 234.268,113.561 Z" />
            <path d="M256.767,123.484 C259.355,125.398 262.118,126.386 264.999,126.386 C267.862,126.386 270.664,125.411 273.362,123.523 C274.521,122.713 274.803,121.116 273.992,119.957 C273.182,118.798 271.585,118.516 270.426,119.326 C268.549,120.639 266.754,121.264 264.999,121.264 C263.263,121.264 261.552,120.652 259.811,119.365 C258.674,118.525 257.07,118.765 256.23,119.902 C255.389,121.04 255.629,122.643 256.767,123.484 Z" />
        </g>
        <g id="Regular-S">
            <path d="M480.366,81.122 L494.024,81.122 C494.496,81.122 494.878,81.504 494.878,81.976 L494.878,95.634 C494.878,97.049 496.025,98.195 497.439,98.195 C498.853,98.195 500,97.049 500,95.634 L500,81.976 C500,78.675 497.325,76 494.024,76 L480.366,76 C478.951,76 477.805,77.147 477.805,78.561 C477.805,79.975 478.951,81.122 480.366,81.122 Z M494.878,126.366 L494.878,140.024 C494.878,140.496 494.496,140.878 494.024,140.878 L480.366,140.878 C478.951,140.878 477.805,142.025 477.805,143.439 C477.805,144.853 478.951,146 480.366,146 L494.024,146 C497.325,146 500,143.325 500,140.024 L500,126.366 C500,124.951 498.853,123.805 497.439,123.805 C496.025,123.805 494.878,124.951 494.878,126.366 Z M449.634,140.878 L435.976,140.878 C435.504,140.878 435.122,140.496 435.122,140.024 L435.122,126.366 C435.122,124.951 433.975,123.805 432.561,123.805 C431.147,123.805 430,124.951 430,126.366 L430,140.024 C430,143.325 432.675,146 435.976,146 L449.634,146 C451.049,146 452.195,144.853 452.195,143.439 C452.195,142.025 451.049,140.878 449.634,140.878 Z M435.122,95.634 L435.122,81.976 C435.122,81.504 435.504,81.122 435.976,81.122 L449.634,81.122 C451.049,81.122 452.195,79.975 452.195,78.561 C452.195,77.147 451.049,76 449.634,76 L435.976,76 C432.675,76 430,78.675 430,81.976 L430,95.634 C430,97.049 431.147,98.195 432.561,98.195 C433.975,98.195 435.122,97.049 435.122,95.634 Z" />
            <path d="M465,137.464 C477.825,137.464 488.049,125.536 488.049,111 C488.049,96.465 477.825,84.537 465,84.537 C452.175,84.537 441.951,96.465 441.951,111 C441.951,125.536 452.175,137.464 465,137.464 Z M465,132.342 C455.194,132.342 447.073,122.867 447.073,111 C447.073,99.134 455.194,89.659 465,89.659 C474.806,89.659 482.927,99.134 482.927,111 C482.927,122.867 474.806,132.342 465,132.342 Z" />
            <path d="M434.268,113.561 L495.732,113.561 C497.146,113.561 498.293,112.415 498.293,111 C498.293,109.586 497.146,108.439 495.732,108.439 L434.268,108.439 C432.854,108.439 431.707,109.586 431.707,111 C431.707,112.415 432.854,113.561 434.268,113.561 Z" />
            <path d="M456.767,123.484 C459.355,125.398 462.118,126.386 464.999,126.386 C467.862,126.386 470.664,125.411 473.362,123.523 C474.521,122.713 474.803,121.116 473.992,119.957 C473.182,118.798 471.585,118.516 470.426,119.326 C468.549,120.639 466.754,121.264 464.999,121.264 C463.263,121.264 461.552,120.652 459.811,119.365 C458.674,118.525 457.07,118.765 456.23,119.902 C455.389,121.04 455.629,122.643 456.767,123.484 Z" />
        </g>
        <g id="Black-S">
            <path d="M680.366,81.122 L694.024,81.122 C694.496,81.122 694.878,81.504 694.878,81.976 L694.878,95.634 C694.878,97.049 696.025,98.195 697.439,98.195 C698.853,98.195 700,97.049 700,95.634 L700,81.976 C700,78.675 697.325,76 694.024,76 L680.366,76 C678.951,76 677.805,77.147 677.805,78.561 C677.805,79.975 678.951,81.122 680.366,81.122 Z M694.878,126.366 L694.878,140.024 C694.878,140.496 694.496,140.878 694.024,140.878 L680.366,140.878 C678.951,140.878 677.805,142.025 677.805,143.439 C677.805,144.853 678.951,146 680.366,146 L694.024,146 C697.325,146 700,143.325 700,140.024 L700,126.366 C700,124.951 698.853,123.805 697.439,123.805 C696.025,123.805 694.878,124.951 694.878,126.366 Z M649.634,140.878 L635.976,140.878 C635.504,140.878 635.122,140.496 635.122,140.024 L635.122,126.366 C635.122,124.951 633.975,123.805 632.561,123.805 C631.147,123.805 630,124.951 630,126.366 L630,140.024 C630,143.325 632.675,146 635.976,146 L649.634,146 C651.049,146 652.195,144.853 652.195,143.439 C652.195,142.025 651.049,140.878 649.634,140.878 Z M635.122,95.634 L635.122,81.976 C635.122,81.504 635.504,81.122 635.976,81.122 L649.634,81.122 C651.049,81.122 652.195,79.975 652.195,78.561 C652.195,77.147 651.049,76 649.634,76 L635.976,76 C632.675,76 630,78.675 630,81.976 L630,95.634 C630,97.049 631.147,98.195 632.561,98.195 C633.975,98.195 635.122,97.049 635.122,95.634 Z" />
            <path d="M665,137.464 C677.825,137.464 688.049,125.536 688.049,111 C688.049,96.465 677.825,84.537 665,84.537 C652.175,84.537 641.951,96.465 641.951,111 C641.951,125.536 652.175,137.464 665,137.464 Z M665,132.342 C655.194,132.342 647.073,122.867 647.073,111 C647.073,99.134 655.194,89.659 665,89.659 C674.806,89.659 682.927,99.134 682.927,111 C682.927,122.867 674.806,132.342 665,132.342 Z" />
            <path d="M634.268,113.561 L695.732,113.561 C697.146,113.561 698.293,112.415 698.293,111 C698.293,109.586 697.146,108.439 695.732,108.439 L634.268,108.439 C632.854,108.439 631.707,109.586 631.707,111 C631.707,112.415 632.854,113.561 634.268,113.561 Z" />
            <path d="M656.767,123.484 C659.355,125.398 662.118,126.386 664.999,126.386 C667.862,126.386 670.664,125.411 673.362,123.523 C674.521,122.713 674.803,121.116 673.992,119.957 C673.182,118.798 671.585,118.516 670.426,119.326 C668.549,120.639 666.754,121.264 664.999,121.264 C663.263,121.264 661.552,120.652 659.811,119.365 C658.674,118.525 657.07,118.765 656.23,119.902 C655.389,121.04 655.629,122.643 656.767,123.484 Z" />
        </g>
    </g>
</svg>