<?xml version="1.0" encoding="UTF-8"?>
<svg height="600" width="800" xmlns="http://www.w3.org/2000/svg" xmlns:xlink="http://www.w3.org/1999/xlink">
    <g id="Notes" font-family="'LucidaGrande', 'Lucida Grande', sans-serif" font-size="13">
        <rect fill="white" height="600.0" width="800.0" x="0.0" y="0.0" />
        <g font-size="13">
            <text x="18.0" y="176.0">Small</text>
            <text x="18.0" y="376.0">Medium</text>
            <text x="18.0" y="576.0">Large</text>
        </g>
        <g font-size="9">
            <text x="250.0" y="30.0">Ultralight</text>
            <text x="450.0" y="30.0">Regular</text>
            <text x="650.0" y="30.0">Black</text>
            <text id="template-version" fill="#505050" text-anchor="end" x="785.0" y="575.0">Template v.3.0</text>
            <a href="https://github.com/swhitty/SwiftDraw">
                <text fill="#505050" text-anchor="end" x="785.0" y="590.0">https://github.com/swhitty/SwiftDraw</text>
            </a>
        </g>
    </g>
    <g id="Guides" stroke="rgb(39, 170, 225)" stroke-width="0.5">
        <path id="Capline-S" d="M18,76 l800,0" />
        <path id="H-reference" d="M85,145.755 L87.685,145.755 L113.369,79.287 L114.052,79.287 L114.052,76 L112.148,76 L85,145.755 Z M95.693,121.536 L130.996,121.536 L130.263,119.313 L96.474,119.313 L95.693,121.536 Z M139.15,145.755 L141.787,145.755 L114.638,76 L113.466,76 L113.466,79.287 L139.15,145.755 Z" stroke="none" />
        <path id="Baseline-S" d="M18,146 l800,0" />
        <path id="left-margin-Ultralight-S" d="M215.397,56 l0,110" />
        <path id="right-margin-Ultralight-S" d="M314.603,56 l0,110" />
        <path id="left-margin-Regular-S" d="M415.397,56 l0,110" />
        <path id="right-margin-Regular-S" d="M514.603,56 l0,110" />
        <path id="left-margin-Black-S" d="M615.397,56 l0,110" />
        <path id="right-margin-Black-S" d="M714.603,56 l0,110" />
        <path id="Capline-M" d="M18,276 l800,0" />
        <path id="Baseline-M" d="M18,346 l800,0" />
        <path id="Capline-L" d="M18,476 l800,0" />
        <path id="Baseline-L" d="M18,546 l800,0" />
    </g>
    <g id="Symbols">
        <g id="Ultralight-S">
            <path d="M301.84,76 L228.16,76 C226.634,76 225.397,77.237 225.397,78.763 L225.397,134.023 C225.397,135.549 226.634,136.786 228.16,136.786 L266.842,136.786 L265.606,136.495 L284.026,145.705 C285.864,146.623 288.025,145.287 288.025,143.233 L288.025,134.023 L285.262,136.786 L301.84,136.786 C303.366,136.786 304.603,135.549 304.603,134.023 L304.603,78.763 C304.603,77.237 303.366,76 301.84,76 Z M301.84,81.526 L299.077,78.763 L299.077,134.023 L301.84,131.26 L285.262,131.26 C283.736,131.26 282.499,132.497 282.499,134.023 L282.499,143.233 L286.498,140.762 L268.078,131.552 C267.694,131.36 267.271,131.26 266.842,131.26 L228.16,131.26 L230.923,134.023 L230.923,78.763 L228.16,81.526 L301.84,81.526 Z" />
            <path d="M242.784,112.031 C243.886,113.133 245.883,114.679 248.733,116.199 C253.433,118.705 258.88,120.208 265,120.208 C271.12,120.208 276.567,118.705 281.267,116.199 C284.117,114.679 286.114,113.133 287.216,112.031 C288.295,110.952 288.295,109.202 287.216,108.123 C286.137,107.044 284.387,107.044 283.308,108.123 C283.158,108.274 282.791,108.6 282.218,109.044 C281.222,109.815 280.035,110.593 278.666,111.323 C274.731,113.422 270.163,114.682 265,114.682 C259.837,114.682 255.269,113.422 251.334,111.323 C249.965,110.593 248.778,109.815 247.782,109.044 C247.209,108.6 246.842,108.274 246.692,108.123 C245.613,107.044 243.863,107.044 242.784,108.123 C241.705,109.202 241.705,110.952 242.784,112.031 Z" />
        </g>
        <g id="Regular-S">
            <path d="M501.84,76 L428.16,76 C426.634,76 425.397,77.237 425.397,78.763 L425.397,134.023 C425.397,135.549 426.634,136.786 428.16,136.786 L466.842,136.786 L465.606,136.495 L484.026,145.705 C485.864,146.623 488.025,145.287 488.025,143.233 L488.025,134.023 L485.262,136.786 L501.84,136.786 C503.366,136.786 504.603,135.549 504.603,134.023 L504.603,78.763 C504.603,77.237 503.366,76 501.84,76 Z M501.84,81.526 L499.077,78.763 L499.077,134.023 L501.84,131.26 L485.262,131.26 C483.736,131.26 482.499,132.497 482.499,134.023 L482.499,143.233 L486.498,140.762 L468.078,131.552 C467.694,131.36 467.271,131.26 466.842,131.26 L428.16,131.26 L430.923,134.023 L430.923,78.763 L428.16,81.526 L501.84,81.526 Z" />
            <path d="M442.784,112.031 C443.886,113.133 445.883,114.679 448.733,116.199 C453.433,118.705 458.88,120.208 465,120.208 C471.12,120.208 476.567,118.705 481.267,116.199 C484.117,114.679 486.114,113.133 487.216,112.031 C488.295,110.952 488.295,109.202 487.216,108.123 C486.137,107.044 484.387,107.044 483.308,108.123 C483.158,108.274 482.791,108.6 482.218,109.044 C481.222,109.815 480.035,110.593 478.666,111.323 C474.731,113.422 470.163,114.682 465,114.682 C459.837,114.682 455.269,113.422 451.334,111.323 C449.965,110.593 448.778,109.815 447.782,109.044 C447.209,108.6 446.842,108.274 446.692,108.123 C445.613,107.044 443.863,107.044 442.784,108.123 C441.705,109.202 441.705,110.952 442.784,112.031 Z" />
        </g>
        <g id="Black-S">
            <path d="M701.84,76 L628.16,76 C626.634,76 625.397,77.237 625.397,78.763 L625.397,134.023 C625.397,135.549 626.634,136.786 628.16,136.786 L666.842,136.786 L665.606,136.495 L684.026,145.705 C685.864,146.623 688.025,145.287 688.025,143.233 L688.025,134.023 L685.262,136.786 L701.84,136.786 C703.366,136.786 704.603,135.549 704.603,134.023 L704.603,78.763 C704.603,77.237 703.366,76 701.84,76 Z M701.84,81.526 L699.077,78.763 L699.077,134.023 L701.84,131.26 L685.262,131.26 C683.736,131.26 682.499,132.497 682.499,134.023 L682.499,143.233 L686.498,140.762 L668.078,131.552 C667.694,131.36 667.271,131.26 666.842,131.26 L628.16,131.26 L630.923,134.023 L630.923,78.763 L628.16,81.526 L701.84,81.526 Z" />
            <path d="M642.784,112.031 C643.886,113.133 645.883,114.679 648.733,116.199 C653.433,118.705 658.88,120.208 665,120.208 C671.12,120.208 676.567,118.705 681.267,116.199 C684.117,114.679 686.114,113.133 687.216,112.031 C688.295,110.952 688.295,109.202 687.216,108.123 C686.137,107.044 684.387,107.044 683.308,108.123 C683.158,108.274 682.791,108.6 682.218,109.044 C681.222,109.815 680.035,110.593 678.666,111.323 C674.731,113.422 670.163,114.682 665,114.682 C659.837,114.682 655.269,113.422 651.334,111.323 C649.965,110.593 648.778,109.815 647.782,109.044 C647.209,108.6 646.842,108.274 646.692,108.123 C645.613,107.044 643.863,107.044 642.784,108.123 C641.705,109.202 641.705,110.952 642.784,112.031 Z" />
        </g>
    </g>
</svg>