<?xml version="1.0" encoding="UTF-8"?>
<svg height="600" width="800" xmlns="http://www.w3.org/2000/svg" xmlns:xlink="http://www.w3.org/1999/xlink">
    <g id="Notes" font-family="'LucidaGrande', 'Lucida Grande', sans-serif" font-size="13">
        <rect fill="white" height="600.0" width="800.0" x="0.0" y="0.0" />
        <g font-size="13">
            <text x="18.0" y="176.0">Small</text>
            <text x="18.0" y="376.0">Medium</text>
            <text x="18.0" y="576.0">Large</text>
        </g>
        <g font-size="9">
            <text x="250.0" y="30.0">Ultralight</text>
            <text x="450.0" y="30.0">Regular</text>
            <text x="650.0" y="30.0">Black</text>
            <text id="template-version" fill="#505050" text-anchor="end" x="785.0" y="575.0">Template v.3.0</text>
            <a href="https://github.com/swhitty/SwiftDraw">
                <text fill="#505050" text-anchor="end" x="785.0" y="590.0">https://github.com/swhitty/SwiftDraw</text>
            </a>
        </g>
    </g>
    <g id="Guides" stroke="rgb(39, 170, 225)" stroke-width="0.5">
        <path id="Capline-S" d="M18,76 l800,0" />
        <path id="H-reference" d="M85,145.755 L87.685,145.755 L113.369,79.287 L114.052,79.287 L114.052,76 L112.148,76 L85,145.755 Z M95.693,121.536 L130.996,121.536 L130.263,119.313 L96.474,119.313 L95.693,121.536 Z M139.15,145.755 L141.787,145.755 L114.638,76 L113.466,76 L113.466,79.287 L139.15,145.755 Z" stroke="none" />
        <path id="Baseline-S" d="M18,146 l800,0" />
        <path id="left-margin-Ultralight-S" d="M220,56 l0,110" />
        <path id="right-margin-Ultralight-S" d="M310,56 l0,110" />
        <path id="left-margin-Regular-S" d="M420,56 l0,110" />
        <path id="right-margin-Regular-S" d="M510,56 l0,110" />
        <path id="left-margin-Black-S" d="M620,56 l0,110" />
        <path id="right-margin-Black-S" d="M710,56 l0,110" />
        <path id="Capline-M" d="M18,276 l800,0" />
        <path id="Baseline-M" d="M18,346 l800,0" />
        <path id="Capline-L" d="M18,476 l800,0" />
        <path id="Baseline-L" d="M18,546 l800,0" />
    </g>
    <g id="Symbols">
        <g id="Ultralight-S">
            <path d="M299.284,109.273 L266.727,76.715 C265.773,75.762 264.227,75.762 263.273,76.715 L230.716,109.273 C229.762,110.227 229.762,111.773 230.716,112.726 L263.273,145.284 C264.227,146.238 265.773,146.238 266.727,145.284 L284.633,127.377 C285.587,126.424 285.587,124.878 284.633,123.924 C283.68,122.97 282.134,122.97 281.18,123.924 L263.273,141.831 L266.727,141.831 L234.169,109.273 L234.169,112.726 L266.727,80.168 L263.273,80.168 L295.831,112.726 C296.785,113.68 298.331,113.68 299.284,112.726 C300.238,111.773 300.238,110.227 299.284,109.273 Z" />
            <path d="M261.842,113.44 C261.898,113.438 262.019,113.434 262.202,113.43 C263.691,113.398 265.613,113.427 267.802,113.565 C271.018,113.767 274.18,114.169 277.117,114.815 C282.188,115.931 286.131,117.677 288.506,120.052 C290.513,122.06 291.363,124.987 291.186,128.719 C291.052,131.537 290.34,134.621 289.233,137.74 C288.794,138.977 288.324,140.132 287.854,141.169 C287.577,141.783 287.366,142.212 287.255,142.425 C286.63,143.619 287.091,145.095 288.285,145.721 C289.48,146.346 290.956,145.885 291.581,144.691 C291.735,144.398 291.987,143.884 292.305,143.181 C292.827,142.025 293.349,140.745 293.836,139.373 C295.089,135.839 295.904,132.31 296.064,128.951 C296.301,123.961 295.066,119.706 291.959,116.599 C288.801,113.441 284.065,111.344 278.166,110.046 C274.961,109.341 271.557,108.907 268.108,108.691 C265.772,108.544 263.715,108.513 262.097,108.547 C261.884,108.552 261.732,108.557 261.647,108.56 C260.299,108.614 259.25,109.75 259.304,111.098 C259.358,112.445 260.494,113.494 261.842,113.44 Z" />
            <path d="M266.529,102.761 L260.018,109.273 C259.064,110.227 259.064,111.773 260.018,112.726 L266.529,119.238 C267.483,120.191 269.029,120.191 269.982,119.238 C270.936,118.284 270.936,116.738 269.982,115.785 L263.471,109.273 L263.471,112.726 L269.982,106.215 C270.936,105.261 270.936,103.715 269.982,102.761 C269.029,101.808 267.483,101.808 266.529,102.761 Z" />
        </g>
        <g id="Regular-S">
            <path d="M499.284,109.273 L466.727,76.715 C465.773,75.762 464.227,75.762 463.273,76.715 L430.716,109.273 C429.762,110.227 429.762,111.773 430.716,112.726 L463.273,145.284 C464.227,146.238 465.773,146.238 466.727,145.284 L484.633,127.377 C485.587,126.424 485.587,124.878 484.633,123.924 C483.68,122.97 482.134,122.97 481.18,123.924 L463.273,141.831 L466.727,141.831 L434.169,109.273 L434.169,112.726 L466.727,80.168 L463.273,80.168 L495.831,112.726 C496.785,113.68 498.331,113.68 499.284,112.726 C500.238,111.773 500.238,110.227 499.284,109.273 Z" />
            <path d="M461.842,113.44 C461.898,113.438 462.019,113.434 462.202,113.43 C463.691,113.398 465.613,113.427 467.802,113.565 C471.018,113.767 474.18,114.169 477.117,114.815 C482.188,115.931 486.131,117.677 488.506,120.052 C490.513,122.06 491.363,124.987 491.186,128.719 C491.052,131.537 490.34,134.621 489.233,137.74 C488.794,138.977 488.324,140.132 487.855,141.169 C487.577,141.783 487.366,142.212 487.255,142.425 C486.63,143.619 487.091,145.095 488.285,145.721 C489.48,146.346 490.956,145.885 491.581,144.691 C491.735,144.398 491.987,143.884 492.305,143.181 C492.827,142.025 493.349,140.745 493.836,139.373 C495.089,135.839 495.904,132.31 496.064,128.951 C496.301,123.961 495.066,119.706 491.959,116.599 C488.801,113.441 484.065,111.344 478.166,110.046 C474.961,109.341 471.557,108.907 468.108,108.691 C465.772,108.544 463.716,108.513 462.097,108.547 C461.884,108.552 461.732,108.557 461.647,108.56 C460.299,108.614 459.25,109.75 459.304,111.098 C459.358,112.445 460.494,113.494 461.842,113.44 Z" />
            <path d="M466.529,102.761 L460.018,109.273 C459.064,110.227 459.064,111.773 460.018,112.726 L466.529,119.238 C467.483,120.191 469.029,120.191 469.982,119.238 C470.936,118.284 470.936,116.738 469.982,115.785 L463.471,109.273 L463.471,112.726 L469.982,106.215 C470.936,105.261 470.936,103.715 469.982,102.761 C469.029,101.808 467.483,101.808 466.529,102.761 Z" />
        </g>
        <g id="Black-S">
            <path d="M699.284,109.273 L666.727,76.715 C665.773,75.762 664.227,75.762 663.273,76.715 L630.716,109.273 C629.762,110.227 629.762,111.773 630.716,112.726 L663.273,145.284 C664.227,146.238 665.773,146.238 666.727,145.284 L684.633,127.377 C685.587,126.424 685.587,124.878 684.633,123.924 C683.68,122.97 682.134,122.97 681.18,123.924 L663.273,141.831 L666.727,141.831 L634.169,109.273 L634.169,112.726 L666.727,80.168 L663.273,80.168 L695.831,112.726 C696.785,113.68 698.331,113.68 699.284,112.726 C700.238,111.773 700.238,110.227 699.284,109.273 Z" />
            <path d="M661.842,113.44 C661.898,113.438 662.019,113.434 662.202,113.43 C663.691,113.398 665.613,113.427 667.802,113.565 C671.018,113.767 674.18,114.169 677.117,114.815 C682.188,115.931 686.131,117.677 688.506,120.052 C690.513,122.06 691.363,124.987 691.186,128.719 C691.052,131.537 690.34,134.621 689.233,137.74 C688.794,138.977 688.324,140.132 687.854,141.169 C687.577,141.783 687.366,142.212 687.255,142.425 C686.63,143.619 687.091,145.095 688.285,145.721 C689.48,146.346 690.956,145.885 691.581,144.691 C691.735,144.398 691.987,143.884 692.305,143.181 C692.827,142.025 693.349,140.745 693.836,139.373 C695.089,135.839 695.904,132.31 696.064,128.951 C696.301,123.961 695.066,119.706 691.959,116.599 C688.801,113.441 684.065,111.344 678.166,110.046 C674.961,109.341 671.557,108.907 668.108,108.691 C665.772,108.544 663.715,108.513 662.097,108.547 C661.884,108.552 661.732,108.557 661.647,108.56 C660.299,108.614 659.25,109.75 659.304,111.098 C659.358,112.445 660.494,113.494 661.842,113.44 Z" />
            <path d="M666.529,102.761 L660.018,109.273 C659.064,110.227 659.064,111.773 660.018,112.726 L666.529,119.238 C667.483,120.191 669.029,120.191 669.982,119.238 C670.936,118.284 670.936,116.738 669.982,115.785 L663.471,109.273 L663.471,112.726 L669.982,106.215 C670.936,105.261 670.936,103.715 669.982,102.761 C669.029,101.808 667.483,101.808 666.529,102.761 Z" />
        </g>
    </g>
</svg>