<?xml version="1.0" encoding="UTF-8"?>
<svg height="600" width="800" xmlns="http://www.w3.org/2000/svg" xmlns:xlink="http://www.w3.org/1999/xlink">
    <g id="Notes" font-family="'LucidaGrande', 'Lucida Grande', sans-serif" font-size="13">
        <rect fill="white" height="600.0" width="800.0" x="0.0" y="0.0" />
        <g font-size="13">
            <text x="18.0" y="176.0">Small</text>
            <text x="18.0" y="376.0">Medium</text>
            <text x="18.0" y="576.0">Large</text>
        </g>
        <g font-size="9">
            <text x="250.0" y="30.0">Ultralight</text>
            <text x="450.0" y="30.0">Regular</text>
            <text x="650.0" y="30.0">Black</text>
            <text id="template-version" fill="#505050" text-anchor="end" x="785.0" y="575.0">Template v.3.0</text>
            <a href="https://github.com/swhitty/SwiftDraw">
                <text fill="#505050" text-anchor="end" x="785.0" y="590.0">https://github.com/swhitty/SwiftDraw</text>
            </a>
        </g>
    </g>
    <g id="Guides" stroke="rgb(39, 170, 225)" stroke-width="0.5">
        <path id="Capline-S" d="M18,76 l800,0" />
        <path id="H-reference" d="M85,145.755 L87.685,145.755 L113.369,79.287 L114.052,79.287 L114.052,76 L112.148,76 L85,145.755 Z M95.693,121.536 L130.996,121.536 L130.263,119.313 L96.474,119.313 L95.693,121.536 Z M139.15,145.755 L141.787,145.755 L114.638,76 L113.466,76 L113.466,79.287 L139.15,145.755 Z" stroke="none" />
        <path id="Baseline-S" d="M18,146 l800,0" />
        <path id="left-margin-Ultralight-S" d="M221,56 l0,110" />
        <path id="right-margin-Ultralight-S" d="M309,56 l0,110" />
        <path id="left-margin-Regular-S" d="M421,56 l0,110" />
        <path id="right-margin-Regular-S" d="M509,56 l0,110" />
        <path id="left-margin-Black-S" d="M621,56 l0,110" />
        <path id="right-margin-Black-S" d="M709,56 l0,110" />
        <path id="Capline-M" d="M18,276 l800,0" />
        <path id="Baseline-M" d="M18,346 l800,0" />
        <path id="Capline-L" d="M18,476 l800,0" />
        <path id="Baseline-L" d="M18,546 l800,0" />
    </g>
    <g id="Symbols">
        <g id="Ultralight-S">
            <path d="M293.488,109.372 L293.488,94.721 C293.488,94.118 293.265,93.536 292.861,93.087 L278.21,76.808 C277.747,76.294 277.087,76 276.395,76 L242.209,76 C239.062,76 236.511,78.551 236.511,81.698 L236.511,140.302 C236.511,143.449 239.062,146 242.209,146 L261.744,146 C263.092,146 264.186,144.907 264.186,143.558 C264.186,142.21 263.092,141.116 261.744,141.116 L242.209,141.116 C241.759,141.116 241.395,140.752 241.395,140.302 L241.395,81.698 C241.395,81.248 241.759,80.884 242.209,80.884 L276.395,80.884 L274.58,80.075 L289.231,96.354 L288.604,94.721 L288.604,109.372 C288.604,110.721 289.698,111.814 291.046,111.814 C292.395,111.814 293.488,110.721 293.488,109.372 Z" />
            <path d="M290.471,116.766 L283.96,118.343 C282.864,118.609 282.093,119.589 282.093,120.717 L282.093,137.86 C282.093,139.209 283.186,140.302 284.535,140.302 C285.883,140.302 286.976,139.209 286.976,137.86 L286.976,120.717 L285.109,123.09 L291.621,121.513 C292.932,121.195 293.737,119.875 293.419,118.565 C293.102,117.254 291.782,116.449 290.471,116.766 Z" />
            <path d="M273.953,137.047 C273.953,134.799 275.775,132.977 278.023,132.977 C280.271,132.977 282.093,134.799 282.093,137.047 C282.093,139.294 280.271,141.116 278.023,141.116 C275.775,141.116 273.953,139.294 273.953,137.047 Z M269.069,137.047 C269.069,141.991 273.078,146 278.023,146 C282.968,146 286.976,141.991 286.976,137.047 C286.976,132.102 282.968,128.093 278.023,128.093 C273.078,128.093 269.069,132.102 269.069,137.047 Z" />
            <path d="M272.325,78.442 L272.325,94.721 C272.325,96.07 273.419,97.163 274.767,97.163 L291.046,97.163 C292.395,97.163 293.488,96.07 293.488,94.721 C293.488,93.372 292.395,92.279 291.046,92.279 L274.767,92.279 L277.209,94.721 L277.209,78.442 C277.209,77.093 276.116,76 274.767,76 C273.419,76 272.325,77.093 272.325,78.442 Z" />
        </g>
        <g id="Regular-S">
            <path d="M493.488,109.372 L493.488,94.721 C493.488,94.118 493.265,93.536 492.861,93.087 L478.21,76.808 C477.747,76.294 477.087,76 476.395,76 L442.209,76 C439.062,76 436.511,78.551 436.511,81.698 L436.511,140.302 C436.511,143.449 439.062,146 442.209,146 L461.744,146 C463.093,146 464.186,144.907 464.186,143.558 C464.186,142.21 463.093,141.116 461.744,141.116 L442.209,141.116 C441.759,141.116 441.395,140.752 441.395,140.302 L441.395,81.698 C441.395,81.248 441.759,80.884 442.209,80.884 L476.395,80.884 L474.58,80.075 L489.231,96.354 L488.604,94.721 L488.604,109.372 C488.604,110.721 489.698,111.814 491.046,111.814 C492.395,111.814 493.488,110.721 493.488,109.372 Z" />
            <path d="M490.471,116.766 L483.96,118.343 C482.864,118.609 482.093,119.589 482.093,120.717 L482.093,137.86 C482.093,139.209 483.186,140.302 484.535,140.302 C485.883,140.302 486.976,139.209 486.976,137.86 L486.976,120.717 L485.109,123.09 L491.621,121.513 C492.932,121.195 493.737,119.875 493.419,118.565 C493.102,117.254 491.782,116.449 490.471,116.766 Z" />
            <path d="M473.953,137.047 C473.953,134.799 475.775,132.977 478.023,132.977 C480.271,132.977 482.093,134.799 482.093,137.047 C482.093,139.294 480.271,141.116 478.023,141.116 C475.775,141.116 473.953,139.294 473.953,137.047 Z M469.069,137.047 C469.069,141.991 473.078,146 478.023,146 C482.968,146 486.976,141.991 486.976,137.047 C486.976,132.102 482.968,128.093 478.023,128.093 C473.078,128.093 469.069,132.102 469.069,137.047 Z" />
            <path d="M472.325,78.442 L472.325,94.721 C472.325,96.07 473.419,97.163 474.767,97.163 L491.046,97.163 C492.395,97.163 493.488,96.07 493.488,94.721 C493.488,93.372 492.395,92.279 491.046,92.279 L474.767,92.279 L477.209,94.721 L477.209,78.442 C477.209,77.093 476.116,76 474.767,76 C473.419,76 472.325,77.093 472.325,78.442 Z" />
        </g>
        <g id="Black-S">
            <path d="M693.488,109.372 L693.488,94.721 C693.488,94.118 693.265,93.536 692.861,93.087 L678.21,76.808 C677.747,76.294 677.087,76 676.395,76 L642.209,76 C639.062,76 636.511,78.551 636.511,81.698 L636.511,140.302 C636.511,143.449 639.062,146 642.209,146 L661.744,146 C663.092,146 664.186,144.907 664.186,143.558 C664.186,142.21 663.092,141.116 661.744,141.116 L642.209,141.116 C641.759,141.116 641.395,140.752 641.395,140.302 L641.395,81.698 C641.395,81.248 641.759,80.884 642.209,80.884 L676.395,80.884 L674.58,80.075 L689.231,96.354 L688.604,94.721 L688.604,109.372 C688.604,110.721 689.698,111.814 691.046,111.814 C692.395,111.814 693.488,110.721 693.488,109.372 Z" />
            <path d="M690.471,116.766 L683.96,118.343 C682.864,118.609 682.093,119.589 682.093,120.717 L682.093,137.86 C682.093,139.209 683.186,140.302 684.535,140.302 C685.883,140.302 686.976,139.209 686.976,137.86 L686.976,120.717 L685.109,123.09 L691.621,121.513 C692.932,121.195 693.737,119.875 693.419,118.565 C693.102,117.254 691.782,116.449 690.471,116.766 Z" />
            <path d="M673.953,137.047 C673.953,134.799 675.775,132.977 678.023,132.977 C680.271,132.977 682.093,134.799 682.093,137.047 C682.093,139.294 680.271,141.116 678.023,141.116 C675.775,141.116 673.953,139.294 673.953,137.047 Z M669.069,137.047 C669.069,141.991 673.078,146 678.023,146 C682.968,146 686.976,141.991 686.976,137.047 C686.976,132.102 682.968,128.093 678.023,128.093 C673.078,128.093 669.069,132.102 669.069,137.047 Z" />
            <path d="M672.325,78.442 L672.325,94.721 C672.325,96.07 673.419,97.163 674.767,97.163 L691.046,97.163 C692.395,97.163 693.488,96.07 693.488,94.721 C693.488,93.372 692.395,92.279 691.046,92.279 L674.767,92.279 L677.209,94.721 L677.209,78.442 C677.209,77.093 676.116,76 674.767,76 C673.419,76 672.325,77.093 672.325,78.442 Z" />
        </g>
    </g>
</svg>