<?xml version="1.0" encoding="UTF-8"?>
<svg height="600" width="800" xmlns="http://www.w3.org/2000/svg" xmlns:xlink="http://www.w3.org/1999/xlink">
    <g id="Notes" font-family="'LucidaGrande', 'Lucida Grande', sans-serif" font-size="13">
        <rect fill="white" height="600.0" width="800.0" x="0.0" y="0.0" />
        <g font-size="13">
            <text x="18.0" y="176.0">Small</text>
            <text x="18.0" y="376.0">Medium</text>
            <text x="18.0" y="576.0">Large</text>
        </g>
        <g font-size="9">
            <text x="250.0" y="30.0">Ultralight</text>
            <text x="450.0" y="30.0">Regular</text>
            <text x="650.0" y="30.0">Black</text>
            <text id="template-version" fill="#505050" text-anchor="end" x="785.0" y="575.0">Template v.3.0</text>
            <a href="https://github.com/swhitty/SwiftDraw">
                <text fill="#505050" text-anchor="end" x="785.0" y="590.0">https://github.com/swhitty/SwiftDraw</text>
            </a>
        </g>
    </g>
    <g id="Guides" stroke="rgb(39, 170, 225)" stroke-width="0.5">
        <path id="Capline-S" d="M18,76 l800,0" />
        <path id="H-reference" d="M85,145.755 L87.685,145.755 L113.369,79.287 L114.052,79.287 L114.052,76 L112.148,76 L85,145.755 Z M95.693,121.536 L130.996,121.536 L130.263,119.313 L96.474,119.313 L95.693,121.536 Z M139.15,145.755 L141.787,145.755 L114.638,76 L113.466,76 L113.466,79.287 L139.15,145.755 Z" stroke="none" />
        <path id="Baseline-S" d="M18,146 l800,0" />
        <path id="left-margin-Ultralight-S" d="M220,56 l0,110" />
        <path id="right-margin-Ultralight-S" d="M310,56 l0,110" />
        <path id="left-margin-Regular-S" d="M420,56 l0,110" />
        <path id="right-margin-Regular-S" d="M510,56 l0,110" />
        <path id="left-margin-Black-S" d="M620,56 l0,110" />
        <path id="right-margin-Black-S" d="M710,56 l0,110" />
        <path id="Capline-M" d="M18,276 l800,0" />
        <path id="Baseline-M" d="M18,346 l800,0" />
        <path id="Capline-L" d="M18,476 l800,0" />
        <path id="Baseline-L" d="M18,546 l800,0" />
    </g>
    <g id="Symbols">
        <g id="Ultralight-S">
            <path d="M239.767,133.791 L239.767,143.558 C239.767,144.907 240.861,146 242.209,146 L287.791,146 C289.139,146 290.233,144.907 290.233,143.558 L290.233,133.791 C290.233,132.442 289.139,131.349 287.791,131.349 C286.442,131.349 285.349,132.442 285.349,133.791 L285.349,143.558 L287.791,141.116 L242.209,141.116 L244.651,143.558 L244.651,133.791 C244.651,132.442 243.558,131.349 242.209,131.349 C240.861,131.349 239.767,132.442 239.767,133.791 Z" />
            <path d="M290.233,104.488 L290.233,94.721 C290.233,94.166 290.044,93.628 289.697,93.196 L276.674,76.916 C276.211,76.337 275.509,76 274.767,76 L242.209,76 C240.861,76 239.767,77.093 239.767,78.442 L239.767,104.488 C239.767,105.837 240.861,106.93 242.209,106.93 C243.558,106.93 244.651,105.837 244.651,104.488 L244.651,78.442 L242.209,80.884 L274.767,80.884 L272.861,79.967 L285.884,96.246 L285.349,94.721 L285.349,104.488 C285.349,105.837 286.442,106.93 287.791,106.93 C289.139,106.93 290.233,105.837 290.233,104.488 Z" />
            <path d="M269.07,78.442 L269.07,94.721 C269.07,96.07 270.163,97.163 271.512,97.163 L287.791,97.163 C289.139,97.163 290.233,96.07 290.233,94.721 C290.233,93.372 289.139,92.279 287.791,92.279 L271.512,92.279 L273.953,94.721 L273.953,78.442 C273.953,77.093 272.86,76 271.512,76 C270.163,76 269.07,77.093 269.07,78.442 Z" />
            <path d="M251.977,93.907 L258.488,93.907 C259.837,93.907 260.93,92.814 260.93,91.465 C260.93,90.117 259.837,89.023 258.488,89.023 L251.977,89.023 C250.628,89.023 249.535,90.117 249.535,91.465 C249.535,92.814 250.628,93.907 251.977,93.907 Z" />
            <path d="M295.116,119.14 L295.116,130.535 C295.116,130.751 295.031,130.958 294.878,131.11 C294.725,131.263 294.518,131.349 294.302,131.349 L235.698,131.349 C235.482,131.349 235.275,131.263 235.122,131.11 C234.969,130.958 234.884,130.751 234.884,130.535 L234.884,107.744 C234.884,107.528 234.969,107.321 235.122,107.169 C235.275,107.016 235.482,106.93 235.698,106.93 L294.302,106.93 C294.518,106.93 294.725,107.016 294.878,107.169 C295.031,107.321 295.116,107.528 295.116,107.744 L295.116,119.14 Z M300,119.14 L300,107.744 C300,106.233 299.4,104.784 298.331,103.715 C297.263,102.647 295.813,102.047 294.302,102.047 L235.698,102.047 C234.187,102.047 232.737,102.647 231.669,103.715 C230.6,104.784 230,106.233 230,107.744 L230,130.535 C230,132.046 230.6,133.495 231.669,134.564 C232.737,135.632 234.187,136.233 235.698,136.233 L294.302,136.233 C295.813,136.233 297.263,135.632 298.331,134.564 C299.4,133.495 300,132.046 300,130.535 L300,119.14 Z" />
            <path d="M258.163,114.093 L267.93,127.116 C268.739,128.195 270.27,128.414 271.349,127.605 C272.428,126.795 272.646,125.265 271.837,124.186 L262.07,111.163 C261.261,110.084 259.73,109.865 258.651,110.674 C257.572,111.484 257.354,113.014 258.163,114.093 Z" />
            <path d="M267.93,111.163 L258.163,124.186 C257.354,125.265 257.572,126.795 258.651,127.605 C259.73,128.414 261.261,128.195 262.07,127.116 L271.837,114.093 C272.646,113.014 272.428,111.484 271.349,110.674 C270.27,109.865 268.739,110.084 267.93,111.163 Z" />
            <path d="M244.651,112.628 L244.651,125.651 C244.651,127 245.744,128.093 247.093,128.093 C248.442,128.093 249.535,127 249.535,125.651 L249.535,112.628 C249.535,111.279 248.442,110.186 247.093,110.186 C245.744,110.186 244.651,111.279 244.651,112.628 Z" />
            <path d="M242.209,115.07 L247.093,115.07 L251.977,115.07 C253.325,115.07 254.419,113.977 254.419,112.628 C254.419,111.279 253.325,110.186 251.977,110.186 L247.093,110.186 L242.209,110.186 C240.861,110.186 239.767,111.279 239.767,112.628 C239.767,113.977 240.861,115.07 242.209,115.07 Z" />
            <path d="M280.465,112.628 L280.465,125.651 C280.465,127 281.558,128.093 282.907,128.093 C284.256,128.093 285.349,127 285.349,125.651 L285.349,112.628 C285.349,111.279 284.256,110.186 282.907,110.186 C281.558,110.186 280.465,111.279 280.465,112.628 Z" />
            <path d="M278.023,115.07 L282.907,115.07 L287.791,115.07 C289.139,115.07 290.233,113.977 290.233,112.628 C290.233,111.279 289.139,110.186 287.791,110.186 L282.907,110.186 L278.023,110.186 C276.675,110.186 275.581,111.279 275.581,112.628 C275.581,113.977 276.675,115.07 278.023,115.07 Z" />
        </g>
        <g id="Regular-S">
            <path d="M439.767,133.791 L439.767,143.558 C439.767,144.907 440.861,146 442.209,146 L487.791,146 C489.139,146 490.233,144.907 490.233,143.558 L490.233,133.791 C490.233,132.442 489.139,131.349 487.791,131.349 C486.442,131.349 485.349,132.442 485.349,133.791 L485.349,143.558 L487.791,141.116 L442.209,141.116 L444.651,143.558 L444.651,133.791 C444.651,132.442 443.558,131.349 442.209,131.349 C440.861,131.349 439.767,132.442 439.767,133.791 Z" />
            <path d="M490.233,104.488 L490.233,94.721 C490.233,94.166 490.044,93.628 489.697,93.196 L476.674,76.916 C476.211,76.337 475.509,76 474.767,76 L442.209,76 C440.861,76 439.767,77.093 439.767,78.442 L439.767,104.488 C439.767,105.837 440.861,106.93 442.209,106.93 C443.558,106.93 444.651,105.837 444.651,104.488 L444.651,78.442 L442.209,80.884 L474.767,80.884 L472.861,79.967 L485.884,96.246 L485.349,94.721 L485.349,104.488 C485.349,105.837 486.442,106.93 487.791,106.93 C489.139,106.93 490.233,105.837 490.233,104.488 Z" />
            <path d="M469.07,78.442 L469.07,94.721 C469.07,96.07 470.163,97.163 471.512,97.163 L487.791,97.163 C489.139,97.163 490.233,96.07 490.233,94.721 C490.233,93.372 489.139,92.279 487.791,92.279 L471.512,92.279 L473.953,94.721 L473.953,78.442 C473.953,77.093 472.86,76 471.512,76 C470.163,76 469.07,77.093 469.07,78.442 Z" />
            <path d="M451.977,93.907 L458.488,93.907 C459.837,93.907 460.93,92.814 460.93,91.465 C460.93,90.117 459.837,89.023 458.488,89.023 L451.977,89.023 C450.628,89.023 449.535,90.117 449.535,91.465 C449.535,92.814 450.628,93.907 451.977,93.907 Z" />
            <path d="M495.116,119.14 L495.116,130.535 C495.116,130.751 495.031,130.958 494.878,131.11 C494.725,131.263 494.518,131.349 494.302,131.349 L435.698,131.349 C435.482,131.349 435.275,131.263 435.122,131.11 C434.969,130.958 434.884,130.751 434.884,130.535 L434.884,107.744 C434.884,107.528 434.969,107.321 435.122,107.169 C435.275,107.016 435.482,106.93 435.698,106.93 L494.302,106.93 C494.518,106.93 494.725,107.016 494.878,107.169 C495.031,107.321 495.116,107.528 495.116,107.744 L495.116,119.14 Z M500,119.14 L500,107.744 C500,106.233 499.4,104.784 498.331,103.715 C497.263,102.647 495.813,102.047 494.302,102.047 L435.698,102.047 C434.187,102.047 432.737,102.647 431.669,103.715 C430.6,104.784 430,106.233 430,107.744 L430,130.535 C430,132.046 430.6,133.495 431.669,134.564 C432.737,135.632 434.187,136.233 435.698,136.233 L494.302,136.233 C495.813,136.233 497.263,135.632 498.331,134.564 C499.4,133.495 500,132.046 500,130.535 L500,119.14 Z" />
            <path d="M458.163,114.093 L467.93,127.116 C468.739,128.195 470.27,128.414 471.349,127.605 C472.428,126.795 472.646,125.265 471.837,124.186 L462.07,111.163 C461.261,110.084 459.73,109.865 458.651,110.674 C457.572,111.484 457.354,113.014 458.163,114.093 Z" />
            <path d="M467.93,111.163 L458.163,124.186 C457.354,125.265 457.572,126.795 458.651,127.605 C459.73,128.414 461.261,128.195 462.07,127.116 L471.837,114.093 C472.646,113.014 472.428,111.484 471.349,110.674 C470.27,109.865 468.739,110.084 467.93,111.163 Z" />
            <path d="M444.651,112.628 L444.651,125.651 C444.651,127 445.744,128.093 447.093,128.093 C448.442,128.093 449.535,127 449.535,125.651 L449.535,112.628 C449.535,111.279 448.442,110.186 447.093,110.186 C445.744,110.186 444.651,111.279 444.651,112.628 Z" />
            <path d="M442.209,115.07 L447.093,115.07 L451.977,115.07 C453.325,115.07 454.419,113.977 454.419,112.628 C454.419,111.279 453.325,110.186 451.977,110.186 L447.093,110.186 L442.209,110.186 C440.861,110.186 439.767,111.279 439.767,112.628 C439.767,113.977 440.861,115.07 442.209,115.07 Z" />
            <path d="M480.465,112.628 L480.465,125.651 C480.465,127 481.558,128.093 482.907,128.093 C484.256,128.093 485.349,127 485.349,125.651 L485.349,112.628 C485.349,111.279 484.256,110.186 482.907,110.186 C481.558,110.186 480.465,111.279 480.465,112.628 Z" />
            <path d="M478.023,115.07 L482.907,115.07 L487.791,115.07 C489.139,115.07 490.233,113.977 490.233,112.628 C490.233,111.279 489.139,110.186 487.791,110.186 L482.907,110.186 L478.023,110.186 C476.675,110.186 475.581,111.279 475.581,112.628 C475.581,113.977 476.675,115.07 478.023,115.07 Z" />
        </g>
        <g id="Black-S">
            <path d="M639.767,133.791 L639.767,143.558 C639.767,144.907 640.861,146 642.209,146 L687.791,146 C689.139,146 690.233,144.907 690.233,143.558 L690.233,133.791 C690.233,132.442 689.139,131.349 687.791,131.349 C686.442,131.349 685.349,132.442 685.349,133.791 L685.349,143.558 L687.791,141.116 L642.209,141.116 L644.651,143.558 L644.651,133.791 C644.651,132.442 643.558,131.349 642.209,131.349 C640.861,131.349 639.767,132.442 639.767,133.791 Z" />
            <path d="M690.233,104.488 L690.233,94.721 C690.233,94.166 690.044,93.628 689.697,93.196 L676.674,76.916 C676.211,76.337 675.509,76 674.767,76 L642.209,76 C640.861,76 639.767,77.093 639.767,78.442 L639.767,104.488 C639.767,105.837 640.861,106.93 642.209,106.93 C643.558,106.93 644.651,105.837 644.651,104.488 L644.651,78.442 L642.209,80.884 L674.767,80.884 L672.861,79.967 L685.884,96.246 L685.349,94.721 L685.349,104.488 C685.349,105.837 686.442,106.93 687.791,106.93 C689.139,106.93 690.233,105.837 690.233,104.488 Z" />
            <path d="M669.07,78.442 L669.07,94.721 C669.07,96.07 670.163,97.163 671.512,97.163 L687.791,97.163 C689.139,97.163 690.233,96.07 690.233,94.721 C690.233,93.372 689.139,92.279 687.791,92.279 L671.512,92.279 L673.953,94.721 L673.953,78.442 C673.953,77.093 672.86,76 671.512,76 C670.163,76 669.07,77.093 669.07,78.442 Z" />
            <path d="M651.977,93.907 L658.488,93.907 C659.837,93.907 660.93,92.814 660.93,91.465 C660.93,90.117 659.837,89.023 658.488,89.023 L651.977,89.023 C650.628,89.023 649.535,90.117 649.535,91.465 C649.535,92.814 650.628,93.907 651.977,93.907 Z" />
            <path d="M695.116,119.14 L695.116,130.535 C695.116,130.751 695.031,130.958 694.878,131.11 C694.725,131.263 694.518,131.349 694.302,131.349 L635.698,131.349 C635.482,131.349 635.275,131.263 635.122,131.11 C634.969,130.958 634.884,130.751 634.884,130.535 L634.884,107.744 C634.884,107.528 634.969,107.321 635.122,107.169 C635.275,107.016 635.482,106.93 635.698,106.93 L694.302,106.93 C694.518,106.93 694.725,107.016 694.878,107.169 C695.031,107.321 695.116,107.528 695.116,107.744 L695.116,119.14 Z M700,119.14 L700,107.744 C700,106.233 699.4,104.784 698.331,103.715 C697.263,102.647 695.813,102.047 694.302,102.047 L635.698,102.047 C634.187,102.047 632.737,102.647 631.669,103.715 C630.6,104.784 630,106.233 630,107.744 L630,130.535 C630,132.046 630.6,133.495 631.669,134.564 C632.737,135.632 634.187,136.233 635.698,136.233 L694.302,136.233 C695.813,136.233 697.263,135.632 698.331,134.564 C699.4,133.495 700,132.046 700,130.535 L700,119.14 Z" />
            <path d="M658.163,114.093 L667.93,127.116 C668.739,128.195 670.27,128.414 671.349,127.605 C672.428,126.795 672.646,125.265 671.837,124.186 L662.07,111.163 C661.261,110.084 659.73,109.865 658.651,110.674 C657.572,111.484 657.354,113.014 658.163,114.093 Z" />
            <path d="M667.93,111.163 L658.163,124.186 C657.354,125.265 657.572,126.795 658.651,127.605 C659.73,128.414 661.261,128.195 662.07,127.116 L671.837,114.093 C672.646,113.014 672.428,111.484 671.349,110.674 C670.27,109.865 668.739,110.084 667.93,111.163 Z" />
            <path d="M644.651,112.628 L644.651,125.651 C644.651,127 645.744,128.093 647.093,128.093 C648.442,128.093 649.535,127 649.535,125.651 L649.535,112.628 C649.535,111.279 648.442,110.186 647.093,110.186 C645.744,110.186 644.651,111.279 644.651,112.628 Z" />
            <path d="M642.209,115.07 L647.093,115.07 L651.977,115.07 C653.325,115.07 654.419,113.977 654.419,112.628 C654.419,111.279 653.325,110.186 651.977,110.186 L647.093,110.186 L642.209,110.186 C640.861,110.186 639.767,111.279 639.767,112.628 C639.767,113.977 640.861,115.07 642.209,115.07 Z" />
            <path d="M680.465,112.628 L680.465,125.651 C680.465,127 681.558,128.093 682.907,128.093 C684.256,128.093 685.349,127 685.349,125.651 L685.349,112.628 C685.349,111.279 684.256,110.186 682.907,110.186 C681.558,110.186 680.465,111.279 680.465,112.628 Z" />
            <path d="M678.023,115.07 L682.907,115.07 L687.791,115.07 C689.139,115.07 690.233,113.977 690.233,112.628 C690.233,111.279 689.139,110.186 687.791,110.186 L682.907,110.186 L678.023,110.186 C676.675,110.186 675.581,111.279 675.581,112.628 C675.581,113.977 676.675,115.07 678.023,115.07 Z" />
        </g>
    </g>
</svg>