<?xml version="1.0" encoding="UTF-8"?>
<svg height="600" width="800" xmlns="http://www.w3.org/2000/svg" xmlns:xlink="http://www.w3.org/1999/xlink">
    <g id="Notes" font-family="'LucidaGrande', 'Lucida Grande', sans-serif" font-size="13">
        <rect fill="white" height="600.0" width="800.0" x="0.0" y="0.0" />
        <g font-size="13">
            <text x="18.0" y="176.0">Small</text>
            <text x="18.0" y="376.0">Medium</text>
            <text x="18.0" y="576.0">Large</text>
        </g>
        <g font-size="9">
            <text x="250.0" y="30.0">Ultralight</text>
            <text x="450.0" y="30.0">Regular</text>
            <text x="650.0" y="30.0">Black</text>
            <text id="template-version" fill="#505050" text-anchor="end" x="785.0" y="575.0">Template v.3.0</text>
            <a href="https://github.com/swhitty/SwiftDraw">
                <text fill="#505050" text-anchor="end" x="785.0" y="590.0">https://github.com/swhitty/SwiftDraw</text>
            </a>
        </g>
    </g>
    <g id="Guides" stroke="rgb(39, 170, 225)" stroke-width="0.5">
        <path id="Capline-S" d="M18,76 l800,0" />
        <path id="H-reference" d="M85,145.755 L87.685,145.755 L113.369,79.287 L114.052,79.287 L114.052,76 L112.148,76 L85,145.755 Z M95.693,121.536 L130.996,121.536 L130.263,119.313 L96.474,119.313 L95.693,121.536 Z M139.15,145.755 L141.787,145.755 L114.638,76 L113.466,76 L113.466,79.287 L139.15,145.755 Z" stroke="none" />
        <path id="Baseline-S" d="M18,146 l800,0" />
        <path id="left-margin-Ultralight-S" d="M221,56 l0,110" />
        <path id="right-margin-Ultralight-S" d="M309,56 l0,110" />
        <path id="left-margin-Regular-S" d="M421,56 l0,110" />
        <path id="right-margin-Regular-S" d="M509,56 l0,110" />
        <path id="left-margin-Black-S" d="M621,56 l0,110" />
        <path id="right-margin-Black-S" d="M709,56 l0,110" />
        <path id="Capline-M" d="M18,276 l800,0" />
        <path id="Baseline-M" d="M18,346 l800,0" />
        <path id="Capline-L" d="M18,476 l800,0" />
        <path id="Baseline-L" d="M18,546 l800,0" />
    </g>
    <g id="Symbols">
        <g id="Ultralight-S">
            <path d="M242.209,146 L287.791,146 C290.938,146 293.488,143.449 293.488,140.302 L293.488,94.721 C293.488,93.372 292.395,92.279 291.047,92.279 L274.767,92.279 L277.209,94.721 L277.209,78.442 C277.209,77.093 276.116,76 274.767,76 L242.209,76 C239.063,76 236.512,78.551 236.512,81.698 L236.512,140.302 C236.512,143.449 239.063,146 242.209,146 Z M242.209,141.116 C241.76,141.116 241.395,140.752 241.395,140.302 L241.395,81.698 C241.395,81.248 241.76,80.884 242.209,80.884 L274.767,80.884 L272.326,78.442 L272.326,94.721 C272.326,96.07 273.419,97.163 274.767,97.163 L291.047,97.163 L288.605,94.721 L288.605,140.302 C288.605,140.752 288.24,141.116 287.791,141.116 L242.209,141.116 Z" />
            <path d="M273.041,80.169 L289.32,96.448 C290.273,97.401 291.82,97.401 292.773,96.448 C293.727,95.494 293.727,93.948 292.773,92.994 L276.494,76.715 C275.54,75.762 273.994,75.762 273.041,76.715 C272.087,77.669 272.087,79.215 273.041,80.169 Z" />
            <path d="M253.605,115.07 L265,115.07 L276.395,115.07 C277.744,115.07 278.837,113.977 278.837,112.628 C278.837,111.279 277.744,110.186 276.395,110.186 L265,110.186 L253.605,110.186 C252.256,110.186 251.163,111.279 251.163,112.628 C251.163,113.977 252.256,115.07 253.605,115.07 Z" />
            <path d="M253.605,124.837 L265,124.837 L276.395,124.837 C277.744,124.837 278.837,123.744 278.837,122.395 C278.837,121.047 277.744,119.953 276.395,119.953 L265,119.953 L253.605,119.953 C252.256,119.953 251.163,121.047 251.163,122.395 C251.163,123.744 252.256,124.837 253.605,124.837 Z" />
            <path d="M257.674,106.116 L257.674,128.907 C257.674,130.256 258.768,131.349 260.116,131.349 C261.465,131.349 262.558,130.256 262.558,128.907 L262.558,106.116 C262.558,104.768 261.465,103.674 260.116,103.674 C258.768,103.674 257.674,104.768 257.674,106.116 Z" />
            <path d="M267.442,106.116 L267.442,128.907 C267.442,130.256 268.535,131.349 269.884,131.349 C271.232,131.349 272.326,130.256 272.326,128.907 L272.326,106.116 C272.326,104.768 271.232,103.674 269.884,103.674 C268.535,103.674 267.442,104.768 267.442,106.116 Z" />
        </g>
        <g id="Regular-S">
            <path d="M442.209,146 L487.791,146 C490.938,146 493.488,143.449 493.488,140.302 L493.488,94.721 C493.488,93.372 492.395,92.279 491.047,92.279 L474.767,92.279 L477.209,94.721 L477.209,78.442 C477.209,77.093 476.116,76 474.767,76 L442.209,76 C439.063,76 436.512,78.551 436.512,81.698 L436.512,140.302 C436.512,143.449 439.063,146 442.209,146 Z M442.209,141.116 C441.76,141.116 441.395,140.752 441.395,140.302 L441.395,81.698 C441.395,81.248 441.76,80.884 442.209,80.884 L474.767,80.884 L472.326,78.442 L472.326,94.721 C472.326,96.07 473.419,97.163 474.767,97.163 L491.047,97.163 L488.605,94.721 L488.605,140.302 C488.605,140.752 488.24,141.116 487.791,141.116 L442.209,141.116 Z" />
            <path d="M473.041,80.169 L489.32,96.448 C490.273,97.401 491.82,97.401 492.773,96.448 C493.727,95.494 493.727,93.948 492.773,92.994 L476.494,76.715 C475.54,75.762 473.994,75.762 473.041,76.715 C472.087,77.669 472.087,79.215 473.041,80.169 Z" />
            <path d="M453.605,115.07 L465,115.07 L476.395,115.07 C477.744,115.07 478.837,113.977 478.837,112.628 C478.837,111.279 477.744,110.186 476.395,110.186 L465,110.186 L453.605,110.186 C452.256,110.186 451.163,111.279 451.163,112.628 C451.163,113.977 452.256,115.07 453.605,115.07 Z" />
            <path d="M453.605,124.837 L465,124.837 L476.395,124.837 C477.744,124.837 478.837,123.744 478.837,122.395 C478.837,121.047 477.744,119.953 476.395,119.953 L465,119.953 L453.605,119.953 C452.256,119.953 451.163,121.047 451.163,122.395 C451.163,123.744 452.256,124.837 453.605,124.837 Z" />
            <path d="M457.674,106.116 L457.674,128.907 C457.674,130.256 458.768,131.349 460.116,131.349 C461.465,131.349 462.558,130.256 462.558,128.907 L462.558,106.116 C462.558,104.768 461.465,103.674 460.116,103.674 C458.768,103.674 457.674,104.768 457.674,106.116 Z" />
            <path d="M467.442,106.116 L467.442,128.907 C467.442,130.256 468.535,131.349 469.884,131.349 C471.232,131.349 472.326,130.256 472.326,128.907 L472.326,106.116 C472.326,104.768 471.232,103.674 469.884,103.674 C468.535,103.674 467.442,104.768 467.442,106.116 Z" />
        </g>
        <g id="Black-S">
            <path d="M642.209,146 L687.791,146 C690.938,146 693.488,143.449 693.488,140.302 L693.488,94.721 C693.488,93.372 692.395,92.279 691.047,92.279 L674.767,92.279 L677.209,94.721 L677.209,78.442 C677.209,77.093 676.116,76 674.767,76 L642.209,76 C639.063,76 636.512,78.551 636.512,81.698 L636.512,140.302 C636.512,143.449 639.063,146 642.209,146 Z M642.209,141.116 C641.76,141.116 641.395,140.752 641.395,140.302 L641.395,81.698 C641.395,81.248 641.76,80.884 642.209,80.884 L674.767,80.884 L672.326,78.442 L672.326,94.721 C672.326,96.07 673.419,97.163 674.767,97.163 L691.047,97.163 L688.605,94.721 L688.605,140.302 C688.605,140.752 688.24,141.116 687.791,141.116 L642.209,141.116 Z" />
            <path d="M673.041,80.169 L689.32,96.448 C690.273,97.401 691.82,97.401 692.773,96.448 C693.727,95.494 693.727,93.948 692.773,92.994 L676.494,76.715 C675.541,75.762 673.994,75.762 673.041,76.715 C672.087,77.669 672.087,79.215 673.041,80.169 Z" />
            <path d="M653.605,115.07 L665,115.07 L676.395,115.07 C677.744,115.07 678.837,113.977 678.837,112.628 C678.837,111.279 677.744,110.186 676.395,110.186 L665,110.186 L653.605,110.186 C652.256,110.186 651.163,111.279 651.163,112.628 C651.163,113.977 652.256,115.07 653.605,115.07 Z" />
            <path d="M653.605,124.837 L665,124.837 L676.395,124.837 C677.744,124.837 678.837,123.744 678.837,122.395 C678.837,121.047 677.744,119.953 676.395,119.953 L665,119.953 L653.605,119.953 C652.256,119.953 651.163,121.047 651.163,122.395 C651.163,123.744 652.256,124.837 653.605,124.837 Z" />
            <path d="M657.674,106.116 L657.674,128.907 C657.674,130.256 658.768,131.349 660.116,131.349 C661.465,131.349 662.558,130.256 662.558,128.907 L662.558,106.116 C662.558,104.768 661.465,103.674 660.116,103.674 C658.768,103.674 657.674,104.768 657.674,106.116 Z" />
            <path d="M667.442,106.116 L667.442,128.907 C667.442,130.256 668.535,131.349 669.884,131.349 C671.232,131.349 672.326,130.256 672.326,128.907 L672.326,106.116 C672.326,104.768 671.232,103.674 669.884,103.674 C668.535,103.674 667.442,104.768 667.442,106.116 Z" />
        </g>
    </g>
</svg>