<?xml version="1.0" encoding="UTF-8"?>
<svg height="600" width="800" xmlns="http://www.w3.org/2000/svg" xmlns:xlink="http://www.w3.org/1999/xlink">
    <g id="Notes" font-family="'LucidaGrande', 'Lucida Grande', sans-serif" font-size="13">
        <rect fill="white" height="600.0" width="800.0" x="0.0" y="0.0" />
        <g font-size="13">
            <text x="18.0" y="176.0">Small</text>
            <text x="18.0" y="376.0">Medium</text>
            <text x="18.0" y="576.0">Large</text>
        </g>
        <g font-size="9">
            <text x="250.0" y="30.0">Ultralight</text>
            <text x="450.0" y="30.0">Regular</text>
            <text x="650.0" y="30.0">Black</text>
            <text id="template-version" fill="#505050" text-anchor="end" x="785.0" y="575.0">Template v.3.0</text>
            <a href="https://github.com/swhitty/SwiftDraw">
                <text fill="#505050" text-anchor="end" x="785.0" y="590.0">https://github.com/swhitty/SwiftDraw</text>
            </a>
        </g>
    </g>
    <g id="Guides" stroke="rgb(39, 170, 225)" stroke-width="0.5">
        <path id="Capline-S" d="M18,76 l800,0" />
        <path id="H-reference" d="M85,145.755 L87.685,145.755 L113.369,79.287 L114.052,79.287 L114.052,76 L112.148,76 L85,145.755 Z M95.693,121.536 L130.996,121.536 L130.263,119.313 L96.474,119.313 L95.693,121.536 Z M139.15,145.755 L141.787,145.755 L114.638,76 L113.466,76 L113.466,79.287 L139.15,145.755 Z" stroke="none" />
        <path id="Baseline-S" d="M18,146 l800,0" />
        <path id="left-margin-Ultralight-S" d="M220,56 l0,110" />
        <path id="right-margin-Ultralight-S" d="M310,56 l0,110" />
        <path id="left-margin-Regular-S" d="M420,56 l0,110" />
        <path id="right-margin-Regular-S" d="M510,56 l0,110" />
        <path id="left-margin-Black-S" d="M620,56 l0,110" />
        <path id="right-margin-Black-S" d="M710,56 l0,110" />
        <path id="Capline-M" d="M18,276 l800,0" />
        <path id="Baseline-M" d="M18,346 l800,0" />
        <path id="Capline-L" d="M18,476 l800,0" />
        <path id="Baseline-L" d="M18,546 l800,0" />
    </g>
    <g id="Symbols">
        <g id="Ultralight-S">
            <path d="M294.615,111 L294.615,137.923 C294.615,138.637 294.332,139.322 293.827,139.827 C293.322,140.332 292.637,140.615 291.923,140.615 L238.077,140.615 C237.363,140.615 236.678,140.332 236.173,139.827 C235.668,139.322 235.385,138.637 235.385,137.923 L235.385,84.077 C235.385,83.363 235.668,82.678 236.173,82.173 C236.678,81.668 237.363,81.385 238.077,81.385 L291.923,81.385 C292.637,81.385 293.322,81.668 293.827,82.173 C294.332,82.678 294.615,83.363 294.615,84.077 L294.615,111 Z M300,111 L300,84.077 C300,81.935 299.149,79.88 297.634,78.366 C296.12,76.851 294.065,76 291.923,76 L238.077,76 C235.935,76 233.88,76.851 232.366,78.366 C230.851,79.88 230,81.935 230,84.077 L230,137.923 C230,140.065 230.851,142.12 232.366,143.634 C233.88,145.149 235.935,146 238.077,146 L291.923,146 C294.065,146 296.12,145.149 297.634,143.634 C299.149,142.12 300,140.065 300,137.923 L300,111 Z" />
            <path d="M247.949,78.692 L247.949,143.308 C247.949,144.795 249.154,146 250.641,146 C252.128,146 253.333,144.795 253.333,143.308 L253.333,78.692 C253.333,77.205 252.128,76 250.641,76 C249.154,76 247.949,77.205 247.949,78.692 Z" />
            <path d="M276.667,78.692 L276.667,143.308 C276.667,144.795 277.872,146 279.359,146 C280.846,146 282.051,144.795 282.051,143.308 L282.051,78.692 C282.051,77.205 280.846,76 279.359,76 C277.872,76 276.667,77.205 276.667,78.692 Z" />
            <path d="M232.692,97.538 L250.641,97.538 C252.128,97.538 253.333,96.333 253.333,94.846 C253.333,93.359 252.128,92.154 250.641,92.154 L232.692,92.154 C231.205,92.154 230,93.359 230,94.846 C230,96.333 231.205,97.538 232.692,97.538 Z" />
            <path d="M279.359,97.538 L297.308,97.538 C298.795,97.538 300,96.333 300,94.846 C300,93.359 298.795,92.154 297.308,92.154 L279.359,92.154 C277.872,92.154 276.667,93.359 276.667,94.846 C276.667,96.333 277.872,97.538 279.359,97.538 Z" />
            <path d="M232.692,129.846 L250.641,129.846 C252.128,129.846 253.333,128.641 253.333,127.154 C253.333,125.667 252.128,124.462 250.641,124.462 L232.692,124.462 C231.205,124.462 230,125.667 230,127.154 C230,128.641 231.205,129.846 232.692,129.846 Z" />
            <path d="M232.692,113.692 L297.308,113.692 C298.795,113.692 300,112.487 300,111 C300,109.513 298.795,108.308 297.308,108.308 L232.692,108.308 C231.205,108.308 230,109.513 230,111 C230,112.487 231.205,113.692 232.692,113.692 Z" />
            <path d="M279.359,129.846 L297.308,129.846 C298.795,129.846 300,128.641 300,127.154 C300,125.667 298.795,124.462 297.308,124.462 L279.359,124.462 C277.872,124.462 276.667,125.667 276.667,127.154 C276.667,128.641 277.872,129.846 279.359,129.846 Z" />
        </g>
        <g id="Regular-S">
            <path d="M494.615,111 L494.615,137.923 C494.615,138.637 494.332,139.322 493.827,139.827 C493.322,140.332 492.637,140.615 491.923,140.615 L438.077,140.615 C437.363,140.615 436.678,140.332 436.173,139.827 C435.668,139.322 435.385,138.637 435.385,137.923 L435.385,84.077 C435.385,83.363 435.668,82.678 436.173,82.173 C436.678,81.668 437.363,81.385 438.077,81.385 L491.923,81.385 C492.637,81.385 493.322,81.668 493.827,82.173 C494.332,82.678 494.615,83.363 494.615,84.077 L494.615,111 Z M500,111 L500,84.077 C500,81.935 499.149,79.88 497.634,78.366 C496.12,76.851 494.065,76 491.923,76 L438.077,76 C435.935,76 433.88,76.851 432.366,78.366 C430.851,79.88 430,81.935 430,84.077 L430,137.923 C430,140.065 430.851,142.12 432.366,143.634 C433.88,145.149 435.935,146 438.077,146 L491.923,146 C494.065,146 496.12,145.149 497.634,143.634 C499.149,142.12 500,140.065 500,137.923 L500,111 Z" />
            <path d="M447.949,78.692 L447.949,143.308 C447.949,144.795 449.154,146 450.641,146 C452.128,146 453.333,144.795 453.333,143.308 L453.333,78.692 C453.333,77.205 452.128,76 450.641,76 C449.154,76 447.949,77.205 447.949,78.692 Z" />
            <path d="M476.667,78.692 L476.667,143.308 C476.667,144.795 477.872,146 479.359,146 C480.846,146 482.051,144.795 482.051,143.308 L482.051,78.692 C482.051,77.205 480.846,76 479.359,76 C477.872,76 476.667,77.205 476.667,78.692 Z" />
            <path d="M432.692,97.538 L450.641,97.538 C452.128,97.538 453.333,96.333 453.333,94.846 C453.333,93.359 452.128,92.154 450.641,92.154 L432.692,92.154 C431.205,92.154 430,93.359 430,94.846 C430,96.333 431.205,97.538 432.692,97.538 Z" />
            <path d="M479.359,97.538 L497.308,97.538 C498.795,97.538 500,96.333 500,94.846 C500,93.359 498.795,92.154 497.308,92.154 L479.359,92.154 C477.872,92.154 476.667,93.359 476.667,94.846 C476.667,96.333 477.872,97.538 479.359,97.538 Z" />
            <path d="M432.692,129.846 L450.641,129.846 C452.128,129.846 453.333,128.641 453.333,127.154 C453.333,125.667 452.128,124.462 450.641,124.462 L432.692,124.462 C431.205,124.462 430,125.667 430,127.154 C430,128.641 431.205,129.846 432.692,129.846 Z" />
            <path d="M432.692,113.692 L497.308,113.692 C498.795,113.692 500,112.487 500,111 C500,109.513 498.795,108.308 497.308,108.308 L432.692,108.308 C431.205,108.308 430,109.513 430,111 C430,112.487 431.205,113.692 432.692,113.692 Z" />
            <path d="M479.359,129.846 L497.308,129.846 C498.795,129.846 500,128.641 500,127.154 C500,125.667 498.795,124.462 497.308,124.462 L479.359,124.462 C477.872,124.462 476.667,125.667 476.667,127.154 C476.667,128.641 477.872,129.846 479.359,129.846 Z" />
        </g>
        <g id="Black-S">
            <path d="M694.615,111 L694.615,137.923 C694.615,138.637 694.332,139.322 693.827,139.827 C693.322,140.332 692.637,140.615 691.923,140.615 L638.077,140.615 C637.363,140.615 636.678,140.332 636.173,139.827 C635.668,139.322 635.385,138.637 635.385,137.923 L635.385,84.077 C635.385,83.363 635.668,82.678 636.173,82.173 C636.678,81.668 637.363,81.385 638.077,81.385 L691.923,81.385 C692.637,81.385 693.322,81.668 693.827,82.173 C694.332,82.678 694.615,83.363 694.615,84.077 L694.615,111 Z M700,111 L700,84.077 C700,81.935 699.149,79.88 697.634,78.366 C696.12,76.851 694.065,76 691.923,76 L638.077,76 C635.935,76 633.88,76.851 632.366,78.366 C630.851,79.88 630,81.935 630,84.077 L630,137.923 C630,140.065 630.851,142.12 632.366,143.634 C633.88,145.149 635.935,146 638.077,146 L691.923,146 C694.065,146 696.12,145.149 697.634,143.634 C699.149,142.12 700,140.065 700,137.923 L700,111 Z" />
            <path d="M647.949,78.692 L647.949,143.308 C647.949,144.795 649.154,146 650.641,146 C652.128,146 653.333,144.795 653.333,143.308 L653.333,78.692 C653.333,77.205 652.128,76 650.641,76 C649.154,76 647.949,77.205 647.949,78.692 Z" />
            <path d="M676.667,78.692 L676.667,143.308 C676.667,144.795 677.872,146 679.359,146 C680.846,146 682.051,144.795 682.051,143.308 L682.051,78.692 C682.051,77.205 680.846,76 679.359,76 C677.872,76 676.667,77.205 676.667,78.692 Z" />
            <path d="M632.692,97.538 L650.641,97.538 C652.128,97.538 653.333,96.333 653.333,94.846 C653.333,93.359 652.128,92.154 650.641,92.154 L632.692,92.154 C631.205,92.154 630,93.359 630,94.846 C630,96.333 631.205,97.538 632.692,97.538 Z" />
            <path d="M679.359,97.538 L697.308,97.538 C698.795,97.538 700,96.333 700,94.846 C700,93.359 698.795,92.154 697.308,92.154 L679.359,92.154 C677.872,92.154 676.667,93.359 676.667,94.846 C676.667,96.333 677.872,97.538 679.359,97.538 Z" />
            <path d="M632.692,129.846 L650.641,129.846 C652.128,129.846 653.333,128.641 653.333,127.154 C653.333,125.667 652.128,124.462 650.641,124.462 L632.692,124.462 C631.205,124.462 630,125.667 630,127.154 C630,128.641 631.205,129.846 632.692,129.846 Z" />
            <path d="M632.692,113.692 L697.308,113.692 C698.795,113.692 700,112.487 700,111 C700,109.513 698.795,108.308 697.308,108.308 L632.692,108.308 C631.205,108.308 630,109.513 630,111 C630,112.487 631.205,113.692 632.692,113.692 Z" />
            <path d="M679.359,129.846 L697.308,129.846 C698.795,129.846 700,128.641 700,127.154 C700,125.667 698.795,124.462 697.308,124.462 L679.359,124.462 C677.872,124.462 676.667,125.667 676.667,127.154 C676.667,128.641 677.872,129.846 679.359,129.846 Z" />
        </g>
    </g>
</svg>