<?xml version="1.0" encoding="UTF-8"?>
<svg height="600" width="800" xmlns="http://www.w3.org/2000/svg" xmlns:xlink="http://www.w3.org/1999/xlink">
    <g id="Notes" font-family="'LucidaGrande', 'Lucida Grande', sans-serif" font-size="13">
        <rect fill="white" height="600.0" width="800.0" x="0.0" y="0.0" />
        <g font-size="13">
            <text x="18.0" y="176.0">Small</text>
            <text x="18.0" y="376.0">Medium</text>
            <text x="18.0" y="576.0">Large</text>
        </g>
        <g font-size="9">
            <text x="250.0" y="30.0">Ultralight</text>
            <text x="450.0" y="30.0">Regular</text>
            <text x="650.0" y="30.0">Black</text>
            <text id="template-version" fill="#505050" text-anchor="end" x="785.0" y="575.0">Template v.3.0</text>
            <a href="https://github.com/swhitty/SwiftDraw">
                <text fill="#505050" text-anchor="end" x="785.0" y="590.0">https://github.com/swhitty/SwiftDraw</text>
            </a>
        </g>
    </g>
    <g id="Guides" stroke="rgb(39, 170, 225)" stroke-width="0.5">
        <path id="Capline-S" d="M18,76 l800,0" />
        <path id="H-reference" d="M85,145.755 L87.685,145.755 L113.369,79.287 L114.052,79.287 L114.052,76 L112.148,76 L85,145.755 Z M95.693,121.536 L130.996,121.536 L130.263,119.313 L96.474,119.313 L95.693,121.536 Z M139.15,145.755 L141.787,145.755 L114.638,76 L113.466,76 L113.466,79.287 L139.15,145.755 Z" stroke="none" />
        <path id="Baseline-S" d="M18,146 l800,0" />
        <path id="left-margin-Ultralight-S" d="M217.08,56 l0,110" />
        <path id="right-margin-Ultralight-S" d="M312.92,56 l0,110" />
        <path id="left-margin-Regular-S" d="M417.08,56 l0,110" />
        <path id="right-margin-Regular-S" d="M512.92,56 l0,110" />
        <path id="left-margin-Black-S" d="M617.08,56 l0,110" />
        <path id="right-margin-Black-S" d="M712.92,56 l0,110" />
        <path id="Capline-M" d="M18,276 l800,0" />
        <path id="Baseline-M" d="M18,346 l800,0" />
        <path id="Capline-L" d="M18,476 l800,0" />
        <path id="Baseline-L" d="M18,546 l800,0" />
    </g>
    <g id="Symbols">
        <g id="Ultralight-S">
            <path d="M227.786,80.813 L255.785,113.513 L255.084,111.616 L255.084,136.166 C255.084,137.276 255.714,138.29 256.709,138.782 L270.708,145.695 C272.647,146.652 274.916,145.242 274.916,143.08 L274.916,111.616 L274.215,113.513 L302.214,80.813 C303.834,78.921 302.489,76 299.998,76 L230.002,76 C227.511,76 226.166,78.921 227.786,80.813 Z M232.217,77.02 L230.002,81.833 L299.998,81.833 L297.783,77.02 L269.784,109.719 C269.332,110.248 269.083,110.92 269.083,111.616 L269.083,143.08 L273.291,140.465 L259.292,133.551 L260.917,136.166 L260.917,111.616 C260.917,110.92 260.668,110.248 260.216,109.719 L232.217,77.02 Z" />
        </g>
        <g id="Regular-S">
            <path d="M427.786,80.813 L455.785,113.513 L455.084,111.616 L455.084,136.166 C455.084,137.276 455.714,138.29 456.709,138.782 L470.708,145.695 C472.647,146.652 474.916,145.242 474.916,143.08 L474.916,111.616 L474.215,113.513 L502.214,80.813 C503.834,78.921 502.489,76 499.998,76 L430.002,76 C427.511,76 426.166,78.921 427.786,80.813 Z M432.217,77.02 L430.002,81.833 L499.998,81.833 L497.783,77.02 L469.784,109.719 C469.332,110.248 469.083,110.92 469.083,111.616 L469.083,143.08 L473.291,140.465 L459.292,133.551 L460.917,136.166 L460.917,111.616 C460.917,110.92 460.668,110.248 460.216,109.719 L432.217,77.02 Z" />
        </g>
        <g id="Black-S">
            <path d="M627.786,80.813 L655.785,113.513 L655.084,111.616 L655.084,136.166 C655.084,137.276 655.714,138.29 656.709,138.782 L670.708,145.695 C672.647,146.652 674.916,145.242 674.916,143.08 L674.916,111.616 L674.215,113.513 L702.214,80.813 C703.834,78.921 702.489,76 699.998,76 L630.002,76 C627.511,76 626.166,78.921 627.786,80.813 Z M632.217,77.02 L630.002,81.833 L699.998,81.833 L697.783,77.02 L669.784,109.719 C669.332,110.248 669.083,110.92 669.083,111.616 L669.083,143.08 L673.291,140.465 L659.292,133.551 L660.917,136.166 L660.917,111.616 C660.917,110.92 660.668,110.248 660.216,109.719 L632.217,77.02 Z" />
        </g>
    </g>
</svg>