<?xml version="1.0" encoding="UTF-8"?>
<svg height="600" width="800" xmlns="http://www.w3.org/2000/svg" xmlns:xlink="http://www.w3.org/1999/xlink">
    <g id="Notes" font-family="'LucidaGrande', 'Lucida Grande', sans-serif" font-size="13">
        <rect fill="white" height="600.0" width="800.0" x="0.0" y="0.0" />
        <g font-size="13">
            <text x="18.0" y="176.0">Small</text>
            <text x="18.0" y="376.0">Medium</text>
            <text x="18.0" y="576.0">Large</text>
        </g>
        <g font-size="9">
            <text x="250.0" y="30.0">Ultralight</text>
            <text x="450.0" y="30.0">Regular</text>
            <text x="650.0" y="30.0">Black</text>
            <text id="template-version" fill="#505050" text-anchor="end" x="785.0" y="575.0">Template v.3.0</text>
            <a href="https://github.com/swhitty/SwiftDraw">
                <text fill="#505050" text-anchor="end" x="785.0" y="590.0">https://github.com/swhitty/SwiftDraw</text>
            </a>
        </g>
    </g>
    <g id="Guides" stroke="rgb(39, 170, 225)" stroke-width="0.5">
        <path id="Capline-S" d="M18,76 l800,0" />
        <path id="H-reference" d="M85,145.755 L87.685,145.755 L113.369,79.287 L114.052,79.287 L114.052,76 L112.148,76 L85,145.755 Z M95.693,121.536 L130.996,121.536 L130.263,119.313 L96.474,119.313 L95.693,121.536 Z M139.15,145.755 L141.787,145.755 L114.638,76 L113.466,76 L113.466,79.287 L139.15,145.755 Z" stroke="none" />
        <path id="Baseline-S" d="M18,146 l800,0" />
        <path id="left-margin-Ultralight-S" d="M220,56 l0,110" />
        <path id="right-margin-Ultralight-S" d="M310,56 l0,110" />
        <path id="left-margin-Regular-S" d="M420,56 l0,110" />
        <path id="right-margin-Regular-S" d="M510,56 l0,110" />
        <path id="left-margin-Black-S" d="M620,56 l0,110" />
        <path id="right-margin-Black-S" d="M710,56 l0,110" />
        <path id="Capline-M" d="M18,276 l800,0" />
        <path id="Baseline-M" d="M18,346 l800,0" />
        <path id="Capline-L" d="M18,476 l800,0" />
        <path id="Baseline-L" d="M18,546 l800,0" />
    </g>
    <g id="Symbols">
        <g id="Ultralight-S">
            <path d="M265,146 C284.33,146 300,130.33 300,111 C300,91.67 284.33,76 265,76 C245.67,76 230,91.67 230,111 C230,130.33 245.67,146 265,146 Z M265,141.116 C248.367,141.116 234.884,127.633 234.884,111 C234.884,94.367 248.367,80.884 265,80.884 C281.633,80.884 295.116,94.367 295.116,111 C295.116,127.633 281.633,141.116 265,141.116 Z" />
            <path d="M255.233,110.186 L274.767,110.186 C276.116,110.186 277.209,109.093 277.209,107.744 C277.209,106.396 276.116,105.302 274.767,105.302 L255.233,105.302 C253.884,105.302 252.791,106.396 252.791,107.744 C252.791,109.093 253.884,110.186 255.233,110.186 Z" />
            <path d="M255.233,119.953 L274.767,119.953 C276.116,119.953 277.209,118.86 277.209,117.512 C277.209,116.163 276.116,115.07 274.767,115.07 L255.233,115.07 C253.884,115.07 252.791,116.163 252.791,117.512 C252.791,118.86 253.884,119.953 255.233,119.953 Z" />
            <path d="M262.572,107.744 L262.572,127.279 C262.572,128.628 263.665,129.721 265.014,129.721 C266.362,129.721 267.455,128.628 267.455,127.279 L267.455,107.744 C267.455,106.396 266.362,105.302 265.014,105.302 C263.665,105.302 262.572,106.396 262.572,107.744 Z" />
            <path d="M273.041,94.622 L263.273,104.39 L266.727,104.39 L256.959,94.622 C256.006,93.669 254.46,93.669 253.506,94.622 C252.552,95.576 252.552,97.122 253.506,98.075 L263.273,107.843 C264.227,108.797 265.773,108.797 266.727,107.843 L276.494,98.075 C277.448,97.122 277.448,95.576 276.494,94.622 C275.54,93.669 273.994,93.669 273.041,94.622 Z" />
        </g>
        <g id="Regular-S">
            <path d="M465,146 C484.33,146 500,130.33 500,111 C500,91.67 484.33,76 465,76 C445.67,76 430,91.67 430,111 C430,130.33 445.67,146 465,146 Z M465,141.116 C448.367,141.116 434.884,127.633 434.884,111 C434.884,94.367 448.367,80.884 465,80.884 C481.633,80.884 495.116,94.367 495.116,111 C495.116,127.633 481.633,141.116 465,141.116 Z" />
            <path d="M455.233,110.186 L474.767,110.186 C476.116,110.186 477.209,109.093 477.209,107.744 C477.209,106.396 476.116,105.302 474.767,105.302 L455.233,105.302 C453.884,105.302 452.791,106.396 452.791,107.744 C452.791,109.093 453.884,110.186 455.233,110.186 Z" />
            <path d="M455.233,119.953 L474.767,119.953 C476.116,119.953 477.209,118.86 477.209,117.512 C477.209,116.163 476.116,115.07 474.767,115.07 L455.233,115.07 C453.884,115.07 452.791,116.163 452.791,117.512 C452.791,118.86 453.884,119.953 455.233,119.953 Z" />
            <path d="M462.572,107.744 L462.572,127.279 C462.572,128.628 463.665,129.721 465.014,129.721 C466.362,129.721 467.455,128.628 467.455,127.279 L467.455,107.744 C467.455,106.396 466.362,105.302 465.014,105.302 C463.665,105.302 462.572,106.396 462.572,107.744 Z" />
            <path d="M473.041,94.622 L463.273,104.39 L466.727,104.39 L456.959,94.622 C456.006,93.669 454.46,93.669 453.506,94.622 C452.552,95.576 452.552,97.122 453.506,98.075 L463.273,107.843 C464.227,108.797 465.773,108.797 466.727,107.843 L476.494,98.075 C477.448,97.122 477.448,95.576 476.494,94.622 C475.54,93.669 473.994,93.669 473.041,94.622 Z" />
        </g>
        <g id="Black-S">
            <path d="M665,146 C684.33,146 700,130.33 700,111 C700,91.67 684.33,76 665,76 C645.67,76 630,91.67 630,111 C630,130.33 645.67,146 665,146 Z M665,141.116 C648.367,141.116 634.884,127.633 634.884,111 C634.884,94.367 648.367,80.884 665,80.884 C681.633,80.884 695.116,94.367 695.116,111 C695.116,127.633 681.633,141.116 665,141.116 Z" />
            <path d="M655.233,110.186 L674.767,110.186 C676.116,110.186 677.209,109.093 677.209,107.744 C677.209,106.396 676.116,105.302 674.767,105.302 L655.233,105.302 C653.884,105.302 652.791,106.396 652.791,107.744 C652.791,109.093 653.884,110.186 655.233,110.186 Z" />
            <path d="M655.233,119.953 L674.767,119.953 C676.116,119.953 677.209,118.86 677.209,117.512 C677.209,116.163 676.116,115.07 674.767,115.07 L655.233,115.07 C653.884,115.07 652.791,116.163 652.791,117.512 C652.791,118.86 653.884,119.953 655.233,119.953 Z" />
            <path d="M662.572,107.744 L662.572,127.279 C662.572,128.628 663.665,129.721 665.013,129.721 C666.362,129.721 667.455,128.628 667.455,127.279 L667.455,107.744 C667.455,106.396 666.362,105.302 665.013,105.302 C663.665,105.302 662.572,106.396 662.572,107.744 Z" />
            <path d="M673.041,94.622 L663.273,104.39 L666.727,104.39 L656.959,94.622 C656.006,93.669 654.46,93.669 653.506,94.622 C652.552,95.576 652.552,97.122 653.506,98.075 L663.273,107.843 C664.227,108.797 665.773,108.797 666.727,107.843 L676.494,98.075 C677.448,97.122 677.448,95.576 676.494,94.622 C675.541,93.669 673.994,93.669 673.041,94.622 Z" />
        </g>
    </g>
</svg>