<?xml version="1.0" encoding="UTF-8"?>
<svg height="600" width="800" xmlns="http://www.w3.org/2000/svg" xmlns:xlink="http://www.w3.org/1999/xlink">
    <g id="Notes" font-family="'LucidaGrande', 'Lucida Grande', sans-serif" font-size="13">
        <rect fill="white" height="600.0" width="800.0" x="0.0" y="0.0" />
        <g font-size="13">
            <text x="18.0" y="176.0">Small</text>
            <text x="18.0" y="376.0">Medium</text>
            <text x="18.0" y="576.0">Large</text>
        </g>
        <g font-size="9">
            <text x="250.0" y="30.0">Ultralight</text>
            <text x="450.0" y="30.0">Regular</text>
            <text x="650.0" y="30.0">Black</text>
            <text id="template-version" fill="#505050" text-anchor="end" x="785.0" y="575.0">Template v.3.0</text>
            <a href="https://github.com/swhitty/SwiftDraw">
                <text fill="#505050" text-anchor="end" x="785.0" y="590.0">https://github.com/swhitty/SwiftDraw</text>
            </a>
        </g>
    </g>
    <g id="Guides" stroke="rgb(39, 170, 225)" stroke-width="0.5">
        <path id="Capline-S" d="M18,76 l800,0" />
        <path id="H-reference" d="M85,145.755 L87.685,145.755 L113.369,79.287 L114.052,79.287 L114.052,76 L112.148,76 L85,145.755 Z M95.693,121.536 L130.996,121.536 L130.263,119.313 L96.474,119.313 L95.693,121.536 Z M139.15,145.755 L141.787,145.755 L114.638,76 L113.466,76 L113.466,79.287 L139.15,145.755 Z" stroke="none" />
        <path id="Baseline-S" d="M18,146 l800,0" />
        <path id="left-margin-Ultralight-S" d="M214,56 l0,110" />
        <path id="right-margin-Ultralight-S" d="M316,56 l0,110" />
        <path id="left-margin-Regular-S" d="M414,56 l0,110" />
        <path id="right-margin-Regular-S" d="M516,56 l0,110" />
        <path id="left-margin-Black-S" d="M614,56 l0,110" />
        <path id="right-margin-Black-S" d="M716,56 l0,110" />
        <path id="Capline-M" d="M18,276 l800,0" />
        <path id="Baseline-M" d="M18,346 l800,0" />
        <path id="Capline-L" d="M18,476 l800,0" />
        <path id="Baseline-L" d="M18,546 l800,0" />
    </g>
    <g id="Symbols">
        <g id="Ultralight-S">
            <path d="M230,103 L230,139 C230,142.866 233.134,146 237,146 L293,146 C296.866,146 300,142.866 300,139 L300,103 L294,103 L294,139 C294,139.552 293.552,140 293,140 L237,140 C236.448,140 236,139.552 236,139 L236,103 L230,103 Z" />
            <path d="M227,94 L303,94 L300,91 L300,103 L303,100 L227,100 L230,103 L230,91 L227,94 Z M227,88 C225.343,88 224,89.343 224,91 L224,103 C224,104.657 225.343,106 227,106 L303,106 C304.657,106 306,104.657 306,103 L306,91 C306,89.343 304.657,88 303,88 L227,88 Z" />
            <path d="M279,76 L251,76 C249.343,76 248,77.343 248,79 L248,91 C248,92.657 249.343,94 251,94 L279,94 C280.657,94 282,92.657 282,91 L282,79 C282,77.343 280.657,76 279,76 Z M279,82 L276,79 L276,91 L279,88 L251,88 L254,91 L254,79 L251,82 L279,82 Z" />
            <path d="M257,126 L273,126 C274.657,126 276,124.657 276,123 C276,121.343 274.657,120 273,120 L257,120 C255.343,120 254,121.343 254,123 C254,124.657 255.343,126 257,126 Z" />
            <path d="M262,115 L262,131 C262,132.657 263.343,134 265,134 C266.657,134 268,132.657 268,131 L268,115 C268,113.343 266.657,112 265,112 C263.343,112 262,113.343 262,115 Z" />
        </g>
        <g id="Regular-S">
            <path d="M430,103 L430,139 C430,142.866 433.134,146 437,146 L493,146 C496.866,146 500,142.866 500,139 L500,103 L494,103 L494,139 C494,139.552 493.552,140 493,140 L437,140 C436.448,140 436,139.552 436,139 L436,103 L430,103 Z" />
            <path d="M427,94 L503,94 L500,91 L500,103 L503,100 L427,100 L430,103 L430,91 L427,94 Z M427,88 C425.343,88 424,89.343 424,91 L424,103 C424,104.657 425.343,106 427,106 L503,106 C504.657,106 506,104.657 506,103 L506,91 C506,89.343 504.657,88 503,88 L427,88 Z" />
            <path d="M479,76 L451,76 C449.343,76 448,77.343 448,79 L448,91 C448,92.657 449.343,94 451,94 L479,94 C480.657,94 482,92.657 482,91 L482,79 C482,77.343 480.657,76 479,76 Z M479,82 L476,79 L476,91 L479,88 L451,88 L454,91 L454,79 L451,82 L479,82 Z" />
            <path d="M457,126 L473,126 C474.657,126 476,124.657 476,123 C476,121.343 474.657,120 473,120 L457,120 C455.343,120 454,121.343 454,123 C454,124.657 455.343,126 457,126 Z" />
            <path d="M462,115 L462,131 C462,132.657 463.343,134 465,134 C466.657,134 468,132.657 468,131 L468,115 C468,113.343 466.657,112 465,112 C463.343,112 462,113.343 462,115 Z" />
        </g>
        <g id="Black-S">
            <path d="M630,103 L630,139 C630,142.866 633.134,146 637,146 L693,146 C696.866,146 700,142.866 700,139 L700,103 L694,103 L694,139 C694,139.552 693.552,140 693,140 L637,140 C636.448,140 636,139.552 636,139 L636,103 L630,103 Z" />
            <path d="M627,94 L703,94 L700,91 L700,103 L703,100 L627,100 L630,103 L630,91 L627,94 Z M627,88 C625.343,88 624,89.343 624,91 L624,103 C624,104.657 625.343,106 627,106 L703,106 C704.657,106 706,104.657 706,103 L706,91 C706,89.343 704.657,88 703,88 L627,88 Z" />
            <path d="M679,76 L651,76 C649.343,76 648,77.343 648,79 L648,91 C648,92.657 649.343,94 651,94 L679,94 C680.657,94 682,92.657 682,91 L682,79 C682,77.343 680.657,76 679,76 Z M679,82 L676,79 L676,91 L679,88 L651,88 L654,91 L654,79 L651,82 L679,82 Z" />
            <path d="M657,126 L673,126 C674.657,126 676,124.657 676,123 C676,121.343 674.657,120 673,120 L657,120 C655.343,120 654,121.343 654,123 C654,124.657 655.343,126 657,126 Z" />
            <path d="M662,115 L662,131 C662,132.657 663.343,134 665,134 C666.657,134 668,132.657 668,131 L668,115 C668,113.343 666.657,112 665,112 C663.343,112 662,113.343 662,115 Z" />
        </g>
    </g>
</svg>