<?xml version="1.0" encoding="UTF-8"?>
<svg height="600" width="800" xmlns="http://www.w3.org/2000/svg" xmlns:xlink="http://www.w3.org/1999/xlink">
    <g id="Notes" font-family="'LucidaGrande', 'Lucida Grande', sans-serif" font-size="13">
        <rect fill="white" height="600.0" width="800.0" x="0.0" y="0.0" />
        <g font-size="13">
            <text x="18.0" y="176.0">Small</text>
            <text x="18.0" y="376.0">Medium</text>
            <text x="18.0" y="576.0">Large</text>
        </g>
        <g font-size="9">
            <text x="250.0" y="30.0">Ultralight</text>
            <text x="450.0" y="30.0">Regular</text>
            <text x="650.0" y="30.0">Black</text>
            <text id="template-version" fill="#505050" text-anchor="end" x="785.0" y="575.0">Template v.3.0</text>
            <a href="https://github.com/swhitty/SwiftDraw">
                <text fill="#505050" text-anchor="end" x="785.0" y="590.0">https://github.com/swhitty/SwiftDraw</text>
            </a>
        </g>
    </g>
    <g id="Guides" stroke="rgb(39, 170, 225)" stroke-width="0.5">
        <path id="Capline-S" d="M18,76 l800,0" />
        <path id="H-reference" d="M85,145.755 L87.685,145.755 L113.369,79.287 L114.052,79.287 L114.052,76 L112.148,76 L85,145.755 Z M95.693,121.536 L130.996,121.536 L130.263,119.313 L96.474,119.313 L95.693,121.536 Z M139.15,145.755 L141.787,145.755 L114.638,76 L113.466,76 L113.466,79.287 L139.15,145.755 Z" stroke="none" />
        <path id="Baseline-S" d="M18,146 l800,0" />
        <path id="left-margin-Ultralight-S" d="M220,56 l0,110" />
        <path id="right-margin-Ultralight-S" d="M310,56 l0,110" />
        <path id="left-margin-Regular-S" d="M420,56 l0,110" />
        <path id="right-margin-Regular-S" d="M510,56 l0,110" />
        <path id="left-margin-Black-S" d="M620,56 l0,110" />
        <path id="right-margin-Black-S" d="M710,56 l0,110" />
        <path id="Capline-M" d="M18,276 l800,0" />
        <path id="Baseline-M" d="M18,346 l800,0" />
        <path id="Capline-L" d="M18,476 l800,0" />
        <path id="Baseline-L" d="M18,546 l800,0" />
    </g>
    <g id="Symbols">
        <g id="Ultralight-S">
            <path d="M261.007,125.855 L244.876,115.889 L243.461,120.872 L291.923,120.872 C293.41,120.872 294.615,122.077 294.615,123.564 C294.615,125.051 293.41,126.256 291.923,126.256 L262.422,126.256 C261.922,126.256 261.433,126.117 261.007,125.855 Z M258.177,130.435 C259.453,131.224 260.923,131.641 262.422,131.641 L291.923,131.641 C296.384,131.641 300,128.025 300,123.564 C300,119.103 296.384,115.487 291.923,115.487 L243.461,115.487 C240.749,115.487 239.739,119.044 242.046,120.47 L258.177,130.435 Z" />
            <path d="M275.769,88.564 C279.239,88.564 282.051,85.752 282.051,82.282 C282.051,78.813 279.239,76 275.769,76 C272.3,76 269.487,78.813 269.487,82.282 C269.487,85.752 272.3,88.564 275.769,88.564 Z M275.769,83.179 C275.273,83.179 274.872,82.778 274.872,82.282 C274.872,81.786 275.273,81.385 275.769,81.385 C276.265,81.385 276.667,81.786 276.667,82.282 C276.667,82.778 276.265,83.179 275.769,83.179 Z" />
            <path d="M284.564,125.718 C291.704,120.363 291.704,108.785 288.033,101.686 C287.662,100.97 287.219,100.195 286.711,99.367 C286.414,98.883 286.098,98.385 285.763,97.874 C285.046,96.778 284.282,95.674 283.518,94.615 C283.25,94.244 283.002,93.905 282.778,93.604 C282.642,93.421 282.544,93.29 282.488,93.217 C281.979,92.547 281.186,92.154 280.345,92.154 C278.87,92.154 276.942,92.739 275.096,94.419 C274.984,94.522 274.872,94.628 274.763,94.737 C274.004,95.497 273.251,96.31 272.414,97.265 C271.819,97.943 269.886,100.214 269.901,100.196 C268.989,101.256 268.321,101.991 267.688,102.612 C266.177,104.096 265.067,104.718 264.103,104.718 C263.408,104.718 262.559,104.592 261.597,104.348 C260.504,104.07 259.313,103.653 258.08,103.134 C257.213,102.769 256.378,102.376 255.609,101.984 C255.155,101.751 254.83,101.575 254.669,101.483 C253.378,100.745 251.734,101.194 250.996,102.485 C250.258,103.776 250.707,105.42 251.998,106.158 C252.229,106.29 252.627,106.507 253.161,106.779 C254.04,107.228 254.993,107.677 255.991,108.097 C257.454,108.713 258.892,109.216 260.271,109.567 C261.636,109.913 262.914,110.103 264.103,110.103 C266.771,110.103 269.041,108.831 271.462,106.453 C272.224,105.705 272.981,104.873 273.983,103.708 C273.991,103.699 275.899,101.458 276.462,100.816 C277.228,99.942 277.903,99.212 278.57,98.545 C278.62,98.495 278.671,98.447 278.721,98.401 C279.165,97.997 279.617,97.75 280.053,97.618 C280.265,97.554 280.381,97.538 280.345,97.538 L280.345,94.846 L278.202,96.475 C278.386,96.719 278.719,97.167 279.15,97.764 C279.87,98.762 280.589,99.801 281.257,100.822 C281.564,101.29 281.853,101.745 282.121,102.182 C282.565,102.906 282.945,103.571 283.25,104.16 C285.86,109.207 285.86,118.015 281.333,121.41 C280.144,122.302 279.903,123.99 280.795,125.18 C281.687,126.369 283.375,126.61 284.564,125.718 Z" />
            <path d="M259.924,91.369 C252.508,82.101 246.751,78.593 236.461,77.912 C232.921,77.678 230,80.543 230,84.077 L230,116.385 C230,117.872 231.205,119.077 232.692,119.077 C234.179,119.077 235.385,117.872 235.385,116.385 L235.385,84.077 C235.385,83.6 235.731,83.26 236.105,83.285 C244.741,83.857 249.181,86.562 255.719,94.733 C256.648,95.894 258.342,96.082 259.503,95.154 C260.664,94.225 260.853,92.53 259.924,91.369 Z" />
            <path d="M234.487,146 C238.142,146 240.152,145.262 242.197,143.605 C242.283,143.536 242.381,143.455 242.542,143.323 C243.463,142.57 243.847,142.41 245.256,142.41 C246.715,142.41 247.037,142.557 247.943,143.375 C248.016,143.441 248.016,143.441 248.095,143.513 C250.016,145.244 251.791,146 255.128,146 C258.416,146 260.068,145.317 262.195,143.615 C263.433,142.624 263.951,142.41 265.897,142.41 C267.904,142.41 268.636,142.692 269.981,143.682 C270.082,143.756 270.082,143.756 270.187,143.834 C272.261,145.361 273.839,146 276.667,146 C279.701,146 281.245,145.202 282.8,143.385 C282.853,143.324 282.853,143.324 282.901,143.268 C283.521,142.546 283.806,142.41 285.641,142.41 C287.534,142.41 288.137,142.639 289.431,143.571 C289.517,143.633 289.517,143.633 289.608,143.699 C291.866,145.322 293.747,146 297.308,146 C298.795,146 300,144.795 300,143.308 C300,141.821 298.795,140.615 297.308,140.615 C294.946,140.615 294.139,140.325 292.752,139.327 C292.667,139.266 292.667,139.266 292.578,139.202 C290.43,137.655 288.771,137.026 285.641,137.026 C282.208,137.026 280.443,137.867 278.817,139.758 C278.761,139.823 278.761,139.823 278.71,139.883 C278.126,140.566 278.03,140.615 276.667,140.615 C275.137,140.615 274.606,140.4 273.381,139.498 C273.279,139.423 273.279,139.423 273.172,139.344 C270.965,137.72 269.159,137.026 265.897,137.026 C262.609,137.026 260.958,137.709 258.831,139.41 C257.592,140.401 257.075,140.615 255.128,140.615 C253.197,140.615 252.678,140.394 251.7,139.513 C251.629,139.449 251.629,139.449 251.553,139.38 C249.727,137.73 248.178,137.026 245.256,137.026 C242.494,137.026 240.954,137.666 239.133,139.155 C238.962,139.296 238.879,139.364 238.808,139.421 C237.705,140.315 236.885,140.615 234.487,140.615 C233,140.615 231.795,141.821 231.795,143.308 C231.795,144.795 233,146 234.487,146 Z" />
        </g>
        <g id="Regular-S">
            <path d="M461.007,125.855 L444.876,115.889 L443.461,120.872 L491.923,120.872 C493.41,120.872 494.615,122.077 494.615,123.564 C494.615,125.051 493.41,126.256 491.923,126.256 L462.422,126.256 C461.922,126.256 461.432,126.117 461.007,125.855 Z M458.177,130.435 C459.453,131.224 460.923,131.641 462.422,131.641 L491.923,131.641 C496.384,131.641 500,128.025 500,123.564 C500,119.103 496.384,115.487 491.923,115.487 L443.461,115.487 C440.749,115.487 439.739,119.044 442.046,120.47 L458.177,130.435 Z" />
            <path d="M475.769,88.564 C479.239,88.564 482.051,85.752 482.051,82.282 C482.051,78.813 479.239,76 475.769,76 C472.3,76 469.487,78.813 469.487,82.282 C469.487,85.752 472.3,88.564 475.769,88.564 Z M475.769,83.179 C475.273,83.179 474.872,82.778 474.872,82.282 C474.872,81.786 475.273,81.385 475.769,81.385 C476.265,81.385 476.667,81.786 476.667,82.282 C476.667,82.778 476.265,83.179 475.769,83.179 Z" />
            <path d="M484.564,125.718 C491.704,120.363 491.704,108.785 488.033,101.686 C487.662,100.97 487.219,100.195 486.711,99.367 C486.414,98.883 486.098,98.385 485.763,97.874 C485.046,96.778 484.282,95.674 483.518,94.615 C483.25,94.244 483.002,93.905 482.778,93.604 C482.642,93.421 482.544,93.29 482.488,93.217 C481.979,92.547 481.186,92.154 480.345,92.154 C478.87,92.154 476.942,92.739 475.096,94.419 C474.984,94.522 474.872,94.628 474.763,94.737 C474.004,95.497 473.251,96.31 472.414,97.265 C471.819,97.943 469.886,100.214 469.901,100.196 C468.989,101.256 468.321,101.991 467.688,102.612 C466.177,104.096 465.067,104.718 464.103,104.718 C463.408,104.718 462.559,104.592 461.597,104.348 C460.504,104.07 459.313,103.653 458.08,103.134 C457.213,102.769 456.378,102.376 455.609,101.984 C455.155,101.751 454.83,101.575 454.669,101.483 C453.378,100.745 451.734,101.194 450.996,102.485 C450.258,103.776 450.707,105.42 451.998,106.158 C452.229,106.29 452.627,106.507 453.161,106.779 C454.04,107.228 454.993,107.677 455.991,108.097 C457.454,108.713 458.892,109.216 460.271,109.567 C461.636,109.913 462.914,110.103 464.103,110.103 C466.771,110.103 469.041,108.831 471.462,106.453 C472.224,105.705 472.981,104.873 473.983,103.708 C473.991,103.699 475.899,101.458 476.462,100.816 C477.228,99.942 477.903,99.212 478.57,98.545 C478.62,98.495 478.671,98.447 478.721,98.401 C479.165,97.997 479.617,97.75 480.053,97.618 C480.265,97.554 480.381,97.538 480.345,97.538 L480.345,94.846 L478.202,96.475 C478.386,96.719 478.719,97.167 479.15,97.764 C479.87,98.762 480.589,99.801 481.257,100.822 C481.564,101.29 481.853,101.745 482.121,102.182 C482.565,102.906 482.945,103.571 483.25,104.16 C485.86,109.207 485.86,118.015 481.333,121.41 C480.144,122.302 479.903,123.99 480.795,125.18 C481.687,126.369 483.375,126.61 484.564,125.718 Z" />
            <path d="M459.924,91.369 C452.508,82.101 446.751,78.593 436.461,77.912 C432.921,77.678 430,80.543 430,84.077 L430,116.385 C430,117.872 431.205,119.077 432.692,119.077 C434.179,119.077 435.385,117.872 435.385,116.385 L435.385,84.077 C435.385,83.6 435.731,83.26 436.105,83.285 C444.741,83.857 449.181,86.562 455.719,94.733 C456.648,95.894 458.342,96.082 459.503,95.154 C460.664,94.225 460.853,92.53 459.924,91.369 Z" />
            <path d="M434.487,146 C438.142,146 440.152,145.262 442.197,143.605 C442.283,143.536 442.381,143.455 442.542,143.323 C443.463,142.57 443.847,142.41 445.256,142.41 C446.715,142.41 447.037,142.557 447.943,143.375 C448.016,143.441 448.016,143.441 448.095,143.513 C450.016,145.244 451.791,146 455.128,146 C458.416,146 460.068,145.317 462.195,143.615 C463.433,142.624 463.951,142.41 465.897,142.41 C467.904,142.41 468.636,142.692 469.981,143.682 C470.082,143.756 470.082,143.756 470.187,143.834 C472.261,145.361 473.839,146 476.667,146 C479.701,146 481.245,145.202 482.8,143.385 C482.853,143.324 482.853,143.324 482.901,143.268 C483.521,142.546 483.806,142.41 485.641,142.41 C487.534,142.41 488.136,142.639 489.431,143.571 C489.517,143.633 489.517,143.633 489.608,143.699 C491.866,145.322 493.747,146 497.308,146 C498.794,146 500,144.795 500,143.308 C500,141.821 498.794,140.615 497.308,140.615 C494.946,140.615 494.139,140.325 492.752,139.327 C492.667,139.266 492.667,139.266 492.578,139.202 C490.43,137.655 488.771,137.026 485.641,137.026 C482.208,137.026 480.443,137.867 478.817,139.758 C478.761,139.823 478.761,139.823 478.71,139.883 C478.126,140.566 478.03,140.615 476.667,140.615 C475.137,140.615 474.606,140.4 473.381,139.498 C473.279,139.423 473.279,139.423 473.172,139.344 C470.965,137.72 469.159,137.026 465.897,137.026 C462.609,137.026 460.958,137.709 458.831,139.41 C457.592,140.401 457.075,140.615 455.128,140.615 C453.197,140.615 452.678,140.394 451.7,139.513 C451.629,139.449 451.629,139.449 451.553,139.38 C449.727,137.73 448.178,137.026 445.256,137.026 C442.494,137.026 440.954,137.666 439.133,139.155 C438.962,139.296 438.879,139.364 438.808,139.421 C437.705,140.315 436.885,140.615 434.487,140.615 C433,140.615 431.795,141.821 431.795,143.308 C431.795,144.795 433,146 434.487,146 Z" />
        </g>
        <g id="Black-S">
            <path d="M661.007,125.855 L644.876,115.889 L643.461,120.872 L691.923,120.872 C693.41,120.872 694.615,122.077 694.615,123.564 C694.615,125.051 693.41,126.256 691.923,126.256 L662.422,126.256 C661.922,126.256 661.432,126.117 661.007,125.855 Z M658.177,130.435 C659.453,131.224 660.923,131.641 662.422,131.641 L691.923,131.641 C696.384,131.641 700,128.025 700,123.564 C700,119.103 696.384,115.487 691.923,115.487 L643.461,115.487 C640.749,115.487 639.739,119.044 642.046,120.47 L658.177,130.435 Z" />
            <path d="M675.769,88.564 C679.239,88.564 682.051,85.752 682.051,82.282 C682.051,78.813 679.239,76 675.769,76 C672.3,76 669.487,78.813 669.487,82.282 C669.487,85.752 672.3,88.564 675.769,88.564 Z M675.769,83.179 C675.273,83.179 674.872,82.778 674.872,82.282 C674.872,81.786 675.273,81.385 675.769,81.385 C676.265,81.385 676.667,81.786 676.667,82.282 C676.667,82.778 676.265,83.179 675.769,83.179 Z" />
            <path d="M684.564,125.718 C691.704,120.363 691.704,108.785 688.033,101.686 C687.662,100.97 687.219,100.195 686.711,99.367 C686.414,98.883 686.098,98.385 685.763,97.874 C685.046,96.778 684.282,95.674 683.518,94.615 C683.25,94.244 683.002,93.905 682.778,93.604 C682.642,93.421 682.544,93.29 682.488,93.217 C681.979,92.547 681.186,92.154 680.345,92.154 C678.87,92.154 676.942,92.739 675.096,94.419 C674.984,94.522 674.872,94.628 674.763,94.737 C674.004,95.497 673.251,96.31 672.414,97.265 C671.819,97.943 669.886,100.214 669.901,100.196 C668.989,101.256 668.321,101.991 667.688,102.612 C666.177,104.096 665.067,104.718 664.103,104.718 C663.408,104.718 662.559,104.592 661.597,104.348 C660.504,104.07 659.313,103.653 658.08,103.134 C657.213,102.769 656.378,102.376 655.609,101.984 C655.155,101.751 654.83,101.575 654.669,101.483 C653.378,100.745 651.734,101.194 650.996,102.485 C650.258,103.776 650.707,105.42 651.998,106.158 C652.229,106.29 652.627,106.507 653.161,106.779 C654.04,107.228 654.993,107.677 655.991,108.097 C657.454,108.713 658.892,109.216 660.271,109.567 C661.636,109.913 662.914,110.103 664.103,110.103 C666.771,110.103 669.041,108.831 671.462,106.453 C672.224,105.705 672.981,104.873 673.983,103.708 C673.991,103.699 675.899,101.458 676.462,100.816 C677.228,99.942 677.903,99.212 678.57,98.545 C678.62,98.495 678.671,98.447 678.721,98.401 C679.165,97.997 679.617,97.75 680.053,97.618 C680.265,97.554 680.381,97.538 680.345,97.538 L680.345,94.846 L678.202,96.475 C678.386,96.719 678.719,97.167 679.15,97.764 C679.87,98.762 680.589,99.801 681.257,100.822 C681.564,101.29 681.853,101.745 682.121,102.182 C682.565,102.906 682.945,103.571 683.25,104.16 C685.86,109.207 685.86,118.015 681.333,121.41 C680.144,122.302 679.903,123.99 680.795,125.18 C681.687,126.369 683.375,126.61 684.564,125.718 Z" />
            <path d="M659.924,91.369 C652.508,82.101 646.751,78.593 636.461,77.912 C632.921,77.678 630,80.543 630,84.077 L630,116.385 C630,117.872 631.205,119.077 632.692,119.077 C634.179,119.077 635.385,117.872 635.385,116.385 L635.385,84.077 C635.385,83.6 635.731,83.26 636.105,83.285 C644.741,83.857 649.181,86.562 655.719,94.733 C656.648,95.894 658.342,96.082 659.503,95.154 C660.664,94.225 660.852,92.53 659.924,91.369 Z" />
            <path d="M634.487,146 C638.142,146 640.152,145.262 642.197,143.605 C642.283,143.536 642.381,143.455 642.542,143.323 C643.463,142.57 643.847,142.41 645.256,142.41 C646.715,142.41 647.037,142.557 647.943,143.375 C648.016,143.441 648.016,143.441 648.095,143.513 C650.016,145.244 651.791,146 655.128,146 C658.416,146 660.068,145.317 662.195,143.615 C663.433,142.624 663.951,142.41 665.897,142.41 C667.904,142.41 668.636,142.692 669.981,143.682 C670.082,143.756 670.082,143.756 670.187,143.834 C672.261,145.361 673.839,146 676.667,146 C679.701,146 681.245,145.202 682.8,143.385 C682.853,143.324 682.853,143.324 682.901,143.268 C683.521,142.546 683.806,142.41 685.641,142.41 C687.534,142.41 688.136,142.639 689.431,143.571 C689.517,143.633 689.517,143.633 689.608,143.699 C691.866,145.322 693.747,146 697.308,146 C698.794,146 700,144.795 700,143.308 C700,141.821 698.794,140.615 697.308,140.615 C694.946,140.615 694.139,140.325 692.752,139.327 C692.667,139.266 692.667,139.266 692.578,139.202 C690.43,137.655 688.771,137.026 685.641,137.026 C682.208,137.026 680.443,137.867 678.817,139.758 C678.761,139.823 678.761,139.823 678.71,139.883 C678.126,140.566 678.03,140.615 676.667,140.615 C675.137,140.615 674.606,140.4 673.381,139.498 C673.279,139.423 673.279,139.423 673.172,139.344 C670.965,137.72 669.159,137.026 665.897,137.026 C662.609,137.026 660.958,137.709 658.831,139.41 C657.592,140.401 657.075,140.615 655.128,140.615 C653.197,140.615 652.678,140.394 651.7,139.513 C651.629,139.449 651.629,139.449 651.553,139.38 C649.727,137.73 648.178,137.026 645.256,137.026 C642.494,137.026 640.954,137.666 639.133,139.155 C638.962,139.296 638.879,139.364 638.808,139.421 C637.705,140.315 636.885,140.615 634.487,140.615 C633,140.615 631.795,141.821 631.795,143.308 C631.795,144.795 633,146 634.487,146 Z" />
        </g>
    </g>
</svg>