<?xml version="1.0" encoding="UTF-8"?>
<svg height="600" width="800" xmlns="http://www.w3.org/2000/svg" xmlns:xlink="http://www.w3.org/1999/xlink">
    <g id="Notes" font-family="'LucidaGrande', 'Lucida Grande', sans-serif" font-size="13">
        <rect fill="white" height="600.0" width="800.0" x="0.0" y="0.0" />
        <g font-size="13">
            <text x="18.0" y="176.0">Small</text>
            <text x="18.0" y="376.0">Medium</text>
            <text x="18.0" y="576.0">Large</text>
        </g>
        <g font-size="9">
            <text x="250.0" y="30.0">Ultralight</text>
            <text x="450.0" y="30.0">Regular</text>
            <text x="650.0" y="30.0">Black</text>
            <text id="template-version" fill="#505050" text-anchor="end" x="785.0" y="575.0">Template v.3.0</text>
            <a href="https://github.com/swhitty/SwiftDraw">
                <text fill="#505050" text-anchor="end" x="785.0" y="590.0">https://github.com/swhitty/SwiftDraw</text>
            </a>
        </g>
    </g>
    <g id="Guides" stroke="rgb(39, 170, 225)" stroke-width="0.5">
        <path id="Capline-S" d="M18,76 l800,0" />
        <path id="H-reference" d="M85,145.755 L87.685,145.755 L113.369,79.287 L114.052,79.287 L114.052,76 L112.148,76 L85,145.755 Z M95.693,121.536 L130.996,121.536 L130.263,119.313 L96.474,119.313 L95.693,121.536 Z M139.15,145.755 L141.787,145.755 L114.638,76 L113.466,76 L113.466,79.287 L139.15,145.755 Z" stroke="none" />
        <path id="Baseline-S" d="M18,146 l800,0" />
        <path id="left-margin-Ultralight-S" d="M220,56 l0,110" />
        <path id="right-margin-Ultralight-S" d="M310,56 l0,110" />
        <path id="left-margin-Regular-S" d="M420,56 l0,110" />
        <path id="right-margin-Regular-S" d="M510,56 l0,110" />
        <path id="left-margin-Black-S" d="M620,56 l0,110" />
        <path id="right-margin-Black-S" d="M710,56 l0,110" />
        <path id="Capline-M" d="M18,276 l800,0" />
        <path id="Baseline-M" d="M18,346 l800,0" />
        <path id="Capline-L" d="M18,476 l800,0" />
        <path id="Baseline-L" d="M18,546 l800,0" />
    </g>
    <g id="Symbols">
        <g id="Ultralight-S">
            <path d="M292.674,128.093 C297.374,128.093 300,121.089 300,112.628 C300,104.167 297.374,97.163 292.674,97.163 C287.975,97.163 285.349,104.167 285.349,112.628 C285.349,121.089 287.975,128.093 292.674,128.093 Z M292.674,123.209 C292.79,123.209 292.769,123.198 292.601,123.008 C292.242,122.603 291.855,121.907 291.507,120.979 C290.707,118.846 290.233,115.852 290.233,112.628 C290.233,109.404 290.707,106.41 291.507,104.276 C291.855,103.349 292.242,102.653 292.601,102.248 C292.769,102.058 292.79,102.047 292.674,102.047 C292.559,102.047 292.58,102.058 292.748,102.248 C293.107,102.653 293.493,103.349 293.841,104.276 C294.641,106.41 295.116,109.404 295.116,112.628 C295.116,115.852 294.641,118.846 293.841,120.979 C293.493,121.907 293.107,122.603 292.748,123.008 C292.58,123.198 292.559,123.209 292.674,123.209 Z" />
            <path d="M237.326,128.093 C242.025,128.093 244.651,121.089 244.651,112.628 C244.651,104.167 242.025,97.163 237.326,97.163 C232.626,97.163 230,104.167 230,112.628 C230,121.089 232.626,128.093 237.326,128.093 Z M237.326,123.209 C237.441,123.209 237.421,123.198 237.252,123.008 C236.893,122.603 236.507,121.907 236.159,120.979 C235.359,118.846 234.884,115.852 234.884,112.628 C234.884,109.404 235.359,106.41 236.159,104.276 C236.507,103.349 236.893,102.653 237.252,102.248 C237.421,102.058 237.441,102.047 237.326,102.047 C237.21,102.047 237.231,102.058 237.399,102.248 C237.758,102.653 238.145,103.349 238.493,104.276 C239.293,106.41 239.767,109.404 239.767,112.628 C239.767,115.852 239.293,118.846 238.493,120.979 C238.145,121.907 237.758,122.603 237.399,123.008 C237.231,123.198 237.21,123.209 237.326,123.209 Z" />
            <path d="M265,146 C272.532,146 277.209,130.409 277.209,111 C277.209,91.591 272.532,76 265,76 C257.468,76 252.791,91.591 252.791,111 C252.791,130.409 257.468,146 265,146 Z M265,141.116 C264.601,141.116 263.969,140.685 263.19,139.587 C262.204,138.197 261.252,136.054 260.432,133.32 C258.686,127.499 257.674,119.528 257.674,111 C257.674,102.472 258.686,94.501 260.432,88.68 C261.252,85.946 262.204,83.803 263.19,82.413 C263.969,81.315 264.601,80.884 265,80.884 C265.399,80.884 266.031,81.315 266.81,82.413 C267.796,83.803 268.748,85.946 269.568,88.68 C271.314,94.501 272.326,102.472 272.326,111 C272.326,119.528 271.314,127.499 269.568,133.32 C268.748,136.054 267.796,138.197 266.81,139.587 C266.031,140.685 265.399,141.116 265,141.116 Z" />
            <path d="M281.279,139.488 C287.112,139.488 290.233,127.007 290.233,111 C290.233,94.993 287.112,82.512 281.279,82.512 C275.446,82.512 272.326,94.993 272.326,111 C272.326,127.007 275.446,139.488 281.279,139.488 Z M281.279,134.605 C281.439,134.605 281.53,134.642 281.513,134.628 C281.339,134.485 281.104,134.193 280.847,133.757 C280.21,132.681 279.585,130.99 279.044,128.825 C277.883,124.181 277.209,117.814 277.209,111 C277.209,104.186 277.883,97.819 279.044,93.175 C279.585,91.01 280.21,89.319 280.847,88.243 C281.104,87.807 281.339,87.515 281.513,87.372 C281.53,87.358 281.439,87.395 281.279,87.395 C281.119,87.395 281.028,87.358 281.045,87.372 C281.22,87.515 281.454,87.807 281.712,88.243 C282.348,89.319 282.973,91.01 283.515,93.175 C284.676,97.819 285.349,104.186 285.349,111 C285.349,117.814 284.676,124.181 283.515,128.825 C282.973,130.99 282.348,132.681 281.712,133.757 C281.454,134.193 281.22,134.485 281.045,134.628 C281.028,134.642 281.119,134.605 281.279,134.605 Z" />
            <path d="M248.721,139.488 C254.554,139.488 257.674,127.007 257.674,111 C257.674,94.993 254.554,82.512 248.721,82.512 C242.888,82.512 239.767,94.993 239.767,111 C239.767,127.007 242.888,139.488 248.721,139.488 Z M248.721,134.605 C248.881,134.605 248.972,134.642 248.955,134.628 C248.78,134.485 248.546,134.193 248.288,133.757 C247.652,132.681 247.027,130.99 246.485,128.825 C245.324,124.181 244.651,117.814 244.651,111 C244.651,104.186 245.324,97.819 246.485,93.175 C247.027,91.01 247.652,89.319 248.288,88.243 C248.546,87.807 248.78,87.515 248.955,87.372 C248.972,87.358 248.881,87.395 248.721,87.395 C248.561,87.395 248.47,87.358 248.487,87.372 C248.661,87.515 248.896,87.807 249.153,88.243 C249.79,89.319 250.415,91.01 250.956,93.175 C252.117,97.819 252.791,104.186 252.791,111 C252.791,117.814 252.117,124.181 250.956,128.825 C250.415,130.99 249.79,132.681 249.153,133.757 C248.896,134.193 248.661,134.485 248.487,134.628 C248.47,134.642 248.561,134.605 248.721,134.605 Z" />
        </g>
        <g id="Regular-S">
            <path d="M492.674,128.093 C497.374,128.093 500,121.089 500,112.628 C500,104.167 497.374,97.163 492.674,97.163 C487.975,97.163 485.349,104.167 485.349,112.628 C485.349,121.089 487.975,128.093 492.674,128.093 Z M492.674,123.209 C492.79,123.209 492.769,123.198 492.601,123.008 C492.242,122.603 491.855,121.907 491.507,120.979 C490.707,118.846 490.233,115.852 490.233,112.628 C490.233,109.404 490.707,106.41 491.507,104.276 C491.855,103.349 492.242,102.653 492.601,102.248 C492.769,102.058 492.79,102.047 492.674,102.047 C492.559,102.047 492.58,102.058 492.748,102.248 C493.107,102.653 493.493,103.349 493.841,104.276 C494.641,106.41 495.116,109.404 495.116,112.628 C495.116,115.852 494.641,118.846 493.841,120.979 C493.493,121.907 493.107,122.603 492.748,123.008 C492.58,123.198 492.559,123.209 492.674,123.209 Z" />
            <path d="M437.326,128.093 C442.025,128.093 444.651,121.089 444.651,112.628 C444.651,104.167 442.025,97.163 437.326,97.163 C432.626,97.163 430,104.167 430,112.628 C430,121.089 432.626,128.093 437.326,128.093 Z M437.326,123.209 C437.441,123.209 437.421,123.198 437.252,123.008 C436.893,122.603 436.507,121.907 436.159,120.979 C435.359,118.846 434.884,115.852 434.884,112.628 C434.884,109.404 435.359,106.41 436.159,104.276 C436.507,103.349 436.893,102.653 437.252,102.248 C437.421,102.058 437.441,102.047 437.326,102.047 C437.21,102.047 437.231,102.058 437.399,102.248 C437.758,102.653 438.145,103.349 438.493,104.276 C439.293,106.41 439.767,109.404 439.767,112.628 C439.767,115.852 439.293,118.846 438.493,120.979 C438.145,121.907 437.758,122.603 437.399,123.008 C437.231,123.198 437.21,123.209 437.326,123.209 Z" />
            <path d="M465,146 C472.532,146 477.209,130.409 477.209,111 C477.209,91.591 472.532,76 465,76 C457.468,76 452.791,91.591 452.791,111 C452.791,130.409 457.468,146 465,146 Z M465,141.116 C464.601,141.116 463.969,140.685 463.19,139.587 C462.204,138.197 461.252,136.054 460.432,133.32 C458.686,127.499 457.674,119.528 457.674,111 C457.674,102.472 458.686,94.501 460.432,88.68 C461.252,85.946 462.204,83.803 463.19,82.413 C463.969,81.315 464.601,80.884 465,80.884 C465.399,80.884 466.031,81.315 466.81,82.413 C467.796,83.803 468.748,85.946 469.568,88.68 C471.314,94.501 472.326,102.472 472.326,111 C472.326,119.528 471.314,127.499 469.568,133.32 C468.748,136.054 467.796,138.197 466.81,139.587 C466.031,140.685 465.399,141.116 465,141.116 Z" />
            <path d="M481.279,139.488 C487.112,139.488 490.233,127.007 490.233,111 C490.233,94.993 487.112,82.512 481.279,82.512 C475.446,82.512 472.326,94.993 472.326,111 C472.326,127.007 475.446,139.488 481.279,139.488 Z M481.279,134.605 C481.439,134.605 481.53,134.642 481.513,134.628 C481.339,134.485 481.104,134.193 480.847,133.757 C480.21,132.681 479.585,130.99 479.044,128.825 C477.883,124.181 477.209,117.814 477.209,111 C477.209,104.186 477.883,97.819 479.044,93.175 C479.585,91.01 480.21,89.319 480.847,88.243 C481.104,87.807 481.339,87.515 481.513,87.372 C481.53,87.358 481.439,87.395 481.279,87.395 C481.119,87.395 481.028,87.358 481.045,87.372 C481.22,87.515 481.454,87.807 481.712,88.243 C482.348,89.319 482.973,91.01 483.515,93.175 C484.676,97.819 485.349,104.186 485.349,111 C485.349,117.814 484.676,124.181 483.515,128.825 C482.973,130.99 482.348,132.681 481.712,133.757 C481.454,134.193 481.22,134.485 481.045,134.628 C481.028,134.642 481.119,134.605 481.279,134.605 Z" />
            <path d="M448.721,139.488 C454.554,139.488 457.674,127.007 457.674,111 C457.674,94.993 454.554,82.512 448.721,82.512 C442.888,82.512 439.767,94.993 439.767,111 C439.767,127.007 442.888,139.488 448.721,139.488 Z M448.721,134.605 C448.881,134.605 448.972,134.642 448.955,134.628 C448.78,134.485 448.546,134.193 448.288,133.757 C447.652,132.681 447.027,130.99 446.486,128.825 C445.324,124.181 444.651,117.814 444.651,111 C444.651,104.186 445.324,97.819 446.486,93.175 C447.027,91.01 447.652,89.319 448.288,88.243 C448.546,87.807 448.78,87.515 448.955,87.372 C448.972,87.358 448.881,87.395 448.721,87.395 C448.561,87.395 448.47,87.358 448.487,87.372 C448.661,87.515 448.896,87.807 449.153,88.243 C449.79,89.319 450.415,91.01 450.956,93.175 C452.117,97.819 452.791,104.186 452.791,111 C452.791,117.814 452.117,124.181 450.956,128.825 C450.415,130.99 449.79,132.681 449.153,133.757 C448.896,134.193 448.661,134.485 448.487,134.628 C448.47,134.642 448.561,134.605 448.721,134.605 Z" />
        </g>
        <g id="Black-S">
            <path d="M692.674,128.093 C697.374,128.093 700,121.089 700,112.628 C700,104.167 697.374,97.163 692.674,97.163 C687.975,97.163 685.349,104.167 685.349,112.628 C685.349,121.089 687.975,128.093 692.674,128.093 Z M692.674,123.209 C692.79,123.209 692.769,123.198 692.601,123.008 C692.242,122.603 691.855,121.907 691.507,120.979 C690.707,118.846 690.233,115.852 690.233,112.628 C690.233,109.404 690.707,106.41 691.507,104.276 C691.855,103.349 692.242,102.653 692.601,102.248 C692.769,102.058 692.79,102.047 692.674,102.047 C692.559,102.047 692.58,102.058 692.748,102.248 C693.107,102.653 693.493,103.349 693.841,104.276 C694.641,106.41 695.116,109.404 695.116,112.628 C695.116,115.852 694.641,118.846 693.841,120.979 C693.493,121.907 693.107,122.603 692.748,123.008 C692.58,123.198 692.559,123.209 692.674,123.209 Z" />
            <path d="M637.326,128.093 C642.025,128.093 644.651,121.089 644.651,112.628 C644.651,104.167 642.025,97.163 637.326,97.163 C632.626,97.163 630,104.167 630,112.628 C630,121.089 632.626,128.093 637.326,128.093 Z M637.326,123.209 C637.441,123.209 637.42,123.198 637.252,123.008 C636.893,122.603 636.507,121.907 636.159,120.979 C635.359,118.846 634.884,115.852 634.884,112.628 C634.884,109.404 635.359,106.41 636.159,104.276 C636.507,103.349 636.893,102.653 637.252,102.248 C637.42,102.058 637.441,102.047 637.326,102.047 C637.21,102.047 637.231,102.058 637.399,102.248 C637.758,102.653 638.145,103.349 638.492,104.276 C639.293,106.41 639.767,109.404 639.767,112.628 C639.767,115.852 639.293,118.846 638.492,120.979 C638.145,121.907 637.758,122.603 637.399,123.008 C637.231,123.198 637.21,123.209 637.326,123.209 Z" />
            <path d="M665,146 C672.532,146 677.209,130.409 677.209,111 C677.209,91.591 672.532,76 665,76 C657.468,76 652.791,91.591 652.791,111 C652.791,130.409 657.468,146 665,146 Z M665,141.116 C664.601,141.116 663.969,140.685 663.19,139.587 C662.204,138.197 661.252,136.054 660.432,133.32 C658.686,127.499 657.674,119.528 657.674,111 C657.674,102.472 658.686,94.501 660.432,88.68 C661.252,85.946 662.204,83.803 663.19,82.413 C663.969,81.315 664.601,80.884 665,80.884 C665.399,80.884 666.031,81.315 666.81,82.413 C667.796,83.803 668.748,85.946 669.568,88.68 C671.314,94.501 672.326,102.472 672.326,111 C672.326,119.528 671.314,127.499 669.568,133.32 C668.748,136.054 667.796,138.197 666.81,139.587 C666.031,140.685 665.399,141.116 665,141.116 Z" />
            <path d="M681.279,139.488 C687.112,139.488 690.233,127.007 690.233,111 C690.233,94.993 687.112,82.512 681.279,82.512 C675.446,82.512 672.326,94.993 672.326,111 C672.326,127.007 675.446,139.488 681.279,139.488 Z M681.279,134.605 C681.439,134.605 681.53,134.642 681.513,134.628 C681.339,134.485 681.104,134.193 680.847,133.757 C680.211,132.681 679.585,130.99 679.044,128.825 C677.883,124.181 677.209,117.814 677.209,111 C677.209,104.186 677.883,97.819 679.044,93.175 C679.585,91.01 680.211,89.319 680.847,88.243 C681.104,87.807 681.339,87.515 681.513,87.372 C681.53,87.358 681.439,87.395 681.279,87.395 C681.119,87.395 681.028,87.358 681.045,87.372 C681.22,87.515 681.454,87.807 681.712,88.243 C682.348,89.319 682.973,91.01 683.515,93.175 C684.676,97.819 685.349,104.186 685.349,111 C685.349,117.814 684.676,124.181 683.515,128.825 C682.973,130.99 682.348,132.681 681.712,133.757 C681.454,134.193 681.22,134.485 681.045,134.628 C681.028,134.642 681.119,134.605 681.279,134.605 Z" />
            <path d="M648.721,139.488 C654.554,139.488 657.674,127.007 657.674,111 C657.674,94.993 654.554,82.512 648.721,82.512 C642.888,82.512 639.767,94.993 639.767,111 C639.767,127.007 642.888,139.488 648.721,139.488 Z M648.721,134.605 C648.881,134.605 648.972,134.642 648.955,134.628 C648.78,134.485 648.546,134.193 648.288,133.757 C647.652,132.681 647.027,130.99 646.485,128.825 C645.324,124.181 644.651,117.814 644.651,111 C644.651,104.186 645.324,97.819 646.485,93.175 C647.027,91.01 647.652,89.319 648.288,88.243 C648.546,87.807 648.78,87.515 648.955,87.372 C648.972,87.358 648.881,87.395 648.721,87.395 C648.561,87.395 648.47,87.358 648.487,87.372 C648.661,87.515 648.896,87.807 649.153,88.243 C649.79,89.319 650.415,91.01 650.956,93.175 C652.117,97.819 652.791,104.186 652.791,111 C652.791,117.814 652.117,124.181 650.956,128.825 C650.415,130.99 649.79,132.681 649.153,133.757 C648.896,134.193 648.661,134.485 648.487,134.628 C648.47,134.642 648.561,134.605 648.721,134.605 Z" />
        </g>
    </g>
</svg>