<?xml version="1.0" encoding="UTF-8"?>
<svg height="600" width="800" xmlns="http://www.w3.org/2000/svg" xmlns:xlink="http://www.w3.org/1999/xlink">
    <g id="Notes" font-family="'LucidaGrande', 'Lucida Grande', sans-serif" font-size="13">
        <rect fill="white" height="600.0" width="800.0" x="0.0" y="0.0" />
        <g font-size="13">
            <text x="18.0" y="176.0">Small</text>
            <text x="18.0" y="376.0">Medium</text>
            <text x="18.0" y="576.0">Large</text>
        </g>
        <g font-size="9">
            <text x="250.0" y="30.0">Ultralight</text>
            <text x="450.0" y="30.0">Regular</text>
            <text x="650.0" y="30.0">Black</text>
            <text id="template-version" fill="#505050" text-anchor="end" x="785.0" y="575.0">Template v.3.0</text>
            <a href="https://github.com/swhitty/SwiftDraw">
                <text fill="#505050" text-anchor="end" x="785.0" y="590.0">https://github.com/swhitty/SwiftDraw</text>
            </a>
        </g>
    </g>
    <g id="Guides" stroke="rgb(39, 170, 225)" stroke-width="0.5">
        <path id="Capline-S" d="M18,76 l800,0" />
        <path id="H-reference" d="M85,145.755 L87.685,145.755 L113.369,79.287 L114.052,79.287 L114.052,76 L112.148,76 L85,145.755 Z M95.693,121.536 L130.996,121.536 L130.263,119.313 L96.474,119.313 L95.693,121.536 Z M139.15,145.755 L141.787,145.755 L114.638,76 L113.466,76 L113.466,79.287 L139.15,145.755 Z" stroke="none" />
        <path id="Baseline-S" d="M18,146 l800,0" />
        <path id="left-margin-Ultralight-S" d="M220.117,56 l0,110" />
        <path id="right-margin-Ultralight-S" d="M309.883,56 l0,110" />
        <path id="left-margin-Regular-S" d="M420.117,56 l0,110" />
        <path id="right-margin-Regular-S" d="M509.883,56 l0,110" />
        <path id="left-margin-Black-S" d="M620.117,56 l0,110" />
        <path id="right-margin-Black-S" d="M709.883,56 l0,110" />
        <path id="Capline-M" d="M18,276 l800,0" />
        <path id="Baseline-M" d="M18,346 l800,0" />
        <path id="Capline-L" d="M18,476 l800,0" />
        <path id="Baseline-L" d="M18,546 l800,0" />
    </g>
    <g id="Symbols">
        <g id="Ultralight-S">
            <path d="M246.496,136.11 L238.239,112.165 L238.326,112.487 L235.092,96.316 C235.078,96.248 235.071,96.178 235.071,96.109 L235.071,95.843 C235.071,96.043 234.812,96.12 234.703,95.953 C234.728,95.992 234.75,96.032 234.769,96.073 L241.262,110.141 C242.168,112.104 244.435,113.035 246.46,112.276 L246.675,112.196 C247.758,111.79 248.416,110.687 248.259,109.541 L245.17,86.949 C245.122,86.595 245.214,86.237 245.428,85.952 C245.454,85.918 245.503,85.911 245.537,85.937 L245.757,86.101 C246.039,86.313 246.251,86.604 246.366,86.937 L253.156,106.553 C253.631,107.924 254.923,108.844 256.374,108.844 C258.342,108.844 259.9,107.183 259.773,105.219 L258.315,82.621 C258.278,82.055 258.488,81.5 258.889,81.098 C259.066,80.921 259.348,80.905 259.543,81.062 L260.105,81.512 C260.585,81.896 260.905,82.444 261.003,83.051 L264.7,105.972 C264.967,107.628 266.396,108.844 268.072,108.844 C269.831,108.844 271.303,107.508 271.472,105.758 L273.665,83.093 C273.73,82.427 274.061,81.815 274.583,81.397 L274.925,81.124 C275.164,80.933 275.51,80.952 275.728,81.169 C276.13,81.571 276.356,82.116 276.356,82.685 L276.356,114.902 C276.356,118.168 279.969,120.141 282.716,118.375 L290.1,113.628 C290.766,113.2 291.541,112.973 292.332,112.973 L295.748,112.973 C295.108,112.973 294.711,112.276 295.038,111.725 L280.831,135.653 L281.097,135.286 C281.001,135.396 280.728,135.664 280.272,136.041 C279.462,136.712 278.458,137.392 277.254,138.035 C273.737,139.91 269.337,141.046 263.97,141.046 C258.293,141.046 253.801,140.206 250.508,138.774 C248.209,137.774 246.752,136.575 246.369,135.81 L244.154,136.917 L246.496,136.11 Z M241.812,137.725 L241.938,138.025 C244.175,142.498 252.229,146 263.97,146 C270.163,146 275.362,144.658 279.585,142.406 C282.189,141.017 283.915,139.589 284.825,138.549 C284.925,138.435 285.014,138.312 285.091,138.182 L299.298,114.255 C300.932,111.503 298.949,108.018 295.748,108.018 L292.332,108.018 C290.591,108.018 288.886,108.519 287.421,109.461 L280.038,114.207 C280.587,113.854 281.31,114.249 281.31,114.902 L281.31,82.685 C281.31,80.802 280.562,78.997 279.231,77.666 C277.228,75.664 274.041,75.487 271.83,77.256 L271.488,77.529 C269.921,78.783 268.928,80.618 268.734,82.616 L266.541,105.28 C266.617,104.492 267.28,103.89 268.072,103.89 C268.827,103.89 269.471,104.438 269.591,105.184 L265.894,82.263 C265.601,80.442 264.64,78.795 263.2,77.643 L262.638,77.193 C260.471,75.46 257.348,75.633 255.386,77.595 C253.977,79.004 253.243,80.952 253.371,82.94 L254.829,105.538 C254.772,104.646 255.48,103.89 256.374,103.89 C257.034,103.89 257.622,104.308 257.838,104.932 L251.048,85.316 C250.609,84.05 249.802,82.943 248.729,82.138 L248.51,81.973 C246.286,80.306 243.132,80.756 241.465,82.98 C240.469,84.308 240.037,85.975 240.261,87.62 L243.351,110.212 L245.805,109.876 L244.936,107.557 L244.721,107.637 C245.125,107.486 245.579,107.672 245.76,108.065 L239.267,93.997 C239.146,93.735 239.007,93.483 238.849,93.241 C236.263,89.287 230.117,91.118 230.117,95.843 L230.117,96.109 C230.117,96.505 230.156,96.899 230.234,97.288 L233.468,113.458 L233.555,113.78 L241.812,137.725 Z" />
        </g>
        <g id="Regular-S">
            <path d="M446.496,136.11 L438.239,112.165 L438.326,112.487 L435.092,96.316 C435.078,96.248 435.071,96.178 435.071,96.109 L435.071,95.843 C435.071,96.043 434.812,96.12 434.703,95.953 C434.728,95.992 434.75,96.032 434.769,96.073 L441.262,110.141 C442.168,112.104 444.435,113.035 446.46,112.276 L446.675,112.196 C447.758,111.79 448.416,110.687 448.259,109.541 L445.17,86.949 C445.122,86.595 445.214,86.237 445.428,85.952 C445.454,85.918 445.503,85.911 445.537,85.937 L445.757,86.101 C446.039,86.313 446.251,86.604 446.366,86.937 L453.156,106.553 C453.631,107.924 454.923,108.844 456.374,108.844 C458.342,108.844 459.9,107.183 459.773,105.219 L458.315,82.621 C458.278,82.055 458.488,81.5 458.889,81.098 C459.066,80.921 459.348,80.905 459.543,81.062 L460.105,81.512 C460.585,81.896 460.905,82.444 461.003,83.051 L464.7,105.972 C464.967,107.628 466.396,108.844 468.072,108.844 C469.831,108.844 471.303,107.508 471.472,105.758 L473.665,83.093 C473.73,82.427 474.061,81.815 474.583,81.397 L474.925,81.124 C475.164,80.933 475.51,80.952 475.728,81.169 C476.13,81.571 476.356,82.116 476.356,82.685 L476.356,114.902 C476.356,118.168 479.969,120.141 482.716,118.375 L490.1,113.628 C490.766,113.2 491.541,112.973 492.332,112.973 L495.748,112.973 C495.108,112.973 494.711,112.276 495.038,111.725 L480.831,135.653 L481.097,135.286 C481.001,135.396 480.728,135.664 480.272,136.041 C479.462,136.712 478.458,137.392 477.254,138.035 C473.737,139.91 469.337,141.046 463.97,141.046 C458.293,141.046 453.801,140.206 450.508,138.774 C448.209,137.774 446.752,136.575 446.369,135.81 L444.154,136.917 L446.496,136.11 Z M441.812,137.725 L441.938,138.025 C444.175,142.498 452.229,146 463.97,146 C470.163,146 475.362,144.658 479.585,142.406 C482.189,141.017 483.915,139.589 484.825,138.549 C484.925,138.435 485.014,138.312 485.091,138.182 L499.298,114.255 C500.932,111.503 498.949,108.018 495.748,108.018 L492.332,108.018 C490.591,108.018 488.886,108.519 487.421,109.461 L480.038,114.207 C480.587,113.854 481.31,114.249 481.31,114.902 L481.31,82.685 C481.31,80.802 480.562,78.997 479.231,77.666 C477.228,75.664 474.041,75.487 471.83,77.256 L471.488,77.529 C469.921,78.783 468.928,80.618 468.734,82.616 L466.541,105.28 C466.617,104.492 467.28,103.89 468.072,103.89 C468.827,103.89 469.471,104.438 469.591,105.184 L465.894,82.263 C465.601,80.442 464.64,78.795 463.2,77.643 L462.638,77.193 C460.471,75.46 457.348,75.633 455.386,77.595 C453.977,79.004 453.243,80.952 453.371,82.94 L454.829,105.538 C454.772,104.646 455.48,103.89 456.374,103.89 C457.034,103.89 457.622,104.308 457.838,104.932 L451.048,85.316 C450.609,84.05 449.802,82.943 448.729,82.138 L448.51,81.973 C446.286,80.306 443.132,80.756 441.465,82.98 C440.469,84.308 440.037,85.975 440.261,87.62 L443.351,110.212 L445.805,109.876 L444.936,107.557 L444.721,107.637 C445.125,107.486 445.579,107.672 445.76,108.065 L439.267,93.997 C439.146,93.735 439.007,93.483 438.849,93.241 C436.263,89.287 430.117,91.118 430.117,95.843 L430.117,96.109 C430.117,96.505 430.156,96.899 430.234,97.288 L433.468,113.458 L433.555,113.78 L441.812,137.725 Z" />
        </g>
        <g id="Black-S">
            <path d="M646.496,136.11 L638.239,112.165 L638.326,112.487 L635.092,96.316 C635.078,96.248 635.071,96.178 635.071,96.109 L635.071,95.843 C635.071,96.043 634.812,96.12 634.703,95.953 C634.728,95.992 634.75,96.032 634.769,96.073 L641.262,110.141 C642.168,112.104 644.435,113.035 646.46,112.276 L646.675,112.196 C647.758,111.79 648.416,110.687 648.259,109.541 L645.17,86.949 C645.122,86.595 645.214,86.237 645.428,85.952 C645.454,85.918 645.503,85.911 645.537,85.937 L645.757,86.101 C646.039,86.313 646.251,86.604 646.366,86.937 L653.156,106.553 C653.631,107.924 654.923,108.844 656.374,108.844 C658.342,108.844 659.9,107.183 659.773,105.219 L658.315,82.621 C658.278,82.055 658.488,81.5 658.889,81.098 C659.066,80.921 659.348,80.905 659.543,81.062 L660.105,81.512 C660.585,81.896 660.905,82.444 661.003,83.051 L664.7,105.972 C664.967,107.628 666.396,108.844 668.072,108.844 C669.831,108.844 671.303,107.508 671.472,105.758 L673.665,83.093 C673.73,82.427 674.061,81.815 674.583,81.397 L674.925,81.124 C675.164,80.933 675.51,80.952 675.728,81.169 C676.13,81.571 676.356,82.116 676.356,82.685 L676.356,114.902 C676.356,118.168 679.969,120.141 682.716,118.375 L690.1,113.628 C690.766,113.2 691.541,112.973 692.332,112.973 L695.748,112.973 C695.108,112.973 694.711,112.276 695.038,111.725 L680.831,135.653 L681.097,135.286 C681.001,135.396 680.728,135.664 680.272,136.041 C679.462,136.712 678.458,137.392 677.254,138.035 C673.737,139.91 669.337,141.046 663.97,141.046 C658.293,141.046 653.801,140.206 650.508,138.774 C648.209,137.774 646.752,136.575 646.369,135.81 L644.154,136.917 L646.496,136.11 Z M641.812,137.725 L641.938,138.025 C644.175,142.498 652.229,146 663.97,146 C670.163,146 675.362,144.658 679.585,142.406 C682.189,141.017 683.915,139.589 684.825,138.549 C684.925,138.435 685.014,138.312 685.091,138.182 L699.298,114.255 C700.932,111.503 698.949,108.018 695.748,108.018 L692.332,108.018 C690.591,108.018 688.886,108.519 687.421,109.461 L680.038,114.207 C680.587,113.854 681.31,114.249 681.31,114.902 L681.31,82.685 C681.31,80.802 680.562,78.997 679.231,77.666 C677.228,75.664 674.041,75.487 671.83,77.256 L671.488,77.529 C669.921,78.783 668.928,80.618 668.734,82.616 L666.541,105.28 C666.617,104.492 667.28,103.89 668.072,103.89 C668.827,103.89 669.471,104.438 669.591,105.184 L665.894,82.263 C665.601,80.442 664.64,78.795 663.2,77.643 L662.638,77.193 C660.471,75.46 657.348,75.633 655.386,77.595 C653.977,79.004 653.243,80.952 653.371,82.94 L654.829,105.538 C654.772,104.646 655.48,103.89 656.374,103.89 C657.034,103.89 657.622,104.308 657.838,104.932 L651.048,85.316 C650.609,84.05 649.802,82.943 648.729,82.138 L648.51,81.973 C646.286,80.306 643.132,80.756 641.465,82.98 C640.469,84.308 640.037,85.975 640.261,87.62 L643.351,110.212 L645.805,109.876 L644.936,107.557 L644.721,107.637 C645.125,107.486 645.579,107.672 645.76,108.065 L639.267,93.997 C639.146,93.735 639.007,93.483 638.849,93.241 C636.263,89.287 630.117,91.118 630.117,95.843 L630.117,96.109 C630.117,96.505 630.156,96.899 630.234,97.288 L633.468,113.458 L633.555,113.78 L641.812,137.725 Z" />
        </g>
    </g>
</svg>