<?xml version="1.0" encoding="UTF-8"?>
<svg height="600" width="800" xmlns="http://www.w3.org/2000/svg" xmlns:xlink="http://www.w3.org/1999/xlink">
    <g id="Notes" font-family="'LucidaGrande', 'Lucida Grande', sans-serif" font-size="13">
        <rect fill="white" height="600.0" width="800.0" x="0.0" y="0.0" />
        <g font-size="13">
            <text x="18.0" y="176.0">Small</text>
            <text x="18.0" y="376.0">Medium</text>
            <text x="18.0" y="576.0">Large</text>
        </g>
        <g font-size="9">
            <text x="250.0" y="30.0">Ultralight</text>
            <text x="450.0" y="30.0">Regular</text>
            <text x="650.0" y="30.0">Black</text>
            <text id="template-version" fill="#505050" text-anchor="end" x="785.0" y="575.0">Template v.3.0</text>
            <a href="https://github.com/swhitty/SwiftDraw">
                <text fill="#505050" text-anchor="end" x="785.0" y="590.0">https://github.com/swhitty/SwiftDraw</text>
            </a>
        </g>
    </g>
    <g id="Guides" stroke="rgb(39, 170, 225)" stroke-width="0.5">
        <path id="Capline-S" d="M18,76 l800,0" />
        <path id="H-reference" d="M85,145.755 L87.685,145.755 L113.369,79.287 L114.052,79.287 L114.052,76 L112.148,76 L85,145.755 Z M95.693,121.536 L130.996,121.536 L130.263,119.313 L96.474,119.313 L95.693,121.536 Z M139.15,145.755 L141.787,145.755 L114.638,76 L113.466,76 L113.466,79.287 L139.15,145.755 Z" stroke="none" />
        <path id="Baseline-S" d="M18,146 l800,0" />
        <path id="left-margin-Ultralight-S" d="M214.309,56 l0,110" />
        <path id="right-margin-Ultralight-S" d="M315.691,56 l0,110" />
        <path id="left-margin-Regular-S" d="M414.309,56 l0,110" />
        <path id="right-margin-Regular-S" d="M515.691,56 l0,110" />
        <path id="left-margin-Black-S" d="M614.309,56 l0,110" />
        <path id="right-margin-Black-S" d="M715.691,56 l0,110" />
        <path id="Capline-M" d="M18,276 l800,0" />
        <path id="Baseline-M" d="M18,346 l800,0" />
        <path id="Capline-L" d="M18,476 l800,0" />
        <path id="Baseline-L" d="M18,546 l800,0" />
    </g>
    <g id="Symbols">
        <g id="Ultralight-S">
            <path d="M233.793,112.892 C233.793,95.669 248.176,81.676 265.956,81.676 C283.735,81.676 298.118,95.669 298.118,112.892 C298.118,114.459 299.388,115.73 300.956,115.73 C302.523,115.73 303.793,114.459 303.793,112.892 C303.793,92.499 286.836,76 265.956,76 C245.076,76 228.118,92.499 228.118,112.892 C228.118,114.459 229.388,115.73 230.956,115.73 C232.523,115.73 233.793,114.459 233.793,112.892 Z" />
            <path d="M241.299,131.22 L239.285,121.76 C238.83,119.621 236.227,118.779 234.605,120.247 C234.281,120.541 233.736,121.056 233.043,121.747 C231.893,122.895 230.743,124.128 229.663,125.406 C228.423,126.874 227.352,128.312 226.499,129.702 C226,130.515 225.579,131.306 225.244,132.077 C222.211,139.045 226.868,146 234.739,146 L302.848,146 C305.578,146 306.733,142.523 304.547,140.889 L289.412,129.579 C288.922,129.213 288.327,129.015 287.715,129.014 L238.526,128.973 L241.299,131.22 Z M235.748,132.402 C236.027,133.711 237.183,134.648 238.521,134.649 L287.71,134.69 L286.014,134.125 L301.149,145.435 L302.848,140.324 L234.739,140.324 C230.927,140.324 229.058,137.534 230.448,134.342 C230.67,133.83 230.968,133.27 231.336,132.671 C232.023,131.551 232.929,130.335 233.999,129.069 C234.966,127.924 236.009,126.806 237.052,125.765 C237.675,125.143 238.154,124.691 238.414,124.455 L233.734,122.942 L235.748,132.402 Z" />
            <path d="M276.378,129.711 L255.567,110.792 C255.045,110.317 254.364,110.054 253.658,110.054 L247.983,110.054 C246.192,110.054 244.849,111.692 245.2,113.448 L248.984,132.367 C249.291,133.904 250.786,134.901 252.323,134.594 C253.86,134.286 254.857,132.791 254.549,131.254 L250.765,112.335 L247.983,115.73 L253.658,115.73 L251.749,114.992 L272.56,133.911 C273.72,134.965 275.515,134.879 276.569,133.72 C277.623,132.56 277.538,130.765 276.378,129.711 Z" />
        </g>
        <g id="Regular-S">
            <path d="M433.793,112.892 C433.793,95.669 448.176,81.676 465.956,81.676 C483.735,81.676 498.118,95.669 498.118,112.892 C498.118,114.459 499.388,115.73 500.956,115.73 C502.523,115.73 503.793,114.459 503.793,112.892 C503.793,92.499 486.836,76 465.956,76 C445.076,76 428.118,92.499 428.118,112.892 C428.118,114.459 429.388,115.73 430.956,115.73 C432.523,115.73 433.793,114.459 433.793,112.892 Z" />
            <path d="M441.299,131.22 L439.285,121.76 C438.83,119.621 436.227,118.779 434.605,120.247 C434.281,120.541 433.736,121.056 433.043,121.747 C431.893,122.895 430.743,124.128 429.663,125.406 C428.423,126.874 427.352,128.312 426.499,129.702 C426,130.515 425.579,131.306 425.244,132.077 C422.211,139.045 426.868,146 434.739,146 L502.848,146 C505.578,146 506.733,142.523 504.547,140.889 L489.412,129.579 C488.922,129.213 488.327,129.015 487.715,129.014 L438.526,128.973 L441.299,131.22 Z M435.748,132.402 C436.027,133.711 437.183,134.648 438.521,134.649 L487.71,134.69 L486.014,134.125 L501.149,145.435 L502.848,140.324 L434.739,140.324 C430.927,140.324 429.058,137.534 430.448,134.342 C430.67,133.83 430.968,133.27 431.336,132.671 C432.023,131.551 432.929,130.335 433.999,129.069 C434.966,127.924 436.009,126.806 437.052,125.765 C437.675,125.143 438.154,124.691 438.414,124.455 L433.734,122.942 L435.748,132.402 Z" />
            <path d="M476.378,129.711 L455.567,110.792 C455.045,110.317 454.364,110.054 453.658,110.054 L447.983,110.054 C446.192,110.054 444.849,111.692 445.2,113.448 L448.984,132.367 C449.291,133.904 450.786,134.901 452.323,134.594 C453.86,134.286 454.857,132.791 454.549,131.254 L450.765,112.335 L447.983,115.73 L453.658,115.73 L451.749,114.992 L472.56,133.911 C473.72,134.965 475.515,134.879 476.569,133.72 C477.623,132.56 477.538,130.765 476.378,129.711 Z" />
        </g>
        <g id="Black-S">
            <path d="M633.794,112.892 C633.794,95.669 648.176,81.676 665.956,81.676 C683.735,81.676 698.118,95.669 698.118,112.892 C698.118,114.459 699.388,115.73 700.956,115.73 C702.523,115.73 703.794,114.459 703.794,112.892 C703.794,92.499 686.836,76 665.956,76 C645.076,76 628.118,92.499 628.118,112.892 C628.118,114.459 629.388,115.73 630.956,115.73 C632.523,115.73 633.794,114.459 633.794,112.892 Z" />
            <path d="M641.299,131.22 L639.285,121.76 C638.83,119.621 636.227,118.779 634.605,120.247 C634.281,120.541 633.736,121.056 633.043,121.747 C631.893,122.895 630.743,124.128 629.663,125.406 C628.423,126.874 627.352,128.312 626.499,129.702 C626,130.515 625.579,131.306 625.244,132.077 C622.211,139.045 626.868,146 634.739,146 L702.848,146 C705.578,146 706.733,142.523 704.547,140.889 L689.412,129.579 C688.922,129.213 688.327,129.015 687.715,129.014 L638.526,128.973 L641.299,131.22 Z M635.748,132.402 C636.027,133.711 637.183,134.648 638.521,134.649 L687.71,134.69 L686.014,134.125 L701.149,145.435 L702.848,140.324 L634.739,140.324 C630.927,140.324 629.058,137.534 630.448,134.342 C630.67,133.83 630.969,133.27 631.336,132.671 C632.023,131.551 632.929,130.335 633.999,129.069 C634.966,127.924 636.009,126.806 637.052,125.765 C637.675,125.143 638.154,124.691 638.414,124.455 L633.734,122.942 L635.748,132.402 Z" />
            <path d="M676.378,129.711 L655.567,110.792 C655.045,110.317 654.364,110.054 653.658,110.054 L647.983,110.054 C646.192,110.054 644.849,111.692 645.2,113.448 L648.984,132.367 C649.291,133.904 650.786,134.901 652.323,134.594 C653.86,134.286 654.857,132.791 654.549,131.254 L650.765,112.335 L647.983,115.73 L653.658,115.73 L651.749,114.992 L672.56,133.911 C673.72,134.965 675.515,134.879 676.569,133.72 C677.623,132.56 677.538,130.765 676.378,129.711 Z" />
        </g>
    </g>
</svg>