<?xml version="1.0" encoding="UTF-8"?>
<svg height="600" width="800" xmlns="http://www.w3.org/2000/svg" xmlns:xlink="http://www.w3.org/1999/xlink">
    <g id="Notes" font-family="'LucidaGrande', 'Lucida Grande', sans-serif" font-size="13">
        <rect fill="white" height="600.0" width="800.0" x="0.0" y="0.0" />
        <g font-size="13">
            <text x="18.0" y="176.0">Small</text>
            <text x="18.0" y="376.0">Medium</text>
            <text x="18.0" y="576.0">Large</text>
        </g>
        <g font-size="9">
            <text x="250.0" y="30.0">Ultralight</text>
            <text x="450.0" y="30.0">Regular</text>
            <text x="650.0" y="30.0">Black</text>
            <text id="template-version" fill="#505050" text-anchor="end" x="785.0" y="575.0">Template v.3.0</text>
            <a href="https://github.com/swhitty/SwiftDraw">
                <text fill="#505050" text-anchor="end" x="785.0" y="590.0">https://github.com/swhitty/SwiftDraw</text>
            </a>
        </g>
    </g>
    <g id="Guides" stroke="rgb(39, 170, 225)" stroke-width="0.5">
        <path id="Capline-S" d="M18,76 l800,0" />
        <path id="H-reference" d="M85,145.755 L87.685,145.755 L113.369,79.287 L114.052,79.287 L114.052,76 L112.148,76 L85,145.755 Z M95.693,121.536 L130.996,121.536 L130.263,119.313 L96.474,119.313 L95.693,121.536 Z M139.15,145.755 L141.787,145.755 L114.638,76 L113.466,76 L113.466,79.287 L139.15,145.755 Z" stroke="none" />
        <path id="Baseline-S" d="M18,146 l800,0" />
        <path id="left-margin-Ultralight-S" d="M221,56 l0,110" />
        <path id="right-margin-Ultralight-S" d="M309,56 l0,110" />
        <path id="left-margin-Regular-S" d="M421,56 l0,110" />
        <path id="right-margin-Regular-S" d="M509,56 l0,110" />
        <path id="left-margin-Black-S" d="M621,56 l0,110" />
        <path id="right-margin-Black-S" d="M709,56 l0,110" />
        <path id="Capline-M" d="M18,276 l800,0" />
        <path id="Baseline-M" d="M18,346 l800,0" />
        <path id="Capline-L" d="M18,476 l800,0" />
        <path id="Baseline-L" d="M18,546 l800,0" />
    </g>
    <g id="Symbols">
        <g id="Ultralight-S">
            <path d="M294.299,108.558 L235.701,108.558 C234.352,108.558 233.259,109.652 233.259,111 C233.259,112.348 234.352,113.442 235.701,113.442 L294.299,113.442 C295.648,113.442 296.741,112.348 296.741,111 C296.741,109.652 295.648,108.558 294.299,108.558 Z" />
            <path d="M247.553,80.589 L283.364,100.122 L284.533,95.536 L248.723,95.536 L251.164,97.978 L251.164,78.445 L247.553,80.589 Z M249.892,76.302 C248.265,75.414 246.281,76.592 246.281,78.445 L246.281,97.978 C246.281,99.326 247.374,100.42 248.723,100.42 L284.533,100.42 C287.062,100.42 287.923,97.046 285.702,95.835 L249.892,76.302 Z" />
            <path d="M251.164,143.555 L251.164,124.022 L248.723,126.464 L284.533,126.464 L283.364,121.878 L247.553,141.411 L251.164,143.555 Z M246.281,143.555 C246.281,145.408 248.265,146.586 249.892,145.698 L285.702,126.165 C287.923,124.954 287.062,121.58 284.533,121.58 L248.723,121.58 C247.374,121.58 246.281,122.673 246.281,124.022 L246.281,143.555 Z" />
        </g>
        <g id="Regular-S">
            <path d="M494.299,108.558 L435.701,108.558 C434.352,108.558 433.259,109.652 433.259,111 C433.259,112.348 434.352,113.442 435.701,113.442 L494.299,113.442 C495.648,113.442 496.741,112.348 496.741,111 C496.741,109.652 495.648,108.558 494.299,108.558 Z" />
            <path d="M447.553,80.589 L483.364,100.122 L484.533,95.536 L448.723,95.536 L451.164,97.978 L451.164,78.445 L447.553,80.589 Z M449.892,76.302 C448.265,75.414 446.281,76.592 446.281,78.445 L446.281,97.978 C446.281,99.326 447.374,100.42 448.723,100.42 L484.533,100.42 C487.062,100.42 487.923,97.046 485.702,95.835 L449.892,76.302 Z" />
            <path d="M451.164,143.555 L451.164,124.022 L448.723,126.464 L484.533,126.464 L483.364,121.878 L447.553,141.411 L451.164,143.555 Z M446.281,143.555 C446.281,145.408 448.265,146.586 449.892,145.698 L485.702,126.165 C487.923,124.954 487.062,121.58 484.533,121.58 L448.723,121.58 C447.374,121.58 446.281,122.673 446.281,124.022 L446.281,143.555 Z" />
        </g>
        <g id="Black-S">
            <path d="M694.299,108.558 L635.701,108.558 C634.352,108.558 633.259,109.652 633.259,111 C633.259,112.348 634.352,113.442 635.701,113.442 L694.299,113.442 C695.648,113.442 696.741,112.348 696.741,111 C696.741,109.652 695.648,108.558 694.299,108.558 Z" />
            <path d="M647.553,80.589 L683.364,100.122 L684.533,95.536 L648.723,95.536 L651.164,97.978 L651.164,78.445 L647.553,80.589 Z M649.892,76.302 C648.265,75.414 646.281,76.592 646.281,78.445 L646.281,97.978 C646.281,99.326 647.374,100.42 648.723,100.42 L684.533,100.42 C687.062,100.42 687.923,97.046 685.702,95.835 L649.892,76.302 Z" />
            <path d="M651.164,143.555 L651.164,124.022 L648.723,126.464 L684.533,126.464 L683.364,121.878 L647.553,141.411 L651.164,143.555 Z M646.281,143.555 C646.281,145.408 648.265,146.586 649.892,145.698 L685.702,126.165 C687.923,124.954 687.062,121.58 684.533,121.58 L648.723,121.58 C647.374,121.58 646.281,122.673 646.281,124.022 L646.281,143.555 Z" />
        </g>
    </g>
</svg>