<?xml version="1.0" encoding="UTF-8"?>
<svg height="600" width="800" xmlns="http://www.w3.org/2000/svg" xmlns:xlink="http://www.w3.org/1999/xlink">
    <g id="Notes" font-family="'LucidaGrande', 'Lucida Grande', sans-serif" font-size="13">
        <rect fill="white" height="600.0" width="800.0" x="0.0" y="0.0" />
        <g font-size="13">
            <text x="18.0" y="176.0">Small</text>
            <text x="18.0" y="376.0">Medium</text>
            <text x="18.0" y="576.0">Large</text>
        </g>
        <g font-size="9">
            <text x="250.0" y="30.0">Ultralight</text>
            <text x="450.0" y="30.0">Regular</text>
            <text x="650.0" y="30.0">Black</text>
            <text id="template-version" fill="#505050" text-anchor="end" x="785.0" y="575.0">Template v.3.0</text>
            <a href="https://github.com/swhitty/SwiftDraw">
                <text fill="#505050" text-anchor="end" x="785.0" y="590.0">https://github.com/swhitty/SwiftDraw</text>
            </a>
        </g>
    </g>
    <g id="Guides" stroke="rgb(39, 170, 225)" stroke-width="0.5">
        <path id="Capline-S" d="M18,76 l800,0" />
        <path id="H-reference" d="M85,145.755 L87.685,145.755 L113.369,79.287 L114.052,79.287 L114.052,76 L112.148,76 L85,145.755 Z M95.693,121.536 L130.996,121.536 L130.263,119.313 L96.474,119.313 L95.693,121.536 Z M139.15,145.755 L141.787,145.755 L114.638,76 L113.466,76 L113.466,79.287 L139.15,145.755 Z" stroke="none" />
        <path id="Baseline-S" d="M18,146 l800,0" />
        <path id="left-margin-Ultralight-S" d="M218.205,56 l0,110" />
        <path id="right-margin-Ultralight-S" d="M311.795,56 l0,110" />
        <path id="left-margin-Regular-S" d="M418.205,56 l0,110" />
        <path id="right-margin-Regular-S" d="M511.795,56 l0,110" />
        <path id="left-margin-Black-S" d="M618.205,56 l0,110" />
        <path id="right-margin-Black-S" d="M711.795,56 l0,110" />
        <path id="Capline-M" d="M18,276 l800,0" />
        <path id="Baseline-M" d="M18,346 l800,0" />
        <path id="Capline-L" d="M18,476 l800,0" />
        <path id="Baseline-L" d="M18,546 l800,0" />
    </g>
    <g id="Symbols">
        <g id="Ultralight-S">
            <path d="M233.59,82.282 C233.59,81.786 233.992,81.385 234.487,81.385 L256.026,81.385 L253.957,80.416 L262.932,91.185 C263.443,91.799 264.201,92.154 265,92.154 L295.513,92.154 C296.009,92.154 296.41,92.556 296.41,93.051 L296.41,139.718 C296.41,140.214 296.009,140.615 295.513,140.615 L234.487,140.615 C233.992,140.615 233.59,140.214 233.59,139.718 L233.59,82.282 Z M228.205,82.282 L228.205,139.718 C228.205,143.187 231.018,146 234.487,146 L295.513,146 C298.982,146 301.795,143.187 301.795,139.718 L301.795,93.051 C301.795,89.582 298.982,86.769 295.513,86.769 L265,86.769 L267.068,87.738 L258.094,76.969 C257.582,76.355 256.825,76 256.026,76 L234.487,76 C231.018,76 228.205,78.813 228.205,82.282 Z" />
            <path d="M299.103,104.718 L230.897,104.718 L230.897,110.103 L299.103,110.103 L299.103,104.718 Z" />
            <path d="M228.205,96.641 L228.205,118.179 C228.205,119.666 229.411,120.872 230.897,120.872 C232.384,120.872 233.59,119.666 233.59,118.179 L233.59,96.641 C233.59,95.154 232.384,93.949 230.897,93.949 C229.411,93.949 228.205,95.154 228.205,96.641 Z" />
            <path d="M296.41,96.641 L296.41,118.179 C296.41,119.666 297.616,120.872 299.103,120.872 C300.589,120.872 301.795,119.666 301.795,118.179 L301.795,96.641 C301.795,95.154 300.589,93.949 299.103,93.949 C297.616,93.949 296.41,95.154 296.41,96.641 Z" />
        </g>
        <g id="Regular-S">
            <path d="M433.59,82.282 C433.59,81.786 433.992,81.385 434.487,81.385 L456.026,81.385 L453.957,80.416 L462.932,91.185 C463.443,91.799 464.201,92.154 465,92.154 L495.513,92.154 C496.009,92.154 496.41,92.556 496.41,93.051 L496.41,139.718 C496.41,140.214 496.009,140.615 495.513,140.615 L434.487,140.615 C433.992,140.615 433.59,140.214 433.59,139.718 L433.59,82.282 Z M428.205,82.282 L428.205,139.718 C428.205,143.187 431.018,146 434.487,146 L495.513,146 C498.982,146 501.795,143.187 501.795,139.718 L501.795,93.051 C501.795,89.582 498.982,86.769 495.513,86.769 L465,86.769 L467.068,87.738 L458.094,76.969 C457.582,76.355 456.825,76 456.026,76 L434.487,76 C431.018,76 428.205,78.813 428.205,82.282 Z" />
            <path d="M499.103,104.718 L430.897,104.718 L430.897,110.103 L499.103,110.103 L499.103,104.718 Z" />
            <path d="M428.205,96.641 L428.205,118.179 C428.205,119.666 429.41,120.872 430.897,120.872 C432.384,120.872 433.59,119.666 433.59,118.179 L433.59,96.641 C433.59,95.154 432.384,93.949 430.897,93.949 C429.41,93.949 428.205,95.154 428.205,96.641 Z" />
            <path d="M496.41,96.641 L496.41,118.179 C496.41,119.666 497.616,120.872 499.103,120.872 C500.589,120.872 501.795,119.666 501.795,118.179 L501.795,96.641 C501.795,95.154 500.589,93.949 499.103,93.949 C497.616,93.949 496.41,95.154 496.41,96.641 Z" />
        </g>
        <g id="Black-S">
            <path d="M633.59,82.282 C633.59,81.786 633.992,81.385 634.487,81.385 L656.026,81.385 L653.957,80.416 L662.932,91.185 C663.443,91.799 664.201,92.154 665,92.154 L695.513,92.154 C696.009,92.154 696.41,92.556 696.41,93.051 L696.41,139.718 C696.41,140.214 696.009,140.615 695.513,140.615 L634.487,140.615 C633.992,140.615 633.59,140.214 633.59,139.718 L633.59,82.282 Z M628.205,82.282 L628.205,139.718 C628.205,143.187 631.018,146 634.487,146 L695.513,146 C698.982,146 701.795,143.187 701.795,139.718 L701.795,93.051 C701.795,89.582 698.982,86.769 695.513,86.769 L665,86.769 L667.068,87.738 L658.094,76.969 C657.582,76.355 656.825,76 656.026,76 L634.487,76 C631.018,76 628.205,78.813 628.205,82.282 Z" />
            <path d="M699.103,104.718 L630.897,104.718 L630.897,110.103 L699.103,110.103 L699.103,104.718 Z" />
            <path d="M628.205,96.641 L628.205,118.179 C628.205,119.666 629.411,120.872 630.897,120.872 C632.384,120.872 633.59,119.666 633.59,118.179 L633.59,96.641 C633.59,95.154 632.384,93.949 630.897,93.949 C629.411,93.949 628.205,95.154 628.205,96.641 Z" />
            <path d="M696.41,96.641 L696.41,118.179 C696.41,119.666 697.616,120.872 699.103,120.872 C700.589,120.872 701.795,119.666 701.795,118.179 L701.795,96.641 C701.795,95.154 700.589,93.949 699.103,93.949 C697.616,93.949 696.41,95.154 696.41,96.641 Z" />
        </g>
    </g>
</svg>