<?xml version="1.0" encoding="UTF-8"?>
<svg height="600" width="800" xmlns="http://www.w3.org/2000/svg" xmlns:xlink="http://www.w3.org/1999/xlink">
    <g id="Notes" font-family="'LucidaGrande', 'Lucida Grande', sans-serif" font-size="13">
        <rect fill="white" height="600.0" width="800.0" x="0.0" y="0.0" />
        <g font-size="13">
            <text x="18.0" y="176.0">Small</text>
            <text x="18.0" y="376.0">Medium</text>
            <text x="18.0" y="576.0">Large</text>
        </g>
        <g font-size="9">
            <text x="250.0" y="30.0">Ultralight</text>
            <text x="450.0" y="30.0">Regular</text>
            <text x="650.0" y="30.0">Black</text>
            <text id="template-version" fill="#505050" text-anchor="end" x="785.0" y="575.0">Template v.3.0</text>
            <a href="https://github.com/swhitty/SwiftDraw">
                <text fill="#505050" text-anchor="end" x="785.0" y="590.0">https://github.com/swhitty/SwiftDraw</text>
            </a>
        </g>
    </g>
    <g id="Guides" stroke="rgb(39, 170, 225)" stroke-width="0.5">
        <path id="Capline-S" d="M18,76 l800,0" />
        <path id="H-reference" d="M85,145.755 L87.685,145.755 L113.369,79.287 L114.052,79.287 L114.052,76 L112.148,76 L85,145.755 Z M95.693,121.536 L130.996,121.536 L130.263,119.313 L96.474,119.313 L95.693,121.536 Z M139.15,145.755 L141.787,145.755 L114.638,76 L113.466,76 L113.466,79.287 L139.15,145.755 Z" stroke="none" />
        <path id="Baseline-S" d="M18,146 l800,0" />
        <path id="left-margin-Ultralight-S" d="M218.205,56 l0,110" />
        <path id="right-margin-Ultralight-S" d="M311.795,56 l0,110" />
        <path id="left-margin-Regular-S" d="M418.205,56 l0,110" />
        <path id="right-margin-Regular-S" d="M511.795,56 l0,110" />
        <path id="left-margin-Black-S" d="M618.205,56 l0,110" />
        <path id="right-margin-Black-S" d="M711.795,56 l0,110" />
        <path id="Capline-M" d="M18,276 l800,0" />
        <path id="Baseline-M" d="M18,346 l800,0" />
        <path id="Capline-L" d="M18,476 l800,0" />
        <path id="Baseline-L" d="M18,546 l800,0" />
    </g>
    <g id="Symbols">
        <g id="Ultralight-S">
            <path d="M233.59,82.282 C233.59,81.786 233.992,81.385 234.487,81.385 L256.026,81.385 L253.957,80.416 L262.932,91.185 C263.443,91.799 264.201,92.154 265,92.154 L295.513,92.154 C296.009,92.154 296.41,92.556 296.41,93.051 L296.41,139.718 C296.41,140.214 296.009,140.615 295.513,140.615 L234.487,140.615 C233.992,140.615 233.59,140.214 233.59,139.718 L233.59,82.282 Z M228.205,82.282 L228.205,139.718 C228.205,143.187 231.018,146 234.487,146 L295.513,146 C298.982,146 301.795,143.187 301.795,139.718 L301.795,93.051 C301.795,89.582 298.982,86.769 295.513,86.769 L265,86.769 L267.068,87.738 L258.094,76.969 C257.582,76.355 256.825,76 256.026,76 L234.487,76 C231.018,76 228.205,78.813 228.205,82.282 Z" />
            <path d="M253.333,114.59 C253.333,110.129 256.949,106.513 261.41,106.513 C265.871,106.513 269.487,110.129 269.487,114.59 C269.487,119.051 265.871,122.667 261.41,122.667 C256.949,122.667 253.333,119.051 253.333,114.59 Z M247.949,114.59 C247.949,122.024 253.976,128.051 261.41,128.051 C268.845,128.051 274.872,122.024 274.872,114.59 C274.872,107.155 268.845,101.128 261.41,101.128 C253.976,101.128 247.949,107.155 247.949,114.59 Z" />
            <path d="M268.703,123.872 L277.677,131.051 C278.838,131.98 280.532,131.792 281.461,130.631 C282.39,129.469 282.202,127.775 281.041,126.846 L272.066,119.667 C270.905,118.738 269.211,118.926 268.282,120.087 C267.353,121.248 267.542,122.943 268.703,123.872 Z" />
        </g>
        <g id="Regular-S">
            <path d="M433.59,82.282 C433.59,81.786 433.992,81.385 434.487,81.385 L456.026,81.385 L453.957,80.416 L462.932,91.185 C463.443,91.799 464.201,92.154 465,92.154 L495.513,92.154 C496.009,92.154 496.41,92.556 496.41,93.051 L496.41,139.718 C496.41,140.214 496.009,140.615 495.513,140.615 L434.487,140.615 C433.992,140.615 433.59,140.214 433.59,139.718 L433.59,82.282 Z M428.205,82.282 L428.205,139.718 C428.205,143.187 431.018,146 434.487,146 L495.513,146 C498.982,146 501.795,143.187 501.795,139.718 L501.795,93.051 C501.795,89.582 498.982,86.769 495.513,86.769 L465,86.769 L467.068,87.738 L458.094,76.969 C457.582,76.355 456.825,76 456.026,76 L434.487,76 C431.018,76 428.205,78.813 428.205,82.282 Z" />
            <path d="M453.333,114.59 C453.333,110.129 456.949,106.513 461.41,106.513 C465.871,106.513 469.487,110.129 469.487,114.59 C469.487,119.051 465.871,122.667 461.41,122.667 C456.949,122.667 453.333,119.051 453.333,114.59 Z M447.949,114.59 C447.949,122.024 453.976,128.051 461.41,128.051 C468.845,128.051 474.872,122.024 474.872,114.59 C474.872,107.155 468.845,101.128 461.41,101.128 C453.976,101.128 447.949,107.155 447.949,114.59 Z" />
            <path d="M468.703,123.872 L477.677,131.051 C478.838,131.98 480.532,131.792 481.461,130.631 C482.39,129.469 482.202,127.775 481.041,126.846 L472.066,119.667 C470.905,118.738 469.211,118.926 468.282,120.087 C467.353,121.248 467.542,122.943 468.703,123.872 Z" />
        </g>
        <g id="Black-S">
            <path d="M633.59,82.282 C633.59,81.786 633.992,81.385 634.487,81.385 L656.026,81.385 L653.957,80.416 L662.932,91.185 C663.443,91.799 664.201,92.154 665,92.154 L695.513,92.154 C696.009,92.154 696.41,92.556 696.41,93.051 L696.41,139.718 C696.41,140.214 696.009,140.615 695.513,140.615 L634.487,140.615 C633.992,140.615 633.59,140.214 633.59,139.718 L633.59,82.282 Z M628.205,82.282 L628.205,139.718 C628.205,143.187 631.018,146 634.487,146 L695.513,146 C698.982,146 701.795,143.187 701.795,139.718 L701.795,93.051 C701.795,89.582 698.982,86.769 695.513,86.769 L665,86.769 L667.068,87.738 L658.094,76.969 C657.582,76.355 656.825,76 656.026,76 L634.487,76 C631.018,76 628.205,78.813 628.205,82.282 Z" />
            <path d="M653.333,114.59 C653.333,110.129 656.95,106.513 661.41,106.513 C665.871,106.513 669.487,110.129 669.487,114.59 C669.487,119.051 665.871,122.667 661.41,122.667 C656.95,122.667 653.333,119.051 653.333,114.59 Z M647.949,114.59 C647.949,122.024 653.976,128.051 661.41,128.051 C668.845,128.051 674.872,122.024 674.872,114.59 C674.872,107.155 668.845,101.128 661.41,101.128 C653.976,101.128 647.949,107.155 647.949,114.59 Z" />
            <path d="M668.703,123.872 L677.677,131.051 C678.838,131.98 680.532,131.792 681.461,130.631 C682.39,129.469 682.202,127.775 681.041,126.846 L672.067,119.667 C670.905,118.738 669.211,118.926 668.282,120.087 C667.353,121.248 667.542,122.943 668.703,123.872 Z" />
        </g>
    </g>
</svg>