<?xml version="1.0" encoding="UTF-8"?>
<svg height="600" width="800" xmlns="http://www.w3.org/2000/svg" xmlns:xlink="http://www.w3.org/1999/xlink">
    <g id="Notes" font-family="'LucidaGrande', 'Lucida Grande', sans-serif" font-size="13">
        <rect fill="white" height="600.0" width="800.0" x="0.0" y="0.0" />
        <g font-size="13">
            <text x="18.0" y="176.0">Small</text>
            <text x="18.0" y="376.0">Medium</text>
            <text x="18.0" y="576.0">Large</text>
        </g>
        <g font-size="9">
            <text x="250.0" y="30.0">Ultralight</text>
            <text x="450.0" y="30.0">Regular</text>
            <text x="650.0" y="30.0">Black</text>
            <text id="template-version" fill="#505050" text-anchor="end" x="785.0" y="575.0">Template v.3.0</text>
            <a href="https://github.com/swhitty/SwiftDraw">
                <text fill="#505050" text-anchor="end" x="785.0" y="590.0">https://github.com/swhitty/SwiftDraw</text>
            </a>
        </g>
    </g>
    <g id="Guides" stroke="rgb(39, 170, 225)" stroke-width="0.5">
        <path id="Capline-S" d="M18,76 l800,0" />
        <path id="H-reference" d="M85,145.755 L87.685,145.755 L113.369,79.287 L114.052,79.287 L114.052,76 L112.148,76 L85,145.755 Z M95.693,121.536 L130.996,121.536 L130.263,119.313 L96.474,119.313 L95.693,121.536 Z M139.15,145.755 L141.787,145.755 L114.638,76 L113.466,76 L113.466,79.287 L139.15,145.755 Z" stroke="none" />
        <path id="Baseline-S" d="M18,146 l800,0" />
        <path id="left-margin-Ultralight-S" d="M218.205,56 l0,110" />
        <path id="right-margin-Ultralight-S" d="M311.795,56 l0,110" />
        <path id="left-margin-Regular-S" d="M418.205,56 l0,110" />
        <path id="right-margin-Regular-S" d="M511.795,56 l0,110" />
        <path id="left-margin-Black-S" d="M618.205,56 l0,110" />
        <path id="right-margin-Black-S" d="M711.795,56 l0,110" />
        <path id="Capline-M" d="M18,276 l800,0" />
        <path id="Baseline-M" d="M18,346 l800,0" />
        <path id="Capline-L" d="M18,476 l800,0" />
        <path id="Baseline-L" d="M18,546 l800,0" />
    </g>
    <g id="Symbols">
        <g id="Ultralight-S">
            <path d="M301.795,109.205 L301.795,93.051 C301.795,89.582 298.982,86.769 295.513,86.769 L265,86.769 L267.068,87.738 L258.094,76.969 C257.582,76.355 256.825,76 256.026,76 L234.487,76 C231.018,76 228.205,78.813 228.205,82.282 L228.205,139.718 C228.205,143.187 231.018,146 234.487,146 L261.41,146 C262.897,146 264.103,144.795 264.103,143.308 C264.103,141.821 262.897,140.615 261.41,140.615 L234.487,140.615 C233.992,140.615 233.59,140.214 233.59,139.718 L233.59,82.282 C233.59,81.786 233.992,81.385 234.487,81.385 L256.026,81.385 L253.957,80.416 L262.932,91.185 C263.443,91.799 264.201,92.154 265,92.154 L295.513,92.154 C296.009,92.154 296.41,92.556 296.41,93.051 L296.41,109.205 C296.41,110.692 297.616,111.897 299.103,111.897 C300.589,111.897 301.795,110.692 301.795,109.205 Z" />
            <path d="M270.385,126.256 L295.513,126.256 C297,126.256 298.205,125.051 298.205,123.564 C298.205,122.077 297,120.872 295.513,120.872 L270.385,120.872 C268.898,120.872 267.692,122.077 267.692,123.564 C267.692,125.051 268.898,126.256 270.385,126.256 Z" />
            <path d="M270.385,137.026 L295.513,137.026 C297,137.026 298.205,135.82 298.205,134.333 C298.205,132.846 297,131.641 295.513,131.641 L270.385,131.641 C268.898,131.641 267.692,132.846 267.692,134.333 C267.692,135.82 268.898,137.026 270.385,137.026 Z" />
            <path d="M297.417,121.66 L288.442,112.686 C287.391,111.635 285.686,111.635 284.635,112.686 C283.583,113.737 283.583,115.442 284.635,116.493 L293.609,125.468 C294.66,126.519 296.365,126.519 297.417,125.468 C298.468,124.416 298.468,122.712 297.417,121.66 Z" />
            <path d="M281.263,141.404 L272.288,132.43 C271.237,131.378 269.532,131.378 268.481,132.43 C267.429,133.481 267.429,135.186 268.481,136.237 L277.455,145.211 C278.507,146.263 280.211,146.263 281.263,145.211 C282.314,144.16 282.314,142.455 281.263,141.404 Z" />
        </g>
        <g id="Regular-S">
            <path d="M501.795,109.205 L501.795,93.051 C501.795,89.582 498.982,86.769 495.513,86.769 L465,86.769 L467.068,87.738 L458.094,76.969 C457.582,76.355 456.825,76 456.026,76 L434.487,76 C431.018,76 428.205,78.813 428.205,82.282 L428.205,139.718 C428.205,143.187 431.018,146 434.487,146 L461.41,146 C462.897,146 464.103,144.795 464.103,143.308 C464.103,141.821 462.897,140.615 461.41,140.615 L434.487,140.615 C433.992,140.615 433.59,140.214 433.59,139.718 L433.59,82.282 C433.59,81.786 433.992,81.385 434.487,81.385 L456.026,81.385 L453.957,80.416 L462.932,91.185 C463.443,91.799 464.201,92.154 465,92.154 L495.513,92.154 C496.009,92.154 496.41,92.556 496.41,93.051 L496.41,109.205 C496.41,110.692 497.616,111.897 499.103,111.897 C500.589,111.897 501.795,110.692 501.795,109.205 Z" />
            <path d="M470.385,126.256 L495.513,126.256 C497,126.256 498.205,125.051 498.205,123.564 C498.205,122.077 497,120.872 495.513,120.872 L470.385,120.872 C468.898,120.872 467.692,122.077 467.692,123.564 C467.692,125.051 468.898,126.256 470.385,126.256 Z" />
            <path d="M470.385,137.026 L495.513,137.026 C497,137.026 498.205,135.82 498.205,134.333 C498.205,132.846 497,131.641 495.513,131.641 L470.385,131.641 C468.898,131.641 467.692,132.846 467.692,134.333 C467.692,135.82 468.898,137.026 470.385,137.026 Z" />
            <path d="M497.417,121.66 L488.442,112.686 C487.391,111.635 485.686,111.635 484.635,112.686 C483.583,113.737 483.583,115.442 484.635,116.493 L493.609,125.468 C494.66,126.519 496.365,126.519 497.417,125.468 C498.468,124.416 498.468,122.712 497.417,121.66 Z" />
            <path d="M481.263,141.404 L472.288,132.43 C471.237,131.378 469.532,131.378 468.481,132.43 C467.429,133.481 467.429,135.186 468.481,136.237 L477.455,145.211 C478.507,146.263 480.211,146.263 481.263,145.211 C482.314,144.16 482.314,142.455 481.263,141.404 Z" />
        </g>
        <g id="Black-S">
            <path d="M701.795,109.205 L701.795,93.051 C701.795,89.582 698.982,86.769 695.513,86.769 L665,86.769 L667.068,87.738 L658.094,76.969 C657.582,76.355 656.825,76 656.026,76 L634.487,76 C631.018,76 628.205,78.813 628.205,82.282 L628.205,139.718 C628.205,143.187 631.018,146 634.487,146 L661.41,146 C662.897,146 664.103,144.795 664.103,143.308 C664.103,141.821 662.897,140.615 661.41,140.615 L634.487,140.615 C633.992,140.615 633.59,140.214 633.59,139.718 L633.59,82.282 C633.59,81.786 633.992,81.385 634.487,81.385 L656.026,81.385 L653.957,80.416 L662.932,91.185 C663.443,91.799 664.201,92.154 665,92.154 L695.513,92.154 C696.009,92.154 696.41,92.556 696.41,93.051 L696.41,109.205 C696.41,110.692 697.616,111.897 699.103,111.897 C700.589,111.897 701.795,110.692 701.795,109.205 Z" />
            <path d="M670.385,126.256 L695.513,126.256 C697,126.256 698.205,125.051 698.205,123.564 C698.205,122.077 697,120.872 695.513,120.872 L670.385,120.872 C668.898,120.872 667.692,122.077 667.692,123.564 C667.692,125.051 668.898,126.256 670.385,126.256 Z" />
            <path d="M670.385,137.026 L695.513,137.026 C697,137.026 698.205,135.82 698.205,134.333 C698.205,132.846 697,131.641 695.513,131.641 L670.385,131.641 C668.898,131.641 667.692,132.846 667.692,134.333 C667.692,135.82 668.898,137.026 670.385,137.026 Z" />
            <path d="M697.417,121.66 L688.442,112.686 C687.391,111.635 685.686,111.635 684.635,112.686 C683.583,113.737 683.583,115.442 684.635,116.493 L693.609,125.468 C694.661,126.519 696.365,126.519 697.417,125.468 C698.468,124.416 698.468,122.712 697.417,121.66 Z" />
            <path d="M681.263,141.404 L672.288,132.43 C671.237,131.378 669.532,131.378 668.481,132.43 C667.429,133.481 667.429,135.186 668.481,136.237 L677.455,145.211 C678.507,146.263 680.211,146.263 681.263,145.211 C682.314,144.16 682.314,142.455 681.263,141.404 Z" />
        </g>
    </g>
</svg>