<?xml version="1.0" encoding="UTF-8"?>
<svg height="600" width="800" xmlns="http://www.w3.org/2000/svg" xmlns:xlink="http://www.w3.org/1999/xlink">
    <g id="Notes" font-family="'LucidaGrande', 'Lucida Grande', sans-serif" font-size="13">
        <rect fill="white" height="600.0" width="800.0" x="0.0" y="0.0" />
        <g font-size="13">
            <text x="18.0" y="176.0">Small</text>
            <text x="18.0" y="376.0">Medium</text>
            <text x="18.0" y="576.0">Large</text>
        </g>
        <g font-size="9">
            <text x="250.0" y="30.0">Ultralight</text>
            <text x="450.0" y="30.0">Regular</text>
            <text x="650.0" y="30.0">Black</text>
            <text id="template-version" fill="#505050" text-anchor="end" x="785.0" y="575.0">Template v.3.0</text>
            <a href="https://github.com/swhitty/SwiftDraw">
                <text fill="#505050" text-anchor="end" x="785.0" y="590.0">https://github.com/swhitty/SwiftDraw</text>
            </a>
        </g>
    </g>
    <g id="Guides" stroke="rgb(39, 170, 225)" stroke-width="0.5">
        <path id="Capline-S" d="M18,76 l800,0" />
        <path id="H-reference" d="M85,145.755 L87.685,145.755 L113.369,79.287 L114.052,79.287 L114.052,76 L112.148,76 L85,145.755 Z M95.693,121.536 L130.996,121.536 L130.263,119.313 L96.474,119.313 L95.693,121.536 Z M139.15,145.755 L141.787,145.755 L114.638,76 L113.466,76 L113.466,79.287 L139.15,145.755 Z" stroke="none" />
        <path id="Baseline-S" d="M18,146 l800,0" />
        <path id="left-margin-Ultralight-S" d="M220,56 l0,110" />
        <path id="right-margin-Ultralight-S" d="M310,56 l0,110" />
        <path id="left-margin-Regular-S" d="M420,56 l0,110" />
        <path id="right-margin-Regular-S" d="M510,56 l0,110" />
        <path id="left-margin-Black-S" d="M620,56 l0,110" />
        <path id="right-margin-Black-S" d="M710,56 l0,110" />
        <path id="Capline-M" d="M18,276 l800,0" />
        <path id="Baseline-M" d="M18,346 l800,0" />
        <path id="Capline-L" d="M18,476 l800,0" />
        <path id="Baseline-L" d="M18,546 l800,0" />
    </g>
    <g id="Symbols">
        <g id="Ultralight-S">
            <path d="M234.626,144.65 L267.184,79.534 L262.816,79.534 L295.374,144.65 C295.977,145.856 297.444,146.345 298.65,145.742 C299.856,145.139 300.345,143.672 299.742,142.466 L267.184,77.35 C266.284,75.55 263.716,75.55 262.816,77.35 L230.258,142.466 C229.655,143.672 230.144,145.139 231.35,145.742 C232.556,146.345 234.023,145.856 234.626,144.65 Z" />
            <path d="M245.465,119.953 L284.535,119.953 C285.883,119.953 286.977,118.86 286.977,117.511 C286.977,116.163 285.883,115.069 284.535,115.069 L245.465,115.069 C244.117,115.069 243.023,116.163 243.023,117.511 C243.023,118.86 244.117,119.953 245.465,119.953 Z" />
        </g>
        <g id="Regular-S">
            <path d="M434.626,144.65 L467.184,79.534 L462.816,79.534 L495.374,144.65 C495.977,145.856 497.444,146.345 498.65,145.742 C499.856,145.139 500.345,143.672 499.742,142.466 L467.184,77.35 C466.284,75.55 463.716,75.55 462.816,77.35 L430.258,142.466 C429.655,143.672 430.144,145.139 431.35,145.742 C432.556,146.345 434.023,145.856 434.626,144.65 Z" />
            <path d="M445.465,119.953 L484.535,119.953 C485.883,119.953 486.977,118.86 486.977,117.511 C486.977,116.163 485.883,115.069 484.535,115.069 L445.465,115.069 C444.117,115.069 443.023,116.163 443.023,117.511 C443.023,118.86 444.117,119.953 445.465,119.953 Z" />
        </g>
        <g id="Black-S">
            <path d="M634.626,144.65 L667.184,79.534 L662.816,79.534 L695.374,144.65 C695.977,145.856 697.444,146.345 698.65,145.742 C699.856,145.139 700.345,143.672 699.742,142.466 L667.184,77.35 C666.284,75.55 663.716,75.55 662.816,77.35 L630.258,142.466 C629.655,143.672 630.144,145.139 631.35,145.742 C632.556,146.345 634.023,145.856 634.626,144.65 Z" />
            <path d="M645.465,119.953 L684.535,119.953 C685.883,119.953 686.977,118.86 686.977,117.511 C686.977,116.163 685.883,115.069 684.535,115.069 L645.465,115.069 C644.117,115.069 643.023,116.163 643.023,117.511 C643.023,118.86 644.117,119.953 645.465,119.953 Z" />
        </g>
    </g>
</svg>