<?xml version="1.0" encoding="UTF-8"?>
<svg height="600" width="800" xmlns="http://www.w3.org/2000/svg" xmlns:xlink="http://www.w3.org/1999/xlink">
    <g id="Notes" font-family="'LucidaGrande', 'Lucida Grande', sans-serif" font-size="13">
        <rect fill="white" height="600.0" width="800.0" x="0.0" y="0.0" />
        <g font-size="13">
            <text x="18.0" y="176.0">Small</text>
            <text x="18.0" y="376.0">Medium</text>
            <text x="18.0" y="576.0">Large</text>
        </g>
        <g font-size="9">
            <text x="250.0" y="30.0">Ultralight</text>
            <text x="450.0" y="30.0">Regular</text>
            <text x="650.0" y="30.0">Black</text>
            <text id="template-version" fill="#505050" text-anchor="end" x="785.0" y="575.0">Template v.3.0</text>
            <a href="https://github.com/swhitty/SwiftDraw">
                <text fill="#505050" text-anchor="end" x="785.0" y="590.0">https://github.com/swhitty/SwiftDraw</text>
            </a>
        </g>
    </g>
    <g id="Guides" stroke="rgb(39, 170, 225)" stroke-width="0.5">
        <path id="Capline-S" d="M18,76 l800,0" />
        <path id="H-reference" d="M85,145.755 L87.685,145.755 L113.369,79.287 L114.052,79.287 L114.052,76 L112.148,76 L85,145.755 Z M95.693,121.536 L130.996,121.536 L130.263,119.313 L96.474,119.313 L95.693,121.536 Z M139.15,145.755 L141.787,145.755 L114.638,76 L113.466,76 L113.466,79.287 L139.15,145.755 Z" stroke="none" />
        <path id="Baseline-S" d="M18,146 l800,0" />
        <path id="left-margin-Ultralight-S" d="M221,56 l0,110" />
        <path id="right-margin-Ultralight-S" d="M309,56 l0,110" />
        <path id="left-margin-Regular-S" d="M421,56 l0,110" />
        <path id="right-margin-Regular-S" d="M509,56 l0,110" />
        <path id="left-margin-Black-S" d="M621,56 l0,110" />
        <path id="right-margin-Black-S" d="M709,56 l0,110" />
        <path id="Capline-M" d="M18,276 l800,0" />
        <path id="Baseline-M" d="M18,346 l800,0" />
        <path id="Capline-L" d="M18,476 l800,0" />
        <path id="Baseline-L" d="M18,546 l800,0" />
    </g>
    <g id="Symbols">
        <g id="Ultralight-S">
            <path d="M254.436,85.488 C258.607,104.101 256.475,124.885 246.557,129.311 C246.438,129.364 246.324,129.426 246.215,129.497 C246.066,129.595 245.434,129.796 244.467,129.93 C242.979,130.136 241.044,130.141 238.671,129.883 C232.073,129.163 228.875,136.828 234.787,143.205 C237.165,145.77 241.368,146.668 247.981,145.487 L247.552,145.525 L260.094,145.525 C264.854,145.525 270.644,140.227 275.566,131.167 L275.409,131.419 C277.934,127.877 282.634,124.394 286.985,123.967 C294.504,123.476 300.201,117.367 297.744,107.116 C297.712,106.983 297.669,106.852 297.615,106.726 C295.891,102.685 293.619,99.024 289.434,93.078 C282.806,83.661 281.383,81.394 280.325,77.76 C279.949,76.465 278.593,75.721 277.299,76.098 C276.004,76.475 275.26,77.83 275.636,79.125 C276.918,83.526 278.387,85.867 285.441,95.889 C289.438,101.567 291.573,105.009 293.124,108.643 L292.995,108.254 C294.677,115.271 291.401,118.785 286.587,119.1 C280.511,119.695 274.699,124.003 271.432,128.584 L271.275,128.836 C267.121,136.481 262.575,140.642 260.094,140.642 L247.552,140.642 C247.408,140.642 247.265,140.654 247.123,140.68 C241.995,141.595 239.45,141.051 238.368,139.884 C235.383,136.665 236.272,134.533 238.142,134.737 C243.293,135.299 247.065,134.777 248.889,133.584 L247.552,131.541 L248.547,133.77 C261.519,127.982 263.857,105.194 259.202,84.42 C258.907,83.104 257.601,82.276 256.285,82.571 C254.969,82.866 254.141,84.172 254.436,85.488 Z" />
        </g>
        <g id="Regular-S">
            <path d="M454.436,85.488 C458.607,104.101 456.475,124.885 446.557,129.311 C446.438,129.364 446.324,129.426 446.215,129.497 C446.066,129.595 445.434,129.796 444.467,129.93 C442.979,130.136 441.044,130.141 438.671,129.883 C432.073,129.163 428.875,136.828 434.787,143.205 C437.165,145.77 441.368,146.668 447.981,145.487 L447.552,145.525 L460.094,145.525 C464.854,145.525 470.644,140.227 475.566,131.167 L475.409,131.419 C477.934,127.877 482.634,124.394 486.985,123.967 C494.504,123.476 500.201,117.367 497.744,107.116 C497.712,106.983 497.669,106.852 497.615,106.726 C495.891,102.685 493.619,99.024 489.434,93.078 C482.806,83.661 481.383,81.394 480.325,77.76 C479.949,76.465 478.593,75.721 477.299,76.098 C476.004,76.475 475.26,77.83 475.636,79.125 C476.918,83.526 478.387,85.867 485.441,95.889 C489.438,101.567 491.573,105.009 493.124,108.643 L492.995,108.254 C494.677,115.271 491.401,118.785 486.587,119.1 C480.511,119.695 474.699,124.003 471.432,128.584 L471.275,128.836 C467.121,136.481 462.575,140.642 460.094,140.642 L447.552,140.642 C447.408,140.642 447.265,140.654 447.123,140.68 C441.995,141.595 439.45,141.051 438.368,139.884 C435.383,136.665 436.272,134.533 438.142,134.737 C443.293,135.299 447.065,134.777 448.889,133.584 L447.552,131.541 L448.547,133.77 C461.519,127.982 463.857,105.194 459.202,84.42 C458.907,83.104 457.601,82.276 456.285,82.571 C454.969,82.866 454.141,84.172 454.436,85.488 Z" />
        </g>
        <g id="Black-S">
            <path d="M654.436,85.488 C658.607,104.101 656.475,124.885 646.557,129.311 C646.438,129.364 646.324,129.426 646.215,129.497 C646.066,129.595 645.434,129.796 644.467,129.93 C642.979,130.136 641.044,130.141 638.671,129.883 C632.073,129.163 628.875,136.828 634.787,143.205 C637.165,145.77 641.368,146.668 647.981,145.487 L647.552,145.525 L660.094,145.525 C664.854,145.525 670.644,140.227 675.566,131.167 L675.409,131.419 C677.934,127.877 682.634,124.394 686.985,123.967 C694.504,123.476 700.201,117.367 697.744,107.116 C697.712,106.983 697.669,106.852 697.615,106.726 C695.891,102.685 693.619,99.024 689.434,93.078 C682.806,83.661 681.383,81.394 680.325,77.76 C679.949,76.465 678.593,75.721 677.299,76.098 C676.004,76.475 675.26,77.83 675.636,79.125 C676.918,83.526 678.387,85.867 685.441,95.889 C689.438,101.567 691.573,105.009 693.124,108.643 L692.995,108.254 C694.677,115.271 691.401,118.785 686.587,119.1 C680.511,119.695 674.699,124.003 671.432,128.584 L671.275,128.836 C667.121,136.481 662.575,140.642 660.094,140.642 L647.552,140.642 C647.408,140.642 647.265,140.654 647.123,140.68 C641.995,141.595 639.45,141.051 638.368,139.884 C635.383,136.665 636.272,134.533 638.142,134.737 C643.293,135.299 647.065,134.777 648.889,133.584 L647.552,131.541 L648.547,133.77 C661.519,127.982 663.857,105.194 659.201,84.42 C658.907,83.104 657.601,82.276 656.285,82.571 C654.969,82.866 654.141,84.172 654.436,85.488 Z" />
        </g>
    </g>
</svg>