<?xml version="1.0" encoding="UTF-8"?>
<svg height="600" width="800" xmlns="http://www.w3.org/2000/svg" xmlns:xlink="http://www.w3.org/1999/xlink">
    <g id="Notes" font-family="'LucidaGrande', 'Lucida Grande', sans-serif" font-size="13">
        <rect fill="white" height="600.0" width="800.0" x="0.0" y="0.0" />
        <g font-size="13">
            <text x="18.0" y="176.0">Small</text>
            <text x="18.0" y="376.0">Medium</text>
            <text x="18.0" y="576.0">Large</text>
        </g>
        <g font-size="9">
            <text x="250.0" y="30.0">Ultralight</text>
            <text x="450.0" y="30.0">Regular</text>
            <text x="650.0" y="30.0">Black</text>
            <text id="template-version" fill="#505050" text-anchor="end" x="785.0" y="575.0">Template v.3.0</text>
            <a href="https://github.com/swhitty/SwiftDraw">
                <text fill="#505050" text-anchor="end" x="785.0" y="590.0">https://github.com/swhitty/SwiftDraw</text>
            </a>
        </g>
    </g>
    <g id="Guides" stroke="rgb(39, 170, 225)" stroke-width="0.5">
        <path id="Capline-S" d="M18,76 l800,0" />
        <path id="H-reference" d="M85,145.755 L87.685,145.755 L113.369,79.287 L114.052,79.287 L114.052,76 L112.148,76 L85,145.755 Z M95.693,121.536 L130.996,121.536 L130.263,119.313 L96.474,119.313 L95.693,121.536 Z M139.15,145.755 L141.787,145.755 L114.638,76 L113.466,76 L113.466,79.287 L139.15,145.755 Z" stroke="none" />
        <path id="Baseline-S" d="M18,146 l800,0" />
        <path id="left-margin-Ultralight-S" d="M220,56 l0,110" />
        <path id="right-margin-Ultralight-S" d="M310,56 l0,110" />
        <path id="left-margin-Regular-S" d="M420,56 l0,110" />
        <path id="right-margin-Regular-S" d="M510,56 l0,110" />
        <path id="left-margin-Black-S" d="M620,56 l0,110" />
        <path id="right-margin-Black-S" d="M710,56 l0,110" />
        <path id="Capline-M" d="M18,276 l800,0" />
        <path id="Baseline-M" d="M18,346 l800,0" />
        <path id="Capline-L" d="M18,476 l800,0" />
        <path id="Baseline-L" d="M18,546 l800,0" />
    </g>
    <g id="Symbols">
        <g id="Ultralight-S">
            <path d="M294.615,111 L294.615,137.923 C294.615,138.637 294.332,139.322 293.827,139.827 C293.322,140.332 292.637,140.615 291.923,140.615 L238.077,140.615 C237.363,140.615 236.678,140.332 236.173,139.827 C235.668,139.322 235.385,138.637 235.385,137.923 L235.385,84.077 C235.385,83.363 235.668,82.678 236.173,82.173 C236.678,81.668 237.363,81.385 238.077,81.385 L291.923,81.385 C292.637,81.385 293.322,81.668 293.827,82.173 C294.332,82.678 294.615,83.363 294.615,84.077 L294.615,111 Z M300,111 L300,84.077 C300,81.935 299.149,79.88 297.634,78.366 C296.12,76.851 294.065,76 291.923,76 L238.077,76 C235.935,76 233.88,76.851 232.366,78.366 C230.851,79.88 230,81.935 230,84.077 L230,137.923 C230,140.065 230.851,142.12 232.366,143.634 C233.88,145.149 235.935,146 238.077,146 L291.923,146 C294.065,146 296.12,145.149 297.634,143.634 C299.149,142.12 300,140.065 300,137.923 L300,111 Z" />
            <path d="M275.769,128.051 C281.221,128.051 285.641,123.631 285.641,118.179 C285.641,112.728 281.221,108.308 275.769,108.308 C270.317,108.308 265.897,112.728 265.897,118.179 C265.897,123.631 270.317,128.051 275.769,128.051 Z M275.769,122.667 C273.291,122.667 271.282,120.658 271.282,118.179 C271.282,115.701 273.291,113.692 275.769,113.692 C278.247,113.692 280.256,115.701 280.256,118.179 C280.256,120.658 278.247,122.667 275.769,122.667 Z" />
            <path d="M285.477,100.878 C283.969,96.76 280.278,93.949 276.043,93.949 C270.263,93.949 265.897,97.907 265.897,103.821 L265.897,118.179 C265.897,119.666 267.103,120.872 268.59,120.872 C270.077,120.872 271.282,119.666 271.282,118.179 L271.282,103.821 C271.282,101.005 273.126,99.333 276.043,99.333 C277.925,99.333 279.661,100.656 280.421,102.73 C280.932,104.126 282.478,104.843 283.875,104.332 C285.271,103.82 285.988,102.274 285.477,100.878 Z" />
            <path d="M259.615,93.949 L247.051,93.949 C245.564,93.949 244.359,95.154 244.359,96.641 L244.359,125.359 C244.359,126.846 245.564,128.051 247.051,128.051 C248.538,128.051 249.744,126.846 249.744,125.359 L249.744,96.641 L247.051,99.333 L259.615,99.333 C261.102,99.333 262.308,98.128 262.308,96.641 C262.308,95.154 261.102,93.949 259.615,93.949 Z" />
            <path d="M247.051,113.692 L259.615,113.692 C261.102,113.692 262.308,112.487 262.308,111 C262.308,109.513 261.102,108.308 259.615,108.308 L247.051,108.308 C245.564,108.308 244.359,109.513 244.359,111 C244.359,112.487 245.564,113.692 247.051,113.692 Z" />
        </g>
        <g id="Regular-S">
            <path d="M494.615,111 L494.615,137.923 C494.615,138.637 494.332,139.322 493.827,139.827 C493.322,140.332 492.637,140.615 491.923,140.615 L438.077,140.615 C437.363,140.615 436.678,140.332 436.173,139.827 C435.668,139.322 435.385,138.637 435.385,137.923 L435.385,84.077 C435.385,83.363 435.668,82.678 436.173,82.173 C436.678,81.668 437.363,81.385 438.077,81.385 L491.923,81.385 C492.637,81.385 493.322,81.668 493.827,82.173 C494.332,82.678 494.615,83.363 494.615,84.077 L494.615,111 Z M500,111 L500,84.077 C500,81.935 499.149,79.88 497.634,78.366 C496.12,76.851 494.065,76 491.923,76 L438.077,76 C435.935,76 433.88,76.851 432.366,78.366 C430.851,79.88 430,81.935 430,84.077 L430,137.923 C430,140.065 430.851,142.12 432.366,143.634 C433.88,145.149 435.935,146 438.077,146 L491.923,146 C494.065,146 496.12,145.149 497.634,143.634 C499.149,142.12 500,140.065 500,137.923 L500,111 Z" />
            <path d="M475.769,128.051 C481.221,128.051 485.641,123.631 485.641,118.179 C485.641,112.728 481.221,108.308 475.769,108.308 C470.317,108.308 465.897,112.728 465.897,118.179 C465.897,123.631 470.317,128.051 475.769,128.051 Z M475.769,122.667 C473.291,122.667 471.282,120.658 471.282,118.179 C471.282,115.701 473.291,113.692 475.769,113.692 C478.247,113.692 480.256,115.701 480.256,118.179 C480.256,120.658 478.247,122.667 475.769,122.667 Z" />
            <path d="M485.477,100.878 C483.969,96.76 480.278,93.949 476.043,93.949 C470.263,93.949 465.897,97.907 465.897,103.821 L465.897,118.179 C465.897,119.666 467.103,120.872 468.59,120.872 C470.077,120.872 471.282,119.666 471.282,118.179 L471.282,103.821 C471.282,101.005 473.126,99.333 476.043,99.333 C477.925,99.333 479.661,100.656 480.421,102.73 C480.932,104.126 482.478,104.843 483.875,104.332 C485.271,103.82 485.988,102.274 485.477,100.878 Z" />
            <path d="M459.615,93.949 L447.051,93.949 C445.564,93.949 444.359,95.154 444.359,96.641 L444.359,125.359 C444.359,126.846 445.564,128.051 447.051,128.051 C448.538,128.051 449.744,126.846 449.744,125.359 L449.744,96.641 L447.051,99.333 L459.615,99.333 C461.102,99.333 462.308,98.128 462.308,96.641 C462.308,95.154 461.102,93.949 459.615,93.949 Z" />
            <path d="M447.051,113.692 L459.615,113.692 C461.102,113.692 462.308,112.487 462.308,111 C462.308,109.513 461.102,108.308 459.615,108.308 L447.051,108.308 C445.564,108.308 444.359,109.513 444.359,111 C444.359,112.487 445.564,113.692 447.051,113.692 Z" />
        </g>
        <g id="Black-S">
            <path d="M694.615,111 L694.615,137.923 C694.615,138.637 694.332,139.322 693.827,139.827 C693.322,140.332 692.637,140.615 691.923,140.615 L638.077,140.615 C637.363,140.615 636.678,140.332 636.173,139.827 C635.668,139.322 635.385,138.637 635.385,137.923 L635.385,84.077 C635.385,83.363 635.668,82.678 636.173,82.173 C636.678,81.668 637.363,81.385 638.077,81.385 L691.923,81.385 C692.637,81.385 693.322,81.668 693.827,82.173 C694.332,82.678 694.615,83.363 694.615,84.077 L694.615,111 Z M700,111 L700,84.077 C700,81.935 699.149,79.88 697.634,78.366 C696.12,76.851 694.065,76 691.923,76 L638.077,76 C635.935,76 633.88,76.851 632.366,78.366 C630.851,79.88 630,81.935 630,84.077 L630,137.923 C630,140.065 630.851,142.12 632.366,143.634 C633.88,145.149 635.935,146 638.077,146 L691.923,146 C694.065,146 696.12,145.149 697.634,143.634 C699.149,142.12 700,140.065 700,137.923 L700,111 Z" />
            <path d="M675.769,128.051 C681.221,128.051 685.641,123.631 685.641,118.179 C685.641,112.728 681.221,108.308 675.769,108.308 C670.317,108.308 665.897,112.728 665.897,118.179 C665.897,123.631 670.317,128.051 675.769,128.051 Z M675.769,122.667 C673.291,122.667 671.282,120.658 671.282,118.179 C671.282,115.701 673.291,113.692 675.769,113.692 C678.247,113.692 680.256,115.701 680.256,118.179 C680.256,120.658 678.247,122.667 675.769,122.667 Z" />
            <path d="M685.477,100.878 C683.969,96.76 680.278,93.949 676.043,93.949 C670.263,93.949 665.897,97.907 665.897,103.821 L665.897,118.179 C665.897,119.666 667.103,120.872 668.59,120.872 C670.077,120.872 671.282,119.666 671.282,118.179 L671.282,103.821 C671.282,101.005 673.126,99.333 676.043,99.333 C677.925,99.333 679.661,100.656 680.421,102.73 C680.932,104.126 682.479,104.843 683.875,104.332 C685.271,103.82 685.988,102.274 685.477,100.878 Z" />
            <path d="M659.615,93.949 L647.051,93.949 C645.564,93.949 644.359,95.154 644.359,96.641 L644.359,125.359 C644.359,126.846 645.564,128.051 647.051,128.051 C648.538,128.051 649.744,126.846 649.744,125.359 L649.744,96.641 L647.051,99.333 L659.615,99.333 C661.102,99.333 662.308,98.128 662.308,96.641 C662.308,95.154 661.102,93.949 659.615,93.949 Z" />
            <path d="M647.051,113.692 L659.615,113.692 C661.102,113.692 662.308,112.487 662.308,111 C662.308,109.513 661.102,108.308 659.615,108.308 L647.051,108.308 C645.564,108.308 644.359,109.513 644.359,111 C644.359,112.487 645.564,113.692 647.051,113.692 Z" />
        </g>
    </g>
</svg>