<?xml version="1.0" encoding="UTF-8"?>
<svg height="600" width="800" xmlns="http://www.w3.org/2000/svg" xmlns:xlink="http://www.w3.org/1999/xlink">
    <g id="Notes" font-family="'LucidaGrande', 'Lucida Grande', sans-serif" font-size="13">
        <rect fill="white" height="600.0" width="800.0" x="0.0" y="0.0" />
        <g font-size="13">
            <text x="18.0" y="176.0">Small</text>
            <text x="18.0" y="376.0">Medium</text>
            <text x="18.0" y="576.0">Large</text>
        </g>
        <g font-size="9">
            <text x="250.0" y="30.0">Ultralight</text>
            <text x="450.0" y="30.0">Regular</text>
            <text x="650.0" y="30.0">Black</text>
            <text id="template-version" fill="#505050" text-anchor="end" x="785.0" y="575.0">Template v.3.0</text>
            <a href="https://github.com/swhitty/SwiftDraw">
                <text fill="#505050" text-anchor="end" x="785.0" y="590.0">https://github.com/swhitty/SwiftDraw</text>
            </a>
        </g>
    </g>
    <g id="Guides" stroke="rgb(39, 170, 225)" stroke-width="0.5">
        <path id="Capline-S" d="M18,76 l800,0" />
        <path id="H-reference" d="M85,145.755 L87.685,145.755 L113.369,79.287 L114.052,79.287 L114.052,76 L112.148,76 L85,145.755 Z M95.693,121.536 L130.996,121.536 L130.263,119.313 L96.474,119.313 L95.693,121.536 Z M139.15,145.755 L141.787,145.755 L114.638,76 L113.466,76 L113.466,79.287 L139.15,145.755 Z" stroke="none" />
        <path id="Baseline-S" d="M18,146 l800,0" />
        <path id="left-margin-Ultralight-S" d="M221,56 l0,110" />
        <path id="right-margin-Ultralight-S" d="M309,56 l0,110" />
        <path id="left-margin-Regular-S" d="M421,56 l0,110" />
        <path id="right-margin-Regular-S" d="M509,56 l0,110" />
        <path id="left-margin-Black-S" d="M621,56 l0,110" />
        <path id="right-margin-Black-S" d="M709,56 l0,110" />
        <path id="Capline-M" d="M18,276 l800,0" />
        <path id="Baseline-M" d="M18,346 l800,0" />
        <path id="Capline-L" d="M18,476 l800,0" />
        <path id="Baseline-L" d="M18,546 l800,0" />
    </g>
    <g id="Symbols">
        <g id="Ultralight-S">
            <path d="M293.171,78.561 L293.171,143.439 L295.732,140.878 L234.268,140.878 L236.829,143.439 L236.829,78.561 L234.268,81.122 L295.732,81.122 L293.171,78.561 Z M298.293,78.561 C298.293,77.147 297.146,76 295.732,76 L234.268,76 C232.854,76 231.707,77.147 231.707,78.561 L231.707,143.439 C231.707,144.853 232.854,146 234.268,146 L295.732,146 C297.146,146 298.293,144.853 298.293,143.439 L298.293,78.561 Z" />
            <path d="M282.927,90.512 L282.927,100.756 L285.488,98.195 L244.512,98.195 L247.073,100.756 L247.073,90.512 L244.512,93.073 L285.488,93.073 L282.927,90.512 Z M288.049,90.512 C288.049,89.098 286.902,87.951 285.488,87.951 L244.512,87.951 C243.098,87.951 241.951,89.098 241.951,90.512 L241.951,100.756 C241.951,102.17 243.098,103.317 244.512,103.317 L285.488,103.317 C286.902,103.317 288.049,102.17 288.049,100.756 L288.049,90.512 Z" />
            <path d="M248.78,100.756 L248.78,143.439 C248.78,144.853 249.927,146 251.341,146 C252.756,146 253.902,144.853 253.902,143.439 L253.902,100.756 C253.902,99.342 252.756,98.195 251.341,98.195 C249.927,98.195 248.78,99.342 248.78,100.756 Z" />
            <path d="M276.098,100.756 L276.098,143.439 C276.098,144.853 277.244,146 278.659,146 C280.073,146 281.22,144.853 281.22,143.439 L281.22,100.756 C281.22,99.342 280.073,98.195 278.659,98.195 C277.244,98.195 276.098,99.342 276.098,100.756 Z" />
            <path d="M251.341,113.561 L278.659,113.561 C280.073,113.561 281.22,112.414 281.22,111 C281.22,109.586 280.073,108.439 278.659,108.439 L251.341,108.439 C249.927,108.439 248.78,109.586 248.78,111 C248.78,112.414 249.927,113.561 251.341,113.561 Z" />
            <path d="M251.341,123.805 L278.659,123.805 C280.073,123.805 281.22,122.658 281.22,121.244 C281.22,119.83 280.073,118.683 278.659,118.683 L251.341,118.683 C249.927,118.683 248.78,119.83 248.78,121.244 C248.78,122.658 249.927,123.805 251.341,123.805 Z" />
            <path d="M251.341,134.049 L278.659,134.049 C280.073,134.049 281.22,132.902 281.22,131.488 C281.22,130.073 280.073,128.927 278.659,128.927 L251.341,128.927 C249.927,128.927 248.78,130.073 248.78,131.488 C248.78,132.902 249.927,134.049 251.341,134.049 Z" />
        </g>
        <g id="Regular-S">
            <path d="M493.171,78.561 L493.171,143.439 L495.732,140.878 L434.268,140.878 L436.829,143.439 L436.829,78.561 L434.268,81.122 L495.732,81.122 L493.171,78.561 Z M498.293,78.561 C498.293,77.147 497.146,76 495.732,76 L434.268,76 C432.854,76 431.707,77.147 431.707,78.561 L431.707,143.439 C431.707,144.853 432.854,146 434.268,146 L495.732,146 C497.146,146 498.293,144.853 498.293,143.439 L498.293,78.561 Z" />
            <path d="M482.927,90.512 L482.927,100.756 L485.488,98.195 L444.512,98.195 L447.073,100.756 L447.073,90.512 L444.512,93.073 L485.488,93.073 L482.927,90.512 Z M488.049,90.512 C488.049,89.098 486.902,87.951 485.488,87.951 L444.512,87.951 C443.098,87.951 441.951,89.098 441.951,90.512 L441.951,100.756 C441.951,102.17 443.098,103.317 444.512,103.317 L485.488,103.317 C486.902,103.317 488.049,102.17 488.049,100.756 L488.049,90.512 Z" />
            <path d="M448.78,100.756 L448.78,143.439 C448.78,144.853 449.927,146 451.341,146 C452.756,146 453.902,144.853 453.902,143.439 L453.902,100.756 C453.902,99.342 452.756,98.195 451.341,98.195 C449.927,98.195 448.78,99.342 448.78,100.756 Z" />
            <path d="M476.098,100.756 L476.098,143.439 C476.098,144.853 477.244,146 478.659,146 C480.073,146 481.22,144.853 481.22,143.439 L481.22,100.756 C481.22,99.342 480.073,98.195 478.659,98.195 C477.244,98.195 476.098,99.342 476.098,100.756 Z" />
            <path d="M451.341,113.561 L478.659,113.561 C480.073,113.561 481.22,112.414 481.22,111 C481.22,109.586 480.073,108.439 478.659,108.439 L451.341,108.439 C449.927,108.439 448.78,109.586 448.78,111 C448.78,112.414 449.927,113.561 451.341,113.561 Z" />
            <path d="M451.341,123.805 L478.659,123.805 C480.073,123.805 481.22,122.658 481.22,121.244 C481.22,119.83 480.073,118.683 478.659,118.683 L451.341,118.683 C449.927,118.683 448.78,119.83 448.78,121.244 C448.78,122.658 449.927,123.805 451.341,123.805 Z" />
            <path d="M451.341,134.049 L478.659,134.049 C480.073,134.049 481.22,132.902 481.22,131.488 C481.22,130.073 480.073,128.927 478.659,128.927 L451.341,128.927 C449.927,128.927 448.78,130.073 448.78,131.488 C448.78,132.902 449.927,134.049 451.341,134.049 Z" />
        </g>
        <g id="Black-S">
            <path d="M693.171,78.561 L693.171,143.439 L695.732,140.878 L634.268,140.878 L636.829,143.439 L636.829,78.561 L634.268,81.122 L695.732,81.122 L693.171,78.561 Z M698.293,78.561 C698.293,77.147 697.146,76 695.732,76 L634.268,76 C632.854,76 631.707,77.147 631.707,78.561 L631.707,143.439 C631.707,144.853 632.854,146 634.268,146 L695.732,146 C697.146,146 698.293,144.853 698.293,143.439 L698.293,78.561 Z" />
            <path d="M682.927,90.512 L682.927,100.756 L685.488,98.195 L644.512,98.195 L647.073,100.756 L647.073,90.512 L644.512,93.073 L685.488,93.073 L682.927,90.512 Z M688.049,90.512 C688.049,89.098 686.902,87.951 685.488,87.951 L644.512,87.951 C643.098,87.951 641.951,89.098 641.951,90.512 L641.951,100.756 C641.951,102.17 643.098,103.317 644.512,103.317 L685.488,103.317 C686.902,103.317 688.049,102.17 688.049,100.756 L688.049,90.512 Z" />
            <path d="M648.781,100.756 L648.781,143.439 C648.781,144.853 649.927,146 651.341,146 C652.756,146 653.902,144.853 653.902,143.439 L653.902,100.756 C653.902,99.342 652.756,98.195 651.341,98.195 C649.927,98.195 648.781,99.342 648.781,100.756 Z" />
            <path d="M676.098,100.756 L676.098,143.439 C676.098,144.853 677.244,146 678.659,146 C680.073,146 681.22,144.853 681.22,143.439 L681.22,100.756 C681.22,99.342 680.073,98.195 678.659,98.195 C677.244,98.195 676.098,99.342 676.098,100.756 Z" />
            <path d="M651.341,113.561 L678.659,113.561 C680.073,113.561 681.22,112.414 681.22,111 C681.22,109.586 680.073,108.439 678.659,108.439 L651.341,108.439 C649.927,108.439 648.781,109.586 648.781,111 C648.781,112.414 649.927,113.561 651.341,113.561 Z" />
            <path d="M651.341,123.805 L678.659,123.805 C680.073,123.805 681.22,122.658 681.22,121.244 C681.22,119.83 680.073,118.683 678.659,118.683 L651.341,118.683 C649.927,118.683 648.781,119.83 648.781,121.244 C648.781,122.658 649.927,123.805 651.341,123.805 Z" />
            <path d="M651.341,134.049 L678.659,134.049 C680.073,134.049 681.22,132.902 681.22,131.488 C681.22,130.073 680.073,128.927 678.659,128.927 L651.341,128.927 C649.927,128.927 648.781,130.073 648.781,131.488 C648.781,132.902 649.927,134.049 651.341,134.049 Z" />
        </g>
    </g>
</svg>