<?xml version="1.0" encoding="UTF-8"?>
<svg height="600" width="800" xmlns="http://www.w3.org/2000/svg" xmlns:xlink="http://www.w3.org/1999/xlink">
    <g id="Notes" font-family="'LucidaGrande', 'Lucida Grande', sans-serif" font-size="13">
        <rect fill="white" height="600.0" width="800.0" x="0.0" y="0.0" />
        <g font-size="13">
            <text x="18.0" y="176.0">Small</text>
            <text x="18.0" y="376.0">Medium</text>
            <text x="18.0" y="576.0">Large</text>
        </g>
        <g font-size="9">
            <text x="250.0" y="30.0">Ultralight</text>
            <text x="450.0" y="30.0">Regular</text>
            <text x="650.0" y="30.0">Black</text>
            <text id="template-version" fill="#505050" text-anchor="end" x="785.0" y="575.0">Template v.3.0</text>
            <a href="https://github.com/swhitty/SwiftDraw">
                <text fill="#505050" text-anchor="end" x="785.0" y="590.0">https://github.com/swhitty/SwiftDraw</text>
            </a>
        </g>
    </g>
    <g id="Guides" stroke="rgb(39, 170, 225)" stroke-width="0.5">
        <path id="Capline-S" d="M18,76 l800,0" />
        <path id="H-reference" d="M85,145.755 L87.685,145.755 L113.369,79.287 L114.052,79.287 L114.052,76 L112.148,76 L85,145.755 Z M95.693,121.536 L130.996,121.536 L130.263,119.313 L96.474,119.313 L95.693,121.536 Z M139.15,145.755 L141.787,145.755 L114.638,76 L113.466,76 L113.466,79.287 L139.15,145.755 Z" stroke="none" />
        <path id="Baseline-S" d="M18,146 l800,0" />
        <path id="left-margin-Ultralight-S" d="M220,56 l0,110" />
        <path id="right-margin-Ultralight-S" d="M310,56 l0,110" />
        <path id="left-margin-Regular-S" d="M420,56 l0,110" />
        <path id="right-margin-Regular-S" d="M510,56 l0,110" />
        <path id="left-margin-Black-S" d="M620,56 l0,110" />
        <path id="right-margin-Black-S" d="M710,56 l0,110" />
        <path id="Capline-M" d="M18,276 l800,0" />
        <path id="Baseline-M" d="M18,346 l800,0" />
        <path id="Capline-L" d="M18,476 l800,0" />
        <path id="Baseline-L" d="M18,546 l800,0" />
    </g>
    <g id="Symbols">
        <g id="Ultralight-S">
            <path d="M265,146 C267.28,146 268.135,144.974 270.189,141.547 C270.331,141.309 270.396,141.202 270.47,141.079 C270.929,140.318 271.229,139.868 271.491,139.553 C271.599,139.423 271.681,139.342 271.723,139.31 C271.668,139.352 271.556,139.407 271.377,139.442 C271.076,139.501 270.924,139.458 270.933,139.464 C271.153,139.603 271.462,139.871 271.899,140.307 C272.032,140.44 272.158,140.569 272.383,140.8 C273.407,141.853 273.81,142.238 274.442,142.689 C275.673,143.567 276.992,143.926 278.398,143.344 C280.419,142.505 280.86,141.303 281.473,137.936 C281.474,137.931 281.474,137.931 281.475,137.926 C281.651,136.962 281.738,136.557 281.859,136.194 C281.929,135.984 281.947,135.955 281.803,136.051 C281.66,136.147 281.679,136.144 281.882,136.159 C282.25,136.186 282.666,136.265 283.566,136.47 C283.592,136.476 283.592,136.476 283.618,136.482 C286.934,137.237 288.197,137.301 289.749,135.749 C290.826,134.671 290.993,133.319 290.68,131.778 C290.517,130.975 290.308,130.363 289.755,128.916 C289.747,128.893 289.747,128.893 289.738,128.87 C289.334,127.81 289.166,127.321 289.069,126.883 C289.029,126.701 289.016,126.58 289.018,126.536 C289.013,126.644 288.964,126.814 288.833,127.01 C288.702,127.206 288.566,127.313 288.474,127.356 C288.523,127.333 288.651,127.296 288.847,127.26 C289.302,127.176 289.807,127.138 291,127.087 C291.005,127.087 291.005,127.087 291.009,127.087 C292.564,127.02 293.229,126.968 294.041,126.798 C295.585,126.476 296.763,125.798 297.343,124.398 C297.949,122.937 297.523,121.618 296.549,120.24 C296.049,119.533 295.587,119.017 294.402,117.774 C294.363,117.733 294.363,117.733 294.325,117.692 C293.465,116.79 293.058,116.333 292.753,115.909 C292.618,115.72 292.539,115.582 292.513,115.516 C292.55,115.612 292.575,115.794 292.524,116.052 C292.463,116.36 292.333,116.57 292.212,116.683 C292.232,116.665 292.332,116.599 292.502,116.512 C292.922,116.297 293.419,116.11 294.6,115.708 C294.61,115.704 294.61,115.704 294.621,115.701 C296.154,115.179 296.807,114.93 297.557,114.524 C299.031,113.726 300,112.646 300,111 C300,108.792 299.004,107.889 295.652,105.641 C294.541,104.896 294.143,104.616 293.747,104.281 C293.552,104.116 293.419,103.983 293.35,103.895 C293.364,103.913 293.407,103.998 293.442,104.172 C293.512,104.526 293.453,104.684 293.49,104.638 C293.698,104.374 294.008,104.078 294.706,103.467 C295.785,102.522 296.165,102.163 296.631,101.561 C297.552,100.372 297.936,99.032 297.343,97.602 C296.763,96.202 295.585,95.524 294.042,95.202 C293.23,95.032 292.564,94.98 291.009,94.913 C291.005,94.913 291.005,94.913 291,94.913 C289.807,94.862 289.302,94.824 288.847,94.74 C288.651,94.704 288.523,94.667 288.475,94.644 C288.567,94.687 288.702,94.794 288.833,94.99 C288.964,95.185 289.013,95.356 289.018,95.464 C289.016,95.42 289.029,95.299 289.069,95.117 C289.166,94.679 289.334,94.19 289.738,93.13 C289.747,93.107 289.747,93.107 289.755,93.084 C290.308,91.637 290.517,91.025 290.68,90.222 C290.993,88.681 290.826,87.329 289.749,86.251 C288.115,84.617 286.864,84.769 283.089,85.856 C283.077,85.86 283.077,85.86 283.064,85.863 C281.984,86.174 281.507,86.296 281.063,86.359 C280.868,86.387 280.732,86.393 280.667,86.387 C280.732,86.393 280.854,86.432 281.009,86.536 C281.182,86.652 281.285,86.776 281.33,86.868 C281.316,86.84 281.286,86.743 281.254,86.586 C281.174,86.191 281.137,85.734 281.088,84.682 C281.087,84.666 281.087,84.666 281.086,84.65 C281.018,83.208 280.965,82.586 280.789,81.812 C280.457,80.354 279.756,79.22 278.398,78.657 C276.324,77.797 275.238,78.362 272.136,80.646 C272.094,80.677 272.094,80.677 272.051,80.708 C271.222,81.319 270.803,81.605 270.42,81.811 C270.251,81.901 270.127,81.953 270.059,81.971 C270.102,81.96 270.204,81.953 270.358,81.984 C270.552,82.022 270.693,82.095 270.772,82.162 C270.756,82.148 270.699,82.082 270.617,81.964 C270.405,81.656 270.208,81.281 269.771,80.374 C269.768,80.368 269.768,80.368 269.766,80.362 C269.158,79.101 268.87,78.561 268.405,77.927 C267.539,76.749 266.448,76 265,76 C262.656,76 261.839,77.053 260.147,80.292 C260.135,80.315 260.135,80.315 260.124,80.337 C259.659,81.228 259.442,81.611 259.214,81.922 C259.123,82.046 259.057,82.119 259.031,82.141 C259.099,82.085 259.227,82.02 259.411,81.984 C259.565,81.953 259.676,81.96 259.731,81.975 C259.678,81.961 259.571,81.915 259.422,81.833 C259.067,81.638 258.662,81.351 257.904,80.77 C257.843,80.723 257.843,80.723 257.782,80.676 C254.779,78.369 253.699,77.787 251.602,78.657 C250.286,79.202 249.564,80.289 249.222,81.668 C249.038,82.409 248.984,82.992 248.914,84.331 C248.913,84.358 248.913,84.358 248.912,84.385 C248.864,85.304 248.827,85.715 248.753,86.051 C248.726,86.17 248.764,86.1 248.99,85.949 C249.143,85.846 249.057,85.859 248.764,85.839 C248.312,85.807 247.846,85.727 246.741,85.505 C243.05,84.763 241.796,84.707 240.251,86.251 C239.141,87.361 239.011,88.748 239.39,90.309 C239.585,91.111 239.819,91.717 240.437,93.165 C240.449,93.192 240.449,93.192 240.46,93.219 C240.91,94.272 241.101,94.765 241.213,95.202 C241.259,95.379 241.276,95.494 241.275,95.528 C241.278,95.399 241.33,95.205 241.474,94.99 C241.613,94.783 241.753,94.674 241.844,94.633 C241.786,94.659 241.643,94.7 241.428,94.738 C240.943,94.824 240.416,94.861 239.156,94.913 C239.155,94.913 239.155,94.913 239.155,94.913 C237.546,94.98 236.858,95.031 236.027,95.198 C234.442,95.516 233.245,96.184 232.656,97.602 C232.079,98.994 232.426,100.303 233.281,101.559 C233.723,102.209 234.11,102.637 235.15,103.709 C235.293,103.855 235.293,103.855 235.43,103.998 C235.979,104.569 236.294,104.933 236.479,105.218 C236.54,105.311 236.567,105.365 236.567,105.366 C236.533,105.254 236.519,105.088 236.558,104.893 C236.597,104.698 236.66,104.574 236.709,104.514 C236.674,104.557 236.583,104.642 236.437,104.753 C236.093,105.016 235.638,105.291 234.753,105.785 C234.638,105.849 234.638,105.849 234.521,105.914 C231.046,107.848 230,108.675 230,111 C230,113.475 231.107,114.205 234.993,115.943 C235.046,115.966 235.046,115.966 235.098,115.99 C236.166,116.467 236.651,116.703 237.045,116.951 C237.212,117.056 237.315,117.136 237.348,117.171 C237.268,117.086 237.173,116.92 237.123,116.666 C237.076,116.428 237.098,116.242 237.139,116.128 C237.129,116.157 237.076,116.251 236.976,116.39 C236.723,116.744 236.345,117.157 235.62,117.885 C235.54,117.966 235.54,117.966 235.458,118.048 C234.321,119.189 233.89,119.651 233.408,120.32 C232.465,121.629 232.057,122.952 232.656,124.398 C233.234,125.79 234.404,126.473 235.931,126.797 C236.735,126.967 237.392,127.02 238.925,127.087 C238.932,127.087 238.932,127.087 238.939,127.087 C240.104,127.138 240.6,127.175 241.044,127.259 C241.233,127.294 241.355,127.33 241.399,127.352 C241.307,127.308 241.173,127.202 241.045,127.01 C240.919,126.822 240.872,126.661 240.867,126.561 C240.869,126.609 240.857,126.733 240.819,126.917 C240.729,127.356 240.57,127.843 240.184,128.906 C240.176,128.927 240.176,128.927 240.169,128.948 C239.643,130.396 239.443,131.01 239.293,131.813 C239.006,133.345 239.186,134.684 240.251,135.749 C241.297,136.794 242.614,136.995 244.132,136.748 C244.936,136.617 245.553,136.434 247,135.948 C247.018,135.942 247.018,135.942 247.036,135.936 C248.105,135.578 248.589,135.433 249.029,135.353 C249.217,135.318 249.346,135.308 249.4,135.312 C249.312,135.306 249.166,135.262 248.99,135.144 C248.806,135.02 248.701,134.89 248.656,134.798 C248.675,134.836 248.709,134.949 248.743,135.126 C248.825,135.552 248.862,136.033 248.913,137.157 C248.913,137.167 248.913,137.167 248.914,137.177 C248.981,138.676 249.034,139.32 249.206,140.113 C249.533,141.614 250.223,142.771 251.602,143.344 C252.971,143.911 254.262,143.587 255.566,142.771 C256.251,142.342 256.729,141.951 257.889,140.934 C257.958,140.874 257.958,140.874 258.026,140.814 C258.779,140.155 259.191,139.823 259.549,139.597 C259.695,139.504 259.797,139.454 259.839,139.441 C259.755,139.467 259.607,139.481 259.411,139.442 C259.189,139.398 259.039,139.317 258.959,139.246 C258.987,139.272 259.059,139.358 259.156,139.502 C259.392,139.855 259.615,140.288 260.082,141.272 C260.098,141.305 260.098,141.305 260.114,141.339 C261.81,144.911 262.579,146 265,146 Z M265,141.116 C265.281,141.116 265.516,141.202 265.661,141.309 C265.667,141.313 265.612,141.254 265.524,141.129 C265.274,140.775 265.037,140.321 264.526,139.244 C264.51,139.211 264.51,139.211 264.494,139.177 C262.999,136.028 262.34,135.043 260.359,134.651 C258.407,134.265 257.287,134.972 254.81,137.138 C254.74,137.2 254.74,137.2 254.67,137.261 C253.729,138.086 253.35,138.396 252.975,138.631 C252.838,138.717 252.757,138.754 252.759,138.754 C252.938,138.709 253.197,138.718 253.473,138.832 C253.742,138.944 253.933,139.121 254.03,139.284 C254.036,139.294 254.01,139.221 253.978,139.075 C253.887,138.656 253.846,138.157 253.792,136.958 C253.792,136.948 253.792,136.948 253.792,136.938 C253.632,133.386 253.408,132.225 251.707,131.086 C250.03,129.963 248.84,130.18 245.483,131.306 C245.465,131.312 245.465,131.312 245.447,131.318 C244.275,131.711 243.789,131.856 243.349,131.927 C243.186,131.954 243.094,131.957 243.092,131.957 C243.268,131.984 243.498,132.089 243.704,132.295 C243.922,132.513 244.032,132.759 244.058,132.951 C244.059,132.957 244.064,132.87 244.093,132.711 C244.176,132.273 244.333,131.788 244.759,130.616 C244.766,130.595 244.766,130.595 244.774,130.574 C246.001,127.198 246.247,126.001 245.103,124.293 C243.96,122.585 242.804,122.368 239.152,122.208 C239.145,122.208 239.145,122.208 239.138,122.208 C237.899,122.153 237.383,122.112 236.944,122.019 C236.785,121.986 236.702,121.957 236.706,121.959 C236.869,122.054 237.052,122.248 237.168,122.527 C237.301,122.849 237.302,123.158 237.236,123.372 C237.232,123.385 237.274,123.309 237.371,123.174 C237.639,122.801 237.987,122.429 238.917,121.496 C239,121.413 239,121.413 239.083,121.329 C241.521,118.878 242.318,117.764 241.914,115.718 C241.513,113.693 240.497,113.054 237.091,111.531 C237.039,111.507 237.039,111.507 236.986,111.484 C235.804,110.956 235.298,110.708 234.896,110.442 C234.744,110.341 234.664,110.274 234.661,110.27 C234.781,110.421 234.884,110.679 234.884,111 C234.884,111.262 234.812,111.464 234.731,111.581 C234.747,111.558 234.829,111.476 234.976,111.359 C235.348,111.066 235.817,110.782 236.896,110.182 C237.013,110.117 237.013,110.117 237.131,110.051 C239.984,108.46 240.982,107.698 241.349,105.841 C241.734,103.894 240.951,102.694 238.95,100.613 C238.801,100.458 238.801,100.458 238.655,100.307 C237.836,99.464 237.538,99.134 237.318,98.811 C237.251,98.712 237.228,98.668 237.238,98.705 C237.293,98.913 237.283,99.194 237.168,99.473 C237.043,99.775 236.849,99.973 236.683,100.066 C236.694,100.059 236.801,100.024 236.989,99.986 C237.471,99.889 238.027,99.848 239.356,99.793 C239.357,99.793 239.357,99.793 239.357,99.793 C243.237,99.633 244.379,99.43 245.532,97.707 C246.723,95.928 246.411,94.719 244.952,91.301 C244.94,91.274 244.94,91.274 244.929,91.247 C244.428,90.074 244.242,89.592 244.136,89.157 C244.099,89.006 244.091,88.929 244.089,88.95 C244.067,89.177 243.947,89.462 243.705,89.705 C243.55,89.86 243.397,89.938 243.295,89.962 C243.336,89.952 243.457,89.944 243.646,89.953 C244.102,89.973 244.598,90.056 245.779,90.293 C249.044,90.949 250.18,91.029 251.707,90.007 C253.368,88.895 253.63,87.708 253.789,84.637 C253.79,84.61 253.79,84.61 253.792,84.583 C253.844,83.58 253.882,83.166 253.962,82.844 C253.968,82.822 253.839,83.016 253.473,83.168 C253.244,83.263 253.032,83.277 252.889,83.249 C252.898,83.251 252.981,83.283 253.12,83.358 C253.491,83.558 253.869,83.828 254.806,84.548 C254.868,84.596 254.868,84.596 254.932,84.645 C257.38,86.523 258.504,87.141 260.358,86.774 C262.273,86.396 262.962,85.452 264.453,82.598 C264.464,82.575 264.464,82.575 264.476,82.552 C264.983,81.582 265.215,81.178 265.453,80.87 C265.533,80.768 265.579,80.722 265.569,80.729 C265.439,80.816 265.235,80.884 265,80.884 C264.756,80.884 264.538,80.81 264.394,80.711 C264.369,80.694 264.402,80.728 264.469,80.819 C264.688,81.117 264.899,81.513 265.366,82.482 C265.369,82.488 265.369,82.488 265.372,82.494 C266.786,85.428 267.445,86.386 269.41,86.774 C271.255,87.139 272.353,86.549 274.946,84.641 C274.989,84.61 274.989,84.61 275.032,84.578 C276.013,83.856 276.415,83.58 276.81,83.375 C276.966,83.293 277.066,83.255 277.09,83.251 C276.959,83.276 276.756,83.263 276.527,83.168 C276.275,83.063 276.089,82.895 275.991,82.736 C275.978,82.715 275.999,82.771 276.027,82.895 C276.114,83.28 276.155,83.749 276.208,84.88 C276.208,84.896 276.208,84.896 276.209,84.912 C276.368,88.293 276.605,89.465 278.293,90.595 C279.917,91.682 281.091,91.514 284.416,90.556 C284.428,90.553 284.428,90.553 284.441,90.549 C285.615,90.211 286.104,90.088 286.548,90.034 C286.719,90.014 286.82,90.014 286.835,90.016 C286.686,89.989 286.483,89.893 286.295,89.705 C286.071,89.48 285.958,89.223 285.933,89.021 C285.932,89.011 285.925,89.095 285.894,89.251 C285.805,89.688 285.64,90.172 285.192,91.344 C285.184,91.367 285.184,91.367 285.175,91.39 C283.883,94.778 283.618,95.979 284.775,97.707 C285.922,99.42 287.073,99.632 290.79,99.792 C290.795,99.792 290.795,99.792 290.8,99.793 C292.065,99.847 292.592,99.888 293.043,99.982 C293.211,100.017 293.301,100.048 293.301,100.048 C293.136,99.954 292.951,99.759 292.832,99.473 C292.627,98.978 292.728,98.625 292.77,98.57 C292.576,98.821 292.296,99.086 291.489,99.793 C289.038,101.939 288.225,102.967 288.651,105.12 C289.008,106.927 289.806,107.601 292.932,109.697 C294.013,110.422 294.503,110.775 294.897,111.132 C295.072,111.291 295.18,111.412 295.22,111.474 C295.171,111.398 295.116,111.237 295.116,111 C295.116,110.627 295.252,110.313 295.421,110.126 C295.439,110.105 295.374,110.152 295.232,110.229 C294.817,110.454 294.296,110.653 293.047,111.078 C293.037,111.081 293.037,111.081 293.026,111.085 C289.205,112.385 288.166,112.917 287.733,115.105 C287.326,117.167 288.075,118.211 290.788,121.06 C290.827,121.101 290.827,121.101 290.867,121.143 C291.867,122.193 292.253,122.623 292.561,123.059 C292.687,123.237 292.751,123.354 292.758,123.377 C292.694,123.179 292.689,122.872 292.832,122.527 C292.951,122.241 293.136,122.046 293.301,121.952 C293.301,121.952 293.211,121.983 293.043,122.018 C292.592,122.112 292.065,122.153 290.8,122.207 C290.795,122.208 290.795,122.208 290.79,122.208 C287.073,122.368 285.922,122.58 284.775,124.293 C283.618,126.021 283.883,127.223 285.175,130.61 C285.184,130.633 285.184,130.633 285.192,130.656 C285.64,131.828 285.805,132.312 285.894,132.749 C285.925,132.905 285.932,132.989 285.933,132.979 C285.958,132.777 286.071,132.52 286.295,132.296 C286.508,132.082 286.619,132.054 286.5,132.048 C286.133,132.03 285.717,131.951 284.702,131.72 C284.676,131.714 284.676,131.714 284.65,131.708 C281.795,131.059 280.613,130.971 279.086,131.993 C277.569,133.009 277.211,134.084 276.67,137.051 C276.669,137.056 276.669,137.056 276.669,137.061 C276.48,138.099 276.385,138.527 276.253,138.885 C276.205,139.017 276.261,138.943 276.527,138.832 C276.998,138.637 277.279,138.714 277.277,138.712 C276.982,138.502 276.677,138.21 275.885,137.395 C275.643,137.147 275.503,137.004 275.347,136.848 C273.572,135.079 272.309,134.279 270.429,134.651 C268.673,134.999 267.817,136.026 266.29,138.553 C266.211,138.683 266.143,138.797 266,139.036 C265.352,140.117 265.043,140.594 264.726,140.974 C264.594,141.132 264.498,141.224 264.46,141.249 C264.561,141.182 264.748,141.116 265,141.116 Z" />
            <path d="M273.14,121.581 C278.084,121.581 282.093,117.573 282.093,112.628 C282.093,107.683 278.084,103.674 273.14,103.674 C268.195,103.674 264.186,107.683 264.186,112.628 C264.186,117.573 268.195,121.581 273.14,121.581 Z M273.14,116.698 C270.892,116.698 269.07,114.876 269.07,112.628 C269.07,110.38 270.892,108.558 273.14,108.558 C275.387,108.558 277.209,110.38 277.209,112.628 C277.209,114.876 275.387,116.698 273.14,116.698 Z" />
            <path d="M252.791,114.256 C255.038,114.256 256.86,112.434 256.86,110.186 C256.86,107.938 255.038,106.116 252.791,106.116 C250.543,106.116 248.721,107.938 248.721,110.186 C248.721,112.434 250.543,114.256 252.791,114.256 Z" />
        </g>
        <g id="Regular-S">
            <path d="M465,146 C467.28,146 468.135,144.974 470.189,141.547 C470.331,141.309 470.396,141.202 470.47,141.079 C470.929,140.318 471.229,139.868 471.491,139.553 C471.599,139.423 471.681,139.342 471.723,139.31 C471.668,139.352 471.556,139.407 471.377,139.442 C471.076,139.501 470.924,139.458 470.933,139.464 C471.153,139.603 471.462,139.871 471.899,140.307 C472.032,140.44 472.158,140.569 472.383,140.8 C473.407,141.853 473.81,142.238 474.442,142.689 C475.673,143.567 476.992,143.926 478.398,143.344 C480.419,142.505 480.86,141.303 481.473,137.936 C481.474,137.931 481.474,137.931 481.475,137.926 C481.651,136.962 481.738,136.557 481.859,136.194 C481.929,135.984 481.947,135.955 481.803,136.051 C481.66,136.147 481.679,136.144 481.882,136.159 C482.25,136.186 482.666,136.265 483.566,136.47 C483.592,136.476 483.592,136.476 483.618,136.482 C486.934,137.237 488.197,137.301 489.749,135.749 C490.826,134.671 490.993,133.319 490.68,131.778 C490.517,130.975 490.308,130.363 489.755,128.916 C489.747,128.893 489.747,128.893 489.738,128.87 C489.334,127.81 489.166,127.321 489.069,126.883 C489.029,126.701 489.016,126.58 489.018,126.536 C489.013,126.644 488.964,126.814 488.833,127.01 C488.702,127.206 488.566,127.313 488.474,127.356 C488.523,127.333 488.651,127.296 488.847,127.26 C489.302,127.176 489.807,127.138 491,127.087 C491.005,127.087 491.005,127.087 491.009,127.087 C492.564,127.02 493.229,126.968 494.041,126.798 C495.585,126.476 496.763,125.798 497.344,124.398 C497.949,122.937 497.523,121.618 496.549,120.24 C496.049,119.533 495.587,119.017 494.402,117.774 C494.363,117.733 494.363,117.733 494.325,117.692 C493.465,116.79 493.058,116.333 492.754,115.909 C492.618,115.72 492.539,115.582 492.513,115.516 C492.55,115.612 492.575,115.794 492.524,116.052 C492.463,116.36 492.333,116.57 492.212,116.683 C492.232,116.665 492.332,116.599 492.502,116.512 C492.922,116.297 493.419,116.11 494.6,115.708 C494.61,115.704 494.61,115.704 494.621,115.701 C496.154,115.179 496.807,114.93 497.557,114.524 C499.031,113.726 500,112.646 500,111 C500,108.792 499.004,107.889 495.652,105.641 C494.541,104.896 494.143,104.616 493.747,104.281 C493.552,104.116 493.419,103.983 493.35,103.895 C493.364,103.913 493.407,103.998 493.442,104.172 C493.512,104.526 493.453,104.684 493.49,104.638 C493.698,104.374 494.008,104.078 494.706,103.467 C495.785,102.522 496.165,102.163 496.631,101.561 C497.552,100.372 497.936,99.032 497.343,97.602 C496.763,96.202 495.585,95.524 494.042,95.202 C493.23,95.032 492.564,94.98 491.01,94.913 C491.005,94.913 491.005,94.913 491,94.913 C489.807,94.862 489.302,94.824 488.847,94.74 C488.651,94.704 488.523,94.667 488.475,94.644 C488.567,94.687 488.702,94.794 488.833,94.99 C488.964,95.185 489.013,95.356 489.018,95.464 C489.016,95.42 489.029,95.299 489.069,95.117 C489.166,94.679 489.334,94.19 489.738,93.13 C489.747,93.107 489.747,93.107 489.755,93.084 C490.308,91.637 490.517,91.025 490.68,90.222 C490.993,88.681 490.826,87.329 489.749,86.251 C488.115,84.617 486.864,84.769 483.089,85.856 C483.077,85.86 483.077,85.86 483.064,85.863 C481.984,86.174 481.507,86.296 481.063,86.359 C480.868,86.387 480.732,86.393 480.667,86.387 C480.732,86.393 480.854,86.432 481.01,86.536 C481.182,86.652 481.285,86.776 481.33,86.868 C481.316,86.84 481.286,86.743 481.254,86.586 C481.174,86.191 481.137,85.734 481.088,84.682 C481.087,84.666 481.087,84.666 481.086,84.65 C481.018,83.208 480.965,82.586 480.789,81.812 C480.457,80.354 479.756,79.22 478.398,78.657 C476.324,77.797 475.238,78.362 472.136,80.646 C472.094,80.677 472.094,80.677 472.051,80.708 C471.222,81.319 470.803,81.605 470.42,81.811 C470.251,81.901 470.127,81.953 470.059,81.971 C470.102,81.96 470.204,81.953 470.358,81.984 C470.552,82.022 470.693,82.095 470.772,82.162 C470.756,82.148 470.699,82.082 470.618,81.964 C470.405,81.656 470.208,81.281 469.771,80.374 C469.768,80.368 469.768,80.368 469.766,80.362 C469.158,79.101 468.87,78.561 468.405,77.927 C467.539,76.749 466.448,76 465,76 C462.656,76 461.839,77.053 460.147,80.292 C460.135,80.315 460.135,80.315 460.124,80.337 C459.659,81.228 459.442,81.611 459.214,81.922 C459.123,82.046 459.057,82.119 459.031,82.141 C459.099,82.085 459.227,82.02 459.411,81.984 C459.565,81.953 459.676,81.96 459.731,81.975 C459.678,81.961 459.571,81.915 459.422,81.833 C459.067,81.638 458.662,81.351 457.904,80.77 C457.843,80.723 457.843,80.723 457.782,80.676 C454.779,78.369 453.699,77.787 451.602,78.657 C450.286,79.202 449.564,80.289 449.222,81.668 C449.038,82.409 448.984,82.992 448.914,84.331 C448.913,84.358 448.913,84.358 448.912,84.385 C448.864,85.304 448.827,85.715 448.753,86.051 C448.726,86.17 448.764,86.1 448.99,85.949 C449.143,85.846 449.057,85.859 448.764,85.839 C448.312,85.807 447.846,85.727 446.741,85.505 C443.05,84.763 441.796,84.707 440.251,86.251 C439.141,87.361 439.011,88.748 439.39,90.309 C439.585,91.111 439.819,91.717 440.437,93.165 C440.449,93.192 440.449,93.192 440.46,93.219 C440.91,94.272 441.101,94.765 441.213,95.202 C441.259,95.379 441.276,95.494 441.275,95.528 C441.278,95.399 441.33,95.205 441.474,94.99 C441.613,94.783 441.753,94.674 441.845,94.633 C441.786,94.659 441.643,94.7 441.428,94.738 C440.944,94.824 440.416,94.861 439.156,94.913 C439.155,94.913 439.155,94.913 439.155,94.913 C437.546,94.98 436.858,95.031 436.027,95.198 C434.442,95.516 433.245,96.184 432.657,97.602 C432.079,98.994 432.426,100.303 433.281,101.559 C433.723,102.209 434.11,102.637 435.15,103.709 C435.293,103.855 435.293,103.855 435.43,103.998 C435.979,104.569 436.294,104.933 436.479,105.218 C436.54,105.311 436.567,105.365 436.567,105.366 C436.533,105.254 436.519,105.088 436.558,104.893 C436.597,104.698 436.66,104.574 436.709,104.514 C436.674,104.557 436.583,104.642 436.437,104.753 C436.093,105.016 435.638,105.291 434.753,105.785 C434.638,105.849 434.638,105.849 434.521,105.914 C431.046,107.848 430,108.675 430,111 C430,113.475 431.107,114.205 434.993,115.943 C435.046,115.966 435.046,115.966 435.098,115.99 C436.166,116.467 436.651,116.703 437.045,116.951 C437.212,117.056 437.315,117.136 437.348,117.171 C437.268,117.086 437.173,116.92 437.123,116.666 C437.076,116.428 437.098,116.242 437.139,116.128 C437.129,116.157 437.076,116.251 436.976,116.39 C436.723,116.744 436.345,117.157 435.62,117.885 C435.54,117.966 435.54,117.966 435.458,118.048 C434.321,119.189 433.89,119.651 433.408,120.32 C432.465,121.629 432.057,122.952 432.657,124.398 C433.234,125.79 434.404,126.473 435.931,126.797 C436.735,126.967 437.392,127.02 438.925,127.087 C438.932,127.087 438.932,127.087 438.939,127.087 C440.104,127.138 440.6,127.175 441.044,127.259 C441.233,127.294 441.355,127.33 441.399,127.352 C441.307,127.308 441.173,127.202 441.045,127.01 C440.919,126.822 440.872,126.661 440.867,126.561 C440.869,126.609 440.857,126.733 440.819,126.917 C440.729,127.356 440.57,127.843 440.184,128.906 C440.176,128.927 440.176,128.927 440.169,128.948 C439.643,130.396 439.443,131.01 439.293,131.813 C439.006,133.345 439.186,134.684 440.251,135.749 C441.297,136.794 442.614,136.995 444.132,136.748 C444.936,136.617 445.553,136.434 447,135.948 C447.018,135.942 447.018,135.942 447.036,135.936 C448.105,135.578 448.589,135.433 449.029,135.353 C449.217,135.318 449.346,135.308 449.4,135.312 C449.312,135.306 449.166,135.262 448.991,135.144 C448.806,135.02 448.701,134.89 448.656,134.798 C448.675,134.836 448.709,134.949 448.743,135.126 C448.825,135.552 448.862,136.033 448.913,137.157 C448.913,137.167 448.913,137.167 448.914,137.177 C448.981,138.676 449.034,139.32 449.206,140.113 C449.533,141.614 450.223,142.771 451.602,143.344 C452.971,143.911 454.262,143.587 455.566,142.771 C456.251,142.342 456.729,141.951 457.889,140.934 C457.958,140.874 457.958,140.874 458.026,140.814 C458.779,140.155 459.191,139.823 459.549,139.597 C459.695,139.504 459.797,139.454 459.839,139.441 C459.755,139.467 459.607,139.481 459.411,139.442 C459.189,139.398 459.039,139.317 458.959,139.246 C458.987,139.272 459.059,139.358 459.156,139.502 C459.392,139.855 459.615,140.288 460.082,141.272 C460.098,141.305 460.098,141.305 460.114,141.339 C461.81,144.911 462.579,146 465,146 Z M465,141.116 C465.281,141.116 465.516,141.202 465.661,141.309 C465.667,141.313 465.612,141.254 465.524,141.129 C465.274,140.775 465.037,140.321 464.526,139.244 C464.51,139.211 464.51,139.211 464.494,139.177 C462.999,136.028 462.34,135.043 460.359,134.651 C458.407,134.265 457.287,134.972 454.81,137.138 C454.74,137.2 454.74,137.2 454.67,137.261 C453.729,138.086 453.35,138.396 452.975,138.631 C452.838,138.717 452.757,138.754 452.759,138.754 C452.938,138.709 453.197,138.718 453.473,138.832 C453.742,138.944 453.933,139.121 454.03,139.284 C454.036,139.294 454.01,139.221 453.978,139.075 C453.887,138.656 453.846,138.157 453.793,136.958 C453.792,136.948 453.792,136.948 453.792,136.938 C453.632,133.386 453.408,132.225 451.707,131.086 C450.03,129.963 448.84,130.18 445.483,131.306 C445.465,131.312 445.465,131.312 445.447,131.318 C444.275,131.711 443.789,131.856 443.349,131.927 C443.186,131.954 443.094,131.957 443.092,131.957 C443.268,131.984 443.498,132.089 443.705,132.295 C443.922,132.513 444.032,132.759 444.058,132.951 C444.059,132.957 444.064,132.87 444.094,132.711 C444.176,132.273 444.333,131.788 444.759,130.616 C444.766,130.595 444.766,130.595 444.774,130.574 C446.001,127.198 446.247,126.001 445.103,124.293 C443.96,122.585 442.804,122.368 439.152,122.208 C439.145,122.208 439.145,122.208 439.139,122.208 C437.899,122.153 437.383,122.112 436.944,122.019 C436.785,121.986 436.702,121.957 436.706,121.959 C436.869,122.054 437.052,122.248 437.168,122.527 C437.301,122.849 437.302,123.158 437.236,123.372 C437.232,123.385 437.274,123.309 437.371,123.174 C437.639,122.801 437.987,122.429 438.917,121.496 C439,121.413 439,121.413 439.083,121.329 C441.521,118.878 442.318,117.764 441.914,115.718 C441.513,113.693 440.497,113.054 437.091,111.531 C437.039,111.507 437.039,111.507 436.986,111.484 C435.804,110.956 435.298,110.708 434.896,110.442 C434.744,110.341 434.664,110.274 434.661,110.27 C434.781,110.421 434.884,110.679 434.884,111 C434.884,111.262 434.812,111.464 434.731,111.581 C434.747,111.558 434.829,111.476 434.976,111.359 C435.348,111.066 435.817,110.782 436.896,110.182 C437.013,110.117 437.013,110.117 437.131,110.051 C439.984,108.46 440.982,107.698 441.349,105.841 C441.734,103.894 440.951,102.694 438.95,100.613 C438.801,100.458 438.801,100.458 438.655,100.307 C437.836,99.464 437.538,99.134 437.318,98.811 C437.251,98.712 437.228,98.668 437.238,98.705 C437.293,98.913 437.283,99.194 437.168,99.473 C437.043,99.775 436.849,99.973 436.683,100.066 C436.694,100.059 436.801,100.024 436.989,99.986 C437.471,99.889 438.027,99.848 439.356,99.793 C439.357,99.793 439.357,99.793 439.357,99.793 C443.237,99.633 444.379,99.43 445.532,97.707 C446.723,95.928 446.411,94.719 444.952,91.301 C444.94,91.274 444.94,91.274 444.929,91.247 C444.428,90.074 444.242,89.592 444.136,89.157 C444.099,89.006 444.091,88.929 444.089,88.95 C444.067,89.177 443.947,89.462 443.705,89.705 C443.55,89.86 443.397,89.938 443.295,89.962 C443.336,89.952 443.457,89.944 443.646,89.953 C444.102,89.973 444.598,90.056 445.779,90.293 C449.044,90.949 450.18,91.029 451.707,90.007 C453.368,88.895 453.63,87.708 453.789,84.637 C453.79,84.61 453.79,84.61 453.792,84.583 C453.844,83.58 453.882,83.166 453.962,82.844 C453.968,82.822 453.839,83.016 453.473,83.168 C453.244,83.263 453.032,83.277 452.889,83.249 C452.898,83.251 452.981,83.283 453.12,83.358 C453.491,83.558 453.869,83.828 454.806,84.548 C454.868,84.596 454.868,84.596 454.932,84.645 C457.38,86.523 458.504,87.141 460.358,86.774 C462.273,86.396 462.962,85.452 464.453,82.598 C464.464,82.575 464.464,82.575 464.476,82.552 C464.983,81.582 465.215,81.178 465.453,80.87 C465.533,80.768 465.579,80.722 465.569,80.729 C465.439,80.816 465.235,80.884 465,80.884 C464.756,80.884 464.538,80.81 464.394,80.711 C464.369,80.694 464.402,80.728 464.469,80.819 C464.688,81.117 464.899,81.513 465.366,82.482 C465.369,82.488 465.369,82.488 465.372,82.494 C466.786,85.428 467.445,86.386 469.41,86.774 C471.255,87.139 472.353,86.549 474.946,84.641 C474.989,84.61 474.989,84.61 475.032,84.578 C476.013,83.856 476.415,83.58 476.81,83.375 C476.966,83.293 477.066,83.255 477.09,83.251 C476.959,83.276 476.756,83.263 476.527,83.168 C476.275,83.063 476.089,82.895 475.991,82.736 C475.978,82.715 475.999,82.771 476.027,82.895 C476.114,83.28 476.155,83.749 476.208,84.88 C476.208,84.896 476.208,84.896 476.209,84.912 C476.368,88.293 476.605,89.465 478.293,90.595 C479.917,91.682 481.091,91.514 484.416,90.556 C484.428,90.553 484.428,90.553 484.441,90.549 C485.615,90.211 486.104,90.088 486.548,90.034 C486.719,90.014 486.82,90.014 486.835,90.016 C486.686,89.989 486.483,89.893 486.295,89.705 C486.071,89.48 485.958,89.223 485.933,89.021 C485.932,89.011 485.925,89.095 485.894,89.251 C485.805,89.688 485.64,90.172 485.192,91.344 C485.184,91.367 485.184,91.367 485.175,91.39 C483.883,94.778 483.618,95.979 484.775,97.707 C485.922,99.42 487.073,99.632 490.79,99.792 C490.795,99.792 490.795,99.792 490.8,99.793 C492.065,99.847 492.592,99.888 493.043,99.982 C493.211,100.017 493.301,100.048 493.301,100.048 C493.136,99.954 492.951,99.759 492.832,99.473 C492.627,98.978 492.728,98.625 492.77,98.57 C492.576,98.821 492.296,99.086 491.489,99.793 C489.038,101.939 488.225,102.967 488.651,105.12 C489.008,106.927 489.806,107.601 492.932,109.697 C494.013,110.422 494.503,110.775 494.897,111.132 C495.072,111.291 495.18,111.412 495.22,111.474 C495.171,111.398 495.116,111.237 495.116,111 C495.116,110.627 495.252,110.313 495.421,110.126 C495.439,110.105 495.374,110.152 495.232,110.229 C494.817,110.454 494.296,110.653 493.047,111.078 C493.037,111.081 493.037,111.081 493.026,111.085 C489.205,112.385 488.166,112.917 487.733,115.105 C487.326,117.167 488.075,118.211 490.788,121.06 C490.827,121.101 490.827,121.101 490.867,121.143 C491.867,122.193 492.253,122.623 492.561,123.059 C492.687,123.237 492.751,123.354 492.758,123.377 C492.694,123.179 492.689,122.872 492.832,122.527 C492.951,122.241 493.136,122.046 493.301,121.952 C493.301,121.952 493.211,121.983 493.043,122.018 C492.592,122.112 492.065,122.153 490.8,122.207 C490.795,122.208 490.795,122.208 490.79,122.208 C487.073,122.368 485.922,122.58 484.775,124.293 C483.618,126.021 483.883,127.223 485.175,130.61 C485.184,130.633 485.184,130.633 485.192,130.656 C485.64,131.828 485.805,132.312 485.894,132.749 C485.925,132.905 485.932,132.989 485.933,132.979 C485.958,132.777 486.071,132.52 486.295,132.296 C486.508,132.082 486.619,132.054 486.5,132.048 C486.133,132.03 485.717,131.951 484.702,131.72 C484.676,131.714 484.676,131.714 484.65,131.708 C481.795,131.059 480.613,130.971 479.086,131.993 C477.569,133.009 477.211,134.084 476.67,137.051 C476.669,137.056 476.669,137.056 476.669,137.061 C476.48,138.099 476.385,138.527 476.253,138.885 C476.205,139.017 476.261,138.943 476.527,138.832 C476.998,138.637 477.279,138.714 477.277,138.712 C476.982,138.502 476.677,138.21 475.885,137.395 C475.643,137.147 475.503,137.004 475.347,136.848 C473.572,135.079 472.309,134.279 470.429,134.651 C468.673,134.999 467.817,136.026 466.29,138.553 C466.211,138.683 466.143,138.797 466,139.036 C465.352,140.117 465.043,140.594 464.726,140.974 C464.594,141.132 464.498,141.224 464.46,141.249 C464.561,141.182 464.748,141.116 465,141.116 Z" />
            <path d="M473.14,121.581 C478.084,121.581 482.093,117.573 482.093,112.628 C482.093,107.683 478.084,103.674 473.14,103.674 C468.195,103.674 464.186,107.683 464.186,112.628 C464.186,117.573 468.195,121.581 473.14,121.581 Z M473.14,116.698 C470.892,116.698 469.07,114.876 469.07,112.628 C469.07,110.38 470.892,108.558 473.14,108.558 C475.387,108.558 477.209,110.38 477.209,112.628 C477.209,114.876 475.387,116.698 473.14,116.698 Z" />
            <path d="M452.791,114.256 C455.038,114.256 456.86,112.434 456.86,110.186 C456.86,107.938 455.038,106.116 452.791,106.116 C450.543,106.116 448.721,107.938 448.721,110.186 C448.721,112.434 450.543,114.256 452.791,114.256 Z" />
        </g>
        <g id="Black-S">
            <path d="M665,146 C667.279,146 668.135,144.974 670.189,141.547 C670.331,141.309 670.396,141.202 670.47,141.079 C670.929,140.318 671.229,139.868 671.491,139.553 C671.599,139.423 671.681,139.342 671.722,139.31 C671.668,139.352 671.556,139.407 671.377,139.442 C671.076,139.501 670.923,139.458 670.933,139.464 C671.153,139.603 671.462,139.871 671.899,140.307 C672.032,140.44 672.158,140.569 672.383,140.8 C673.407,141.853 673.81,142.238 674.442,142.689 C675.673,143.567 676.992,143.926 678.398,143.344 C680.419,142.505 680.86,141.303 681.473,137.936 C681.474,137.931 681.474,137.931 681.475,137.926 C681.651,136.962 681.738,136.557 681.859,136.194 C681.929,135.984 681.947,135.955 681.803,136.051 C681.66,136.147 681.679,136.144 681.882,136.159 C682.25,136.186 682.666,136.265 683.566,136.47 C683.592,136.476 683.592,136.476 683.618,136.482 C686.934,137.237 688.197,137.301 689.749,135.749 C690.826,134.671 690.993,133.319 690.68,131.778 C690.517,130.975 690.308,130.363 689.755,128.916 C689.747,128.893 689.747,128.893 689.738,128.87 C689.334,127.81 689.166,127.321 689.069,126.883 C689.029,126.701 689.016,126.58 689.018,126.536 C689.013,126.644 688.964,126.814 688.833,127.01 C688.702,127.206 688.566,127.313 688.474,127.356 C688.523,127.333 688.651,127.296 688.847,127.26 C689.302,127.176 689.807,127.138 691,127.087 C691.005,127.087 691.005,127.087 691.009,127.087 C692.564,127.02 693.229,126.968 694.041,126.798 C695.585,126.476 696.763,125.798 697.343,124.398 C697.949,122.937 697.523,121.618 696.549,120.24 C696.049,119.533 695.587,119.017 694.402,117.774 C694.363,117.733 694.363,117.733 694.325,117.692 C693.465,116.79 693.058,116.333 692.753,115.909 C692.618,115.72 692.539,115.582 692.513,115.516 C692.55,115.612 692.575,115.794 692.524,116.052 C692.463,116.36 692.333,116.57 692.212,116.683 C692.232,116.665 692.332,116.599 692.502,116.512 C692.922,116.297 693.419,116.11 694.6,115.708 C694.61,115.704 694.61,115.704 694.621,115.701 C696.154,115.179 696.807,114.93 697.557,114.524 C699.031,113.726 700,112.646 700,111 C700,108.792 699.004,107.889 695.652,105.641 C694.541,104.896 694.143,104.616 693.747,104.281 C693.552,104.116 693.419,103.983 693.35,103.895 C693.364,103.913 693.407,103.998 693.442,104.172 C693.512,104.526 693.453,104.684 693.49,104.638 C693.698,104.374 694.008,104.078 694.706,103.467 C695.785,102.522 696.165,102.163 696.631,101.561 C697.552,100.372 697.936,99.032 697.343,97.602 C696.763,96.202 695.585,95.524 694.042,95.202 C693.23,95.032 692.564,94.98 691.009,94.913 C691.005,94.913 691.005,94.913 691,94.913 C689.807,94.862 689.302,94.824 688.847,94.74 C688.651,94.704 688.523,94.667 688.475,94.644 C688.567,94.687 688.702,94.794 688.833,94.99 C688.964,95.185 689.013,95.356 689.018,95.464 C689.016,95.42 689.029,95.299 689.069,95.117 C689.166,94.679 689.334,94.19 689.738,93.13 C689.747,93.107 689.747,93.107 689.755,93.084 C690.308,91.637 690.517,91.025 690.68,90.222 C690.993,88.681 690.826,87.329 689.749,86.251 C688.115,84.617 686.864,84.769 683.089,85.856 C683.077,85.86 683.077,85.86 683.064,85.863 C681.984,86.174 681.507,86.296 681.063,86.359 C680.868,86.387 680.732,86.393 680.667,86.387 C680.732,86.393 680.854,86.432 681.009,86.536 C681.182,86.652 681.285,86.776 681.33,86.868 C681.316,86.84 681.286,86.743 681.254,86.586 C681.174,86.191 681.137,85.734 681.088,84.682 C681.087,84.666 681.087,84.666 681.086,84.65 C681.018,83.208 680.965,82.586 680.789,81.812 C680.457,80.354 679.756,79.22 678.398,78.657 C676.324,77.797 675.238,78.362 672.136,80.646 C672.094,80.677 672.094,80.677 672.051,80.708 C671.222,81.319 670.803,81.605 670.42,81.811 C670.251,81.901 670.127,81.953 670.059,81.971 C670.102,81.96 670.204,81.953 670.358,81.984 C670.552,82.022 670.693,82.095 670.772,82.162 C670.756,82.148 670.699,82.082 670.617,81.964 C670.405,81.656 670.208,81.281 669.771,80.374 C669.768,80.368 669.768,80.368 669.766,80.362 C669.158,79.101 668.87,78.561 668.405,77.927 C667.539,76.749 666.448,76 665,76 C662.656,76 661.839,77.053 660.147,80.292 C660.135,80.315 660.135,80.315 660.124,80.337 C659.659,81.228 659.442,81.611 659.214,81.922 C659.123,82.046 659.057,82.119 659.031,82.141 C659.099,82.085 659.227,82.02 659.411,81.984 C659.565,81.953 659.676,81.96 659.731,81.975 C659.678,81.961 659.571,81.915 659.422,81.833 C659.067,81.638 658.662,81.351 657.904,80.77 C657.843,80.723 657.843,80.723 657.782,80.676 C654.779,78.369 653.699,77.787 651.602,78.657 C650.286,79.202 649.564,80.289 649.222,81.668 C649.038,82.409 648.984,82.992 648.914,84.331 C648.913,84.358 648.913,84.358 648.912,84.385 C648.864,85.304 648.827,85.715 648.753,86.051 C648.726,86.17 648.764,86.1 648.99,85.949 C649.143,85.846 649.057,85.859 648.764,85.839 C648.312,85.807 647.846,85.727 646.741,85.505 C643.05,84.763 641.796,84.707 640.251,86.251 C639.141,87.361 639.011,88.748 639.39,90.309 C639.585,91.111 639.819,91.717 640.437,93.165 C640.449,93.192 640.449,93.192 640.46,93.219 C640.91,94.272 641.101,94.765 641.213,95.202 C641.259,95.379 641.276,95.494 641.275,95.528 C641.278,95.399 641.33,95.205 641.474,94.99 C641.613,94.783 641.753,94.674 641.844,94.633 C641.786,94.659 641.643,94.7 641.428,94.738 C640.943,94.824 640.416,94.861 639.156,94.913 C639.155,94.913 639.155,94.913 639.155,94.913 C637.546,94.98 636.858,95.031 636.027,95.198 C634.442,95.516 633.245,96.184 632.656,97.602 C632.079,98.994 632.426,100.303 633.281,101.559 C633.723,102.209 634.11,102.637 635.15,103.709 C635.293,103.855 635.293,103.855 635.43,103.998 C635.979,104.569 636.294,104.933 636.479,105.218 C636.54,105.311 636.567,105.365 636.567,105.366 C636.533,105.254 636.519,105.088 636.558,104.893 C636.597,104.698 636.66,104.574 636.709,104.514 C636.674,104.557 636.583,104.642 636.437,104.753 C636.093,105.016 635.638,105.291 634.753,105.785 C634.638,105.849 634.638,105.849 634.521,105.914 C631.046,107.848 630,108.675 630,111 C630,113.475 631.107,114.205 634.993,115.943 C635.046,115.966 635.046,115.966 635.098,115.99 C636.165,116.467 636.651,116.703 637.045,116.951 C637.212,117.056 637.315,117.136 637.348,117.171 C637.268,117.086 637.173,116.92 637.123,116.666 C637.076,116.428 637.098,116.242 637.139,116.128 C637.129,116.157 637.076,116.251 636.976,116.39 C636.723,116.744 636.345,117.157 635.62,117.885 C635.54,117.966 635.54,117.966 635.458,118.048 C634.321,119.189 633.89,119.651 633.408,120.32 C632.465,121.629 632.057,122.952 632.656,124.398 C633.234,125.79 634.404,126.473 635.931,126.797 C636.735,126.967 637.392,127.02 638.925,127.087 C638.932,127.087 638.932,127.087 638.938,127.087 C640.104,127.138 640.6,127.175 641.044,127.259 C641.233,127.294 641.355,127.33 641.399,127.352 C641.307,127.308 641.173,127.202 641.045,127.01 C640.919,126.822 640.872,126.661 640.867,126.561 C640.869,126.609 640.857,126.733 640.819,126.917 C640.729,127.356 640.57,127.843 640.184,128.906 C640.176,128.927 640.176,128.927 640.169,128.948 C639.643,130.396 639.443,131.01 639.293,131.813 C639.006,133.345 639.186,134.684 640.251,135.749 C641.297,136.794 642.614,136.995 644.132,136.748 C644.936,136.617 645.553,136.434 647,135.948 C647.018,135.942 647.018,135.942 647.036,135.936 C648.105,135.578 648.589,135.433 649.029,135.353 C649.217,135.318 649.346,135.308 649.399,135.312 C649.312,135.306 649.166,135.262 648.99,135.144 C648.806,135.02 648.701,134.89 648.656,134.798 C648.675,134.836 648.709,134.949 648.743,135.126 C648.825,135.552 648.862,136.033 648.913,137.157 C648.913,137.167 648.913,137.167 648.914,137.177 C648.981,138.676 649.034,139.32 649.206,140.113 C649.533,141.614 650.222,142.771 651.602,143.344 C652.971,143.911 654.262,143.587 655.566,142.771 C656.251,142.342 656.729,141.951 657.889,140.934 C657.958,140.874 657.958,140.874 658.026,140.814 C658.779,140.155 659.191,139.823 659.549,139.597 C659.695,139.504 659.797,139.454 659.839,139.441 C659.755,139.467 659.607,139.481 659.411,139.442 C659.189,139.398 659.039,139.317 658.959,139.246 C658.987,139.272 659.059,139.358 659.156,139.502 C659.392,139.855 659.615,140.288 660.082,141.272 C660.098,141.305 660.098,141.305 660.114,141.339 C661.81,144.911 662.579,146 665,146 Z M665,141.116 C665.281,141.116 665.516,141.202 665.661,141.309 C665.667,141.313 665.612,141.254 665.524,141.129 C665.274,140.775 665.037,140.321 664.526,139.244 C664.51,139.211 664.51,139.211 664.494,139.177 C662.999,136.028 662.34,135.043 660.359,134.651 C658.407,134.265 657.287,134.972 654.81,137.138 C654.74,137.2 654.74,137.2 654.67,137.261 C653.729,138.086 653.35,138.396 652.975,138.631 C652.838,138.717 652.757,138.754 652.759,138.754 C652.938,138.709 653.197,138.718 653.473,138.832 C653.742,138.944 653.933,139.121 654.03,139.284 C654.036,139.294 654.01,139.221 653.978,139.075 C653.887,138.656 653.846,138.157 653.792,136.958 C653.792,136.948 653.792,136.948 653.792,136.938 C653.632,133.386 653.408,132.225 651.707,131.086 C650.03,129.963 648.84,130.18 645.483,131.306 C645.465,131.312 645.465,131.312 645.447,131.318 C644.275,131.711 643.789,131.856 643.349,131.927 C643.186,131.954 643.094,131.957 643.092,131.957 C643.268,131.984 643.498,132.089 643.704,132.295 C643.922,132.513 644.032,132.759 644.058,132.951 C644.059,132.957 644.064,132.87 644.093,132.711 C644.175,132.273 644.333,131.788 644.759,130.616 C644.766,130.595 644.766,130.595 644.774,130.574 C646.001,127.198 646.247,126.001 645.103,124.293 C643.96,122.585 642.804,122.368 639.152,122.208 C639.145,122.208 639.145,122.208 639.138,122.208 C637.899,122.153 637.383,122.112 636.944,122.019 C636.785,121.986 636.702,121.957 636.706,121.959 C636.869,122.054 637.052,122.248 637.168,122.527 C637.301,122.849 637.302,123.158 637.236,123.372 C637.232,123.385 637.274,123.309 637.37,123.174 C637.639,122.801 637.987,122.429 638.917,121.496 C639,121.413 639,121.413 639.083,121.329 C641.521,118.878 642.318,117.764 641.914,115.718 C641.513,113.693 640.497,113.054 637.091,111.531 C637.039,111.507 637.039,111.507 636.986,111.484 C635.804,110.956 635.298,110.708 634.896,110.442 C634.744,110.341 634.664,110.274 634.661,110.27 C634.781,110.421 634.884,110.679 634.884,111 C634.884,111.262 634.812,111.464 634.731,111.581 C634.747,111.558 634.829,111.476 634.976,111.359 C635.348,111.066 635.817,110.782 636.896,110.182 C637.013,110.117 637.013,110.117 637.131,110.051 C639.984,108.46 640.982,107.698 641.349,105.841 C641.734,103.894 640.951,102.694 638.95,100.613 C638.801,100.458 638.801,100.458 638.655,100.307 C637.836,99.464 637.538,99.134 637.318,98.811 C637.251,98.712 637.228,98.668 637.238,98.705 C637.293,98.913 637.283,99.194 637.168,99.473 C637.042,99.775 636.849,99.973 636.683,100.066 C636.694,100.059 636.801,100.024 636.989,99.986 C637.471,99.889 638.027,99.848 639.356,99.793 C639.357,99.793 639.357,99.793 639.357,99.793 C643.237,99.633 644.379,99.43 645.532,97.707 C646.723,95.928 646.411,94.719 644.952,91.301 C644.94,91.274 644.94,91.274 644.929,91.247 C644.428,90.074 644.241,89.592 644.136,89.157 C644.099,89.006 644.091,88.929 644.089,88.95 C644.067,89.177 643.947,89.462 643.705,89.705 C643.549,89.86 643.397,89.938 643.295,89.962 C643.336,89.952 643.457,89.944 643.646,89.953 C644.102,89.973 644.598,90.056 645.779,90.293 C649.044,90.949 650.18,91.029 651.707,90.007 C653.368,88.895 653.63,87.708 653.789,84.637 C653.79,84.61 653.79,84.61 653.792,84.583 C653.844,83.58 653.882,83.166 653.962,82.844 C653.968,82.822 653.839,83.016 653.473,83.168 C653.244,83.263 653.032,83.277 652.889,83.249 C652.898,83.251 652.981,83.283 653.12,83.358 C653.491,83.558 653.869,83.828 654.806,84.548 C654.868,84.596 654.868,84.596 654.931,84.645 C657.38,86.523 658.504,87.141 660.358,86.774 C662.273,86.396 662.962,85.452 664.453,82.598 C664.464,82.575 664.464,82.575 664.476,82.552 C664.983,81.582 665.215,81.178 665.453,80.87 C665.533,80.768 665.579,80.722 665.569,80.729 C665.439,80.816 665.235,80.884 665,80.884 C664.756,80.884 664.538,80.81 664.394,80.711 C664.369,80.694 664.402,80.728 664.469,80.819 C664.688,81.117 664.899,81.513 665.366,82.482 C665.369,82.488 665.369,82.488 665.372,82.494 C666.786,85.428 667.445,86.386 669.41,86.774 C671.255,87.139 672.353,86.549 674.946,84.641 C674.989,84.61 674.989,84.61 675.032,84.578 C676.013,83.856 676.415,83.58 676.81,83.375 C676.966,83.293 677.066,83.255 677.09,83.251 C676.959,83.276 676.756,83.263 676.527,83.168 C676.275,83.063 676.089,82.895 675.991,82.736 C675.978,82.715 675.998,82.771 676.027,82.895 C676.114,83.28 676.155,83.749 676.208,84.88 C676.208,84.896 676.208,84.896 676.209,84.912 C676.368,88.293 676.605,89.465 678.293,90.595 C679.917,91.682 681.091,91.514 684.416,90.556 C684.428,90.553 684.428,90.553 684.441,90.549 C685.615,90.211 686.104,90.088 686.548,90.034 C686.719,90.014 686.82,90.014 686.835,90.016 C686.686,89.989 686.483,89.893 686.295,89.705 C686.071,89.48 685.958,89.223 685.933,89.021 C685.932,89.011 685.925,89.095 685.894,89.251 C685.805,89.688 685.64,90.172 685.192,91.344 C685.184,91.367 685.184,91.367 685.175,91.39 C683.883,94.778 683.618,95.979 684.775,97.707 C685.922,99.42 687.073,99.632 690.79,99.792 C690.795,99.792 690.795,99.792 690.8,99.793 C692.065,99.847 692.592,99.888 693.043,99.982 C693.211,100.017 693.301,100.048 693.301,100.048 C693.136,99.954 692.951,99.759 692.832,99.473 C692.627,98.978 692.728,98.625 692.77,98.57 C692.576,98.821 692.296,99.086 691.489,99.793 C689.038,101.939 688.225,102.967 688.651,105.12 C689.008,106.927 689.806,107.601 692.932,109.697 C694.013,110.422 694.503,110.775 694.897,111.132 C695.072,111.291 695.18,111.412 695.22,111.474 C695.171,111.398 695.116,111.237 695.116,111 C695.116,110.627 695.252,110.313 695.421,110.126 C695.439,110.105 695.374,110.152 695.232,110.229 C694.817,110.454 694.296,110.653 693.047,111.078 C693.037,111.081 693.037,111.081 693.026,111.085 C689.205,112.385 688.166,112.917 687.733,115.105 C687.326,117.167 688.075,118.211 690.788,121.06 C690.827,121.101 690.827,121.101 690.867,121.143 C691.867,122.193 692.253,122.623 692.561,123.059 C692.687,123.237 692.75,123.354 692.758,123.377 C692.694,123.179 692.689,122.872 692.832,122.527 C692.951,122.241 693.136,122.046 693.301,121.952 C693.301,121.952 693.211,121.983 693.043,122.018 C692.592,122.112 692.065,122.153 690.799,122.207 C690.795,122.208 690.795,122.208 690.79,122.208 C687.073,122.368 685.922,122.58 684.775,124.293 C683.618,126.021 683.883,127.223 685.175,130.61 C685.184,130.633 685.184,130.633 685.192,130.656 C685.64,131.828 685.805,132.312 685.894,132.749 C685.925,132.905 685.932,132.989 685.933,132.979 C685.958,132.777 686.071,132.52 686.295,132.296 C686.508,132.082 686.619,132.054 686.5,132.048 C686.133,132.03 685.717,131.951 684.702,131.72 C684.676,131.714 684.676,131.714 684.65,131.708 C681.795,131.059 680.613,130.971 679.086,131.993 C677.569,133.009 677.211,134.084 676.67,137.051 C676.669,137.056 676.669,137.056 676.669,137.061 C676.479,138.099 676.385,138.527 676.253,138.885 C676.205,139.017 676.261,138.943 676.527,138.832 C676.998,138.637 677.279,138.714 677.277,138.712 C676.982,138.502 676.677,138.21 675.885,137.395 C675.643,137.147 675.503,137.004 675.347,136.848 C673.572,135.079 672.309,134.279 670.429,134.651 C668.673,134.999 667.817,136.026 666.29,138.553 C666.211,138.683 666.143,138.797 666,139.036 C665.352,140.117 665.043,140.594 664.726,140.974 C664.594,141.132 664.498,141.224 664.46,141.249 C664.561,141.182 664.748,141.116 665,141.116 Z" />
            <path d="M673.14,121.581 C678.084,121.581 682.093,117.573 682.093,112.628 C682.093,107.683 678.084,103.674 673.14,103.674 C668.195,103.674 664.186,107.683 664.186,112.628 C664.186,117.573 668.195,121.581 673.14,121.581 Z M673.14,116.698 C670.892,116.698 669.07,114.876 669.07,112.628 C669.07,110.38 670.892,108.558 673.14,108.558 C675.387,108.558 677.209,110.38 677.209,112.628 C677.209,114.876 675.387,116.698 673.14,116.698 Z" />
            <path d="M652.791,114.256 C655.038,114.256 656.86,112.434 656.86,110.186 C656.86,107.938 655.038,106.116 652.791,106.116 C650.543,106.116 648.721,107.938 648.721,110.186 C648.721,112.434 650.543,114.256 652.791,114.256 Z" />
        </g>
    </g>
</svg>