<?xml version="1.0" encoding="UTF-8"?>
<svg height="600" width="800" xmlns="http://www.w3.org/2000/svg" xmlns:xlink="http://www.w3.org/1999/xlink">
    <g id="Notes" font-family="'LucidaGrande', 'Lucida Grande', sans-serif" font-size="13">
        <rect fill="white" height="600.0" width="800.0" x="0.0" y="0.0" />
        <g font-size="13">
            <text x="18.0" y="176.0">Small</text>
            <text x="18.0" y="376.0">Medium</text>
            <text x="18.0" y="576.0">Large</text>
        </g>
        <g font-size="9">
            <text x="250.0" y="30.0">Ultralight</text>
            <text x="450.0" y="30.0">Regular</text>
            <text x="650.0" y="30.0">Black</text>
            <text id="template-version" fill="#505050" text-anchor="end" x="785.0" y="575.0">Template v.3.0</text>
            <a href="https://github.com/swhitty/SwiftDraw">
                <text fill="#505050" text-anchor="end" x="785.0" y="590.0">https://github.com/swhitty/SwiftDraw</text>
            </a>
        </g>
    </g>
    <g id="Guides" stroke="rgb(39, 170, 225)" stroke-width="0.5">
        <path id="Capline-S" d="M18,76 l800,0" />
        <path id="H-reference" d="M85,145.755 L87.685,145.755 L113.369,79.287 L114.052,79.287 L114.052,76 L112.148,76 L85,145.755 Z M95.693,121.536 L130.996,121.536 L130.263,119.313 L96.474,119.313 L95.693,121.536 Z M139.15,145.755 L141.787,145.755 L114.638,76 L113.466,76 L113.466,79.287 L139.15,145.755 Z" stroke="none" />
        <path id="Baseline-S" d="M18,146 l800,0" />
        <path id="left-margin-Ultralight-S" d="M221,56 l0,110" />
        <path id="right-margin-Ultralight-S" d="M309,56 l0,110" />
        <path id="left-margin-Regular-S" d="M421,56 l0,110" />
        <path id="right-margin-Regular-S" d="M509,56 l0,110" />
        <path id="left-margin-Black-S" d="M621,56 l0,110" />
        <path id="right-margin-Black-S" d="M709,56 l0,110" />
        <path id="Capline-M" d="M18,276 l800,0" />
        <path id="Baseline-M" d="M18,346 l800,0" />
        <path id="Capline-L" d="M18,476 l800,0" />
        <path id="Baseline-L" d="M18,546 l800,0" />
    </g>
    <g id="Symbols">
        <g id="Ultralight-S">
            <path d="M280.948,80.217 C286.836,85.777 290.233,93.487 290.233,101.747 C290.233,118.096 276.979,131.349 260.63,131.349 C252.371,131.349 244.66,127.952 239.101,122.064 C238.175,121.083 236.63,121.039 235.649,121.965 C234.669,122.89 234.624,124.436 235.55,125.416 C242.023,132.272 251.013,136.233 260.63,136.233 C279.676,136.233 295.116,120.793 295.116,101.747 C295.116,92.129 291.156,83.139 284.3,76.666 C283.32,75.74 281.774,75.785 280.848,76.766 C279.922,77.746 279.967,79.292 280.948,80.217 Z" />
            <path d="M260.116,126.465 C274.052,126.465 285.349,115.168 285.349,101.233 C285.349,87.297 274.052,76 260.116,76 C246.181,76 234.884,87.297 234.884,101.233 C234.884,115.168 246.181,126.465 260.116,126.465 Z M260.116,121.581 C248.878,121.581 239.767,112.471 239.767,101.233 C239.767,89.994 248.878,80.884 260.116,80.884 C271.355,80.884 280.465,89.994 280.465,101.233 C280.465,112.471 271.355,121.581 260.116,121.581 Z" />
            <path d="M257.674,133.791 L257.674,143.558 C257.674,144.907 258.768,146 260.116,146 C261.465,146 262.558,144.907 262.558,143.558 L262.558,133.791 C262.558,132.442 261.465,131.349 260.116,131.349 C258.768,131.349 257.674,132.442 257.674,133.791 Z" />
            <path d="M250.349,146 L269.884,146 C271.232,146 272.326,144.907 272.326,143.558 C272.326,142.21 271.232,141.116 269.884,141.116 L250.349,141.116 C249,141.116 247.907,142.21 247.907,143.558 C247.907,144.907 249,146 250.349,146 Z" />
        </g>
        <g id="Regular-S">
            <path d="M480.948,80.217 C486.836,85.777 490.233,93.487 490.233,101.747 C490.233,118.096 476.979,131.349 460.63,131.349 C452.371,131.349 444.66,127.952 439.101,122.064 C438.175,121.083 436.63,121.039 435.649,121.965 C434.669,122.89 434.624,124.436 435.55,125.416 C442.023,132.272 451.013,136.233 460.63,136.233 C479.676,136.233 495.116,120.793 495.116,101.747 C495.116,92.129 491.156,83.139 484.3,76.666 C483.32,75.74 481.774,75.785 480.848,76.766 C479.922,77.746 479.967,79.292 480.948,80.217 Z" />
            <path d="M460.116,126.465 C474.052,126.465 485.349,115.168 485.349,101.233 C485.349,87.297 474.052,76 460.116,76 C446.181,76 434.884,87.297 434.884,101.233 C434.884,115.168 446.181,126.465 460.116,126.465 Z M460.116,121.581 C448.878,121.581 439.767,112.471 439.767,101.233 C439.767,89.994 448.878,80.884 460.116,80.884 C471.355,80.884 480.465,89.994 480.465,101.233 C480.465,112.471 471.355,121.581 460.116,121.581 Z" />
            <path d="M457.674,133.791 L457.674,143.558 C457.674,144.907 458.768,146 460.116,146 C461.465,146 462.558,144.907 462.558,143.558 L462.558,133.791 C462.558,132.442 461.465,131.349 460.116,131.349 C458.768,131.349 457.674,132.442 457.674,133.791 Z" />
            <path d="M450.349,146 L469.884,146 C471.232,146 472.326,144.907 472.326,143.558 C472.326,142.21 471.232,141.116 469.884,141.116 L450.349,141.116 C449,141.116 447.907,142.21 447.907,143.558 C447.907,144.907 449,146 450.349,146 Z" />
        </g>
        <g id="Black-S">
            <path d="M680.948,80.217 C686.836,85.777 690.233,93.487 690.233,101.747 C690.233,118.096 676.979,131.349 660.63,131.349 C652.371,131.349 644.66,127.952 639.101,122.064 C638.175,121.083 636.63,121.039 635.649,121.965 C634.669,122.89 634.624,124.436 635.55,125.416 C642.023,132.272 651.013,136.233 660.63,136.233 C679.676,136.233 695.116,120.793 695.116,101.747 C695.116,92.129 691.156,83.139 684.3,76.666 C683.32,75.74 681.774,75.785 680.848,76.766 C679.922,77.746 679.967,79.292 680.948,80.217 Z" />
            <path d="M660.116,126.465 C674.052,126.465 685.349,115.168 685.349,101.233 C685.349,87.297 674.052,76 660.116,76 C646.181,76 634.884,87.297 634.884,101.233 C634.884,115.168 646.181,126.465 660.116,126.465 Z M660.116,121.581 C648.878,121.581 639.767,112.471 639.767,101.233 C639.767,89.994 648.878,80.884 660.116,80.884 C671.355,80.884 680.465,89.994 680.465,101.233 C680.465,112.471 671.355,121.581 660.116,121.581 Z" />
            <path d="M657.674,133.791 L657.674,143.558 C657.674,144.907 658.768,146 660.116,146 C661.465,146 662.558,144.907 662.558,143.558 L662.558,133.791 C662.558,132.442 661.465,131.349 660.116,131.349 C658.768,131.349 657.674,132.442 657.674,133.791 Z" />
            <path d="M650.349,146 L669.884,146 C671.232,146 672.326,144.907 672.326,143.558 C672.326,142.21 671.232,141.116 669.884,141.116 L650.349,141.116 C649,141.116 647.907,142.21 647.907,143.558 C647.907,144.907 649,146 650.349,146 Z" />
        </g>
    </g>
</svg>