<?xml version="1.0" encoding="UTF-8"?>
<svg height="600" width="800" xmlns="http://www.w3.org/2000/svg" xmlns:xlink="http://www.w3.org/1999/xlink">
    <g id="Notes" font-family="'LucidaGrande', 'Lucida Grande', sans-serif" font-size="13">
        <rect fill="white" height="600.0" width="800.0" x="0.0" y="0.0" />
        <g font-size="13">
            <text x="18.0" y="176.0">Small</text>
            <text x="18.0" y="376.0">Medium</text>
            <text x="18.0" y="576.0">Large</text>
        </g>
        <g font-size="9">
            <text x="250.0" y="30.0">Ultralight</text>
            <text x="450.0" y="30.0">Regular</text>
            <text x="650.0" y="30.0">Black</text>
            <text id="template-version" fill="#505050" text-anchor="end" x="785.0" y="575.0">Template v.3.0</text>
            <a href="https://github.com/swhitty/SwiftDraw">
                <text fill="#505050" text-anchor="end" x="785.0" y="590.0">https://github.com/swhitty/SwiftDraw</text>
            </a>
        </g>
    </g>
    <g id="Guides" stroke="rgb(39, 170, 225)" stroke-width="0.5">
        <path id="Capline-S" d="M18,76 l800,0" />
        <path id="H-reference" d="M85,145.755 L87.685,145.755 L113.369,79.287 L114.052,79.287 L114.052,76 L112.148,76 L85,145.755 Z M95.693,121.536 L130.996,121.536 L130.263,119.313 L96.474,119.313 L95.693,121.536 Z M139.15,145.755 L141.787,145.755 L114.638,76 L113.466,76 L113.466,79.287 L139.15,145.755 Z" stroke="none" />
        <path id="Baseline-S" d="M18,146 l800,0" />
        <path id="left-margin-Ultralight-S" d="M211,56 l0,110" />
        <path id="right-margin-Ultralight-S" d="M319,56 l0,110" />
        <path id="left-margin-Regular-S" d="M411,56 l0,110" />
        <path id="right-margin-Regular-S" d="M519,56 l0,110" />
        <path id="left-margin-Black-S" d="M611,56 l0,110" />
        <path id="right-margin-Black-S" d="M719,56 l0,110" />
        <path id="Capline-M" d="M18,276 l800,0" />
        <path id="Baseline-M" d="M18,346 l800,0" />
        <path id="Capline-L" d="M18,476 l800,0" />
        <path id="Baseline-L" d="M18,546 l800,0" />
    </g>
    <g id="Symbols">
        <g id="Ultralight-S">
            <path d="M296.721,129.418 C296.721,113.632 287.94,99.503 274.512,93.071 C269.639,90.736 264.329,89.512 258.86,89.512 C237.91,89.512 221,107.417 221,129.418 C221,131.114 222.374,132.488 224.07,132.488 C225.765,132.488 227.14,131.114 227.14,129.418 C227.14,110.731 241.382,95.651 258.86,95.651 C263.404,95.651 267.809,96.667 271.86,98.608 C283.144,104.013 290.581,115.981 290.581,129.418 C290.581,131.114 291.956,132.488 293.651,132.488 C295.346,132.488 296.721,131.114 296.721,129.418 Z" />
            <path d="M275.652,121.789 L292.024,132.022 C293.376,132.867 295.15,132.536 296.107,131.26 L308.386,114.888 C309.403,113.532 309.128,111.608 307.772,110.591 C306.416,109.573 304.491,109.848 303.474,111.205 L291.195,127.577 L295.278,126.815 L278.906,116.583 C277.468,115.684 275.574,116.121 274.676,117.559 C273.777,118.997 274.214,120.891 275.652,121.789 Z" />
        </g>
        <g id="Regular-S">
            <path d="M496.721,129.418 C496.721,113.632 487.94,99.503 474.512,93.071 C469.639,90.736 464.329,89.512 458.86,89.512 C437.91,89.512 421,107.417 421,129.418 C421,131.114 422.374,132.488 424.07,132.488 C425.765,132.488 427.14,131.114 427.14,129.418 C427.14,110.731 441.382,95.651 458.86,95.651 C463.404,95.651 467.809,96.667 471.86,98.608 C483.144,104.013 490.581,115.981 490.581,129.418 C490.581,131.114 491.956,132.488 493.651,132.488 C495.346,132.488 496.721,131.114 496.721,129.418 Z" />
            <path d="M475.652,121.789 L492.024,132.022 C493.376,132.867 495.15,132.536 496.107,131.26 L508.386,114.888 C509.403,113.532 509.128,111.608 507.772,110.591 C506.416,109.573 504.491,109.848 503.474,111.205 L491.195,127.577 L495.278,126.815 L478.906,116.583 C477.468,115.684 475.574,116.121 474.676,117.559 C473.777,118.997 474.214,120.891 475.652,121.789 Z" />
        </g>
        <g id="Black-S">
            <path d="M696.721,129.418 C696.721,113.632 687.94,99.503 674.512,93.071 C669.639,90.736 664.329,89.512 658.86,89.512 C637.91,89.512 621,107.417 621,129.418 C621,131.114 622.374,132.488 624.07,132.488 C625.765,132.488 627.14,131.114 627.14,129.418 C627.14,110.731 641.382,95.651 658.86,95.651 C663.404,95.651 667.809,96.667 671.86,98.608 C683.144,104.013 690.581,115.981 690.581,129.418 C690.581,131.114 691.956,132.488 693.651,132.488 C695.346,132.488 696.721,131.114 696.721,129.418 Z" />
            <path d="M675.652,121.789 L692.024,132.022 C693.376,132.867 695.15,132.536 696.107,131.26 L708.386,114.888 C709.403,113.532 709.128,111.608 707.772,110.591 C706.416,109.573 704.491,109.848 703.474,111.205 L691.195,127.577 L695.278,126.815 L678.906,116.583 C677.468,115.684 675.574,116.121 674.676,117.559 C673.777,118.997 674.214,120.891 675.652,121.789 Z" />
        </g>
    </g>
</svg>