<?xml version="1.0" encoding="UTF-8"?>
<svg height="600" width="800" xmlns="http://www.w3.org/2000/svg" xmlns:xlink="http://www.w3.org/1999/xlink">
    <g id="Notes" font-family="'LucidaGrande', 'Lucida Grande', sans-serif" font-size="13">
        <rect fill="white" height="600.0" width="800.0" x="0.0" y="0.0" />
        <g font-size="13">
            <text x="18.0" y="176.0">Small</text>
            <text x="18.0" y="376.0">Medium</text>
            <text x="18.0" y="576.0">Large</text>
        </g>
        <g font-size="9">
            <text x="250.0" y="30.0">Ultralight</text>
            <text x="450.0" y="30.0">Regular</text>
            <text x="650.0" y="30.0">Black</text>
            <text id="template-version" fill="#505050" text-anchor="end" x="785.0" y="575.0">Template v.3.0</text>
            <a href="https://github.com/swhitty/SwiftDraw">
                <text fill="#505050" text-anchor="end" x="785.0" y="590.0">https://github.com/swhitty/SwiftDraw</text>
            </a>
        </g>
    </g>
    <g id="Guides" stroke="rgb(39, 170, 225)" stroke-width="0.5">
        <path id="Capline-S" d="M18,76 l800,0" />
        <path id="H-reference" d="M85,145.755 L87.685,145.755 L113.369,79.287 L114.052,79.287 L114.052,76 L112.148,76 L85,145.755 Z M95.693,121.536 L130.996,121.536 L130.263,119.313 L96.474,119.313 L95.693,121.536 Z M139.15,145.755 L141.787,145.755 L114.638,76 L113.466,76 L113.466,79.287 L139.15,145.755 Z" stroke="none" />
        <path id="Baseline-S" d="M18,146 l800,0" />
        <path id="left-margin-Ultralight-S" d="M221,56 l0,110" />
        <path id="right-margin-Ultralight-S" d="M309,56 l0,110" />
        <path id="left-margin-Regular-S" d="M421,56 l0,110" />
        <path id="right-margin-Regular-S" d="M509,56 l0,110" />
        <path id="left-margin-Black-S" d="M621,56 l0,110" />
        <path id="right-margin-Black-S" d="M709,56 l0,110" />
        <path id="Capline-M" d="M18,276 l800,0" />
        <path id="Baseline-M" d="M18,346 l800,0" />
        <path id="Capline-L" d="M18,476 l800,0" />
        <path id="Baseline-L" d="M18,546 l800,0" />
    </g>
    <g id="Symbols">
        <g id="Ultralight-S">
            <path d="M281.279,141.116 L265,141.116 L248.721,141.116 C247.372,141.116 246.279,142.21 246.279,143.558 C246.279,144.907 247.372,146 248.721,146 L265,146 L281.279,146 C282.628,146 283.721,144.907 283.721,143.558 C283.721,142.21 282.628,141.116 281.279,141.116 Z" />
            <path d="M262.558,117.512 L262.558,143.558 C262.558,144.907 263.651,146 265,146 C266.349,146 267.442,144.907 267.442,143.558 L267.442,117.512 C267.442,116.163 266.349,115.07 265,115.07 C263.651,115.07 262.558,116.163 262.558,117.512 Z" />
            <path d="M282.093,97.977 C282.093,107.286 274.365,115.07 265,115.07 C255.56,115.07 247.907,107.417 247.907,97.977 C247.907,93.739 249.042,89.414 250.942,85.257 C251.612,83.79 252.331,82.452 253.046,81.275 C253.468,80.581 253.786,80.106 253.952,79.879 L251.977,80.884 L278.023,80.884 L276.048,79.879 C276.214,80.106 276.532,80.581 276.954,81.275 C277.669,82.452 278.388,83.79 279.058,85.257 C280.958,89.414 282.093,93.739 282.093,97.977 Z M286.977,97.977 C286.977,92.957 285.669,87.972 283.5,83.227 C282.746,81.578 281.938,80.073 281.127,78.739 C280.633,77.925 280.24,77.339 279.998,77.006 C279.538,76.374 278.804,76.001 278.023,76.001 L251.977,76.001 C251.196,76.001 250.462,76.374 250.002,77.006 C249.76,77.339 249.367,77.925 248.873,78.739 C248.062,80.073 247.254,81.578 246.5,83.227 C244.331,87.972 243.023,92.957 243.023,97.977 C243.023,110.114 252.863,119.954 265,119.954 C277.07,119.954 286.977,109.975 286.977,97.977 Z" />
            <path d="M262.683,77.67 L259.428,87.438 C258.978,88.787 259.772,90.234 261.152,90.579 L267.664,92.207 L265.939,89.066 L262.683,98.833 C262.257,100.112 262.948,101.495 264.228,101.922 C265.507,102.348 266.89,101.657 267.317,100.377 L270.572,90.61 C271.022,89.261 270.228,87.814 268.848,87.469 L262.336,85.841 L264.061,88.982 L267.317,79.215 C267.743,77.935 267.052,76.552 265.772,76.126 C264.493,75.7 263.11,76.391 262.683,77.67 Z" />
            <path d="M251.977,80.884 L278.023,80.884 C279.372,80.884 280.465,79.791 280.465,78.442 C280.465,77.094 279.372,76.001 278.023,76.001 L251.977,76.001 C250.628,76.001 249.535,77.094 249.535,78.442 C249.535,79.791 250.628,80.884 251.977,80.884 Z" />
        </g>
        <g id="Regular-S">
            <path d="M481.279,141.116 L465,141.116 L448.721,141.116 C447.372,141.116 446.279,142.21 446.279,143.558 C446.279,144.907 447.372,146 448.721,146 L465,146 L481.279,146 C482.628,146 483.721,144.907 483.721,143.558 C483.721,142.21 482.628,141.116 481.279,141.116 Z" />
            <path d="M462.558,117.512 L462.558,143.558 C462.558,144.907 463.651,146 465,146 C466.349,146 467.442,144.907 467.442,143.558 L467.442,117.512 C467.442,116.163 466.349,115.07 465,115.07 C463.651,115.07 462.558,116.163 462.558,117.512 Z" />
            <path d="M482.093,97.977 C482.093,107.286 474.365,115.07 465,115.07 C455.56,115.07 447.907,107.417 447.907,97.977 C447.907,93.739 449.042,89.414 450.942,85.257 C451.612,83.79 452.331,82.452 453.046,81.275 C453.468,80.581 453.786,80.106 453.952,79.879 L451.977,80.884 L478.023,80.884 L476.048,79.879 C476.214,80.106 476.532,80.581 476.954,81.275 C477.669,82.452 478.388,83.79 479.058,85.257 C480.958,89.414 482.093,93.739 482.093,97.977 Z M486.977,97.977 C486.977,92.957 485.669,87.972 483.5,83.227 C482.746,81.578 481.938,80.073 481.127,78.739 C480.633,77.925 480.24,77.339 479.998,77.006 C479.538,76.374 478.804,76.001 478.023,76.001 L451.977,76.001 C451.196,76.001 450.462,76.374 450.002,77.006 C449.76,77.339 449.367,77.925 448.873,78.739 C448.062,80.073 447.254,81.578 446.5,83.227 C444.331,87.972 443.023,92.957 443.023,97.977 C443.023,110.114 452.863,119.954 465,119.954 C477.07,119.954 486.977,109.975 486.977,97.977 Z" />
            <path d="M462.683,77.67 L459.428,87.438 C458.978,88.787 459.772,90.234 461.152,90.579 L467.664,92.207 L465.939,89.066 L462.683,98.833 C462.257,100.112 462.948,101.495 464.228,101.922 C465.507,102.348 466.89,101.657 467.317,100.377 L470.572,90.61 C471.022,89.261 470.228,87.814 468.848,87.469 L462.336,85.841 L464.061,88.982 L467.317,79.215 C467.743,77.935 467.052,76.552 465.772,76.126 C464.493,75.7 463.11,76.391 462.683,77.67 Z" />
            <path d="M451.977,80.884 L478.023,80.884 C479.372,80.884 480.465,79.791 480.465,78.442 C480.465,77.094 479.372,76.001 478.023,76.001 L451.977,76.001 C450.628,76.001 449.535,77.094 449.535,78.442 C449.535,79.791 450.628,80.884 451.977,80.884 Z" />
        </g>
        <g id="Black-S">
            <path d="M681.279,141.116 L665,141.116 L648.721,141.116 C647.372,141.116 646.279,142.21 646.279,143.558 C646.279,144.907 647.372,146 648.721,146 L665,146 L681.279,146 C682.628,146 683.721,144.907 683.721,143.558 C683.721,142.21 682.628,141.116 681.279,141.116 Z" />
            <path d="M662.558,117.512 L662.558,143.558 C662.558,144.907 663.651,146 665,146 C666.349,146 667.442,144.907 667.442,143.558 L667.442,117.512 C667.442,116.163 666.349,115.07 665,115.07 C663.651,115.07 662.558,116.163 662.558,117.512 Z" />
            <path d="M682.093,97.977 C682.093,107.286 674.365,115.07 665,115.07 C655.56,115.07 647.907,107.417 647.907,97.977 C647.907,93.739 649.042,89.414 650.942,85.257 C651.612,83.79 652.331,82.452 653.046,81.275 C653.468,80.581 653.786,80.106 653.952,79.879 L651.977,80.884 L678.023,80.884 L676.048,79.879 C676.214,80.106 676.532,80.581 676.954,81.275 C677.669,82.452 678.388,83.79 679.058,85.257 C680.958,89.414 682.093,93.739 682.093,97.977 Z M686.977,97.977 C686.977,92.957 685.669,87.972 683.5,83.227 C682.746,81.578 681.938,80.073 681.127,78.739 C680.633,77.925 680.24,77.339 679.998,77.006 C679.538,76.374 678.804,76.001 678.023,76.001 L651.977,76.001 C651.196,76.001 650.462,76.374 650.002,77.006 C649.76,77.339 649.367,77.925 648.873,78.739 C648.062,80.073 647.254,81.578 646.5,83.227 C644.331,87.972 643.023,92.957 643.023,97.977 C643.023,110.114 652.863,119.954 665,119.954 C677.07,119.954 686.977,109.975 686.977,97.977 Z" />
            <path d="M662.683,77.67 L659.428,87.438 C658.978,88.787 659.772,90.234 661.152,90.579 L667.664,92.207 L665.939,89.066 L662.683,98.833 C662.257,100.112 662.948,101.495 664.228,101.922 C665.507,102.348 666.89,101.657 667.317,100.377 L670.572,90.61 C671.022,89.261 670.228,87.814 668.848,87.469 L662.336,85.841 L664.061,88.982 L667.317,79.215 C667.743,77.935 667.052,76.552 665.772,76.126 C664.493,75.7 663.11,76.391 662.683,77.67 Z" />
            <path d="M651.977,80.884 L678.023,80.884 C679.372,80.884 680.465,79.791 680.465,78.442 C680.465,77.094 679.372,76.001 678.023,76.001 L651.977,76.001 C650.628,76.001 649.535,77.094 649.535,78.442 C649.535,79.791 650.628,80.884 651.977,80.884 Z" />
        </g>
    </g>
</svg>