<?xml version="1.0" encoding="UTF-8"?>
<svg height="600" width="800" xmlns="http://www.w3.org/2000/svg" xmlns:xlink="http://www.w3.org/1999/xlink">
    <g id="Notes" font-family="'LucidaGrande', 'Lucida Grande', sans-serif" font-size="13">
        <rect fill="white" height="600.0" width="800.0" x="0.0" y="0.0" />
        <g font-size="13">
            <text x="18.0" y="176.0">Small</text>
            <text x="18.0" y="376.0">Medium</text>
            <text x="18.0" y="576.0">Large</text>
        </g>
        <g font-size="9">
            <text x="250.0" y="30.0">Ultralight</text>
            <text x="450.0" y="30.0">Regular</text>
            <text x="650.0" y="30.0">Black</text>
            <text id="template-version" fill="#505050" text-anchor="end" x="785.0" y="575.0">Template v.3.0</text>
            <a href="https://github.com/swhitty/SwiftDraw">
                <text fill="#505050" text-anchor="end" x="785.0" y="590.0">https://github.com/swhitty/SwiftDraw</text>
            </a>
        </g>
    </g>
    <g id="Guides" stroke="rgb(39, 170, 225)" stroke-width="0.5">
        <path id="Capline-S" d="M18,76 l800,0" />
        <path id="H-reference" d="M85,145.755 L87.685,145.755 L113.369,79.287 L114.052,79.287 L114.052,76 L112.148,76 L85,145.755 Z M95.693,121.536 L130.996,121.536 L130.263,119.313 L96.474,119.313 L95.693,121.536 Z M139.15,145.755 L141.787,145.755 L114.638,76 L113.466,76 L113.466,79.287 L139.15,145.755 Z" stroke="none" />
        <path id="Baseline-S" d="M18,146 l800,0" />
        <path id="left-margin-Ultralight-S" d="M219.998,56 l0,110" />
        <path id="right-margin-Ultralight-S" d="M310.002,56 l0,110" />
        <path id="left-margin-Regular-S" d="M419.998,56 l0,110" />
        <path id="right-margin-Regular-S" d="M510.002,56 l0,110" />
        <path id="left-margin-Black-S" d="M619.998,56 l0,110" />
        <path id="right-margin-Black-S" d="M710.002,56 l0,110" />
        <path id="Capline-M" d="M18,276 l800,0" />
        <path id="Baseline-M" d="M18,346 l800,0" />
        <path id="Capline-L" d="M18,476 l800,0" />
        <path id="Baseline-L" d="M18,546 l800,0" />
    </g>
    <g id="Symbols">
        <g id="Ultralight-S">
            <path d="M297.558,76 L276.395,76 C275.388,76 274.484,76.619 274.119,77.558 L267.607,94.326 C267.059,95.737 267.914,97.301 269.398,97.603 C275.853,98.913 281.378,103.087 284.443,108.885 C285.428,110.748 288.151,110.573 288.889,108.599 L299.845,79.297 C300.442,77.701 299.262,76 297.558,76 Z M297.558,80.884 L295.271,77.587 L284.315,106.889 L288.761,106.603 C285.016,99.518 278.267,94.42 270.369,92.816 L272.16,96.093 L278.672,79.326 L276.395,80.884 L297.558,80.884 Z" />
            <path d="M253.605,76 L232.442,76 C230.738,76 229.558,77.701 230.155,79.297 L241.111,108.599 C241.849,110.573 244.572,110.748 245.557,108.885 C248.622,103.087 254.147,98.913 260.602,97.603 C262.086,97.301 262.941,95.737 262.393,94.326 L255.881,77.558 C255.516,76.619 254.612,76 253.605,76 Z M253.605,80.884 L251.328,79.326 L257.84,96.093 L259.631,92.816 C251.733,94.42 244.984,99.518 241.239,106.603 L245.685,106.889 L234.729,77.587 L232.442,80.884 L253.605,80.884 Z" />
            <path d="M286.977,119.14 C286.977,131.277 277.137,141.116 265,141.116 C252.863,141.116 243.023,131.277 243.023,119.14 C243.023,115.513 243.901,112.018 245.557,108.885 C248.622,103.087 254.147,98.913 260.602,97.603 C262.038,97.311 263.509,97.163 265,97.163 C266.491,97.163 267.962,97.311 269.398,97.603 C275.853,98.913 281.378,103.087 284.443,108.885 C286.099,112.018 286.977,115.513 286.977,119.14 Z M291.86,119.14 C291.86,114.713 290.786,110.435 288.761,106.603 C285.016,99.518 278.267,94.42 270.369,92.816 C268.614,92.46 266.818,92.279 265,92.279 C263.182,92.279 261.386,92.46 259.63,92.816 C251.733,94.42 244.984,99.518 241.239,106.603 C239.214,110.435 238.14,114.712 238.14,119.14 C238.14,133.974 250.165,146 265,146 C279.835,146 291.86,133.974 291.86,119.14 Z" />
            <path d="M267.442,128.907 L267.442,107.744 C267.442,106.077 265.809,104.901 264.228,105.428 L259.344,107.056 C258.065,107.482 257.373,108.865 257.8,110.144 C258.226,111.424 259.609,112.115 260.888,111.689 L265.772,110.061 L262.558,107.744 L262.558,128.907 C262.558,130.256 263.651,131.349 265,131.349 C266.349,131.349 267.442,130.256 267.442,128.907 Z M265,131.349 L271.512,131.349 C272.86,131.349 273.953,130.256 273.953,128.907 C273.953,127.558 272.86,126.465 271.512,126.465 L265,126.465 C263.651,126.465 262.558,127.558 262.558,128.907 C262.558,130.256 263.651,131.349 265,131.349 Z M265,126.465 L258.488,126.465 C257.14,126.465 256.047,127.558 256.047,128.907 C256.047,130.256 257.14,131.349 258.488,131.349 L265,131.349 C266.349,131.349 267.442,130.256 267.442,128.907 C267.442,127.558 266.349,126.465 265,126.465 Z" />
        </g>
        <g id="Regular-S">
            <path d="M497.558,76 L476.395,76 C475.388,76 474.484,76.619 474.119,77.558 L467.607,94.326 C467.059,95.737 467.914,97.301 469.398,97.603 C475.853,98.913 481.378,103.087 484.443,108.885 C485.428,110.748 488.151,110.573 488.889,108.599 L499.845,79.297 C500.442,77.701 499.262,76 497.558,76 Z M497.558,80.884 L495.271,77.587 L484.315,106.889 L488.761,106.603 C485.016,99.518 478.267,94.42 470.369,92.816 L472.16,96.093 L478.672,79.326 L476.395,80.884 L497.558,80.884 Z" />
            <path d="M453.605,76 L432.442,76 C430.738,76 429.558,77.701 430.155,79.297 L441.111,108.599 C441.849,110.573 444.572,110.748 445.557,108.885 C448.622,103.087 454.147,98.913 460.602,97.603 C462.086,97.301 462.941,95.737 462.393,94.326 L455.881,77.558 C455.516,76.619 454.612,76 453.605,76 Z M453.605,80.884 L451.328,79.326 L457.84,96.093 L459.631,92.816 C451.733,94.42 444.984,99.518 441.239,106.603 L445.685,106.889 L434.729,77.587 L432.442,80.884 L453.605,80.884 Z" />
            <path d="M486.977,119.14 C486.977,131.277 477.137,141.116 465,141.116 C452.863,141.116 443.023,131.277 443.023,119.14 C443.023,115.513 443.901,112.018 445.557,108.885 C448.622,103.087 454.147,98.913 460.602,97.603 C462.038,97.311 463.509,97.163 465,97.163 C466.491,97.163 467.962,97.311 469.398,97.603 C475.853,98.913 481.378,103.087 484.443,108.885 C486.099,112.018 486.977,115.513 486.977,119.14 Z M491.86,119.14 C491.86,114.713 490.786,110.435 488.761,106.603 C485.016,99.518 478.267,94.42 470.369,92.816 C468.614,92.46 466.818,92.279 465,92.279 C463.182,92.279 461.386,92.46 459.63,92.816 C451.733,94.42 444.984,99.518 441.239,106.603 C439.214,110.435 438.14,114.712 438.14,119.14 C438.14,133.974 450.165,146 465,146 C479.835,146 491.86,133.974 491.86,119.14 Z" />
            <path d="M467.442,128.907 L467.442,107.744 C467.442,106.077 465.809,104.901 464.228,105.428 L459.344,107.056 C458.065,107.482 457.373,108.865 457.8,110.144 C458.226,111.424 459.609,112.115 460.888,111.689 L465.772,110.061 L462.558,107.744 L462.558,128.907 C462.558,130.256 463.651,131.349 465,131.349 C466.349,131.349 467.442,130.256 467.442,128.907 Z M465,131.349 L471.512,131.349 C472.86,131.349 473.953,130.256 473.953,128.907 C473.953,127.558 472.86,126.465 471.512,126.465 L465,126.465 C463.651,126.465 462.558,127.558 462.558,128.907 C462.558,130.256 463.651,131.349 465,131.349 Z M465,126.465 L458.488,126.465 C457.14,126.465 456.047,127.558 456.047,128.907 C456.047,130.256 457.14,131.349 458.488,131.349 L465,131.349 C466.349,131.349 467.442,130.256 467.442,128.907 C467.442,127.558 466.349,126.465 465,126.465 Z" />
        </g>
        <g id="Black-S">
            <path d="M697.558,76 L676.395,76 C675.388,76 674.484,76.619 674.119,77.558 L667.607,94.326 C667.059,95.737 667.914,97.301 669.398,97.603 C675.853,98.913 681.378,103.087 684.443,108.885 C685.428,110.748 688.151,110.573 688.889,108.599 L699.845,79.297 C700.442,77.701 699.262,76 697.558,76 Z M697.558,80.884 L695.271,77.587 L684.315,106.889 L688.761,106.603 C685.016,99.518 678.267,94.42 670.37,92.816 L672.16,96.093 L678.672,79.326 L676.395,80.884 L697.558,80.884 Z" />
            <path d="M653.605,76 L632.442,76 C630.738,76 629.558,77.701 630.155,79.297 L641.111,108.599 C641.849,110.573 644.572,110.748 645.557,108.885 C648.622,103.087 654.147,98.913 660.602,97.603 C662.086,97.301 662.941,95.737 662.393,94.326 L655.881,77.558 C655.516,76.619 654.612,76 653.605,76 Z M653.605,80.884 L651.328,79.326 L657.84,96.093 L659.631,92.816 C651.733,94.42 644.984,99.518 641.239,106.603 L645.685,106.889 L634.729,77.587 L632.442,80.884 L653.605,80.884 Z" />
            <path d="M686.977,119.14 C686.977,131.277 677.137,141.116 665,141.116 C652.863,141.116 643.023,131.277 643.023,119.14 C643.023,115.513 643.901,112.018 645.557,108.885 C648.622,103.087 654.147,98.913 660.602,97.603 C662.038,97.311 663.509,97.163 665,97.163 C666.491,97.163 667.962,97.311 669.398,97.603 C675.853,98.913 681.378,103.087 684.443,108.885 C686.099,112.018 686.977,115.513 686.977,119.14 Z M691.86,119.14 C691.86,114.713 690.786,110.435 688.761,106.603 C685.016,99.518 678.267,94.42 670.37,92.816 C668.614,92.46 666.818,92.279 665,92.279 C663.182,92.279 661.386,92.46 659.63,92.816 C651.733,94.42 644.984,99.518 641.239,106.603 C639.214,110.435 638.14,114.712 638.14,119.14 C638.14,133.974 650.165,146 665,146 C679.835,146 691.86,133.974 691.86,119.14 Z" />
            <path d="M667.442,128.907 L667.442,107.744 C667.442,106.077 665.809,104.901 664.228,105.428 L659.344,107.056 C658.065,107.482 657.373,108.865 657.8,110.144 C658.226,111.424 659.609,112.115 660.888,111.689 L665.772,110.061 L662.558,107.744 L662.558,128.907 C662.558,130.256 663.651,131.349 665,131.349 C666.349,131.349 667.442,130.256 667.442,128.907 Z M665,131.349 L671.512,131.349 C672.86,131.349 673.953,130.256 673.953,128.907 C673.953,127.558 672.86,126.465 671.512,126.465 L665,126.465 C663.651,126.465 662.558,127.558 662.558,128.907 C662.558,130.256 663.651,131.349 665,131.349 Z M665,126.465 L658.488,126.465 C657.14,126.465 656.047,127.558 656.047,128.907 C656.047,130.256 657.14,131.349 658.488,131.349 L665,131.349 C666.349,131.349 667.442,130.256 667.442,128.907 C667.442,127.558 666.349,126.465 665,126.465 Z" />
        </g>
    </g>
</svg>