<?xml version="1.0" encoding="UTF-8"?>
<svg height="600" width="800" xmlns="http://www.w3.org/2000/svg" xmlns:xlink="http://www.w3.org/1999/xlink">
    <g id="Notes" font-family="'LucidaGrande', 'Lucida Grande', sans-serif" font-size="13">
        <rect fill="white" height="600.0" width="800.0" x="0.0" y="0.0" />
        <g font-size="13">
            <text x="18.0" y="176.0">Small</text>
            <text x="18.0" y="376.0">Medium</text>
            <text x="18.0" y="576.0">Large</text>
        </g>
        <g font-size="9">
            <text x="250.0" y="30.0">Ultralight</text>
            <text x="450.0" y="30.0">Regular</text>
            <text x="650.0" y="30.0">Black</text>
            <text id="template-version" fill="#505050" text-anchor="end" x="785.0" y="575.0">Template v.3.0</text>
            <a href="https://github.com/swhitty/SwiftDraw">
                <text fill="#505050" text-anchor="end" x="785.0" y="590.0">https://github.com/swhitty/SwiftDraw</text>
            </a>
        </g>
    </g>
    <g id="Guides" stroke="rgb(39, 170, 225)" stroke-width="0.5">
        <path id="Capline-S" d="M18,76 l800,0" />
        <path id="H-reference" d="M85,145.755 L87.685,145.755 L113.369,79.287 L114.052,79.287 L114.052,76 L112.148,76 L85,145.755 Z M95.693,121.536 L130.996,121.536 L130.263,119.313 L96.474,119.313 L95.693,121.536 Z M139.15,145.755 L141.787,145.755 L114.638,76 L113.466,76 L113.466,79.287 L139.15,145.755 Z" stroke="none" />
        <path id="Baseline-S" d="M18,146 l800,0" />
        <path id="left-margin-Ultralight-S" d="M219.568,56 l0,110" />
        <path id="right-margin-Ultralight-S" d="M310.432,56 l0,110" />
        <path id="left-margin-Regular-S" d="M419.568,56 l0,110" />
        <path id="right-margin-Regular-S" d="M510.432,56 l0,110" />
        <path id="left-margin-Black-S" d="M619.568,56 l0,110" />
        <path id="right-margin-Black-S" d="M710.432,56 l0,110" />
        <path id="Capline-M" d="M18,276 l800,0" />
        <path id="Baseline-M" d="M18,346 l800,0" />
        <path id="Capline-L" d="M18,476 l800,0" />
        <path id="Baseline-L" d="M18,546 l800,0" />
    </g>
    <g id="Symbols">
        <g id="Ultralight-S">
            <path d="M295.247,107.975 L295.247,106.247 C295.247,89.542 281.705,76 265,76 C248.295,76 234.753,89.542 234.753,106.247 L234.753,107.975 C234.753,109.407 235.914,110.568 237.346,110.568 C238.778,110.568 239.938,109.407 239.938,107.975 L239.938,106.247 C239.938,92.406 251.159,81.185 265,81.185 C278.841,81.185 290.062,92.406 290.062,106.247 L290.062,107.975 C290.062,109.407 291.222,110.568 292.654,110.568 C294.086,110.568 295.247,109.407 295.247,107.975 Z" />
            <path d="M234.939,127.753 C234.789,128.126 234.591,128.721 234.398,129.492 C233.868,131.615 233.698,133.823 234.128,135.976 C234.745,139.062 236.549,141.587 239.643,143.134 C247.286,146.955 282.714,146.955 290.357,143.134 C293.451,141.587 295.255,139.062 295.872,135.976 C296.302,133.823 296.132,131.615 295.602,129.492 C295.409,128.721 295.211,128.126 295.061,127.753 C294.53,126.424 293.021,125.777 291.691,126.309 C290.362,126.841 289.715,128.349 290.247,129.679 C290.314,129.846 290.44,130.223 290.571,130.749 C290.932,132.191 291.045,133.669 290.787,134.959 C290.473,136.532 289.643,137.694 288.038,138.496 C281.854,141.588 248.146,141.588 241.962,138.496 C240.357,137.694 239.527,136.532 239.213,134.959 C238.955,133.669 239.068,132.191 239.429,130.749 C239.56,130.223 239.686,129.846 239.753,129.679 C240.285,128.349 239.638,126.841 238.309,126.309 C236.979,125.777 235.47,126.424 234.939,127.753 Z" />
            <path d="M295.247,118.346 C295.247,120.867 294.245,123.285 292.463,125.068 C290.68,126.85 288.262,127.852 285.741,127.852 L244.259,127.852 C241.738,127.852 239.32,126.85 237.537,125.068 C235.755,123.285 234.753,120.867 234.753,118.346 C234.753,115.824 235.755,113.407 237.537,111.624 C239.32,109.841 241.738,108.84 244.259,108.84 L285.741,108.84 C288.262,108.84 290.68,109.841 292.463,111.624 C294.245,113.407 295.247,115.824 295.247,118.346 Z M300.432,118.346 C300.432,114.449 298.884,110.712 296.129,107.957 C293.374,105.202 289.637,103.654 285.741,103.654 L244.259,103.654 C240.363,103.654 236.626,105.202 233.871,107.957 C231.116,110.712 229.568,114.449 229.568,118.346 C229.568,122.242 231.116,125.979 233.871,128.734 C236.626,131.489 240.363,133.037 244.259,133.037 L285.741,133.037 C289.637,133.037 293.374,131.489 296.129,128.734 C298.884,125.979 300.432,122.242 300.432,118.346 Z" />
            <path d="M243.69,122.393 L246.441,121.018 C248.427,120.025 250.742,119.928 252.803,120.753 L253.536,121.046 C256.505,122.234 259.842,122.095 262.703,120.665 C264.239,119.896 266.031,119.822 267.625,120.46 L269.284,121.123 C272.131,122.262 275.329,122.129 278.073,120.757 C279.636,119.976 281.475,119.976 283.038,120.757 L286.31,122.393 C287.59,123.033 289.148,122.514 289.788,121.233 C290.428,119.953 289.909,118.395 288.629,117.755 L285.357,116.12 C282.334,114.608 278.777,114.608 275.754,116.12 C274.335,116.829 272.681,116.898 271.209,116.309 L269.551,115.645 C266.581,114.457 263.245,114.596 260.384,116.027 C258.847,116.795 257.056,116.87 255.461,116.232 L254.728,115.938 C251.292,114.564 247.432,114.725 244.122,116.38 L241.371,117.755 C240.091,118.395 239.572,119.953 240.212,121.233 C240.852,122.514 242.41,123.033 243.69,122.393 Z" />
            <path d="M248.58,95.963 C248.58,93.576 250.515,91.642 252.901,91.642 C255.288,91.642 257.222,93.576 257.222,95.963 C257.222,98.349 255.288,100.284 252.901,100.284 C250.515,100.284 248.58,98.349 248.58,95.963 Z" />
            <path d="M260.247,91.21 C260.247,88.823 262.181,86.889 264.568,86.889 C266.954,86.889 268.889,88.823 268.889,91.21 C268.889,93.596 266.954,95.531 264.568,95.531 C262.181,95.531 260.247,93.596 260.247,91.21 Z" />
        </g>
        <g id="Regular-S">
            <path d="M495.247,107.975 L495.247,106.247 C495.247,89.542 481.705,76 465,76 C448.295,76 434.753,89.542 434.753,106.247 L434.753,107.975 C434.753,109.407 435.914,110.568 437.346,110.568 C438.778,110.568 439.938,109.407 439.938,107.975 L439.938,106.247 C439.938,92.406 451.159,81.185 465,81.185 C478.841,81.185 490.062,92.406 490.062,106.247 L490.062,107.975 C490.062,109.407 491.222,110.568 492.654,110.568 C494.086,110.568 495.247,109.407 495.247,107.975 Z" />
            <path d="M434.939,127.753 C434.789,128.126 434.591,128.721 434.398,129.492 C433.868,131.615 433.698,133.823 434.128,135.976 C434.745,139.062 436.549,141.587 439.643,143.134 C447.286,146.955 482.714,146.955 490.357,143.134 C493.451,141.587 495.255,139.062 495.872,135.976 C496.302,133.823 496.132,131.615 495.602,129.492 C495.409,128.721 495.211,128.126 495.061,127.753 C494.53,126.424 493.021,125.777 491.691,126.309 C490.362,126.841 489.715,128.349 490.247,129.679 C490.314,129.846 490.44,130.223 490.571,130.749 C490.932,132.191 491.045,133.669 490.787,134.959 C490.473,136.532 489.643,137.694 488.038,138.496 C481.854,141.588 448.146,141.588 441.962,138.496 C440.357,137.694 439.527,136.532 439.213,134.959 C438.955,133.669 439.068,132.191 439.429,130.749 C439.56,130.223 439.686,129.846 439.753,129.679 C440.285,128.349 439.638,126.841 438.309,126.309 C436.979,125.777 435.47,126.424 434.939,127.753 Z" />
            <path d="M495.247,118.346 C495.247,120.867 494.245,123.285 492.463,125.068 C490.68,126.85 488.262,127.852 485.741,127.852 L444.259,127.852 C441.738,127.852 439.32,126.85 437.537,125.068 C435.755,123.285 434.753,120.867 434.753,118.346 C434.753,115.824 435.755,113.407 437.537,111.624 C439.32,109.841 441.738,108.84 444.259,108.84 L485.741,108.84 C488.262,108.84 490.68,109.841 492.463,111.624 C494.245,113.407 495.247,115.824 495.247,118.346 Z M500.432,118.346 C500.432,114.449 498.884,110.712 496.129,107.957 C493.374,105.202 489.637,103.654 485.741,103.654 L444.259,103.654 C440.363,103.654 436.626,105.202 433.871,107.957 C431.116,110.712 429.568,114.449 429.568,118.346 C429.568,122.242 431.116,125.979 433.871,128.734 C436.626,131.489 440.363,133.037 444.259,133.037 L485.741,133.037 C489.637,133.037 493.374,131.489 496.129,128.734 C498.884,125.979 500.432,122.242 500.432,118.346 Z" />
            <path d="M443.69,122.393 L446.441,121.018 C448.427,120.025 450.742,119.928 452.803,120.753 L453.536,121.046 C456.505,122.234 459.842,122.095 462.703,120.665 C464.239,119.896 466.031,119.822 467.625,120.46 L469.284,121.123 C472.131,122.262 475.329,122.129 478.073,120.757 C479.636,119.976 481.475,119.976 483.038,120.757 L486.31,122.393 C487.59,123.033 489.148,122.514 489.788,121.233 C490.428,119.953 489.909,118.395 488.629,117.755 L485.357,116.12 C482.334,114.608 478.777,114.608 475.754,116.12 C474.335,116.829 472.681,116.898 471.209,116.309 L469.551,115.645 C466.581,114.457 463.245,114.596 460.384,116.027 C458.847,116.795 457.056,116.87 455.461,116.232 L454.728,115.938 C451.292,114.564 447.432,114.725 444.122,116.38 L441.371,117.755 C440.091,118.395 439.572,119.953 440.212,121.233 C440.852,122.514 442.41,123.033 443.69,122.393 Z" />
            <path d="M448.58,95.963 C448.58,93.576 450.515,91.642 452.901,91.642 C455.288,91.642 457.222,93.576 457.222,95.963 C457.222,98.349 455.288,100.284 452.901,100.284 C450.515,100.284 448.58,98.349 448.58,95.963 Z" />
            <path d="M460.247,91.21 C460.247,88.823 462.181,86.889 464.568,86.889 C466.954,86.889 468.889,88.823 468.889,91.21 C468.889,93.596 466.954,95.531 464.568,95.531 C462.181,95.531 460.247,93.596 460.247,91.21 Z" />
        </g>
        <g id="Black-S">
            <path d="M695.247,107.975 L695.247,106.247 C695.247,89.542 681.705,76 665,76 C648.295,76 634.753,89.542 634.753,106.247 L634.753,107.975 C634.753,109.407 635.914,110.568 637.346,110.568 C638.778,110.568 639.938,109.407 639.938,107.975 L639.938,106.247 C639.938,92.406 651.159,81.185 665,81.185 C678.841,81.185 690.062,92.406 690.062,106.247 L690.062,107.975 C690.062,109.407 691.222,110.568 692.654,110.568 C694.086,110.568 695.247,109.407 695.247,107.975 Z" />
            <path d="M634.938,127.753 C634.789,128.126 634.591,128.721 634.398,129.492 C633.868,131.615 633.698,133.823 634.128,135.976 C634.745,139.062 636.549,141.587 639.643,143.134 C647.286,146.955 682.714,146.955 690.357,143.134 C693.451,141.587 695.255,139.062 695.872,135.976 C696.302,133.823 696.132,131.615 695.602,129.492 C695.409,128.721 695.211,128.126 695.061,127.753 C694.53,126.424 693.021,125.777 691.691,126.309 C690.362,126.841 689.715,128.349 690.247,129.679 C690.314,129.846 690.44,130.223 690.571,130.749 C690.932,132.191 691.045,133.669 690.787,134.959 C690.473,136.532 689.643,137.694 688.038,138.496 C681.854,141.588 648.146,141.588 641.962,138.496 C640.357,137.694 639.527,136.532 639.213,134.959 C638.955,133.669 639.068,132.191 639.429,130.749 C639.56,130.223 639.686,129.846 639.753,129.679 C640.285,128.349 639.638,126.841 638.309,126.309 C636.979,125.777 635.47,126.424 634.938,127.753 Z" />
            <path d="M695.247,118.346 C695.247,120.867 694.245,123.285 692.463,125.068 C690.68,126.85 688.262,127.852 685.741,127.852 L644.259,127.852 C641.738,127.852 639.32,126.85 637.537,125.068 C635.755,123.285 634.753,120.867 634.753,118.346 C634.753,115.824 635.755,113.407 637.537,111.624 C639.32,109.841 641.738,108.84 644.259,108.84 L685.741,108.84 C688.262,108.84 690.68,109.841 692.463,111.624 C694.245,113.407 695.247,115.824 695.247,118.346 Z M700.432,118.346 C700.432,114.449 698.884,110.712 696.129,107.957 C693.374,105.202 689.637,103.654 685.741,103.654 L644.259,103.654 C640.363,103.654 636.626,105.202 633.871,107.957 C631.116,110.712 629.568,114.449 629.568,118.346 C629.568,122.242 631.116,125.979 633.871,128.734 C636.626,131.489 640.363,133.037 644.259,133.037 L685.741,133.037 C689.637,133.037 693.374,131.489 696.129,128.734 C698.884,125.979 700.432,122.242 700.432,118.346 Z" />
            <path d="M643.69,122.393 L646.441,121.018 C648.427,120.025 650.742,119.928 652.802,120.753 L653.536,121.046 C656.505,122.234 659.842,122.095 662.703,120.665 C664.239,119.896 666.031,119.822 667.625,120.46 L669.284,121.123 C672.131,122.262 675.329,122.129 678.073,120.757 C679.636,119.976 681.475,119.976 683.038,120.757 L686.31,122.393 C687.59,123.033 689.148,122.514 689.788,121.233 C690.428,119.953 689.909,118.395 688.628,117.755 L685.357,116.12 C682.334,114.608 678.777,114.608 675.754,116.12 C674.335,116.829 672.681,116.898 671.209,116.309 L669.551,115.645 C666.581,114.457 663.245,114.596 660.384,116.027 C658.847,116.795 657.056,116.87 655.461,116.232 L654.728,115.938 C651.292,114.564 647.432,114.725 644.122,116.38 L641.371,117.755 C640.091,118.395 639.572,119.953 640.212,121.233 C640.852,122.514 642.41,123.033 643.69,122.393 Z" />
            <path d="M648.58,95.963 C648.58,93.576 650.515,91.642 652.901,91.642 C655.288,91.642 657.222,93.576 657.222,95.963 C657.222,98.349 655.288,100.284 652.901,100.284 C650.515,100.284 648.58,98.349 648.58,95.963 Z" />
            <path d="M660.247,91.21 C660.247,88.823 662.181,86.889 664.568,86.889 C666.954,86.889 668.889,88.823 668.889,91.21 C668.889,93.596 666.954,95.531 664.568,95.531 C662.181,95.531 660.247,93.596 660.247,91.21 Z" />
        </g>
    </g>
</svg>