<?xml version="1.0" encoding="UTF-8"?>
<svg height="600" width="800" xmlns="http://www.w3.org/2000/svg" xmlns:xlink="http://www.w3.org/1999/xlink">
    <g id="Notes" font-family="'LucidaGrande', 'Lucida Grande', sans-serif" font-size="13">
        <rect fill="white" height="600.0" width="800.0" x="0.0" y="0.0" />
        <g font-size="13">
            <text x="18.0" y="176.0">Small</text>
            <text x="18.0" y="376.0">Medium</text>
            <text x="18.0" y="576.0">Large</text>
        </g>
        <g font-size="9">
            <text x="250.0" y="30.0">Ultralight</text>
            <text x="450.0" y="30.0">Regular</text>
            <text x="650.0" y="30.0">Black</text>
            <text id="template-version" fill="#505050" text-anchor="end" x="785.0" y="575.0">Template v.3.0</text>
            <a href="https://github.com/swhitty/SwiftDraw">
                <text fill="#505050" text-anchor="end" x="785.0" y="590.0">https://github.com/swhitty/SwiftDraw</text>
            </a>
        </g>
    </g>
    <g id="Guides" stroke="rgb(39, 170, 225)" stroke-width="0.5">
        <path id="Capline-S" d="M18,76 l800,0" />
        <path id="H-reference" d="M85,145.755 L87.685,145.755 L113.369,79.287 L114.052,79.287 L114.052,76 L112.148,76 L85,145.755 Z M95.693,121.536 L130.996,121.536 L130.263,119.313 L96.474,119.313 L95.693,121.536 Z M139.15,145.755 L141.787,145.755 L114.638,76 L113.466,76 L113.466,79.287 L139.15,145.755 Z" stroke="none" />
        <path id="Baseline-S" d="M18,146 l800,0" />
        <path id="left-margin-Ultralight-S" d="M221,56 l0,110" />
        <path id="right-margin-Ultralight-S" d="M309,56 l0,110" />
        <path id="left-margin-Regular-S" d="M421,56 l0,110" />
        <path id="right-margin-Regular-S" d="M509,56 l0,110" />
        <path id="left-margin-Black-S" d="M621,56 l0,110" />
        <path id="right-margin-Black-S" d="M709,56 l0,110" />
        <path id="Capline-M" d="M18,276 l800,0" />
        <path id="Baseline-M" d="M18,346 l800,0" />
        <path id="Capline-L" d="M18,476 l800,0" />
        <path id="Baseline-L" d="M18,546 l800,0" />
    </g>
    <g id="Symbols">
        <g id="Ultralight-S">
            <path d="M292.656,131.349 L256.842,131.349 C255.494,131.349 254.401,132.442 254.401,133.791 L254.401,143.558 C254.401,144.907 255.494,146 256.842,146 L292.656,146 C294.005,146 295.098,144.907 295.098,143.558 L295.098,133.791 C295.098,132.442 294.005,131.349 292.656,131.349 Z M292.656,136.233 L290.215,133.791 L290.215,143.558 L292.656,141.116 L256.842,141.116 L259.284,143.558 L259.284,133.791 L256.842,136.233 L292.656,136.233 Z" />
            <path d="M258.644,132.142 C248.06,120.577 241.972,113.859 240.436,112.05 C239.284,110.695 239.599,110.18 243.092,110.18 C244.697,110.18 246.162,111.153 248.763,113.763 C248.911,113.912 249.071,114.074 249.383,114.389 C249.641,114.649 249.83,114.838 250.017,115.023 C250.514,115.514 250.933,115.911 251.345,116.273 C253.201,117.902 254.882,118.784 256.843,118.784 L256.843,116.342 L256.347,118.733 L257.311,118.738 L258.572,118.065 C259.069,117.355 259.069,117.355 259.162,117.105 C259.238,116.831 259.238,116.831 259.255,116.721 C259.274,116.578 259.274,116.578 259.279,116.52 C259.284,116.441 259.284,116.441 259.285,116.4 C259.288,116.328 259.288,116.328 259.289,116.256 C259.291,116.089 259.291,116.089 259.293,115.846 C259.296,115.498 259.298,114.979 259.3,114.288 C259.303,112.911 259.305,110.847 259.306,108.094 C259.307,102.591 259.301,94.337 259.29,83.33 C259.288,81.98 260.381,80.885 261.731,80.884 L261.733,80.884 C263.086,80.884 264.182,81.98 264.182,83.332 L264.182,96.371 C264.182,97.578 265.064,98.604 266.258,98.785 C279.183,100.745 286.263,101.834 287.361,102.031 C288.925,102.312 290.215,103.634 290.215,106.227 C290.215,113.392 290.215,113.392 290.215,133.791 L292.657,131.349 L256.843,131.349 L258.644,132.142 Z M255.041,135.439 C255.504,135.945 256.157,136.233 256.843,136.233 L292.657,136.233 C294.005,136.233 295.098,135.139 295.098,133.791 C295.098,113.392 295.098,113.392 295.098,106.227 C295.098,101.097 291.976,97.898 288.224,97.225 C287.056,97.015 280.036,95.935 266.99,93.957 L269.066,96.371 L269.066,83.332 C269.066,79.283 265.783,76 261.733,76 L261.728,76 C257.679,76.004 254.402,79.288 254.406,83.335 C254.418,94.34 254.423,102.593 254.422,108.093 C254.422,110.842 254.42,112.903 254.416,114.276 C254.414,114.959 254.412,115.471 254.41,115.81 C254.408,116.039 254.408,116.039 254.406,116.172 C254.405,116.217 254.405,116.217 254.405,116.22 C254.405,116.208 254.405,116.208 254.409,116.148 C254.413,116.097 254.413,116.097 254.431,115.959 C254.448,115.851 254.448,115.851 254.524,115.577 C254.617,115.329 254.617,115.329 254.704,115.163 L255.113,114.618 L256.374,113.945 C257.175,113.917 257.009,113.9 256.843,113.9 C256.334,113.9 255.615,113.523 254.567,112.603 C254.239,112.314 253.885,111.98 253.452,111.551 C253.278,111.379 253.099,111.2 252.851,110.95 C252.542,110.638 252.376,110.47 252.223,110.316 C248.737,106.817 246.446,105.296 243.092,105.296 C235.746,105.296 232.629,110.403 236.713,115.212 C238.309,117.09 244.39,123.801 255.041,135.439 Z" />
        </g>
        <g id="Regular-S">
            <path d="M492.656,131.349 L456.842,131.349 C455.494,131.349 454.401,132.442 454.401,133.791 L454.401,143.558 C454.401,144.907 455.494,146 456.842,146 L492.656,146 C494.005,146 495.098,144.907 495.098,143.558 L495.098,133.791 C495.098,132.442 494.005,131.349 492.656,131.349 Z M492.656,136.233 L490.215,133.791 L490.215,143.558 L492.656,141.116 L456.842,141.116 L459.284,143.558 L459.284,133.791 L456.842,136.233 L492.656,136.233 Z" />
            <path d="M458.644,132.142 C448.06,120.577 441.972,113.859 440.436,112.05 C439.284,110.695 439.599,110.18 443.092,110.18 C444.697,110.18 446.162,111.153 448.763,113.763 C448.911,113.912 449.071,114.074 449.383,114.389 C449.641,114.649 449.83,114.838 450.017,115.023 C450.514,115.514 450.933,115.911 451.345,116.273 C453.201,117.902 454.882,118.784 456.843,118.784 L456.843,116.342 L456.347,118.733 L457.311,118.738 L458.572,118.065 C459.069,117.355 459.069,117.355 459.162,117.105 C459.238,116.831 459.238,116.831 459.255,116.721 C459.274,116.578 459.274,116.578 459.279,116.52 C459.284,116.441 459.284,116.441 459.285,116.4 C459.288,116.328 459.288,116.328 459.289,116.256 C459.291,116.089 459.291,116.089 459.293,115.846 C459.296,115.498 459.298,114.979 459.3,114.288 C459.303,112.911 459.305,110.847 459.306,108.094 C459.307,102.591 459.301,94.337 459.29,83.33 C459.288,81.98 460.381,80.885 461.731,80.884 L461.733,80.884 C463.086,80.884 464.182,81.98 464.182,83.332 L464.182,96.371 C464.182,97.578 465.064,98.604 466.258,98.785 C479.183,100.745 486.263,101.834 487.361,102.031 C488.925,102.312 490.215,103.634 490.215,106.227 C490.215,113.392 490.215,113.392 490.215,133.791 L492.657,131.349 L456.843,131.349 L458.644,132.142 Z M455.041,135.439 C455.504,135.945 456.157,136.233 456.843,136.233 L492.657,136.233 C494.005,136.233 495.098,135.139 495.098,133.791 C495.098,113.392 495.098,113.392 495.098,106.227 C495.098,101.097 491.976,97.898 488.224,97.225 C487.056,97.015 480.036,95.935 466.99,93.957 L469.066,96.371 L469.066,83.332 C469.066,79.283 465.783,76 461.733,76 L461.728,76 C457.679,76.004 454.402,79.288 454.406,83.335 C454.418,94.34 454.423,102.593 454.422,108.093 C454.422,110.842 454.42,112.903 454.416,114.276 C454.414,114.959 454.412,115.471 454.41,115.81 C454.408,116.039 454.408,116.039 454.406,116.172 C454.405,116.217 454.405,116.217 454.405,116.22 C454.405,116.208 454.405,116.208 454.409,116.148 C454.413,116.097 454.413,116.097 454.431,115.959 C454.448,115.851 454.448,115.851 454.524,115.577 C454.617,115.329 454.617,115.329 454.704,115.163 L455.113,114.618 L456.374,113.945 C457.175,113.917 457.009,113.9 456.843,113.9 C456.334,113.9 455.615,113.523 454.567,112.603 C454.239,112.314 453.885,111.98 453.452,111.551 C453.278,111.379 453.099,111.2 452.851,110.95 C452.542,110.638 452.376,110.47 452.223,110.316 C448.737,106.817 446.446,105.296 443.092,105.296 C435.746,105.296 432.629,110.403 436.713,115.212 C438.309,117.09 444.39,123.801 455.041,135.439 Z" />
        </g>
        <g id="Black-S">
            <path d="M692.656,131.349 L656.842,131.349 C655.494,131.349 654.401,132.442 654.401,133.791 L654.401,143.558 C654.401,144.907 655.494,146 656.842,146 L692.656,146 C694.005,146 695.098,144.907 695.098,143.558 L695.098,133.791 C695.098,132.442 694.005,131.349 692.656,131.349 Z M692.656,136.233 L690.215,133.791 L690.215,143.558 L692.656,141.116 L656.842,141.116 L659.284,143.558 L659.284,133.791 L656.842,136.233 L692.656,136.233 Z" />
            <path d="M658.644,132.142 C648.06,120.577 641.972,113.859 640.436,112.05 C639.284,110.695 639.599,110.18 643.092,110.18 C644.697,110.18 646.162,111.153 648.763,113.763 C648.911,113.912 649.071,114.074 649.383,114.389 C649.641,114.649 649.83,114.838 650.017,115.023 C650.514,115.514 650.933,115.911 651.345,116.273 C653.201,117.902 654.882,118.784 656.843,118.784 L656.843,116.342 L656.347,118.733 L657.311,118.738 L658.572,118.065 C659.069,117.355 659.069,117.355 659.162,117.105 C659.238,116.831 659.238,116.831 659.255,116.721 C659.274,116.578 659.274,116.578 659.279,116.52 C659.284,116.441 659.284,116.441 659.285,116.4 C659.287,116.328 659.287,116.328 659.289,116.256 C659.291,116.089 659.291,116.089 659.293,115.846 C659.296,115.498 659.298,114.979 659.3,114.288 C659.303,112.911 659.305,110.847 659.306,108.094 C659.307,102.591 659.301,94.337 659.29,83.33 C659.288,81.98 660.381,80.885 661.731,80.884 L661.733,80.884 C663.086,80.884 664.182,81.98 664.182,83.332 L664.182,96.371 C664.182,97.578 665.064,98.604 666.258,98.785 C679.183,100.745 686.263,101.834 687.361,102.031 C688.925,102.312 690.215,103.634 690.215,106.227 C690.215,113.392 690.215,113.392 690.215,133.791 L692.657,131.349 L656.843,131.349 L658.644,132.142 Z M655.041,135.439 C655.504,135.945 656.157,136.233 656.843,136.233 L692.657,136.233 C694.005,136.233 695.098,135.139 695.098,133.791 C695.098,113.392 695.098,113.392 695.098,106.227 C695.098,101.097 691.976,97.898 688.224,97.225 C687.056,97.015 680.036,95.935 666.99,93.957 L669.066,96.371 L669.066,83.332 C669.066,79.283 665.783,76 661.733,76 L661.728,76 C657.679,76.004 654.402,79.288 654.406,83.335 C654.418,94.34 654.423,102.593 654.422,108.093 C654.422,110.842 654.42,112.903 654.416,114.276 C654.414,114.959 654.412,115.471 654.41,115.81 C654.408,116.039 654.408,116.039 654.406,116.172 C654.405,116.217 654.405,116.217 654.405,116.22 C654.405,116.208 654.405,116.208 654.409,116.148 C654.413,116.097 654.413,116.097 654.431,115.959 C654.448,115.851 654.448,115.851 654.524,115.577 C654.617,115.329 654.617,115.329 654.704,115.163 L655.113,114.618 L656.374,113.945 C657.175,113.917 657.009,113.9 656.843,113.9 C656.334,113.9 655.615,113.523 654.567,112.603 C654.239,112.314 653.885,111.98 653.452,111.551 C653.278,111.379 653.099,111.2 652.851,110.95 C652.542,110.638 652.376,110.47 652.223,110.316 C648.737,106.817 646.446,105.296 643.092,105.296 C635.746,105.296 632.629,110.403 636.713,115.212 C638.309,117.09 644.39,123.801 655.041,135.439 Z" />
        </g>
    </g>
</svg>