<?xml version="1.0" encoding="UTF-8"?>
<svg height="600" width="800" xmlns="http://www.w3.org/2000/svg" xmlns:xlink="http://www.w3.org/1999/xlink">
    <g id="Notes" font-family="'LucidaGrande', 'Lucida Grande', sans-serif" font-size="13">
        <rect fill="white" height="600.0" width="800.0" x="0.0" y="0.0" />
        <g font-size="13">
            <text x="18.0" y="176.0">Small</text>
            <text x="18.0" y="376.0">Medium</text>
            <text x="18.0" y="576.0">Large</text>
        </g>
        <g font-size="9">
            <text x="250.0" y="30.0">Ultralight</text>
            <text x="450.0" y="30.0">Regular</text>
            <text x="650.0" y="30.0">Black</text>
            <text id="template-version" fill="#505050" text-anchor="end" x="785.0" y="575.0">Template v.3.0</text>
            <a href="https://github.com/swhitty/SwiftDraw">
                <text fill="#505050" text-anchor="end" x="785.0" y="590.0">https://github.com/swhitty/SwiftDraw</text>
            </a>
        </g>
    </g>
    <g id="Guides" stroke="rgb(39, 170, 225)" stroke-width="0.5">
        <path id="Capline-S" d="M18,76 l800,0" />
        <path id="H-reference" d="M85,145.755 L87.685,145.755 L113.369,79.287 L114.052,79.287 L114.052,76 L112.148,76 L85,145.755 Z M95.693,121.536 L130.996,121.536 L130.263,119.313 L96.474,119.313 L95.693,121.536 Z M139.15,145.755 L141.787,145.755 L114.638,76 L113.466,76 L113.466,79.287 L139.15,145.755 Z" stroke="none" />
        <path id="Baseline-S" d="M18,146 l800,0" />
        <path id="left-margin-Ultralight-S" d="M216.745,56 l0,110" />
        <path id="right-margin-Ultralight-S" d="M313.255,56 l0,110" />
        <path id="left-margin-Regular-S" d="M416.745,56 l0,110" />
        <path id="right-margin-Regular-S" d="M513.255,56 l0,110" />
        <path id="left-margin-Black-S" d="M616.745,56 l0,110" />
        <path id="right-margin-Black-S" d="M713.255,56 l0,110" />
        <path id="Capline-M" d="M18,276 l800,0" />
        <path id="Baseline-M" d="M18,346 l800,0" />
        <path id="Capline-L" d="M18,476 l800,0" />
        <path id="Baseline-L" d="M18,546 l800,0" />
    </g>
    <g id="Symbols">
        <g id="Ultralight-S">
            <path d="M252.791,93.094 C252.791,86.351 258.257,80.884 265,80.884 C271.743,80.884 277.209,86.351 277.209,93.094 C277.209,99.837 271.743,105.303 265,105.303 C258.257,105.303 252.791,99.837 252.791,93.094 Z M247.907,93.094 C247.907,102.534 255.56,110.186 265,110.186 C274.44,110.186 282.093,102.534 282.093,93.094 C282.093,83.654 274.44,76.001 265,76.001 C255.56,76.001 247.907,83.654 247.907,93.094 Z" />
            <path d="M235.698,143.557 C235.698,139.1 238.505,133.228 243.208,128.615 C248.766,123.161 256.275,119.953 265,119.953 C265.096,119.953 265.316,119.959 265.643,119.977 C266.209,120.008 266.851,120.066 267.551,120.155 C269.557,120.411 271.612,120.873 273.584,121.584 C276.934,122.793 279.488,123.437 281.713,123.416 C285.335,123.38 287.79,121.325 287.79,117.511 L287.79,84.546 C287.79,82.524 289.43,80.884 291.453,80.884 C293.476,80.884 295.116,82.524 295.116,84.546 L295.116,143.557 L300,143.557 L300,84.546 C300,79.826 296.173,76 291.453,76 C286.733,76 282.907,79.826 282.907,84.546 L282.907,117.511 C282.907,118.423 282.789,118.521 281.665,118.532 C280.192,118.547 278.073,118.012 275.242,116.991 C272.906,116.148 270.509,115.61 268.17,115.311 C266.757,115.13 265.659,115.069 265,115.069 C245.912,115.069 230.814,129.882 230.814,143.557 L235.698,143.557 Z" />
            <path d="M229.186,146 L300.814,146 C302.162,146 303.255,144.907 303.255,143.558 C303.255,142.21 302.162,141.116 300.814,141.116 L229.186,141.116 C227.838,141.116 226.745,142.21 226.745,143.558 C226.745,144.907 227.838,146 229.186,146 Z" />
        </g>
        <g id="Regular-S">
            <path d="M452.791,93.094 C452.791,86.351 458.257,80.884 465,80.884 C471.743,80.884 477.209,86.351 477.209,93.094 C477.209,99.837 471.743,105.303 465,105.303 C458.257,105.303 452.791,99.837 452.791,93.094 Z M447.907,93.094 C447.907,102.534 455.56,110.186 465,110.186 C474.44,110.186 482.093,102.534 482.093,93.094 C482.093,83.654 474.44,76.001 465,76.001 C455.56,76.001 447.907,83.654 447.907,93.094 Z" />
            <path d="M435.698,143.557 C435.698,139.1 438.505,133.228 443.207,128.615 C448.766,123.161 456.275,119.953 465,119.953 C465.096,119.953 465.316,119.959 465.643,119.977 C466.209,120.008 466.851,120.066 467.551,120.155 C469.557,120.411 471.612,120.873 473.584,121.584 C476.934,122.793 479.488,123.437 481.713,123.416 C485.335,123.38 487.79,121.325 487.79,117.511 L487.79,84.546 C487.79,82.524 489.43,80.884 491.453,80.884 C493.476,80.884 495.116,82.524 495.116,84.546 L495.116,143.557 L500,143.557 L500,84.546 C500,79.826 496.173,76 491.453,76 C486.733,76 482.907,79.826 482.907,84.546 L482.907,117.511 C482.907,118.423 482.789,118.521 481.665,118.532 C480.192,118.547 478.073,118.012 475.242,116.991 C472.906,116.148 470.509,115.61 468.17,115.311 C466.757,115.13 465.659,115.069 465,115.069 C445.912,115.069 430.814,129.882 430.814,143.557 L435.698,143.557 Z" />
            <path d="M429.186,146 L500.814,146 C502.162,146 503.255,144.907 503.255,143.558 C503.255,142.21 502.162,141.116 500.814,141.116 L429.186,141.116 C427.838,141.116 426.745,142.21 426.745,143.558 C426.745,144.907 427.838,146 429.186,146 Z" />
        </g>
        <g id="Black-S">
            <path d="M652.791,93.094 C652.791,86.351 658.257,80.884 665,80.884 C671.743,80.884 677.209,86.351 677.209,93.094 C677.209,99.837 671.743,105.303 665,105.303 C658.257,105.303 652.791,99.837 652.791,93.094 Z M647.907,93.094 C647.907,102.534 655.56,110.186 665,110.186 C674.44,110.186 682.093,102.534 682.093,93.094 C682.093,83.654 674.44,76.001 665,76.001 C655.56,76.001 647.907,83.654 647.907,93.094 Z" />
            <path d="M635.698,143.557 C635.698,139.1 638.505,133.228 643.207,128.615 C648.766,123.161 656.275,119.953 665,119.953 C665.096,119.953 665.316,119.959 665.643,119.977 C666.209,120.008 666.851,120.066 667.551,120.155 C669.557,120.411 671.612,120.873 673.584,121.584 C676.934,122.793 679.488,123.437 681.713,123.416 C685.335,123.38 687.79,121.325 687.79,117.511 L687.79,84.546 C687.79,82.524 689.43,80.884 691.453,80.884 C693.476,80.884 695.116,82.524 695.116,84.546 L695.116,143.557 L700,143.557 L700,84.546 C700,79.826 696.173,76 691.453,76 C686.733,76 682.907,79.826 682.907,84.546 L682.907,117.511 C682.907,118.423 682.789,118.521 681.665,118.532 C680.192,118.547 678.073,118.012 675.242,116.991 C672.906,116.148 670.509,115.61 668.17,115.311 C666.757,115.13 665.659,115.069 665,115.069 C645.912,115.069 630.814,129.882 630.814,143.557 L635.698,143.557 Z" />
            <path d="M629.186,146 L700.814,146 C702.162,146 703.255,144.907 703.255,143.558 C703.255,142.21 702.162,141.116 700.814,141.116 L629.186,141.116 C627.838,141.116 626.745,142.21 626.745,143.558 C626.745,144.907 627.838,146 629.186,146 Z" />
        </g>
    </g>
</svg>