<?xml version="1.0" encoding="UTF-8"?>
<svg height="600" width="800" xmlns="http://www.w3.org/2000/svg" xmlns:xlink="http://www.w3.org/1999/xlink">
    <g id="Notes" font-family="'LucidaGrande', 'Lucida Grande', sans-serif" font-size="13">
        <rect fill="white" height="600.0" width="800.0" x="0.0" y="0.0" />
        <g font-size="13">
            <text x="18.0" y="176.0">Small</text>
            <text x="18.0" y="376.0">Medium</text>
            <text x="18.0" y="576.0">Large</text>
        </g>
        <g font-size="9">
            <text x="250.0" y="30.0">Ultralight</text>
            <text x="450.0" y="30.0">Regular</text>
            <text x="650.0" y="30.0">Black</text>
            <text id="template-version" fill="#505050" text-anchor="end" x="785.0" y="575.0">Template v.3.0</text>
            <a href="https://github.com/swhitty/SwiftDraw">
                <text fill="#505050" text-anchor="end" x="785.0" y="590.0">https://github.com/swhitty/SwiftDraw</text>
            </a>
        </g>
    </g>
    <g id="Guides" stroke="rgb(39, 170, 225)" stroke-width="0.5">
        <path id="Capline-S" d="M18,76 l800,0" />
        <path id="H-reference" d="M85,145.755 L87.685,145.755 L113.369,79.287 L114.052,79.287 L114.052,76 L112.148,76 L85,145.755 Z M95.693,121.536 L130.996,121.536 L130.263,119.313 L96.474,119.313 L95.693,121.536 Z M139.15,145.755 L141.787,145.755 L114.638,76 L113.466,76 L113.466,79.287 L139.15,145.755 Z" stroke="none" />
        <path id="Baseline-S" d="M18,146 l800,0" />
        <path id="left-margin-Ultralight-S" d="M220,56 l0,110" />
        <path id="right-margin-Ultralight-S" d="M310,56 l0,110" />
        <path id="left-margin-Regular-S" d="M420,56 l0,110" />
        <path id="right-margin-Regular-S" d="M510,56 l0,110" />
        <path id="left-margin-Black-S" d="M620,56 l0,110" />
        <path id="right-margin-Black-S" d="M710,56 l0,110" />
        <path id="Capline-M" d="M18,276 l800,0" />
        <path id="Baseline-M" d="M18,346 l800,0" />
        <path id="Capline-L" d="M18,476 l800,0" />
        <path id="Baseline-L" d="M18,546 l800,0" />
    </g>
    <g id="Symbols">
        <g id="Ultralight-S">
            <path d="M234.884,111 C234.884,94.367 248.367,80.884 265,80.884 C281.633,80.884 295.116,94.367 295.116,111 C295.116,127.633 281.633,141.116 265,141.116 C248.367,141.116 234.884,127.633 234.884,111 Z M230,111 C230,130.33 245.67,146 265,146 C284.33,146 300,130.33 300,111 C300,91.67 284.33,76 265,76 C245.67,76 230,91.67 230,111 Z" />
            <path d="M248.721,100.419 L281.279,100.419 L279.754,96.07 L247.196,122.116 C245.393,123.558 246.413,126.465 248.721,126.465 L281.279,126.465 C282.628,126.465 283.721,125.372 283.721,124.023 C283.721,122.675 282.628,121.581 281.279,121.581 L248.721,121.581 L250.246,125.93 L282.805,99.884 C284.607,98.442 283.587,95.535 281.279,95.535 L248.721,95.535 C247.372,95.535 246.279,96.628 246.279,97.977 C246.279,99.325 247.372,100.419 248.721,100.419 Z" />
        </g>
        <g id="Regular-S">
            <path d="M434.884,111 C434.884,94.367 448.367,80.884 465,80.884 C481.633,80.884 495.116,94.367 495.116,111 C495.116,127.633 481.633,141.116 465,141.116 C448.367,141.116 434.884,127.633 434.884,111 Z M430,111 C430,130.33 445.67,146 465,146 C484.33,146 500,130.33 500,111 C500,91.67 484.33,76 465,76 C445.67,76 430,91.67 430,111 Z" />
            <path d="M448.721,100.419 L481.279,100.419 L479.754,96.07 L447.196,122.116 C445.393,123.558 446.413,126.465 448.721,126.465 L481.279,126.465 C482.628,126.465 483.721,125.372 483.721,124.023 C483.721,122.675 482.628,121.581 481.279,121.581 L448.721,121.581 L450.246,125.93 L482.805,99.884 C484.607,98.442 483.587,95.535 481.279,95.535 L448.721,95.535 C447.372,95.535 446.279,96.628 446.279,97.977 C446.279,99.325 447.372,100.419 448.721,100.419 Z" />
        </g>
        <g id="Black-S">
            <path d="M634.884,111 C634.884,94.367 648.367,80.884 665,80.884 C681.633,80.884 695.116,94.367 695.116,111 C695.116,127.633 681.633,141.116 665,141.116 C648.367,141.116 634.884,127.633 634.884,111 Z M630,111 C630,130.33 645.67,146 665,146 C684.33,146 700,130.33 700,111 C700,91.67 684.33,76 665,76 C645.67,76 630,91.67 630,111 Z" />
            <path d="M648.721,100.419 L681.279,100.419 L679.754,96.07 L647.195,122.116 C645.393,123.558 646.413,126.465 648.721,126.465 L681.279,126.465 C682.628,126.465 683.721,125.372 683.721,124.023 C683.721,122.675 682.628,121.581 681.279,121.581 L648.721,121.581 L650.246,125.93 L682.805,99.884 C684.607,98.442 683.587,95.535 681.279,95.535 L648.721,95.535 C647.372,95.535 646.279,96.628 646.279,97.977 C646.279,99.325 647.372,100.419 648.721,100.419 Z" />
        </g>
    </g>
</svg>