<?xml version="1.0" encoding="UTF-8"?>
<svg height="600" width="800" xmlns="http://www.w3.org/2000/svg" xmlns:xlink="http://www.w3.org/1999/xlink">
    <g id="Notes" font-family="'LucidaGrande', 'Lucida Grande', sans-serif" font-size="13">
        <rect fill="white" height="600.0" width="800.0" x="0.0" y="0.0" />
        <g font-size="13">
            <text x="18.0" y="176.0">Small</text>
            <text x="18.0" y="376.0">Medium</text>
            <text x="18.0" y="576.0">Large</text>
        </g>
        <g font-size="9">
            <text x="250.0" y="30.0">Ultralight</text>
            <text x="450.0" y="30.0">Regular</text>
            <text x="650.0" y="30.0">Black</text>
            <text id="template-version" fill="#505050" text-anchor="end" x="785.0" y="575.0">Template v.3.0</text>
            <a href="https://github.com/swhitty/SwiftDraw">
                <text fill="#505050" text-anchor="end" x="785.0" y="590.0">https://github.com/swhitty/SwiftDraw</text>
            </a>
        </g>
    </g>
    <g id="Guides" stroke="rgb(39, 170, 225)" stroke-width="0.5">
        <path id="Capline-S" d="M18,76 l800,0" />
        <path id="H-reference" d="M85,145.755 L87.685,145.755 L113.369,79.287 L114.052,79.287 L114.052,76 L112.148,76 L85,145.755 Z M95.693,121.536 L130.996,121.536 L130.263,119.313 L96.474,119.313 L95.693,121.536 Z M139.15,145.755 L141.787,145.755 L114.638,76 L113.466,76 L113.466,79.287 L139.15,145.755 Z" stroke="none" />
        <path id="Baseline-S" d="M18,146 l800,0" />
        <path id="left-margin-Ultralight-S" d="M220,56 l0,110" />
        <path id="right-margin-Ultralight-S" d="M310,56 l0,110" />
        <path id="left-margin-Regular-S" d="M420,56 l0,110" />
        <path id="right-margin-Regular-S" d="M510,56 l0,110" />
        <path id="left-margin-Black-S" d="M620,56 l0,110" />
        <path id="right-margin-Black-S" d="M710,56 l0,110" />
        <path id="Capline-M" d="M18,276 l800,0" />
        <path id="Baseline-M" d="M18,346 l800,0" />
        <path id="Capline-L" d="M18,476 l800,0" />
        <path id="Baseline-L" d="M18,546 l800,0" />
    </g>
    <g id="Symbols">
        <g id="Ultralight-S">
            <path d="M234.884,111 C234.884,94.367 248.367,80.884 265,80.884 C281.633,80.884 295.116,94.367 295.116,111 C295.116,127.633 281.633,141.116 265,141.116 C248.367,141.116 234.884,127.633 234.884,111 Z M230,111 C230,130.33 245.67,146 265,146 C284.33,146 300,130.33 300,111 C300,91.67 284.33,76 265,76 C245.67,76 230,91.67 230,111 Z" />
            <path d="M280.215,99.535 C277.501,94.007 271.521,90.025 263.193,90.732 C252.881,91.607 245.53,101.159 246.341,112.697 C247.108,123.608 255.468,131.349 264.862,131.349 C269.306,131.349 273.124,129.794 276.275,127.226 C278.158,125.692 279.423,124.146 280.104,123.036 C280.81,121.887 280.45,120.383 279.301,119.678 C278.151,118.972 276.647,119.332 275.942,120.481 C275.86,120.615 275.649,120.916 275.311,121.329 C274.725,122.046 274.016,122.767 273.191,123.44 C270.859,125.34 268.096,126.465 264.862,126.465 C258.025,126.465 251.799,120.7 251.212,112.354 C250.581,103.373 256.073,96.238 263.606,95.598 C269.775,95.075 273.95,97.855 275.831,101.687 C276.426,102.898 277.889,103.397 279.099,102.803 C280.31,102.209 280.81,100.746 280.215,99.535 Z" />
        </g>
        <g id="Regular-S">
            <path d="M434.884,111 C434.884,94.367 448.367,80.884 465,80.884 C481.633,80.884 495.116,94.367 495.116,111 C495.116,127.633 481.633,141.116 465,141.116 C448.367,141.116 434.884,127.633 434.884,111 Z M430,111 C430,130.33 445.67,146 465,146 C484.33,146 500,130.33 500,111 C500,91.67 484.33,76 465,76 C445.67,76 430,91.67 430,111 Z" />
            <path d="M480.215,99.535 C477.501,94.007 471.521,90.025 463.193,90.732 C452.881,91.607 445.53,101.159 446.341,112.697 C447.108,123.608 455.468,131.349 464.862,131.349 C469.306,131.349 473.124,129.794 476.275,127.226 C478.158,125.692 479.423,124.146 480.104,123.036 C480.81,121.887 480.45,120.383 479.301,119.678 C478.151,118.972 476.647,119.332 475.942,120.481 C475.86,120.615 475.649,120.916 475.311,121.329 C474.725,122.046 474.016,122.767 473.191,123.44 C470.859,125.34 468.096,126.465 464.862,126.465 C458.025,126.465 451.799,120.7 451.212,112.354 C450.581,103.373 456.073,96.238 463.606,95.598 C469.775,95.075 473.95,97.855 475.831,101.687 C476.426,102.898 477.889,103.397 479.099,102.803 C480.31,102.209 480.81,100.746 480.215,99.535 Z" />
        </g>
        <g id="Black-S">
            <path d="M634.884,111 C634.884,94.367 648.367,80.884 665,80.884 C681.633,80.884 695.116,94.367 695.116,111 C695.116,127.633 681.633,141.116 665,141.116 C648.367,141.116 634.884,127.633 634.884,111 Z M630,111 C630,130.33 645.67,146 665,146 C684.33,146 700,130.33 700,111 C700,91.67 684.33,76 665,76 C645.67,76 630,91.67 630,111 Z" />
            <path d="M680.215,99.535 C677.501,94.007 671.521,90.025 663.193,90.732 C652.881,91.607 645.53,101.159 646.341,112.697 C647.108,123.608 655.468,131.349 664.862,131.349 C669.306,131.349 673.124,129.794 676.275,127.226 C678.158,125.692 679.423,124.146 680.104,123.036 C680.81,121.887 680.45,120.383 679.301,119.678 C678.151,118.972 676.648,119.332 675.942,120.481 C675.86,120.615 675.649,120.916 675.311,121.329 C674.725,122.046 674.016,122.767 673.191,123.44 C670.859,125.34 668.096,126.465 664.862,126.465 C658.025,126.465 651.799,120.7 651.212,112.354 C650.581,103.373 656.073,96.238 663.606,95.598 C669.775,95.075 673.95,97.855 675.831,101.687 C676.426,102.898 677.889,103.397 679.099,102.803 C680.31,102.209 680.81,100.746 680.215,99.535 Z" />
        </g>
    </g>
</svg>