<?xml version="1.0" encoding="UTF-8"?>
<svg height="600" width="800" xmlns="http://www.w3.org/2000/svg" xmlns:xlink="http://www.w3.org/1999/xlink">
    <g id="Notes" font-family="'LucidaGrande', 'Lucida Grande', sans-serif" font-size="13">
        <rect fill="white" height="600.0" width="800.0" x="0.0" y="0.0" />
        <g font-size="13">
            <text x="18.0" y="176.0">Small</text>
            <text x="18.0" y="376.0">Medium</text>
            <text x="18.0" y="576.0">Large</text>
        </g>
        <g font-size="9">
            <text x="250.0" y="30.0">Ultralight</text>
            <text x="450.0" y="30.0">Regular</text>
            <text x="650.0" y="30.0">Black</text>
            <text id="template-version" fill="#505050" text-anchor="end" x="785.0" y="575.0">Template v.3.0</text>
            <a href="https://github.com/swhitty/SwiftDraw">
                <text fill="#505050" text-anchor="end" x="785.0" y="590.0">https://github.com/swhitty/SwiftDraw</text>
            </a>
        </g>
    </g>
    <g id="Guides" stroke="rgb(39, 170, 225)" stroke-width="0.5">
        <path id="Capline-S" d="M18,76 l800,0" />
        <path id="H-reference" d="M85,145.755 L87.685,145.755 L113.369,79.287 L114.052,79.287 L114.052,76 L112.148,76 L85,145.755 Z M95.693,121.536 L130.996,121.536 L130.263,119.313 L96.474,119.313 L95.693,121.536 Z M139.15,145.755 L141.787,145.755 L114.638,76 L113.466,76 L113.466,79.287 L139.15,145.755 Z" stroke="none" />
        <path id="Baseline-S" d="M18,146 l800,0" />
        <path id="left-margin-Ultralight-S" d="M221,56 l0,110" />
        <path id="right-margin-Ultralight-S" d="M309,56 l0,110" />
        <path id="left-margin-Regular-S" d="M421,56 l0,110" />
        <path id="right-margin-Regular-S" d="M509,56 l0,110" />
        <path id="left-margin-Black-S" d="M621,56 l0,110" />
        <path id="right-margin-Black-S" d="M709,56 l0,110" />
        <path id="Capline-M" d="M18,276 l800,0" />
        <path id="Baseline-M" d="M18,346 l800,0" />
        <path id="Capline-L" d="M18,476 l800,0" />
        <path id="Baseline-L" d="M18,546 l800,0" />
    </g>
    <g id="Symbols">
        <g id="Ultralight-S">
            <path d="M291.86,101.233 L291.86,143.558 L294.302,141.116 L235.698,141.116 L238.14,143.558 L238.14,101.233 C238.14,99.884 237.046,98.791 235.698,98.791 C234.349,98.791 233.256,99.884 233.256,101.233 L233.256,143.558 C233.256,144.907 234.349,146 235.698,146 L294.302,146 C295.651,146 296.744,144.907 296.744,143.558 L296.744,101.233 C296.744,99.884 295.651,98.791 294.302,98.791 C292.954,98.791 291.86,99.884 291.86,101.233 Z" />
            <path d="M294.302,76 L235.698,76 C234.349,76 233.256,77.093 233.256,78.442 L233.256,101.233 C233.256,102.581 234.349,103.674 235.698,103.674 L294.302,103.674 C295.651,103.674 296.744,102.581 296.744,101.233 L296.744,78.442 C296.744,77.093 295.651,76 294.302,76 Z M294.302,80.884 L291.86,78.442 L291.86,101.233 L294.302,98.791 L235.698,98.791 L238.14,101.233 L238.14,78.442 L235.698,80.884 L294.302,80.884 Z" />
            <path d="M249.535,115.884 L249.535,128.907 C249.535,130.256 250.628,131.349 251.977,131.349 C253.325,131.349 254.419,130.256 254.419,128.907 L254.419,115.884 C254.419,114.535 253.325,113.442 251.977,113.442 C250.628,113.442 249.535,114.535 249.535,115.884 Z" />
            <path d="M245.465,124.837 L258.488,124.837 C259.837,124.837 260.93,123.744 260.93,122.395 C260.93,121.047 259.837,119.953 258.488,119.953 L245.465,119.953 C244.117,119.953 243.023,121.047 243.023,122.395 C243.023,123.744 244.117,124.837 245.465,124.837 Z" />
            <path d="M278.023,131.349 C282.968,131.349 286.977,127.34 286.977,122.395 C286.977,117.451 282.968,113.442 278.023,113.442 C273.078,113.442 269.07,117.451 269.07,122.395 C269.07,127.34 273.078,131.349 278.023,131.349 Z M278.023,126.465 C275.776,126.465 273.953,124.643 273.953,122.395 C273.953,120.148 275.776,118.326 278.023,118.326 C280.271,118.326 282.093,120.148 282.093,122.395 C282.093,124.643 280.271,126.465 278.023,126.465 Z" />
        </g>
        <g id="Regular-S">
            <path d="M491.86,101.233 L491.86,143.558 L494.302,141.116 L435.698,141.116 L438.14,143.558 L438.14,101.233 C438.14,99.884 437.046,98.791 435.698,98.791 C434.349,98.791 433.256,99.884 433.256,101.233 L433.256,143.558 C433.256,144.907 434.349,146 435.698,146 L494.302,146 C495.651,146 496.744,144.907 496.744,143.558 L496.744,101.233 C496.744,99.884 495.651,98.791 494.302,98.791 C492.954,98.791 491.86,99.884 491.86,101.233 Z" />
            <path d="M494.302,76 L435.698,76 C434.349,76 433.256,77.093 433.256,78.442 L433.256,101.233 C433.256,102.581 434.349,103.674 435.698,103.674 L494.302,103.674 C495.651,103.674 496.744,102.581 496.744,101.233 L496.744,78.442 C496.744,77.093 495.651,76 494.302,76 Z M494.302,80.884 L491.86,78.442 L491.86,101.233 L494.302,98.791 L435.698,98.791 L438.14,101.233 L438.14,78.442 L435.698,80.884 L494.302,80.884 Z" />
            <path d="M449.535,115.884 L449.535,128.907 C449.535,130.256 450.628,131.349 451.977,131.349 C453.325,131.349 454.419,130.256 454.419,128.907 L454.419,115.884 C454.419,114.535 453.325,113.442 451.977,113.442 C450.628,113.442 449.535,114.535 449.535,115.884 Z" />
            <path d="M445.465,124.837 L458.488,124.837 C459.837,124.837 460.93,123.744 460.93,122.395 C460.93,121.047 459.837,119.953 458.488,119.953 L445.465,119.953 C444.117,119.953 443.023,121.047 443.023,122.395 C443.023,123.744 444.117,124.837 445.465,124.837 Z" />
            <path d="M478.023,131.349 C482.968,131.349 486.977,127.34 486.977,122.395 C486.977,117.451 482.968,113.442 478.023,113.442 C473.078,113.442 469.07,117.451 469.07,122.395 C469.07,127.34 473.078,131.349 478.023,131.349 Z M478.023,126.465 C475.776,126.465 473.953,124.643 473.953,122.395 C473.953,120.148 475.776,118.326 478.023,118.326 C480.271,118.326 482.093,120.148 482.093,122.395 C482.093,124.643 480.271,126.465 478.023,126.465 Z" />
        </g>
        <g id="Black-S">
            <path d="M691.86,101.233 L691.86,143.558 L694.302,141.116 L635.698,141.116 L638.14,143.558 L638.14,101.233 C638.14,99.884 637.046,98.791 635.698,98.791 C634.349,98.791 633.256,99.884 633.256,101.233 L633.256,143.558 C633.256,144.907 634.349,146 635.698,146 L694.302,146 C695.651,146 696.744,144.907 696.744,143.558 L696.744,101.233 C696.744,99.884 695.651,98.791 694.302,98.791 C692.954,98.791 691.86,99.884 691.86,101.233 Z" />
            <path d="M694.302,76 L635.698,76 C634.349,76 633.256,77.093 633.256,78.442 L633.256,101.233 C633.256,102.581 634.349,103.674 635.698,103.674 L694.302,103.674 C695.651,103.674 696.744,102.581 696.744,101.233 L696.744,78.442 C696.744,77.093 695.651,76 694.302,76 Z M694.302,80.884 L691.86,78.442 L691.86,101.233 L694.302,98.791 L635.698,98.791 L638.14,101.233 L638.14,78.442 L635.698,80.884 L694.302,80.884 Z" />
            <path d="M649.535,115.884 L649.535,128.907 C649.535,130.256 650.628,131.349 651.977,131.349 C653.325,131.349 654.419,130.256 654.419,128.907 L654.419,115.884 C654.419,114.535 653.325,113.442 651.977,113.442 C650.628,113.442 649.535,114.535 649.535,115.884 Z" />
            <path d="M645.465,124.837 L658.488,124.837 C659.837,124.837 660.93,123.744 660.93,122.395 C660.93,121.047 659.837,119.953 658.488,119.953 L645.465,119.953 C644.117,119.953 643.023,121.047 643.023,122.395 C643.023,123.744 644.117,124.837 645.465,124.837 Z" />
            <path d="M678.023,131.349 C682.968,131.349 686.977,127.34 686.977,122.395 C686.977,117.451 682.968,113.442 678.023,113.442 C673.078,113.442 669.07,117.451 669.07,122.395 C669.07,127.34 673.078,131.349 678.023,131.349 Z M678.023,126.465 C675.776,126.465 673.953,124.643 673.953,122.395 C673.953,120.148 675.776,118.326 678.023,118.326 C680.271,118.326 682.093,120.148 682.093,122.395 C682.093,124.643 680.271,126.465 678.023,126.465 Z" />
        </g>
    </g>
</svg>