<?xml version="1.0" encoding="UTF-8"?>
<svg height="600" width="800" xmlns="http://www.w3.org/2000/svg" xmlns:xlink="http://www.w3.org/1999/xlink">
    <g id="Notes" font-family="'LucidaGrande', 'Lucida Grande', sans-serif" font-size="13">
        <rect fill="white" height="600.0" width="800.0" x="0.0" y="0.0" />
        <g font-size="13">
            <text x="18.0" y="176.0">Small</text>
            <text x="18.0" y="376.0">Medium</text>
            <text x="18.0" y="576.0">Large</text>
        </g>
        <g font-size="9">
            <text x="250.0" y="30.0">Ultralight</text>
            <text x="450.0" y="30.0">Regular</text>
            <text x="650.0" y="30.0">Black</text>
            <text id="template-version" fill="#505050" text-anchor="end" x="785.0" y="575.0">Template v.3.0</text>
            <a href="https://github.com/swhitty/SwiftDraw">
                <text fill="#505050" text-anchor="end" x="785.0" y="590.0">https://github.com/swhitty/SwiftDraw</text>
            </a>
        </g>
    </g>
    <g id="Guides" stroke="rgb(39, 170, 225)" stroke-width="0.5">
        <path id="Capline-S" d="M18,76 l800,0" />
        <path id="H-reference" d="M85,145.755 L87.685,145.755 L113.369,79.287 L114.052,79.287 L114.052,76 L112.148,76 L85,145.755 Z M95.693,121.536 L130.996,121.536 L130.263,119.313 L96.474,119.313 L95.693,121.536 Z M139.15,145.755 L141.787,145.755 L114.638,76 L113.466,76 L113.466,79.287 L139.15,145.755 Z" stroke="none" />
        <path id="Baseline-S" d="M18,146 l800,0" />
        <path id="left-margin-Ultralight-S" d="M212,56 l0,110" />
        <path id="right-margin-Ultralight-S" d="M318,56 l0,110" />
        <path id="left-margin-Regular-S" d="M412,56 l0,110" />
        <path id="right-margin-Regular-S" d="M518,56 l0,110" />
        <path id="left-margin-Black-S" d="M612,56 l0,110" />
        <path id="right-margin-Black-S" d="M718,56 l0,110" />
        <path id="Capline-M" d="M18,276 l800,0" />
        <path id="Baseline-M" d="M18,346 l800,0" />
        <path id="Capline-L" d="M18,476 l800,0" />
        <path id="Baseline-L" d="M18,546 l800,0" />
    </g>
    <g id="Symbols">
        <g id="Ultralight-S">
            <path d="M248,91 C248,86.029 252.029,82 257,82 L275,82 C279.971,82 284,86.029 284,91 L284,95 L287,92 L245,92 L248,95 L248,91 Z M242,91 L242,95 C242,96.657 243.343,98 245,98 L287,98 C288.657,98 290,96.657 290,95 L290,91 C290,82.716 283.284,76 275,76 L257,76 C248.716,76 242,82.716 242,91 Z" />
            <path d="M224.272,115.91 L263.302,125.668 C264.417,125.947 265.583,125.947 266.698,125.668 L305.728,115.91 L302,113 L302,139 C302,139.552 301.552,140 301,140 L229,140 C228.448,140 228,139.552 228,139 L228,113 L224.272,115.91 Z M225.728,110.09 C223.834,109.616 222,111.048 222,113 L222,139 C222,142.866 225.134,146 229,146 L301,146 C304.866,146 308,142.866 308,139 L308,113 C308,111.048 306.166,109.616 304.272,110.09 L265.243,119.847 C265.083,119.887 264.917,119.887 264.758,119.847 L225.728,110.09 Z" />
            <path d="M308,117 L308,99 C308,95.134 304.866,92 301,92 L229,92 C225.134,92 222,95.134 222,99 L222,117 C222,118.657 223.343,120 225,120 C226.657,120 228,118.657 228,117 L228,99 C228,98.448 228.448,98 229,98 L301,98 C301.552,98 302,98.448 302,99 L302,117 C302,118.657 303.343,120 305,120 C306.657,120 308,118.657 308,117 Z" />
            <path d="M270,109 C270,111.761 267.761,114 265,114 C262.239,114 260,111.761 260,109 C260,106.239 262.239,104 265,104 C267.761,104 270,106.239 270,109 Z" />
        </g>
        <g id="Regular-S">
            <path d="M448,91 C448,86.029 452.029,82 457,82 L475,82 C479.971,82 484,86.029 484,91 L484,95 L487,92 L445,92 L448,95 L448,91 Z M442,91 L442,95 C442,96.657 443.343,98 445,98 L487,98 C488.657,98 490,96.657 490,95 L490,91 C490,82.716 483.284,76 475,76 L457,76 C448.716,76 442,82.716 442,91 Z" />
            <path d="M424.272,115.91 L463.302,125.668 C464.417,125.947 465.583,125.947 466.698,125.668 L505.728,115.91 L502,113 L502,139 C502,139.552 501.552,140 501,140 L429,140 C428.448,140 428,139.552 428,139 L428,113 L424.272,115.91 Z M425.728,110.09 C423.834,109.616 422,111.048 422,113 L422,139 C422,142.866 425.134,146 429,146 L501,146 C504.866,146 508,142.866 508,139 L508,113 C508,111.048 506.166,109.616 504.272,110.09 L465.243,119.847 C465.083,119.887 464.917,119.887 464.758,119.847 L425.728,110.09 Z" />
            <path d="M508,117 L508,99 C508,95.134 504.866,92 501,92 L429,92 C425.134,92 422,95.134 422,99 L422,117 C422,118.657 423.343,120 425,120 C426.657,120 428,118.657 428,117 L428,99 C428,98.448 428.448,98 429,98 L501,98 C501.552,98 502,98.448 502,99 L502,117 C502,118.657 503.343,120 505,120 C506.657,120 508,118.657 508,117 Z" />
            <path d="M470,109 C470,111.761 467.761,114 465,114 C462.239,114 460,111.761 460,109 C460,106.239 462.239,104 465,104 C467.761,104 470,106.239 470,109 Z" />
        </g>
        <g id="Black-S">
            <path d="M648,91 C648,86.029 652.029,82 657,82 L675,82 C679.971,82 684,86.029 684,91 L684,95 L687,92 L645,92 L648,95 L648,91 Z M642,91 L642,95 C642,96.657 643.343,98 645,98 L687,98 C688.657,98 690,96.657 690,95 L690,91 C690,82.716 683.284,76 675,76 L657,76 C648.716,76 642,82.716 642,91 Z" />
            <path d="M624.272,115.91 L663.302,125.668 C664.417,125.947 665.583,125.947 666.698,125.668 L705.728,115.91 L702,113 L702,139 C702,139.552 701.552,140 701,140 L629,140 C628.448,140 628,139.552 628,139 L628,113 L624.272,115.91 Z M625.728,110.09 C623.834,109.616 622,111.048 622,113 L622,139 C622,142.866 625.134,146 629,146 L701,146 C704.866,146 708,142.866 708,139 L708,113 C708,111.048 706.166,109.616 704.272,110.09 L665.243,119.847 C665.083,119.887 664.917,119.887 664.758,119.847 L625.728,110.09 Z" />
            <path d="M708,117 L708,99 C708,95.134 704.866,92 701,92 L629,92 C625.134,92 622,95.134 622,99 L622,117 C622,118.657 623.343,120 625,120 C626.657,120 628,118.657 628,117 L628,99 C628,98.448 628.448,98 629,98 L701,98 C701.552,98 702,98.448 702,99 L702,117 C702,118.657 703.343,120 705,120 C706.657,120 708,118.657 708,117 Z" />
            <path d="M670,109 C670,111.761 667.761,114 665,114 C662.239,114 660,111.761 660,109 C660,106.239 662.239,104 665,104 C667.761,104 670,106.239 670,109 Z" />
        </g>
    </g>
</svg>