<?xml version="1.0" encoding="UTF-8"?>
<svg height="600" width="800" xmlns="http://www.w3.org/2000/svg" xmlns:xlink="http://www.w3.org/1999/xlink">
    <g id="Notes" font-family="'LucidaGrande', 'Lucida Grande', sans-serif" font-size="13">
        <rect fill="white" height="600.0" width="800.0" x="0.0" y="0.0" />
        <g font-size="13">
            <text x="18.0" y="176.0">Small</text>
            <text x="18.0" y="376.0">Medium</text>
            <text x="18.0" y="576.0">Large</text>
        </g>
        <g font-size="9">
            <text x="250.0" y="30.0">Ultralight</text>
            <text x="450.0" y="30.0">Regular</text>
            <text x="650.0" y="30.0">Black</text>
            <text id="template-version" fill="#505050" text-anchor="end" x="785.0" y="575.0">Template v.3.0</text>
            <a href="https://github.com/swhitty/SwiftDraw">
                <text fill="#505050" text-anchor="end" x="785.0" y="590.0">https://github.com/swhitty/SwiftDraw</text>
            </a>
        </g>
    </g>
    <g id="Guides" stroke="rgb(39, 170, 225)" stroke-width="0.5">
        <path id="Capline-S" d="M18,76 l800,0" />
        <path id="H-reference" d="M85,145.755 L87.685,145.755 L113.369,79.287 L114.052,79.287 L114.052,76 L112.148,76 L85,145.755 Z M95.693,121.536 L130.996,121.536 L130.263,119.313 L96.474,119.313 L95.693,121.536 Z M139.15,145.755 L141.787,145.755 L114.638,76 L113.466,76 L113.466,79.287 L139.15,145.755 Z" stroke="none" />
        <path id="Baseline-S" d="M18,146 l800,0" />
        <path id="left-margin-Ultralight-S" d="M211,56 l0,110" />
        <path id="right-margin-Ultralight-S" d="M319,56 l0,110" />
        <path id="left-margin-Regular-S" d="M411,56 l0,110" />
        <path id="right-margin-Regular-S" d="M519,56 l0,110" />
        <path id="left-margin-Black-S" d="M611,56 l0,110" />
        <path id="right-margin-Black-S" d="M719,56 l0,110" />
        <path id="Capline-M" d="M18,276 l800,0" />
        <path id="Baseline-M" d="M18,346 l800,0" />
        <path id="Capline-L" d="M18,476 l800,0" />
        <path id="Baseline-L" d="M18,546 l800,0" />
    </g>
    <g id="Symbols">
        <g id="Ultralight-S">
            <path d="M252.721,83.372 L301.837,83.372 C302.402,83.372 302.86,83.83 302.86,84.395 L302.86,137.605 C302.86,138.17 302.402,138.628 301.837,138.628 L252.721,138.628 L252.721,144.767 L301.837,144.767 C305.793,144.767 309,141.561 309,137.605 L309,84.395 C309,80.439 305.793,77.233 301.837,77.233 L252.721,77.233 L252.721,83.372 Z" />
            <path d="M227.14,84.395 C227.14,83.83 227.598,83.372 228.163,83.372 L252.721,83.372 L249.651,80.302 L249.651,141.698 L252.721,138.628 L228.163,138.628 C227.598,138.628 227.14,138.17 227.14,137.605 L227.14,84.395 Z M221,84.395 L221,137.605 C221,141.561 224.207,144.767 228.163,144.767 L252.721,144.767 L255.791,144.767 L255.791,141.698 L255.791,80.302 L255.791,77.233 L252.721,77.233 L228.163,77.233 C224.207,77.233 221,80.439 221,84.395 Z" />
            <path d="M235.326,94.628 L235.326,102.814 C235.326,104.509 236.7,105.884 238.395,105.884 C240.091,105.884 241.465,104.509 241.465,102.814 L241.465,94.628 C241.465,92.933 240.091,91.558 238.395,91.558 C236.7,91.558 235.326,92.933 235.326,94.628 Z" />
            <path d="M289.097,90.811 L264.539,125.602 C263.561,126.987 263.891,128.902 265.276,129.88 C266.661,130.858 268.577,130.527 269.554,129.142 L294.113,94.352 C295.09,92.967 294.76,91.051 293.375,90.073 C291.99,89.096 290.074,89.426 289.097,90.811 Z" />
            <path d="M242.488,115.093 L242.488,115.093 C242.488,116.179 242.057,117.22 241.29,117.987 C240.522,118.755 239.481,119.186 238.395,119.186 L238.395,119.186 C237.31,119.186 236.269,118.755 235.501,117.987 C234.734,117.22 234.302,116.179 234.302,115.093 L234.302,115.093 C234.302,114.007 234.734,112.966 235.501,112.199 C236.269,111.431 237.31,111 238.395,111 L238.395,111 C239.481,111 240.522,111.431 241.29,112.199 C242.057,112.966 242.488,114.007 242.488,115.093 Z" />
            <path d="M242.488,127.372 L242.488,127.372 C242.488,128.458 242.057,129.499 241.29,130.266 C240.522,131.034 239.481,131.465 238.395,131.465 L238.395,131.465 C237.31,131.465 236.269,131.034 235.501,130.266 C234.734,129.499 234.302,128.458 234.302,127.372 L234.302,127.372 C234.302,126.287 234.734,125.245 235.501,124.478 C236.269,123.71 237.31,123.279 238.395,123.279 L238.395,123.279 C239.481,123.279 240.522,123.71 241.29,124.478 C242.057,125.245 242.488,126.287 242.488,127.372 Z" />
        </g>
        <g id="Regular-S">
            <path d="M452.721,83.372 L501.837,83.372 C502.402,83.372 502.86,83.83 502.86,84.395 L502.86,137.605 C502.86,138.17 502.402,138.628 501.837,138.628 L452.721,138.628 L452.721,144.767 L501.837,144.767 C505.793,144.767 509,141.561 509,137.605 L509,84.395 C509,80.439 505.793,77.233 501.837,77.233 L452.721,77.233 L452.721,83.372 Z" />
            <path d="M427.14,84.395 C427.14,83.83 427.598,83.372 428.163,83.372 L452.721,83.372 L449.651,80.302 L449.651,141.698 L452.721,138.628 L428.163,138.628 C427.598,138.628 427.14,138.17 427.14,137.605 L427.14,84.395 Z M421,84.395 L421,137.605 C421,141.561 424.207,144.767 428.163,144.767 L452.721,144.767 L455.791,144.767 L455.791,141.698 L455.791,80.302 L455.791,77.233 L452.721,77.233 L428.163,77.233 C424.207,77.233 421,80.439 421,84.395 Z" />
            <path d="M435.326,94.628 L435.326,102.814 C435.326,104.509 436.7,105.884 438.395,105.884 C440.091,105.884 441.465,104.509 441.465,102.814 L441.465,94.628 C441.465,92.933 440.091,91.558 438.395,91.558 C436.7,91.558 435.326,92.933 435.326,94.628 Z" />
            <path d="M489.097,90.811 L464.539,125.602 C463.561,126.987 463.891,128.902 465.276,129.88 C466.661,130.858 468.577,130.527 469.554,129.142 L494.113,94.352 C495.09,92.967 494.76,91.051 493.375,90.073 C491.99,89.096 490.074,89.426 489.097,90.811 Z" />
            <path d="M442.488,115.093 L442.488,115.093 C442.488,116.179 442.057,117.22 441.29,117.987 C440.522,118.755 439.481,119.186 438.395,119.186 L438.395,119.186 C437.31,119.186 436.269,118.755 435.501,117.987 C434.734,117.22 434.302,116.179 434.302,115.093 L434.302,115.093 C434.302,114.007 434.734,112.966 435.501,112.199 C436.269,111.431 437.31,111 438.395,111 L438.395,111 C439.481,111 440.522,111.431 441.29,112.199 C442.057,112.966 442.488,114.007 442.488,115.093 Z" />
            <path d="M442.488,127.372 L442.488,127.372 C442.488,128.458 442.057,129.499 441.29,130.266 C440.522,131.034 439.481,131.465 438.395,131.465 L438.395,131.465 C437.31,131.465 436.269,131.034 435.501,130.266 C434.734,129.499 434.302,128.458 434.302,127.372 L434.302,127.372 C434.302,126.287 434.734,125.245 435.501,124.478 C436.269,123.71 437.31,123.279 438.395,123.279 L438.395,123.279 C439.481,123.279 440.522,123.71 441.29,124.478 C442.057,125.245 442.488,126.287 442.488,127.372 Z" />
        </g>
        <g id="Black-S">
            <path d="M652.721,83.372 L701.837,83.372 C702.402,83.372 702.86,83.83 702.86,84.395 L702.86,137.605 C702.86,138.17 702.402,138.628 701.837,138.628 L652.721,138.628 L652.721,144.767 L701.837,144.767 C705.793,144.767 709,141.561 709,137.605 L709,84.395 C709,80.439 705.793,77.233 701.837,77.233 L652.721,77.233 L652.721,83.372 Z" />
            <path d="M627.14,84.395 C627.14,83.83 627.598,83.372 628.163,83.372 L652.721,83.372 L649.651,80.302 L649.651,141.698 L652.721,138.628 L628.163,138.628 C627.598,138.628 627.14,138.17 627.14,137.605 L627.14,84.395 Z M621,84.395 L621,137.605 C621,141.561 624.207,144.767 628.163,144.767 L652.721,144.767 L655.791,144.767 L655.791,141.698 L655.791,80.302 L655.791,77.233 L652.721,77.233 L628.163,77.233 C624.207,77.233 621,80.439 621,84.395 Z" />
            <path d="M635.326,94.628 L635.326,102.814 C635.326,104.509 636.7,105.884 638.395,105.884 C640.091,105.884 641.465,104.509 641.465,102.814 L641.465,94.628 C641.465,92.933 640.091,91.558 638.395,91.558 C636.7,91.558 635.326,92.933 635.326,94.628 Z" />
            <path d="M689.097,90.811 L664.539,125.602 C663.561,126.987 663.891,128.902 665.276,129.88 C666.661,130.858 668.577,130.527 669.554,129.142 L694.113,94.352 C695.09,92.967 694.76,91.051 693.375,90.073 C691.99,89.096 690.074,89.426 689.097,90.811 Z" />
            <path d="M642.488,115.093 L642.488,115.093 C642.488,116.179 642.057,117.22 641.29,117.987 C640.522,118.755 639.481,119.186 638.395,119.186 L638.395,119.186 C637.31,119.186 636.269,118.755 635.501,117.987 C634.734,117.22 634.302,116.179 634.302,115.093 L634.302,115.093 C634.302,114.007 634.734,112.966 635.501,112.199 C636.269,111.431 637.31,111 638.395,111 L638.395,111 C639.481,111 640.522,111.431 641.29,112.199 C642.057,112.966 642.488,114.007 642.488,115.093 Z" />
            <path d="M642.488,127.372 L642.488,127.372 C642.488,128.458 642.057,129.499 641.29,130.266 C640.522,131.034 639.481,131.465 638.395,131.465 L638.395,131.465 C637.31,131.465 636.269,131.034 635.501,130.266 C634.734,129.499 634.302,128.458 634.302,127.372 L634.302,127.372 C634.302,126.287 634.734,125.245 635.501,124.478 C636.269,123.71 637.31,123.279 638.395,123.279 L638.395,123.279 C639.481,123.279 640.522,123.71 641.29,124.478 C642.057,125.245 642.488,126.287 642.488,127.372 Z" />
        </g>
    </g>
</svg>