<?xml version="1.0" encoding="UTF-8"?>
<svg height="600" width="800" xmlns="http://www.w3.org/2000/svg" xmlns:xlink="http://www.w3.org/1999/xlink">
    <g id="Notes" font-family="'LucidaGrande', 'Lucida Grande', sans-serif" font-size="13">
        <rect fill="white" height="600.0" width="800.0" x="0.0" y="0.0" />
        <g font-size="13">
            <text x="18.0" y="176.0">Small</text>
            <text x="18.0" y="376.0">Medium</text>
            <text x="18.0" y="576.0">Large</text>
        </g>
        <g font-size="9">
            <text x="250.0" y="30.0">Ultralight</text>
            <text x="450.0" y="30.0">Regular</text>
            <text x="650.0" y="30.0">Black</text>
            <text id="template-version" fill="#505050" text-anchor="end" x="785.0" y="575.0">Template v.3.0</text>
            <a href="https://github.com/swhitty/SwiftDraw">
                <text fill="#505050" text-anchor="end" x="785.0" y="590.0">https://github.com/swhitty/SwiftDraw</text>
            </a>
        </g>
    </g>
    <g id="Guides" stroke="rgb(39, 170, 225)" stroke-width="0.5">
        <path id="Capline-S" d="M18,76 l800,0" />
        <path id="H-reference" d="M85,145.755 L87.685,145.755 L113.369,79.287 L114.052,79.287 L114.052,76 L112.148,76 L85,145.755 Z M95.693,121.536 L130.996,121.536 L130.263,119.313 L96.474,119.313 L95.693,121.536 Z M139.15,145.755 L141.787,145.755 L114.638,76 L113.466,76 L113.466,79.287 L139.15,145.755 Z" stroke="none" />
        <path id="Baseline-S" d="M18,146 l800,0" />
        <path id="left-margin-Ultralight-S" d="M220,56 l0,110" />
        <path id="right-margin-Ultralight-S" d="M310,56 l0,110" />
        <path id="left-margin-Regular-S" d="M420,56 l0,110" />
        <path id="right-margin-Regular-S" d="M510,56 l0,110" />
        <path id="left-margin-Black-S" d="M620,56 l0,110" />
        <path id="right-margin-Black-S" d="M710,56 l0,110" />
        <path id="Capline-M" d="M18,276 l800,0" />
        <path id="Baseline-M" d="M18,346 l800,0" />
        <path id="Capline-L" d="M18,476 l800,0" />
        <path id="Baseline-L" d="M18,546 l800,0" />
    </g>
    <g id="Symbols">
        <g id="Ultralight-S">
            <path d="M234.884,111 C234.884,94.367 248.367,80.884 265,80.884 C281.633,80.884 295.116,94.367 295.116,111 C295.116,127.633 281.633,141.116 265,141.116 C248.367,141.116 234.884,127.633 234.884,111 Z M230,111 C230,130.33 245.67,146 265,146 C284.33,146 300,130.33 300,111 C300,91.67 284.33,76 265,76 C245.67,76 230,91.67 230,111 Z" />
            <path d="M275.581,141.93 C275.581,136.086 270.844,131.349 265,131.349 C259.156,131.349 254.419,136.086 254.419,141.93 C254.419,143.279 255.512,144.372 256.86,144.372 C258.209,144.372 259.302,143.279 259.302,141.93 C259.302,138.784 261.853,136.233 265,136.233 C268.147,136.233 270.698,138.784 270.698,141.93 C270.698,143.279 271.791,144.372 273.14,144.372 C274.488,144.372 275.581,143.279 275.581,141.93 Z" />
            <path d="M250.124,142.69 C254.739,144.86 259.791,146 265,146 C270.209,146 275.261,144.86 279.876,142.69 C281.097,142.116 281.621,140.661 281.047,139.441 C280.473,138.22 279.019,137.696 277.798,138.27 C273.83,140.136 269.487,141.116 265,141.116 C260.513,141.116 256.17,140.136 252.202,138.27 C250.981,137.696 249.527,138.22 248.953,139.441 C248.379,140.661 248.903,142.116 250.124,142.69 Z" />
            <path d="M245.465,96.349 C245.465,93.652 247.652,91.465 250.349,91.465 C253.046,91.465 255.233,93.652 255.233,96.349 C255.233,99.046 253.046,101.233 250.349,101.233 C247.652,101.233 245.465,99.046 245.465,96.349 Z" />
            <path d="M238.953,109.372 C238.953,106.675 241.14,104.488 243.837,104.488 C246.534,104.488 248.721,106.675 248.721,109.372 C248.721,112.069 246.534,114.256 243.837,114.256 C241.14,114.256 238.953,112.069 238.953,109.372 Z" />
            <path d="M260.116,89.837 C260.116,87.14 262.303,84.953 265,84.953 C267.697,84.953 269.884,87.14 269.884,89.837 C269.884,92.534 267.697,94.721 265,94.721 C262.303,94.721 260.116,92.534 260.116,89.837 Z" />
            <path d="M274.767,96.349 C274.767,93.652 276.954,91.465 279.651,91.465 C282.348,91.465 284.535,93.652 284.535,96.349 C284.535,99.046 282.348,101.233 279.651,101.233 C276.954,101.233 274.767,99.046 274.767,96.349 Z" />
            <path d="M281.279,109.372 C281.279,106.675 283.466,104.488 286.163,104.488 C288.86,104.488 291.047,106.675 291.047,109.372 C291.047,112.069 288.86,114.256 286.163,114.256 C283.466,114.256 281.279,112.069 281.279,109.372 Z" />
        </g>
        <g id="Regular-S">
            <path d="M434.884,111 C434.884,94.367 448.367,80.884 465,80.884 C481.633,80.884 495.116,94.367 495.116,111 C495.116,127.633 481.633,141.116 465,141.116 C448.367,141.116 434.884,127.633 434.884,111 Z M430,111 C430,130.33 445.67,146 465,146 C484.33,146 500,130.33 500,111 C500,91.67 484.33,76 465,76 C445.67,76 430,91.67 430,111 Z" />
            <path d="M475.581,141.93 C475.581,136.086 470.844,131.349 465,131.349 C459.156,131.349 454.419,136.086 454.419,141.93 C454.419,143.279 455.512,144.372 456.86,144.372 C458.209,144.372 459.302,143.279 459.302,141.93 C459.302,138.784 461.853,136.233 465,136.233 C468.147,136.233 470.698,138.784 470.698,141.93 C470.698,143.279 471.791,144.372 473.14,144.372 C474.488,144.372 475.581,143.279 475.581,141.93 Z" />
            <path d="M450.124,142.69 C454.739,144.86 459.791,146 465,146 C470.209,146 475.261,144.86 479.876,142.69 C481.097,142.116 481.621,140.661 481.047,139.441 C480.473,138.22 479.019,137.696 477.798,138.27 C473.83,140.136 469.487,141.116 465,141.116 C460.513,141.116 456.17,140.136 452.202,138.27 C450.981,137.696 449.527,138.22 448.953,139.441 C448.379,140.661 448.903,142.116 450.124,142.69 Z" />
            <path d="M445.465,96.349 C445.465,93.652 447.652,91.465 450.349,91.465 C453.046,91.465 455.233,93.652 455.233,96.349 C455.233,99.046 453.046,101.233 450.349,101.233 C447.652,101.233 445.465,99.046 445.465,96.349 Z" />
            <path d="M438.953,109.372 C438.953,106.675 441.14,104.488 443.837,104.488 C446.534,104.488 448.721,106.675 448.721,109.372 C448.721,112.069 446.534,114.256 443.837,114.256 C441.14,114.256 438.953,112.069 438.953,109.372 Z" />
            <path d="M460.116,89.837 C460.116,87.14 462.303,84.953 465,84.953 C467.697,84.953 469.884,87.14 469.884,89.837 C469.884,92.534 467.697,94.721 465,94.721 C462.303,94.721 460.116,92.534 460.116,89.837 Z" />
            <path d="M474.767,96.349 C474.767,93.652 476.954,91.465 479.651,91.465 C482.348,91.465 484.535,93.652 484.535,96.349 C484.535,99.046 482.348,101.233 479.651,101.233 C476.954,101.233 474.767,99.046 474.767,96.349 Z" />
            <path d="M481.279,109.372 C481.279,106.675 483.466,104.488 486.163,104.488 C488.86,104.488 491.047,106.675 491.047,109.372 C491.047,112.069 488.86,114.256 486.163,114.256 C483.466,114.256 481.279,112.069 481.279,109.372 Z" />
        </g>
        <g id="Black-S">
            <path d="M634.884,111 C634.884,94.367 648.367,80.884 665,80.884 C681.633,80.884 695.116,94.367 695.116,111 C695.116,127.633 681.633,141.116 665,141.116 C648.367,141.116 634.884,127.633 634.884,111 Z M630,111 C630,130.33 645.67,146 665,146 C684.33,146 700,130.33 700,111 C700,91.67 684.33,76 665,76 C645.67,76 630,91.67 630,111 Z" />
            <path d="M675.581,141.93 C675.581,136.086 670.844,131.349 665,131.349 C659.156,131.349 654.419,136.086 654.419,141.93 C654.419,143.279 655.512,144.372 656.86,144.372 C658.209,144.372 659.302,143.279 659.302,141.93 C659.302,138.784 661.853,136.233 665,136.233 C668.147,136.233 670.698,138.784 670.698,141.93 C670.698,143.279 671.791,144.372 673.14,144.372 C674.488,144.372 675.581,143.279 675.581,141.93 Z" />
            <path d="M650.124,142.69 C654.739,144.86 659.791,146 665,146 C670.209,146 675.261,144.86 679.876,142.69 C681.097,142.116 681.621,140.661 681.047,139.441 C680.473,138.22 679.019,137.696 677.798,138.27 C673.83,140.136 669.487,141.116 665,141.116 C660.513,141.116 656.17,140.136 652.202,138.27 C650.981,137.696 649.527,138.22 648.953,139.441 C648.379,140.661 648.903,142.116 650.124,142.69 Z" />
            <path d="M645.465,96.349 C645.465,93.652 647.652,91.465 650.349,91.465 C653.046,91.465 655.233,93.652 655.233,96.349 C655.233,99.046 653.046,101.233 650.349,101.233 C647.652,101.233 645.465,99.046 645.465,96.349 Z" />
            <path d="M638.953,109.372 C638.953,106.675 641.14,104.488 643.837,104.488 C646.534,104.488 648.721,106.675 648.721,109.372 C648.721,112.069 646.534,114.256 643.837,114.256 C641.14,114.256 638.953,112.069 638.953,109.372 Z" />
            <path d="M660.116,89.837 C660.116,87.14 662.303,84.953 665,84.953 C667.697,84.953 669.884,87.14 669.884,89.837 C669.884,92.534 667.697,94.721 665,94.721 C662.303,94.721 660.116,92.534 660.116,89.837 Z" />
            <path d="M674.767,96.349 C674.767,93.652 676.954,91.465 679.651,91.465 C682.348,91.465 684.535,93.652 684.535,96.349 C684.535,99.046 682.348,101.233 679.651,101.233 C676.954,101.233 674.767,99.046 674.767,96.349 Z" />
            <path d="M681.279,109.372 C681.279,106.675 683.466,104.488 686.163,104.488 C688.86,104.488 691.047,106.675 691.047,109.372 C691.047,112.069 688.86,114.256 686.163,114.256 C683.466,114.256 681.279,112.069 681.279,109.372 Z" />
        </g>
    </g>
</svg>