<?xml version="1.0" encoding="UTF-8"?>
<svg height="600" width="800" xmlns="http://www.w3.org/2000/svg" xmlns:xlink="http://www.w3.org/1999/xlink">
    <g id="Notes" font-family="'LucidaGrande', 'Lucida Grande', sans-serif" font-size="13">
        <rect fill="white" height="600.0" width="800.0" x="0.0" y="0.0" />
        <g font-size="13">
            <text x="18.0" y="176.0">Small</text>
            <text x="18.0" y="376.0">Medium</text>
            <text x="18.0" y="576.0">Large</text>
        </g>
        <g font-size="9">
            <text x="250.0" y="30.0">Ultralight</text>
            <text x="450.0" y="30.0">Regular</text>
            <text x="650.0" y="30.0">Black</text>
            <text id="template-version" fill="#505050" text-anchor="end" x="785.0" y="575.0">Template v.3.0</text>
            <a href="https://github.com/swhitty/SwiftDraw">
                <text fill="#505050" text-anchor="end" x="785.0" y="590.0">https://github.com/swhitty/SwiftDraw</text>
            </a>
        </g>
    </g>
    <g id="Guides" stroke="rgb(39, 170, 225)" stroke-width="0.5">
        <path id="Capline-S" d="M18,76 l800,0" />
        <path id="H-reference" d="M85,145.755 L87.685,145.755 L113.369,79.287 L114.052,79.287 L114.052,76 L112.148,76 L85,145.755 Z M95.693,121.536 L130.996,121.536 L130.263,119.313 L96.474,119.313 L95.693,121.536 Z M139.15,145.755 L141.787,145.755 L114.638,76 L113.466,76 L113.466,79.287 L139.15,145.755 Z" stroke="none" />
        <path id="Baseline-S" d="M18,146 l800,0" />
        <path id="left-margin-Ultralight-S" d="M215.395,56 l0,110" />
        <path id="right-margin-Ultralight-S" d="M314.605,56 l0,110" />
        <path id="left-margin-Regular-S" d="M415.395,56 l0,110" />
        <path id="right-margin-Regular-S" d="M514.605,56 l0,110" />
        <path id="left-margin-Black-S" d="M615.395,56 l0,110" />
        <path id="right-margin-Black-S" d="M714.605,56 l0,110" />
        <path id="Capline-M" d="M18,276 l800,0" />
        <path id="Baseline-M" d="M18,346 l800,0" />
        <path id="Capline-L" d="M18,476 l800,0" />
        <path id="Baseline-L" d="M18,546 l800,0" />
    </g>
    <g id="Symbols">
        <g id="Ultralight-S">
            <path d="M265,85.211 C246.162,85.211 230.921,100.859 230.921,120.127 L230.921,132.184 C230.921,133.71 232.158,134.947 233.684,134.947 L296.316,134.947 C297.842,134.947 299.079,133.71 299.079,132.184 L299.079,120.127 C299.079,100.859 283.838,85.211 265,85.211 Z M265,90.737 C280.753,90.737 293.553,103.879 293.553,120.127 L293.553,132.184 L296.316,129.421 L233.684,129.421 L236.447,132.184 L236.447,120.127 C236.447,103.879 249.247,90.737 265,90.737 Z" />
            <path d="M299.079,132.184 L299.079,143.237 L301.842,140.474 L228.158,140.474 L230.921,143.237 L230.921,132.184 L228.158,134.947 L301.842,134.947 L299.079,132.184 Z M304.605,132.184 C304.605,130.658 303.368,129.421 301.842,129.421 L228.158,129.421 C226.632,129.421 225.395,130.658 225.395,132.184 L225.395,143.237 C225.395,144.763 226.632,146 228.158,146 L301.842,146 C303.368,146 304.605,144.763 304.605,143.237 L304.605,132.184 Z" />
            <path d="M267.763,78.763 L267.763,111.921 L270.526,109.158 L259.474,109.158 L262.237,111.921 L262.237,78.763 L259.474,81.526 L270.526,81.526 L267.763,78.763 Z M273.289,78.763 C273.289,77.237 272.052,76 270.526,76 L259.474,76 C257.948,76 256.711,77.237 256.711,78.763 L256.711,111.921 C256.711,113.447 257.948,114.684 259.474,114.684 L270.526,114.684 C272.052,114.684 273.289,113.447 273.289,111.921 L273.289,78.763 Z" />
        </g>
        <g id="Regular-S">
            <path d="M465,85.211 C446.162,85.211 430.921,100.859 430.921,120.127 L430.921,132.184 C430.921,133.71 432.158,134.947 433.684,134.947 L496.316,134.947 C497.842,134.947 499.079,133.71 499.079,132.184 L499.079,120.127 C499.079,100.859 483.838,85.211 465,85.211 Z M465,90.737 C480.753,90.737 493.553,103.879 493.553,120.127 L493.553,132.184 L496.316,129.421 L433.684,129.421 L436.447,132.184 L436.447,120.127 C436.447,103.879 449.247,90.737 465,90.737 Z" />
            <path d="M499.079,132.184 L499.079,143.237 L501.842,140.474 L428.158,140.474 L430.921,143.237 L430.921,132.184 L428.158,134.947 L501.842,134.947 L499.079,132.184 Z M504.605,132.184 C504.605,130.658 503.368,129.421 501.842,129.421 L428.158,129.421 C426.632,129.421 425.395,130.658 425.395,132.184 L425.395,143.237 C425.395,144.763 426.632,146 428.158,146 L501.842,146 C503.368,146 504.605,144.763 504.605,143.237 L504.605,132.184 Z" />
            <path d="M467.763,78.763 L467.763,111.921 L470.526,109.158 L459.474,109.158 L462.237,111.921 L462.237,78.763 L459.474,81.526 L470.526,81.526 L467.763,78.763 Z M473.289,78.763 C473.289,77.237 472.052,76 470.526,76 L459.474,76 C457.948,76 456.711,77.237 456.711,78.763 L456.711,111.921 C456.711,113.447 457.948,114.684 459.474,114.684 L470.526,114.684 C472.052,114.684 473.289,113.447 473.289,111.921 L473.289,78.763 Z" />
        </g>
        <g id="Black-S">
            <path d="M665,85.211 C646.162,85.211 630.921,100.859 630.921,120.127 L630.921,132.184 C630.921,133.71 632.158,134.947 633.684,134.947 L696.316,134.947 C697.842,134.947 699.079,133.71 699.079,132.184 L699.079,120.127 C699.079,100.859 683.838,85.211 665,85.211 Z M665,90.737 C680.753,90.737 693.553,103.879 693.553,120.127 L693.553,132.184 L696.316,129.421 L633.684,129.421 L636.447,132.184 L636.447,120.127 C636.447,103.879 649.247,90.737 665,90.737 Z" />
            <path d="M699.079,132.184 L699.079,143.237 L701.842,140.474 L628.158,140.474 L630.921,143.237 L630.921,132.184 L628.158,134.947 L701.842,134.947 L699.079,132.184 Z M704.605,132.184 C704.605,130.658 703.368,129.421 701.842,129.421 L628.158,129.421 C626.632,129.421 625.395,130.658 625.395,132.184 L625.395,143.237 C625.395,144.763 626.632,146 628.158,146 L701.842,146 C703.368,146 704.605,144.763 704.605,143.237 L704.605,132.184 Z" />
            <path d="M667.763,78.763 L667.763,111.921 L670.526,109.158 L659.474,109.158 L662.237,111.921 L662.237,78.763 L659.474,81.526 L670.526,81.526 L667.763,78.763 Z M673.289,78.763 C673.289,77.237 672.052,76 670.526,76 L659.474,76 C657.948,76 656.711,77.237 656.711,78.763 L656.711,111.921 C656.711,113.447 657.948,114.684 659.474,114.684 L670.526,114.684 C672.052,114.684 673.289,113.447 673.289,111.921 L673.289,78.763 Z" />
        </g>
    </g>
</svg>