<?xml version="1.0" encoding="UTF-8"?>
<svg height="600" width="800" xmlns="http://www.w3.org/2000/svg" xmlns:xlink="http://www.w3.org/1999/xlink">
    <g id="Notes" font-family="'LucidaGrande', 'Lucida Grande', sans-serif" font-size="13">
        <rect fill="white" height="600.0" width="800.0" x="0.0" y="0.0" />
        <g font-size="13">
            <text x="18.0" y="176.0">Small</text>
            <text x="18.0" y="376.0">Medium</text>
            <text x="18.0" y="576.0">Large</text>
        </g>
        <g font-size="9">
            <text x="250.0" y="30.0">Ultralight</text>
            <text x="450.0" y="30.0">Regular</text>
            <text x="650.0" y="30.0">Black</text>
            <text id="template-version" fill="#505050" text-anchor="end" x="785.0" y="575.0">Template v.3.0</text>
            <a href="https://github.com/swhitty/SwiftDraw">
                <text fill="#505050" text-anchor="end" x="785.0" y="590.0">https://github.com/swhitty/SwiftDraw</text>
            </a>
        </g>
    </g>
    <g id="Guides" stroke="rgb(39, 170, 225)" stroke-width="0.5">
        <path id="Capline-S" d="M18,76 l800,0" />
        <path id="H-reference" d="M85,145.755 L87.685,145.755 L113.369,79.287 L114.052,79.287 L114.052,76 L112.148,76 L85,145.755 Z M95.693,121.536 L130.996,121.536 L130.263,119.313 L96.474,119.313 L95.693,121.536 Z M139.15,145.755 L141.787,145.755 L114.638,76 L113.466,76 L113.466,79.287 L139.15,145.755 Z" stroke="none" />
        <path id="Baseline-S" d="M18,146 l800,0" />
        <path id="left-margin-Ultralight-S" d="M220.875,56 l0,110" />
        <path id="right-margin-Ultralight-S" d="M309.125,56 l0,110" />
        <path id="left-margin-Regular-S" d="M420.875,56 l0,110" />
        <path id="right-margin-Regular-S" d="M509.125,56 l0,110" />
        <path id="left-margin-Black-S" d="M620.875,56 l0,110" />
        <path id="right-margin-Black-S" d="M709.125,56 l0,110" />
        <path id="Capline-M" d="M18,276 l800,0" />
        <path id="Baseline-M" d="M18,346 l800,0" />
        <path id="Capline-L" d="M18,476 l800,0" />
        <path id="Baseline-L" d="M18,546 l800,0" />
    </g>
    <g id="Symbols">
        <g id="Ultralight-S">
            <path d="M236.779,116.241 C239.044,116.433 243.164,117.392 246.33,118.61 C249.908,119.987 251.876,121.532 251.876,122.375 C251.876,123.29 251.225,123.594 248.549,123.513 C248,123.496 247.467,123.462 246.59,123.394 C244.986,123.269 244.634,123.246 243.985,123.25 L244.223,123.259 C241.956,123.067 239.224,123.241 236.941,123.929 C233.286,125.031 230.874,127.416 230.875,131.125 C230.876,137.914 241.325,141.895 257.629,144.224 C260.751,144.67 264.454,145.026 268.621,145.304 C273.194,145.609 278.083,145.805 282.972,145.913 C284.682,145.951 286.27,145.976 287.696,145.989 C288.196,145.994 288.64,145.997 289.024,145.999 C289.255,146 289.414,146 289.5,146 C290.95,146 292.125,144.825 292.125,143.375 C292.125,141.925 290.95,140.75 289.5,140.75 C289.185,140.75 288.587,140.747 287.746,140.739 C286.341,140.726 284.775,140.702 283.088,140.664 C278.272,140.557 273.456,140.365 268.97,140.066 C264.924,139.796 261.347,139.452 258.371,139.027 C251.912,138.104 246.188,136.795 242.091,135.235 C238.078,133.706 236.125,132.112 236.125,131.125 C236.125,129.224 239.704,128.145 243.779,128.491 L244.016,128.5 C244.45,128.497 244.774,128.518 246.182,128.628 C247.136,128.702 247.736,128.74 248.39,128.76 C253.643,128.92 257.125,127.293 257.126,122.375 C257.127,116.012 246.08,111.762 237.223,111.009 C235.778,110.887 234.508,111.958 234.385,113.403 C234.262,114.847 235.334,116.118 236.779,116.241 Z" />
            <path d="M238.856,104.981 L249.356,94.481 C250.381,93.456 250.381,91.794 249.356,90.769 C248.331,89.744 246.669,89.744 245.644,90.769 L235.144,101.269 C234.119,102.294 234.119,103.956 235.144,104.981 C236.169,106.006 237.831,106.006 238.856,104.981 Z" />
            <path d="M272,81.25 L289.5,81.25 L287.644,80.481 L294.644,87.481 C295.669,88.506 297.331,88.506 298.356,87.481 C299.381,86.456 299.381,84.794 298.356,83.769 L291.356,76.769 C290.864,76.277 290.196,76 289.5,76 L272,76 C270.55,76 269.375,77.175 269.375,78.625 C269.375,80.075 270.55,81.25 272,81.25 Z" />
            <path d="M273.644,94.481 L284.144,104.981 L286,100.5 L258,100.5 L259.856,101.269 L249.356,90.769 L247.5,95.25 L275.5,95.25 L273.644,94.481 Z M277.356,90.769 C276.864,90.277 276.196,90 275.5,90 L247.5,90 C245.161,90 243.99,92.828 245.644,94.481 L256.144,104.981 C256.636,105.474 257.304,105.75 258,105.75 L286,105.75 C288.339,105.75 289.51,102.923 287.856,101.269 L277.356,90.769 Z" />
            <path d="M299.125,106.625 L299.125,96.125 C299.125,94.675 297.95,93.5 296.5,93.5 C295.05,93.5 293.875,94.675 293.875,96.125 L293.875,106.625 C293.875,108.075 295.05,109.25 296.5,109.25 C297.95,109.25 299.125,108.075 299.125,106.625 Z" />
            <path d="M271.125,120.625 L271.125,113.625 C271.125,112.175 269.95,111 268.5,111 C267.05,111 265.875,112.175 265.875,113.625 L265.875,120.625 C265.875,122.075 267.05,123.25 268.5,123.25 C269.95,123.25 271.125,122.075 271.125,120.625 Z" />
            <path d="M281.625,127.625 L281.625,113.625 C281.625,112.175 280.45,111 279,111 C277.55,111 276.375,112.175 276.375,113.625 L276.375,127.625 C276.375,129.075 277.55,130.25 279,130.25 C280.45,130.25 281.625,129.075 281.625,127.625 Z" />
        </g>
        <g id="Regular-S">
            <path d="M436.779,116.241 C439.044,116.433 443.164,117.392 446.33,118.61 C449.908,119.987 451.876,121.532 451.876,122.375 C451.876,123.29 451.225,123.594 448.549,123.513 C448,123.496 447.467,123.462 446.59,123.394 C444.986,123.269 444.634,123.246 443.985,123.25 L444.223,123.259 C441.956,123.067 439.224,123.241 436.941,123.929 C433.286,125.031 430.874,127.416 430.875,131.125 C430.876,137.914 441.325,141.895 457.629,144.224 C460.751,144.67 464.454,145.026 468.621,145.304 C473.194,145.609 478.083,145.805 482.972,145.913 C484.682,145.951 486.27,145.976 487.696,145.989 C488.196,145.994 488.64,145.997 489.024,145.999 C489.255,146 489.414,146 489.5,146 C490.95,146 492.125,144.825 492.125,143.375 C492.125,141.925 490.95,140.75 489.5,140.75 C489.185,140.75 488.587,140.747 487.746,140.739 C486.341,140.726 484.775,140.702 483.088,140.664 C478.272,140.557 473.456,140.365 468.97,140.066 C464.924,139.796 461.346,139.452 458.371,139.027 C451.912,138.104 446.188,136.795 442.091,135.235 C438.078,133.706 436.125,132.112 436.125,131.125 C436.125,129.224 439.704,128.145 443.779,128.491 L444.016,128.5 C444.45,128.497 444.774,128.518 446.182,128.628 C447.136,128.702 447.736,128.74 448.39,128.76 C453.643,128.92 457.125,127.293 457.126,122.375 C457.127,116.012 446.08,111.762 437.223,111.009 C435.778,110.887 434.508,111.958 434.385,113.403 C434.262,114.847 435.334,116.118 436.779,116.241 Z" />
            <path d="M438.856,104.981 L449.356,94.481 C450.381,93.456 450.381,91.794 449.356,90.769 C448.331,89.744 446.669,89.744 445.644,90.769 L435.144,101.269 C434.119,102.294 434.119,103.956 435.144,104.981 C436.169,106.006 437.831,106.006 438.856,104.981 Z" />
            <path d="M472,81.25 L489.5,81.25 L487.644,80.481 L494.644,87.481 C495.669,88.506 497.331,88.506 498.356,87.481 C499.381,86.456 499.381,84.794 498.356,83.769 L491.356,76.769 C490.864,76.277 490.196,76 489.5,76 L472,76 C470.55,76 469.375,77.175 469.375,78.625 C469.375,80.075 470.55,81.25 472,81.25 Z" />
            <path d="M473.644,94.481 L484.144,104.981 L486,100.5 L458,100.5 L459.856,101.269 L449.356,90.769 L447.5,95.25 L475.5,95.25 L473.644,94.481 Z M477.356,90.769 C476.864,90.277 476.196,90 475.5,90 L447.5,90 C445.161,90 443.99,92.828 445.644,94.481 L456.144,104.981 C456.636,105.474 457.304,105.75 458,105.75 L486,105.75 C488.339,105.75 489.51,102.923 487.856,101.269 L477.356,90.769 Z" />
            <path d="M499.125,106.625 L499.125,96.125 C499.125,94.675 497.95,93.5 496.5,93.5 C495.05,93.5 493.875,94.675 493.875,96.125 L493.875,106.625 C493.875,108.075 495.05,109.25 496.5,109.25 C497.95,109.25 499.125,108.075 499.125,106.625 Z" />
            <path d="M471.125,120.625 L471.125,113.625 C471.125,112.175 469.95,111 468.5,111 C467.05,111 465.875,112.175 465.875,113.625 L465.875,120.625 C465.875,122.075 467.05,123.25 468.5,123.25 C469.95,123.25 471.125,122.075 471.125,120.625 Z" />
            <path d="M481.625,127.625 L481.625,113.625 C481.625,112.175 480.45,111 479,111 C477.55,111 476.375,112.175 476.375,113.625 L476.375,127.625 C476.375,129.075 477.55,130.25 479,130.25 C480.45,130.25 481.625,129.075 481.625,127.625 Z" />
        </g>
        <g id="Black-S">
            <path d="M636.779,116.241 C639.044,116.433 643.164,117.392 646.33,118.61 C649.908,119.987 651.876,121.532 651.876,122.375 C651.876,123.29 651.225,123.594 648.549,123.513 C648,123.496 647.467,123.462 646.59,123.394 C644.986,123.269 644.634,123.246 643.985,123.25 L644.223,123.259 C641.956,123.067 639.224,123.241 636.941,123.929 C633.286,125.031 630.874,127.416 630.875,131.125 C630.876,137.914 641.325,141.895 657.629,144.224 C660.751,144.67 664.454,145.026 668.621,145.304 C673.193,145.609 678.083,145.805 682.972,145.913 C684.682,145.951 686.27,145.976 687.696,145.989 C688.196,145.994 688.64,145.997 689.024,145.999 C689.255,146 689.414,146 689.5,146 C690.95,146 692.125,144.825 692.125,143.375 C692.125,141.925 690.95,140.75 689.5,140.75 C689.185,140.75 688.587,140.747 687.746,140.739 C686.341,140.726 684.775,140.702 683.088,140.664 C678.272,140.557 673.456,140.365 668.97,140.066 C664.924,139.796 661.346,139.452 658.371,139.027 C651.912,138.104 646.188,136.795 642.091,135.235 C638.078,133.706 636.125,132.112 636.125,131.125 C636.125,129.224 639.704,128.145 643.779,128.491 L644.016,128.5 C644.45,128.497 644.774,128.518 646.182,128.628 C647.136,128.702 647.736,128.74 648.39,128.76 C653.643,128.92 657.125,127.293 657.126,122.375 C657.127,116.012 646.08,111.762 637.223,111.009 C635.778,110.887 634.508,111.958 634.385,113.403 C634.262,114.847 635.334,116.118 636.779,116.241 Z" />
            <path d="M638.856,104.981 L649.356,94.481 C650.381,93.456 650.381,91.794 649.356,90.769 C648.331,89.744 646.669,89.744 645.644,90.769 L635.144,101.269 C634.119,102.294 634.119,103.956 635.144,104.981 C636.169,106.006 637.831,106.006 638.856,104.981 Z" />
            <path d="M672,81.25 L689.5,81.25 L687.644,80.481 L694.644,87.481 C695.669,88.506 697.331,88.506 698.356,87.481 C699.381,86.456 699.381,84.794 698.356,83.769 L691.356,76.769 C690.864,76.277 690.196,76 689.5,76 L672,76 C670.55,76 669.375,77.175 669.375,78.625 C669.375,80.075 670.55,81.25 672,81.25 Z" />
            <path d="M673.644,94.481 L684.144,104.981 L686,100.5 L658,100.5 L659.856,101.269 L649.356,90.769 L647.5,95.25 L675.5,95.25 L673.644,94.481 Z M677.356,90.769 C676.864,90.277 676.196,90 675.5,90 L647.5,90 C645.161,90 643.99,92.828 645.644,94.481 L656.144,104.981 C656.636,105.474 657.304,105.75 658,105.75 L686,105.75 C688.339,105.75 689.51,102.923 687.856,101.269 L677.356,90.769 Z" />
            <path d="M699.125,106.625 L699.125,96.125 C699.125,94.675 697.95,93.5 696.5,93.5 C695.05,93.5 693.875,94.675 693.875,96.125 L693.875,106.625 C693.875,108.075 695.05,109.25 696.5,109.25 C697.95,109.25 699.125,108.075 699.125,106.625 Z" />
            <path d="M671.125,120.625 L671.125,113.625 C671.125,112.175 669.95,111 668.5,111 C667.05,111 665.875,112.175 665.875,113.625 L665.875,120.625 C665.875,122.075 667.05,123.25 668.5,123.25 C669.95,123.25 671.125,122.075 671.125,120.625 Z" />
            <path d="M681.625,127.625 L681.625,113.625 C681.625,112.175 680.45,111 679,111 C677.55,111 676.375,112.175 676.375,113.625 L676.375,127.625 C676.375,129.075 677.55,130.25 679,130.25 C680.45,130.25 681.625,129.075 681.625,127.625 Z" />
        </g>
    </g>
</svg>