<?xml version="1.0" encoding="UTF-8"?>
<svg height="600" width="800" xmlns="http://www.w3.org/2000/svg" xmlns:xlink="http://www.w3.org/1999/xlink">
    <g id="Notes" font-family="'LucidaGrande', 'Lucida Grande', sans-serif" font-size="13">
        <rect fill="white" height="600.0" width="800.0" x="0.0" y="0.0" />
        <g font-size="13">
            <text x="18.0" y="176.0">Small</text>
            <text x="18.0" y="376.0">Medium</text>
            <text x="18.0" y="576.0">Large</text>
        </g>
        <g font-size="9">
            <text x="250.0" y="30.0">Ultralight</text>
            <text x="450.0" y="30.0">Regular</text>
            <text x="650.0" y="30.0">Black</text>
            <text id="template-version" fill="#505050" text-anchor="end" x="785.0" y="575.0">Template v.3.0</text>
            <a href="https://github.com/swhitty/SwiftDraw">
                <text fill="#505050" text-anchor="end" x="785.0" y="590.0">https://github.com/swhitty/SwiftDraw</text>
            </a>
        </g>
    </g>
    <g id="Guides" stroke="rgb(39, 170, 225)" stroke-width="0.5">
        <path id="Capline-S" d="M18,76 l800,0" />
        <path id="H-reference" d="M85,145.755 L87.685,145.755 L113.369,79.287 L114.052,79.287 L114.052,76 L112.148,76 L85,145.755 Z M95.693,121.536 L130.996,121.536 L130.263,119.313 L96.474,119.313 L95.693,121.536 Z M139.15,145.755 L141.787,145.755 L114.638,76 L113.466,76 L113.466,79.287 L139.15,145.755 Z" stroke="none" />
        <path id="Baseline-S" d="M18,146 l800,0" />
        <path id="left-margin-Ultralight-S" d="M221,56 l0,110" />
        <path id="right-margin-Ultralight-S" d="M309,56 l0,110" />
        <path id="left-margin-Regular-S" d="M421,56 l0,110" />
        <path id="right-margin-Regular-S" d="M509,56 l0,110" />
        <path id="left-margin-Black-S" d="M621,56 l0,110" />
        <path id="right-margin-Black-S" d="M709,56 l0,110" />
        <path id="Capline-M" d="M18,276 l800,0" />
        <path id="Baseline-M" d="M18,346 l800,0" />
        <path id="Capline-L" d="M18,476 l800,0" />
        <path id="Baseline-L" d="M18,546 l800,0" />
    </g>
    <g id="Symbols">
        <g id="Ultralight-S">
            <path d="M241.667,114.621 L241.667,143.586 C241.667,144.919 242.747,146 244.08,146 L285.92,146 C287.253,146 288.333,144.919 288.333,143.586 L288.333,114.621 C288.333,113.981 288.079,113.367 287.626,112.914 L266.707,91.994 C265.764,91.052 264.236,91.052 263.293,91.994 L242.374,112.914 C241.921,113.367 241.667,113.981 241.667,114.621 Z M246.494,114.621 L245.787,116.327 L266.707,95.408 L263.293,95.408 L284.213,116.327 L283.506,114.621 L283.506,143.586 L285.92,141.172 L244.08,141.172 L246.494,143.586 L246.494,114.621 Z" />
            <path d="M232.15,107.517 C230.893,108.774 230.893,110.812 232.15,112.069 C233.406,113.326 235.444,113.326 236.701,112.069 L232.15,107.517 Z M265,79.218 L267.276,76.943 C266.672,76.339 265.853,76 265,76 C264.146,76 263.328,76.339 262.724,76.943 L265,79.218 Z M293.299,112.069 C294.556,113.326 296.594,113.326 297.85,112.069 C299.107,110.812 299.107,108.774 297.85,107.517 L293.299,112.069 Z M236.701,112.069 L267.276,81.494 L262.724,76.943 L232.15,107.517 L236.701,112.069 Z M262.724,81.494 L293.299,112.069 L297.85,107.517 L267.276,76.943 L262.724,81.494 Z" />
            <path d="M256.954,125.08 L273.046,125.08 C274.379,125.08 275.46,124 275.46,122.667 C275.46,121.334 274.379,120.253 273.046,120.253 L256.954,120.253 C255.621,120.253 254.54,121.334 254.54,122.667 C254.54,124 255.621,125.08 256.954,125.08 Z" />
            <path d="M262.586,114.621 L262.586,130.713 C262.586,132.046 263.667,133.126 265,133.126 C266.333,133.126 267.414,132.046 267.414,130.713 L267.414,114.621 C267.414,113.288 266.333,112.207 265,112.207 C263.667,112.207 262.586,113.288 262.586,114.621 Z" />
        </g>
        <g id="Regular-S">
            <path d="M441.667,114.621 L441.667,143.586 C441.667,144.919 442.747,146 444.08,146 L485.92,146 C487.253,146 488.333,144.919 488.333,143.586 L488.333,114.621 C488.333,113.981 488.079,113.367 487.626,112.914 L466.707,91.994 C465.764,91.052 464.236,91.052 463.293,91.994 L442.374,112.914 C441.921,113.367 441.667,113.981 441.667,114.621 Z M446.494,114.621 L445.787,116.327 L466.707,95.408 L463.293,95.408 L484.213,116.327 L483.506,114.621 L483.506,143.586 L485.92,141.172 L444.08,141.172 L446.494,143.586 L446.494,114.621 Z" />
            <path d="M432.15,107.517 C430.893,108.774 430.893,110.812 432.15,112.069 C433.406,113.326 435.444,113.326 436.701,112.069 L432.15,107.517 Z M465,79.218 L467.276,76.943 C466.672,76.339 465.854,76 465,76 C464.146,76 463.328,76.339 462.724,76.943 L465,79.218 Z M493.299,112.069 C494.556,113.326 496.594,113.326 497.85,112.069 C499.107,110.812 499.107,108.774 497.85,107.517 L493.299,112.069 Z M436.701,112.069 L467.276,81.494 L462.724,76.943 L432.15,107.517 L436.701,112.069 Z M462.724,81.494 L493.299,112.069 L497.85,107.517 L467.276,76.943 L462.724,81.494 Z" />
            <path d="M456.954,125.08 L473.046,125.08 C474.379,125.08 475.46,124 475.46,122.667 C475.46,121.334 474.379,120.253 473.046,120.253 L456.954,120.253 C455.621,120.253 454.54,121.334 454.54,122.667 C454.54,124 455.621,125.08 456.954,125.08 Z" />
            <path d="M462.586,114.621 L462.586,130.713 C462.586,132.046 463.667,133.126 465,133.126 C466.333,133.126 467.414,132.046 467.414,130.713 L467.414,114.621 C467.414,113.288 466.333,112.207 465,112.207 C463.667,112.207 462.586,113.288 462.586,114.621 Z" />
        </g>
        <g id="Black-S">
            <path d="M641.667,114.621 L641.667,143.586 C641.667,144.919 642.747,146 644.08,146 L685.919,146 C687.253,146 688.333,144.919 688.333,143.586 L688.333,114.621 C688.333,113.981 688.079,113.367 687.626,112.914 L666.707,91.994 C665.764,91.052 664.236,91.052 663.293,91.994 L642.374,112.914 C641.921,113.367 641.667,113.981 641.667,114.621 Z M646.494,114.621 L645.787,116.327 L666.707,95.408 L663.293,95.408 L684.213,116.327 L683.506,114.621 L683.506,143.586 L685.919,141.172 L644.08,141.172 L646.494,143.586 L646.494,114.621 Z" />
            <path d="M632.15,107.517 C630.893,108.774 630.893,110.812 632.15,112.069 C633.406,113.326 635.444,113.326 636.701,112.069 L632.15,107.517 Z M665,79.218 L667.276,76.943 C666.672,76.339 665.853,76 665,76 C664.146,76 663.328,76.339 662.724,76.943 L665,79.218 Z M693.299,112.069 C694.556,113.326 696.594,113.326 697.85,112.069 C699.107,110.812 699.107,108.774 697.85,107.517 L693.299,112.069 Z M636.701,112.069 L667.276,81.494 L662.724,76.943 L632.15,107.517 L636.701,112.069 Z M662.724,81.494 L693.299,112.069 L697.85,107.517 L667.276,76.943 L662.724,81.494 Z" />
            <path d="M656.954,125.08 L673.046,125.08 C674.379,125.08 675.46,124 675.46,122.667 C675.46,121.334 674.379,120.253 673.046,120.253 L656.954,120.253 C655.621,120.253 654.54,121.334 654.54,122.667 C654.54,124 655.621,125.08 656.954,125.08 Z" />
            <path d="M662.586,114.621 L662.586,130.713 C662.586,132.046 663.667,133.126 665,133.126 C666.333,133.126 667.414,132.046 667.414,130.713 L667.414,114.621 C667.414,113.288 666.333,112.207 665,112.207 C663.667,112.207 662.586,113.288 662.586,114.621 Z" />
        </g>
    </g>
</svg>