<?xml version="1.0" encoding="UTF-8"?>
<svg height="600" width="800" xmlns="http://www.w3.org/2000/svg" xmlns:xlink="http://www.w3.org/1999/xlink">
    <g id="Notes" font-family="'LucidaGrande', 'Lucida Grande', sans-serif" font-size="13">
        <rect fill="white" height="600.0" width="800.0" x="0.0" y="0.0" />
        <g font-size="13">
            <text x="18.0" y="176.0">Small</text>
            <text x="18.0" y="376.0">Medium</text>
            <text x="18.0" y="576.0">Large</text>
        </g>
        <g font-size="9">
            <text x="250.0" y="30.0">Ultralight</text>
            <text x="450.0" y="30.0">Regular</text>
            <text x="650.0" y="30.0">Black</text>
            <text id="template-version" fill="#505050" text-anchor="end" x="785.0" y="575.0">Template v.3.0</text>
            <a href="https://github.com/swhitty/SwiftDraw">
                <text fill="#505050" text-anchor="end" x="785.0" y="590.0">https://github.com/swhitty/SwiftDraw</text>
            </a>
        </g>
    </g>
    <g id="Guides" stroke="rgb(39, 170, 225)" stroke-width="0.5">
        <path id="Capline-S" d="M18,76 l800,0" />
        <path id="H-reference" d="M85,145.755 L87.685,145.755 L113.369,79.287 L114.052,79.287 L114.052,76 L112.148,76 L85,145.755 Z M95.693,121.536 L130.996,121.536 L130.263,119.313 L96.474,119.313 L95.693,121.536 Z M139.15,145.755 L141.787,145.755 L114.638,76 L113.466,76 L113.466,79.287 L139.15,145.755 Z" stroke="none" />
        <path id="Baseline-S" d="M18,146 l800,0" />
        <path id="left-margin-Ultralight-S" d="M221,56 l0,110" />
        <path id="right-margin-Ultralight-S" d="M309,56 l0,110" />
        <path id="left-margin-Regular-S" d="M421,56 l0,110" />
        <path id="right-margin-Regular-S" d="M509,56 l0,110" />
        <path id="left-margin-Black-S" d="M621,56 l0,110" />
        <path id="right-margin-Black-S" d="M709,56 l0,110" />
        <path id="Capline-M" d="M18,276 l800,0" />
        <path id="Baseline-M" d="M18,346 l800,0" />
        <path id="Capline-L" d="M18,476 l800,0" />
        <path id="Baseline-L" d="M18,546 l800,0" />
    </g>
    <g id="Symbols">
        <g id="Ultralight-S">
            <path d="M286.977,101.805 C286.977,115.312 275.58,128.093 265,128.093 C254.42,128.093 243.023,115.312 243.023,101.805 C243.023,90.026 252.116,80.884 265,80.884 C277.884,80.884 286.977,90.026 286.977,101.805 Z M291.86,101.805 C291.86,87.334 280.587,76 265,76 C249.413,76 238.14,87.334 238.14,101.805 C238.14,117.892 251.59,132.977 265,132.977 C278.41,132.977 291.86,117.892 291.86,101.805 Z" />
            <path d="M264.874,80.141 C271.088,86.553 275.581,96.283 275.581,104.488 C275.581,112.526 271.013,122.378 264.858,128.852 C263.929,129.83 263.968,131.376 264.945,132.305 C265.923,133.234 267.469,133.195 268.398,132.217 C275.361,124.893 280.465,113.885 280.465,104.488 C280.465,94.922 275.427,84.014 268.382,76.743 C267.443,75.774 265.897,75.75 264.929,76.688 C263.96,77.627 263.936,79.173 264.874,80.141 Z" />
            <path d="M261.693,76.669 C253.953,83.998 249.535,93.861 249.535,104.488 C249.535,114.917 254.041,124.923 261.676,132.292 C262.647,133.228 264.193,133.201 265.129,132.231 C266.066,131.26 266.038,129.714 265.068,128.778 C258.36,122.304 254.419,113.552 254.419,104.488 C254.419,95.229 258.266,86.639 265.051,80.215 C266.03,79.288 266.072,77.742 265.145,76.763 C264.218,75.784 262.672,75.742 261.693,76.669 Z" />
            <path d="M261.262,100.4 C261.776,100.503 262.656,100.65 263.813,100.796 C266.862,101.181 270.006,101.314 272.986,101.044 C274.41,100.914 275.755,100.693 277.007,100.37 C279.07,99.836 281.11,99.119 283.099,98.265 C284.672,97.59 286.125,96.867 287.429,96.142 C288.222,95.701 288.798,95.351 289.124,95.138 C290.254,94.401 290.572,92.888 289.835,91.759 C289.098,90.629 287.585,90.311 286.455,91.048 C286.221,91.201 285.743,91.492 285.055,91.874 C283.89,92.522 282.584,93.172 281.173,93.778 C279.401,94.539 277.592,95.174 275.784,95.642 C274.804,95.895 273.718,96.073 272.544,96.18 C269.963,96.415 267.152,96.295 264.424,95.951 C263.82,95.875 263.27,95.793 262.788,95.712 C262.506,95.665 262.314,95.63 262.224,95.612 C260.902,95.346 259.615,96.202 259.349,97.525 C259.084,98.847 259.94,100.134 261.262,100.4 Z" />
            <path d="M239.49,106.672 C239.599,106.727 239.799,106.825 240.079,106.961 C240.542,107.184 241.067,107.432 241.645,107.699 C243.296,108.461 245.048,109.223 246.829,109.935 C248.306,110.526 249.741,111.057 251.113,111.515 C252.357,111.929 253.535,112.279 254.64,112.555 C254.641,112.555 254.641,112.555 254.642,112.556 C258.9,113.62 263.336,113.821 267.31,113.537 C267.889,113.496 268.313,113.454 268.558,113.423 C269.896,113.256 270.845,112.035 270.678,110.697 C270.511,109.359 269.29,108.41 267.952,108.577 C267.79,108.597 267.452,108.631 266.962,108.666 C263.459,108.916 259.504,108.737 255.827,107.818 C255.826,107.817 255.826,107.817 255.825,107.817 C254.849,107.573 253.789,107.259 252.658,106.882 C251.382,106.457 250.035,105.958 248.643,105.401 C246.946,104.722 245.27,103.993 243.692,103.265 C243.14,103.01 242.641,102.774 242.203,102.563 C241.943,102.437 241.764,102.349 241.674,102.304 C240.468,101.701 239.001,102.19 238.398,103.396 C237.795,104.603 238.284,106.069 239.49,106.672 Z" />
            <path d="M272.372,128.431 L272.363,128.48 C272.1,129.802 272.959,131.088 274.282,131.35 C275.605,131.613 276.89,130.754 277.153,129.431 L277.163,129.383 C277.425,128.06 276.566,126.775 275.243,126.512 C273.92,126.249 272.635,127.108 272.372,128.431 Z M272.362,128.483 L270.093,139.985 L271.089,138.456 C270.983,138.531 270.761,138.678 270.45,138.873 C269.923,139.204 269.352,139.535 268.762,139.841 C267.984,140.246 267.238,140.574 266.563,140.798 C265.926,141.01 265.388,141.116 265,141.116 C264.612,141.116 264.074,141.01 263.437,140.798 C262.762,140.574 262.016,140.246 261.238,139.841 C260.648,139.535 260.077,139.204 259.55,138.873 C259.239,138.678 259.017,138.531 258.911,138.456 L259.907,139.985 L257.628,128.434 L254.831,131.316 L264.599,132.944 C264.861,132.987 265.128,132.988 265.39,132.945 L275.148,131.366 L272.362,128.483 Z M277.154,129.428 C277.483,127.759 276.047,126.273 274.368,126.545 L264.61,128.124 L265.401,128.126 L255.634,126.498 C253.951,126.218 252.507,127.706 252.837,129.38 L255.116,140.93 C255.238,141.549 255.595,142.097 256.113,142.459 C256.747,142.902 257.759,143.537 258.984,144.174 C259.975,144.689 260.95,145.118 261.896,145.433 C262.992,145.797 264.023,146 265,146 C265.977,146 267.008,145.797 268.104,145.433 C269.05,145.118 270.025,144.689 271.016,144.174 C272.241,143.537 273.253,142.902 273.887,142.459 C274.405,142.097 274.762,141.549 274.884,140.93 L277.154,129.428 Z" />
        </g>
        <g id="Regular-S">
            <path d="M486.977,101.805 C486.977,115.312 475.58,128.093 465,128.093 C454.42,128.093 443.023,115.312 443.023,101.805 C443.023,90.026 452.116,80.884 465,80.884 C477.884,80.884 486.977,90.026 486.977,101.805 Z M491.86,101.805 C491.86,87.334 480.587,76 465,76 C449.413,76 438.14,87.334 438.14,101.805 C438.14,117.892 451.59,132.977 465,132.977 C478.41,132.977 491.86,117.892 491.86,101.805 Z" />
            <path d="M464.874,80.141 C471.088,86.553 475.581,96.283 475.581,104.488 C475.581,112.526 471.013,122.378 464.858,128.852 C463.929,129.83 463.968,131.376 464.945,132.305 C465.923,133.234 467.469,133.195 468.398,132.217 C475.361,124.893 480.465,113.885 480.465,104.488 C480.465,94.922 475.427,84.014 468.382,76.743 C467.443,75.774 465.897,75.75 464.929,76.688 C463.96,77.627 463.936,79.173 464.874,80.141 Z" />
            <path d="M461.693,76.669 C453.953,83.998 449.535,93.861 449.535,104.488 C449.535,114.917 454.041,124.923 461.676,132.292 C462.647,133.228 464.193,133.201 465.129,132.231 C466.066,131.26 466.038,129.714 465.068,128.778 C458.36,122.304 454.419,113.552 454.419,104.488 C454.419,95.229 458.266,86.639 465.051,80.215 C466.03,79.288 466.072,77.742 465.145,76.763 C464.218,75.784 462.672,75.742 461.693,76.669 Z" />
            <path d="M461.262,100.4 C461.776,100.503 462.656,100.65 463.813,100.796 C466.862,101.181 470.006,101.314 472.986,101.044 C474.41,100.914 475.755,100.693 477.007,100.37 C479.07,99.836 481.11,99.119 483.099,98.265 C484.672,97.59 486.125,96.867 487.429,96.142 C488.222,95.701 488.798,95.351 489.124,95.138 C490.254,94.401 490.572,92.888 489.835,91.759 C489.098,90.629 487.585,90.311 486.455,91.048 C486.221,91.201 485.743,91.492 485.055,91.874 C483.89,92.522 482.584,93.172 481.173,93.778 C479.401,94.539 477.592,95.174 475.784,95.642 C474.804,95.895 473.718,96.073 472.544,96.18 C469.963,96.415 467.152,96.295 464.424,95.951 C463.82,95.875 463.27,95.793 462.788,95.712 C462.506,95.665 462.314,95.63 462.224,95.612 C460.902,95.346 459.615,96.202 459.349,97.525 C459.084,98.847 459.94,100.134 461.262,100.4 Z" />
            <path d="M439.49,106.672 C439.599,106.727 439.799,106.825 440.079,106.961 C440.542,107.184 441.067,107.432 441.645,107.699 C443.296,108.461 445.048,109.223 446.829,109.935 C448.306,110.526 449.741,111.057 451.113,111.515 C452.357,111.929 453.535,112.279 454.64,112.555 C454.641,112.555 454.641,112.555 454.642,112.556 C458.9,113.62 463.336,113.821 467.31,113.537 C467.889,113.496 468.313,113.454 468.558,113.423 C469.896,113.256 470.845,112.035 470.678,110.697 C470.511,109.359 469.29,108.41 467.952,108.577 C467.79,108.597 467.452,108.631 466.962,108.666 C463.459,108.916 459.504,108.737 455.827,107.818 C455.826,107.817 455.826,107.817 455.825,107.817 C454.849,107.573 453.789,107.259 452.658,106.882 C451.382,106.457 450.035,105.958 448.643,105.401 C446.946,104.722 445.27,103.993 443.692,103.265 C443.14,103.01 442.641,102.774 442.203,102.563 C441.943,102.437 441.764,102.349 441.674,102.304 C440.468,101.701 439.001,102.19 438.398,103.396 C437.795,104.603 438.284,106.069 439.49,106.672 Z" />
            <path d="M472.372,128.431 L472.363,128.48 C472.1,129.802 472.959,131.088 474.282,131.35 C475.605,131.613 476.89,130.754 477.153,129.431 L477.163,129.383 C477.425,128.06 476.566,126.775 475.243,126.512 C473.92,126.249 472.635,127.108 472.372,128.431 Z M472.362,128.483 L470.093,139.985 L471.089,138.456 C470.983,138.531 470.761,138.678 470.45,138.873 C469.923,139.204 469.352,139.535 468.762,139.841 C467.984,140.246 467.238,140.574 466.563,140.798 C465.926,141.01 465.388,141.116 465,141.116 C464.612,141.116 464.074,141.01 463.437,140.798 C462.762,140.574 462.016,140.246 461.238,139.841 C460.648,139.535 460.077,139.204 459.55,138.873 C459.239,138.678 459.017,138.531 458.911,138.456 L459.907,139.985 L457.628,128.434 L454.831,131.316 L464.599,132.944 C464.861,132.987 465.128,132.988 465.39,132.945 L475.148,131.366 L472.362,128.483 Z M477.154,129.428 C477.483,127.759 476.047,126.273 474.368,126.545 L464.61,128.124 L465.401,128.126 L455.634,126.498 C453.951,126.218 452.507,127.706 452.837,129.38 L455.116,140.93 C455.238,141.549 455.595,142.097 456.113,142.459 C456.747,142.902 457.759,143.537 458.984,144.174 C459.975,144.689 460.95,145.118 461.896,145.433 C462.992,145.797 464.023,146 465,146 C465.977,146 467.008,145.797 468.104,145.433 C469.05,145.118 470.025,144.689 471.016,144.174 C472.241,143.537 473.253,142.902 473.887,142.459 C474.405,142.097 474.762,141.549 474.884,140.93 L477.154,129.428 Z" />
        </g>
        <g id="Black-S">
            <path d="M686.977,101.805 C686.977,115.312 675.58,128.093 665,128.093 C654.42,128.093 643.023,115.312 643.023,101.805 C643.023,90.026 652.116,80.884 665,80.884 C677.884,80.884 686.977,90.026 686.977,101.805 Z M691.86,101.805 C691.86,87.334 680.587,76 665,76 C649.413,76 638.14,87.334 638.14,101.805 C638.14,117.892 651.59,132.977 665,132.977 C678.41,132.977 691.86,117.892 691.86,101.805 Z" />
            <path d="M664.874,80.141 C671.088,86.553 675.581,96.283 675.581,104.488 C675.581,112.526 671.013,122.378 664.858,128.852 C663.929,129.83 663.968,131.376 664.945,132.305 C665.923,133.234 667.469,133.195 668.398,132.217 C675.361,124.893 680.465,113.885 680.465,104.488 C680.465,94.922 675.427,84.014 668.382,76.743 C667.443,75.774 665.897,75.75 664.929,76.688 C663.96,77.627 663.936,79.173 664.874,80.141 Z" />
            <path d="M661.693,76.669 C653.953,83.998 649.535,93.861 649.535,104.488 C649.535,114.917 654.041,124.923 661.676,132.292 C662.647,133.228 664.193,133.201 665.129,132.231 C666.066,131.26 666.038,129.714 665.068,128.778 C658.36,122.304 654.419,113.552 654.419,104.488 C654.419,95.229 658.266,86.639 665.051,80.215 C666.03,79.288 666.072,77.742 665.145,76.763 C664.218,75.784 662.672,75.742 661.693,76.669 Z" />
            <path d="M661.262,100.4 C661.776,100.503 662.656,100.65 663.813,100.796 C666.862,101.181 670.006,101.314 672.986,101.044 C674.41,100.914 675.755,100.693 677.007,100.37 C679.07,99.836 681.11,99.119 683.099,98.265 C684.672,97.59 686.125,96.867 687.429,96.142 C688.222,95.701 688.798,95.351 689.124,95.138 C690.254,94.401 690.572,92.888 689.835,91.759 C689.098,90.629 687.585,90.311 686.455,91.048 C686.221,91.201 685.743,91.492 685.055,91.874 C683.89,92.522 682.584,93.172 681.173,93.778 C679.401,94.539 677.592,95.174 675.784,95.642 C674.804,95.895 673.718,96.073 672.544,96.18 C669.963,96.415 667.152,96.295 664.424,95.951 C663.82,95.875 663.27,95.793 662.788,95.712 C662.506,95.665 662.314,95.63 662.224,95.612 C660.902,95.346 659.615,96.202 659.349,97.525 C659.084,98.847 659.94,100.134 661.262,100.4 Z" />
            <path d="M639.49,106.672 C639.599,106.727 639.799,106.825 640.079,106.961 C640.542,107.184 641.067,107.432 641.645,107.699 C643.296,108.461 645.048,109.223 646.829,109.935 C648.306,110.526 649.741,111.057 651.113,111.515 C652.357,111.929 653.535,112.279 654.64,112.555 C654.641,112.555 654.641,112.555 654.642,112.556 C658.9,113.62 663.336,113.821 667.31,113.537 C667.889,113.496 668.313,113.454 668.558,113.423 C669.896,113.256 670.845,112.035 670.678,110.697 C670.511,109.359 669.29,108.41 667.952,108.577 C667.79,108.597 667.451,108.631 666.962,108.666 C663.459,108.916 659.504,108.737 655.827,107.818 C655.826,107.817 655.826,107.817 655.825,107.817 C654.849,107.573 653.789,107.259 652.658,106.882 C651.382,106.457 650.035,105.958 648.643,105.401 C646.946,104.722 645.27,103.993 643.692,103.265 C643.14,103.01 642.641,102.774 642.203,102.563 C641.943,102.437 641.764,102.349 641.674,102.304 C640.468,101.701 639.001,102.19 638.398,103.396 C637.795,104.603 638.284,106.069 639.49,106.672 Z" />
            <path d="M672.372,128.431 L672.363,128.48 C672.1,129.802 672.959,131.088 674.282,131.35 C675.605,131.613 676.89,130.754 677.153,129.431 L677.163,129.383 C677.425,128.06 676.566,126.775 675.243,126.512 C673.92,126.249 672.635,127.108 672.372,128.431 Z M672.362,128.483 L670.093,139.985 L671.089,138.456 C670.983,138.531 670.761,138.678 670.45,138.873 C669.923,139.204 669.352,139.535 668.762,139.841 C667.984,140.246 667.238,140.574 666.563,140.798 C665.926,141.01 665.388,141.116 665,141.116 C664.612,141.116 664.074,141.01 663.437,140.798 C662.762,140.574 662.016,140.246 661.238,139.841 C660.648,139.535 660.077,139.204 659.55,138.873 C659.239,138.678 659.017,138.531 658.911,138.456 L659.907,139.985 L657.628,128.434 L654.831,131.316 L664.599,132.944 C664.861,132.987 665.128,132.988 665.39,132.945 L675.148,131.366 L672.362,128.483 Z M677.154,129.428 C677.483,127.759 676.047,126.273 674.368,126.545 L664.61,128.124 L665.401,128.126 L655.634,126.498 C653.951,126.218 652.507,127.706 652.837,129.38 L655.116,140.93 C655.238,141.549 655.595,142.097 656.113,142.459 C656.747,142.902 657.759,143.537 658.984,144.174 C659.975,144.689 660.95,145.118 661.896,145.433 C662.992,145.797 664.023,146 665,146 C665.977,146 667.008,145.797 668.104,145.433 C669.05,145.118 670.025,144.689 671.016,144.174 C672.241,143.537 673.253,142.902 673.887,142.459 C674.405,142.097 674.762,141.549 674.884,140.93 L677.154,129.428 Z" />
        </g>
    </g>
</svg>