<?xml version="1.0" encoding="UTF-8"?>
<svg height="600" width="800" xmlns="http://www.w3.org/2000/svg" xmlns:xlink="http://www.w3.org/1999/xlink">
    <g id="Notes" font-family="'LucidaGrande', 'Lucida Grande', sans-serif" font-size="13">
        <rect fill="white" height="600.0" width="800.0" x="0.0" y="0.0" />
        <g font-size="13">
            <text x="18.0" y="176.0">Small</text>
            <text x="18.0" y="376.0">Medium</text>
            <text x="18.0" y="576.0">Large</text>
        </g>
        <g font-size="9">
            <text x="250.0" y="30.0">Ultralight</text>
            <text x="450.0" y="30.0">Regular</text>
            <text x="650.0" y="30.0">Black</text>
            <text id="template-version" fill="#505050" text-anchor="end" x="785.0" y="575.0">Template v.3.0</text>
            <a href="https://github.com/swhitty/SwiftDraw">
                <text fill="#505050" text-anchor="end" x="785.0" y="590.0">https://github.com/swhitty/SwiftDraw</text>
            </a>
        </g>
    </g>
    <g id="Guides" stroke="rgb(39, 170, 225)" stroke-width="0.5">
        <path id="Capline-S" d="M18,76 l800,0" />
        <path id="H-reference" d="M85,145.755 L87.685,145.755 L113.369,79.287 L114.052,79.287 L114.052,76 L112.148,76 L85,145.755 Z M95.693,121.536 L130.996,121.536 L130.263,119.313 L96.474,119.313 L95.693,121.536 Z M139.15,145.755 L141.787,145.755 L114.638,76 L113.466,76 L113.466,79.287 L139.15,145.755 Z" stroke="none" />
        <path id="Baseline-S" d="M18,146 l800,0" />
        <path id="left-margin-Ultralight-S" d="M219.124,56 l0,110" />
        <path id="right-margin-Ultralight-S" d="M310.876,56 l0,110" />
        <path id="left-margin-Regular-S" d="M419.124,56 l0,110" />
        <path id="right-margin-Regular-S" d="M510.876,56 l0,110" />
        <path id="left-margin-Black-S" d="M619.124,56 l0,110" />
        <path id="right-margin-Black-S" d="M710.876,56 l0,110" />
        <path id="Capline-M" d="M18,276 l800,0" />
        <path id="Baseline-M" d="M18,346 l800,0" />
        <path id="Capline-L" d="M18,476 l800,0" />
        <path id="Baseline-L" d="M18,546 l800,0" />
    </g>
    <g id="Symbols">
        <g id="Ultralight-S">
            <path d="M234.32,121.16 L243.07,79.16 L240.5,81.25 L289.5,81.25 L286.93,79.16 L295.68,121.16 C295.976,122.58 297.366,123.491 298.785,123.195 C300.205,122.899 301.116,121.509 300.82,120.09 L292.07,78.09 C291.816,76.872 290.743,76 289.5,76 L240.5,76 C239.257,76 238.184,76.872 237.93,78.09 L229.18,120.09 C228.884,121.509 229.795,122.899 231.215,123.195 C232.634,123.491 234.024,122.58 234.32,121.16 Z" />
            <path d="M231.75,123.25 L249.091,123.25 L246.579,121.386 L249.761,131.886 C250.096,132.993 251.116,133.75 252.273,133.75 L277.727,133.75 C278.884,133.75 279.904,132.993 280.239,131.886 L283.421,121.386 L280.909,123.25 L298.25,123.25 L295.625,120.625 L295.625,143.375 L298.25,140.75 L231.75,140.75 L234.375,143.375 L234.375,120.625 L231.75,123.25 Z M231.75,118 C230.3,118 229.125,119.175 229.125,120.625 L229.125,143.375 C229.125,144.825 230.3,146 231.75,146 L298.25,146 C299.7,146 300.875,144.825 300.875,143.375 L300.875,120.625 C300.875,119.175 299.7,118 298.25,118 L280.909,118 C279.753,118 278.732,118.757 278.397,119.864 L275.215,130.364 L277.727,128.5 L252.273,128.5 L254.785,130.364 L251.603,119.864 C251.268,118.757 250.247,118 249.091,118 L231.75,118 Z" />
            <path d="M252.644,104.981 L263.144,115.481 C264.169,116.506 265.831,116.506 266.856,115.481 L277.356,104.981 C278.381,103.956 278.381,102.294 277.356,101.269 C276.331,100.244 274.669,100.244 273.644,101.269 L263.144,111.769 L266.856,111.769 L256.356,101.269 C255.331,100.244 253.669,100.244 252.644,101.269 C251.619,102.294 251.619,103.956 252.644,104.981 Z" />
            <path d="M267.625,113.625 L267.625,92.625 C267.625,91.175 266.45,90 265,90 C263.55,90 262.375,91.175 262.375,92.625 L262.375,113.625 C262.375,115.075 263.55,116.25 265,116.25 C266.45,116.25 267.625,115.075 267.625,113.625 Z" />
        </g>
        <g id="Regular-S">
            <path d="M434.32,121.16 L443.07,79.16 L440.5,81.25 L489.5,81.25 L486.93,79.16 L495.68,121.16 C495.976,122.58 497.366,123.491 498.785,123.195 C500.205,122.899 501.116,121.509 500.82,120.09 L492.07,78.09 C491.816,76.872 490.743,76 489.5,76 L440.5,76 C439.257,76 438.184,76.872 437.93,78.09 L429.18,120.09 C428.884,121.509 429.795,122.899 431.215,123.195 C432.634,123.491 434.024,122.58 434.32,121.16 Z" />
            <path d="M431.75,123.25 L449.091,123.25 L446.579,121.386 L449.761,131.886 C450.096,132.993 451.116,133.75 452.273,133.75 L477.727,133.75 C478.884,133.75 479.904,132.993 480.239,131.886 L483.421,121.386 L480.909,123.25 L498.25,123.25 L495.625,120.625 L495.625,143.375 L498.25,140.75 L431.75,140.75 L434.375,143.375 L434.375,120.625 L431.75,123.25 Z M431.75,118 C430.3,118 429.125,119.175 429.125,120.625 L429.125,143.375 C429.125,144.825 430.3,146 431.75,146 L498.25,146 C499.7,146 500.875,144.825 500.875,143.375 L500.875,120.625 C500.875,119.175 499.7,118 498.25,118 L480.909,118 C479.753,118 478.732,118.757 478.397,119.864 L475.215,130.364 L477.727,128.5 L452.273,128.5 L454.785,130.364 L451.603,119.864 C451.268,118.757 450.247,118 449.091,118 L431.75,118 Z" />
            <path d="M452.644,104.981 L463.144,115.481 C464.169,116.506 465.831,116.506 466.856,115.481 L477.356,104.981 C478.381,103.956 478.381,102.294 477.356,101.269 C476.331,100.244 474.669,100.244 473.644,101.269 L463.144,111.769 L466.856,111.769 L456.356,101.269 C455.331,100.244 453.669,100.244 452.644,101.269 C451.619,102.294 451.619,103.956 452.644,104.981 Z" />
            <path d="M467.625,113.625 L467.625,92.625 C467.625,91.175 466.45,90 465,90 C463.55,90 462.375,91.175 462.375,92.625 L462.375,113.625 C462.375,115.075 463.55,116.25 465,116.25 C466.45,116.25 467.625,115.075 467.625,113.625 Z" />
        </g>
        <g id="Black-S">
            <path d="M634.32,121.16 L643.07,79.16 L640.5,81.25 L689.5,81.25 L686.93,79.16 L695.68,121.16 C695.976,122.58 697.366,123.491 698.785,123.195 C700.205,122.899 701.115,121.509 700.82,120.09 L692.07,78.09 C691.816,76.872 690.743,76 689.5,76 L640.5,76 C639.257,76 638.184,76.872 637.93,78.09 L629.18,120.09 C628.885,121.509 629.795,122.899 631.215,123.195 C632.634,123.491 634.024,122.58 634.32,121.16 Z" />
            <path d="M631.75,123.25 L649.091,123.25 L646.579,121.386 L649.761,131.886 C650.096,132.993 651.116,133.75 652.273,133.75 L677.727,133.75 C678.884,133.75 679.904,132.993 680.239,131.886 L683.421,121.386 L680.909,123.25 L698.25,123.25 L695.625,120.625 L695.625,143.375 L698.25,140.75 L631.75,140.75 L634.375,143.375 L634.375,120.625 L631.75,123.25 Z M631.75,118 C630.3,118 629.125,119.175 629.125,120.625 L629.125,143.375 C629.125,144.825 630.3,146 631.75,146 L698.25,146 C699.7,146 700.875,144.825 700.875,143.375 L700.875,120.625 C700.875,119.175 699.7,118 698.25,118 L680.909,118 C679.753,118 678.732,118.757 678.397,119.864 L675.215,130.364 L677.727,128.5 L652.273,128.5 L654.785,130.364 L651.603,119.864 C651.268,118.757 650.247,118 649.091,118 L631.75,118 Z" />
            <path d="M652.644,104.981 L663.144,115.481 C664.169,116.506 665.831,116.506 666.856,115.481 L677.356,104.981 C678.381,103.956 678.381,102.294 677.356,101.269 C676.331,100.244 674.669,100.244 673.644,101.269 L663.144,111.769 L666.856,111.769 L656.356,101.269 C655.331,100.244 653.669,100.244 652.644,101.269 C651.619,102.294 651.619,103.956 652.644,104.981 Z" />
            <path d="M667.625,113.625 L667.625,92.625 C667.625,91.175 666.45,90 665,90 C663.55,90 662.375,91.175 662.375,92.625 L662.375,113.625 C662.375,115.075 663.55,116.25 665,116.25 C666.45,116.25 667.625,115.075 667.625,113.625 Z" />
        </g>
    </g>
</svg>