<?xml version="1.0" encoding="UTF-8"?>
<svg height="600" width="800" xmlns="http://www.w3.org/2000/svg" xmlns:xlink="http://www.w3.org/1999/xlink">
    <g id="Notes" font-family="'LucidaGrande', 'Lucida Grande', sans-serif" font-size="13">
        <rect fill="white" height="600.0" width="800.0" x="0.0" y="0.0" />
        <g font-size="13">
            <text x="18.0" y="176.0">Small</text>
            <text x="18.0" y="376.0">Medium</text>
            <text x="18.0" y="576.0">Large</text>
        </g>
        <g font-size="9">
            <text x="250.0" y="30.0">Ultralight</text>
            <text x="450.0" y="30.0">Regular</text>
            <text x="650.0" y="30.0">Black</text>
            <text id="template-version" fill="#505050" text-anchor="end" x="785.0" y="575.0">Template v.3.0</text>
            <a href="https://github.com/swhitty/SwiftDraw">
                <text fill="#505050" text-anchor="end" x="785.0" y="590.0">https://github.com/swhitty/SwiftDraw</text>
            </a>
        </g>
    </g>
    <g id="Guides" stroke="rgb(39, 170, 225)" stroke-width="0.5">
        <path id="Capline-S" d="M18,76 l800,0" />
        <path id="H-reference" d="M85,145.755 L87.685,145.755 L113.369,79.287 L114.052,79.287 L114.052,76 L112.148,76 L85,145.755 Z M95.693,121.536 L130.996,121.536 L130.263,119.313 L96.474,119.313 L95.693,121.536 Z M139.15,145.755 L141.787,145.755 L114.638,76 L113.466,76 L113.466,79.287 L139.15,145.755 Z" stroke="none" />
        <path id="Baseline-S" d="M18,146 l800,0" />
        <path id="left-margin-Ultralight-S" d="M220,56 l0,110" />
        <path id="right-margin-Ultralight-S" d="M310,56 l0,110" />
        <path id="left-margin-Regular-S" d="M420,56 l0,110" />
        <path id="right-margin-Regular-S" d="M510,56 l0,110" />
        <path id="left-margin-Black-S" d="M620,56 l0,110" />
        <path id="right-margin-Black-S" d="M710,56 l0,110" />
        <path id="Capline-M" d="M18,276 l800,0" />
        <path id="Baseline-M" d="M18,346 l800,0" />
        <path id="Capline-L" d="M18,476 l800,0" />
        <path id="Baseline-L" d="M18,546 l800,0" />
    </g>
    <g id="Symbols">
        <g id="Ultralight-S">
            <path d="M300,126.366 L300,102.463 C300,101.049 298.853,99.902 297.439,99.902 L232.561,99.902 C231.147,99.902 230,101.049 230,102.463 L230,140.024 C230,143.325 232.675,146 235.976,146 L265,146 C266.414,146 267.561,144.853 267.561,143.439 C267.561,142.025 266.414,140.878 265,140.878 L235.976,140.878 C235.504,140.878 235.122,140.496 235.122,140.024 L235.122,102.463 L232.561,105.024 L297.439,105.024 L294.878,102.463 L294.878,126.366 C294.878,127.78 296.025,128.927 297.439,128.927 C298.853,128.927 300,127.78 300,126.366 Z" />
            <path d="M235.122,87.098 C235.122,86.626 235.504,86.244 235.976,86.244 L294.024,86.244 C294.496,86.244 294.878,86.626 294.878,87.098 L294.878,102.463 L297.439,99.902 L232.561,99.902 L235.122,102.463 L235.122,87.098 Z M230,87.098 L230,102.463 C230,103.878 231.147,105.024 232.561,105.024 L297.439,105.024 C298.853,105.024 300,103.878 300,102.463 L300,87.098 C300,83.797 297.325,81.122 294.024,81.122 L235.976,81.122 C232.675,81.122 230,83.797 230,87.098 Z" />
            <path d="M248.78,78.561 L248.78,92.22 C248.78,93.634 249.927,94.78 251.341,94.78 C252.756,94.78 253.902,93.634 253.902,92.22 L253.902,78.561 C253.902,77.147 252.756,76 251.341,76 C249.927,76 248.78,77.147 248.78,78.561 Z" />
            <path d="M276.098,78.561 L276.098,92.22 C276.098,93.634 277.244,94.78 278.659,94.78 C280.073,94.78 281.22,93.634 281.22,92.22 L281.22,78.561 C281.22,77.147 280.073,76 278.659,76 C277.244,76 276.098,77.147 276.098,78.561 Z" />
            <path d="M265.854,124.659 C265.854,119.472 270.058,115.268 275.244,115.268 C280.43,115.268 284.634,119.472 284.634,124.659 C284.634,129.845 280.43,134.049 275.244,134.049 C270.058,134.049 265.854,129.845 265.854,124.659 Z M260.732,124.659 C260.732,132.673 267.229,139.171 275.244,139.171 C283.259,139.171 289.756,132.673 289.756,124.659 C289.756,116.644 283.259,110.146 275.244,110.146 C267.229,110.146 260.732,116.644 260.732,124.659 Z" />
            <path d="M283.848,135.163 L294.092,143.699 C295.179,144.605 296.794,144.458 297.699,143.371 C298.605,142.285 298.458,140.67 297.371,139.764 L287.127,131.228 C286.041,130.322 284.426,130.469 283.52,131.556 C282.615,132.642 282.762,134.257 283.848,135.163 Z" />
        </g>
        <g id="Regular-S">
            <path d="M500,126.366 L500,102.463 C500,101.049 498.853,99.902 497.439,99.902 L432.561,99.902 C431.147,99.902 430,101.049 430,102.463 L430,140.024 C430,143.325 432.675,146 435.976,146 L465,146 C466.414,146 467.561,144.853 467.561,143.439 C467.561,142.025 466.414,140.878 465,140.878 L435.976,140.878 C435.504,140.878 435.122,140.496 435.122,140.024 L435.122,102.463 L432.561,105.024 L497.439,105.024 L494.878,102.463 L494.878,126.366 C494.878,127.78 496.025,128.927 497.439,128.927 C498.853,128.927 500,127.78 500,126.366 Z" />
            <path d="M435.122,87.098 C435.122,86.626 435.504,86.244 435.976,86.244 L494.024,86.244 C494.496,86.244 494.878,86.626 494.878,87.098 L494.878,102.463 L497.439,99.902 L432.561,99.902 L435.122,102.463 L435.122,87.098 Z M430,87.098 L430,102.463 C430,103.878 431.147,105.024 432.561,105.024 L497.439,105.024 C498.853,105.024 500,103.878 500,102.463 L500,87.098 C500,83.797 497.325,81.122 494.024,81.122 L435.976,81.122 C432.675,81.122 430,83.797 430,87.098 Z" />
            <path d="M448.78,78.561 L448.78,92.22 C448.78,93.634 449.927,94.78 451.341,94.78 C452.756,94.78 453.902,93.634 453.902,92.22 L453.902,78.561 C453.902,77.147 452.756,76 451.341,76 C449.927,76 448.78,77.147 448.78,78.561 Z" />
            <path d="M476.098,78.561 L476.098,92.22 C476.098,93.634 477.244,94.78 478.659,94.78 C480.073,94.78 481.22,93.634 481.22,92.22 L481.22,78.561 C481.22,77.147 480.073,76 478.659,76 C477.244,76 476.098,77.147 476.098,78.561 Z" />
            <path d="M465.854,124.659 C465.854,119.472 470.058,115.268 475.244,115.268 C480.43,115.268 484.634,119.472 484.634,124.659 C484.634,129.845 480.43,134.049 475.244,134.049 C470.058,134.049 465.854,129.845 465.854,124.659 Z M460.732,124.659 C460.732,132.673 467.229,139.171 475.244,139.171 C483.259,139.171 489.756,132.673 489.756,124.659 C489.756,116.644 483.259,110.146 475.244,110.146 C467.229,110.146 460.732,116.644 460.732,124.659 Z" />
            <path d="M483.848,135.163 L494.092,143.699 C495.179,144.605 496.794,144.458 497.699,143.371 C498.605,142.285 498.458,140.67 497.371,139.764 L487.127,131.228 C486.041,130.322 484.426,130.469 483.52,131.556 C482.615,132.642 482.762,134.257 483.848,135.163 Z" />
        </g>
        <g id="Black-S">
            <path d="M700,126.366 L700,102.463 C700,101.049 698.853,99.902 697.439,99.902 L632.561,99.902 C631.147,99.902 630,101.049 630,102.463 L630,140.024 C630,143.325 632.675,146 635.976,146 L665,146 C666.414,146 667.561,144.853 667.561,143.439 C667.561,142.025 666.414,140.878 665,140.878 L635.976,140.878 C635.504,140.878 635.122,140.496 635.122,140.024 L635.122,102.463 L632.561,105.024 L697.439,105.024 L694.878,102.463 L694.878,126.366 C694.878,127.78 696.025,128.927 697.439,128.927 C698.853,128.927 700,127.78 700,126.366 Z" />
            <path d="M635.122,87.098 C635.122,86.626 635.504,86.244 635.976,86.244 L694.024,86.244 C694.496,86.244 694.878,86.626 694.878,87.098 L694.878,102.463 L697.439,99.902 L632.561,99.902 L635.122,102.463 L635.122,87.098 Z M630,87.098 L630,102.463 C630,103.878 631.147,105.024 632.561,105.024 L697.439,105.024 C698.853,105.024 700,103.878 700,102.463 L700,87.098 C700,83.797 697.325,81.122 694.024,81.122 L635.976,81.122 C632.675,81.122 630,83.797 630,87.098 Z" />
            <path d="M648.781,78.561 L648.781,92.22 C648.781,93.634 649.927,94.78 651.341,94.78 C652.756,94.78 653.902,93.634 653.902,92.22 L653.902,78.561 C653.902,77.147 652.756,76 651.341,76 C649.927,76 648.781,77.147 648.781,78.561 Z" />
            <path d="M676.098,78.561 L676.098,92.22 C676.098,93.634 677.244,94.78 678.659,94.78 C680.073,94.78 681.22,93.634 681.22,92.22 L681.22,78.561 C681.22,77.147 680.073,76 678.659,76 C677.244,76 676.098,77.147 676.098,78.561 Z" />
            <path d="M665.854,124.659 C665.854,119.472 670.058,115.268 675.244,115.268 C680.43,115.268 684.634,119.472 684.634,124.659 C684.634,129.845 680.43,134.049 675.244,134.049 C670.058,134.049 665.854,129.845 665.854,124.659 Z M660.732,124.659 C660.732,132.673 667.229,139.171 675.244,139.171 C683.259,139.171 689.756,132.673 689.756,124.659 C689.756,116.644 683.259,110.146 675.244,110.146 C667.229,110.146 660.732,116.644 660.732,124.659 Z" />
            <path d="M683.848,135.163 L694.092,143.699 C695.179,144.605 696.794,144.458 697.699,143.371 C698.605,142.285 698.458,140.67 697.371,139.764 L687.127,131.228 C686.041,130.322 684.426,130.469 683.52,131.556 C682.615,132.642 682.762,134.257 683.848,135.163 Z" />
        </g>
    </g>
</svg>