<?xml version="1.0" encoding="UTF-8"?>
<svg height="600" width="800" xmlns="http://www.w3.org/2000/svg" xmlns:xlink="http://www.w3.org/1999/xlink">
    <g id="Notes" font-family="'LucidaGrande', 'Lucida Grande', sans-serif" font-size="13">
        <rect fill="white" height="600.0" width="800.0" x="0.0" y="0.0" />
        <g font-size="13">
            <text x="18.0" y="176.0">Small</text>
            <text x="18.0" y="376.0">Medium</text>
            <text x="18.0" y="576.0">Large</text>
        </g>
        <g font-size="9">
            <text x="250.0" y="30.0">Ultralight</text>
            <text x="450.0" y="30.0">Regular</text>
            <text x="650.0" y="30.0">Black</text>
            <text id="template-version" fill="#505050" text-anchor="end" x="785.0" y="575.0">Template v.3.0</text>
            <a href="https://github.com/swhitty/SwiftDraw">
                <text fill="#505050" text-anchor="end" x="785.0" y="590.0">https://github.com/swhitty/SwiftDraw</text>
            </a>
        </g>
    </g>
    <g id="Guides" stroke="rgb(39, 170, 225)" stroke-width="0.5">
        <path id="Capline-S" d="M18,76 l800,0" />
        <path id="H-reference" d="M85,145.755 L87.685,145.755 L113.369,79.287 L114.052,79.287 L114.052,76 L112.148,76 L85,145.755 Z M95.693,121.536 L130.996,121.536 L130.263,119.313 L96.474,119.313 L95.693,121.536 Z M139.15,145.755 L141.787,145.755 L114.638,76 L113.466,76 L113.466,79.287 L139.15,145.755 Z" stroke="none" />
        <path id="Baseline-S" d="M18,146 l800,0" />
        <path id="left-margin-Ultralight-S" d="M221,56 l0,110" />
        <path id="right-margin-Ultralight-S" d="M309,56 l0,110" />
        <path id="left-margin-Regular-S" d="M421,56 l0,110" />
        <path id="right-margin-Regular-S" d="M509,56 l0,110" />
        <path id="left-margin-Black-S" d="M621,56 l0,110" />
        <path id="right-margin-Black-S" d="M709,56 l0,110" />
        <path id="Capline-M" d="M18,276 l800,0" />
        <path id="Baseline-M" d="M18,346 l800,0" />
        <path id="Capline-L" d="M18,476 l800,0" />
        <path id="Baseline-L" d="M18,546 l800,0" />
    </g>
    <g id="Symbols">
        <g id="Ultralight-S">
            <path d="M296.734,88.179 L288.082,76.994 C287.597,76.367 286.849,76 286.057,76 L243.943,76 C243.152,76 242.405,76.366 241.92,76.991 L233.242,88.176 C232.375,89.293 232.578,90.902 233.695,91.769 C234.813,92.636 236.422,92.433 237.289,91.315 L245.966,80.131 L243.943,81.122 L286.057,81.122 L284.031,80.128 L292.682,91.312 C293.548,92.431 295.156,92.637 296.275,91.771 C297.394,90.906 297.599,89.297 296.734,88.179 Z" />
            <path d="M236.829,92.22 C236.829,91.748 237.211,91.366 237.683,91.366 L292.317,91.366 C292.789,91.366 293.171,91.748 293.171,92.22 L293.171,138.317 C293.171,139.732 292.024,140.878 290.61,140.878 L239.39,140.878 C237.976,140.878 236.829,139.732 236.829,138.317 L236.829,92.22 Z M231.707,92.22 L231.707,138.317 C231.707,142.56 235.147,146 239.39,146 L290.61,146 C294.853,146 298.293,142.56 298.293,138.317 L298.293,92.22 C298.293,88.919 295.617,86.244 292.317,86.244 L237.683,86.244 C234.383,86.244 231.707,88.919 231.707,92.22 Z" />
            <path d="M276.848,114.311 L263.189,127.97 L266.811,127.97 L253.152,114.311 C252.152,113.311 250.531,113.311 249.531,114.311 C248.53,115.311 248.53,116.933 249.531,117.933 L263.189,131.591 C264.189,132.591 265.811,132.591 266.811,131.591 L280.469,117.933 C281.47,116.933 281.47,115.311 280.469,114.311 C279.469,113.311 277.848,113.311 276.848,114.311 Z" />
            <path d="M262.425,102.463 L262.425,129.78 C262.425,131.195 263.571,132.341 264.986,132.341 C266.4,132.341 267.547,131.195 267.547,129.78 L267.547,102.463 C267.547,101.049 266.4,99.902 264.986,99.902 C263.571,99.902 262.425,101.049 262.425,102.463 Z" />
        </g>
        <g id="Regular-S">
            <path d="M496.734,88.179 L488.082,76.994 C487.597,76.367 486.849,76 486.057,76 L443.943,76 C443.152,76 442.405,76.366 441.92,76.991 L433.242,88.176 C432.375,89.293 432.578,90.902 433.695,91.769 C434.813,92.636 436.422,92.433 437.289,91.315 L445.966,80.131 L443.943,81.122 L486.057,81.122 L484.031,80.128 L492.682,91.312 C493.548,92.431 495.156,92.637 496.275,91.771 C497.394,90.906 497.599,89.297 496.734,88.179 Z" />
            <path d="M436.829,92.22 C436.829,91.748 437.211,91.366 437.683,91.366 L492.317,91.366 C492.789,91.366 493.171,91.748 493.171,92.22 L493.171,138.317 C493.171,139.732 492.024,140.878 490.61,140.878 L439.39,140.878 C437.976,140.878 436.829,139.732 436.829,138.317 L436.829,92.22 Z M431.707,92.22 L431.707,138.317 C431.707,142.56 435.147,146 439.39,146 L490.61,146 C494.853,146 498.293,142.56 498.293,138.317 L498.293,92.22 C498.293,88.919 495.617,86.244 492.317,86.244 L437.683,86.244 C434.383,86.244 431.707,88.919 431.707,92.22 Z" />
            <path d="M476.848,114.311 L463.189,127.97 L466.811,127.97 L453.152,114.311 C452.152,113.311 450.531,113.311 449.531,114.311 C448.53,115.311 448.53,116.933 449.531,117.933 L463.189,131.591 C464.189,132.591 465.811,132.591 466.811,131.591 L480.469,117.933 C481.47,116.933 481.47,115.311 480.469,114.311 C479.469,113.311 477.848,113.311 476.848,114.311 Z" />
            <path d="M462.425,102.463 L462.425,129.78 C462.425,131.195 463.571,132.341 464.986,132.341 C466.4,132.341 467.547,131.195 467.547,129.78 L467.547,102.463 C467.547,101.049 466.4,99.902 464.986,99.902 C463.571,99.902 462.425,101.049 462.425,102.463 Z" />
        </g>
        <g id="Black-S">
            <path d="M696.734,88.179 L688.082,76.994 C687.597,76.367 686.849,76 686.057,76 L643.943,76 C643.152,76 642.405,76.366 641.92,76.991 L633.242,88.176 C632.375,89.293 632.578,90.902 633.695,91.769 C634.813,92.636 636.422,92.433 637.289,91.315 L645.966,80.131 L643.943,81.122 L686.057,81.122 L684.031,80.128 L692.682,91.312 C693.548,92.431 695.156,92.637 696.275,91.771 C697.394,90.906 697.599,89.297 696.734,88.179 Z" />
            <path d="M636.829,92.22 C636.829,91.748 637.211,91.366 637.683,91.366 L692.317,91.366 C692.789,91.366 693.171,91.748 693.171,92.22 L693.171,138.317 C693.171,139.732 692.024,140.878 690.61,140.878 L639.39,140.878 C637.976,140.878 636.829,139.732 636.829,138.317 L636.829,92.22 Z M631.707,92.22 L631.707,138.317 C631.707,142.56 635.147,146 639.39,146 L690.61,146 C694.853,146 698.293,142.56 698.293,138.317 L698.293,92.22 C698.293,88.919 695.617,86.244 692.317,86.244 L637.683,86.244 C634.383,86.244 631.707,88.919 631.707,92.22 Z" />
            <path d="M676.848,114.311 L663.189,127.97 L666.811,127.97 L653.152,114.311 C652.152,113.311 650.531,113.311 649.531,114.311 C648.53,115.311 648.53,116.933 649.531,117.933 L663.189,131.591 C664.189,132.591 665.811,132.591 666.811,131.591 L680.469,117.933 C681.47,116.933 681.47,115.311 680.469,114.311 C679.469,113.311 677.848,113.311 676.848,114.311 Z" />
            <path d="M662.425,102.463 L662.425,129.78 C662.425,131.195 663.571,132.341 664.986,132.341 C666.4,132.341 667.547,131.195 667.547,129.78 L667.547,102.463 C667.547,101.049 666.4,99.902 664.986,99.902 C663.571,99.902 662.425,101.049 662.425,102.463 Z" />
        </g>
    </g>
</svg>