<?xml version="1.0" encoding="UTF-8"?>
<svg height="600" width="800" xmlns="http://www.w3.org/2000/svg" xmlns:xlink="http://www.w3.org/1999/xlink">
    <g id="Notes" font-family="'LucidaGrande', 'Lucida Grande', sans-serif" font-size="13">
        <rect fill="white" height="600.0" width="800.0" x="0.0" y="0.0" />
        <g font-size="13">
            <text x="18.0" y="176.0">Small</text>
            <text x="18.0" y="376.0">Medium</text>
            <text x="18.0" y="576.0">Large</text>
        </g>
        <g font-size="9">
            <text x="250.0" y="30.0">Ultralight</text>
            <text x="450.0" y="30.0">Regular</text>
            <text x="650.0" y="30.0">Black</text>
            <text id="template-version" fill="#505050" text-anchor="end" x="785.0" y="575.0">Template v.3.0</text>
            <a href="https://github.com/swhitty/SwiftDraw">
                <text fill="#505050" text-anchor="end" x="785.0" y="590.0">https://github.com/swhitty/SwiftDraw</text>
            </a>
        </g>
    </g>
    <g id="Guides" stroke="rgb(39, 170, 225)" stroke-width="0.5">
        <path id="Capline-S" d="M18,76 l800,0" />
        <path id="H-reference" d="M85,145.755 L87.685,145.755 L113.369,79.287 L114.052,79.287 L114.052,76 L112.148,76 L85,145.755 Z M95.693,121.536 L130.996,121.536 L130.263,119.313 L96.474,119.313 L95.693,121.536 Z M139.15,145.755 L141.787,145.755 L114.638,76 L113.466,76 L113.466,79.287 L139.15,145.755 Z" stroke="none" />
        <path id="Baseline-S" d="M18,146 l800,0" />
        <path id="left-margin-Ultralight-S" d="M212,56 l0,110" />
        <path id="right-margin-Ultralight-S" d="M318,56 l0,110" />
        <path id="left-margin-Regular-S" d="M412,56 l0,110" />
        <path id="right-margin-Regular-S" d="M518,56 l0,110" />
        <path id="left-margin-Black-S" d="M612,56 l0,110" />
        <path id="right-margin-Black-S" d="M718,56 l0,110" />
        <path id="Capline-M" d="M18,276 l800,0" />
        <path id="Baseline-M" d="M18,346 l800,0" />
        <path id="Capline-L" d="M18,476 l800,0" />
        <path id="Baseline-L" d="M18,546 l800,0" />
    </g>
    <g id="Symbols">
        <g id="Ultralight-S">
            <path d="M302,111 L302,139 C302,139.265 301.895,139.52 301.707,139.707 C301.52,139.895 301.265,140 301,140 L229,140 C228.735,140 228.48,139.895 228.293,139.707 C228.105,139.52 228,139.265 228,139 L228,83 C228,82.735 228.105,82.48 228.293,82.293 C228.48,82.105 228.735,82 229,82 L301,82 C301.265,82 301.52,82.105 301.707,82.293 C301.895,82.48 302,82.735 302,83 L302,111 Z M308,111 L308,83 C308,81.143 307.263,79.363 305.95,78.05 C304.637,76.737 302.857,76 301,76 L229,76 C227.143,76 225.363,76.737 224.05,78.05 C222.738,79.363 222,81.143 222,83 L222,139 C222,140.857 222.737,142.637 224.05,143.95 C225.363,145.263 227.143,146 229,146 L301,146 C302.857,146 304.637,145.263 305.95,143.95 C307.263,142.637 308,140.857 308,139 L308,111 Z" />
            <path d="M228,83 C228,82.448 228.448,82 229,82 L301,82 C301.552,82 302,82.448 302,83 L302,95 L305,92 L225,92 L228,95 L228,83 Z M222,83 L222,95 C222,96.657 223.343,98 225,98 L305,98 C306.657,98 308,96.657 308,95 L308,83 C308,79.134 304.866,76 301,76 L229,76 C225.134,76 222,79.134 222,83 Z" />
            <path d="M264.048,108.463 L260.048,130.463 C259.752,132.093 260.833,133.655 262.463,133.952 C264.093,134.248 265.655,133.167 265.952,131.537 L269.952,109.537 C270.248,107.907 269.167,106.345 267.537,106.048 C265.907,105.752 264.345,106.833 264.048,108.463 Z" />
            <path d="M277.079,111.305 L289.079,121.305 L288.879,116.879 L276.879,128.879 C275.707,130.05 275.707,131.95 276.879,133.121 C278.05,134.293 279.95,134.293 281.121,133.121 L293.121,121.121 C294.369,119.874 294.276,117.825 292.921,116.695 L280.921,106.695 C279.648,105.635 277.756,105.807 276.695,107.079 C275.635,108.352 275.807,110.244 277.079,111.305 Z" />
            <path d="M249.079,106.695 L237.079,116.695 C235.724,117.824 235.631,119.874 236.879,121.121 L248.879,133.121 C250.05,134.293 251.95,134.293 253.121,133.121 C254.293,131.95 254.293,130.05 253.121,128.878 L241.121,116.878 L240.921,121.304 L252.921,111.304 C254.193,110.244 254.365,108.352 253.305,107.079 C252.244,105.806 250.352,105.634 249.079,106.695 Z" />
        </g>
        <g id="Regular-S">
            <path d="M502,111 L502,139 C502,139.265 501.895,139.52 501.707,139.707 C501.52,139.895 501.265,140 501,140 L429,140 C428.735,140 428.48,139.895 428.293,139.707 C428.105,139.52 428,139.265 428,139 L428,83 C428,82.735 428.105,82.48 428.293,82.293 C428.48,82.105 428.735,82 429,82 L501,82 C501.265,82 501.52,82.105 501.707,82.293 C501.895,82.48 502,82.735 502,83 L502,111 Z M508,111 L508,83 C508,81.143 507.263,79.363 505.95,78.05 C504.637,76.737 502.857,76 501,76 L429,76 C427.143,76 425.363,76.737 424.05,78.05 C422.737,79.363 422,81.143 422,83 L422,139 C422,140.857 422.737,142.637 424.05,143.95 C425.363,145.263 427.143,146 429,146 L501,146 C502.857,146 504.637,145.263 505.95,143.95 C507.263,142.637 508,140.857 508,139 L508,111 Z" />
            <path d="M428,83 C428,82.448 428.448,82 429,82 L501,82 C501.552,82 502,82.448 502,83 L502,95 L505,92 L425,92 L428,95 L428,83 Z M422,83 L422,95 C422,96.657 423.343,98 425,98 L505,98 C506.657,98 508,96.657 508,95 L508,83 C508,79.134 504.866,76 501,76 L429,76 C425.134,76 422,79.134 422,83 Z" />
            <path d="M464.048,108.463 L460.048,130.463 C459.752,132.093 460.833,133.655 462.463,133.952 C464.093,134.248 465.655,133.167 465.952,131.537 L469.952,109.537 C470.248,107.907 469.167,106.345 467.537,106.048 C465.907,105.752 464.345,106.833 464.048,108.463 Z" />
            <path d="M477.079,111.305 L489.079,121.305 L488.879,116.879 L476.879,128.879 C475.707,130.05 475.707,131.95 476.879,133.121 C478.05,134.293 479.95,134.293 481.121,133.121 L493.121,121.121 C494.369,119.874 494.276,117.825 492.921,116.695 L480.921,106.695 C479.648,105.635 477.756,105.807 476.695,107.079 C475.635,108.352 475.807,110.244 477.079,111.305 Z" />
            <path d="M449.079,106.695 L437.079,116.695 C435.724,117.824 435.631,119.874 436.879,121.121 L448.879,133.121 C450.05,134.293 451.95,134.293 453.121,133.121 C454.293,131.95 454.293,130.05 453.121,128.878 L441.121,116.878 L440.921,121.304 L452.921,111.304 C454.193,110.244 454.365,108.352 453.305,107.079 C452.244,105.806 450.352,105.634 449.079,106.695 Z" />
        </g>
        <g id="Black-S">
            <path d="M702,111 L702,139 C702,139.265 701.895,139.52 701.707,139.707 C701.52,139.895 701.265,140 701,140 L629,140 C628.735,140 628.48,139.895 628.293,139.707 C628.105,139.52 628,139.265 628,139 L628,83 C628,82.735 628.105,82.48 628.293,82.293 C628.48,82.105 628.735,82 629,82 L701,82 C701.265,82 701.52,82.105 701.707,82.293 C701.895,82.48 702,82.735 702,83 L702,111 Z M708,111 L708,83 C708,81.143 707.263,79.363 705.95,78.05 C704.637,76.737 702.857,76 701,76 L629,76 C627.143,76 625.363,76.737 624.05,78.05 C622.737,79.363 622,81.143 622,83 L622,139 C622,140.857 622.737,142.637 624.05,143.95 C625.363,145.263 627.143,146 629,146 L701,146 C702.857,146 704.637,145.263 705.95,143.95 C707.263,142.637 708,140.857 708,139 L708,111 Z" />
            <path d="M628,83 C628,82.448 628.448,82 629,82 L701,82 C701.552,82 702,82.448 702,83 L702,95 L705,92 L625,92 L628,95 L628,83 Z M622,83 L622,95 C622,96.657 623.343,98 625,98 L705,98 C706.657,98 708,96.657 708,95 L708,83 C708,79.134 704.866,76 701,76 L629,76 C625.134,76 622,79.134 622,83 Z" />
            <path d="M664.048,108.463 L660.048,130.463 C659.752,132.093 660.833,133.655 662.463,133.952 C664.093,134.248 665.655,133.167 665.952,131.537 L669.952,109.537 C670.248,107.907 669.167,106.345 667.537,106.048 C665.907,105.752 664.345,106.833 664.048,108.463 Z" />
            <path d="M677.079,111.305 L689.079,121.305 L688.879,116.879 L676.879,128.879 C675.707,130.05 675.707,131.95 676.879,133.121 C678.05,134.293 679.95,134.293 681.121,133.121 L693.121,121.121 C694.369,119.874 694.276,117.825 692.921,116.695 L680.921,106.695 C679.648,105.635 677.756,105.807 676.695,107.079 C675.635,108.352 675.807,110.244 677.079,111.305 Z" />
            <path d="M649.079,106.695 L637.079,116.695 C635.724,117.824 635.631,119.874 636.879,121.121 L648.879,133.121 C650.05,134.293 651.95,134.293 653.121,133.121 C654.293,131.95 654.293,130.05 653.121,128.878 L641.121,116.878 L640.921,121.304 L652.921,111.304 C654.193,110.244 654.365,108.352 653.305,107.079 C652.244,105.806 650.352,105.634 649.079,106.695 Z" />
        </g>
    </g>
</svg>