<?xml version="1.0" encoding="UTF-8"?>
<svg height="600" width="800" xmlns="http://www.w3.org/2000/svg" xmlns:xlink="http://www.w3.org/1999/xlink">
    <g id="Notes" font-family="'LucidaGrande', 'Lucida Grande', sans-serif" font-size="13">
        <rect fill="white" height="600.0" width="800.0" x="0.0" y="0.0" />
        <g font-size="13">
            <text x="18.0" y="176.0">Small</text>
            <text x="18.0" y="376.0">Medium</text>
            <text x="18.0" y="576.0">Large</text>
        </g>
        <g font-size="9">
            <text x="250.0" y="30.0">Ultralight</text>
            <text x="450.0" y="30.0">Regular</text>
            <text x="650.0" y="30.0">Black</text>
            <text id="template-version" fill="#505050" text-anchor="end" x="785.0" y="575.0">Template v.3.0</text>
            <a href="https://github.com/swhitty/SwiftDraw">
                <text fill="#505050" text-anchor="end" x="785.0" y="590.0">https://github.com/swhitty/SwiftDraw</text>
            </a>
        </g>
    </g>
    <g id="Guides" stroke="rgb(39, 170, 225)" stroke-width="0.5">
        <path id="Capline-S" d="M18,76 l800,0" />
        <path id="H-reference" d="M85,145.755 L87.685,145.755 L113.369,79.287 L114.052,79.287 L114.052,76 L112.148,76 L85,145.755 Z M95.693,121.536 L130.996,121.536 L130.263,119.313 L96.474,119.313 L95.693,121.536 Z M139.15,145.755 L141.787,145.755 L114.638,76 L113.466,76 L113.466,79.287 L139.15,145.755 Z" stroke="none" />
        <path id="Baseline-S" d="M18,146 l800,0" />
        <path id="left-margin-Ultralight-S" d="M211.515,56 l0,110" />
        <path id="right-margin-Ultralight-S" d="M318.485,56 l0,110" />
        <path id="left-margin-Regular-S" d="M411.515,56 l0,110" />
        <path id="right-margin-Regular-S" d="M518.485,56 l0,110" />
        <path id="left-margin-Black-S" d="M611.515,56 l0,110" />
        <path id="right-margin-Black-S" d="M718.485,56 l0,110" />
        <path id="Capline-M" d="M18,276 l800,0" />
        <path id="Baseline-M" d="M18,346 l800,0" />
        <path id="Capline-L" d="M18,476 l800,0" />
        <path id="Baseline-L" d="M18,546 l800,0" />
    </g>
    <g id="Symbols">
        <g id="Ultralight-S">
            <path d="M302.121,111 L302.121,138.576 C302.121,138.857 302.009,139.127 301.811,139.326 C301.612,139.525 301.342,139.636 301.061,139.636 L228.939,139.636 C228.658,139.636 228.388,139.525 228.189,139.326 C227.991,139.127 227.879,138.857 227.879,138.576 L227.879,83.424 C227.879,83.143 227.991,82.873 228.189,82.674 C228.388,82.475 228.658,82.364 228.939,82.364 L301.061,82.364 C301.342,82.364 301.612,82.475 301.811,82.674 C302.009,82.873 302.121,83.143 302.121,83.424 L302.121,111 Z M308.485,111 L308.485,83.424 C308.485,81.455 307.703,79.567 306.31,78.175 C304.918,76.782 303.03,76 301.061,76 L228.939,76 C226.97,76 225.082,76.782 223.69,78.175 C222.297,79.567 221.515,81.455 221.515,83.424 L221.515,138.576 C221.515,140.545 222.297,142.433 223.69,143.825 C225.082,145.218 226.97,146 228.939,146 L301.061,146 C303.03,146 304.918,145.218 306.31,143.826 C307.703,142.433 308.485,140.545 308.485,138.576 L308.485,111 Z" />
            <path d="M240.606,115.242 L240.606,106.758 C240.606,105 239.182,103.576 237.424,103.576 C235.667,103.576 234.242,105 234.242,106.758 L234.242,115.242 C234.242,117 235.667,118.424 237.424,118.424 C239.182,118.424 240.606,117 240.606,115.242 Z" />
        </g>
        <g id="Regular-S">
            <path d="M502.121,111 L502.121,138.576 C502.121,138.857 502.009,139.127 501.811,139.326 C501.612,139.525 501.342,139.636 501.061,139.636 L428.939,139.636 C428.658,139.636 428.388,139.525 428.189,139.326 C427.991,139.127 427.879,138.857 427.879,138.576 L427.879,83.424 C427.879,83.143 427.991,82.873 428.189,82.674 C428.388,82.475 428.658,82.364 428.939,82.364 L501.061,82.364 C501.342,82.364 501.612,82.475 501.811,82.674 C502.009,82.873 502.121,83.143 502.121,83.424 L502.121,111 Z M508.485,111 L508.485,83.424 C508.485,81.455 507.703,79.567 506.31,78.175 C504.918,76.782 503.03,76 501.061,76 L428.939,76 C426.97,76 425.082,76.782 423.69,78.175 C422.297,79.567 421.515,81.455 421.515,83.424 L421.515,138.576 C421.515,140.545 422.297,142.433 423.69,143.825 C425.082,145.218 426.97,146 428.939,146 L501.061,146 C503.03,146 504.918,145.218 506.31,143.826 C507.703,142.433 508.485,140.545 508.485,138.576 L508.485,111 Z" />
            <path d="M440.606,115.242 L440.606,106.758 C440.606,105 439.182,103.576 437.424,103.576 C435.667,103.576 434.242,105 434.242,106.758 L434.242,115.242 C434.242,117 435.667,118.424 437.424,118.424 C439.182,118.424 440.606,117 440.606,115.242 Z" />
        </g>
        <g id="Black-S">
            <path d="M702.121,111 L702.121,138.576 C702.121,138.857 702.01,139.127 701.811,139.326 C701.612,139.525 701.342,139.636 701.061,139.636 L628.939,139.636 C628.658,139.636 628.388,139.525 628.189,139.326 C627.991,139.127 627.879,138.857 627.879,138.576 L627.879,83.424 C627.879,83.143 627.991,82.873 628.189,82.674 C628.388,82.475 628.658,82.364 628.939,82.364 L701.061,82.364 C701.342,82.364 701.612,82.475 701.811,82.674 C702.01,82.873 702.121,83.143 702.121,83.424 L702.121,111 Z M708.485,111 L708.485,83.424 C708.485,81.455 707.703,79.567 706.31,78.175 C704.918,76.782 703.03,76 701.061,76 L628.939,76 C626.97,76 625.082,76.782 623.69,78.175 C622.297,79.567 621.515,81.455 621.515,83.424 L621.515,138.576 C621.515,140.545 622.297,142.433 623.69,143.825 C625.082,145.218 626.97,146 628.939,146 L701.061,146 C703.03,146 704.918,145.218 706.31,143.826 C707.703,142.433 708.485,140.545 708.485,138.576 L708.485,111 Z" />
            <path d="M640.606,115.242 L640.606,106.758 C640.606,105 639.182,103.576 637.424,103.576 C635.667,103.576 634.242,105 634.242,106.758 L634.242,115.242 C634.242,117 635.667,118.424 637.424,118.424 C639.182,118.424 640.606,117 640.606,115.242 Z" />
        </g>
    </g>
</svg>