<?xml version="1.0" encoding="UTF-8"?>
<svg height="600" width="800" xmlns="http://www.w3.org/2000/svg" xmlns:xlink="http://www.w3.org/1999/xlink">
    <g id="Notes" font-family="'LucidaGrande', 'Lucida Grande', sans-serif" font-size="13">
        <rect fill="white" height="600.0" width="800.0" x="0.0" y="0.0" />
        <g font-size="13">
            <text x="18.0" y="176.0">Small</text>
            <text x="18.0" y="376.0">Medium</text>
            <text x="18.0" y="576.0">Large</text>
        </g>
        <g font-size="9">
            <text x="250.0" y="30.0">Ultralight</text>
            <text x="450.0" y="30.0">Regular</text>
            <text x="650.0" y="30.0">Black</text>
            <text id="template-version" fill="#505050" text-anchor="end" x="785.0" y="575.0">Template v.3.0</text>
            <a href="https://github.com/swhitty/SwiftDraw">
                <text fill="#505050" text-anchor="end" x="785.0" y="590.0">https://github.com/swhitty/SwiftDraw</text>
            </a>
        </g>
    </g>
    <g id="Guides" stroke="rgb(39, 170, 225)" stroke-width="0.5">
        <path id="Capline-S" d="M18,76 l800,0" />
        <path id="H-reference" d="M85,145.755 L87.685,145.755 L113.369,79.287 L114.052,79.287 L114.052,76 L112.148,76 L85,145.755 Z M95.693,121.536 L130.996,121.536 L130.263,119.313 L96.474,119.313 L95.693,121.536 Z M139.15,145.755 L141.787,145.755 L114.638,76 L113.466,76 L113.466,79.287 L139.15,145.755 Z" stroke="none" />
        <path id="Baseline-S" d="M18,146 l800,0" />
        <path id="left-margin-Ultralight-S" d="M220,56 l0,110" />
        <path id="right-margin-Ultralight-S" d="M310,56 l0,110" />
        <path id="left-margin-Regular-S" d="M420,56 l0,110" />
        <path id="right-margin-Regular-S" d="M510,56 l0,110" />
        <path id="left-margin-Black-S" d="M620,56 l0,110" />
        <path id="right-margin-Black-S" d="M710,56 l0,110" />
        <path id="Capline-M" d="M18,276 l800,0" />
        <path id="Baseline-M" d="M18,346 l800,0" />
        <path id="Capline-L" d="M18,476 l800,0" />
        <path id="Baseline-L" d="M18,546 l800,0" />
    </g>
    <g id="Symbols">
        <g id="Ultralight-S">
            <path d="M287.545,146 L242.447,146 C235.586,146 230,140.414 230,133.545 L230,88.447 C230,81.586 235.586,76 242.447,76 L287.545,76 C294.406,76 299.992,81.586 299.992,88.447 L299.992,133.545 C300,140.414 294.414,146 287.545,146 Z M242.447,76.53 C235.877,76.53 230.53,81.877 230.53,88.447 L230.53,133.545 C230.53,140.123 235.877,145.47 242.455,145.47 L287.553,145.47 C294.131,145.47 299.478,140.123 299.478,133.545 L299.478,88.447 C299.478,81.869 294.131,76.522 287.553,76.522 L242.447,76.522 L242.447,76.53 Z" />
            <path d="M230,133.553 L300,129.891 L300,88.447 L230,92.109 L230,133.553 Z M266.685,101.469 L270.772,95.167 L274.838,96.85 L290.543,96.028 L291.462,95.98 L291.462,95.98 L291.469,95.98 L291.469,99.776 L291.462,99.776 L291.462,100.395 C290.232,101.561 288.373,103.25 285.138,105.089 C287.379,105.55 289.967,105.969 292.967,106.316 L292.967,110.366 C287.176,109.724 282.764,108.823 279.35,107.836 C275.894,109.214 271.518,110.575 265.933,111.776 L265.933,107.726 C268.861,107.082 271.397,106.413 273.602,105.738 C271.205,104.637 269.663,103.576 268.497,102.774 C268.318,102.654 266.685,101.469 266.685,101.469 L266.685,101.469 L266.685,101.469 Z M272.893,100.748 C274.394,101.643 276.445,102.664 279.473,103.632 C282.512,102.346 284.539,101.111 285.974,100.063 L272.893,100.748 Z M252.246,97.084 L256.549,96.86 C256.44,104.947 256.29,109.789 255.114,113.585 L264.031,113.118 L264.031,116.914 L253.343,117.471 C251.636,120.217 248.981,122.803 244.825,126.468 L238.046,126.826 C238.298,126.612 238.539,126.403 238.774,126.2 L238.774,126.199 L238.904,126.087 C243.083,122.465 245.955,119.973 247.902,117.755 L237.003,118.324 L237.003,114.535 L250.51,113.827 C252.017,110.38 252.135,105.572 252.246,97.084 Z M249.078,99.567 L249.078,103.803 L239.502,102.93 L239.502,98.702 L249.078,99.567 Z M239.502,105.861 L249.078,106.734 L249.078,110.97 L239.502,110.098 L239.502,105.861 Z M277.219,116.226 L265.933,116.817 L265.933,113.021 L277.219,112.43 L277.219,110.269 L281.627,110.045 L281.627,112.199 L292.968,111.604 L292.968,115.4 L281.627,115.995 L281.627,124.551 L277.219,124.782 L277.219,116.226 Z M259.855,119.032 L264.032,125.476 L258.834,125.744 L254.657,119.301 L259.855,119.032 Z M283.631,117.786 L288.822,117.518 L292.998,123.961 L287.808,124.23 L283.631,117.786 Z M275.321,118.219 L271.145,125.102 L265.947,125.371 L270.123,118.495 L275.321,118.219 Z" />
        </g>
        <g id="Regular-S">
            <path d="M487.545,146 L442.447,146 C435.586,146 430,140.414 430,133.545 L430,88.447 C430,81.586 435.586,76 442.447,76 L487.545,76 C494.406,76 499.992,81.586 499.992,88.447 L499.992,133.545 C500,140.414 494.414,146 487.545,146 Z M442.447,76.53 C435.877,76.53 430.53,81.877 430.53,88.447 L430.53,133.545 C430.53,140.123 435.877,145.47 442.455,145.47 L487.553,145.47 C494.131,145.47 499.478,140.123 499.478,133.545 L499.478,88.447 C499.478,81.869 494.131,76.522 487.553,76.522 L442.447,76.522 L442.447,76.53 Z" />
            <path d="M430,133.553 L500,129.891 L500,88.447 L430,92.109 L430,133.553 Z M466.685,101.469 L470.772,95.167 L474.838,96.85 L490.543,96.028 L491.462,95.98 L491.462,95.98 L491.469,95.98 L491.469,99.776 L491.462,99.776 L491.462,100.395 C490.232,101.561 488.373,103.25 485.138,105.089 C487.379,105.55 489.967,105.969 492.967,106.316 L492.967,110.366 C487.176,109.724 482.764,108.823 479.35,107.836 C475.894,109.214 471.518,110.575 465.933,111.776 L465.933,107.726 C468.861,107.082 471.397,106.413 473.602,105.738 C471.205,104.637 469.663,103.576 468.497,102.774 C468.318,102.654 466.685,101.469 466.685,101.469 L466.685,101.469 L466.685,101.469 Z M472.893,100.748 C474.394,101.643 476.445,102.664 479.473,103.632 C482.512,102.346 484.539,101.111 485.974,100.063 L472.893,100.748 Z M452.246,97.084 L456.549,96.86 C456.44,104.947 456.29,109.789 455.114,113.585 L464.031,113.118 L464.031,116.914 L453.343,117.471 C451.636,120.217 448.981,122.803 444.825,126.468 L438.046,126.826 C438.298,126.612 438.539,126.403 438.774,126.2 L438.774,126.199 L438.904,126.087 C443.083,122.465 445.955,119.973 447.902,117.755 L437.003,118.324 L437.003,114.535 L450.51,113.827 C452.017,110.38 452.135,105.572 452.246,97.084 Z M449.078,99.567 L449.078,103.803 L439.502,102.93 L439.502,98.702 L449.078,99.567 Z M439.502,105.861 L449.078,106.734 L449.078,110.97 L439.502,110.098 L439.502,105.861 Z M477.219,116.226 L465.933,116.817 L465.933,113.021 L477.219,112.43 L477.219,110.269 L481.627,110.045 L481.627,112.199 L492.968,111.604 L492.968,115.4 L481.627,115.995 L481.627,124.551 L477.219,124.782 L477.219,116.226 Z M459.855,119.032 L464.032,125.476 L458.834,125.744 L454.657,119.301 L459.855,119.032 Z M483.631,117.786 L488.822,117.518 L492.998,123.961 L487.808,124.23 L483.631,117.786 Z M475.321,118.219 L471.145,125.102 L465.947,125.371 L470.123,118.495 L475.321,118.219 Z" />
        </g>
        <g id="Black-S">
            <path d="M687.545,146 L642.447,146 C635.586,146 630,140.414 630,133.545 L630,88.447 C630,81.586 635.586,76 642.447,76 L687.545,76 C694.406,76 699.992,81.586 699.992,88.447 L699.992,133.545 C700,140.414 694.414,146 687.545,146 Z M642.447,76.53 C635.877,76.53 630.53,81.877 630.53,88.447 L630.53,133.545 C630.53,140.123 635.877,145.47 642.455,145.47 L687.553,145.47 C694.131,145.47 699.478,140.123 699.478,133.545 L699.478,88.447 C699.478,81.869 694.131,76.522 687.553,76.522 L642.447,76.522 L642.447,76.53 Z" />
            <path d="M630,133.553 L700,129.891 L700,88.447 L630,92.109 L630,133.553 Z M666.685,101.469 L670.772,95.167 L674.838,96.85 L690.543,96.028 L691.462,95.98 L691.462,95.98 L691.469,95.98 L691.469,99.776 L691.462,99.776 L691.462,100.395 C690.232,101.561 688.373,103.25 685.138,105.089 C687.379,105.55 689.967,105.969 692.967,106.316 L692.967,110.366 C687.176,109.724 682.764,108.823 679.35,107.836 C675.894,109.214 671.518,110.575 665.933,111.776 L665.933,107.726 C668.861,107.082 671.397,106.413 673.602,105.738 C671.205,104.637 669.663,103.576 668.497,102.774 C668.318,102.654 666.685,101.469 666.685,101.469 L666.685,101.469 L666.685,101.469 Z M672.893,100.748 C674.394,101.643 676.445,102.664 679.473,103.632 C682.512,102.346 684.539,101.111 685.974,100.063 L672.893,100.748 Z M652.246,97.084 L656.549,96.86 C656.44,104.947 656.29,109.789 655.114,113.585 L664.031,113.118 L664.031,116.914 L653.343,117.471 C651.636,120.217 648.981,122.803 644.825,126.468 L638.046,126.826 C638.298,126.612 638.539,126.403 638.774,126.2 L638.774,126.199 L638.904,126.087 C643.083,122.465 645.955,119.973 647.903,117.755 L637.003,118.324 L637.003,114.535 L650.51,113.827 C652.017,110.38 652.135,105.572 652.246,97.084 Z M649.078,99.567 L649.078,103.803 L639.502,102.93 L639.502,98.702 L649.078,99.567 Z M639.502,105.861 L649.078,106.734 L649.078,110.97 L639.502,110.098 L639.502,105.861 Z M677.219,116.226 L665.933,116.817 L665.933,113.021 L677.219,112.43 L677.219,110.269 L681.627,110.045 L681.627,112.199 L692.968,111.604 L692.968,115.4 L681.627,115.995 L681.627,124.551 L677.219,124.782 L677.219,116.226 Z M659.855,119.032 L664.032,125.476 L658.834,125.744 L654.657,119.301 L659.855,119.032 Z M683.631,117.786 L688.822,117.518 L692.998,123.961 L687.808,124.23 L683.631,117.786 Z M675.321,118.219 L671.145,125.102 L665.947,125.371 L670.123,118.495 L675.321,118.219 Z" />
        </g>
    </g>
</svg>