<?xml version="1.0" encoding="UTF-8"?>
<svg height="600" width="800" xmlns="http://www.w3.org/2000/svg" xmlns:xlink="http://www.w3.org/1999/xlink">
    <g id="Notes" font-family="'LucidaGrande', 'Lucida Grande', sans-serif" font-size="13">
        <rect fill="white" height="600.0" width="800.0" x="0.0" y="0.0" />
        <g font-size="13">
            <text x="18.0" y="176.0">Small</text>
            <text x="18.0" y="376.0">Medium</text>
            <text x="18.0" y="576.0">Large</text>
        </g>
        <g font-size="9">
            <text x="250.0" y="30.0">Ultralight</text>
            <text x="450.0" y="30.0">Regular</text>
            <text x="650.0" y="30.0">Black</text>
            <text id="template-version" fill="#505050" text-anchor="end" x="785.0" y="575.0">Template v.3.0</text>
            <a href="https://github.com/swhitty/SwiftDraw">
                <text fill="#505050" text-anchor="end" x="785.0" y="590.0">https://github.com/swhitty/SwiftDraw</text>
            </a>
        </g>
    </g>
    <g id="Guides" stroke="rgb(39, 170, 225)" stroke-width="0.5">
        <path id="Capline-S" d="M18,76 l800,0" />
        <path id="H-reference" d="M85,145.755 L87.685,145.755 L113.369,79.287 L114.052,79.287 L114.052,76 L112.148,76 L85,145.755 Z M95.693,121.536 L130.996,121.536 L130.263,119.313 L96.474,119.313 L95.693,121.536 Z M139.15,145.755 L141.787,145.755 L114.638,76 L113.466,76 L113.466,79.287 L139.15,145.755 Z" stroke="none" />
        <path id="Baseline-S" d="M18,146 l800,0" />
        <path id="left-margin-Ultralight-S" d="M221,56 l0,110" />
        <path id="right-margin-Ultralight-S" d="M309,56 l0,110" />
        <path id="left-margin-Regular-S" d="M421,56 l0,110" />
        <path id="right-margin-Regular-S" d="M509,56 l0,110" />
        <path id="left-margin-Black-S" d="M621,56 l0,110" />
        <path id="right-margin-Black-S" d="M709,56 l0,110" />
        <path id="Capline-M" d="M18,276 l800,0" />
        <path id="Baseline-M" d="M18,346 l800,0" />
        <path id="Capline-L" d="M18,476 l800,0" />
        <path id="Baseline-L" d="M18,546 l800,0" />
    </g>
    <g id="Symbols">
        <g id="Ultralight-S">
            <path d="M240.583,80.883 L289.417,80.883 L286.975,78.442 L286.975,143.554 L290.824,141.558 L266.407,124.35 C265.563,123.755 264.437,123.755 263.593,124.35 L239.176,141.558 L243.025,143.554 L243.025,78.442 L240.583,80.883 Z M240.583,76 C239.234,76 238.141,77.093 238.141,78.442 L238.141,143.554 C238.141,145.533 240.372,146.69 241.989,145.55 L266.407,128.342 L263.593,128.342 L288.011,145.55 C289.628,146.69 291.859,145.533 291.859,143.554 L291.859,78.442 C291.859,77.093 290.766,76 289.417,76 L240.583,76 Z" />
            <path d="M286.975,78.442 L286.975,97.975 L289.417,95.534 L240.583,95.534 L243.025,97.975 L243.025,78.442 L240.583,80.883 L289.417,80.883 L286.975,78.442 Z M291.859,78.442 C291.859,77.093 290.766,76 289.417,76 L240.583,76 C239.234,76 238.141,77.093 238.141,78.442 L238.141,97.975 C238.141,99.324 239.234,100.417 240.583,100.417 L289.417,100.417 C290.766,100.417 291.859,99.324 291.859,97.975 L291.859,78.442 Z" />
        </g>
        <g id="Regular-S">
            <path d="M440.583,80.883 L489.417,80.883 L486.975,78.442 L486.975,143.554 L490.824,141.558 L466.407,124.35 C465.563,123.755 464.437,123.755 463.593,124.35 L439.176,141.558 L443.025,143.554 L443.025,78.442 L440.583,80.883 Z M440.583,76 C439.234,76 438.141,77.093 438.141,78.442 L438.141,143.554 C438.141,145.533 440.372,146.69 441.989,145.55 L466.407,128.342 L463.593,128.342 L488.011,145.55 C489.628,146.69 491.859,145.533 491.859,143.554 L491.859,78.442 C491.859,77.093 490.766,76 489.417,76 L440.583,76 Z" />
            <path d="M486.975,78.442 L486.975,97.975 L489.417,95.534 L440.583,95.534 L443.025,97.975 L443.025,78.442 L440.583,80.883 L489.417,80.883 L486.975,78.442 Z M491.859,78.442 C491.859,77.093 490.766,76 489.417,76 L440.583,76 C439.234,76 438.141,77.093 438.141,78.442 L438.141,97.975 C438.141,99.324 439.234,100.417 440.583,100.417 L489.417,100.417 C490.766,100.417 491.859,99.324 491.859,97.975 L491.859,78.442 Z" />
        </g>
        <g id="Black-S">
            <path d="M640.583,80.883 L689.417,80.883 L686.975,78.442 L686.975,143.554 L690.824,141.558 L666.407,124.35 C665.563,123.755 664.437,123.755 663.593,124.35 L639.176,141.558 L643.025,143.554 L643.025,78.442 L640.583,80.883 Z M640.583,76 C639.234,76 638.141,77.093 638.141,78.442 L638.141,143.554 C638.141,145.533 640.372,146.69 641.99,145.55 L666.407,128.342 L663.593,128.342 L688.01,145.55 C689.628,146.69 691.859,145.533 691.859,143.554 L691.859,78.442 C691.859,77.093 690.766,76 689.417,76 L640.583,76 Z" />
            <path d="M686.975,78.442 L686.975,97.975 L689.417,95.534 L640.583,95.534 L643.025,97.975 L643.025,78.442 L640.583,80.883 L689.417,80.883 L686.975,78.442 Z M691.859,78.442 C691.859,77.093 690.766,76 689.417,76 L640.583,76 C639.234,76 638.141,77.093 638.141,78.442 L638.141,97.975 C638.141,99.324 639.234,100.417 640.583,100.417 L689.417,100.417 C690.766,100.417 691.859,99.324 691.859,97.975 L691.859,78.442 Z" />
        </g>
    </g>
</svg>