<?xml version="1.0" encoding="UTF-8"?>
<svg height="600" width="800" xmlns="http://www.w3.org/2000/svg" xmlns:xlink="http://www.w3.org/1999/xlink">
    <g id="Notes" font-family="'LucidaGrande', 'Lucida Grande', sans-serif" font-size="13">
        <rect fill="white" height="600.0" width="800.0" x="0.0" y="0.0" />
        <g font-size="13">
            <text x="18.0" y="176.0">Small</text>
            <text x="18.0" y="376.0">Medium</text>
            <text x="18.0" y="576.0">Large</text>
        </g>
        <g font-size="9">
            <text x="250.0" y="30.0">Ultralight</text>
            <text x="450.0" y="30.0">Regular</text>
            <text x="650.0" y="30.0">Black</text>
            <text id="template-version" fill="#505050" text-anchor="end" x="785.0" y="575.0">Template v.3.0</text>
            <a href="https://github.com/swhitty/SwiftDraw">
                <text fill="#505050" text-anchor="end" x="785.0" y="590.0">https://github.com/swhitty/SwiftDraw</text>
            </a>
        </g>
    </g>
    <g id="Guides" stroke="rgb(39, 170, 225)" stroke-width="0.5">
        <path id="Capline-S" d="M18,76 l800,0" />
        <path id="H-reference" d="M85,145.755 L87.685,145.755 L113.369,79.287 L114.052,79.287 L114.052,76 L112.148,76 L85,145.755 Z M95.693,121.536 L130.996,121.536 L130.263,119.313 L96.474,119.313 L95.693,121.536 Z M139.15,145.755 L141.787,145.755 L114.638,76 L113.466,76 L113.466,79.287 L139.15,145.755 Z" stroke="none" />
        <path id="Baseline-S" d="M18,146 l800,0" />
        <path id="left-margin-Ultralight-S" d="M221,56 l0,110" />
        <path id="right-margin-Ultralight-S" d="M309,56 l0,110" />
        <path id="left-margin-Regular-S" d="M421,56 l0,110" />
        <path id="right-margin-Regular-S" d="M509,56 l0,110" />
        <path id="left-margin-Black-S" d="M621,56 l0,110" />
        <path id="right-margin-Black-S" d="M709,56 l0,110" />
        <path id="Capline-M" d="M18,276 l800,0" />
        <path id="Baseline-M" d="M18,346 l800,0" />
        <path id="Capline-L" d="M18,476 l800,0" />
        <path id="Baseline-L" d="M18,546 l800,0" />
    </g>
    <g id="Symbols">
        <g id="Ultralight-S">
            <path d="M249.535,119.953 C256.578,119.953 267.442,123.163 267.442,125.651 C267.442,127.065 266.209,127.696 262.656,127.896 C262.01,127.932 261.519,127.947 260.293,127.971 C258.8,128.001 258.144,128.027 257.41,128.107 L257.675,128.093 C255.405,128.093 254.046,128.141 252.398,128.354 C247.259,129.019 243.838,131.068 243.838,135.419 C243.838,140.379 250.718,142.65 263.484,144.351 C271.19,145.377 281.086,146 286.163,146 C287.512,146 288.605,144.907 288.605,143.558 C288.605,142.21 287.512,141.116 286.163,141.116 C271.977,141.116 248.721,138.019 248.721,135.419 C248.721,134.376 250.046,133.583 253.024,133.198 C254.403,133.019 255.606,132.977 257.675,132.977 L257.94,132.962 C258.477,132.904 259.053,132.881 260.391,132.854 C261.677,132.828 262.205,132.813 262.93,132.772 C268.779,132.443 272.326,130.627 272.326,125.651 C272.326,118.871 259.461,115.07 249.535,115.07 C248.187,115.07 247.093,116.163 247.093,117.512 C247.093,118.86 248.187,119.953 249.535,119.953 Z" />
            <path d="M279.652,96.349 C279.652,86.932 270.734,76 260.613,76 C250.43,76 241.909,87.897 238.281,103.052 C237.845,104.871 237.468,106.799 237.146,108.824 C236.473,113.054 236.057,117.558 235.848,122.125 C235.707,125.215 235.677,127.928 235.709,130.049 C235.713,130.315 235.717,130.502 235.72,130.604 C235.758,131.952 236.881,133.014 238.229,132.976 C239.577,132.938 240.639,131.814 240.601,130.466 C240.599,130.385 240.596,130.22 240.592,129.975 C240.561,127.948 240.591,125.332 240.727,122.348 C240.928,117.951 241.327,113.623 241.969,109.591 C242.272,107.686 242.625,105.88 243.03,104.189 C246.189,90.996 253.432,80.884 260.613,80.884 C267.793,80.884 274.768,89.435 274.768,96.349 C274.768,97.697 275.861,98.791 277.21,98.791 C278.558,98.791 279.652,97.697 279.652,96.349 Z" />
            <path d="M271.512,111 C271.512,106.221 274.198,102.047 278.838,102.047 C283.094,102.047 286.437,106.241 287.854,112.364 C288.129,113.552 288.375,114.94 288.59,116.485 C288.872,118.505 289.089,120.681 289.248,122.859 C289.304,123.623 289.349,124.331 289.383,124.966 C289.403,125.344 289.416,125.611 289.421,125.748 C289.474,127.095 290.61,128.145 291.958,128.091 C293.305,128.038 294.354,126.902 294.301,125.554 C294.295,125.395 294.281,125.105 294.259,124.703 C294.224,124.038 294.177,123.299 294.119,122.503 C293.953,120.226 293.726,117.947 293.427,115.809 C293.193,114.132 292.923,112.607 292.612,111.264 C290.744,103.189 285.941,97.163 278.838,97.163 C270.935,97.163 266.628,103.856 266.628,111 C266.628,112.349 267.722,113.442 269.07,113.442 C270.419,113.442 271.512,112.349 271.512,111 Z" />
        </g>
        <g id="Regular-S">
            <path d="M449.535,119.953 C456.578,119.953 467.442,123.163 467.442,125.651 C467.442,127.065 466.209,127.696 462.656,127.896 C462.01,127.932 461.519,127.947 460.293,127.971 C458.8,128.001 458.144,128.027 457.41,128.107 L457.675,128.093 C455.405,128.093 454.046,128.141 452.398,128.354 C447.259,129.019 443.838,131.068 443.838,135.419 C443.838,140.379 450.718,142.65 463.484,144.351 C471.19,145.377 481.086,146 486.163,146 C487.512,146 488.605,144.907 488.605,143.558 C488.605,142.21 487.512,141.116 486.163,141.116 C471.977,141.116 448.721,138.019 448.721,135.419 C448.721,134.376 450.046,133.583 453.024,133.198 C454.403,133.019 455.606,132.977 457.675,132.977 L457.94,132.962 C458.477,132.904 459.053,132.881 460.391,132.854 C461.677,132.828 462.205,132.813 462.93,132.772 C468.779,132.443 472.326,130.627 472.326,125.651 C472.326,118.871 459.461,115.07 449.535,115.07 C448.187,115.07 447.094,116.163 447.094,117.512 C447.094,118.86 448.187,119.953 449.535,119.953 Z" />
            <path d="M479.652,96.349 C479.652,86.932 470.734,76 460.613,76 C450.43,76 441.909,87.897 438.281,103.052 C437.845,104.871 437.468,106.799 437.146,108.824 C436.473,113.054 436.057,117.558 435.848,122.125 C435.707,125.215 435.677,127.928 435.709,130.049 C435.713,130.315 435.717,130.502 435.72,130.604 C435.758,131.952 436.881,133.014 438.229,132.976 C439.577,132.938 440.639,131.814 440.601,130.466 C440.599,130.385 440.596,130.22 440.592,129.975 C440.561,127.948 440.591,125.332 440.727,122.348 C440.928,117.951 441.327,113.623 441.969,109.591 C442.272,107.686 442.625,105.88 443.03,104.189 C446.189,90.996 453.432,80.884 460.613,80.884 C467.793,80.884 474.768,89.435 474.768,96.349 C474.768,97.697 475.861,98.791 477.21,98.791 C478.558,98.791 479.652,97.697 479.652,96.349 Z" />
            <path d="M471.512,111 C471.512,106.221 474.198,102.047 478.838,102.047 C483.094,102.047 486.437,106.241 487.854,112.364 C488.129,113.552 488.375,114.94 488.59,116.485 C488.872,118.505 489.089,120.681 489.248,122.859 C489.304,123.623 489.349,124.331 489.383,124.966 C489.403,125.344 489.416,125.611 489.421,125.748 C489.474,127.095 490.61,128.145 491.958,128.091 C493.305,128.038 494.354,126.902 494.301,125.554 C494.295,125.395 494.281,125.105 494.259,124.703 C494.224,124.038 494.177,123.299 494.119,122.503 C493.953,120.226 493.726,117.947 493.427,115.809 C493.193,114.132 492.923,112.607 492.612,111.264 C490.744,103.189 485.941,97.163 478.838,97.163 C470.935,97.163 466.628,103.856 466.628,111 C466.628,112.349 467.722,113.442 469.07,113.442 C470.419,113.442 471.512,112.349 471.512,111 Z" />
        </g>
        <g id="Black-S">
            <path d="M649.535,119.953 C656.578,119.953 667.442,123.163 667.442,125.651 C667.442,127.065 666.209,127.696 662.656,127.896 C662.01,127.932 661.519,127.947 660.293,127.971 C658.8,128.001 658.144,128.027 657.41,128.107 L657.675,128.093 C655.405,128.093 654.046,128.141 652.398,128.354 C647.259,129.019 643.838,131.068 643.838,135.419 C643.838,140.379 650.719,142.65 663.484,144.351 C671.19,145.377 681.086,146 686.163,146 C687.512,146 688.605,144.907 688.605,143.558 C688.605,142.21 687.512,141.116 686.163,141.116 C671.977,141.116 648.721,138.019 648.721,135.419 C648.721,134.376 650.046,133.583 653.024,133.198 C654.403,133.019 655.606,132.977 657.675,132.977 L657.94,132.962 C658.477,132.904 659.053,132.881 660.391,132.854 C661.678,132.828 662.205,132.813 662.93,132.772 C668.779,132.443 672.326,130.627 672.326,125.651 C672.326,118.871 659.461,115.07 649.535,115.07 C648.187,115.07 647.094,116.163 647.094,117.512 C647.094,118.86 648.187,119.953 649.535,119.953 Z" />
            <path d="M679.652,96.349 C679.652,86.932 670.734,76 660.613,76 C650.43,76 641.909,87.897 638.281,103.052 C637.845,104.871 637.468,106.799 637.146,108.824 C636.473,113.054 636.057,117.558 635.848,122.125 C635.707,125.215 635.677,127.928 635.709,130.049 C635.713,130.315 635.717,130.502 635.72,130.604 C635.758,131.952 636.881,133.014 638.229,132.976 C639.577,132.938 640.639,131.814 640.601,130.466 C640.599,130.385 640.596,130.22 640.592,129.975 C640.561,127.948 640.591,125.332 640.727,122.348 C640.928,117.951 641.327,113.623 641.969,109.591 C642.272,107.686 642.625,105.88 643.03,104.189 C646.189,90.996 653.432,80.884 660.613,80.884 C667.793,80.884 674.768,89.435 674.768,96.349 C674.768,97.697 675.861,98.791 677.21,98.791 C678.558,98.791 679.652,97.697 679.652,96.349 Z" />
            <path d="M671.512,111 C671.512,106.221 674.198,102.047 678.838,102.047 C683.094,102.047 686.437,106.241 687.854,112.364 C688.129,113.552 688.375,114.94 688.59,116.485 C688.872,118.505 689.089,120.681 689.248,122.859 C689.304,123.623 689.349,124.331 689.383,124.966 C689.403,125.344 689.416,125.611 689.421,125.748 C689.474,127.095 690.61,128.145 691.958,128.091 C693.305,128.038 694.354,126.902 694.301,125.554 C694.295,125.395 694.281,125.105 694.259,124.703 C694.224,124.038 694.177,123.299 694.119,122.503 C693.953,120.226 693.726,117.947 693.427,115.809 C693.193,114.132 692.923,112.607 692.612,111.264 C690.744,103.189 685.941,97.163 678.838,97.163 C670.935,97.163 666.628,103.856 666.628,111 C666.628,112.349 667.722,113.442 669.07,113.442 C670.419,113.442 671.512,112.349 671.512,111 Z" />
        </g>
    </g>
</svg>