<?xml version="1.0" encoding="UTF-8"?>
<svg height="600" width="800" xmlns="http://www.w3.org/2000/svg" xmlns:xlink="http://www.w3.org/1999/xlink">
    <g id="Notes" font-family="'LucidaGrande', 'Lucida Grande', sans-serif" font-size="13">
        <rect fill="white" height="600.0" width="800.0" x="0.0" y="0.0" />
        <g font-size="13">
            <text x="18.0" y="176.0">Small</text>
            <text x="18.0" y="376.0">Medium</text>
            <text x="18.0" y="576.0">Large</text>
        </g>
        <g font-size="9">
            <text x="250.0" y="30.0">Ultralight</text>
            <text x="450.0" y="30.0">Regular</text>
            <text x="650.0" y="30.0">Black</text>
            <text id="template-version" fill="#505050" text-anchor="end" x="785.0" y="575.0">Template v.3.0</text>
            <a href="https://github.com/swhitty/SwiftDraw">
                <text fill="#505050" text-anchor="end" x="785.0" y="590.0">https://github.com/swhitty/SwiftDraw</text>
            </a>
        </g>
    </g>
    <g id="Guides" stroke="rgb(39, 170, 225)" stroke-width="0.5">
        <path id="Capline-S" d="M18,76 l800,0" />
        <path id="H-reference" d="M85,145.755 L87.685,145.755 L113.369,79.287 L114.052,79.287 L114.052,76 L112.148,76 L85,145.755 Z M95.693,121.536 L130.996,121.536 L130.263,119.313 L96.474,119.313 L95.693,121.536 Z M139.15,145.755 L141.787,145.755 L114.638,76 L113.466,76 L113.466,79.287 L139.15,145.755 Z" stroke="none" />
        <path id="Baseline-S" d="M18,146 l800,0" />
        <path id="left-margin-Ultralight-S" d="M221,56 l0,110" />
        <path id="right-margin-Ultralight-S" d="M309,56 l0,110" />
        <path id="left-margin-Regular-S" d="M421,56 l0,110" />
        <path id="right-margin-Regular-S" d="M509,56 l0,110" />
        <path id="left-margin-Black-S" d="M621,56 l0,110" />
        <path id="right-margin-Black-S" d="M709,56 l0,110" />
        <path id="Capline-M" d="M18,276 l800,0" />
        <path id="Baseline-M" d="M18,346 l800,0" />
        <path id="Capline-L" d="M18,476 l800,0" />
        <path id="Baseline-L" d="M18,546 l800,0" />
    </g>
    <g id="Symbols">
        <g id="Ultralight-S">
            <path d="M238.564,116.079 C238.564,111.841 242,108.405 246.239,108.405 C250.478,108.405 253.914,111.841 253.914,116.079 C253.914,120.318 250.478,123.754 246.239,123.754 C242,123.754 238.564,120.318 238.564,116.079 Z M233.447,116.079 C233.447,123.144 239.174,128.871 246.239,128.871 C253.303,128.871 259.03,123.144 259.03,116.079 C259.03,109.015 253.303,103.288 246.239,103.288 C239.174,103.288 233.447,109.015 233.447,116.079 Z" />
            <path d="M248.797,105.846 C248.797,92.223 254.246,81.117 265,81.117 C269.345,81.117 273.506,82.424 276.231,85.169 C279.876,88.842 281.05,95.053 278.776,104.5 C278.669,104.946 278.429,105.635 278.093,106.47 C277.997,106.709 277.894,106.956 277.786,107.211 C277.529,107.815 277.251,108.433 276.974,109.028 C276.808,109.384 276.68,109.651 276.609,109.794 L273.834,116.024 C268.549,126.663 269.02,139.832 280.185,145.024 C286.187,147.816 294.661,144.517 296.489,136.431 C296.801,135.053 295.936,133.683 294.558,133.372 C293.18,133.06 291.81,133.925 291.499,135.303 C290.44,139.984 285.564,141.883 282.342,140.385 C274.6,136.784 274.24,126.707 278.463,118.202 L281.244,111.961 C281.288,111.874 281.43,111.579 281.611,111.191 C281.911,110.547 282.212,109.877 282.494,109.214 C282.615,108.93 282.73,108.652 282.839,108.382 C283.261,107.333 283.572,106.438 283.751,105.697 C286.408,94.657 284.891,86.632 279.862,81.565 C276.039,77.712 270.589,76 265,76 C250.428,76 243.68,89.755 243.68,105.846 C243.68,107.259 244.826,108.405 246.239,108.405 C247.652,108.405 248.797,107.259 248.797,105.846 Z" />
        </g>
        <g id="Regular-S">
            <path d="M438.564,116.079 C438.564,111.841 442,108.405 446.239,108.405 C450.478,108.405 453.914,111.841 453.914,116.079 C453.914,120.318 450.478,123.754 446.239,123.754 C442,123.754 438.564,120.318 438.564,116.079 Z M433.447,116.079 C433.447,123.144 439.174,128.871 446.239,128.871 C453.303,128.871 459.03,123.144 459.03,116.079 C459.03,109.015 453.303,103.288 446.239,103.288 C439.174,103.288 433.447,109.015 433.447,116.079 Z" />
            <path d="M448.797,105.846 C448.797,92.223 454.246,81.117 465,81.117 C469.345,81.117 473.506,82.424 476.231,85.169 C479.876,88.842 481.05,95.053 478.776,104.5 C478.669,104.946 478.429,105.635 478.093,106.47 C477.997,106.709 477.894,106.956 477.786,107.211 C477.529,107.815 477.251,108.433 476.974,109.028 C476.808,109.384 476.68,109.651 476.609,109.794 L473.834,116.024 C468.549,126.663 469.02,139.832 480.185,145.024 C486.187,147.816 494.661,144.517 496.489,136.431 C496.801,135.053 495.936,133.683 494.558,133.372 C493.18,133.06 491.81,133.925 491.499,135.303 C490.44,139.984 485.564,141.883 482.342,140.385 C474.6,136.784 474.24,126.707 478.463,118.202 L481.244,111.961 C481.288,111.874 481.43,111.579 481.611,111.191 C481.911,110.547 482.212,109.877 482.494,109.214 C482.615,108.93 482.73,108.652 482.839,108.382 C483.261,107.333 483.572,106.438 483.751,105.697 C486.408,94.657 484.891,86.632 479.862,81.565 C476.039,77.712 470.589,76 465,76 C450.428,76 443.68,89.755 443.68,105.846 C443.68,107.259 444.826,108.405 446.239,108.405 C447.652,108.405 448.797,107.259 448.797,105.846 Z" />
        </g>
        <g id="Black-S">
            <path d="M638.564,116.079 C638.564,111.841 642,108.405 646.239,108.405 C650.478,108.405 653.914,111.841 653.914,116.079 C653.914,120.318 650.478,123.754 646.239,123.754 C642,123.754 638.564,120.318 638.564,116.079 Z M633.447,116.079 C633.447,123.144 639.174,128.871 646.239,128.871 C653.303,128.871 659.03,123.144 659.03,116.079 C659.03,109.015 653.303,103.288 646.239,103.288 C639.174,103.288 633.447,109.015 633.447,116.079 Z" />
            <path d="M648.797,105.846 C648.797,92.223 654.246,81.117 665,81.117 C669.345,81.117 673.506,82.424 676.231,85.169 C679.876,88.842 681.05,95.053 678.776,104.5 C678.669,104.946 678.429,105.635 678.093,106.47 C677.997,106.709 677.894,106.956 677.786,107.211 C677.529,107.815 677.251,108.433 676.974,109.028 C676.808,109.384 676.68,109.651 676.609,109.794 L673.834,116.024 C668.549,126.663 669.02,139.832 680.185,145.024 C686.187,147.816 694.661,144.517 696.489,136.431 C696.801,135.053 695.936,133.683 694.558,133.372 C693.18,133.06 691.81,133.925 691.499,135.303 C690.44,139.984 685.564,141.883 682.342,140.385 C674.6,136.784 674.24,126.707 678.463,118.202 L681.244,111.961 C681.288,111.874 681.43,111.579 681.611,111.191 C681.911,110.547 682.212,109.877 682.494,109.214 C682.615,108.93 682.73,108.652 682.839,108.382 C683.261,107.333 683.572,106.438 683.751,105.697 C686.408,94.657 684.891,86.632 679.862,81.565 C676.039,77.712 670.589,76 665,76 C650.428,76 643.68,89.755 643.68,105.846 C643.68,107.259 644.826,108.405 646.239,108.405 C647.652,108.405 648.797,107.259 648.797,105.846 Z" />
        </g>
    </g>
</svg>