<?xml version="1.0" encoding="UTF-8"?>
<svg height="600" width="800" xmlns="http://www.w3.org/2000/svg" xmlns:xlink="http://www.w3.org/1999/xlink">
    <g id="Notes" font-family="'LucidaGrande', 'Lucida Grande', sans-serif" font-size="13">
        <rect fill="white" height="600.0" width="800.0" x="0.0" y="0.0" />
        <g font-size="13">
            <text x="18.0" y="176.0">Small</text>
            <text x="18.0" y="376.0">Medium</text>
            <text x="18.0" y="576.0">Large</text>
        </g>
        <g font-size="9">
            <text x="250.0" y="30.0">Ultralight</text>
            <text x="450.0" y="30.0">Regular</text>
            <text x="650.0" y="30.0">Black</text>
            <text id="template-version" fill="#505050" text-anchor="end" x="785.0" y="575.0">Template v.3.0</text>
            <a href="https://github.com/swhitty/SwiftDraw">
                <text fill="#505050" text-anchor="end" x="785.0" y="590.0">https://github.com/swhitty/SwiftDraw</text>
            </a>
        </g>
    </g>
    <g id="Guides" stroke="rgb(39, 170, 225)" stroke-width="0.5">
        <path id="Capline-S" d="M18,76 l800,0" />
        <path id="H-reference" d="M85,145.755 L87.685,145.755 L113.369,79.287 L114.052,79.287 L114.052,76 L112.148,76 L85,145.755 Z M95.693,121.536 L130.996,121.536 L130.263,119.313 L96.474,119.313 L95.693,121.536 Z M139.15,145.755 L141.787,145.755 L114.638,76 L113.466,76 L113.466,79.287 L139.15,145.755 Z" stroke="none" />
        <path id="Baseline-S" d="M18,146 l800,0" />
        <path id="left-margin-Ultralight-S" d="M217,56 l0,110" />
        <path id="right-margin-Ultralight-S" d="M313,56 l0,110" />
        <path id="left-margin-Regular-S" d="M417,56 l0,110" />
        <path id="right-margin-Regular-S" d="M513,56 l0,110" />
        <path id="left-margin-Black-S" d="M617,56 l0,110" />
        <path id="right-margin-Black-S" d="M713,56 l0,110" />
        <path id="Capline-M" d="M18,276 l800,0" />
        <path id="Baseline-M" d="M18,346 l800,0" />
        <path id="Capline-L" d="M18,476 l800,0" />
        <path id="Baseline-L" d="M18,546 l800,0" />
    </g>
    <g id="Symbols">
        <g id="Ultralight-S">
            <path d="M227,79 L227,143 C227,144.657 228.343,146 230,146 C231.657,146 233,144.657 233,143 L233,79 C233,77.343 231.657,76 230,76 C228.343,76 227,77.343 227,79 Z" />
            <path d="M263,79 L263,143 C263,144.657 264.343,146 266,146 C267.657,146 269,144.657 269,143 L269,79 C269,77.343 267.657,76 266,76 C264.343,76 263,77.343 263,79 Z" />
            <path d="M232,114 L264,114 C265.657,114 267,112.657 267,111 C267,109.343 265.657,108 264,108 L232,108 C230.343,108 229,109.343 229,111 C229,112.657 230.343,114 232,114 Z" />
            <path d="M298,102.019 L282,102.019 C280.343,102.019 279,103.362 279,105.019 L279,119.068 L282,119.068 L285,119.068 C283.643,121.835 283.643,121.835 283.586,121.609 C283.52,121.646 283.52,121.646 283.537,121.637 C283.607,121.602 283.728,121.546 283.882,121.482 C284.34,121.289 284.921,121.083 285.587,120.889 C287.492,120.336 289.662,120 292,120 C295.463,120 297,122.777 297,130 C297,137.5 295.34,140 290,140 C286.458,140 285,138.253 285,135.016 C285,133.359 283.657,132.016 282,132.016 C280.343,132.016 279,133.359 279,135.016 C279,141.35 282.88,146 290,146 C299.294,146 303,140.421 303,130 C303,119.904 299.732,114 292,114 C285.651,114 279,115.933 279,119.068 C279,123.068 285,123.068 285,119.068 L285,105.019 L282,108.019 L298,108.019 C299.657,108.019 301,106.675 301,105.019 C301,103.362 299.657,102.019 298,102.019 Z" />
        </g>
        <g id="Regular-S">
            <path d="M427,79 L427,143 C427,144.657 428.343,146 430,146 C431.657,146 433,144.657 433,143 L433,79 C433,77.343 431.657,76 430,76 C428.343,76 427,77.343 427,79 Z" />
            <path d="M463,79 L463,143 C463,144.657 464.343,146 466,146 C467.657,146 469,144.657 469,143 L469,79 C469,77.343 467.657,76 466,76 C464.343,76 463,77.343 463,79 Z" />
            <path d="M432,114 L464,114 C465.657,114 467,112.657 467,111 C467,109.343 465.657,108 464,108 L432,108 C430.343,108 429,109.343 429,111 C429,112.657 430.343,114 432,114 Z" />
            <path d="M498,102.019 L482,102.019 C480.343,102.019 479,103.362 479,105.019 L479,119.068 L482,119.068 L485,119.068 C483.643,121.835 483.643,121.835 483.586,121.609 C483.52,121.646 483.52,121.646 483.537,121.637 C483.607,121.602 483.728,121.546 483.882,121.482 C484.34,121.289 484.921,121.083 485.587,120.889 C487.492,120.336 489.662,120 492,120 C495.463,120 497,122.777 497,130 C497,137.5 495.34,140 490,140 C486.458,140 485,138.253 485,135.016 C485,133.359 483.657,132.016 482,132.016 C480.343,132.016 479,133.359 479,135.016 C479,141.35 482.88,146 490,146 C499.294,146 503,140.421 503,130 C503,119.904 499.732,114 492,114 C485.651,114 479,115.933 479,119.068 C479,123.068 485,123.068 485,119.068 L485,105.019 L482,108.019 L498,108.019 C499.657,108.019 501,106.675 501,105.019 C501,103.362 499.657,102.019 498,102.019 Z" />
        </g>
        <g id="Black-S">
            <path d="M627,79 L627,143 C627,144.657 628.343,146 630,146 C631.657,146 633,144.657 633,143 L633,79 C633,77.343 631.657,76 630,76 C628.343,76 627,77.343 627,79 Z" />
            <path d="M663,79 L663,143 C663,144.657 664.343,146 666,146 C667.657,146 669,144.657 669,143 L669,79 C669,77.343 667.657,76 666,76 C664.343,76 663,77.343 663,79 Z" />
            <path d="M632,114 L664,114 C665.657,114 667,112.657 667,111 C667,109.343 665.657,108 664,108 L632,108 C630.343,108 629,109.343 629,111 C629,112.657 630.343,114 632,114 Z" />
            <path d="M698,102.019 L682,102.019 C680.343,102.019 679,103.362 679,105.019 L679,119.068 L682,119.068 L685,119.068 C683.643,121.835 683.643,121.835 683.586,121.609 C683.52,121.646 683.52,121.646 683.537,121.637 C683.607,121.602 683.728,121.546 683.882,121.482 C684.34,121.289 684.921,121.083 685.587,120.889 C687.492,120.336 689.662,120 692,120 C695.463,120 697,122.777 697,130 C697,137.5 695.34,140 690,140 C686.458,140 685,138.253 685,135.016 C685,133.359 683.657,132.016 682,132.016 C680.343,132.016 679,133.359 679,135.016 C679,141.35 682.88,146 690,146 C699.294,146 703,140.421 703,130 C703,119.904 699.732,114 692,114 C685.651,114 679,115.933 679,119.068 C679,123.068 685,123.068 685,119.068 L685,105.019 L682,108.019 L698,108.019 C699.657,108.019 701,106.675 701,105.019 C701,103.362 699.657,102.019 698,102.019 Z" />
        </g>
    </g>
</svg>