<?xml version="1.0" encoding="UTF-8"?>
<svg height="600" width="800" xmlns="http://www.w3.org/2000/svg" xmlns:xlink="http://www.w3.org/1999/xlink">
    <g id="Notes" font-family="'LucidaGrande', 'Lucida Grande', sans-serif" font-size="13">
        <rect fill="white" height="600.0" width="800.0" x="0.0" y="0.0" />
        <g font-size="13">
            <text x="18.0" y="176.0">Small</text>
            <text x="18.0" y="376.0">Medium</text>
            <text x="18.0" y="576.0">Large</text>
        </g>
        <g font-size="9">
            <text x="250.0" y="30.0">Ultralight</text>
            <text x="450.0" y="30.0">Regular</text>
            <text x="650.0" y="30.0">Black</text>
            <text id="template-version" fill="#505050" text-anchor="end" x="785.0" y="575.0">Template v.3.0</text>
            <a href="https://github.com/swhitty/SwiftDraw">
                <text fill="#505050" text-anchor="end" x="785.0" y="590.0">https://github.com/swhitty/SwiftDraw</text>
            </a>
        </g>
    </g>
    <g id="Guides" stroke="rgb(39, 170, 225)" stroke-width="0.5">
        <path id="Capline-S" d="M18,76 l800,0" />
        <path id="H-reference" d="M85,145.755 L87.685,145.755 L113.369,79.287 L114.052,79.287 L114.052,76 L112.148,76 L85,145.755 Z M95.693,121.536 L130.996,121.536 L130.263,119.313 L96.474,119.313 L95.693,121.536 Z M139.15,145.755 L141.787,145.755 L114.638,76 L113.466,76 L113.466,79.287 L139.15,145.755 Z" stroke="none" />
        <path id="Baseline-S" d="M18,146 l800,0" />
        <path id="left-margin-Ultralight-S" d="M211,56 l0,110" />
        <path id="right-margin-Ultralight-S" d="M319,56 l0,110" />
        <path id="left-margin-Regular-S" d="M411,56 l0,110" />
        <path id="right-margin-Regular-S" d="M519,56 l0,110" />
        <path id="left-margin-Black-S" d="M611,56 l0,110" />
        <path id="right-margin-Black-S" d="M719,56 l0,110" />
        <path id="Capline-M" d="M18,276 l800,0" />
        <path id="Baseline-M" d="M18,346 l800,0" />
        <path id="Capline-L" d="M18,476 l800,0" />
        <path id="Baseline-L" d="M18,546 l800,0" />
    </g>
    <g id="Symbols">
        <g id="Ultralight-S">
            <path d="M224.07,144.767 L305.93,144.767 C307.626,144.767 309,143.393 309,141.698 C309,140.002 307.626,138.628 305.93,138.628 L224.07,138.628 C222.374,138.628 221,140.002 221,141.698 C221,143.393 222.374,144.767 224.07,144.767 Z" />
            <path d="M224.07,120.209 L247.605,120.209 C249.3,120.209 250.674,118.835 250.674,117.14 C250.674,115.444 249.3,114.07 247.605,114.07 L224.07,114.07 C222.374,114.07 221,115.444 221,117.14 C221,118.835 222.374,120.209 224.07,120.209 Z" />
            <path d="M282.395,120.209 L305.93,120.209 C307.626,120.209 309,118.835 309,117.14 C309,115.444 307.626,114.07 305.93,114.07 L282.395,114.07 C280.7,114.07 279.326,115.444 279.326,117.14 C279.326,118.835 280.7,120.209 282.395,120.209 Z" />
            <path d="M250.001,115.185 C249.762,114.895 249.532,114.601 249.313,114.301 C249.1,114.011 248.896,113.716 248.7,113.416 C246.66,110.287 245.558,106.636 245.558,102.814 C245.558,92.077 254.263,83.372 265,83.372 C275.737,83.372 284.442,92.077 284.442,102.814 C284.442,106.636 283.34,110.287 281.3,113.416 C281.104,113.716 280.9,114.011 280.688,114.3 C280.468,114.601 280.238,114.895 279.999,115.185 C278.919,116.493 279.104,118.427 280.412,119.507 C281.719,120.586 283.654,120.401 284.733,119.094 C285.047,118.714 285.349,118.326 285.638,117.931 C285.916,117.552 286.185,117.165 286.442,116.77 C289.129,112.65 290.581,107.836 290.581,102.814 C290.581,88.686 279.128,77.233 265,77.233 C250.872,77.233 239.419,88.686 239.419,102.814 C239.419,107.836 240.871,112.65 243.557,116.77 C243.815,117.165 244.084,117.552 244.362,117.932 C244.651,118.326 244.953,118.714 245.267,119.094 C246.346,120.401 248.281,120.586 249.588,119.507 C250.896,118.427 251.081,116.493 250.001,115.185 Z" />
        </g>
        <g id="Regular-S">
            <path d="M424.07,144.767 L505.93,144.767 C507.626,144.767 509,143.393 509,141.698 C509,140.002 507.626,138.628 505.93,138.628 L424.07,138.628 C422.374,138.628 421,140.002 421,141.698 C421,143.393 422.374,144.767 424.07,144.767 Z" />
            <path d="M424.07,120.209 L447.605,120.209 C449.3,120.209 450.674,118.835 450.674,117.14 C450.674,115.444 449.3,114.07 447.605,114.07 L424.07,114.07 C422.374,114.07 421,115.444 421,117.14 C421,118.835 422.374,120.209 424.07,120.209 Z" />
            <path d="M482.395,120.209 L505.93,120.209 C507.626,120.209 509,118.835 509,117.14 C509,115.444 507.626,114.07 505.93,114.07 L482.395,114.07 C480.7,114.07 479.326,115.444 479.326,117.14 C479.326,118.835 480.7,120.209 482.395,120.209 Z" />
            <path d="M450.001,115.185 C449.762,114.895 449.532,114.601 449.313,114.301 C449.1,114.011 448.896,113.716 448.7,113.416 C446.66,110.287 445.558,106.636 445.558,102.814 C445.558,92.077 454.263,83.372 465,83.372 C475.737,83.372 484.442,92.077 484.442,102.814 C484.442,106.636 483.34,110.287 481.3,113.416 C481.104,113.716 480.9,114.011 480.688,114.3 C480.468,114.601 480.238,114.895 479.999,115.185 C478.919,116.493 479.104,118.427 480.412,119.507 C481.719,120.586 483.654,120.401 484.733,119.094 C485.047,118.714 485.349,118.326 485.638,117.931 C485.916,117.552 486.185,117.165 486.442,116.77 C489.129,112.65 490.581,107.836 490.581,102.814 C490.581,88.686 479.128,77.233 465,77.233 C450.872,77.233 439.419,88.686 439.419,102.814 C439.419,107.836 440.871,112.65 443.557,116.77 C443.815,117.165 444.084,117.552 444.362,117.932 C444.651,118.326 444.953,118.714 445.267,119.094 C446.346,120.401 448.281,120.586 449.588,119.507 C450.896,118.427 451.081,116.493 450.001,115.185 Z" />
        </g>
        <g id="Black-S">
            <path d="M624.07,144.767 L705.93,144.767 C707.626,144.767 709,143.393 709,141.698 C709,140.002 707.626,138.628 705.93,138.628 L624.07,138.628 C622.374,138.628 621,140.002 621,141.698 C621,143.393 622.374,144.767 624.07,144.767 Z" />
            <path d="M624.07,120.209 L647.605,120.209 C649.3,120.209 650.674,118.835 650.674,117.14 C650.674,115.444 649.3,114.07 647.605,114.07 L624.07,114.07 C622.374,114.07 621,115.444 621,117.14 C621,118.835 622.374,120.209 624.07,120.209 Z" />
            <path d="M682.395,120.209 L705.93,120.209 C707.626,120.209 709,118.835 709,117.14 C709,115.444 707.626,114.07 705.93,114.07 L682.395,114.07 C680.7,114.07 679.326,115.444 679.326,117.14 C679.326,118.835 680.7,120.209 682.395,120.209 Z" />
            <path d="M650.001,115.185 C649.762,114.895 649.532,114.601 649.313,114.301 C649.1,114.011 648.896,113.716 648.7,113.416 C646.66,110.287 645.558,106.636 645.558,102.814 C645.558,92.077 654.263,83.372 665,83.372 C675.737,83.372 684.442,92.077 684.442,102.814 C684.442,106.636 683.34,110.287 681.3,113.416 C681.104,113.716 680.9,114.011 680.688,114.3 C680.468,114.601 680.238,114.895 679.999,115.185 C678.919,116.493 679.104,118.427 680.412,119.507 C681.719,120.586 683.654,120.401 684.733,119.094 C685.047,118.714 685.349,118.326 685.638,117.931 C685.916,117.552 686.185,117.165 686.442,116.77 C689.129,112.65 690.581,107.836 690.581,102.814 C690.581,88.686 679.128,77.233 665,77.233 C650.872,77.233 639.419,88.686 639.419,102.814 C639.419,107.836 640.871,112.65 643.557,116.77 C643.815,117.165 644.084,117.552 644.362,117.932 C644.651,118.326 644.953,118.714 645.267,119.094 C646.346,120.401 648.281,120.586 649.588,119.507 C650.896,118.427 651.081,116.493 650.001,115.185 Z" />
        </g>
    </g>
</svg>