<?xml version="1.0" encoding="UTF-8"?>
<svg height="600" width="800" xmlns="http://www.w3.org/2000/svg" xmlns:xlink="http://www.w3.org/1999/xlink">
    <g id="Notes" font-family="'LucidaGrande', 'Lucida Grande', sans-serif" font-size="13">
        <rect fill="white" height="600.0" width="800.0" x="0.0" y="0.0" />
        <g font-size="13">
            <text x="18.0" y="176.0">Small</text>
            <text x="18.0" y="376.0">Medium</text>
            <text x="18.0" y="576.0">Large</text>
        </g>
        <g font-size="9">
            <text x="250.0" y="30.0">Ultralight</text>
            <text x="450.0" y="30.0">Regular</text>
            <text x="650.0" y="30.0">Black</text>
            <text id="template-version" fill="#505050" text-anchor="end" x="785.0" y="575.0">Template v.3.0</text>
            <a href="https://github.com/swhitty/SwiftDraw">
                <text fill="#505050" text-anchor="end" x="785.0" y="590.0">https://github.com/swhitty/SwiftDraw</text>
            </a>
        </g>
    </g>
    <g id="Guides" stroke="rgb(39, 170, 225)" stroke-width="0.5">
        <path id="Capline-S" d="M18,76 l800,0" />
        <path id="H-reference" d="M85,145.755 L87.685,145.755 L113.369,79.287 L114.052,79.287 L114.052,76 L112.148,76 L85,145.755 Z M95.693,121.536 L130.996,121.536 L130.263,119.313 L96.474,119.313 L95.693,121.536 Z M139.15,145.755 L141.787,145.755 L114.638,76 L113.466,76 L113.466,79.287 L139.15,145.755 Z" stroke="none" />
        <path id="Baseline-S" d="M18,146 l800,0" />
        <path id="left-margin-Ultralight-S" d="M221,56 l0,110" />
        <path id="right-margin-Ultralight-S" d="M309,56 l0,110" />
        <path id="left-margin-Regular-S" d="M421,56 l0,110" />
        <path id="right-margin-Regular-S" d="M509,56 l0,110" />
        <path id="left-margin-Black-S" d="M621,56 l0,110" />
        <path id="right-margin-Black-S" d="M709,56 l0,110" />
        <path id="Capline-M" d="M18,276 l800,0" />
        <path id="Baseline-M" d="M18,346 l800,0" />
        <path id="Capline-L" d="M18,476 l800,0" />
        <path id="Baseline-L" d="M18,546 l800,0" />
    </g>
    <g id="Symbols">
        <g id="Ultralight-S">
            <path d="M256.047,80.883 L285.345,80.883 L283.425,76.933 L265.521,99.72 C264.262,101.322 265.403,103.67 267.441,103.67 L291.855,103.67 L290.061,99.572 L250.998,141.891 L255.153,144.168 L263.291,113.243 C263.699,111.695 262.531,110.18 260.93,110.18 L238.143,110.18 L240.306,113.754 L258.21,79.574 L256.047,80.883 Z M256.047,76 C255.139,76 254.306,76.504 253.885,77.309 L235.981,111.489 C235.129,113.114 236.308,115.063 238.143,115.063 L260.93,115.063 L258.569,112 L250.431,142.925 C249.784,145.385 252.86,147.072 254.586,145.202 L293.649,102.884 C295.093,101.32 293.983,98.787 291.855,98.787 L267.441,98.787 L269.36,102.737 L287.264,79.95 C288.523,78.348 287.382,76 285.345,76 L256.047,76 Z" />
        </g>
        <g id="Regular-S">
            <path d="M456.047,80.883 L485.345,80.883 L483.425,76.933 L465.521,99.72 C464.262,101.322 465.403,103.67 467.441,103.67 L491.855,103.67 L490.061,99.572 L450.998,141.891 L455.153,144.168 L463.291,113.243 C463.699,111.695 462.531,110.18 460.93,110.18 L438.143,110.18 L440.306,113.754 L458.21,79.574 L456.047,80.883 Z M456.047,76 C455.139,76 454.306,76.504 453.885,77.309 L435.981,111.489 C435.129,113.114 436.308,115.063 438.143,115.063 L460.93,115.063 L458.569,112 L450.431,142.925 C449.784,145.385 452.86,147.072 454.586,145.202 L493.649,102.884 C495.093,101.32 493.983,98.787 491.855,98.787 L467.441,98.787 L469.36,102.737 L487.264,79.95 C488.523,78.348 487.382,76 485.345,76 L456.047,76 Z" />
        </g>
        <g id="Black-S">
            <path d="M656.047,80.883 L685.345,80.883 L683.425,76.933 L665.521,99.72 C664.262,101.322 665.404,103.67 667.441,103.67 L691.855,103.67 L690.061,99.572 L650.998,141.891 L655.153,144.168 L663.291,113.243 C663.699,111.695 662.531,110.18 660.93,110.18 L638.143,110.18 L640.306,113.754 L658.21,79.574 L656.047,80.883 Z M656.047,76 C655.139,76 654.306,76.504 653.885,77.309 L635.981,111.489 C635.129,113.114 636.308,115.063 638.143,115.063 L660.93,115.063 L658.569,112 L650.431,142.925 C649.784,145.385 652.86,147.072 654.586,145.202 L693.649,102.884 C695.093,101.32 693.983,98.787 691.855,98.787 L667.441,98.787 L669.36,102.737 L687.264,79.95 C688.523,78.348 687.382,76 685.345,76 L656.047,76 Z" />
        </g>
    </g>
</svg>