<?xml version="1.0" encoding="UTF-8"?>
<svg height="600" width="800" xmlns="http://www.w3.org/2000/svg" xmlns:xlink="http://www.w3.org/1999/xlink">
    <g id="Notes" font-family="'LucidaGrande', 'Lucida Grande', sans-serif" font-size="13">
        <rect fill="white" height="600.0" width="800.0" x="0.0" y="0.0" />
        <g font-size="13">
            <text x="18.0" y="176.0">Small</text>
            <text x="18.0" y="376.0">Medium</text>
            <text x="18.0" y="576.0">Large</text>
        </g>
        <g font-size="9">
            <text x="250.0" y="30.0">Ultralight</text>
            <text x="450.0" y="30.0">Regular</text>
            <text x="650.0" y="30.0">Black</text>
            <text id="template-version" fill="#505050" text-anchor="end" x="785.0" y="575.0">Template v.3.0</text>
            <a href="https://github.com/swhitty/SwiftDraw">
                <text fill="#505050" text-anchor="end" x="785.0" y="590.0">https://github.com/swhitty/SwiftDraw</text>
            </a>
        </g>
    </g>
    <g id="Guides" stroke="rgb(39, 170, 225)" stroke-width="0.5">
        <path id="Capline-S" d="M18,76 l800,0" />
        <path id="H-reference" d="M85,145.755 L87.685,145.755 L113.369,79.287 L114.052,79.287 L114.052,76 L112.148,76 L85,145.755 Z M95.693,121.536 L130.996,121.536 L130.263,119.313 L96.474,119.313 L95.693,121.536 Z M139.15,145.755 L141.787,145.755 L114.638,76 L113.466,76 L113.466,79.287 L139.15,145.755 Z" stroke="none" />
        <path id="Baseline-S" d="M18,146 l800,0" />
        <path id="left-margin-Ultralight-S" d="M221,56 l0,110" />
        <path id="right-margin-Ultralight-S" d="M309,56 l0,110" />
        <path id="left-margin-Regular-S" d="M421,56 l0,110" />
        <path id="right-margin-Regular-S" d="M509,56 l0,110" />
        <path id="left-margin-Black-S" d="M621,56 l0,110" />
        <path id="right-margin-Black-S" d="M709,56 l0,110" />
        <path id="Capline-M" d="M18,276 l800,0" />
        <path id="Baseline-M" d="M18,346 l800,0" />
        <path id="Capline-L" d="M18,476 l800,0" />
        <path id="Baseline-L" d="M18,546 l800,0" />
    </g>
    <g id="Symbols">
        <g id="Ultralight-S">
            <path d="M235.698,146 L294.302,146 C295.651,146 296.744,144.907 296.744,143.558 C296.744,142.21 295.651,141.116 294.302,141.116 L235.698,141.116 C234.349,141.116 233.256,142.21 233.256,143.558 C233.256,144.907 234.349,146 235.698,146 Z" />
            <path d="M253.605,106.93 L276.395,106.93 C277.744,106.93 278.837,105.837 278.837,104.488 C278.837,103.14 277.744,102.047 276.395,102.047 L253.605,102.047 C252.256,102.047 251.163,103.14 251.163,104.488 C251.163,105.837 252.256,106.93 253.605,106.93 Z" />
            <path d="M256.86,106.93 L265,106.93 L273.14,106.93 L270.717,104.791 L275.6,143.861 L278.023,141.116 L251.977,141.116 L254.4,143.861 L259.283,104.791 L256.86,106.93 Z M256.86,102.047 C255.629,102.047 254.59,102.964 254.437,104.186 L249.554,143.255 C249.372,144.713 250.508,146 251.977,146 L278.023,146 C279.492,146 280.628,144.713 280.446,143.255 L275.563,104.186 C275.41,102.964 274.371,102.047 273.14,102.047 L265,102.047 L256.86,102.047 Z" />
            <path d="M254.458,87.018 L257.714,104.925 C257.925,106.086 258.936,106.93 260.116,106.93 L269.884,106.93 C271.064,106.93 272.075,106.086 272.286,104.925 L275.542,87.018 C275.783,85.691 274.903,84.42 273.576,84.179 C272.25,83.938 270.978,84.818 270.737,86.145 L267.481,104.052 L269.884,102.047 L260.116,102.047 L262.519,104.052 L259.263,86.145 C259.022,84.818 257.75,83.938 256.424,84.179 C255.097,84.42 254.217,85.691 254.458,87.018 Z" />
            <path d="M279.75,89.738 L274.866,84.855 L266.727,76.715 C265.773,75.762 264.227,75.762 263.273,76.715 L255.134,84.855 L250.25,89.738 C249.296,90.692 249.296,92.238 250.25,93.192 C251.204,94.145 252.75,94.145 253.703,93.192 L258.587,88.308 L266.727,80.169 L263.273,80.169 L271.413,88.308 L276.297,93.192 C277.25,94.145 278.796,94.145 279.75,93.192 C280.704,92.238 280.704,90.692 279.75,89.738 Z" />
            <path d="M287.889,85.052 L292.773,80.169 C293.727,79.215 293.727,77.669 292.773,76.715 C291.82,75.762 290.273,75.762 289.32,76.715 L284.436,81.599 C283.483,82.553 283.483,84.099 284.436,85.052 C285.39,86.006 286.936,86.006 287.889,85.052 Z" />
            <path d="M245.564,81.599 L240.68,76.715 C239.727,75.762 238.18,75.762 237.227,76.715 C236.273,77.669 236.273,79.215 237.227,80.169 L242.111,85.052 C243.064,86.006 244.61,86.006 245.564,85.052 C246.517,84.099 246.517,82.553 245.564,81.599 Z" />
            <path d="M284.436,104.587 L289.32,109.471 C290.273,110.424 291.82,110.424 292.773,109.471 C293.727,108.517 293.727,106.971 292.773,106.018 L287.889,101.134 C286.936,100.18 285.39,100.18 284.436,101.134 C283.483,102.087 283.483,103.634 284.436,104.587 Z" />
            <path d="M242.111,101.134 L237.227,106.018 C236.273,106.971 236.273,108.517 237.227,109.471 C238.18,110.424 239.727,110.424 240.68,109.471 L245.564,104.587 C246.517,103.634 246.517,102.087 245.564,101.134 C244.61,100.18 243.064,100.18 242.111,101.134 Z" />
            <path d="M287.791,95.535 L294.302,95.535 C295.651,95.535 296.744,94.442 296.744,93.093 C296.744,91.744 295.651,90.651 294.302,90.651 L287.791,90.651 C286.442,90.651 285.349,91.744 285.349,93.093 C285.349,94.442 286.442,95.535 287.791,95.535 Z" />
            <path d="M242.209,90.651 L235.698,90.651 C234.349,90.651 233.256,91.744 233.256,93.093 C233.256,94.442 234.349,95.535 235.698,95.535 L242.209,95.535 C243.558,95.535 244.651,94.442 244.651,93.093 C244.651,91.744 243.558,90.651 242.209,90.651 Z" />
            <path d="M255.233,119.953 L274.767,119.953 C276.116,119.953 277.209,118.86 277.209,117.512 C277.209,116.163 276.116,115.07 274.767,115.07 L255.233,115.07 C253.884,115.07 252.791,116.163 252.791,117.512 C252.791,118.86 253.884,119.953 255.233,119.953 Z" />
            <path d="M253.605,132.977 L276.395,132.977 C277.744,132.977 278.837,131.883 278.837,130.535 C278.837,129.186 277.744,128.093 276.395,128.093 L253.605,128.093 C252.256,128.093 251.163,129.186 251.163,130.535 C251.163,131.883 252.256,132.977 253.605,132.977 Z" />
            <path d="M270.717,104.791 L275.6,143.861 L280.446,143.255 L275.563,104.186 L270.717,104.791 Z" />
            <path d="M254.437,104.186 L249.554,143.255 L254.4,143.861 L259.283,104.791 L254.437,104.186 Z" />
        </g>
        <g id="Regular-S">
            <path d="M435.698,146 L494.302,146 C495.651,146 496.744,144.907 496.744,143.558 C496.744,142.21 495.651,141.116 494.302,141.116 L435.698,141.116 C434.349,141.116 433.256,142.21 433.256,143.558 C433.256,144.907 434.349,146 435.698,146 Z" />
            <path d="M453.605,106.93 L476.395,106.93 C477.744,106.93 478.837,105.837 478.837,104.488 C478.837,103.14 477.744,102.047 476.395,102.047 L453.605,102.047 C452.256,102.047 451.163,103.14 451.163,104.488 C451.163,105.837 452.256,106.93 453.605,106.93 Z" />
            <path d="M456.86,106.93 L465,106.93 L473.14,106.93 L470.717,104.791 L475.6,143.861 L478.023,141.116 L451.977,141.116 L454.4,143.861 L459.283,104.791 L456.86,106.93 Z M456.86,102.047 C455.629,102.047 454.59,102.964 454.437,104.186 L449.554,143.255 C449.372,144.713 450.508,146 451.977,146 L478.023,146 C479.492,146 480.628,144.713 480.446,143.255 L475.563,104.186 C475.41,102.964 474.371,102.047 473.14,102.047 L465,102.047 L456.86,102.047 Z" />
            <path d="M454.458,87.018 L457.714,104.925 C457.925,106.086 458.936,106.93 460.116,106.93 L469.884,106.93 C471.064,106.93 472.075,106.086 472.286,104.925 L475.542,87.018 C475.783,85.691 474.903,84.42 473.576,84.179 C472.25,83.938 470.978,84.818 470.737,86.145 L467.481,104.052 L469.884,102.047 L460.116,102.047 L462.519,104.052 L459.263,86.145 C459.022,84.818 457.75,83.938 456.424,84.179 C455.097,84.42 454.217,85.691 454.458,87.018 Z" />
            <path d="M479.75,89.738 L474.866,84.855 L466.727,76.715 C465.773,75.762 464.227,75.762 463.273,76.715 L455.134,84.855 L450.25,89.738 C449.296,90.692 449.296,92.238 450.25,93.192 C451.204,94.145 452.75,94.145 453.703,93.192 L458.587,88.308 L466.727,80.169 L463.273,80.169 L471.413,88.308 L476.297,93.192 C477.25,94.145 478.796,94.145 479.75,93.192 C480.704,92.238 480.704,90.692 479.75,89.738 Z" />
            <path d="M487.889,85.052 L492.773,80.169 C493.727,79.215 493.727,77.669 492.773,76.715 C491.82,75.762 490.273,75.762 489.32,76.715 L484.436,81.599 C483.483,82.553 483.483,84.099 484.436,85.052 C485.39,86.006 486.936,86.006 487.889,85.052 Z" />
            <path d="M445.564,81.599 L440.68,76.715 C439.727,75.762 438.18,75.762 437.227,76.715 C436.273,77.669 436.273,79.215 437.227,80.169 L442.111,85.052 C443.064,86.006 444.61,86.006 445.564,85.052 C446.517,84.099 446.517,82.553 445.564,81.599 Z" />
            <path d="M484.436,104.587 L489.32,109.471 C490.273,110.424 491.82,110.424 492.773,109.471 C493.727,108.517 493.727,106.971 492.773,106.018 L487.889,101.134 C486.936,100.18 485.39,100.18 484.436,101.134 C483.483,102.087 483.483,103.634 484.436,104.587 Z" />
            <path d="M442.111,101.134 L437.227,106.018 C436.273,106.971 436.273,108.517 437.227,109.471 C438.18,110.424 439.727,110.424 440.68,109.471 L445.564,104.587 C446.517,103.634 446.517,102.087 445.564,101.134 C444.61,100.18 443.064,100.18 442.111,101.134 Z" />
            <path d="M487.791,95.535 L494.302,95.535 C495.651,95.535 496.744,94.442 496.744,93.093 C496.744,91.744 495.651,90.651 494.302,90.651 L487.791,90.651 C486.442,90.651 485.349,91.744 485.349,93.093 C485.349,94.442 486.442,95.535 487.791,95.535 Z" />
            <path d="M442.209,90.651 L435.698,90.651 C434.349,90.651 433.256,91.744 433.256,93.093 C433.256,94.442 434.349,95.535 435.698,95.535 L442.209,95.535 C443.558,95.535 444.651,94.442 444.651,93.093 C444.651,91.744 443.558,90.651 442.209,90.651 Z" />
            <path d="M455.233,119.953 L474.767,119.953 C476.116,119.953 477.209,118.86 477.209,117.512 C477.209,116.163 476.116,115.07 474.767,115.07 L455.233,115.07 C453.884,115.07 452.791,116.163 452.791,117.512 C452.791,118.86 453.884,119.953 455.233,119.953 Z" />
            <path d="M453.605,132.977 L476.395,132.977 C477.744,132.977 478.837,131.883 478.837,130.535 C478.837,129.186 477.744,128.093 476.395,128.093 L453.605,128.093 C452.256,128.093 451.163,129.186 451.163,130.535 C451.163,131.883 452.256,132.977 453.605,132.977 Z" />
            <path d="M470.717,104.791 L475.6,143.861 L480.446,143.255 L475.563,104.186 L470.717,104.791 Z" />
            <path d="M454.437,104.186 L449.554,143.255 L454.4,143.861 L459.283,104.791 L454.437,104.186 Z" />
        </g>
        <g id="Black-S">
            <path d="M635.698,146 L694.302,146 C695.651,146 696.744,144.907 696.744,143.558 C696.744,142.21 695.651,141.116 694.302,141.116 L635.698,141.116 C634.349,141.116 633.256,142.21 633.256,143.558 C633.256,144.907 634.349,146 635.698,146 Z" />
            <path d="M653.605,106.93 L676.395,106.93 C677.744,106.93 678.837,105.837 678.837,104.488 C678.837,103.14 677.744,102.047 676.395,102.047 L653.605,102.047 C652.256,102.047 651.163,103.14 651.163,104.488 C651.163,105.837 652.256,106.93 653.605,106.93 Z" />
            <path d="M656.86,106.93 L665,106.93 L673.14,106.93 L670.717,104.791 L675.6,143.861 L678.023,141.116 L651.977,141.116 L654.4,143.861 L659.283,104.791 L656.86,106.93 Z M656.86,102.047 C655.629,102.047 654.59,102.964 654.437,104.186 L649.554,143.255 C649.372,144.713 650.508,146 651.977,146 L678.023,146 C679.492,146 680.628,144.713 680.446,143.255 L675.563,104.186 C675.41,102.964 674.371,102.047 673.14,102.047 L665,102.047 L656.86,102.047 Z" />
            <path d="M654.458,87.018 L657.714,104.925 C657.925,106.086 658.936,106.93 660.116,106.93 L669.884,106.93 C671.064,106.93 672.075,106.086 672.286,104.925 L675.542,87.018 C675.783,85.691 674.903,84.42 673.576,84.179 C672.25,83.938 670.978,84.818 670.737,86.145 L667.481,104.052 L669.884,102.047 L660.116,102.047 L662.519,104.052 L659.263,86.145 C659.022,84.818 657.75,83.938 656.424,84.179 C655.097,84.42 654.217,85.691 654.458,87.018 Z" />
            <path d="M679.75,89.738 L674.866,84.855 L666.727,76.715 C665.773,75.762 664.227,75.762 663.273,76.715 L655.134,84.855 L650.25,89.738 C649.297,90.692 649.297,92.238 650.25,93.192 C651.204,94.145 652.75,94.145 653.703,93.192 L658.587,88.308 L666.727,80.169 L663.273,80.169 L671.413,88.308 L676.297,93.192 C677.25,94.145 678.796,94.145 679.75,93.192 C680.703,92.238 680.703,90.692 679.75,89.738 Z" />
            <path d="M687.889,85.052 L692.773,80.169 C693.727,79.215 693.727,77.669 692.773,76.715 C691.82,75.762 690.273,75.762 689.32,76.715 L684.436,81.599 C683.483,82.553 683.483,84.099 684.436,85.052 C685.39,86.006 686.936,86.006 687.889,85.052 Z" />
            <path d="M645.564,81.599 L640.68,76.715 C639.727,75.762 638.18,75.762 637.227,76.715 C636.273,77.669 636.273,79.215 637.227,80.169 L642.111,85.052 C643.064,86.006 644.61,86.006 645.564,85.052 C646.517,84.099 646.517,82.553 645.564,81.599 Z" />
            <path d="M684.436,104.587 L689.32,109.471 C690.273,110.424 691.82,110.424 692.773,109.471 C693.727,108.517 693.727,106.971 692.773,106.018 L687.889,101.134 C686.936,100.18 685.39,100.18 684.436,101.134 C683.483,102.087 683.483,103.634 684.436,104.587 Z" />
            <path d="M642.111,101.134 L637.227,106.018 C636.273,106.971 636.273,108.517 637.227,109.471 C638.18,110.424 639.727,110.424 640.68,109.471 L645.564,104.587 C646.517,103.634 646.517,102.087 645.564,101.134 C644.61,100.18 643.064,100.18 642.111,101.134 Z" />
            <path d="M687.791,95.535 L694.302,95.535 C695.651,95.535 696.744,94.442 696.744,93.093 C696.744,91.744 695.651,90.651 694.302,90.651 L687.791,90.651 C686.442,90.651 685.349,91.744 685.349,93.093 C685.349,94.442 686.442,95.535 687.791,95.535 Z" />
            <path d="M642.209,90.651 L635.698,90.651 C634.349,90.651 633.256,91.744 633.256,93.093 C633.256,94.442 634.349,95.535 635.698,95.535 L642.209,95.535 C643.558,95.535 644.651,94.442 644.651,93.093 C644.651,91.744 643.558,90.651 642.209,90.651 Z" />
            <path d="M655.233,119.953 L674.767,119.953 C676.116,119.953 677.209,118.86 677.209,117.512 C677.209,116.163 676.116,115.07 674.767,115.07 L655.233,115.07 C653.884,115.07 652.791,116.163 652.791,117.512 C652.791,118.86 653.884,119.953 655.233,119.953 Z" />
            <path d="M653.605,132.977 L676.395,132.977 C677.744,132.977 678.837,131.883 678.837,130.535 C678.837,129.186 677.744,128.093 676.395,128.093 L653.605,128.093 C652.256,128.093 651.163,129.186 651.163,130.535 C651.163,131.883 652.256,132.977 653.605,132.977 Z" />
            <path d="M670.717,104.791 L675.6,143.861 L680.446,143.255 L675.563,104.186 L670.717,104.791 Z" />
            <path d="M654.437,104.186 L649.554,143.255 L654.4,143.861 L659.283,104.791 L654.437,104.186 Z" />
        </g>
    </g>
</svg>