<?xml version="1.0" encoding="UTF-8"?>
<svg height="600" width="800" xmlns="http://www.w3.org/2000/svg" xmlns:xlink="http://www.w3.org/1999/xlink">
    <g id="Notes" font-family="'LucidaGrande', 'Lucida Grande', sans-serif" font-size="13">
        <rect fill="white" height="600.0" width="800.0" x="0.0" y="0.0" />
        <g font-size="13">
            <text x="18.0" y="176.0">Small</text>
            <text x="18.0" y="376.0">Medium</text>
            <text x="18.0" y="576.0">Large</text>
        </g>
        <g font-size="9">
            <text x="250.0" y="30.0">Ultralight</text>
            <text x="450.0" y="30.0">Regular</text>
            <text x="650.0" y="30.0">Black</text>
            <text id="template-version" fill="#505050" text-anchor="end" x="785.0" y="575.0">Template v.3.0</text>
            <a href="https://github.com/swhitty/SwiftDraw">
                <text fill="#505050" text-anchor="end" x="785.0" y="590.0">https://github.com/swhitty/SwiftDraw</text>
            </a>
        </g>
    </g>
    <g id="Guides" stroke="rgb(39, 170, 225)" stroke-width="0.5">
        <path id="Capline-S" d="M18,76 l800,0" />
        <path id="H-reference" d="M85,145.755 L87.685,145.755 L113.369,79.287 L114.052,79.287 L114.052,76 L112.148,76 L85,145.755 Z M95.693,121.536 L130.996,121.536 L130.263,119.313 L96.474,119.313 L95.693,121.536 Z M139.15,145.755 L141.787,145.755 L114.638,76 L113.466,76 L113.466,79.287 L139.15,145.755 Z" stroke="none" />
        <path id="Baseline-S" d="M18,146 l800,0" />
        <path id="left-margin-Ultralight-S" d="M214.324,56 l0,110" />
        <path id="right-margin-Ultralight-S" d="M315.676,56 l0,110" />
        <path id="left-margin-Regular-S" d="M414.324,56 l0,110" />
        <path id="right-margin-Regular-S" d="M515.676,56 l0,110" />
        <path id="left-margin-Black-S" d="M614.324,56 l0,110" />
        <path id="right-margin-Black-S" d="M715.676,56 l0,110" />
        <path id="Capline-M" d="M18,276 l800,0" />
        <path id="Baseline-M" d="M18,346 l800,0" />
        <path id="Capline-L" d="M18,476 l800,0" />
        <path id="Baseline-L" d="M18,546 l800,0" />
    </g>
    <g id="Symbols">
        <g id="Ultralight-S">
            <path d="M234.73,146 C240.476,146 245.135,141.341 245.135,135.595 C245.135,129.848 240.476,125.189 234.73,125.189 C228.983,125.189 224.324,129.848 224.324,135.595 C224.324,141.341 228.983,146 234.73,146 Z M234.73,140.324 C232.118,140.324 230,138.207 230,135.595 C230,132.982 232.118,130.865 234.73,130.865 C237.342,130.865 239.459,132.983 239.459,135.595 C239.459,138.207 237.342,140.324 234.73,140.324 Z" />
            <path d="M234.73,89.243 C238.387,89.243 241.351,86.279 241.351,82.622 C241.351,78.965 238.387,76 234.73,76 C231.073,76 228.108,78.965 228.108,82.622 C228.108,86.279 231.073,89.243 234.73,89.243 Z M234.73,83.568 C234.207,83.568 233.784,83.144 233.784,82.622 C233.784,82.099 234.207,81.676 234.73,81.676 C235.252,81.676 235.676,82.099 235.676,82.622 C235.676,83.144 235.252,83.568 234.73,83.568 Z" />
            <path d="M234.73,115.73 C238.387,115.73 241.351,112.765 241.351,109.108 C241.351,105.451 238.387,102.486 234.73,102.486 C231.073,102.486 228.108,105.451 228.108,109.108 C228.108,112.765 231.073,115.73 234.73,115.73 Z M234.73,110.054 C234.207,110.054 233.784,109.631 233.784,109.108 C233.784,108.586 234.207,108.162 234.73,108.162 C235.252,108.162 235.676,108.586 235.676,109.108 C235.676,109.631 235.252,110.054 234.73,110.054 Z" />
            <path d="M257.432,111.946 L302.838,111.946 C304.405,111.946 305.676,110.675 305.676,109.108 C305.676,107.541 304.405,106.27 302.838,106.27 L257.432,106.27 C255.865,106.27 254.595,107.541 254.595,109.108 C254.595,110.675 255.865,111.946 257.432,111.946 Z" />
            <path d="M257.432,138.432 L302.838,138.432 C304.405,138.432 305.676,137.162 305.676,135.595 C305.676,134.027 304.405,132.757 302.838,132.757 L257.432,132.757 C255.865,132.757 254.595,134.027 254.595,135.595 C254.595,137.162 255.865,138.432 257.432,138.432 Z" />
            <path d="M257.432,85.459 L302.838,85.459 C304.405,85.459 305.676,84.189 305.676,82.622 C305.676,81.054 304.405,79.784 302.838,79.784 L257.432,79.784 C255.865,79.784 254.595,81.054 254.595,82.622 C254.595,84.189 255.865,85.459 257.432,85.459 Z" />
        </g>
        <g id="Regular-S">
            <path d="M434.73,146 C440.476,146 445.135,141.341 445.135,135.595 C445.135,129.848 440.476,125.189 434.73,125.189 C428.983,125.189 424.324,129.848 424.324,135.595 C424.324,141.341 428.983,146 434.73,146 Z M434.73,140.324 C432.118,140.324 430,138.207 430,135.595 C430,132.982 432.118,130.865 434.73,130.865 C437.342,130.865 439.459,132.983 439.459,135.595 C439.459,138.207 437.342,140.324 434.73,140.324 Z" />
            <path d="M434.73,89.243 C438.387,89.243 441.351,86.279 441.351,82.622 C441.351,78.965 438.387,76 434.73,76 C431.073,76 428.108,78.965 428.108,82.622 C428.108,86.279 431.073,89.243 434.73,89.243 Z M434.73,83.568 C434.207,83.568 433.784,83.144 433.784,82.622 C433.784,82.099 434.207,81.676 434.73,81.676 C435.252,81.676 435.676,82.099 435.676,82.622 C435.676,83.144 435.252,83.568 434.73,83.568 Z" />
            <path d="M434.73,115.73 C438.387,115.73 441.351,112.765 441.351,109.108 C441.351,105.451 438.387,102.486 434.73,102.486 C431.073,102.486 428.108,105.451 428.108,109.108 C428.108,112.765 431.073,115.73 434.73,115.73 Z M434.73,110.054 C434.207,110.054 433.784,109.631 433.784,109.108 C433.784,108.586 434.207,108.162 434.73,108.162 C435.252,108.162 435.676,108.586 435.676,109.108 C435.676,109.631 435.252,110.054 434.73,110.054 Z" />
            <path d="M457.432,111.946 L502.838,111.946 C504.405,111.946 505.676,110.675 505.676,109.108 C505.676,107.541 504.405,106.27 502.838,106.27 L457.432,106.27 C455.865,106.27 454.595,107.541 454.595,109.108 C454.595,110.675 455.865,111.946 457.432,111.946 Z" />
            <path d="M457.432,138.432 L502.838,138.432 C504.405,138.432 505.676,137.162 505.676,135.595 C505.676,134.027 504.405,132.757 502.838,132.757 L457.432,132.757 C455.865,132.757 454.595,134.027 454.595,135.595 C454.595,137.162 455.865,138.432 457.432,138.432 Z" />
            <path d="M457.432,85.459 L502.838,85.459 C504.405,85.459 505.676,84.189 505.676,82.622 C505.676,81.054 504.405,79.784 502.838,79.784 L457.432,79.784 C455.865,79.784 454.595,81.054 454.595,82.622 C454.595,84.189 455.865,85.459 457.432,85.459 Z" />
        </g>
        <g id="Black-S">
            <path d="M634.73,146 C640.476,146 645.135,141.341 645.135,135.595 C645.135,129.848 640.476,125.189 634.73,125.189 C628.983,125.189 624.324,129.848 624.324,135.595 C624.324,141.341 628.983,146 634.73,146 Z M634.73,140.324 C632.118,140.324 630,138.207 630,135.595 C630,132.982 632.118,130.865 634.73,130.865 C637.342,130.865 639.459,132.983 639.459,135.595 C639.459,138.207 637.342,140.324 634.73,140.324 Z" />
            <path d="M634.73,89.243 C638.387,89.243 641.351,86.279 641.351,82.622 C641.351,78.965 638.387,76 634.73,76 C631.073,76 628.108,78.965 628.108,82.622 C628.108,86.279 631.073,89.243 634.73,89.243 Z M634.73,83.568 C634.207,83.568 633.784,83.144 633.784,82.622 C633.784,82.099 634.207,81.676 634.73,81.676 C635.252,81.676 635.676,82.099 635.676,82.622 C635.676,83.144 635.252,83.568 634.73,83.568 Z" />
            <path d="M634.73,115.73 C638.387,115.73 641.351,112.765 641.351,109.108 C641.351,105.451 638.387,102.486 634.73,102.486 C631.073,102.486 628.108,105.451 628.108,109.108 C628.108,112.765 631.073,115.73 634.73,115.73 Z M634.73,110.054 C634.207,110.054 633.784,109.631 633.784,109.108 C633.784,108.586 634.207,108.162 634.73,108.162 C635.252,108.162 635.676,108.586 635.676,109.108 C635.676,109.631 635.252,110.054 634.73,110.054 Z" />
            <path d="M657.432,111.946 L702.838,111.946 C704.405,111.946 705.676,110.675 705.676,109.108 C705.676,107.541 704.405,106.27 702.838,106.27 L657.432,106.27 C655.865,106.27 654.595,107.541 654.595,109.108 C654.595,110.675 655.865,111.946 657.432,111.946 Z" />
            <path d="M657.432,138.432 L702.838,138.432 C704.405,138.432 705.676,137.162 705.676,135.595 C705.676,134.027 704.405,132.757 702.838,132.757 L657.432,132.757 C655.865,132.757 654.595,134.027 654.595,135.595 C654.595,137.162 655.865,138.432 657.432,138.432 Z" />
            <path d="M657.432,85.459 L702.838,85.459 C704.405,85.459 705.676,84.189 705.676,82.622 C705.676,81.054 704.405,79.784 702.838,79.784 L657.432,79.784 C655.865,79.784 654.595,81.054 654.595,82.622 C654.595,84.189 655.865,85.459 657.432,85.459 Z" />
        </g>
    </g>
</svg>