<?xml version="1.0" encoding="UTF-8"?>
<svg height="600" width="800" xmlns="http://www.w3.org/2000/svg" xmlns:xlink="http://www.w3.org/1999/xlink">
    <g id="Notes" font-family="'LucidaGrande', 'Lucida Grande', sans-serif" font-size="13">
        <rect fill="white" height="600.0" width="800.0" x="0.0" y="0.0" />
        <g font-size="13">
            <text x="18.0" y="176.0">Small</text>
            <text x="18.0" y="376.0">Medium</text>
            <text x="18.0" y="576.0">Large</text>
        </g>
        <g font-size="9">
            <text x="250.0" y="30.0">Ultralight</text>
            <text x="450.0" y="30.0">Regular</text>
            <text x="650.0" y="30.0">Black</text>
            <text id="template-version" fill="#505050" text-anchor="end" x="785.0" y="575.0">Template v.3.0</text>
            <a href="https://github.com/swhitty/SwiftDraw">
                <text fill="#505050" text-anchor="end" x="785.0" y="590.0">https://github.com/swhitty/SwiftDraw</text>
            </a>
        </g>
    </g>
    <g id="Guides" stroke="rgb(39, 170, 225)" stroke-width="0.5">
        <path id="Capline-S" d="M18,76 l800,0" />
        <path id="H-reference" d="M85,145.755 L87.685,145.755 L113.369,79.287 L114.052,79.287 L114.052,76 L112.148,76 L85,145.755 Z M95.693,121.536 L130.996,121.536 L130.263,119.313 L96.474,119.313 L95.693,121.536 Z M139.15,145.755 L141.787,145.755 L114.638,76 L113.466,76 L113.466,79.287 L139.15,145.755 Z" stroke="none" />
        <path id="Baseline-S" d="M18,146 l800,0" />
        <path id="left-margin-Ultralight-S" d="M215.484,56 l0,110" />
        <path id="right-margin-Ultralight-S" d="M314.516,56 l0,110" />
        <path id="left-margin-Regular-S" d="M415.484,56 l0,110" />
        <path id="right-margin-Regular-S" d="M514.516,56 l0,110" />
        <path id="left-margin-Black-S" d="M615.484,56 l0,110" />
        <path id="right-margin-Black-S" d="M714.516,56 l0,110" />
        <path id="Capline-M" d="M18,276 l800,0" />
        <path id="Baseline-M" d="M18,346 l800,0" />
        <path id="Capline-L" d="M18,476 l800,0" />
        <path id="Baseline-L" d="M18,546 l800,0" />
    </g>
    <g id="Symbols">
        <g id="Ultralight-S">
            <path d="M228.871,123.419 L265,123.419 C266.871,123.419 268.387,121.903 268.387,120.032 C268.387,118.162 266.871,116.645 265,116.645 L228.871,116.645 C227,116.645 225.484,118.162 225.484,120.032 C225.484,121.903 227,123.419 228.871,123.419 Z" />
            <path d="M228.871,143.742 L265,143.742 C266.871,143.742 268.387,142.225 268.387,140.355 C268.387,138.484 266.871,136.968 265,136.968 L228.871,136.968 C227,136.968 225.484,138.484 225.484,140.355 C225.484,142.225 227,143.742 228.871,143.742 Z" />
            <path d="M228.871,103.097 L301.129,103.097 C303,103.097 304.516,101.58 304.516,99.71 C304.516,97.839 303,96.323 301.129,96.323 L228.871,96.323 C227,96.323 225.484,97.839 225.484,99.71 C225.484,101.58 227,103.097 228.871,103.097 Z" />
            <path d="M228.871,82.774 L301.129,82.774 C303,82.774 304.516,81.258 304.516,79.387 C304.516,77.516 303,76 301.129,76 L228.871,76 C227,76 225.484,77.516 225.484,79.387 C225.484,81.258 227,82.774 228.871,82.774 Z" />
            <path d="M278.548,134.71 L301.129,134.71 C303,134.71 304.516,133.193 304.516,131.323 C304.516,129.452 303,127.935 301.129,127.935 L278.548,127.935 C276.678,127.935 275.161,129.452 275.161,131.323 C275.161,133.193 276.678,134.71 278.548,134.71 Z" />
            <path d="M286.452,120.032 L286.452,142.613 C286.452,144.484 287.968,146 289.839,146 C291.709,146 293.226,144.484 293.226,142.613 L293.226,120.032 C293.226,118.162 291.709,116.645 289.839,116.645 C287.968,116.645 286.452,118.162 286.452,120.032 Z" />
        </g>
        <g id="Regular-S">
            <path d="M428.871,123.419 L465,123.419 C466.871,123.419 468.387,121.903 468.387,120.032 C468.387,118.162 466.871,116.645 465,116.645 L428.871,116.645 C427,116.645 425.484,118.162 425.484,120.032 C425.484,121.903 427,123.419 428.871,123.419 Z" />
            <path d="M428.871,143.742 L465,143.742 C466.871,143.742 468.387,142.225 468.387,140.355 C468.387,138.484 466.871,136.968 465,136.968 L428.871,136.968 C427,136.968 425.484,138.484 425.484,140.355 C425.484,142.225 427,143.742 428.871,143.742 Z" />
            <path d="M428.871,103.097 L501.129,103.097 C503,103.097 504.516,101.58 504.516,99.71 C504.516,97.839 503,96.323 501.129,96.323 L428.871,96.323 C427,96.323 425.484,97.839 425.484,99.71 C425.484,101.58 427,103.097 428.871,103.097 Z" />
            <path d="M428.871,82.774 L501.129,82.774 C503,82.774 504.516,81.258 504.516,79.387 C504.516,77.516 503,76 501.129,76 L428.871,76 C427,76 425.484,77.516 425.484,79.387 C425.484,81.258 427,82.774 428.871,82.774 Z" />
            <path d="M478.548,134.71 L501.129,134.71 C503,134.71 504.516,133.193 504.516,131.323 C504.516,129.452 503,127.935 501.129,127.935 L478.548,127.935 C476.678,127.935 475.161,129.452 475.161,131.323 C475.161,133.193 476.678,134.71 478.548,134.71 Z" />
            <path d="M486.452,120.032 L486.452,142.613 C486.452,144.484 487.968,146 489.839,146 C491.709,146 493.226,144.484 493.226,142.613 L493.226,120.032 C493.226,118.162 491.709,116.645 489.839,116.645 C487.968,116.645 486.452,118.162 486.452,120.032 Z" />
        </g>
        <g id="Black-S">
            <path d="M628.871,123.419 L665,123.419 C666.871,123.419 668.387,121.903 668.387,120.032 C668.387,118.162 666.871,116.645 665,116.645 L628.871,116.645 C627,116.645 625.484,118.162 625.484,120.032 C625.484,121.903 627,123.419 628.871,123.419 Z" />
            <path d="M628.871,143.742 L665,143.742 C666.871,143.742 668.387,142.225 668.387,140.355 C668.387,138.484 666.871,136.968 665,136.968 L628.871,136.968 C627,136.968 625.484,138.484 625.484,140.355 C625.484,142.225 627,143.742 628.871,143.742 Z" />
            <path d="M628.871,103.097 L701.129,103.097 C703,103.097 704.516,101.58 704.516,99.71 C704.516,97.839 703,96.323 701.129,96.323 L628.871,96.323 C627,96.323 625.484,97.839 625.484,99.71 C625.484,101.58 627,103.097 628.871,103.097 Z" />
            <path d="M628.871,82.774 L701.129,82.774 C703,82.774 704.516,81.258 704.516,79.387 C704.516,77.516 703,76 701.129,76 L628.871,76 C627,76 625.484,77.516 625.484,79.387 C625.484,81.258 627,82.774 628.871,82.774 Z" />
            <path d="M678.548,134.71 L701.129,134.71 C703,134.71 704.516,133.193 704.516,131.323 C704.516,129.452 703,127.935 701.129,127.935 L678.548,127.935 C676.678,127.935 675.161,129.452 675.161,131.323 C675.161,133.193 676.678,134.71 678.548,134.71 Z" />
            <path d="M686.452,120.032 L686.452,142.613 C686.452,144.484 687.968,146 689.839,146 C691.709,146 693.226,144.484 693.226,142.613 L693.226,120.032 C693.226,118.162 691.709,116.645 689.839,116.645 C687.968,116.645 686.452,118.162 686.452,120.032 Z" />
        </g>
    </g>
</svg>