<?xml version="1.0" encoding="UTF-8"?>
<svg height="600" width="800" xmlns="http://www.w3.org/2000/svg" xmlns:xlink="http://www.w3.org/1999/xlink">
    <g id="Notes" font-family="'LucidaGrande', 'Lucida Grande', sans-serif" font-size="13">
        <rect fill="white" height="600.0" width="800.0" x="0.0" y="0.0" />
        <g font-size="13">
            <text x="18.0" y="176.0">Small</text>
            <text x="18.0" y="376.0">Medium</text>
            <text x="18.0" y="576.0">Large</text>
        </g>
        <g font-size="9">
            <text x="250.0" y="30.0">Ultralight</text>
            <text x="450.0" y="30.0">Regular</text>
            <text x="650.0" y="30.0">Black</text>
            <text id="template-version" fill="#505050" text-anchor="end" x="785.0" y="575.0">Template v.3.0</text>
            <a href="https://github.com/swhitty/SwiftDraw">
                <text fill="#505050" text-anchor="end" x="785.0" y="590.0">https://github.com/swhitty/SwiftDraw</text>
            </a>
        </g>
    </g>
    <g id="Guides" stroke="rgb(39, 170, 225)" stroke-width="0.5">
        <path id="Capline-S" d="M18,76 l800,0" />
        <path id="H-reference" d="M85,145.755 L87.685,145.755 L113.369,79.287 L114.052,79.287 L114.052,76 L112.148,76 L85,145.755 Z M95.693,121.536 L130.996,121.536 L130.263,119.313 L96.474,119.313 L95.693,121.536 Z M139.15,145.755 L141.787,145.755 L114.638,76 L113.466,76 L113.466,79.287 L139.15,145.755 Z" stroke="none" />
        <path id="Baseline-S" d="M18,146 l800,0" />
        <path id="left-margin-Ultralight-S" d="M216.733,56 l0,110" />
        <path id="right-margin-Ultralight-S" d="M313.267,56 l0,110" />
        <path id="left-margin-Regular-S" d="M416.733,56 l0,110" />
        <path id="right-margin-Regular-S" d="M513.267,56 l0,110" />
        <path id="left-margin-Black-S" d="M616.733,56 l0,110" />
        <path id="right-margin-Black-S" d="M713.267,56 l0,110" />
        <path id="Capline-M" d="M18,276 l800,0" />
        <path id="Baseline-M" d="M18,346 l800,0" />
        <path id="Capline-L" d="M18,476 l800,0" />
        <path id="Baseline-L" d="M18,546 l800,0" />
    </g>
    <g id="Symbols">
        <g id="Ultralight-S">
            <path d="M234.2,109.6 C234.2,108.71 235.071,106.742 236.573,104.989 C238.613,102.608 241.496,100.848 245.161,100.073 C253.942,98.214 263.829,90.665 267.379,84.943 C268.195,83.629 267.79,81.903 266.476,81.087 C265.162,80.272 263.436,80.676 262.621,81.99 C259.837,86.477 251.202,93.07 244.001,94.594 C234.917,96.517 228.6,103.887 228.6,109.6 C228.6,111.146 229.854,112.4 231.4,112.4 C232.946,112.4 234.2,111.146 234.2,109.6 Z" />
            <path d="M301.4,109.622 C301.445,103.92 295.094,96.519 285.998,94.594 C278.798,93.07 270.163,86.477 267.379,81.991 C266.564,80.676 264.838,80.272 263.524,81.087 C262.21,81.903 261.805,83.629 262.621,84.943 C266.171,90.665 276.058,98.214 284.839,100.073 C288.506,100.849 291.394,102.61 293.436,104.99 C294.94,106.743 295.807,108.706 295.8,109.578 C295.788,111.124 297.031,112.388 298.578,112.4 C300.124,112.412 301.387,111.169 301.4,109.622 Z" />
            <path d="M265,76 C260.876,76 257.533,79.343 257.533,83.467 C257.533,87.59 260.876,90.933 265,90.933 C269.124,90.933 272.467,87.59 272.467,83.467 C272.467,79.343 269.124,76 265,76 Z" />
            <path d="M262.2,83.467 L262.2,109.6 C262.2,111.146 263.454,112.4 265,112.4 C266.546,112.4 267.8,111.146 267.8,109.6 L267.8,83.467 C267.8,81.92 266.546,80.667 265,80.667 C263.454,80.667 262.2,81.92 262.2,83.467 Z" />
            <path d="M229.533,131.067 L240.733,131.067 C242.28,131.067 243.533,129.813 243.533,128.267 C243.533,126.72 242.28,125.467 240.733,125.467 L229.533,125.467 C227.987,125.467 226.733,126.72 226.733,128.267 C226.733,129.813 227.987,131.067 229.533,131.067 Z" />
            <path d="M229.533,146 L240.733,146 C242.28,146 243.533,144.746 243.533,143.2 C243.533,141.654 242.28,140.4 240.733,140.4 L229.533,140.4 C227.987,140.4 226.733,141.654 226.733,143.2 C226.733,144.746 227.987,146 229.533,146 Z" />
            <path d="M289.267,131.067 L300.467,131.067 C302.013,131.067 303.267,129.813 303.267,128.267 C303.267,126.72 302.013,125.467 300.467,125.467 L289.267,125.467 C287.72,125.467 286.467,126.72 286.467,128.267 C286.467,129.813 287.72,131.067 289.267,131.067 Z" />
            <path d="M289.267,146 L300.467,146 C302.013,146 303.267,144.746 303.267,143.2 C303.267,141.654 302.013,140.4 300.467,140.4 L289.267,140.4 C287.72,140.4 286.467,141.654 286.467,143.2 C286.467,144.746 287.72,146 289.267,146 Z" />
            <path d="M259.4,131.067 L270.6,131.067 C272.146,131.067 273.4,129.813 273.4,128.267 C273.4,126.72 272.146,125.467 270.6,125.467 L259.4,125.467 C257.854,125.467 256.6,126.72 256.6,128.267 C256.6,129.813 257.854,131.067 259.4,131.067 Z" />
            <path d="M259.4,146 L270.6,146 C272.146,146 273.4,144.746 273.4,143.2 C273.4,141.654 272.146,140.4 270.6,140.4 L259.4,140.4 C257.854,140.4 256.6,141.654 256.6,143.2 C256.6,144.746 257.854,146 259.4,146 Z" />
        </g>
        <g id="Regular-S">
            <path d="M434.2,109.6 C434.2,108.71 435.071,106.742 436.573,104.989 C438.613,102.608 441.496,100.848 445.161,100.073 C453.942,98.214 463.829,90.665 467.379,84.943 C468.195,83.629 467.79,81.903 466.476,81.087 C465.162,80.272 463.436,80.676 462.621,81.99 C459.837,86.477 451.202,93.07 444.001,94.594 C434.917,96.517 428.6,103.887 428.6,109.6 C428.6,111.146 429.854,112.4 431.4,112.4 C432.946,112.4 434.2,111.146 434.2,109.6 Z" />
            <path d="M501.4,109.622 C501.445,103.92 495.094,96.519 485.998,94.594 C478.798,93.07 470.163,86.477 467.379,81.991 C466.564,80.676 464.838,80.272 463.524,81.087 C462.21,81.903 461.805,83.629 462.621,84.943 C466.171,90.665 476.058,98.214 484.839,100.073 C488.506,100.849 491.394,102.61 493.436,104.99 C494.94,106.743 495.807,108.706 495.8,109.578 C495.788,111.124 497.031,112.388 498.578,112.4 C500.124,112.412 501.387,111.169 501.4,109.622 Z" />
            <path d="M465,76 C460.876,76 457.533,79.343 457.533,83.467 C457.533,87.59 460.876,90.933 465,90.933 C469.124,90.933 472.467,87.59 472.467,83.467 C472.467,79.343 469.124,76 465,76 Z" />
            <path d="M462.2,83.467 L462.2,109.6 C462.2,111.146 463.454,112.4 465,112.4 C466.546,112.4 467.8,111.146 467.8,109.6 L467.8,83.467 C467.8,81.92 466.546,80.667 465,80.667 C463.454,80.667 462.2,81.92 462.2,83.467 Z" />
            <path d="M429.533,131.067 L440.733,131.067 C442.28,131.067 443.533,129.813 443.533,128.267 C443.533,126.72 442.28,125.467 440.733,125.467 L429.533,125.467 C427.987,125.467 426.733,126.72 426.733,128.267 C426.733,129.813 427.987,131.067 429.533,131.067 Z" />
            <path d="M429.533,146 L440.733,146 C442.28,146 443.533,144.746 443.533,143.2 C443.533,141.654 442.28,140.4 440.733,140.4 L429.533,140.4 C427.987,140.4 426.733,141.654 426.733,143.2 C426.733,144.746 427.987,146 429.533,146 Z" />
            <path d="M489.267,131.067 L500.467,131.067 C502.013,131.067 503.267,129.813 503.267,128.267 C503.267,126.72 502.013,125.467 500.467,125.467 L489.267,125.467 C487.72,125.467 486.467,126.72 486.467,128.267 C486.467,129.813 487.72,131.067 489.267,131.067 Z" />
            <path d="M489.267,146 L500.467,146 C502.013,146 503.267,144.746 503.267,143.2 C503.267,141.654 502.013,140.4 500.467,140.4 L489.267,140.4 C487.72,140.4 486.467,141.654 486.467,143.2 C486.467,144.746 487.72,146 489.267,146 Z" />
            <path d="M459.4,131.067 L470.6,131.067 C472.146,131.067 473.4,129.813 473.4,128.267 C473.4,126.72 472.146,125.467 470.6,125.467 L459.4,125.467 C457.854,125.467 456.6,126.72 456.6,128.267 C456.6,129.813 457.854,131.067 459.4,131.067 Z" />
            <path d="M459.4,146 L470.6,146 C472.146,146 473.4,144.746 473.4,143.2 C473.4,141.654 472.146,140.4 470.6,140.4 L459.4,140.4 C457.854,140.4 456.6,141.654 456.6,143.2 C456.6,144.746 457.854,146 459.4,146 Z" />
        </g>
        <g id="Black-S">
            <path d="M634.2,109.6 C634.2,108.71 635.071,106.742 636.573,104.989 C638.613,102.608 641.496,100.848 645.161,100.073 C653.942,98.214 663.829,90.665 667.379,84.943 C668.195,83.629 667.79,81.903 666.476,81.087 C665.162,80.272 663.436,80.676 662.621,81.99 C659.837,86.477 651.202,93.07 644.001,94.594 C634.917,96.517 628.6,103.887 628.6,109.6 C628.6,111.146 629.854,112.4 631.4,112.4 C632.946,112.4 634.2,111.146 634.2,109.6 Z" />
            <path d="M701.4,109.622 C701.445,103.92 695.094,96.519 685.998,94.594 C678.798,93.07 670.163,86.477 667.379,81.991 C666.564,80.676 664.838,80.272 663.524,81.087 C662.21,81.903 661.805,83.629 662.621,84.943 C666.171,90.665 676.058,98.214 684.839,100.073 C688.506,100.849 691.394,102.61 693.436,104.99 C694.94,106.743 695.807,108.706 695.8,109.578 C695.788,111.124 697.031,112.388 698.578,112.4 C700.124,112.412 701.387,111.169 701.4,109.622 Z" />
            <path d="M665,76 C660.876,76 657.533,79.343 657.533,83.467 C657.533,87.59 660.876,90.933 665,90.933 C669.124,90.933 672.467,87.59 672.467,83.467 C672.467,79.343 669.124,76 665,76 Z" />
            <path d="M662.2,83.467 L662.2,109.6 C662.2,111.146 663.454,112.4 665,112.4 C666.546,112.4 667.8,111.146 667.8,109.6 L667.8,83.467 C667.8,81.92 666.546,80.667 665,80.667 C663.454,80.667 662.2,81.92 662.2,83.467 Z" />
            <path d="M629.533,131.067 L640.733,131.067 C642.28,131.067 643.533,129.813 643.533,128.267 C643.533,126.72 642.28,125.467 640.733,125.467 L629.533,125.467 C627.987,125.467 626.733,126.72 626.733,128.267 C626.733,129.813 627.987,131.067 629.533,131.067 Z" />
            <path d="M629.533,146 L640.733,146 C642.28,146 643.533,144.746 643.533,143.2 C643.533,141.654 642.28,140.4 640.733,140.4 L629.533,140.4 C627.987,140.4 626.733,141.654 626.733,143.2 C626.733,144.746 627.987,146 629.533,146 Z" />
            <path d="M689.267,131.067 L700.467,131.067 C702.013,131.067 703.267,129.813 703.267,128.267 C703.267,126.72 702.013,125.467 700.467,125.467 L689.267,125.467 C687.72,125.467 686.467,126.72 686.467,128.267 C686.467,129.813 687.72,131.067 689.267,131.067 Z" />
            <path d="M689.267,146 L700.467,146 C702.013,146 703.267,144.746 703.267,143.2 C703.267,141.654 702.013,140.4 700.467,140.4 L689.267,140.4 C687.72,140.4 686.467,141.654 686.467,143.2 C686.467,144.746 687.72,146 689.267,146 Z" />
            <path d="M659.4,131.067 L670.6,131.067 C672.146,131.067 673.4,129.813 673.4,128.267 C673.4,126.72 672.146,125.467 670.6,125.467 L659.4,125.467 C657.854,125.467 656.6,126.72 656.6,128.267 C656.6,129.813 657.854,131.067 659.4,131.067 Z" />
            <path d="M659.4,146 L670.6,146 C672.146,146 673.4,144.746 673.4,143.2 C673.4,141.654 672.146,140.4 670.6,140.4 L659.4,140.4 C657.854,140.4 656.6,141.654 656.6,143.2 C656.6,144.746 657.854,146 659.4,146 Z" />
        </g>
    </g>
</svg>