<?xml version="1.0" encoding="UTF-8"?>
<svg height="600" width="800" xmlns="http://www.w3.org/2000/svg" xmlns:xlink="http://www.w3.org/1999/xlink">
    <g id="Notes" font-family="'LucidaGrande', 'Lucida Grande', sans-serif" font-size="13">
        <rect fill="white" height="600.0" width="800.0" x="0.0" y="0.0" />
        <g font-size="13">
            <text x="18.0" y="176.0">Small</text>
            <text x="18.0" y="376.0">Medium</text>
            <text x="18.0" y="576.0">Large</text>
        </g>
        <g font-size="9">
            <text x="250.0" y="30.0">Ultralight</text>
            <text x="450.0" y="30.0">Regular</text>
            <text x="650.0" y="30.0">Black</text>
            <text id="template-version" fill="#505050" text-anchor="end" x="785.0" y="575.0">Template v.3.0</text>
            <a href="https://github.com/swhitty/SwiftDraw">
                <text fill="#505050" text-anchor="end" x="785.0" y="590.0">https://github.com/swhitty/SwiftDraw</text>
            </a>
        </g>
    </g>
    <g id="Guides" stroke="rgb(39, 170, 225)" stroke-width="0.5">
        <path id="Capline-S" d="M18,76 l800,0" />
        <path id="H-reference" d="M85,145.755 L87.685,145.755 L113.369,79.287 L114.052,79.287 L114.052,76 L112.148,76 L85,145.755 Z M95.693,121.536 L130.996,121.536 L130.263,119.313 L96.474,119.313 L95.693,121.536 Z M139.15,145.755 L141.787,145.755 L114.638,76 L113.466,76 L113.466,79.287 L139.15,145.755 Z" stroke="none" />
        <path id="Baseline-S" d="M18,146 l800,0" />
        <path id="left-margin-Ultralight-S" d="M212,56 l0,110" />
        <path id="right-margin-Ultralight-S" d="M318,56 l0,110" />
        <path id="left-margin-Regular-S" d="M412,56 l0,110" />
        <path id="right-margin-Regular-S" d="M518,56 l0,110" />
        <path id="left-margin-Black-S" d="M612,56 l0,110" />
        <path id="right-margin-Black-S" d="M718,56 l0,110" />
        <path id="Capline-M" d="M18,276 l800,0" />
        <path id="Baseline-M" d="M18,346 l800,0" />
        <path id="Capline-L" d="M18,476 l800,0" />
        <path id="Baseline-L" d="M18,546 l800,0" />
    </g>
    <g id="Symbols">
        <g id="Ultralight-S">
            <path d="M308,139 L308,83.001 C308,79.135 304.866,76.001 301,76.001 L229,76.001 C225.134,76.001 222,79.135 222,83.001 L222,139 C222,142.866 225.134,146 229,146 L301,146 C304.866,146 308,142.866 308,139 Z M302,139 C302,139.552 301.552,140 301,140 L229,140 C228.448,140 228,139.552 228,139 L228,83.001 C228,82.448 228.448,82.001 229,82.001 L301,82.001 C301.552,82.001 302,82.448 302,83.001 L302,139 Z" />
            <path d="M264.317,77.659 C264.242,77.808 264.111,78.076 263.932,78.456 C263.638,79.078 263.313,79.791 262.963,80.586 C261.966,82.852 260.97,85.331 260.04,87.952 C258.304,92.845 256.997,97.659 256.297,102.213 C255.668,106.3 255.549,110.058 256.03,113.425 C256.241,114.902 257.507,116 259,116 L271,116 L268.006,113.2 L270.006,143.199 C270.117,144.853 271.546,146.103 273.199,145.993 C274.852,145.883 276.103,144.454 275.993,142.8 L273.993,112.801 C273.888,111.225 272.579,110 271,110 L259,110 L261.97,112.576 C261.581,109.854 261.682,106.671 262.227,103.125 C262.864,98.986 264.075,94.523 265.695,89.959 C266.573,87.485 267.514,85.14 268.454,83.003 C268.782,82.258 269.086,81.593 269.357,81.019 C269.517,80.681 269.628,80.452 269.683,80.342 C270.424,78.86 269.823,77.058 268.341,76.317 C266.859,75.576 265.057,76.177 264.317,77.659 Z" />
            <path d="M285,140 L261,140 C259.343,140 258,141.343 258,143 C258,144.657 259.343,146 261,146 L285,146 C286.657,146 288,144.657 288,143 C288,141.343 286.657,140 285,140 Z" />
            <path d="M277,76.001 L253,76.001 C251.343,76.001 250,77.344 250,79.001 C250,80.657 251.343,82.001 253,82.001 L277,82.001 C278.657,82.001 280,80.657 280,79.001 C280,77.344 278.657,76.001 277,76.001 Z" />
            <path d="M282,95 L282,99 C282,100.657 283.343,102 285,102 C286.657,102 288,100.657 288,99 L288,95 C288,93.344 286.657,92 285,92 C283.343,92 282,93.344 282,95 Z" />
            <path d="M242,95 L242,99 C242,100.657 243.343,102 245,102 C246.657,102 248,100.657 248,99 L248,95 C248,93.344 246.657,92 245,92 C243.343,92 242,93.344 242,95 Z" />
            <path d="M241.254,123.439 C242.491,124.325 244.7,125.569 247.791,126.79 C252.874,128.798 258.645,130 265,130 C271.355,130 277.126,128.798 282.209,126.79 C285.3,125.569 287.509,124.325 288.746,123.439 C290.093,122.475 290.404,120.601 289.439,119.254 C288.475,117.907 286.601,117.596 285.253,118.561 C285.077,118.687 284.657,118.957 284.005,119.324 C282.873,119.962 281.535,120.606 280.005,121.21 C275.594,122.952 270.562,124 265,124 C259.438,124 254.406,122.952 249.995,121.21 C248.465,120.606 247.127,119.962 245.995,119.324 C245.343,118.957 244.923,118.687 244.747,118.561 C243.399,117.596 241.525,117.907 240.561,119.254 C239.596,120.601 239.907,122.475 241.254,123.439 Z" />
        </g>
        <g id="Regular-S">
            <path d="M508,139 L508,83.001 C508,79.135 504.866,76.001 501,76.001 L429,76.001 C425.134,76.001 422,79.135 422,83.001 L422,139 C422,142.866 425.134,146 429,146 L501,146 C504.866,146 508,142.866 508,139 Z M502,139 C502,139.552 501.552,140 501,140 L429,140 C428.448,140 428,139.552 428,139 L428,83.001 C428,82.448 428.448,82.001 429,82.001 L501,82.001 C501.552,82.001 502,82.448 502,83.001 L502,139 Z" />
            <path d="M464.317,77.659 C464.242,77.808 464.111,78.076 463.932,78.456 C463.638,79.078 463.313,79.791 462.963,80.586 C461.966,82.852 460.97,85.331 460.04,87.952 C458.304,92.845 456.997,97.659 456.297,102.213 C455.668,106.3 455.549,110.058 456.03,113.425 C456.241,114.902 457.507,116 459,116 L471,116 L468.006,113.2 L470.006,143.199 C470.117,144.853 471.546,146.103 473.199,145.993 C474.852,145.883 476.103,144.454 475.993,142.8 L473.993,112.801 C473.888,111.225 472.579,110 471,110 L459,110 L461.97,112.576 C461.581,109.854 461.682,106.671 462.227,103.125 C462.864,98.986 464.075,94.523 465.695,89.959 C466.573,87.485 467.514,85.14 468.454,83.003 C468.782,82.258 469.086,81.593 469.357,81.019 C469.517,80.681 469.628,80.452 469.683,80.342 C470.424,78.86 469.823,77.058 468.341,76.317 C466.859,75.576 465.057,76.177 464.317,77.659 Z" />
            <path d="M485,140 L461,140 C459.343,140 458,141.343 458,143 C458,144.657 459.343,146 461,146 L485,146 C486.657,146 488,144.657 488,143 C488,141.343 486.657,140 485,140 Z" />
            <path d="M477,76.001 L453,76.001 C451.343,76.001 450,77.344 450,79.001 C450,80.657 451.343,82.001 453,82.001 L477,82.001 C478.657,82.001 480,80.657 480,79.001 C480,77.344 478.657,76.001 477,76.001 Z" />
            <path d="M482,95 L482,99 C482,100.657 483.343,102 485,102 C486.657,102 488,100.657 488,99 L488,95 C488,93.344 486.657,92 485,92 C483.343,92 482,93.344 482,95 Z" />
            <path d="M442,95 L442,99 C442,100.657 443.343,102 445,102 C446.657,102 448,100.657 448,99 L448,95 C448,93.344 446.657,92 445,92 C443.343,92 442,93.344 442,95 Z" />
            <path d="M441.254,123.439 C442.491,124.325 444.7,125.569 447.791,126.79 C452.874,128.798 458.645,130 465,130 C471.355,130 477.126,128.798 482.209,126.79 C485.3,125.569 487.509,124.325 488.746,123.439 C490.093,122.475 490.404,120.601 489.439,119.254 C488.475,117.907 486.601,117.596 485.253,118.561 C485.077,118.687 484.657,118.957 484.005,119.324 C482.873,119.962 481.535,120.606 480.005,121.21 C475.594,122.952 470.562,124 465,124 C459.438,124 454.406,122.952 449.995,121.21 C448.465,120.606 447.127,119.962 445.995,119.324 C445.343,118.957 444.923,118.687 444.747,118.561 C443.399,117.596 441.525,117.907 440.561,119.254 C439.596,120.601 439.907,122.475 441.254,123.439 Z" />
        </g>
        <g id="Black-S">
            <path d="M708,139 L708,83.001 C708,79.135 704.866,76.001 701,76.001 L629,76.001 C625.134,76.001 622,79.135 622,83.001 L622,139 C622,142.866 625.134,146 629,146 L701,146 C704.866,146 708,142.866 708,139 Z M702,139 C702,139.552 701.552,140 701,140 L629,140 C628.448,140 628,139.552 628,139 L628,83.001 C628,82.448 628.448,82.001 629,82.001 L701,82.001 C701.552,82.001 702,82.448 702,83.001 L702,139 Z" />
            <path d="M664.317,77.659 C664.242,77.808 664.111,78.076 663.932,78.456 C663.638,79.078 663.313,79.791 662.963,80.586 C661.966,82.852 660.97,85.331 660.04,87.952 C658.304,92.845 656.997,97.659 656.297,102.213 C655.668,106.3 655.549,110.058 656.03,113.425 C656.241,114.902 657.507,116 659,116 L671,116 L668.006,113.2 L670.006,143.199 C670.117,144.853 671.546,146.103 673.199,145.993 C674.852,145.883 676.103,144.454 675.993,142.8 L673.993,112.801 C673.888,111.225 672.579,110 671,110 L659,110 L661.97,112.576 C661.581,109.854 661.682,106.671 662.227,103.125 C662.864,98.986 664.075,94.523 665.695,89.959 C666.573,87.485 667.514,85.14 668.454,83.003 C668.782,82.258 669.086,81.593 669.357,81.019 C669.517,80.681 669.628,80.452 669.683,80.342 C670.424,78.86 669.823,77.058 668.341,76.317 C666.859,75.576 665.057,76.177 664.317,77.659 Z" />
            <path d="M685,140 L661,140 C659.343,140 658,141.343 658,143 C658,144.657 659.343,146 661,146 L685,146 C686.657,146 688,144.657 688,143 C688,141.343 686.657,140 685,140 Z" />
            <path d="M677,76.001 L653,76.001 C651.343,76.001 650,77.344 650,79.001 C650,80.657 651.343,82.001 653,82.001 L677,82.001 C678.657,82.001 680,80.657 680,79.001 C680,77.344 678.657,76.001 677,76.001 Z" />
            <path d="M682,95 L682,99 C682,100.657 683.343,102 685,102 C686.657,102 688,100.657 688,99 L688,95 C688,93.344 686.657,92 685,92 C683.343,92 682,93.344 682,95 Z" />
            <path d="M642,95 L642,99 C642,100.657 643.343,102 645,102 C646.657,102 648,100.657 648,99 L648,95 C648,93.344 646.657,92 645,92 C643.343,92 642,93.344 642,95 Z" />
            <path d="M641.254,123.439 C642.491,124.325 644.7,125.569 647.791,126.79 C652.874,128.798 658.646,130 665,130 C671.355,130 677.126,128.798 682.209,126.79 C685.3,125.569 687.509,124.325 688.746,123.439 C690.093,122.475 690.404,120.601 689.439,119.254 C688.475,117.907 686.601,117.596 685.253,118.561 C685.077,118.687 684.657,118.957 684.005,119.324 C682.873,119.962 681.535,120.606 680.005,121.21 C675.594,122.952 670.562,124 665,124 C659.438,124 654.406,122.952 649.995,121.21 C648.465,120.606 647.127,119.962 645.995,119.324 C645.343,118.957 644.923,118.687 644.747,118.561 C643.399,117.596 641.525,117.907 640.561,119.254 C639.596,120.601 639.907,122.475 641.254,123.439 Z" />
        </g>
    </g>
</svg>