<?xml version="1.0" encoding="UTF-8"?>
<svg height="600" width="800" xmlns="http://www.w3.org/2000/svg" xmlns:xlink="http://www.w3.org/1999/xlink">
    <g id="Notes" font-family="'LucidaGrande', 'Lucida Grande', sans-serif" font-size="13">
        <rect fill="white" height="600.0" width="800.0" x="0.0" y="0.0" />
        <g font-size="13">
            <text x="18.0" y="176.0">Small</text>
            <text x="18.0" y="376.0">Medium</text>
            <text x="18.0" y="576.0">Large</text>
        </g>
        <g font-size="9">
            <text x="250.0" y="30.0">Ultralight</text>
            <text x="450.0" y="30.0">Regular</text>
            <text x="650.0" y="30.0">Black</text>
            <text id="template-version" fill="#505050" text-anchor="end" x="785.0" y="575.0">Template v.3.0</text>
            <a href="https://github.com/swhitty/SwiftDraw">
                <text fill="#505050" text-anchor="end" x="785.0" y="590.0">https://github.com/swhitty/SwiftDraw</text>
            </a>
        </g>
    </g>
    <g id="Guides" stroke="rgb(39, 170, 225)" stroke-width="0.5">
        <path id="Capline-S" d="M18,76 l800,0" />
        <path id="H-reference" d="M85,145.755 L87.685,145.755 L113.369,79.287 L114.052,79.287 L114.052,76 L112.148,76 L85,145.755 Z M95.693,121.536 L130.996,121.536 L130.263,119.313 L96.474,119.313 L95.693,121.536 Z M139.15,145.755 L141.787,145.755 L114.638,76 L113.466,76 L113.466,79.287 L139.15,145.755 Z" stroke="none" />
        <path id="Baseline-S" d="M18,146 l800,0" />
        <path id="left-margin-Ultralight-S" d="M220,56 l0,110" />
        <path id="right-margin-Ultralight-S" d="M310,56 l0,110" />
        <path id="left-margin-Regular-S" d="M420,56 l0,110" />
        <path id="right-margin-Regular-S" d="M510,56 l0,110" />
        <path id="left-margin-Black-S" d="M620,56 l0,110" />
        <path id="right-margin-Black-S" d="M710,56 l0,110" />
        <path id="Capline-M" d="M18,276 l800,0" />
        <path id="Baseline-M" d="M18,346 l800,0" />
        <path id="Capline-L" d="M18,476 l800,0" />
        <path id="Baseline-L" d="M18,546 l800,0" />
    </g>
    <g id="Symbols">
        <g id="Ultralight-S">
            <path d="M238.571,87.519 C238.884,89.395 239.134,90.652 239.69,93.274 C240.411,96.672 240.727,98.342 241.123,101.118 C241.666,104.914 241.951,111.278 241.951,116.122 L243.439,113.797 C243.251,113.883 242.505,114.224 242.358,114.292 C241.875,114.513 241.472,114.702 241.068,114.897 C239.997,115.413 239.036,115.918 238.114,116.462 C233.056,119.446 230,123.128 230,128.073 C230,138.464 242.918,146 265,146 C287.082,146 300,138.464 300,128.073 C300,124.031 297.297,120.557 292.952,117.453 C291.54,116.444 290.041,115.545 288.543,114.76 C287.64,114.287 286.928,113.953 286.497,113.768 L288.049,116.122 C288.049,115.972 288.05,115.684 288.054,115.278 C288.06,114.598 288.072,113.84 288.09,113.023 C288.142,110.691 288.235,108.36 288.38,106.193 C288.509,104.248 288.674,102.534 288.877,101.118 C289.273,98.342 289.589,96.672 290.31,93.274 C290.866,90.652 291.116,89.395 291.429,87.519 C291.661,86.123 290.719,84.804 289.323,84.571 C287.928,84.339 286.609,85.281 286.376,86.677 C286.079,88.459 285.841,89.658 285.3,92.211 C284.557,95.712 284.223,97.479 283.806,100.394 C283.583,101.953 283.407,103.79 283.269,105.852 C283.119,108.103 283.023,110.507 282.97,112.909 C282.951,113.749 282.939,114.529 282.932,115.23 C282.928,115.652 282.927,115.956 282.927,116.122 C282.927,117.146 283.537,118.072 284.479,118.476 C284.795,118.611 285.389,118.89 286.167,119.298 C287.47,119.98 288.772,120.761 289.975,121.621 C293.099,123.852 294.878,126.139 294.878,128.073 C294.878,134.897 284.626,140.878 265,140.878 C245.374,140.878 235.122,134.897 235.122,128.073 C235.122,125.363 237.056,123.032 240.716,120.873 C241.503,120.409 242.341,119.969 243.292,119.511 C243.664,119.332 244.04,119.156 244.496,118.946 C244.634,118.883 245.386,118.539 245.585,118.447 C246.492,118.029 247.073,117.121 247.073,116.122 C247.073,111.054 246.778,104.486 246.194,100.394 C245.777,97.479 245.443,95.712 244.7,92.211 C244.159,89.658 243.921,88.459 243.624,86.677 C243.391,85.281 242.072,84.339 240.677,84.571 C239.281,84.804 238.339,86.123 238.571,87.519 Z" />
            <path d="M282.927,116.122 C282.927,119.852 282.309,121.971 280.478,123.598 C277.89,125.899 272.725,127.22 264.146,127.22 C262.732,127.22 261.585,128.366 261.585,129.78 C261.585,131.195 262.732,132.341 264.146,132.341 C282.144,132.341 288.049,127.093 288.049,116.122 C288.049,114.708 286.902,113.561 285.488,113.561 C284.073,113.561 282.927,114.708 282.927,116.122 Z" />
            <path d="M243.659,87.098 C243.659,86.226 245.422,84.736 248.96,83.473 C253.117,81.988 258.852,81.122 265,81.122 C271.148,81.122 276.883,81.988 281.04,83.473 C284.578,84.736 286.341,86.226 286.341,87.098 C286.341,87.969 284.578,89.459 281.04,90.722 C276.883,92.207 271.148,93.073 265,93.073 C258.852,93.073 253.117,92.207 248.96,90.722 C245.422,89.459 243.659,87.969 243.659,87.098 Z M238.537,87.098 C238.537,93.944 250.439,98.195 265,98.195 C279.561,98.195 291.463,93.944 291.463,87.098 C291.463,80.251 279.561,76 265,76 C250.439,76 238.537,80.251 238.537,87.098 Z" />
        </g>
        <g id="Regular-S">
            <path d="M438.571,87.519 C438.884,89.395 439.134,90.652 439.69,93.274 C440.411,96.672 440.727,98.342 441.123,101.118 C441.666,104.914 441.951,111.278 441.951,116.122 L443.439,113.797 C443.251,113.883 442.505,114.224 442.358,114.292 C441.875,114.513 441.472,114.702 441.068,114.897 C439.997,115.413 439.036,115.918 438.114,116.462 C433.056,119.446 430,123.128 430,128.073 C430,138.464 442.918,146 465,146 C487.082,146 500,138.464 500,128.073 C500,124.031 497.297,120.557 492.952,117.453 C491.54,116.444 490.041,115.545 488.543,114.76 C487.64,114.287 486.928,113.953 486.497,113.768 L488.049,116.122 C488.049,115.972 488.05,115.684 488.054,115.278 C488.06,114.598 488.072,113.84 488.09,113.023 C488.142,110.691 488.235,108.36 488.38,106.193 C488.509,104.248 488.674,102.534 488.877,101.118 C489.273,98.342 489.589,96.672 490.31,93.274 C490.866,90.652 491.116,89.395 491.429,87.519 C491.661,86.123 490.719,84.804 489.323,84.571 C487.928,84.339 486.609,85.281 486.376,86.677 C486.079,88.459 485.841,89.658 485.3,92.211 C484.557,95.712 484.223,97.479 483.806,100.394 C483.583,101.953 483.407,103.79 483.269,105.852 C483.119,108.103 483.023,110.507 482.97,112.909 C482.951,113.749 482.939,114.529 482.932,115.23 C482.928,115.652 482.927,115.956 482.927,116.122 C482.927,117.146 483.537,118.072 484.479,118.476 C484.795,118.611 485.389,118.89 486.167,119.298 C487.47,119.98 488.772,120.761 489.975,121.621 C493.099,123.852 494.878,126.139 494.878,128.073 C494.878,134.897 484.626,140.878 465,140.878 C445.374,140.878 435.122,134.897 435.122,128.073 C435.122,125.363 437.056,123.032 440.716,120.873 C441.503,120.409 442.341,119.969 443.292,119.511 C443.664,119.332 444.04,119.156 444.496,118.946 C444.634,118.883 445.386,118.539 445.585,118.447 C446.492,118.029 447.073,117.121 447.073,116.122 C447.073,111.054 446.778,104.486 446.194,100.394 C445.777,97.479 445.443,95.712 444.7,92.211 C444.159,89.658 443.921,88.459 443.624,86.677 C443.391,85.281 442.072,84.339 440.677,84.571 C439.281,84.804 438.339,86.123 438.571,87.519 Z" />
            <path d="M482.927,116.122 C482.927,119.852 482.309,121.971 480.478,123.598 C477.89,125.899 472.725,127.22 464.146,127.22 C462.732,127.22 461.585,128.366 461.585,129.78 C461.585,131.195 462.732,132.341 464.146,132.341 C482.144,132.341 488.049,127.093 488.049,116.122 C488.049,114.708 486.902,113.561 485.488,113.561 C484.073,113.561 482.927,114.708 482.927,116.122 Z" />
            <path d="M443.659,87.098 C443.659,86.226 445.422,84.736 448.96,83.473 C453.117,81.988 458.852,81.122 465,81.122 C471.148,81.122 476.883,81.988 481.04,83.473 C484.578,84.736 486.341,86.226 486.341,87.098 C486.341,87.969 484.578,89.459 481.04,90.722 C476.883,92.207 471.148,93.073 465,93.073 C458.852,93.073 453.117,92.207 448.96,90.722 C445.422,89.459 443.659,87.969 443.659,87.098 Z M438.537,87.098 C438.537,93.944 450.439,98.195 465,98.195 C479.561,98.195 491.463,93.944 491.463,87.098 C491.463,80.251 479.561,76 465,76 C450.439,76 438.537,80.251 438.537,87.098 Z" />
        </g>
        <g id="Black-S">
            <path d="M638.571,87.519 C638.884,89.395 639.134,90.652 639.69,93.274 C640.411,96.672 640.727,98.342 641.123,101.118 C641.666,104.914 641.951,111.278 641.951,116.122 L643.439,113.797 C643.251,113.883 642.505,114.224 642.358,114.292 C641.875,114.513 641.472,114.702 641.068,114.897 C639.997,115.413 639.036,115.918 638.114,116.462 C633.056,119.446 630,123.128 630,128.073 C630,138.464 642.918,146 665,146 C687.082,146 700,138.464 700,128.073 C700,124.031 697.297,120.557 692.952,117.453 C691.54,116.444 690.042,115.545 688.544,114.76 C687.64,114.287 686.928,113.953 686.497,113.768 L688.049,116.122 C688.049,115.972 688.05,115.684 688.054,115.278 C688.06,114.598 688.072,113.84 688.09,113.023 C688.142,110.691 688.235,108.36 688.38,106.193 C688.509,104.248 688.674,102.534 688.877,101.118 C689.273,98.342 689.589,96.672 690.31,93.274 C690.866,90.652 691.116,89.395 691.429,87.519 C691.661,86.123 690.719,84.804 689.323,84.571 C687.928,84.339 686.609,85.281 686.376,86.677 C686.079,88.459 685.841,89.658 685.3,92.211 C684.557,95.712 684.223,97.479 683.806,100.394 C683.583,101.953 683.407,103.79 683.269,105.852 C683.119,108.103 683.023,110.507 682.97,112.909 C682.951,113.749 682.939,114.529 682.932,115.23 C682.928,115.652 682.927,115.956 682.927,116.122 C682.927,117.146 683.537,118.072 684.479,118.476 C684.795,118.611 685.389,118.89 686.167,119.298 C687.47,119.98 688.772,120.761 689.975,121.621 C693.099,123.852 694.878,126.139 694.878,128.073 C694.878,134.897 684.626,140.878 665,140.878 C645.374,140.878 635.122,134.897 635.122,128.073 C635.122,125.363 637.056,123.032 640.717,120.873 C641.503,120.409 642.341,119.969 643.292,119.511 C643.664,119.332 644.04,119.156 644.496,118.946 C644.634,118.883 645.386,118.539 645.585,118.447 C646.492,118.029 647.073,117.121 647.073,116.122 C647.073,111.054 646.778,104.486 646.194,100.394 C645.777,97.479 645.443,95.712 644.7,92.211 C644.159,89.658 643.921,88.459 643.624,86.677 C643.391,85.281 642.072,84.339 640.677,84.571 C639.281,84.804 638.339,86.123 638.571,87.519 Z" />
            <path d="M682.927,116.122 C682.927,119.852 682.309,121.971 680.479,123.598 C677.89,125.899 672.725,127.22 664.146,127.22 C662.732,127.22 661.585,128.366 661.585,129.78 C661.585,131.195 662.732,132.341 664.146,132.341 C682.144,132.341 688.049,127.093 688.049,116.122 C688.049,114.708 686.902,113.561 685.488,113.561 C684.073,113.561 682.927,114.708 682.927,116.122 Z" />
            <path d="M643.659,87.098 C643.659,86.226 645.422,84.736 648.96,83.473 C653.117,81.988 658.852,81.122 665,81.122 C671.148,81.122 676.883,81.988 681.04,83.473 C684.578,84.736 686.341,86.226 686.341,87.098 C686.341,87.969 684.578,89.459 681.04,90.722 C676.883,92.207 671.148,93.073 665,93.073 C658.852,93.073 653.117,92.207 648.96,90.722 C645.422,89.459 643.659,87.969 643.659,87.098 Z M638.537,87.098 C638.537,93.944 650.439,98.195 665,98.195 C679.561,98.195 691.463,93.944 691.463,87.098 C691.463,80.251 679.561,76 665,76 C650.439,76 638.537,80.251 638.537,87.098 Z" />
        </g>
    </g>
</svg>