<?xml version="1.0" encoding="UTF-8"?>
<svg height="600" width="800" xmlns="http://www.w3.org/2000/svg" xmlns:xlink="http://www.w3.org/1999/xlink">
    <g id="Notes" font-family="'LucidaGrande', 'Lucida Grande', sans-serif" font-size="13">
        <rect fill="white" height="600.0" width="800.0" x="0.0" y="0.0" />
        <g font-size="13">
            <text x="18.0" y="176.0">Small</text>
            <text x="18.0" y="376.0">Medium</text>
            <text x="18.0" y="576.0">Large</text>
        </g>
        <g font-size="9">
            <text x="250.0" y="30.0">Ultralight</text>
            <text x="450.0" y="30.0">Regular</text>
            <text x="650.0" y="30.0">Black</text>
            <text id="template-version" fill="#505050" text-anchor="end" x="785.0" y="575.0">Template v.3.0</text>
            <a href="https://github.com/swhitty/SwiftDraw">
                <text fill="#505050" text-anchor="end" x="785.0" y="590.0">https://github.com/swhitty/SwiftDraw</text>
            </a>
        </g>
    </g>
    <g id="Guides" stroke="rgb(39, 170, 225)" stroke-width="0.5">
        <path id="Capline-S" d="M18,76 l800,0" />
        <path id="H-reference" d="M85,145.755 L87.685,145.755 L113.369,79.287 L114.052,79.287 L114.052,76 L112.148,76 L85,145.755 Z M95.693,121.536 L130.996,121.536 L130.263,119.313 L96.474,119.313 L95.693,121.536 Z M139.15,145.755 L141.787,145.755 L114.638,76 L113.466,76 L113.466,79.287 L139.15,145.755 Z" stroke="none" />
        <path id="Baseline-S" d="M18,146 l800,0" />
        <path id="left-margin-Ultralight-S" d="M216.41,56 l0,110" />
        <path id="right-margin-Ultralight-S" d="M313.59,56 l0,110" />
        <path id="left-margin-Regular-S" d="M416.41,56 l0,110" />
        <path id="right-margin-Regular-S" d="M513.59,56 l0,110" />
        <path id="left-margin-Black-S" d="M616.41,56 l0,110" />
        <path id="right-margin-Black-S" d="M713.59,56 l0,110" />
        <path id="Capline-M" d="M18,276 l800,0" />
        <path id="Baseline-M" d="M18,346 l800,0" />
        <path id="Capline-L" d="M18,476 l800,0" />
        <path id="Baseline-L" d="M18,546 l800,0" />
    </g>
    <g id="Symbols">
        <g id="Ultralight-S">
            <path d="M229.103,146 L300.897,146 C302.384,146 303.59,144.795 303.59,143.308 L303.59,121.769 L303.59,100.231 C303.59,98.744 302.384,97.538 300.897,97.538 L265,97.538 L229.103,97.538 C227.616,97.538 226.41,98.744 226.41,100.231 L226.41,121.769 L226.41,143.308 C226.41,144.795 227.616,146 229.103,146 Z M229.103,140.615 L231.795,143.308 L231.795,121.769 L231.795,100.231 L229.103,102.923 L265,102.923 L300.897,102.923 L298.205,100.231 L298.205,121.769 L298.205,143.308 L300.897,140.615 L229.103,140.615 Z" />
            <path d="M227.487,102.385 L263.385,129.308 C264.342,130.026 265.658,130.026 266.615,129.308 L302.513,102.385 C303.702,101.492 303.943,99.805 303.051,98.615 C302.159,97.426 300.472,97.185 299.282,98.077 L263.385,125 L266.615,125 L230.718,98.077 C229.528,97.185 227.841,97.426 226.949,98.615 C226.057,99.805 226.298,101.492 227.487,102.385 Z" />
            <path d="M265,97.538 L229.103,97.538 C227.616,97.538 226.41,98.744 226.41,100.231 L226.41,127.154 C226.41,128.641 227.616,129.846 229.103,129.846 C230.589,129.846 231.795,128.641 231.795,127.154 L231.795,100.231 L229.103,102.923 L265,102.923 C266.487,102.923 267.692,101.718 267.692,100.231 C267.692,98.744 266.487,97.538 265,97.538 Z" />
            <path d="M303.59,127.154 L303.59,100.231 C303.59,98.744 302.384,97.538 300.897,97.538 L265,97.538 C263.513,97.538 262.308,98.744 262.308,100.231 C262.308,101.718 263.513,102.923 265,102.923 L300.897,102.923 L298.205,100.231 L298.205,127.154 C298.205,128.641 299.411,129.846 300.897,129.846 C302.384,129.846 303.59,128.641 303.59,127.154 Z" />
            <path d="M243.462,92.154 L286.538,92.154 C288.025,92.154 289.231,90.948 289.231,89.462 C289.231,87.975 288.025,86.769 286.538,86.769 L243.462,86.769 C241.975,86.769 240.769,87.975 240.769,89.462 C240.769,90.948 241.975,92.154 243.462,92.154 Z" />
            <path d="M250.641,81.385 L279.359,81.385 C280.846,81.385 282.051,80.179 282.051,78.692 C282.051,77.205 280.846,76 279.359,76 L250.641,76 C249.154,76 247.949,77.205 247.949,78.692 C247.949,80.179 249.154,81.385 250.641,81.385 Z" />
        </g>
        <g id="Regular-S">
            <path d="M429.103,146 L500.897,146 C502.384,146 503.59,144.795 503.59,143.308 L503.59,121.769 L503.59,100.231 C503.59,98.744 502.384,97.538 500.897,97.538 L465,97.538 L429.103,97.538 C427.616,97.538 426.41,98.744 426.41,100.231 L426.41,121.769 L426.41,143.308 C426.41,144.795 427.616,146 429.103,146 Z M429.103,140.615 L431.795,143.308 L431.795,121.769 L431.795,100.231 L429.103,102.923 L465,102.923 L500.897,102.923 L498.205,100.231 L498.205,121.769 L498.205,143.308 L500.897,140.615 L429.103,140.615 Z" />
            <path d="M427.487,102.385 L463.385,129.308 C464.342,130.026 465.658,130.026 466.615,129.308 L502.513,102.385 C503.702,101.492 503.943,99.805 503.051,98.615 C502.159,97.426 500.472,97.185 499.282,98.077 L463.385,125 L466.615,125 L430.718,98.077 C429.528,97.185 427.841,97.426 426.949,98.615 C426.057,99.805 426.298,101.492 427.487,102.385 Z" />
            <path d="M465,97.538 L429.103,97.538 C427.616,97.538 426.41,98.744 426.41,100.231 L426.41,127.154 C426.41,128.641 427.616,129.846 429.103,129.846 C430.589,129.846 431.795,128.641 431.795,127.154 L431.795,100.231 L429.103,102.923 L465,102.923 C466.487,102.923 467.692,101.718 467.692,100.231 C467.692,98.744 466.487,97.538 465,97.538 Z" />
            <path d="M503.59,127.154 L503.59,100.231 C503.59,98.744 502.384,97.538 500.897,97.538 L465,97.538 C463.513,97.538 462.308,98.744 462.308,100.231 C462.308,101.718 463.513,102.923 465,102.923 L500.897,102.923 L498.205,100.231 L498.205,127.154 C498.205,128.641 499.411,129.846 500.897,129.846 C502.384,129.846 503.59,128.641 503.59,127.154 Z" />
            <path d="M443.462,92.154 L486.538,92.154 C488.025,92.154 489.231,90.948 489.231,89.462 C489.231,87.975 488.025,86.769 486.538,86.769 L443.462,86.769 C441.975,86.769 440.769,87.975 440.769,89.462 C440.769,90.948 441.975,92.154 443.462,92.154 Z" />
            <path d="M450.641,81.385 L479.359,81.385 C480.846,81.385 482.051,80.179 482.051,78.692 C482.051,77.205 480.846,76 479.359,76 L450.641,76 C449.154,76 447.949,77.205 447.949,78.692 C447.949,80.179 449.154,81.385 450.641,81.385 Z" />
        </g>
        <g id="Black-S">
            <path d="M629.103,146 L700.897,146 C702.384,146 703.59,144.795 703.59,143.308 L703.59,121.769 L703.59,100.231 C703.59,98.744 702.384,97.538 700.897,97.538 L665,97.538 L629.103,97.538 C627.616,97.538 626.41,98.744 626.41,100.231 L626.41,121.769 L626.41,143.308 C626.41,144.795 627.616,146 629.103,146 Z M629.103,140.615 L631.795,143.308 L631.795,121.769 L631.795,100.231 L629.103,102.923 L665,102.923 L700.897,102.923 L698.205,100.231 L698.205,121.769 L698.205,143.308 L700.897,140.615 L629.103,140.615 Z" />
            <path d="M627.487,102.385 L663.385,129.308 C664.342,130.026 665.658,130.026 666.615,129.308 L702.513,102.385 C703.702,101.492 703.943,99.805 703.051,98.615 C702.159,97.426 700.472,97.185 699.282,98.077 L663.385,125 L666.615,125 L630.718,98.077 C629.528,97.185 627.841,97.426 626.949,98.615 C626.057,99.805 626.298,101.492 627.487,102.385 Z" />
            <path d="M665,97.538 L629.103,97.538 C627.616,97.538 626.41,98.744 626.41,100.231 L626.41,127.154 C626.41,128.641 627.616,129.846 629.103,129.846 C630.589,129.846 631.795,128.641 631.795,127.154 L631.795,100.231 L629.103,102.923 L665,102.923 C666.487,102.923 667.692,101.718 667.692,100.231 C667.692,98.744 666.487,97.538 665,97.538 Z" />
            <path d="M703.59,127.154 L703.59,100.231 C703.59,98.744 702.384,97.538 700.897,97.538 L665,97.538 C663.513,97.538 662.308,98.744 662.308,100.231 C662.308,101.718 663.513,102.923 665,102.923 L700.897,102.923 L698.205,100.231 L698.205,127.154 C698.205,128.641 699.411,129.846 700.897,129.846 C702.384,129.846 703.59,128.641 703.59,127.154 Z" />
            <path d="M643.462,92.154 L686.538,92.154 C688.025,92.154 689.231,90.948 689.231,89.462 C689.231,87.975 688.025,86.769 686.538,86.769 L643.462,86.769 C641.975,86.769 640.769,87.975 640.769,89.462 C640.769,90.948 641.975,92.154 643.462,92.154 Z" />
            <path d="M650.641,81.385 L679.359,81.385 C680.846,81.385 682.051,80.179 682.051,78.692 C682.051,77.205 680.846,76 679.359,76 L650.641,76 C649.154,76 647.949,77.205 647.949,78.692 C647.949,80.179 649.154,81.385 650.641,81.385 Z" />
        </g>
    </g>
</svg>