<?xml version="1.0" encoding="UTF-8"?>
<svg height="600" width="800" xmlns="http://www.w3.org/2000/svg" xmlns:xlink="http://www.w3.org/1999/xlink">
    <g id="Notes" font-family="'LucidaGrande', 'Lucida Grande', sans-serif" font-size="13">
        <rect fill="white" height="600.0" width="800.0" x="0.0" y="0.0" />
        <g font-size="13">
            <text x="18.0" y="176.0">Small</text>
            <text x="18.0" y="376.0">Medium</text>
            <text x="18.0" y="576.0">Large</text>
        </g>
        <g font-size="9">
            <text x="250.0" y="30.0">Ultralight</text>
            <text x="450.0" y="30.0">Regular</text>
            <text x="650.0" y="30.0">Black</text>
            <text id="template-version" fill="#505050" text-anchor="end" x="785.0" y="575.0">Template v.3.0</text>
            <a href="https://github.com/swhitty/SwiftDraw">
                <text fill="#505050" text-anchor="end" x="785.0" y="590.0">https://github.com/swhitty/SwiftDraw</text>
            </a>
        </g>
    </g>
    <g id="Guides" stroke="rgb(39, 170, 225)" stroke-width="0.5">
        <path id="Capline-S" d="M18,76 l800,0" />
        <path id="H-reference" d="M85,145.755 L87.685,145.755 L113.369,79.287 L114.052,79.287 L114.052,76 L112.148,76 L85,145.755 Z M95.693,121.536 L130.996,121.536 L130.263,119.313 L96.474,119.313 L95.693,121.536 Z M139.15,145.755 L141.787,145.755 L114.638,76 L113.466,76 L113.466,79.287 L139.15,145.755 Z" stroke="none" />
        <path id="Baseline-S" d="M18,146 l800,0" />
        <path id="left-margin-Ultralight-S" d="M221,56 l0,110" />
        <path id="right-margin-Ultralight-S" d="M309,56 l0,110" />
        <path id="left-margin-Regular-S" d="M421,56 l0,110" />
        <path id="right-margin-Regular-S" d="M509,56 l0,110" />
        <path id="left-margin-Black-S" d="M621,56 l0,110" />
        <path id="right-margin-Black-S" d="M709,56 l0,110" />
        <path id="Capline-M" d="M18,276 l800,0" />
        <path id="Baseline-M" d="M18,346 l800,0" />
        <path id="Capline-L" d="M18,476 l800,0" />
        <path id="Baseline-L" d="M18,546 l800,0" />
    </g>
    <g id="Symbols">
        <g id="Ultralight-S">
            <path d="M252.5,118.5 L252.5,97.92 C252.5,94.392 257.205,91 265,91 C272.795,91 277.5,94.392 277.5,97.92 L277.5,118.5 C277.5,119.881 278.619,121 280,121 C281.381,121 282.5,119.881 282.5,118.5 L282.5,97.92 C282.5,91.213 275.27,86 265,86 C254.73,86 247.5,91.213 247.5,97.92 L247.5,118.5 C247.5,119.881 248.619,121 250,121 C251.381,121 252.5,119.881 252.5,118.5 Z" />
            <path d="M247.5,128.5 L247.5,118.5 L245,121 L285,121 L282.5,118.5 L282.5,128.5 L285,126 L245,126 L247.5,128.5 Z M242.5,128.5 C242.5,129.881 243.619,131 245,131 L285,131 C286.381,131 287.5,129.881 287.5,128.5 L287.5,118.5 C287.5,117.119 286.381,116 285,116 L245,116 C243.619,116 242.5,117.119 242.5,118.5 L242.5,128.5 Z" />
            <path d="M258.333,81 L271.667,81 C273.047,81 274.167,79.881 274.167,78.5 C274.167,77.119 273.047,76 271.667,76 L258.333,76 C256.953,76 255.833,77.119 255.833,78.5 C255.833,79.881 256.953,81 258.333,81 Z" />
            <path d="M235.833,98.5 L235.833,118.5 C235.833,119.881 236.953,121 238.333,121 L291.667,121 C293.047,121 294.167,119.881 294.167,118.5 L294.167,98.5 C294.167,97.119 293.047,96 291.667,96 C290.286,96 289.167,97.119 289.167,98.5 L289.167,118.5 L291.667,116 L238.333,116 L240.833,118.5 L240.833,98.5 C240.833,97.119 239.714,96 238.333,96 C236.953,96 235.833,97.119 235.833,98.5 Z" />
            <path d="M253.333,146 L276.667,146 C278.047,146 279.167,144.881 279.167,143.5 C279.167,142.119 278.047,141 276.667,141 L253.333,141 C251.953,141 250.833,142.119 250.833,143.5 C250.833,144.881 251.953,146 253.333,146 Z" />
            <path d="M262.5,128.5 L262.5,143.5 C262.5,144.881 263.619,146 265,146 C266.381,146 267.5,144.881 267.5,143.5 L267.5,128.5 C267.5,127.119 266.381,126 265,126 C263.619,126 262.5,127.119 262.5,128.5 Z" />
            <path d="M262.5,78.5 L262.5,88.5 C262.5,89.881 263.619,91 265,91 C266.381,91 267.5,89.881 267.5,88.5 L267.5,78.5 C267.5,77.119 266.381,76 265,76 C263.619,76 262.5,77.119 262.5,78.5 Z" />
        </g>
        <g id="Regular-S">
            <path d="M452.5,118.5 L452.5,97.92 C452.5,94.392 457.205,91 465,91 C472.795,91 477.5,94.392 477.5,97.92 L477.5,118.5 C477.5,119.881 478.619,121 480,121 C481.381,121 482.5,119.881 482.5,118.5 L482.5,97.92 C482.5,91.213 475.27,86 465,86 C454.73,86 447.5,91.213 447.5,97.92 L447.5,118.5 C447.5,119.881 448.619,121 450,121 C451.381,121 452.5,119.881 452.5,118.5 Z" />
            <path d="M447.5,128.5 L447.5,118.5 L445,121 L485,121 L482.5,118.5 L482.5,128.5 L485,126 L445,126 L447.5,128.5 Z M442.5,128.5 C442.5,129.881 443.619,131 445,131 L485,131 C486.381,131 487.5,129.881 487.5,128.5 L487.5,118.5 C487.5,117.119 486.381,116 485,116 L445,116 C443.619,116 442.5,117.119 442.5,118.5 L442.5,128.5 Z" />
            <path d="M458.333,81 L471.667,81 C473.047,81 474.167,79.881 474.167,78.5 C474.167,77.119 473.047,76 471.667,76 L458.333,76 C456.953,76 455.833,77.119 455.833,78.5 C455.833,79.881 456.953,81 458.333,81 Z" />
            <path d="M435.833,98.5 L435.833,118.5 C435.833,119.881 436.953,121 438.333,121 L491.667,121 C493.047,121 494.167,119.881 494.167,118.5 L494.167,98.5 C494.167,97.119 493.047,96 491.667,96 C490.286,96 489.167,97.119 489.167,98.5 L489.167,118.5 L491.667,116 L438.333,116 L440.833,118.5 L440.833,98.5 C440.833,97.119 439.714,96 438.333,96 C436.953,96 435.833,97.119 435.833,98.5 Z" />
            <path d="M453.333,146 L476.667,146 C478.047,146 479.167,144.881 479.167,143.5 C479.167,142.119 478.047,141 476.667,141 L453.333,141 C451.953,141 450.833,142.119 450.833,143.5 C450.833,144.881 451.953,146 453.333,146 Z" />
            <path d="M462.5,128.5 L462.5,143.5 C462.5,144.881 463.619,146 465,146 C466.381,146 467.5,144.881 467.5,143.5 L467.5,128.5 C467.5,127.119 466.381,126 465,126 C463.619,126 462.5,127.119 462.5,128.5 Z" />
            <path d="M462.5,78.5 L462.5,88.5 C462.5,89.881 463.619,91 465,91 C466.381,91 467.5,89.881 467.5,88.5 L467.5,78.5 C467.5,77.119 466.381,76 465,76 C463.619,76 462.5,77.119 462.5,78.5 Z" />
        </g>
        <g id="Black-S">
            <path d="M652.5,118.5 L652.5,97.92 C652.5,94.392 657.205,91 665,91 C672.795,91 677.5,94.392 677.5,97.92 L677.5,118.5 C677.5,119.881 678.619,121 680,121 C681.381,121 682.5,119.881 682.5,118.5 L682.5,97.92 C682.5,91.213 675.27,86 665,86 C654.73,86 647.5,91.213 647.5,97.92 L647.5,118.5 C647.5,119.881 648.619,121 650,121 C651.381,121 652.5,119.881 652.5,118.5 Z" />
            <path d="M647.5,128.5 L647.5,118.5 L645,121 L685,121 L682.5,118.5 L682.5,128.5 L685,126 L645,126 L647.5,128.5 Z M642.5,128.5 C642.5,129.881 643.619,131 645,131 L685,131 C686.381,131 687.5,129.881 687.5,128.5 L687.5,118.5 C687.5,117.119 686.381,116 685,116 L645,116 C643.619,116 642.5,117.119 642.5,118.5 L642.5,128.5 Z" />
            <path d="M658.333,81 L671.667,81 C673.047,81 674.167,79.881 674.167,78.5 C674.167,77.119 673.047,76 671.667,76 L658.333,76 C656.953,76 655.833,77.119 655.833,78.5 C655.833,79.881 656.953,81 658.333,81 Z" />
            <path d="M635.833,98.5 L635.833,118.5 C635.833,119.881 636.953,121 638.333,121 L691.667,121 C693.047,121 694.167,119.881 694.167,118.5 L694.167,98.5 C694.167,97.119 693.047,96 691.667,96 C690.286,96 689.167,97.119 689.167,98.5 L689.167,118.5 L691.667,116 L638.333,116 L640.833,118.5 L640.833,98.5 C640.833,97.119 639.714,96 638.333,96 C636.953,96 635.833,97.119 635.833,98.5 Z" />
            <path d="M653.333,146 L676.667,146 C678.047,146 679.167,144.881 679.167,143.5 C679.167,142.119 678.047,141 676.667,141 L653.333,141 C651.953,141 650.833,142.119 650.833,143.5 C650.833,144.881 651.953,146 653.333,146 Z" />
            <path d="M662.5,128.5 L662.5,143.5 C662.5,144.881 663.619,146 665,146 C666.381,146 667.5,144.881 667.5,143.5 L667.5,128.5 C667.5,127.119 666.381,126 665,126 C663.619,126 662.5,127.119 662.5,128.5 Z" />
            <path d="M662.5,78.5 L662.5,88.5 C662.5,89.881 663.619,91 665,91 C666.381,91 667.5,89.881 667.5,88.5 L667.5,78.5 C667.5,77.119 666.381,76 665,76 C663.619,76 662.5,77.119 662.5,78.5 Z" />
        </g>
    </g>
</svg>