<?xml version="1.0" encoding="UTF-8"?>
<svg height="600" width="800" xmlns="http://www.w3.org/2000/svg" xmlns:xlink="http://www.w3.org/1999/xlink">
    <g id="Notes" font-family="'LucidaGrande', 'Lucida Grande', sans-serif" font-size="13">
        <rect fill="white" height="600.0" width="800.0" x="0.0" y="0.0" />
        <g font-size="13">
            <text x="18.0" y="176.0">Small</text>
            <text x="18.0" y="376.0">Medium</text>
            <text x="18.0" y="576.0">Large</text>
        </g>
        <g font-size="9">
            <text x="250.0" y="30.0">Ultralight</text>
            <text x="450.0" y="30.0">Regular</text>
            <text x="650.0" y="30.0">Black</text>
            <text id="template-version" fill="#505050" text-anchor="end" x="785.0" y="575.0">Template v.3.0</text>
            <a href="https://github.com/swhitty/SwiftDraw">
                <text fill="#505050" text-anchor="end" x="785.0" y="590.0">https://github.com/swhitty/SwiftDraw</text>
            </a>
        </g>
    </g>
    <g id="Guides" stroke="rgb(39, 170, 225)" stroke-width="0.5">
        <path id="Capline-S" d="M18,76 l800,0" />
        <path id="H-reference" d="M85,145.755 L87.685,145.755 L113.369,79.287 L114.052,79.287 L114.052,76 L112.148,76 L85,145.755 Z M95.693,121.536 L130.996,121.536 L130.263,119.313 L96.474,119.313 L95.693,121.536 Z M139.15,145.755 L141.787,145.755 L114.638,76 L113.466,76 L113.466,79.287 L139.15,145.755 Z" stroke="none" />
        <path id="Baseline-S" d="M18,146 l800,0" />
        <path id="left-margin-Ultralight-S" d="M221,56 l0,110" />
        <path id="right-margin-Ultralight-S" d="M309,56 l0,110" />
        <path id="left-margin-Regular-S" d="M421,56 l0,110" />
        <path id="right-margin-Regular-S" d="M509,56 l0,110" />
        <path id="left-margin-Black-S" d="M621,56 l0,110" />
        <path id="right-margin-Black-S" d="M709,56 l0,110" />
        <path id="Capline-M" d="M18,276 l800,0" />
        <path id="Baseline-M" d="M18,346 l800,0" />
        <path id="Capline-L" d="M18,476 l800,0" />
        <path id="Baseline-L" d="M18,546 l800,0" />
    </g>
    <g id="Symbols">
        <g id="Ultralight-S">
            <path d="M236.79,90.393 L256.325,80.626 L255.233,80.884 L274.767,80.884 L273.675,80.626 L293.21,90.393 L291.868,88.015 L288.612,128.712 L291.047,126.465 L281.279,126.465 C279.93,126.465 278.837,127.558 278.837,128.907 L278.837,143.558 L281.279,141.116 L265,141.116 L248.721,141.116 L251.163,143.558 L251.163,128.907 C251.163,127.558 250.07,126.465 248.721,126.465 L238.953,126.465 L241.388,128.712 L238.132,88.015 L236.79,90.393 Z M234.606,86.025 C233.715,86.47 233.184,87.412 233.264,88.404 L236.519,129.102 C236.621,130.371 237.68,131.349 238.953,131.349 L248.721,131.349 L246.279,128.907 L246.279,143.558 C246.279,144.907 247.372,146 248.721,146 L265,146 L281.279,146 C282.628,146 283.721,144.907 283.721,143.558 L283.721,128.907 L281.279,131.349 L291.047,131.349 C292.32,131.349 293.379,130.371 293.481,129.102 L296.736,88.404 C296.816,87.412 296.285,86.47 295.394,86.025 L275.859,76.258 C275.52,76.088 275.147,76 274.767,76 L255.233,76 C254.853,76 254.48,76.088 254.141,76.258 L234.606,86.025 Z" />
            <path d="M251.163,128.907 L251.163,104.488 C251.163,103.14 250.07,102.047 248.721,102.047 C247.372,102.047 246.279,103.14 246.279,104.488 L246.279,128.907 C246.279,130.256 247.372,131.349 248.721,131.349 C250.07,131.349 251.163,130.256 251.163,128.907 Z" />
            <path d="M283.721,128.907 L283.721,104.488 C283.721,103.14 282.628,102.047 281.279,102.047 C279.93,102.047 278.837,103.14 278.837,104.488 L278.837,128.907 C278.837,130.256 279.93,131.349 281.279,131.349 C282.628,131.349 283.721,130.256 283.721,128.907 Z" />
            <path d="M265,90.651 C271.743,90.651 277.209,85.185 277.209,78.442 C277.209,77.093 276.116,76 274.767,76 L255.233,76 C253.884,76 252.791,77.093 252.791,78.442 C252.791,85.185 258.257,90.651 265,90.651 Z M265,85.767 C260.954,85.767 257.674,82.488 257.674,78.442 L255.233,80.884 L274.767,80.884 L272.326,78.442 C272.326,82.488 269.046,85.767 265,85.767 Z" />
        </g>
        <g id="Regular-S">
            <path d="M436.79,90.393 L456.325,80.626 L455.233,80.884 L474.767,80.884 L473.675,80.626 L493.21,90.393 L491.868,88.015 L488.612,128.712 L491.047,126.465 L481.279,126.465 C479.93,126.465 478.837,127.558 478.837,128.907 L478.837,143.558 L481.279,141.116 L465,141.116 L448.721,141.116 L451.163,143.558 L451.163,128.907 C451.163,127.558 450.07,126.465 448.721,126.465 L438.953,126.465 L441.388,128.712 L438.132,88.015 L436.79,90.393 Z M434.606,86.025 C433.715,86.47 433.184,87.412 433.264,88.404 L436.519,129.102 C436.621,130.371 437.68,131.349 438.953,131.349 L448.721,131.349 L446.279,128.907 L446.279,143.558 C446.279,144.907 447.372,146 448.721,146 L465,146 L481.279,146 C482.628,146 483.721,144.907 483.721,143.558 L483.721,128.907 L481.279,131.349 L491.047,131.349 C492.32,131.349 493.379,130.371 493.481,129.102 L496.736,88.404 C496.816,87.412 496.285,86.47 495.394,86.025 L475.859,76.258 C475.52,76.088 475.147,76 474.767,76 L455.233,76 C454.853,76 454.48,76.088 454.141,76.258 L434.606,86.025 Z" />
            <path d="M451.163,128.907 L451.163,104.488 C451.163,103.14 450.07,102.047 448.721,102.047 C447.372,102.047 446.279,103.14 446.279,104.488 L446.279,128.907 C446.279,130.256 447.372,131.349 448.721,131.349 C450.07,131.349 451.163,130.256 451.163,128.907 Z" />
            <path d="M483.721,128.907 L483.721,104.488 C483.721,103.14 482.628,102.047 481.279,102.047 C479.93,102.047 478.837,103.14 478.837,104.488 L478.837,128.907 C478.837,130.256 479.93,131.349 481.279,131.349 C482.628,131.349 483.721,130.256 483.721,128.907 Z" />
            <path d="M465,90.651 C471.743,90.651 477.209,85.185 477.209,78.442 C477.209,77.093 476.116,76 474.767,76 L455.233,76 C453.884,76 452.791,77.093 452.791,78.442 C452.791,85.185 458.257,90.651 465,90.651 Z M465,85.767 C460.954,85.767 457.674,82.488 457.674,78.442 L455.233,80.884 L474.767,80.884 L472.326,78.442 C472.326,82.488 469.046,85.767 465,85.767 Z" />
        </g>
        <g id="Black-S">
            <path d="M636.79,90.393 L656.325,80.626 L655.233,80.884 L674.767,80.884 L673.675,80.626 L693.21,90.393 L691.868,88.015 L688.612,128.712 L691.047,126.465 L681.279,126.465 C679.93,126.465 678.837,127.558 678.837,128.907 L678.837,143.558 L681.279,141.116 L665,141.116 L648.721,141.116 L651.163,143.558 L651.163,128.907 C651.163,127.558 650.07,126.465 648.721,126.465 L638.953,126.465 L641.388,128.712 L638.132,88.015 L636.79,90.393 Z M634.606,86.025 C633.715,86.47 633.184,87.412 633.264,88.404 L636.519,129.102 C636.621,130.371 637.68,131.349 638.953,131.349 L648.721,131.349 L646.279,128.907 L646.279,143.558 C646.279,144.907 647.372,146 648.721,146 L665,146 L681.279,146 C682.628,146 683.721,144.907 683.721,143.558 L683.721,128.907 L681.279,131.349 L691.047,131.349 C692.32,131.349 693.379,130.371 693.481,129.102 L696.736,88.404 C696.816,87.412 696.285,86.47 695.394,86.025 L675.859,76.258 C675.52,76.088 675.147,76 674.767,76 L655.233,76 C654.853,76 654.48,76.088 654.141,76.258 L634.606,86.025 Z" />
            <path d="M651.163,128.907 L651.163,104.488 C651.163,103.14 650.07,102.047 648.721,102.047 C647.372,102.047 646.279,103.14 646.279,104.488 L646.279,128.907 C646.279,130.256 647.372,131.349 648.721,131.349 C650.07,131.349 651.163,130.256 651.163,128.907 Z" />
            <path d="M683.721,128.907 L683.721,104.488 C683.721,103.14 682.628,102.047 681.279,102.047 C679.93,102.047 678.837,103.14 678.837,104.488 L678.837,128.907 C678.837,130.256 679.93,131.349 681.279,131.349 C682.628,131.349 683.721,130.256 683.721,128.907 Z" />
            <path d="M665,90.651 C671.743,90.651 677.209,85.185 677.209,78.442 C677.209,77.093 676.116,76 674.767,76 L655.233,76 C653.884,76 652.791,77.093 652.791,78.442 C652.791,85.185 658.257,90.651 665,90.651 Z M665,85.767 C660.954,85.767 657.674,82.488 657.674,78.442 L655.233,80.884 L674.767,80.884 L672.326,78.442 C672.326,82.488 669.046,85.767 665,85.767 Z" />
        </g>
    </g>
</svg>