<?xml version="1.0" encoding="UTF-8"?>
<svg height="600" width="800" xmlns="http://www.w3.org/2000/svg" xmlns:xlink="http://www.w3.org/1999/xlink">
    <g id="Notes" font-family="'LucidaGrande', 'Lucida Grande', sans-serif" font-size="13">
        <rect fill="white" height="600.0" width="800.0" x="0.0" y="0.0" />
        <g font-size="13">
            <text x="18.0" y="176.0">Small</text>
            <text x="18.0" y="376.0">Medium</text>
            <text x="18.0" y="576.0">Large</text>
        </g>
        <g font-size="9">
            <text x="250.0" y="30.0">Ultralight</text>
            <text x="450.0" y="30.0">Regular</text>
            <text x="650.0" y="30.0">Black</text>
            <text id="template-version" fill="#505050" text-anchor="end" x="785.0" y="575.0">Template v.3.0</text>
            <a href="https://github.com/swhitty/SwiftDraw">
                <text fill="#505050" text-anchor="end" x="785.0" y="590.0">https://github.com/swhitty/SwiftDraw</text>
            </a>
        </g>
    </g>
    <g id="Guides" stroke="rgb(39, 170, 225)" stroke-width="0.5">
        <path id="Capline-S" d="M18,76 l800,0" />
        <path id="H-reference" d="M85,145.755 L87.685,145.755 L113.369,79.287 L114.052,79.287 L114.052,76 L112.148,76 L85,145.755 Z M95.693,121.536 L130.996,121.536 L130.263,119.313 L96.474,119.313 L95.693,121.536 Z M139.15,145.755 L141.787,145.755 L114.638,76 L113.466,76 L113.466,79.287 L139.15,145.755 Z" stroke="none" />
        <path id="Baseline-S" d="M18,146 l800,0" />
        <path id="left-margin-Ultralight-S" d="M211,56 l0,110" />
        <path id="right-margin-Ultralight-S" d="M319,56 l0,110" />
        <path id="left-margin-Regular-S" d="M411,56 l0,110" />
        <path id="right-margin-Regular-S" d="M519,56 l0,110" />
        <path id="left-margin-Black-S" d="M611,56 l0,110" />
        <path id="right-margin-Black-S" d="M719,56 l0,110" />
        <path id="Capline-M" d="M18,276 l800,0" />
        <path id="Baseline-M" d="M18,346 l800,0" />
        <path id="Capline-L" d="M18,476 l800,0" />
        <path id="Baseline-L" d="M18,546 l800,0" />
    </g>
    <g id="Symbols">
        <g id="Ultralight-S">
            <path d="M265,84.171 L301.488,84.171 C301.772,84.171 302.045,84.284 302.247,84.485 C302.448,84.686 302.561,84.959 302.561,85.244 L302.561,128.171 C302.561,128.455 302.448,128.728 302.247,128.93 C302.045,129.131 301.772,129.244 301.488,129.244 L228.512,129.244 C228.228,129.244 227.955,129.131 227.753,128.93 C227.552,128.728 227.439,128.455 227.439,128.171 L227.439,85.244 C227.439,84.959 227.552,84.686 227.753,84.485 C227.955,84.284 228.228,84.171 228.512,84.171 L265,84.171 Z M265,77.732 L228.512,77.732 C226.52,77.732 224.609,78.523 223.2,79.932 C221.791,81.341 221,83.252 221,85.244 L221,128.171 C221,130.163 221.791,132.074 223.2,133.483 C224.609,134.891 226.52,135.683 228.512,135.683 L301.488,135.683 C303.48,135.683 305.391,134.891 306.8,133.483 C308.209,132.074 309,130.163 309,128.171 L309,85.244 C309,83.252 308.209,81.341 306.8,79.932 C305.391,78.523 303.48,77.732 301.488,77.732 L265,77.732 Z" />
            <path d="M256.415,103.488 L265,103.488 C266.778,103.488 268.22,102.046 268.22,100.268 C268.22,98.49 266.778,97.049 265,97.049 L256.415,97.049 C254.637,97.049 253.195,98.49 253.195,100.268 C253.195,102.046 254.637,103.488 256.415,103.488 Z" />
            <path d="M241.39,116.366 L288.61,116.366 C290.388,116.366 291.829,114.924 291.829,113.146 C291.829,111.368 290.388,109.927 288.61,109.927 L241.39,109.927 C239.612,109.927 238.171,111.368 238.171,113.146 C238.171,114.924 239.612,116.366 241.39,116.366 Z" />
            <path d="M236.024,132.463 L236.024,141.049 C236.024,142.827 237.466,144.268 239.244,144.268 C241.022,144.268 242.463,142.827 242.463,141.049 L242.463,132.463 C242.463,130.685 241.022,129.244 239.244,129.244 C237.466,129.244 236.024,130.685 236.024,132.463 Z" />
            <path d="M253.195,132.463 L253.195,141.049 C253.195,142.827 254.637,144.268 256.415,144.268 C258.193,144.268 259.634,142.827 259.634,141.049 L259.634,132.463 C259.634,130.685 258.193,129.244 256.415,129.244 C254.637,129.244 253.195,130.685 253.195,132.463 Z" />
            <path d="M270.366,132.463 L270.366,141.049 C270.366,142.827 271.807,144.268 273.585,144.268 C275.363,144.268 276.805,142.827 276.805,141.049 L276.805,132.463 C276.805,130.685 275.363,129.244 273.585,129.244 C271.807,129.244 270.366,130.685 270.366,132.463 Z" />
            <path d="M287.537,132.463 L287.537,141.049 C287.537,142.827 288.978,144.268 290.756,144.268 C292.534,144.268 293.976,142.827 293.976,141.049 L293.976,132.463 C293.976,130.685 292.534,129.244 290.756,129.244 C288.978,129.244 287.537,130.685 287.537,132.463 Z" />
            <path d="M245.683,100.268 C245.683,102.639 243.761,104.561 241.39,104.561 C239.019,104.561 237.098,102.639 237.098,100.268 C237.098,97.897 239.019,95.976 241.39,95.976 C243.761,95.976 245.683,97.897 245.683,100.268 Z" />
        </g>
        <g id="Regular-S">
            <path d="M465,84.171 L501.488,84.171 C501.772,84.171 502.045,84.284 502.247,84.485 C502.448,84.686 502.561,84.959 502.561,85.244 L502.561,128.171 C502.561,128.455 502.448,128.728 502.247,128.93 C502.045,129.131 501.772,129.244 501.488,129.244 L428.512,129.244 C428.228,129.244 427.955,129.131 427.753,128.93 C427.552,128.728 427.439,128.455 427.439,128.171 L427.439,85.244 C427.439,84.959 427.552,84.686 427.753,84.485 C427.955,84.284 428.228,84.171 428.512,84.171 L465,84.171 Z M465,77.732 L428.512,77.732 C426.52,77.732 424.609,78.523 423.2,79.932 C421.791,81.341 421,83.252 421,85.244 L421,128.171 C421,130.163 421.791,132.074 423.2,133.483 C424.609,134.891 426.52,135.683 428.512,135.683 L501.488,135.683 C503.48,135.683 505.391,134.891 506.8,133.483 C508.209,132.074 509,130.163 509,128.171 L509,85.244 C509,83.252 508.209,81.341 506.8,79.932 C505.391,78.523 503.48,77.732 501.488,77.732 L465,77.732 Z" />
            <path d="M456.415,103.488 L465,103.488 C466.778,103.488 468.22,102.046 468.22,100.268 C468.22,98.49 466.778,97.049 465,97.049 L456.415,97.049 C454.637,97.049 453.195,98.49 453.195,100.268 C453.195,102.046 454.637,103.488 456.415,103.488 Z" />
            <path d="M441.39,116.366 L488.61,116.366 C490.388,116.366 491.829,114.924 491.829,113.146 C491.829,111.368 490.388,109.927 488.61,109.927 L441.39,109.927 C439.612,109.927 438.171,111.368 438.171,113.146 C438.171,114.924 439.612,116.366 441.39,116.366 Z" />
            <path d="M436.024,132.463 L436.024,141.049 C436.024,142.827 437.466,144.268 439.244,144.268 C441.022,144.268 442.463,142.827 442.463,141.049 L442.463,132.463 C442.463,130.685 441.022,129.244 439.244,129.244 C437.466,129.244 436.024,130.685 436.024,132.463 Z" />
            <path d="M453.195,132.463 L453.195,141.049 C453.195,142.827 454.637,144.268 456.415,144.268 C458.193,144.268 459.634,142.827 459.634,141.049 L459.634,132.463 C459.634,130.685 458.193,129.244 456.415,129.244 C454.637,129.244 453.195,130.685 453.195,132.463 Z" />
            <path d="M470.366,132.463 L470.366,141.049 C470.366,142.827 471.807,144.268 473.585,144.268 C475.363,144.268 476.805,142.827 476.805,141.049 L476.805,132.463 C476.805,130.685 475.363,129.244 473.585,129.244 C471.807,129.244 470.366,130.685 470.366,132.463 Z" />
            <path d="M487.537,132.463 L487.537,141.049 C487.537,142.827 488.978,144.268 490.756,144.268 C492.534,144.268 493.976,142.827 493.976,141.049 L493.976,132.463 C493.976,130.685 492.534,129.244 490.756,129.244 C488.978,129.244 487.537,130.685 487.537,132.463 Z" />
            <path d="M445.683,100.268 C445.683,102.639 443.761,104.561 441.39,104.561 C439.019,104.561 437.098,102.639 437.098,100.268 C437.098,97.897 439.019,95.976 441.39,95.976 C443.761,95.976 445.683,97.897 445.683,100.268 Z" />
        </g>
        <g id="Black-S">
            <path d="M665,84.171 L701.488,84.171 C701.772,84.171 702.045,84.284 702.247,84.485 C702.448,84.686 702.561,84.959 702.561,85.244 L702.561,128.171 C702.561,128.455 702.448,128.728 702.247,128.93 C702.045,129.131 701.772,129.244 701.488,129.244 L628.512,129.244 C628.228,129.244 627.955,129.131 627.753,128.93 C627.552,128.728 627.439,128.455 627.439,128.171 L627.439,85.244 C627.439,84.959 627.552,84.686 627.753,84.485 C627.955,84.284 628.228,84.171 628.512,84.171 L665,84.171 Z M665,77.732 L628.512,77.732 C626.52,77.732 624.609,78.523 623.2,79.932 C621.791,81.341 621,83.252 621,85.244 L621,128.171 C621,130.163 621.791,132.074 623.2,133.483 C624.609,134.891 626.52,135.683 628.512,135.683 L701.488,135.683 C703.48,135.683 705.391,134.891 706.8,133.483 C708.208,132.074 709,130.163 709,128.171 L709,85.244 C709,83.252 708.208,81.341 706.8,79.932 C705.391,78.523 703.48,77.732 701.488,77.732 L665,77.732 Z" />
            <path d="M656.415,103.488 L665,103.488 C666.778,103.488 668.219,102.046 668.219,100.268 C668.219,98.49 666.778,97.049 665,97.049 L656.415,97.049 C654.637,97.049 653.195,98.49 653.195,100.268 C653.195,102.046 654.637,103.488 656.415,103.488 Z" />
            <path d="M641.39,116.366 L688.61,116.366 C690.388,116.366 691.829,114.924 691.829,113.146 C691.829,111.368 690.388,109.927 688.61,109.927 L641.39,109.927 C639.612,109.927 638.171,111.368 638.171,113.146 C638.171,114.924 639.612,116.366 641.39,116.366 Z" />
            <path d="M636.024,132.463 L636.024,141.049 C636.024,142.827 637.466,144.268 639.244,144.268 C641.022,144.268 642.463,142.827 642.463,141.049 L642.463,132.463 C642.463,130.685 641.022,129.244 639.244,129.244 C637.466,129.244 636.024,130.685 636.024,132.463 Z" />
            <path d="M653.195,132.463 L653.195,141.049 C653.195,142.827 654.637,144.268 656.415,144.268 C658.193,144.268 659.634,142.827 659.634,141.049 L659.634,132.463 C659.634,130.685 658.193,129.244 656.415,129.244 C654.637,129.244 653.195,130.685 653.195,132.463 Z" />
            <path d="M670.366,132.463 L670.366,141.049 C670.366,142.827 671.807,144.268 673.585,144.268 C675.363,144.268 676.805,142.827 676.805,141.049 L676.805,132.463 C676.805,130.685 675.363,129.244 673.585,129.244 C671.807,129.244 670.366,130.685 670.366,132.463 Z" />
            <path d="M687.537,132.463 L687.537,141.049 C687.537,142.827 688.978,144.268 690.756,144.268 C692.534,144.268 693.976,142.827 693.976,141.049 L693.976,132.463 C693.976,130.685 692.534,129.244 690.756,129.244 C688.978,129.244 687.537,130.685 687.537,132.463 Z" />
            <path d="M645.683,100.268 C645.683,102.639 643.761,104.561 641.39,104.561 C639.019,104.561 637.098,102.639 637.098,100.268 C637.098,97.897 639.019,95.976 641.39,95.976 C643.761,95.976 645.683,97.897 645.683,100.268 Z" />
        </g>
    </g>
</svg>