<?xml version="1.0" encoding="UTF-8"?>
<svg height="600" width="800" xmlns="http://www.w3.org/2000/svg" xmlns:xlink="http://www.w3.org/1999/xlink">
    <g id="Notes" font-family="'LucidaGrande', 'Lucida Grande', sans-serif" font-size="13">
        <rect fill="white" height="600.0" width="800.0" x="0.0" y="0.0" />
        <g font-size="13">
            <text x="18.0" y="176.0">Small</text>
            <text x="18.0" y="376.0">Medium</text>
            <text x="18.0" y="576.0">Large</text>
        </g>
        <g font-size="9">
            <text x="250.0" y="30.0">Ultralight</text>
            <text x="450.0" y="30.0">Regular</text>
            <text x="650.0" y="30.0">Black</text>
            <text id="template-version" fill="#505050" text-anchor="end" x="785.0" y="575.0">Template v.3.0</text>
            <a href="https://github.com/swhitty/SwiftDraw">
                <text fill="#505050" text-anchor="end" x="785.0" y="590.0">https://github.com/swhitty/SwiftDraw</text>
            </a>
        </g>
    </g>
    <g id="Guides" stroke="rgb(39, 170, 225)" stroke-width="0.5">
        <path id="Capline-S" d="M18,76 l800,0" />
        <path id="H-reference" d="M85,145.755 L87.685,145.755 L113.369,79.287 L114.052,79.287 L114.052,76 L112.148,76 L85,145.755 Z M95.693,121.536 L130.996,121.536 L130.263,119.313 L96.474,119.313 L95.693,121.536 Z M139.15,145.755 L141.787,145.755 L114.638,76 L113.466,76 L113.466,79.287 L139.15,145.755 Z" stroke="none" />
        <path id="Baseline-S" d="M18,146 l800,0" />
        <path id="left-margin-Ultralight-S" d="M221,56 l0,110" />
        <path id="right-margin-Ultralight-S" d="M309,56 l0,110" />
        <path id="left-margin-Regular-S" d="M421,56 l0,110" />
        <path id="right-margin-Regular-S" d="M509,56 l0,110" />
        <path id="left-margin-Black-S" d="M621,56 l0,110" />
        <path id="right-margin-Black-S" d="M709,56 l0,110" />
        <path id="Capline-M" d="M18,276 l800,0" />
        <path id="Baseline-M" d="M18,346 l800,0" />
        <path id="Capline-L" d="M18,476 l800,0" />
        <path id="Baseline-L" d="M18,546 l800,0" />
    </g>
    <g id="Symbols">
        <g id="Ultralight-S">
            <path d="M241.395,104.488 C241.395,91.452 251.964,80.884 265,80.884 C278.036,80.884 288.605,91.452 288.605,104.488 C288.605,117.525 278.036,128.093 265,128.093 C251.964,128.093 241.395,117.525 241.395,104.488 Z M236.512,104.488 C236.512,120.222 249.266,132.977 265,132.977 C280.734,132.977 293.488,120.222 293.488,104.488 C293.488,88.755 280.734,76 265,76 C249.266,76 236.512,88.755 236.512,104.488 Z" />
            <path d="M262.558,130.535 L262.558,143.558 C262.558,144.907 263.651,146 265,146 C266.349,146 267.442,144.907 267.442,143.558 L267.442,130.535 C267.442,129.186 266.349,128.093 265,128.093 C263.651,128.093 262.558,129.186 262.558,130.535 Z" />
            <path d="M248.721,146 L281.279,146 C282.628,146 283.721,144.907 283.721,143.558 C283.721,142.21 282.628,141.116 281.279,141.116 L248.721,141.116 C247.372,141.116 246.279,142.21 246.279,143.558 C246.279,144.907 247.372,146 248.721,146 Z" />
        </g>
        <g id="Regular-S">
            <path d="M441.395,104.488 C441.395,91.452 451.964,80.884 465,80.884 C478.036,80.884 488.605,91.452 488.605,104.488 C488.605,117.525 478.036,128.093 465,128.093 C451.964,128.093 441.395,117.525 441.395,104.488 Z M436.512,104.488 C436.512,120.222 449.266,132.977 465,132.977 C480.734,132.977 493.488,120.222 493.488,104.488 C493.488,88.755 480.734,76 465,76 C449.266,76 436.512,88.755 436.512,104.488 Z" />
            <path d="M462.558,130.535 L462.558,143.558 C462.558,144.907 463.651,146 465,146 C466.349,146 467.442,144.907 467.442,143.558 L467.442,130.535 C467.442,129.186 466.349,128.093 465,128.093 C463.651,128.093 462.558,129.186 462.558,130.535 Z" />
            <path d="M448.721,146 L481.279,146 C482.628,146 483.721,144.907 483.721,143.558 C483.721,142.21 482.628,141.116 481.279,141.116 L448.721,141.116 C447.372,141.116 446.279,142.21 446.279,143.558 C446.279,144.907 447.372,146 448.721,146 Z" />
        </g>
        <g id="Black-S">
            <path d="M641.395,104.488 C641.395,91.452 651.964,80.884 665,80.884 C678.036,80.884 688.605,91.452 688.605,104.488 C688.605,117.525 678.036,128.093 665,128.093 C651.964,128.093 641.395,117.525 641.395,104.488 Z M636.512,104.488 C636.512,120.222 649.266,132.977 665,132.977 C680.734,132.977 693.488,120.222 693.488,104.488 C693.488,88.755 680.734,76 665,76 C649.266,76 636.512,88.755 636.512,104.488 Z" />
            <path d="M662.558,130.535 L662.558,143.558 C662.558,144.907 663.651,146 665,146 C666.349,146 667.442,144.907 667.442,143.558 L667.442,130.535 C667.442,129.186 666.349,128.093 665,128.093 C663.651,128.093 662.558,129.186 662.558,130.535 Z" />
            <path d="M648.721,146 L681.279,146 C682.628,146 683.721,144.907 683.721,143.558 C683.721,142.21 682.628,141.116 681.279,141.116 L648.721,141.116 C647.372,141.116 646.279,142.21 646.279,143.558 C646.279,144.907 647.372,146 648.721,146 Z" />
        </g>
    </g>
</svg>