<?xml version="1.0" encoding="UTF-8"?>
<svg height="600" width="800" xmlns="http://www.w3.org/2000/svg" xmlns:xlink="http://www.w3.org/1999/xlink">
    <g id="Notes" font-family="'LucidaGrande', 'Lucida Grande', sans-serif" font-size="13">
        <rect fill="white" height="600.0" width="800.0" x="0.0" y="0.0" />
        <g font-size="13">
            <text x="18.0" y="176.0">Small</text>
            <text x="18.0" y="376.0">Medium</text>
            <text x="18.0" y="576.0">Large</text>
        </g>
        <g font-size="9">
            <text x="250.0" y="30.0">Ultralight</text>
            <text x="450.0" y="30.0">Regular</text>
            <text x="650.0" y="30.0">Black</text>
            <text id="template-version" fill="#505050" text-anchor="end" x="785.0" y="575.0">Template v.3.0</text>
            <a href="https://github.com/swhitty/SwiftDraw">
                <text fill="#505050" text-anchor="end" x="785.0" y="590.0">https://github.com/swhitty/SwiftDraw</text>
            </a>
        </g>
    </g>
    <g id="Guides" stroke="rgb(39, 170, 225)" stroke-width="0.5">
        <path id="Capline-S" d="M18,76 l800,0" />
        <path id="H-reference" d="M85,145.755 L87.685,145.755 L113.369,79.287 L114.052,79.287 L114.052,76 L112.148,76 L85,145.755 Z M95.693,121.536 L130.996,121.536 L130.263,119.313 L96.474,119.313 L95.693,121.536 Z M139.15,145.755 L141.787,145.755 L114.638,76 L113.466,76 L113.466,79.287 L139.15,145.755 Z" stroke="none" />
        <path id="Baseline-S" d="M18,146 l800,0" />
        <path id="left-margin-Ultralight-S" d="M211,56 l0,110" />
        <path id="right-margin-Ultralight-S" d="M319,56 l0,110" />
        <path id="left-margin-Regular-S" d="M411,56 l0,110" />
        <path id="right-margin-Regular-S" d="M519,56 l0,110" />
        <path id="left-margin-Black-S" d="M611,56 l0,110" />
        <path id="right-margin-Black-S" d="M719,56 l0,110" />
        <path id="Capline-M" d="M18,276 l800,0" />
        <path id="Baseline-M" d="M18,346 l800,0" />
        <path id="Capline-L" d="M18,476 l800,0" />
        <path id="Baseline-L" d="M18,546 l800,0" />
    </g>
    <g id="Symbols">
        <g id="Ultralight-S">
            <path d="M249.976,83.724 L278.624,141.021 L281.37,136.579 L224.073,136.579 L226.819,141.021 L255.467,83.724 L249.976,83.724 Z M255.467,80.979 C254.336,78.717 251.107,78.717 249.976,80.979 L221.328,138.276 C220.308,140.316 221.792,142.718 224.073,142.718 L281.37,142.718 C283.652,142.718 285.136,140.316 284.115,138.276 L255.467,80.979 Z" />
            <path d="M275.574,123.159 L287.129,108.835 L282.163,108.575 L303.348,141.316 L305.926,136.579 L281.37,136.579 C279.675,136.579 278.3,137.953 278.3,139.648 C278.3,141.343 279.675,142.718 281.37,142.718 L305.926,142.718 C308.358,142.718 309.824,140.023 308.503,137.981 L287.317,105.24 C286.182,103.485 283.664,103.354 282.351,104.98 L270.796,119.304 C269.731,120.624 269.938,122.556 271.257,123.62 C272.577,124.685 274.509,124.478 275.574,123.159 Z" />
            <path d="M240.444,109.977 L264.999,109.977 C266.695,109.977 268.069,108.603 268.069,106.907 C268.069,105.212 266.695,103.838 264.999,103.838 L240.444,103.838 C238.749,103.838 237.374,105.212 237.374,106.907 C237.374,108.603 238.749,109.977 240.444,109.977 Z" />
            <path d="M241.791,97.349 L233.606,113.72 C232.848,115.236 233.462,117.08 234.979,117.838 C236.495,118.596 238.339,117.982 239.097,116.465 L247.282,100.095 C248.04,98.579 247.425,96.735 245.909,95.977 C244.393,95.219 242.549,95.833 241.791,97.349 Z" />
            <path d="M258.161,100.095 L266.347,116.465 C267.105,117.982 268.949,118.596 270.465,117.838 C271.981,117.08 272.596,115.236 271.837,113.72 L263.652,97.349 C262.894,95.833 261.05,95.219 259.534,95.977 C258.018,96.735 257.403,98.579 258.161,100.095 Z" />
        </g>
        <g id="Regular-S">
            <path d="M449.976,83.724 L478.624,141.021 L481.37,136.579 L424.073,136.579 L426.819,141.021 L455.467,83.724 L449.976,83.724 Z M455.467,80.979 C454.336,78.717 451.107,78.717 449.976,80.979 L421.328,138.276 C420.308,140.316 421.792,142.718 424.073,142.718 L481.37,142.718 C483.652,142.718 485.136,140.316 484.115,138.276 L455.467,80.979 Z" />
            <path d="M475.574,123.159 L487.129,108.835 L482.163,108.575 L503.348,141.316 L505.926,136.579 L481.37,136.579 C479.675,136.579 478.3,137.953 478.3,139.648 C478.3,141.343 479.675,142.718 481.37,142.718 L505.926,142.718 C508.358,142.718 509.824,140.023 508.503,137.981 L487.317,105.24 C486.182,103.485 483.664,103.354 482.351,104.98 L470.796,119.304 C469.731,120.624 469.938,122.556 471.257,123.62 C472.577,124.685 474.509,124.478 475.574,123.159 Z" />
            <path d="M440.444,109.977 L464.999,109.977 C466.695,109.977 468.069,108.603 468.069,106.907 C468.069,105.212 466.695,103.838 464.999,103.838 L440.444,103.838 C438.749,103.838 437.374,105.212 437.374,106.907 C437.374,108.603 438.749,109.977 440.444,109.977 Z" />
            <path d="M441.791,97.349 L433.606,113.72 C432.848,115.236 433.462,117.08 434.979,117.838 C436.495,118.596 438.339,117.982 439.097,116.465 L447.282,100.095 C448.04,98.579 447.425,96.735 445.909,95.977 C444.393,95.219 442.549,95.833 441.791,97.349 Z" />
            <path d="M458.161,100.095 L466.347,116.465 C467.105,117.982 468.949,118.596 470.465,117.838 C471.981,117.08 472.596,115.236 471.837,113.72 L463.652,97.349 C462.894,95.833 461.05,95.219 459.534,95.977 C458.018,96.735 457.403,98.579 458.161,100.095 Z" />
        </g>
        <g id="Black-S">
            <path d="M649.976,83.724 L678.624,141.021 L681.37,136.579 L624.073,136.579 L626.819,141.021 L655.467,83.724 L649.976,83.724 Z M655.467,80.979 C654.336,78.717 651.107,78.717 649.976,80.979 L621.328,138.276 C620.308,140.316 621.792,142.718 624.073,142.718 L681.37,142.718 C683.652,142.718 685.136,140.316 684.115,138.276 L655.467,80.979 Z" />
            <path d="M675.574,123.159 L687.129,108.835 L682.163,108.575 L703.348,141.316 L705.925,136.579 L681.37,136.579 C679.675,136.579 678.3,137.953 678.3,139.648 C678.3,141.343 679.675,142.718 681.37,142.718 L705.925,142.718 C708.358,142.718 709.824,140.023 708.503,137.981 L687.317,105.24 C686.182,103.485 683.664,103.354 682.351,104.98 L670.796,119.304 C669.731,120.624 669.938,122.556 671.257,123.62 C672.577,124.685 674.509,124.478 675.574,123.159 Z" />
            <path d="M640.444,109.977 L664.999,109.977 C666.695,109.977 668.069,108.603 668.069,106.907 C668.069,105.212 666.695,103.838 664.999,103.838 L640.444,103.838 C638.749,103.838 637.374,105.212 637.374,106.907 C637.374,108.603 638.749,109.977 640.444,109.977 Z" />
            <path d="M641.791,97.349 L633.606,113.72 C632.848,115.236 633.462,117.08 634.979,117.838 C636.495,118.596 638.339,117.982 639.097,116.465 L647.282,100.095 C648.04,98.579 647.425,96.735 645.909,95.977 C644.393,95.219 642.549,95.833 641.791,97.349 Z" />
            <path d="M658.161,100.095 L666.347,116.465 C667.105,117.982 668.948,118.596 670.465,117.838 C671.981,117.08 672.596,115.236 671.837,113.72 L663.652,97.349 C662.894,95.833 661.05,95.219 659.534,95.977 C658.018,96.735 657.403,98.579 658.161,100.095 Z" />
        </g>
    </g>
</svg>