<?xml version="1.0" encoding="UTF-8"?>
<svg height="600" width="800" xmlns="http://www.w3.org/2000/svg" xmlns:xlink="http://www.w3.org/1999/xlink">
    <g id="Notes" font-family="'LucidaGrande', 'Lucida Grande', sans-serif" font-size="13">
        <rect fill="white" height="600.0" width="800.0" x="0.0" y="0.0" />
        <g font-size="13">
            <text x="18.0" y="176.0">Small</text>
            <text x="18.0" y="376.0">Medium</text>
            <text x="18.0" y="576.0">Large</text>
        </g>
        <g font-size="9">
            <text x="250.0" y="30.0">Ultralight</text>
            <text x="450.0" y="30.0">Regular</text>
            <text x="650.0" y="30.0">Black</text>
            <text id="template-version" fill="#505050" text-anchor="end" x="785.0" y="575.0">Template v.3.0</text>
            <a href="https://github.com/swhitty/SwiftDraw">
                <text fill="#505050" text-anchor="end" x="785.0" y="590.0">https://github.com/swhitty/SwiftDraw</text>
            </a>
        </g>
    </g>
    <g id="Guides" stroke="rgb(39, 170, 225)" stroke-width="0.5">
        <path id="Capline-S" d="M18,76 l800,0" />
        <path id="H-reference" d="M85,145.755 L87.685,145.755 L113.369,79.287 L114.052,79.287 L114.052,76 L112.148,76 L85,145.755 Z M95.693,121.536 L130.996,121.536 L130.263,119.313 L96.474,119.313 L95.693,121.536 Z M139.15,145.755 L141.787,145.755 L114.638,76 L113.466,76 L113.466,79.287 L139.15,145.755 Z" stroke="none" />
        <path id="Baseline-S" d="M18,146 l800,0" />
        <path id="left-margin-Ultralight-S" d="M220,56 l0,110" />
        <path id="right-margin-Ultralight-S" d="M310,56 l0,110" />
        <path id="left-margin-Regular-S" d="M420,56 l0,110" />
        <path id="right-margin-Regular-S" d="M510,56 l0,110" />
        <path id="left-margin-Black-S" d="M620,56 l0,110" />
        <path id="right-margin-Black-S" d="M710,56 l0,110" />
        <path id="Capline-M" d="M18,276 l800,0" />
        <path id="Baseline-M" d="M18,346 l800,0" />
        <path id="Capline-L" d="M18,476 l800,0" />
        <path id="Baseline-L" d="M18,546 l800,0" />
    </g>
    <g id="Symbols">
        <g id="Ultralight-S">
            <path d="M265,146 C284.33,146 300,130.33 300,111 C300,91.67 284.33,76 265,76 C245.67,76 230,91.67 230,111 C230,130.33 245.67,146 265,146 Z M265,141.116 C248.367,141.116 234.884,127.633 234.884,111 C234.884,94.367 248.367,80.884 265,80.884 C281.633,80.884 295.116,94.367 295.116,111 C295.116,127.633 281.633,141.116 265,141.116 Z" />
            <path d="M265,103.674 C269.046,103.674 272.326,100.395 272.326,96.349 C272.326,92.303 269.046,89.023 265,89.023 C260.954,89.023 257.674,92.303 257.674,96.349 C257.674,100.395 260.954,103.674 265,103.674 Z M265,98.791 C263.651,98.791 262.558,97.698 262.558,96.349 C262.558,95 263.651,93.907 265,93.907 C266.349,93.907 267.442,95 267.442,96.349 C267.442,97.698 266.349,98.791 265,98.791 Z" />
            <path d="M265,132.977 C269.046,132.977 272.326,129.697 272.326,125.651 C272.326,121.605 269.046,118.326 265,118.326 C260.954,118.326 257.674,121.605 257.674,125.651 C257.674,129.697 260.954,132.977 265,132.977 Z M265,128.093 C263.651,128.093 262.558,127 262.558,125.651 C262.558,124.302 263.651,123.209 265,123.209 C266.349,123.209 267.442,124.302 267.442,125.651 C267.442,127 266.349,128.093 265,128.093 Z" />
            <path d="M250.349,118.326 C254.395,118.326 257.674,115.046 257.674,111 C257.674,106.954 254.395,103.674 250.349,103.674 C246.303,103.674 243.023,106.954 243.023,111 C243.023,115.046 246.303,118.326 250.349,118.326 Z M250.349,113.442 C249,113.442 247.907,112.349 247.907,111 C247.907,109.651 249,108.558 250.349,108.558 C251.698,108.558 252.791,109.651 252.791,111 C252.791,112.349 251.698,113.442 250.349,113.442 Z" />
            <path d="M279.651,118.326 C283.697,118.326 286.977,115.046 286.977,111 C286.977,106.954 283.697,103.674 279.651,103.674 C275.605,103.674 272.326,106.954 272.326,111 C272.326,115.046 275.605,118.326 279.651,118.326 Z M279.651,113.442 C278.302,113.442 277.209,112.349 277.209,111 C277.209,109.651 278.302,108.558 279.651,108.558 C281,108.558 282.093,109.651 282.093,111 C282.093,112.349 281,113.442 279.651,113.442 Z" />
            <path d="M265,146 L297.558,146 C298.907,146 300,144.907 300,143.558 C300,142.21 298.907,141.116 297.558,141.116 L265,141.116 C263.651,141.116 262.558,142.21 262.558,143.558 C262.558,144.907 263.651,146 265,146 Z" />
        </g>
        <g id="Regular-S">
            <path d="M465,146 C484.33,146 500,130.33 500,111 C500,91.67 484.33,76 465,76 C445.67,76 430,91.67 430,111 C430,130.33 445.67,146 465,146 Z M465,141.116 C448.367,141.116 434.884,127.633 434.884,111 C434.884,94.367 448.367,80.884 465,80.884 C481.633,80.884 495.116,94.367 495.116,111 C495.116,127.633 481.633,141.116 465,141.116 Z" />
            <path d="M465,103.674 C469.046,103.674 472.326,100.395 472.326,96.349 C472.326,92.303 469.046,89.023 465,89.023 C460.954,89.023 457.674,92.303 457.674,96.349 C457.674,100.395 460.954,103.674 465,103.674 Z M465,98.791 C463.651,98.791 462.558,97.698 462.558,96.349 C462.558,95 463.651,93.907 465,93.907 C466.349,93.907 467.442,95 467.442,96.349 C467.442,97.698 466.349,98.791 465,98.791 Z" />
            <path d="M465,132.977 C469.046,132.977 472.326,129.697 472.326,125.651 C472.326,121.605 469.046,118.326 465,118.326 C460.954,118.326 457.674,121.605 457.674,125.651 C457.674,129.697 460.954,132.977 465,132.977 Z M465,128.093 C463.651,128.093 462.558,127 462.558,125.651 C462.558,124.302 463.651,123.209 465,123.209 C466.349,123.209 467.442,124.302 467.442,125.651 C467.442,127 466.349,128.093 465,128.093 Z" />
            <path d="M450.349,118.326 C454.395,118.326 457.674,115.046 457.674,111 C457.674,106.954 454.395,103.674 450.349,103.674 C446.303,103.674 443.023,106.954 443.023,111 C443.023,115.046 446.303,118.326 450.349,118.326 Z M450.349,113.442 C449,113.442 447.907,112.349 447.907,111 C447.907,109.651 449,108.558 450.349,108.558 C451.698,108.558 452.791,109.651 452.791,111 C452.791,112.349 451.698,113.442 450.349,113.442 Z" />
            <path d="M479.651,118.326 C483.697,118.326 486.977,115.046 486.977,111 C486.977,106.954 483.697,103.674 479.651,103.674 C475.605,103.674 472.326,106.954 472.326,111 C472.326,115.046 475.605,118.326 479.651,118.326 Z M479.651,113.442 C478.302,113.442 477.209,112.349 477.209,111 C477.209,109.651 478.302,108.558 479.651,108.558 C481,108.558 482.093,109.651 482.093,111 C482.093,112.349 481,113.442 479.651,113.442 Z" />
            <path d="M465,146 L497.558,146 C498.907,146 500,144.907 500,143.558 C500,142.21 498.907,141.116 497.558,141.116 L465,141.116 C463.651,141.116 462.558,142.21 462.558,143.558 C462.558,144.907 463.651,146 465,146 Z" />
        </g>
        <g id="Black-S">
            <path d="M665,146 C684.33,146 700,130.33 700,111 C700,91.67 684.33,76 665,76 C645.67,76 630,91.67 630,111 C630,130.33 645.67,146 665,146 Z M665,141.116 C648.367,141.116 634.884,127.633 634.884,111 C634.884,94.367 648.367,80.884 665,80.884 C681.633,80.884 695.116,94.367 695.116,111 C695.116,127.633 681.633,141.116 665,141.116 Z" />
            <path d="M665,103.674 C669.046,103.674 672.326,100.395 672.326,96.349 C672.326,92.303 669.046,89.023 665,89.023 C660.954,89.023 657.674,92.303 657.674,96.349 C657.674,100.395 660.954,103.674 665,103.674 Z M665,98.791 C663.651,98.791 662.558,97.698 662.558,96.349 C662.558,95 663.651,93.907 665,93.907 C666.349,93.907 667.442,95 667.442,96.349 C667.442,97.698 666.349,98.791 665,98.791 Z" />
            <path d="M665,132.977 C669.046,132.977 672.326,129.697 672.326,125.651 C672.326,121.605 669.046,118.326 665,118.326 C660.954,118.326 657.674,121.605 657.674,125.651 C657.674,129.697 660.954,132.977 665,132.977 Z M665,128.093 C663.651,128.093 662.558,127 662.558,125.651 C662.558,124.302 663.651,123.209 665,123.209 C666.349,123.209 667.442,124.302 667.442,125.651 C667.442,127 666.349,128.093 665,128.093 Z" />
            <path d="M650.349,118.326 C654.395,118.326 657.674,115.046 657.674,111 C657.674,106.954 654.395,103.674 650.349,103.674 C646.303,103.674 643.023,106.954 643.023,111 C643.023,115.046 646.303,118.326 650.349,118.326 Z M650.349,113.442 C649,113.442 647.907,112.349 647.907,111 C647.907,109.651 649,108.558 650.349,108.558 C651.698,108.558 652.791,109.651 652.791,111 C652.791,112.349 651.698,113.442 650.349,113.442 Z" />
            <path d="M679.651,118.326 C683.697,118.326 686.977,115.046 686.977,111 C686.977,106.954 683.697,103.674 679.651,103.674 C675.605,103.674 672.326,106.954 672.326,111 C672.326,115.046 675.605,118.326 679.651,118.326 Z M679.651,113.442 C678.302,113.442 677.209,112.349 677.209,111 C677.209,109.651 678.302,108.558 679.651,108.558 C681,108.558 682.093,109.651 682.093,111 C682.093,112.349 681,113.442 679.651,113.442 Z" />
            <path d="M665,146 L697.558,146 C698.907,146 700,144.907 700,143.558 C700,142.21 698.907,141.116 697.558,141.116 L665,141.116 C663.651,141.116 662.558,142.21 662.558,143.558 C662.558,144.907 663.651,146 665,146 Z" />
        </g>
    </g>
</svg>