<?xml version="1.0" encoding="UTF-8"?>
<svg height="600" width="800" xmlns="http://www.w3.org/2000/svg" xmlns:xlink="http://www.w3.org/1999/xlink">
    <g id="Notes" font-family="'LucidaGrande', 'Lucida Grande', sans-serif" font-size="13">
        <rect fill="white" height="600.0" width="800.0" x="0.0" y="0.0" />
        <g font-size="13">
            <text x="18.0" y="176.0">Small</text>
            <text x="18.0" y="376.0">Medium</text>
            <text x="18.0" y="576.0">Large</text>
        </g>
        <g font-size="9">
            <text x="250.0" y="30.0">Ultralight</text>
            <text x="450.0" y="30.0">Regular</text>
            <text x="650.0" y="30.0">Black</text>
            <text id="template-version" fill="#505050" text-anchor="end" x="785.0" y="575.0">Template v.3.0</text>
            <a href="https://github.com/swhitty/SwiftDraw">
                <text fill="#505050" text-anchor="end" x="785.0" y="590.0">https://github.com/swhitty/SwiftDraw</text>
            </a>
        </g>
    </g>
    <g id="Guides" stroke="rgb(39, 170, 225)" stroke-width="0.5">
        <path id="Capline-S" d="M18,76 l800,0" />
        <path id="H-reference" d="M85,145.755 L87.685,145.755 L113.369,79.287 L114.052,79.287 L114.052,76 L112.148,76 L85,145.755 Z M95.693,121.536 L130.996,121.536 L130.263,119.313 L96.474,119.313 L95.693,121.536 Z M139.15,145.755 L141.787,145.755 L114.638,76 L113.466,76 L113.466,79.287 L139.15,145.755 Z" stroke="none" />
        <path id="Baseline-S" d="M18,146 l800,0" />
        <path id="left-margin-Ultralight-S" d="M215.487,56 l0,110" />
        <path id="right-margin-Ultralight-S" d="M314.513,56 l0,110" />
        <path id="left-margin-Regular-S" d="M415.487,56 l0,110" />
        <path id="right-margin-Regular-S" d="M514.513,56 l0,110" />
        <path id="left-margin-Black-S" d="M615.487,56 l0,110" />
        <path id="right-margin-Black-S" d="M714.513,56 l0,110" />
        <path id="Capline-M" d="M18,276 l800,0" />
        <path id="Baseline-M" d="M18,346 l800,0" />
        <path id="Capline-L" d="M18,476 l800,0" />
        <path id="Baseline-L" d="M18,546 l800,0" />
    </g>
    <g id="Symbols">
        <g id="Ultralight-S">
            <path d="M265,103.1 L301.126,103.1 C302.997,103.1 304.513,101.584 304.513,99.713 C304.513,97.843 302.997,96.326 301.126,96.326 L265,96.326 C263.129,96.326 261.613,97.843 261.613,99.713 C261.613,101.584 263.129,103.1 265,103.1 Z" />
            <path d="M265,82.779 L301.126,82.779 C302.997,82.779 304.513,81.263 304.513,79.392 C304.513,77.522 302.997,76.005 301.126,76.005 L265,76.005 C263.129,76.005 261.613,77.522 261.613,79.392 C261.613,81.263 263.129,82.779 265,82.779 Z" />
            <path d="M228.874,146 L301.126,146 C302.997,146 304.513,144.484 304.513,142.613 C304.513,140.743 302.997,139.226 301.126,139.226 L228.874,139.226 C227.003,139.226 225.487,140.743 225.487,142.613 C225.487,144.484 227.003,146 228.874,146 Z" />
            <path d="M228.874,123.421 L301.126,123.421 C302.997,123.421 304.513,121.905 304.513,120.034 C304.513,118.164 302.997,116.647 301.126,116.647 L228.874,116.647 C227.003,116.647 225.487,118.164 225.487,120.034 C225.487,121.905 227.003,123.421 228.874,123.421 Z" />
            <path d="M227.079,82.264 L245.142,93.554 L245.142,87.81 L227.079,99.099 L232.261,101.971 L232.261,79.392 L227.079,82.264 Z M230.669,76.52 C228.413,75.11 225.487,76.732 225.487,79.392 L225.487,101.971 C225.487,104.631 228.413,106.253 230.669,104.843 L248.732,93.554 C250.854,92.227 250.854,89.136 248.732,87.81 L230.669,76.52 Z" />
        </g>
        <g id="Regular-S">
            <path d="M465,103.1 L501.126,103.1 C502.997,103.1 504.513,101.584 504.513,99.713 C504.513,97.843 502.997,96.326 501.126,96.326 L465,96.326 C463.129,96.326 461.613,97.843 461.613,99.713 C461.613,101.584 463.129,103.1 465,103.1 Z" />
            <path d="M465,82.779 L501.126,82.779 C502.997,82.779 504.513,81.263 504.513,79.392 C504.513,77.522 502.997,76.005 501.126,76.005 L465,76.005 C463.129,76.005 461.613,77.522 461.613,79.392 C461.613,81.263 463.129,82.779 465,82.779 Z" />
            <path d="M428.874,146 L501.126,146 C502.997,146 504.513,144.484 504.513,142.613 C504.513,140.743 502.997,139.226 501.126,139.226 L428.874,139.226 C427.003,139.226 425.487,140.743 425.487,142.613 C425.487,144.484 427.003,146 428.874,146 Z" />
            <path d="M428.874,123.421 L501.126,123.421 C502.997,123.421 504.513,121.905 504.513,120.034 C504.513,118.164 502.997,116.647 501.126,116.647 L428.874,116.647 C427.003,116.647 425.487,118.164 425.487,120.034 C425.487,121.905 427.003,123.421 428.874,123.421 Z" />
            <path d="M427.079,82.264 L445.142,93.554 L445.142,87.81 L427.079,99.099 L432.261,101.971 L432.261,79.392 L427.079,82.264 Z M430.669,76.52 C428.413,75.11 425.487,76.732 425.487,79.392 L425.487,101.971 C425.487,104.631 428.413,106.253 430.669,104.843 L448.732,93.554 C450.854,92.227 450.854,89.136 448.732,87.81 L430.669,76.52 Z" />
        </g>
        <g id="Black-S">
            <path d="M665,103.1 L701.126,103.1 C702.997,103.1 704.513,101.584 704.513,99.713 C704.513,97.843 702.997,96.326 701.126,96.326 L665,96.326 C663.13,96.326 661.613,97.843 661.613,99.713 C661.613,101.584 663.13,103.1 665,103.1 Z" />
            <path d="M665,82.779 L701.126,82.779 C702.997,82.779 704.513,81.263 704.513,79.392 C704.513,77.522 702.997,76.005 701.126,76.005 L665,76.005 C663.13,76.005 661.613,77.522 661.613,79.392 C661.613,81.263 663.13,82.779 665,82.779 Z" />
            <path d="M628.874,146 L701.126,146 C702.997,146 704.513,144.484 704.513,142.613 C704.513,140.743 702.997,139.226 701.126,139.226 L628.874,139.226 C627.003,139.226 625.487,140.743 625.487,142.613 C625.487,144.484 627.003,146 628.874,146 Z" />
            <path d="M628.874,123.421 L701.126,123.421 C702.997,123.421 704.513,121.905 704.513,120.034 C704.513,118.164 702.997,116.647 701.126,116.647 L628.874,116.647 C627.003,116.647 625.487,118.164 625.487,120.034 C625.487,121.905 627.003,123.421 628.874,123.421 Z" />
            <path d="M627.079,82.264 L645.142,93.554 L645.142,87.81 L627.079,99.099 L632.261,101.971 L632.261,79.392 L627.079,82.264 Z M630.669,76.52 C628.413,75.11 625.487,76.732 625.487,79.392 L625.487,101.971 C625.487,104.631 628.413,106.253 630.669,104.843 L648.732,93.554 C650.854,92.227 650.854,89.136 648.732,87.81 L630.669,76.52 Z" />
        </g>
    </g>
</svg>