<?xml version="1.0" encoding="UTF-8"?>
<svg height="600" width="800" xmlns="http://www.w3.org/2000/svg" xmlns:xlink="http://www.w3.org/1999/xlink">
    <g id="Notes" font-family="'LucidaGrande', 'Lucida Grande', sans-serif" font-size="13">
        <rect fill="white" height="600.0" width="800.0" x="0.0" y="0.0" />
        <g font-size="13">
            <text x="18.0" y="176.0">Small</text>
            <text x="18.0" y="376.0">Medium</text>
            <text x="18.0" y="576.0">Large</text>
        </g>
        <g font-size="9">
            <text x="250.0" y="30.0">Ultralight</text>
            <text x="450.0" y="30.0">Regular</text>
            <text x="650.0" y="30.0">Black</text>
            <text id="template-version" fill="#505050" text-anchor="end" x="785.0" y="575.0">Template v.3.0</text>
            <a href="https://github.com/swhitty/SwiftDraw">
                <text fill="#505050" text-anchor="end" x="785.0" y="590.0">https://github.com/swhitty/SwiftDraw</text>
            </a>
        </g>
    </g>
    <g id="Guides" stroke="rgb(39, 170, 225)" stroke-width="0.5">
        <path id="Capline-S" d="M18,76 l800,0" />
        <path id="H-reference" d="M85,145.755 L87.685,145.755 L113.369,79.287 L114.052,79.287 L114.052,76 L112.148,76 L85,145.755 Z M95.693,121.536 L130.996,121.536 L130.263,119.313 L96.474,119.313 L95.693,121.536 Z M139.15,145.755 L141.787,145.755 L114.638,76 L113.466,76 L113.466,79.287 L139.15,145.755 Z" stroke="none" />
        <path id="Baseline-S" d="M18,146 l800,0" />
        <path id="left-margin-Ultralight-S" d="M221,56 l0,110" />
        <path id="right-margin-Ultralight-S" d="M309,56 l0,110" />
        <path id="left-margin-Regular-S" d="M421,56 l0,110" />
        <path id="right-margin-Regular-S" d="M509,56 l0,110" />
        <path id="left-margin-Black-S" d="M621,56 l0,110" />
        <path id="right-margin-Black-S" d="M709,56 l0,110" />
        <path id="Capline-M" d="M18,276 l800,0" />
        <path id="Baseline-M" d="M18,346 l800,0" />
        <path id="Capline-L" d="M18,476 l800,0" />
        <path id="Baseline-L" d="M18,546 l800,0" />
    </g>
    <g id="Symbols">
        <g id="Ultralight-S">
            <path d="M263.31,78.693 L263.31,130.744 C263.31,132.231 264.515,133.436 266.002,133.436 C267.489,133.436 268.694,132.231 268.694,130.744 L268.694,78.693 C268.694,77.207 267.489,76.001 266.002,76.001 C264.515,76.001 263.31,77.207 263.31,78.693 Z" />
            <path d="M243.567,132.61 C243.567,129.101 246.411,126.257 249.92,126.257 L266.002,126.257 L263.31,123.564 L263.31,134.262 C263.31,137.771 260.465,140.615 256.956,140.615 L249.92,140.615 C246.411,140.615 243.567,137.771 243.567,134.262 L243.567,132.61 Z M238.182,132.61 L238.182,134.262 C238.182,140.745 243.437,146 249.92,146 L256.956,146 C263.439,146 268.694,140.745 268.694,134.262 L268.694,123.564 C268.694,122.078 267.489,120.872 266.002,120.872 L249.92,120.872 C243.437,120.872 238.182,126.128 238.182,132.61 Z" />
            <path d="M265.381,95.791 L288.505,101.274 C290.196,101.675 291.818,100.393 291.818,98.655 L291.818,84.102 C291.818,82.851 290.957,81.765 289.739,81.48 L266.615,76.072 C264.926,75.677 263.31,76.959 263.31,78.693 L263.31,93.171 C263.31,94.419 264.167,95.503 265.381,95.791 Z M266.623,90.552 L268.694,93.171 L268.694,78.693 L265.389,81.315 L288.513,86.724 L286.433,84.102 L286.433,98.655 L289.747,96.035 L266.623,90.552 Z" />
        </g>
        <g id="Regular-S">
            <path d="M463.31,78.693 L463.31,130.744 C463.31,132.231 464.515,133.436 466.002,133.436 C467.489,133.436 468.694,132.231 468.694,130.744 L468.694,78.693 C468.694,77.207 467.489,76.001 466.002,76.001 C464.515,76.001 463.31,77.207 463.31,78.693 Z" />
            <path d="M443.567,132.61 C443.567,129.101 446.411,126.257 449.92,126.257 L466.002,126.257 L463.31,123.564 L463.31,134.262 C463.31,137.771 460.465,140.615 456.956,140.615 L449.92,140.615 C446.411,140.615 443.567,137.771 443.567,134.262 L443.567,132.61 Z M438.182,132.61 L438.182,134.262 C438.182,140.745 443.437,146 449.92,146 L456.956,146 C463.439,146 468.694,140.745 468.694,134.262 L468.694,123.564 C468.694,122.078 467.489,120.872 466.002,120.872 L449.92,120.872 C443.437,120.872 438.182,126.128 438.182,132.61 Z" />
            <path d="M465.381,95.791 L488.505,101.274 C490.196,101.675 491.818,100.393 491.818,98.655 L491.818,84.102 C491.818,82.851 490.957,81.765 489.739,81.48 L466.615,76.072 C464.926,75.677 463.31,76.959 463.31,78.693 L463.31,93.171 C463.31,94.419 464.167,95.503 465.381,95.791 Z M466.623,90.552 L468.694,93.171 L468.694,78.693 L465.389,81.315 L488.513,86.724 L486.433,84.102 L486.433,98.655 L489.747,96.035 L466.623,90.552 Z" />
        </g>
        <g id="Black-S">
            <path d="M663.31,78.693 L663.31,130.744 C663.31,132.231 664.515,133.436 666.002,133.436 C667.489,133.436 668.694,132.231 668.694,130.744 L668.694,78.693 C668.694,77.207 667.489,76.001 666.002,76.001 C664.515,76.001 663.31,77.207 663.31,78.693 Z" />
            <path d="M643.567,132.61 C643.567,129.101 646.411,126.257 649.92,126.257 L666.002,126.257 L663.31,123.564 L663.31,134.262 C663.31,137.771 660.465,140.615 656.956,140.615 L649.92,140.615 C646.411,140.615 643.567,137.771 643.567,134.262 L643.567,132.61 Z M638.182,132.61 L638.182,134.262 C638.182,140.745 643.437,146 649.92,146 L656.956,146 C663.439,146 668.694,140.745 668.694,134.262 L668.694,123.564 C668.694,122.078 667.489,120.872 666.002,120.872 L649.92,120.872 C643.437,120.872 638.182,126.128 638.182,132.61 Z" />
            <path d="M665.381,95.791 L688.505,101.274 C690.196,101.675 691.818,100.393 691.818,98.655 L691.818,84.102 C691.818,82.851 690.957,81.765 689.739,81.48 L666.615,76.072 C664.926,75.677 663.31,76.959 663.31,78.693 L663.31,93.171 C663.31,94.419 664.167,95.503 665.381,95.791 Z M666.623,90.552 L668.694,93.171 L668.694,78.693 L665.389,81.315 L688.513,86.724 L686.433,84.102 L686.433,98.655 L689.747,96.035 L666.623,90.552 Z" />
        </g>
    </g>
</svg>