<?xml version="1.0" encoding="UTF-8"?>
<svg height="600" width="800" xmlns="http://www.w3.org/2000/svg" xmlns:xlink="http://www.w3.org/1999/xlink">
    <g id="Notes" font-family="'LucidaGrande', 'Lucida Grande', sans-serif" font-size="13">
        <rect fill="white" height="600.0" width="800.0" x="0.0" y="0.0" />
        <g font-size="13">
            <text x="18.0" y="176.0">Small</text>
            <text x="18.0" y="376.0">Medium</text>
            <text x="18.0" y="576.0">Large</text>
        </g>
        <g font-size="9">
            <text x="250.0" y="30.0">Ultralight</text>
            <text x="450.0" y="30.0">Regular</text>
            <text x="650.0" y="30.0">Black</text>
            <text id="template-version" fill="#505050" text-anchor="end" x="785.0" y="575.0">Template v.3.0</text>
            <a href="https://github.com/swhitty/SwiftDraw">
                <text fill="#505050" text-anchor="end" x="785.0" y="590.0">https://github.com/swhitty/SwiftDraw</text>
            </a>
        </g>
    </g>
    <g id="Guides" stroke="rgb(39, 170, 225)" stroke-width="0.5">
        <path id="Capline-S" d="M18,76 l800,0" />
        <path id="H-reference" d="M85,145.755 L87.685,145.755 L113.369,79.287 L114.052,79.287 L114.052,76 L112.148,76 L85,145.755 Z M95.693,121.536 L130.996,121.536 L130.263,119.313 L96.474,119.313 L95.693,121.536 Z M139.15,145.755 L141.787,145.755 L114.638,76 L113.466,76 L113.466,79.287 L139.15,145.755 Z" stroke="none" />
        <path id="Baseline-S" d="M18,146 l800,0" />
        <path id="left-margin-Ultralight-S" d="M220,56 l0,110" />
        <path id="right-margin-Ultralight-S" d="M310,56 l0,110" />
        <path id="left-margin-Regular-S" d="M420,56 l0,110" />
        <path id="right-margin-Regular-S" d="M510,56 l0,110" />
        <path id="left-margin-Black-S" d="M620,56 l0,110" />
        <path id="right-margin-Black-S" d="M710,56 l0,110" />
        <path id="Capline-M" d="M18,276 l800,0" />
        <path id="Baseline-M" d="M18,346 l800,0" />
        <path id="Capline-L" d="M18,476 l800,0" />
        <path id="Baseline-L" d="M18,546 l800,0" />
    </g>
    <g id="Symbols">
        <g id="Ultralight-S">
            <path d="M265,146 C284.33,146 300,130.33 300,111 C300,91.67 284.33,76 265,76 C245.67,76 230,91.67 230,111 C230,130.33 245.67,146 265,146 Z M265,141.116 C248.367,141.116 234.884,127.633 234.884,111 C234.884,94.367 248.367,80.884 265,80.884 C281.633,80.884 295.116,94.367 295.116,111 C295.116,127.633 281.633,141.116 265,141.116 Z" />
            <path d="M265.814,94.721 L265.814,117.512 C265.814,118.86 266.907,119.953 268.256,119.953 C269.604,119.953 270.698,118.86 270.698,117.512 L270.698,94.721 C270.698,93.372 269.604,92.279 268.256,92.279 C266.907,92.279 265.814,93.372 265.814,94.721 Z" />
            <path d="M251.163,118.595 C251.163,116.745 253.137,115.07 255.753,115.07 L268.256,115.07 L265.814,112.628 L265.814,119.684 C265.814,121.534 263.839,123.209 261.223,123.209 L255.753,123.209 C253.137,123.209 251.163,121.534 251.163,119.684 L251.163,118.595 Z M246.279,118.595 L246.279,119.684 C246.279,124.425 250.602,128.093 255.753,128.093 L261.223,128.093 C266.375,128.093 270.698,124.425 270.698,119.684 L270.698,112.628 C270.698,111.279 269.604,110.186 268.256,110.186 L255.753,110.186 C250.602,110.186 246.279,113.854 246.279,118.595 Z" />
            <path d="M278.425,93.94 L268.657,92.312 C267.327,92.091 266.069,92.989 265.847,94.319 C265.625,95.65 266.524,96.908 267.854,97.13 L277.622,98.757 C278.952,98.979 280.21,98.081 280.432,96.75 C280.654,95.42 279.755,94.162 278.425,93.94 Z" />
        </g>
        <g id="Regular-S">
            <path d="M465,146 C484.33,146 500,130.33 500,111 C500,91.67 484.33,76 465,76 C445.67,76 430,91.67 430,111 C430,130.33 445.67,146 465,146 Z M465,141.116 C448.367,141.116 434.884,127.633 434.884,111 C434.884,94.367 448.367,80.884 465,80.884 C481.633,80.884 495.116,94.367 495.116,111 C495.116,127.633 481.633,141.116 465,141.116 Z" />
            <path d="M465.814,94.721 L465.814,117.512 C465.814,118.86 466.907,119.953 468.256,119.953 C469.604,119.953 470.698,118.86 470.698,117.512 L470.698,94.721 C470.698,93.372 469.604,92.279 468.256,92.279 C466.907,92.279 465.814,93.372 465.814,94.721 Z" />
            <path d="M451.163,118.595 C451.163,116.745 453.137,115.07 455.753,115.07 L468.256,115.07 L465.814,112.628 L465.814,119.684 C465.814,121.534 463.839,123.209 461.223,123.209 L455.753,123.209 C453.137,123.209 451.163,121.534 451.163,119.684 L451.163,118.595 Z M446.279,118.595 L446.279,119.684 C446.279,124.425 450.602,128.093 455.753,128.093 L461.223,128.093 C466.375,128.093 470.698,124.425 470.698,119.684 L470.698,112.628 C470.698,111.279 469.604,110.186 468.256,110.186 L455.753,110.186 C450.602,110.186 446.279,113.854 446.279,118.595 Z" />
            <path d="M478.425,93.94 L468.657,92.312 C467.327,92.091 466.069,92.989 465.847,94.319 C465.625,95.65 466.524,96.908 467.854,97.13 L477.622,98.757 C478.952,98.979 480.21,98.081 480.432,96.75 C480.654,95.42 479.755,94.162 478.425,93.94 Z" />
        </g>
        <g id="Black-S">
            <path d="M665,146 C684.33,146 700,130.33 700,111 C700,91.67 684.33,76 665,76 C645.67,76 630,91.67 630,111 C630,130.33 645.67,146 665,146 Z M665,141.116 C648.367,141.116 634.884,127.633 634.884,111 C634.884,94.367 648.367,80.884 665,80.884 C681.633,80.884 695.116,94.367 695.116,111 C695.116,127.633 681.633,141.116 665,141.116 Z" />
            <path d="M665.814,94.721 L665.814,117.512 C665.814,118.86 666.907,119.953 668.256,119.953 C669.604,119.953 670.698,118.86 670.698,117.512 L670.698,94.721 C670.698,93.372 669.604,92.279 668.256,92.279 C666.907,92.279 665.814,93.372 665.814,94.721 Z" />
            <path d="M651.163,118.595 C651.163,116.745 653.137,115.07 655.753,115.07 L668.256,115.07 L665.814,112.628 L665.814,119.684 C665.814,121.534 663.839,123.209 661.223,123.209 L655.753,123.209 C653.137,123.209 651.163,121.534 651.163,119.684 L651.163,118.595 Z M646.279,118.595 L646.279,119.684 C646.279,124.425 650.602,128.093 655.753,128.093 L661.223,128.093 C666.375,128.093 670.698,124.425 670.698,119.684 L670.698,112.628 C670.698,111.279 669.604,110.186 668.256,110.186 L655.753,110.186 C650.602,110.186 646.279,113.854 646.279,118.595 Z" />
            <path d="M678.425,93.94 L668.657,92.312 C667.327,92.091 666.069,92.989 665.847,94.319 C665.625,95.65 666.524,96.908 667.854,97.13 L677.622,98.757 C678.952,98.979 680.21,98.081 680.432,96.75 C680.654,95.42 679.755,94.162 678.425,93.94 Z" />
        </g>
    </g>
</svg>