<?xml version="1.0" encoding="UTF-8"?>
<svg height="600" width="800" xmlns="http://www.w3.org/2000/svg" xmlns:xlink="http://www.w3.org/1999/xlink">
    <g id="Notes" font-family="'LucidaGrande', 'Lucida Grande', sans-serif" font-size="13">
        <rect fill="white" height="600.0" width="800.0" x="0.0" y="0.0" />
        <g font-size="13">
            <text x="18.0" y="176.0">Small</text>
            <text x="18.0" y="376.0">Medium</text>
            <text x="18.0" y="576.0">Large</text>
        </g>
        <g font-size="9">
            <text x="250.0" y="30.0">Ultralight</text>
            <text x="450.0" y="30.0">Regular</text>
            <text x="650.0" y="30.0">Black</text>
            <text id="template-version" fill="#505050" text-anchor="end" x="785.0" y="575.0">Template v.3.0</text>
            <a href="https://github.com/swhitty/SwiftDraw">
                <text fill="#505050" text-anchor="end" x="785.0" y="590.0">https://github.com/swhitty/SwiftDraw</text>
            </a>
        </g>
    </g>
    <g id="Guides" stroke="rgb(39, 170, 225)" stroke-width="0.5">
        <path id="Capline-S" d="M18,76 l800,0" />
        <path id="H-reference" d="M85,145.755 L87.685,145.755 L113.369,79.287 L114.052,79.287 L114.052,76 L112.148,76 L85,145.755 Z M95.693,121.536 L130.996,121.536 L130.263,119.313 L96.474,119.313 L95.693,121.536 Z M139.15,145.755 L141.787,145.755 L114.638,76 L113.466,76 L113.466,79.287 L139.15,145.755 Z" stroke="none" />
        <path id="Baseline-S" d="M18,146 l800,0" />
        <path id="left-margin-Ultralight-S" d="M221,56 l0,110" />
        <path id="right-margin-Ultralight-S" d="M309,56 l0,110" />
        <path id="left-margin-Regular-S" d="M421,56 l0,110" />
        <path id="right-margin-Regular-S" d="M509,56 l0,110" />
        <path id="left-margin-Black-S" d="M621,56 l0,110" />
        <path id="right-margin-Black-S" d="M709,56 l0,110" />
        <path id="Capline-M" d="M18,276 l800,0" />
        <path id="Baseline-M" d="M18,346 l800,0" />
        <path id="Capline-L" d="M18,476 l800,0" />
        <path id="Baseline-L" d="M18,546 l800,0" />
    </g>
    <g id="Symbols">
        <g id="Ultralight-S">
            <path d="M252.712,131.151 L262.479,93.709 L260.116,95.535 L269.884,95.535 L267.521,93.709 L277.288,131.151 L278.029,128.71 L263.378,141.733 L266.622,141.733 L251.971,128.71 L252.712,131.151 Z M247.986,129.919 C247.754,130.807 248.04,131.75 248.727,132.36 L263.378,145.383 C264.303,146.206 265.697,146.206 266.622,145.383 L281.273,132.36 C281.96,131.75 282.246,130.807 282.014,129.919 L272.247,92.477 C271.966,91.401 270.995,90.651 269.884,90.651 L260.116,90.651 C259.005,90.651 258.034,91.401 257.753,92.477 L247.986,129.919 Z" />
            <path d="M260.116,80.884 L269.884,80.884 L268.529,80.474 L273.413,83.729 L272.523,80.736 L267.639,92.131 L269.884,90.651 L260.116,90.651 L262.361,92.131 L257.477,80.736 L256.587,83.729 L261.471,80.474 L260.116,80.884 Z M260.116,76 C259.634,76 259.163,76.143 258.762,76.41 L253.878,79.666 C252.899,80.319 252.524,81.578 252.988,82.66 L257.872,94.055 C258.257,94.953 259.139,95.535 260.116,95.535 L269.884,95.535 C270.861,95.535 271.743,94.953 272.128,94.055 L277.012,82.66 C277.476,81.578 277.101,80.319 276.122,79.666 L271.238,76.41 C270.837,76.143 270.366,76 269.884,76 L260.116,76 Z" />
        </g>
        <g id="Regular-S">
            <path d="M452.712,131.151 L462.479,93.709 L460.116,95.535 L469.884,95.535 L467.521,93.709 L477.288,131.151 L478.029,128.71 L463.378,141.733 L466.622,141.733 L451.971,128.71 L452.712,131.151 Z M447.986,129.919 C447.754,130.807 448.04,131.75 448.727,132.36 L463.378,145.383 C464.303,146.206 465.697,146.206 466.622,145.383 L481.273,132.36 C481.96,131.75 482.246,130.807 482.014,129.919 L472.247,92.477 C471.966,91.401 470.995,90.651 469.884,90.651 L460.116,90.651 C459.005,90.651 458.034,91.401 457.753,92.477 L447.986,129.919 Z" />
            <path d="M460.116,80.884 L469.884,80.884 L468.529,80.474 L473.413,83.729 L472.523,80.736 L467.639,92.131 L469.884,90.651 L460.116,90.651 L462.361,92.131 L457.477,80.736 L456.587,83.729 L461.471,80.474 L460.116,80.884 Z M460.116,76 C459.634,76 459.163,76.143 458.762,76.41 L453.878,79.666 C452.899,80.319 452.524,81.578 452.988,82.66 L457.872,94.055 C458.257,94.953 459.139,95.535 460.116,95.535 L469.884,95.535 C470.861,95.535 471.743,94.953 472.128,94.055 L477.012,82.66 C477.476,81.578 477.101,80.319 476.122,79.666 L471.238,76.41 C470.837,76.143 470.366,76 469.884,76 L460.116,76 Z" />
        </g>
        <g id="Black-S">
            <path d="M652.712,131.151 L662.479,93.709 L660.116,95.535 L669.884,95.535 L667.521,93.709 L677.288,131.151 L678.029,128.71 L663.378,141.733 L666.622,141.733 L651.971,128.71 L652.712,131.151 Z M647.986,129.919 C647.754,130.807 648.04,131.75 648.727,132.36 L663.378,145.383 C664.303,146.206 665.697,146.206 666.622,145.383 L681.273,132.36 C681.96,131.75 682.246,130.807 682.014,129.919 L672.247,92.477 C671.966,91.401 670.995,90.651 669.884,90.651 L660.116,90.651 C659.005,90.651 658.034,91.401 657.753,92.477 L647.986,129.919 Z" />
            <path d="M660.116,80.884 L669.884,80.884 L668.529,80.474 L673.413,83.729 L672.523,80.736 L667.639,92.131 L669.884,90.651 L660.116,90.651 L662.361,92.131 L657.477,80.736 L656.587,83.729 L661.471,80.474 L660.116,80.884 Z M660.116,76 C659.634,76 659.163,76.143 658.762,76.41 L653.878,79.666 C652.899,80.319 652.524,81.578 652.988,82.66 L657.872,94.055 C658.257,94.953 659.139,95.535 660.116,95.535 L669.884,95.535 C670.861,95.535 671.743,94.953 672.128,94.055 L677.012,82.66 C677.476,81.578 677.101,80.319 676.122,79.666 L671.238,76.41 C670.837,76.143 670.366,76 669.884,76 L660.116,76 Z" />
        </g>
    </g>
</svg>