<?xml version="1.0" encoding="UTF-8"?>
<svg height="600" width="800" xmlns="http://www.w3.org/2000/svg" xmlns:xlink="http://www.w3.org/1999/xlink">
    <g id="Notes" font-family="'LucidaGrande', 'Lucida Grande', sans-serif" font-size="13">
        <rect fill="white" height="600.0" width="800.0" x="0.0" y="0.0" />
        <g font-size="13">
            <text x="18.0" y="176.0">Small</text>
            <text x="18.0" y="376.0">Medium</text>
            <text x="18.0" y="576.0">Large</text>
        </g>
        <g font-size="9">
            <text x="250.0" y="30.0">Ultralight</text>
            <text x="450.0" y="30.0">Regular</text>
            <text x="650.0" y="30.0">Black</text>
            <text id="template-version" fill="#505050" text-anchor="end" x="785.0" y="575.0">Template v.3.0</text>
            <a href="https://github.com/swhitty/SwiftDraw">
                <text fill="#505050" text-anchor="end" x="785.0" y="590.0">https://github.com/swhitty/SwiftDraw</text>
            </a>
        </g>
    </g>
    <g id="Guides" stroke="rgb(39, 170, 225)" stroke-width="0.5">
        <path id="Capline-S" d="M18,76 l800,0" />
        <path id="H-reference" d="M85,145.755 L87.685,145.755 L113.369,79.287 L114.052,79.287 L114.052,76 L112.148,76 L85,145.755 Z M95.693,121.536 L130.996,121.536 L130.263,119.313 L96.474,119.313 L95.693,121.536 Z M139.15,145.755 L141.787,145.755 L114.638,76 L113.466,76 L113.466,79.287 L139.15,145.755 Z" stroke="none" />
        <path id="Baseline-S" d="M18,146 l800,0" />
        <path id="left-margin-Ultralight-S" d="M214.33,56 l0,110" />
        <path id="right-margin-Ultralight-S" d="M315.67,56 l0,110" />
        <path id="left-margin-Regular-S" d="M414.33,56 l0,110" />
        <path id="right-margin-Regular-S" d="M515.67,56 l0,110" />
        <path id="left-margin-Black-S" d="M614.33,56 l0,110" />
        <path id="right-margin-Black-S" d="M715.67,56 l0,110" />
        <path id="Capline-M" d="M18,276 l800,0" />
        <path id="Baseline-M" d="M18,346 l800,0" />
        <path id="Capline-L" d="M18,476 l800,0" />
        <path id="Baseline-L" d="M18,546 l800,0" />
    </g>
    <g id="Symbols">
        <g id="Ultralight-S">
            <path d="M229.364,144.645 C238.248,133.8 246.006,127.749 252.416,126.389 C259.263,124.936 265.748,124.718 271.885,125.723 L269.506,122.923 L269.506,143.157 C269.506,145.74 272.676,146.979 274.428,145.082 L304.917,112.065 C305.941,110.956 305.918,109.241 304.865,108.16 L274.376,76.863 C272.6,75.04 269.506,76.297 269.506,78.843 L269.506,98.075 L272.321,95.238 C259.562,95.338 248.634,99.95 239.697,109.007 C230.824,117.998 225.699,129.218 224.346,142.561 C224.063,145.358 227.583,146.82 229.364,144.645 Z M224.974,141.049 L229.992,143.133 C231.217,131.057 235.789,121.046 243.736,112.993 C251.617,105.006 261.108,101.001 272.366,100.912 C273.924,100.9 275.181,99.633 275.181,98.075 L275.181,78.843 L270.311,80.823 L300.8,112.12 L300.748,108.215 L270.259,141.232 L275.181,143.157 L275.181,122.923 C275.181,121.533 274.174,120.347 272.802,120.123 C265.949,119 258.756,119.243 251.238,120.838 C243.282,122.526 234.601,129.297 224.974,141.049 Z" />
        </g>
        <g id="Regular-S">
            <path d="M429.364,144.645 C438.248,133.8 446.006,127.749 452.416,126.389 C459.263,124.936 465.748,124.718 471.885,125.723 L469.506,122.923 L469.506,143.157 C469.506,145.74 472.676,146.979 474.428,145.082 L504.917,112.065 C505.941,110.956 505.918,109.241 504.865,108.16 L474.376,76.863 C472.6,75.04 469.506,76.297 469.506,78.843 L469.506,98.075 L472.321,95.238 C459.562,95.338 448.634,99.95 439.697,109.007 C430.824,117.998 425.699,129.218 424.346,142.561 C424.063,145.358 427.583,146.82 429.364,144.645 Z M424.974,141.049 L429.992,143.133 C431.217,131.057 435.789,121.046 443.736,112.993 C451.617,105.006 461.108,101.001 472.366,100.912 C473.924,100.9 475.181,99.633 475.181,98.075 L475.181,78.843 L470.311,80.823 L500.8,112.12 L500.748,108.215 L470.259,141.232 L475.181,143.157 L475.181,122.923 C475.181,121.533 474.174,120.347 472.802,120.123 C465.949,119 458.756,119.243 451.238,120.838 C443.282,122.526 434.601,129.297 424.974,141.049 Z" />
        </g>
        <g id="Black-S">
            <path d="M629.364,144.645 C638.248,133.8 646.006,127.749 652.416,126.389 C659.263,124.936 665.748,124.718 671.885,125.723 L669.506,122.923 L669.506,143.157 C669.506,145.74 672.676,146.979 674.428,145.082 L704.917,112.065 C705.941,110.956 705.918,109.241 704.865,108.16 L674.376,76.863 C672.6,75.04 669.506,76.297 669.506,78.843 L669.506,98.075 L672.321,95.238 C659.562,95.338 648.634,99.95 639.697,109.007 C630.824,117.998 625.699,129.218 624.346,142.561 C624.063,145.358 627.583,146.82 629.364,144.645 Z M624.974,141.049 L629.992,143.133 C631.217,131.057 635.789,121.046 643.736,112.993 C651.617,105.006 661.108,101.001 672.366,100.912 C673.924,100.9 675.181,99.633 675.181,98.075 L675.181,78.843 L670.311,80.823 L700.8,112.12 L700.748,108.215 L670.259,141.232 L675.181,143.157 L675.181,122.923 C675.181,121.533 674.174,120.347 672.802,120.123 C665.949,119 658.756,119.243 651.238,120.838 C643.282,122.526 634.601,129.297 624.974,141.049 Z" />
        </g>
    </g>
</svg>