<?xml version="1.0" encoding="UTF-8"?>
<svg height="600" width="800" xmlns="http://www.w3.org/2000/svg" xmlns:xlink="http://www.w3.org/1999/xlink">
    <g id="Notes" font-family="'LucidaGrande', 'Lucida Grande', sans-serif" font-size="13">
        <rect fill="white" height="600.0" width="800.0" x="0.0" y="0.0" />
        <g font-size="13">
            <text x="18.0" y="176.0">Small</text>
            <text x="18.0" y="376.0">Medium</text>
            <text x="18.0" y="576.0">Large</text>
        </g>
        <g font-size="9">
            <text x="250.0" y="30.0">Ultralight</text>
            <text x="450.0" y="30.0">Regular</text>
            <text x="650.0" y="30.0">Black</text>
            <text id="template-version" fill="#505050" text-anchor="end" x="785.0" y="575.0">Template v.3.0</text>
            <a href="https://github.com/swhitty/SwiftDraw">
                <text fill="#505050" text-anchor="end" x="785.0" y="590.0">https://github.com/swhitty/SwiftDraw</text>
            </a>
        </g>
    </g>
    <g id="Guides" stroke="rgb(39, 170, 225)" stroke-width="0.5">
        <path id="Capline-S" d="M18,76 l800,0" />
        <path id="H-reference" d="M85,145.755 L87.685,145.755 L113.369,79.287 L114.052,79.287 L114.052,76 L112.148,76 L85,145.755 Z M95.693,121.536 L130.996,121.536 L130.263,119.313 L96.474,119.313 L95.693,121.536 Z M139.15,145.755 L141.787,145.755 L114.638,76 L113.466,76 L113.466,79.287 L139.15,145.755 Z" stroke="none" />
        <path id="Baseline-S" d="M18,146 l800,0" />
        <path id="left-margin-Ultralight-S" d="M220,56 l0,110" />
        <path id="right-margin-Ultralight-S" d="M310,56 l0,110" />
        <path id="left-margin-Regular-S" d="M420,56 l0,110" />
        <path id="right-margin-Regular-S" d="M510,56 l0,110" />
        <path id="left-margin-Black-S" d="M620,56 l0,110" />
        <path id="right-margin-Black-S" d="M710,56 l0,110" />
        <path id="Capline-M" d="M18,276 l800,0" />
        <path id="Baseline-M" d="M18,346 l800,0" />
        <path id="Capline-L" d="M18,476 l800,0" />
        <path id="Baseline-L" d="M18,546 l800,0" />
    </g>
    <g id="Symbols">
        <g id="Ultralight-S">
            <path d="M271.331,134.169 L288.169,117.331 C289.123,116.378 289.123,114.832 288.169,113.878 C287.216,112.924 285.669,112.924 284.716,113.878 L267.878,130.716 C266.924,131.669 266.924,133.216 267.878,134.169 C268.832,135.123 270.378,135.123 271.331,134.169 Z" />
            <path d="M258.669,113.878 L241.832,130.716 C240.878,131.669 240.878,133.216 241.832,134.169 C242.785,135.123 244.331,135.123 245.285,134.169 L262.123,117.331 C263.076,116.378 263.076,114.832 262.123,113.878 C261.169,112.924 259.623,112.924 258.669,113.878 Z" />
            <path d="M271.331,108.123 L288.169,91.285 C289.123,90.331 289.123,88.785 288.169,87.832 C287.216,86.878 285.669,86.878 284.716,87.832 L267.878,104.669 C266.924,105.623 266.924,107.169 267.878,108.123 C268.832,109.076 270.378,109.076 271.331,108.123 Z" />
            <path d="M245.285,108.123 L262.123,91.285 C263.076,90.331 263.076,88.785 262.123,87.832 C261.169,86.878 259.623,86.878 258.669,87.832 L241.832,104.669 C240.878,105.623 240.878,107.169 241.832,108.123 C242.785,109.076 244.331,109.076 245.285,108.123 Z" />
            <path d="M243.023,84.953 C243.023,87.201 241.201,89.023 238.953,89.023 C236.706,89.023 234.884,87.201 234.884,84.953 C234.884,82.706 236.706,80.884 238.953,80.884 C241.201,80.884 243.023,82.706 243.023,84.953 Z M247.907,84.953 C247.907,80.009 243.898,76 238.953,76 C234.009,76 230,80.009 230,84.953 C230,89.898 234.009,93.907 238.953,93.907 C243.898,93.907 247.907,89.898 247.907,84.953 Z" />
            <path d="M269.07,84.953 C269.07,87.201 267.248,89.023 265,89.023 C262.752,89.023 260.93,87.201 260.93,84.953 C260.93,82.706 262.752,80.884 265,80.884 C267.248,80.884 269.07,82.706 269.07,84.953 Z M273.953,84.953 C273.953,80.009 269.945,76 265,76 C260.055,76 256.047,80.009 256.047,84.953 C256.047,89.898 260.055,93.907 265,93.907 C269.945,93.907 273.953,89.898 273.953,84.953 Z" />
            <path d="M295.116,84.953 C295.116,87.201 293.294,89.023 291.047,89.023 C288.799,89.023 286.977,87.201 286.977,84.953 C286.977,82.706 288.799,80.884 291.047,80.884 C293.294,80.884 295.116,82.706 295.116,84.953 Z M300,84.953 C300,80.009 295.991,76 291.047,76 C286.102,76 282.093,80.009 282.093,84.953 C282.093,89.898 286.102,93.907 291.047,93.907 C295.991,93.907 300,89.898 300,84.953 Z" />
            <path d="M295.116,111 C295.116,113.248 293.294,115.07 291.047,115.07 C288.799,115.07 286.977,113.248 286.977,111 C286.977,108.752 288.799,106.93 291.047,106.93 C293.294,106.93 295.116,108.752 295.116,111 Z M300,111 C300,106.055 295.991,102.047 291.047,102.047 C286.102,102.047 282.093,106.055 282.093,111 C282.093,115.945 286.102,119.953 291.047,119.953 C295.991,119.953 300,115.945 300,111 Z" />
            <path d="M295.116,137.047 C295.116,139.294 293.294,141.116 291.047,141.116 C288.799,141.116 286.977,139.294 286.977,137.047 C286.977,134.799 288.799,132.977 291.047,132.977 C293.294,132.977 295.116,134.799 295.116,137.047 Z M300,137.047 C300,132.102 295.991,128.093 291.047,128.093 C286.102,128.093 282.093,132.102 282.093,137.047 C282.093,141.991 286.102,146 291.047,146 C295.991,146 300,141.991 300,137.047 Z" />
            <path d="M269.07,137.047 C269.07,139.294 267.248,141.116 265,141.116 C262.752,141.116 260.93,139.294 260.93,137.047 C260.93,134.799 262.752,132.977 265,132.977 C267.248,132.977 269.07,134.799 269.07,137.047 Z M273.953,137.047 C273.953,132.102 269.945,128.093 265,128.093 C260.055,128.093 256.047,132.102 256.047,137.047 C256.047,141.991 260.055,146 265,146 C269.945,146 273.953,141.991 273.953,137.047 Z" />
            <path d="M243.023,137.047 C243.023,139.294 241.201,141.116 238.953,141.116 C236.706,141.116 234.884,139.294 234.884,137.047 C234.884,134.799 236.706,132.977 238.953,132.977 C241.201,132.977 243.023,134.799 243.023,137.047 Z M247.907,137.047 C247.907,132.102 243.898,128.093 238.953,128.093 C234.009,128.093 230,132.102 230,137.047 C230,141.991 234.009,146 238.953,146 C243.898,146 247.907,141.991 247.907,137.047 Z" />
            <path d="M243.023,111 C243.023,113.248 241.201,115.07 238.953,115.07 C236.706,115.07 234.884,113.248 234.884,111 C234.884,108.752 236.706,106.93 238.953,106.93 C241.201,106.93 243.023,108.752 243.023,111 Z M247.907,111 C247.907,106.055 243.898,102.047 238.953,102.047 C234.009,102.047 230,106.055 230,111 C230,115.945 234.009,119.953 238.953,119.953 C243.898,119.953 247.907,115.945 247.907,111 Z" />
            <path d="M269.07,111 C269.07,113.248 267.248,115.07 265,115.07 C262.752,115.07 260.93,113.248 260.93,111 C260.93,108.752 262.752,106.93 265,106.93 C267.248,106.93 269.07,108.752 269.07,111 Z M273.953,111 C273.953,106.055 269.945,102.047 265,102.047 C260.055,102.047 256.047,106.055 256.047,111 C256.047,115.945 260.055,119.953 265,119.953 C269.945,119.953 273.953,115.945 273.953,111 Z" />
        </g>
        <g id="Regular-S">
            <path d="M471.331,134.169 L488.169,117.331 C489.123,116.378 489.123,114.832 488.169,113.878 C487.216,112.924 485.669,112.924 484.716,113.878 L467.878,130.716 C466.924,131.669 466.924,133.216 467.878,134.169 C468.832,135.123 470.378,135.123 471.331,134.169 Z" />
            <path d="M458.669,113.878 L441.832,130.716 C440.878,131.669 440.878,133.216 441.832,134.169 C442.785,135.123 444.331,135.123 445.285,134.169 L462.123,117.331 C463.076,116.378 463.076,114.832 462.123,113.878 C461.169,112.924 459.623,112.924 458.669,113.878 Z" />
            <path d="M471.331,108.123 L488.169,91.285 C489.123,90.331 489.123,88.785 488.169,87.832 C487.216,86.878 485.669,86.878 484.716,87.832 L467.878,104.669 C466.924,105.623 466.924,107.169 467.878,108.123 C468.832,109.076 470.378,109.076 471.331,108.123 Z" />
            <path d="M445.285,108.123 L462.123,91.285 C463.076,90.331 463.076,88.785 462.123,87.832 C461.169,86.878 459.623,86.878 458.669,87.832 L441.832,104.669 C440.878,105.623 440.878,107.169 441.832,108.123 C442.785,109.076 444.331,109.076 445.285,108.123 Z" />
            <path d="M443.023,84.953 C443.023,87.201 441.201,89.023 438.953,89.023 C436.706,89.023 434.884,87.201 434.884,84.953 C434.884,82.706 436.706,80.884 438.953,80.884 C441.201,80.884 443.023,82.706 443.023,84.953 Z M447.907,84.953 C447.907,80.009 443.898,76 438.953,76 C434.009,76 430,80.009 430,84.953 C430,89.898 434.009,93.907 438.953,93.907 C443.898,93.907 447.907,89.898 447.907,84.953 Z" />
            <path d="M469.07,84.953 C469.07,87.201 467.248,89.023 465,89.023 C462.752,89.023 460.93,87.201 460.93,84.953 C460.93,82.706 462.752,80.884 465,80.884 C467.248,80.884 469.07,82.706 469.07,84.953 Z M473.953,84.953 C473.953,80.009 469.945,76 465,76 C460.055,76 456.047,80.009 456.047,84.953 C456.047,89.898 460.055,93.907 465,93.907 C469.945,93.907 473.953,89.898 473.953,84.953 Z" />
            <path d="M495.116,84.953 C495.116,87.201 493.294,89.023 491.047,89.023 C488.799,89.023 486.977,87.201 486.977,84.953 C486.977,82.706 488.799,80.884 491.047,80.884 C493.294,80.884 495.116,82.706 495.116,84.953 Z M500,84.953 C500,80.009 495.991,76 491.047,76 C486.102,76 482.093,80.009 482.093,84.953 C482.093,89.898 486.102,93.907 491.047,93.907 C495.991,93.907 500,89.898 500,84.953 Z" />
            <path d="M495.116,111 C495.116,113.248 493.294,115.07 491.047,115.07 C488.799,115.07 486.977,113.248 486.977,111 C486.977,108.752 488.799,106.93 491.047,106.93 C493.294,106.93 495.116,108.752 495.116,111 Z M500,111 C500,106.055 495.991,102.047 491.047,102.047 C486.102,102.047 482.093,106.055 482.093,111 C482.093,115.945 486.102,119.953 491.047,119.953 C495.991,119.953 500,115.945 500,111 Z" />
            <path d="M495.116,137.047 C495.116,139.294 493.294,141.116 491.047,141.116 C488.799,141.116 486.977,139.294 486.977,137.047 C486.977,134.799 488.799,132.977 491.047,132.977 C493.294,132.977 495.116,134.799 495.116,137.047 Z M500,137.047 C500,132.102 495.991,128.093 491.047,128.093 C486.102,128.093 482.093,132.102 482.093,137.047 C482.093,141.991 486.102,146 491.047,146 C495.991,146 500,141.991 500,137.047 Z" />
            <path d="M469.07,137.047 C469.07,139.294 467.248,141.116 465,141.116 C462.752,141.116 460.93,139.294 460.93,137.047 C460.93,134.799 462.752,132.977 465,132.977 C467.248,132.977 469.07,134.799 469.07,137.047 Z M473.953,137.047 C473.953,132.102 469.945,128.093 465,128.093 C460.055,128.093 456.047,132.102 456.047,137.047 C456.047,141.991 460.055,146 465,146 C469.945,146 473.953,141.991 473.953,137.047 Z" />
            <path d="M443.023,137.047 C443.023,139.294 441.201,141.116 438.953,141.116 C436.706,141.116 434.884,139.294 434.884,137.047 C434.884,134.799 436.706,132.977 438.953,132.977 C441.201,132.977 443.023,134.799 443.023,137.047 Z M447.907,137.047 C447.907,132.102 443.898,128.093 438.953,128.093 C434.009,128.093 430,132.102 430,137.047 C430,141.991 434.009,146 438.953,146 C443.898,146 447.907,141.991 447.907,137.047 Z" />
            <path d="M443.023,111 C443.023,113.248 441.201,115.07 438.953,115.07 C436.706,115.07 434.884,113.248 434.884,111 C434.884,108.752 436.706,106.93 438.953,106.93 C441.201,106.93 443.023,108.752 443.023,111 Z M447.907,111 C447.907,106.055 443.898,102.047 438.953,102.047 C434.009,102.047 430,106.055 430,111 C430,115.945 434.009,119.953 438.953,119.953 C443.898,119.953 447.907,115.945 447.907,111 Z" />
            <path d="M469.07,111 C469.07,113.248 467.248,115.07 465,115.07 C462.752,115.07 460.93,113.248 460.93,111 C460.93,108.752 462.752,106.93 465,106.93 C467.248,106.93 469.07,108.752 469.07,111 Z M473.953,111 C473.953,106.055 469.945,102.047 465,102.047 C460.055,102.047 456.047,106.055 456.047,111 C456.047,115.945 460.055,119.953 465,119.953 C469.945,119.953 473.953,115.945 473.953,111 Z" />
        </g>
        <g id="Black-S">
            <path d="M671.331,134.169 L688.169,117.331 C689.123,116.378 689.123,114.832 688.169,113.878 C687.216,112.924 685.669,112.924 684.716,113.878 L667.878,130.716 C666.924,131.669 666.924,133.216 667.878,134.169 C668.832,135.123 670.378,135.123 671.331,134.169 Z" />
            <path d="M658.669,113.878 L641.832,130.716 C640.878,131.669 640.878,133.216 641.832,134.169 C642.785,135.123 644.331,135.123 645.285,134.169 L662.123,117.331 C663.076,116.378 663.076,114.832 662.123,113.878 C661.169,112.924 659.623,112.924 658.669,113.878 Z" />
            <path d="M671.331,108.123 L688.169,91.285 C689.123,90.331 689.123,88.785 688.169,87.832 C687.216,86.878 685.669,86.878 684.716,87.832 L667.878,104.669 C666.924,105.623 666.924,107.169 667.878,108.123 C668.832,109.076 670.378,109.076 671.331,108.123 Z" />
            <path d="M645.285,108.123 L662.123,91.285 C663.076,90.331 663.076,88.785 662.123,87.832 C661.169,86.878 659.623,86.878 658.669,87.832 L641.832,104.669 C640.878,105.623 640.878,107.169 641.832,108.123 C642.785,109.076 644.331,109.076 645.285,108.123 Z" />
            <path d="M643.023,84.953 C643.023,87.201 641.201,89.023 638.953,89.023 C636.706,89.023 634.884,87.201 634.884,84.953 C634.884,82.706 636.706,80.884 638.953,80.884 C641.201,80.884 643.023,82.706 643.023,84.953 Z M647.907,84.953 C647.907,80.009 643.898,76 638.953,76 C634.009,76 630,80.009 630,84.953 C630,89.898 634.009,93.907 638.953,93.907 C643.898,93.907 647.907,89.898 647.907,84.953 Z" />
            <path d="M669.07,84.953 C669.07,87.201 667.248,89.023 665,89.023 C662.752,89.023 660.93,87.201 660.93,84.953 C660.93,82.706 662.752,80.884 665,80.884 C667.248,80.884 669.07,82.706 669.07,84.953 Z M673.953,84.953 C673.953,80.009 669.945,76 665,76 C660.055,76 656.047,80.009 656.047,84.953 C656.047,89.898 660.055,93.907 665,93.907 C669.945,93.907 673.953,89.898 673.953,84.953 Z" />
            <path d="M695.116,84.953 C695.116,87.201 693.294,89.023 691.047,89.023 C688.799,89.023 686.977,87.201 686.977,84.953 C686.977,82.706 688.799,80.884 691.047,80.884 C693.294,80.884 695.116,82.706 695.116,84.953 Z M700,84.953 C700,80.009 695.991,76 691.047,76 C686.102,76 682.093,80.009 682.093,84.953 C682.093,89.898 686.102,93.907 691.047,93.907 C695.991,93.907 700,89.898 700,84.953 Z" />
            <path d="M695.116,111 C695.116,113.248 693.294,115.07 691.047,115.07 C688.799,115.07 686.977,113.248 686.977,111 C686.977,108.752 688.799,106.93 691.047,106.93 C693.294,106.93 695.116,108.752 695.116,111 Z M700,111 C700,106.055 695.991,102.047 691.047,102.047 C686.102,102.047 682.093,106.055 682.093,111 C682.093,115.945 686.102,119.953 691.047,119.953 C695.991,119.953 700,115.945 700,111 Z" />
            <path d="M695.116,137.047 C695.116,139.294 693.294,141.116 691.047,141.116 C688.799,141.116 686.977,139.294 686.977,137.047 C686.977,134.799 688.799,132.977 691.047,132.977 C693.294,132.977 695.116,134.799 695.116,137.047 Z M700,137.047 C700,132.102 695.991,128.093 691.047,128.093 C686.102,128.093 682.093,132.102 682.093,137.047 C682.093,141.991 686.102,146 691.047,146 C695.991,146 700,141.991 700,137.047 Z" />
            <path d="M669.07,137.047 C669.07,139.294 667.248,141.116 665,141.116 C662.752,141.116 660.93,139.294 660.93,137.047 C660.93,134.799 662.752,132.977 665,132.977 C667.248,132.977 669.07,134.799 669.07,137.047 Z M673.953,137.047 C673.953,132.102 669.945,128.093 665,128.093 C660.055,128.093 656.047,132.102 656.047,137.047 C656.047,141.991 660.055,146 665,146 C669.945,146 673.953,141.991 673.953,137.047 Z" />
            <path d="M643.023,137.047 C643.023,139.294 641.201,141.116 638.953,141.116 C636.706,141.116 634.884,139.294 634.884,137.047 C634.884,134.799 636.706,132.977 638.953,132.977 C641.201,132.977 643.023,134.799 643.023,137.047 Z M647.907,137.047 C647.907,132.102 643.898,128.093 638.953,128.093 C634.009,128.093 630,132.102 630,137.047 C630,141.991 634.009,146 638.953,146 C643.898,146 647.907,141.991 647.907,137.047 Z" />
            <path d="M643.023,111 C643.023,113.248 641.201,115.07 638.953,115.07 C636.706,115.07 634.884,113.248 634.884,111 C634.884,108.752 636.706,106.93 638.953,106.93 C641.201,106.93 643.023,108.752 643.023,111 Z M647.907,111 C647.907,106.055 643.898,102.047 638.953,102.047 C634.009,102.047 630,106.055 630,111 C630,115.945 634.009,119.953 638.953,119.953 C643.898,119.953 647.907,115.945 647.907,111 Z" />
            <path d="M669.07,111 C669.07,113.248 667.248,115.07 665,115.07 C662.752,115.07 660.93,113.248 660.93,111 C660.93,108.752 662.752,106.93 665,106.93 C667.248,106.93 669.07,108.752 669.07,111 Z M673.953,111 C673.953,106.055 669.945,102.047 665,102.047 C660.055,102.047 656.047,106.055 656.047,111 C656.047,115.945 660.055,119.953 665,119.953 C669.945,119.953 673.953,115.945 673.953,111 Z" />
        </g>
    </g>
</svg>