<?xml version="1.0" encoding="UTF-8"?>
<svg height="600" width="800" xmlns="http://www.w3.org/2000/svg" xmlns:xlink="http://www.w3.org/1999/xlink">
    <g id="Notes" font-family="'LucidaGrande', 'Lucida Grande', sans-serif" font-size="13">
        <rect fill="white" height="600.0" width="800.0" x="0.0" y="0.0" />
        <g font-size="13">
            <text x="18.0" y="176.0">Small</text>
            <text x="18.0" y="376.0">Medium</text>
            <text x="18.0" y="576.0">Large</text>
        </g>
        <g font-size="9">
            <text x="250.0" y="30.0">Ultralight</text>
            <text x="450.0" y="30.0">Regular</text>
            <text x="650.0" y="30.0">Black</text>
            <text id="template-version" fill="#505050" text-anchor="end" x="785.0" y="575.0">Template v.3.0</text>
            <a href="https://github.com/swhitty/SwiftDraw">
                <text fill="#505050" text-anchor="end" x="785.0" y="590.0">https://github.com/swhitty/SwiftDraw</text>
            </a>
        </g>
    </g>
    <g id="Guides" stroke="rgb(39, 170, 225)" stroke-width="0.5">
        <path id="Capline-S" d="M18,76 l800,0" />
        <path id="H-reference" d="M85,145.755 L87.685,145.755 L113.369,79.287 L114.052,79.287 L114.052,76 L112.148,76 L85,145.755 Z M95.693,121.536 L130.996,121.536 L130.263,119.313 L96.474,119.313 L95.693,121.536 Z M139.15,145.755 L141.787,145.755 L114.638,76 L113.466,76 L113.466,79.287 L139.15,145.755 Z" stroke="none" />
        <path id="Baseline-S" d="M18,146 l800,0" />
        <path id="left-margin-Ultralight-S" d="M221,56 l0,110" />
        <path id="right-margin-Ultralight-S" d="M309,56 l0,110" />
        <path id="left-margin-Regular-S" d="M421,56 l0,110" />
        <path id="right-margin-Regular-S" d="M509,56 l0,110" />
        <path id="left-margin-Black-S" d="M621,56 l0,110" />
        <path id="right-margin-Black-S" d="M709,56 l0,110" />
        <path id="Capline-M" d="M18,276 l800,0" />
        <path id="Baseline-M" d="M18,346 l800,0" />
        <path id="Capline-L" d="M18,476 l800,0" />
        <path id="Baseline-L" d="M18,546 l800,0" />
    </g>
    <g id="Symbols">
        <g id="Ultralight-S">
            <path d="M253.864,83.955 L242.727,83.955 C240.531,83.955 238.75,85.735 238.75,87.932 L238.75,142.023 C238.75,144.219 240.531,146 242.727,146 L287.273,146 C289.469,146 291.25,144.219 291.25,142.023 L291.25,87.932 C291.25,85.735 289.469,83.955 287.273,83.955 L276.136,83.955 L276.136,88.727 L287.273,88.727 C286.833,88.727 286.477,88.371 286.477,87.932 L286.477,142.023 C286.477,141.583 286.833,141.227 287.273,141.227 L242.727,141.227 C243.167,141.227 243.523,141.583 243.523,142.023 L243.523,87.932 C243.523,88.371 243.167,88.727 242.727,88.727 L253.864,88.727 L253.864,83.955 Z" />
            <path d="M256.25,94.295 L256.25,86.341 L253.864,88.727 L260.149,88.727 C261.51,88.727 262.614,87.624 262.614,86.262 L262.614,83.159 C262.614,81.841 263.682,80.773 265,80.773 C266.318,80.773 267.386,81.841 267.386,83.159 L267.386,86.262 C267.386,87.624 268.49,88.727 269.851,88.727 L276.136,88.727 L273.75,86.341 L273.75,94.295 C273.75,93.856 274.106,93.5 274.545,93.5 L255.455,93.5 C255.894,93.5 256.25,93.856 256.25,94.295 Z M251.477,94.295 C251.477,96.492 253.258,98.273 255.455,98.273 L274.545,98.273 C276.742,98.273 278.523,96.492 278.523,94.295 L278.523,86.341 L278.523,83.955 L276.136,83.955 L269.851,83.955 C271.126,83.955 272.159,84.987 272.159,86.262 L272.159,83.159 C272.159,79.205 268.954,76 265,76 C261.046,76 257.841,79.205 257.841,83.159 L257.841,86.262 C257.841,84.987 258.874,83.955 260.149,83.955 L253.864,83.955 L251.477,83.955 L251.477,86.341 L251.477,94.295 Z" />
        </g>
        <g id="Regular-S">
            <path d="M453.864,83.955 L442.727,83.955 C440.531,83.955 438.75,85.735 438.75,87.932 L438.75,142.023 C438.75,144.219 440.531,146 442.727,146 L487.273,146 C489.469,146 491.25,144.219 491.25,142.023 L491.25,87.932 C491.25,85.735 489.469,83.955 487.273,83.955 L476.136,83.955 L476.136,88.727 L487.273,88.727 C486.833,88.727 486.477,88.371 486.477,87.932 L486.477,142.023 C486.477,141.583 486.833,141.227 487.273,141.227 L442.727,141.227 C443.167,141.227 443.523,141.583 443.523,142.023 L443.523,87.932 C443.523,88.371 443.167,88.727 442.727,88.727 L453.864,88.727 L453.864,83.955 Z" />
            <path d="M456.25,94.295 L456.25,86.341 L453.864,88.727 L460.149,88.727 C461.51,88.727 462.614,87.624 462.614,86.262 L462.614,83.159 C462.614,81.841 463.682,80.773 465,80.773 C466.318,80.773 467.386,81.841 467.386,83.159 L467.386,86.262 C467.386,87.624 468.49,88.727 469.851,88.727 L476.136,88.727 L473.75,86.341 L473.75,94.295 C473.75,93.856 474.106,93.5 474.545,93.5 L455.455,93.5 C455.894,93.5 456.25,93.856 456.25,94.295 Z M451.477,94.295 C451.477,96.492 453.258,98.273 455.455,98.273 L474.545,98.273 C476.742,98.273 478.523,96.492 478.523,94.295 L478.523,86.341 L478.523,83.955 L476.136,83.955 L469.851,83.955 C471.126,83.955 472.159,84.987 472.159,86.262 L472.159,83.159 C472.159,79.205 468.954,76 465,76 C461.046,76 457.841,79.205 457.841,83.159 L457.841,86.262 C457.841,84.987 458.874,83.955 460.149,83.955 L453.864,83.955 L451.477,83.955 L451.477,86.341 L451.477,94.295 Z" />
        </g>
        <g id="Black-S">
            <path d="M653.864,83.955 L642.727,83.955 C640.531,83.955 638.75,85.735 638.75,87.932 L638.75,142.023 C638.75,144.219 640.531,146 642.727,146 L687.273,146 C689.469,146 691.25,144.219 691.25,142.023 L691.25,87.932 C691.25,85.735 689.469,83.955 687.273,83.955 L676.136,83.955 L676.136,88.727 L687.273,88.727 C686.833,88.727 686.477,88.371 686.477,87.932 L686.477,142.023 C686.477,141.583 686.833,141.227 687.273,141.227 L642.727,141.227 C643.167,141.227 643.523,141.583 643.523,142.023 L643.523,87.932 C643.523,88.371 643.167,88.727 642.727,88.727 L653.864,88.727 L653.864,83.955 Z" />
            <path d="M656.25,94.295 L656.25,86.341 L653.864,88.727 L660.149,88.727 C661.51,88.727 662.614,87.624 662.614,86.262 L662.614,83.159 C662.614,81.841 663.682,80.773 665,80.773 C666.318,80.773 667.386,81.841 667.386,83.159 L667.386,86.262 C667.386,87.624 668.49,88.727 669.852,88.727 L676.136,88.727 L673.75,86.341 L673.75,94.295 C673.75,93.856 674.106,93.5 674.545,93.5 L655.455,93.5 C655.894,93.5 656.25,93.856 656.25,94.295 Z M651.477,94.295 C651.477,96.492 653.258,98.273 655.455,98.273 L674.545,98.273 C676.742,98.273 678.523,96.492 678.523,94.295 L678.523,86.341 L678.523,83.955 L676.136,83.955 L669.852,83.955 C671.126,83.955 672.159,84.987 672.159,86.262 L672.159,83.159 C672.159,79.205 668.954,76 665,76 C661.046,76 657.841,79.205 657.841,83.159 L657.841,86.262 C657.841,84.987 658.874,83.955 660.149,83.955 L653.864,83.955 L651.477,83.955 L651.477,86.341 L651.477,94.295 Z" />
        </g>
    </g>
</svg>