<?xml version="1.0" encoding="UTF-8"?>
<svg height="600" width="800" xmlns="http://www.w3.org/2000/svg" xmlns:xlink="http://www.w3.org/1999/xlink">
    <g id="Notes" font-family="'LucidaGrande', 'Lucida Grande', sans-serif" font-size="13">
        <rect fill="white" height="600.0" width="800.0" x="0.0" y="0.0" />
        <g font-size="13">
            <text x="18.0" y="176.0">Small</text>
            <text x="18.0" y="376.0">Medium</text>
            <text x="18.0" y="576.0">Large</text>
        </g>
        <g font-size="9">
            <text x="250.0" y="30.0">Ultralight</text>
            <text x="450.0" y="30.0">Regular</text>
            <text x="650.0" y="30.0">Black</text>
            <text id="template-version" fill="#505050" text-anchor="end" x="785.0" y="575.0">Template v.3.0</text>
            <a href="https://github.com/swhitty/SwiftDraw">
                <text fill="#505050" text-anchor="end" x="785.0" y="590.0">https://github.com/swhitty/SwiftDraw</text>
            </a>
        </g>
    </g>
    <g id="Guides" stroke="rgb(39, 170, 225)" stroke-width="0.5">
        <path id="Capline-S" d="M18,76 l800,0" />
        <path id="H-reference" d="M85,145.755 L87.685,145.755 L113.369,79.287 L114.052,79.287 L114.052,76 L112.148,76 L85,145.755 Z M95.693,121.536 L130.996,121.536 L130.263,119.313 L96.474,119.313 L95.693,121.536 Z M139.15,145.755 L141.787,145.755 L114.638,76 L113.466,76 L113.466,79.287 L139.15,145.755 Z" stroke="none" />
        <path id="Baseline-S" d="M18,146 l800,0" />
        <path id="left-margin-Ultralight-S" d="M221,56 l0,110" />
        <path id="right-margin-Ultralight-S" d="M309,56 l0,110" />
        <path id="left-margin-Regular-S" d="M421,56 l0,110" />
        <path id="right-margin-Regular-S" d="M509,56 l0,110" />
        <path id="left-margin-Black-S" d="M621,56 l0,110" />
        <path id="right-margin-Black-S" d="M709,56 l0,110" />
        <path id="Capline-M" d="M18,276 l800,0" />
        <path id="Baseline-M" d="M18,346 l800,0" />
        <path id="Capline-L" d="M18,476 l800,0" />
        <path id="Baseline-L" d="M18,546 l800,0" />
    </g>
    <g id="Symbols">
        <g id="Ultralight-S">
            <path d="M267.589,141.116 L266.132,141.116 C258.474,141.116 251.331,137.257 247.134,130.851 L243.56,125.396 C241.699,122.556 242.249,118.774 244.84,116.582 L248.564,113.431 C249.537,112.607 250.098,111.397 250.098,110.123 L250.098,83.733 C250.098,82.159 251.374,80.884 252.947,80.884 C254.52,80.884 255.796,82.159 255.796,83.733 L255.796,98.384 L260.68,98.384 C260.68,96.81 261.955,95.535 263.528,95.535 C265.102,95.535 266.377,96.81 266.377,98.384 L266.377,100.826 L271.261,100.826 C271.261,99.252 272.536,97.977 274.11,97.977 C275.683,97.977 276.959,99.252 276.959,100.826 L276.959,107.337 L281.842,107.337 C281.842,105.764 283.118,104.488 284.691,104.488 C286.264,104.488 287.54,105.764 287.54,107.337 L287.54,123.972 C287.54,126.165 286.878,128.306 285.64,130.115 L284.055,132.431 C280.336,137.866 274.175,141.116 267.589,141.116 Z M267.589,146 C275.787,146 283.456,141.955 288.085,135.189 L289.67,132.873 C291.464,130.251 292.424,127.149 292.424,123.972 L292.424,107.337 C292.424,103.067 288.962,99.605 284.691,99.605 C280.421,99.605 276.959,103.067 276.959,107.337 C276.959,110.593 281.842,110.593 281.842,107.337 L281.842,100.826 C281.842,96.555 278.38,93.093 274.11,93.093 C269.839,93.093 266.377,96.555 266.377,100.826 C266.377,104.081 271.261,104.081 271.261,100.826 L271.261,98.384 C271.261,94.113 267.799,90.651 263.528,90.651 C259.258,90.651 255.796,94.113 255.796,98.384 C255.796,101.64 260.68,101.64 260.68,98.384 L260.68,83.733 C260.68,79.462 257.217,76 252.947,76 C248.676,76 245.214,79.462 245.214,83.733 L245.214,110.123 C245.214,109.961 245.286,109.807 245.409,109.703 L241.686,112.853 C237.211,116.64 236.262,123.169 239.475,128.072 L243.049,133.527 C248.148,141.311 256.827,146 266.132,146 L267.589,146 Z" />
        </g>
        <g id="Regular-S">
            <path d="M467.589,141.116 L466.132,141.116 C458.474,141.116 451.331,137.257 447.134,130.851 L443.56,125.396 C441.699,122.556 442.249,118.774 444.84,116.582 L448.564,113.431 C449.537,112.607 450.098,111.397 450.098,110.123 L450.098,83.733 C450.098,82.159 451.374,80.884 452.947,80.884 C454.52,80.884 455.796,82.159 455.796,83.733 L455.796,98.384 L460.68,98.384 C460.68,96.81 461.955,95.535 463.528,95.535 C465.102,95.535 466.377,96.81 466.377,98.384 L466.377,100.826 L471.261,100.826 C471.261,99.252 472.536,97.977 474.11,97.977 C475.683,97.977 476.959,99.252 476.959,100.826 L476.959,107.337 L481.842,107.337 C481.842,105.764 483.118,104.488 484.691,104.488 C486.264,104.488 487.54,105.764 487.54,107.337 L487.54,123.972 C487.54,126.165 486.878,128.306 485.64,130.115 L484.055,132.431 C480.336,137.866 474.175,141.116 467.589,141.116 Z M467.589,146 C475.787,146 483.456,141.955 488.085,135.189 L489.67,132.873 C491.464,130.251 492.424,127.149 492.424,123.972 L492.424,107.337 C492.424,103.067 488.962,99.605 484.691,99.605 C480.421,99.605 476.959,103.067 476.959,107.337 C476.959,110.593 481.842,110.593 481.842,107.337 L481.842,100.826 C481.842,96.555 478.38,93.093 474.11,93.093 C469.839,93.093 466.377,96.555 466.377,100.826 C466.377,104.081 471.261,104.081 471.261,100.826 L471.261,98.384 C471.261,94.113 467.799,90.651 463.528,90.651 C459.258,90.651 455.796,94.113 455.796,98.384 C455.796,101.64 460.68,101.64 460.68,98.384 L460.68,83.733 C460.68,79.462 457.217,76 452.947,76 C448.676,76 445.214,79.462 445.214,83.733 L445.214,110.123 C445.214,109.961 445.286,109.807 445.409,109.703 L441.686,112.853 C437.211,116.64 436.262,123.169 439.475,128.072 L443.049,133.527 C448.148,141.311 456.827,146 466.132,146 L467.589,146 Z" />
        </g>
        <g id="Black-S">
            <path d="M667.589,141.116 L666.132,141.116 C658.474,141.116 651.331,137.257 647.134,130.851 L643.56,125.396 C641.699,122.556 642.248,118.774 644.84,116.582 L648.564,113.431 C649.537,112.607 650.098,111.397 650.098,110.123 L650.098,83.733 C650.098,82.159 651.374,80.884 652.947,80.884 C654.52,80.884 655.796,82.159 655.796,83.733 L655.796,98.384 L660.68,98.384 C660.68,96.81 661.955,95.535 663.528,95.535 C665.102,95.535 666.377,96.81 666.377,98.384 L666.377,100.826 L671.261,100.826 C671.261,99.252 672.536,97.977 674.11,97.977 C675.683,97.977 676.959,99.252 676.959,100.826 L676.959,107.337 L681.842,107.337 C681.842,105.764 683.118,104.488 684.691,104.488 C686.264,104.488 687.54,105.764 687.54,107.337 L687.54,123.972 C687.54,126.165 686.878,128.306 685.64,130.115 L684.055,132.431 C680.336,137.866 674.175,141.116 667.589,141.116 Z M667.589,146 C675.787,146 683.456,141.955 688.085,135.189 L689.67,132.873 C691.464,130.251 692.424,127.149 692.424,123.972 L692.424,107.337 C692.424,103.067 688.962,99.605 684.691,99.605 C680.421,99.605 676.959,103.067 676.959,107.337 C676.959,110.593 681.842,110.593 681.842,107.337 L681.842,100.826 C681.842,96.555 678.38,93.093 674.11,93.093 C669.839,93.093 666.377,96.555 666.377,100.826 C666.377,104.081 671.261,104.081 671.261,100.826 L671.261,98.384 C671.261,94.113 667.799,90.651 663.528,90.651 C659.258,90.651 655.796,94.113 655.796,98.384 C655.796,101.64 660.68,101.64 660.68,98.384 L660.68,83.733 C660.68,79.462 657.217,76 652.947,76 C648.676,76 645.214,79.462 645.214,83.733 L645.214,110.123 C645.214,109.961 645.286,109.807 645.409,109.703 L641.686,112.853 C637.211,116.64 636.262,123.169 639.475,128.072 L643.049,133.527 C648.148,141.311 656.827,146 666.132,146 L667.589,146 Z" />
        </g>
    </g>
</svg>