<?xml version="1.0" encoding="UTF-8"?>
<svg height="600" width="800" xmlns="http://www.w3.org/2000/svg" xmlns:xlink="http://www.w3.org/1999/xlink">
    <g id="Notes" font-family="'LucidaGrande', 'Lucida Grande', sans-serif" font-size="13">
        <rect fill="white" height="600.0" width="800.0" x="0.0" y="0.0" />
        <g font-size="13">
            <text x="18.0" y="176.0">Small</text>
            <text x="18.0" y="376.0">Medium</text>
            <text x="18.0" y="576.0">Large</text>
        </g>
        <g font-size="9">
            <text x="250.0" y="30.0">Ultralight</text>
            <text x="450.0" y="30.0">Regular</text>
            <text x="650.0" y="30.0">Black</text>
            <text id="template-version" fill="#505050" text-anchor="end" x="785.0" y="575.0">Template v.3.0</text>
            <a href="https://github.com/swhitty/SwiftDraw">
                <text fill="#505050" text-anchor="end" x="785.0" y="590.0">https://github.com/swhitty/SwiftDraw</text>
            </a>
        </g>
    </g>
    <g id="Guides" stroke="rgb(39, 170, 225)" stroke-width="0.5">
        <path id="Capline-S" d="M18,76 l800,0" />
        <path id="H-reference" d="M85,145.755 L87.685,145.755 L113.369,79.287 L114.052,79.287 L114.052,76 L112.148,76 L85,145.755 Z M95.693,121.536 L130.996,121.536 L130.263,119.313 L96.474,119.313 L95.693,121.536 Z M139.15,145.755 L141.787,145.755 L114.638,76 L113.466,76 L113.466,79.287 L139.15,145.755 Z" stroke="none" />
        <path id="Baseline-S" d="M18,146 l800,0" />
        <path id="left-margin-Ultralight-S" d="M220.9,56 l0,110" />
        <path id="right-margin-Ultralight-S" d="M309.1,56 l0,110" />
        <path id="left-margin-Regular-S" d="M420.9,56 l0,110" />
        <path id="right-margin-Regular-S" d="M509.1,56 l0,110" />
        <path id="left-margin-Black-S" d="M620.899,56 l0,110" />
        <path id="right-margin-Black-S" d="M709.101,56 l0,110" />
        <path id="Capline-M" d="M18,276 l800,0" />
        <path id="Baseline-M" d="M18,346 l800,0" />
        <path id="Capline-L" d="M18,476 l800,0" />
        <path id="Baseline-L" d="M18,546 l800,0" />
    </g>
    <g id="Symbols">
        <g id="Ultralight-S">
            <path d="M261.935,133.764 L280.149,145.379 C281.806,146.436 283.977,145.246 283.977,143.28 L283.977,111.749 L282.886,113.809 C296.507,104.561 301.819,95.495 297.783,86.751 C292.81,75.976 284.286,73.83 275.459,77.965 C270.757,80.168 267.632,85.809 265.769,94.711 L270.459,94.162 C265.035,82.619 257.137,76.634 246.963,76.634 C239.732,76.634 234.762,80.554 232.364,86.793 C230.558,91.493 230.44,97.352 231.912,100.319 C234.202,104.938 236.607,107.397 245.146,113.747 L244.142,111.733 C244.007,132.528 244.769,142.379 247.42,144.614 C252.453,148.516 258.24,144.031 265.364,133.017 L261.935,133.764 Z M264.612,129.566 C263.459,128.83 261.927,129.164 261.184,130.313 C255.619,138.916 251.906,141.794 250.549,140.743 C250.777,140.932 250.777,140.932 250.73,140.815 C250.605,140.507 250.471,140.044 250.342,139.439 C250.054,138.094 249.81,136.17 249.618,133.691 C249.226,128.613 249.059,121.298 249.121,111.766 C249.126,110.973 248.754,110.225 248.117,109.752 C240.153,103.829 238.24,101.872 236.372,98.106 C235.581,96.51 235.669,92.071 237.011,88.579 C238.712,84.155 241.935,81.613 246.963,81.613 C255.028,81.613 261.291,86.36 265.952,96.279 C266.969,98.442 270.153,98.07 270.642,95.731 C272.216,88.211 274.631,83.851 277.571,82.474 C284.082,79.424 289.554,80.801 293.262,88.837 C295.986,94.739 291.94,101.643 280.089,109.69 C279.406,110.153 278.998,110.924 278.998,111.749 L278.998,143.28 L282.826,141.181 L264.612,129.566 Z" />
            <path d="M267.376,113.409 L267.376,123.367 C267.376,124.742 268.491,125.856 269.865,125.856 C271.24,125.856 272.355,124.742 272.355,123.367 L272.355,113.409 C272.355,112.034 271.24,110.92 269.865,110.92 C268.491,110.92 267.376,112.034 267.376,113.409 Z" />
        </g>
        <g id="Regular-S">
            <path d="M461.935,133.764 L480.149,145.379 C481.806,146.436 483.977,145.246 483.977,143.28 L483.977,111.749 L482.886,113.809 C496.507,104.561 501.819,95.495 497.783,86.751 C492.81,75.976 484.286,73.83 475.459,77.965 C470.757,80.168 467.632,85.809 465.769,94.711 L470.459,94.162 C465.035,82.619 457.137,76.634 446.963,76.634 C439.732,76.634 434.762,80.554 432.364,86.793 C430.558,91.493 430.44,97.352 431.912,100.319 C434.202,104.938 436.607,107.397 445.146,113.747 L444.142,111.733 C444.007,132.528 444.769,142.379 447.42,144.614 C452.453,148.516 458.24,144.031 465.364,133.017 L461.935,133.764 Z M464.612,129.566 C463.459,128.83 461.927,129.164 461.184,130.313 C455.619,138.916 451.906,141.794 450.549,140.743 C450.777,140.932 450.777,140.932 450.729,140.815 C450.605,140.507 450.471,140.044 450.342,139.439 C450.054,138.094 449.81,136.17 449.618,133.691 C449.226,128.613 449.059,121.298 449.121,111.766 C449.126,110.973 448.754,110.225 448.117,109.752 C440.153,103.829 438.24,101.872 436.372,98.106 C435.581,96.51 435.669,92.071 437.011,88.579 C438.712,84.155 441.935,81.613 446.963,81.613 C455.028,81.613 461.291,86.36 465.952,96.279 C466.969,98.442 470.153,98.07 470.642,95.731 C472.216,88.211 474.631,83.851 477.571,82.474 C484.082,79.424 489.554,80.801 493.262,88.837 C495.986,94.739 491.94,101.643 480.089,109.69 C479.406,110.153 478.998,110.924 478.998,111.749 L478.998,143.28 L482.826,141.181 L464.612,129.566 Z" />
            <path d="M467.376,113.409 L467.376,123.367 C467.376,124.742 468.491,125.856 469.865,125.856 C471.24,125.856 472.355,124.742 472.355,123.367 L472.355,113.409 C472.355,112.034 471.24,110.92 469.865,110.92 C468.491,110.92 467.376,112.034 467.376,113.409 Z" />
        </g>
        <g id="Black-S">
            <path d="M661.935,133.764 L680.149,145.379 C681.806,146.436 683.977,145.246 683.977,143.28 L683.977,111.749 L682.885,113.809 C696.507,104.561 701.819,95.495 697.783,86.751 C692.81,75.976 684.286,73.83 675.459,77.965 C670.757,80.168 667.632,85.809 665.769,94.711 L670.459,94.162 C665.035,82.619 657.137,76.634 646.963,76.634 C639.732,76.634 634.762,80.554 632.364,86.793 C630.558,91.493 630.44,97.352 631.912,100.319 C634.202,104.938 636.607,107.397 645.146,113.747 L644.142,111.733 C644.007,132.528 644.769,142.379 647.42,144.614 C652.453,148.516 658.24,144.031 665.364,133.017 L661.935,133.764 Z M664.612,129.566 C663.459,128.83 661.927,129.164 661.184,130.313 C655.619,138.916 651.906,141.794 650.549,140.743 C650.777,140.932 650.777,140.932 650.729,140.815 C650.605,140.507 650.471,140.044 650.342,139.439 C650.054,138.094 649.81,136.17 649.618,133.691 C649.226,128.613 649.059,121.298 649.121,111.766 C649.126,110.973 648.754,110.225 648.117,109.752 C640.153,103.829 638.24,101.872 636.372,98.106 C635.581,96.51 635.669,92.071 637.011,88.579 C638.712,84.155 641.935,81.613 646.963,81.613 C655.028,81.613 661.291,86.36 665.952,96.279 C666.969,98.442 670.153,98.07 670.642,95.731 C672.216,88.211 674.631,83.851 677.571,82.474 C684.082,79.424 689.554,80.801 693.262,88.837 C695.986,94.739 691.94,101.643 680.089,109.69 C679.406,110.153 678.998,110.924 678.998,111.749 L678.998,143.28 L682.826,141.181 L664.612,129.566 Z" />
            <path d="M667.376,113.409 L667.376,123.367 C667.376,124.742 668.491,125.856 669.865,125.856 C671.24,125.856 672.355,124.742 672.355,123.367 L672.355,113.409 C672.355,112.034 671.24,110.92 669.865,110.92 C668.491,110.92 667.376,112.034 667.376,113.409 Z" />
        </g>
    </g>
</svg>