<?xml version="1.0" encoding="UTF-8"?>
<svg height="600" width="800" xmlns="http://www.w3.org/2000/svg" xmlns:xlink="http://www.w3.org/1999/xlink">
    <g id="Notes" font-family="'LucidaGrande', 'Lucida Grande', sans-serif" font-size="13">
        <rect fill="white" height="600.0" width="800.0" x="0.0" y="0.0" />
        <g font-size="13">
            <text x="18.0" y="176.0">Small</text>
            <text x="18.0" y="376.0">Medium</text>
            <text x="18.0" y="576.0">Large</text>
        </g>
        <g font-size="9">
            <text x="250.0" y="30.0">Ultralight</text>
            <text x="450.0" y="30.0">Regular</text>
            <text x="650.0" y="30.0">Black</text>
            <text id="template-version" fill="#505050" text-anchor="end" x="785.0" y="575.0">Template v.3.0</text>
            <a href="https://github.com/swhitty/SwiftDraw">
                <text fill="#505050" text-anchor="end" x="785.0" y="590.0">https://github.com/swhitty/SwiftDraw</text>
            </a>
        </g>
    </g>
    <g id="Guides" stroke="rgb(39, 170, 225)" stroke-width="0.5">
        <path id="Capline-S" d="M18,76 l800,0" />
        <path id="H-reference" d="M85,145.755 L87.685,145.755 L113.369,79.287 L114.052,79.287 L114.052,76 L112.148,76 L85,145.755 Z M95.693,121.536 L130.996,121.536 L130.263,119.313 L96.474,119.313 L95.693,121.536 Z M139.15,145.755 L141.787,145.755 L114.638,76 L113.466,76 L113.466,79.287 L139.15,145.755 Z" stroke="none" />
        <path id="Baseline-S" d="M18,146 l800,0" />
        <path id="left-margin-Ultralight-S" d="M218.289,56 l0,110" />
        <path id="right-margin-Ultralight-S" d="M311.711,56 l0,110" />
        <path id="left-margin-Regular-S" d="M418.289,56 l0,110" />
        <path id="right-margin-Regular-S" d="M511.711,56 l0,110" />
        <path id="left-margin-Black-S" d="M618.289,56 l0,110" />
        <path id="right-margin-Black-S" d="M711.711,56 l0,110" />
        <path id="Capline-M" d="M18,276 l800,0" />
        <path id="Baseline-M" d="M18,346 l800,0" />
        <path id="Capline-L" d="M18,476 l800,0" />
        <path id="Baseline-L" d="M18,546 l800,0" />
    </g>
    <g id="Symbols">
        <g id="Ultralight-S">
            <path d="M233.199,144.466 L257.102,89.831 L252.392,89.79 L269.465,130.765 C270.375,132.951 273.51,132.836 274.258,130.59 L281.088,110.103 L276.462,110.61 L296.95,144.757 L299.146,140.878 L230.853,140.878 L233.199,144.466 Z M228.507,142.413 C227.767,144.105 229.006,146 230.853,146 L299.146,146 C301.136,146 302.366,143.828 301.342,142.121 L280.854,107.975 C279.728,106.099 276.92,106.407 276.228,108.483 L269.399,128.971 L274.193,128.796 L257.12,87.82 C256.252,85.739 253.313,85.713 252.409,87.778 L228.507,142.413 Z" />
            <path d="M287.195,98.195 C293.324,98.195 298.292,93.227 298.292,87.098 C298.292,80.969 293.324,76 287.195,76 C281.066,76 276.097,80.969 276.097,87.098 C276.097,93.227 281.066,98.195 287.195,98.195 Z M287.195,93.073 C283.894,93.073 281.219,90.398 281.219,87.098 C281.219,83.797 283.894,81.122 287.195,81.122 C290.495,81.122 293.17,83.797 293.17,87.098 C293.17,90.398 290.495,93.073 287.195,93.073 Z" />
        </g>
        <g id="Regular-S">
            <path d="M433.199,144.466 L457.102,89.831 L452.392,89.79 L469.465,130.765 C470.375,132.951 473.51,132.836 474.258,130.59 L481.088,110.103 L476.462,110.61 L496.95,144.757 L499.146,140.878 L430.853,140.878 L433.199,144.466 Z M428.507,142.413 C427.767,144.105 429.006,146 430.853,146 L499.146,146 C501.136,146 502.366,143.828 501.342,142.121 L480.854,107.975 C479.728,106.099 476.92,106.407 476.228,108.483 L469.399,128.971 L474.193,128.796 L457.12,87.82 C456.252,85.739 453.313,85.713 452.409,87.778 L428.507,142.413 Z" />
            <path d="M487.195,98.195 C493.324,98.195 498.292,93.227 498.292,87.098 C498.292,80.969 493.324,76 487.195,76 C481.066,76 476.097,80.969 476.097,87.098 C476.097,93.227 481.066,98.195 487.195,98.195 Z M487.195,93.073 C483.894,93.073 481.219,90.398 481.219,87.098 C481.219,83.797 483.894,81.122 487.195,81.122 C490.495,81.122 493.17,83.797 493.17,87.098 C493.17,90.398 490.495,93.073 487.195,93.073 Z" />
        </g>
        <g id="Black-S">
            <path d="M633.199,144.466 L657.102,89.831 L652.392,89.79 L669.465,130.765 C670.375,132.951 673.51,132.836 674.258,130.59 L681.088,110.103 L676.462,110.61 L696.95,144.757 L699.146,140.878 L630.853,140.878 L633.199,144.466 Z M628.507,142.413 C627.767,144.105 629.006,146 630.853,146 L699.146,146 C701.136,146 702.366,143.828 701.342,142.121 L680.854,107.975 C679.728,106.099 676.92,106.407 676.228,108.483 L669.399,128.971 L674.193,128.796 L657.12,87.82 C656.252,85.739 653.313,85.713 652.409,87.778 L628.507,142.413 Z" />
            <path d="M687.195,98.195 C693.323,98.195 698.292,93.227 698.292,87.098 C698.292,80.969 693.323,76 687.195,76 C681.066,76 676.097,80.969 676.097,87.098 C676.097,93.227 681.066,98.195 687.195,98.195 Z M687.195,93.073 C683.894,93.073 681.219,90.398 681.219,87.098 C681.219,83.797 683.894,81.122 687.195,81.122 C690.495,81.122 693.17,83.797 693.17,87.098 C693.17,90.398 690.495,93.073 687.195,93.073 Z" />
        </g>
    </g>
</svg>