<?xml version="1.0" encoding="UTF-8"?>
<svg height="600" width="800" xmlns="http://www.w3.org/2000/svg" xmlns:xlink="http://www.w3.org/1999/xlink">
    <g id="Notes" font-family="'LucidaGrande', 'Lucida Grande', sans-serif" font-size="13">
        <rect fill="white" height="600.0" width="800.0" x="0.0" y="0.0" />
        <g font-size="13">
            <text x="18.0" y="176.0">Small</text>
            <text x="18.0" y="376.0">Medium</text>
            <text x="18.0" y="576.0">Large</text>
        </g>
        <g font-size="9">
            <text x="250.0" y="30.0">Ultralight</text>
            <text x="450.0" y="30.0">Regular</text>
            <text x="650.0" y="30.0">Black</text>
            <text id="template-version" fill="#505050" text-anchor="end" x="785.0" y="575.0">Template v.3.0</text>
            <a href="https://github.com/swhitty/SwiftDraw">
                <text fill="#505050" text-anchor="end" x="785.0" y="590.0">https://github.com/swhitty/SwiftDraw</text>
            </a>
        </g>
    </g>
    <g id="Guides" stroke="rgb(39, 170, 225)" stroke-width="0.5">
        <path id="Capline-S" d="M18,76 l800,0" />
        <path id="H-reference" d="M85,145.755 L87.685,145.755 L113.369,79.287 L114.052,79.287 L114.052,76 L112.148,76 L85,145.755 Z M95.693,121.536 L130.996,121.536 L130.263,119.313 L96.474,119.313 L95.693,121.536 Z M139.15,145.755 L141.787,145.755 L114.638,76 L113.466,76 L113.466,79.287 L139.15,145.755 Z" stroke="none" />
        <path id="Baseline-S" d="M18,146 l800,0" />
        <path id="left-margin-Ultralight-S" d="M211,56 l0,110" />
        <path id="right-margin-Ultralight-S" d="M319,56 l0,110" />
        <path id="left-margin-Regular-S" d="M411,56 l0,110" />
        <path id="right-margin-Regular-S" d="M519,56 l0,110" />
        <path id="left-margin-Black-S" d="M611,56 l0,110" />
        <path id="right-margin-Black-S" d="M719,56 l0,110" />
        <path id="Capline-M" d="M18,276 l800,0" />
        <path id="Baseline-M" d="M18,346 l800,0" />
        <path id="Capline-L" d="M18,476 l800,0" />
        <path id="Baseline-L" d="M18,546 l800,0" />
    </g>
    <g id="Symbols">
        <g id="Ultralight-S">
            <path d="M222.823,87.201 C222.995,87.277 223.304,87.409 223.744,87.589 C224.46,87.882 225.293,88.206 226.236,88.554 C228.913,89.542 231.945,90.528 235.277,91.448 C244.799,94.074 254.851,95.651 265,95.651 C275.149,95.651 285.201,94.074 294.723,91.448 C298.055,90.528 301.087,89.542 303.764,88.554 C304.707,88.206 305.54,87.882 306.256,87.589 C306.696,87.409 307.005,87.277 307.177,87.201 L302.86,84.395 L302.86,137.605 L307.177,134.799 C307.005,134.723 306.696,134.591 306.256,134.411 C305.54,134.118 304.707,133.794 303.764,133.446 C301.087,132.458 298.055,131.472 294.723,130.552 C285.201,127.926 275.149,126.349 265,126.349 C254.851,126.349 244.799,127.926 235.277,130.552 C231.945,131.472 228.913,132.458 226.236,133.446 C225.293,133.794 224.46,134.118 223.744,134.411 C223.304,134.591 222.995,134.723 222.823,134.799 L227.14,137.605 L227.14,84.395 L222.823,87.201 Z M225.317,81.59 C223.287,80.688 221,82.174 221,84.395 L221,137.605 C221,139.826 223.287,141.312 225.317,140.41 C225.433,140.358 225.685,140.25 226.067,140.094 C226.719,139.828 227.487,139.529 228.363,139.205 C230.882,138.275 233.75,137.342 236.909,136.471 C245.934,133.981 255.452,132.488 265,132.488 C274.548,132.488 284.066,133.981 293.091,136.471 C296.25,137.342 299.118,138.275 301.637,139.205 C302.513,139.529 303.281,139.828 303.933,140.094 C304.315,140.25 304.567,140.358 304.684,140.41 C306.714,141.312 309,139.826 309,137.605 L309,84.395 C309,82.174 306.714,80.688 304.684,81.59 C304.567,81.642 304.315,81.75 303.933,81.906 C303.281,82.172 302.513,82.471 301.637,82.795 C299.118,83.725 296.25,84.658 293.091,85.529 C284.066,88.019 274.548,89.512 265,89.512 C255.452,89.512 245.934,88.019 236.909,85.529 C233.75,84.658 230.882,83.725 228.363,82.795 C227.487,82.471 226.719,82.172 226.067,81.906 C225.685,81.75 225.433,81.642 225.317,81.59 Z" />
        </g>
        <g id="Regular-S">
            <path d="M422.823,87.201 C422.995,87.277 423.304,87.409 423.744,87.589 C424.46,87.882 425.293,88.206 426.236,88.554 C428.913,89.542 431.945,90.528 435.277,91.448 C444.799,94.074 454.851,95.651 465,95.651 C475.149,95.651 485.201,94.074 494.723,91.448 C498.055,90.528 501.087,89.542 503.764,88.554 C504.707,88.206 505.54,87.882 506.256,87.589 C506.696,87.409 507.005,87.277 507.177,87.201 L502.86,84.395 L502.86,137.605 L507.177,134.799 C507.005,134.723 506.696,134.591 506.256,134.411 C505.54,134.118 504.707,133.794 503.764,133.446 C501.087,132.458 498.055,131.472 494.723,130.552 C485.201,127.926 475.149,126.349 465,126.349 C454.851,126.349 444.799,127.926 435.277,130.552 C431.945,131.472 428.913,132.458 426.236,133.446 C425.293,133.794 424.46,134.118 423.744,134.411 C423.304,134.591 422.995,134.723 422.823,134.799 L427.14,137.605 L427.14,84.395 L422.823,87.201 Z M425.317,81.59 C423.287,80.688 421,82.174 421,84.395 L421,137.605 C421,139.826 423.287,141.312 425.317,140.41 C425.433,140.358 425.685,140.25 426.067,140.094 C426.719,139.828 427.487,139.529 428.363,139.205 C430.882,138.275 433.75,137.342 436.909,136.471 C445.934,133.981 455.452,132.488 465,132.488 C474.548,132.488 484.066,133.981 493.091,136.471 C496.25,137.342 499.118,138.275 501.637,139.205 C502.513,139.529 503.281,139.828 503.933,140.094 C504.315,140.25 504.567,140.358 504.684,140.41 C506.714,141.312 509,139.826 509,137.605 L509,84.395 C509,82.174 506.714,80.688 504.684,81.59 C504.567,81.642 504.315,81.75 503.933,81.906 C503.281,82.172 502.513,82.471 501.637,82.795 C499.118,83.725 496.25,84.658 493.091,85.529 C484.066,88.019 474.548,89.512 465,89.512 C455.452,89.512 445.934,88.019 436.909,85.529 C433.75,84.658 430.882,83.725 428.363,82.795 C427.487,82.471 426.719,82.172 426.067,81.906 C425.685,81.75 425.433,81.642 425.317,81.59 Z" />
        </g>
        <g id="Black-S">
            <path d="M622.823,87.201 C622.995,87.277 623.304,87.409 623.744,87.589 C624.46,87.882 625.293,88.206 626.236,88.554 C628.913,89.542 631.945,90.528 635.277,91.448 C644.799,94.074 654.851,95.651 665,95.651 C675.149,95.651 685.201,94.074 694.723,91.448 C698.055,90.528 701.087,89.542 703.764,88.554 C704.707,88.206 705.54,87.882 706.256,87.589 C706.696,87.409 707.005,87.277 707.177,87.201 L702.86,84.395 L702.86,137.605 L707.177,134.799 C707.005,134.723 706.696,134.591 706.256,134.411 C705.54,134.118 704.707,133.794 703.764,133.446 C701.087,132.458 698.055,131.472 694.723,130.552 C685.201,127.926 675.149,126.349 665,126.349 C654.851,126.349 644.799,127.926 635.277,130.552 C631.945,131.472 628.913,132.458 626.236,133.446 C625.293,133.794 624.46,134.118 623.744,134.411 C623.304,134.591 622.995,134.723 622.823,134.799 L627.14,137.605 L627.14,84.395 L622.823,87.201 Z M625.317,81.59 C623.286,80.688 621,82.174 621,84.395 L621,137.605 C621,139.826 623.286,141.312 625.317,140.41 C625.433,140.358 625.685,140.25 626.067,140.094 C626.719,139.828 627.487,139.529 628.363,139.205 C630.882,138.275 633.75,137.342 636.909,136.471 C645.934,133.981 655.452,132.488 665,132.488 C674.548,132.488 684.066,133.981 693.091,136.471 C696.25,137.342 699.118,138.275 701.637,139.205 C702.513,139.529 703.281,139.828 703.933,140.094 C704.315,140.25 704.567,140.358 704.683,140.41 C706.714,141.312 709,139.826 709,137.605 L709,84.395 C709,82.174 706.714,80.688 704.683,81.59 C704.567,81.642 704.315,81.75 703.933,81.906 C703.281,82.172 702.513,82.471 701.637,82.795 C699.118,83.725 696.25,84.658 693.091,85.529 C684.066,88.019 674.548,89.512 665,89.512 C655.452,89.512 645.934,88.019 636.909,85.529 C633.75,84.658 630.882,83.725 628.363,82.795 C627.487,82.471 626.719,82.172 626.067,81.906 C625.685,81.75 625.433,81.642 625.317,81.59 Z" />
        </g>
    </g>
</svg>