<?xml version="1.0" encoding="UTF-8"?>
<svg height="600" width="800" xmlns="http://www.w3.org/2000/svg" xmlns:xlink="http://www.w3.org/1999/xlink">
    <g id="Notes" font-family="'LucidaGrande', 'Lucida Grande', sans-serif" font-size="13">
        <rect fill="white" height="600.0" width="800.0" x="0.0" y="0.0" />
        <g font-size="13">
            <text x="18.0" y="176.0">Small</text>
            <text x="18.0" y="376.0">Medium</text>
            <text x="18.0" y="576.0">Large</text>
        </g>
        <g font-size="9">
            <text x="250.0" y="30.0">Ultralight</text>
            <text x="450.0" y="30.0">Regular</text>
            <text x="650.0" y="30.0">Black</text>
            <text id="template-version" fill="#505050" text-anchor="end" x="785.0" y="575.0">Template v.3.0</text>
            <a href="https://github.com/swhitty/SwiftDraw">
                <text fill="#505050" text-anchor="end" x="785.0" y="590.0">https://github.com/swhitty/SwiftDraw</text>
            </a>
        </g>
    </g>
    <g id="Guides" stroke="rgb(39, 170, 225)" stroke-width="0.5">
        <path id="Capline-S" d="M18,76 l800,0" />
        <path id="H-reference" d="M85,145.755 L87.685,145.755 L113.369,79.287 L114.052,79.287 L114.052,76 L112.148,76 L85,145.755 Z M95.693,121.536 L130.996,121.536 L130.263,119.313 L96.474,119.313 L95.693,121.536 Z M139.15,145.755 L141.787,145.755 L114.638,76 L113.466,76 L113.466,79.287 L139.15,145.755 Z" stroke="none" />
        <path id="Baseline-S" d="M18,146 l800,0" />
        <path id="left-margin-Ultralight-S" d="M221,56 l0,110" />
        <path id="right-margin-Ultralight-S" d="M309,56 l0,110" />
        <path id="left-margin-Regular-S" d="M421,56 l0,110" />
        <path id="right-margin-Regular-S" d="M509,56 l0,110" />
        <path id="left-margin-Black-S" d="M621,56 l0,110" />
        <path id="right-margin-Black-S" d="M709,56 l0,110" />
        <path id="Capline-M" d="M18,276 l800,0" />
        <path id="Baseline-M" d="M18,346 l800,0" />
        <path id="Capline-L" d="M18,476 l800,0" />
        <path id="Baseline-L" d="M18,546 l800,0" />
    </g>
    <g id="Symbols">
        <g id="Ultralight-S">
            <path d="M233.256,78.442 L233.256,143.558 C233.256,144.907 234.349,146 235.698,146 C237.046,146 238.14,144.907 238.14,143.558 L238.14,78.442 C238.14,77.093 237.046,76 235.698,76 C234.349,76 233.256,77.093 233.256,78.442 Z" />
            <path d="M285.349,78.442 L285.349,84.953 C285.349,86.302 286.442,87.395 287.791,87.395 C289.139,87.395 290.233,86.302 290.233,84.953 L290.233,78.442 C290.233,77.093 289.139,76 287.791,76 C286.442,76 285.349,77.093 285.349,78.442 Z" />
            <path d="M285.349,107.744 L285.349,114.256 C285.349,115.604 286.442,116.698 287.791,116.698 C289.139,116.698 290.233,115.604 290.233,114.256 L290.233,107.744 C290.233,106.396 289.139,105.302 287.791,105.302 C286.442,105.302 285.349,106.396 285.349,107.744 Z" />
            <path d="M285.349,137.047 L285.349,143.558 C285.349,144.907 286.442,146 287.791,146 C289.139,146 290.233,144.907 290.233,143.558 L290.233,137.047 C290.233,135.698 289.139,134.605 287.791,134.605 C286.442,134.605 285.349,135.698 285.349,137.047 Z" />
            <path d="M248.721,98.791 L294.302,98.791 C295.651,98.791 296.744,97.697 296.744,96.349 C296.744,95 295.651,93.907 294.302,93.907 L248.721,93.907 C247.372,93.907 246.279,95 246.279,96.349 C246.279,97.697 247.372,98.791 248.721,98.791 Z" />
            <path d="M248.721,128.093 L294.302,128.093 C295.651,128.093 296.744,127 296.744,125.651 C296.744,124.303 295.651,123.209 294.302,123.209 L248.721,123.209 C247.372,123.209 246.279,124.303 246.279,125.651 C246.279,127 247.372,128.093 248.721,128.093 Z" />
        </g>
        <g id="Regular-S">
            <path d="M433.256,78.442 L433.256,143.558 C433.256,144.907 434.349,146 435.698,146 C437.046,146 438.14,144.907 438.14,143.558 L438.14,78.442 C438.14,77.093 437.046,76 435.698,76 C434.349,76 433.256,77.093 433.256,78.442 Z" />
            <path d="M485.349,78.442 L485.349,84.953 C485.349,86.302 486.442,87.395 487.791,87.395 C489.139,87.395 490.233,86.302 490.233,84.953 L490.233,78.442 C490.233,77.093 489.139,76 487.791,76 C486.442,76 485.349,77.093 485.349,78.442 Z" />
            <path d="M485.349,107.744 L485.349,114.256 C485.349,115.604 486.442,116.698 487.791,116.698 C489.139,116.698 490.233,115.604 490.233,114.256 L490.233,107.744 C490.233,106.396 489.139,105.302 487.791,105.302 C486.442,105.302 485.349,106.396 485.349,107.744 Z" />
            <path d="M485.349,137.047 L485.349,143.558 C485.349,144.907 486.442,146 487.791,146 C489.139,146 490.233,144.907 490.233,143.558 L490.233,137.047 C490.233,135.698 489.139,134.605 487.791,134.605 C486.442,134.605 485.349,135.698 485.349,137.047 Z" />
            <path d="M448.721,98.791 L494.302,98.791 C495.651,98.791 496.744,97.697 496.744,96.349 C496.744,95 495.651,93.907 494.302,93.907 L448.721,93.907 C447.372,93.907 446.279,95 446.279,96.349 C446.279,97.697 447.372,98.791 448.721,98.791 Z" />
            <path d="M448.721,128.093 L494.302,128.093 C495.651,128.093 496.744,127 496.744,125.651 C496.744,124.303 495.651,123.209 494.302,123.209 L448.721,123.209 C447.372,123.209 446.279,124.303 446.279,125.651 C446.279,127 447.372,128.093 448.721,128.093 Z" />
        </g>
        <g id="Black-S">
            <path d="M633.256,78.442 L633.256,143.558 C633.256,144.907 634.349,146 635.698,146 C637.046,146 638.14,144.907 638.14,143.558 L638.14,78.442 C638.14,77.093 637.046,76 635.698,76 C634.349,76 633.256,77.093 633.256,78.442 Z" />
            <path d="M685.349,78.442 L685.349,84.953 C685.349,86.302 686.442,87.395 687.791,87.395 C689.139,87.395 690.233,86.302 690.233,84.953 L690.233,78.442 C690.233,77.093 689.139,76 687.791,76 C686.442,76 685.349,77.093 685.349,78.442 Z" />
            <path d="M685.349,107.744 L685.349,114.256 C685.349,115.604 686.442,116.698 687.791,116.698 C689.139,116.698 690.233,115.604 690.233,114.256 L690.233,107.744 C690.233,106.396 689.139,105.302 687.791,105.302 C686.442,105.302 685.349,106.396 685.349,107.744 Z" />
            <path d="M685.349,137.047 L685.349,143.558 C685.349,144.907 686.442,146 687.791,146 C689.139,146 690.233,144.907 690.233,143.558 L690.233,137.047 C690.233,135.698 689.139,134.605 687.791,134.605 C686.442,134.605 685.349,135.698 685.349,137.047 Z" />
            <path d="M648.721,98.791 L694.302,98.791 C695.651,98.791 696.744,97.697 696.744,96.349 C696.744,95 695.651,93.907 694.302,93.907 L648.721,93.907 C647.372,93.907 646.279,95 646.279,96.349 C646.279,97.697 647.372,98.791 648.721,98.791 Z" />
            <path d="M648.721,128.093 L694.302,128.093 C695.651,128.093 696.744,127 696.744,125.651 C696.744,124.303 695.651,123.209 694.302,123.209 L648.721,123.209 C647.372,123.209 646.279,124.303 646.279,125.651 C646.279,127 647.372,128.093 648.721,128.093 Z" />
        </g>
    </g>
</svg>