<?xml version="1.0" encoding="UTF-8"?>
<svg height="600" width="800" xmlns="http://www.w3.org/2000/svg" xmlns:xlink="http://www.w3.org/1999/xlink">
    <g id="Notes" font-family="'LucidaGrande', 'Lucida Grande', sans-serif" font-size="13">
        <rect fill="white" height="600.0" width="800.0" x="0.0" y="0.0" />
        <g font-size="13">
            <text x="18.0" y="176.0">Small</text>
            <text x="18.0" y="376.0">Medium</text>
            <text x="18.0" y="576.0">Large</text>
        </g>
        <g font-size="9">
            <text x="250.0" y="30.0">Ultralight</text>
            <text x="450.0" y="30.0">Regular</text>
            <text x="650.0" y="30.0">Black</text>
            <text id="template-version" fill="#505050" text-anchor="end" x="785.0" y="575.0">Template v.3.0</text>
            <a href="https://github.com/swhitty/SwiftDraw">
                <text fill="#505050" text-anchor="end" x="785.0" y="590.0">https://github.com/swhitty/SwiftDraw</text>
            </a>
        </g>
    </g>
    <g id="Guides" stroke="rgb(39, 170, 225)" stroke-width="0.5">
        <path id="Capline-S" d="M18,76 l800,0" />
        <path id="H-reference" d="M85,145.755 L87.685,145.755 L113.369,79.287 L114.052,79.287 L114.052,76 L112.148,76 L85,145.755 Z M95.693,121.536 L130.996,121.536 L130.263,119.313 L96.474,119.313 L95.693,121.536 Z M139.15,145.755 L141.787,145.755 L114.638,76 L113.466,76 L113.466,79.287 L139.15,145.755 Z" stroke="none" />
        <path id="Baseline-S" d="M18,146 l800,0" />
        <path id="left-margin-Ultralight-S" d="M221,56 l0,110" />
        <path id="right-margin-Ultralight-S" d="M309,56 l0,110" />
        <path id="left-margin-Regular-S" d="M421,56 l0,110" />
        <path id="right-margin-Regular-S" d="M509,56 l0,110" />
        <path id="left-margin-Black-S" d="M621,56 l0,110" />
        <path id="right-margin-Black-S" d="M709,56 l0,110" />
        <path id="Capline-M" d="M18,276 l800,0" />
        <path id="Baseline-M" d="M18,346 l800,0" />
        <path id="Capline-L" d="M18,476 l800,0" />
        <path id="Baseline-L" d="M18,546 l800,0" />
    </g>
    <g id="Symbols">
        <g id="Ultralight-S">
            <path d="M233.256,78.442 L233.256,143.558 C233.256,144.907 234.349,146 235.698,146 C237.046,146 238.14,144.907 238.14,143.558 L238.14,78.442 C238.14,77.093 237.046,76 235.698,76 C234.349,76 233.256,77.093 233.256,78.442 Z" />
            <path d="M291.86,78.442 L291.86,143.558 C291.86,144.907 292.954,146 294.302,146 C295.651,146 296.744,144.907 296.744,143.558 L296.744,78.442 C296.744,77.093 295.651,76 294.302,76 C292.954,76 291.86,77.093 291.86,78.442 Z" />
            <path d="M253.506,112.529 L246.994,119.041 C246.041,119.994 246.041,121.54 246.994,122.494 L253.506,129.006 C254.46,129.959 256.006,129.959 256.959,129.006 C257.913,128.052 257.913,126.506 256.959,125.552 L250.448,119.041 L250.448,122.494 L256.959,115.982 C257.913,115.029 257.913,113.483 256.959,112.529 C256.006,111.576 254.46,111.576 253.506,112.529 Z" />
            <path d="M250.349,123.209 C253.074,123.209 253.074,123.209 261.249,123.209 C267.751,123.209 267.751,123.209 271.512,123.209 C278.255,123.209 283.721,117.743 283.721,111 C283.721,104.257 278.255,98.791 271.512,98.791 C270.236,98.791 270.236,98.791 267.409,98.791 C264.066,98.791 264.066,98.791 260.206,98.791 C255.899,98.791 255.899,98.791 252.31,98.791 C249.439,98.791 249.439,98.791 248.721,98.791 C247.372,98.791 246.279,99.884 246.279,101.233 C246.279,102.581 247.372,103.674 248.721,103.674 C249.439,103.674 249.439,103.674 252.31,103.674 C255.899,103.674 255.899,103.674 260.206,103.674 C264.066,103.674 264.066,103.674 267.409,103.674 C270.236,103.674 270.236,103.674 271.512,103.674 C275.557,103.674 278.837,106.954 278.837,111 C278.837,115.046 275.557,118.326 271.512,118.326 C267.751,118.326 267.751,118.326 261.249,118.326 C253.074,118.326 253.074,118.326 250.349,118.326 C249,118.326 247.907,119.419 247.907,120.767 C247.907,122.116 249,123.209 250.349,123.209 Z" />
        </g>
        <g id="Regular-S">
            <path d="M433.256,78.442 L433.256,143.558 C433.256,144.907 434.349,146 435.698,146 C437.046,146 438.14,144.907 438.14,143.558 L438.14,78.442 C438.14,77.093 437.046,76 435.698,76 C434.349,76 433.256,77.093 433.256,78.442 Z" />
            <path d="M491.86,78.442 L491.86,143.558 C491.86,144.907 492.954,146 494.302,146 C495.651,146 496.744,144.907 496.744,143.558 L496.744,78.442 C496.744,77.093 495.651,76 494.302,76 C492.954,76 491.86,77.093 491.86,78.442 Z" />
            <path d="M453.506,112.529 L446.994,119.041 C446.041,119.994 446.041,121.54 446.994,122.494 L453.506,129.006 C454.46,129.959 456.006,129.959 456.959,129.006 C457.913,128.052 457.913,126.506 456.959,125.552 L450.448,119.041 L450.448,122.494 L456.959,115.982 C457.913,115.029 457.913,113.483 456.959,112.529 C456.006,111.576 454.46,111.576 453.506,112.529 Z" />
            <path d="M450.349,123.209 C453.074,123.209 453.074,123.209 461.249,123.209 C467.751,123.209 467.751,123.209 471.512,123.209 C478.255,123.209 483.721,117.743 483.721,111 C483.721,104.257 478.255,98.791 471.512,98.791 C470.236,98.791 470.236,98.791 467.409,98.791 C464.066,98.791 464.066,98.791 460.206,98.791 C455.899,98.791 455.899,98.791 452.31,98.791 C449.439,98.791 449.439,98.791 448.721,98.791 C447.372,98.791 446.279,99.884 446.279,101.233 C446.279,102.581 447.372,103.674 448.721,103.674 C449.439,103.674 449.439,103.674 452.31,103.674 C455.899,103.674 455.899,103.674 460.206,103.674 C464.066,103.674 464.066,103.674 467.409,103.674 C470.236,103.674 470.236,103.674 471.512,103.674 C475.557,103.674 478.837,106.954 478.837,111 C478.837,115.046 475.557,118.326 471.512,118.326 C467.751,118.326 467.751,118.326 461.249,118.326 C453.074,118.326 453.074,118.326 450.349,118.326 C449,118.326 447.907,119.419 447.907,120.767 C447.907,122.116 449,123.209 450.349,123.209 Z" />
        </g>
        <g id="Black-S">
            <path d="M633.256,78.442 L633.256,143.558 C633.256,144.907 634.349,146 635.698,146 C637.046,146 638.14,144.907 638.14,143.558 L638.14,78.442 C638.14,77.093 637.046,76 635.698,76 C634.349,76 633.256,77.093 633.256,78.442 Z" />
            <path d="M691.86,78.442 L691.86,143.558 C691.86,144.907 692.954,146 694.302,146 C695.651,146 696.744,144.907 696.744,143.558 L696.744,78.442 C696.744,77.093 695.651,76 694.302,76 C692.954,76 691.86,77.093 691.86,78.442 Z" />
            <path d="M653.506,112.529 L646.994,119.041 C646.041,119.994 646.041,121.54 646.994,122.494 L653.506,129.006 C654.46,129.959 656.006,129.959 656.959,129.006 C657.913,128.052 657.913,126.506 656.959,125.552 L650.448,119.041 L650.448,122.494 L656.959,115.982 C657.913,115.029 657.913,113.483 656.959,112.529 C656.006,111.576 654.46,111.576 653.506,112.529 Z" />
            <path d="M650.349,123.209 C653.074,123.209 653.074,123.209 661.25,123.209 C667.751,123.209 667.751,123.209 671.512,123.209 C678.255,123.209 683.721,117.743 683.721,111 C683.721,104.257 678.255,98.791 671.512,98.791 C670.236,98.791 670.236,98.791 667.409,98.791 C664.066,98.791 664.066,98.791 660.206,98.791 C655.899,98.791 655.899,98.791 652.31,98.791 C649.439,98.791 649.439,98.791 648.721,98.791 C647.372,98.791 646.279,99.884 646.279,101.233 C646.279,102.581 647.372,103.674 648.721,103.674 C649.439,103.674 649.439,103.674 652.31,103.674 C655.899,103.674 655.899,103.674 660.206,103.674 C664.066,103.674 664.066,103.674 667.409,103.674 C670.236,103.674 670.236,103.674 671.512,103.674 C675.557,103.674 678.837,106.954 678.837,111 C678.837,115.046 675.557,118.326 671.512,118.326 C667.751,118.326 667.751,118.326 661.25,118.326 C653.074,118.326 653.074,118.326 650.349,118.326 C649,118.326 647.907,119.419 647.907,120.767 C647.907,122.116 649,123.209 650.349,123.209 Z" />
        </g>
    </g>
</svg>