<?xml version="1.0" encoding="UTF-8"?>
<svg height="600" width="800" xmlns="http://www.w3.org/2000/svg" xmlns:xlink="http://www.w3.org/1999/xlink">
    <g id="Notes" font-family="'LucidaGrande', 'Lucida Grande', sans-serif" font-size="13">
        <rect fill="white" height="600.0" width="800.0" x="0.0" y="0.0" />
        <g font-size="13">
            <text x="18.0" y="176.0">Small</text>
            <text x="18.0" y="376.0">Medium</text>
            <text x="18.0" y="576.0">Large</text>
        </g>
        <g font-size="9">
            <text x="250.0" y="30.0">Ultralight</text>
            <text x="450.0" y="30.0">Regular</text>
            <text x="650.0" y="30.0">Black</text>
            <text id="template-version" fill="#505050" text-anchor="end" x="785.0" y="575.0">Template v.3.0</text>
            <a href="https://github.com/swhitty/SwiftDraw">
                <text fill="#505050" text-anchor="end" x="785.0" y="590.0">https://github.com/swhitty/SwiftDraw</text>
            </a>
        </g>
    </g>
    <g id="Guides" stroke="rgb(39, 170, 225)" stroke-width="0.5">
        <path id="Capline-S" d="M18,76 l800,0" />
        <path id="H-reference" d="M85,145.755 L87.685,145.755 L113.369,79.287 L114.052,79.287 L114.052,76 L112.148,76 L85,145.755 Z M95.693,121.536 L130.996,121.536 L130.263,119.313 L96.474,119.313 L95.693,121.536 Z M139.15,145.755 L141.787,145.755 L114.638,76 L113.466,76 L113.466,79.287 L139.15,145.755 Z" stroke="none" />
        <path id="Baseline-S" d="M18,146 l800,0" />
        <path id="left-margin-Ultralight-S" d="M221,56 l0,110" />
        <path id="right-margin-Ultralight-S" d="M309,56 l0,110" />
        <path id="left-margin-Regular-S" d="M421,56 l0,110" />
        <path id="right-margin-Regular-S" d="M509,56 l0,110" />
        <path id="left-margin-Black-S" d="M621,56 l0,110" />
        <path id="right-margin-Black-S" d="M709,56 l0,110" />
        <path id="Capline-M" d="M18,276 l800,0" />
        <path id="Baseline-M" d="M18,346 l800,0" />
        <path id="Capline-L" d="M18,476 l800,0" />
        <path id="Baseline-L" d="M18,546 l800,0" />
    </g>
    <g id="Symbols">
        <g id="Ultralight-S">
            <path d="M240.37,79.889 L240.37,142.111 C240.37,144.259 242.111,146 244.259,146 C246.407,146 248.148,144.259 248.148,142.111 L248.148,79.889 C248.148,77.741 246.407,76 244.259,76 C242.111,76 240.37,77.741 240.37,79.889 Z" />
            <path d="M281.852,79.889 L281.852,142.111 C281.852,144.259 283.593,146 285.741,146 C287.888,146 289.63,144.259 289.63,142.111 L289.63,79.889 C289.63,77.741 287.888,76 285.741,76 C283.593,76 281.852,77.741 281.852,79.889 Z" />
        </g>
        <g id="Regular-S">
            <path d="M440.37,79.889 L440.37,142.111 C440.37,144.259 442.111,146 444.259,146 C446.407,146 448.148,144.259 448.148,142.111 L448.148,79.889 C448.148,77.741 446.407,76 444.259,76 C442.111,76 440.37,77.741 440.37,79.889 Z" />
            <path d="M481.852,79.889 L481.852,142.111 C481.852,144.259 483.593,146 485.741,146 C487.888,146 489.63,144.259 489.63,142.111 L489.63,79.889 C489.63,77.741 487.888,76 485.741,76 C483.593,76 481.852,77.741 481.852,79.889 Z" />
        </g>
        <g id="Black-S">
            <path d="M640.37,79.889 L640.37,142.111 C640.37,144.259 642.111,146 644.259,146 C646.407,146 648.148,144.259 648.148,142.111 L648.148,79.889 C648.148,77.741 646.407,76 644.259,76 C642.111,76 640.37,77.741 640.37,79.889 Z" />
            <path d="M681.852,79.889 L681.852,142.111 C681.852,144.259 683.593,146 685.741,146 C687.888,146 689.63,144.259 689.63,142.111 L689.63,79.889 C689.63,77.741 687.888,76 685.741,76 C683.593,76 681.852,77.741 681.852,79.889 Z" />
        </g>
    </g>
</svg>