<?xml version="1.0" encoding="UTF-8"?>
<svg height="600" width="800" xmlns="http://www.w3.org/2000/svg" xmlns:xlink="http://www.w3.org/1999/xlink">
    <g id="Notes" font-family="'LucidaGrande', 'Lucida Grande', sans-serif" font-size="13">
        <rect fill="white" height="600.0" width="800.0" x="0.0" y="0.0" />
        <g font-size="13">
            <text x="18.0" y="176.0">Small</text>
            <text x="18.0" y="376.0">Medium</text>
            <text x="18.0" y="576.0">Large</text>
        </g>
        <g font-size="9">
            <text x="250.0" y="30.0">Ultralight</text>
            <text x="450.0" y="30.0">Regular</text>
            <text x="650.0" y="30.0">Black</text>
            <text id="template-version" fill="#505050" text-anchor="end" x="785.0" y="575.0">Template v.3.0</text>
            <a href="https://github.com/swhitty/SwiftDraw">
                <text fill="#505050" text-anchor="end" x="785.0" y="590.0">https://github.com/swhitty/SwiftDraw</text>
            </a>
        </g>
    </g>
    <g id="Guides" stroke="rgb(39, 170, 225)" stroke-width="0.5">
        <path id="Capline-S" d="M18,76 l800,0" />
        <path id="H-reference" d="M85,145.755 L87.685,145.755 L113.369,79.287 L114.052,79.287 L114.052,76 L112.148,76 L85,145.755 Z M95.693,121.536 L130.996,121.536 L130.263,119.313 L96.474,119.313 L95.693,121.536 Z M139.15,145.755 L141.787,145.755 L114.638,76 L113.466,76 L113.466,79.287 L139.15,145.755 Z" stroke="none" />
        <path id="Baseline-S" d="M18,146 l800,0" />
        <path id="left-margin-Ultralight-S" d="M221,56 l0,110" />
        <path id="right-margin-Ultralight-S" d="M309,56 l0,110" />
        <path id="left-margin-Regular-S" d="M421,56 l0,110" />
        <path id="right-margin-Regular-S" d="M509,56 l0,110" />
        <path id="left-margin-Black-S" d="M621,56 l0,110" />
        <path id="right-margin-Black-S" d="M709,56 l0,110" />
        <path id="Capline-M" d="M18,276 l800,0" />
        <path id="Baseline-M" d="M18,346 l800,0" />
        <path id="Capline-L" d="M18,476 l800,0" />
        <path id="Baseline-L" d="M18,546 l800,0" />
    </g>
    <g id="Symbols">
        <g id="Ultralight-S">
            <path d="M257.674,125.651 C257.674,121.605 260.954,118.325 265,118.325 C269.046,118.325 272.326,121.605 272.326,125.651 C272.326,129.696 269.046,132.976 265,132.976 C260.954,132.976 257.674,129.696 257.674,125.651 Z M252.791,125.651 C252.791,132.394 258.257,137.86 265,137.86 C271.743,137.86 277.209,132.394 277.209,125.651 C277.209,118.908 271.743,113.442 265,113.442 C258.257,113.442 252.791,118.908 252.791,125.651 Z" />
            <path d="M262.558,93.093 C262.558,91.744 263.651,90.651 265,90.651 C266.349,90.651 267.442,91.744 267.442,93.093 C267.442,94.441 266.349,95.535 265,95.535 C263.651,95.535 262.558,94.441 262.558,93.093 Z M257.674,93.093 C257.674,97.139 260.954,100.418 265,100.418 C269.046,100.418 272.326,97.139 272.326,93.093 C272.326,89.047 269.046,85.767 265,85.767 C260.954,85.767 257.674,89.047 257.674,93.093 Z" />
            <path d="M262.558,137.046 L262.558,143.558 C262.558,144.906 263.651,145.999 265,145.999 C266.349,145.999 267.442,144.906 267.442,143.558 L267.442,137.046 C267.442,135.697 266.349,134.604 265,134.604 C263.651,134.604 262.558,135.697 262.558,137.046 Z" />
            <path d="M259.336,97.575 L256.08,117.11 C255.858,118.44 256.757,119.698 258.087,119.92 C259.417,120.142 260.675,119.243 260.897,117.913 L264.153,98.378 C264.375,97.048 263.476,95.79 262.146,95.568 C260.815,95.346 259.557,96.245 259.336,97.575 Z" />
            <path d="M265.847,98.378 L269.103,117.913 C269.325,119.243 270.583,120.142 271.913,119.92 C273.243,119.698 274.142,118.44 273.92,117.11 L270.664,97.575 C270.443,96.245 269.185,95.346 267.854,95.568 C266.524,95.79 265.625,97.048 265.847,98.378 Z" />
            <path d="M254.616,131.2 L249.732,142.596 C249.201,143.835 249.775,145.271 251.015,145.802 C252.255,146.333 253.69,145.759 254.221,144.519 L259.105,133.124 C259.636,131.885 259.062,130.449 257.822,129.918 C256.583,129.387 255.147,129.961 254.616,131.2 Z" />
            <path d="M270.895,133.124 L275.779,144.519 C276.31,145.759 277.745,146.333 278.985,145.802 C280.225,145.271 280.799,143.835 280.268,142.596 L275.384,131.2 C274.853,129.961 273.417,129.387 272.178,129.918 C270.938,130.449 270.364,131.885 270.895,133.124 Z" />
            <path d="M262.558,78.442 L262.558,88.209 C262.558,89.558 263.651,90.651 265,90.651 C266.349,90.651 267.442,89.558 267.442,88.209 L267.442,78.442 C267.442,77.093 266.349,76 265,76 C263.651,76 262.558,77.093 262.558,78.442 Z" />
        </g>
        <g id="Regular-S">
            <path d="M457.674,125.651 C457.674,121.605 460.954,118.325 465,118.325 C469.046,118.325 472.326,121.605 472.326,125.651 C472.326,129.696 469.046,132.976 465,132.976 C460.954,132.976 457.674,129.696 457.674,125.651 Z M452.791,125.651 C452.791,132.394 458.257,137.86 465,137.86 C471.743,137.86 477.209,132.394 477.209,125.651 C477.209,118.908 471.743,113.442 465,113.442 C458.257,113.442 452.791,118.908 452.791,125.651 Z" />
            <path d="M462.558,93.093 C462.558,91.744 463.651,90.651 465,90.651 C466.349,90.651 467.442,91.744 467.442,93.093 C467.442,94.441 466.349,95.535 465,95.535 C463.651,95.535 462.558,94.441 462.558,93.093 Z M457.674,93.093 C457.674,97.139 460.954,100.418 465,100.418 C469.046,100.418 472.326,97.139 472.326,93.093 C472.326,89.047 469.046,85.767 465,85.767 C460.954,85.767 457.674,89.047 457.674,93.093 Z" />
            <path d="M462.558,137.046 L462.558,143.558 C462.558,144.906 463.651,145.999 465,145.999 C466.349,145.999 467.442,144.906 467.442,143.558 L467.442,137.046 C467.442,135.697 466.349,134.604 465,134.604 C463.651,134.604 462.558,135.697 462.558,137.046 Z" />
            <path d="M459.336,97.575 L456.08,117.11 C455.858,118.44 456.757,119.698 458.087,119.92 C459.417,120.142 460.675,119.243 460.897,117.913 L464.153,98.378 C464.375,97.048 463.476,95.79 462.146,95.568 C460.815,95.346 459.557,96.245 459.336,97.575 Z" />
            <path d="M465.847,98.378 L469.103,117.913 C469.325,119.243 470.583,120.142 471.913,119.92 C473.243,119.698 474.142,118.44 473.92,117.11 L470.664,97.575 C470.443,96.245 469.185,95.346 467.854,95.568 C466.524,95.79 465.625,97.048 465.847,98.378 Z" />
            <path d="M454.616,131.2 L449.732,142.596 C449.201,143.835 449.775,145.271 451.015,145.802 C452.255,146.333 453.69,145.759 454.221,144.519 L459.105,133.124 C459.636,131.885 459.062,130.449 457.822,129.918 C456.583,129.387 455.147,129.961 454.616,131.2 Z" />
            <path d="M470.895,133.124 L475.779,144.519 C476.31,145.759 477.745,146.333 478.985,145.802 C480.225,145.271 480.799,143.835 480.268,142.596 L475.384,131.2 C474.853,129.961 473.417,129.387 472.178,129.918 C470.938,130.449 470.364,131.885 470.895,133.124 Z" />
            <path d="M462.558,78.442 L462.558,88.209 C462.558,89.558 463.651,90.651 465,90.651 C466.349,90.651 467.442,89.558 467.442,88.209 L467.442,78.442 C467.442,77.093 466.349,76 465,76 C463.651,76 462.558,77.093 462.558,78.442 Z" />
        </g>
        <g id="Black-S">
            <path d="M657.674,125.651 C657.674,121.605 660.954,118.325 665,118.325 C669.046,118.325 672.326,121.605 672.326,125.651 C672.326,129.696 669.046,132.976 665,132.976 C660.954,132.976 657.674,129.696 657.674,125.651 Z M652.791,125.651 C652.791,132.394 658.257,137.86 665,137.86 C671.743,137.86 677.209,132.394 677.209,125.651 C677.209,118.908 671.743,113.442 665,113.442 C658.257,113.442 652.791,118.908 652.791,125.651 Z" />
            <path d="M662.558,93.093 C662.558,91.744 663.651,90.651 665,90.651 C666.349,90.651 667.442,91.744 667.442,93.093 C667.442,94.441 666.349,95.535 665,95.535 C663.651,95.535 662.558,94.441 662.558,93.093 Z M657.674,93.093 C657.674,97.139 660.954,100.418 665,100.418 C669.046,100.418 672.326,97.139 672.326,93.093 C672.326,89.047 669.046,85.767 665,85.767 C660.954,85.767 657.674,89.047 657.674,93.093 Z" />
            <path d="M662.558,137.046 L662.558,143.558 C662.558,144.906 663.651,145.999 665,145.999 C666.349,145.999 667.442,144.906 667.442,143.558 L667.442,137.046 C667.442,135.697 666.349,134.604 665,134.604 C663.651,134.604 662.558,135.697 662.558,137.046 Z" />
            <path d="M659.336,97.575 L656.08,117.11 C655.858,118.44 656.757,119.698 658.087,119.92 C659.417,120.142 660.675,119.243 660.897,117.913 L664.153,98.378 C664.375,97.048 663.476,95.79 662.146,95.568 C660.815,95.346 659.557,96.245 659.336,97.575 Z" />
            <path d="M665.847,98.378 L669.103,117.913 C669.325,119.243 670.583,120.142 671.913,119.92 C673.243,119.698 674.142,118.44 673.92,117.11 L670.664,97.575 C670.443,96.245 669.185,95.346 667.854,95.568 C666.524,95.79 665.625,97.048 665.847,98.378 Z" />
            <path d="M654.616,131.2 L649.732,142.596 C649.201,143.835 649.775,145.271 651.015,145.802 C652.255,146.333 653.69,145.759 654.221,144.519 L659.105,133.124 C659.636,131.885 659.062,130.449 657.822,129.918 C656.583,129.387 655.147,129.961 654.616,131.2 Z" />
            <path d="M670.895,133.124 L675.779,144.519 C676.31,145.759 677.745,146.333 678.985,145.802 C680.225,145.271 680.799,143.835 680.268,142.596 L675.384,131.2 C674.853,129.961 673.417,129.387 672.178,129.918 C670.938,130.449 670.364,131.885 670.895,133.124 Z" />
            <path d="M662.558,78.442 L662.558,88.209 C662.558,89.558 663.651,90.651 665,90.651 C666.349,90.651 667.442,89.558 667.442,88.209 L667.442,78.442 C667.442,77.093 666.349,76 665,76 C663.651,76 662.558,77.093 662.558,78.442 Z" />
        </g>
    </g>
</svg>