<?xml version="1.0" encoding="UTF-8"?>
<svg height="600" width="800" xmlns="http://www.w3.org/2000/svg" xmlns:xlink="http://www.w3.org/1999/xlink">
    <g id="Notes" font-family="'LucidaGrande', 'Lucida Grande', sans-serif" font-size="13">
        <rect fill="white" height="600.0" width="800.0" x="0.0" y="0.0" />
        <g font-size="13">
            <text x="18.0" y="176.0">Small</text>
            <text x="18.0" y="376.0">Medium</text>
            <text x="18.0" y="576.0">Large</text>
        </g>
        <g font-size="9">
            <text x="250.0" y="30.0">Ultralight</text>
            <text x="450.0" y="30.0">Regular</text>
            <text x="650.0" y="30.0">Black</text>
            <text id="template-version" fill="#505050" text-anchor="end" x="785.0" y="575.0">Template v.3.0</text>
            <a href="https://github.com/swhitty/SwiftDraw">
                <text fill="#505050" text-anchor="end" x="785.0" y="590.0">https://github.com/swhitty/SwiftDraw</text>
            </a>
        </g>
    </g>
    <g id="Guides" stroke="rgb(39, 170, 225)" stroke-width="0.5">
        <path id="Capline-S" d="M18,76 l800,0" />
        <path id="H-reference" d="M85,145.755 L87.685,145.755 L113.369,79.287 L114.052,79.287 L114.052,76 L112.148,76 L85,145.755 Z M95.693,121.536 L130.996,121.536 L130.263,119.313 L96.474,119.313 L95.693,121.536 Z M139.15,145.755 L141.787,145.755 L114.638,76 L113.466,76 L113.466,79.287 L139.15,145.755 Z" stroke="none" />
        <path id="Baseline-S" d="M18,146 l800,0" />
        <path id="left-margin-Ultralight-S" d="M221,56 l0,110" />
        <path id="right-margin-Ultralight-S" d="M309,56 l0,110" />
        <path id="left-margin-Regular-S" d="M421,56 l0,110" />
        <path id="right-margin-Regular-S" d="M509,56 l0,110" />
        <path id="left-margin-Black-S" d="M621,56 l0,110" />
        <path id="right-margin-Black-S" d="M709,56 l0,110" />
        <path id="Capline-M" d="M18,276 l800,0" />
        <path id="Baseline-M" d="M18,346 l800,0" />
        <path id="Capline-L" d="M18,476 l800,0" />
        <path id="Baseline-L" d="M18,546 l800,0" />
    </g>
    <g id="Symbols">
        <g id="Ultralight-S">
            <path d="M236.382,89.341 L265.698,80.786 L264.329,80.786 L293.617,89.341 L291.86,86.997 L291.86,104.543 C291.86,121.558 281.112,135.617 264.232,141.242 L265.776,141.241 C248.892,135.617 238.14,121.554 238.14,104.535 L238.14,86.997 L236.382,89.341 Z M235.014,84.653 C233.972,84.957 233.256,85.912 233.256,86.997 L233.256,104.535 C233.256,123.714 245.404,139.603 264.233,145.875 C264.734,146.042 265.275,146.042 265.776,145.875 C284.6,139.603 296.744,123.718 296.744,104.543 L296.744,86.997 C296.744,85.913 296.028,84.958 294.987,84.654 L265.699,76.098 C265.252,75.967 264.777,75.967 264.33,76.098 L235.014,84.653 Z" />
            <path d="M259.302,101.232 C259.302,98.086 261.853,95.535 265,95.535 C268.147,95.535 270.698,98.086 270.698,101.232 C270.698,104.379 268.147,106.93 265,106.93 C261.853,106.93 259.302,104.379 259.302,101.232 Z M254.419,101.232 C254.419,107.076 259.156,111.814 265,111.814 C270.844,111.814 275.581,107.076 275.581,101.232 C275.581,95.388 270.844,90.651 265,90.651 C259.156,90.651 254.419,95.388 254.419,101.232 Z" />
            <path d="M280.465,122.395 C280.465,113.854 273.541,106.93 265,106.93 C256.459,106.93 249.535,113.854 249.535,122.395 C249.535,123.743 250.628,124.837 251.977,124.837 C253.325,124.837 254.419,123.743 254.419,122.395 C254.419,116.551 259.156,111.814 265,111.814 C270.844,111.814 275.581,116.551 275.581,122.395 C275.581,123.743 276.675,124.837 278.023,124.837 C279.372,124.837 280.465,123.743 280.465,122.395 Z" />
        </g>
        <g id="Regular-S">
            <path d="M436.382,89.341 L465.698,80.786 L464.329,80.786 L493.617,89.341 L491.86,86.997 L491.86,104.543 C491.86,121.558 481.112,135.617 464.232,141.242 L465.776,141.241 C448.892,135.617 438.14,121.554 438.14,104.535 L438.14,86.997 L436.382,89.341 Z M435.014,84.653 C433.972,84.957 433.256,85.912 433.256,86.997 L433.256,104.535 C433.256,123.714 445.404,139.603 464.233,145.875 C464.734,146.042 465.275,146.042 465.776,145.875 C484.6,139.603 496.744,123.718 496.744,104.543 L496.744,86.997 C496.744,85.913 496.028,84.958 494.987,84.654 L465.699,76.098 C465.252,75.967 464.777,75.967 464.33,76.098 L435.014,84.653 Z" />
            <path d="M459.302,101.232 C459.302,98.086 461.853,95.535 465,95.535 C468.147,95.535 470.698,98.086 470.698,101.232 C470.698,104.379 468.147,106.93 465,106.93 C461.853,106.93 459.302,104.379 459.302,101.232 Z M454.419,101.232 C454.419,107.076 459.156,111.814 465,111.814 C470.844,111.814 475.581,107.076 475.581,101.232 C475.581,95.388 470.844,90.651 465,90.651 C459.156,90.651 454.419,95.388 454.419,101.232 Z" />
            <path d="M480.465,122.395 C480.465,113.854 473.541,106.93 465,106.93 C456.459,106.93 449.535,113.854 449.535,122.395 C449.535,123.743 450.628,124.837 451.977,124.837 C453.326,124.837 454.419,123.743 454.419,122.395 C454.419,116.551 459.156,111.814 465,111.814 C470.844,111.814 475.581,116.551 475.581,122.395 C475.581,123.743 476.675,124.837 478.023,124.837 C479.372,124.837 480.465,123.743 480.465,122.395 Z" />
        </g>
        <g id="Black-S">
            <path d="M636.382,89.341 L665.698,80.786 L664.329,80.786 L693.617,89.341 L691.86,86.997 L691.86,104.543 C691.86,121.558 681.112,135.617 664.232,141.242 L665.776,141.241 C648.892,135.617 638.14,121.554 638.14,104.535 L638.14,86.997 L636.382,89.341 Z M635.014,84.653 C633.972,84.957 633.256,85.912 633.256,86.997 L633.256,104.535 C633.256,123.714 645.404,139.603 664.233,145.875 C664.734,146.042 665.275,146.042 665.776,145.875 C684.6,139.603 696.744,123.718 696.744,104.543 L696.744,86.997 C696.744,85.913 696.028,84.958 694.987,84.654 L665.699,76.098 C665.252,75.967 664.777,75.967 664.33,76.098 L635.014,84.653 Z" />
            <path d="M659.302,101.232 C659.302,98.086 661.853,95.535 665,95.535 C668.147,95.535 670.698,98.086 670.698,101.232 C670.698,104.379 668.147,106.93 665,106.93 C661.853,106.93 659.302,104.379 659.302,101.232 Z M654.419,101.232 C654.419,107.076 659.156,111.814 665,111.814 C670.844,111.814 675.581,107.076 675.581,101.232 C675.581,95.388 670.844,90.651 665,90.651 C659.156,90.651 654.419,95.388 654.419,101.232 Z" />
            <path d="M680.465,122.395 C680.465,113.854 673.541,106.93 665,106.93 C656.459,106.93 649.535,113.854 649.535,122.395 C649.535,123.743 650.628,124.837 651.977,124.837 C653.325,124.837 654.419,123.743 654.419,122.395 C654.419,116.551 659.156,111.814 665,111.814 C670.844,111.814 675.581,116.551 675.581,122.395 C675.581,123.743 676.674,124.837 678.023,124.837 C679.372,124.837 680.465,123.743 680.465,122.395 Z" />
        </g>
    </g>
</svg>