<?xml version="1.0" encoding="UTF-8"?>
<svg height="600" width="800" xmlns="http://www.w3.org/2000/svg" xmlns:xlink="http://www.w3.org/1999/xlink">
    <g id="Notes" font-family="'LucidaGrande', 'Lucida Grande', sans-serif" font-size="13">
        <rect fill="white" height="600.0" width="800.0" x="0.0" y="0.0" />
        <g font-size="13">
            <text x="18.0" y="176.0">Small</text>
            <text x="18.0" y="376.0">Medium</text>
            <text x="18.0" y="576.0">Large</text>
        </g>
        <g font-size="9">
            <text x="250.0" y="30.0">Ultralight</text>
            <text x="450.0" y="30.0">Regular</text>
            <text x="650.0" y="30.0">Black</text>
            <text id="template-version" fill="#505050" text-anchor="end" x="785.0" y="575.0">Template v.3.0</text>
            <a href="https://github.com/swhitty/SwiftDraw">
                <text fill="#505050" text-anchor="end" x="785.0" y="590.0">https://github.com/swhitty/SwiftDraw</text>
            </a>
        </g>
    </g>
    <g id="Guides" stroke="rgb(39, 170, 225)" stroke-width="0.5">
        <path id="Capline-S" d="M18,76 l800,0" />
        <path id="H-reference" d="M85,145.755 L87.685,145.755 L113.369,79.287 L114.052,79.287 L114.052,76 L112.148,76 L85,145.755 Z M95.693,121.536 L130.996,121.536 L130.263,119.313 L96.474,119.313 L95.693,121.536 Z M139.15,145.755 L141.787,145.755 L114.638,76 L113.466,76 L113.466,79.287 L139.15,145.755 Z" stroke="none" />
        <path id="Baseline-S" d="M18,146 l800,0" />
        <path id="left-margin-Ultralight-S" d="M220,56 l0,110" />
        <path id="right-margin-Ultralight-S" d="M310,56 l0,110" />
        <path id="left-margin-Regular-S" d="M420,56 l0,110" />
        <path id="right-margin-Regular-S" d="M510,56 l0,110" />
        <path id="left-margin-Black-S" d="M620,56 l0,110" />
        <path id="right-margin-Black-S" d="M710,56 l0,110" />
        <path id="Capline-M" d="M18,276 l800,0" />
        <path id="Baseline-M" d="M18,346 l800,0" />
        <path id="Capline-L" d="M18,476 l800,0" />
        <path id="Baseline-L" d="M18,546 l800,0" />
    </g>
    <g id="Symbols">
        <g id="Ultralight-S">
            <path d="M250.383,81.882 C250.739,81.882 251.067,82.076 251.24,82.387 L256.037,91.028 C256.194,91.311 256.202,91.653 256.057,91.942 L251.436,101.185 C251.146,101.765 251.055,102.425 251.179,103.061 C251.328,103.829 251.665,105.058 252.249,106.601 C253.211,109.139 254.545,111.674 256.321,114.051 C257.116,115.114 257.984,116.123 258.931,117.069 C259.865,118.004 260.862,118.863 261.91,119.649 C264.292,121.435 266.832,122.772 269.374,123.733 C270.921,124.317 272.154,124.651 272.923,124.799 C273.558,124.921 274.215,124.83 274.792,124.541 L284.033,119.921 C284.323,119.776 284.665,119.783 284.948,119.941 L293.614,124.758 C293.925,124.931 294.118,125.259 294.118,125.615 L294.118,135.563 C294.118,138.702 291.307,140.831 288.493,139.882 C274.724,135.236 262.535,128.993 254.771,121.229 C247.007,113.465 240.764,101.276 236.118,87.507 C235.169,84.693 237.298,81.882 240.437,81.882 L250.383,81.882 Z M250.383,76 L240.437,76 C233.349,76 228.284,82.687 230.545,89.387 C235.456,103.943 242.06,116.837 250.612,125.388 C259.163,133.94 272.057,140.544 286.613,145.455 C293.313,147.716 300,142.651 300,135.563 L300,125.615 C300,123.124 298.65,120.828 296.472,119.617 L287.807,114.799 C285.826,113.698 283.429,113.646 281.403,114.66 L272.162,119.28 L274.031,119.022 C273.575,118.935 272.664,118.687 271.453,118.23 C269.401,117.455 267.346,116.373 265.439,114.943 C264.609,114.321 263.824,113.644 263.09,112.91 C262.347,112.167 261.662,111.371 261.033,110.529 C259.608,108.623 258.527,106.569 257.75,104.518 C257.292,103.307 257.042,102.395 256.953,101.938 L256.697,103.815 L261.318,94.573 C262.331,92.547 262.279,90.153 261.18,88.173 L256.383,79.532 C255.173,77.352 252.876,76 250.383,76 Z" />
        </g>
        <g id="Regular-S">
            <path d="M450.383,81.882 C450.739,81.882 451.067,82.076 451.24,82.387 L456.037,91.028 C456.194,91.311 456.202,91.653 456.057,91.942 L451.436,101.185 C451.146,101.765 451.055,102.425 451.179,103.061 C451.328,103.829 451.665,105.058 452.249,106.601 C453.211,109.139 454.545,111.674 456.321,114.051 C457.116,115.114 457.984,116.123 458.931,117.069 C459.865,118.004 460.862,118.863 461.91,119.649 C464.292,121.435 466.832,122.772 469.374,123.733 C470.921,124.317 472.154,124.651 472.923,124.799 C473.558,124.921 474.215,124.83 474.792,124.541 L484.033,119.921 C484.323,119.776 484.665,119.783 484.948,119.941 L493.614,124.758 C493.925,124.931 494.118,125.259 494.118,125.615 L494.118,135.563 C494.118,138.702 491.307,140.831 488.493,139.882 C474.724,135.236 462.535,128.993 454.771,121.229 C447.007,113.465 440.764,101.276 436.118,87.507 C435.169,84.693 437.298,81.882 440.437,81.882 L450.383,81.882 Z M450.383,76 L440.437,76 C433.349,76 428.284,82.687 430.545,89.387 C435.456,103.943 442.06,116.837 450.612,125.388 C459.163,133.94 472.057,140.544 486.613,145.455 C493.313,147.716 500,142.651 500,135.563 L500,125.615 C500,123.124 498.65,120.828 496.472,119.617 L487.807,114.799 C485.826,113.698 483.429,113.646 481.403,114.66 L472.162,119.28 L474.031,119.022 C473.575,118.935 472.664,118.687 471.453,118.23 C469.401,117.455 467.346,116.373 465.439,114.943 C464.609,114.321 463.824,113.644 463.09,112.91 C462.347,112.167 461.662,111.371 461.033,110.529 C459.608,108.623 458.527,106.569 457.75,104.518 C457.292,103.307 457.042,102.395 456.953,101.938 L456.697,103.815 L461.318,94.573 C462.331,92.547 462.279,90.153 461.18,88.173 L456.383,79.532 C455.173,77.352 452.876,76 450.383,76 Z" />
        </g>
        <g id="Black-S">
            <path d="M650.383,81.882 C650.739,81.882 651.067,82.076 651.24,82.387 L656.037,91.028 C656.194,91.311 656.202,91.653 656.057,91.942 L651.436,101.185 C651.146,101.765 651.055,102.425 651.179,103.061 C651.328,103.829 651.665,105.058 652.249,106.601 C653.211,109.139 654.545,111.674 656.321,114.051 C657.116,115.114 657.984,116.123 658.931,117.069 C659.865,118.004 660.862,118.863 661.91,119.649 C664.292,121.435 666.832,122.772 669.374,123.733 C670.921,124.317 672.154,124.651 672.923,124.799 C673.558,124.921 674.215,124.83 674.792,124.541 L684.033,119.921 C684.323,119.776 684.665,119.783 684.948,119.941 L693.614,124.758 C693.925,124.931 694.118,125.259 694.118,125.615 L694.118,135.563 C694.118,138.702 691.307,140.831 688.493,139.882 C674.724,135.236 662.535,128.993 654.771,121.229 C647.007,113.465 640.765,101.276 636.118,87.507 C635.169,84.693 637.298,81.882 640.437,81.882 L650.383,81.882 Z M650.383,76 L640.437,76 C633.349,76 628.284,82.687 630.545,89.387 C635.456,103.943 642.06,116.837 650.612,125.388 C659.163,133.94 672.057,140.544 686.613,145.455 C693.313,147.716 700,142.651 700,135.563 L700,125.615 C700,123.124 698.65,120.828 696.472,119.617 L687.807,114.799 C685.826,113.698 683.429,113.646 681.403,114.66 L672.162,119.28 L674.031,119.022 C673.575,118.935 672.664,118.687 671.453,118.23 C669.401,117.455 667.346,116.373 665.439,114.943 C664.609,114.321 663.824,113.644 663.09,112.91 C662.347,112.167 661.662,111.371 661.033,110.529 C659.608,108.623 658.527,106.569 657.75,104.518 C657.292,103.307 657.042,102.395 656.953,101.938 L656.697,103.815 L661.318,94.573 C662.331,92.547 662.279,90.153 661.18,88.173 L656.383,79.532 C655.173,77.352 652.876,76 650.383,76 Z" />
        </g>
    </g>
</svg>