<?xml version="1.0" encoding="UTF-8"?>
<svg height="600" width="800" xmlns="http://www.w3.org/2000/svg" xmlns:xlink="http://www.w3.org/1999/xlink">
    <g id="Notes" font-family="'LucidaGrande', 'Lucida Grande', sans-serif" font-size="13">
        <rect fill="white" height="600.0" width="800.0" x="0.0" y="0.0" />
        <g font-size="13">
            <text x="18.0" y="176.0">Small</text>
            <text x="18.0" y="376.0">Medium</text>
            <text x="18.0" y="576.0">Large</text>
        </g>
        <g font-size="9">
            <text x="250.0" y="30.0">Ultralight</text>
            <text x="450.0" y="30.0">Regular</text>
            <text x="650.0" y="30.0">Black</text>
            <text id="template-version" fill="#505050" text-anchor="end" x="785.0" y="575.0">Template v.3.0</text>
            <a href="https://github.com/swhitty/SwiftDraw">
                <text fill="#505050" text-anchor="end" x="785.0" y="590.0">https://github.com/swhitty/SwiftDraw</text>
            </a>
        </g>
    </g>
    <g id="Guides" stroke="rgb(39, 170, 225)" stroke-width="0.5">
        <path id="Capline-S" d="M18,76 l800,0" />
        <path id="H-reference" d="M85,145.755 L87.685,145.755 L113.369,79.287 L114.052,79.287 L114.052,76 L112.148,76 L85,145.755 Z M95.693,121.536 L130.996,121.536 L130.263,119.313 L96.474,119.313 L95.693,121.536 Z M139.15,145.755 L141.787,145.755 L114.638,76 L113.466,76 L113.466,79.287 L139.15,145.755 Z" stroke="none" />
        <path id="Baseline-S" d="M18,146 l800,0" />
        <path id="left-margin-Ultralight-S" d="M219.113,56 l0,110" />
        <path id="right-margin-Ultralight-S" d="M310.887,56 l0,110" />
        <path id="left-margin-Regular-S" d="M419.113,56 l0,110" />
        <path id="right-margin-Regular-S" d="M510.887,56 l0,110" />
        <path id="left-margin-Black-S" d="M619.113,56 l0,110" />
        <path id="right-margin-Black-S" d="M710.887,56 l0,110" />
        <path id="Capline-M" d="M18,276 l800,0" />
        <path id="Baseline-M" d="M18,346 l800,0" />
        <path id="Capline-L" d="M18,476 l800,0" />
        <path id="Baseline-L" d="M18,546 l800,0" />
    </g>
    <g id="Symbols">
        <g id="Ultralight-S">
            <path d="M247.083,89.473 C247.398,89.473 247.687,89.643 247.839,89.918 L252.068,97.536 C252.207,97.785 252.213,98.087 252.085,98.342 L248.011,106.49 C247.756,107.002 247.676,107.583 247.785,108.145 C247.917,108.821 248.213,109.905 248.729,111.266 C249.576,113.503 250.752,115.738 252.319,117.834 C253.019,118.771 253.785,119.661 254.619,120.495 C255.443,121.319 256.321,122.076 257.246,122.769 C259.345,124.343 261.585,125.522 263.826,126.369 C265.19,126.884 266.276,127.179 266.955,127.309 C267.514,127.416 268.093,127.336 268.603,127.082 L276.75,123.008 C277.005,122.881 277.307,122.887 277.556,123.026 L285.196,127.273 C285.47,127.426 285.64,127.715 285.64,128.029 L285.64,136.799 C285.64,139.566 283.162,141.443 280.682,140.606 C268.543,136.51 257.797,131.006 250.952,124.162 C244.107,117.317 238.604,106.571 234.507,94.432 C233.67,91.951 235.548,89.473 238.315,89.473 L247.083,89.473 Z M247.083,84.287 L238.315,84.287 C232.066,84.287 227.6,90.183 229.594,96.09 C233.924,108.922 239.746,120.289 247.285,127.829 C254.824,135.368 266.192,141.19 279.024,145.52 C284.931,147.513 290.826,143.048 290.826,136.799 L290.826,128.029 C290.826,125.832 289.636,123.808 287.716,122.741 L280.076,118.493 C278.33,117.523 276.218,117.476 274.431,118.37 L266.284,122.443 L267.932,122.216 C267.53,122.139 266.726,121.921 265.659,121.518 C263.85,120.834 262.038,119.88 260.356,118.62 C259.625,118.071 258.933,117.474 258.286,116.828 C257.631,116.173 257.027,115.471 256.473,114.729 C255.217,113.048 254.264,111.237 253.578,109.429 C253.174,108.361 252.954,107.557 252.876,107.155 L252.65,108.809 L256.724,100.661 C257.617,98.875 257.571,96.764 256.602,95.019 L252.373,87.401 C251.307,85.479 249.282,84.287 247.083,84.287 Z" />
            <path d="M289.65,93.286 L268.907,93.286 L271.5,95.879 L271.5,78.593 L268.907,81.186 L289.65,81.186 L287.057,78.593 L287.057,83.779 C287.057,85.613 288.91,86.868 290.613,86.186 L299.257,82.729 L295.701,80.322 L295.701,94.151 L299.257,91.743 L290.613,88.286 C288.91,87.605 287.057,88.859 287.057,90.693 L287.057,95.879 L289.65,93.286 Z M289.65,98.472 C291.082,98.472 292.243,97.311 292.243,95.879 L292.243,90.693 L288.687,93.101 L297.331,96.558 C299.034,97.24 300.887,95.985 300.887,94.151 L300.887,80.322 C300.887,78.487 299.034,77.233 297.331,77.914 L288.687,81.371 L292.243,83.779 L292.243,78.593 C292.243,77.161 291.082,76 289.65,76 L268.907,76 C267.475,76 266.314,77.161 266.314,78.593 L266.314,95.879 C266.314,97.311 267.475,98.472 268.907,98.472 L289.65,98.472 Z" />
        </g>
        <g id="Regular-S">
            <path d="M447.083,89.473 C447.397,89.473 447.687,89.643 447.839,89.918 L452.068,97.536 C452.207,97.785 452.213,98.087 452.085,98.342 L448.011,106.49 C447.756,107.002 447.676,107.583 447.785,108.145 C447.917,108.821 448.213,109.905 448.729,111.266 C449.576,113.503 450.752,115.738 452.319,117.834 C453.019,118.771 453.785,119.661 454.619,120.495 C455.443,121.319 456.321,122.076 457.246,122.769 C459.345,124.343 461.585,125.522 463.826,126.369 C465.19,126.884 466.276,127.179 466.955,127.309 C467.514,127.416 468.093,127.336 468.603,127.082 L476.75,123.008 C477.005,122.881 477.307,122.887 477.556,123.026 L485.196,127.273 C485.47,127.426 485.64,127.715 485.64,128.029 L485.64,136.799 C485.64,139.566 483.162,141.443 480.682,140.606 C468.543,136.51 457.797,131.006 450.952,124.162 C444.107,117.317 438.603,106.571 434.507,94.432 C433.67,91.951 435.548,89.473 438.315,89.473 L447.083,89.473 Z M447.083,84.287 L438.315,84.287 C432.066,84.287 427.6,90.183 429.594,96.09 C433.924,108.922 439.746,120.289 447.285,127.829 C454.824,135.368 466.192,141.19 479.024,145.52 C484.931,147.513 490.826,143.048 490.826,136.799 L490.826,128.029 C490.826,125.832 489.636,123.808 487.716,122.741 L480.076,118.493 C478.33,117.523 476.218,117.476 474.431,118.37 L466.284,122.443 L467.932,122.216 C467.53,122.139 466.726,121.921 465.659,121.518 C463.85,120.834 462.038,119.88 460.356,118.62 C459.625,118.071 458.933,117.474 458.286,116.828 C457.631,116.173 457.027,115.471 456.473,114.729 C455.217,113.048 454.264,111.237 453.578,109.429 C453.174,108.361 452.954,107.557 452.876,107.155 L452.65,108.809 L456.724,100.661 C457.617,98.875 457.571,96.764 456.602,95.019 L452.373,87.401 C451.307,85.479 449.282,84.287 447.083,84.287 Z" />
            <path d="M489.65,93.286 L468.907,93.286 L471.5,95.879 L471.5,78.593 L468.907,81.186 L489.65,81.186 L487.057,78.593 L487.057,83.779 C487.057,85.613 488.91,86.868 490.613,86.186 L499.257,82.729 L495.701,80.322 L495.701,94.151 L499.257,91.743 L490.613,88.286 C488.91,87.605 487.057,88.859 487.057,90.693 L487.057,95.879 L489.65,93.286 Z M489.65,98.472 C491.082,98.472 492.243,97.311 492.243,95.879 L492.243,90.693 L488.687,93.101 L497.331,96.558 C499.034,97.24 500.887,95.985 500.887,94.151 L500.887,80.322 C500.887,78.487 499.034,77.233 497.331,77.914 L488.687,81.371 L492.243,83.779 L492.243,78.593 C492.243,77.161 491.082,76 489.65,76 L468.907,76 C467.475,76 466.314,77.161 466.314,78.593 L466.314,95.879 C466.314,97.311 467.475,98.472 468.907,98.472 L489.65,98.472 Z" />
        </g>
        <g id="Black-S">
            <path d="M647.083,89.473 C647.398,89.473 647.687,89.643 647.839,89.918 L652.068,97.536 C652.207,97.785 652.213,98.087 652.086,98.342 L648.011,106.49 C647.756,107.002 647.676,107.583 647.785,108.145 C647.917,108.821 648.213,109.905 648.729,111.266 C649.576,113.503 650.752,115.738 652.319,117.834 C653.019,118.771 653.785,119.661 654.619,120.495 C655.443,121.319 656.321,122.076 657.246,122.769 C659.345,124.343 661.585,125.522 663.826,126.369 C665.19,126.884 666.276,127.179 666.955,127.309 C667.514,127.416 668.093,127.336 668.603,127.082 L676.75,123.008 C677.005,122.881 677.307,122.887 677.556,123.026 L685.196,127.273 C685.47,127.426 685.64,127.715 685.64,128.029 L685.64,136.799 C685.64,139.566 683.162,141.443 680.682,140.606 C668.543,136.51 657.797,131.006 650.952,124.162 C644.107,117.317 638.604,106.571 634.507,94.432 C633.671,91.951 635.548,89.473 638.315,89.473 L647.083,89.473 Z M647.083,84.287 L638.315,84.287 C632.066,84.287 627.6,90.183 629.594,96.09 C633.924,108.922 639.746,120.289 647.285,127.829 C654.824,135.368 666.192,141.19 679.024,145.52 C684.931,147.513 690.826,143.048 690.826,136.799 L690.826,128.029 C690.826,125.832 689.636,123.808 687.716,122.741 L680.076,118.493 C678.33,117.523 676.218,117.476 674.431,118.37 L666.284,122.443 L667.932,122.216 C667.53,122.139 666.726,121.921 665.659,121.518 C663.85,120.834 662.038,119.88 660.357,118.62 C659.625,118.071 658.933,117.474 658.286,116.828 C657.631,116.173 657.028,115.471 656.473,114.729 C655.217,113.048 654.264,111.237 653.578,109.429 C653.174,108.361 652.954,107.557 652.876,107.155 L652.65,108.809 L656.724,100.661 C657.617,98.875 657.571,96.764 656.602,95.019 L652.373,87.401 C651.307,85.479 649.282,84.287 647.083,84.287 Z" />
            <path d="M689.65,93.286 L668.907,93.286 L671.5,95.879 L671.5,78.593 L668.907,81.186 L689.65,81.186 L687.057,78.593 L687.057,83.779 C687.057,85.613 688.91,86.868 690.613,86.186 L699.257,82.729 L695.701,80.322 L695.701,94.151 L699.257,91.743 L690.613,88.286 C688.91,87.605 687.057,88.859 687.057,90.693 L687.057,95.879 L689.65,93.286 Z M689.65,98.472 C691.082,98.472 692.243,97.311 692.243,95.879 L692.243,90.693 L688.687,93.101 L697.331,96.558 C699.034,97.24 700.887,95.985 700.887,94.151 L700.887,80.322 C700.887,78.487 699.034,77.233 697.331,77.914 L688.687,81.371 L692.243,83.779 L692.243,78.593 C692.243,77.161 691.082,76 689.65,76 L668.907,76 C667.475,76 666.314,77.161 666.314,78.593 L666.314,95.879 C666.314,97.311 667.475,98.472 668.907,98.472 L689.65,98.472 Z" />
        </g>
    </g>
</svg>