<?xml version="1.0" encoding="UTF-8"?>
<svg height="600" width="800" xmlns="http://www.w3.org/2000/svg" xmlns:xlink="http://www.w3.org/1999/xlink">
    <g id="Notes" font-family="'LucidaGrande', 'Lucida Grande', sans-serif" font-size="13">
        <rect fill="white" height="600.0" width="800.0" x="0.0" y="0.0" />
        <g font-size="13">
            <text x="18.0" y="176.0">Small</text>
            <text x="18.0" y="376.0">Medium</text>
            <text x="18.0" y="576.0">Large</text>
        </g>
        <g font-size="9">
            <text x="250.0" y="30.0">Ultralight</text>
            <text x="450.0" y="30.0">Regular</text>
            <text x="650.0" y="30.0">Black</text>
            <text id="template-version" fill="#505050" text-anchor="end" x="785.0" y="575.0">Template v.3.0</text>
            <a href="https://github.com/swhitty/SwiftDraw">
                <text fill="#505050" text-anchor="end" x="785.0" y="590.0">https://github.com/swhitty/SwiftDraw</text>
            </a>
        </g>
    </g>
    <g id="Guides" stroke="rgb(39, 170, 225)" stroke-width="0.5">
        <path id="Capline-S" d="M18,76 l800,0" />
        <path id="H-reference" d="M85,145.755 L87.685,145.755 L113.369,79.287 L114.052,79.287 L114.052,76 L112.148,76 L85,145.755 Z M95.693,121.536 L130.996,121.536 L130.263,119.313 L96.474,119.313 L95.693,121.536 Z M139.15,145.755 L141.787,145.755 L114.638,76 L113.466,76 L113.466,79.287 L139.15,145.755 Z" stroke="none" />
        <path id="Baseline-S" d="M18,146 l800,0" />
        <path id="left-margin-Ultralight-S" d="M212,56 l0,110" />
        <path id="right-margin-Ultralight-S" d="M318,56 l0,110" />
        <path id="left-margin-Regular-S" d="M412,56 l0,110" />
        <path id="right-margin-Regular-S" d="M518,56 l0,110" />
        <path id="left-margin-Black-S" d="M612,56 l0,110" />
        <path id="right-margin-Black-S" d="M718,56 l0,110" />
        <path id="Capline-M" d="M18,276 l800,0" />
        <path id="Baseline-M" d="M18,346 l800,0" />
        <path id="Capline-L" d="M18,476 l800,0" />
        <path id="Baseline-L" d="M18,546 l800,0" />
    </g>
    <g id="Symbols">
        <g id="Ultralight-S">
            <path d="M302,79 L302,111 L305,108 L225,108 L228,111 L228,79 L225,82 L305,82 L302,79 Z M308,79 C308,77.343 306.657,76 305,76 L225,76 C223.343,76 222,77.343 222,79 L222,111 C222,112.657 223.343,114 225,114 L305,114 C306.657,114 308,112.657 308,111 L308,79 Z" />
            <path d="M302,111 L302,143 L305,140 L225,140 L228,143 L228,111 L225,114 L305,114 L302,111 Z M308,111 C308,109.343 306.657,108 305,108 L225,108 C223.343,108 222,109.343 222,111 L222,143 C222,144.657 223.343,146 225,146 L305,146 C306.657,146 308,144.657 308,143 L308,111 Z" />
            <path d="M234,111 L234,127 C234,128.657 235.343,130 237,130 C238.657,130 240,128.657 240,127 L240,111 C240,109.343 238.657,108 237,108 C235.343,108 234,109.343 234,111 Z" />
            <path d="M246,111 L246,127 C246,128.657 247.343,130 249,130 C250.657,130 252,128.657 252,127 L252,111 C252,109.343 250.657,108 249,108 C247.343,108 246,109.343 246,111 Z" />
            <path d="M266,111 L266,127 C266,128.657 267.343,130 269,130 C270.657,130 272,128.657 272,127 L272,111 C272,109.343 270.657,108 269,108 C267.343,108 266,109.343 266,111 Z" />
            <path d="M278,111 L278,127 C278,128.657 279.343,130 281,130 C282.657,130 284,128.657 284,127 L284,111 C284,109.343 282.657,108 281,108 C279.343,108 278,109.343 278,111 Z" />
            <path d="M290,111 L290,127 C290,128.657 291.343,130 293,130 C294.657,130 296,128.657 296,127 L296,111 C296,109.343 294.657,108 293,108 C291.343,108 290,109.343 290,111 Z" />
        </g>
        <g id="Regular-S">
            <path d="M502,79 L502,111 L505,108 L425,108 L428,111 L428,79 L425,82 L505,82 L502,79 Z M508,79 C508,77.343 506.657,76 505,76 L425,76 C423.343,76 422,77.343 422,79 L422,111 C422,112.657 423.343,114 425,114 L505,114 C506.657,114 508,112.657 508,111 L508,79 Z" />
            <path d="M502,111 L502,143 L505,140 L425,140 L428,143 L428,111 L425,114 L505,114 L502,111 Z M508,111 C508,109.343 506.657,108 505,108 L425,108 C423.343,108 422,109.343 422,111 L422,143 C422,144.657 423.343,146 425,146 L505,146 C506.657,146 508,144.657 508,143 L508,111 Z" />
            <path d="M434,111 L434,127 C434,128.657 435.343,130 437,130 C438.657,130 440,128.657 440,127 L440,111 C440,109.343 438.657,108 437,108 C435.343,108 434,109.343 434,111 Z" />
            <path d="M446,111 L446,127 C446,128.657 447.343,130 449,130 C450.657,130 452,128.657 452,127 L452,111 C452,109.343 450.657,108 449,108 C447.343,108 446,109.343 446,111 Z" />
            <path d="M466,111 L466,127 C466,128.657 467.343,130 469,130 C470.657,130 472,128.657 472,127 L472,111 C472,109.343 470.657,108 469,108 C467.343,108 466,109.343 466,111 Z" />
            <path d="M478,111 L478,127 C478,128.657 479.343,130 481,130 C482.657,130 484,128.657 484,127 L484,111 C484,109.343 482.657,108 481,108 C479.343,108 478,109.343 478,111 Z" />
            <path d="M490,111 L490,127 C490,128.657 491.343,130 493,130 C494.657,130 496,128.657 496,127 L496,111 C496,109.343 494.657,108 493,108 C491.343,108 490,109.343 490,111 Z" />
        </g>
        <g id="Black-S">
            <path d="M702,79 L702,111 L705,108 L625,108 L628,111 L628,79 L625,82 L705,82 L702,79 Z M708,79 C708,77.343 706.657,76 705,76 L625,76 C623.343,76 622,77.343 622,79 L622,111 C622,112.657 623.343,114 625,114 L705,114 C706.657,114 708,112.657 708,111 L708,79 Z" />
            <path d="M702,111 L702,143 L705,140 L625,140 L628,143 L628,111 L625,114 L705,114 L702,111 Z M708,111 C708,109.343 706.657,108 705,108 L625,108 C623.343,108 622,109.343 622,111 L622,143 C622,144.657 623.343,146 625,146 L705,146 C706.657,146 708,144.657 708,143 L708,111 Z" />
            <path d="M634,111 L634,127 C634,128.657 635.343,130 637,130 C638.657,130 640,128.657 640,127 L640,111 C640,109.343 638.657,108 637,108 C635.343,108 634,109.343 634,111 Z" />
            <path d="M646,111 L646,127 C646,128.657 647.343,130 649,130 C650.657,130 652,128.657 652,127 L652,111 C652,109.343 650.657,108 649,108 C647.343,108 646,109.343 646,111 Z" />
            <path d="M666,111 L666,127 C666,128.657 667.343,130 669,130 C670.657,130 672,128.657 672,127 L672,111 C672,109.343 670.657,108 669,108 C667.343,108 666,109.343 666,111 Z" />
            <path d="M678,111 L678,127 C678,128.657 679.343,130 681,130 C682.657,130 684,128.657 684,127 L684,111 C684,109.343 682.657,108 681,108 C679.343,108 678,109.343 678,111 Z" />
            <path d="M690,111 L690,127 C690,128.657 691.343,130 693,130 C694.657,130 696,128.657 696,127 L696,111 C696,109.343 694.657,108 693,108 C691.343,108 690,109.343 690,111 Z" />
        </g>
    </g>
</svg>