<?xml version="1.0" encoding="UTF-8"?>
<svg height="600" width="800" xmlns="http://www.w3.org/2000/svg" xmlns:xlink="http://www.w3.org/1999/xlink">
    <g id="Notes" font-family="'LucidaGrande', 'Lucida Grande', sans-serif" font-size="13">
        <rect fill="white" height="600.0" width="800.0" x="0.0" y="0.0" />
        <g font-size="13">
            <text x="18.0" y="176.0">Small</text>
            <text x="18.0" y="376.0">Medium</text>
            <text x="18.0" y="576.0">Large</text>
        </g>
        <g font-size="9">
            <text x="250.0" y="30.0">Ultralight</text>
            <text x="450.0" y="30.0">Regular</text>
            <text x="650.0" y="30.0">Black</text>
            <text id="template-version" fill="#505050" text-anchor="end" x="785.0" y="575.0">Template v.3.0</text>
            <a href="https://github.com/swhitty/SwiftDraw">
                <text fill="#505050" text-anchor="end" x="785.0" y="590.0">https://github.com/swhitty/SwiftDraw</text>
            </a>
        </g>
    </g>
    <g id="Guides" stroke="rgb(39, 170, 225)" stroke-width="0.5">
        <path id="Capline-S" d="M18,76 l800,0" />
        <path id="H-reference" d="M85,145.755 L87.685,145.755 L113.369,79.287 L114.052,79.287 L114.052,76 L112.148,76 L85,145.755 Z M95.693,121.536 L130.996,121.536 L130.263,119.313 L96.474,119.313 L95.693,121.536 Z M139.15,145.755 L141.787,145.755 L114.638,76 L113.466,76 L113.466,79.287 L139.15,145.755 Z" stroke="none" />
        <path id="Baseline-S" d="M18,146 l800,0" />
        <path id="left-margin-Ultralight-S" d="M220,56 l0,110" />
        <path id="right-margin-Ultralight-S" d="M310,56 l0,110" />
        <path id="left-margin-Regular-S" d="M420,56 l0,110" />
        <path id="right-margin-Regular-S" d="M510,56 l0,110" />
        <path id="left-margin-Black-S" d="M620,56 l0,110" />
        <path id="right-margin-Black-S" d="M710,56 l0,110" />
        <path id="Capline-M" d="M18,276 l800,0" />
        <path id="Baseline-M" d="M18,346 l800,0" />
        <path id="Capline-L" d="M18,476 l800,0" />
        <path id="Baseline-L" d="M18,546 l800,0" />
    </g>
    <g id="Symbols">
        <g id="Ultralight-S">
            <path d="M234.884,111 C234.884,94.367 248.367,80.884 265,80.884 C281.633,80.884 295.116,94.367 295.116,111 C295.116,127.633 281.633,141.116 265,141.116 C248.367,141.116 234.884,127.633 234.884,111 Z M230,111 C230,130.33 245.67,146 265,146 C284.33,146 300,130.33 300,111 C300,91.67 284.33,76 265,76 C245.67,76 230,91.67 230,111 Z" />
            <path d="M265,80.884 C268.955,80.884 272.871,81.663 276.525,83.176 C280.179,84.69 283.499,86.908 286.295,89.705 C289.092,92.501 291.31,95.821 292.824,99.475 C294.337,103.129 295.116,107.045 295.116,111 L297.558,108.558 L265,108.558 L267.442,111 L267.442,78.442 L265,80.884 Z M265,76 C263.651,76 262.558,77.093 262.558,78.442 L262.558,111 C262.558,112.349 263.651,113.442 265,113.442 L297.558,113.442 C298.907,113.442 300,112.349 300,111 C300,106.404 299.095,101.852 297.336,97.606 C295.577,93.36 292.999,89.501 289.749,86.251 C286.499,83.001 282.64,80.423 278.394,78.664 C274.148,76.905 269.596,76 265,76 Z" />
        </g>
        <g id="Regular-S">
            <path d="M434.884,111 C434.884,94.367 448.367,80.884 465,80.884 C481.633,80.884 495.116,94.367 495.116,111 C495.116,127.633 481.633,141.116 465,141.116 C448.367,141.116 434.884,127.633 434.884,111 Z M430,111 C430,130.33 445.67,146 465,146 C484.33,146 500,130.33 500,111 C500,91.67 484.33,76 465,76 C445.67,76 430,91.67 430,111 Z" />
            <path d="M465,80.884 C468.955,80.884 472.871,81.663 476.525,83.176 C480.179,84.69 483.499,86.908 486.295,89.705 C489.092,92.501 491.31,95.821 492.824,99.475 C494.337,103.129 495.116,107.045 495.116,111 L497.558,108.558 L465,108.558 L467.442,111 L467.442,78.442 L465,80.884 Z M465,76 C463.651,76 462.558,77.093 462.558,78.442 L462.558,111 C462.558,112.349 463.651,113.442 465,113.442 L497.558,113.442 C498.907,113.442 500,112.349 500,111 C500,106.404 499.095,101.852 497.336,97.606 C495.577,93.36 492.999,89.501 489.749,86.251 C486.499,83.001 482.64,80.423 478.394,78.664 C474.148,76.905 469.596,76 465,76 Z" />
        </g>
        <g id="Black-S">
            <path d="M634.884,111 C634.884,94.367 648.367,80.884 665,80.884 C681.633,80.884 695.116,94.367 695.116,111 C695.116,127.633 681.633,141.116 665,141.116 C648.367,141.116 634.884,127.633 634.884,111 Z M630,111 C630,130.33 645.67,146 665,146 C684.33,146 700,130.33 700,111 C700,91.67 684.33,76 665,76 C645.67,76 630,91.67 630,111 Z" />
            <path d="M665,80.884 C668.955,80.884 672.871,81.663 676.525,83.176 C680.179,84.69 683.499,86.908 686.295,89.705 C689.092,92.501 691.31,95.821 692.824,99.475 C694.337,103.129 695.116,107.045 695.116,111 L697.558,108.558 L665,108.558 L667.442,111 L667.442,78.442 L665,80.884 Z M665,76 C663.651,76 662.558,77.093 662.558,78.442 L662.558,111 C662.558,112.349 663.651,113.442 665,113.442 L697.558,113.442 C698.907,113.442 700,112.349 700,111 C700,106.404 699.095,101.852 697.336,97.606 C695.577,93.36 692.999,89.501 689.749,86.251 C686.499,83.001 682.64,80.423 678.394,78.664 C674.148,76.905 669.596,76 665,76 Z" />
        </g>
    </g>
</svg>