<?xml version="1.0" encoding="UTF-8"?>
<svg height="600" width="800" xmlns="http://www.w3.org/2000/svg" xmlns:xlink="http://www.w3.org/1999/xlink">
    <g id="Notes" font-family="'LucidaGrande', 'Lucida Grande', sans-serif" font-size="13">
        <rect fill="white" height="600.0" width="800.0" x="0.0" y="0.0" />
        <g font-size="13">
            <text x="18.0" y="176.0">Small</text>
            <text x="18.0" y="376.0">Medium</text>
            <text x="18.0" y="576.0">Large</text>
        </g>
        <g font-size="9">
            <text x="250.0" y="30.0">Ultralight</text>
            <text x="450.0" y="30.0">Regular</text>
            <text x="650.0" y="30.0">Black</text>
            <text id="template-version" fill="#505050" text-anchor="end" x="785.0" y="575.0">Template v.3.0</text>
            <a href="https://github.com/swhitty/SwiftDraw">
                <text fill="#505050" text-anchor="end" x="785.0" y="590.0">https://github.com/swhitty/SwiftDraw</text>
            </a>
        </g>
    </g>
    <g id="Guides" stroke="rgb(39, 170, 225)" stroke-width="0.5">
        <path id="Capline-S" d="M18,76 l800,0" />
        <path id="H-reference" d="M85,145.755 L87.685,145.755 L113.369,79.287 L114.052,79.287 L114.052,76 L112.148,76 L85,145.755 Z M95.693,121.536 L130.996,121.536 L130.263,119.313 L96.474,119.313 L95.693,121.536 Z M139.15,145.755 L141.787,145.755 L114.638,76 L113.466,76 L113.466,79.287 L139.15,145.755 Z" stroke="none" />
        <path id="Baseline-S" d="M18,146 l800,0" />
        <path id="left-margin-Ultralight-S" d="M211,56 l0,110" />
        <path id="right-margin-Ultralight-S" d="M319,56 l0,110" />
        <path id="left-margin-Regular-S" d="M411,56 l0,110" />
        <path id="right-margin-Regular-S" d="M519,56 l0,110" />
        <path id="left-margin-Black-S" d="M611,56 l0,110" />
        <path id="right-margin-Black-S" d="M719,56 l0,110" />
        <path id="Capline-M" d="M18,276 l800,0" />
        <path id="Baseline-M" d="M18,346 l800,0" />
        <path id="Capline-L" d="M18,476 l800,0" />
        <path id="Baseline-L" d="M18,546 l800,0" />
    </g>
    <g id="Symbols">
        <g id="Ultralight-S">
            <path d="M265.005,144.691 C283.612,144.691 298.695,129.607 298.695,111 C298.695,92.393 283.612,77.309 265.005,77.309 C246.398,77.309 231.314,92.393 231.314,111 C231.314,129.607 246.398,144.691 265.005,144.691 Z M265.005,138.915 C249.588,138.915 237.09,126.417 237.09,111 C237.09,95.583 249.588,83.085 265.005,83.085 C280.422,83.085 292.92,95.583 292.92,111 C292.92,126.417 280.422,138.915 265.005,138.915 Z" />
            <path d="M290.867,97.532 C298.145,98.167 302.466,100.245 303.126,102.711 C304.709,108.618 289.369,119.352 268.243,125.012 C247.118,130.673 228.466,129.047 226.884,123.14 C226.185,120.531 229.241,116.287 235.84,111.891 C237.167,111.007 237.526,109.214 236.642,107.887 C235.757,106.559 233.965,106.2 232.637,107.085 C224.184,112.717 219.758,118.862 221.305,124.635 C224.125,135.16 245.675,137.039 269.738,130.591 C293.801,124.143 311.525,111.741 308.705,101.216 C307.223,95.684 300.818,92.603 291.369,91.778 C289.78,91.639 288.38,92.815 288.241,94.404 C288.103,95.993 289.278,97.393 290.867,97.532 Z" />
        </g>
        <g id="Regular-S">
            <path d="M465.005,144.691 C483.612,144.691 498.695,129.607 498.695,111 C498.695,92.393 483.612,77.309 465.005,77.309 C446.398,77.309 431.314,92.393 431.314,111 C431.314,129.607 446.398,144.691 465.005,144.691 Z M465.005,138.915 C449.588,138.915 437.09,126.417 437.09,111 C437.09,95.583 449.588,83.085 465.005,83.085 C480.422,83.085 492.92,95.583 492.92,111 C492.92,126.417 480.422,138.915 465.005,138.915 Z" />
            <path d="M490.867,97.532 C498.145,98.167 502.466,100.245 503.126,102.711 C504.709,108.618 489.369,119.352 468.243,125.012 C447.118,130.673 428.466,129.047 426.884,123.14 C426.185,120.531 429.241,116.287 435.84,111.891 C437.167,111.007 437.526,109.214 436.642,107.887 C435.757,106.559 433.965,106.2 432.637,107.085 C424.184,112.717 419.758,118.862 421.305,124.635 C424.125,135.16 445.675,137.039 469.738,130.591 C493.801,124.143 511.525,111.741 508.705,101.216 C507.223,95.684 500.818,92.603 491.369,91.778 C489.78,91.639 488.38,92.815 488.241,94.404 C488.103,95.993 489.278,97.393 490.867,97.532 Z" />
        </g>
        <g id="Black-S">
            <path d="M665.005,144.691 C683.612,144.691 698.695,129.607 698.695,111 C698.695,92.393 683.612,77.309 665.005,77.309 C646.398,77.309 631.314,92.393 631.314,111 C631.314,129.607 646.398,144.691 665.005,144.691 Z M665.005,138.915 C649.588,138.915 637.09,126.417 637.09,111 C637.09,95.583 649.588,83.085 665.005,83.085 C680.422,83.085 692.92,95.583 692.92,111 C692.92,126.417 680.422,138.915 665.005,138.915 Z" />
            <path d="M690.867,97.532 C698.145,98.167 702.466,100.245 703.126,102.711 C704.709,108.618 689.369,119.352 668.243,125.012 C647.118,130.673 628.466,129.047 626.884,123.14 C626.185,120.531 629.241,116.287 635.84,111.891 C637.167,111.007 637.526,109.214 636.642,107.887 C635.757,106.559 633.965,106.2 632.637,107.085 C624.184,112.717 619.758,118.862 621.305,124.635 C624.125,135.16 645.675,137.039 669.738,130.591 C693.801,124.143 711.525,111.741 708.705,101.216 C707.223,95.684 700.818,92.603 691.369,91.778 C689.78,91.639 688.38,92.815 688.241,94.404 C688.103,95.993 689.278,97.393 690.867,97.532 Z" />
        </g>
    </g>
</svg>