<?xml version="1.0" encoding="UTF-8"?>
<svg height="600" width="800" xmlns="http://www.w3.org/2000/svg" xmlns:xlink="http://www.w3.org/1999/xlink">
    <g id="Notes" font-family="'LucidaGrande', 'Lucida Grande', sans-serif" font-size="13">
        <rect fill="white" height="600.0" width="800.0" x="0.0" y="0.0" />
        <g font-size="13">
            <text x="18.0" y="176.0">Small</text>
            <text x="18.0" y="376.0">Medium</text>
            <text x="18.0" y="576.0">Large</text>
        </g>
        <g font-size="9">
            <text x="250.0" y="30.0">Ultralight</text>
            <text x="450.0" y="30.0">Regular</text>
            <text x="650.0" y="30.0">Black</text>
            <text id="template-version" fill="#505050" text-anchor="end" x="785.0" y="575.0">Template v.3.0</text>
            <a href="https://github.com/swhitty/SwiftDraw">
                <text fill="#505050" text-anchor="end" x="785.0" y="590.0">https://github.com/swhitty/SwiftDraw</text>
            </a>
        </g>
    </g>
    <g id="Guides" stroke="rgb(39, 170, 225)" stroke-width="0.5">
        <path id="Capline-S" d="M18,76 l800,0" />
        <path id="H-reference" d="M85,145.755 L87.685,145.755 L113.369,79.287 L114.052,79.287 L114.052,76 L112.148,76 L85,145.755 Z M95.693,121.536 L130.996,121.536 L130.263,119.313 L96.474,119.313 L95.693,121.536 Z M139.15,145.755 L141.787,145.755 L114.638,76 L113.466,76 L113.466,79.287 L139.15,145.755 Z" stroke="none" />
        <path id="Baseline-S" d="M18,146 l800,0" />
        <path id="left-margin-Ultralight-S" d="M218.293,56 l0,110" />
        <path id="right-margin-Ultralight-S" d="M311.707,56 l0,110" />
        <path id="left-margin-Regular-S" d="M418.293,56 l0,110" />
        <path id="right-margin-Regular-S" d="M511.707,56 l0,110" />
        <path id="left-margin-Black-S" d="M618.293,56 l0,110" />
        <path id="right-margin-Black-S" d="M711.707,56 l0,110" />
        <path id="Capline-M" d="M18,276 l800,0" />
        <path id="Baseline-M" d="M18,346 l800,0" />
        <path id="Capline-L" d="M18,476 l800,0" />
        <path id="Baseline-L" d="M18,546 l800,0" />
    </g>
    <g id="Symbols">
        <g id="Ultralight-S">
            <path d="M296.585,78.561 L296.585,122.951 L299.146,120.39 L230.854,120.39 L233.415,122.951 L233.415,78.561 L230.854,81.122 L299.146,81.122 L296.585,78.561 Z M301.707,78.561 C301.707,77.147 300.561,76 299.146,76 L230.854,76 C229.439,76 228.293,77.147 228.293,78.561 L228.293,122.951 C228.293,124.366 229.439,125.512 230.854,125.512 L299.146,125.512 C300.561,125.512 301.707,124.366 301.707,122.951 L301.707,78.561 Z" />
            <path d="M260.165,96.058 L270.409,102.887 L270.409,98.625 L260.165,105.455 L264.146,107.585 L264.146,93.927 L260.165,96.058 Z M263.006,91.796 C261.304,90.661 259.024,91.881 259.024,93.927 L259.024,107.585 C259.024,109.631 261.304,110.851 263.006,109.716 L273.25,102.887 C274.77,101.873 274.77,99.639 273.25,98.625 L263.006,91.796 Z" />
            <path d="M242.805,135.756 L234.268,135.756 C232.854,135.756 231.707,136.903 231.707,138.317 C231.707,139.731 232.854,140.878 234.268,140.878 L242.805,140.878 C244.219,140.878 245.366,139.731 245.366,138.317 C245.366,136.903 244.219,135.756 242.805,135.756 Z" />
            <path d="M253.049,140.878 L295.732,140.878 C297.146,140.878 298.293,139.731 298.293,138.317 C298.293,136.903 297.146,135.756 295.732,135.756 L253.049,135.756 C251.634,135.756 250.488,136.903 250.488,138.317 C250.488,139.731 251.634,140.878 253.049,140.878 Z" />
            <path d="M250.488,138.317 C250.488,139.732 249.341,140.878 247.927,140.878 C246.512,140.878 245.366,139.732 245.366,138.317 C245.366,136.903 246.512,135.756 247.927,135.756 C249.341,135.756 250.488,136.903 250.488,138.317 Z M255.61,138.317 C255.61,134.074 252.17,130.634 247.927,130.634 C243.684,130.634 240.244,134.074 240.244,138.317 C240.244,142.56 243.684,146 247.927,146 C252.17,146 255.61,142.56 255.61,138.317 Z" />
        </g>
        <g id="Regular-S">
            <path d="M496.585,78.561 L496.585,122.951 L499.146,120.39 L430.854,120.39 L433.415,122.951 L433.415,78.561 L430.854,81.122 L499.146,81.122 L496.585,78.561 Z M501.707,78.561 C501.707,77.147 500.561,76 499.146,76 L430.854,76 C429.439,76 428.293,77.147 428.293,78.561 L428.293,122.951 C428.293,124.366 429.439,125.512 430.854,125.512 L499.146,125.512 C500.561,125.512 501.707,124.366 501.707,122.951 L501.707,78.561 Z" />
            <path d="M460.165,96.058 L470.409,102.887 L470.409,98.625 L460.165,105.455 L464.146,107.585 L464.146,93.927 L460.165,96.058 Z M463.006,91.796 C461.304,90.661 459.024,91.881 459.024,93.927 L459.024,107.585 C459.024,109.631 461.304,110.851 463.006,109.716 L473.25,102.887 C474.77,101.873 474.77,99.639 473.25,98.625 L463.006,91.796 Z" />
            <path d="M442.805,135.756 L434.268,135.756 C432.854,135.756 431.707,136.903 431.707,138.317 C431.707,139.731 432.854,140.878 434.268,140.878 L442.805,140.878 C444.219,140.878 445.366,139.731 445.366,138.317 C445.366,136.903 444.219,135.756 442.805,135.756 Z" />
            <path d="M453.049,140.878 L495.732,140.878 C497.146,140.878 498.293,139.731 498.293,138.317 C498.293,136.903 497.146,135.756 495.732,135.756 L453.049,135.756 C451.634,135.756 450.488,136.903 450.488,138.317 C450.488,139.731 451.634,140.878 453.049,140.878 Z" />
            <path d="M450.488,138.317 C450.488,139.732 449.341,140.878 447.927,140.878 C446.512,140.878 445.366,139.732 445.366,138.317 C445.366,136.903 446.512,135.756 447.927,135.756 C449.341,135.756 450.488,136.903 450.488,138.317 Z M455.61,138.317 C455.61,134.074 452.17,130.634 447.927,130.634 C443.684,130.634 440.244,134.074 440.244,138.317 C440.244,142.56 443.684,146 447.927,146 C452.17,146 455.61,142.56 455.61,138.317 Z" />
        </g>
        <g id="Black-S">
            <path d="M696.585,78.561 L696.585,122.951 L699.146,120.39 L630.854,120.39 L633.415,122.951 L633.415,78.561 L630.854,81.122 L699.146,81.122 L696.585,78.561 Z M701.707,78.561 C701.707,77.147 700.561,76 699.146,76 L630.854,76 C629.439,76 628.293,77.147 628.293,78.561 L628.293,122.951 C628.293,124.366 629.439,125.512 630.854,125.512 L699.146,125.512 C700.561,125.512 701.707,124.366 701.707,122.951 L701.707,78.561 Z" />
            <path d="M660.165,96.058 L670.409,102.887 L670.409,98.625 L660.165,105.455 L664.146,107.585 L664.146,93.927 L660.165,96.058 Z M663.006,91.796 C661.304,90.661 659.024,91.881 659.024,93.927 L659.024,107.585 C659.024,109.631 661.304,110.851 663.006,109.716 L673.25,102.887 C674.77,101.873 674.77,99.639 673.25,98.625 L663.006,91.796 Z" />
            <path d="M642.805,135.756 L634.268,135.756 C632.854,135.756 631.707,136.903 631.707,138.317 C631.707,139.731 632.854,140.878 634.268,140.878 L642.805,140.878 C644.219,140.878 645.366,139.731 645.366,138.317 C645.366,136.903 644.219,135.756 642.805,135.756 Z" />
            <path d="M653.049,140.878 L695.732,140.878 C697.146,140.878 698.293,139.731 698.293,138.317 C698.293,136.903 697.146,135.756 695.732,135.756 L653.049,135.756 C651.634,135.756 650.488,136.903 650.488,138.317 C650.488,139.731 651.634,140.878 653.049,140.878 Z" />
            <path d="M650.488,138.317 C650.488,139.732 649.341,140.878 647.927,140.878 C646.512,140.878 645.366,139.732 645.366,138.317 C645.366,136.903 646.512,135.756 647.927,135.756 C649.341,135.756 650.488,136.903 650.488,138.317 Z M655.61,138.317 C655.61,134.074 652.17,130.634 647.927,130.634 C643.684,130.634 640.244,134.074 640.244,138.317 C640.244,142.56 643.684,146 647.927,146 C652.17,146 655.61,142.56 655.61,138.317 Z" />
        </g>
    </g>
</svg>