<?xml version="1.0" encoding="UTF-8"?>
<svg height="600" width="800" xmlns="http://www.w3.org/2000/svg" xmlns:xlink="http://www.w3.org/1999/xlink">
    <g id="Notes" font-family="'LucidaGrande', 'Lucida Grande', sans-serif" font-size="13">
        <rect fill="white" height="600.0" width="800.0" x="0.0" y="0.0" />
        <g font-size="13">
            <text x="18.0" y="176.0">Small</text>
            <text x="18.0" y="376.0">Medium</text>
            <text x="18.0" y="576.0">Large</text>
        </g>
        <g font-size="9">
            <text x="250.0" y="30.0">Ultralight</text>
            <text x="450.0" y="30.0">Regular</text>
            <text x="650.0" y="30.0">Black</text>
            <text id="template-version" fill="#505050" text-anchor="end" x="785.0" y="575.0">Template v.3.0</text>
            <a href="https://github.com/swhitty/SwiftDraw">
                <text fill="#505050" text-anchor="end" x="785.0" y="590.0">https://github.com/swhitty/SwiftDraw</text>
            </a>
        </g>
    </g>
    <g id="Guides" stroke="rgb(39, 170, 225)" stroke-width="0.5">
        <path id="Capline-S" d="M18,76 l800,0" />
        <path id="H-reference" d="M85,145.755 L87.685,145.755 L113.369,79.287 L114.052,79.287 L114.052,76 L112.148,76 L85,145.755 Z M95.693,121.536 L130.996,121.536 L130.263,119.313 L96.474,119.313 L95.693,121.536 Z M139.15,145.755 L141.787,145.755 L114.638,76 L113.466,76 L113.466,79.287 L139.15,145.755 Z" stroke="none" />
        <path id="Baseline-S" d="M18,146 l800,0" />
        <path id="left-margin-Ultralight-S" d="M214.324,56 l0,110" />
        <path id="right-margin-Ultralight-S" d="M315.676,56 l0,110" />
        <path id="left-margin-Regular-S" d="M414.324,56 l0,110" />
        <path id="right-margin-Regular-S" d="M515.676,56 l0,110" />
        <path id="left-margin-Black-S" d="M614.324,56 l0,110" />
        <path id="right-margin-Black-S" d="M715.676,56 l0,110" />
        <path id="Capline-M" d="M18,276 l800,0" />
        <path id="Baseline-M" d="M18,346 l800,0" />
        <path id="Capline-L" d="M18,476 l800,0" />
        <path id="Baseline-L" d="M18,546 l800,0" />
    </g>
    <g id="Symbols">
        <g id="Ultralight-S">
            <path d="M230,112.892 C230,101.91 238.907,93.027 249.865,93.027 L302.838,93.027 C304.405,93.027 305.676,91.756 305.676,90.189 C305.676,88.622 304.405,87.351 302.838,87.351 L249.865,87.351 C235.776,87.351 224.324,98.772 224.324,112.892 C224.324,114.459 225.595,115.73 227.162,115.73 C228.729,115.73 230,114.459 230,112.892 Z" />
            <path d="M289.48,80.844 L300.831,92.196 L300.831,88.183 L289.48,99.534 C288.372,100.642 288.372,102.439 289.48,103.547 C290.588,104.655 292.385,104.655 293.493,103.547 L304.845,92.196 C305.953,91.088 305.953,89.291 304.845,88.183 L293.493,76.831 C292.385,75.723 290.588,75.723 289.48,76.831 C288.372,77.939 288.372,79.736 289.48,80.844 Z" />
            <path d="M300,109.108 C300,120.09 291.093,128.973 280.135,128.973 L227.162,128.973 C225.595,128.973 224.324,130.244 224.324,131.811 C224.324,133.378 225.595,134.649 227.162,134.649 L280.135,134.649 C294.225,134.649 305.676,123.228 305.676,109.108 C305.676,107.541 304.405,106.27 302.838,106.27 C301.271,106.27 300,107.541 300,109.108 Z" />
            <path d="M240.52,141.156 L229.169,129.804 L229.169,133.817 L240.52,122.466 C241.628,121.358 241.628,119.561 240.52,118.453 C239.412,117.345 237.615,117.345 236.507,118.453 L225.156,129.804 C224.047,130.912 224.047,132.709 225.156,133.817 L236.507,145.169 C237.615,146.277 239.412,146.277 240.52,145.169 C241.628,144.061 241.628,142.264 240.52,141.156 Z" />
        </g>
        <g id="Regular-S">
            <path d="M430,112.892 C430,101.91 438.907,93.027 449.865,93.027 L502.838,93.027 C504.405,93.027 505.676,91.756 505.676,90.189 C505.676,88.622 504.405,87.351 502.838,87.351 L449.865,87.351 C435.776,87.351 424.324,98.772 424.324,112.892 C424.324,114.459 425.595,115.73 427.162,115.73 C428.729,115.73 430,114.459 430,112.892 Z" />
            <path d="M489.48,80.844 L500.831,92.196 L500.831,88.183 L489.48,99.534 C488.372,100.642 488.372,102.439 489.48,103.547 C490.588,104.655 492.385,104.655 493.493,103.547 L504.845,92.196 C505.953,91.088 505.953,89.291 504.845,88.183 L493.493,76.831 C492.385,75.723 490.588,75.723 489.48,76.831 C488.372,77.939 488.372,79.736 489.48,80.844 Z" />
            <path d="M500,109.108 C500,120.09 491.093,128.973 480.135,128.973 L427.162,128.973 C425.595,128.973 424.324,130.244 424.324,131.811 C424.324,133.378 425.595,134.649 427.162,134.649 L480.135,134.649 C494.225,134.649 505.676,123.228 505.676,109.108 C505.676,107.541 504.405,106.27 502.838,106.27 C501.271,106.27 500,107.541 500,109.108 Z" />
            <path d="M440.52,141.156 L429.169,129.804 L429.169,133.817 L440.52,122.466 C441.628,121.358 441.628,119.561 440.52,118.453 C439.412,117.345 437.615,117.345 436.507,118.453 L425.156,129.804 C424.047,130.912 424.047,132.709 425.156,133.817 L436.507,145.169 C437.615,146.277 439.412,146.277 440.52,145.169 C441.628,144.061 441.628,142.264 440.52,141.156 Z" />
        </g>
        <g id="Black-S">
            <path d="M630,112.892 C630,101.91 638.907,93.027 649.865,93.027 L702.838,93.027 C704.405,93.027 705.676,91.756 705.676,90.189 C705.676,88.622 704.405,87.351 702.838,87.351 L649.865,87.351 C635.776,87.351 624.324,98.772 624.324,112.892 C624.324,114.459 625.595,115.73 627.162,115.73 C628.729,115.73 630,114.459 630,112.892 Z" />
            <path d="M689.48,80.844 L700.831,92.196 L700.831,88.183 L689.48,99.534 C688.372,100.642 688.372,102.439 689.48,103.547 C690.588,104.655 692.385,104.655 693.493,103.547 L704.844,92.196 C705.953,91.088 705.953,89.291 704.844,88.183 L693.493,76.831 C692.385,75.723 690.588,75.723 689.48,76.831 C688.372,77.939 688.372,79.736 689.48,80.844 Z" />
            <path d="M700,109.108 C700,120.09 691.093,128.973 680.135,128.973 L627.162,128.973 C625.595,128.973 624.324,130.244 624.324,131.811 C624.324,133.378 625.595,134.649 627.162,134.649 L680.135,134.649 C694.225,134.649 705.676,123.228 705.676,109.108 C705.676,107.541 704.405,106.27 702.838,106.27 C701.271,106.27 700,107.541 700,109.108 Z" />
            <path d="M640.52,141.156 L629.169,129.804 L629.169,133.817 L640.52,122.466 C641.628,121.358 641.628,119.561 640.52,118.453 C639.412,117.345 637.615,117.345 636.507,118.453 L625.156,129.804 C624.047,130.912 624.047,132.709 625.156,133.817 L636.507,145.169 C637.615,146.277 639.412,146.277 640.52,145.169 C641.628,144.061 641.628,142.264 640.52,141.156 Z" />
        </g>
    </g>
</svg>