<?xml version="1.0" encoding="UTF-8"?>
<svg height="600" width="800" xmlns="http://www.w3.org/2000/svg" xmlns:xlink="http://www.w3.org/1999/xlink">
    <g id="Notes" font-family="'LucidaGrande', 'Lucida Grande', sans-serif" font-size="13">
        <rect fill="white" height="600.0" width="800.0" x="0.0" y="0.0" />
        <g font-size="13">
            <text x="18.0" y="176.0">Small</text>
            <text x="18.0" y="376.0">Medium</text>
            <text x="18.0" y="576.0">Large</text>
        </g>
        <g font-size="9">
            <text x="250.0" y="30.0">Ultralight</text>
            <text x="450.0" y="30.0">Regular</text>
            <text x="650.0" y="30.0">Black</text>
            <text id="template-version" fill="#505050" text-anchor="end" x="785.0" y="575.0">Template v.3.0</text>
            <a href="https://github.com/swhitty/SwiftDraw">
                <text fill="#505050" text-anchor="end" x="785.0" y="590.0">https://github.com/swhitty/SwiftDraw</text>
            </a>
        </g>
    </g>
    <g id="Guides" stroke="rgb(39, 170, 225)" stroke-width="0.5">
        <path id="Capline-S" d="M18,76 l800,0" />
        <path id="H-reference" d="M85,145.755 L87.685,145.755 L113.369,79.287 L114.052,79.287 L114.052,76 L112.148,76 L85,145.755 Z M95.693,121.536 L130.996,121.536 L130.263,119.313 L96.474,119.313 L95.693,121.536 Z M139.15,145.755 L141.787,145.755 L114.638,76 L113.466,76 L113.466,79.287 L139.15,145.755 Z" stroke="none" />
        <path id="Baseline-S" d="M18,146 l800,0" />
        <path id="left-margin-Ultralight-S" d="M221,56 l0,110" />
        <path id="right-margin-Ultralight-S" d="M309,56 l0,110" />
        <path id="left-margin-Regular-S" d="M421,56 l0,110" />
        <path id="right-margin-Regular-S" d="M509,56 l0,110" />
        <path id="left-margin-Black-S" d="M621,56 l0,110" />
        <path id="right-margin-Black-S" d="M709,56 l0,110" />
        <path id="Capline-M" d="M18,276 l800,0" />
        <path id="Baseline-M" d="M18,346 l800,0" />
        <path id="Capline-L" d="M18,476 l800,0" />
        <path id="Baseline-L" d="M18,546 l800,0" />
    </g>
    <g id="Symbols">
        <g id="Ultralight-S">
            <path d="M285.439,138.761 L294.354,98.644 C294.704,97.07 293.506,95.576 291.893,95.576 L238.107,95.576 C236.494,95.576 235.296,97.07 235.646,98.644 L244.561,138.761 C245.414,142.601 245.743,143.531 247.208,144.706 C248.673,145.881 249.651,146 253.585,146 L276.415,146 C280.349,146 281.327,145.881 282.792,144.706 C284.257,143.531 284.586,142.601 285.439,138.761 Z M280.517,137.667 C279.968,140.137 279.785,140.654 279.637,140.773 C279.489,140.892 278.945,140.958 276.415,140.958 L253.585,140.958 C251.055,140.958 250.511,140.892 250.363,140.773 C250.215,140.654 250.032,140.137 249.483,137.667 L240.569,97.551 L238.107,100.619 L291.893,100.619 L289.431,97.551 L280.517,137.667 Z" />
            <path d="M274.243,143.572 L275.923,98.191 C275.975,96.799 274.889,95.63 273.497,95.578 C272.106,95.527 270.936,96.613 270.884,98.004 L269.204,143.385 C269.152,144.777 270.238,145.947 271.63,145.998 C273.021,146.05 274.191,144.964 274.243,143.572 Z" />
            <path d="M260.796,143.385 L259.116,98.004 C259.064,96.613 257.894,95.527 256.503,95.578 C255.111,95.63 254.025,96.799 254.077,98.191 L255.757,143.572 C255.809,144.964 256.979,146.05 258.37,145.998 C259.762,145.947 260.848,144.777 260.796,143.385 Z" />
            <path d="M278.446,140.958 L251.554,140.958 C250.161,140.958 249.033,142.086 249.033,143.479 C249.033,144.871 250.161,146 251.554,146 L278.446,146 C279.839,146 280.967,144.871 280.967,143.479 C280.967,142.086 279.839,140.958 278.446,140.958 Z" />
            <path d="M278.446,95.576 L251.554,95.576 C250.161,95.576 249.033,96.705 249.033,98.098 C249.033,99.49 250.161,100.619 251.554,100.619 L278.446,100.619 C279.839,100.619 280.967,99.49 280.967,98.098 C280.967,96.705 279.839,95.576 278.446,95.576 Z" />
            <path d="M247.223,97.3 C247.183,97.179 247.105,96.901 247.023,96.516 C246.83,95.608 246.751,94.687 246.839,93.894 C246.921,93.159 247.133,92.638 247.454,92.317 C247.848,91.923 248.472,91.623 249.3,91.439 C250.294,91.218 251.42,91.195 252.445,91.295 C252.643,91.314 252.774,91.332 252.821,91.34 C254.357,91.596 255.756,90.411 255.756,88.853 C255.756,88.731 255.773,88.443 255.825,88.052 C255.913,87.394 256.069,86.74 256.302,86.159 C256.655,85.276 257.13,84.682 257.724,84.385 C258.132,84.181 258.671,84.073 259.328,84.073 C260.261,84.073 261.337,84.289 262.431,84.653 C263.104,84.877 263.618,85.098 263.873,85.225 C265.054,85.816 266.491,85.395 267.167,84.261 C267.206,84.195 267.317,84.026 267.495,83.79 C267.803,83.378 268.165,82.965 268.567,82.585 C269.921,81.307 271.288,80.786 272.712,81.192 C273.901,81.532 274.699,82.296 275.245,83.466 C275.537,84.091 275.732,84.788 275.841,85.491 C275.906,85.905 275.926,86.208 275.926,86.332 C275.926,87.724 277.055,88.853 278.447,88.853 C278.566,88.853 278.879,88.879 279.315,88.962 C280.063,89.104 280.807,89.359 281.484,89.746 C282.138,90.12 282.699,90.6 283.153,91.206 C283.467,91.624 283.656,92.129 283.732,92.737 C283.849,93.676 283.687,94.784 283.33,95.894 C283.163,96.415 283.001,96.797 282.915,96.97 C282.292,98.215 282.797,99.73 284.043,100.352 C285.288,100.975 286.802,100.47 287.425,99.225 C287.619,98.837 287.878,98.224 288.131,97.437 C288.693,95.687 288.957,93.887 288.735,92.112 C288.555,90.672 288.055,89.339 287.187,88.181 C286.304,87.003 285.218,86.072 283.986,85.368 C281.931,84.194 279.918,83.811 278.447,83.811 L280.968,86.332 C280.968,85.013 280.687,83.203 279.814,81.333 C278.689,78.922 276.804,77.118 274.097,76.344 C270.689,75.37 267.629,76.537 265.106,78.918 C264.032,79.932 263.275,80.941 262.835,81.68 L266.128,80.715 C265.674,80.488 264.947,80.177 264.025,79.869 C262.46,79.347 260.877,79.031 259.328,79.031 C257.937,79.031 256.637,79.291 255.469,79.875 C253.643,80.788 252.397,82.346 251.62,84.286 C250.934,86.002 250.714,87.653 250.714,88.853 L253.65,86.366 C253.495,86.34 253.253,86.308 252.937,86.277 C251.427,86.129 249.8,86.162 248.206,86.516 C246.513,86.893 245.036,87.604 243.889,88.751 C242.669,89.97 242.026,91.55 241.827,93.337 C241.672,94.739 241.795,96.17 242.09,97.562 C242.215,98.147 242.343,98.604 242.439,98.895 C242.88,100.216 244.308,100.929 245.628,100.489 C246.949,100.049 247.663,98.621 247.223,97.3 Z" />
        </g>
        <g id="Regular-S">
            <path d="M485.439,138.761 L494.354,98.644 C494.704,97.07 493.506,95.576 491.893,95.576 L438.107,95.576 C436.494,95.576 435.296,97.07 435.646,98.644 L444.561,138.761 C445.414,142.601 445.743,143.531 447.208,144.706 C448.673,145.881 449.651,146 453.585,146 L476.415,146 C480.349,146 481.327,145.881 482.792,144.706 C484.257,143.531 484.586,142.601 485.439,138.761 Z M480.517,137.667 C479.968,140.137 479.785,140.654 479.637,140.773 C479.489,140.892 478.945,140.958 476.415,140.958 L453.585,140.958 C451.055,140.958 450.511,140.892 450.363,140.773 C450.215,140.654 450.032,140.137 449.483,137.667 L440.569,97.551 L438.107,100.619 L491.893,100.619 L489.431,97.551 L480.517,137.667 Z" />
            <path d="M474.243,143.572 L475.923,98.191 C475.975,96.799 474.889,95.63 473.497,95.578 C472.106,95.527 470.936,96.613 470.884,98.004 L469.204,143.385 C469.152,144.777 470.238,145.947 471.63,145.998 C473.021,146.05 474.191,144.964 474.243,143.572 Z" />
            <path d="M460.796,143.385 L459.116,98.004 C459.064,96.613 457.894,95.527 456.503,95.578 C455.111,95.63 454.025,96.799 454.077,98.191 L455.757,143.572 C455.809,144.964 456.979,146.05 458.37,145.998 C459.762,145.947 460.848,144.777 460.796,143.385 Z" />
            <path d="M478.446,140.958 L451.554,140.958 C450.161,140.958 449.033,142.086 449.033,143.479 C449.033,144.871 450.161,146 451.554,146 L478.446,146 C479.839,146 480.967,144.871 480.967,143.479 C480.967,142.086 479.839,140.958 478.446,140.958 Z" />
            <path d="M478.446,95.576 L451.554,95.576 C450.161,95.576 449.033,96.705 449.033,98.098 C449.033,99.49 450.161,100.619 451.554,100.619 L478.446,100.619 C479.839,100.619 480.967,99.49 480.967,98.098 C480.967,96.705 479.839,95.576 478.446,95.576 Z" />
            <path d="M447.223,97.3 C447.183,97.179 447.105,96.901 447.023,96.516 C446.83,95.608 446.751,94.687 446.839,93.894 C446.921,93.159 447.133,92.638 447.454,92.317 C447.848,91.923 448.472,91.623 449.3,91.439 C450.294,91.218 451.421,91.195 452.445,91.295 C452.643,91.314 452.774,91.332 452.821,91.34 C454.357,91.596 455.756,90.411 455.756,88.853 C455.756,88.731 455.773,88.443 455.825,88.052 C455.913,87.394 456.069,86.74 456.302,86.159 C456.655,85.276 457.13,84.682 457.724,84.385 C458.132,84.181 458.671,84.073 459.328,84.073 C460.261,84.073 461.337,84.289 462.431,84.653 C463.104,84.877 463.618,85.098 463.873,85.225 C465.054,85.816 466.491,85.395 467.167,84.261 C467.206,84.195 467.317,84.026 467.495,83.79 C467.803,83.378 468.165,82.965 468.567,82.585 C469.921,81.307 471.288,80.786 472.712,81.192 C473.901,81.532 474.699,82.296 475.245,83.466 C475.537,84.091 475.732,84.788 475.841,85.491 C475.906,85.905 475.926,86.208 475.926,86.332 C475.926,87.724 477.055,88.853 478.447,88.853 C478.566,88.853 478.879,88.879 479.315,88.962 C480.063,89.104 480.807,89.359 481.484,89.746 C482.138,90.12 482.699,90.6 483.153,91.206 C483.467,91.624 483.656,92.129 483.732,92.737 C483.849,93.676 483.687,94.784 483.33,95.894 C483.163,96.415 483.001,96.797 482.915,96.97 C482.292,98.215 482.797,99.73 484.043,100.352 C485.288,100.975 486.802,100.47 487.425,99.225 C487.619,98.837 487.878,98.224 488.131,97.437 C488.693,95.687 488.957,93.887 488.735,92.112 C488.555,90.672 488.055,89.339 487.187,88.181 C486.304,87.003 485.218,86.072 483.986,85.368 C481.931,84.194 479.918,83.811 478.447,83.811 L480.968,86.332 C480.968,85.013 480.687,83.203 479.814,81.333 C478.689,78.922 476.804,77.118 474.097,76.344 C470.689,75.37 467.629,76.537 465.106,78.918 C464.032,79.932 463.275,80.941 462.835,81.68 L466.128,80.715 C465.674,80.488 464.947,80.177 464.025,79.869 C462.46,79.347 460.877,79.031 459.328,79.031 C457.937,79.031 456.637,79.291 455.469,79.875 C453.643,80.788 452.397,82.346 451.62,84.286 C450.934,86.002 450.714,87.653 450.714,88.853 L453.65,86.366 C453.495,86.34 453.253,86.308 452.937,86.277 C451.427,86.129 449.8,86.162 448.206,86.516 C446.513,86.893 445.036,87.604 443.889,88.751 C442.669,89.97 442.026,91.55 441.827,93.337 C441.672,94.739 441.795,96.17 442.091,97.562 C442.215,98.147 442.343,98.604 442.439,98.895 C442.88,100.216 444.308,100.929 445.628,100.489 C446.949,100.049 447.663,98.621 447.223,97.3 Z" />
        </g>
        <g id="Black-S">
            <path d="M685.439,138.761 L694.354,98.644 C694.704,97.07 693.505,95.576 691.893,95.576 L638.107,95.576 C636.494,95.576 635.296,97.07 635.646,98.644 L644.561,138.761 C645.414,142.601 645.743,143.531 647.208,144.706 C648.673,145.881 649.651,146 653.585,146 L676.415,146 C680.349,146 681.327,145.881 682.792,144.706 C684.257,143.531 684.586,142.601 685.439,138.761 Z M680.517,137.667 C679.968,140.137 679.785,140.654 679.637,140.773 C679.489,140.892 678.945,140.958 676.415,140.958 L653.585,140.958 C651.055,140.958 650.511,140.892 650.363,140.773 C650.215,140.654 650.032,140.137 649.483,137.667 L640.569,97.551 L638.107,100.619 L691.893,100.619 L689.431,97.551 L680.517,137.667 Z" />
            <path d="M674.243,143.572 L675.923,98.191 C675.975,96.799 674.889,95.63 673.497,95.578 C672.106,95.527 670.936,96.613 670.884,98.004 L669.204,143.385 C669.152,144.777 670.238,145.947 671.63,145.998 C673.021,146.05 674.191,144.964 674.243,143.572 Z" />
            <path d="M660.796,143.385 L659.115,98.004 C659.064,96.613 657.894,95.527 656.503,95.578 C655.111,95.63 654.025,96.799 654.077,98.191 L655.757,143.572 C655.809,144.964 656.979,146.05 658.37,145.998 C659.762,145.947 660.848,144.777 660.796,143.385 Z" />
            <path d="M678.446,140.958 L651.554,140.958 C650.161,140.958 649.032,142.086 649.032,143.479 C649.032,144.871 650.161,146 651.554,146 L678.446,146 C679.839,146 680.967,144.871 680.967,143.479 C680.967,142.086 679.839,140.958 678.446,140.958 Z" />
            <path d="M678.446,95.576 L651.554,95.576 C650.161,95.576 649.032,96.705 649.032,98.098 C649.032,99.49 650.161,100.619 651.554,100.619 L678.446,100.619 C679.839,100.619 680.967,99.49 680.967,98.098 C680.967,96.705 679.839,95.576 678.446,95.576 Z" />
            <path d="M647.223,97.3 C647.183,97.179 647.105,96.901 647.023,96.516 C646.83,95.608 646.751,94.687 646.839,93.894 C646.921,93.159 647.133,92.638 647.454,92.317 C647.848,91.923 648.472,91.623 649.3,91.439 C650.294,91.218 651.42,91.195 652.445,91.295 C652.643,91.314 652.774,91.332 652.821,91.34 C654.357,91.596 655.756,90.411 655.756,88.853 C655.756,88.731 655.773,88.443 655.825,88.052 C655.913,87.394 656.069,86.74 656.302,86.159 C656.655,85.276 657.13,84.682 657.724,84.385 C658.132,84.181 658.671,84.073 659.328,84.073 C660.261,84.073 661.337,84.289 662.431,84.653 C663.104,84.877 663.618,85.098 663.873,85.225 C665.054,85.816 666.491,85.395 667.167,84.261 C667.206,84.195 667.317,84.026 667.495,83.79 C667.803,83.378 668.165,82.965 668.567,82.585 C669.921,81.307 671.288,80.786 672.712,81.192 C673.901,81.532 674.699,82.296 675.245,83.466 C675.536,84.091 675.732,84.788 675.841,85.491 C675.906,85.905 675.926,86.208 675.926,86.332 C675.926,87.724 677.055,88.853 678.447,88.853 C678.566,88.853 678.879,88.879 679.315,88.962 C680.063,89.104 680.807,89.359 681.484,89.746 C682.138,90.12 682.699,90.6 683.153,91.206 C683.467,91.624 683.656,92.129 683.732,92.737 C683.849,93.676 683.687,94.784 683.33,95.894 C683.163,96.415 683.001,96.797 682.915,96.97 C682.292,98.215 682.797,99.73 684.043,100.352 C685.288,100.975 686.802,100.47 687.425,99.225 C687.619,98.837 687.878,98.224 688.131,97.437 C688.693,95.687 688.957,93.887 688.735,92.112 C688.555,90.672 688.055,89.339 687.187,88.181 C686.304,87.003 685.218,86.072 683.986,85.368 C681.931,84.194 679.918,83.811 678.447,83.811 L680.968,86.332 C680.968,85.013 680.687,83.203 679.814,81.333 C678.688,78.922 676.804,77.118 674.097,76.344 C670.689,75.37 667.629,76.537 665.106,78.918 C664.032,79.932 663.275,80.941 662.835,81.68 L666.128,80.715 C665.674,80.488 664.947,80.177 664.025,79.869 C662.46,79.347 660.877,79.031 659.328,79.031 C657.937,79.031 656.637,79.291 655.469,79.875 C653.643,80.788 652.397,82.346 651.62,84.286 C650.934,86.002 650.714,87.653 650.714,88.853 L653.65,86.366 C653.495,86.34 653.253,86.308 652.937,86.277 C651.427,86.129 649.8,86.162 648.206,86.516 C646.513,86.893 645.036,87.604 643.889,88.751 C642.669,89.97 642.026,91.55 641.827,93.337 C641.672,94.739 641.795,96.17 642.09,97.562 C642.215,98.147 642.343,98.604 642.439,98.895 C642.88,100.216 644.307,100.929 645.628,100.489 C646.949,100.049 647.663,98.621 647.223,97.3 Z" />
        </g>
    </g>
</svg>