<?xml version="1.0" encoding="UTF-8"?>
<svg height="600" width="800" xmlns="http://www.w3.org/2000/svg" xmlns:xlink="http://www.w3.org/1999/xlink">
    <g id="Notes" font-family="'LucidaGrande', 'Lucida Grande', sans-serif" font-size="13">
        <rect fill="white" height="600.0" width="800.0" x="0.0" y="0.0" />
        <g font-size="13">
            <text x="18.0" y="176.0">Small</text>
            <text x="18.0" y="376.0">Medium</text>
            <text x="18.0" y="576.0">Large</text>
        </g>
        <g font-size="9">
            <text x="250.0" y="30.0">Ultralight</text>
            <text x="450.0" y="30.0">Regular</text>
            <text x="650.0" y="30.0">Black</text>
            <text id="template-version" fill="#505050" text-anchor="end" x="785.0" y="575.0">Template v.3.0</text>
            <a href="https://github.com/swhitty/SwiftDraw">
                <text fill="#505050" text-anchor="end" x="785.0" y="590.0">https://github.com/swhitty/SwiftDraw</text>
            </a>
        </g>
    </g>
    <g id="Guides" stroke="rgb(39, 170, 225)" stroke-width="0.5">
        <path id="Capline-S" d="M18,76 l800,0" />
        <path id="H-reference" d="M85,145.755 L87.685,145.755 L113.369,79.287 L114.052,79.287 L114.052,76 L112.148,76 L85,145.755 Z M95.693,121.536 L130.996,121.536 L130.263,119.313 L96.474,119.313 L95.693,121.536 Z M139.15,145.755 L141.787,145.755 L114.638,76 L113.466,76 L113.466,79.287 L139.15,145.755 Z" stroke="none" />
        <path id="Baseline-S" d="M18,146 l800,0" />
        <path id="left-margin-Ultralight-S" d="M221,56 l0,110" />
        <path id="right-margin-Ultralight-S" d="M309,56 l0,110" />
        <path id="left-margin-Regular-S" d="M421,56 l0,110" />
        <path id="right-margin-Regular-S" d="M509,56 l0,110" />
        <path id="left-margin-Black-S" d="M621,56 l0,110" />
        <path id="right-margin-Black-S" d="M709,56 l0,110" />
        <path id="Capline-M" d="M18,276 l800,0" />
        <path id="Baseline-M" d="M18,346 l800,0" />
        <path id="Capline-L" d="M18,476 l800,0" />
        <path id="Baseline-L" d="M18,546 l800,0" />
    </g>
    <g id="Symbols">
        <g id="Ultralight-S">
            <path d="M277.209,78.442 L277.209,90.682 C277.209,91.557 277.677,92.365 278.436,92.8 C289.548,99.174 294.397,107.369 293.348,117.69 C292.272,128.268 287.329,136.121 278.398,141.462 C277.24,142.154 276.863,143.654 277.555,144.811 C278.247,145.968 279.746,146.346 280.904,145.654 C291.168,139.516 296.976,130.288 298.206,118.183 C299.463,105.821 293.561,95.846 280.866,88.564 L282.093,90.682 L282.093,78.442 C282.093,77.094 280.999,76 279.651,76 C278.302,76 277.209,77.094 277.209,78.442 Z" />
            <path d="M247.934,76.036 C243.629,76.78 240.452,79.366 238.6,83.576 C236.315,88.77 231.628,107.084 231.628,110.554 C231.628,114.907 238.969,123.581 252.109,134.733 C259.15,140.709 264.914,141.154 268.048,135.579 C270.632,130.982 268.87,128.132 263.331,123.789 C259.997,121.175 256.533,118.091 253.951,115.383 C251.263,112.563 249.701,110.258 249.701,109.553 C249.701,107.7 251.835,100.77 255.98,89.521 C256.446,88.256 255.799,86.852 254.533,86.386 C253.268,85.919 251.864,86.567 251.398,87.833 C246.969,99.851 244.817,106.839 244.817,109.553 C244.817,113.685 251.593,120.792 260.318,127.633 C264.101,130.598 264.7,131.568 263.791,133.186 C262.521,135.444 260.29,135.272 255.269,131.01 C248.838,125.552 243.871,120.722 240.564,116.815 C237.884,113.649 236.512,111.282 236.512,110.554 C236.512,107.846 241.037,90.166 243.07,85.542 C244.277,82.799 246.11,81.307 248.766,80.848 C250.095,80.619 250.986,79.355 250.756,78.027 C250.527,76.698 249.263,75.806 247.934,76.036 Z" />
            <path d="M236.852,119.294 C237.703,127.532 239.246,135.8 241.48,144.096 C241.83,145.399 243.17,146.17 244.472,145.819 C245.774,145.469 246.546,144.129 246.195,142.827 C244.028,134.779 242.534,126.768 241.71,118.792 C241.571,117.451 240.372,116.476 239.03,116.614 C237.689,116.753 236.714,117.953 236.852,119.294 Z" />
            <path d="M278.3,106.432 C280.338,107.786 281.602,109.477 282.18,111.577 C282.834,113.954 283.02,116.068 282.761,117.928 C282.575,119.263 283.507,120.497 284.843,120.683 C286.179,120.869 287.412,119.937 287.598,118.601 C287.954,116.043 287.71,113.267 286.889,110.281 C285.991,107.019 284,104.356 281.002,102.364 C279.879,101.618 278.363,101.923 277.617,103.047 C276.871,104.17 277.176,105.685 278.3,106.432 Z" />
        </g>
        <g id="Regular-S">
            <path d="M477.209,78.442 L477.209,90.682 C477.209,91.557 477.677,92.365 478.436,92.8 C489.548,99.174 494.397,107.369 493.348,117.69 C492.272,128.268 487.329,136.121 478.398,141.462 C477.24,142.154 476.863,143.654 477.555,144.811 C478.247,145.968 479.746,146.346 480.904,145.654 C491.168,139.516 496.976,130.288 498.206,118.183 C499.463,105.821 493.561,95.846 480.866,88.564 L482.093,90.682 L482.093,78.442 C482.093,77.094 480.999,76 479.651,76 C478.302,76 477.209,77.094 477.209,78.442 Z" />
            <path d="M447.934,76.036 C443.629,76.78 440.452,79.366 438.6,83.576 C436.315,88.77 431.628,107.084 431.628,110.554 C431.628,114.907 438.969,123.581 452.109,134.733 C459.15,140.709 464.914,141.154 468.048,135.579 C470.632,130.982 468.87,128.132 463.331,123.789 C459.997,121.175 456.533,118.091 453.951,115.383 C451.263,112.563 449.701,110.258 449.701,109.553 C449.701,107.7 451.835,100.77 455.98,89.521 C456.446,88.256 455.798,86.852 454.533,86.386 C453.268,85.919 451.864,86.567 451.398,87.833 C446.969,99.851 444.817,106.839 444.817,109.553 C444.817,113.685 451.593,120.792 460.318,127.633 C464.101,130.598 464.7,131.568 463.791,133.186 C462.521,135.444 460.29,135.272 455.269,131.01 C448.838,125.552 443.871,120.722 440.564,116.815 C437.884,113.649 436.512,111.282 436.512,110.554 C436.512,107.846 441.037,90.166 443.07,85.542 C444.277,82.799 446.11,81.307 448.766,80.848 C450.095,80.619 450.986,79.355 450.756,78.027 C450.527,76.698 449.263,75.806 447.934,76.036 Z" />
            <path d="M436.852,119.294 C437.703,127.532 439.246,135.8 441.479,144.096 C441.83,145.399 443.17,146.17 444.472,145.819 C445.774,145.469 446.546,144.129 446.195,142.827 C444.028,134.779 442.534,126.768 441.71,118.792 C441.571,117.451 440.372,116.476 439.03,116.614 C437.689,116.753 436.714,117.953 436.852,119.294 Z" />
            <path d="M478.3,106.432 C480.338,107.786 481.602,109.477 482.18,111.577 C482.834,113.954 483.02,116.068 482.761,117.928 C482.575,119.263 483.507,120.497 484.843,120.683 C486.179,120.869 487.412,119.937 487.598,118.601 C487.954,116.043 487.71,113.267 486.889,110.281 C485.991,107.019 484,104.356 481.002,102.364 C479.879,101.618 478.363,101.923 477.617,103.047 C476.871,104.17 477.176,105.685 478.3,106.432 Z" />
        </g>
        <g id="Black-S">
            <path d="M677.209,78.442 L677.209,90.682 C677.209,91.557 677.677,92.365 678.436,92.8 C689.548,99.174 694.397,107.369 693.348,117.69 C692.272,128.268 687.329,136.121 678.398,141.462 C677.24,142.154 676.863,143.654 677.555,144.811 C678.247,145.968 679.746,146.346 680.904,145.654 C691.168,139.516 696.976,130.288 698.206,118.183 C699.463,105.821 693.561,95.846 680.866,88.564 L682.093,90.682 L682.093,78.442 C682.093,77.094 680.999,76 679.651,76 C678.302,76 677.209,77.094 677.209,78.442 Z" />
            <path d="M647.934,76.036 C643.629,76.78 640.452,79.366 638.6,83.576 C636.315,88.77 631.628,107.084 631.628,110.554 C631.628,114.907 638.969,123.581 652.109,134.733 C659.15,140.709 664.914,141.154 668.048,135.579 C670.632,130.982 668.87,128.132 663.331,123.789 C659.997,121.175 656.533,118.091 653.951,115.383 C651.263,112.563 649.701,110.258 649.701,109.553 C649.701,107.7 651.835,100.77 655.98,89.521 C656.446,88.256 655.799,86.852 654.533,86.386 C653.268,85.919 651.864,86.567 651.398,87.833 C646.969,99.851 644.817,106.839 644.817,109.553 C644.817,113.685 651.593,120.792 660.318,127.633 C664.101,130.598 664.7,131.568 663.791,133.186 C662.521,135.444 660.29,135.272 655.269,131.01 C648.838,125.552 643.871,120.722 640.564,116.815 C637.884,113.649 636.512,111.282 636.512,110.554 C636.512,107.846 641.037,90.166 643.07,85.542 C644.277,82.799 646.11,81.307 648.766,80.848 C650.095,80.619 650.986,79.355 650.756,78.027 C650.527,76.698 649.263,75.806 647.934,76.036 Z" />
            <path d="M636.852,119.294 C637.703,127.532 639.246,135.8 641.479,144.096 C641.83,145.399 643.17,146.17 644.472,145.819 C645.774,145.469 646.546,144.129 646.195,142.827 C644.028,134.779 642.534,126.768 641.71,118.792 C641.571,117.451 640.372,116.476 639.03,116.614 C637.689,116.753 636.714,117.953 636.852,119.294 Z" />
            <path d="M678.299,106.432 C680.338,107.786 681.602,109.477 682.18,111.577 C682.834,113.954 683.02,116.068 682.761,117.928 C682.575,119.263 683.507,120.497 684.843,120.683 C686.179,120.869 687.412,119.937 687.598,118.601 C687.954,116.043 687.71,113.267 686.889,110.281 C685.991,107.019 684,104.356 681.002,102.364 C679.879,101.618 678.363,101.923 677.617,103.047 C676.871,104.17 677.176,105.685 678.299,106.432 Z" />
        </g>
    </g>
</svg>