<?xml version="1.0" encoding="UTF-8"?>
<svg height="600" width="800" xmlns="http://www.w3.org/2000/svg" xmlns:xlink="http://www.w3.org/1999/xlink">
    <g id="Notes" font-family="'LucidaGrande', 'Lucida Grande', sans-serif" font-size="13">
        <rect fill="white" height="600.0" width="800.0" x="0.0" y="0.0" />
        <g font-size="13">
            <text x="18.0" y="176.0">Small</text>
            <text x="18.0" y="376.0">Medium</text>
            <text x="18.0" y="576.0">Large</text>
        </g>
        <g font-size="9">
            <text x="250.0" y="30.0">Ultralight</text>
            <text x="450.0" y="30.0">Regular</text>
            <text x="650.0" y="30.0">Black</text>
            <text id="template-version" fill="#505050" text-anchor="end" x="785.0" y="575.0">Template v.3.0</text>
            <a href="https://github.com/swhitty/SwiftDraw">
                <text fill="#505050" text-anchor="end" x="785.0" y="590.0">https://github.com/swhitty/SwiftDraw</text>
            </a>
        </g>
    </g>
    <g id="Guides" stroke="rgb(39, 170, 225)" stroke-width="0.5">
        <path id="Capline-S" d="M18,76 l800,0" />
        <path id="H-reference" d="M85,145.755 L87.685,145.755 L113.369,79.287 L114.052,79.287 L114.052,76 L112.148,76 L85,145.755 Z M95.693,121.536 L130.996,121.536 L130.263,119.313 L96.474,119.313 L95.693,121.536 Z M139.15,145.755 L141.787,145.755 L114.638,76 L113.466,76 L113.466,79.287 L139.15,145.755 Z" stroke="none" />
        <path id="Baseline-S" d="M18,146 l800,0" />
        <path id="left-margin-Ultralight-S" d="M221,56 l0,110" />
        <path id="right-margin-Ultralight-S" d="M309,56 l0,110" />
        <path id="left-margin-Regular-S" d="M421,56 l0,110" />
        <path id="right-margin-Regular-S" d="M509,56 l0,110" />
        <path id="left-margin-Black-S" d="M621,56 l0,110" />
        <path id="right-margin-Black-S" d="M709,56 l0,110" />
        <path id="Capline-M" d="M18,276 l800,0" />
        <path id="Baseline-M" d="M18,346 l800,0" />
        <path id="Capline-L" d="M18,476 l800,0" />
        <path id="Baseline-L" d="M18,546 l800,0" />
    </g>
    <g id="Symbols">
        <g id="Ultralight-S">
            <path d="M261.047,139.383 C255.428,137.282 249.809,130.575 245.07,122.065 C244.298,120.679 244.687,118.921 246.027,117.849 C247.53,116.647 249.696,116.767 251.056,118.127 L253.612,120.683 C255.144,122.215 257.764,121.13 257.764,118.964 L257.764,100.319 C257.764,99.424 258.49,98.698 259.385,98.698 C260.28,98.698 261.006,99.424 261.006,100.319 L261.006,110.047 L263.438,110.047 L265.87,110.047 C265.87,109.151 266.596,108.425 267.491,108.425 C268.387,108.425 269.113,109.151 269.113,110.047 L269.113,113.289 L271.544,113.289 L273.976,113.289 C273.976,112.394 274.702,111.668 275.598,111.668 C276.493,111.668 277.219,112.394 277.219,113.289 L277.219,116.532 L279.651,116.532 L282.083,116.532 C282.083,115.636 282.809,114.91 283.704,114.91 C284.599,114.91 285.325,115.636 285.325,116.532 L285.325,129.288 C285.325,130.643 284.989,131.836 284.341,132.754 C282.166,135.837 279.631,138.329 277.072,139.426 C271.782,141.693 267.336,141.735 261.047,139.383 Z M259.344,143.939 C266.783,146.721 272.524,146.667 278.987,143.896 C282.562,142.365 285.668,139.311 288.315,135.558 C289.576,133.77 290.189,131.598 290.189,129.288 L290.189,116.532 C290.189,112.95 287.286,110.047 283.704,110.047 C280.122,110.047 277.219,112.95 277.219,116.532 C277.219,119.774 282.083,119.774 282.083,116.532 L282.083,113.289 C282.083,109.708 279.179,106.804 275.598,106.804 C272.016,106.804 269.113,109.708 269.113,113.289 C269.113,116.532 273.976,116.532 273.976,113.289 L273.976,110.047 C273.976,106.465 271.073,103.561 267.491,103.561 C263.91,103.561 261.006,106.465 261.006,110.047 C261.006,113.289 265.87,113.289 265.87,110.047 L265.87,100.319 C265.87,96.737 262.967,93.834 259.385,93.834 C255.803,93.834 252.9,96.737 252.9,100.319 L252.9,118.964 L257.051,117.244 L254.496,114.688 C251.382,111.575 246.426,111.3 242.988,114.051 C239.831,116.577 238.868,120.926 240.82,124.431 C246.094,133.901 252.296,141.303 259.344,143.939 Z" />
            <path d="M273.976,91.402 C273.976,82.896 267.081,76 258.574,76 C250.068,76 243.172,82.896 243.172,91.402 C243.172,92.712 243.336,94.003 243.658,95.251 C243.992,96.551 245.318,97.334 246.619,97 C247.92,96.665 248.703,95.339 248.368,94.038 C248.148,93.185 248.036,92.302 248.036,91.402 C248.036,85.582 252.754,80.864 258.574,80.864 C264.394,80.864 269.113,85.582 269.113,91.402 C269.113,92.745 270.201,93.834 271.544,93.834 C272.888,93.834 273.976,92.745 273.976,91.402 Z M243.658,95.251 C243.827,95.908 244.039,96.552 244.293,97.178 C245.47,100.086 249.838,98.484 248.857,95.505 L248.323,93.883 C247.341,90.904 242.875,92.213 243.658,95.251 Z M248.368,94.038 L246.013,94.645 L243.703,95.406 L244.237,97.027 L246.547,96.266 L248.801,95.353 C248.628,94.926 248.483,94.487 248.368,94.038 Z" />
        </g>
        <g id="Regular-S">
            <path d="M461.047,139.383 C455.428,137.282 449.809,130.575 445.07,122.065 C444.298,120.679 444.687,118.921 446.027,117.849 C447.53,116.647 449.696,116.767 451.056,118.127 L453.612,120.683 C455.144,122.215 457.764,121.13 457.764,118.964 L457.764,100.319 C457.764,99.424 458.49,98.698 459.385,98.698 C460.28,98.698 461.006,99.424 461.006,100.319 L461.006,110.047 L463.438,110.047 L465.87,110.047 C465.87,109.151 466.596,108.425 467.491,108.425 C468.387,108.425 469.113,109.151 469.113,110.047 L469.113,113.289 L471.544,113.289 L473.976,113.289 C473.976,112.394 474.702,111.668 475.598,111.668 C476.493,111.668 477.219,112.394 477.219,113.289 L477.219,116.532 L479.651,116.532 L482.083,116.532 C482.083,115.636 482.809,114.91 483.704,114.91 C484.599,114.91 485.325,115.636 485.325,116.532 L485.325,129.288 C485.325,130.643 484.989,131.836 484.341,132.754 C482.166,135.837 479.631,138.329 477.072,139.426 C471.782,141.693 467.336,141.735 461.047,139.383 Z M459.344,143.939 C466.783,146.721 472.524,146.667 478.987,143.896 C482.562,142.365 485.668,139.311 488.315,135.558 C489.576,133.77 490.189,131.598 490.189,129.288 L490.189,116.532 C490.189,112.95 487.286,110.047 483.704,110.047 C480.122,110.047 477.219,112.95 477.219,116.532 C477.219,119.774 482.083,119.774 482.083,116.532 L482.083,113.289 C482.083,109.708 479.179,106.804 475.598,106.804 C472.016,106.804 469.113,109.708 469.113,113.289 C469.113,116.532 473.976,116.532 473.976,113.289 L473.976,110.047 C473.976,106.465 471.073,103.561 467.491,103.561 C463.91,103.561 461.006,106.465 461.006,110.047 C461.006,113.289 465.87,113.289 465.87,110.047 L465.87,100.319 C465.87,96.737 462.967,93.834 459.385,93.834 C455.803,93.834 452.9,96.737 452.9,100.319 L452.9,118.964 L457.051,117.244 L454.496,114.688 C451.382,111.575 446.426,111.3 442.988,114.051 C439.831,116.577 438.868,120.926 440.82,124.431 C446.094,133.901 452.296,141.303 459.344,143.939 Z" />
            <path d="M473.976,91.402 C473.976,82.896 467.081,76 458.574,76 C450.068,76 443.172,82.896 443.172,91.402 C443.172,92.712 443.336,94.003 443.658,95.251 C443.992,96.551 445.318,97.334 446.619,97 C447.92,96.665 448.703,95.339 448.368,94.038 C448.148,93.185 448.036,92.302 448.036,91.402 C448.036,85.582 452.754,80.864 458.574,80.864 C464.394,80.864 469.113,85.582 469.113,91.402 C469.113,92.745 470.201,93.834 471.544,93.834 C472.888,93.834 473.976,92.745 473.976,91.402 Z M443.658,95.251 C443.827,95.908 444.039,96.552 444.293,97.178 C445.47,100.086 449.838,98.484 448.857,95.505 L448.323,93.883 C447.341,90.904 442.875,92.213 443.658,95.251 Z M448.368,94.038 L446.013,94.645 L443.703,95.406 L444.237,97.027 L446.547,96.266 L448.801,95.353 C448.628,94.926 448.483,94.487 448.368,94.038 Z" />
        </g>
        <g id="Black-S">
            <path d="M661.047,139.383 C655.428,137.282 649.809,130.575 645.07,122.065 C644.298,120.679 644.687,118.921 646.027,117.849 C647.53,116.647 649.696,116.767 651.056,118.127 L653.612,120.683 C655.144,122.215 657.764,121.13 657.764,118.964 L657.764,100.319 C657.764,99.424 658.49,98.698 659.385,98.698 C660.28,98.698 661.006,99.424 661.006,100.319 L661.006,110.047 L663.438,110.047 L665.87,110.047 C665.87,109.151 666.596,108.425 667.491,108.425 C668.387,108.425 669.113,109.151 669.113,110.047 L669.113,113.289 L671.544,113.289 L673.976,113.289 C673.976,112.394 674.702,111.668 675.598,111.668 C676.493,111.668 677.219,112.394 677.219,113.289 L677.219,116.532 L679.651,116.532 L682.083,116.532 C682.083,115.636 682.809,114.91 683.704,114.91 C684.599,114.91 685.325,115.636 685.325,116.532 L685.325,129.288 C685.325,130.643 684.989,131.836 684.341,132.754 C682.167,135.837 679.631,138.329 677.072,139.426 C671.782,141.693 667.336,141.735 661.047,139.383 Z M659.344,143.939 C666.783,146.721 672.524,146.667 678.988,143.896 C682.562,142.365 685.668,139.311 688.315,135.558 C689.576,133.77 690.189,131.598 690.189,129.288 L690.189,116.532 C690.189,112.95 687.286,110.047 683.704,110.047 C680.122,110.047 677.219,112.95 677.219,116.532 C677.219,119.774 682.083,119.774 682.083,116.532 L682.083,113.289 C682.083,109.708 679.179,106.804 675.598,106.804 C672.016,106.804 669.113,109.708 669.113,113.289 C669.113,116.532 673.976,116.532 673.976,113.289 L673.976,110.047 C673.976,106.465 671.073,103.561 667.491,103.561 C663.91,103.561 661.006,106.465 661.006,110.047 C661.006,113.289 665.87,113.289 665.87,110.047 L665.87,100.319 C665.87,96.737 662.967,93.834 659.385,93.834 C655.803,93.834 652.9,96.737 652.9,100.319 L652.9,118.964 L657.051,117.244 L654.496,114.688 C651.383,111.575 646.427,111.3 642.989,114.051 C639.831,116.577 638.868,120.926 640.82,124.431 C646.094,133.901 652.296,141.303 659.344,143.939 Z" />
            <path d="M673.976,91.402 C673.976,82.896 667.081,76 658.574,76 C650.068,76 643.172,82.896 643.172,91.402 C643.172,92.712 643.336,94.003 643.658,95.251 C643.992,96.551 645.318,97.334 646.619,97 C647.92,96.665 648.703,95.339 648.368,94.038 C648.148,93.185 648.036,92.302 648.036,91.402 C648.036,85.582 652.754,80.864 658.574,80.864 C664.395,80.864 669.113,85.582 669.113,91.402 C669.113,92.745 670.201,93.834 671.544,93.834 C672.888,93.834 673.976,92.745 673.976,91.402 Z M643.658,95.251 C643.827,95.908 644.039,96.552 644.293,97.178 C645.47,100.086 649.838,98.484 648.857,95.505 L648.323,93.883 C647.341,90.904 642.875,92.213 643.658,95.251 Z M648.368,94.038 L646.013,94.645 L643.703,95.406 L644.237,97.027 L646.547,96.266 L648.801,95.353 C648.628,94.926 648.484,94.487 648.368,94.038 Z" />
        </g>
    </g>
</svg>