<?xml version="1.0" encoding="UTF-8"?>
<svg height="600" width="800" xmlns="http://www.w3.org/2000/svg" xmlns:xlink="http://www.w3.org/1999/xlink">
    <g id="Notes" font-family="'LucidaGrande', 'Lucida Grande', sans-serif" font-size="13">
        <rect fill="white" height="600.0" width="800.0" x="0.0" y="0.0" />
        <g font-size="13">
            <text x="18.0" y="176.0">Small</text>
            <text x="18.0" y="376.0">Medium</text>
            <text x="18.0" y="576.0">Large</text>
        </g>
        <g font-size="9">
            <text x="250.0" y="30.0">Ultralight</text>
            <text x="450.0" y="30.0">Regular</text>
            <text x="650.0" y="30.0">Black</text>
            <text id="template-version" fill="#505050" text-anchor="end" x="785.0" y="575.0">Template v.3.0</text>
            <a href="https://github.com/swhitty/SwiftDraw">
                <text fill="#505050" text-anchor="end" x="785.0" y="590.0">https://github.com/swhitty/SwiftDraw</text>
            </a>
        </g>
    </g>
    <g id="Guides" stroke="rgb(39, 170, 225)" stroke-width="0.5">
        <path id="Capline-S" d="M18,76 l800,0" />
        <path id="H-reference" d="M85,145.755 L87.685,145.755 L113.369,79.287 L114.052,79.287 L114.052,76 L112.148,76 L85,145.755 Z M95.693,121.536 L130.996,121.536 L130.263,119.313 L96.474,119.313 L95.693,121.536 Z M139.15,145.755 L141.787,145.755 L114.638,76 L113.466,76 L113.466,79.287 L139.15,145.755 Z" stroke="none" />
        <path id="Baseline-S" d="M18,146 l800,0" />
        <path id="left-margin-Ultralight-S" d="M221,56 l0,110" />
        <path id="right-margin-Ultralight-S" d="M309,56 l0,110" />
        <path id="left-margin-Regular-S" d="M421,56 l0,110" />
        <path id="right-margin-Regular-S" d="M509,56 l0,110" />
        <path id="left-margin-Black-S" d="M621,56 l0,110" />
        <path id="right-margin-Black-S" d="M709,56 l0,110" />
        <path id="Capline-M" d="M18,276 l800,0" />
        <path id="Baseline-M" d="M18,346 l800,0" />
        <path id="Capline-L" d="M18,476 l800,0" />
        <path id="Baseline-L" d="M18,546 l800,0" />
    </g>
    <g id="Symbols">
        <g id="Ultralight-S">
            <path d="M272.326,86.581 C272.326,80.737 267.588,76 261.744,76 C255.9,76 251.163,80.737 251.163,86.581 L251.163,102.86 C251.163,108.704 255.9,113.442 261.744,113.442 C267.588,113.442 272.326,108.704 272.326,102.86 L272.326,86.581 Z M267.442,86.581 L267.442,102.86 C267.442,106.007 264.891,108.558 261.744,108.558 C258.597,108.558 256.047,106.007 256.047,102.86 L256.047,86.581 C256.047,83.435 258.597,80.884 261.744,80.884 C264.891,80.884 267.442,83.435 267.442,86.581 Z" />
            <path d="M264.901,122.297 L255.134,132.064 C254.18,133.018 254.18,134.564 255.134,135.517 L264.901,145.285 C265.855,146.238 267.401,146.238 268.355,145.285 C269.308,144.331 269.308,142.785 268.355,141.831 L258.587,132.064 L258.587,135.517 L268.355,125.75 C269.308,124.796 269.308,123.25 268.355,122.297 C267.401,121.343 265.855,121.343 264.901,122.297 Z" />
            <path d="M238.953,113.442 L240.581,113.442 C241.93,113.442 243.023,112.349 243.023,111 C243.023,109.651 241.93,108.558 240.581,108.558 L238.953,108.558 C237.605,108.558 236.512,109.651 236.512,111 C236.512,112.349 237.605,113.442 238.953,113.442 Z" />
            <path d="M291.047,131.349 L256.86,131.349 C255.512,131.349 254.419,132.442 254.419,133.791 C254.419,135.139 255.512,136.233 256.86,136.233 L291.047,136.233 C292.395,136.233 293.488,135.139 293.488,133.791 C293.488,132.442 292.395,131.349 291.047,131.349 Z" />
        </g>
        <g id="Regular-S">
            <path d="M472.326,86.581 C472.326,80.737 467.588,76 461.744,76 C455.9,76 451.163,80.737 451.163,86.581 L451.163,102.86 C451.163,108.704 455.9,113.442 461.744,113.442 C467.588,113.442 472.326,108.704 472.326,102.86 L472.326,86.581 Z M467.442,86.581 L467.442,102.86 C467.442,106.007 464.891,108.558 461.744,108.558 C458.597,108.558 456.047,106.007 456.047,102.86 L456.047,86.581 C456.047,83.435 458.597,80.884 461.744,80.884 C464.891,80.884 467.442,83.435 467.442,86.581 Z" />
            <path d="M464.901,122.297 L455.134,132.064 C454.18,133.018 454.18,134.564 455.134,135.517 L464.901,145.285 C465.855,146.238 467.401,146.238 468.355,145.285 C469.308,144.331 469.308,142.785 468.355,141.831 L458.587,132.064 L458.587,135.517 L468.355,125.75 C469.308,124.796 469.308,123.25 468.355,122.297 C467.401,121.343 465.855,121.343 464.901,122.297 Z" />
            <path d="M438.953,113.442 L440.581,113.442 C441.93,113.442 443.023,112.349 443.023,111 C443.023,109.651 441.93,108.558 440.581,108.558 L438.953,108.558 C437.605,108.558 436.512,109.651 436.512,111 C436.512,112.349 437.605,113.442 438.953,113.442 Z" />
            <path d="M491.047,131.349 L456.86,131.349 C455.512,131.349 454.419,132.442 454.419,133.791 C454.419,135.139 455.512,136.233 456.86,136.233 L491.047,136.233 C492.395,136.233 493.488,135.139 493.488,133.791 C493.488,132.442 492.395,131.349 491.047,131.349 Z" />
        </g>
        <g id="Black-S">
            <path d="M672.326,86.581 C672.326,80.737 667.588,76 661.744,76 C655.9,76 651.163,80.737 651.163,86.581 L651.163,102.86 C651.163,108.704 655.9,113.442 661.744,113.442 C667.588,113.442 672.326,108.704 672.326,102.86 L672.326,86.581 Z M667.442,86.581 L667.442,102.86 C667.442,106.007 664.891,108.558 661.744,108.558 C658.597,108.558 656.047,106.007 656.047,102.86 L656.047,86.581 C656.047,83.435 658.597,80.884 661.744,80.884 C664.891,80.884 667.442,83.435 667.442,86.581 Z" />
            <path d="M664.901,122.297 L655.134,132.064 C654.18,133.018 654.18,134.564 655.134,135.517 L664.901,145.285 C665.855,146.238 667.401,146.238 668.355,145.285 C669.308,144.331 669.308,142.785 668.355,141.831 L658.587,132.064 L658.587,135.517 L668.355,125.75 C669.308,124.796 669.308,123.25 668.355,122.297 C667.401,121.343 665.855,121.343 664.901,122.297 Z" />
            <path d="M638.953,113.442 L640.581,113.442 C641.93,113.442 643.023,112.349 643.023,111 C643.023,109.651 641.93,108.558 640.581,108.558 L638.953,108.558 C637.605,108.558 636.512,109.651 636.512,111 C636.512,112.349 637.605,113.442 638.953,113.442 Z" />
            <path d="M691.047,131.349 L656.86,131.349 C655.512,131.349 654.419,132.442 654.419,133.791 C654.419,135.139 655.512,136.233 656.86,136.233 L691.047,136.233 C692.395,136.233 693.488,135.139 693.488,133.791 C693.488,132.442 692.395,131.349 691.047,131.349 Z" />
        </g>
    </g>
</svg>