<?xml version="1.0" encoding="UTF-8"?>
<svg height="600" width="800" xmlns="http://www.w3.org/2000/svg" xmlns:xlink="http://www.w3.org/1999/xlink">
    <g id="Notes" font-family="'LucidaGrande', 'Lucida Grande', sans-serif" font-size="13">
        <rect fill="white" height="600.0" width="800.0" x="0.0" y="0.0" />
        <g font-size="13">
            <text x="18.0" y="176.0">Small</text>
            <text x="18.0" y="376.0">Medium</text>
            <text x="18.0" y="576.0">Large</text>
        </g>
        <g font-size="9">
            <text x="250.0" y="30.0">Ultralight</text>
            <text x="450.0" y="30.0">Regular</text>
            <text x="650.0" y="30.0">Black</text>
            <text id="template-version" fill="#505050" text-anchor="end" x="785.0" y="575.0">Template v.3.0</text>
            <a href="https://github.com/swhitty/SwiftDraw">
                <text fill="#505050" text-anchor="end" x="785.0" y="590.0">https://github.com/swhitty/SwiftDraw</text>
            </a>
        </g>
    </g>
    <g id="Guides" stroke="rgb(39, 170, 225)" stroke-width="0.5">
        <path id="Capline-S" d="M18,76 l800,0" />
        <path id="H-reference" d="M85,145.755 L87.685,145.755 L113.369,79.287 L114.052,79.287 L114.052,76 L112.148,76 L85,145.755 Z M95.693,121.536 L130.996,121.536 L130.263,119.313 L96.474,119.313 L95.693,121.536 Z M139.15,145.755 L141.787,145.755 L114.638,76 L113.466,76 L113.466,79.287 L139.15,145.755 Z" stroke="none" />
        <path id="Baseline-S" d="M18,146 l800,0" />
        <path id="left-margin-Ultralight-S" d="M220,56 l0,110" />
        <path id="right-margin-Ultralight-S" d="M310,56 l0,110" />
        <path id="left-margin-Regular-S" d="M420,56 l0,110" />
        <path id="right-margin-Regular-S" d="M510,56 l0,110" />
        <path id="left-margin-Black-S" d="M620,56 l0,110" />
        <path id="right-margin-Black-S" d="M710,56 l0,110" />
        <path id="Capline-M" d="M18,276 l800,0" />
        <path id="Baseline-M" d="M18,346 l800,0" />
        <path id="Capline-L" d="M18,476 l800,0" />
        <path id="Baseline-L" d="M18,546 l800,0" />
    </g>
    <g id="Symbols">
        <g id="Ultralight-S">
            <path d="M265,146 C284.33,146 300,130.33 300,111 C300,91.67 284.33,76 265,76 C245.67,76 230,91.67 230,111 C230,130.33 245.67,146 265,146 Z M265,141.116 C248.367,141.116 234.884,127.633 234.884,111 C234.884,94.367 248.367,80.884 265,80.884 C281.633,80.884 295.116,94.367 295.116,111 C295.116,127.633 281.633,141.116 265,141.116 Z" />
            <path d="M274.211,121.303 C274.163,121.4 274.015,121.65 273.767,122.001 C273.329,122.62 272.783,123.244 272.128,123.826 C270.265,125.482 267.93,126.465 265,126.465 C262.07,126.465 259.735,125.482 257.872,123.826 C257.217,123.244 256.671,122.62 256.233,122.001 C255.985,121.65 255.837,121.4 255.789,121.303 C255.186,120.097 253.719,119.608 252.513,120.211 C251.306,120.814 250.817,122.281 251.421,123.487 C251.956,124.558 252.995,126.025 254.628,127.476 C257.343,129.89 260.808,131.349 265,131.349 C269.192,131.349 272.657,129.89 275.372,127.476 C277.005,126.025 278.044,124.558 278.579,123.487 C279.183,122.281 278.694,120.814 277.487,120.211 C276.281,119.608 274.814,120.097 274.211,121.303 Z" />
            <path d="M256.304,101.768 C256.209,101.96 255.94,102.362 255.541,102.762 C254.946,103.356 254.31,103.674 253.605,103.674 C252.899,103.674 252.263,103.356 251.669,102.762 C251.269,102.362 251.001,101.96 250.905,101.768 C250.302,100.562 248.835,100.073 247.629,100.676 C246.423,101.28 245.934,102.746 246.537,103.952 C246.848,104.575 247.394,105.394 248.215,106.215 C249.656,107.655 251.461,108.558 253.605,108.558 C255.748,108.558 257.554,107.655 258.994,106.215 C259.815,105.394 260.361,104.575 260.672,103.952 C261.276,102.746 260.787,101.28 259.58,100.676 C258.374,100.073 256.907,100.562 256.304,101.768 Z" />
            <path d="M279.095,101.768 C278.999,101.96 278.731,102.362 278.331,102.762 C277.737,103.356 277.101,103.674 276.395,103.674 C275.69,103.674 275.054,103.356 274.459,102.762 C274.06,102.362 273.791,101.96 273.696,101.768 C273.093,100.562 271.626,100.073 270.42,100.676 C269.213,101.28 268.724,102.746 269.328,103.952 C269.639,104.575 270.185,105.394 271.006,106.215 C272.446,107.655 274.252,108.558 276.395,108.558 C278.539,108.558 280.344,107.655 281.785,106.215 C282.606,105.394 283.152,104.575 283.463,103.952 C284.066,102.746 283.577,101.28 282.371,100.676 C281.165,100.073 279.698,100.562 279.095,101.768 Z" />
        </g>
        <g id="Regular-S">
            <path d="M465,146 C484.33,146 500,130.33 500,111 C500,91.67 484.33,76 465,76 C445.67,76 430,91.67 430,111 C430,130.33 445.67,146 465,146 Z M465,141.116 C448.367,141.116 434.884,127.633 434.884,111 C434.884,94.367 448.367,80.884 465,80.884 C481.633,80.884 495.116,94.367 495.116,111 C495.116,127.633 481.633,141.116 465,141.116 Z" />
            <path d="M474.211,121.303 C474.163,121.4 474.015,121.65 473.767,122.001 C473.329,122.62 472.783,123.244 472.128,123.826 C470.265,125.482 467.93,126.465 465,126.465 C462.07,126.465 459.735,125.482 457.872,123.826 C457.217,123.244 456.671,122.62 456.233,122.001 C455.985,121.65 455.837,121.4 455.789,121.303 C455.186,120.097 453.719,119.608 452.513,120.211 C451.306,120.814 450.817,122.281 451.421,123.487 C451.956,124.558 452.995,126.025 454.628,127.476 C457.343,129.89 460.808,131.349 465,131.349 C469.192,131.349 472.657,129.89 475.372,127.476 C477.005,126.025 478.044,124.558 478.579,123.487 C479.183,122.281 478.694,120.814 477.487,120.211 C476.281,119.608 474.814,120.097 474.211,121.303 Z" />
            <path d="M456.304,101.768 C456.209,101.96 455.94,102.362 455.541,102.762 C454.946,103.356 454.31,103.674 453.605,103.674 C452.899,103.674 452.263,103.356 451.669,102.762 C451.269,102.362 451.001,101.96 450.905,101.768 C450.302,100.562 448.835,100.073 447.629,100.676 C446.423,101.28 445.934,102.746 446.537,103.952 C446.848,104.575 447.394,105.394 448.215,106.215 C449.656,107.655 451.461,108.558 453.605,108.558 C455.748,108.558 457.554,107.655 458.994,106.215 C459.815,105.394 460.361,104.575 460.672,103.952 C461.276,102.746 460.787,101.28 459.58,100.676 C458.374,100.073 456.907,100.562 456.304,101.768 Z" />
            <path d="M479.095,101.768 C478.999,101.96 478.731,102.362 478.331,102.762 C477.737,103.356 477.101,103.674 476.395,103.674 C475.69,103.674 475.054,103.356 474.459,102.762 C474.06,102.362 473.791,101.96 473.696,101.768 C473.093,100.562 471.626,100.073 470.42,100.676 C469.213,101.28 468.724,102.746 469.328,103.952 C469.639,104.575 470.185,105.394 471.006,106.215 C472.446,107.655 474.252,108.558 476.395,108.558 C478.539,108.558 480.344,107.655 481.785,106.215 C482.606,105.394 483.152,104.575 483.463,103.952 C484.066,102.746 483.577,101.28 482.371,100.676 C481.165,100.073 479.698,100.562 479.095,101.768 Z" />
        </g>
        <g id="Black-S">
            <path d="M665,146 C684.33,146 700,130.33 700,111 C700,91.67 684.33,76 665,76 C645.67,76 630,91.67 630,111 C630,130.33 645.67,146 665,146 Z M665,141.116 C648.367,141.116 634.884,127.633 634.884,111 C634.884,94.367 648.367,80.884 665,80.884 C681.633,80.884 695.116,94.367 695.116,111 C695.116,127.633 681.633,141.116 665,141.116 Z" />
            <path d="M674.211,121.303 C674.163,121.4 674.015,121.65 673.767,122.001 C673.329,122.62 672.783,123.244 672.128,123.826 C670.265,125.482 667.93,126.465 665,126.465 C662.07,126.465 659.735,125.482 657.872,123.826 C657.217,123.244 656.671,122.62 656.233,122.001 C655.985,121.65 655.837,121.4 655.789,121.303 C655.186,120.097 653.719,119.608 652.513,120.211 C651.306,120.814 650.818,122.281 651.421,123.487 C651.956,124.558 652.995,126.025 654.628,127.476 C657.343,129.89 660.808,131.349 665,131.349 C669.192,131.349 672.657,129.89 675.372,127.476 C677.005,126.025 678.044,124.558 678.579,123.487 C679.183,122.281 678.694,120.814 677.487,120.211 C676.281,119.608 674.814,120.097 674.211,121.303 Z" />
            <path d="M656.304,101.768 C656.209,101.96 655.94,102.362 655.541,102.762 C654.946,103.356 654.31,103.674 653.605,103.674 C652.899,103.674 652.263,103.356 651.669,102.762 C651.269,102.362 651.001,101.96 650.905,101.768 C650.302,100.562 648.835,100.073 647.629,100.676 C646.423,101.28 645.934,102.746 646.537,103.952 C646.848,104.575 647.394,105.394 648.215,106.215 C649.656,107.655 651.461,108.558 653.605,108.558 C655.748,108.558 657.554,107.655 658.994,106.215 C659.815,105.394 660.361,104.575 660.672,103.952 C661.276,102.746 660.787,101.28 659.58,100.676 C658.374,100.073 656.907,100.562 656.304,101.768 Z" />
            <path d="M679.095,101.768 C678.999,101.96 678.731,102.362 678.331,102.762 C677.737,103.356 677.101,103.674 676.395,103.674 C675.69,103.674 675.054,103.356 674.459,102.762 C674.06,102.362 673.791,101.96 673.696,101.768 C673.093,100.562 671.626,100.073 670.42,100.676 C669.213,101.28 668.724,102.746 669.328,103.952 C669.639,104.575 670.185,105.394 671.006,106.215 C672.446,107.655 674.252,108.558 676.395,108.558 C678.539,108.558 680.344,107.655 681.785,106.215 C682.606,105.394 683.152,104.575 683.463,103.952 C684.066,102.746 683.577,101.28 682.371,100.676 C681.165,100.073 679.698,100.562 679.095,101.768 Z" />
        </g>
    </g>
</svg>