<?xml version="1.0" encoding="UTF-8"?>
<svg height="600" width="800" xmlns="http://www.w3.org/2000/svg" xmlns:xlink="http://www.w3.org/1999/xlink">
    <g id="Notes" font-family="'LucidaGrande', 'Lucida Grande', sans-serif" font-size="13">
        <rect fill="white" height="600.0" width="800.0" x="0.0" y="0.0" />
        <g font-size="13">
            <text x="18.0" y="176.0">Small</text>
            <text x="18.0" y="376.0">Medium</text>
            <text x="18.0" y="576.0">Large</text>
        </g>
        <g font-size="9">
            <text x="250.0" y="30.0">Ultralight</text>
            <text x="450.0" y="30.0">Regular</text>
            <text x="650.0" y="30.0">Black</text>
            <text id="template-version" fill="#505050" text-anchor="end" x="785.0" y="575.0">Template v.3.0</text>
            <a href="https://github.com/swhitty/SwiftDraw">
                <text fill="#505050" text-anchor="end" x="785.0" y="590.0">https://github.com/swhitty/SwiftDraw</text>
            </a>
        </g>
    </g>
    <g id="Guides" stroke="rgb(39, 170, 225)" stroke-width="0.5">
        <path id="Capline-S" d="M18,76 l800,0" />
        <path id="H-reference" d="M85,145.755 L87.685,145.755 L113.369,79.287 L114.052,79.287 L114.052,76 L112.148,76 L85,145.755 Z M95.693,121.536 L130.996,121.536 L130.263,119.313 L96.474,119.313 L95.693,121.536 Z M139.15,145.755 L141.787,145.755 L114.638,76 L113.466,76 L113.466,79.287 L139.15,145.755 Z" stroke="none" />
        <path id="Baseline-S" d="M18,146 l800,0" />
        <path id="left-margin-Ultralight-S" d="M221,56 l0,110" />
        <path id="right-margin-Ultralight-S" d="M309,56 l0,110" />
        <path id="left-margin-Regular-S" d="M421,56 l0,110" />
        <path id="right-margin-Regular-S" d="M509,56 l0,110" />
        <path id="left-margin-Black-S" d="M621,56 l0,110" />
        <path id="right-margin-Black-S" d="M709,56 l0,110" />
        <path id="Capline-M" d="M18,276 l800,0" />
        <path id="Baseline-M" d="M18,346 l800,0" />
        <path id="Capline-L" d="M18,476 l800,0" />
        <path id="Baseline-L" d="M18,546 l800,0" />
    </g>
    <g id="Symbols">
        <g id="Ultralight-S">
            <path d="M264.146,137.464 C281.91,137.464 295.731,123.953 295.731,105.878 L295.731,103.317 L293.17,103.317 L235.122,103.317 L232.561,103.317 L232.561,105.878 C232.561,123.953 246.382,137.464 264.146,137.464 Z M264.146,132.342 C249.185,132.342 237.683,121.098 237.683,105.878 L235.122,108.439 L293.17,108.439 L290.609,105.878 C290.609,121.098 279.107,132.342 264.146,132.342 Z" />
            <path d="M276.951,105.878 C276.951,95.063 268.573,86.244 258.17,86.244 C247.768,86.244 239.39,95.063 239.39,105.878 L244.512,105.878 C244.512,97.835 250.657,91.366 258.17,91.366 C265.684,91.366 271.829,97.835 271.829,105.878 L276.951,105.878 Z" />
            <path d="M292.316,105.878 C292.316,98.79 286.431,93.074 279.208,93.074 C276.241,93.074 273.416,94.043 271.125,95.796 L274.239,99.863 C275.641,98.79 277.373,98.196 279.208,98.196 C283.635,98.196 287.195,101.652 287.195,105.878 L292.316,105.878 Z" />
            <path d="M281.965,96.371 L287.087,79.298 C287.493,77.943 286.724,76.515 285.369,76.109 C284.015,75.702 282.587,76.471 282.181,77.826 L277.059,94.899 C276.652,96.253 277.421,97.681 278.776,98.088 C280.13,98.494 281.558,97.725 281.965,96.371 Z" />
            <path d="M290.272,102.027 L297.101,90.076 C297.803,88.848 297.376,87.284 296.148,86.582 C294.92,85.88 293.356,86.307 292.654,87.535 L285.825,99.486 C285.123,100.714 285.55,102.279 286.778,102.98 C288.006,103.682 289.57,103.255 290.272,102.027 Z" />
            <path d="M251.473,132.385 L248.058,142.629 C247.505,144.288 248.74,146 250.488,146 L277.804,146 C279.552,146 280.787,144.288 280.234,142.629 L276.819,132.385 C276.372,131.044 274.922,130.318 273.58,130.766 C272.238,131.213 271.513,132.663 271.96,134.005 L275.375,144.249 L277.804,140.878 L250.488,140.878 L252.917,144.249 L256.332,134.005 C256.779,132.663 256.054,131.213 254.712,130.766 C253.37,130.318 251.92,131.044 251.473,132.385 Z" />
        </g>
        <g id="Regular-S">
            <path d="M464.146,137.464 C481.91,137.464 495.731,123.953 495.731,105.878 L495.731,103.317 L493.17,103.317 L435.122,103.317 L432.561,103.317 L432.561,105.878 C432.561,123.953 446.382,137.464 464.146,137.464 Z M464.146,132.342 C449.185,132.342 437.683,121.098 437.683,105.878 L435.122,108.439 L493.17,108.439 L490.609,105.878 C490.609,121.098 479.107,132.342 464.146,132.342 Z" />
            <path d="M476.951,105.878 C476.951,95.063 468.573,86.244 458.17,86.244 C447.768,86.244 439.39,95.063 439.39,105.878 L444.512,105.878 C444.512,97.835 450.657,91.366 458.17,91.366 C465.684,91.366 471.829,97.835 471.829,105.878 L476.951,105.878 Z" />
            <path d="M492.316,105.878 C492.316,98.79 486.431,93.074 479.208,93.074 C476.241,93.074 473.416,94.043 471.125,95.796 L474.239,99.863 C475.641,98.79 477.373,98.196 479.208,98.196 C483.635,98.196 487.195,101.652 487.195,105.878 L492.316,105.878 Z" />
            <path d="M481.965,96.371 L487.087,79.298 C487.493,77.943 486.724,76.515 485.369,76.109 C484.015,75.702 482.587,76.471 482.181,77.826 L477.059,94.899 C476.652,96.253 477.421,97.681 478.776,98.088 C480.13,98.494 481.558,97.725 481.965,96.371 Z" />
            <path d="M490.272,102.027 L497.101,90.076 C497.803,88.848 497.376,87.284 496.148,86.582 C494.92,85.88 493.356,86.307 492.654,87.535 L485.825,99.486 C485.123,100.714 485.55,102.279 486.778,102.98 C488.006,103.682 489.57,103.255 490.272,102.027 Z" />
            <path d="M451.473,132.385 L448.058,142.629 C447.505,144.288 448.74,146 450.488,146 L477.804,146 C479.552,146 480.787,144.288 480.234,142.629 L476.819,132.385 C476.372,131.044 474.922,130.318 473.58,130.766 C472.238,131.213 471.513,132.663 471.96,134.005 L475.375,144.249 L477.804,140.878 L450.488,140.878 L452.917,144.249 L456.332,134.005 C456.779,132.663 456.054,131.213 454.712,130.766 C453.37,130.318 451.92,131.044 451.473,132.385 Z" />
        </g>
        <g id="Black-S">
            <path d="M664.146,137.464 C681.91,137.464 695.731,123.953 695.731,105.878 L695.731,103.317 L693.17,103.317 L635.122,103.317 L632.561,103.317 L632.561,105.878 C632.561,123.953 646.382,137.464 664.146,137.464 Z M664.146,132.342 C649.185,132.342 637.683,121.098 637.683,105.878 L635.122,108.439 L693.17,108.439 L690.609,105.878 C690.609,121.098 679.107,132.342 664.146,132.342 Z" />
            <path d="M676.951,105.878 C676.951,95.063 668.573,86.244 658.17,86.244 C647.768,86.244 639.39,95.063 639.39,105.878 L644.512,105.878 C644.512,97.835 650.657,91.366 658.17,91.366 C665.684,91.366 671.829,97.835 671.829,105.878 L676.951,105.878 Z" />
            <path d="M692.316,105.878 C692.316,98.79 686.431,93.074 679.208,93.074 C676.241,93.074 673.416,94.043 671.125,95.796 L674.24,99.863 C675.641,98.79 677.373,98.196 679.208,98.196 C683.635,98.196 687.195,101.652 687.195,105.878 L692.316,105.878 Z" />
            <path d="M681.965,96.371 L687.087,79.298 C687.493,77.943 686.724,76.515 685.37,76.109 C684.015,75.702 682.587,76.471 682.181,77.826 L677.059,94.899 C676.652,96.253 677.421,97.681 678.776,98.088 C680.131,98.494 681.558,97.725 681.965,96.371 Z" />
            <path d="M690.272,102.027 L697.101,90.076 C697.803,88.848 697.376,87.284 696.148,86.582 C694.92,85.88 693.356,86.307 692.654,87.535 L685.825,99.486 C685.123,100.714 685.55,102.279 686.778,102.98 C688.006,103.682 689.57,103.255 690.272,102.027 Z" />
            <path d="M651.473,132.385 L648.058,142.629 C647.505,144.288 648.74,146 650.488,146 L677.804,146 C679.552,146 680.787,144.288 680.234,142.629 L676.819,132.385 C676.372,131.044 674.922,130.318 673.58,130.766 C672.238,131.213 671.513,132.663 671.96,134.005 L675.375,144.249 L677.804,140.878 L650.488,140.878 L652.917,144.249 L656.332,134.005 C656.779,132.663 656.054,131.213 654.712,130.766 C653.37,130.318 651.92,131.044 651.473,132.385 Z" />
        </g>
    </g>
</svg>