<?xml version="1.0" encoding="UTF-8"?>
<svg height="600" width="800" xmlns="http://www.w3.org/2000/svg" xmlns:xlink="http://www.w3.org/1999/xlink">
    <g id="Notes" font-family="'LucidaGrande', 'Lucida Grande', sans-serif" font-size="13">
        <rect fill="white" height="600.0" width="800.0" x="0.0" y="0.0" />
        <g font-size="13">
            <text x="18.0" y="176.0">Small</text>
            <text x="18.0" y="376.0">Medium</text>
            <text x="18.0" y="576.0">Large</text>
        </g>
        <g font-size="9">
            <text x="250.0" y="30.0">Ultralight</text>
            <text x="450.0" y="30.0">Regular</text>
            <text x="650.0" y="30.0">Black</text>
            <text id="template-version" fill="#505050" text-anchor="end" x="785.0" y="575.0">Template v.3.0</text>
            <a href="https://github.com/swhitty/SwiftDraw">
                <text fill="#505050" text-anchor="end" x="785.0" y="590.0">https://github.com/swhitty/SwiftDraw</text>
            </a>
        </g>
    </g>
    <g id="Guides" stroke="rgb(39, 170, 225)" stroke-width="0.5">
        <path id="Capline-S" d="M18,76 l800,0" />
        <path id="H-reference" d="M85,145.755 L87.685,145.755 L113.369,79.287 L114.052,79.287 L114.052,76 L112.148,76 L85,145.755 Z M95.693,121.536 L130.996,121.536 L130.263,119.313 L96.474,119.313 L95.693,121.536 Z M139.15,145.755 L141.787,145.755 L114.638,76 L113.466,76 L113.466,79.287 L139.15,145.755 Z" stroke="none" />
        <path id="Baseline-S" d="M18,146 l800,0" />
        <path id="left-margin-Ultralight-S" d="M221,56 l0,110" />
        <path id="right-margin-Ultralight-S" d="M309,56 l0,110" />
        <path id="left-margin-Regular-S" d="M421,56 l0,110" />
        <path id="right-margin-Regular-S" d="M509,56 l0,110" />
        <path id="left-margin-Black-S" d="M621,56 l0,110" />
        <path id="right-margin-Black-S" d="M709,56 l0,110" />
        <path id="Capline-M" d="M18,276 l800,0" />
        <path id="Baseline-M" d="M18,346 l800,0" />
        <path id="Capline-L" d="M18,476 l800,0" />
        <path id="Baseline-L" d="M18,546 l800,0" />
    </g>
    <g id="Symbols">
        <g id="Ultralight-S">
            <path d="M239.767,84.953 L239.767,97.977 C239.767,99.325 240.861,100.419 242.209,100.419 L287.791,100.419 C288.438,100.419 289.059,100.161 289.517,99.703 L296.029,93.192 C296.983,92.238 296.983,90.692 296.029,89.738 L289.517,83.227 C289.059,82.769 288.438,82.512 287.791,82.512 L242.209,82.512 C240.861,82.512 239.767,83.605 239.767,84.953 Z M244.651,84.953 L242.209,87.395 L287.791,87.395 L286.064,86.68 L292.576,93.192 L292.576,89.738 L286.064,96.25 L287.791,95.535 L242.209,95.535 L244.651,97.977 L244.651,84.953 Z" />
            <path d="M285.349,109.372 L285.349,122.395 L287.791,119.953 L242.209,119.953 L243.936,120.669 L237.424,114.157 L237.424,117.61 L243.936,111.099 L242.209,111.814 L287.791,111.814 L285.349,109.372 Z M290.233,109.372 C290.233,108.023 289.139,106.93 287.791,106.93 L242.209,106.93 C241.562,106.93 240.941,107.188 240.483,107.645 L233.971,114.157 C233.017,115.111 233.017,116.657 233.971,117.61 L240.483,124.122 C240.941,124.58 241.562,124.837 242.209,124.837 L287.791,124.837 C289.139,124.837 290.233,123.744 290.233,122.395 L290.233,109.372 Z" />
            <path d="M262.558,122.395 L262.558,143.558 C262.558,144.907 263.651,146 265,146 C266.349,146 267.442,144.907 267.442,143.558 L267.442,122.395 C267.442,121.047 266.349,119.953 265,119.953 C263.651,119.953 262.558,121.047 262.558,122.395 Z" />
            <path d="M262.558,97.977 L262.558,109.372 C262.558,110.721 263.651,111.814 265,111.814 C266.349,111.814 267.442,110.721 267.442,109.372 L267.442,97.977 C267.442,96.628 266.349,95.535 265,95.535 C263.651,95.535 262.558,96.628 262.558,97.977 Z" />
            <path d="M262.558,78.442 L262.558,84.953 C262.558,86.302 263.651,87.395 265,87.395 C266.349,87.395 267.442,86.302 267.442,84.953 L267.442,78.442 C267.442,77.093 266.349,76 265,76 C263.651,76 262.558,77.093 262.558,78.442 Z" />
            <path d="M256.86,146 L273.14,146 C274.488,146 275.581,144.907 275.581,143.558 C275.581,142.21 274.488,141.116 273.14,141.116 L256.86,141.116 C255.512,141.116 254.419,142.21 254.419,143.558 C254.419,144.907 255.512,146 256.86,146 Z" />
        </g>
        <g id="Regular-S">
            <path d="M439.767,84.953 L439.767,97.977 C439.767,99.325 440.861,100.419 442.209,100.419 L487.791,100.419 C488.438,100.419 489.059,100.161 489.517,99.703 L496.029,93.192 C496.983,92.238 496.983,90.692 496.029,89.738 L489.517,83.227 C489.059,82.769 488.438,82.512 487.791,82.512 L442.209,82.512 C440.861,82.512 439.767,83.605 439.767,84.953 Z M444.651,84.953 L442.209,87.395 L487.791,87.395 L486.064,86.68 L492.576,93.192 L492.576,89.738 L486.064,96.25 L487.791,95.535 L442.209,95.535 L444.651,97.977 L444.651,84.953 Z" />
            <path d="M485.349,109.372 L485.349,122.395 L487.791,119.953 L442.209,119.953 L443.936,120.669 L437.424,114.157 L437.424,117.61 L443.936,111.099 L442.209,111.814 L487.791,111.814 L485.349,109.372 Z M490.233,109.372 C490.233,108.023 489.139,106.93 487.791,106.93 L442.209,106.93 C441.562,106.93 440.941,107.188 440.483,107.645 L433.971,114.157 C433.017,115.111 433.017,116.657 433.971,117.61 L440.483,124.122 C440.941,124.58 441.562,124.837 442.209,124.837 L487.791,124.837 C489.139,124.837 490.233,123.744 490.233,122.395 L490.233,109.372 Z" />
            <path d="M462.558,122.395 L462.558,143.558 C462.558,144.907 463.651,146 465,146 C466.349,146 467.442,144.907 467.442,143.558 L467.442,122.395 C467.442,121.047 466.349,119.953 465,119.953 C463.651,119.953 462.558,121.047 462.558,122.395 Z" />
            <path d="M462.558,97.977 L462.558,109.372 C462.558,110.721 463.651,111.814 465,111.814 C466.349,111.814 467.442,110.721 467.442,109.372 L467.442,97.977 C467.442,96.628 466.349,95.535 465,95.535 C463.651,95.535 462.558,96.628 462.558,97.977 Z" />
            <path d="M462.558,78.442 L462.558,84.953 C462.558,86.302 463.651,87.395 465,87.395 C466.349,87.395 467.442,86.302 467.442,84.953 L467.442,78.442 C467.442,77.093 466.349,76 465,76 C463.651,76 462.558,77.093 462.558,78.442 Z" />
            <path d="M456.86,146 L473.14,146 C474.488,146 475.581,144.907 475.581,143.558 C475.581,142.21 474.488,141.116 473.14,141.116 L456.86,141.116 C455.512,141.116 454.419,142.21 454.419,143.558 C454.419,144.907 455.512,146 456.86,146 Z" />
        </g>
        <g id="Black-S">
            <path d="M639.767,84.953 L639.767,97.977 C639.767,99.325 640.861,100.419 642.209,100.419 L687.791,100.419 C688.438,100.419 689.059,100.161 689.517,99.703 L696.029,93.192 C696.983,92.238 696.983,90.692 696.029,89.738 L689.517,83.227 C689.059,82.769 688.438,82.512 687.791,82.512 L642.209,82.512 C640.861,82.512 639.767,83.605 639.767,84.953 Z M644.651,84.953 L642.209,87.395 L687.791,87.395 L686.064,86.68 L692.576,93.192 L692.576,89.738 L686.064,96.25 L687.791,95.535 L642.209,95.535 L644.651,97.977 L644.651,84.953 Z" />
            <path d="M685.349,109.372 L685.349,122.395 L687.791,119.953 L642.209,119.953 L643.936,120.669 L637.424,114.157 L637.424,117.61 L643.936,111.099 L642.209,111.814 L687.791,111.814 L685.349,109.372 Z M690.233,109.372 C690.233,108.023 689.139,106.93 687.791,106.93 L642.209,106.93 C641.562,106.93 640.941,107.188 640.483,107.645 L633.971,114.157 C633.017,115.111 633.017,116.657 633.971,117.61 L640.483,124.122 C640.941,124.58 641.562,124.837 642.209,124.837 L687.791,124.837 C689.139,124.837 690.233,123.744 690.233,122.395 L690.233,109.372 Z" />
            <path d="M662.558,122.395 L662.558,143.558 C662.558,144.907 663.651,146 665,146 C666.349,146 667.442,144.907 667.442,143.558 L667.442,122.395 C667.442,121.047 666.349,119.953 665,119.953 C663.651,119.953 662.558,121.047 662.558,122.395 Z" />
            <path d="M662.558,97.977 L662.558,109.372 C662.558,110.721 663.651,111.814 665,111.814 C666.349,111.814 667.442,110.721 667.442,109.372 L667.442,97.977 C667.442,96.628 666.349,95.535 665,95.535 C663.651,95.535 662.558,96.628 662.558,97.977 Z" />
            <path d="M662.558,78.442 L662.558,84.953 C662.558,86.302 663.651,87.395 665,87.395 C666.349,87.395 667.442,86.302 667.442,84.953 L667.442,78.442 C667.442,77.093 666.349,76 665,76 C663.651,76 662.558,77.093 662.558,78.442 Z" />
            <path d="M656.86,146 L673.14,146 C674.488,146 675.581,144.907 675.581,143.558 C675.581,142.21 674.488,141.116 673.14,141.116 L656.86,141.116 C655.512,141.116 654.419,142.21 654.419,143.558 C654.419,144.907 655.512,146 656.86,146 Z" />
        </g>
    </g>
</svg>