<?xml version="1.0" encoding="UTF-8"?>
<svg height="600" width="800" xmlns="http://www.w3.org/2000/svg" xmlns:xlink="http://www.w3.org/1999/xlink">
    <g id="Notes" font-family="'LucidaGrande', 'Lucida Grande', sans-serif" font-size="13">
        <rect fill="white" height="600.0" width="800.0" x="0.0" y="0.0" />
        <g font-size="13">
            <text x="18.0" y="176.0">Small</text>
            <text x="18.0" y="376.0">Medium</text>
            <text x="18.0" y="576.0">Large</text>
        </g>
        <g font-size="9">
            <text x="250.0" y="30.0">Ultralight</text>
            <text x="450.0" y="30.0">Regular</text>
            <text x="650.0" y="30.0">Black</text>
            <text id="template-version" fill="#505050" text-anchor="end" x="785.0" y="575.0">Template v.3.0</text>
            <a href="https://github.com/swhitty/SwiftDraw">
                <text fill="#505050" text-anchor="end" x="785.0" y="590.0">https://github.com/swhitty/SwiftDraw</text>
            </a>
        </g>
    </g>
    <g id="Guides" stroke="rgb(39, 170, 225)" stroke-width="0.5">
        <path id="Capline-S" d="M18,76 l800,0" />
        <path id="H-reference" d="M85,145.755 L87.685,145.755 L113.369,79.287 L114.052,79.287 L114.052,76 L112.148,76 L85,145.755 Z M95.693,121.536 L130.996,121.536 L130.263,119.313 L96.474,119.313 L95.693,121.536 Z M139.15,145.755 L141.787,145.755 L114.638,76 L113.466,76 L113.466,79.287 L139.15,145.755 Z" stroke="none" />
        <path id="Baseline-S" d="M18,146 l800,0" />
        <path id="left-margin-Ultralight-S" d="M221,56 l0,110" />
        <path id="right-margin-Ultralight-S" d="M309,56 l0,110" />
        <path id="left-margin-Regular-S" d="M421,56 l0,110" />
        <path id="right-margin-Regular-S" d="M509,56 l0,110" />
        <path id="left-margin-Black-S" d="M621,56 l0,110" />
        <path id="right-margin-Black-S" d="M709,56 l0,110" />
        <path id="Capline-M" d="M18,276 l800,0" />
        <path id="Baseline-M" d="M18,346 l800,0" />
        <path id="Capline-L" d="M18,476 l800,0" />
        <path id="Baseline-L" d="M18,546 l800,0" />
    </g>
    <g id="Symbols">
        <g id="Ultralight-S">
            <path d="M263.222,102.766 C263.136,102.765 263.136,102.765 263.034,102.765 C260.909,102.755 259.314,102.962 257.156,103.805 C254.13,104.986 251.094,107.198 248.056,110.67 C244.272,114.994 242.839,120.474 243.248,125.831 C243.507,129.225 246.957,131.192 250.078,129.946 C251.624,129.33 252.937,128.696 253.94,128.027 C255.704,126.851 256.617,125.481 257.017,123.683 C257.041,123.574 257.411,121.046 257.641,120.357 C258.168,118.774 260.638,117.634 263.069,118.242 C265.291,118.798 266.417,120.299 266.804,122.734 C267.09,124.532 265.898,126.562 263.64,127.512 C262.549,127.972 261.76,128.079 260.856,127.957 C260.446,127.901 259.991,127.798 259.351,127.618 C259.126,127.555 257.73,127.144 257.266,127.016 C256.457,126.791 255.71,126.609 254.922,126.452 C251.823,125.832 249.057,127.521 246.511,130.326 C244.974,132.019 244.816,134.522 246.152,136.383 C246.748,137.213 247.423,138.022 248.165,138.763 C252.312,142.911 259.944,146.727 266.704,145.882 C274.659,144.887 281.954,139.051 285.157,131.577 C288.572,123.609 286.698,113.996 279.8,108.823 C278.743,108.03 277.245,108.245 276.452,109.301 C275.66,110.357 275.874,111.856 276.931,112.648 C281.946,116.41 283.356,123.64 280.762,129.693 C278.207,135.653 272.324,140.36 266.111,141.137 C261.1,141.763 254.754,138.59 251.546,135.382 C250.998,134.834 250.487,134.223 250.037,133.595 C250.022,133.575 250.022,133.572 250.052,133.539 C251.554,131.885 253.071,130.958 253.984,131.141 C254.649,131.274 255.285,131.429 255.989,131.624 C256.406,131.739 257.793,132.148 258.061,132.223 C258.895,132.457 259.547,132.605 260.213,132.695 C261.972,132.934 263.623,132.708 265.496,131.919 C269.741,130.132 272.166,126.003 271.527,121.984 C270.863,117.806 268.514,114.674 264.228,113.603 C259.502,112.421 254.471,114.743 253.104,118.844 C252.714,120.014 252.292,122.901 252.349,122.645 C252.212,123.261 252.007,123.569 251.287,124.048 C250.617,124.495 249.569,125.001 248.306,125.505 C248.098,125.588 248.022,125.545 248.016,125.467 C247.698,121.299 248.801,117.079 251.654,113.818 C256.09,108.75 259.214,107.53 263.013,107.547 C263.117,107.547 263.117,107.547 263.222,107.547 C264.543,107.547 265.613,106.477 265.613,105.156 C265.613,103.836 264.543,102.766 263.222,102.766 Z" />
            <path d="M280.505,109.667 L264.769,78.17 C263.802,76.237 261.431,75.381 259.491,76.495 C256.422,78.259 254.565,81.027 255.381,84.624 C256.714,90.502 264.684,117.253 266.646,121.335 C267.219,122.525 268.647,123.026 269.837,122.454 C271.027,121.882 271.528,120.453 270.956,119.263 C269.191,115.591 261.303,89.117 260.044,83.566 C259.785,82.425 260.422,81.475 261.874,80.641 C261.322,80.958 260.705,80.736 260.491,80.308 L276.227,111.804 C276.817,112.985 278.253,113.464 279.435,112.874 C280.616,112.284 281.095,110.848 280.505,109.667 Z" />
            <path d="M285.535,115.4 L284.024,84.621 C283.921,82.524 282.193,80.812 280.028,80.95 C276.468,81.176 273.555,82.848 272.71,86.469 C271.8,90.368 271.214,95.938 271.192,101.162 C271.187,102.482 272.253,103.557 273.573,103.563 C274.894,103.568 275.969,102.502 275.974,101.182 C275.995,96.3 276.543,91.084 277.367,87.556 C277.635,86.407 278.641,85.829 280.331,85.722 C279.717,85.761 279.271,85.319 279.248,84.855 L280.759,115.635 C280.824,116.954 281.945,117.97 283.264,117.906 C284.583,117.841 285.6,116.719 285.535,115.4 Z" />
        </g>
        <g id="Regular-S">
            <path d="M463.222,102.766 C463.136,102.765 463.136,102.765 463.034,102.765 C460.909,102.755 459.314,102.962 457.156,103.805 C454.13,104.986 451.094,107.198 448.056,110.67 C444.272,114.994 442.839,120.474 443.248,125.831 C443.507,129.225 446.957,131.192 450.078,129.946 C451.624,129.33 452.937,128.696 453.94,128.027 C455.704,126.851 456.617,125.481 457.017,123.683 C457.041,123.574 457.411,121.046 457.641,120.357 C458.168,118.774 460.638,117.634 463.069,118.242 C465.291,118.798 466.417,120.299 466.804,122.734 C467.09,124.532 465.898,126.562 463.64,127.512 C462.549,127.972 461.76,128.079 460.856,127.957 C460.446,127.901 459.991,127.798 459.351,127.618 C459.126,127.555 457.73,127.144 457.266,127.016 C456.457,126.791 455.71,126.609 454.922,126.452 C451.823,125.832 449.057,127.521 446.511,130.326 C444.974,132.019 444.816,134.522 446.152,136.383 C446.747,137.213 447.423,138.022 448.165,138.763 C452.312,142.911 459.944,146.727 466.704,145.882 C474.659,144.887 481.954,139.051 485.157,131.577 C488.572,123.609 486.698,113.996 479.8,108.823 C478.743,108.03 477.245,108.245 476.452,109.301 C475.66,110.357 475.874,111.856 476.931,112.648 C481.946,116.41 483.356,123.64 480.761,129.693 C478.207,135.653 472.324,140.36 466.111,141.137 C461.1,141.763 454.754,138.59 451.546,135.382 C450.998,134.834 450.487,134.223 450.037,133.595 C450.022,133.575 450.022,133.572 450.052,133.539 C451.554,131.885 453.071,130.958 453.984,131.141 C454.649,131.274 455.285,131.429 455.989,131.624 C456.406,131.739 457.793,132.148 458.061,132.223 C458.895,132.457 459.547,132.605 460.213,132.695 C461.972,132.934 463.622,132.708 465.496,131.919 C469.741,130.132 472.166,126.003 471.527,121.984 C470.863,117.806 468.514,114.674 464.228,113.603 C459.502,112.421 454.471,114.743 453.104,118.844 C452.714,120.014 452.292,122.901 452.349,122.645 C452.212,123.261 452.007,123.569 451.287,124.048 C450.617,124.495 449.569,125.001 448.306,125.505 C448.098,125.588 448.022,125.545 448.016,125.467 C447.698,121.299 448.801,117.079 451.654,113.818 C456.09,108.75 459.214,107.53 463.013,107.547 C463.117,107.547 463.117,107.547 463.222,107.547 C464.543,107.547 465.613,106.477 465.613,105.156 C465.613,103.836 464.543,102.766 463.222,102.766 Z" />
            <path d="M480.505,109.667 L464.769,78.17 C463.802,76.237 461.431,75.381 459.491,76.495 C456.422,78.259 454.565,81.027 455.381,84.624 C456.714,90.502 464.684,117.253 466.646,121.335 C467.219,122.525 468.647,123.026 469.837,122.454 C471.027,121.882 471.528,120.453 470.956,119.263 C469.191,115.591 461.303,89.117 460.044,83.566 C459.785,82.425 460.422,81.475 461.874,80.641 C461.322,80.958 460.705,80.736 460.491,80.308 L476.227,111.804 C476.817,112.985 478.253,113.464 479.435,112.874 C480.616,112.284 481.095,110.848 480.505,109.667 Z" />
            <path d="M485.535,115.4 L484.024,84.621 C483.921,82.524 482.193,80.812 480.028,80.95 C476.468,81.176 473.555,82.848 472.71,86.469 C471.8,90.368 471.214,95.938 471.192,101.162 C471.187,102.482 472.253,103.557 473.573,103.563 C474.894,103.568 475.969,102.502 475.974,101.182 C475.995,96.3 476.543,91.084 477.367,87.556 C477.635,86.407 478.641,85.829 480.331,85.722 C479.717,85.761 479.271,85.319 479.248,84.855 L480.759,115.635 C480.824,116.954 481.945,117.97 483.264,117.906 C484.583,117.841 485.6,116.719 485.535,115.4 Z" />
        </g>
        <g id="Black-S">
            <path d="M663.222,102.766 C663.136,102.765 663.136,102.765 663.034,102.765 C660.909,102.755 659.314,102.962 657.156,103.805 C654.13,104.986 651.094,107.198 648.056,110.67 C644.272,114.994 642.839,120.474 643.248,125.831 C643.507,129.225 646.957,131.192 650.078,129.946 C651.624,129.33 652.937,128.696 653.94,128.027 C655.704,126.851 656.617,125.481 657.017,123.683 C657.041,123.574 657.411,121.046 657.641,120.357 C658.168,118.774 660.638,117.634 663.069,118.242 C665.291,118.798 666.417,120.299 666.804,122.734 C667.09,124.532 665.898,126.562 663.64,127.512 C662.549,127.972 661.76,128.079 660.856,127.957 C660.446,127.901 659.991,127.798 659.351,127.618 C659.126,127.555 657.73,127.144 657.266,127.016 C656.457,126.791 655.71,126.609 654.922,126.452 C651.823,125.832 649.057,127.521 646.511,130.326 C644.974,132.019 644.816,134.522 646.152,136.383 C646.747,137.213 647.423,138.022 648.165,138.763 C652.312,142.911 659.944,146.727 666.704,145.882 C674.659,144.887 681.954,139.051 685.157,131.577 C688.572,123.609 686.698,113.996 679.8,108.823 C678.743,108.03 677.245,108.245 676.452,109.301 C675.66,110.357 675.874,111.856 676.931,112.648 C681.946,116.41 683.356,123.64 680.761,129.693 C678.207,135.653 672.324,140.36 666.111,141.137 C661.1,141.763 654.754,138.59 651.546,135.382 C650.998,134.834 650.487,134.223 650.037,133.595 C650.022,133.575 650.022,133.572 650.052,133.539 C651.554,131.885 653.071,130.958 653.984,131.141 C654.649,131.274 655.285,131.429 655.989,131.624 C656.406,131.739 657.793,132.148 658.061,132.223 C658.895,132.457 659.547,132.605 660.213,132.695 C661.972,132.934 663.622,132.708 665.496,131.919 C669.741,130.132 672.166,126.003 671.527,121.984 C670.863,117.806 668.514,114.674 664.228,113.603 C659.502,112.421 654.471,114.743 653.104,118.844 C652.714,120.014 652.292,122.901 652.349,122.645 C652.212,123.261 652.007,123.569 651.287,124.048 C650.617,124.495 649.569,125.001 648.306,125.505 C648.097,125.588 648.022,125.545 648.016,125.467 C647.698,121.299 648.801,117.079 651.654,113.818 C656.09,108.75 659.214,107.53 663.013,107.547 C663.117,107.547 663.117,107.547 663.222,107.547 C664.543,107.547 665.613,106.477 665.613,105.156 C665.613,103.836 664.543,102.766 663.222,102.766 Z" />
            <path d="M680.505,109.667 L664.769,78.17 C663.802,76.237 661.431,75.381 659.491,76.495 C656.422,78.259 654.565,81.027 655.381,84.624 C656.714,90.502 664.684,117.253 666.646,121.335 C667.219,122.525 668.647,123.026 669.837,122.454 C671.027,121.882 671.528,120.453 670.956,119.263 C669.191,115.591 661.303,89.117 660.044,83.566 C659.785,82.425 660.422,81.475 661.874,80.641 C661.322,80.958 660.705,80.736 660.491,80.308 L676.227,111.804 C676.817,112.985 678.253,113.464 679.435,112.874 C680.616,112.284 681.095,110.848 680.505,109.667 Z" />
            <path d="M685.535,115.4 L684.024,84.621 C683.921,82.524 682.193,80.812 680.028,80.95 C676.468,81.176 673.555,82.848 672.71,86.469 C671.8,90.368 671.214,95.938 671.192,101.162 C671.187,102.482 672.253,103.557 673.573,103.563 C674.894,103.568 675.969,102.502 675.974,101.182 C675.995,96.3 676.543,91.084 677.367,87.556 C677.635,86.407 678.641,85.829 680.331,85.722 C679.717,85.761 679.271,85.319 679.248,84.855 L680.759,115.635 C680.824,116.954 681.945,117.97 683.264,117.906 C684.583,117.841 685.6,116.719 685.535,115.4 Z" />
        </g>
    </g>
</svg>