<?xml version="1.0" encoding="UTF-8"?>
<svg height="600" width="800" xmlns="http://www.w3.org/2000/svg" xmlns:xlink="http://www.w3.org/1999/xlink">
    <g id="Notes" font-family="'LucidaGrande', 'Lucida Grande', sans-serif" font-size="13">
        <rect fill="white" height="600.0" width="800.0" x="0.0" y="0.0" />
        <g font-size="13">
            <text x="18.0" y="176.0">Small</text>
            <text x="18.0" y="376.0">Medium</text>
            <text x="18.0" y="576.0">Large</text>
        </g>
        <g font-size="9">
            <text x="250.0" y="30.0">Ultralight</text>
            <text x="450.0" y="30.0">Regular</text>
            <text x="650.0" y="30.0">Black</text>
            <text id="template-version" fill="#505050" text-anchor="end" x="785.0" y="575.0">Template v.3.0</text>
            <a href="https://github.com/swhitty/SwiftDraw">
                <text fill="#505050" text-anchor="end" x="785.0" y="590.0">https://github.com/swhitty/SwiftDraw</text>
            </a>
        </g>
    </g>
    <g id="Guides" stroke="rgb(39, 170, 225)" stroke-width="0.5">
        <path id="Capline-S" d="M18,76 l800,0" />
        <path id="H-reference" d="M85,145.755 L87.685,145.755 L113.369,79.287 L114.052,79.287 L114.052,76 L112.148,76 L85,145.755 Z M95.693,121.536 L130.996,121.536 L130.263,119.313 L96.474,119.313 L95.693,121.536 Z M139.15,145.755 L141.787,145.755 L114.638,76 L113.466,76 L113.466,79.287 L139.15,145.755 Z" stroke="none" />
        <path id="Baseline-S" d="M18,146 l800,0" />
        <path id="left-margin-Ultralight-S" d="M220,56 l0,110" />
        <path id="right-margin-Ultralight-S" d="M310,56 l0,110" />
        <path id="left-margin-Regular-S" d="M420,56 l0,110" />
        <path id="right-margin-Regular-S" d="M510,56 l0,110" />
        <path id="left-margin-Black-S" d="M620,56 l0,110" />
        <path id="right-margin-Black-S" d="M710,56 l0,110" />
        <path id="Capline-M" d="M18,276 l800,0" />
        <path id="Baseline-M" d="M18,346 l800,0" />
        <path id="Capline-L" d="M18,476 l800,0" />
        <path id="Baseline-L" d="M18,546 l800,0" />
    </g>
    <g id="Symbols">
        <g id="Ultralight-S">
            <path d="M230,78.692 L230,143.308 C230,144.795 231.205,146 232.692,146 L297.308,146 C298.795,146 300,144.795 300,143.308 C300,141.821 298.795,140.615 297.308,140.615 L232.692,140.615 L235.385,143.308 L235.385,78.692 C235.385,77.205 234.179,76 232.692,76 C231.205,76 230,77.205 230,78.692 Z" />
            <path d="M271.282,143.308 C271.282,121.995 254.005,104.718 232.692,104.718 C231.205,104.718 230,105.923 230,107.41 L230,143.308 C230,144.795 231.205,146 232.692,146 L268.59,146 C270.077,146 271.282,144.795 271.282,143.308 Z M265.897,143.308 L268.59,140.615 L232.692,140.615 L235.385,143.308 L235.385,107.41 L232.692,110.103 C251.031,110.103 265.897,124.969 265.897,143.308 Z" />
        </g>
        <g id="Regular-S">
            <path d="M430,78.692 L430,143.308 C430,144.795 431.205,146 432.692,146 L497.308,146 C498.795,146 500,144.795 500,143.308 C500,141.821 498.795,140.615 497.308,140.615 L432.692,140.615 L435.385,143.308 L435.385,78.692 C435.385,77.205 434.179,76 432.692,76 C431.205,76 430,77.205 430,78.692 Z" />
            <path d="M471.282,143.308 C471.282,121.995 454.005,104.718 432.692,104.718 C431.205,104.718 430,105.923 430,107.41 L430,143.308 C430,144.795 431.205,146 432.692,146 L468.59,146 C470.077,146 471.282,144.795 471.282,143.308 Z M465.897,143.308 L468.59,140.615 L432.692,140.615 L435.385,143.308 L435.385,107.41 L432.692,110.103 C451.031,110.103 465.897,124.969 465.897,143.308 Z" />
        </g>
        <g id="Black-S">
            <path d="M630,78.692 L630,143.308 C630,144.795 631.205,146 632.692,146 L697.308,146 C698.795,146 700,144.795 700,143.308 C700,141.821 698.795,140.615 697.308,140.615 L632.692,140.615 L635.385,143.308 L635.385,78.692 C635.385,77.205 634.179,76 632.692,76 C631.205,76 630,77.205 630,78.692 Z" />
            <path d="M671.282,143.308 C671.282,121.995 654.005,104.718 632.692,104.718 C631.205,104.718 630,105.923 630,107.41 L630,143.308 C630,144.795 631.205,146 632.692,146 L668.59,146 C670.077,146 671.282,144.795 671.282,143.308 Z M665.897,143.308 L668.59,140.615 L632.692,140.615 L635.385,143.308 L635.385,107.41 L632.692,110.103 C651.031,110.103 665.897,124.969 665.897,143.308 Z" />
        </g>
    </g>
</svg>