<?xml version="1.0" encoding="UTF-8"?>
<svg height="600" width="800" xmlns="http://www.w3.org/2000/svg" xmlns:xlink="http://www.w3.org/1999/xlink">
    <g id="Notes" font-family="'LucidaGrande', 'Lucida Grande', sans-serif" font-size="13">
        <rect fill="white" height="600.0" width="800.0" x="0.0" y="0.0" />
        <g font-size="13">
            <text x="18.0" y="176.0">Small</text>
            <text x="18.0" y="376.0">Medium</text>
            <text x="18.0" y="576.0">Large</text>
        </g>
        <g font-size="9">
            <text x="250.0" y="30.0">Ultralight</text>
            <text x="450.0" y="30.0">Regular</text>
            <text x="650.0" y="30.0">Black</text>
            <text id="template-version" fill="#505050" text-anchor="end" x="785.0" y="575.0">Template v.3.0</text>
            <a href="https://github.com/swhitty/SwiftDraw">
                <text fill="#505050" text-anchor="end" x="785.0" y="590.0">https://github.com/swhitty/SwiftDraw</text>
            </a>
        </g>
    </g>
    <g id="Guides" stroke="rgb(39, 170, 225)" stroke-width="0.5">
        <path id="Capline-S" d="M18,76 l800,0" />
        <path id="H-reference" d="M85,145.755 L87.685,145.755 L113.369,79.287 L114.052,79.287 L114.052,76 L112.148,76 L85,145.755 Z M95.693,121.536 L130.996,121.536 L130.263,119.313 L96.474,119.313 L95.693,121.536 Z M139.15,145.755 L141.787,145.755 L114.638,76 L113.466,76 L113.466,79.287 L139.15,145.755 Z" stroke="none" />
        <path id="Baseline-S" d="M18,146 l800,0" />
        <path id="left-margin-Ultralight-S" d="M214.324,56 l0,110" />
        <path id="right-margin-Ultralight-S" d="M315.676,56 l0,110" />
        <path id="left-margin-Regular-S" d="M414.324,56 l0,110" />
        <path id="right-margin-Regular-S" d="M515.676,56 l0,110" />
        <path id="left-margin-Black-S" d="M614.324,56 l0,110" />
        <path id="right-margin-Black-S" d="M715.676,56 l0,110" />
        <path id="Capline-M" d="M18,276 l800,0" />
        <path id="Baseline-M" d="M18,346 l800,0" />
        <path id="Capline-L" d="M18,476 l800,0" />
        <path id="Baseline-L" d="M18,546 l800,0" />
    </g>
    <g id="Symbols">
        <g id="Ultralight-S">
            <path d="M247.858,129.804 L236.507,141.156 L240.52,141.156 L229.169,129.804 C228.061,128.696 226.264,128.696 225.156,129.804 C224.047,130.912 224.047,132.709 225.156,133.817 L236.507,145.169 C237.615,146.277 239.412,146.277 240.52,145.169 L251.872,133.817 C252.98,132.709 252.98,130.912 251.872,129.804 C250.763,128.696 248.966,128.696 247.858,129.804 Z" />
            <path d="M251.872,88.183 L240.52,76.831 C239.412,75.723 237.615,75.723 236.507,76.831 L225.156,88.183 C224.047,89.291 224.047,91.088 225.156,92.196 C226.264,93.304 228.061,93.304 229.169,92.196 L240.52,80.844 L236.507,80.844 L247.858,92.196 C248.966,93.304 250.763,93.304 251.872,92.196 C252.98,91.088 252.98,89.291 251.872,88.183 Z" />
            <path d="M235.676,78.838 L235.676,143.162 C235.676,144.729 236.946,146 238.514,146 C240.081,146 241.351,144.729 241.351,143.162 L241.351,78.838 C241.351,77.271 240.081,76 238.514,76 C236.946,76 235.676,77.271 235.676,78.838 Z" />
            <path d="M302.838,79.784 L261.216,79.784 C259.649,79.784 258.378,81.054 258.378,82.622 C258.378,84.189 259.649,85.459 261.216,85.459 L302.838,85.459 C304.405,85.459 305.676,84.189 305.676,82.622 C305.676,81.054 304.405,79.784 302.838,79.784 Z" />
            <path d="M287.703,98.703 L261.216,98.703 C259.649,98.703 258.378,99.973 258.378,101.541 C258.378,103.108 259.649,104.378 261.216,104.378 L287.703,104.378 C289.27,104.378 290.541,103.108 290.541,101.541 C290.541,99.973 289.27,98.703 287.703,98.703 Z" />
            <path d="M302.838,117.622 L261.216,117.622 C259.649,117.622 258.378,118.892 258.378,120.459 C258.378,122.027 259.649,123.297 261.216,123.297 L302.838,123.297 C304.405,123.297 305.676,122.027 305.676,120.459 C305.676,118.892 304.405,117.622 302.838,117.622 Z" />
            <path d="M287.703,136.541 L261.216,136.541 C259.649,136.541 258.378,137.811 258.378,139.378 C258.378,140.946 259.649,142.216 261.216,142.216 L287.703,142.216 C289.27,142.216 290.541,140.946 290.541,139.378 C290.541,137.811 289.27,136.541 287.703,136.541 Z" />
        </g>
        <g id="Regular-S">
            <path d="M447.858,129.804 L436.507,141.156 L440.52,141.156 L429.169,129.804 C428.061,128.696 426.264,128.696 425.156,129.804 C424.047,130.912 424.047,132.709 425.156,133.817 L436.507,145.169 C437.615,146.277 439.412,146.277 440.52,145.169 L451.872,133.817 C452.98,132.709 452.98,130.912 451.872,129.804 C450.763,128.696 448.966,128.696 447.858,129.804 Z" />
            <path d="M451.872,88.183 L440.52,76.831 C439.412,75.723 437.615,75.723 436.507,76.831 L425.156,88.183 C424.047,89.291 424.047,91.088 425.156,92.196 C426.264,93.304 428.061,93.304 429.169,92.196 L440.52,80.844 L436.507,80.844 L447.858,92.196 C448.966,93.304 450.763,93.304 451.872,92.196 C452.98,91.088 452.98,89.291 451.872,88.183 Z" />
            <path d="M435.676,78.838 L435.676,143.162 C435.676,144.729 436.946,146 438.514,146 C440.081,146 441.351,144.729 441.351,143.162 L441.351,78.838 C441.351,77.271 440.081,76 438.514,76 C436.946,76 435.676,77.271 435.676,78.838 Z" />
            <path d="M502.838,79.784 L461.216,79.784 C459.649,79.784 458.378,81.054 458.378,82.622 C458.378,84.189 459.649,85.459 461.216,85.459 L502.838,85.459 C504.405,85.459 505.676,84.189 505.676,82.622 C505.676,81.054 504.405,79.784 502.838,79.784 Z" />
            <path d="M487.703,98.703 L461.216,98.703 C459.649,98.703 458.378,99.973 458.378,101.541 C458.378,103.108 459.649,104.378 461.216,104.378 L487.703,104.378 C489.27,104.378 490.541,103.108 490.541,101.541 C490.541,99.973 489.27,98.703 487.703,98.703 Z" />
            <path d="M502.838,117.622 L461.216,117.622 C459.649,117.622 458.378,118.892 458.378,120.459 C458.378,122.027 459.649,123.297 461.216,123.297 L502.838,123.297 C504.405,123.297 505.676,122.027 505.676,120.459 C505.676,118.892 504.405,117.622 502.838,117.622 Z" />
            <path d="M487.703,136.541 L461.216,136.541 C459.649,136.541 458.378,137.811 458.378,139.378 C458.378,140.946 459.649,142.216 461.216,142.216 L487.703,142.216 C489.27,142.216 490.541,140.946 490.541,139.378 C490.541,137.811 489.27,136.541 487.703,136.541 Z" />
        </g>
        <g id="Black-S">
            <path d="M647.858,129.804 L636.507,141.156 L640.52,141.156 L629.169,129.804 C628.061,128.696 626.264,128.696 625.156,129.804 C624.047,130.912 624.047,132.709 625.156,133.817 L636.507,145.169 C637.615,146.277 639.412,146.277 640.52,145.169 L651.872,133.817 C652.98,132.709 652.98,130.912 651.872,129.804 C650.763,128.696 648.966,128.696 647.858,129.804 Z" />
            <path d="M651.872,88.183 L640.52,76.831 C639.412,75.723 637.615,75.723 636.507,76.831 L625.156,88.183 C624.047,89.291 624.047,91.088 625.156,92.196 C626.264,93.304 628.061,93.304 629.169,92.196 L640.52,80.844 L636.507,80.844 L647.858,92.196 C648.966,93.304 650.763,93.304 651.872,92.196 C652.98,91.088 652.98,89.291 651.872,88.183 Z" />
            <path d="M635.676,78.838 L635.676,143.162 C635.676,144.729 636.946,146 638.514,146 C640.081,146 641.351,144.729 641.351,143.162 L641.351,78.838 C641.351,77.271 640.081,76 638.514,76 C636.946,76 635.676,77.271 635.676,78.838 Z" />
            <path d="M702.838,79.784 L661.216,79.784 C659.649,79.784 658.378,81.054 658.378,82.622 C658.378,84.189 659.649,85.459 661.216,85.459 L702.838,85.459 C704.405,85.459 705.676,84.189 705.676,82.622 C705.676,81.054 704.405,79.784 702.838,79.784 Z" />
            <path d="M687.703,98.703 L661.216,98.703 C659.649,98.703 658.378,99.973 658.378,101.541 C658.378,103.108 659.649,104.378 661.216,104.378 L687.703,104.378 C689.27,104.378 690.541,103.108 690.541,101.541 C690.541,99.973 689.27,98.703 687.703,98.703 Z" />
            <path d="M702.838,117.622 L661.216,117.622 C659.649,117.622 658.378,118.892 658.378,120.459 C658.378,122.027 659.649,123.297 661.216,123.297 L702.838,123.297 C704.405,123.297 705.676,122.027 705.676,120.459 C705.676,118.892 704.405,117.622 702.838,117.622 Z" />
            <path d="M687.703,136.541 L661.216,136.541 C659.649,136.541 658.378,137.811 658.378,139.378 C658.378,140.946 659.649,142.216 661.216,142.216 L687.703,142.216 C689.27,142.216 690.541,140.946 690.541,139.378 C690.541,137.811 689.27,136.541 687.703,136.541 Z" />
        </g>
    </g>
</svg>