<?xml version="1.0" encoding="UTF-8"?>
<svg height="600" width="800" xmlns="http://www.w3.org/2000/svg" xmlns:xlink="http://www.w3.org/1999/xlink">
    <g id="Notes" font-family="'LucidaGrande', 'Lucida Grande', sans-serif" font-size="13">
        <rect fill="white" height="600.0" width="800.0" x="0.0" y="0.0" />
        <g font-size="13">
            <text x="18.0" y="176.0">Small</text>
            <text x="18.0" y="376.0">Medium</text>
            <text x="18.0" y="576.0">Large</text>
        </g>
        <g font-size="9">
            <text x="250.0" y="30.0">Ultralight</text>
            <text x="450.0" y="30.0">Regular</text>
            <text x="650.0" y="30.0">Black</text>
            <text id="template-version" fill="#505050" text-anchor="end" x="785.0" y="575.0">Template v.3.0</text>
            <a href="https://github.com/swhitty/SwiftDraw">
                <text fill="#505050" text-anchor="end" x="785.0" y="590.0">https://github.com/swhitty/SwiftDraw</text>
            </a>
        </g>
    </g>
    <g id="Guides" stroke="rgb(39, 170, 225)" stroke-width="0.5">
        <path id="Capline-S" d="M18,76 l800,0" />
        <path id="H-reference" d="M85,145.755 L87.685,145.755 L113.369,79.287 L114.052,79.287 L114.052,76 L112.148,76 L85,145.755 Z M95.693,121.536 L130.996,121.536 L130.263,119.313 L96.474,119.313 L95.693,121.536 Z M139.15,145.755 L141.787,145.755 L114.638,76 L113.466,76 L113.466,79.287 L139.15,145.755 Z" stroke="none" />
        <path id="Baseline-S" d="M18,146 l800,0" />
        <path id="left-margin-Ultralight-S" d="M211,56 l0,110" />
        <path id="right-margin-Ultralight-S" d="M319,56 l0,110" />
        <path id="left-margin-Regular-S" d="M411,56 l0,110" />
        <path id="right-margin-Regular-S" d="M519,56 l0,110" />
        <path id="left-margin-Black-S" d="M611,56 l0,110" />
        <path id="right-margin-Black-S" d="M719,56 l0,110" />
        <path id="Capline-M" d="M18,276 l800,0" />
        <path id="Baseline-M" d="M18,346 l800,0" />
        <path id="Capline-L" d="M18,476 l800,0" />
        <path id="Baseline-L" d="M18,546 l800,0" />
    </g>
    <g id="Symbols">
        <g id="Ultralight-S">
            <path d="M265,85.419 C237.958,85.419 221,105.423 221,133.512 C221,135.207 222.374,136.581 224.07,136.581 L305.93,136.581 C307.626,136.581 309,135.207 309,133.512 C309,105.423 292.042,85.419 265,85.419 Z M265,91.558 C288.405,91.558 302.86,108.61 302.86,133.512 L305.93,130.442 L224.07,130.442 L227.14,133.512 C227.14,108.61 241.595,91.558 265,91.558 Z" />
            <path d="M233.279,125.326 L233.279,133.512 C233.279,135.207 234.653,136.581 236.349,136.581 C238.044,136.581 239.419,135.207 239.419,133.512 L239.419,125.326 C239.419,123.63 238.044,122.256 236.349,122.256 C234.653,122.256 233.279,123.63 233.279,125.326 Z" />
            <path d="M247.605,125.326 L247.605,133.512 C247.605,135.207 248.979,136.581 250.674,136.581 C252.37,136.581 253.744,135.207 253.744,133.512 L253.744,125.326 C253.744,123.63 252.37,122.256 250.674,122.256 C248.979,122.256 247.605,123.63 247.605,125.326 Z" />
            <path d="M261.93,125.326 L261.93,133.512 C261.93,135.207 263.305,136.581 265,136.581 C266.695,136.581 268.07,135.207 268.07,133.512 L268.07,125.326 C268.07,123.63 266.695,122.256 265,122.256 C263.305,122.256 261.93,123.63 261.93,125.326 Z" />
            <path d="M276.256,125.326 L276.256,133.512 C276.256,135.207 277.63,136.581 279.326,136.581 C281.021,136.581 282.395,135.207 282.395,133.512 L282.395,125.326 C282.395,123.63 281.021,122.256 279.326,122.256 C277.63,122.256 276.256,123.63 276.256,125.326 Z" />
            <path d="M290.581,125.326 L290.581,133.512 C290.581,135.207 291.956,136.581 293.651,136.581 C295.347,136.581 296.721,135.207 296.721,133.512 L296.721,125.326 C296.721,123.63 295.347,122.256 293.651,122.256 C291.956,122.256 290.581,123.63 290.581,125.326 Z" />
            <path d="M265,99.744 C252.782,99.744 241.465,105.704 241.465,115.093 C241.465,116.788 242.84,118.163 244.535,118.163 L285.465,118.163 C287.161,118.163 288.535,116.788 288.535,115.093 C288.535,105.704 277.218,99.744 265,99.744 Z M265,105.884 C274.275,105.884 282.395,110.16 282.395,115.093 L285.465,112.023 L244.535,112.023 L247.605,115.093 C247.605,110.16 255.726,105.884 265,105.884 Z" />
        </g>
        <g id="Regular-S">
            <path d="M465,85.419 C437.958,85.419 421,105.423 421,133.512 C421,135.207 422.374,136.581 424.07,136.581 L505.93,136.581 C507.626,136.581 509,135.207 509,133.512 C509,105.423 492.042,85.419 465,85.419 Z M465,91.558 C488.405,91.558 502.86,108.61 502.86,133.512 L505.93,130.442 L424.07,130.442 L427.14,133.512 C427.14,108.61 441.595,91.558 465,91.558 Z" />
            <path d="M433.279,125.326 L433.279,133.512 C433.279,135.207 434.653,136.581 436.349,136.581 C438.044,136.581 439.419,135.207 439.419,133.512 L439.419,125.326 C439.419,123.63 438.044,122.256 436.349,122.256 C434.653,122.256 433.279,123.63 433.279,125.326 Z" />
            <path d="M447.605,125.326 L447.605,133.512 C447.605,135.207 448.979,136.581 450.674,136.581 C452.37,136.581 453.744,135.207 453.744,133.512 L453.744,125.326 C453.744,123.63 452.37,122.256 450.674,122.256 C448.979,122.256 447.605,123.63 447.605,125.326 Z" />
            <path d="M461.93,125.326 L461.93,133.512 C461.93,135.207 463.305,136.581 465,136.581 C466.695,136.581 468.07,135.207 468.07,133.512 L468.07,125.326 C468.07,123.63 466.695,122.256 465,122.256 C463.305,122.256 461.93,123.63 461.93,125.326 Z" />
            <path d="M476.256,125.326 L476.256,133.512 C476.256,135.207 477.63,136.581 479.326,136.581 C481.021,136.581 482.395,135.207 482.395,133.512 L482.395,125.326 C482.395,123.63 481.021,122.256 479.326,122.256 C477.63,122.256 476.256,123.63 476.256,125.326 Z" />
            <path d="M490.581,125.326 L490.581,133.512 C490.581,135.207 491.956,136.581 493.651,136.581 C495.347,136.581 496.721,135.207 496.721,133.512 L496.721,125.326 C496.721,123.63 495.347,122.256 493.651,122.256 C491.956,122.256 490.581,123.63 490.581,125.326 Z" />
            <path d="M465,99.744 C452.782,99.744 441.465,105.704 441.465,115.093 C441.465,116.788 442.84,118.163 444.535,118.163 L485.465,118.163 C487.161,118.163 488.535,116.788 488.535,115.093 C488.535,105.704 477.218,99.744 465,99.744 Z M465,105.884 C474.275,105.884 482.395,110.16 482.395,115.093 L485.465,112.023 L444.535,112.023 L447.605,115.093 C447.605,110.16 455.726,105.884 465,105.884 Z" />
        </g>
        <g id="Black-S">
            <path d="M665,85.419 C637.958,85.419 621,105.423 621,133.512 C621,135.207 622.374,136.581 624.07,136.581 L705.93,136.581 C707.626,136.581 709,135.207 709,133.512 C709,105.423 692.042,85.419 665,85.419 Z M665,91.558 C688.405,91.558 702.86,108.61 702.86,133.512 L705.93,130.442 L624.07,130.442 L627.14,133.512 C627.14,108.61 641.595,91.558 665,91.558 Z" />
            <path d="M633.279,125.326 L633.279,133.512 C633.279,135.207 634.653,136.581 636.349,136.581 C638.044,136.581 639.419,135.207 639.419,133.512 L639.419,125.326 C639.419,123.63 638.044,122.256 636.349,122.256 C634.653,122.256 633.279,123.63 633.279,125.326 Z" />
            <path d="M647.605,125.326 L647.605,133.512 C647.605,135.207 648.979,136.581 650.674,136.581 C652.37,136.581 653.744,135.207 653.744,133.512 L653.744,125.326 C653.744,123.63 652.37,122.256 650.674,122.256 C648.979,122.256 647.605,123.63 647.605,125.326 Z" />
            <path d="M661.93,125.326 L661.93,133.512 C661.93,135.207 663.305,136.581 665,136.581 C666.695,136.581 668.07,135.207 668.07,133.512 L668.07,125.326 C668.07,123.63 666.695,122.256 665,122.256 C663.305,122.256 661.93,123.63 661.93,125.326 Z" />
            <path d="M676.256,125.326 L676.256,133.512 C676.256,135.207 677.63,136.581 679.326,136.581 C681.021,136.581 682.395,135.207 682.395,133.512 L682.395,125.326 C682.395,123.63 681.021,122.256 679.326,122.256 C677.63,122.256 676.256,123.63 676.256,125.326 Z" />
            <path d="M690.581,125.326 L690.581,133.512 C690.581,135.207 691.956,136.581 693.651,136.581 C695.347,136.581 696.721,135.207 696.721,133.512 L696.721,125.326 C696.721,123.63 695.347,122.256 693.651,122.256 C691.956,122.256 690.581,123.63 690.581,125.326 Z" />
            <path d="M665,99.744 C652.782,99.744 641.465,105.704 641.465,115.093 C641.465,116.788 642.839,118.163 644.535,118.163 L685.465,118.163 C687.161,118.163 688.535,116.788 688.535,115.093 C688.535,105.704 677.218,99.744 665,99.744 Z M665,105.884 C674.275,105.884 682.395,110.16 682.395,115.093 L685.465,112.023 L644.535,112.023 L647.605,115.093 C647.605,110.16 655.726,105.884 665,105.884 Z" />
        </g>
    </g>
</svg>