<?xml version="1.0" encoding="UTF-8"?>
<svg height="600" width="800" xmlns="http://www.w3.org/2000/svg" xmlns:xlink="http://www.w3.org/1999/xlink">
    <g id="Notes" font-family="'LucidaGrande', 'Lucida Grande', sans-serif" font-size="13">
        <rect fill="white" height="600.0" width="800.0" x="0.0" y="0.0" />
        <g font-size="13">
            <text x="18.0" y="176.0">Small</text>
            <text x="18.0" y="376.0">Medium</text>
            <text x="18.0" y="576.0">Large</text>
        </g>
        <g font-size="9">
            <text x="250.0" y="30.0">Ultralight</text>
            <text x="450.0" y="30.0">Regular</text>
            <text x="650.0" y="30.0">Black</text>
            <text id="template-version" fill="#505050" text-anchor="end" x="785.0" y="575.0">Template v.3.0</text>
            <a href="https://github.com/swhitty/SwiftDraw">
                <text fill="#505050" text-anchor="end" x="785.0" y="590.0">https://github.com/swhitty/SwiftDraw</text>
            </a>
        </g>
    </g>
    <g id="Guides" stroke="rgb(39, 170, 225)" stroke-width="0.5">
        <path id="Capline-S" d="M18,76 l800,0" />
        <path id="H-reference" d="M85,145.755 L87.685,145.755 L113.369,79.287 L114.052,79.287 L114.052,76 L112.148,76 L85,145.755 Z M95.693,121.536 L130.996,121.536 L130.263,119.313 L96.474,119.313 L95.693,121.536 Z M139.15,145.755 L141.787,145.755 L114.638,76 L113.466,76 L113.466,79.287 L139.15,145.755 Z" stroke="none" />
        <path id="Baseline-S" d="M18,146 l800,0" />
        <path id="left-margin-Ultralight-S" d="M220,56 l0,110" />
        <path id="right-margin-Ultralight-S" d="M310,56 l0,110" />
        <path id="left-margin-Regular-S" d="M420,56 l0,110" />
        <path id="right-margin-Regular-S" d="M510,56 l0,110" />
        <path id="left-margin-Black-S" d="M620,56 l0,110" />
        <path id="right-margin-Black-S" d="M710,56 l0,110" />
        <path id="Capline-M" d="M18,276 l800,0" />
        <path id="Baseline-M" d="M18,346 l800,0" />
        <path id="Capline-L" d="M18,476 l800,0" />
        <path id="Baseline-L" d="M18,546 l800,0" />
    </g>
    <g id="Symbols">
        <g id="Ultralight-S">
            <path d="M233.684,113.763 L296.316,113.763 C297.842,113.763 299.079,112.526 299.079,111 C299.079,109.474 297.842,108.237 296.316,108.237 L233.684,108.237 C232.158,108.237 230.921,109.474 230.921,111 C230.921,112.526 232.158,113.763 233.684,113.763 Z" />
            <path d="M262.237,79.684 L262.237,142.316 C262.237,143.842 263.474,145.079 265,145.079 C266.526,145.079 267.763,143.842 267.763,142.316 L267.763,79.684 C267.763,78.158 266.526,76.921 265,76.921 C263.474,76.921 262.237,78.158 262.237,79.684 Z" />
            <path d="M237.368,76 L237.368,83.368 L230,83.368 L230,76 Z" />
            <path d="M253.947,76 L253.947,83.368 L246.579,83.368 L246.579,76 Z" />
            <path d="M283.421,76 L283.421,83.368 L276.053,83.368 L276.053,76 Z" />
            <path d="M300,76 L300,83.368 L292.632,83.368 L292.632,76 Z" />
            <path d="M300,92.579 L300,99.947 L292.632,99.947 L292.632,92.579 Z" />
            <path d="M237.368,92.579 L237.368,99.947 L230,99.947 L230,92.579 Z" />
            <path d="M237.368,138.632 L237.368,146 L230,146 L230,138.632 Z" />
            <path d="M253.947,138.632 L253.947,146 L246.579,146 L246.579,138.632 Z" />
            <path d="M283.421,138.632 L283.421,146 L276.053,146 L276.053,138.632 Z" />
            <path d="M300,138.632 L300,146 L292.632,146 L292.632,138.632 Z" />
            <path d="M300,122.053 L300,129.421 L292.632,129.421 L292.632,122.053 Z" />
            <path d="M237.368,122.053 L237.368,129.421 L230,129.421 L230,122.053 Z" />
        </g>
        <g id="Regular-S">
            <path d="M433.684,113.763 L496.316,113.763 C497.842,113.763 499.079,112.526 499.079,111 C499.079,109.474 497.842,108.237 496.316,108.237 L433.684,108.237 C432.158,108.237 430.921,109.474 430.921,111 C430.921,112.526 432.158,113.763 433.684,113.763 Z" />
            <path d="M462.237,79.684 L462.237,142.316 C462.237,143.842 463.474,145.079 465,145.079 C466.526,145.079 467.763,143.842 467.763,142.316 L467.763,79.684 C467.763,78.158 466.526,76.921 465,76.921 C463.474,76.921 462.237,78.158 462.237,79.684 Z" />
            <path d="M437.368,76 L437.368,83.368 L430,83.368 L430,76 Z" />
            <path d="M453.947,76 L453.947,83.368 L446.579,83.368 L446.579,76 Z" />
            <path d="M483.421,76 L483.421,83.368 L476.053,83.368 L476.053,76 Z" />
            <path d="M500,76 L500,83.368 L492.632,83.368 L492.632,76 Z" />
            <path d="M500,92.579 L500,99.947 L492.632,99.947 L492.632,92.579 Z" />
            <path d="M437.368,92.579 L437.368,99.947 L430,99.947 L430,92.579 Z" />
            <path d="M437.368,138.632 L437.368,146 L430,146 L430,138.632 Z" />
            <path d="M453.947,138.632 L453.947,146 L446.579,146 L446.579,138.632 Z" />
            <path d="M483.421,138.632 L483.421,146 L476.053,146 L476.053,138.632 Z" />
            <path d="M500,138.632 L500,146 L492.632,146 L492.632,138.632 Z" />
            <path d="M500,122.053 L500,129.421 L492.632,129.421 L492.632,122.053 Z" />
            <path d="M437.368,122.053 L437.368,129.421 L430,129.421 L430,122.053 Z" />
        </g>
        <g id="Black-S">
            <path d="M633.684,113.763 L696.316,113.763 C697.842,113.763 699.079,112.526 699.079,111 C699.079,109.474 697.842,108.237 696.316,108.237 L633.684,108.237 C632.158,108.237 630.921,109.474 630.921,111 C630.921,112.526 632.158,113.763 633.684,113.763 Z" />
            <path d="M662.237,79.684 L662.237,142.316 C662.237,143.842 663.474,145.079 665,145.079 C666.526,145.079 667.763,143.842 667.763,142.316 L667.763,79.684 C667.763,78.158 666.526,76.921 665,76.921 C663.474,76.921 662.237,78.158 662.237,79.684 Z" />
            <path d="M637.368,76 L637.368,83.368 L630,83.368 L630,76 Z" />
            <path d="M653.947,76 L653.947,83.368 L646.579,83.368 L646.579,76 Z" />
            <path d="M683.421,76 L683.421,83.368 L676.053,83.368 L676.053,76 Z" />
            <path d="M700,76 L700,83.368 L692.632,83.368 L692.632,76 Z" />
            <path d="M700,92.579 L700,99.947 L692.632,99.947 L692.632,92.579 Z" />
            <path d="M637.368,92.579 L637.368,99.947 L630,99.947 L630,92.579 Z" />
            <path d="M637.368,138.632 L637.368,146 L630,146 L630,138.632 Z" />
            <path d="M653.947,138.632 L653.947,146 L646.579,146 L646.579,138.632 Z" />
            <path d="M683.421,138.632 L683.421,146 L676.053,146 L676.053,138.632 Z" />
            <path d="M700,138.632 L700,146 L692.632,146 L692.632,138.632 Z" />
            <path d="M700,122.053 L700,129.421 L692.632,129.421 L692.632,122.053 Z" />
            <path d="M637.368,122.053 L637.368,129.421 L630,129.421 L630,122.053 Z" />
        </g>
    </g>
</svg>