<?xml version="1.0" encoding="UTF-8"?>
<svg height="600" width="800" xmlns="http://www.w3.org/2000/svg" xmlns:xlink="http://www.w3.org/1999/xlink">
    <g id="Notes" font-family="'LucidaGrande', 'Lucida Grande', sans-serif" font-size="13">
        <rect fill="white" height="600.0" width="800.0" x="0.0" y="0.0" />
        <g font-size="13">
            <text x="18.0" y="176.0">Small</text>
            <text x="18.0" y="376.0">Medium</text>
            <text x="18.0" y="576.0">Large</text>
        </g>
        <g font-size="9">
            <text x="250.0" y="30.0">Ultralight</text>
            <text x="450.0" y="30.0">Regular</text>
            <text x="650.0" y="30.0">Black</text>
            <text id="template-version" fill="#505050" text-anchor="end" x="785.0" y="575.0">Template v.3.0</text>
            <a href="https://github.com/swhitty/SwiftDraw">
                <text fill="#505050" text-anchor="end" x="785.0" y="590.0">https://github.com/swhitty/SwiftDraw</text>
            </a>
        </g>
    </g>
    <g id="Guides" stroke="rgb(39, 170, 225)" stroke-width="0.5">
        <path id="Capline-S" d="M18,76 l800,0" />
        <path id="H-reference" d="M85,145.755 L87.685,145.755 L113.369,79.287 L114.052,79.287 L114.052,76 L112.148,76 L85,145.755 Z M95.693,121.536 L130.996,121.536 L130.263,119.313 L96.474,119.313 L95.693,121.536 Z M139.15,145.755 L141.787,145.755 L114.638,76 L113.466,76 L113.466,79.287 L139.15,145.755 Z" stroke="none" />
        <path id="Baseline-S" d="M18,146 l800,0" />
        <path id="left-margin-Ultralight-S" d="M221,56 l0,110" />
        <path id="right-margin-Ultralight-S" d="M309,56 l0,110" />
        <path id="left-margin-Regular-S" d="M421,56 l0,110" />
        <path id="right-margin-Regular-S" d="M509,56 l0,110" />
        <path id="left-margin-Black-S" d="M621,56 l0,110" />
        <path id="right-margin-Black-S" d="M709,56 l0,110" />
        <path id="Capline-M" d="M18,276 l800,0" />
        <path id="Baseline-M" d="M18,346 l800,0" />
        <path id="Capline-L" d="M18,476 l800,0" />
        <path id="Baseline-L" d="M18,546 l800,0" />
    </g>
    <g id="Symbols">
        <g id="Ultralight-S">
            <path d="M236.512,132.163 C236.512,131.713 236.876,131.349 237.326,131.349 L292.674,131.349 C293.124,131.349 293.488,131.713 293.488,132.163 L293.488,140.302 C293.488,140.752 293.124,141.116 292.674,141.116 L237.326,141.116 C236.876,141.116 236.512,140.752 236.512,140.302 L236.512,132.163 Z M231.628,132.163 L231.628,140.302 C231.628,143.449 234.179,146 237.326,146 L292.674,146 C295.821,146 298.372,143.449 298.372,140.302 L298.372,132.163 C298.372,129.016 295.821,126.465 292.674,126.465 L237.326,126.465 C234.179,126.465 231.628,129.016 231.628,132.163 Z" />
            <path d="M236.512,122.395 C236.512,121.946 236.876,121.581 237.326,121.581 L292.674,121.581 C293.124,121.581 293.488,121.946 293.488,122.395 L293.488,140.302 C293.488,140.752 293.124,141.116 292.674,141.116 L237.326,141.116 C236.876,141.116 236.512,140.752 236.512,140.302 L236.512,122.395 Z M231.628,122.395 L231.628,140.302 C231.628,143.449 234.179,146 237.326,146 L292.674,146 C295.821,146 298.372,143.449 298.372,140.302 L298.372,122.395 C298.372,119.249 295.821,116.698 292.674,116.698 L237.326,116.698 C234.179,116.698 231.628,119.249 231.628,122.395 Z" />
            <path d="M258.774,98.25 C258.659,98.574 258.352,98.791 258.008,98.791 L271.992,98.791 C271.648,98.791 271.341,98.574 271.226,98.25 L278.979,119.961 L281.279,116.698 L248.721,116.698 L251.021,119.961 L258.774,98.251 Z M254.175,96.608 L246.421,118.318 C245.853,119.908 247.032,121.581 248.721,121.581 L281.279,121.581 C282.968,121.581 284.147,119.908 283.579,118.318 L275.825,96.608 C275.247,94.988 273.712,93.907 271.992,93.907 L258.008,93.907 C256.288,93.907 254.753,94.988 254.175,96.608 Z" />
            <path d="M277.209,87.233 C277.209,88.916 276.54,90.531 275.35,91.722 C274.159,92.913 272.544,93.581 270.86,93.581 L259.14,93.581 C257.456,93.581 255.841,92.913 254.65,91.722 C253.46,90.531 252.791,88.916 252.791,87.233 C252.791,83.726 255.633,80.884 259.14,80.884 L270.86,80.884 C274.367,80.884 277.209,83.726 277.209,87.233 Z M282.093,87.233 C282.093,81.029 277.064,76 270.86,76 L259.14,76 C252.936,76 247.907,81.029 247.907,87.233 C247.907,90.212 249.09,93.069 251.197,95.175 C253.303,97.282 256.16,98.465 259.14,98.465 L270.86,98.465 C273.84,98.465 276.697,97.282 278.803,95.175 C280.91,93.069 282.093,90.212 282.093,87.233 Z" />
        </g>
        <g id="Regular-S">
            <path d="M436.512,132.163 C436.512,131.713 436.876,131.349 437.326,131.349 L492.674,131.349 C493.124,131.349 493.488,131.713 493.488,132.163 L493.488,140.302 C493.488,140.752 493.124,141.116 492.674,141.116 L437.326,141.116 C436.876,141.116 436.512,140.752 436.512,140.302 L436.512,132.163 Z M431.628,132.163 L431.628,140.302 C431.628,143.449 434.179,146 437.326,146 L492.674,146 C495.821,146 498.372,143.449 498.372,140.302 L498.372,132.163 C498.372,129.016 495.821,126.465 492.674,126.465 L437.326,126.465 C434.179,126.465 431.628,129.016 431.628,132.163 Z" />
            <path d="M436.512,122.395 C436.512,121.946 436.876,121.581 437.326,121.581 L492.674,121.581 C493.124,121.581 493.488,121.946 493.488,122.395 L493.488,140.302 C493.488,140.752 493.124,141.116 492.674,141.116 L437.326,141.116 C436.876,141.116 436.512,140.752 436.512,140.302 L436.512,122.395 Z M431.628,122.395 L431.628,140.302 C431.628,143.449 434.179,146 437.326,146 L492.674,146 C495.821,146 498.372,143.449 498.372,140.302 L498.372,122.395 C498.372,119.249 495.821,116.698 492.674,116.698 L437.326,116.698 C434.179,116.698 431.628,119.249 431.628,122.395 Z" />
            <path d="M458.774,98.25 C458.659,98.574 458.352,98.791 458.008,98.791 L471.992,98.791 C471.648,98.791 471.341,98.574 471.226,98.25 L478.979,119.961 L481.279,116.698 L448.721,116.698 L451.021,119.961 L458.774,98.251 Z M454.175,96.608 L446.421,118.318 C445.853,119.908 447.032,121.581 448.721,121.581 L481.279,121.581 C482.968,121.581 484.147,119.908 483.579,118.318 L475.825,96.608 C475.247,94.988 473.712,93.907 471.992,93.907 L458.008,93.907 C456.288,93.907 454.753,94.988 454.175,96.608 Z" />
            <path d="M477.209,87.233 C477.209,88.916 476.54,90.531 475.35,91.722 C474.159,92.913 472.544,93.581 470.86,93.581 L459.14,93.581 C457.456,93.581 455.841,92.913 454.65,91.722 C453.46,90.531 452.791,88.916 452.791,87.233 C452.791,83.726 455.633,80.884 459.14,80.884 L470.86,80.884 C474.367,80.884 477.209,83.726 477.209,87.233 Z M482.093,87.233 C482.093,81.029 477.064,76 470.86,76 L459.14,76 C452.936,76 447.907,81.029 447.907,87.233 C447.907,90.212 449.09,93.069 451.197,95.175 C453.303,97.282 456.16,98.465 459.14,98.465 L470.86,98.465 C473.84,98.465 476.697,97.282 478.803,95.175 C480.91,93.069 482.093,90.212 482.093,87.233 Z" />
        </g>
        <g id="Black-S">
            <path d="M636.512,132.163 C636.512,131.713 636.876,131.349 637.326,131.349 L692.674,131.349 C693.124,131.349 693.488,131.713 693.488,132.163 L693.488,140.302 C693.488,140.752 693.124,141.116 692.674,141.116 L637.326,141.116 C636.876,141.116 636.512,140.752 636.512,140.302 L636.512,132.163 Z M631.628,132.163 L631.628,140.302 C631.628,143.449 634.179,146 637.326,146 L692.674,146 C695.821,146 698.372,143.449 698.372,140.302 L698.372,132.163 C698.372,129.016 695.821,126.465 692.674,126.465 L637.326,126.465 C634.179,126.465 631.628,129.016 631.628,132.163 Z" />
            <path d="M636.512,122.395 C636.512,121.946 636.876,121.581 637.326,121.581 L692.674,121.581 C693.124,121.581 693.488,121.946 693.488,122.395 L693.488,140.302 C693.488,140.752 693.124,141.116 692.674,141.116 L637.326,141.116 C636.876,141.116 636.512,140.752 636.512,140.302 L636.512,122.395 Z M631.628,122.395 L631.628,140.302 C631.628,143.449 634.179,146 637.326,146 L692.674,146 C695.821,146 698.372,143.449 698.372,140.302 L698.372,122.395 C698.372,119.249 695.821,116.698 692.674,116.698 L637.326,116.698 C634.179,116.698 631.628,119.249 631.628,122.395 Z" />
            <path d="M658.774,98.25 C658.659,98.574 658.352,98.791 658.008,98.791 L671.992,98.791 C671.648,98.791 671.341,98.574 671.226,98.25 L678.979,119.961 L681.279,116.698 L648.721,116.698 L651.021,119.961 L658.774,98.251 Z M654.175,96.608 L646.421,118.318 C645.853,119.908 647.032,121.581 648.721,121.581 L681.279,121.581 C682.968,121.581 684.147,119.908 683.579,118.318 L675.825,96.608 C675.247,94.988 673.712,93.907 671.992,93.907 L658.008,93.907 C656.288,93.907 654.753,94.988 654.175,96.608 Z" />
            <path d="M677.209,87.233 C677.209,88.916 676.54,90.531 675.35,91.722 C674.159,92.913 672.544,93.581 670.86,93.581 L659.14,93.581 C657.456,93.581 655.841,92.913 654.65,91.722 C653.46,90.531 652.791,88.916 652.791,87.233 C652.791,83.726 655.633,80.884 659.14,80.884 L670.86,80.884 C674.367,80.884 677.209,83.726 677.209,87.233 Z M682.093,87.233 C682.093,81.029 677.064,76 670.86,76 L659.14,76 C652.936,76 647.907,81.029 647.907,87.233 C647.907,90.212 649.09,93.069 651.197,95.175 C653.303,97.282 656.16,98.465 659.14,98.465 L670.86,98.465 C673.84,98.465 676.697,97.282 678.803,95.175 C680.91,93.069 682.093,90.212 682.093,87.233 Z" />
        </g>
    </g>
</svg>