<?xml version="1.0" encoding="UTF-8"?>
<svg height="600" width="800" xmlns="http://www.w3.org/2000/svg" xmlns:xlink="http://www.w3.org/1999/xlink">
    <g id="Notes" font-family="'LucidaGrande', 'Lucida Grande', sans-serif" font-size="13">
        <rect fill="white" height="600.0" width="800.0" x="0.0" y="0.0" />
        <g font-size="13">
            <text x="18.0" y="176.0">Small</text>
            <text x="18.0" y="376.0">Medium</text>
            <text x="18.0" y="576.0">Large</text>
        </g>
        <g font-size="9">
            <text x="250.0" y="30.0">Ultralight</text>
            <text x="450.0" y="30.0">Regular</text>
            <text x="650.0" y="30.0">Black</text>
            <text id="template-version" fill="#505050" text-anchor="end" x="785.0" y="575.0">Template v.3.0</text>
            <a href="https://github.com/swhitty/SwiftDraw">
                <text fill="#505050" text-anchor="end" x="785.0" y="590.0">https://github.com/swhitty/SwiftDraw</text>
            </a>
        </g>
    </g>
    <g id="Guides" stroke="rgb(39, 170, 225)" stroke-width="0.5">
        <path id="Capline-S" d="M18,76 l800,0" />
        <path id="H-reference" d="M85,145.755 L87.685,145.755 L113.369,79.287 L114.052,79.287 L114.052,76 L112.148,76 L85,145.755 Z M95.693,121.536 L130.996,121.536 L130.263,119.313 L96.474,119.313 L95.693,121.536 Z M139.15,145.755 L141.787,145.755 L114.638,76 L113.466,76 L113.466,79.287 L139.15,145.755 Z" stroke="none" />
        <path id="Baseline-S" d="M18,146 l800,0" />
        <path id="left-margin-Ultralight-S" d="M220,56 l0,110" />
        <path id="right-margin-Ultralight-S" d="M310,56 l0,110" />
        <path id="left-margin-Regular-S" d="M420,56 l0,110" />
        <path id="right-margin-Regular-S" d="M510,56 l0,110" />
        <path id="left-margin-Black-S" d="M620,56 l0,110" />
        <path id="right-margin-Black-S" d="M710,56 l0,110" />
        <path id="Capline-M" d="M18,276 l800,0" />
        <path id="Baseline-M" d="M18,346 l800,0" />
        <path id="Capline-L" d="M18,476 l800,0" />
        <path id="Baseline-L" d="M18,546 l800,0" />
    </g>
    <g id="Symbols">
        <g id="Ultralight-S">
            <path d="M294.615,93.051 L294.615,78.692 L297.308,81.385 L232.692,81.385 L235.385,78.692 L235.385,93.051 L232.692,90.359 L297.308,90.359 L294.615,93.051 Z M300,93.051 C300,94.538 298.795,95.744 297.308,95.744 L232.692,95.744 C231.205,95.744 230,94.538 230,93.051 L230,78.692 C230,77.205 231.205,76 232.692,76 L297.308,76 C298.795,76 300,77.205 300,78.692 L300,93.051 Z" />
            <path d="M294.615,118.179 L294.615,103.821 L297.308,106.513 L232.692,106.513 L235.385,103.821 L235.385,118.179 L232.692,115.487 L297.308,115.487 L294.615,118.179 Z M300,118.179 C300,119.666 298.795,120.872 297.308,120.872 L232.692,120.872 C231.205,120.872 230,119.666 230,118.179 L230,103.821 C230,102.334 231.205,101.128 232.692,101.128 L297.308,101.128 C298.795,101.128 300,102.334 300,103.821 L300,118.179 Z" />
            <path d="M273.865,130.635 L263.096,141.404 L266.904,141.404 L256.135,130.635 C255.083,129.583 253.378,129.583 252.327,130.635 C251.276,131.686 251.276,133.391 252.327,134.442 L263.096,145.211 C264.148,146.263 265.852,146.263 266.904,145.211 L277.673,134.442 C278.724,133.391 278.724,131.686 277.673,130.635 C276.622,129.583 274.917,129.583 273.865,130.635 Z" />
            <path d="M267.692,143.308 L267.692,118.179 C267.692,116.693 266.487,115.487 265,115.487 C263.513,115.487 262.308,116.693 262.308,118.179 L262.308,143.308 C262.308,144.795 263.513,146 265,146 C266.487,146 267.692,144.795 267.692,143.308 Z" />
            <path d="M262.308,93.051 L262.308,103.821 C262.308,105.307 263.513,106.513 265,106.513 C266.487,106.513 267.692,105.307 267.692,103.821 L267.692,93.051 C267.692,91.564 266.487,90.359 265,90.359 C263.513,90.359 262.308,91.564 262.308,93.051 Z" />
        </g>
        <g id="Regular-S">
            <path d="M494.615,93.051 L494.615,78.692 L497.308,81.385 L432.692,81.385 L435.385,78.692 L435.385,93.051 L432.692,90.359 L497.308,90.359 L494.615,93.051 Z M500,93.051 C500,94.538 498.795,95.744 497.308,95.744 L432.692,95.744 C431.205,95.744 430,94.538 430,93.051 L430,78.692 C430,77.205 431.205,76 432.692,76 L497.308,76 C498.795,76 500,77.205 500,78.692 L500,93.051 Z" />
            <path d="M494.615,118.179 L494.615,103.821 L497.308,106.513 L432.692,106.513 L435.385,103.821 L435.385,118.179 L432.692,115.487 L497.308,115.487 L494.615,118.179 Z M500,118.179 C500,119.666 498.795,120.872 497.308,120.872 L432.692,120.872 C431.205,120.872 430,119.666 430,118.179 L430,103.821 C430,102.334 431.205,101.128 432.692,101.128 L497.308,101.128 C498.795,101.128 500,102.334 500,103.821 L500,118.179 Z" />
            <path d="M473.865,130.635 L463.096,141.404 L466.904,141.404 L456.135,130.635 C455.083,129.583 453.378,129.583 452.327,130.635 C451.276,131.686 451.276,133.391 452.327,134.442 L463.096,145.211 C464.148,146.263 465.852,146.263 466.904,145.211 L477.673,134.442 C478.724,133.391 478.724,131.686 477.673,130.635 C476.622,129.583 474.917,129.583 473.865,130.635 Z" />
            <path d="M467.692,143.308 L467.692,118.179 C467.692,116.693 466.487,115.487 465,115.487 C463.513,115.487 462.308,116.693 462.308,118.179 L462.308,143.308 C462.308,144.795 463.513,146 465,146 C466.487,146 467.692,144.795 467.692,143.308 Z" />
            <path d="M462.308,93.051 L462.308,103.821 C462.308,105.307 463.513,106.513 465,106.513 C466.487,106.513 467.692,105.307 467.692,103.821 L467.692,93.051 C467.692,91.564 466.487,90.359 465,90.359 C463.513,90.359 462.308,91.564 462.308,93.051 Z" />
        </g>
        <g id="Black-S">
            <path d="M694.615,93.051 L694.615,78.692 L697.308,81.385 L632.692,81.385 L635.385,78.692 L635.385,93.051 L632.692,90.359 L697.308,90.359 L694.615,93.051 Z M700,93.051 C700,94.538 698.795,95.744 697.308,95.744 L632.692,95.744 C631.205,95.744 630,94.538 630,93.051 L630,78.692 C630,77.205 631.205,76 632.692,76 L697.308,76 C698.795,76 700,77.205 700,78.692 L700,93.051 Z" />
            <path d="M694.615,118.179 L694.615,103.821 L697.308,106.513 L632.692,106.513 L635.385,103.821 L635.385,118.179 L632.692,115.487 L697.308,115.487 L694.615,118.179 Z M700,118.179 C700,119.666 698.795,120.872 697.308,120.872 L632.692,120.872 C631.205,120.872 630,119.666 630,118.179 L630,103.821 C630,102.334 631.205,101.128 632.692,101.128 L697.308,101.128 C698.795,101.128 700,102.334 700,103.821 L700,118.179 Z" />
            <path d="M673.865,130.635 L663.096,141.404 L666.904,141.404 L656.135,130.635 C655.083,129.583 653.378,129.583 652.327,130.635 C651.276,131.686 651.276,133.391 652.327,134.442 L663.096,145.211 C664.148,146.263 665.852,146.263 666.904,145.211 L677.673,134.442 C678.724,133.391 678.724,131.686 677.673,130.635 C676.622,129.583 674.917,129.583 673.865,130.635 Z" />
            <path d="M667.692,143.308 L667.692,118.179 C667.692,116.693 666.487,115.487 665,115.487 C663.513,115.487 662.308,116.693 662.308,118.179 L662.308,143.308 C662.308,144.795 663.513,146 665,146 C666.487,146 667.692,144.795 667.692,143.308 Z" />
            <path d="M662.308,93.051 L662.308,103.821 C662.308,105.307 663.513,106.513 665,106.513 C666.487,106.513 667.692,105.307 667.692,103.821 L667.692,93.051 C667.692,91.564 666.487,90.359 665,90.359 C663.513,90.359 662.308,91.564 662.308,93.051 Z" />
        </g>
    </g>
</svg>