<?xml version="1.0" encoding="UTF-8"?>
<svg height="600" width="800" xmlns="http://www.w3.org/2000/svg" xmlns:xlink="http://www.w3.org/1999/xlink">
    <g id="Notes" font-family="'LucidaGrande', 'Lucida Grande', sans-serif" font-size="13">
        <rect fill="white" height="600.0" width="800.0" x="0.0" y="0.0" />
        <g font-size="13">
            <text x="18.0" y="176.0">Small</text>
            <text x="18.0" y="376.0">Medium</text>
            <text x="18.0" y="576.0">Large</text>
        </g>
        <g font-size="9">
            <text x="250.0" y="30.0">Ultralight</text>
            <text x="450.0" y="30.0">Regular</text>
            <text x="650.0" y="30.0">Black</text>
            <text id="template-version" fill="#505050" text-anchor="end" x="785.0" y="575.0">Template v.3.0</text>
            <a href="https://github.com/swhitty/SwiftDraw">
                <text fill="#505050" text-anchor="end" x="785.0" y="590.0">https://github.com/swhitty/SwiftDraw</text>
            </a>
        </g>
    </g>
    <g id="Guides" stroke="rgb(39, 170, 225)" stroke-width="0.5">
        <path id="Capline-S" d="M18,76 l800,0" />
        <path id="H-reference" d="M85,145.755 L87.685,145.755 L113.369,79.287 L114.052,79.287 L114.052,76 L112.148,76 L85,145.755 Z M95.693,121.536 L130.996,121.536 L130.263,119.313 L96.474,119.313 L95.693,121.536 Z M139.15,145.755 L141.787,145.755 L114.638,76 L113.466,76 L113.466,79.287 L139.15,145.755 Z" stroke="none" />
        <path id="Baseline-S" d="M18,146 l800,0" />
        <path id="left-margin-Ultralight-S" d="M221,56 l0,110" />
        <path id="right-margin-Ultralight-S" d="M309,56 l0,110" />
        <path id="left-margin-Regular-S" d="M421,56 l0,110" />
        <path id="right-margin-Regular-S" d="M509,56 l0,110" />
        <path id="left-margin-Black-S" d="M621,56 l0,110" />
        <path id="right-margin-Black-S" d="M709,56 l0,110" />
        <path id="Capline-M" d="M18,276 l800,0" />
        <path id="Baseline-M" d="M18,346 l800,0" />
        <path id="Capline-L" d="M18,476 l800,0" />
        <path id="Baseline-L" d="M18,546 l800,0" />
    </g>
    <g id="Symbols">
        <g id="Ultralight-S">
            <path d="M274.644,97.163 C280.487,97.163 285.225,92.425 285.225,86.581 C285.225,80.737 280.487,76 274.644,76 C268.8,76 264.062,80.737 264.062,86.581 C264.062,92.425 268.8,97.163 274.644,97.163 Z M274.644,92.279 C271.497,92.279 268.946,89.728 268.946,86.581 C268.946,83.435 271.497,80.884 274.644,80.884 C277.79,80.884 280.341,83.435 280.341,86.581 C280.341,89.728 277.79,92.279 274.644,92.279 Z" />
            <path d="M264.352,101.706 L257.368,114.729 C256.81,115.771 257.078,117.063 258.004,117.797 L270.376,127.597 C270.501,127.694 270.595,127.83 270.663,128.023 L276.087,144.328 C276.513,145.608 277.895,146.3 279.175,145.874 C280.454,145.449 281.147,144.066 280.721,142.787 L275.284,126.443 C274.901,125.351 274.262,124.43 273.387,123.752 L261.037,113.969 L261.672,117.037 L268.656,104.014 C269.293,102.826 268.847,101.346 267.658,100.708 C266.47,100.071 264.989,100.518 264.352,101.706 Z" />
            <path d="M257.502,114.509 L249.037,126.946 C248.502,127.729 247.854,128.596 247.074,129.581 C246.686,130.07 246.269,130.585 245.793,131.162 C245.355,131.694 243.512,133.902 243.065,134.447 C242.058,135.674 241.375,136.558 240.868,137.319 C240.12,138.441 240.423,139.957 241.545,140.706 C242.667,141.454 244.183,141.15 244.931,140.028 C245.326,139.436 245.929,138.655 246.84,137.545 C247.271,137.021 249.11,134.817 249.563,134.267 C250.057,133.667 250.493,133.129 250.902,132.613 C251.748,131.545 252.461,130.591 253.071,129.698 L261.539,117.257 C262.298,116.142 262.009,114.624 260.894,113.865 C259.78,113.106 258.261,113.395 257.502,114.509 Z" />
            <path d="M295.771,108.558 L284.473,108.721 C284.33,108.721 284.158,108.676 284.013,108.595 L278.724,105.505 C271.972,101.548 264.557,98.819 256.81,97.429 L251.562,96.5 C250.551,96.321 249.536,96.794 249.023,97.683 L244.855,104.894 C244.18,106.062 244.58,107.555 245.748,108.23 C246.915,108.905 248.409,108.505 249.084,107.338 L253.251,100.126 L250.711,101.309 L255.953,102.237 C263.13,103.525 270.001,106.054 276.258,109.72 L281.584,112.831 C282.501,113.348 283.499,113.604 284.509,113.604 L295.841,113.441 C297.19,113.422 298.267,112.313 298.248,110.964 C298.228,109.616 297.119,108.539 295.771,108.558 Z" />
            <path d="M249.779,107.796 L242.454,120.485 L245.789,119.591 L235.415,113.601 L236.309,116.937 L243.634,104.249 L240.299,105.142 L250.673,111.132 L249.779,107.796 Z M254.009,110.238 C254.683,109.07 254.283,107.577 253.115,106.903 L242.741,100.913 C241.573,100.239 240.079,100.639 239.405,101.807 L232.08,114.495 C231.405,115.663 231.805,117.156 232.973,117.831 L243.348,123.82 C244.516,124.494 246.009,124.094 246.683,122.926 L254.009,110.238 Z" />
        </g>
        <g id="Regular-S">
            <path d="M474.644,97.163 C480.487,97.163 485.225,92.425 485.225,86.581 C485.225,80.737 480.487,76 474.644,76 C468.8,76 464.062,80.737 464.062,86.581 C464.062,92.425 468.8,97.163 474.644,97.163 Z M474.644,92.279 C471.497,92.279 468.946,89.728 468.946,86.581 C468.946,83.435 471.497,80.884 474.644,80.884 C477.79,80.884 480.341,83.435 480.341,86.581 C480.341,89.728 477.79,92.279 474.644,92.279 Z" />
            <path d="M464.352,101.706 L457.368,114.729 C456.81,115.771 457.078,117.063 458.004,117.797 L470.376,127.597 C470.501,127.694 470.595,127.83 470.663,128.023 L476.087,144.328 C476.513,145.608 477.895,146.3 479.175,145.874 C480.454,145.449 481.147,144.066 480.721,142.787 L475.284,126.443 C474.901,125.351 474.262,124.43 473.387,123.752 L461.037,113.969 L461.672,117.037 L468.656,104.014 C469.293,102.826 468.847,101.346 467.658,100.708 C466.47,100.071 464.989,100.518 464.352,101.706 Z" />
            <path d="M457.502,114.509 L449.037,126.946 C448.502,127.729 447.854,128.596 447.074,129.581 C446.686,130.07 446.269,130.585 445.793,131.162 C445.355,131.694 443.512,133.902 443.065,134.447 C442.058,135.674 441.375,136.558 440.868,137.319 C440.12,138.441 440.423,139.957 441.545,140.706 C442.667,141.454 444.183,141.15 444.931,140.028 C445.326,139.436 445.929,138.655 446.84,137.545 C447.271,137.021 449.11,134.817 449.563,134.267 C450.057,133.667 450.493,133.129 450.902,132.613 C451.748,131.545 452.461,130.591 453.071,129.698 L461.539,117.257 C462.298,116.142 462.009,114.624 460.894,113.865 C459.78,113.106 458.261,113.395 457.502,114.509 Z" />
            <path d="M495.771,108.558 L484.473,108.721 C484.33,108.721 484.158,108.676 484.013,108.595 L478.724,105.505 C471.972,101.548 464.557,98.819 456.81,97.429 L451.562,96.5 C450.551,96.321 449.536,96.794 449.023,97.683 L444.855,104.894 C444.18,106.062 444.58,107.555 445.748,108.23 C446.915,108.905 448.409,108.505 449.084,107.338 L453.251,100.126 L450.711,101.309 L455.953,102.237 C463.13,103.525 470.001,106.054 476.258,109.72 L481.584,112.831 C482.501,113.348 483.499,113.604 484.509,113.604 L495.841,113.441 C497.19,113.422 498.267,112.313 498.248,110.964 C498.228,109.616 497.119,108.539 495.771,108.558 Z" />
            <path d="M449.779,107.796 L442.454,120.485 L445.789,119.591 L435.415,113.601 L436.309,116.937 L443.634,104.249 L440.299,105.142 L450.673,111.132 L449.779,107.796 Z M454.009,110.238 C454.683,109.07 454.283,107.577 453.115,106.903 L442.741,100.913 C441.573,100.239 440.079,100.639 439.405,101.807 L432.08,114.495 C431.405,115.663 431.805,117.156 432.973,117.831 L443.348,123.82 C444.516,124.494 446.009,124.094 446.683,122.926 L454.009,110.238 Z" />
        </g>
        <g id="Black-S">
            <path d="M674.644,97.163 C680.487,97.163 685.225,92.425 685.225,86.581 C685.225,80.737 680.487,76 674.644,76 C668.8,76 664.062,80.737 664.062,86.581 C664.062,92.425 668.8,97.163 674.644,97.163 Z M674.644,92.279 C671.497,92.279 668.946,89.728 668.946,86.581 C668.946,83.435 671.497,80.884 674.644,80.884 C677.79,80.884 680.341,83.435 680.341,86.581 C680.341,89.728 677.79,92.279 674.644,92.279 Z" />
            <path d="M664.352,101.706 L657.368,114.729 C656.81,115.771 657.078,117.063 658.004,117.797 L670.376,127.597 C670.501,127.694 670.595,127.83 670.663,128.023 L676.087,144.328 C676.513,145.608 677.895,146.3 679.175,145.874 C680.454,145.449 681.147,144.066 680.721,142.787 L675.284,126.443 C674.901,125.351 674.262,124.43 673.387,123.752 L661.037,113.969 L661.672,117.037 L668.656,104.014 C669.293,102.826 668.847,101.346 667.658,100.708 C666.47,100.071 664.989,100.518 664.352,101.706 Z" />
            <path d="M657.502,114.509 L649.037,126.946 C648.502,127.729 647.854,128.596 647.073,129.581 C646.686,130.07 646.269,130.585 645.793,131.162 C645.355,131.694 643.512,133.902 643.065,134.447 C642.058,135.674 641.375,136.558 640.868,137.319 C640.12,138.441 640.423,139.957 641.545,140.706 C642.667,141.454 644.183,141.15 644.931,140.028 C645.326,139.436 645.929,138.655 646.841,137.545 C647.271,137.021 649.11,134.817 649.563,134.267 C650.057,133.667 650.493,133.129 650.902,132.613 C651.748,131.545 652.461,130.591 653.071,129.698 L661.539,117.257 C662.298,116.142 662.009,114.624 660.894,113.865 C659.78,113.106 658.261,113.395 657.502,114.509 Z" />
            <path d="M695.771,108.558 L684.473,108.721 C684.33,108.721 684.158,108.676 684.013,108.595 L678.724,105.505 C671.972,101.548 664.557,98.819 656.81,97.429 L651.562,96.5 C650.551,96.321 649.536,96.794 649.023,97.683 L644.855,104.894 C644.18,106.062 644.58,107.555 645.748,108.23 C646.915,108.905 648.409,108.505 649.084,107.338 L653.251,100.126 L650.711,101.309 L655.953,102.237 C663.13,103.525 670.001,106.054 676.258,109.72 L681.584,112.831 C682.501,113.348 683.499,113.604 684.509,113.604 L695.841,113.441 C697.19,113.422 698.267,112.313 698.248,110.964 C698.228,109.616 697.119,108.539 695.771,108.558 Z" />
            <path d="M649.779,107.796 L642.454,120.485 L645.789,119.591 L635.415,113.601 L636.309,116.937 L643.634,104.249 L640.299,105.142 L650.673,111.132 L649.779,107.796 Z M654.009,110.238 C654.683,109.07 654.283,107.577 653.115,106.903 L642.741,100.913 C641.573,100.239 640.079,100.639 639.405,101.807 L632.08,114.495 C631.405,115.663 631.805,117.156 632.973,117.831 L643.348,123.82 C644.516,124.494 646.009,124.094 646.683,122.926 L654.009,110.238 Z" />
        </g>
    </g>
</svg>