<?xml version="1.0" encoding="UTF-8"?>
<svg height="600" width="800" xmlns="http://www.w3.org/2000/svg" xmlns:xlink="http://www.w3.org/1999/xlink">
    <g id="Notes" font-family="'LucidaGrande', 'Lucida Grande', sans-serif" font-size="13">
        <rect fill="white" height="600.0" width="800.0" x="0.0" y="0.0" />
        <g font-size="13">
            <text x="18.0" y="176.0">Small</text>
            <text x="18.0" y="376.0">Medium</text>
            <text x="18.0" y="576.0">Large</text>
        </g>
        <g font-size="9">
            <text x="250.0" y="30.0">Ultralight</text>
            <text x="450.0" y="30.0">Regular</text>
            <text x="650.0" y="30.0">Black</text>
            <text id="template-version" fill="#505050" text-anchor="end" x="785.0" y="575.0">Template v.3.0</text>
            <a href="https://github.com/swhitty/SwiftDraw">
                <text fill="#505050" text-anchor="end" x="785.0" y="590.0">https://github.com/swhitty/SwiftDraw</text>
            </a>
        </g>
    </g>
    <g id="Guides" stroke="rgb(39, 170, 225)" stroke-width="0.5">
        <path id="Capline-S" d="M18,76 l800,0" />
        <path id="H-reference" d="M85,145.755 L87.685,145.755 L113.369,79.287 L114.052,79.287 L114.052,76 L112.148,76 L85,145.755 Z M95.693,121.536 L130.996,121.536 L130.263,119.313 L96.474,119.313 L95.693,121.536 Z M139.15,145.755 L141.787,145.755 L114.638,76 L113.466,76 L113.466,79.287 L139.15,145.755 Z" stroke="none" />
        <path id="Baseline-S" d="M18,146 l800,0" />
        <path id="left-margin-Ultralight-S" d="M213.194,56 l0,110" />
        <path id="right-margin-Ultralight-S" d="M316.806,56 l0,110" />
        <path id="left-margin-Regular-S" d="M413.194,56 l0,110" />
        <path id="right-margin-Regular-S" d="M516.806,56 l0,110" />
        <path id="left-margin-Black-S" d="M613.194,56 l0,110" />
        <path id="right-margin-Black-S" d="M716.806,56 l0,110" />
        <path id="Capline-M" d="M18,276 l800,0" />
        <path id="Baseline-M" d="M18,346 l800,0" />
        <path id="Capline-L" d="M18,476 l800,0" />
        <path id="Baseline-L" d="M18,546 l800,0" />
    </g>
    <g id="Symbols">
        <g id="Ultralight-S">
            <path d="M265,138.222 L231.944,138.222 C230.334,138.222 229.028,136.916 229.028,135.306 L229.028,84.75 C229.028,83.139 230.334,81.833 231.944,81.833 L298.056,81.833 C299.666,81.833 300.972,83.139 300.972,84.75 L300.972,108.198 C300.972,109.808 302.278,111.114 303.889,111.114 C305.5,111.114 306.806,109.808 306.806,108.198 L306.806,84.75 C306.806,79.917 302.888,76 298.056,76 L231.944,76 C227.112,76 223.194,79.918 223.194,84.75 L223.194,135.306 C223.194,140.138 227.112,144.056 231.944,144.056 L265,144.056 C266.611,144.056 267.917,142.75 267.917,141.139 C267.917,139.528 266.611,138.222 265,138.222 Z" />
            <path d="M229.028,84.75 C229.028,83.139 230.334,81.833 231.944,81.833 L298.056,81.833 C299.666,81.833 300.972,83.139 300.972,84.75 L300.972,102.25 L303.889,99.333 L226.111,99.333 L229.028,102.25 L229.028,84.75 Z M223.194,84.75 L223.194,102.25 L223.194,105.167 L226.111,105.167 L303.889,105.167 L306.806,105.167 L306.806,102.25 L306.806,84.75 C306.806,79.917 302.888,76 298.056,76 L231.944,76 C227.112,76 223.194,79.918 223.194,84.75 Z" />
            <path d="M237.778,94.472 C239.926,94.472 241.667,92.731 241.667,90.583 C241.667,88.436 239.926,86.694 237.778,86.694 C235.63,86.694 233.889,88.436 233.889,90.583 C233.889,92.731 235.63,94.472 237.778,94.472 Z" />
            <path d="M249.444,94.472 C251.592,94.472 253.333,92.731 253.333,90.583 C253.333,88.436 251.592,86.694 249.444,86.694 C247.297,86.694 245.556,88.436 245.556,90.583 C245.556,92.731 247.297,94.472 249.444,94.472 Z" />
            <path d="M287.361,129.472 C287.361,127.861 288.667,126.556 290.278,126.556 C291.889,126.556 293.194,127.861 293.194,129.472 C293.194,131.083 291.889,132.389 290.278,132.389 C288.667,132.389 287.361,131.083 287.361,129.472 Z M281.528,129.472 C281.528,134.305 285.445,138.222 290.278,138.222 C295.11,138.222 299.028,134.305 299.028,129.472 C299.028,124.64 295.11,120.722 290.278,120.722 C285.445,120.722 281.528,124.64 281.528,129.472 Z" />
            <path d="M293.194,143.083 L293.194,135.306 C293.194,133.695 291.889,132.389 290.278,132.389 C288.667,132.389 287.361,133.695 287.361,135.306 L287.361,143.083 C287.361,144.694 288.667,146 290.278,146 C291.889,146 293.194,144.694 293.194,143.083 Z" />
            <path d="M293.194,123.639 L293.194,115.861 C293.194,114.25 291.889,112.944 290.278,112.944 C288.667,112.944 287.361,114.25 287.361,115.861 L287.361,123.639 C287.361,125.25 288.667,126.556 290.278,126.556 C291.889,126.556 293.194,125.25 293.194,123.639 Z" />
            <path d="M279.949,138.804 L286.684,134.915 C288.079,134.109 288.557,132.326 287.752,130.931 C286.946,129.536 285.163,129.058 283.768,129.863 L277.032,133.752 C275.637,134.557 275.159,136.341 275.964,137.736 C276.77,139.131 278.553,139.609 279.949,138.804 Z" />
            <path d="M296.788,129.081 L303.523,125.193 C304.918,124.387 305.396,122.603 304.591,121.208 C303.785,119.813 302.002,119.335 300.607,120.141 L293.871,124.03 C292.476,124.835 291.998,126.619 292.803,128.014 C293.609,129.409 295.393,129.887 296.788,129.081 Z" />
            <path d="M277.032,125.193 L283.768,129.081 C285.163,129.887 286.946,129.409 287.752,128.014 C288.557,126.619 288.079,124.835 286.684,124.03 L279.949,120.141 C278.553,119.335 276.77,119.813 275.964,121.208 C275.159,122.603 275.637,124.387 277.032,125.193 Z" />
            <path d="M293.871,134.915 L300.607,138.804 C302.002,139.609 303.785,139.131 304.591,137.736 C305.396,136.341 304.918,134.557 303.523,133.752 L296.788,129.863 C295.393,129.058 293.609,129.536 292.803,130.931 C291.998,132.326 292.476,134.109 293.871,134.915 Z" />
        </g>
        <g id="Regular-S">
            <path d="M465,138.222 L431.944,138.222 C430.334,138.222 429.028,136.916 429.028,135.306 L429.028,84.75 C429.028,83.139 430.334,81.833 431.944,81.833 L498.056,81.833 C499.666,81.833 500.972,83.139 500.972,84.75 L500.972,108.198 C500.972,109.808 502.278,111.114 503.889,111.114 C505.5,111.114 506.806,109.808 506.806,108.198 L506.806,84.75 C506.806,79.917 502.888,76 498.056,76 L431.944,76 C427.112,76 423.194,79.918 423.194,84.75 L423.194,135.306 C423.194,140.138 427.112,144.056 431.944,144.056 L465,144.056 C466.611,144.056 467.917,142.75 467.917,141.139 C467.917,139.528 466.611,138.222 465,138.222 Z" />
            <path d="M429.028,84.75 C429.028,83.139 430.334,81.833 431.944,81.833 L498.056,81.833 C499.666,81.833 500.972,83.139 500.972,84.75 L500.972,102.25 L503.889,99.333 L426.111,99.333 L429.028,102.25 L429.028,84.75 Z M423.194,84.75 L423.194,102.25 L423.194,105.167 L426.111,105.167 L503.889,105.167 L506.806,105.167 L506.806,102.25 L506.806,84.75 C506.806,79.917 502.888,76 498.056,76 L431.944,76 C427.112,76 423.194,79.918 423.194,84.75 Z" />
            <path d="M437.778,94.472 C439.926,94.472 441.667,92.731 441.667,90.583 C441.667,88.436 439.926,86.694 437.778,86.694 C435.63,86.694 433.889,88.436 433.889,90.583 C433.889,92.731 435.63,94.472 437.778,94.472 Z" />
            <path d="M449.444,94.472 C451.592,94.472 453.333,92.731 453.333,90.583 C453.333,88.436 451.592,86.694 449.444,86.694 C447.297,86.694 445.556,88.436 445.556,90.583 C445.556,92.731 447.297,94.472 449.444,94.472 Z" />
            <path d="M487.361,129.472 C487.361,127.861 488.667,126.556 490.278,126.556 C491.889,126.556 493.194,127.861 493.194,129.472 C493.194,131.083 491.889,132.389 490.278,132.389 C488.667,132.389 487.361,131.083 487.361,129.472 Z M481.528,129.472 C481.528,134.305 485.445,138.222 490.278,138.222 C495.11,138.222 499.028,134.305 499.028,129.472 C499.028,124.64 495.11,120.722 490.278,120.722 C485.445,120.722 481.528,124.64 481.528,129.472 Z" />
            <path d="M493.194,143.083 L493.194,135.306 C493.194,133.695 491.889,132.389 490.278,132.389 C488.667,132.389 487.361,133.695 487.361,135.306 L487.361,143.083 C487.361,144.694 488.667,146 490.278,146 C491.889,146 493.194,144.694 493.194,143.083 Z" />
            <path d="M493.194,123.639 L493.194,115.861 C493.194,114.25 491.889,112.944 490.278,112.944 C488.667,112.944 487.361,114.25 487.361,115.861 L487.361,123.639 C487.361,125.25 488.667,126.556 490.278,126.556 C491.889,126.556 493.194,125.25 493.194,123.639 Z" />
            <path d="M479.949,138.804 L486.684,134.915 C488.079,134.109 488.557,132.326 487.752,130.931 C486.946,129.536 485.163,129.058 483.768,129.863 L477.032,133.752 C475.637,134.557 475.159,136.341 475.964,137.736 C476.77,139.131 478.553,139.609 479.949,138.804 Z" />
            <path d="M496.788,129.081 L503.523,125.193 C504.918,124.387 505.396,122.603 504.591,121.208 C503.785,119.813 502.002,119.335 500.607,120.141 L493.871,124.03 C492.476,124.835 491.998,126.619 492.803,128.014 C493.609,129.409 495.393,129.887 496.788,129.081 Z" />
            <path d="M477.032,125.193 L483.768,129.081 C485.163,129.887 486.946,129.409 487.752,128.014 C488.557,126.619 488.079,124.835 486.684,124.03 L479.949,120.141 C478.553,119.335 476.77,119.813 475.964,121.208 C475.159,122.603 475.637,124.387 477.032,125.193 Z" />
            <path d="M493.871,134.915 L500.607,138.804 C502.002,139.609 503.785,139.131 504.591,137.736 C505.396,136.341 504.918,134.557 503.523,133.752 L496.788,129.863 C495.393,129.058 493.609,129.536 492.803,130.931 C491.998,132.326 492.476,134.109 493.871,134.915 Z" />
        </g>
        <g id="Black-S">
            <path d="M665,138.222 L631.944,138.222 C630.334,138.222 629.028,136.916 629.028,135.306 L629.028,84.75 C629.028,83.139 630.334,81.833 631.944,81.833 L698.056,81.833 C699.666,81.833 700.972,83.139 700.972,84.75 L700.972,108.198 C700.972,109.808 702.278,111.114 703.889,111.114 C705.5,111.114 706.806,109.808 706.806,108.198 L706.806,84.75 C706.806,79.917 702.888,76 698.056,76 L631.944,76 C627.112,76 623.194,79.918 623.194,84.75 L623.194,135.306 C623.194,140.138 627.112,144.056 631.944,144.056 L665,144.056 C666.611,144.056 667.917,142.75 667.917,141.139 C667.917,139.528 666.611,138.222 665,138.222 Z" />
            <path d="M629.028,84.75 C629.028,83.139 630.334,81.833 631.944,81.833 L698.056,81.833 C699.666,81.833 700.972,83.139 700.972,84.75 L700.972,102.25 L703.889,99.333 L626.111,99.333 L629.028,102.25 L629.028,84.75 Z M623.194,84.75 L623.194,102.25 L623.194,105.167 L626.111,105.167 L703.889,105.167 L706.806,105.167 L706.806,102.25 L706.806,84.75 C706.806,79.917 702.888,76 698.056,76 L631.944,76 C627.112,76 623.194,79.918 623.194,84.75 Z" />
            <path d="M637.778,94.472 C639.926,94.472 641.667,92.731 641.667,90.583 C641.667,88.436 639.926,86.694 637.778,86.694 C635.63,86.694 633.889,88.436 633.889,90.583 C633.889,92.731 635.63,94.472 637.778,94.472 Z" />
            <path d="M649.444,94.472 C651.592,94.472 653.333,92.731 653.333,90.583 C653.333,88.436 651.592,86.694 649.444,86.694 C647.297,86.694 645.556,88.436 645.556,90.583 C645.556,92.731 647.297,94.472 649.444,94.472 Z" />
            <path d="M687.361,129.472 C687.361,127.861 688.667,126.556 690.278,126.556 C691.889,126.556 693.194,127.861 693.194,129.472 C693.194,131.083 691.889,132.389 690.278,132.389 C688.667,132.389 687.361,131.083 687.361,129.472 Z M681.528,129.472 C681.528,134.305 685.445,138.222 690.278,138.222 C695.11,138.222 699.028,134.305 699.028,129.472 C699.028,124.64 695.11,120.722 690.278,120.722 C685.445,120.722 681.528,124.64 681.528,129.472 Z" />
            <path d="M693.194,143.083 L693.194,135.306 C693.194,133.695 691.889,132.389 690.278,132.389 C688.667,132.389 687.361,133.695 687.361,135.306 L687.361,143.083 C687.361,144.694 688.667,146 690.278,146 C691.889,146 693.194,144.694 693.194,143.083 Z" />
            <path d="M693.194,123.639 L693.194,115.861 C693.194,114.25 691.889,112.944 690.278,112.944 C688.667,112.944 687.361,114.25 687.361,115.861 L687.361,123.639 C687.361,125.25 688.667,126.556 690.278,126.556 C691.889,126.556 693.194,125.25 693.194,123.639 Z" />
            <path d="M679.948,138.804 L686.684,134.915 C688.079,134.109 688.557,132.326 687.752,130.931 C686.946,129.536 685.163,129.058 683.768,129.863 L677.032,133.752 C675.637,134.557 675.159,136.341 675.964,137.736 C676.77,139.131 678.553,139.609 679.948,138.804 Z" />
            <path d="M696.788,129.081 L703.523,125.193 C704.918,124.387 705.396,122.603 704.591,121.208 C703.785,119.813 702.002,119.335 700.607,120.141 L693.871,124.03 C692.476,124.835 691.998,126.619 692.803,128.014 C693.609,129.409 695.393,129.887 696.788,129.081 Z" />
            <path d="M677.032,125.193 L683.768,129.081 C685.163,129.887 686.946,129.409 687.752,128.014 C688.557,126.619 688.079,124.835 686.684,124.03 L679.948,120.141 C678.553,119.335 676.77,119.813 675.964,121.208 C675.159,122.603 675.637,124.387 677.032,125.193 Z" />
            <path d="M693.871,134.915 L700.607,138.804 C702.002,139.609 703.785,139.131 704.591,137.736 C705.396,136.341 704.918,134.557 703.523,133.752 L696.788,129.863 C695.393,129.058 693.609,129.536 692.803,130.931 C691.998,132.326 692.476,134.109 693.871,134.915 Z" />
        </g>
    </g>
</svg>