<?xml version="1.0" encoding="UTF-8"?>
<svg height="600" width="800" xmlns="http://www.w3.org/2000/svg" xmlns:xlink="http://www.w3.org/1999/xlink">
    <g id="Notes" font-family="'LucidaGrande', 'Lucida Grande', sans-serif" font-size="13">
        <rect fill="white" height="600.0" width="800.0" x="0.0" y="0.0" />
        <g font-size="13">
            <text x="18.0" y="176.0">Small</text>
            <text x="18.0" y="376.0">Medium</text>
            <text x="18.0" y="576.0">Large</text>
        </g>
        <g font-size="9">
            <text x="250.0" y="30.0">Ultralight</text>
            <text x="450.0" y="30.0">Regular</text>
            <text x="650.0" y="30.0">Black</text>
            <text id="template-version" fill="#505050" text-anchor="end" x="785.0" y="575.0">Template v.3.0</text>
            <a href="https://github.com/swhitty/SwiftDraw">
                <text fill="#505050" text-anchor="end" x="785.0" y="590.0">https://github.com/swhitty/SwiftDraw</text>
            </a>
        </g>
    </g>
    <g id="Guides" stroke="rgb(39, 170, 225)" stroke-width="0.5">
        <path id="Capline-S" d="M18,76 l800,0" />
        <path id="H-reference" d="M85,145.755 L87.685,145.755 L113.369,79.287 L114.052,79.287 L114.052,76 L112.148,76 L85,145.755 Z M95.693,121.536 L130.996,121.536 L130.263,119.313 L96.474,119.313 L95.693,121.536 Z M139.15,145.755 L141.787,145.755 L114.638,76 L113.466,76 L113.466,79.287 L139.15,145.755 Z" stroke="none" />
        <path id="Baseline-S" d="M18,146 l800,0" />
        <path id="left-margin-Ultralight-S" d="M211,56 l0,110" />
        <path id="right-margin-Ultralight-S" d="M319,56 l0,110" />
        <path id="left-margin-Regular-S" d="M411,56 l0,110" />
        <path id="right-margin-Regular-S" d="M519,56 l0,110" />
        <path id="left-margin-Black-S" d="M611,56 l0,110" />
        <path id="right-margin-Black-S" d="M719,56 l0,110" />
        <path id="Capline-M" d="M18,276 l800,0" />
        <path id="Baseline-M" d="M18,346 l800,0" />
        <path id="Capline-L" d="M18,476 l800,0" />
        <path id="Baseline-L" d="M18,546 l800,0" />
    </g>
    <g id="Symbols">
        <g id="Ultralight-S">
            <path d="M223.134,110.84 L298.014,135.8 C299.649,136.345 301.416,135.461 301.961,133.827 C302.506,132.192 301.622,130.425 299.987,129.88 L225.107,104.92 C223.473,104.375 221.706,105.259 221.161,106.893 C220.616,108.528 221.5,110.295 223.134,110.84 Z" />
            <path d="M237.641,93.32 C237.641,91.597 239.038,90.2 240.761,90.2 C242.484,90.2 243.881,91.597 243.881,93.32 C243.881,95.043 242.484,96.44 240.761,96.44 C239.038,96.44 237.641,95.043 237.641,93.32 Z M231.401,93.32 C231.401,98.489 235.591,102.68 240.761,102.68 C245.93,102.68 250.121,98.489 250.121,93.32 C250.121,88.151 245.93,83.96 240.761,83.96 C235.591,83.96 231.401,88.151 231.401,93.32 Z" />
            <path d="M279.241,134.92 L279.241,125.56 C279.241,124.234 278.403,123.053 277.152,122.615 L256.352,115.335 C254.323,114.625 252.201,116.131 252.201,118.28 L252.201,134.92 C252.201,136.643 253.598,138.04 255.321,138.04 L276.121,138.04 C277.844,138.04 279.241,136.643 279.241,134.92 Z M273.001,134.92 L276.121,131.8 L255.321,131.8 L258.441,134.92 L258.441,118.28 L254.29,121.225 L275.09,128.505 L273.001,125.56 L273.001,134.92 Z" />
            <path d="M256.167,118.324 L266.567,90.244 L262.53,92.076 L300.749,106.635 C302.285,107.22 303.104,108.897 302.62,110.468 L296.019,131.922 C295.512,133.569 296.436,135.315 298.083,135.822 C299.73,136.329 301.476,135.404 301.983,133.758 L308.584,112.303 C310.034,107.59 307.579,102.56 302.97,100.804 L264.752,86.244 C263.131,85.627 261.317,86.45 260.715,88.076 L250.315,116.156 C249.717,117.772 250.541,119.567 252.157,120.166 C253.773,120.764 255.568,119.939 256.167,118.324 Z" />
        </g>
        <g id="Regular-S">
            <path d="M423.134,110.84 L498.014,135.8 C499.649,136.345 501.416,135.461 501.961,133.827 C502.506,132.192 501.622,130.425 499.987,129.88 L425.107,104.92 C423.473,104.375 421.706,105.259 421.161,106.893 C420.616,108.528 421.5,110.295 423.134,110.84 Z" />
            <path d="M437.641,93.32 C437.641,91.597 439.038,90.2 440.761,90.2 C442.484,90.2 443.881,91.597 443.881,93.32 C443.881,95.043 442.484,96.44 440.761,96.44 C439.038,96.44 437.641,95.043 437.641,93.32 Z M431.401,93.32 C431.401,98.489 435.591,102.68 440.761,102.68 C445.93,102.68 450.121,98.489 450.121,93.32 C450.121,88.151 445.93,83.96 440.761,83.96 C435.591,83.96 431.401,88.151 431.401,93.32 Z" />
            <path d="M479.241,134.92 L479.241,125.56 C479.241,124.234 478.403,123.053 477.152,122.615 L456.352,115.335 C454.323,114.625 452.201,116.131 452.201,118.28 L452.201,134.92 C452.201,136.643 453.598,138.04 455.321,138.04 L476.121,138.04 C477.844,138.04 479.241,136.643 479.241,134.92 Z M473.001,134.92 L476.121,131.8 L455.321,131.8 L458.441,134.92 L458.441,118.28 L454.29,121.225 L475.09,128.505 L473.001,125.56 L473.001,134.92 Z" />
            <path d="M456.167,118.324 L466.567,90.244 L462.53,92.076 L500.749,106.635 C502.285,107.22 503.104,108.897 502.62,110.468 L496.019,131.922 C495.512,133.569 496.436,135.315 498.083,135.822 C499.73,136.329 501.476,135.404 501.983,133.758 L508.584,112.303 C510.034,107.59 507.579,102.56 502.97,100.804 L464.752,86.244 C463.131,85.627 461.317,86.45 460.715,88.076 L450.315,116.156 C449.717,117.772 450.541,119.567 452.157,120.166 C453.773,120.764 455.568,119.939 456.167,118.324 Z" />
        </g>
        <g id="Black-S">
            <path d="M623.134,110.84 L698.014,135.8 C699.649,136.345 701.416,135.461 701.961,133.827 C702.506,132.192 701.622,130.425 699.987,129.88 L625.107,104.92 C623.473,104.375 621.706,105.259 621.161,106.893 C620.616,108.528 621.5,110.295 623.134,110.84 Z" />
            <path d="M637.641,93.32 C637.641,91.597 639.038,90.2 640.761,90.2 C642.484,90.2 643.881,91.597 643.881,93.32 C643.881,95.043 642.484,96.44 640.761,96.44 C639.038,96.44 637.641,95.043 637.641,93.32 Z M631.401,93.32 C631.401,98.489 635.591,102.68 640.761,102.68 C645.93,102.68 650.121,98.489 650.121,93.32 C650.121,88.151 645.93,83.96 640.761,83.96 C635.591,83.96 631.401,88.151 631.401,93.32 Z" />
            <path d="M679.241,134.92 L679.241,125.56 C679.241,124.234 678.403,123.053 677.152,122.615 L656.352,115.335 C654.323,114.625 652.201,116.131 652.201,118.28 L652.201,134.92 C652.201,136.643 653.598,138.04 655.321,138.04 L676.121,138.04 C677.844,138.04 679.241,136.643 679.241,134.92 Z M673.001,134.92 L676.121,131.8 L655.321,131.8 L658.441,134.92 L658.441,118.28 L654.29,121.225 L675.09,128.505 L673.001,125.56 L673.001,134.92 Z" />
            <path d="M656.167,118.324 L666.567,90.244 L662.53,92.076 L700.749,106.635 C702.285,107.22 703.104,108.897 702.62,110.468 L696.019,131.922 C695.512,133.569 696.436,135.315 698.083,135.822 C699.73,136.329 701.476,135.404 701.983,133.758 L708.584,112.303 C710.034,107.59 707.579,102.56 702.97,100.804 L664.752,86.244 C663.131,85.627 661.317,86.45 660.715,88.076 L650.315,116.156 C649.717,117.772 650.541,119.567 652.157,120.166 C653.773,120.764 655.568,119.939 656.167,118.324 Z" />
        </g>
    </g>
</svg>