<?xml version="1.0" encoding="UTF-8"?>
<svg height="600" width="800" xmlns="http://www.w3.org/2000/svg" xmlns:xlink="http://www.w3.org/1999/xlink">
    <g id="Notes" font-family="'LucidaGrande', 'Lucida Grande', sans-serif" font-size="13">
        <rect fill="white" height="600.0" width="800.0" x="0.0" y="0.0" />
        <g font-size="13">
            <text x="18.0" y="176.0">Small</text>
            <text x="18.0" y="376.0">Medium</text>
            <text x="18.0" y="576.0">Large</text>
        </g>
        <g font-size="9">
            <text x="250.0" y="30.0">Ultralight</text>
            <text x="450.0" y="30.0">Regular</text>
            <text x="650.0" y="30.0">Black</text>
            <text id="template-version" fill="#505050" text-anchor="end" x="785.0" y="575.0">Template v.3.0</text>
            <a href="https://github.com/swhitty/SwiftDraw">
                <text fill="#505050" text-anchor="end" x="785.0" y="590.0">https://github.com/swhitty/SwiftDraw</text>
            </a>
        </g>
    </g>
    <g id="Guides" stroke="rgb(39, 170, 225)" stroke-width="0.5">
        <path id="Capline-S" d="M18,76 l800,0" />
        <path id="H-reference" d="M85,145.755 L87.685,145.755 L113.369,79.287 L114.052,79.287 L114.052,76 L112.148,76 L85,145.755 Z M95.693,121.536 L130.996,121.536 L130.263,119.313 L96.474,119.313 L95.693,121.536 Z M139.15,145.755 L141.787,145.755 L114.638,76 L113.466,76 L113.466,79.287 L139.15,145.755 Z" stroke="none" />
        <path id="Baseline-S" d="M18,146 l800,0" />
        <path id="left-margin-Ultralight-S" d="M220,56 l0,110" />
        <path id="right-margin-Ultralight-S" d="M310,56 l0,110" />
        <path id="left-margin-Regular-S" d="M420,56 l0,110" />
        <path id="right-margin-Regular-S" d="M510,56 l0,110" />
        <path id="left-margin-Black-S" d="M620,56 l0,110" />
        <path id="right-margin-Black-S" d="M710,56 l0,110" />
        <path id="Capline-M" d="M18,276 l800,0" />
        <path id="Baseline-M" d="M18,346 l800,0" />
        <path id="Capline-L" d="M18,476 l800,0" />
        <path id="Baseline-L" d="M18,546 l800,0" />
    </g>
    <g id="Symbols">
        <g id="Ultralight-S">
            <path d="M265,146 C284.33,146 300,130.33 300,111 C300,91.67 284.33,76 265,76 C245.67,76 230,91.67 230,111 C230,130.33 245.67,146 265,146 Z M265,141.116 C248.367,141.116 234.884,127.633 234.884,111 C234.884,94.367 248.367,80.884 265,80.884 C281.633,80.884 295.116,94.367 295.116,111 C295.116,127.633 281.633,141.116 265,141.116 Z" />
            <path d="M260.215,106.215 L266.727,99.703 L263.273,99.703 L269.785,106.215 C270.739,107.169 272.285,107.169 273.238,106.215 C274.192,105.261 274.192,103.715 273.238,102.762 L266.727,96.25 C265.773,95.296 264.227,95.296 263.273,96.25 L256.762,102.762 C255.808,103.715 255.808,105.261 256.762,106.215 C257.715,107.169 259.261,107.169 260.215,106.215 Z" />
            <path d="M256.762,119.238 L263.273,125.75 C264.227,126.704 265.773,126.704 266.727,125.75 L273.238,119.238 C274.192,118.285 274.192,116.739 273.238,115.785 C272.285,114.831 270.739,114.831 269.785,115.785 L263.273,122.297 L266.727,122.297 L260.215,115.785 C259.261,114.831 257.715,114.831 256.762,115.785 C255.808,116.739 255.808,118.285 256.762,119.238 Z" />
        </g>
        <g id="Regular-S">
            <path d="M465,146 C484.33,146 500,130.33 500,111 C500,91.67 484.33,76 465,76 C445.67,76 430,91.67 430,111 C430,130.33 445.67,146 465,146 Z M465,141.116 C448.367,141.116 434.884,127.633 434.884,111 C434.884,94.367 448.367,80.884 465,80.884 C481.633,80.884 495.116,94.367 495.116,111 C495.116,127.633 481.633,141.116 465,141.116 Z" />
            <path d="M460.215,106.215 L466.727,99.703 L463.273,99.703 L469.785,106.215 C470.739,107.169 472.285,107.169 473.238,106.215 C474.192,105.261 474.192,103.715 473.238,102.762 L466.727,96.25 C465.773,95.296 464.227,95.296 463.273,96.25 L456.762,102.762 C455.808,103.715 455.808,105.261 456.762,106.215 C457.715,107.169 459.261,107.169 460.215,106.215 Z" />
            <path d="M456.762,119.238 L463.273,125.75 C464.227,126.704 465.773,126.704 466.727,125.75 L473.238,119.238 C474.192,118.285 474.192,116.739 473.238,115.785 C472.285,114.831 470.739,114.831 469.785,115.785 L463.273,122.297 L466.727,122.297 L460.215,115.785 C459.261,114.831 457.715,114.831 456.762,115.785 C455.808,116.739 455.808,118.285 456.762,119.238 Z" />
        </g>
        <g id="Black-S">
            <path d="M665,146 C684.33,146 700,130.33 700,111 C700,91.67 684.33,76 665,76 C645.67,76 630,91.67 630,111 C630,130.33 645.67,146 665,146 Z M665,141.116 C648.367,141.116 634.884,127.633 634.884,111 C634.884,94.367 648.367,80.884 665,80.884 C681.633,80.884 695.116,94.367 695.116,111 C695.116,127.633 681.633,141.116 665,141.116 Z" />
            <path d="M660.215,106.215 L666.727,99.703 L663.273,99.703 L669.785,106.215 C670.739,107.169 672.285,107.169 673.238,106.215 C674.192,105.261 674.192,103.715 673.238,102.762 L666.727,96.25 C665.773,95.296 664.227,95.296 663.273,96.25 L656.762,102.762 C655.808,103.715 655.808,105.261 656.762,106.215 C657.715,107.169 659.261,107.169 660.215,106.215 Z" />
            <path d="M656.762,119.238 L663.273,125.75 C664.227,126.704 665.773,126.704 666.727,125.75 L673.238,119.238 C674.192,118.285 674.192,116.739 673.238,115.785 C672.285,114.831 670.739,114.831 669.785,115.785 L663.273,122.297 L666.727,122.297 L660.215,115.785 C659.261,114.831 657.715,114.831 656.762,115.785 C655.808,116.739 655.808,118.285 656.762,119.238 Z" />
        </g>
    </g>
</svg>