<?xml version="1.0" encoding="UTF-8"?>
<svg height="600" width="800" xmlns="http://www.w3.org/2000/svg" xmlns:xlink="http://www.w3.org/1999/xlink">
    <g id="Notes" font-family="'LucidaGrande', 'Lucida Grande', sans-serif" font-size="13">
        <rect fill="white" height="600.0" width="800.0" x="0.0" y="0.0" />
        <g font-size="13">
            <text x="18.0" y="176.0">Small</text>
            <text x="18.0" y="376.0">Medium</text>
            <text x="18.0" y="576.0">Large</text>
        </g>
        <g font-size="9">
            <text x="250.0" y="30.0">Ultralight</text>
            <text x="450.0" y="30.0">Regular</text>
            <text x="650.0" y="30.0">Black</text>
            <text id="template-version" fill="#505050" text-anchor="end" x="785.0" y="575.0">Template v.3.0</text>
            <a href="https://github.com/swhitty/SwiftDraw">
                <text fill="#505050" text-anchor="end" x="785.0" y="590.0">https://github.com/swhitty/SwiftDraw</text>
            </a>
        </g>
    </g>
    <g id="Guides" stroke="rgb(39, 170, 225)" stroke-width="0.5">
        <path id="Capline-S" d="M18,76 l800,0" />
        <path id="H-reference" d="M85,145.755 L87.685,145.755 L113.369,79.287 L114.052,79.287 L114.052,76 L112.148,76 L85,145.755 Z M95.693,121.536 L130.996,121.536 L130.263,119.313 L96.474,119.313 L95.693,121.536 Z M139.15,145.755 L141.787,145.755 L114.638,76 L113.466,76 L113.466,79.287 L139.15,145.755 Z" stroke="none" />
        <path id="Baseline-S" d="M18,146 l800,0" />
        <path id="left-margin-Ultralight-S" d="M221,56 l0,110" />
        <path id="right-margin-Ultralight-S" d="M309,56 l0,110" />
        <path id="left-margin-Regular-S" d="M421,56 l0,110" />
        <path id="right-margin-Regular-S" d="M509,56 l0,110" />
        <path id="left-margin-Black-S" d="M621,56 l0,110" />
        <path id="right-margin-Black-S" d="M709,56 l0,110" />
        <path id="Capline-M" d="M18,276 l800,0" />
        <path id="Baseline-M" d="M18,346 l800,0" />
        <path id="Capline-L" d="M18,476 l800,0" />
        <path id="Baseline-L" d="M18,546 l800,0" />
    </g>
    <g id="Symbols">
        <g id="Ultralight-S">
            <path d="M235.698,97.163 L294.302,97.163 C295.651,97.163 296.744,96.07 296.744,94.721 L296.744,84.953 C296.744,83.605 295.651,82.512 294.302,82.512 L287.791,82.512 L289.975,83.861 L286.719,77.35 C286.305,76.523 285.46,76 284.535,76 L245.465,76 C244.54,76 243.695,76.523 243.281,77.35 L240.025,83.861 L242.209,82.512 L235.698,82.512 C234.349,82.512 233.256,83.605 233.256,84.953 L233.256,94.721 C233.256,96.07 234.349,97.163 235.698,97.163 Z M235.698,92.279 L238.14,94.721 L238.14,84.953 L235.698,87.395 L242.209,87.395 C243.134,87.395 243.98,86.873 244.393,86.046 L247.649,79.534 L245.465,80.884 L284.535,80.884 L282.351,79.534 L285.607,86.046 C286.02,86.873 286.866,87.395 287.791,87.395 L294.302,87.395 L291.86,84.953 L291.86,94.721 L294.302,92.279 L235.698,92.279 Z" />
            <path d="M286.971,143.721 L290.227,94.883 C290.321,93.474 289.203,92.279 287.791,92.279 L242.209,92.279 C240.797,92.279 239.679,93.474 239.773,94.883 L243.029,143.721 C243.114,145.003 244.18,146 245.465,146 L284.535,146 C285.82,146 286.886,145.003 286.971,143.721 Z M282.098,143.396 L284.535,141.116 L245.465,141.116 L247.902,143.396 L244.646,94.559 L242.209,97.163 L287.791,97.163 L285.354,94.559 L282.098,143.396 Z" />
        </g>
        <g id="Regular-S">
            <path d="M435.698,97.163 L494.302,97.163 C495.651,97.163 496.744,96.07 496.744,94.721 L496.744,84.953 C496.744,83.605 495.651,82.512 494.302,82.512 L487.791,82.512 L489.975,83.861 L486.719,77.35 C486.305,76.523 485.46,76 484.535,76 L445.465,76 C444.54,76 443.695,76.523 443.281,77.35 L440.025,83.861 L442.209,82.512 L435.698,82.512 C434.349,82.512 433.256,83.605 433.256,84.953 L433.256,94.721 C433.256,96.07 434.349,97.163 435.698,97.163 Z M435.698,92.279 L438.14,94.721 L438.14,84.953 L435.698,87.395 L442.209,87.395 C443.134,87.395 443.98,86.873 444.393,86.046 L447.649,79.534 L445.465,80.884 L484.535,80.884 L482.351,79.534 L485.607,86.046 C486.02,86.873 486.866,87.395 487.791,87.395 L494.302,87.395 L491.86,84.953 L491.86,94.721 L494.302,92.279 L435.698,92.279 Z" />
            <path d="M486.971,143.721 L490.227,94.883 C490.321,93.474 489.203,92.279 487.791,92.279 L442.209,92.279 C440.797,92.279 439.679,93.474 439.773,94.883 L443.029,143.721 C443.114,145.003 444.18,146 445.465,146 L484.535,146 C485.82,146 486.886,145.003 486.971,143.721 Z M482.098,143.396 L484.535,141.116 L445.465,141.116 L447.902,143.396 L444.646,94.559 L442.209,97.163 L487.791,97.163 L485.354,94.559 L482.098,143.396 Z" />
        </g>
        <g id="Black-S">
            <path d="M635.698,97.163 L694.302,97.163 C695.651,97.163 696.744,96.07 696.744,94.721 L696.744,84.953 C696.744,83.605 695.651,82.512 694.302,82.512 L687.791,82.512 L689.975,83.861 L686.719,77.35 C686.305,76.523 685.46,76 684.535,76 L645.465,76 C644.54,76 643.695,76.523 643.281,77.35 L640.025,83.861 L642.209,82.512 L635.698,82.512 C634.349,82.512 633.256,83.605 633.256,84.953 L633.256,94.721 C633.256,96.07 634.349,97.163 635.698,97.163 Z M635.698,92.279 L638.14,94.721 L638.14,84.953 L635.698,87.395 L642.209,87.395 C643.134,87.395 643.98,86.873 644.393,86.046 L647.649,79.534 L645.465,80.884 L684.535,80.884 L682.351,79.534 L685.607,86.046 C686.02,86.873 686.866,87.395 687.791,87.395 L694.302,87.395 L691.86,84.953 L691.86,94.721 L694.302,92.279 L635.698,92.279 Z" />
            <path d="M686.971,143.721 L690.227,94.883 C690.321,93.474 689.203,92.279 687.791,92.279 L642.209,92.279 C640.797,92.279 639.679,93.474 639.773,94.883 L643.029,143.721 C643.114,145.003 644.18,146 645.465,146 L684.535,146 C685.82,146 686.886,145.003 686.971,143.721 Z M682.098,143.396 L684.535,141.116 L645.465,141.116 L647.902,143.396 L644.646,94.559 L642.209,97.163 L687.791,97.163 L685.354,94.559 L682.098,143.396 Z" />
        </g>
    </g>
</svg>