<?xml version="1.0" encoding="UTF-8"?>
<svg height="600" width="800" xmlns="http://www.w3.org/2000/svg" xmlns:xlink="http://www.w3.org/1999/xlink">
    <g id="Notes" font-family="'LucidaGrande', 'Lucida Grande', sans-serif" font-size="13">
        <rect fill="white" height="600.0" width="800.0" x="0.0" y="0.0" />
        <g font-size="13">
            <text x="18.0" y="176.0">Small</text>
            <text x="18.0" y="376.0">Medium</text>
            <text x="18.0" y="576.0">Large</text>
        </g>
        <g font-size="9">
            <text x="250.0" y="30.0">Ultralight</text>
            <text x="450.0" y="30.0">Regular</text>
            <text x="650.0" y="30.0">Black</text>
            <text id="template-version" fill="#505050" text-anchor="end" x="785.0" y="575.0">Template v.3.0</text>
            <a href="https://github.com/swhitty/SwiftDraw">
                <text fill="#505050" text-anchor="end" x="785.0" y="590.0">https://github.com/swhitty/SwiftDraw</text>
            </a>
        </g>
    </g>
    <g id="Guides" stroke="rgb(39, 170, 225)" stroke-width="0.5">
        <path id="Capline-S" d="M18,76 l800,0" />
        <path id="H-reference" d="M85,145.755 L87.685,145.755 L113.369,79.287 L114.052,79.287 L114.052,76 L112.148,76 L85,145.755 Z M95.693,121.536 L130.996,121.536 L130.263,119.313 L96.474,119.313 L95.693,121.536 Z M139.15,145.755 L141.787,145.755 L114.638,76 L113.466,76 L113.466,79.287 L139.15,145.755 Z" stroke="none" />
        <path id="Baseline-S" d="M18,146 l800,0" />
        <path id="left-margin-Ultralight-S" d="M214.459,56 l0,110" />
        <path id="right-margin-Ultralight-S" d="M315.541,56 l0,110" />
        <path id="left-margin-Regular-S" d="M414.459,56 l0,110" />
        <path id="right-margin-Regular-S" d="M515.541,56 l0,110" />
        <path id="left-margin-Black-S" d="M614.459,56 l0,110" />
        <path id="right-margin-Black-S" d="M715.541,56 l0,110" />
        <path id="Capline-M" d="M18,276 l800,0" />
        <path id="Baseline-M" d="M18,346 l800,0" />
        <path id="Capline-L" d="M18,476 l800,0" />
        <path id="Baseline-L" d="M18,546 l800,0" />
    </g>
    <g id="Symbols">
        <g id="Ultralight-S">
            <path d="M273.799,106.23 C273.747,106.377 273.646,106.659 273.501,107.057 C273.26,107.722 272.987,108.463 272.688,109.262 C271.834,111.543 270.945,113.823 270.069,115.945 C269.656,116.944 269.255,117.885 268.869,118.758 C267.523,121.804 266.381,123.938 265.819,124.52 C264.091,126.309 261.239,126.359 259.449,124.631 C257.66,122.903 257.61,120.051 259.338,118.262 C259.922,117.657 262.126,116.387 265.274,114.875 C266.061,114.497 266.902,114.105 267.789,113.702 C269.875,112.754 272.116,111.789 274.358,110.859 C275.143,110.534 275.872,110.236 276.526,109.973 C276.916,109.815 277.193,109.705 277.339,109.647 L273.799,106.23 Z M278.894,108.037 C279.669,105.851 277.512,103.768 275.354,104.619 C275.197,104.681 274.908,104.797 274.504,104.959 C273.835,105.229 273.09,105.533 272.288,105.866 C269.994,106.817 267.699,107.805 265.552,108.78 C264.632,109.199 263.756,109.607 262.932,110.003 C259.148,111.821 256.657,113.256 255.45,114.507 C251.647,118.444 251.757,124.718 255.694,128.52 C259.631,132.321 265.905,132.212 269.707,128.275 C270.885,127.055 272.188,124.621 273.814,120.943 C274.218,120.028 274.636,119.047 275.064,118.009 C275.967,115.825 276.877,113.49 277.75,111.157 C278.056,110.341 278.335,109.583 278.582,108.902 C278.731,108.491 278.837,108.197 278.894,108.037 Z" />
            <path d="M293.667,145.208 C301.219,137.656 305.541,127.438 305.541,116.541 C305.541,94.151 287.39,76 265,76 C242.61,76 224.459,94.151 224.459,116.541 C224.459,127.438 228.781,137.656 236.333,145.208 C237.388,146.264 239.1,146.264 240.155,145.208 C241.211,144.153 241.211,142.442 240.155,141.386 C233.607,134.838 229.864,125.989 229.864,116.541 C229.864,97.136 245.595,81.406 265,81.406 C284.405,81.406 300.136,97.136 300.136,116.541 C300.136,125.989 296.393,134.838 289.845,141.386 C288.789,142.442 288.789,144.153 289.845,145.208 C290.9,146.264 292.611,146.264 293.667,145.208 Z" />
            <path d="M262.297,80.505 L262.297,87.712 C262.297,89.205 263.507,90.415 265,90.415 C266.493,90.415 267.703,89.205 267.703,87.712 L267.703,80.505 C267.703,79.012 266.493,77.802 265,77.802 C263.507,77.802 262.297,79.012 262.297,80.505 Z" />
            <path d="M290.048,91.273 L284.447,95.809 C283.287,96.748 283.108,98.45 284.047,99.61 C284.987,100.77 286.689,100.949 287.849,100.01 L293.45,95.474 C294.61,94.535 294.789,92.833 293.849,91.673 C292.91,90.513 291.208,90.334 290.048,91.273 Z" />
            <path d="M298.982,119.733 L291.96,118.112 C290.505,117.776 289.054,118.683 288.718,120.137 C288.382,121.592 289.289,123.043 290.744,123.379 L297.766,125 C299.221,125.336 300.672,124.429 301.008,122.974 C301.343,121.52 300.437,120.069 298.982,119.733 Z" />
            <path d="M232.233,125 L239.256,123.379 C240.71,123.043 241.617,121.592 241.281,120.137 C240.946,118.683 239.494,117.776 238.04,118.112 L231.017,119.733 C229.563,120.069 228.656,121.52 228.992,122.974 C229.327,124.429 230.779,125.336 232.233,125 Z" />
            <path d="M236.55,95.474 L242.151,100.01 C243.311,100.949 245.013,100.77 245.953,99.61 C246.892,98.45 246.713,96.748 245.553,95.809 L239.952,91.273 C238.792,90.334 237.09,90.512 236.151,91.672 C235.211,92.832 235.39,94.534 236.55,95.474 Z" />
        </g>
        <g id="Regular-S">
            <path d="M473.799,106.23 C473.747,106.377 473.646,106.659 473.501,107.057 C473.26,107.722 472.987,108.463 472.688,109.262 C471.834,111.543 470.945,113.823 470.069,115.945 C469.656,116.944 469.255,117.885 468.869,118.758 C467.523,121.804 466.381,123.938 465.819,124.52 C464.091,126.309 461.239,126.359 459.449,124.631 C457.66,122.903 457.61,120.051 459.338,118.262 C459.922,117.657 462.126,116.387 465.274,114.875 C466.061,114.497 466.902,114.105 467.789,113.702 C469.875,112.754 472.116,111.789 474.358,110.859 C475.143,110.534 475.872,110.236 476.526,109.973 C476.916,109.815 477.193,109.705 477.339,109.647 L473.799,106.23 Z M478.894,108.037 C479.669,105.851 477.512,103.768 475.354,104.619 C475.197,104.681 474.908,104.797 474.504,104.959 C473.835,105.229 473.09,105.533 472.288,105.866 C469.994,106.817 467.699,107.805 465.552,108.78 C464.632,109.199 463.756,109.607 462.932,110.003 C459.148,111.821 456.657,113.256 455.45,114.507 C451.647,118.444 451.757,124.718 455.694,128.52 C459.631,132.321 465.905,132.212 469.707,128.275 C470.885,127.055 472.188,124.621 473.814,120.943 C474.218,120.028 474.636,119.047 475.064,118.009 C475.967,115.825 476.877,113.49 477.75,111.157 C478.056,110.341 478.335,109.583 478.582,108.902 C478.731,108.491 478.837,108.197 478.894,108.037 Z" />
            <path d="M493.667,145.208 C501.219,137.656 505.541,127.438 505.541,116.541 C505.541,94.151 487.39,76 465,76 C442.61,76 424.459,94.151 424.459,116.541 C424.459,127.438 428.781,137.656 436.333,145.208 C437.388,146.264 439.1,146.264 440.155,145.208 C441.211,144.153 441.211,142.442 440.155,141.386 C433.607,134.838 429.864,125.989 429.864,116.541 C429.864,97.136 445.595,81.406 465,81.406 C484.405,81.406 500.136,97.136 500.136,116.541 C500.136,125.989 496.393,134.838 489.845,141.386 C488.789,142.442 488.789,144.153 489.845,145.208 C490.9,146.264 492.611,146.264 493.667,145.208 Z" />
            <path d="M462.297,80.505 L462.297,87.712 C462.297,89.205 463.507,90.415 465,90.415 C466.493,90.415 467.703,89.205 467.703,87.712 L467.703,80.505 C467.703,79.012 466.493,77.802 465,77.802 C463.507,77.802 462.297,79.012 462.297,80.505 Z" />
            <path d="M490.048,91.273 L484.447,95.809 C483.287,96.748 483.108,98.45 484.047,99.61 C484.987,100.77 486.689,100.949 487.849,100.01 L493.45,95.474 C494.61,94.535 494.789,92.833 493.849,91.673 C492.91,90.513 491.208,90.334 490.048,91.273 Z" />
            <path d="M498.982,119.733 L491.96,118.112 C490.505,117.776 489.054,118.683 488.718,120.137 C488.382,121.592 489.289,123.043 490.744,123.379 L497.766,125 C499.221,125.336 500.672,124.429 501.008,122.974 C501.343,121.52 500.437,120.069 498.982,119.733 Z" />
            <path d="M432.233,125 L439.256,123.379 C440.71,123.043 441.617,121.592 441.281,120.137 C440.946,118.683 439.494,117.776 438.04,118.112 L431.017,119.733 C429.563,120.069 428.656,121.52 428.992,122.974 C429.327,124.429 430.779,125.336 432.233,125 Z" />
            <path d="M436.55,95.474 L442.151,100.01 C443.311,100.949 445.013,100.77 445.953,99.61 C446.892,98.45 446.713,96.748 445.553,95.809 L439.952,91.273 C438.792,90.334 437.09,90.512 436.151,91.672 C435.211,92.832 435.39,94.534 436.55,95.474 Z" />
        </g>
        <g id="Black-S">
            <path d="M673.799,106.23 C673.747,106.377 673.646,106.659 673.501,107.057 C673.26,107.722 672.987,108.463 672.688,109.262 C671.834,111.543 670.945,113.823 670.069,115.945 C669.656,116.944 669.255,117.885 668.869,118.758 C667.523,121.804 666.381,123.938 665.819,124.52 C664.091,126.309 661.239,126.359 659.449,124.631 C657.659,122.903 657.61,120.051 659.338,118.262 C659.922,117.657 662.126,116.387 665.273,114.875 C666.061,114.497 666.902,114.105 667.789,113.702 C669.875,112.754 672.116,111.789 674.358,110.859 C675.143,110.534 675.872,110.236 676.526,109.973 C676.916,109.815 677.193,109.705 677.339,109.647 L673.799,106.23 Z M678.894,108.037 C679.669,105.851 677.512,103.768 675.354,104.619 C675.197,104.681 674.908,104.797 674.504,104.959 C673.835,105.229 673.09,105.533 672.288,105.866 C669.994,106.817 667.7,107.805 665.552,108.78 C664.632,109.199 663.756,109.607 662.932,110.003 C659.148,111.821 656.657,113.256 655.45,114.507 C651.647,118.444 651.757,124.718 655.694,128.52 C659.631,132.321 665.905,132.212 669.707,128.275 C670.885,127.055 672.188,124.621 673.814,120.943 C674.218,120.028 674.636,119.047 675.064,118.009 C675.967,115.825 676.877,113.49 677.75,111.157 C678.056,110.341 678.335,109.583 678.582,108.902 C678.731,108.491 678.837,108.197 678.894,108.037 Z" />
            <path d="M693.667,145.208 C701.219,137.656 705.541,127.438 705.541,116.541 C705.541,94.151 687.39,76 665,76 C642.61,76 624.459,94.151 624.459,116.541 C624.459,127.438 628.781,137.656 636.333,145.208 C637.388,146.264 639.1,146.264 640.155,145.208 C641.211,144.153 641.211,142.442 640.155,141.386 C633.607,134.838 629.864,125.989 629.864,116.541 C629.864,97.136 645.595,81.406 665,81.406 C684.405,81.406 700.136,97.136 700.136,116.541 C700.136,125.989 696.393,134.838 689.845,141.386 C688.789,142.442 688.789,144.153 689.845,145.208 C690.9,146.264 692.611,146.264 693.667,145.208 Z" />
            <path d="M662.297,80.505 L662.297,87.712 C662.297,89.205 663.507,90.415 665,90.415 C666.493,90.415 667.703,89.205 667.703,87.712 L667.703,80.505 C667.703,79.012 666.493,77.802 665,77.802 C663.507,77.802 662.297,79.012 662.297,80.505 Z" />
            <path d="M690.048,91.273 L684.447,95.809 C683.287,96.748 683.108,98.45 684.047,99.61 C684.987,100.77 686.689,100.949 687.849,100.01 L693.45,95.474 C694.61,94.535 694.789,92.833 693.849,91.673 C692.91,90.513 691.208,90.334 690.048,91.273 Z" />
            <path d="M698.982,119.733 L691.96,118.112 C690.505,117.776 689.054,118.683 688.718,120.137 C688.382,121.592 689.289,123.043 690.744,123.379 L697.766,125 C699.221,125.336 700.672,124.429 701.008,122.974 C701.343,121.52 700.437,120.069 698.982,119.733 Z" />
            <path d="M632.233,125 L639.256,123.379 C640.71,123.043 641.617,121.592 641.281,120.137 C640.946,118.683 639.494,117.776 638.04,118.112 L631.017,119.733 C629.563,120.069 628.656,121.52 628.992,122.974 C629.328,124.429 630.779,125.336 632.233,125 Z" />
            <path d="M636.55,95.474 L642.151,100.01 C643.311,100.949 645.013,100.77 645.953,99.61 C646.892,98.45 646.713,96.748 645.553,95.809 L639.952,91.273 C638.792,90.334 637.09,90.512 636.151,91.672 C635.211,92.832 635.39,94.534 636.55,95.474 Z" />
        </g>
    </g>
</svg>