<?xml version="1.0" encoding="UTF-8"?>
<svg height="600" width="800" xmlns="http://www.w3.org/2000/svg" xmlns:xlink="http://www.w3.org/1999/xlink">
    <g id="Notes" font-family="'LucidaGrande', 'Lucida Grande', sans-serif" font-size="13">
        <rect fill="white" height="600.0" width="800.0" x="0.0" y="0.0" />
        <g font-size="13">
            <text x="18.0" y="176.0">Small</text>
            <text x="18.0" y="376.0">Medium</text>
            <text x="18.0" y="576.0">Large</text>
        </g>
        <g font-size="9">
            <text x="250.0" y="30.0">Ultralight</text>
            <text x="450.0" y="30.0">Regular</text>
            <text x="650.0" y="30.0">Black</text>
            <text id="template-version" fill="#505050" text-anchor="end" x="785.0" y="575.0">Template v.3.0</text>
            <a href="https://github.com/swhitty/SwiftDraw">
                <text fill="#505050" text-anchor="end" x="785.0" y="590.0">https://github.com/swhitty/SwiftDraw</text>
            </a>
        </g>
    </g>
    <g id="Guides" stroke="rgb(39, 170, 225)" stroke-width="0.5">
        <path id="Capline-S" d="M18,76 l800,0" />
        <path id="H-reference" d="M85,145.755 L87.685,145.755 L113.369,79.287 L114.052,79.287 L114.052,76 L112.148,76 L85,145.755 Z M95.693,121.536 L130.996,121.536 L130.263,119.313 L96.474,119.313 L95.693,121.536 Z M139.15,145.755 L141.787,145.755 L114.638,76 L113.466,76 L113.466,79.287 L139.15,145.755 Z" stroke="none" />
        <path id="Baseline-S" d="M18,146 l800,0" />
        <path id="left-margin-Ultralight-S" d="M220,56 l0,110" />
        <path id="right-margin-Ultralight-S" d="M310,56 l0,110" />
        <path id="left-margin-Regular-S" d="M420,56 l0,110" />
        <path id="right-margin-Regular-S" d="M510,56 l0,110" />
        <path id="left-margin-Black-S" d="M620,56 l0,110" />
        <path id="right-margin-Black-S" d="M710,56 l0,110" />
        <path id="Capline-M" d="M18,276 l800,0" />
        <path id="Baseline-M" d="M18,346 l800,0" />
        <path id="Capline-L" d="M18,476 l800,0" />
        <path id="Baseline-L" d="M18,546 l800,0" />
    </g>
    <g id="Symbols">
        <g id="Ultralight-S">
            <path d="M300,143.558 L300,78.442 C300,77.093 298.907,76 297.558,76 L265,76 C263.651,76 262.558,77.093 262.558,78.442 L262.558,99.605 C262.558,100.252 262.815,100.873 263.273,101.331 L277.924,115.982 L277.209,114.256 L277.209,143.558 C277.209,144.907 278.303,146 279.651,146 L297.558,146 C298.907,146 300,144.907 300,143.558 Z M295.116,143.558 L297.558,141.116 L279.651,141.116 L282.093,143.558 L282.093,114.256 C282.093,113.608 281.836,112.987 281.378,112.529 L266.727,97.878 L267.442,99.605 L267.442,78.442 L265,80.884 L297.558,80.884 L295.116,78.442 L295.116,143.558 Z" />
            <path d="M230,78.442 L230,143.558 C230,144.907 231.093,146 232.442,146 L266.628,146 C267.977,146 269.07,144.907 269.07,143.558 L269.07,120.767 C269.07,120.12 268.812,119.499 268.355,119.041 L253.703,104.39 L254.419,106.116 L254.419,78.442 C254.419,77.093 253.325,76 251.977,76 L232.442,76 C231.093,76 230,77.093 230,78.442 Z M234.884,78.442 L232.442,80.884 L251.977,80.884 L249.535,78.442 L249.535,106.116 C249.535,106.764 249.792,107.385 250.25,107.843 L264.901,122.494 L264.186,120.767 L264.186,143.558 L266.628,141.116 L232.442,141.116 L234.884,143.558 L234.884,78.442 Z" />
        </g>
        <g id="Regular-S">
            <path d="M500,143.558 L500,78.442 C500,77.093 498.907,76 497.558,76 L465,76 C463.651,76 462.558,77.093 462.558,78.442 L462.558,99.605 C462.558,100.252 462.815,100.873 463.273,101.331 L477.924,115.982 L477.209,114.256 L477.209,143.558 C477.209,144.907 478.303,146 479.651,146 L497.558,146 C498.907,146 500,144.907 500,143.558 Z M495.116,143.558 L497.558,141.116 L479.651,141.116 L482.093,143.558 L482.093,114.256 C482.093,113.608 481.836,112.987 481.378,112.529 L466.727,97.878 L467.442,99.605 L467.442,78.442 L465,80.884 L497.558,80.884 L495.116,78.442 L495.116,143.558 Z" />
            <path d="M430,78.442 L430,143.558 C430,144.907 431.093,146 432.442,146 L466.628,146 C467.977,146 469.07,144.907 469.07,143.558 L469.07,120.767 C469.07,120.12 468.812,119.499 468.355,119.041 L453.703,104.39 L454.419,106.116 L454.419,78.442 C454.419,77.093 453.325,76 451.977,76 L432.442,76 C431.093,76 430,77.093 430,78.442 Z M434.884,78.442 L432.442,80.884 L451.977,80.884 L449.535,78.442 L449.535,106.116 C449.535,106.764 449.792,107.385 450.25,107.843 L464.901,122.494 L464.186,120.767 L464.186,143.558 L466.628,141.116 L432.442,141.116 L434.884,143.558 L434.884,78.442 Z" />
        </g>
        <g id="Black-S">
            <path d="M700,143.558 L700,78.442 C700,77.093 698.907,76 697.558,76 L665,76 C663.651,76 662.558,77.093 662.558,78.442 L662.558,99.605 C662.558,100.252 662.815,100.873 663.273,101.331 L677.924,115.982 L677.209,114.256 L677.209,143.558 C677.209,144.907 678.303,146 679.651,146 L697.558,146 C698.907,146 700,144.907 700,143.558 Z M695.116,143.558 L697.558,141.116 L679.651,141.116 L682.093,143.558 L682.093,114.256 C682.093,113.608 681.836,112.987 681.378,112.529 L666.727,97.878 L667.442,99.605 L667.442,78.442 L665,80.884 L697.558,80.884 L695.116,78.442 L695.116,143.558 Z" />
            <path d="M630,78.442 L630,143.558 C630,144.907 631.093,146 632.442,146 L666.628,146 C667.977,146 669.07,144.907 669.07,143.558 L669.07,120.767 C669.07,120.12 668.812,119.499 668.355,119.041 L653.703,104.39 L654.419,106.116 L654.419,78.442 C654.419,77.093 653.325,76 651.977,76 L632.442,76 C631.093,76 630,77.093 630,78.442 Z M634.884,78.442 L632.442,80.884 L651.977,80.884 L649.535,78.442 L649.535,106.116 C649.535,106.764 649.792,107.385 650.25,107.843 L664.901,122.494 L664.186,120.767 L664.186,143.558 L666.628,141.116 L632.442,141.116 L634.884,143.558 L634.884,78.442 Z" />
        </g>
    </g>
</svg>