<?xml version="1.0" encoding="UTF-8"?>
<svg height="600" width="800" xmlns="http://www.w3.org/2000/svg" xmlns:xlink="http://www.w3.org/1999/xlink">
    <g id="Notes" font-family="'LucidaGrande', 'Lucida Grande', sans-serif" font-size="13">
        <rect fill="white" height="600.0" width="800.0" x="0.0" y="0.0" />
        <g font-size="13">
            <text x="18.0" y="176.0">Small</text>
            <text x="18.0" y="376.0">Medium</text>
            <text x="18.0" y="576.0">Large</text>
        </g>
        <g font-size="9">
            <text x="250.0" y="30.0">Ultralight</text>
            <text x="450.0" y="30.0">Regular</text>
            <text x="650.0" y="30.0">Black</text>
            <text id="template-version" fill="#505050" text-anchor="end" x="785.0" y="575.0">Template v.3.0</text>
            <a href="https://github.com/swhitty/SwiftDraw">
                <text fill="#505050" text-anchor="end" x="785.0" y="590.0">https://github.com/swhitty/SwiftDraw</text>
            </a>
        </g>
    </g>
    <g id="Guides" stroke="rgb(39, 170, 225)" stroke-width="0.5">
        <path id="Capline-S" d="M18,76 l800,0" />
        <path id="H-reference" d="M85,145.755 L87.685,145.755 L113.369,79.287 L114.052,79.287 L114.052,76 L112.148,76 L85,145.755 Z M95.693,121.536 L130.996,121.536 L130.263,119.313 L96.474,119.313 L95.693,121.536 Z M139.15,145.755 L141.787,145.755 L114.638,76 L113.466,76 L113.466,79.287 L139.15,145.755 Z" stroke="none" />
        <path id="Baseline-S" d="M18,146 l800,0" />
        <path id="left-margin-Ultralight-S" d="M221,56 l0,110" />
        <path id="right-margin-Ultralight-S" d="M309,56 l0,110" />
        <path id="left-margin-Regular-S" d="M421,56 l0,110" />
        <path id="right-margin-Regular-S" d="M509,56 l0,110" />
        <path id="left-margin-Black-S" d="M621,56 l0,110" />
        <path id="right-margin-Black-S" d="M709,56 l0,110" />
        <path id="Capline-M" d="M18,276 l800,0" />
        <path id="Baseline-M" d="M18,346 l800,0" />
        <path id="Capline-L" d="M18,476 l800,0" />
        <path id="Baseline-L" d="M18,546 l800,0" />
    </g>
    <g id="Symbols">
        <g id="Ultralight-S">
            <path d="M260.93,84.953 C260.93,82.706 262.752,80.884 265,80.884 C267.248,80.884 269.07,82.706 269.07,84.953 C269.07,87.201 267.248,89.023 265,89.023 C262.752,89.023 260.93,87.201 260.93,84.953 Z M256.047,84.953 C256.047,89.898 260.055,93.907 265,93.907 C269.945,93.907 273.953,89.898 273.953,84.953 C273.953,80.009 269.945,76 265,76 C260.055,76 256.047,80.009 256.047,84.953 Z" />
            <path d="M237.326,103.674 L256.86,103.674 L254.419,101.233 L254.419,127.279 C254.419,128.628 255.512,129.721 256.86,129.721 C258.209,129.721 259.302,128.628 259.302,127.279 L259.302,101.233 C259.302,99.884 258.209,98.791 256.86,98.791 L237.326,98.791 C235.977,98.791 234.884,99.884 234.884,101.233 C234.884,102.581 235.977,103.674 237.326,103.674 Z" />
            <path d="M292.674,98.791 L273.14,98.791 C271.791,98.791 270.698,99.884 270.698,101.233 L270.698,143.558 C270.698,144.907 271.791,146 273.14,146 C274.488,146 275.581,144.907 275.581,143.558 L275.581,101.233 L273.14,103.674 L292.674,103.674 C294.023,103.674 295.116,102.581 295.116,101.233 C295.116,99.884 294.023,98.791 292.674,98.791 Z" />
        </g>
        <g id="Regular-S">
            <path d="M460.93,84.953 C460.93,82.706 462.752,80.884 465,80.884 C467.248,80.884 469.07,82.706 469.07,84.953 C469.07,87.201 467.248,89.023 465,89.023 C462.752,89.023 460.93,87.201 460.93,84.953 Z M456.047,84.953 C456.047,89.898 460.055,93.907 465,93.907 C469.945,93.907 473.953,89.898 473.953,84.953 C473.953,80.009 469.945,76 465,76 C460.055,76 456.047,80.009 456.047,84.953 Z" />
            <path d="M437.326,103.674 L456.86,103.674 L454.419,101.233 L454.419,127.279 C454.419,128.628 455.512,129.721 456.86,129.721 C458.209,129.721 459.302,128.628 459.302,127.279 L459.302,101.233 C459.302,99.884 458.209,98.791 456.86,98.791 L437.326,98.791 C435.977,98.791 434.884,99.884 434.884,101.233 C434.884,102.581 435.977,103.674 437.326,103.674 Z" />
            <path d="M492.674,98.791 L473.14,98.791 C471.791,98.791 470.698,99.884 470.698,101.233 L470.698,143.558 C470.698,144.907 471.791,146 473.14,146 C474.488,146 475.581,144.907 475.581,143.558 L475.581,101.233 L473.14,103.674 L492.674,103.674 C494.023,103.674 495.116,102.581 495.116,101.233 C495.116,99.884 494.023,98.791 492.674,98.791 Z" />
        </g>
        <g id="Black-S">
            <path d="M660.93,84.953 C660.93,82.706 662.752,80.884 665,80.884 C667.248,80.884 669.07,82.706 669.07,84.953 C669.07,87.201 667.248,89.023 665,89.023 C662.752,89.023 660.93,87.201 660.93,84.953 Z M656.047,84.953 C656.047,89.898 660.055,93.907 665,93.907 C669.945,93.907 673.953,89.898 673.953,84.953 C673.953,80.009 669.945,76 665,76 C660.055,76 656.047,80.009 656.047,84.953 Z" />
            <path d="M637.326,103.674 L656.86,103.674 L654.419,101.233 L654.419,127.279 C654.419,128.628 655.512,129.721 656.86,129.721 C658.209,129.721 659.302,128.628 659.302,127.279 L659.302,101.233 C659.302,99.884 658.209,98.791 656.86,98.791 L637.326,98.791 C635.977,98.791 634.884,99.884 634.884,101.233 C634.884,102.581 635.977,103.674 637.326,103.674 Z" />
            <path d="M692.674,98.791 L673.14,98.791 C671.791,98.791 670.698,99.884 670.698,101.233 L670.698,143.558 C670.698,144.907 671.791,146 673.14,146 C674.488,146 675.581,144.907 675.581,143.558 L675.581,101.233 L673.14,103.674 L692.674,103.674 C694.023,103.674 695.116,102.581 695.116,101.233 C695.116,99.884 694.023,98.791 692.674,98.791 Z" />
        </g>
    </g>
</svg>