<?xml version="1.0" encoding="UTF-8"?>
<svg height="600" width="800" xmlns="http://www.w3.org/2000/svg" xmlns:xlink="http://www.w3.org/1999/xlink">
    <g id="Notes" font-family="'LucidaGrande', 'Lucida Grande', sans-serif" font-size="13">
        <rect fill="white" height="600.0" width="800.0" x="0.0" y="0.0" />
        <g font-size="13">
            <text x="18.0" y="176.0">Small</text>
            <text x="18.0" y="376.0">Medium</text>
            <text x="18.0" y="576.0">Large</text>
        </g>
        <g font-size="9">
            <text x="250.0" y="30.0">Ultralight</text>
            <text x="450.0" y="30.0">Regular</text>
            <text x="650.0" y="30.0">Black</text>
            <text id="template-version" fill="#505050" text-anchor="end" x="785.0" y="575.0">Template v.3.0</text>
            <a href="https://github.com/swhitty/SwiftDraw">
                <text fill="#505050" text-anchor="end" x="785.0" y="590.0">https://github.com/swhitty/SwiftDraw</text>
            </a>
        </g>
    </g>
    <g id="Guides" stroke="rgb(39, 170, 225)" stroke-width="0.5">
        <path id="Capline-S" d="M18,76 l800,0" />
        <path id="H-reference" d="M85,145.755 L87.685,145.755 L113.369,79.287 L114.052,79.287 L114.052,76 L112.148,76 L85,145.755 Z M95.693,121.536 L130.996,121.536 L130.263,119.313 L96.474,119.313 L95.693,121.536 Z M139.15,145.755 L141.787,145.755 L114.638,76 L113.466,76 L113.466,79.287 L139.15,145.755 Z" stroke="none" />
        <path id="Baseline-S" d="M18,146 l800,0" />
        <path id="left-margin-Ultralight-S" d="M220,56 l0,110" />
        <path id="right-margin-Ultralight-S" d="M310,56 l0,110" />
        <path id="left-margin-Regular-S" d="M420,56 l0,110" />
        <path id="right-margin-Regular-S" d="M510,56 l0,110" />
        <path id="left-margin-Black-S" d="M620,56 l0,110" />
        <path id="right-margin-Black-S" d="M710,56 l0,110" />
        <path id="Capline-M" d="M18,276 l800,0" />
        <path id="Baseline-M" d="M18,346 l800,0" />
        <path id="Capline-L" d="M18,476 l800,0" />
        <path id="Baseline-L" d="M18,546 l800,0" />
    </g>
    <g id="Symbols">
        <g id="Ultralight-S">
            <path d="M292.674,76 L237.326,76 C233.28,76 230,79.28 230,83.326 L230,138.674 C230,142.72 233.28,146 237.326,146 L292.674,146 C296.72,146 300,142.72 300,138.674 L300,83.326 C300,79.28 296.72,76 292.674,76 Z M292.674,80.884 C294.023,80.884 295.116,81.977 295.116,83.326 L295.116,138.674 C295.116,140.023 294.023,141.116 292.674,141.116 L237.326,141.116 C235.977,141.116 234.884,140.023 234.884,138.674 L234.884,83.326 C234.884,81.977 235.977,80.884 237.326,80.884 L292.674,80.884 Z" />
            <path d="M245.465,94.721 C247.263,94.721 248.721,93.263 248.721,91.465 C248.721,89.667 247.263,88.209 245.465,88.209 C243.667,88.209 242.209,89.667 242.209,91.465 C242.209,93.263 243.667,94.721 245.465,94.721 Z" />
            <path d="M245.465,133.791 C247.263,133.791 248.721,132.333 248.721,130.535 C248.721,128.737 247.263,127.279 245.465,127.279 C243.667,127.279 242.209,128.737 242.209,130.535 C242.209,132.333 243.667,133.791 245.465,133.791 Z" />
            <path d="M284.535,94.721 C286.333,94.721 287.791,93.263 287.791,91.465 C287.791,89.667 286.333,88.209 284.535,88.209 C282.737,88.209 281.279,89.667 281.279,91.465 C281.279,93.263 282.737,94.721 284.535,94.721 Z" />
            <path d="M284.535,133.791 C286.333,133.791 287.791,132.333 287.791,130.535 C287.791,128.737 286.333,127.279 284.535,127.279 C282.737,127.279 281.279,128.737 281.279,130.535 C281.279,132.333 282.737,133.791 284.535,133.791 Z" />
            <path d="M265,128.093 C274.44,128.093 282.093,120.44 282.093,111 C282.093,101.56 274.44,93.907 265,93.907 C255.56,93.907 247.907,101.56 247.907,111 C247.907,120.44 255.56,128.093 265,128.093 Z M265,123.209 C258.257,123.209 252.791,117.743 252.791,111 C252.791,104.257 258.257,98.791 265,98.791 C271.743,98.791 277.209,104.257 277.209,111 C277.209,117.743 271.743,123.209 265,123.209 Z" />
        </g>
        <g id="Regular-S">
            <path d="M492.674,76 L437.326,76 C433.28,76 430,79.28 430,83.326 L430,138.674 C430,142.72 433.28,146 437.326,146 L492.674,146 C496.72,146 500,142.72 500,138.674 L500,83.326 C500,79.28 496.72,76 492.674,76 Z M492.674,80.884 C494.023,80.884 495.116,81.977 495.116,83.326 L495.116,138.674 C495.116,140.023 494.023,141.116 492.674,141.116 L437.326,141.116 C435.977,141.116 434.884,140.023 434.884,138.674 L434.884,83.326 C434.884,81.977 435.977,80.884 437.326,80.884 L492.674,80.884 Z" />
            <path d="M445.465,94.721 C447.263,94.721 448.721,93.263 448.721,91.465 C448.721,89.667 447.263,88.209 445.465,88.209 C443.667,88.209 442.209,89.667 442.209,91.465 C442.209,93.263 443.667,94.721 445.465,94.721 Z" />
            <path d="M445.465,133.791 C447.263,133.791 448.721,132.333 448.721,130.535 C448.721,128.737 447.263,127.279 445.465,127.279 C443.667,127.279 442.209,128.737 442.209,130.535 C442.209,132.333 443.667,133.791 445.465,133.791 Z" />
            <path d="M484.535,94.721 C486.333,94.721 487.791,93.263 487.791,91.465 C487.791,89.667 486.333,88.209 484.535,88.209 C482.737,88.209 481.279,89.667 481.279,91.465 C481.279,93.263 482.737,94.721 484.535,94.721 Z" />
            <path d="M484.535,133.791 C486.333,133.791 487.791,132.333 487.791,130.535 C487.791,128.737 486.333,127.279 484.535,127.279 C482.737,127.279 481.279,128.737 481.279,130.535 C481.279,132.333 482.737,133.791 484.535,133.791 Z" />
            <path d="M465,128.093 C474.44,128.093 482.093,120.44 482.093,111 C482.093,101.56 474.44,93.907 465,93.907 C455.56,93.907 447.907,101.56 447.907,111 C447.907,120.44 455.56,128.093 465,128.093 Z M465,123.209 C458.257,123.209 452.791,117.743 452.791,111 C452.791,104.257 458.257,98.791 465,98.791 C471.743,98.791 477.209,104.257 477.209,111 C477.209,117.743 471.743,123.209 465,123.209 Z" />
        </g>
        <g id="Black-S">
            <path d="M692.674,76 L637.326,76 C633.28,76 630,79.28 630,83.326 L630,138.674 C630,142.72 633.28,146 637.326,146 L692.674,146 C696.72,146 700,142.72 700,138.674 L700,83.326 C700,79.28 696.72,76 692.674,76 Z M692.674,80.884 C694.023,80.884 695.116,81.977 695.116,83.326 L695.116,138.674 C695.116,140.023 694.023,141.116 692.674,141.116 L637.326,141.116 C635.977,141.116 634.884,140.023 634.884,138.674 L634.884,83.326 C634.884,81.977 635.977,80.884 637.326,80.884 L692.674,80.884 Z" />
            <path d="M645.465,94.721 C647.263,94.721 648.721,93.263 648.721,91.465 C648.721,89.667 647.263,88.209 645.465,88.209 C643.667,88.209 642.209,89.667 642.209,91.465 C642.209,93.263 643.667,94.721 645.465,94.721 Z" />
            <path d="M645.465,133.791 C647.263,133.791 648.721,132.333 648.721,130.535 C648.721,128.737 647.263,127.279 645.465,127.279 C643.667,127.279 642.209,128.737 642.209,130.535 C642.209,132.333 643.667,133.791 645.465,133.791 Z" />
            <path d="M684.535,94.721 C686.333,94.721 687.791,93.263 687.791,91.465 C687.791,89.667 686.333,88.209 684.535,88.209 C682.737,88.209 681.279,89.667 681.279,91.465 C681.279,93.263 682.737,94.721 684.535,94.721 Z" />
            <path d="M684.535,133.791 C686.333,133.791 687.791,132.333 687.791,130.535 C687.791,128.737 686.333,127.279 684.535,127.279 C682.737,127.279 681.279,128.737 681.279,130.535 C681.279,132.333 682.737,133.791 684.535,133.791 Z" />
            <path d="M665,128.093 C674.44,128.093 682.093,120.44 682.093,111 C682.093,101.56 674.44,93.907 665,93.907 C655.56,93.907 647.907,101.56 647.907,111 C647.907,120.44 655.56,128.093 665,128.093 Z M665,123.209 C658.257,123.209 652.791,117.743 652.791,111 C652.791,104.257 658.257,98.791 665,98.791 C671.743,98.791 677.209,104.257 677.209,111 C677.209,117.743 671.743,123.209 665,123.209 Z" />
        </g>
    </g>
</svg>