<?xml version="1.0" encoding="UTF-8"?>
<svg height="600" width="800" xmlns="http://www.w3.org/2000/svg" xmlns:xlink="http://www.w3.org/1999/xlink">
    <g id="Notes" font-family="'LucidaGrande', 'Lucida Grande', sans-serif" font-size="13">
        <rect fill="white" height="600.0" width="800.0" x="0.0" y="0.0" />
        <g font-size="13">
            <text x="18.0" y="176.0">Small</text>
            <text x="18.0" y="376.0">Medium</text>
            <text x="18.0" y="576.0">Large</text>
        </g>
        <g font-size="9">
            <text x="250.0" y="30.0">Ultralight</text>
            <text x="450.0" y="30.0">Regular</text>
            <text x="650.0" y="30.0">Black</text>
            <text id="template-version" fill="#505050" text-anchor="end" x="785.0" y="575.0">Template v.3.0</text>
            <a href="https://github.com/swhitty/SwiftDraw">
                <text fill="#505050" text-anchor="end" x="785.0" y="590.0">https://github.com/swhitty/SwiftDraw</text>
            </a>
        </g>
    </g>
    <g id="Guides" stroke="rgb(39, 170, 225)" stroke-width="0.5">
        <path id="Capline-S" d="M18,76 l800,0" />
        <path id="H-reference" d="M85,145.755 L87.685,145.755 L113.369,79.287 L114.052,79.287 L114.052,76 L112.148,76 L85,145.755 Z M95.693,121.536 L130.996,121.536 L130.263,119.313 L96.474,119.313 L95.693,121.536 Z M139.15,145.755 L141.787,145.755 L114.638,76 L113.466,76 L113.466,79.287 L139.15,145.755 Z" stroke="none" />
        <path id="Baseline-S" d="M18,146 l800,0" />
        <path id="left-margin-Ultralight-S" d="M218.205,56 l0,110" />
        <path id="right-margin-Ultralight-S" d="M311.795,56 l0,110" />
        <path id="left-margin-Regular-S" d="M418.205,56 l0,110" />
        <path id="right-margin-Regular-S" d="M511.795,56 l0,110" />
        <path id="left-margin-Black-S" d="M618.205,56 l0,110" />
        <path id="right-margin-Black-S" d="M711.795,56 l0,110" />
        <path id="Capline-M" d="M18,276 l800,0" />
        <path id="Baseline-M" d="M18,346 l800,0" />
        <path id="Capline-L" d="M18,476 l800,0" />
        <path id="Baseline-L" d="M18,546 l800,0" />
    </g>
    <g id="Symbols">
        <g id="Ultralight-S">
            <path d="M262.308,123.564 L262.308,130.744 C262.308,136.436 258.128,140.615 252.436,140.615 C246.743,140.615 242.564,136.436 242.564,130.744 L242.564,96.641 C242.564,95.154 241.359,93.949 239.872,93.949 C238.385,93.949 237.18,95.154 237.18,96.641 L237.18,130.744 C237.18,139.41 243.77,146 252.436,146 C261.102,146 267.692,139.41 267.692,130.744 L267.692,123.564 C267.692,122.077 266.487,120.872 265,120.872 C263.513,120.872 262.308,122.077 262.308,123.564 Z" />
            <path d="M292.82,143.308 L292.82,91.257 C292.82,82.59 286.23,76 277.564,76 C268.898,76 262.308,82.59 262.308,91.257 L262.308,123.564 C262.308,125.051 263.513,126.256 265,126.256 C266.487,126.256 267.692,125.051 267.692,123.564 L267.692,91.257 C267.692,85.564 271.872,81.385 277.564,81.385 C283.257,81.385 287.436,85.564 287.436,91.257 L287.436,143.308 C287.436,144.795 288.641,146 290.128,146 C291.615,146 292.82,144.795 292.82,143.308 Z" />
            <path d="M279.25,136.237 L288.224,145.211 C289.276,146.263 290.98,146.263 292.032,145.211 L301.006,136.237 C302.058,135.186 302.058,133.481 301.006,132.43 C299.955,131.378 298.25,131.378 297.199,132.43 L288.224,141.404 L292.032,141.404 L283.058,132.43 C282.006,131.378 280.301,131.378 279.25,132.43 C278.199,133.481 278.199,135.186 279.25,136.237 Z" />
            <path d="M246.154,87.667 C246.154,91.136 243.341,93.949 239.872,93.949 C236.402,93.949 233.59,91.136 233.59,87.667 C233.59,84.197 236.402,81.385 239.872,81.385 C243.341,81.385 246.154,84.197 246.154,87.667 Z M251.538,87.667 C251.538,81.223 246.315,76 239.872,76 C233.429,76 228.205,81.223 228.205,87.667 C228.205,94.11 233.429,99.333 239.872,99.333 C246.315,99.333 251.538,94.11 251.538,87.667 Z" />
        </g>
        <g id="Regular-S">
            <path d="M462.308,123.564 L462.308,130.744 C462.308,136.436 458.128,140.615 452.436,140.615 C446.743,140.615 442.564,136.436 442.564,130.744 L442.564,96.641 C442.564,95.154 441.359,93.949 439.872,93.949 C438.385,93.949 437.18,95.154 437.18,96.641 L437.18,130.744 C437.18,139.41 443.77,146 452.436,146 C461.102,146 467.692,139.41 467.692,130.744 L467.692,123.564 C467.692,122.077 466.487,120.872 465,120.872 C463.513,120.872 462.308,122.077 462.308,123.564 Z" />
            <path d="M492.82,143.308 L492.82,91.257 C492.82,82.59 486.23,76 477.564,76 C468.898,76 462.308,82.59 462.308,91.257 L462.308,123.564 C462.308,125.051 463.513,126.256 465,126.256 C466.487,126.256 467.692,125.051 467.692,123.564 L467.692,91.257 C467.692,85.564 471.872,81.385 477.564,81.385 C483.257,81.385 487.436,85.564 487.436,91.257 L487.436,143.308 C487.436,144.795 488.641,146 490.128,146 C491.615,146 492.82,144.795 492.82,143.308 Z" />
            <path d="M479.25,136.237 L488.224,145.211 C489.276,146.263 490.98,146.263 492.032,145.211 L501.006,136.237 C502.058,135.186 502.058,133.481 501.006,132.43 C499.955,131.378 498.25,131.378 497.199,132.43 L488.224,141.404 L492.032,141.404 L483.058,132.43 C482.006,131.378 480.301,131.378 479.25,132.43 C478.199,133.481 478.199,135.186 479.25,136.237 Z" />
            <path d="M446.154,87.667 C446.154,91.136 443.341,93.949 439.872,93.949 C436.402,93.949 433.59,91.136 433.59,87.667 C433.59,84.197 436.402,81.385 439.872,81.385 C443.341,81.385 446.154,84.197 446.154,87.667 Z M451.539,87.667 C451.539,81.223 446.315,76 439.872,76 C433.429,76 428.205,81.223 428.205,87.667 C428.205,94.11 433.429,99.333 439.872,99.333 C446.315,99.333 451.539,94.11 451.539,87.667 Z" />
        </g>
        <g id="Black-S">
            <path d="M662.308,123.564 L662.308,130.744 C662.308,136.436 658.129,140.615 652.436,140.615 C646.743,140.615 642.564,136.436 642.564,130.744 L642.564,96.641 C642.564,95.154 641.359,93.949 639.872,93.949 C638.385,93.949 637.18,95.154 637.18,96.641 L637.18,130.744 C637.18,139.41 643.77,146 652.436,146 C661.102,146 667.692,139.41 667.692,130.744 L667.692,123.564 C667.692,122.077 666.487,120.872 665,120.872 C663.513,120.872 662.308,122.077 662.308,123.564 Z" />
            <path d="M692.82,143.308 L692.82,91.257 C692.82,82.59 686.23,76 677.564,76 C668.898,76 662.308,82.59 662.308,91.257 L662.308,123.564 C662.308,125.051 663.513,126.256 665,126.256 C666.487,126.256 667.692,125.051 667.692,123.564 L667.692,91.257 C667.692,85.564 671.872,81.385 677.564,81.385 C683.257,81.385 687.436,85.564 687.436,91.257 L687.436,143.308 C687.436,144.795 688.641,146 690.128,146 C691.615,146 692.82,144.795 692.82,143.308 Z" />
            <path d="M679.25,136.237 L688.224,145.211 C689.276,146.263 690.981,146.263 692.032,145.211 L701.006,136.237 C702.058,135.186 702.058,133.481 701.006,132.43 C699.955,131.378 698.25,131.378 697.199,132.43 L688.224,141.404 L692.032,141.404 L683.058,132.43 C682.006,131.378 680.302,131.378 679.25,132.43 C678.199,133.481 678.199,135.186 679.25,136.237 Z" />
            <path d="M646.154,87.667 C646.154,91.136 643.341,93.949 639.872,93.949 C636.402,93.949 633.59,91.136 633.59,87.667 C633.59,84.197 636.402,81.385 639.872,81.385 C643.341,81.385 646.154,84.197 646.154,87.667 Z M651.539,87.667 C651.539,81.223 646.315,76 639.872,76 C633.429,76 628.205,81.223 628.205,87.667 C628.205,94.11 633.429,99.333 639.872,99.333 C646.315,99.333 651.539,94.11 651.539,87.667 Z" />
        </g>
    </g>
</svg>