<?xml version="1.0" encoding="UTF-8"?>
<svg height="600" width="800" xmlns="http://www.w3.org/2000/svg" xmlns:xlink="http://www.w3.org/1999/xlink">
    <g id="Notes" font-family="'LucidaGrande', 'Lucida Grande', sans-serif" font-size="13">
        <rect fill="white" height="600.0" width="800.0" x="0.0" y="0.0" />
        <g font-size="13">
            <text x="18.0" y="176.0">Small</text>
            <text x="18.0" y="376.0">Medium</text>
            <text x="18.0" y="576.0">Large</text>
        </g>
        <g font-size="9">
            <text x="250.0" y="30.0">Ultralight</text>
            <text x="450.0" y="30.0">Regular</text>
            <text x="650.0" y="30.0">Black</text>
            <text id="template-version" fill="#505050" text-anchor="end" x="785.0" y="575.0">Template v.3.0</text>
            <a href="https://github.com/swhitty/SwiftDraw">
                <text fill="#505050" text-anchor="end" x="785.0" y="590.0">https://github.com/swhitty/SwiftDraw</text>
            </a>
        </g>
    </g>
    <g id="Guides" stroke="rgb(39, 170, 225)" stroke-width="0.5">
        <path id="Capline-S" d="M18,76 l800,0" />
        <path id="H-reference" d="M85,145.755 L87.685,145.755 L113.369,79.287 L114.052,79.287 L114.052,76 L112.148,76 L85,145.755 Z M95.693,121.536 L130.996,121.536 L130.263,119.313 L96.474,119.313 L95.693,121.536 Z M139.15,145.755 L141.787,145.755 L114.638,76 L113.466,76 L113.466,79.287 L139.15,145.755 Z" stroke="none" />
        <path id="Baseline-S" d="M18,146 l800,0" />
        <path id="left-margin-Ultralight-S" d="M220.814,56 l0,110" />
        <path id="right-margin-Ultralight-S" d="M309.186,56 l0,110" />
        <path id="left-margin-Regular-S" d="M420.814,56 l0,110" />
        <path id="right-margin-Regular-S" d="M509.186,56 l0,110" />
        <path id="left-margin-Black-S" d="M620.814,56 l0,110" />
        <path id="right-margin-Black-S" d="M709.186,56 l0,110" />
        <path id="Capline-M" d="M18,276 l800,0" />
        <path id="Baseline-M" d="M18,346 l800,0" />
        <path id="Capline-L" d="M18,476 l800,0" />
        <path id="Baseline-L" d="M18,546 l800,0" />
    </g>
    <g id="Symbols">
        <g id="Ultralight-S">
            <path d="M241.297,80.169 L264.087,102.959 C265.041,103.913 266.587,103.913 267.541,102.959 L290.331,80.169 C291.285,79.215 291.285,77.669 290.331,76.715 C289.378,75.762 287.832,75.762 286.878,76.715 L264.087,99.506 L267.541,99.506 L244.75,76.715 C243.796,75.762 242.25,75.762 241.297,76.715 C240.343,77.669 240.343,79.215 241.297,80.169 Z" />
            <path d="M244.75,145.285 L267.541,122.494 L264.087,122.494 L286.878,145.285 C287.832,146.238 289.378,146.238 290.331,145.285 C291.285,144.331 291.285,142.785 290.331,141.831 L267.541,119.041 C266.587,118.087 265.041,118.087 264.087,119.041 L241.297,141.831 C240.343,142.785 240.343,144.331 241.297,145.285 C242.25,146.238 243.796,146.238 244.75,145.285 Z" />
            <path d="M295.018,86.483 L272.227,109.273 C271.273,110.227 271.273,111.773 272.227,112.727 L295.018,135.517 C295.971,136.471 297.517,136.471 298.471,135.517 C299.424,134.564 299.424,133.018 298.471,132.064 L275.68,109.273 L275.68,112.727 L298.471,89.936 C299.424,88.982 299.424,87.436 298.471,86.483 C297.517,85.529 295.971,85.529 295.018,86.483 Z" />
            <path d="M231.529,89.936 L254.32,112.727 L254.32,109.273 L231.529,132.064 C230.576,133.018 230.576,134.564 231.529,135.517 C232.483,136.471 234.029,136.471 234.982,135.517 L257.773,112.727 C258.727,111.773 258.727,110.227 257.773,109.273 L234.982,86.483 C234.029,85.529 232.483,85.529 231.529,86.483 C230.576,87.436 230.576,88.982 231.529,89.936 Z" />
        </g>
        <g id="Regular-S">
            <path d="M441.297,80.169 L464.087,102.959 C465.041,103.913 466.587,103.913 467.541,102.959 L490.331,80.169 C491.285,79.215 491.285,77.669 490.331,76.715 C489.378,75.762 487.832,75.762 486.878,76.715 L464.087,99.506 L467.541,99.506 L444.75,76.715 C443.796,75.762 442.25,75.762 441.297,76.715 C440.343,77.669 440.343,79.215 441.297,80.169 Z" />
            <path d="M444.75,145.285 L467.541,122.494 L464.087,122.494 L486.878,145.285 C487.832,146.238 489.378,146.238 490.331,145.285 C491.285,144.331 491.285,142.785 490.331,141.831 L467.541,119.041 C466.587,118.087 465.041,118.087 464.087,119.041 L441.297,141.831 C440.343,142.785 440.343,144.331 441.297,145.285 C442.25,146.238 443.796,146.238 444.75,145.285 Z" />
            <path d="M495.018,86.483 L472.227,109.273 C471.273,110.227 471.273,111.773 472.227,112.727 L495.018,135.517 C495.971,136.471 497.517,136.471 498.471,135.517 C499.424,134.564 499.424,133.018 498.471,132.064 L475.68,109.273 L475.68,112.727 L498.471,89.936 C499.424,88.982 499.424,87.436 498.471,86.483 C497.517,85.529 495.971,85.529 495.018,86.483 Z" />
            <path d="M431.529,89.936 L454.32,112.727 L454.32,109.273 L431.529,132.064 C430.576,133.018 430.576,134.564 431.529,135.517 C432.483,136.471 434.029,136.471 434.982,135.517 L457.773,112.727 C458.727,111.773 458.727,110.227 457.773,109.273 L434.982,86.483 C434.029,85.529 432.483,85.529 431.529,86.483 C430.576,87.436 430.576,88.982 431.529,89.936 Z" />
        </g>
        <g id="Black-S">
            <path d="M641.297,80.169 L664.087,102.959 C665.041,103.913 666.587,103.913 667.541,102.959 L690.331,80.169 C691.285,79.215 691.285,77.669 690.331,76.715 C689.378,75.762 687.832,75.762 686.878,76.715 L664.087,99.506 L667.541,99.506 L644.75,76.715 C643.796,75.762 642.25,75.762 641.297,76.715 C640.343,77.669 640.343,79.215 641.297,80.169 Z" />
            <path d="M644.75,145.285 L667.541,122.494 L664.087,122.494 L686.878,145.285 C687.832,146.238 689.378,146.238 690.331,145.285 C691.285,144.331 691.285,142.785 690.331,141.831 L667.541,119.041 C666.587,118.087 665.041,118.087 664.087,119.041 L641.297,141.831 C640.343,142.785 640.343,144.331 641.297,145.285 C642.25,146.238 643.796,146.238 644.75,145.285 Z" />
            <path d="M695.018,86.483 L672.227,109.273 C671.273,110.227 671.273,111.773 672.227,112.727 L695.018,135.517 C695.971,136.471 697.517,136.471 698.471,135.517 C699.424,134.564 699.424,133.018 698.471,132.064 L675.68,109.273 L675.68,112.727 L698.471,89.936 C699.424,88.982 699.424,87.436 698.471,86.483 C697.517,85.529 695.971,85.529 695.018,86.483 Z" />
            <path d="M631.529,89.936 L654.32,112.727 L654.32,109.273 L631.529,132.064 C630.576,133.018 630.576,134.564 631.529,135.517 C632.483,136.471 634.029,136.471 634.982,135.517 L657.773,112.727 C658.727,111.773 658.727,110.227 657.773,109.273 L634.982,86.483 C634.029,85.529 632.483,85.529 631.529,86.483 C630.576,87.436 630.576,88.982 631.529,89.936 Z" />
        </g>
    </g>
</svg>