<?xml version="1.0" encoding="UTF-8"?>
<svg height="600" width="800" xmlns="http://www.w3.org/2000/svg" xmlns:xlink="http://www.w3.org/1999/xlink">
    <g id="Notes" font-family="'LucidaGrande', 'Lucida Grande', sans-serif" font-size="13">
        <rect fill="white" height="600.0" width="800.0" x="0.0" y="0.0" />
        <g font-size="13">
            <text x="18.0" y="176.0">Small</text>
            <text x="18.0" y="376.0">Medium</text>
            <text x="18.0" y="576.0">Large</text>
        </g>
        <g font-size="9">
            <text x="250.0" y="30.0">Ultralight</text>
            <text x="450.0" y="30.0">Regular</text>
            <text x="650.0" y="30.0">Black</text>
            <text id="template-version" fill="#505050" text-anchor="end" x="785.0" y="575.0">Template v.3.0</text>
            <a href="https://github.com/swhitty/SwiftDraw">
                <text fill="#505050" text-anchor="end" x="785.0" y="590.0">https://github.com/swhitty/SwiftDraw</text>
            </a>
        </g>
    </g>
    <g id="Guides" stroke="rgb(39, 170, 225)" stroke-width="0.5">
        <path id="Capline-S" d="M18,76 l800,0" />
        <path id="H-reference" d="M85,145.755 L87.685,145.755 L113.369,79.287 L114.052,79.287 L114.052,76 L112.148,76 L85,145.755 Z M95.693,121.536 L130.996,121.536 L130.263,119.313 L96.474,119.313 L95.693,121.536 Z M139.15,145.755 L141.787,145.755 L114.638,76 L113.466,76 L113.466,79.287 L139.15,145.755 Z" stroke="none" />
        <path id="Baseline-S" d="M18,146 l800,0" />
        <path id="left-margin-Ultralight-S" d="M220,56 l0,110" />
        <path id="right-margin-Ultralight-S" d="M310,56 l0,110" />
        <path id="left-margin-Regular-S" d="M420,56 l0,110" />
        <path id="right-margin-Regular-S" d="M510,56 l0,110" />
        <path id="left-margin-Black-S" d="M620,56 l0,110" />
        <path id="right-margin-Black-S" d="M710,56 l0,110" />
        <path id="Capline-M" d="M18,276 l800,0" />
        <path id="Baseline-M" d="M18,346 l800,0" />
        <path id="Capline-L" d="M18,476 l800,0" />
        <path id="Baseline-L" d="M18,546 l800,0" />
    </g>
    <g id="Symbols">
        <g id="Ultralight-S">
            <path d="M254.231,76 L236.282,76 C232.813,76 230,78.813 230,82.282 L230,100.231 C230,103.7 232.813,106.513 236.282,106.513 L254.231,106.513 C257.7,106.513 260.513,103.7 260.513,100.231 L260.513,82.282 C260.513,78.813 257.7,76 254.231,76 Z M254.231,81.385 C254.726,81.385 255.128,81.786 255.128,82.282 L255.128,100.231 C255.128,100.726 254.726,101.128 254.231,101.128 L236.282,101.128 C235.786,101.128 235.385,100.726 235.385,100.231 L235.385,82.282 C235.385,81.786 235.786,81.385 236.282,81.385 L254.231,81.385 Z" />
            <path d="M254.231,115.487 L236.282,115.487 C232.813,115.487 230,118.3 230,121.769 L230,139.718 C230,143.187 232.813,146 236.282,146 L254.231,146 C257.7,146 260.513,143.187 260.513,139.718 L260.513,121.769 C260.513,118.3 257.7,115.487 254.231,115.487 Z M254.231,120.872 C254.726,120.872 255.128,121.274 255.128,121.769 L255.128,139.718 C255.128,140.214 254.726,140.615 254.231,140.615 L236.282,140.615 C235.786,140.615 235.385,140.214 235.385,139.718 L235.385,121.769 C235.385,121.274 235.786,120.872 236.282,120.872 L254.231,120.872 Z" />
            <path d="M284.744,106.513 C293.169,106.513 300,99.682 300,91.256 C300,82.831 293.169,76 284.744,76 C276.318,76 269.487,82.831 269.487,91.256 C269.487,99.682 276.318,106.513 284.744,106.513 Z M284.744,101.128 C279.292,101.128 274.872,96.708 274.872,91.256 C274.872,85.804 279.292,81.385 284.744,81.385 C290.196,81.385 294.615,85.804 294.615,91.256 C294.615,96.708 290.196,101.128 284.744,101.128 Z" />
            <path d="M293.718,115.487 L275.769,115.487 C272.3,115.487 269.487,118.3 269.487,121.769 L269.487,139.718 C269.487,143.187 272.3,146 275.769,146 L293.718,146 C297.188,146 300,143.187 300,139.718 L300,121.769 C300,118.3 297.188,115.487 293.718,115.487 Z M293.718,120.872 C294.214,120.872 294.615,121.274 294.615,121.769 L294.615,139.718 C294.615,140.214 294.214,140.615 293.718,140.615 L275.769,140.615 C275.274,140.615 274.872,140.214 274.872,139.718 L274.872,121.769 C274.872,121.274 275.274,120.872 275.769,120.872 L293.718,120.872 Z" />
        </g>
        <g id="Regular-S">
            <path d="M454.231,76 L436.282,76 C432.813,76 430,78.813 430,82.282 L430,100.231 C430,103.7 432.813,106.513 436.282,106.513 L454.231,106.513 C457.7,106.513 460.513,103.7 460.513,100.231 L460.513,82.282 C460.513,78.813 457.7,76 454.231,76 Z M454.231,81.385 C454.726,81.385 455.128,81.786 455.128,82.282 L455.128,100.231 C455.128,100.726 454.726,101.128 454.231,101.128 L436.282,101.128 C435.786,101.128 435.385,100.726 435.385,100.231 L435.385,82.282 C435.385,81.786 435.786,81.385 436.282,81.385 L454.231,81.385 Z" />
            <path d="M454.231,115.487 L436.282,115.487 C432.813,115.487 430,118.3 430,121.769 L430,139.718 C430,143.187 432.813,146 436.282,146 L454.231,146 C457.7,146 460.513,143.187 460.513,139.718 L460.513,121.769 C460.513,118.3 457.7,115.487 454.231,115.487 Z M454.231,120.872 C454.726,120.872 455.128,121.274 455.128,121.769 L455.128,139.718 C455.128,140.214 454.726,140.615 454.231,140.615 L436.282,140.615 C435.786,140.615 435.385,140.214 435.385,139.718 L435.385,121.769 C435.385,121.274 435.786,120.872 436.282,120.872 L454.231,120.872 Z" />
            <path d="M484.744,106.513 C493.169,106.513 500,99.682 500,91.256 C500,82.831 493.169,76 484.744,76 C476.318,76 469.487,82.831 469.487,91.256 C469.487,99.682 476.318,106.513 484.744,106.513 Z M484.744,101.128 C479.292,101.128 474.872,96.708 474.872,91.256 C474.872,85.804 479.292,81.385 484.744,81.385 C490.196,81.385 494.615,85.804 494.615,91.256 C494.615,96.708 490.196,101.128 484.744,101.128 Z" />
            <path d="M493.718,115.487 L475.769,115.487 C472.3,115.487 469.487,118.3 469.487,121.769 L469.487,139.718 C469.487,143.187 472.3,146 475.769,146 L493.718,146 C497.187,146 500,143.187 500,139.718 L500,121.769 C500,118.3 497.187,115.487 493.718,115.487 Z M493.718,120.872 C494.214,120.872 494.615,121.274 494.615,121.769 L494.615,139.718 C494.615,140.214 494.214,140.615 493.718,140.615 L475.769,140.615 C475.274,140.615 474.872,140.214 474.872,139.718 L474.872,121.769 C474.872,121.274 475.274,120.872 475.769,120.872 L493.718,120.872 Z" />
        </g>
        <g id="Black-S">
            <path d="M654.231,76 L636.282,76 C632.813,76 630,78.813 630,82.282 L630,100.231 C630,103.7 632.813,106.513 636.282,106.513 L654.231,106.513 C657.7,106.513 660.513,103.7 660.513,100.231 L660.513,82.282 C660.513,78.813 657.7,76 654.231,76 Z M654.231,81.385 C654.726,81.385 655.128,81.786 655.128,82.282 L655.128,100.231 C655.128,100.726 654.727,101.128 654.231,101.128 L636.282,101.128 C635.786,101.128 635.385,100.726 635.385,100.231 L635.385,82.282 C635.385,81.786 635.786,81.385 636.282,81.385 L654.231,81.385 Z" />
            <path d="M654.231,115.487 L636.282,115.487 C632.813,115.487 630,118.3 630,121.769 L630,139.718 C630,143.187 632.813,146 636.282,146 L654.231,146 C657.7,146 660.513,143.187 660.513,139.718 L660.513,121.769 C660.513,118.3 657.7,115.487 654.231,115.487 Z M654.231,120.872 C654.727,120.872 655.128,121.274 655.128,121.769 L655.128,139.718 C655.128,140.214 654.727,140.615 654.231,140.615 L636.282,140.615 C635.786,140.615 635.385,140.214 635.385,139.718 L635.385,121.769 C635.385,121.274 635.786,120.872 636.282,120.872 L654.231,120.872 Z" />
            <path d="M684.744,106.513 C693.169,106.513 700,99.682 700,91.256 C700,82.831 693.169,76 684.744,76 C676.318,76 669.487,82.831 669.487,91.256 C669.487,99.682 676.318,106.513 684.744,106.513 Z M684.744,101.128 C679.292,101.128 674.872,96.708 674.872,91.256 C674.872,85.804 679.292,81.385 684.744,81.385 C690.196,81.385 694.615,85.804 694.615,91.256 C694.615,96.708 690.196,101.128 684.744,101.128 Z" />
            <path d="M693.718,115.487 L675.769,115.487 C672.3,115.487 669.487,118.3 669.487,121.769 L669.487,139.718 C669.487,143.187 672.3,146 675.769,146 L693.718,146 C697.188,146 700,143.187 700,139.718 L700,121.769 C700,118.3 697.188,115.487 693.718,115.487 Z M693.718,120.872 C694.214,120.872 694.615,121.274 694.615,121.769 L694.615,139.718 C694.615,140.214 694.214,140.615 693.718,140.615 L675.769,140.615 C675.274,140.615 674.872,140.214 674.872,139.718 L674.872,121.769 C674.872,121.274 675.274,120.872 675.769,120.872 L693.718,120.872 Z" />
        </g>
    </g>
</svg>