<?xml version="1.0" encoding="UTF-8"?>
<svg height="600" width="800" xmlns="http://www.w3.org/2000/svg" xmlns:xlink="http://www.w3.org/1999/xlink">
    <g id="Notes" font-family="'LucidaGrande', 'Lucida Grande', sans-serif" font-size="13">
        <rect fill="white" height="600.0" width="800.0" x="0.0" y="0.0" />
        <g font-size="13">
            <text x="18.0" y="176.0">Small</text>
            <text x="18.0" y="376.0">Medium</text>
            <text x="18.0" y="576.0">Large</text>
        </g>
        <g font-size="9">
            <text x="250.0" y="30.0">Ultralight</text>
            <text x="450.0" y="30.0">Regular</text>
            <text x="650.0" y="30.0">Black</text>
            <text id="template-version" fill="#505050" text-anchor="end" x="785.0" y="575.0">Template v.3.0</text>
            <a href="https://github.com/swhitty/SwiftDraw">
                <text fill="#505050" text-anchor="end" x="785.0" y="590.0">https://github.com/swhitty/SwiftDraw</text>
            </a>
        </g>
    </g>
    <g id="Guides" stroke="rgb(39, 170, 225)" stroke-width="0.5">
        <path id="Capline-S" d="M18,76 l800,0" />
        <path id="H-reference" d="M85,145.755 L87.685,145.755 L113.369,79.287 L114.052,79.287 L114.052,76 L112.148,76 L85,145.755 Z M95.693,121.536 L130.996,121.536 L130.263,119.313 L96.474,119.313 L95.693,121.536 Z M139.15,145.755 L141.787,145.755 L114.638,76 L113.466,76 L113.466,79.287 L139.15,145.755 Z" stroke="none" />
        <path id="Baseline-S" d="M18,146 l800,0" />
        <path id="left-margin-Ultralight-S" d="M220,56 l0,110" />
        <path id="right-margin-Ultralight-S" d="M310,56 l0,110" />
        <path id="left-margin-Regular-S" d="M420,56 l0,110" />
        <path id="right-margin-Regular-S" d="M510,56 l0,110" />
        <path id="left-margin-Black-S" d="M620,56 l0,110" />
        <path id="right-margin-Black-S" d="M710,56 l0,110" />
        <path id="Capline-M" d="M18,276 l800,0" />
        <path id="Baseline-M" d="M18,346 l800,0" />
        <path id="Capline-L" d="M18,476 l800,0" />
        <path id="Baseline-L" d="M18,546 l800,0" />
    </g>
    <g id="Symbols">
        <g id="Ultralight-S">
            <path d="M294.024,80.268 L286.195,80.268 C284.674,80.268 283.912,82.107 284.988,83.183 L292.817,91.012 C293.893,92.088 295.732,91.326 295.732,89.805 L295.732,81.976 C295.732,81.033 294.967,80.268 294.024,80.268 Z" />
            <path d="M235.976,145.146 L243.805,145.146 C245.326,145.146 246.088,143.307 245.012,142.232 L237.183,134.402 C236.107,133.327 234.268,134.089 234.268,135.61 L234.268,143.439 C234.268,144.382 235.033,145.146 235.976,145.146 Z" />
            <path d="M243.659,78.561 L243.659,126.366 C243.659,129.666 246.334,132.341 249.634,132.341 L297.439,132.341 C298.853,132.341 300,131.195 300,129.78 C300,128.366 298.853,127.22 297.439,127.22 L249.634,127.22 C249.163,127.22 248.78,126.837 248.78,126.366 L248.78,78.561 C248.78,77.147 247.634,76 246.22,76 C244.805,76 243.659,77.147 243.659,78.561 Z" />
            <path d="M258.171,96.488 L282.073,96.488 L279.512,93.927 L279.512,117.829 C279.512,119.244 280.659,120.39 282.073,120.39 C283.488,120.39 284.634,119.244 284.634,117.829 L284.634,93.927 C284.634,92.512 283.488,91.366 282.073,91.366 L258.171,91.366 C256.756,91.366 255.61,92.512 255.61,93.927 C255.61,95.341 256.756,96.488 258.171,96.488 Z" />
            <path d="M246.22,91.366 L232.561,91.366 C231.147,91.366 230,92.512 230,93.927 C230,95.341 231.147,96.488 232.561,96.488 L246.22,96.488 C247.634,96.488 248.78,95.341 248.78,93.927 C248.78,92.512 247.634,91.366 246.22,91.366 Z" />
            <path d="M286.341,143.439 L286.341,129.78 C286.341,128.366 285.195,127.22 283.78,127.22 C282.366,127.22 281.22,128.366 281.22,129.78 L281.22,143.439 C281.22,144.853 282.366,146 283.78,146 C285.195,146 286.341,144.853 286.341,143.439 Z" />
        </g>
        <g id="Regular-S">
            <path d="M494.024,80.268 L486.195,80.268 C484.674,80.268 483.912,82.107 484.988,83.183 L492.817,91.012 C493.893,92.088 495.732,91.326 495.732,89.805 L495.732,81.976 C495.732,81.033 494.967,80.268 494.024,80.268 Z" />
            <path d="M435.976,145.146 L443.805,145.146 C445.326,145.146 446.088,143.307 445.012,142.232 L437.183,134.402 C436.107,133.327 434.268,134.089 434.268,135.61 L434.268,143.439 C434.268,144.382 435.033,145.146 435.976,145.146 Z" />
            <path d="M443.659,78.561 L443.659,126.366 C443.659,129.666 446.334,132.341 449.634,132.341 L497.439,132.341 C498.853,132.341 500,131.195 500,129.78 C500,128.366 498.853,127.22 497.439,127.22 L449.634,127.22 C449.163,127.22 448.78,126.837 448.78,126.366 L448.78,78.561 C448.78,77.147 447.634,76 446.22,76 C444.805,76 443.659,77.147 443.659,78.561 Z" />
            <path d="M458.171,96.488 L482.073,96.488 L479.512,93.927 L479.512,117.829 C479.512,119.244 480.659,120.39 482.073,120.39 C483.488,120.39 484.634,119.244 484.634,117.829 L484.634,93.927 C484.634,92.512 483.488,91.366 482.073,91.366 L458.171,91.366 C456.756,91.366 455.61,92.512 455.61,93.927 C455.61,95.341 456.756,96.488 458.171,96.488 Z" />
            <path d="M446.22,91.366 L432.561,91.366 C431.147,91.366 430,92.512 430,93.927 C430,95.341 431.147,96.488 432.561,96.488 L446.22,96.488 C447.634,96.488 448.78,95.341 448.78,93.927 C448.78,92.512 447.634,91.366 446.22,91.366 Z" />
            <path d="M486.341,143.439 L486.341,129.78 C486.341,128.366 485.195,127.22 483.78,127.22 C482.366,127.22 481.22,128.366 481.22,129.78 L481.22,143.439 C481.22,144.853 482.366,146 483.78,146 C485.195,146 486.341,144.853 486.341,143.439 Z" />
        </g>
        <g id="Black-S">
            <path d="M694.024,80.268 L686.195,80.268 C684.674,80.268 683.912,82.107 684.988,83.183 L692.817,91.012 C693.893,92.088 695.732,91.326 695.732,89.805 L695.732,81.976 C695.732,81.033 694.967,80.268 694.024,80.268 Z" />
            <path d="M635.976,145.146 L643.805,145.146 C645.326,145.146 646.088,143.307 645.012,142.232 L637.183,134.402 C636.107,133.327 634.268,134.089 634.268,135.61 L634.268,143.439 C634.268,144.382 635.033,145.146 635.976,145.146 Z" />
            <path d="M643.659,78.561 L643.659,126.366 C643.659,129.666 646.334,132.341 649.634,132.341 L697.439,132.341 C698.853,132.341 700,131.195 700,129.78 C700,128.366 698.853,127.22 697.439,127.22 L649.634,127.22 C649.163,127.22 648.781,126.837 648.781,126.366 L648.781,78.561 C648.781,77.147 647.634,76 646.22,76 C644.805,76 643.659,77.147 643.659,78.561 Z" />
            <path d="M658.171,96.488 L682.073,96.488 L679.512,93.927 L679.512,117.829 C679.512,119.244 680.659,120.39 682.073,120.39 C683.488,120.39 684.634,119.244 684.634,117.829 L684.634,93.927 C684.634,92.512 683.488,91.366 682.073,91.366 L658.171,91.366 C656.756,91.366 655.61,92.512 655.61,93.927 C655.61,95.341 656.756,96.488 658.171,96.488 Z" />
            <path d="M646.22,91.366 L632.561,91.366 C631.147,91.366 630,92.512 630,93.927 C630,95.341 631.147,96.488 632.561,96.488 L646.22,96.488 C647.634,96.488 648.781,95.341 648.781,93.927 C648.781,92.512 647.634,91.366 646.22,91.366 Z" />
            <path d="M686.341,143.439 L686.341,129.78 C686.341,128.366 685.195,127.22 683.781,127.22 C682.366,127.22 681.22,128.366 681.22,129.78 L681.22,143.439 C681.22,144.853 682.366,146 683.781,146 C685.195,146 686.341,144.853 686.341,143.439 Z" />
        </g>
    </g>
</svg>