<?xml version="1.0" encoding="UTF-8"?>
<svg height="600" width="800" xmlns="http://www.w3.org/2000/svg" xmlns:xlink="http://www.w3.org/1999/xlink">
    <g id="Notes" font-family="'LucidaGrande', 'Lucida Grande', sans-serif" font-size="13">
        <rect fill="white" height="600.0" width="800.0" x="0.0" y="0.0" />
        <g font-size="13">
            <text x="18.0" y="176.0">Small</text>
            <text x="18.0" y="376.0">Medium</text>
            <text x="18.0" y="576.0">Large</text>
        </g>
        <g font-size="9">
            <text x="250.0" y="30.0">Ultralight</text>
            <text x="450.0" y="30.0">Regular</text>
            <text x="650.0" y="30.0">Black</text>
            <text id="template-version" fill="#505050" text-anchor="end" x="785.0" y="575.0">Template v.3.0</text>
            <a href="https://github.com/swhitty/SwiftDraw">
                <text fill="#505050" text-anchor="end" x="785.0" y="590.0">https://github.com/swhitty/SwiftDraw</text>
            </a>
        </g>
    </g>
    <g id="Guides" stroke="rgb(39, 170, 225)" stroke-width="0.5">
        <path id="Capline-S" d="M18,76 l800,0" />
        <path id="H-reference" d="M85,145.755 L87.685,145.755 L113.369,79.287 L114.052,79.287 L114.052,76 L112.148,76 L85,145.755 Z M95.693,121.536 L130.996,121.536 L130.263,119.313 L96.474,119.313 L95.693,121.536 Z M139.15,145.755 L141.787,145.755 L114.638,76 L113.466,76 L113.466,79.287 L139.15,145.755 Z" stroke="none" />
        <path id="Baseline-S" d="M18,146 l800,0" />
        <path id="left-margin-Ultralight-S" d="M221,56 l0,110" />
        <path id="right-margin-Ultralight-S" d="M309,56 l0,110" />
        <path id="left-margin-Regular-S" d="M421,56 l0,110" />
        <path id="right-margin-Regular-S" d="M509,56 l0,110" />
        <path id="left-margin-Black-S" d="M621,56 l0,110" />
        <path id="right-margin-Black-S" d="M709,56 l0,110" />
        <path id="Capline-M" d="M18,276 l800,0" />
        <path id="Baseline-M" d="M18,346 l800,0" />
        <path id="Capline-L" d="M18,476 l800,0" />
        <path id="Baseline-L" d="M18,546 l800,0" />
    </g>
    <g id="Symbols">
        <g id="Ultralight-S">
            <path d="M255.233,80.884 L274.767,80.884 C276.116,80.884 277.209,79.79 277.209,78.442 C277.209,77.093 276.116,76 274.767,76 L255.233,76 C253.884,76 252.791,77.093 252.791,78.442 C252.791,79.79 253.884,80.884 255.233,80.884 Z" />
            <path d="M265,146 C271.743,146 277.209,140.534 277.209,133.791 L277.209,88.209 C277.209,86.861 276.116,85.767 274.767,85.767 L255.233,85.767 C253.884,85.767 252.791,86.861 252.791,88.209 L252.791,133.791 C252.791,140.534 258.257,146 265,146 Z M265,141.116 C260.954,141.116 257.674,137.836 257.674,133.791 L257.674,88.209 L255.233,90.651 L274.767,90.651 L272.326,88.209 L272.326,133.791 C272.326,137.836 269.046,141.116 265,141.116 Z" />
            <path d="M262.558,115.884 L262.558,117.512 C262.558,118.86 263.651,119.953 265,119.953 C266.349,119.953 267.442,118.86 267.442,117.512 L267.442,115.884 C267.442,114.535 266.349,113.442 265,113.442 C263.651,113.442 262.558,114.535 262.558,115.884 Z" />
            <path d="M262.558,101.233 L262.558,106.116 C262.558,107.465 263.651,108.558 265,108.558 C266.349,108.558 267.442,107.465 267.442,106.116 L267.442,101.233 C267.442,99.884 266.349,98.791 265,98.791 C263.651,98.791 262.558,99.884 262.558,101.233 Z" />
            <path d="M256.86,131.349 L274.767,131.349 C276.116,131.349 277.209,130.256 277.209,128.907 C277.209,127.558 276.116,126.465 274.767,126.465 L256.86,126.465 C255.512,126.465 254.419,127.558 254.419,128.907 C254.419,130.256 255.512,131.349 256.86,131.349 Z" />
        </g>
        <g id="Regular-S">
            <path d="M455.233,80.884 L474.767,80.884 C476.116,80.884 477.209,79.79 477.209,78.442 C477.209,77.093 476.116,76 474.767,76 L455.233,76 C453.884,76 452.791,77.093 452.791,78.442 C452.791,79.79 453.884,80.884 455.233,80.884 Z" />
            <path d="M465,146 C471.743,146 477.209,140.534 477.209,133.791 L477.209,88.209 C477.209,86.861 476.116,85.767 474.767,85.767 L455.233,85.767 C453.884,85.767 452.791,86.861 452.791,88.209 L452.791,133.791 C452.791,140.534 458.257,146 465,146 Z M465,141.116 C460.954,141.116 457.674,137.836 457.674,133.791 L457.674,88.209 L455.233,90.651 L474.767,90.651 L472.326,88.209 L472.326,133.791 C472.326,137.836 469.046,141.116 465,141.116 Z" />
            <path d="M462.558,115.884 L462.558,117.512 C462.558,118.86 463.651,119.953 465,119.953 C466.349,119.953 467.442,118.86 467.442,117.512 L467.442,115.884 C467.442,114.535 466.349,113.442 465,113.442 C463.651,113.442 462.558,114.535 462.558,115.884 Z" />
            <path d="M462.558,101.233 L462.558,106.116 C462.558,107.465 463.651,108.558 465,108.558 C466.349,108.558 467.442,107.465 467.442,106.116 L467.442,101.233 C467.442,99.884 466.349,98.791 465,98.791 C463.651,98.791 462.558,99.884 462.558,101.233 Z" />
            <path d="M456.86,131.349 L474.767,131.349 C476.116,131.349 477.209,130.256 477.209,128.907 C477.209,127.558 476.116,126.465 474.767,126.465 L456.86,126.465 C455.512,126.465 454.419,127.558 454.419,128.907 C454.419,130.256 455.512,131.349 456.86,131.349 Z" />
        </g>
        <g id="Black-S">
            <path d="M655.233,80.884 L674.767,80.884 C676.116,80.884 677.209,79.79 677.209,78.442 C677.209,77.093 676.116,76 674.767,76 L655.233,76 C653.884,76 652.791,77.093 652.791,78.442 C652.791,79.79 653.884,80.884 655.233,80.884 Z" />
            <path d="M665,146 C671.743,146 677.209,140.534 677.209,133.791 L677.209,88.209 C677.209,86.861 676.116,85.767 674.767,85.767 L655.233,85.767 C653.884,85.767 652.791,86.861 652.791,88.209 L652.791,133.791 C652.791,140.534 658.257,146 665,146 Z M665,141.116 C660.954,141.116 657.674,137.836 657.674,133.791 L657.674,88.209 L655.233,90.651 L674.767,90.651 L672.326,88.209 L672.326,133.791 C672.326,137.836 669.046,141.116 665,141.116 Z" />
            <path d="M662.558,115.884 L662.558,117.512 C662.558,118.86 663.651,119.953 665,119.953 C666.349,119.953 667.442,118.86 667.442,117.512 L667.442,115.884 C667.442,114.535 666.349,113.442 665,113.442 C663.651,113.442 662.558,114.535 662.558,115.884 Z" />
            <path d="M662.558,101.233 L662.558,106.116 C662.558,107.465 663.651,108.558 665,108.558 C666.349,108.558 667.442,107.465 667.442,106.116 L667.442,101.233 C667.442,99.884 666.349,98.791 665,98.791 C663.651,98.791 662.558,99.884 662.558,101.233 Z" />
            <path d="M656.86,131.349 L674.767,131.349 C676.116,131.349 677.209,130.256 677.209,128.907 C677.209,127.558 676.116,126.465 674.767,126.465 L656.86,126.465 C655.512,126.465 654.419,127.558 654.419,128.907 C654.419,130.256 655.512,131.349 656.86,131.349 Z" />
        </g>
    </g>
</svg>