<?xml version="1.0" encoding="UTF-8"?>
<svg height="600" width="800" xmlns="http://www.w3.org/2000/svg" xmlns:xlink="http://www.w3.org/1999/xlink">
    <g id="Notes" font-family="'LucidaGrande', 'Lucida Grande', sans-serif" font-size="13">
        <rect fill="white" height="600.0" width="800.0" x="0.0" y="0.0" />
        <g font-size="13">
            <text x="18.0" y="176.0">Small</text>
            <text x="18.0" y="376.0">Medium</text>
            <text x="18.0" y="576.0">Large</text>
        </g>
        <g font-size="9">
            <text x="250.0" y="30.0">Ultralight</text>
            <text x="450.0" y="30.0">Regular</text>
            <text x="650.0" y="30.0">Black</text>
            <text id="template-version" fill="#505050" text-anchor="end" x="785.0" y="575.0">Template v.3.0</text>
            <a href="https://github.com/swhitty/SwiftDraw">
                <text fill="#505050" text-anchor="end" x="785.0" y="590.0">https://github.com/swhitty/SwiftDraw</text>
            </a>
        </g>
    </g>
    <g id="Guides" stroke="rgb(39, 170, 225)" stroke-width="0.5">
        <path id="Capline-S" d="M18,76 l800,0" />
        <path id="H-reference" d="M85,145.755 L87.685,145.755 L113.369,79.287 L114.052,79.287 L114.052,76 L112.148,76 L85,145.755 Z M95.693,121.536 L130.996,121.536 L130.263,119.313 L96.474,119.313 L95.693,121.536 Z M139.15,145.755 L141.787,145.755 L114.638,76 L113.466,76 L113.466,79.287 L139.15,145.755 Z" stroke="none" />
        <path id="Baseline-S" d="M18,146 l800,0" />
        <path id="left-margin-Ultralight-S" d="M220,56 l0,110" />
        <path id="right-margin-Ultralight-S" d="M310,56 l0,110" />
        <path id="left-margin-Regular-S" d="M420,56 l0,110" />
        <path id="right-margin-Regular-S" d="M510,56 l0,110" />
        <path id="left-margin-Black-S" d="M620,56 l0,110" />
        <path id="right-margin-Black-S" d="M710,56 l0,110" />
        <path id="Capline-M" d="M18,276 l800,0" />
        <path id="Baseline-M" d="M18,346 l800,0" />
        <path id="Capline-L" d="M18,476 l800,0" />
        <path id="Baseline-L" d="M18,546 l800,0" />
    </g>
    <g id="Symbols">
        <g id="Ultralight-S">
            <path d="M291.047,76 L238.953,76 C234.009,76 230,80.009 230,84.953 L230,137.047 C230,141.991 234.009,146 238.953,146 L291.047,146 C295.991,146 300,141.991 300,137.047 L300,84.953 C300,80.009 295.991,76 291.047,76 Z M291.047,80.884 C293.294,80.884 295.116,82.706 295.116,84.953 L295.116,137.047 C295.116,139.294 293.294,141.116 291.047,141.116 L238.953,141.116 C236.706,141.116 234.884,139.294 234.884,137.047 L234.884,84.953 C234.884,82.706 236.706,80.884 238.953,80.884 L291.047,80.884 Z" />
            <path d="M243.023,91.465 L243.023,104.488 C243.023,105.837 244.117,106.93 245.465,106.93 C246.814,106.93 247.907,105.837 247.907,104.488 L247.907,91.465 C247.907,90.117 246.814,89.023 245.465,89.023 C244.117,89.023 243.023,90.117 243.023,91.465 Z" />
            <path d="M269.07,117.512 L269.07,130.535 C269.07,131.883 270.163,132.977 271.512,132.977 C272.86,132.977 273.953,131.883 273.953,130.535 L273.953,117.512 C273.953,116.163 272.86,115.07 271.512,115.07 C270.163,115.07 269.07,116.163 269.07,117.512 Z" />
            <path d="M256.047,91.465 L256.047,104.488 C256.047,105.837 257.14,106.93 258.488,106.93 C259.837,106.93 260.93,105.837 260.93,104.488 L260.93,91.465 C260.93,90.117 259.837,89.023 258.488,89.023 C257.14,89.023 256.047,90.117 256.047,91.465 Z" />
            <path d="M271.512,93.907 L284.535,93.907 C285.883,93.907 286.977,92.814 286.977,91.465 C286.977,90.117 285.883,89.023 284.535,89.023 L271.512,89.023 C270.163,89.023 269.07,90.117 269.07,91.465 C269.07,92.814 270.163,93.907 271.512,93.907 Z" />
            <path d="M245.465,119.953 L258.488,119.953 C259.837,119.953 260.93,118.86 260.93,117.512 C260.93,116.163 259.837,115.07 258.488,115.07 L245.465,115.07 C244.117,115.07 243.023,116.163 243.023,117.512 C243.023,118.86 244.117,119.953 245.465,119.953 Z" />
            <path d="M271.512,106.93 L284.535,106.93 C285.883,106.93 286.977,105.837 286.977,104.488 C286.977,103.14 285.883,102.047 284.535,102.047 L271.512,102.047 C270.163,102.047 269.07,103.14 269.07,104.488 C269.07,105.837 270.163,106.93 271.512,106.93 Z" />
            <path d="M245.465,132.977 L258.488,132.977 C259.837,132.977 260.93,131.883 260.93,130.535 C260.93,129.186 259.837,128.093 258.488,128.093 L245.465,128.093 C244.117,128.093 243.023,129.186 243.023,130.535 C243.023,131.883 244.117,132.977 245.465,132.977 Z" />
            <path d="M282.093,117.512 L282.093,130.535 C282.093,131.883 283.186,132.977 284.535,132.977 C285.883,132.977 286.977,131.883 286.977,130.535 L286.977,117.512 C286.977,116.163 285.883,115.07 284.535,115.07 C283.186,115.07 282.093,116.163 282.093,117.512 Z" />
        </g>
        <g id="Regular-S">
            <path d="M491.047,76 L438.953,76 C434.009,76 430,80.009 430,84.953 L430,137.047 C430,141.991 434.009,146 438.953,146 L491.047,146 C495.991,146 500,141.991 500,137.047 L500,84.953 C500,80.009 495.991,76 491.047,76 Z M491.047,80.884 C493.294,80.884 495.116,82.706 495.116,84.953 L495.116,137.047 C495.116,139.294 493.294,141.116 491.047,141.116 L438.953,141.116 C436.706,141.116 434.884,139.294 434.884,137.047 L434.884,84.953 C434.884,82.706 436.706,80.884 438.953,80.884 L491.047,80.884 Z" />
            <path d="M443.023,91.465 L443.023,104.488 C443.023,105.837 444.117,106.93 445.465,106.93 C446.814,106.93 447.907,105.837 447.907,104.488 L447.907,91.465 C447.907,90.117 446.814,89.023 445.465,89.023 C444.117,89.023 443.023,90.117 443.023,91.465 Z" />
            <path d="M469.07,117.512 L469.07,130.535 C469.07,131.883 470.163,132.977 471.512,132.977 C472.86,132.977 473.953,131.883 473.953,130.535 L473.953,117.512 C473.953,116.163 472.86,115.07 471.512,115.07 C470.163,115.07 469.07,116.163 469.07,117.512 Z" />
            <path d="M456.047,91.465 L456.047,104.488 C456.047,105.837 457.14,106.93 458.488,106.93 C459.837,106.93 460.93,105.837 460.93,104.488 L460.93,91.465 C460.93,90.117 459.837,89.023 458.488,89.023 C457.14,89.023 456.047,90.117 456.047,91.465 Z" />
            <path d="M471.512,93.907 L484.535,93.907 C485.883,93.907 486.977,92.814 486.977,91.465 C486.977,90.117 485.883,89.023 484.535,89.023 L471.512,89.023 C470.163,89.023 469.07,90.117 469.07,91.465 C469.07,92.814 470.163,93.907 471.512,93.907 Z" />
            <path d="M445.465,119.953 L458.488,119.953 C459.837,119.953 460.93,118.86 460.93,117.512 C460.93,116.163 459.837,115.07 458.488,115.07 L445.465,115.07 C444.117,115.07 443.023,116.163 443.023,117.512 C443.023,118.86 444.117,119.953 445.465,119.953 Z" />
            <path d="M471.512,106.93 L484.535,106.93 C485.883,106.93 486.977,105.837 486.977,104.488 C486.977,103.14 485.883,102.047 484.535,102.047 L471.512,102.047 C470.163,102.047 469.07,103.14 469.07,104.488 C469.07,105.837 470.163,106.93 471.512,106.93 Z" />
            <path d="M445.465,132.977 L458.488,132.977 C459.837,132.977 460.93,131.883 460.93,130.535 C460.93,129.186 459.837,128.093 458.488,128.093 L445.465,128.093 C444.117,128.093 443.023,129.186 443.023,130.535 C443.023,131.883 444.117,132.977 445.465,132.977 Z" />
            <path d="M482.093,117.512 L482.093,130.535 C482.093,131.883 483.186,132.977 484.535,132.977 C485.883,132.977 486.977,131.883 486.977,130.535 L486.977,117.512 C486.977,116.163 485.883,115.07 484.535,115.07 C483.186,115.07 482.093,116.163 482.093,117.512 Z" />
        </g>
        <g id="Black-S">
            <path d="M691.047,76 L638.953,76 C634.009,76 630,80.009 630,84.953 L630,137.047 C630,141.991 634.009,146 638.953,146 L691.047,146 C695.991,146 700,141.991 700,137.047 L700,84.953 C700,80.009 695.991,76 691.047,76 Z M691.047,80.884 C693.294,80.884 695.116,82.706 695.116,84.953 L695.116,137.047 C695.116,139.294 693.294,141.116 691.047,141.116 L638.953,141.116 C636.706,141.116 634.884,139.294 634.884,137.047 L634.884,84.953 C634.884,82.706 636.706,80.884 638.953,80.884 L691.047,80.884 Z" />
            <path d="M643.023,91.465 L643.023,104.488 C643.023,105.837 644.117,106.93 645.465,106.93 C646.814,106.93 647.907,105.837 647.907,104.488 L647.907,91.465 C647.907,90.117 646.814,89.023 645.465,89.023 C644.117,89.023 643.023,90.117 643.023,91.465 Z" />
            <path d="M669.07,117.512 L669.07,130.535 C669.07,131.883 670.163,132.977 671.512,132.977 C672.86,132.977 673.953,131.883 673.953,130.535 L673.953,117.512 C673.953,116.163 672.86,115.07 671.512,115.07 C670.163,115.07 669.07,116.163 669.07,117.512 Z" />
            <path d="M656.047,91.465 L656.047,104.488 C656.047,105.837 657.14,106.93 658.488,106.93 C659.837,106.93 660.93,105.837 660.93,104.488 L660.93,91.465 C660.93,90.117 659.837,89.023 658.488,89.023 C657.14,89.023 656.047,90.117 656.047,91.465 Z" />
            <path d="M671.512,93.907 L684.535,93.907 C685.883,93.907 686.977,92.814 686.977,91.465 C686.977,90.117 685.883,89.023 684.535,89.023 L671.512,89.023 C670.163,89.023 669.07,90.117 669.07,91.465 C669.07,92.814 670.163,93.907 671.512,93.907 Z" />
            <path d="M645.465,119.953 L658.488,119.953 C659.837,119.953 660.93,118.86 660.93,117.512 C660.93,116.163 659.837,115.07 658.488,115.07 L645.465,115.07 C644.117,115.07 643.023,116.163 643.023,117.512 C643.023,118.86 644.117,119.953 645.465,119.953 Z" />
            <path d="M671.512,106.93 L684.535,106.93 C685.883,106.93 686.977,105.837 686.977,104.488 C686.977,103.14 685.883,102.047 684.535,102.047 L671.512,102.047 C670.163,102.047 669.07,103.14 669.07,104.488 C669.07,105.837 670.163,106.93 671.512,106.93 Z" />
            <path d="M645.465,132.977 L658.488,132.977 C659.837,132.977 660.93,131.883 660.93,130.535 C660.93,129.186 659.837,128.093 658.488,128.093 L645.465,128.093 C644.117,128.093 643.023,129.186 643.023,130.535 C643.023,131.883 644.117,132.977 645.465,132.977 Z" />
            <path d="M682.093,117.512 L682.093,130.535 C682.093,131.883 683.186,132.977 684.535,132.977 C685.883,132.977 686.977,131.883 686.977,130.535 L686.977,117.512 C686.977,116.163 685.883,115.07 684.535,115.07 C683.186,115.07 682.093,116.163 682.093,117.512 Z" />
        </g>
    </g>
</svg>