<?xml version="1.0" encoding="UTF-8"?>
<svg height="600" width="800" xmlns="http://www.w3.org/2000/svg" xmlns:xlink="http://www.w3.org/1999/xlink">
    <g id="Notes" font-family="'LucidaGrande', 'Lucida Grande', sans-serif" font-size="13">
        <rect fill="white" height="600.0" width="800.0" x="0.0" y="0.0" />
        <g font-size="13">
            <text x="18.0" y="176.0">Small</text>
            <text x="18.0" y="376.0">Medium</text>
            <text x="18.0" y="576.0">Large</text>
        </g>
        <g font-size="9">
            <text x="250.0" y="30.0">Ultralight</text>
            <text x="450.0" y="30.0">Regular</text>
            <text x="650.0" y="30.0">Black</text>
            <text id="template-version" fill="#505050" text-anchor="end" x="785.0" y="575.0">Template v.3.0</text>
            <a href="https://github.com/swhitty/SwiftDraw">
                <text fill="#505050" text-anchor="end" x="785.0" y="590.0">https://github.com/swhitty/SwiftDraw</text>
            </a>
        </g>
    </g>
    <g id="Guides" stroke="rgb(39, 170, 225)" stroke-width="0.5">
        <path id="Capline-S" d="M18,76 l800,0" />
        <path id="H-reference" d="M85,145.755 L87.685,145.755 L113.369,79.287 L114.052,79.287 L114.052,76 L112.148,76 L85,145.755 Z M95.693,121.536 L130.996,121.536 L130.263,119.313 L96.474,119.313 L95.693,121.536 Z M139.15,145.755 L141.787,145.755 L114.638,76 L113.466,76 L113.466,79.287 L139.15,145.755 Z" stroke="none" />
        <path id="Baseline-S" d="M18,146 l800,0" />
        <path id="left-margin-Ultralight-S" d="M221,56 l0,110" />
        <path id="right-margin-Ultralight-S" d="M309,56 l0,110" />
        <path id="left-margin-Regular-S" d="M421,56 l0,110" />
        <path id="right-margin-Regular-S" d="M509,56 l0,110" />
        <path id="left-margin-Black-S" d="M621,56 l0,110" />
        <path id="right-margin-Black-S" d="M709,56 l0,110" />
        <path id="Capline-M" d="M18,276 l800,0" />
        <path id="Baseline-M" d="M18,346 l800,0" />
        <path id="Capline-L" d="M18,476 l800,0" />
        <path id="Baseline-L" d="M18,546 l800,0" />
    </g>
    <g id="Symbols">
        <g id="Ultralight-S">
            <path d="M251.977,80.884 C259.414,80.884 262.558,85.774 262.558,91.465 C262.558,93.602 262.558,93.602 262.558,98.485 C262.558,104.285 262.558,104.285 262.558,111 C262.558,117.715 262.558,117.715 262.558,123.515 C262.558,128.398 262.558,128.398 262.558,130.535 C262.558,136.226 259.414,141.116 251.977,141.116 C250.628,141.116 249.535,142.21 249.535,143.558 C249.535,144.907 250.628,146 251.977,146 C262.679,146 267.442,138.591 267.442,130.535 C267.442,128.398 267.442,128.398 267.442,123.515 C267.442,117.715 267.442,117.715 267.442,111 C267.442,104.285 267.442,104.285 267.442,98.485 C267.442,93.602 267.442,93.602 267.442,91.465 C267.442,83.409 262.679,76 251.977,76 C250.628,76 249.535,77.093 249.535,78.442 C249.535,79.79 250.628,80.884 251.977,80.884 Z" />
            <path d="M278.023,76 C268.557,76 262.558,84.398 262.558,91.465 C262.558,93.602 262.558,93.602 262.558,98.485 C262.558,104.285 262.558,104.285 262.558,111 C262.558,117.715 262.558,117.715 262.558,123.515 C262.558,128.398 262.558,128.398 262.558,130.535 C262.558,138.591 267.321,146 278.023,146 C279.372,146 280.465,144.907 280.465,143.558 C280.465,142.21 279.372,141.116 278.023,141.116 C270.586,141.116 267.442,136.226 267.442,130.535 C267.442,128.398 267.442,128.398 267.442,123.515 C267.442,117.715 267.442,117.715 267.442,111 C267.442,104.285 267.442,104.285 267.442,98.485 C267.442,93.602 267.442,93.602 267.442,91.465 C267.442,86.811 271.676,80.884 278.023,80.884 C279.372,80.884 280.465,79.79 280.465,78.442 C280.465,77.093 279.372,76 278.023,76 Z" />
            <path d="M253.605,113.442 L276.395,113.442 C277.744,113.442 278.837,112.349 278.837,111 C278.837,109.651 277.744,108.558 276.395,108.558 L253.605,108.558 C252.256,108.558 251.163,109.651 251.163,111 C251.163,112.349 252.256,113.442 253.605,113.442 Z" />
        </g>
        <g id="Regular-S">
            <path d="M451.977,80.884 C459.414,80.884 462.558,85.774 462.558,91.465 C462.558,93.602 462.558,93.602 462.558,98.485 C462.558,104.285 462.558,104.285 462.558,111 C462.558,117.715 462.558,117.715 462.558,123.515 C462.558,128.398 462.558,128.398 462.558,130.535 C462.558,136.226 459.414,141.116 451.977,141.116 C450.628,141.116 449.535,142.21 449.535,143.558 C449.535,144.907 450.628,146 451.977,146 C462.679,146 467.442,138.591 467.442,130.535 C467.442,128.398 467.442,128.398 467.442,123.515 C467.442,117.715 467.442,117.715 467.442,111 C467.442,104.285 467.442,104.285 467.442,98.485 C467.442,93.602 467.442,93.602 467.442,91.465 C467.442,83.409 462.679,76 451.977,76 C450.628,76 449.535,77.093 449.535,78.442 C449.535,79.79 450.628,80.884 451.977,80.884 Z" />
            <path d="M478.023,76 C468.557,76 462.558,84.398 462.558,91.465 C462.558,93.602 462.558,93.602 462.558,98.485 C462.558,104.285 462.558,104.285 462.558,111 C462.558,117.715 462.558,117.715 462.558,123.515 C462.558,128.398 462.558,128.398 462.558,130.535 C462.558,138.591 467.321,146 478.023,146 C479.372,146 480.465,144.907 480.465,143.558 C480.465,142.21 479.372,141.116 478.023,141.116 C470.586,141.116 467.442,136.226 467.442,130.535 C467.442,128.398 467.442,128.398 467.442,123.515 C467.442,117.715 467.442,117.715 467.442,111 C467.442,104.285 467.442,104.285 467.442,98.485 C467.442,93.602 467.442,93.602 467.442,91.465 C467.442,86.811 471.676,80.884 478.023,80.884 C479.372,80.884 480.465,79.79 480.465,78.442 C480.465,77.093 479.372,76 478.023,76 Z" />
            <path d="M453.605,113.442 L476.395,113.442 C477.744,113.442 478.837,112.349 478.837,111 C478.837,109.651 477.744,108.558 476.395,108.558 L453.605,108.558 C452.256,108.558 451.163,109.651 451.163,111 C451.163,112.349 452.256,113.442 453.605,113.442 Z" />
        </g>
        <g id="Black-S">
            <path d="M651.977,80.884 C659.414,80.884 662.558,85.774 662.558,91.465 C662.558,93.602 662.558,93.602 662.558,98.485 C662.558,104.285 662.558,104.285 662.558,111 C662.558,117.715 662.558,117.715 662.558,123.515 C662.558,128.398 662.558,128.398 662.558,130.535 C662.558,136.226 659.414,141.116 651.977,141.116 C650.628,141.116 649.535,142.21 649.535,143.558 C649.535,144.907 650.628,146 651.977,146 C662.679,146 667.442,138.591 667.442,130.535 C667.442,128.398 667.442,128.398 667.442,123.515 C667.442,117.715 667.442,117.715 667.442,111 C667.442,104.285 667.442,104.285 667.442,98.485 C667.442,93.602 667.442,93.602 667.442,91.465 C667.442,83.409 662.679,76 651.977,76 C650.628,76 649.535,77.093 649.535,78.442 C649.535,79.79 650.628,80.884 651.977,80.884 Z" />
            <path d="M678.023,76 C668.557,76 662.558,84.398 662.558,91.465 C662.558,93.602 662.558,93.602 662.558,98.485 C662.558,104.285 662.558,104.285 662.558,111 C662.558,117.715 662.558,117.715 662.558,123.515 C662.558,128.398 662.558,128.398 662.558,130.535 C662.558,138.591 667.321,146 678.023,146 C679.372,146 680.465,144.907 680.465,143.558 C680.465,142.21 679.372,141.116 678.023,141.116 C670.586,141.116 667.442,136.226 667.442,130.535 C667.442,128.398 667.442,128.398 667.442,123.515 C667.442,117.715 667.442,117.715 667.442,111 C667.442,104.285 667.442,104.285 667.442,98.485 C667.442,93.602 667.442,93.602 667.442,91.465 C667.442,86.811 671.675,80.884 678.023,80.884 C679.372,80.884 680.465,79.79 680.465,78.442 C680.465,77.093 679.372,76 678.023,76 Z" />
            <path d="M653.605,113.442 L676.395,113.442 C677.744,113.442 678.837,112.349 678.837,111 C678.837,109.651 677.744,108.558 676.395,108.558 L653.605,108.558 C652.256,108.558 651.163,109.651 651.163,111 C651.163,112.349 652.256,113.442 653.605,113.442 Z" />
        </g>
    </g>
</svg>