<?xml version="1.0" encoding="UTF-8"?>
<svg height="600" width="800" xmlns="http://www.w3.org/2000/svg" xmlns:xlink="http://www.w3.org/1999/xlink">
    <g id="Notes" font-family="'LucidaGrande', 'Lucida Grande', sans-serif" font-size="13">
        <rect fill="white" height="600.0" width="800.0" x="0.0" y="0.0" />
        <g font-size="13">
            <text x="18.0" y="176.0">Small</text>
            <text x="18.0" y="376.0">Medium</text>
            <text x="18.0" y="576.0">Large</text>
        </g>
        <g font-size="9">
            <text x="250.0" y="30.0">Ultralight</text>
            <text x="450.0" y="30.0">Regular</text>
            <text x="650.0" y="30.0">Black</text>
            <text id="template-version" fill="#505050" text-anchor="end" x="785.0" y="575.0">Template v.3.0</text>
            <a href="https://github.com/swhitty/SwiftDraw">
                <text fill="#505050" text-anchor="end" x="785.0" y="590.0">https://github.com/swhitty/SwiftDraw</text>
            </a>
        </g>
    </g>
    <g id="Guides" stroke="rgb(39, 170, 225)" stroke-width="0.5">
        <path id="Capline-S" d="M18,76 l800,0" />
        <path id="H-reference" d="M85,145.755 L87.685,145.755 L113.369,79.287 L114.052,79.287 L114.052,76 L112.148,76 L85,145.755 Z M95.693,121.536 L130.996,121.536 L130.263,119.313 L96.474,119.313 L95.693,121.536 Z M139.15,145.755 L141.787,145.755 L114.638,76 L113.466,76 L113.466,79.287 L139.15,145.755 Z" stroke="none" />
        <path id="Baseline-S" d="M18,146 l800,0" />
        <path id="left-margin-Ultralight-S" d="M216.41,56 l0,110" />
        <path id="right-margin-Ultralight-S" d="M313.59,56 l0,110" />
        <path id="left-margin-Regular-S" d="M416.41,56 l0,110" />
        <path id="right-margin-Regular-S" d="M513.59,56 l0,110" />
        <path id="left-margin-Black-S" d="M616.41,56 l0,110" />
        <path id="right-margin-Black-S" d="M713.59,56 l0,110" />
        <path id="Capline-M" d="M18,276 l800,0" />
        <path id="Baseline-M" d="M18,346 l800,0" />
        <path id="Capline-L" d="M18,476 l800,0" />
        <path id="Baseline-L" d="M18,546 l800,0" />
    </g>
    <g id="Symbols">
        <g id="Ultralight-S">
            <path d="M231.795,118.18 C231.795,117.684 232.197,117.282 232.692,117.282 L297.308,117.282 C297.803,117.282 298.205,117.684 298.205,118.18 L298.205,127.801 C298.205,128.314 297.713,128.999 296.878,129.455 C293.364,131.376 290.69,134.549 289.665,139.158 C289.468,140.047 288.865,140.615 288.333,140.615 L241.667,140.615 C241.135,140.615 240.532,140.047 240.334,139.158 C239.31,134.549 236.636,131.376 233.122,129.455 C232.287,128.999 231.795,128.314 231.795,127.801 L231.795,118.18 Z M226.41,118.18 L226.41,127.801 C226.41,130.489 228.109,132.852 230.539,134.18 C232.774,135.401 234.417,137.351 235.078,140.326 C235.789,143.524 238.414,146 241.667,146 L288.333,146 C291.586,146 294.211,143.524 294.922,140.326 C295.583,137.351 297.226,135.401 299.461,134.18 C301.891,132.852 303.59,130.489 303.59,127.801 L303.59,118.18 C303.59,114.71 300.777,111.897 297.308,111.897 L232.692,111.897 C229.223,111.897 226.41,114.71 226.41,118.18 Z" />
            <path d="M247.051,129.846 L282.949,129.846 C284.436,129.846 285.641,128.641 285.641,127.154 C285.641,125.667 284.436,124.462 282.949,124.462 L247.051,124.462 C245.564,124.462 244.359,125.667 244.359,127.154 C244.359,128.641 245.564,129.846 247.051,129.846 Z" />
            <path d="M264.751,76.94 L253.981,89.504 C252.485,91.251 253.725,93.949 256.026,93.949 L273.974,93.949 L271.93,89.504 L261.161,102.068 C260.193,103.197 260.324,104.897 261.453,105.865 C262.582,106.832 264.282,106.702 265.249,105.573 L276.018,93.009 C277.515,91.262 276.275,88.564 273.974,88.564 L256.026,88.564 L258.07,93.009 L268.839,80.444 C269.807,79.316 269.676,77.616 268.547,76.648 C267.418,75.681 265.718,75.811 264.751,76.94 Z" />
        </g>
        <g id="Regular-S">
            <path d="M431.795,118.18 C431.795,117.684 432.197,117.282 432.692,117.282 L497.308,117.282 C497.803,117.282 498.205,117.684 498.205,118.18 L498.205,127.801 C498.205,128.314 497.713,128.999 496.878,129.455 C493.364,131.376 490.69,134.549 489.665,139.158 C489.468,140.047 488.865,140.615 488.333,140.615 L441.667,140.615 C441.135,140.615 440.532,140.047 440.334,139.158 C439.31,134.549 436.636,131.376 433.122,129.455 C432.287,128.999 431.795,128.314 431.795,127.801 L431.795,118.18 Z M426.41,118.18 L426.41,127.801 C426.41,130.489 428.109,132.852 430.539,134.18 C432.774,135.401 434.417,137.351 435.078,140.326 C435.789,143.524 438.414,146 441.667,146 L488.333,146 C491.586,146 494.211,143.524 494.922,140.326 C495.583,137.351 497.226,135.401 499.461,134.18 C501.891,132.852 503.59,130.489 503.59,127.801 L503.59,118.18 C503.59,114.71 500.777,111.897 497.308,111.897 L432.692,111.897 C429.223,111.897 426.41,114.71 426.41,118.18 Z" />
            <path d="M447.051,129.846 L482.949,129.846 C484.436,129.846 485.641,128.641 485.641,127.154 C485.641,125.667 484.436,124.462 482.949,124.462 L447.051,124.462 C445.564,124.462 444.359,125.667 444.359,127.154 C444.359,128.641 445.564,129.846 447.051,129.846 Z" />
            <path d="M464.751,76.94 L453.981,89.504 C452.485,91.251 453.725,93.949 456.026,93.949 L473.974,93.949 L471.93,89.504 L461.161,102.068 C460.193,103.197 460.324,104.897 461.453,105.865 C462.582,106.832 464.282,106.702 465.249,105.573 L476.018,93.009 C477.515,91.262 476.275,88.564 473.974,88.564 L456.026,88.564 L458.07,93.009 L468.839,80.444 C469.807,79.316 469.676,77.616 468.547,76.648 C467.418,75.681 465.718,75.811 464.751,76.94 Z" />
        </g>
        <g id="Black-S">
            <path d="M631.795,118.18 C631.795,117.684 632.197,117.282 632.692,117.282 L697.308,117.282 C697.803,117.282 698.205,117.684 698.205,118.18 L698.205,127.801 C698.205,128.314 697.713,128.999 696.878,129.455 C693.364,131.376 690.69,134.549 689.666,139.158 C689.468,140.047 688.865,140.615 688.333,140.615 L641.667,140.615 C641.135,140.615 640.532,140.047 640.334,139.158 C639.31,134.549 636.636,131.376 633.122,129.455 C632.287,128.999 631.795,128.314 631.795,127.801 L631.795,118.18 Z M626.41,118.18 L626.41,127.801 C626.41,130.489 628.109,132.852 630.539,134.18 C632.774,135.401 634.417,137.351 635.078,140.326 C635.789,143.524 638.414,146 641.667,146 L688.333,146 C691.586,146 694.211,143.524 694.922,140.326 C695.583,137.351 697.226,135.401 699.461,134.18 C701.891,132.852 703.59,130.489 703.59,127.801 L703.59,118.18 C703.59,114.71 700.777,111.897 697.308,111.897 L632.692,111.897 C629.223,111.897 626.41,114.71 626.41,118.18 Z" />
            <path d="M647.051,129.846 L682.949,129.846 C684.436,129.846 685.641,128.641 685.641,127.154 C685.641,125.667 684.436,124.462 682.949,124.462 L647.051,124.462 C645.564,124.462 644.359,125.667 644.359,127.154 C644.359,128.641 645.564,129.846 647.051,129.846 Z" />
            <path d="M664.751,76.94 L653.982,89.504 C652.485,91.251 653.725,93.949 656.026,93.949 L673.974,93.949 L671.93,89.504 L661.161,102.068 C660.193,103.197 660.324,104.897 661.453,105.865 C662.582,106.832 664.282,106.702 665.249,105.573 L676.018,93.009 C677.515,91.262 676.275,88.564 673.974,88.564 L656.026,88.564 L658.07,93.009 L668.839,80.444 C669.807,79.316 669.676,77.616 668.547,76.648 C667.418,75.681 665.718,75.811 664.751,76.94 Z" />
        </g>
    </g>
</svg>