<?xml version="1.0" encoding="UTF-8"?>
<svg height="600" width="800" xmlns="http://www.w3.org/2000/svg" xmlns:xlink="http://www.w3.org/1999/xlink">
    <g id="Notes" font-family="'LucidaGrande', 'Lucida Grande', sans-serif" font-size="13">
        <rect fill="white" height="600.0" width="800.0" x="0.0" y="0.0" />
        <g font-size="13">
            <text x="18.0" y="176.0">Small</text>
            <text x="18.0" y="376.0">Medium</text>
            <text x="18.0" y="576.0">Large</text>
        </g>
        <g font-size="9">
            <text x="250.0" y="30.0">Ultralight</text>
            <text x="450.0" y="30.0">Regular</text>
            <text x="650.0" y="30.0">Black</text>
            <text id="template-version" fill="#505050" text-anchor="end" x="785.0" y="575.0">Template v.3.0</text>
            <a href="https://github.com/swhitty/SwiftDraw">
                <text fill="#505050" text-anchor="end" x="785.0" y="590.0">https://github.com/swhitty/SwiftDraw</text>
            </a>
        </g>
    </g>
    <g id="Guides" stroke="rgb(39, 170, 225)" stroke-width="0.5">
        <path id="Capline-S" d="M18,76 l800,0" />
        <path id="H-reference" d="M85,145.755 L87.685,145.755 L113.369,79.287 L114.052,79.287 L114.052,76 L112.148,76 L85,145.755 Z M95.693,121.536 L130.996,121.536 L130.263,119.313 L96.474,119.313 L95.693,121.536 Z M139.15,145.755 L141.787,145.755 L114.638,76 L113.466,76 L113.466,79.287 L139.15,145.755 Z" stroke="none" />
        <path id="Baseline-S" d="M18,146 l800,0" />
        <path id="left-margin-Ultralight-S" d="M221,56 l0,110" />
        <path id="right-margin-Ultralight-S" d="M309,56 l0,110" />
        <path id="left-margin-Regular-S" d="M421,56 l0,110" />
        <path id="right-margin-Regular-S" d="M509,56 l0,110" />
        <path id="left-margin-Black-S" d="M621,56 l0,110" />
        <path id="right-margin-Black-S" d="M709,56 l0,110" />
        <path id="Capline-M" d="M18,276 l800,0" />
        <path id="Baseline-M" d="M18,346 l800,0" />
        <path id="Capline-L" d="M18,476 l800,0" />
        <path id="Baseline-L" d="M18,546 l800,0" />
    </g>
    <g id="Symbols">
        <g id="Ultralight-S">
            <path d="M241.395,117.512 C241.395,104.475 251.964,93.907 265,93.907 C278.036,93.907 288.605,104.475 288.605,117.512 C288.605,130.548 278.036,141.116 265,141.116 C251.964,141.116 241.395,130.548 241.395,117.512 Z M236.512,117.512 C236.512,133.245 249.266,146 265,146 C280.734,146 293.488,133.245 293.488,117.512 C293.488,101.778 280.734,89.023 265,89.023 C249.266,89.023 236.512,101.778 236.512,117.512 Z" />
            <path d="M271.512,76 L258.488,76 C257.14,76 256.047,77.093 256.047,78.442 C256.047,79.79 257.14,80.884 258.488,80.884 L271.512,80.884 C272.86,80.884 273.953,79.79 273.953,78.442 C273.953,77.093 272.86,76 271.512,76 Z" />
            <path d="M262.558,78.442 L262.558,91.465 C262.558,92.814 263.651,93.907 265,93.907 C266.349,93.907 267.442,92.814 267.442,91.465 L267.442,78.442 C267.442,77.093 266.349,76 265,76 C263.651,76 262.558,77.093 262.558,78.442 Z" />
            <path d="M284.634,99.703 L289.517,94.82 C290.471,93.866 290.471,92.32 289.517,91.366 C288.564,90.413 287.018,90.413 286.064,91.366 L281.18,96.25 C280.227,97.204 280.227,98.75 281.18,99.703 C282.134,100.657 283.68,100.657 284.634,99.703 Z" />
            <path d="M267.442,117.512 L267.442,107.744 C267.442,106.396 266.349,105.302 265,105.302 C263.651,105.302 262.558,106.396 262.558,107.744 L262.558,117.512 C262.558,118.86 263.651,119.953 265,119.953 C266.349,119.953 267.442,118.86 267.442,117.512 Z" />
            <path d="M265,115.07 L255.233,115.07 C253.884,115.07 252.791,116.163 252.791,117.512 C252.791,118.86 253.884,119.953 255.233,119.953 L265,119.953 C266.349,119.953 267.442,118.86 267.442,117.512 C267.442,116.163 266.349,115.07 265,115.07 Z" />
        </g>
        <g id="Regular-S">
            <path d="M441.395,117.512 C441.395,104.475 451.964,93.907 465,93.907 C478.036,93.907 488.605,104.475 488.605,117.512 C488.605,130.548 478.036,141.116 465,141.116 C451.964,141.116 441.395,130.548 441.395,117.512 Z M436.512,117.512 C436.512,133.245 449.266,146 465,146 C480.734,146 493.488,133.245 493.488,117.512 C493.488,101.778 480.734,89.023 465,89.023 C449.266,89.023 436.512,101.778 436.512,117.512 Z" />
            <path d="M471.512,76 L458.488,76 C457.14,76 456.047,77.093 456.047,78.442 C456.047,79.79 457.14,80.884 458.488,80.884 L471.512,80.884 C472.86,80.884 473.953,79.79 473.953,78.442 C473.953,77.093 472.86,76 471.512,76 Z" />
            <path d="M462.558,78.442 L462.558,91.465 C462.558,92.814 463.651,93.907 465,93.907 C466.349,93.907 467.442,92.814 467.442,91.465 L467.442,78.442 C467.442,77.093 466.349,76 465,76 C463.651,76 462.558,77.093 462.558,78.442 Z" />
            <path d="M484.634,99.703 L489.517,94.82 C490.471,93.866 490.471,92.32 489.517,91.366 C488.564,90.413 487.018,90.413 486.064,91.366 L481.18,96.25 C480.227,97.204 480.227,98.75 481.18,99.703 C482.134,100.657 483.68,100.657 484.634,99.703 Z" />
            <path d="M467.442,117.512 L467.442,107.744 C467.442,106.396 466.349,105.302 465,105.302 C463.651,105.302 462.558,106.396 462.558,107.744 L462.558,117.512 C462.558,118.86 463.651,119.953 465,119.953 C466.349,119.953 467.442,118.86 467.442,117.512 Z" />
            <path d="M465,115.07 L455.233,115.07 C453.884,115.07 452.791,116.163 452.791,117.512 C452.791,118.86 453.884,119.953 455.233,119.953 L465,119.953 C466.349,119.953 467.442,118.86 467.442,117.512 C467.442,116.163 466.349,115.07 465,115.07 Z" />
        </g>
        <g id="Black-S">
            <path d="M641.395,117.512 C641.395,104.475 651.964,93.907 665,93.907 C678.036,93.907 688.605,104.475 688.605,117.512 C688.605,130.548 678.036,141.116 665,141.116 C651.964,141.116 641.395,130.548 641.395,117.512 Z M636.512,117.512 C636.512,133.245 649.266,146 665,146 C680.734,146 693.488,133.245 693.488,117.512 C693.488,101.778 680.734,89.023 665,89.023 C649.266,89.023 636.512,101.778 636.512,117.512 Z" />
            <path d="M671.512,76 L658.488,76 C657.14,76 656.047,77.093 656.047,78.442 C656.047,79.79 657.14,80.884 658.488,80.884 L671.512,80.884 C672.86,80.884 673.953,79.79 673.953,78.442 C673.953,77.093 672.86,76 671.512,76 Z" />
            <path d="M662.558,78.442 L662.558,91.465 C662.558,92.814 663.651,93.907 665,93.907 C666.349,93.907 667.442,92.814 667.442,91.465 L667.442,78.442 C667.442,77.093 666.349,76 665,76 C663.651,76 662.558,77.093 662.558,78.442 Z" />
            <path d="M684.634,99.703 L689.517,94.82 C690.471,93.866 690.471,92.32 689.517,91.366 C688.564,90.413 687.018,90.413 686.064,91.366 L681.18,96.25 C680.227,97.204 680.227,98.75 681.18,99.703 C682.134,100.657 683.68,100.657 684.634,99.703 Z" />
            <path d="M667.442,117.512 L667.442,107.744 C667.442,106.396 666.349,105.302 665,105.302 C663.651,105.302 662.558,106.396 662.558,107.744 L662.558,117.512 C662.558,118.86 663.651,119.953 665,119.953 C666.349,119.953 667.442,118.86 667.442,117.512 Z" />
            <path d="M665,115.07 L655.233,115.07 C653.884,115.07 652.791,116.163 652.791,117.512 C652.791,118.86 653.884,119.953 655.233,119.953 L665,119.953 C666.349,119.953 667.442,118.86 667.442,117.512 C667.442,116.163 666.349,115.07 665,115.07 Z" />
        </g>
    </g>
</svg>