<?xml version="1.0" encoding="UTF-8"?>
<svg height="600" width="800" xmlns="http://www.w3.org/2000/svg" xmlns:xlink="http://www.w3.org/1999/xlink">
    <g id="Notes" font-family="'LucidaGrande', 'Lucida Grande', sans-serif" font-size="13">
        <rect fill="white" height="600.0" width="800.0" x="0.0" y="0.0" />
        <g font-size="13">
            <text x="18.0" y="176.0">Small</text>
            <text x="18.0" y="376.0">Medium</text>
            <text x="18.0" y="576.0">Large</text>
        </g>
        <g font-size="9">
            <text x="250.0" y="30.0">Ultralight</text>
            <text x="450.0" y="30.0">Regular</text>
            <text x="650.0" y="30.0">Black</text>
            <text id="template-version" fill="#505050" text-anchor="end" x="785.0" y="575.0">Template v.3.0</text>
            <a href="https://github.com/swhitty/SwiftDraw">
                <text fill="#505050" text-anchor="end" x="785.0" y="590.0">https://github.com/swhitty/SwiftDraw</text>
            </a>
        </g>
    </g>
    <g id="Guides" stroke="rgb(39, 170, 225)" stroke-width="0.5">
        <path id="Capline-S" d="M18,76 l800,0" />
        <path id="H-reference" d="M85,145.755 L87.685,145.755 L113.369,79.287 L114.052,79.287 L114.052,76 L112.148,76 L85,145.755 Z M95.693,121.536 L130.996,121.536 L130.263,119.313 L96.474,119.313 L95.693,121.536 Z M139.15,145.755 L141.787,145.755 L114.638,76 L113.466,76 L113.466,79.287 L139.15,145.755 Z" stroke="none" />
        <path id="Baseline-S" d="M18,146 l800,0" />
        <path id="left-margin-Ultralight-S" d="M221,56 l0,110" />
        <path id="right-margin-Ultralight-S" d="M309,56 l0,110" />
        <path id="left-margin-Regular-S" d="M421,56 l0,110" />
        <path id="right-margin-Regular-S" d="M509,56 l0,110" />
        <path id="left-margin-Black-S" d="M621,56 l0,110" />
        <path id="right-margin-Black-S" d="M709,56 l0,110" />
        <path id="Capline-M" d="M18,276 l800,0" />
        <path id="Baseline-M" d="M18,346 l800,0" />
        <path id="Capline-L" d="M18,476 l800,0" />
        <path id="Baseline-L" d="M18,546 l800,0" />
    </g>
    <g id="Symbols">
        <g id="Ultralight-S">
            <path d="M267.707,128.768 L267.707,78.692 C267.707,77.205 266.502,76 265.015,76 C263.528,76 262.323,77.205 262.323,78.692 L262.323,128.768 C262.323,130.255 263.528,131.461 265.015,131.461 C266.502,131.461 267.707,130.255 267.707,128.768 Z" />
            <path d="M284.635,105.507 L263.096,127.045 L266.904,127.045 L245.365,105.507 C244.314,104.455 242.609,104.455 241.558,105.507 C240.506,106.558 240.506,108.263 241.558,109.314 L263.096,130.852 C264.148,131.904 265.852,131.904 266.904,130.852 L288.442,109.314 C289.494,108.263 289.494,106.558 288.442,105.507 C287.391,104.455 285.686,104.455 284.635,105.507 Z" />
            <path d="M286.538,140.615 L243.462,140.615 C241.975,140.615 240.769,141.821 240.769,143.308 C240.769,144.795 241.975,146 243.462,146 L286.538,146 C288.025,146 289.231,144.795 289.231,143.308 C289.231,141.821 288.025,140.615 286.538,140.615 Z" />
        </g>
        <g id="Regular-S">
            <path d="M467.707,128.768 L467.707,78.692 C467.707,77.205 466.502,76 465.015,76 C463.528,76 462.323,77.205 462.323,78.692 L462.323,128.768 C462.323,130.255 463.528,131.461 465.015,131.461 C466.502,131.461 467.707,130.255 467.707,128.768 Z" />
            <path d="M484.635,105.507 L463.096,127.045 L466.904,127.045 L445.365,105.507 C444.314,104.455 442.609,104.455 441.558,105.507 C440.506,106.558 440.506,108.263 441.558,109.314 L463.096,130.852 C464.148,131.904 465.852,131.904 466.904,130.852 L488.442,109.314 C489.494,108.263 489.494,106.558 488.442,105.507 C487.391,104.455 485.686,104.455 484.635,105.507 Z" />
            <path d="M486.538,140.615 L443.462,140.615 C441.975,140.615 440.769,141.821 440.769,143.308 C440.769,144.795 441.975,146 443.462,146 L486.538,146 C488.025,146 489.231,144.795 489.231,143.308 C489.231,141.821 488.025,140.615 486.538,140.615 Z" />
        </g>
        <g id="Black-S">
            <path d="M667.707,128.768 L667.707,78.692 C667.707,77.205 666.502,76 665.015,76 C663.528,76 662.323,77.205 662.323,78.692 L662.323,128.768 C662.323,130.255 663.528,131.461 665.015,131.461 C666.502,131.461 667.707,130.255 667.707,128.768 Z" />
            <path d="M684.635,105.507 L663.096,127.045 L666.904,127.045 L645.365,105.507 C644.314,104.455 642.609,104.455 641.558,105.507 C640.506,106.558 640.506,108.263 641.558,109.314 L663.096,130.852 C664.148,131.904 665.852,131.904 666.904,130.852 L688.442,109.314 C689.494,108.263 689.494,106.558 688.442,105.507 C687.391,104.455 685.686,104.455 684.635,105.507 Z" />
            <path d="M686.538,140.615 L643.462,140.615 C641.975,140.615 640.769,141.821 640.769,143.308 C640.769,144.795 641.975,146 643.462,146 L686.538,146 C688.025,146 689.231,144.795 689.231,143.308 C689.231,141.821 688.025,140.615 686.538,140.615 Z" />
        </g>
    </g>
</svg>