<?xml version="1.0" encoding="UTF-8"?>
<svg height="600" width="800" xmlns="http://www.w3.org/2000/svg" xmlns:xlink="http://www.w3.org/1999/xlink">
    <g id="Notes" font-family="'LucidaGrande', 'Lucida Grande', sans-serif" font-size="13">
        <rect fill="white" height="600.0" width="800.0" x="0.0" y="0.0" />
        <g font-size="13">
            <text x="18.0" y="176.0">Small</text>
            <text x="18.0" y="376.0">Medium</text>
            <text x="18.0" y="576.0">Large</text>
        </g>
        <g font-size="9">
            <text x="250.0" y="30.0">Ultralight</text>
            <text x="450.0" y="30.0">Regular</text>
            <text x="650.0" y="30.0">Black</text>
            <text id="template-version" fill="#505050" text-anchor="end" x="785.0" y="575.0">Template v.3.0</text>
            <a href="https://github.com/swhitty/SwiftDraw">
                <text fill="#505050" text-anchor="end" x="785.0" y="590.0">https://github.com/swhitty/SwiftDraw</text>
            </a>
        </g>
    </g>
    <g id="Guides" stroke="rgb(39, 170, 225)" stroke-width="0.5">
        <path id="Capline-S" d="M18,76 l800,0" />
        <path id="H-reference" d="M85,145.755 L87.685,145.755 L113.369,79.287 L114.052,79.287 L114.052,76 L112.148,76 L85,145.755 Z M95.693,121.536 L130.996,121.536 L130.263,119.313 L96.474,119.313 L95.693,121.536 Z M139.15,145.755 L141.787,145.755 L114.638,76 L113.466,76 L113.466,79.287 L139.15,145.755 Z" stroke="none" />
        <path id="Baseline-S" d="M18,146 l800,0" />
        <path id="left-margin-Ultralight-S" d="M216.216,56 l0,110" />
        <path id="right-margin-Ultralight-S" d="M313.784,56 l0,110" />
        <path id="left-margin-Regular-S" d="M416.216,56 l0,110" />
        <path id="right-margin-Regular-S" d="M513.784,56 l0,110" />
        <path id="left-margin-Black-S" d="M616.216,56 l0,110" />
        <path id="right-margin-Black-S" d="M713.784,56 l0,110" />
        <path id="Capline-M" d="M18,276 l800,0" />
        <path id="Baseline-M" d="M18,346 l800,0" />
        <path id="Capline-L" d="M18,476 l800,0" />
        <path id="Baseline-L" d="M18,546 l800,0" />
    </g>
    <g id="Symbols">
        <g id="Ultralight-S">
            <path d="M231.892,112.892 L231.892,137.486 C231.892,142.188 235.704,146 240.405,146 L289.595,146 C294.297,146 298.108,142.188 298.108,137.486 L298.108,112.892 C298.108,111.325 296.838,110.054 295.27,110.054 C293.703,110.054 292.432,111.325 292.432,112.892 L292.432,137.486 C292.432,139.054 291.162,140.324 289.595,140.324 L240.405,140.324 C238.838,140.324 237.568,139.054 237.568,137.486 L237.568,112.892 C237.568,111.325 236.297,110.054 234.73,110.054 C233.162,110.054 231.892,111.325 231.892,112.892 Z" />
            <path d="M231.892,93.973 C231.892,93.451 232.315,93.027 232.838,93.027 L297.162,93.027 C297.685,93.027 298.108,93.45 298.108,93.973 L298.108,109.108 C298.108,109.631 297.685,110.054 297.162,110.054 L232.838,110.054 C232.315,110.054 231.892,109.631 231.892,109.108 L231.892,93.973 Z M226.216,93.973 L226.216,109.108 C226.216,112.765 229.181,115.73 232.838,115.73 L297.162,115.73 C300.819,115.73 303.784,112.765 303.784,109.108 L303.784,93.973 C303.784,90.316 300.819,87.351 297.162,87.351 L232.838,87.351 C229.181,87.351 226.216,90.316 226.216,93.973 Z" />
            <path d="M281.081,90.189 L281.081,82.622 C281.081,78.965 278.117,76 274.459,76 L255.541,76 C251.883,76 248.919,78.965 248.919,82.622 L248.919,90.189 C248.919,91.756 250.189,93.027 251.757,93.027 C253.324,93.027 254.595,91.756 254.595,90.189 L254.595,82.622 C254.595,82.099 255.018,81.676 255.541,81.676 L274.459,81.676 C274.982,81.676 275.405,82.099 275.405,82.622 L275.405,90.189 C275.405,91.756 276.676,93.027 278.243,93.027 C279.811,93.027 281.081,91.756 281.081,90.189 Z" />
            <path d="M245.135,109.108 L245.135,120.459 C245.135,122.027 246.406,123.297 247.973,123.297 C249.54,123.297 250.811,122.027 250.811,120.459 L250.811,109.108 C250.811,107.541 249.54,106.27 247.973,106.27 C246.406,106.27 245.135,107.541 245.135,109.108 Z" />
            <path d="M279.189,109.108 L279.189,120.459 C279.189,122.027 280.46,123.297 282.027,123.297 C283.594,123.297 284.865,122.027 284.865,120.459 L284.865,109.108 C284.865,107.541 283.594,106.27 282.027,106.27 C280.46,106.27 279.189,107.541 279.189,109.108 Z" />
        </g>
        <g id="Regular-S">
            <path d="M431.892,112.892 L431.892,137.486 C431.892,142.188 435.704,146 440.405,146 L489.595,146 C494.297,146 498.108,142.188 498.108,137.486 L498.108,112.892 C498.108,111.325 496.838,110.054 495.27,110.054 C493.703,110.054 492.432,111.325 492.432,112.892 L492.432,137.486 C492.432,139.054 491.162,140.324 489.595,140.324 L440.405,140.324 C438.838,140.324 437.568,139.054 437.568,137.486 L437.568,112.892 C437.568,111.325 436.297,110.054 434.73,110.054 C433.162,110.054 431.892,111.325 431.892,112.892 Z" />
            <path d="M431.892,93.973 C431.892,93.451 432.315,93.027 432.838,93.027 L497.162,93.027 C497.685,93.027 498.108,93.45 498.108,93.973 L498.108,109.108 C498.108,109.631 497.685,110.054 497.162,110.054 L432.838,110.054 C432.315,110.054 431.892,109.631 431.892,109.108 L431.892,93.973 Z M426.216,93.973 L426.216,109.108 C426.216,112.765 429.181,115.73 432.838,115.73 L497.162,115.73 C500.819,115.73 503.784,112.765 503.784,109.108 L503.784,93.973 C503.784,90.316 500.819,87.351 497.162,87.351 L432.838,87.351 C429.181,87.351 426.216,90.316 426.216,93.973 Z" />
            <path d="M481.081,90.189 L481.081,82.622 C481.081,78.965 478.117,76 474.459,76 L455.541,76 C451.883,76 448.919,78.965 448.919,82.622 L448.919,90.189 C448.919,91.756 450.189,93.027 451.757,93.027 C453.324,93.027 454.595,91.756 454.595,90.189 L454.595,82.622 C454.595,82.099 455.018,81.676 455.541,81.676 L474.459,81.676 C474.982,81.676 475.405,82.099 475.405,82.622 L475.405,90.189 C475.405,91.756 476.676,93.027 478.243,93.027 C479.811,93.027 481.081,91.756 481.081,90.189 Z" />
            <path d="M445.135,109.108 L445.135,120.459 C445.135,122.027 446.406,123.297 447.973,123.297 C449.54,123.297 450.811,122.027 450.811,120.459 L450.811,109.108 C450.811,107.541 449.54,106.27 447.973,106.27 C446.406,106.27 445.135,107.541 445.135,109.108 Z" />
            <path d="M479.189,109.108 L479.189,120.459 C479.189,122.027 480.46,123.297 482.027,123.297 C483.594,123.297 484.865,122.027 484.865,120.459 L484.865,109.108 C484.865,107.541 483.594,106.27 482.027,106.27 C480.46,106.27 479.189,107.541 479.189,109.108 Z" />
        </g>
        <g id="Black-S">
            <path d="M631.892,112.892 L631.892,137.486 C631.892,142.188 635.703,146 640.405,146 L689.595,146 C694.297,146 698.108,142.188 698.108,137.486 L698.108,112.892 C698.108,111.325 696.838,110.054 695.27,110.054 C693.703,110.054 692.432,111.325 692.432,112.892 L692.432,137.486 C692.432,139.054 691.162,140.324 689.595,140.324 L640.405,140.324 C638.838,140.324 637.568,139.054 637.568,137.486 L637.568,112.892 C637.568,111.325 636.297,110.054 634.73,110.054 C633.162,110.054 631.892,111.325 631.892,112.892 Z" />
            <path d="M631.892,93.973 C631.892,93.451 632.315,93.027 632.838,93.027 L697.162,93.027 C697.685,93.027 698.108,93.45 698.108,93.973 L698.108,109.108 C698.108,109.631 697.685,110.054 697.162,110.054 L632.838,110.054 C632.315,110.054 631.892,109.631 631.892,109.108 L631.892,93.973 Z M626.216,93.973 L626.216,109.108 C626.216,112.765 629.181,115.73 632.838,115.73 L697.162,115.73 C700.819,115.73 703.784,112.765 703.784,109.108 L703.784,93.973 C703.784,90.316 700.819,87.351 697.162,87.351 L632.838,87.351 C629.181,87.351 626.216,90.316 626.216,93.973 Z" />
            <path d="M681.081,90.189 L681.081,82.622 C681.081,78.965 678.117,76 674.459,76 L655.541,76 C651.883,76 648.919,78.965 648.919,82.622 L648.919,90.189 C648.919,91.756 650.189,93.027 651.757,93.027 C653.324,93.027 654.595,91.756 654.595,90.189 L654.595,82.622 C654.595,82.099 655.018,81.676 655.541,81.676 L674.459,81.676 C674.982,81.676 675.405,82.099 675.405,82.622 L675.405,90.189 C675.405,91.756 676.676,93.027 678.243,93.027 C679.811,93.027 681.081,91.756 681.081,90.189 Z" />
            <path d="M645.135,109.108 L645.135,120.459 C645.135,122.027 646.406,123.297 647.973,123.297 C649.54,123.297 650.811,122.027 650.811,120.459 L650.811,109.108 C650.811,107.541 649.54,106.27 647.973,106.27 C646.406,106.27 645.135,107.541 645.135,109.108 Z" />
            <path d="M679.189,109.108 L679.189,120.459 C679.189,122.027 680.46,123.297 682.027,123.297 C683.594,123.297 684.865,122.027 684.865,120.459 L684.865,109.108 C684.865,107.541 683.594,106.27 682.027,106.27 C680.46,106.27 679.189,107.541 679.189,109.108 Z" />
        </g>
    </g>
</svg>