<?xml version="1.0" encoding="UTF-8"?>
<svg height="600" width="800" xmlns="http://www.w3.org/2000/svg" xmlns:xlink="http://www.w3.org/1999/xlink">
    <g id="Notes" font-family="'LucidaGrande', 'Lucida Grande', sans-serif" font-size="13">
        <rect fill="white" height="600.0" width="800.0" x="0.0" y="0.0" />
        <g font-size="13">
            <text x="18.0" y="176.0">Small</text>
            <text x="18.0" y="376.0">Medium</text>
            <text x="18.0" y="576.0">Large</text>
        </g>
        <g font-size="9">
            <text x="250.0" y="30.0">Ultralight</text>
            <text x="450.0" y="30.0">Regular</text>
            <text x="650.0" y="30.0">Black</text>
            <text id="template-version" fill="#505050" text-anchor="end" x="785.0" y="575.0">Template v.3.0</text>
            <a href="https://github.com/swhitty/SwiftDraw">
                <text fill="#505050" text-anchor="end" x="785.0" y="590.0">https://github.com/swhitty/SwiftDraw</text>
            </a>
        </g>
    </g>
    <g id="Guides" stroke="rgb(39, 170, 225)" stroke-width="0.5">
        <path id="Capline-S" d="M18,76 l800,0" />
        <path id="H-reference" d="M85,145.755 L87.685,145.755 L113.369,79.287 L114.052,79.287 L114.052,76 L112.148,76 L85,145.755 Z M95.693,121.536 L130.996,121.536 L130.263,119.313 L96.474,119.313 L95.693,121.536 Z M139.15,145.755 L141.787,145.755 L114.638,76 L113.466,76 L113.466,79.287 L139.15,145.755 Z" stroke="none" />
        <path id="Baseline-S" d="M18,146 l800,0" />
        <path id="left-margin-Ultralight-S" d="M211.515,56 l0,110" />
        <path id="right-margin-Ultralight-S" d="M318.485,56 l0,110" />
        <path id="left-margin-Regular-S" d="M411.515,56 l0,110" />
        <path id="right-margin-Regular-S" d="M518.485,56 l0,110" />
        <path id="left-margin-Black-S" d="M611.515,56 l0,110" />
        <path id="right-margin-Black-S" d="M718.485,56 l0,110" />
        <path id="Capline-M" d="M18,276 l800,0" />
        <path id="Baseline-M" d="M18,346 l800,0" />
        <path id="Capline-L" d="M18,476 l800,0" />
        <path id="Baseline-L" d="M18,546 l800,0" />
    </g>
    <g id="Symbols">
        <g id="Ultralight-S">
            <path d="M224.697,146 L305.303,146 C307.06,146 308.485,144.575 308.485,142.818 L308.485,119.485 C308.485,117.728 307.06,116.303 305.303,116.303 L292.576,116.303 C290.818,116.303 289.394,117.728 289.394,119.485 L289.394,130.091 L292.576,126.909 L237.424,126.909 L240.606,130.091 L240.606,91.909 L237.424,95.091 L262.879,95.091 C264.636,95.091 266.061,93.666 266.061,91.909 L266.061,79.182 C266.061,77.425 264.636,76 262.879,76 L224.697,76 C222.94,76 221.515,77.425 221.515,79.182 L221.515,142.818 C221.515,144.575 222.94,146 224.697,146 Z M224.697,139.636 L227.879,142.818 L227.879,79.182 L224.697,82.364 L262.879,82.364 L259.697,79.182 L259.697,91.909 L262.879,88.727 L237.424,88.727 C235.667,88.727 234.242,90.152 234.242,91.909 L234.242,130.091 C234.242,131.848 235.667,133.273 237.424,133.273 L292.576,133.273 C294.333,133.273 295.758,131.848 295.758,130.091 L295.758,119.485 L292.576,122.667 L305.303,122.667 L302.121,119.485 L302.121,142.818 L305.303,139.636 L224.697,139.636 Z" />
            <path d="M302.121,94.03 L302.121,106.758 L305.303,103.576 C289.549,103.576 278.788,93.891 278.788,79.182 L275.606,82.364 L288.333,82.364 L285.152,79.182 C285.152,90.485 291.879,97.212 305.303,97.212 L302.121,94.03 Z M308.485,94.03 C308.485,92.273 307.06,90.848 305.303,90.848 C295.394,90.848 291.515,86.97 291.515,79.182 C291.515,77.425 290.091,76 288.333,76 L275.606,76 C273.849,76 272.424,77.425 272.424,79.182 C272.424,97.564 286.175,109.939 305.303,109.939 C307.06,109.939 308.485,108.515 308.485,106.758 L308.485,94.03 Z" />
        </g>
        <g id="Regular-S">
            <path d="M424.697,146 L505.303,146 C507.06,146 508.485,144.575 508.485,142.818 L508.485,119.485 C508.485,117.728 507.06,116.303 505.303,116.303 L492.576,116.303 C490.818,116.303 489.394,117.728 489.394,119.485 L489.394,130.091 L492.576,126.909 L437.424,126.909 L440.606,130.091 L440.606,91.909 L437.424,95.091 L462.879,95.091 C464.636,95.091 466.061,93.666 466.061,91.909 L466.061,79.182 C466.061,77.425 464.636,76 462.879,76 L424.697,76 C422.94,76 421.515,77.425 421.515,79.182 L421.515,142.818 C421.515,144.575 422.94,146 424.697,146 Z M424.697,139.636 L427.879,142.818 L427.879,79.182 L424.697,82.364 L462.879,82.364 L459.697,79.182 L459.697,91.909 L462.879,88.727 L437.424,88.727 C435.667,88.727 434.242,90.152 434.242,91.909 L434.242,130.091 C434.242,131.848 435.667,133.273 437.424,133.273 L492.576,133.273 C494.333,133.273 495.758,131.848 495.758,130.091 L495.758,119.485 L492.576,122.667 L505.303,122.667 L502.121,119.485 L502.121,142.818 L505.303,139.636 L424.697,139.636 Z" />
            <path d="M502.121,94.03 L502.121,106.758 L505.303,103.576 C489.549,103.576 478.788,93.891 478.788,79.182 L475.606,82.364 L488.333,82.364 L485.152,79.182 C485.152,90.485 491.879,97.212 505.303,97.212 L502.121,94.03 Z M508.485,94.03 C508.485,92.273 507.06,90.848 505.303,90.848 C495.394,90.848 491.515,86.97 491.515,79.182 C491.515,77.425 490.091,76 488.333,76 L475.606,76 C473.849,76 472.424,77.425 472.424,79.182 C472.424,97.564 486.175,109.939 505.303,109.939 C507.06,109.939 508.485,108.515 508.485,106.758 L508.485,94.03 Z" />
        </g>
        <g id="Black-S">
            <path d="M624.697,146 L705.303,146 C707.06,146 708.485,144.575 708.485,142.818 L708.485,119.485 C708.485,117.728 707.06,116.303 705.303,116.303 L692.576,116.303 C690.819,116.303 689.394,117.728 689.394,119.485 L689.394,130.091 L692.576,126.909 L637.424,126.909 L640.606,130.091 L640.606,91.909 L637.424,95.091 L662.879,95.091 C664.636,95.091 666.061,93.666 666.061,91.909 L666.061,79.182 C666.061,77.425 664.636,76 662.879,76 L624.697,76 C622.94,76 621.515,77.425 621.515,79.182 L621.515,142.818 C621.515,144.575 622.94,146 624.697,146 Z M624.697,139.636 L627.879,142.818 L627.879,79.182 L624.697,82.364 L662.879,82.364 L659.697,79.182 L659.697,91.909 L662.879,88.727 L637.424,88.727 C635.667,88.727 634.242,90.152 634.242,91.909 L634.242,130.091 C634.242,131.848 635.667,133.273 637.424,133.273 L692.576,133.273 C694.333,133.273 695.758,131.848 695.758,130.091 L695.758,119.485 L692.576,122.667 L705.303,122.667 L702.121,119.485 L702.121,142.818 L705.303,139.636 L624.697,139.636 Z" />
            <path d="M702.121,94.03 L702.121,106.758 L705.303,103.576 C689.549,103.576 678.788,93.891 678.788,79.182 L675.606,82.364 L688.333,82.364 L685.152,79.182 C685.152,90.485 691.879,97.212 705.303,97.212 L702.121,94.03 Z M708.485,94.03 C708.485,92.273 707.06,90.848 705.303,90.848 C695.394,90.848 691.515,86.97 691.515,79.182 C691.515,77.425 690.091,76 688.333,76 L675.606,76 C673.849,76 672.424,77.425 672.424,79.182 C672.424,97.564 686.175,109.939 705.303,109.939 C707.06,109.939 708.485,108.515 708.485,106.758 L708.485,94.03 Z" />
        </g>
    </g>
</svg>