<?xml version="1.0" encoding="UTF-8"?>
<svg height="600" width="800" xmlns="http://www.w3.org/2000/svg" xmlns:xlink="http://www.w3.org/1999/xlink">
    <g id="Notes" font-family="'LucidaGrande', 'Lucida Grande', sans-serif" font-size="13">
        <rect fill="white" height="600.0" width="800.0" x="0.0" y="0.0" />
        <g font-size="13">
            <text x="18.0" y="176.0">Small</text>
            <text x="18.0" y="376.0">Medium</text>
            <text x="18.0" y="576.0">Large</text>
        </g>
        <g font-size="9">
            <text x="250.0" y="30.0">Ultralight</text>
            <text x="450.0" y="30.0">Regular</text>
            <text x="650.0" y="30.0">Black</text>
            <text id="template-version" fill="#505050" text-anchor="end" x="785.0" y="575.0">Template v.3.0</text>
            <a href="https://github.com/swhitty/SwiftDraw">
                <text fill="#505050" text-anchor="end" x="785.0" y="590.0">https://github.com/swhitty/SwiftDraw</text>
            </a>
        </g>
    </g>
    <g id="Guides" stroke="rgb(39, 170, 225)" stroke-width="0.5">
        <path id="Capline-S" d="M18,76 l800,0" />
        <path id="H-reference" d="M85,145.755 L87.685,145.755 L113.369,79.287 L114.052,79.287 L114.052,76 L112.148,76 L85,145.755 Z M95.693,121.536 L130.996,121.536 L130.263,119.313 L96.474,119.313 L95.693,121.536 Z M139.15,145.755 L141.787,145.755 L114.638,76 L113.466,76 L113.466,79.287 L139.15,145.755 Z" stroke="none" />
        <path id="Baseline-S" d="M18,146 l800,0" />
        <path id="left-margin-Ultralight-S" d="M220,56 l0,110" />
        <path id="right-margin-Ultralight-S" d="M310,56 l0,110" />
        <path id="left-margin-Regular-S" d="M420,56 l0,110" />
        <path id="right-margin-Regular-S" d="M510,56 l0,110" />
        <path id="left-margin-Black-S" d="M620,56 l0,110" />
        <path id="right-margin-Black-S" d="M710,56 l0,110" />
        <path id="Capline-M" d="M18,276 l800,0" />
        <path id="Baseline-M" d="M18,346 l800,0" />
        <path id="Capline-L" d="M18,476 l800,0" />
        <path id="Baseline-L" d="M18,546 l800,0" />
    </g>
    <g id="Symbols">
        <g id="Ultralight-S">
            <path d="M294.615,111 L294.615,137.923 C294.615,138.637 294.332,139.322 293.827,139.827 C293.322,140.332 292.637,140.615 291.923,140.615 L238.077,140.615 C237.363,140.615 236.678,140.332 236.173,139.827 C235.668,139.322 235.385,138.637 235.385,137.923 L235.385,84.077 C235.385,83.363 235.668,82.678 236.173,82.173 C236.678,81.668 237.363,81.385 238.077,81.385 L291.923,81.385 C292.637,81.385 293.322,81.668 293.827,82.173 C294.332,82.678 294.615,83.363 294.615,84.077 L294.615,111 Z M300,111 L300,84.077 C300,81.935 299.149,79.88 297.634,78.366 C296.12,76.851 294.065,76 291.923,76 L238.077,76 C235.935,76 233.88,76.851 232.366,78.366 C230.851,79.88 230,81.935 230,84.077 L230,137.923 C230,140.065 230.851,142.12 232.366,143.634 C233.88,145.149 235.935,146 238.077,146 L291.923,146 C294.065,146 296.12,145.149 297.634,143.634 C299.149,142.12 300,140.065 300,137.923 L300,111 Z" />
            <path d="M258.718,102.026 C258.718,98.39 261.687,95.744 265,95.744 C268.313,95.744 271.282,98.39 271.282,102.026 C271.282,105.272 269.126,108.21 263.134,113.973 C260.8,116.217 260.406,116.6 259.455,117.582 C255.376,121.788 253.333,125.12 253.333,128.949 C253.333,130.436 254.539,131.641 256.026,131.641 L273.974,131.641 C275.461,131.641 276.667,130.436 276.667,128.949 C276.667,127.462 275.461,126.256 273.974,126.256 L256.026,126.256 L258.718,128.949 C258.718,126.933 260.146,124.603 263.32,121.331 C264.209,120.414 264.589,120.043 266.866,117.854 C273.981,111.012 276.667,107.352 276.667,102.026 C276.667,95.269 271.158,90.359 265,90.359 C258.843,90.359 253.333,95.269 253.333,102.026 C253.333,103.513 254.539,104.718 256.026,104.718 C257.513,104.718 258.718,103.513 258.718,102.026 Z" />
        </g>
        <g id="Regular-S">
            <path d="M494.615,111 L494.615,137.923 C494.615,138.637 494.332,139.322 493.827,139.827 C493.322,140.332 492.637,140.615 491.923,140.615 L438.077,140.615 C437.363,140.615 436.678,140.332 436.173,139.827 C435.668,139.322 435.385,138.637 435.385,137.923 L435.385,84.077 C435.385,83.363 435.668,82.678 436.173,82.173 C436.678,81.668 437.363,81.385 438.077,81.385 L491.923,81.385 C492.637,81.385 493.322,81.668 493.827,82.173 C494.332,82.678 494.615,83.363 494.615,84.077 L494.615,111 Z M500,111 L500,84.077 C500,81.935 499.149,79.88 497.634,78.366 C496.12,76.851 494.065,76 491.923,76 L438.077,76 C435.935,76 433.88,76.851 432.366,78.366 C430.851,79.88 430,81.935 430,84.077 L430,137.923 C430,140.065 430.851,142.12 432.366,143.634 C433.88,145.149 435.935,146 438.077,146 L491.923,146 C494.065,146 496.12,145.149 497.634,143.634 C499.149,142.12 500,140.065 500,137.923 L500,111 Z" />
            <path d="M458.718,102.026 C458.718,98.39 461.687,95.744 465,95.744 C468.313,95.744 471.282,98.39 471.282,102.026 C471.282,105.272 469.126,108.21 463.134,113.973 C460.8,116.217 460.406,116.6 459.455,117.582 C455.376,121.788 453.333,125.12 453.333,128.949 C453.333,130.436 454.539,131.641 456.026,131.641 L473.974,131.641 C475.461,131.641 476.667,130.436 476.667,128.949 C476.667,127.462 475.461,126.256 473.974,126.256 L456.026,126.256 L458.718,128.949 C458.718,126.933 460.146,124.603 463.32,121.331 C464.209,120.414 464.589,120.043 466.866,117.854 C473.981,111.012 476.667,107.352 476.667,102.026 C476.667,95.269 471.158,90.359 465,90.359 C458.843,90.359 453.333,95.269 453.333,102.026 C453.333,103.513 454.539,104.718 456.026,104.718 C457.513,104.718 458.718,103.513 458.718,102.026 Z" />
        </g>
        <g id="Black-S">
            <path d="M694.615,111 L694.615,137.923 C694.615,138.637 694.332,139.322 693.827,139.827 C693.322,140.332 692.637,140.615 691.923,140.615 L638.077,140.615 C637.363,140.615 636.678,140.332 636.173,139.827 C635.668,139.322 635.385,138.637 635.385,137.923 L635.385,84.077 C635.385,83.363 635.668,82.678 636.173,82.173 C636.678,81.668 637.363,81.385 638.077,81.385 L691.923,81.385 C692.637,81.385 693.322,81.668 693.827,82.173 C694.332,82.678 694.615,83.363 694.615,84.077 L694.615,111 Z M700,111 L700,84.077 C700,81.935 699.149,79.88 697.634,78.366 C696.12,76.851 694.065,76 691.923,76 L638.077,76 C635.935,76 633.88,76.851 632.366,78.366 C630.851,79.88 630,81.935 630,84.077 L630,137.923 C630,140.065 630.851,142.12 632.366,143.634 C633.88,145.149 635.935,146 638.077,146 L691.923,146 C694.065,146 696.12,145.149 697.634,143.634 C699.149,142.12 700,140.065 700,137.923 L700,111 Z" />
            <path d="M658.718,102.026 C658.718,98.39 661.687,95.744 665,95.744 C668.313,95.744 671.282,98.39 671.282,102.026 C671.282,105.272 669.126,108.21 663.134,113.973 C660.8,116.217 660.406,116.6 659.455,117.582 C655.376,121.788 653.333,125.12 653.333,128.949 C653.333,130.436 654.539,131.641 656.026,131.641 L673.974,131.641 C675.461,131.641 676.667,130.436 676.667,128.949 C676.667,127.462 675.461,126.256 673.974,126.256 L656.026,126.256 L658.718,128.949 C658.718,126.933 660.146,124.603 663.32,121.331 C664.209,120.414 664.589,120.043 666.866,117.854 C673.981,111.012 676.667,107.352 676.667,102.026 C676.667,95.269 671.158,90.359 665,90.359 C658.843,90.359 653.333,95.269 653.333,102.026 C653.333,103.513 654.539,104.718 656.026,104.718 C657.513,104.718 658.718,103.513 658.718,102.026 Z" />
        </g>
    </g>
</svg>