<?xml version="1.0" encoding="UTF-8"?>
<svg height="600" width="800" xmlns="http://www.w3.org/2000/svg" xmlns:xlink="http://www.w3.org/1999/xlink">
    <g id="Notes" font-family="'LucidaGrande', 'Lucida Grande', sans-serif" font-size="13">
        <rect fill="white" height="600.0" width="800.0" x="0.0" y="0.0" />
        <g font-size="13">
            <text x="18.0" y="176.0">Small</text>
            <text x="18.0" y="376.0">Medium</text>
            <text x="18.0" y="576.0">Large</text>
        </g>
        <g font-size="9">
            <text x="250.0" y="30.0">Ultralight</text>
            <text x="450.0" y="30.0">Regular</text>
            <text x="650.0" y="30.0">Black</text>
            <text id="template-version" fill="#505050" text-anchor="end" x="785.0" y="575.0">Template v.3.0</text>
            <a href="https://github.com/swhitty/SwiftDraw">
                <text fill="#505050" text-anchor="end" x="785.0" y="590.0">https://github.com/swhitty/SwiftDraw</text>
            </a>
        </g>
    </g>
    <g id="Guides" stroke="rgb(39, 170, 225)" stroke-width="0.5">
        <path id="Capline-S" d="M18,76 l800,0" />
        <path id="H-reference" d="M85,145.755 L87.685,145.755 L113.369,79.287 L114.052,79.287 L114.052,76 L112.148,76 L85,145.755 Z M95.693,121.536 L130.996,121.536 L130.263,119.313 L96.474,119.313 L95.693,121.536 Z M139.15,145.755 L141.787,145.755 L114.638,76 L113.466,76 L113.466,79.287 L139.15,145.755 Z" stroke="none" />
        <path id="Baseline-S" d="M18,146 l800,0" />
        <path id="left-margin-Ultralight-S" d="M220,56 l0,110" />
        <path id="right-margin-Ultralight-S" d="M310,56 l0,110" />
        <path id="left-margin-Regular-S" d="M420,56 l0,110" />
        <path id="right-margin-Regular-S" d="M510,56 l0,110" />
        <path id="left-margin-Black-S" d="M620,56 l0,110" />
        <path id="right-margin-Black-S" d="M710,56 l0,110" />
        <path id="Capline-M" d="M18,276 l800,0" />
        <path id="Baseline-M" d="M18,346 l800,0" />
        <path id="Capline-L" d="M18,476 l800,0" />
        <path id="Baseline-L" d="M18,546 l800,0" />
    </g>
    <g id="Symbols">
        <g id="Ultralight-S">
            <path d="M267.442,111 L267.442,132.366 C267.442,137.406 266.079,141.116 263.372,141.116 C260.824,141.116 259.302,137.788 259.302,134.401 C259.302,133.053 258.209,131.959 256.86,131.959 C255.512,131.959 254.419,133.053 254.419,134.401 C254.419,140.172 257.083,146 263.372,146 C267.205,146 269.782,143.648 271.141,139.949 C271.995,137.622 272.326,134.959 272.326,132.366 L272.326,111 C272.326,109.651 271.232,108.558 269.884,108.558 C268.535,108.558 267.442,109.651 267.442,111 Z" />
            <path d="M265,80.884 C274.924,80.884 282.447,84.949 287.792,92.112 C291.971,97.711 294.544,105.006 295.127,111.228 L297.558,108.558 L232.442,108.558 L234.873,111.228 C235.456,105.006 238.029,97.711 242.208,92.112 C247.553,84.949 255.076,80.884 265,80.884 Z M265,76 C253.476,76 244.53,80.835 238.294,89.191 C233.548,95.551 230.674,103.699 230.011,110.772 C229.876,112.204 231.003,113.442 232.442,113.442 L297.558,113.442 C298.997,113.442 300.124,112.204 299.989,110.772 C299.326,103.699 296.452,95.551 291.706,89.191 C285.47,80.835 276.524,76 265,76 Z" />
            <path d="M255.134,96.448 L261.645,102.959 C262.651,103.965 264.3,103.902 265.226,102.822 L274.994,91.426 C275.871,90.402 275.753,88.861 274.729,87.983 C273.705,87.106 272.163,87.224 271.286,88.248 L261.518,99.643 L265.099,99.506 L258.587,92.994 C257.634,92.041 256.087,92.041 255.134,92.994 C254.18,93.948 254.18,95.494 255.134,96.448 Z" />
        </g>
        <g id="Regular-S">
            <path d="M467.442,111 L467.442,132.366 C467.442,137.406 466.079,141.116 463.372,141.116 C460.824,141.116 459.302,137.788 459.302,134.401 C459.302,133.053 458.209,131.959 456.86,131.959 C455.512,131.959 454.419,133.053 454.419,134.401 C454.419,140.172 457.083,146 463.372,146 C467.205,146 469.782,143.648 471.141,139.949 C471.995,137.622 472.326,134.959 472.326,132.366 L472.326,111 C472.326,109.651 471.232,108.558 469.884,108.558 C468.535,108.558 467.442,109.651 467.442,111 Z" />
            <path d="M465,80.884 C474.924,80.884 482.447,84.949 487.792,92.112 C491.971,97.711 494.544,105.006 495.127,111.228 L497.558,108.558 L432.442,108.558 L434.873,111.228 C435.456,105.006 438.029,97.711 442.208,92.112 C447.553,84.949 455.076,80.884 465,80.884 Z M465,76 C453.476,76 444.53,80.835 438.294,89.191 C433.548,95.551 430.674,103.699 430.011,110.772 C429.876,112.204 431.003,113.442 432.442,113.442 L497.558,113.442 C498.997,113.442 500.124,112.204 499.989,110.772 C499.326,103.699 496.452,95.551 491.706,89.191 C485.47,80.835 476.524,76 465,76 Z" />
            <path d="M455.134,96.448 L461.645,102.959 C462.651,103.965 464.3,103.902 465.226,102.822 L474.994,91.426 C475.871,90.402 475.753,88.861 474.729,87.983 C473.705,87.106 472.163,87.224 471.286,88.248 L461.518,99.643 L465.099,99.506 L458.587,92.994 C457.634,92.041 456.087,92.041 455.134,92.994 C454.18,93.948 454.18,95.494 455.134,96.448 Z" />
        </g>
        <g id="Black-S">
            <path d="M667.442,111 L667.442,132.366 C667.442,137.406 666.079,141.116 663.372,141.116 C660.824,141.116 659.302,137.788 659.302,134.401 C659.302,133.053 658.209,131.959 656.86,131.959 C655.512,131.959 654.419,133.053 654.419,134.401 C654.419,140.172 657.083,146 663.372,146 C667.205,146 669.782,143.648 671.141,139.949 C671.995,137.622 672.326,134.959 672.326,132.366 L672.326,111 C672.326,109.651 671.232,108.558 669.884,108.558 C668.535,108.558 667.442,109.651 667.442,111 Z" />
            <path d="M665,80.884 C674.924,80.884 682.447,84.949 687.792,92.112 C691.971,97.711 694.544,105.006 695.127,111.228 L697.558,108.558 L632.442,108.558 L634.873,111.228 C635.456,105.006 638.029,97.711 642.208,92.112 C647.553,84.949 655.076,80.884 665,80.884 Z M665,76 C653.476,76 644.53,80.835 638.294,89.191 C633.548,95.551 630.674,103.699 630.011,110.772 C629.876,112.204 631.003,113.442 632.442,113.442 L697.558,113.442 C698.997,113.442 700.124,112.204 699.989,110.772 C699.326,103.699 696.452,95.551 691.706,89.191 C685.47,80.835 676.524,76 665,76 Z" />
            <path d="M655.134,96.448 L661.645,102.959 C662.651,103.965 664.3,103.902 665.226,102.822 L674.994,91.426 C675.871,90.402 675.753,88.861 674.729,87.983 C673.705,87.106 672.163,87.224 671.286,88.248 L661.518,99.643 L665.099,99.506 L658.587,92.994 C657.634,92.041 656.087,92.041 655.134,92.994 C654.18,93.948 654.18,95.494 655.134,96.448 Z" />
        </g>
    </g>
</svg>