<?xml version="1.0" encoding="UTF-8"?>
<svg height="600" width="800" xmlns="http://www.w3.org/2000/svg" xmlns:xlink="http://www.w3.org/1999/xlink">
    <g id="Notes" font-family="'LucidaGrande', 'Lucida Grande', sans-serif" font-size="13">
        <rect fill="white" height="600.0" width="800.0" x="0.0" y="0.0" />
        <g font-size="13">
            <text x="18.0" y="176.0">Small</text>
            <text x="18.0" y="376.0">Medium</text>
            <text x="18.0" y="576.0">Large</text>
        </g>
        <g font-size="9">
            <text x="250.0" y="30.0">Ultralight</text>
            <text x="450.0" y="30.0">Regular</text>
            <text x="650.0" y="30.0">Black</text>
            <text id="template-version" fill="#505050" text-anchor="end" x="785.0" y="575.0">Template v.3.0</text>
            <a href="https://github.com/swhitty/SwiftDraw">
                <text fill="#505050" text-anchor="end" x="785.0" y="590.0">https://github.com/swhitty/SwiftDraw</text>
            </a>
        </g>
    </g>
    <g id="Guides" stroke="rgb(39, 170, 225)" stroke-width="0.5">
        <path id="Capline-S" d="M18,76 l800,0" />
        <path id="H-reference" d="M85,145.755 L87.685,145.755 L113.369,79.287 L114.052,79.287 L114.052,76 L112.148,76 L85,145.755 Z M95.693,121.536 L130.996,121.536 L130.263,119.313 L96.474,119.313 L95.693,121.536 Z M139.15,145.755 L141.787,145.755 L114.638,76 L113.466,76 L113.466,79.287 L139.15,145.755 Z" stroke="none" />
        <path id="Baseline-S" d="M18,146 l800,0" />
        <path id="left-margin-Ultralight-S" d="M220,56 l0,110" />
        <path id="right-margin-Ultralight-S" d="M310,56 l0,110" />
        <path id="left-margin-Regular-S" d="M420,56 l0,110" />
        <path id="right-margin-Regular-S" d="M510,56 l0,110" />
        <path id="left-margin-Black-S" d="M620,56 l0,110" />
        <path id="right-margin-Black-S" d="M710,56 l0,110" />
        <path id="Capline-M" d="M18,276 l800,0" />
        <path id="Baseline-M" d="M18,346 l800,0" />
        <path id="Capline-L" d="M18,476 l800,0" />
        <path id="Baseline-L" d="M18,546 l800,0" />
    </g>
    <g id="Symbols">
        <g id="Ultralight-S">
            <path d="M291.923,76 L238.077,76 C233.616,76 230,79.616 230,84.077 L230,137.923 C230,142.384 233.616,146 238.077,146 L291.923,146 C296.384,146 300,142.384 300,137.923 L300,84.077 C300,79.616 296.384,76 291.923,76 Z M291.923,81.385 C293.41,81.385 294.615,82.59 294.615,84.077 L294.615,137.923 C294.615,139.41 293.41,140.615 291.923,140.615 L238.077,140.615 C236.59,140.615 235.385,139.41 235.385,137.923 L235.385,84.077 C235.385,82.59 236.59,81.385 238.077,81.385 L291.923,81.385 Z" />
            <path d="M281.263,116.276 L266.904,101.917 C265.852,100.865 264.148,100.865 263.096,101.917 L248.737,116.276 C247.686,117.327 247.686,119.032 248.737,120.083 C249.789,121.135 251.493,121.135 252.545,120.083 L266.904,105.724 L263.096,105.724 L277.455,120.083 C278.507,121.135 280.211,121.135 281.263,120.083 C282.314,119.032 282.314,117.327 281.263,116.276 Z" />
            <path d="M267.692,132.538 L267.692,104.718 C267.692,103.231 266.487,102.026 265,102.026 C263.513,102.026 262.308,103.231 262.308,104.718 L262.308,132.538 C262.308,134.025 263.513,135.231 265,135.231 C266.487,135.231 267.692,134.025 267.692,132.538 Z" />
            <path d="M250.641,95.744 L279.359,95.744 C280.846,95.744 282.051,94.538 282.051,93.051 C282.051,91.564 280.846,90.359 279.359,90.359 L250.641,90.359 C249.154,90.359 247.949,91.564 247.949,93.051 C247.949,94.538 249.154,95.744 250.641,95.744 Z" />
        </g>
        <g id="Regular-S">
            <path d="M491.923,76 L438.077,76 C433.616,76 430,79.616 430,84.077 L430,137.923 C430,142.384 433.616,146 438.077,146 L491.923,146 C496.384,146 500,142.384 500,137.923 L500,84.077 C500,79.616 496.384,76 491.923,76 Z M491.923,81.385 C493.41,81.385 494.615,82.59 494.615,84.077 L494.615,137.923 C494.615,139.41 493.41,140.615 491.923,140.615 L438.077,140.615 C436.59,140.615 435.385,139.41 435.385,137.923 L435.385,84.077 C435.385,82.59 436.59,81.385 438.077,81.385 L491.923,81.385 Z" />
            <path d="M481.263,116.276 L466.904,101.917 C465.852,100.865 464.148,100.865 463.096,101.917 L448.737,116.276 C447.686,117.327 447.686,119.032 448.737,120.083 C449.789,121.135 451.493,121.135 452.545,120.083 L466.904,105.724 L463.096,105.724 L477.455,120.083 C478.507,121.135 480.211,121.135 481.263,120.083 C482.314,119.032 482.314,117.327 481.263,116.276 Z" />
            <path d="M467.692,132.538 L467.692,104.718 C467.692,103.231 466.487,102.026 465,102.026 C463.513,102.026 462.308,103.231 462.308,104.718 L462.308,132.538 C462.308,134.025 463.513,135.231 465,135.231 C466.487,135.231 467.692,134.025 467.692,132.538 Z" />
            <path d="M450.641,95.744 L479.359,95.744 C480.846,95.744 482.051,94.538 482.051,93.051 C482.051,91.564 480.846,90.359 479.359,90.359 L450.641,90.359 C449.154,90.359 447.949,91.564 447.949,93.051 C447.949,94.538 449.154,95.744 450.641,95.744 Z" />
        </g>
        <g id="Black-S">
            <path d="M691.923,76 L638.077,76 C633.616,76 630,79.616 630,84.077 L630,137.923 C630,142.384 633.616,146 638.077,146 L691.923,146 C696.384,146 700,142.384 700,137.923 L700,84.077 C700,79.616 696.384,76 691.923,76 Z M691.923,81.385 C693.41,81.385 694.615,82.59 694.615,84.077 L694.615,137.923 C694.615,139.41 693.41,140.615 691.923,140.615 L638.077,140.615 C636.59,140.615 635.385,139.41 635.385,137.923 L635.385,84.077 C635.385,82.59 636.59,81.385 638.077,81.385 L691.923,81.385 Z" />
            <path d="M681.263,116.276 L666.904,101.917 C665.852,100.865 664.148,100.865 663.096,101.917 L648.737,116.276 C647.686,117.327 647.686,119.032 648.737,120.083 C649.789,121.135 651.493,121.135 652.545,120.083 L666.904,105.724 L663.096,105.724 L677.455,120.083 C678.507,121.135 680.211,121.135 681.263,120.083 C682.314,119.032 682.314,117.327 681.263,116.276 Z" />
            <path d="M667.692,132.538 L667.692,104.718 C667.692,103.231 666.487,102.026 665,102.026 C663.513,102.026 662.308,103.231 662.308,104.718 L662.308,132.538 C662.308,134.025 663.513,135.231 665,135.231 C666.487,135.231 667.692,134.025 667.692,132.538 Z" />
            <path d="M650.641,95.744 L679.359,95.744 C680.846,95.744 682.051,94.538 682.051,93.051 C682.051,91.564 680.846,90.359 679.359,90.359 L650.641,90.359 C649.154,90.359 647.949,91.564 647.949,93.051 C647.949,94.538 649.154,95.744 650.641,95.744 Z" />
        </g>
    </g>
</svg>