<?xml version="1.0" encoding="UTF-8"?>
<svg height="600" width="800" xmlns="http://www.w3.org/2000/svg" xmlns:xlink="http://www.w3.org/1999/xlink">
    <g id="Notes" font-family="'LucidaGrande', 'Lucida Grande', sans-serif" font-size="13">
        <rect fill="white" height="600.0" width="800.0" x="0.0" y="0.0" />
        <g font-size="13">
            <text x="18.0" y="176.0">Small</text>
            <text x="18.0" y="376.0">Medium</text>
            <text x="18.0" y="576.0">Large</text>
        </g>
        <g font-size="9">
            <text x="250.0" y="30.0">Ultralight</text>
            <text x="450.0" y="30.0">Regular</text>
            <text x="650.0" y="30.0">Black</text>
            <text id="template-version" fill="#505050" text-anchor="end" x="785.0" y="575.0">Template v.3.0</text>
            <a href="https://github.com/swhitty/SwiftDraw">
                <text fill="#505050" text-anchor="end" x="785.0" y="590.0">https://github.com/swhitty/SwiftDraw</text>
            </a>
        </g>
    </g>
    <g id="Guides" stroke="rgb(39, 170, 225)" stroke-width="0.5">
        <path id="Capline-S" d="M18,76 l800,0" />
        <path id="H-reference" d="M85,145.755 L87.685,145.755 L113.369,79.287 L114.052,79.287 L114.052,76 L112.148,76 L85,145.755 Z M95.693,121.536 L130.996,121.536 L130.263,119.313 L96.474,119.313 L95.693,121.536 Z M139.15,145.755 L141.787,145.755 L114.638,76 L113.466,76 L113.466,79.287 L139.15,145.755 Z" stroke="none" />
        <path id="Baseline-S" d="M18,146 l800,0" />
        <path id="left-margin-Ultralight-S" d="M220,56 l0,110" />
        <path id="right-margin-Ultralight-S" d="M310,56 l0,110" />
        <path id="left-margin-Regular-S" d="M420,56 l0,110" />
        <path id="right-margin-Regular-S" d="M510,56 l0,110" />
        <path id="left-margin-Black-S" d="M620,56 l0,110" />
        <path id="right-margin-Black-S" d="M710,56 l0,110" />
        <path id="Capline-M" d="M18,276 l800,0" />
        <path id="Baseline-M" d="M18,346 l800,0" />
        <path id="Capline-L" d="M18,476 l800,0" />
        <path id="Baseline-L" d="M18,546 l800,0" />
    </g>
    <g id="Symbols">
        <g id="Ultralight-S">
            <path d="M297.308,102.923 L232.692,102.923 C231.205,102.923 230,104.128 230,105.615 L230,143.308 C230,144.795 231.205,146 232.692,146 L297.308,146 C298.795,146 300,144.795 300,143.308 L300,105.615 C300,104.128 298.795,102.923 297.308,102.923 Z M297.308,108.308 L294.615,105.615 L294.615,143.308 L297.308,140.615 L232.692,140.615 L235.385,143.308 L235.385,105.615 L232.692,108.308 L297.308,108.308 Z" />
            <path d="M249.744,105.615 L249.744,78.692 L247.051,81.385 L282.949,81.385 L280.256,78.692 L280.256,105.615 C280.256,107.102 281.462,108.308 282.949,108.308 C284.436,108.308 285.641,107.102 285.641,105.615 L285.641,78.692 C285.641,77.205 284.436,76 282.949,76 L247.051,76 C245.564,76 244.359,77.205 244.359,78.692 L244.359,105.615 C244.359,107.102 245.564,108.308 247.051,108.308 C248.538,108.308 249.744,107.102 249.744,105.615 Z" />
            <path d="M255.128,89.462 L255.128,93.051 C255.128,94.538 256.334,95.744 257.821,95.744 C259.307,95.744 260.513,94.538 260.513,93.051 L260.513,89.462 C260.513,87.975 259.307,86.769 257.821,86.769 C256.334,86.769 255.128,87.975 255.128,89.462 Z" />
            <path d="M269.487,89.462 L269.487,93.051 C269.487,94.538 270.693,95.744 272.18,95.744 C273.666,95.744 274.872,94.538 274.872,93.051 L274.872,89.462 C274.872,87.975 273.666,86.769 272.18,86.769 C270.693,86.769 269.487,87.975 269.487,89.462 Z" />
        </g>
        <g id="Regular-S">
            <path d="M497.308,102.923 L432.692,102.923 C431.205,102.923 430,104.128 430,105.615 L430,143.308 C430,144.795 431.205,146 432.692,146 L497.308,146 C498.795,146 500,144.795 500,143.308 L500,105.615 C500,104.128 498.795,102.923 497.308,102.923 Z M497.308,108.308 L494.615,105.615 L494.615,143.308 L497.308,140.615 L432.692,140.615 L435.385,143.308 L435.385,105.615 L432.692,108.308 L497.308,108.308 Z" />
            <path d="M449.744,105.615 L449.744,78.692 L447.051,81.385 L482.949,81.385 L480.256,78.692 L480.256,105.615 C480.256,107.102 481.462,108.308 482.949,108.308 C484.436,108.308 485.641,107.102 485.641,105.615 L485.641,78.692 C485.641,77.205 484.436,76 482.949,76 L447.051,76 C445.564,76 444.359,77.205 444.359,78.692 L444.359,105.615 C444.359,107.102 445.564,108.308 447.051,108.308 C448.538,108.308 449.744,107.102 449.744,105.615 Z" />
            <path d="M455.128,89.462 L455.128,93.051 C455.128,94.538 456.334,95.744 457.82,95.744 C459.307,95.744 460.513,94.538 460.513,93.051 L460.513,89.462 C460.513,87.975 459.307,86.769 457.82,86.769 C456.334,86.769 455.128,87.975 455.128,89.462 Z" />
            <path d="M469.487,89.462 L469.487,93.051 C469.487,94.538 470.693,95.744 472.179,95.744 C473.666,95.744 474.872,94.538 474.872,93.051 L474.872,89.462 C474.872,87.975 473.666,86.769 472.179,86.769 C470.693,86.769 469.487,87.975 469.487,89.462 Z" />
        </g>
        <g id="Black-S">
            <path d="M697.308,102.923 L632.692,102.923 C631.205,102.923 630,104.128 630,105.615 L630,143.308 C630,144.795 631.205,146 632.692,146 L697.308,146 C698.795,146 700,144.795 700,143.308 L700,105.615 C700,104.128 698.795,102.923 697.308,102.923 Z M697.308,108.308 L694.615,105.615 L694.615,143.308 L697.308,140.615 L632.692,140.615 L635.385,143.308 L635.385,105.615 L632.692,108.308 L697.308,108.308 Z" />
            <path d="M649.744,105.615 L649.744,78.692 L647.051,81.385 L682.949,81.385 L680.256,78.692 L680.256,105.615 C680.256,107.102 681.462,108.308 682.949,108.308 C684.436,108.308 685.641,107.102 685.641,105.615 L685.641,78.692 C685.641,77.205 684.436,76 682.949,76 L647.051,76 C645.564,76 644.359,77.205 644.359,78.692 L644.359,105.615 C644.359,107.102 645.564,108.308 647.051,108.308 C648.538,108.308 649.744,107.102 649.744,105.615 Z" />
            <path d="M655.128,89.462 L655.128,93.051 C655.128,94.538 656.334,95.744 657.821,95.744 C659.307,95.744 660.513,94.538 660.513,93.051 L660.513,89.462 C660.513,87.975 659.307,86.769 657.821,86.769 C656.334,86.769 655.128,87.975 655.128,89.462 Z" />
            <path d="M669.487,89.462 L669.487,93.051 C669.487,94.538 670.693,95.744 672.18,95.744 C673.666,95.744 674.872,94.538 674.872,93.051 L674.872,89.462 C674.872,87.975 673.666,86.769 672.18,86.769 C670.693,86.769 669.487,87.975 669.487,89.462 Z" />
        </g>
    </g>
</svg>