<?xml version="1.0" encoding="UTF-8"?>
<svg height="600" width="800" xmlns="http://www.w3.org/2000/svg" xmlns:xlink="http://www.w3.org/1999/xlink">
    <g id="Notes" font-family="'LucidaGrande', 'Lucida Grande', sans-serif" font-size="13">
        <rect fill="white" height="600.0" width="800.0" x="0.0" y="0.0" />
        <g font-size="13">
            <text x="18.0" y="176.0">Small</text>
            <text x="18.0" y="376.0">Medium</text>
            <text x="18.0" y="576.0">Large</text>
        </g>
        <g font-size="9">
            <text x="250.0" y="30.0">Ultralight</text>
            <text x="450.0" y="30.0">Regular</text>
            <text x="650.0" y="30.0">Black</text>
            <text id="template-version" fill="#505050" text-anchor="end" x="785.0" y="575.0">Template v.3.0</text>
            <a href="https://github.com/swhitty/SwiftDraw">
                <text fill="#505050" text-anchor="end" x="785.0" y="590.0">https://github.com/swhitty/SwiftDraw</text>
            </a>
        </g>
    </g>
    <g id="Guides" stroke="rgb(39, 170, 225)" stroke-width="0.5">
        <path id="Capline-S" d="M18,76 l800,0" />
        <path id="H-reference" d="M85,145.755 L87.685,145.755 L113.369,79.287 L114.052,79.287 L114.052,76 L112.148,76 L85,145.755 Z M95.693,121.536 L130.996,121.536 L130.263,119.313 L96.474,119.313 L95.693,121.536 Z M139.15,145.755 L141.787,145.755 L114.638,76 L113.466,76 L113.466,79.287 L139.15,145.755 Z" stroke="none" />
        <path id="Baseline-S" d="M18,146 l800,0" />
        <path id="left-margin-Ultralight-S" d="M220,56 l0,110" />
        <path id="right-margin-Ultralight-S" d="M310,56 l0,110" />
        <path id="left-margin-Regular-S" d="M420,56 l0,110" />
        <path id="right-margin-Regular-S" d="M510,56 l0,110" />
        <path id="left-margin-Black-S" d="M620,56 l0,110" />
        <path id="right-margin-Black-S" d="M710,56 l0,110" />
        <path id="Capline-M" d="M18,276 l800,0" />
        <path id="Baseline-M" d="M18,346 l800,0" />
        <path id="Capline-L" d="M18,476 l800,0" />
        <path id="Baseline-L" d="M18,546 l800,0" />
    </g>
    <g id="Symbols">
        <g id="Ultralight-S">
            <path d="M245.466,76 L232.443,76 C230.831,76 229.661,77.535 230.088,79.09 L247.995,144.205 C248.287,145.265 249.25,145.999 250.35,145.999 L263.373,145.999 C264.985,145.999 266.154,144.465 265.727,142.91 L247.82,77.795 C247.529,76.735 246.565,76 245.466,76 Z M245.466,80.884 L243.111,79.09 L261.018,144.205 L263.373,141.116 L250.35,141.116 L252.704,142.91 L234.797,77.795 L232.443,80.884 L245.466,80.884 Z" />
            <path d="M265.535,144.693 L299.72,79.577 C300.347,78.383 299.887,76.907 298.693,76.28 C297.499,75.653 296.023,76.113 295.396,77.307 L261.211,142.423 C260.584,143.617 261.043,145.093 262.238,145.72 C263.432,146.347 264.908,145.887 265.535,144.693 Z" />
        </g>
        <g id="Regular-S">
            <path d="M445.466,76 L432.443,76 C430.831,76 429.661,77.535 430.088,79.09 L447.995,144.205 C448.287,145.265 449.25,145.999 450.349,145.999 L463.373,145.999 C464.985,145.999 466.154,144.465 465.727,142.91 L447.82,77.795 C447.529,76.735 446.565,76 445.466,76 Z M445.466,80.884 L443.111,79.09 L461.018,144.205 L463.373,141.116 L450.349,141.116 L452.704,142.91 L434.797,77.795 L432.443,80.884 L445.466,80.884 Z" />
            <path d="M465.535,144.693 L499.72,79.577 C500.347,78.383 499.887,76.907 498.693,76.28 C497.499,75.653 496.023,76.113 495.396,77.307 L461.211,142.423 C460.584,143.617 461.043,145.093 462.238,145.72 C463.432,146.347 464.908,145.887 465.535,144.693 Z" />
        </g>
        <g id="Black-S">
            <path d="M645.466,76 L632.443,76 C630.831,76 629.661,77.535 630.088,79.09 L647.995,144.205 C648.287,145.265 649.25,145.999 650.35,145.999 L663.373,145.999 C664.985,145.999 666.155,144.465 665.727,142.91 L647.82,77.795 C647.529,76.735 646.565,76 645.466,76 Z M645.466,80.884 L643.111,79.09 L661.018,144.205 L663.373,141.116 L650.35,141.116 L652.704,142.91 L634.797,77.795 L632.443,80.884 L645.466,80.884 Z" />
            <path d="M665.535,144.693 L699.72,79.577 C700.347,78.383 699.887,76.907 698.693,76.28 C697.499,75.653 696.023,76.113 695.396,77.307 L661.211,142.423 C660.584,143.617 661.044,145.093 662.238,145.72 C663.432,146.347 664.908,145.887 665.535,144.693 Z" />
        </g>
    </g>
</svg>