<?xml version="1.0" encoding="UTF-8"?>
<svg height="600" width="800" xmlns="http://www.w3.org/2000/svg" xmlns:xlink="http://www.w3.org/1999/xlink">
    <g id="Notes" font-family="'LucidaGrande', 'Lucida Grande', sans-serif" font-size="13">
        <rect fill="white" height="600.0" width="800.0" x="0.0" y="0.0" />
        <g font-size="13">
            <text x="18.0" y="176.0">Small</text>
            <text x="18.0" y="376.0">Medium</text>
            <text x="18.0" y="576.0">Large</text>
        </g>
        <g font-size="9">
            <text x="250.0" y="30.0">Ultralight</text>
            <text x="450.0" y="30.0">Regular</text>
            <text x="650.0" y="30.0">Black</text>
            <text id="template-version" fill="#505050" text-anchor="end" x="785.0" y="575.0">Template v.3.0</text>
            <a href="https://github.com/swhitty/SwiftDraw">
                <text fill="#505050" text-anchor="end" x="785.0" y="590.0">https://github.com/swhitty/SwiftDraw</text>
            </a>
        </g>
    </g>
    <g id="Guides" stroke="rgb(39, 170, 225)" stroke-width="0.5">
        <path id="Capline-S" d="M18,76 l800,0" />
        <path id="H-reference" d="M85,145.755 L87.685,145.755 L113.369,79.287 L114.052,79.287 L114.052,76 L112.148,76 L85,145.755 Z M95.693,121.536 L130.996,121.536 L130.263,119.313 L96.474,119.313 L95.693,121.536 Z M139.15,145.755 L141.787,145.755 L114.638,76 L113.466,76 L113.466,79.287 L139.15,145.755 Z" stroke="none" />
        <path id="Baseline-S" d="M18,146 l800,0" />
        <path id="left-margin-Ultralight-S" d="M213.748,56 l0,110" />
        <path id="right-margin-Ultralight-S" d="M316.252,56 l0,110" />
        <path id="left-margin-Regular-S" d="M413.748,56 l0,110" />
        <path id="right-margin-Regular-S" d="M516.252,56 l0,110" />
        <path id="left-margin-Black-S" d="M613.748,56 l0,110" />
        <path id="right-margin-Black-S" d="M716.252,56 l0,110" />
        <path id="Capline-M" d="M18,276 l800,0" />
        <path id="Baseline-M" d="M18,346 l800,0" />
        <path id="Capline-L" d="M18,476 l800,0" />
        <path id="Baseline-L" d="M18,546 l800,0" />
    </g>
    <g id="Symbols">
        <g id="Ultralight-S">
            <path d="M229.708,98.796 L245.079,82.117 C245.283,81.896 245.61,81.755 245.968,81.755 L284.021,81.755 C284.379,81.755 284.706,81.896 284.91,82.117 L300.281,98.796 C300.558,99.097 300.553,99.479 300.265,99.777 L264.275,140.569 C264.657,140.137 265.332,140.137 265.714,140.569 L229.816,99.877 C229.436,99.479 229.43,99.097 229.708,98.796 Z M225.475,94.896 C223.128,97.443 223.18,101.296 225.593,103.784 L261.398,144.377 C263.307,146.541 266.682,146.541 268.591,144.377 L304.488,103.684 C306.809,101.296 306.861,97.443 304.513,94.895 L289.142,78.216 C287.837,76.8 285.971,76 284.021,76 L245.968,76 C244.018,76 242.152,76.8 240.847,78.216 L225.475,94.896 Z" />
            <path d="M247.496,105.729 L262.844,122.995 C263.988,124.282 266,124.282 267.145,122.995 L282.493,105.729 C283.548,104.541 283.441,102.722 282.254,101.666 C281.066,100.61 279.247,100.717 278.191,101.905 L262.844,119.171 L267.145,119.171 L251.798,101.905 C250.742,100.717 248.923,100.61 247.735,101.666 C246.547,102.722 246.44,104.541 247.496,105.729 Z" />
        </g>
        <g id="Regular-S">
            <path d="M429.708,98.796 L445.079,82.117 C445.283,81.896 445.61,81.755 445.968,81.755 L484.021,81.755 C484.379,81.755 484.706,81.896 484.91,82.117 L500.281,98.796 C500.558,99.097 500.553,99.479 500.265,99.777 L464.275,140.569 C464.657,140.137 465.332,140.137 465.714,140.569 L429.816,99.877 C429.436,99.479 429.43,99.097 429.708,98.796 Z M425.475,94.896 C423.128,97.443 423.18,101.296 425.593,103.784 L461.398,144.377 C463.307,146.541 466.682,146.541 468.591,144.377 L504.488,103.684 C506.809,101.296 506.861,97.443 504.513,94.895 L489.142,78.216 C487.837,76.8 485.971,76 484.021,76 L445.968,76 C444.018,76 442.152,76.8 440.847,78.216 L425.475,94.896 Z" />
            <path d="M447.496,105.729 L462.844,122.995 C463.988,124.282 466,124.282 467.145,122.995 L482.493,105.729 C483.548,104.541 483.441,102.722 482.254,101.666 C481.066,100.61 479.247,100.717 478.191,101.905 L462.844,119.171 L467.145,119.171 L451.798,101.905 C450.742,100.717 448.923,100.61 447.735,101.666 C446.547,102.722 446.44,104.541 447.496,105.729 Z" />
        </g>
        <g id="Black-S">
            <path d="M629.708,98.796 L645.079,82.117 C645.283,81.896 645.61,81.755 645.968,81.755 L684.021,81.755 C684.379,81.755 684.706,81.896 684.91,82.117 L700.281,98.796 C700.558,99.097 700.553,99.479 700.265,99.777 L664.275,140.569 C664.657,140.137 665.332,140.137 665.714,140.569 L629.816,99.877 C629.436,99.479 629.43,99.097 629.708,98.796 Z M625.475,94.896 C623.128,97.443 623.18,101.296 625.593,103.784 L661.398,144.377 C663.307,146.541 666.682,146.541 668.591,144.377 L704.488,103.684 C706.809,101.296 706.861,97.443 704.513,94.895 L689.142,78.216 C687.837,76.8 685.971,76 684.021,76 L645.968,76 C644.018,76 642.152,76.8 640.847,78.216 L625.475,94.896 Z" />
            <path d="M647.496,105.729 L662.844,122.995 C663.988,124.282 666,124.282 667.145,122.995 L682.492,105.729 C683.548,104.541 683.441,102.722 682.254,101.666 C681.066,100.61 679.247,100.717 678.191,101.905 L662.844,119.171 L667.145,119.171 L651.798,101.905 C650.742,100.717 648.923,100.61 647.735,101.666 C646.547,102.722 646.44,104.541 647.496,105.729 Z" />
        </g>
    </g>
</svg>