<?xml version="1.0" encoding="UTF-8"?>
<svg height="600" width="800" xmlns="http://www.w3.org/2000/svg" xmlns:xlink="http://www.w3.org/1999/xlink">
    <g id="Notes" font-family="'LucidaGrande', 'Lucida Grande', sans-serif" font-size="13">
        <rect fill="white" height="600.0" width="800.0" x="0.0" y="0.0" />
        <g font-size="13">
            <text x="18.0" y="176.0">Small</text>
            <text x="18.0" y="376.0">Medium</text>
            <text x="18.0" y="576.0">Large</text>
        </g>
        <g font-size="9">
            <text x="250.0" y="30.0">Ultralight</text>
            <text x="450.0" y="30.0">Regular</text>
            <text x="650.0" y="30.0">Black</text>
            <text id="template-version" fill="#505050" text-anchor="end" x="785.0" y="575.0">Template v.3.0</text>
            <a href="https://github.com/swhitty/SwiftDraw">
                <text fill="#505050" text-anchor="end" x="785.0" y="590.0">https://github.com/swhitty/SwiftDraw</text>
            </a>
        </g>
    </g>
    <g id="Guides" stroke="rgb(39, 170, 225)" stroke-width="0.5">
        <path id="Capline-S" d="M18,76 l800,0" />
        <path id="H-reference" d="M85,145.755 L87.685,145.755 L113.369,79.287 L114.052,79.287 L114.052,76 L112.148,76 L85,145.755 Z M95.693,121.536 L130.996,121.536 L130.263,119.313 L96.474,119.313 L95.693,121.536 Z M139.15,145.755 L141.787,145.755 L114.638,76 L113.466,76 L113.466,79.287 L139.15,145.755 Z" stroke="none" />
        <path id="Baseline-S" d="M18,146 l800,0" />
        <path id="left-margin-Ultralight-S" d="M213.195,56 l0,110" />
        <path id="right-margin-Ultralight-S" d="M316.805,56 l0,110" />
        <path id="left-margin-Regular-S" d="M413.195,56 l0,110" />
        <path id="right-margin-Regular-S" d="M516.805,56 l0,110" />
        <path id="left-margin-Black-S" d="M613.195,56 l0,110" />
        <path id="right-margin-Black-S" d="M716.805,56 l0,110" />
        <path id="Capline-M" d="M18,276 l800,0" />
        <path id="Baseline-M" d="M18,346 l800,0" />
        <path id="Capline-L" d="M18,476 l800,0" />
        <path id="Baseline-L" d="M18,546 l800,0" />
    </g>
    <g id="Symbols">
        <g id="Ultralight-S">
            <path d="M223.195,119.75 C223.195,134.247 234.947,145.999 249.444,145.999 C261.819,145.999 270.651,139.239 273.6,130.394 L276.612,120.607 L289.176,79.774 L283.574,79.684 L301.074,143.85 C301.498,145.404 303.101,146.32 304.656,145.896 C306.21,145.473 307.126,143.869 306.702,142.315 L289.202,78.149 C288.434,75.331 284.46,75.267 283.601,78.059 L271.037,118.892 L268.045,128.614 C265.891,135.074 259.238,140.166 249.444,140.166 C238.169,140.166 229.028,131.025 229.028,119.75 C229.028,118.139 227.722,116.833 226.111,116.833 C224.5,116.833 223.195,118.139 223.195,119.75 Z" />
            <path d="M297.525,116.833 L273.825,116.833 C272.214,116.833 270.908,118.139 270.908,119.75 C270.908,121.36 272.214,122.666 273.825,122.666 L297.525,122.666 C299.136,122.666 300.441,121.36 300.441,119.75 C300.441,118.139 299.136,116.833 297.525,116.833 Z" />
            <path d="M264.027,90.583 C264.027,82.529 257.498,76 249.444,76 C241.39,76 234.861,82.529 234.861,90.583 L234.861,119.75 C234.861,127.804 241.39,134.333 249.444,134.333 C257.498,134.333 264.027,127.804 264.027,119.75 L264.027,90.583 Z M258.194,90.583 L258.194,119.75 C258.194,124.582 254.277,128.499 249.444,128.499 C244.612,128.499 240.694,124.582 240.694,119.75 L240.694,90.583 C240.694,85.751 244.612,81.833 249.444,81.833 C254.277,81.833 258.194,85.751 258.194,90.583 Z" />
        </g>
        <g id="Regular-S">
            <path d="M423.195,119.75 C423.195,134.247 434.947,145.999 449.444,145.999 C461.819,145.999 470.651,139.239 473.6,130.394 L476.612,120.607 L489.176,79.774 L483.574,79.684 L501.074,143.85 C501.498,145.404 503.101,146.32 504.656,145.896 C506.21,145.473 507.126,143.869 506.702,142.315 L489.202,78.149 C488.434,75.331 484.46,75.267 483.601,78.059 L471.037,118.892 L468.045,128.614 C465.891,135.074 459.238,140.166 449.444,140.166 C438.169,140.166 429.028,131.025 429.028,119.75 C429.028,118.139 427.722,116.833 426.111,116.833 C424.5,116.833 423.195,118.139 423.195,119.75 Z" />
            <path d="M497.525,116.833 L473.825,116.833 C472.214,116.833 470.908,118.139 470.908,119.75 C470.908,121.36 472.214,122.666 473.825,122.666 L497.525,122.666 C499.136,122.666 500.441,121.36 500.441,119.75 C500.441,118.139 499.136,116.833 497.525,116.833 Z" />
            <path d="M464.027,90.583 C464.027,82.529 457.498,76 449.444,76 C441.39,76 434.861,82.529 434.861,90.583 L434.861,119.75 C434.861,127.804 441.39,134.333 449.444,134.333 C457.498,134.333 464.027,127.804 464.027,119.75 L464.027,90.583 Z M458.194,90.583 L458.194,119.75 C458.194,124.582 454.277,128.499 449.444,128.499 C444.612,128.499 440.694,124.582 440.694,119.75 L440.694,90.583 C440.694,85.751 444.612,81.833 449.444,81.833 C454.277,81.833 458.194,85.751 458.194,90.583 Z" />
        </g>
        <g id="Black-S">
            <path d="M623.195,119.75 C623.195,134.247 634.947,145.999 649.444,145.999 C661.819,145.999 670.651,139.239 673.6,130.394 L676.612,120.607 L689.176,79.774 L683.574,79.684 L701.074,143.85 C701.498,145.404 703.102,146.32 704.656,145.896 C706.21,145.473 707.126,143.869 706.702,142.315 L689.202,78.149 C688.434,75.331 684.46,75.267 683.601,78.059 L671.037,118.892 L668.045,128.614 C665.891,135.074 659.238,140.166 649.444,140.166 C638.169,140.166 629.028,131.025 629.028,119.75 C629.028,118.139 627.722,116.833 626.111,116.833 C624.5,116.833 623.195,118.139 623.195,119.75 Z" />
            <path d="M697.525,116.833 L673.825,116.833 C672.214,116.833 670.908,118.139 670.908,119.75 C670.908,121.36 672.214,122.666 673.825,122.666 L697.525,122.666 C699.136,122.666 700.441,121.36 700.441,119.75 C700.441,118.139 699.136,116.833 697.525,116.833 Z" />
            <path d="M664.027,90.583 C664.027,82.529 657.498,76 649.444,76 C641.39,76 634.861,82.529 634.861,90.583 L634.861,119.75 C634.861,127.804 641.39,134.333 649.444,134.333 C657.498,134.333 664.027,127.804 664.027,119.75 L664.027,90.583 Z M658.194,90.583 L658.194,119.75 C658.194,124.582 654.277,128.499 649.444,128.499 C644.612,128.499 640.694,124.582 640.694,119.75 L640.694,90.583 C640.694,85.751 644.612,81.833 649.444,81.833 C654.277,81.833 658.194,85.751 658.194,90.583 Z" />
        </g>
    </g>
</svg>