<?xml version="1.0" encoding="UTF-8"?>
<svg height="600" width="800" xmlns="http://www.w3.org/2000/svg" xmlns:xlink="http://www.w3.org/1999/xlink">
    <g id="Notes" font-family="'LucidaGrande', 'Lucida Grande', sans-serif" font-size="13">
        <rect fill="white" height="600.0" width="800.0" x="0.0" y="0.0" />
        <g font-size="13">
            <text x="18.0" y="176.0">Small</text>
            <text x="18.0" y="376.0">Medium</text>
            <text x="18.0" y="576.0">Large</text>
        </g>
        <g font-size="9">
            <text x="250.0" y="30.0">Ultralight</text>
            <text x="450.0" y="30.0">Regular</text>
            <text x="650.0" y="30.0">Black</text>
            <text id="template-version" fill="#505050" text-anchor="end" x="785.0" y="575.0">Template v.3.0</text>
            <a href="https://github.com/swhitty/SwiftDraw">
                <text fill="#505050" text-anchor="end" x="785.0" y="590.0">https://github.com/swhitty/SwiftDraw</text>
            </a>
        </g>
    </g>
    <g id="Guides" stroke="rgb(39, 170, 225)" stroke-width="0.5">
        <path id="Capline-S" d="M18,76 l800,0" />
        <path id="H-reference" d="M85,145.755 L87.685,145.755 L113.369,79.287 L114.052,79.287 L114.052,76 L112.148,76 L85,145.755 Z M95.693,121.536 L130.996,121.536 L130.263,119.313 L96.474,119.313 L95.693,121.536 Z M139.15,145.755 L141.787,145.755 L114.638,76 L113.466,76 L113.466,79.287 L139.15,145.755 Z" stroke="none" />
        <path id="Baseline-S" d="M18,146 l800,0" />
        <path id="left-margin-Ultralight-S" d="M220,56 l0,110" />
        <path id="right-margin-Ultralight-S" d="M310,56 l0,110" />
        <path id="left-margin-Regular-S" d="M420,56 l0,110" />
        <path id="right-margin-Regular-S" d="M510,56 l0,110" />
        <path id="left-margin-Black-S" d="M620,56 l0,110" />
        <path id="right-margin-Black-S" d="M710,56 l0,110" />
        <path id="Capline-M" d="M18,276 l800,0" />
        <path id="Baseline-M" d="M18,346 l800,0" />
        <path id="Capline-L" d="M18,476 l800,0" />
        <path id="Baseline-L" d="M18,546 l800,0" />
    </g>
    <g id="Symbols">
        <g id="Ultralight-S">
            <path d="M265,146 C284.33,146 300,130.33 300,111 C300,91.67 284.33,76 265,76 C245.67,76 230,91.67 230,111 C230,130.33 245.67,146 265,146 Z M265,141.116 C248.367,141.116 234.884,127.633 234.884,111 C234.884,94.367 248.367,80.884 265,80.884 C281.633,80.884 295.116,94.367 295.116,111 C295.116,127.633 281.633,141.116 265,141.116 Z" />
            <path d="M272.326,101.233 L272.326,120.767 C272.326,122.116 273.419,123.209 274.767,123.209 C276.116,123.209 277.209,122.116 277.209,120.767 L277.209,101.233 C277.209,99.884 276.116,98.791 274.767,98.791 C273.419,98.791 272.326,99.884 272.326,101.233 Z" />
            <path d="M282.093,107.744 L282.093,114.256 C282.093,115.604 283.186,116.698 284.535,116.698 C285.883,116.698 286.977,115.604 286.977,114.256 L286.977,107.744 C286.977,106.396 285.883,105.302 284.535,105.302 C283.186,105.302 282.093,106.396 282.093,107.744 Z" />
            <path d="M252.791,101.233 L252.791,120.767 C252.791,122.116 253.884,123.209 255.233,123.209 C256.581,123.209 257.674,122.116 257.674,120.767 L257.674,101.233 C257.674,99.884 256.581,98.791 255.233,98.791 C253.884,98.791 252.791,99.884 252.791,101.233 Z" />
            <path d="M243.023,107.744 L243.023,114.256 C243.023,115.604 244.117,116.698 245.465,116.698 C246.814,116.698 247.907,115.604 247.907,114.256 L247.907,107.744 C247.907,106.396 246.814,105.302 245.465,105.302 C244.117,105.302 243.023,106.396 243.023,107.744 Z" />
            <path d="M262.558,94.721 L262.558,127.279 C262.558,128.628 263.651,129.721 265,129.721 C266.349,129.721 267.442,128.628 267.442,127.279 L267.442,94.721 C267.442,93.372 266.349,92.279 265,92.279 C263.651,92.279 262.558,93.372 262.558,94.721 Z" />
        </g>
        <g id="Regular-S">
            <path d="M465,146 C484.33,146 500,130.33 500,111 C500,91.67 484.33,76 465,76 C445.67,76 430,91.67 430,111 C430,130.33 445.67,146 465,146 Z M465,141.116 C448.367,141.116 434.884,127.633 434.884,111 C434.884,94.367 448.367,80.884 465,80.884 C481.633,80.884 495.116,94.367 495.116,111 C495.116,127.633 481.633,141.116 465,141.116 Z" />
            <path d="M472.326,101.233 L472.326,120.767 C472.326,122.116 473.419,123.209 474.767,123.209 C476.116,123.209 477.209,122.116 477.209,120.767 L477.209,101.233 C477.209,99.884 476.116,98.791 474.767,98.791 C473.419,98.791 472.326,99.884 472.326,101.233 Z" />
            <path d="M482.093,107.744 L482.093,114.256 C482.093,115.604 483.186,116.698 484.535,116.698 C485.883,116.698 486.977,115.604 486.977,114.256 L486.977,107.744 C486.977,106.396 485.883,105.302 484.535,105.302 C483.186,105.302 482.093,106.396 482.093,107.744 Z" />
            <path d="M452.791,101.233 L452.791,120.767 C452.791,122.116 453.884,123.209 455.233,123.209 C456.581,123.209 457.674,122.116 457.674,120.767 L457.674,101.233 C457.674,99.884 456.581,98.791 455.233,98.791 C453.884,98.791 452.791,99.884 452.791,101.233 Z" />
            <path d="M443.023,107.744 L443.023,114.256 C443.023,115.604 444.117,116.698 445.465,116.698 C446.814,116.698 447.907,115.604 447.907,114.256 L447.907,107.744 C447.907,106.396 446.814,105.302 445.465,105.302 C444.117,105.302 443.023,106.396 443.023,107.744 Z" />
            <path d="M462.558,94.721 L462.558,127.279 C462.558,128.628 463.651,129.721 465,129.721 C466.349,129.721 467.442,128.628 467.442,127.279 L467.442,94.721 C467.442,93.372 466.349,92.279 465,92.279 C463.651,92.279 462.558,93.372 462.558,94.721 Z" />
        </g>
        <g id="Black-S">
            <path d="M665,146 C684.33,146 700,130.33 700,111 C700,91.67 684.33,76 665,76 C645.67,76 630,91.67 630,111 C630,130.33 645.67,146 665,146 Z M665,141.116 C648.367,141.116 634.884,127.633 634.884,111 C634.884,94.367 648.367,80.884 665,80.884 C681.633,80.884 695.116,94.367 695.116,111 C695.116,127.633 681.633,141.116 665,141.116 Z" />
            <path d="M672.326,101.233 L672.326,120.767 C672.326,122.116 673.419,123.209 674.767,123.209 C676.116,123.209 677.209,122.116 677.209,120.767 L677.209,101.233 C677.209,99.884 676.116,98.791 674.767,98.791 C673.419,98.791 672.326,99.884 672.326,101.233 Z" />
            <path d="M682.093,107.744 L682.093,114.256 C682.093,115.604 683.186,116.698 684.535,116.698 C685.883,116.698 686.977,115.604 686.977,114.256 L686.977,107.744 C686.977,106.396 685.883,105.302 684.535,105.302 C683.186,105.302 682.093,106.396 682.093,107.744 Z" />
            <path d="M652.791,101.233 L652.791,120.767 C652.791,122.116 653.884,123.209 655.233,123.209 C656.581,123.209 657.674,122.116 657.674,120.767 L657.674,101.233 C657.674,99.884 656.581,98.791 655.233,98.791 C653.884,98.791 652.791,99.884 652.791,101.233 Z" />
            <path d="M643.023,107.744 L643.023,114.256 C643.023,115.604 644.117,116.698 645.465,116.698 C646.814,116.698 647.907,115.604 647.907,114.256 L647.907,107.744 C647.907,106.396 646.814,105.302 645.465,105.302 C644.117,105.302 643.023,106.396 643.023,107.744 Z" />
            <path d="M662.558,94.721 L662.558,127.279 C662.558,128.628 663.651,129.721 665,129.721 C666.349,129.721 667.442,128.628 667.442,127.279 L667.442,94.721 C667.442,93.372 666.349,92.279 665,92.279 C663.651,92.279 662.558,93.372 662.558,94.721 Z" />
        </g>
    </g>
</svg>