<?xml version="1.0" encoding="UTF-8"?>
<svg height="600" width="800" xmlns="http://www.w3.org/2000/svg" xmlns:xlink="http://www.w3.org/1999/xlink">
    <g id="Notes" font-family="'LucidaGrande', 'Lucida Grande', sans-serif" font-size="13">
        <rect fill="white" height="600.0" width="800.0" x="0.0" y="0.0" />
        <g font-size="13">
            <text x="18.0" y="176.0">Small</text>
            <text x="18.0" y="376.0">Medium</text>
            <text x="18.0" y="576.0">Large</text>
        </g>
        <g font-size="9">
            <text x="250.0" y="30.0">Ultralight</text>
            <text x="450.0" y="30.0">Regular</text>
            <text x="650.0" y="30.0">Black</text>
            <text id="template-version" fill="#505050" text-anchor="end" x="785.0" y="575.0">Template v.3.0</text>
            <a href="https://github.com/swhitty/SwiftDraw">
                <text fill="#505050" text-anchor="end" x="785.0" y="590.0">https://github.com/swhitty/SwiftDraw</text>
            </a>
        </g>
    </g>
    <g id="Guides" stroke="rgb(39, 170, 225)" stroke-width="0.5">
        <path id="Capline-S" d="M18,76 l800,0" />
        <path id="H-reference" d="M85,145.755 L87.685,145.755 L113.369,79.287 L114.052,79.287 L114.052,76 L112.148,76 L85,145.755 Z M95.693,121.536 L130.996,121.536 L130.263,119.313 L96.474,119.313 L95.693,121.536 Z M139.15,145.755 L141.787,145.755 L114.638,76 L113.466,76 L113.466,79.287 L139.15,145.755 Z" stroke="none" />
        <path id="Baseline-S" d="M18,146 l800,0" />
        <path id="left-margin-Ultralight-S" d="M221,56 l0,110" />
        <path id="right-margin-Ultralight-S" d="M309,56 l0,110" />
        <path id="left-margin-Regular-S" d="M421,56 l0,110" />
        <path id="right-margin-Regular-S" d="M509,56 l0,110" />
        <path id="left-margin-Black-S" d="M621,56 l0,110" />
        <path id="right-margin-Black-S" d="M709,56 l0,110" />
        <path id="Capline-M" d="M18,276 l800,0" />
        <path id="Baseline-M" d="M18,346 l800,0" />
        <path id="Capline-L" d="M18,476 l800,0" />
        <path id="Baseline-L" d="M18,546 l800,0" />
    </g>
    <g id="Symbols">
        <g id="Ultralight-S">
            <path d="M288.605,111 L288.605,140.302 C288.605,140.518 288.519,140.725 288.366,140.878 C288.214,141.031 288.007,141.116 287.791,141.116 L242.209,141.116 C241.993,141.116 241.786,141.031 241.634,140.878 C241.481,140.725 241.395,140.518 241.395,140.302 L241.395,81.698 C241.395,81.482 241.481,81.275 241.634,81.122 C241.786,80.969 241.993,80.884 242.209,80.884 L287.791,80.884 C288.007,80.884 288.214,80.969 288.366,81.122 C288.519,81.275 288.605,81.482 288.605,81.698 L288.605,111 Z M293.488,111 L293.488,81.698 C293.488,80.187 292.888,78.737 291.82,77.669 C290.751,76.6 289.302,76 287.791,76 L242.209,76 C240.698,76 239.249,76.6 238.18,77.669 C237.112,78.737 236.512,80.187 236.512,81.698 L236.512,140.302 C236.512,141.813 237.112,143.263 238.18,144.331 C239.249,145.4 240.698,146 242.209,146 L287.791,146 C289.302,146 290.751,145.4 291.82,144.331 C292.888,143.263 293.488,141.813 293.488,140.302 L293.488,111 Z" />
            <path d="M236.512,91.465 C236.512,94.612 239.063,97.163 242.209,97.163 L287.791,97.163 C290.938,97.163 293.488,94.612 293.488,91.465 L293.488,81.698 C293.488,78.551 290.937,76 287.791,76 L242.209,76 C239.063,76 236.512,78.551 236.512,81.698 L236.512,91.465 Z M241.395,91.465 L241.395,81.698 C241.395,81.248 241.76,80.884 242.209,80.884 L287.791,80.884 C288.24,80.884 288.605,81.248 288.605,81.698 L288.605,91.465 C288.605,91.915 288.24,92.279 287.791,92.279 L242.209,92.279 C241.76,92.279 241.395,91.915 241.395,91.465 Z" />
            <path d="M245.465,86.581 C245.465,84.783 246.923,83.326 248.721,83.326 C250.519,83.326 251.977,84.783 251.977,86.581 C251.977,88.38 250.519,89.837 248.721,89.837 C246.923,89.837 245.465,88.38 245.465,86.581 Z" />
            <path d="M255.233,86.581 C255.233,84.783 256.69,83.326 258.488,83.326 C260.286,83.326 261.744,84.783 261.744,86.581 C261.744,88.38 260.286,89.837 258.488,89.837 C256.69,89.837 255.233,88.38 255.233,86.581 Z" />
            <path d="M256.047,119.14 C256.047,114.195 260.055,110.186 265,110.186 C269.945,110.186 273.953,114.195 273.953,119.14 C273.953,124.084 269.945,128.093 265,128.093 C260.055,128.093 256.047,124.084 256.047,119.14 Z M251.163,119.14 C251.163,126.782 257.358,132.977 265,132.977 C272.642,132.977 278.837,126.782 278.837,119.14 C278.837,111.497 272.642,105.302 265,105.302 C257.358,105.302 251.163,111.497 251.163,119.14 Z" />
        </g>
        <g id="Regular-S">
            <path d="M488.605,111 L488.605,140.302 C488.605,140.518 488.519,140.725 488.366,140.878 C488.214,141.031 488.007,141.116 487.791,141.116 L442.209,141.116 C441.993,141.116 441.786,141.031 441.634,140.878 C441.481,140.725 441.395,140.518 441.395,140.302 L441.395,81.698 C441.395,81.482 441.481,81.275 441.634,81.122 C441.786,80.969 441.993,80.884 442.209,80.884 L487.791,80.884 C488.007,80.884 488.214,80.969 488.366,81.122 C488.519,81.275 488.605,81.482 488.605,81.698 L488.605,111 Z M493.488,111 L493.488,81.698 C493.488,80.187 492.888,78.737 491.82,77.669 C490.751,76.6 489.302,76 487.791,76 L442.209,76 C440.698,76 439.249,76.6 438.18,77.669 C437.112,78.737 436.512,80.187 436.512,81.698 L436.512,140.302 C436.512,141.813 437.112,143.263 438.18,144.331 C439.249,145.4 440.698,146 442.209,146 L487.791,146 C489.302,146 490.751,145.4 491.82,144.331 C492.888,143.263 493.488,141.813 493.488,140.302 L493.488,111 Z" />
            <path d="M436.512,91.465 C436.512,94.612 439.063,97.163 442.209,97.163 L487.791,97.163 C490.938,97.163 493.488,94.612 493.488,91.465 L493.488,81.698 C493.488,78.551 490.937,76 487.791,76 L442.209,76 C439.063,76 436.512,78.551 436.512,81.698 L436.512,91.465 Z M441.395,91.465 L441.395,81.698 C441.395,81.248 441.76,80.884 442.209,80.884 L487.791,80.884 C488.24,80.884 488.605,81.248 488.605,81.698 L488.605,91.465 C488.605,91.915 488.24,92.279 487.791,92.279 L442.209,92.279 C441.76,92.279 441.395,91.915 441.395,91.465 Z" />
            <path d="M445.465,86.581 C445.465,84.783 446.923,83.326 448.721,83.326 C450.519,83.326 451.977,84.783 451.977,86.581 C451.977,88.38 450.519,89.837 448.721,89.837 C446.923,89.837 445.465,88.38 445.465,86.581 Z" />
            <path d="M455.233,86.581 C455.233,84.783 456.69,83.326 458.488,83.326 C460.286,83.326 461.744,84.783 461.744,86.581 C461.744,88.38 460.286,89.837 458.488,89.837 C456.69,89.837 455.233,88.38 455.233,86.581 Z" />
            <path d="M456.047,119.14 C456.047,114.195 460.055,110.186 465,110.186 C469.945,110.186 473.953,114.195 473.953,119.14 C473.953,124.084 469.945,128.093 465,128.093 C460.055,128.093 456.047,124.084 456.047,119.14 Z M451.163,119.14 C451.163,126.782 457.358,132.977 465,132.977 C472.642,132.977 478.837,126.782 478.837,119.14 C478.837,111.497 472.642,105.302 465,105.302 C457.358,105.302 451.163,111.497 451.163,119.14 Z" />
        </g>
        <g id="Black-S">
            <path d="M688.605,111 L688.605,140.302 C688.605,140.518 688.519,140.725 688.366,140.878 C688.214,141.031 688.007,141.116 687.791,141.116 L642.209,141.116 C641.993,141.116 641.786,141.031 641.634,140.878 C641.481,140.725 641.395,140.518 641.395,140.302 L641.395,81.698 C641.395,81.482 641.481,81.275 641.634,81.122 C641.786,80.969 641.993,80.884 642.209,80.884 L687.791,80.884 C688.007,80.884 688.214,80.969 688.366,81.122 C688.519,81.275 688.605,81.482 688.605,81.698 L688.605,111 Z M693.488,111 L693.488,81.698 C693.488,80.187 692.888,78.737 691.82,77.669 C690.751,76.6 689.302,76 687.791,76 L642.209,76 C640.698,76 639.249,76.6 638.18,77.669 C637.112,78.737 636.512,80.187 636.512,81.698 L636.512,140.302 C636.512,141.813 637.112,143.263 638.18,144.331 C639.249,145.4 640.698,146 642.209,146 L687.791,146 C689.302,146 690.751,145.4 691.82,144.331 C692.888,143.263 693.488,141.813 693.488,140.302 L693.488,111 Z" />
            <path d="M636.512,91.465 C636.512,94.612 639.063,97.163 642.209,97.163 L687.791,97.163 C690.938,97.163 693.488,94.612 693.488,91.465 L693.488,81.698 C693.488,78.551 690.938,76 687.791,76 L642.209,76 C639.063,76 636.512,78.551 636.512,81.698 L636.512,91.465 Z M641.395,91.465 L641.395,81.698 C641.395,81.248 641.76,80.884 642.209,80.884 L687.791,80.884 C688.24,80.884 688.605,81.248 688.605,81.698 L688.605,91.465 C688.605,91.915 688.24,92.279 687.791,92.279 L642.209,92.279 C641.76,92.279 641.395,91.915 641.395,91.465 Z" />
            <path d="M645.465,86.581 C645.465,84.783 646.923,83.326 648.721,83.326 C650.519,83.326 651.977,84.783 651.977,86.581 C651.977,88.38 650.519,89.837 648.721,89.837 C646.923,89.837 645.465,88.38 645.465,86.581 Z" />
            <path d="M655.233,86.581 C655.233,84.783 656.69,83.326 658.488,83.326 C660.286,83.326 661.744,84.783 661.744,86.581 C661.744,88.38 660.286,89.837 658.488,89.837 C656.69,89.837 655.233,88.38 655.233,86.581 Z" />
            <path d="M656.047,119.14 C656.047,114.195 660.055,110.186 665,110.186 C669.945,110.186 673.953,114.195 673.953,119.14 C673.953,124.084 669.945,128.093 665,128.093 C660.055,128.093 656.047,124.084 656.047,119.14 Z M651.163,119.14 C651.163,126.782 657.358,132.977 665,132.977 C672.642,132.977 678.837,126.782 678.837,119.14 C678.837,111.497 672.642,105.302 665,105.302 C657.358,105.302 651.163,111.497 651.163,119.14 Z" />
        </g>
    </g>
</svg>