<?xml version="1.0" encoding="UTF-8"?>
<svg height="600" width="800" xmlns="http://www.w3.org/2000/svg" xmlns:xlink="http://www.w3.org/1999/xlink">
    <g id="Notes" font-family="'LucidaGrande', 'Lucida Grande', sans-serif" font-size="13">
        <rect fill="white" height="600.0" width="800.0" x="0.0" y="0.0" />
        <g font-size="13">
            <text x="18.0" y="176.0">Small</text>
            <text x="18.0" y="376.0">Medium</text>
            <text x="18.0" y="576.0">Large</text>
        </g>
        <g font-size="9">
            <text x="250.0" y="30.0">Ultralight</text>
            <text x="450.0" y="30.0">Regular</text>
            <text x="650.0" y="30.0">Black</text>
            <text id="template-version" fill="#505050" text-anchor="end" x="785.0" y="575.0">Template v.3.0</text>
            <a href="https://github.com/swhitty/SwiftDraw">
                <text fill="#505050" text-anchor="end" x="785.0" y="590.0">https://github.com/swhitty/SwiftDraw</text>
            </a>
        </g>
    </g>
    <g id="Guides" stroke="rgb(39, 170, 225)" stroke-width="0.5">
        <path id="Capline-S" d="M18,76 l800,0" />
        <path id="H-reference" d="M85,145.755 L87.685,145.755 L113.369,79.287 L114.052,79.287 L114.052,76 L112.148,76 L85,145.755 Z M95.693,121.536 L130.996,121.536 L130.263,119.313 L96.474,119.313 L95.693,121.536 Z M139.15,145.755 L141.787,145.755 L114.638,76 L113.466,76 L113.466,79.287 L139.15,145.755 Z" stroke="none" />
        <path id="Baseline-S" d="M18,146 l800,0" />
        <path id="left-margin-Ultralight-S" d="M219.167,56 l0,110" />
        <path id="right-margin-Ultralight-S" d="M310.833,56 l0,110" />
        <path id="left-margin-Regular-S" d="M419.167,56 l0,110" />
        <path id="right-margin-Regular-S" d="M510.833,56 l0,110" />
        <path id="left-margin-Black-S" d="M619.167,56 l0,110" />
        <path id="right-margin-Black-S" d="M710.833,56 l0,110" />
        <path id="Capline-M" d="M18,276 l800,0" />
        <path id="Baseline-M" d="M18,346 l800,0" />
        <path id="Capline-L" d="M18,476 l800,0" />
        <path id="Baseline-L" d="M18,546 l800,0" />
    </g>
    <g id="Symbols">
        <g id="Ultralight-S">
            <path d="M240,121 C245.983,121 250.833,116.15 250.833,110.167 L245.833,110.167 C245.833,116.15 250.684,121 256.667,121 C262.65,121 267.5,116.15 267.5,110.167 L262.5,110.167 C262.5,116.15 267.35,121 273.333,121 C279.316,121 284.167,116.15 284.167,110.167 L279.167,110.167 C279.167,116.15 284.017,121 290,121 C295.983,121 300.833,116.15 300.833,110.167 L295.833,110.167 C295.833,127.195 282.029,141 265,141 C247.971,141 234.167,127.195 234.167,110.167 L229.167,110.167 C229.167,116.15 234.017,121 240,121 Z M240,116 C236.778,116 234.167,113.388 234.167,110.167 C234.167,106.833 229.167,106.833 229.167,110.167 C229.167,129.957 245.21,146 265,146 C284.79,146 300.833,129.957 300.833,110.167 C300.833,106.833 295.833,106.833 295.833,110.167 C295.833,113.388 293.222,116 290,116 C286.778,116 284.167,113.388 284.167,110.167 C284.167,106.833 279.167,106.833 279.167,110.167 C279.167,113.388 276.555,116 273.333,116 C270.112,116 267.5,113.388 267.5,110.167 C267.5,106.833 262.5,106.833 262.5,110.167 C262.5,113.388 259.888,116 256.667,116 C253.445,116 250.833,113.388 250.833,110.167 C250.833,106.833 245.833,106.833 245.833,110.167 C245.833,113.388 243.222,116 240,116 Z" />
            <path d="M254.899,80.268 L271.566,96.934 C272.542,97.911 274.125,97.911 275.101,96.934 C276.077,95.958 276.077,94.375 275.101,93.399 L258.434,76.732 C257.458,75.756 255.875,75.756 254.899,76.732 C253.923,77.709 253.923,79.291 254.899,80.268 Z" />
            <path d="M271.566,76.732 L254.899,93.399 C253.923,94.375 253.923,95.958 254.899,96.934 C255.875,97.911 257.458,97.911 258.434,96.934 L275.101,80.268 C276.077,79.291 276.077,77.709 275.101,76.732 C274.125,75.756 272.542,75.756 271.566,76.732 Z" />
        </g>
        <g id="Regular-S">
            <path d="M440,121 C445.983,121 450.833,116.15 450.833,110.167 L445.833,110.167 C445.833,116.15 450.684,121 456.667,121 C462.65,121 467.5,116.15 467.5,110.167 L462.5,110.167 C462.5,116.15 467.35,121 473.333,121 C479.316,121 484.167,116.15 484.167,110.167 L479.167,110.167 C479.167,116.15 484.017,121 490,121 C495.983,121 500.833,116.15 500.833,110.167 L495.833,110.167 C495.833,127.195 482.029,141 465,141 C447.971,141 434.167,127.195 434.167,110.167 L429.167,110.167 C429.167,116.15 434.017,121 440,121 Z M440,116 C436.778,116 434.167,113.388 434.167,110.167 C434.167,106.833 429.167,106.833 429.167,110.167 C429.167,129.957 445.21,146 465,146 C484.79,146 500.833,129.957 500.833,110.167 C500.833,106.833 495.833,106.833 495.833,110.167 C495.833,113.388 493.222,116 490,116 C486.778,116 484.167,113.388 484.167,110.167 C484.167,106.833 479.167,106.833 479.167,110.167 C479.167,113.388 476.555,116 473.333,116 C470.112,116 467.5,113.388 467.5,110.167 C467.5,106.833 462.5,106.833 462.5,110.167 C462.5,113.388 459.888,116 456.667,116 C453.445,116 450.833,113.388 450.833,110.167 C450.833,106.833 445.833,106.833 445.833,110.167 C445.833,113.388 443.222,116 440,116 Z" />
            <path d="M454.899,80.268 L471.566,96.934 C472.542,97.911 474.125,97.911 475.101,96.934 C476.077,95.958 476.077,94.375 475.101,93.399 L458.434,76.732 C457.458,75.756 455.875,75.756 454.899,76.732 C453.923,77.709 453.923,79.291 454.899,80.268 Z" />
            <path d="M471.566,76.732 L454.899,93.399 C453.923,94.375 453.923,95.958 454.899,96.934 C455.875,97.911 457.458,97.911 458.434,96.934 L475.101,80.268 C476.077,79.291 476.077,77.709 475.101,76.732 C474.125,75.756 472.542,75.756 471.566,76.732 Z" />
        </g>
        <g id="Black-S">
            <path d="M640,121 C645.983,121 650.833,116.15 650.833,110.167 L645.833,110.167 C645.833,116.15 650.684,121 656.667,121 C662.65,121 667.5,116.15 667.5,110.167 L662.5,110.167 C662.5,116.15 667.35,121 673.333,121 C679.316,121 684.167,116.15 684.167,110.167 L679.167,110.167 C679.167,116.15 684.017,121 690,121 C695.983,121 700.833,116.15 700.833,110.167 L695.833,110.167 C695.833,127.195 682.029,141 665,141 C647.971,141 634.167,127.195 634.167,110.167 L629.167,110.167 C629.167,116.15 634.017,121 640,121 Z M640,116 C636.778,116 634.167,113.388 634.167,110.167 C634.167,106.833 629.167,106.833 629.167,110.167 C629.167,129.957 645.21,146 665,146 C684.79,146 700.833,129.957 700.833,110.167 C700.833,106.833 695.833,106.833 695.833,110.167 C695.833,113.388 693.222,116 690,116 C686.778,116 684.167,113.388 684.167,110.167 C684.167,106.833 679.167,106.833 679.167,110.167 C679.167,113.388 676.555,116 673.333,116 C670.112,116 667.5,113.388 667.5,110.167 C667.5,106.833 662.5,106.833 662.5,110.167 C662.5,113.388 659.888,116 656.667,116 C653.445,116 650.833,113.388 650.833,110.167 C650.833,106.833 645.833,106.833 645.833,110.167 C645.833,113.388 643.222,116 640,116 Z" />
            <path d="M654.899,80.268 L671.566,96.934 C672.542,97.911 674.125,97.911 675.101,96.934 C676.077,95.958 676.077,94.375 675.101,93.399 L658.434,76.732 C657.458,75.756 655.875,75.756 654.899,76.732 C653.923,77.709 653.923,79.291 654.899,80.268 Z" />
            <path d="M671.566,76.732 L654.899,93.399 C653.923,94.375 653.923,95.958 654.899,96.934 C655.875,97.911 657.458,97.911 658.434,96.934 L675.101,80.268 C676.077,79.291 676.077,77.709 675.101,76.732 C674.125,75.756 672.542,75.756 671.566,76.732 Z" />
        </g>
    </g>
</svg>