<?xml version="1.0" encoding="UTF-8"?>
<svg height="600" width="800" xmlns="http://www.w3.org/2000/svg" xmlns:xlink="http://www.w3.org/1999/xlink">
    <g id="Notes" font-family="'LucidaGrande', 'Lucida Grande', sans-serif" font-size="13">
        <rect fill="white" height="600.0" width="800.0" x="0.0" y="0.0" />
        <g font-size="13">
            <text x="18.0" y="176.0">Small</text>
            <text x="18.0" y="376.0">Medium</text>
            <text x="18.0" y="576.0">Large</text>
        </g>
        <g font-size="9">
            <text x="250.0" y="30.0">Ultralight</text>
            <text x="450.0" y="30.0">Regular</text>
            <text x="650.0" y="30.0">Black</text>
            <text id="template-version" fill="#505050" text-anchor="end" x="785.0" y="575.0">Template v.3.0</text>
            <a href="https://github.com/swhitty/SwiftDraw">
                <text fill="#505050" text-anchor="end" x="785.0" y="590.0">https://github.com/swhitty/SwiftDraw</text>
            </a>
        </g>
    </g>
    <g id="Guides" stroke="rgb(39, 170, 225)" stroke-width="0.5">
        <path id="Capline-S" d="M18,76 l800,0" />
        <path id="H-reference" d="M85,145.755 L87.685,145.755 L113.369,79.287 L114.052,79.287 L114.052,76 L112.148,76 L85,145.755 Z M95.693,121.536 L130.996,121.536 L130.263,119.313 L96.474,119.313 L95.693,121.536 Z M139.15,145.755 L141.787,145.755 L114.638,76 L113.466,76 L113.466,79.287 L139.15,145.755 Z" stroke="none" />
        <path id="Baseline-S" d="M18,146 l800,0" />
        <path id="left-margin-Ultralight-S" d="M218.289,56 l0,110" />
        <path id="right-margin-Ultralight-S" d="M311.711,56 l0,110" />
        <path id="left-margin-Regular-S" d="M418.289,56 l0,110" />
        <path id="right-margin-Regular-S" d="M511.711,56 l0,110" />
        <path id="left-margin-Black-S" d="M618.289,56 l0,110" />
        <path id="right-margin-Black-S" d="M711.711,56 l0,110" />
        <path id="Capline-M" d="M18,276 l800,0" />
        <path id="Baseline-M" d="M18,346 l800,0" />
        <path id="Capline-L" d="M18,476 l800,0" />
        <path id="Baseline-L" d="M18,546 l800,0" />
    </g>
    <g id="Symbols">
        <g id="Ultralight-S">
            <path d="M229.64,132.034 L233.908,134.341 C237.4,136.228 241.389,136.228 244.88,134.341 C246.852,133.275 249.01,133.275 250.981,134.341 C254.473,136.228 258.462,136.228 261.953,134.341 C263.925,133.275 266.083,133.275 268.054,134.341 C271.546,136.228 275.535,136.228 279.026,134.341 C280.998,133.275 283.156,133.275 285.127,134.341 C288.619,136.228 292.608,136.228 296.099,134.341 L300.368,132.034 C301.612,131.361 302.075,129.807 301.403,128.563 C300.73,127.319 299.176,126.855 297.932,127.528 L293.664,129.835 C291.692,130.901 289.535,130.901 287.563,129.835 C284.071,127.948 280.082,127.948 276.591,129.835 C274.619,130.901 272.462,130.901 270.49,129.835 C266.998,127.948 263.009,127.948 259.518,129.835 C257.546,130.901 255.389,130.901 253.417,129.835 C249.925,127.948 245.936,127.948 242.445,129.835 C240.473,130.901 238.316,130.901 236.344,129.835 L232.076,127.528 C230.832,126.855 229.278,127.319 228.605,128.563 C227.932,129.807 228.396,131.361 229.64,132.034 Z" />
            <path d="M229.64,142.277 L233.908,144.585 C237.4,146.472 241.389,146.472 244.88,144.585 C246.852,143.519 249.01,143.519 250.981,144.585 C254.473,146.472 258.462,146.472 261.953,144.585 C263.925,143.519 266.083,143.519 268.054,144.585 C271.546,146.472 275.535,146.472 279.026,144.585 C280.998,143.519 283.156,143.519 285.127,144.585 C288.619,146.472 292.608,146.472 296.099,144.585 L300.368,142.277 C301.612,141.605 302.075,140.051 301.403,138.807 C300.73,137.562 299.176,137.099 297.932,137.772 L293.664,140.079 C291.692,141.145 289.535,141.145 287.563,140.079 C284.071,138.191 280.082,138.191 276.591,140.079 C274.619,141.145 272.462,141.145 270.49,140.079 C266.998,138.191 263.009,138.191 259.518,140.079 C257.546,141.145 255.389,141.145 253.417,140.079 C249.925,138.191 245.936,138.191 242.445,140.079 C240.473,141.145 238.316,141.145 236.344,140.079 L232.076,137.772 C230.832,137.099 229.278,137.562 228.605,138.807 C227.932,140.051 228.396,141.605 229.64,142.277 Z" />
            <path d="M300.954,120.054 C302.443,112.833 301.724,105.303 298.771,98.375 C290.865,79.718 269.305,71.002 250.661,78.93 C234.543,85.776 225.59,102.995 229.013,119.941 C229.293,121.328 230.644,122.225 232.03,121.945 C233.417,121.665 234.314,120.314 234.034,118.927 C231.09,104.353 238.795,89.535 252.664,83.644 C268.703,76.824 287.253,84.323 294.057,100.378 C296.6,106.344 297.218,112.813 295.938,119.02 C295.652,120.405 296.543,121.759 297.929,122.045 C299.314,122.331 300.668,121.439 300.954,120.054 Z" />
            <path d="M248.841,81.442 C246.045,94.545 251.948,107.552 263.644,114.878 C264.843,115.629 266.423,115.266 267.174,114.067 C267.925,112.869 267.562,111.288 266.363,110.537 C256.449,104.327 251.515,93.455 253.85,82.511 C254.145,81.128 253.263,79.767 251.88,79.472 C250.497,79.177 249.136,80.059 248.841,81.442 Z" />
            <path d="M266.433,120.207 C267.09,117.787 267.471,115.306 267.562,112.801 C267.614,111.388 266.51,110.2 265.097,110.148 C263.683,110.097 262.496,111.201 262.444,112.614 C262.367,114.726 262.045,116.82 261.49,118.866 C261.12,120.231 261.926,121.638 263.291,122.008 C264.656,122.379 266.063,121.572 266.433,120.207 Z" />
            <path d="M300.864,114.22 C290.942,105.281 276.043,103.938 263.802,110.447 C262.553,111.111 262.079,112.661 262.743,113.91 C263.407,115.159 264.957,115.633 266.206,114.969 C276.601,109.442 289.165,110.574 297.436,118.025 C298.487,118.972 300.106,118.888 301.053,117.837 C301.999,116.786 301.915,115.167 300.864,114.22 Z" />
            <path d="M256.365,101.045 C256.596,100.86 257.095,100.495 257.84,100.01 C259.111,99.182 260.582,98.35 262.23,97.572 C271.777,93.063 282.244,92.375 292.843,97.905 C294.097,98.559 295.644,98.073 296.299,96.819 C296.953,95.565 296.467,94.018 295.213,93.364 C283.027,87.007 270.923,87.802 260.043,92.94 C256.832,94.456 254.482,95.987 253.155,97.053 C252.053,97.94 251.878,99.552 252.764,100.654 C253.65,101.756 255.262,101.931 256.365,101.045 Z" />
            <path d="M248.114,117.809 C242.248,111.394 238.903,104.345 238.539,95.529 C238.48,94.116 237.287,93.018 235.874,93.076 C234.461,93.134 233.363,94.327 233.421,95.74 C233.84,105.868 237.707,114.018 244.334,121.265 C245.288,122.309 246.908,122.381 247.952,121.427 C248.996,120.472 249.068,118.853 248.114,117.809 Z" />
            <path d="M280.055,109.671 C280.06,109.732 280.07,109.882 280.081,110.115 C280.194,112.509 280.048,115.637 279.434,119.166 C279.191,120.559 280.125,121.886 281.518,122.128 C282.912,122.37 284.238,121.437 284.48,120.044 C285.163,116.115 285.327,112.62 285.197,109.874 C285.183,109.571 285.168,109.351 285.157,109.222 C285.033,107.813 283.79,106.771 282.381,106.895 C280.972,107.019 279.931,108.262 280.055,109.671 Z" />
        </g>
        <g id="Regular-S">
            <path d="M429.64,132.034 L433.908,134.341 C437.4,136.228 441.389,136.228 444.88,134.341 C446.852,133.275 449.01,133.275 450.981,134.341 C454.473,136.228 458.462,136.228 461.953,134.341 C463.925,133.275 466.083,133.275 468.054,134.341 C471.546,136.228 475.535,136.228 479.026,134.341 C480.998,133.275 483.156,133.275 485.127,134.341 C488.619,136.228 492.608,136.228 496.099,134.341 L500.368,132.034 C501.612,131.361 502.075,129.807 501.403,128.563 C500.73,127.319 499.176,126.855 497.932,127.528 L493.664,129.835 C491.692,130.901 489.535,130.901 487.563,129.835 C484.071,127.948 480.082,127.948 476.591,129.835 C474.619,130.901 472.462,130.901 470.49,129.835 C466.998,127.948 463.009,127.948 459.518,129.835 C457.546,130.901 455.389,130.901 453.417,129.835 C449.925,127.948 445.936,127.948 442.445,129.835 C440.473,130.901 438.316,130.901 436.344,129.835 L432.076,127.528 C430.832,126.855 429.278,127.319 428.605,128.563 C427.932,129.807 428.396,131.361 429.64,132.034 Z" />
            <path d="M429.64,142.277 L433.908,144.585 C437.4,146.472 441.389,146.472 444.88,144.585 C446.852,143.519 449.01,143.519 450.981,144.585 C454.473,146.472 458.462,146.472 461.953,144.585 C463.925,143.519 466.083,143.519 468.054,144.585 C471.546,146.472 475.535,146.472 479.026,144.585 C480.998,143.519 483.156,143.519 485.127,144.585 C488.619,146.472 492.608,146.472 496.099,144.585 L500.368,142.277 C501.612,141.605 502.075,140.051 501.403,138.807 C500.73,137.562 499.176,137.099 497.932,137.772 L493.664,140.079 C491.692,141.145 489.535,141.145 487.563,140.079 C484.071,138.191 480.082,138.191 476.591,140.079 C474.619,141.145 472.462,141.145 470.49,140.079 C466.998,138.191 463.009,138.191 459.518,140.079 C457.546,141.145 455.389,141.145 453.417,140.079 C449.925,138.191 445.936,138.191 442.445,140.079 C440.473,141.145 438.316,141.145 436.344,140.079 L432.076,137.772 C430.832,137.099 429.278,137.562 428.605,138.807 C427.932,140.051 428.396,141.605 429.64,142.277 Z" />
            <path d="M500.954,120.054 C502.443,112.833 501.724,105.303 498.771,98.375 C490.865,79.718 469.305,71.002 450.661,78.93 C434.543,85.776 425.59,102.995 429.013,119.941 C429.293,121.328 430.644,122.225 432.03,121.945 C433.417,121.665 434.314,120.314 434.034,118.927 C431.09,104.353 438.795,89.535 452.664,83.644 C468.703,76.824 487.253,84.323 494.057,100.378 C496.6,106.344 497.218,112.813 495.938,119.02 C495.652,120.405 496.543,121.759 497.929,122.045 C499.314,122.331 500.668,121.439 500.954,120.054 Z" />
            <path d="M448.841,81.442 C446.045,94.545 451.948,107.552 463.644,114.878 C464.843,115.629 466.423,115.266 467.174,114.067 C467.925,112.869 467.562,111.288 466.363,110.537 C456.449,104.327 451.515,93.455 453.85,82.511 C454.145,81.128 453.263,79.767 451.88,79.472 C450.497,79.177 449.136,80.059 448.841,81.442 Z" />
            <path d="M466.433,120.207 C467.09,117.787 467.471,115.306 467.562,112.801 C467.614,111.388 466.51,110.2 465.097,110.148 C463.683,110.097 462.496,111.201 462.444,112.614 C462.367,114.726 462.045,116.82 461.49,118.866 C461.12,120.231 461.926,121.638 463.291,122.008 C464.656,122.379 466.063,121.572 466.433,120.207 Z" />
            <path d="M500.864,114.22 C490.942,105.281 476.043,103.938 463.802,110.447 C462.553,111.111 462.079,112.661 462.743,113.91 C463.407,115.159 464.957,115.633 466.206,114.969 C476.601,109.442 489.165,110.574 497.436,118.025 C498.487,118.972 500.106,118.888 501.053,117.837 C501.999,116.786 501.915,115.167 500.864,114.22 Z" />
            <path d="M456.365,101.045 C456.596,100.86 457.095,100.495 457.84,100.01 C459.111,99.182 460.582,98.35 462.23,97.572 C471.777,93.063 482.244,92.375 492.843,97.905 C494.097,98.559 495.644,98.073 496.299,96.819 C496.953,95.565 496.467,94.018 495.213,93.364 C483.027,87.007 470.923,87.802 460.043,92.94 C456.832,94.456 454.482,95.987 453.155,97.053 C452.053,97.94 451.878,99.552 452.764,100.654 C453.65,101.756 455.262,101.931 456.365,101.045 Z" />
            <path d="M448.114,117.809 C442.248,111.394 438.903,104.345 438.539,95.529 C438.48,94.116 437.287,93.018 435.874,93.076 C434.461,93.134 433.363,94.327 433.421,95.74 C433.84,105.868 437.707,114.018 444.334,121.265 C445.288,122.309 446.908,122.381 447.952,121.427 C448.996,120.472 449.068,118.853 448.114,117.809 Z" />
            <path d="M480.055,109.671 C480.06,109.732 480.07,109.882 480.081,110.115 C480.194,112.509 480.048,115.637 479.434,119.166 C479.191,120.559 480.125,121.886 481.518,122.128 C482.912,122.37 484.238,121.437 484.48,120.044 C485.163,116.115 485.327,112.62 485.197,109.874 C485.183,109.571 485.168,109.351 485.157,109.222 C485.033,107.813 483.79,106.771 482.381,106.895 C480.972,107.019 479.931,108.262 480.055,109.671 Z" />
        </g>
        <g id="Black-S">
            <path d="M629.64,132.034 L633.908,134.341 C637.4,136.228 641.389,136.228 644.88,134.341 C646.852,133.275 649.01,133.275 650.981,134.341 C654.473,136.228 658.462,136.228 661.953,134.341 C663.925,133.275 666.083,133.275 668.054,134.341 C671.546,136.228 675.535,136.228 679.026,134.341 C680.998,133.275 683.156,133.275 685.127,134.341 C688.619,136.228 692.608,136.228 696.099,134.341 L700.368,132.034 C701.612,131.361 702.075,129.807 701.403,128.563 C700.73,127.319 699.176,126.855 697.932,127.528 L693.664,129.835 C691.692,130.901 689.535,130.901 687.563,129.835 C684.071,127.948 680.082,127.948 676.591,129.835 C674.619,130.901 672.462,130.901 670.49,129.835 C666.998,127.948 663.009,127.948 659.518,129.835 C657.546,130.901 655.389,130.901 653.417,129.835 C649.925,127.948 645.936,127.948 642.445,129.835 C640.473,130.901 638.316,130.901 636.344,129.835 L632.076,127.528 C630.832,126.855 629.278,127.319 628.605,128.563 C627.932,129.807 628.396,131.361 629.64,132.034 Z" />
            <path d="M629.64,142.277 L633.908,144.585 C637.4,146.472 641.389,146.472 644.88,144.585 C646.852,143.519 649.01,143.519 650.981,144.585 C654.473,146.472 658.462,146.472 661.953,144.585 C663.925,143.519 666.083,143.519 668.054,144.585 C671.546,146.472 675.535,146.472 679.026,144.585 C680.998,143.519 683.156,143.519 685.127,144.585 C688.619,146.472 692.608,146.472 696.099,144.585 L700.368,142.277 C701.612,141.605 702.075,140.051 701.403,138.807 C700.73,137.562 699.176,137.099 697.932,137.772 L693.664,140.079 C691.692,141.145 689.535,141.145 687.563,140.079 C684.071,138.191 680.082,138.191 676.591,140.079 C674.619,141.145 672.462,141.145 670.49,140.079 C666.998,138.191 663.009,138.191 659.518,140.079 C657.546,141.145 655.389,141.145 653.417,140.079 C649.925,138.191 645.936,138.191 642.445,140.079 C640.473,141.145 638.316,141.145 636.344,140.079 L632.076,137.772 C630.832,137.099 629.278,137.562 628.605,138.807 C627.932,140.051 628.396,141.605 629.64,142.277 Z" />
            <path d="M700.954,120.054 C702.443,112.833 701.724,105.303 698.771,98.375 C690.865,79.718 669.305,71.002 650.661,78.93 C634.543,85.776 625.59,102.995 629.013,119.941 C629.293,121.328 630.644,122.225 632.03,121.945 C633.417,121.665 634.314,120.314 634.034,118.927 C631.09,104.353 638.795,89.535 652.664,83.644 C668.703,76.824 687.253,84.323 694.057,100.378 C696.6,106.344 697.218,112.813 695.938,119.02 C695.652,120.405 696.543,121.759 697.929,122.045 C699.314,122.331 700.668,121.439 700.954,120.054 Z" />
            <path d="M648.841,81.442 C646.045,94.545 651.948,107.552 663.644,114.878 C664.843,115.629 666.423,115.266 667.174,114.067 C667.925,112.869 667.562,111.288 666.363,110.537 C656.449,104.327 651.515,93.455 653.85,82.511 C654.145,81.128 653.263,79.767 651.88,79.472 C650.497,79.177 649.136,80.059 648.841,81.442 Z" />
            <path d="M666.433,120.207 C667.09,117.787 667.471,115.306 667.562,112.801 C667.614,111.388 666.51,110.2 665.097,110.148 C663.683,110.097 662.496,111.201 662.444,112.614 C662.367,114.726 662.045,116.82 661.49,118.866 C661.12,120.231 661.926,121.638 663.291,122.008 C664.656,122.379 666.063,121.572 666.433,120.207 Z" />
            <path d="M700.864,114.22 C690.942,105.281 676.043,103.938 663.802,110.447 C662.553,111.111 662.079,112.661 662.743,113.91 C663.407,115.159 664.957,115.633 666.206,114.969 C676.601,109.442 689.165,110.574 697.436,118.025 C698.487,118.972 700.106,118.888 701.053,117.837 C701.999,116.786 701.915,115.167 700.864,114.22 Z" />
            <path d="M656.365,101.045 C656.596,100.86 657.095,100.495 657.84,100.01 C659.111,99.182 660.582,98.35 662.23,97.572 C671.777,93.063 682.244,92.375 692.843,97.905 C694.097,98.559 695.644,98.073 696.299,96.819 C696.953,95.565 696.467,94.018 695.213,93.364 C683.027,87.007 670.923,87.802 660.043,92.94 C656.832,94.456 654.482,95.987 653.155,97.053 C652.053,97.94 651.878,99.552 652.764,100.654 C653.65,101.756 655.262,101.931 656.365,101.045 Z" />
            <path d="M648.114,117.809 C642.248,111.394 638.903,104.345 638.539,95.529 C638.48,94.116 637.287,93.018 635.874,93.076 C634.461,93.134 633.363,94.327 633.421,95.74 C633.84,105.868 637.707,114.018 644.334,121.265 C645.288,122.309 646.908,122.381 647.952,121.427 C648.996,120.472 649.068,118.853 648.114,117.809 Z" />
            <path d="M680.055,109.671 C680.06,109.732 680.07,109.882 680.081,110.115 C680.194,112.509 680.048,115.637 679.434,119.166 C679.191,120.559 680.125,121.886 681.518,122.128 C682.912,122.37 684.238,121.437 684.48,120.044 C685.163,116.115 685.327,112.62 685.197,109.874 C685.183,109.571 685.168,109.351 685.157,109.222 C685.033,107.813 683.79,106.771 682.381,106.895 C680.972,107.019 679.931,108.262 680.055,109.671 Z" />
        </g>
    </g>
</svg>