<?xml version="1.0" encoding="UTF-8"?>
<svg height="600" width="800" xmlns="http://www.w3.org/2000/svg" xmlns:xlink="http://www.w3.org/1999/xlink">
    <g id="Notes" font-family="'LucidaGrande', 'Lucida Grande', sans-serif" font-size="13">
        <rect fill="white" height="600.0" width="800.0" x="0.0" y="0.0" />
        <g font-size="13">
            <text x="18.0" y="176.0">Small</text>
            <text x="18.0" y="376.0">Medium</text>
            <text x="18.0" y="576.0">Large</text>
        </g>
        <g font-size="9">
            <text x="250.0" y="30.0">Ultralight</text>
            <text x="450.0" y="30.0">Regular</text>
            <text x="650.0" y="30.0">Black</text>
            <text id="template-version" fill="#505050" text-anchor="end" x="785.0" y="575.0">Template v.3.0</text>
            <a href="https://github.com/swhitty/SwiftDraw">
                <text fill="#505050" text-anchor="end" x="785.0" y="590.0">https://github.com/swhitty/SwiftDraw</text>
            </a>
        </g>
    </g>
    <g id="Guides" stroke="rgb(39, 170, 225)" stroke-width="0.5">
        <path id="Capline-S" d="M18,76 l800,0" />
        <path id="H-reference" d="M85,145.755 L87.685,145.755 L113.369,79.287 L114.052,79.287 L114.052,76 L112.148,76 L85,145.755 Z M95.693,121.536 L130.996,121.536 L130.263,119.313 L96.474,119.313 L95.693,121.536 Z M139.15,145.755 L141.787,145.755 L114.638,76 L113.466,76 L113.466,79.287 L139.15,145.755 Z" stroke="none" />
        <path id="Baseline-S" d="M18,146 l800,0" />
        <path id="left-margin-Ultralight-S" d="M220,56 l0,110" />
        <path id="right-margin-Ultralight-S" d="M310,56 l0,110" />
        <path id="left-margin-Regular-S" d="M420,56 l0,110" />
        <path id="right-margin-Regular-S" d="M510,56 l0,110" />
        <path id="left-margin-Black-S" d="M620,56 l0,110" />
        <path id="right-margin-Black-S" d="M710,56 l0,110" />
        <path id="Capline-M" d="M18,276 l800,0" />
        <path id="Baseline-M" d="M18,346 l800,0" />
        <path id="Capline-L" d="M18,476 l800,0" />
        <path id="Baseline-L" d="M18,546 l800,0" />
    </g>
    <g id="Symbols">
        <g id="Ultralight-S">
            <path d="M265,121.581 C270.844,121.581 275.581,116.844 275.581,111 C275.581,105.156 270.844,100.419 265,100.419 C259.156,100.419 254.419,105.156 254.419,111 C254.419,116.844 259.156,121.581 265,121.581 Z M265,116.698 C261.853,116.698 259.302,114.147 259.302,111 C259.302,107.853 261.853,105.302 265,105.302 C268.147,105.302 270.698,107.853 270.698,111 C270.698,114.147 268.147,116.698 265,116.698 Z" />
            <path d="M264.186,141.116 C254.296,141.116 246.279,133.099 246.279,123.209 C246.279,113.319 254.296,105.302 264.186,105.302 C265.535,105.302 266.628,104.209 266.628,102.86 C266.628,101.512 265.535,100.419 264.186,100.419 C251.599,100.419 241.395,110.622 241.395,123.209 C241.395,135.796 251.599,146 264.186,146 C265.535,146 266.628,144.907 266.628,143.558 C266.628,142.21 265.535,141.116 264.186,141.116 Z" />
            <path d="M295.116,110.186 C295.116,120.076 287.099,128.093 277.209,128.093 C267.319,128.093 259.302,120.076 259.302,110.186 C259.302,108.837 258.209,107.744 256.86,107.744 C255.512,107.744 254.419,108.837 254.419,110.186 C254.419,122.773 264.622,132.977 277.209,132.977 C289.796,132.977 300,122.773 300,110.186 C300,108.837 298.907,107.744 297.558,107.744 C296.21,107.744 295.116,108.837 295.116,110.186 Z" />
            <path d="M264.186,121.581 C276.773,121.581 286.977,111.378 286.977,98.791 C286.977,86.204 276.773,76 264.186,76 C262.837,76 261.744,77.093 261.744,78.442 C261.744,79.79 262.837,80.884 264.186,80.884 C274.076,80.884 282.093,88.901 282.093,98.791 C282.093,108.681 274.076,116.698 264.186,116.698 C262.837,116.698 261.744,117.791 261.744,119.14 C261.744,120.488 262.837,121.581 264.186,121.581 Z" />
            <path d="M275.581,110.186 C275.581,97.599 265.378,87.395 252.791,87.395 C240.204,87.395 230,97.599 230,110.186 C230,111.535 231.093,112.628 232.442,112.628 C233.79,112.628 234.884,111.535 234.884,110.186 C234.884,100.296 242.901,92.279 252.791,92.279 C262.681,92.279 270.698,100.296 270.698,110.186 C270.698,111.535 271.791,112.628 273.14,112.628 C274.488,112.628 275.581,111.535 275.581,110.186 Z" />
        </g>
        <g id="Regular-S">
            <path d="M465,121.581 C470.844,121.581 475.581,116.844 475.581,111 C475.581,105.156 470.844,100.419 465,100.419 C459.156,100.419 454.419,105.156 454.419,111 C454.419,116.844 459.156,121.581 465,121.581 Z M465,116.698 C461.853,116.698 459.302,114.147 459.302,111 C459.302,107.853 461.853,105.302 465,105.302 C468.147,105.302 470.698,107.853 470.698,111 C470.698,114.147 468.147,116.698 465,116.698 Z" />
            <path d="M464.186,141.116 C454.296,141.116 446.279,133.099 446.279,123.209 C446.279,113.319 454.296,105.302 464.186,105.302 C465.535,105.302 466.628,104.209 466.628,102.86 C466.628,101.512 465.535,100.419 464.186,100.419 C451.599,100.419 441.395,110.622 441.395,123.209 C441.395,135.796 451.599,146 464.186,146 C465.535,146 466.628,144.907 466.628,143.558 C466.628,142.21 465.535,141.116 464.186,141.116 Z" />
            <path d="M495.116,110.186 C495.116,120.076 487.099,128.093 477.209,128.093 C467.319,128.093 459.302,120.076 459.302,110.186 C459.302,108.837 458.209,107.744 456.86,107.744 C455.512,107.744 454.419,108.837 454.419,110.186 C454.419,122.773 464.622,132.977 477.209,132.977 C489.796,132.977 500,122.773 500,110.186 C500,108.837 498.907,107.744 497.558,107.744 C496.21,107.744 495.116,108.837 495.116,110.186 Z" />
            <path d="M464.186,121.581 C476.773,121.581 486.977,111.378 486.977,98.791 C486.977,86.204 476.773,76 464.186,76 C462.837,76 461.744,77.093 461.744,78.442 C461.744,79.79 462.837,80.884 464.186,80.884 C474.076,80.884 482.093,88.901 482.093,98.791 C482.093,108.681 474.076,116.698 464.186,116.698 C462.837,116.698 461.744,117.791 461.744,119.14 C461.744,120.488 462.837,121.581 464.186,121.581 Z" />
            <path d="M475.581,110.186 C475.581,97.599 465.378,87.395 452.791,87.395 C440.204,87.395 430,97.599 430,110.186 C430,111.535 431.093,112.628 432.442,112.628 C433.79,112.628 434.884,111.535 434.884,110.186 C434.884,100.296 442.901,92.279 452.791,92.279 C462.681,92.279 470.698,100.296 470.698,110.186 C470.698,111.535 471.791,112.628 473.14,112.628 C474.488,112.628 475.581,111.535 475.581,110.186 Z" />
        </g>
        <g id="Black-S">
            <path d="M665,121.581 C670.844,121.581 675.581,116.844 675.581,111 C675.581,105.156 670.844,100.419 665,100.419 C659.156,100.419 654.419,105.156 654.419,111 C654.419,116.844 659.156,121.581 665,121.581 Z M665,116.698 C661.853,116.698 659.302,114.147 659.302,111 C659.302,107.853 661.853,105.302 665,105.302 C668.147,105.302 670.698,107.853 670.698,111 C670.698,114.147 668.147,116.698 665,116.698 Z" />
            <path d="M664.186,141.116 C654.296,141.116 646.279,133.099 646.279,123.209 C646.279,113.319 654.296,105.302 664.186,105.302 C665.535,105.302 666.628,104.209 666.628,102.86 C666.628,101.512 665.535,100.419 664.186,100.419 C651.599,100.419 641.395,110.622 641.395,123.209 C641.395,135.796 651.599,146 664.186,146 C665.535,146 666.628,144.907 666.628,143.558 C666.628,142.21 665.535,141.116 664.186,141.116 Z" />
            <path d="M695.116,110.186 C695.116,120.076 687.099,128.093 677.209,128.093 C667.319,128.093 659.302,120.076 659.302,110.186 C659.302,108.837 658.209,107.744 656.86,107.744 C655.512,107.744 654.419,108.837 654.419,110.186 C654.419,122.773 664.622,132.977 677.209,132.977 C689.796,132.977 700,122.773 700,110.186 C700,108.837 698.907,107.744 697.558,107.744 C696.21,107.744 695.116,108.837 695.116,110.186 Z" />
            <path d="M664.186,121.581 C676.773,121.581 686.977,111.378 686.977,98.791 C686.977,86.204 676.773,76 664.186,76 C662.837,76 661.744,77.093 661.744,78.442 C661.744,79.79 662.837,80.884 664.186,80.884 C674.076,80.884 682.093,88.901 682.093,98.791 C682.093,108.681 674.076,116.698 664.186,116.698 C662.837,116.698 661.744,117.791 661.744,119.14 C661.744,120.488 662.837,121.581 664.186,121.581 Z" />
            <path d="M675.581,110.186 C675.581,97.599 665.378,87.395 652.791,87.395 C640.204,87.395 630,97.599 630,110.186 C630,111.535 631.093,112.628 632.442,112.628 C633.79,112.628 634.884,111.535 634.884,110.186 C634.884,100.296 642.901,92.279 652.791,92.279 C662.681,92.279 670.698,100.296 670.698,110.186 C670.698,111.535 671.791,112.628 673.14,112.628 C674.488,112.628 675.581,111.535 675.581,110.186 Z" />
        </g>
    </g>
</svg>