<?xml version="1.0" encoding="UTF-8"?>
<svg height="600" width="800" xmlns="http://www.w3.org/2000/svg" xmlns:xlink="http://www.w3.org/1999/xlink">
    <g id="Notes" font-family="'LucidaGrande', 'Lucida Grande', sans-serif" font-size="13">
        <rect fill="white" height="600.0" width="800.0" x="0.0" y="0.0" />
        <g font-size="13">
            <text x="18.0" y="176.0">Small</text>
            <text x="18.0" y="376.0">Medium</text>
            <text x="18.0" y="576.0">Large</text>
        </g>
        <g font-size="9">
            <text x="250.0" y="30.0">Ultralight</text>
            <text x="450.0" y="30.0">Regular</text>
            <text x="650.0" y="30.0">Black</text>
            <text id="template-version" fill="#505050" text-anchor="end" x="785.0" y="575.0">Template v.3.0</text>
            <a href="https://github.com/swhitty/SwiftDraw">
                <text fill="#505050" text-anchor="end" x="785.0" y="590.0">https://github.com/swhitty/SwiftDraw</text>
            </a>
        </g>
    </g>
    <g id="Guides" stroke="rgb(39, 170, 225)" stroke-width="0.5">
        <path id="Capline-S" d="M18,76 l800,0" />
        <path id="H-reference" d="M85,145.755 L87.685,145.755 L113.369,79.287 L114.052,79.287 L114.052,76 L112.148,76 L85,145.755 Z M95.693,121.536 L130.996,121.536 L130.263,119.313 L96.474,119.313 L95.693,121.536 Z M139.15,145.755 L141.787,145.755 L114.638,76 L113.466,76 L113.466,79.287 L139.15,145.755 Z" stroke="none" />
        <path id="Baseline-S" d="M18,146 l800,0" />
        <path id="left-margin-Ultralight-S" d="M221,56 l0,110" />
        <path id="right-margin-Ultralight-S" d="M309,56 l0,110" />
        <path id="left-margin-Regular-S" d="M421,56 l0,110" />
        <path id="right-margin-Regular-S" d="M509,56 l0,110" />
        <path id="left-margin-Black-S" d="M621,56 l0,110" />
        <path id="right-margin-Black-S" d="M709,56 l0,110" />
        <path id="Capline-M" d="M18,276 l800,0" />
        <path id="Baseline-M" d="M18,346 l800,0" />
        <path id="Capline-L" d="M18,476 l800,0" />
        <path id="Baseline-L" d="M18,546 l800,0" />
    </g>
    <g id="Symbols">
        <g id="Ultralight-S">
            <path d="M257.227,79.86 C247.613,79.86 241.952,87.436 244.45,104.172 C244.49,104.44 244.527,104.654 244.617,105.151 C244.651,105.343 244.651,105.343 244.685,105.535 C245.091,107.831 245.065,109.221 244.399,110.619 C243.936,111.592 243.146,112.511 241.926,113.387 C240.622,114.323 240.56,116.24 241.801,117.258 C246.003,120.706 251.185,123.323 256.852,124.486 L257.343,122.094 L254.937,121.683 C254.731,122.884 254.404,124.355 254.124,125.38 C253.837,126.428 253.39,126.927 252.544,127.178 C251.306,127.545 250.259,127.801 247.815,128.36 C247.225,128.495 246.881,128.574 246.506,128.661 C243.657,129.325 241.808,129.846 240.03,130.563 C237.553,131.562 235.593,132.841 234.134,134.604 C232.421,136.674 231.575,139.239 231.632,142.221 C231.673,144.346 233.442,146 235.554,146 L294.446,146 C296.558,146 298.326,144.346 298.368,142.222 C298.426,139.24 297.58,136.674 295.867,134.604 C294.408,132.841 292.448,131.562 289.97,130.563 C288.193,129.846 286.344,129.325 283.494,128.661 C283.133,128.577 282.892,128.522 282.186,128.36 C281.943,128.305 281.943,128.305 281.702,128.249 C279.723,127.795 278.602,127.517 277.456,127.178 C276.61,126.927 276.163,126.427 275.876,125.38 C275.53,124.113 275.135,122.274 274.952,120.99 L272.535,121.335 L273.239,123.673 C278.225,122.172 283.212,119.524 288.155,115.656 C289.326,114.739 289.413,112.998 288.34,111.97 L288.316,111.947 C284.263,108.068 282.345,104.607 282.12,97.441 C282.122,89.926 279.633,82.982 275.24,79.149 C270.068,74.637 263.084,74.921 255.773,80.34 L257.227,79.86 Z M257.227,84.743 C257.751,84.743 258.261,84.575 258.681,84.263 C264.265,80.125 268.722,79.944 272.029,82.829 C275.231,85.623 277.238,91.222 277.238,97.517 C277.509,106.219 280.043,110.788 284.938,115.474 L284.961,115.496 L286.65,113.733 L285.145,111.81 C280.668,115.314 276.22,117.676 271.831,118.996 C270.675,119.344 269.947,120.484 270.118,121.679 C270.331,123.178 270.768,125.214 271.166,126.668 C271.878,129.274 273.518,131.105 276.069,131.86 C277.339,132.237 278.537,132.534 280.611,133.009 C280.854,133.065 280.854,133.065 281.096,133.121 C281.796,133.281 282.033,133.335 282.387,133.418 C285.008,134.028 286.66,134.494 288.144,135.092 C289.929,135.812 291.23,136.661 292.104,137.717 C293.052,138.862 293.521,140.285 293.485,142.127 C293.497,141.539 293.948,141.117 294.446,141.117 L235.554,141.117 C236.052,141.117 236.504,141.539 236.515,142.127 C236.479,140.285 236.949,138.862 237.896,137.717 C238.77,136.661 240.072,135.812 241.857,135.092 C243.34,134.494 244.993,134.028 247.613,133.418 C247.98,133.332 248.32,133.254 248.904,133.121 C251.45,132.538 252.56,132.266 253.931,131.86 C256.482,131.105 258.121,129.274 258.834,126.668 C259.156,125.492 259.518,123.865 259.75,122.505 C259.972,121.207 259.124,119.967 257.834,119.702 C252.984,118.707 248.514,116.45 244.899,113.483 L244.774,117.354 C246.646,116.01 247.98,114.458 248.808,112.719 C250.02,110.175 250.062,107.899 249.494,104.686 C249.458,104.478 249.458,104.478 249.422,104.283 C249.342,103.836 249.31,103.651 249.28,103.451 C247.201,89.519 250.769,84.743 257.227,84.743 Z" />
        </g>
        <g id="Regular-S">
            <path d="M457.227,79.86 C447.613,79.86 441.952,87.436 444.45,104.172 C444.49,104.44 444.527,104.654 444.617,105.151 C444.651,105.343 444.651,105.343 444.685,105.535 C445.091,107.831 445.065,109.221 444.399,110.619 C443.936,111.592 443.146,112.511 441.926,113.387 C440.622,114.323 440.56,116.24 441.801,117.258 C446.003,120.706 451.185,123.323 456.852,124.486 L457.343,122.094 L454.937,121.683 C454.731,122.884 454.404,124.355 454.124,125.38 C453.837,126.428 453.389,126.927 452.544,127.178 C451.306,127.545 450.259,127.801 447.815,128.36 C447.225,128.495 446.881,128.574 446.506,128.661 C443.657,129.325 441.808,129.846 440.03,130.563 C437.553,131.562 435.593,132.841 434.134,134.604 C432.421,136.674 431.575,139.239 431.632,142.221 C431.673,144.346 433.442,146 435.554,146 L494.446,146 C496.558,146 498.326,144.346 498.368,142.222 C498.426,139.24 497.58,136.674 495.867,134.604 C494.408,132.841 492.448,131.562 489.97,130.563 C488.193,129.846 486.344,129.325 483.494,128.661 C483.133,128.577 482.892,128.522 482.186,128.36 C481.943,128.305 481.943,128.305 481.702,128.249 C479.723,127.795 478.602,127.517 477.456,127.178 C476.61,126.927 476.163,126.427 475.876,125.38 C475.53,124.113 475.135,122.274 474.952,120.99 L472.535,121.335 L473.239,123.673 C478.225,122.172 483.212,119.524 488.155,115.656 C489.326,114.739 489.413,112.998 488.34,111.97 L488.316,111.947 C484.263,108.068 482.345,104.607 482.12,97.441 C482.122,89.926 479.633,82.982 475.24,79.149 C470.068,74.637 463.084,74.921 455.773,80.34 L457.227,79.86 Z M457.227,84.743 C457.751,84.743 458.261,84.575 458.681,84.263 C464.265,80.125 468.722,79.944 472.029,82.829 C475.231,85.623 477.238,91.222 477.238,97.517 C477.509,106.219 480.043,110.788 484.938,115.474 L484.961,115.496 L486.65,113.733 L485.145,111.81 C480.668,115.314 476.22,117.676 471.831,118.996 C470.675,119.344 469.947,120.484 470.118,121.679 C470.331,123.178 470.768,125.214 471.166,126.668 C471.878,129.274 473.518,131.105 476.069,131.86 C477.339,132.237 478.537,132.534 480.611,133.009 C480.854,133.065 480.854,133.065 481.096,133.121 C481.796,133.281 482.033,133.335 482.387,133.418 C485.008,134.028 486.66,134.494 488.144,135.092 C489.929,135.812 491.23,136.661 492.104,137.717 C493.052,138.862 493.521,140.285 493.485,142.127 C493.497,141.539 493.948,141.117 494.446,141.117 L435.554,141.117 C436.052,141.117 436.504,141.539 436.515,142.127 C436.479,140.285 436.949,138.862 437.896,137.717 C438.77,136.661 440.072,135.812 441.857,135.092 C443.34,134.494 444.993,134.028 447.613,133.418 C447.98,133.332 448.32,133.254 448.904,133.121 C451.45,132.538 452.56,132.266 453.931,131.86 C456.482,131.105 458.121,129.274 458.834,126.668 C459.156,125.492 459.518,123.865 459.75,122.505 C459.972,121.207 459.124,119.967 457.834,119.702 C452.984,118.707 448.514,116.45 444.899,113.483 L444.774,117.354 C446.646,116.01 447.98,114.458 448.808,112.719 C450.02,110.175 450.062,107.899 449.494,104.686 C449.458,104.478 449.458,104.478 449.422,104.283 C449.342,103.836 449.31,103.651 449.28,103.451 C447.201,89.519 450.769,84.743 457.227,84.743 Z" />
        </g>
        <g id="Black-S">
            <path d="M657.227,79.86 C647.613,79.86 641.952,87.436 644.45,104.172 C644.49,104.44 644.527,104.654 644.617,105.151 C644.651,105.343 644.651,105.343 644.685,105.535 C645.091,107.831 645.065,109.221 644.399,110.619 C643.936,111.592 643.146,112.511 641.926,113.387 C640.622,114.323 640.56,116.24 641.801,117.258 C646.003,120.706 651.185,123.323 656.852,124.486 L657.344,122.094 L654.937,121.683 C654.731,122.884 654.404,124.355 654.124,125.38 C653.837,126.428 653.39,126.927 652.544,127.178 C651.306,127.545 650.259,127.801 647.815,128.36 C647.225,128.495 646.881,128.574 646.506,128.661 C643.657,129.325 641.808,129.846 640.03,130.563 C637.553,131.562 635.593,132.841 634.134,134.604 C632.421,136.674 631.575,139.239 631.632,142.221 C631.673,144.346 633.442,146 635.554,146 L694.446,146 C696.558,146 698.326,144.346 698.368,142.222 C698.426,139.24 697.58,136.674 695.867,134.604 C694.408,132.841 692.448,131.562 689.97,130.563 C688.193,129.846 686.344,129.325 683.494,128.661 C683.133,128.577 682.892,128.522 682.186,128.36 C681.943,128.305 681.943,128.305 681.702,128.249 C679.723,127.795 678.602,127.517 677.456,127.178 C676.61,126.927 676.163,126.427 675.876,125.38 C675.53,124.113 675.135,122.274 674.952,120.99 L672.535,121.335 L673.239,123.673 C678.225,122.172 683.212,119.524 688.155,115.656 C689.326,114.739 689.413,112.998 688.339,111.97 L688.316,111.947 C684.263,108.068 682.345,104.607 682.12,97.441 C682.122,89.926 679.633,82.982 675.24,79.149 C670.068,74.637 663.084,74.921 655.773,80.34 L657.227,79.86 Z M657.227,84.743 C657.751,84.743 658.261,84.575 658.681,84.263 C664.265,80.125 668.722,79.944 672.029,82.829 C675.231,85.623 677.238,91.222 677.238,97.517 C677.509,106.219 680.043,110.788 684.938,115.474 L684.961,115.496 L686.65,113.733 L685.145,111.81 C680.667,115.314 676.22,117.676 671.831,118.996 C670.675,119.344 669.947,120.484 670.118,121.679 C670.331,123.178 670.768,125.214 671.166,126.668 C671.878,129.274 673.518,131.105 676.069,131.86 C677.339,132.237 678.537,132.534 680.611,133.009 C680.854,133.065 680.854,133.065 681.096,133.121 C681.796,133.281 682.033,133.335 682.387,133.418 C685.008,134.028 686.66,134.494 688.144,135.092 C689.929,135.812 691.23,136.661 692.104,137.717 C693.052,138.862 693.521,140.285 693.485,142.127 C693.497,141.539 693.948,141.117 694.446,141.117 L635.554,141.117 C636.052,141.117 636.504,141.539 636.515,142.127 C636.479,140.285 636.949,138.862 637.896,137.717 C638.77,136.661 640.072,135.812 641.857,135.092 C643.34,134.494 644.993,134.028 647.613,133.418 C647.98,133.332 648.32,133.254 648.904,133.121 C651.45,132.538 652.56,132.266 653.931,131.86 C656.482,131.105 658.121,129.274 658.834,126.668 C659.156,125.492 659.518,123.865 659.75,122.505 C659.972,121.207 659.125,119.967 657.834,119.702 C652.984,118.707 648.514,116.45 644.899,113.483 L644.774,117.354 C646.646,116.01 647.98,114.458 648.808,112.719 C650.02,110.175 650.062,107.899 649.494,104.686 C649.458,104.478 649.458,104.478 649.422,104.283 C649.342,103.836 649.31,103.651 649.28,103.451 C647.201,89.519 650.769,84.743 657.227,84.743 Z" />
        </g>
    </g>
</svg>