<?xml version="1.0" encoding="UTF-8"?>
<svg height="600" width="800" xmlns="http://www.w3.org/2000/svg" xmlns:xlink="http://www.w3.org/1999/xlink">
    <g id="Notes" font-family="'LucidaGrande', 'Lucida Grande', sans-serif" font-size="13">
        <rect fill="white" height="600.0" width="800.0" x="0.0" y="0.0" />
        <g font-size="13">
            <text x="18.0" y="176.0">Small</text>
            <text x="18.0" y="376.0">Medium</text>
            <text x="18.0" y="576.0">Large</text>
        </g>
        <g font-size="9">
            <text x="250.0" y="30.0">Ultralight</text>
            <text x="450.0" y="30.0">Regular</text>
            <text x="650.0" y="30.0">Black</text>
            <text id="template-version" fill="#505050" text-anchor="end" x="785.0" y="575.0">Template v.3.0</text>
            <a href="https://github.com/swhitty/SwiftDraw">
                <text fill="#505050" text-anchor="end" x="785.0" y="590.0">https://github.com/swhitty/SwiftDraw</text>
            </a>
        </g>
    </g>
    <g id="Guides" stroke="rgb(39, 170, 225)" stroke-width="0.5">
        <path id="Capline-S" d="M18,76 l800,0" />
        <path id="H-reference" d="M85,145.755 L87.685,145.755 L113.369,79.287 L114.052,79.287 L114.052,76 L112.148,76 L85,145.755 Z M95.693,121.536 L130.996,121.536 L130.263,119.313 L96.474,119.313 L95.693,121.536 Z M139.15,145.755 L141.787,145.755 L114.638,76 L113.466,76 L113.466,79.287 L139.15,145.755 Z" stroke="none" />
        <path id="Baseline-S" d="M18,146 l800,0" />
        <path id="left-margin-Ultralight-S" d="M214.324,56 l0,110" />
        <path id="right-margin-Ultralight-S" d="M315.676,56 l0,110" />
        <path id="left-margin-Regular-S" d="M414.324,56 l0,110" />
        <path id="right-margin-Regular-S" d="M515.676,56 l0,110" />
        <path id="left-margin-Black-S" d="M614.324,56 l0,110" />
        <path id="right-margin-Black-S" d="M715.676,56 l0,110" />
        <path id="Capline-M" d="M18,276 l800,0" />
        <path id="Baseline-M" d="M18,346 l800,0" />
        <path id="Capline-L" d="M18,476 l800,0" />
        <path id="Baseline-L" d="M18,546 l800,0" />
    </g>
    <g id="Symbols">
        <g id="Ultralight-S">
            <path d="M242.297,125.189 L227.162,125.189 L230,128.027 L230,78.838 L227.162,81.676 L302.838,81.676 L300,78.838 L300,128.027 L302.838,125.189 L287.703,125.189 L242.297,125.189 Z M242.297,130.865 L287.703,130.865 L302.838,130.865 C304.405,130.865 305.676,129.594 305.676,128.027 L305.676,78.838 C305.676,77.271 304.405,76 302.838,76 L227.162,76 C225.595,76 224.324,77.271 224.324,78.838 L224.324,128.027 C224.324,129.594 225.595,130.865 227.162,130.865 L242.297,130.865 Z" />
            <path d="M247.027,107.216 L247.027,114.784 C247.027,116.351 248.298,117.622 249.865,117.622 C251.432,117.622 252.703,116.351 252.703,114.784 L252.703,107.216 C252.703,105.649 251.432,104.378 249.865,104.378 C248.298,104.378 247.027,105.649 247.027,107.216 Z" />
            <path d="M262.162,128.027 L262.162,139.378 C262.162,140.946 263.433,142.216 265,142.216 C266.567,142.216 267.838,140.946 267.838,139.378 L267.838,128.027 C267.838,126.46 266.567,125.189 265,125.189 C263.433,125.189 262.162,126.46 262.162,128.027 Z" />
            <path d="M262.162,99.649 L262.162,114.784 C262.162,116.351 263.433,117.622 265,117.622 C266.567,117.622 267.838,116.351 267.838,114.784 L267.838,99.649 C267.838,98.081 266.567,96.811 265,96.811 C263.433,96.811 262.162,98.081 262.162,99.649 Z" />
            <path d="M277.297,92.081 L277.297,114.784 C277.297,116.351 278.568,117.622 280.135,117.622 C281.702,117.622 282.973,116.351 282.973,114.784 L282.973,92.081 C282.973,90.514 281.702,89.243 280.135,89.243 C278.568,89.243 277.297,90.514 277.297,92.081 Z" />
            <path d="M242.297,146 L287.703,146 C289.27,146 290.541,144.729 290.541,143.162 C290.541,141.595 289.27,140.324 287.703,140.324 L242.297,140.324 C240.73,140.324 239.459,141.595 239.459,143.162 C239.459,144.729 240.73,146 242.297,146 Z" />
        </g>
        <g id="Regular-S">
            <path d="M442.297,125.189 L427.162,125.189 L430,128.027 L430,78.838 L427.162,81.676 L502.838,81.676 L500,78.838 L500,128.027 L502.838,125.189 L487.703,125.189 L442.297,125.189 Z M442.297,130.865 L487.703,130.865 L502.838,130.865 C504.405,130.865 505.676,129.594 505.676,128.027 L505.676,78.838 C505.676,77.271 504.405,76 502.838,76 L427.162,76 C425.595,76 424.324,77.271 424.324,78.838 L424.324,128.027 C424.324,129.594 425.595,130.865 427.162,130.865 L442.297,130.865 Z" />
            <path d="M447.027,107.216 L447.027,114.784 C447.027,116.351 448.298,117.622 449.865,117.622 C451.432,117.622 452.703,116.351 452.703,114.784 L452.703,107.216 C452.703,105.649 451.432,104.378 449.865,104.378 C448.298,104.378 447.027,105.649 447.027,107.216 Z" />
            <path d="M462.162,128.027 L462.162,139.378 C462.162,140.946 463.433,142.216 465,142.216 C466.567,142.216 467.838,140.946 467.838,139.378 L467.838,128.027 C467.838,126.46 466.567,125.189 465,125.189 C463.433,125.189 462.162,126.46 462.162,128.027 Z" />
            <path d="M462.162,99.649 L462.162,114.784 C462.162,116.351 463.433,117.622 465,117.622 C466.567,117.622 467.838,116.351 467.838,114.784 L467.838,99.649 C467.838,98.081 466.567,96.811 465,96.811 C463.433,96.811 462.162,98.081 462.162,99.649 Z" />
            <path d="M477.297,92.081 L477.297,114.784 C477.297,116.351 478.568,117.622 480.135,117.622 C481.702,117.622 482.973,116.351 482.973,114.784 L482.973,92.081 C482.973,90.514 481.702,89.243 480.135,89.243 C478.568,89.243 477.297,90.514 477.297,92.081 Z" />
            <path d="M442.297,146 L487.703,146 C489.27,146 490.541,144.729 490.541,143.162 C490.541,141.595 489.27,140.324 487.703,140.324 L442.297,140.324 C440.73,140.324 439.459,141.595 439.459,143.162 C439.459,144.729 440.73,146 442.297,146 Z" />
        </g>
        <g id="Black-S">
            <path d="M642.297,125.189 L627.162,125.189 L630,128.027 L630,78.838 L627.162,81.676 L702.838,81.676 L700,78.838 L700,128.027 L702.838,125.189 L687.703,125.189 L642.297,125.189 Z M642.297,130.865 L687.703,130.865 L702.838,130.865 C704.405,130.865 705.676,129.594 705.676,128.027 L705.676,78.838 C705.676,77.271 704.405,76 702.838,76 L627.162,76 C625.595,76 624.324,77.271 624.324,78.838 L624.324,128.027 C624.324,129.594 625.595,130.865 627.162,130.865 L642.297,130.865 Z" />
            <path d="M647.027,107.216 L647.027,114.784 C647.027,116.351 648.298,117.622 649.865,117.622 C651.432,117.622 652.703,116.351 652.703,114.784 L652.703,107.216 C652.703,105.649 651.432,104.378 649.865,104.378 C648.298,104.378 647.027,105.649 647.027,107.216 Z" />
            <path d="M662.162,128.027 L662.162,139.378 C662.162,140.946 663.433,142.216 665,142.216 C666.567,142.216 667.838,140.946 667.838,139.378 L667.838,128.027 C667.838,126.46 666.567,125.189 665,125.189 C663.433,125.189 662.162,126.46 662.162,128.027 Z" />
            <path d="M662.162,99.649 L662.162,114.784 C662.162,116.351 663.433,117.622 665,117.622 C666.567,117.622 667.838,116.351 667.838,114.784 L667.838,99.649 C667.838,98.081 666.567,96.811 665,96.811 C663.433,96.811 662.162,98.081 662.162,99.649 Z" />
            <path d="M677.297,92.081 L677.297,114.784 C677.297,116.351 678.568,117.622 680.135,117.622 C681.702,117.622 682.973,116.351 682.973,114.784 L682.973,92.081 C682.973,90.514 681.702,89.243 680.135,89.243 C678.568,89.243 677.297,90.514 677.297,92.081 Z" />
            <path d="M642.297,146 L687.703,146 C689.27,146 690.541,144.729 690.541,143.162 C690.541,141.595 689.27,140.324 687.703,140.324 L642.297,140.324 C640.73,140.324 639.459,141.595 639.459,143.162 C639.459,144.729 640.73,146 642.297,146 Z" />
        </g>
    </g>
</svg>