<?xml version="1.0" encoding="UTF-8"?>
<svg height="600" width="800" xmlns="http://www.w3.org/2000/svg" xmlns:xlink="http://www.w3.org/1999/xlink">
    <g id="Notes" font-family="'LucidaGrande', 'Lucida Grande', sans-serif" font-size="13">
        <rect fill="white" height="600.0" width="800.0" x="0.0" y="0.0" />
        <g font-size="13">
            <text x="18.0" y="176.0">Small</text>
            <text x="18.0" y="376.0">Medium</text>
            <text x="18.0" y="576.0">Large</text>
        </g>
        <g font-size="9">
            <text x="250.0" y="30.0">Ultralight</text>
            <text x="450.0" y="30.0">Regular</text>
            <text x="650.0" y="30.0">Black</text>
            <text id="template-version" fill="#505050" text-anchor="end" x="785.0" y="575.0">Template v.3.0</text>
            <a href="https://github.com/swhitty/SwiftDraw">
                <text fill="#505050" text-anchor="end" x="785.0" y="590.0">https://github.com/swhitty/SwiftDraw</text>
            </a>
        </g>
    </g>
    <g id="Guides" stroke="rgb(39, 170, 225)" stroke-width="0.5">
        <path id="Capline-S" d="M18,76 l800,0" />
        <path id="H-reference" d="M85,145.755 L87.685,145.755 L113.369,79.287 L114.052,79.287 L114.052,76 L112.148,76 L85,145.755 Z M95.693,121.536 L130.996,121.536 L130.263,119.313 L96.474,119.313 L95.693,121.536 Z M139.15,145.755 L141.787,145.755 L114.638,76 L113.466,76 L113.466,79.287 L139.15,145.755 Z" stroke="none" />
        <path id="Baseline-S" d="M18,146 l800,0" />
        <path id="left-margin-Ultralight-S" d="M211,56 l0,110" />
        <path id="right-margin-Ultralight-S" d="M319,56 l0,110" />
        <path id="left-margin-Regular-S" d="M411,56 l0,110" />
        <path id="right-margin-Regular-S" d="M519,56 l0,110" />
        <path id="left-margin-Black-S" d="M611,56 l0,110" />
        <path id="right-margin-Black-S" d="M719,56 l0,110" />
        <path id="Capline-M" d="M18,276 l800,0" />
        <path id="Baseline-M" d="M18,346 l800,0" />
        <path id="Capline-L" d="M18,476 l800,0" />
        <path id="Baseline-L" d="M18,546 l800,0" />
    </g>
    <g id="Symbols">
        <g id="Ultralight-S">
            <path d="M309,128.944 L309,93.056 C309,88.931 306.257,85.326 302.267,84.325 C290.393,81.346 277.357,79.279 265,79.279 C252.643,79.279 239.608,81.346 227.733,84.325 C223.743,85.326 221,88.931 221,93.056 L221,128.944 C221,133.069 223.743,136.674 227.733,137.675 C239.608,140.654 252.643,142.721 265,142.721 C277.357,142.721 290.393,140.654 302.267,137.675 C306.257,136.674 309,133.069 309,128.944 Z M302.86,128.944 C302.86,130.283 302.002,131.412 300.773,131.72 C289.345,134.587 276.767,136.581 265,136.581 C253.233,136.581 240.655,134.587 229.227,131.72 C227.998,131.412 227.14,130.284 227.14,128.944 L227.14,93.056 C227.14,91.716 227.998,90.588 229.227,90.28 C240.655,87.413 253.233,85.419 265,85.419 C276.767,85.419 289.345,87.413 300.773,90.28 C302.002,90.588 302.86,91.717 302.86,93.056 L302.86,128.944 Z" />
            <path d="M260.32,120.557 C260.998,120.082 261.93,120.567 261.93,121.395 L261.93,100.605 C261.93,101.433 260.998,101.918 260.32,101.443 L275.17,111.838 C274.588,111.431 274.588,110.569 275.17,110.162 L260.32,120.557 Z M263.841,125.586 L278.691,115.191 C281.601,113.155 281.601,108.845 278.691,106.809 L263.841,96.414 C260.45,94.04 255.791,96.466 255.791,100.605 L255.791,121.395 C255.791,125.534 260.45,127.96 263.841,125.587 Z" />
        </g>
        <g id="Regular-S">
            <path d="M509,128.944 L509,93.056 C509,88.931 506.257,85.326 502.267,84.325 C490.393,81.346 477.357,79.279 465,79.279 C452.643,79.279 439.608,81.346 427.733,84.325 C423.743,85.326 421,88.931 421,93.056 L421,128.944 C421,133.069 423.743,136.674 427.733,137.675 C439.608,140.654 452.643,142.721 465,142.721 C477.357,142.721 490.393,140.654 502.267,137.675 C506.257,136.674 509,133.069 509,128.944 Z M502.86,128.944 C502.86,130.283 502.002,131.412 500.773,131.72 C489.345,134.587 476.767,136.581 465,136.581 C453.233,136.581 440.655,134.587 429.227,131.72 C427.998,131.412 427.14,130.284 427.14,128.944 L427.14,93.056 C427.14,91.716 427.998,90.588 429.227,90.28 C440.655,87.413 453.233,85.419 465,85.419 C476.767,85.419 489.345,87.413 500.773,90.28 C502.002,90.588 502.86,91.717 502.86,93.056 L502.86,128.944 Z" />
            <path d="M460.32,120.557 C460.998,120.082 461.93,120.567 461.93,121.395 L461.93,100.605 C461.93,101.433 460.998,101.918 460.32,101.443 L475.17,111.838 C474.588,111.431 474.588,110.569 475.17,110.162 L460.32,120.557 Z M463.841,125.586 L478.691,115.191 C481.601,113.155 481.601,108.845 478.691,106.809 L463.841,96.414 C460.45,94.04 455.791,96.466 455.791,100.605 L455.791,121.395 C455.791,125.534 460.45,127.96 463.841,125.587 Z" />
        </g>
        <g id="Black-S">
            <path d="M709,128.944 L709,93.056 C709,88.931 706.257,85.326 702.267,84.325 C690.393,81.346 677.357,79.279 665,79.279 C652.643,79.279 639.608,81.346 627.733,84.325 C623.743,85.326 621,88.931 621,93.056 L621,128.944 C621,133.069 623.743,136.674 627.733,137.675 C639.608,140.654 652.643,142.721 665,142.721 C677.357,142.721 690.393,140.654 702.267,137.675 C706.257,136.674 709,133.069 709,128.944 Z M702.86,128.944 C702.86,130.283 702.002,131.412 700.773,131.72 C689.345,134.587 676.767,136.581 665,136.581 C653.233,136.581 640.655,134.587 629.227,131.72 C627.998,131.412 627.14,130.284 627.14,128.944 L627.14,93.056 C627.14,91.716 627.998,90.588 629.227,90.28 C640.655,87.413 653.233,85.419 665,85.419 C676.767,85.419 689.345,87.413 700.773,90.28 C702.002,90.588 702.86,91.717 702.86,93.056 L702.86,128.944 Z" />
            <path d="M660.32,120.557 C660.998,120.082 661.93,120.567 661.93,121.395 L661.93,100.605 C661.93,101.433 660.998,101.918 660.32,101.443 L675.17,111.838 C674.588,111.431 674.588,110.569 675.17,110.162 L660.32,120.557 Z M663.841,125.586 L678.691,115.191 C681.601,113.155 681.601,108.845 678.691,106.809 L663.841,96.414 C660.45,94.04 655.791,96.466 655.791,100.605 L655.791,121.395 C655.791,125.534 660.45,127.96 663.841,125.587 Z" />
        </g>
    </g>
</svg>