<?xml version="1.0" encoding="UTF-8"?>
<svg height="600" width="800" xmlns="http://www.w3.org/2000/svg" xmlns:xlink="http://www.w3.org/1999/xlink">
    <g id="Notes" font-family="'LucidaGrande', 'Lucida Grande', sans-serif" font-size="13">
        <rect fill="white" height="600.0" width="800.0" x="0.0" y="0.0" />
        <g font-size="13">
            <text x="18.0" y="176.0">Small</text>
            <text x="18.0" y="376.0">Medium</text>
            <text x="18.0" y="576.0">Large</text>
        </g>
        <g font-size="9">
            <text x="250.0" y="30.0">Ultralight</text>
            <text x="450.0" y="30.0">Regular</text>
            <text x="650.0" y="30.0">Black</text>
            <text id="template-version" fill="#505050" text-anchor="end" x="785.0" y="575.0">Template v.3.0</text>
            <a href="https://github.com/swhitty/SwiftDraw">
                <text fill="#505050" text-anchor="end" x="785.0" y="590.0">https://github.com/swhitty/SwiftDraw</text>
            </a>
        </g>
    </g>
    <g id="Guides" stroke="rgb(39, 170, 225)" stroke-width="0.5">
        <path id="Capline-S" d="M18,76 l800,0" />
        <path id="H-reference" d="M85,145.755 L87.685,145.755 L113.369,79.287 L114.052,79.287 L114.052,76 L112.148,76 L85,145.755 Z M95.693,121.536 L130.996,121.536 L130.263,119.313 L96.474,119.313 L95.693,121.536 Z M139.15,145.755 L141.787,145.755 L114.638,76 L113.466,76 L113.466,79.287 L139.15,145.755 Z" stroke="none" />
        <path id="Baseline-S" d="M18,146 l800,0" />
        <path id="left-margin-Ultralight-S" d="M211,56 l0,110" />
        <path id="right-margin-Ultralight-S" d="M319,56 l0,110" />
        <path id="left-margin-Regular-S" d="M411,56 l0,110" />
        <path id="right-margin-Regular-S" d="M519,56 l0,110" />
        <path id="left-margin-Black-S" d="M611,56 l0,110" />
        <path id="right-margin-Black-S" d="M719,56 l0,110" />
        <path id="Capline-M" d="M18,276 l800,0" />
        <path id="Baseline-M" d="M18,346 l800,0" />
        <path id="Capline-L" d="M18,476 l800,0" />
        <path id="Baseline-L" d="M18,546 l800,0" />
    </g>
    <g id="Symbols">
        <g id="Ultralight-S">
            <path d="M237.399,85.056 C249.246,84.466 258.452,84.171 265,84.171 C271.547,84.171 280.755,84.466 292.611,85.056 C297.444,85.297 301.353,89.077 301.756,93.898 C302.293,100.326 302.561,105.974 302.561,110.836 C302.561,115.759 302.286,121.486 301.736,128.012 C301.334,132.774 297.51,136.526 292.742,136.838 C282.633,137.499 273.385,137.829 265,137.829 C256.618,137.829 247.373,137.499 237.268,136.838 C232.502,136.527 228.679,132.777 228.275,128.017 C227.717,121.441 227.439,115.712 227.439,110.836 C227.439,106.019 227.711,100.37 228.255,93.894 C228.66,89.074 232.568,85.297 237.399,85.056 Z M237.078,78.625 C229.027,79.026 222.514,85.321 221.839,93.354 C221.28,99.999 221,105.825 221,110.836 C221,115.909 221.287,121.815 221.859,128.561 C222.532,136.494 228.903,142.744 236.848,143.264 C247.087,143.933 256.47,144.268 265,144.268 C273.532,144.268 282.919,143.933 293.162,143.263 C301.109,142.744 307.482,136.49 308.152,128.553 C308.717,121.858 309,115.954 309,110.836 C309,105.781 308.724,99.958 308.172,93.362 C307.501,85.326 300.986,79.027 292.932,78.625 C280.978,78.03 271.673,77.732 265,77.732 C258.326,77.732 249.023,78.03 237.078,78.625 Z" />
            <path d="M255.346,101.576 L255.346,120.457 C255.346,123.251 257.611,125.516 260.405,125.516 C261.396,125.516 262.366,125.225 263.194,124.678 L277.355,115.318 C279.686,113.778 280.327,110.639 278.786,108.308 C278.418,107.751 277.943,107.272 277.39,106.9 L263.228,97.377 C260.91,95.818 257.766,96.434 256.207,98.752 C255.645,99.588 255.346,100.571 255.346,101.576 Z M261.785,101.576 C261.785,101.85 261.703,102.118 261.551,102.345 C261.124,102.978 260.267,103.146 259.635,102.721 L273.796,112.242 C273.644,112.14 273.515,112.01 273.415,111.858 C272.994,111.223 273.169,110.367 273.805,109.946 L259.644,119.306 C259.871,119.156 260.135,119.077 260.405,119.077 C261.167,119.077 261.785,119.695 261.785,120.457 L261.785,101.576 Z" />
        </g>
        <g id="Regular-S">
            <path d="M437.399,85.056 C449.246,84.466 458.452,84.171 465,84.171 C471.547,84.171 480.755,84.466 492.611,85.056 C497.444,85.297 501.353,89.077 501.756,93.898 C502.293,100.326 502.561,105.974 502.561,110.836 C502.561,115.759 502.286,121.486 501.736,128.012 C501.334,132.774 497.51,136.526 492.742,136.838 C482.633,137.499 473.385,137.829 465,137.829 C456.618,137.829 447.373,137.499 437.268,136.838 C432.502,136.527 428.679,132.777 428.275,128.017 C427.717,121.441 427.439,115.712 427.439,110.836 C427.439,106.019 427.711,100.37 428.255,93.894 C428.66,89.074 432.568,85.297 437.399,85.056 Z M437.078,78.625 C429.027,79.026 422.514,85.321 421.839,93.354 C421.28,99.999 421,105.825 421,110.836 C421,115.909 421.287,121.815 421.859,128.561 C422.532,136.494 428.903,142.744 436.848,143.264 C447.087,143.933 456.47,144.268 465,144.268 C473.532,144.268 482.919,143.933 493.162,143.263 C501.109,142.744 507.482,136.49 508.152,128.553 C508.717,121.858 509,115.954 509,110.836 C509,105.781 508.724,99.958 508.172,93.362 C507.501,85.326 500.986,79.027 492.932,78.625 C480.978,78.03 471.673,77.732 465,77.732 C458.326,77.732 449.023,78.03 437.078,78.625 Z" />
            <path d="M455.346,101.576 L455.346,120.457 C455.346,123.251 457.611,125.516 460.405,125.516 C461.396,125.516 462.366,125.225 463.194,124.678 L477.355,115.318 C479.686,113.778 480.327,110.639 478.786,108.308 C478.418,107.751 477.943,107.272 477.39,106.9 L463.228,97.377 C460.91,95.818 457.766,96.434 456.207,98.752 C455.645,99.588 455.346,100.571 455.346,101.576 Z M461.785,101.576 C461.785,101.85 461.703,102.118 461.551,102.345 C461.124,102.978 460.267,103.146 459.635,102.721 L473.796,112.242 C473.644,112.14 473.515,112.01 473.415,111.858 C472.994,111.223 473.169,110.367 473.805,109.946 L459.644,119.306 C459.871,119.156 460.135,119.077 460.405,119.077 C461.167,119.077 461.785,119.695 461.785,120.457 L461.785,101.576 Z" />
        </g>
        <g id="Black-S">
            <path d="M637.399,85.056 C649.246,84.466 658.452,84.171 665,84.171 C671.547,84.171 680.755,84.466 692.611,85.056 C697.444,85.297 701.353,89.077 701.756,93.898 C702.293,100.326 702.561,105.974 702.561,110.836 C702.561,115.759 702.286,121.486 701.736,128.012 C701.334,132.774 697.51,136.526 692.742,136.838 C682.633,137.499 673.385,137.829 665,137.829 C656.618,137.829 647.373,137.499 637.269,136.838 C632.502,136.527 628.679,132.777 628.275,128.017 C627.717,121.441 627.439,115.712 627.439,110.836 C627.439,106.019 627.711,100.37 628.255,93.894 C628.66,89.074 632.568,85.297 637.399,85.056 Z M637.078,78.625 C629.027,79.026 622.514,85.321 621.839,93.354 C621.28,99.999 621,105.825 621,110.836 C621,115.909 621.287,121.815 621.859,128.561 C622.532,136.494 628.903,142.744 636.848,143.264 C647.087,143.933 656.47,144.268 665,144.268 C673.532,144.268 682.919,143.933 693.162,143.263 C701.109,142.744 707.482,136.49 708.152,128.553 C708.717,121.858 709,115.954 709,110.836 C709,105.781 708.724,99.958 708.172,93.362 C707.501,85.326 700.986,79.027 692.932,78.625 C680.978,78.03 671.673,77.732 665,77.732 C658.326,77.732 649.023,78.03 637.078,78.625 Z" />
            <path d="M655.346,101.576 L655.346,120.457 C655.346,123.251 657.611,125.516 660.405,125.516 C661.397,125.516 662.366,125.225 663.194,124.678 L677.355,115.318 C679.686,113.778 680.327,110.639 678.786,108.308 C678.418,107.751 677.943,107.272 677.39,106.9 L663.228,97.377 C660.91,95.818 657.766,96.434 656.207,98.752 C655.645,99.588 655.346,100.571 655.346,101.576 Z M661.785,101.576 C661.785,101.85 661.703,102.118 661.551,102.345 C661.125,102.978 660.267,103.146 659.635,102.721 L673.796,112.242 C673.644,112.14 673.515,112.01 673.415,111.858 C672.994,111.223 673.169,110.367 673.805,109.946 L659.644,119.306 C659.871,119.156 660.135,119.077 660.405,119.077 C661.167,119.077 661.785,119.695 661.785,120.457 L661.785,101.576 Z" />
        </g>
    </g>
</svg>