<?xml version="1.0" encoding="UTF-8"?>
<svg height="600" width="800" xmlns="http://www.w3.org/2000/svg" xmlns:xlink="http://www.w3.org/1999/xlink">
    <g id="Notes" font-family="'LucidaGrande', 'Lucida Grande', sans-serif" font-size="13">
        <rect fill="white" height="600.0" width="800.0" x="0.0" y="0.0" />
        <g font-size="13">
            <text x="18.0" y="176.0">Small</text>
            <text x="18.0" y="376.0">Medium</text>
            <text x="18.0" y="576.0">Large</text>
        </g>
        <g font-size="9">
            <text x="250.0" y="30.0">Ultralight</text>
            <text x="450.0" y="30.0">Regular</text>
            <text x="650.0" y="30.0">Black</text>
            <text id="template-version" fill="#505050" text-anchor="end" x="785.0" y="575.0">Template v.3.0</text>
            <a href="https://github.com/swhitty/SwiftDraw">
                <text fill="#505050" text-anchor="end" x="785.0" y="590.0">https://github.com/swhitty/SwiftDraw</text>
            </a>
        </g>
    </g>
    <g id="Guides" stroke="rgb(39, 170, 225)" stroke-width="0.5">
        <path id="Capline-S" d="M18,76 l800,0" />
        <path id="H-reference" d="M85,145.755 L87.685,145.755 L113.369,79.287 L114.052,79.287 L114.052,76 L112.148,76 L85,145.755 Z M95.693,121.536 L130.996,121.536 L130.263,119.313 L96.474,119.313 L95.693,121.536 Z M139.15,145.755 L141.787,145.755 L114.638,76 L113.466,76 L113.466,79.287 L139.15,145.755 Z" stroke="none" />
        <path id="Baseline-S" d="M18,146 l800,0" />
        <path id="left-margin-Ultralight-S" d="M220,56 l0,110" />
        <path id="right-margin-Ultralight-S" d="M310,56 l0,110" />
        <path id="left-margin-Regular-S" d="M420,56 l0,110" />
        <path id="right-margin-Regular-S" d="M510,56 l0,110" />
        <path id="left-margin-Black-S" d="M620,56 l0,110" />
        <path id="right-margin-Black-S" d="M710,56 l0,110" />
        <path id="Capline-M" d="M18,276 l800,0" />
        <path id="Baseline-M" d="M18,346 l800,0" />
        <path id="Capline-L" d="M18,476 l800,0" />
        <path id="Baseline-L" d="M18,546 l800,0" />
    </g>
    <g id="Symbols">
        <g id="Ultralight-S">
            <path d="M297.558,76 L232.442,76 C231.093,76 230,77.093 230,78.442 L230,143.558 C230,144.907 231.093,146 232.442,146 L297.558,146 C298.907,146 300,144.907 300,143.558 L300,78.442 C300,77.093 298.907,76 297.558,76 Z M297.558,80.884 L295.116,78.442 L295.116,143.558 L297.558,141.116 L232.442,141.116 L234.884,143.558 L234.884,78.442 L232.442,80.884 L297.558,80.884 Z" />
            <path d="M249.535,78.442 L249.535,97.977 L251.977,95.535 L232.442,95.535 C231.093,95.535 230,96.628 230,97.977 C230,99.325 231.093,100.419 232.442,100.419 L251.977,100.419 C253.325,100.419 254.419,99.325 254.419,97.977 L254.419,78.442 C254.419,77.093 253.325,76 251.977,76 C250.628,76 249.535,77.093 249.535,78.442 Z" />
            <path d="M282.093,111 L282.093,130.535 L284.535,128.093 L265,128.093 C263.651,128.093 262.558,129.186 262.558,130.535 C262.558,131.883 263.651,132.977 265,132.977 L284.535,132.977 C285.883,132.977 286.977,131.883 286.977,130.535 L286.977,111 C286.977,109.651 285.883,108.558 284.535,108.558 C283.186,108.558 282.093,109.651 282.093,111 Z" />
            <path d="M286.262,128.808 L266.727,109.273 C265.773,108.32 264.227,108.32 263.273,109.273 C262.32,110.227 262.32,111.773 263.273,112.727 L282.808,132.262 C283.762,133.215 285.308,133.215 286.262,132.262 C287.215,131.308 287.215,129.762 286.262,128.808 Z" />
            <path d="M230,81.698 L230,114.256 C230,115.604 231.093,116.698 232.442,116.698 C233.79,116.698 234.884,115.604 234.884,114.256 L234.884,81.698 C234.884,80.349 233.79,79.256 232.442,79.256 C231.093,79.256 230,80.349 230,81.698 Z" />
            <path d="M237.326,80.884 L269.884,80.884 C271.232,80.884 272.326,79.79 272.326,78.442 C272.326,77.093 271.232,76 269.884,76 L237.326,76 C235.977,76 234.884,77.093 234.884,78.442 C234.884,79.79 235.977,80.884 237.326,80.884 Z" />
        </g>
        <g id="Regular-S">
            <path d="M497.558,76 L432.442,76 C431.093,76 430,77.093 430,78.442 L430,143.558 C430,144.907 431.093,146 432.442,146 L497.558,146 C498.907,146 500,144.907 500,143.558 L500,78.442 C500,77.093 498.907,76 497.558,76 Z M497.558,80.884 L495.116,78.442 L495.116,143.558 L497.558,141.116 L432.442,141.116 L434.884,143.558 L434.884,78.442 L432.442,80.884 L497.558,80.884 Z" />
            <path d="M449.535,78.442 L449.535,97.977 L451.977,95.535 L432.442,95.535 C431.093,95.535 430,96.628 430,97.977 C430,99.325 431.093,100.419 432.442,100.419 L451.977,100.419 C453.325,100.419 454.419,99.325 454.419,97.977 L454.419,78.442 C454.419,77.093 453.325,76 451.977,76 C450.628,76 449.535,77.093 449.535,78.442 Z" />
            <path d="M482.093,111 L482.093,130.535 L484.535,128.093 L465,128.093 C463.651,128.093 462.558,129.186 462.558,130.535 C462.558,131.883 463.651,132.977 465,132.977 L484.535,132.977 C485.883,132.977 486.977,131.883 486.977,130.535 L486.977,111 C486.977,109.651 485.883,108.558 484.535,108.558 C483.186,108.558 482.093,109.651 482.093,111 Z" />
            <path d="M486.262,128.808 L466.727,109.273 C465.773,108.32 464.227,108.32 463.273,109.273 C462.32,110.227 462.32,111.773 463.273,112.727 L482.808,132.262 C483.762,133.215 485.308,133.215 486.262,132.262 C487.215,131.308 487.215,129.762 486.262,128.808 Z" />
            <path d="M430,81.698 L430,114.256 C430,115.604 431.093,116.698 432.442,116.698 C433.79,116.698 434.884,115.604 434.884,114.256 L434.884,81.698 C434.884,80.349 433.79,79.256 432.442,79.256 C431.093,79.256 430,80.349 430,81.698 Z" />
            <path d="M437.326,80.884 L469.884,80.884 C471.232,80.884 472.326,79.79 472.326,78.442 C472.326,77.093 471.232,76 469.884,76 L437.326,76 C435.977,76 434.884,77.093 434.884,78.442 C434.884,79.79 435.977,80.884 437.326,80.884 Z" />
        </g>
        <g id="Black-S">
            <path d="M697.558,76 L632.442,76 C631.093,76 630,77.093 630,78.442 L630,143.558 C630,144.907 631.093,146 632.442,146 L697.558,146 C698.907,146 700,144.907 700,143.558 L700,78.442 C700,77.093 698.907,76 697.558,76 Z M697.558,80.884 L695.116,78.442 L695.116,143.558 L697.558,141.116 L632.442,141.116 L634.884,143.558 L634.884,78.442 L632.442,80.884 L697.558,80.884 Z" />
            <path d="M649.535,78.442 L649.535,97.977 L651.977,95.535 L632.442,95.535 C631.093,95.535 630,96.628 630,97.977 C630,99.325 631.093,100.419 632.442,100.419 L651.977,100.419 C653.325,100.419 654.419,99.325 654.419,97.977 L654.419,78.442 C654.419,77.093 653.325,76 651.977,76 C650.628,76 649.535,77.093 649.535,78.442 Z" />
            <path d="M682.093,111 L682.093,130.535 L684.535,128.093 L665,128.093 C663.651,128.093 662.558,129.186 662.558,130.535 C662.558,131.883 663.651,132.977 665,132.977 L684.535,132.977 C685.883,132.977 686.977,131.883 686.977,130.535 L686.977,111 C686.977,109.651 685.883,108.558 684.535,108.558 C683.186,108.558 682.093,109.651 682.093,111 Z" />
            <path d="M686.262,128.808 L666.727,109.273 C665.773,108.32 664.227,108.32 663.273,109.273 C662.32,110.227 662.32,111.773 663.273,112.727 L682.808,132.262 C683.762,133.215 685.308,133.215 686.262,132.262 C687.215,131.308 687.215,129.762 686.262,128.808 Z" />
            <path d="M630,81.698 L630,114.256 C630,115.604 631.093,116.698 632.442,116.698 C633.79,116.698 634.884,115.604 634.884,114.256 L634.884,81.698 C634.884,80.349 633.79,79.256 632.442,79.256 C631.093,79.256 630,80.349 630,81.698 Z" />
            <path d="M637.326,80.884 L669.884,80.884 C671.232,80.884 672.326,79.79 672.326,78.442 C672.326,77.093 671.232,76 669.884,76 L637.326,76 C635.977,76 634.884,77.093 634.884,78.442 C634.884,79.79 635.977,80.884 637.326,80.884 Z" />
        </g>
    </g>
</svg>