<?xml version="1.0" encoding="UTF-8"?>
<svg height="600" width="800" xmlns="http://www.w3.org/2000/svg" xmlns:xlink="http://www.w3.org/1999/xlink">
    <g id="Notes" font-family="'LucidaGrande', 'Lucida Grande', sans-serif" font-size="13">
        <rect fill="white" height="600.0" width="800.0" x="0.0" y="0.0" />
        <g font-size="13">
            <text x="18.0" y="176.0">Small</text>
            <text x="18.0" y="376.0">Medium</text>
            <text x="18.0" y="576.0">Large</text>
        </g>
        <g font-size="9">
            <text x="250.0" y="30.0">Ultralight</text>
            <text x="450.0" y="30.0">Regular</text>
            <text x="650.0" y="30.0">Black</text>
            <text id="template-version" fill="#505050" text-anchor="end" x="785.0" y="575.0">Template v.3.0</text>
            <a href="https://github.com/swhitty/SwiftDraw">
                <text fill="#505050" text-anchor="end" x="785.0" y="590.0">https://github.com/swhitty/SwiftDraw</text>
            </a>
        </g>
    </g>
    <g id="Guides" stroke="rgb(39, 170, 225)" stroke-width="0.5">
        <path id="Capline-S" d="M18,76 l800,0" />
        <path id="H-reference" d="M85,145.755 L87.685,145.755 L113.369,79.287 L114.052,79.287 L114.052,76 L112.148,76 L85,145.755 Z M95.693,121.536 L130.996,121.536 L130.263,119.313 L96.474,119.313 L95.693,121.536 Z M139.15,145.755 L141.787,145.755 L114.638,76 L113.466,76 L113.466,79.287 L139.15,145.755 Z" stroke="none" />
        <path id="Baseline-S" d="M18,146 l800,0" />
        <path id="left-margin-Ultralight-S" d="M211,56 l0,110" />
        <path id="right-margin-Ultralight-S" d="M319,56 l0,110" />
        <path id="left-margin-Regular-S" d="M411,56 l0,110" />
        <path id="right-margin-Regular-S" d="M519,56 l0,110" />
        <path id="left-margin-Black-S" d="M611,56 l0,110" />
        <path id="right-margin-Black-S" d="M719,56 l0,110" />
        <path id="Capline-M" d="M18,276 l800,0" />
        <path id="Baseline-M" d="M18,346 l800,0" />
        <path id="Capline-L" d="M18,476 l800,0" />
        <path id="Baseline-L" d="M18,546 l800,0" />
    </g>
    <g id="Symbols">
        <g id="Ultralight-S">
            <path d="M227.758,138.358 L232.271,84.205 L228.898,87.308 L301.102,87.308 L297.729,84.205 L302.242,138.358 L305.615,134.693 L271.413,134.693 L274.69,137.231 L268.277,112.41 C267.403,109.026 262.597,109.026 261.723,112.41 L255.31,137.231 L258.587,134.693 L224.385,134.693 L227.758,138.358 Z M221.012,137.796 C220.847,139.769 222.405,141.462 224.385,141.462 L258.587,141.462 C260.13,141.462 261.478,140.418 261.864,138.924 L268.277,114.104 L261.723,114.104 L268.136,138.924 C268.522,140.418 269.87,141.462 271.413,141.462 L305.615,141.462 C307.595,141.462 309.152,139.769 308.988,137.796 L304.475,83.643 C304.329,81.888 302.863,80.539 301.102,80.539 L228.898,80.539 C227.137,80.539 225.671,81.888 225.525,83.643 L221.012,137.796 Z" />
            <path d="M261.889,85.257 L268.658,101.052 C269.395,102.77 271.384,103.566 273.102,102.829 C274.821,102.093 275.616,100.103 274.88,98.385 L268.111,82.59 C267.375,80.872 265.385,80.076 263.667,80.813 C261.949,81.549 261.153,83.539 261.889,85.257 Z" />
            <path d="M262.014,82.331 L252.988,99.254 C252.108,100.903 252.732,102.953 254.382,103.833 C256.031,104.713 258.081,104.089 258.961,102.439 L267.986,85.516 C268.866,83.867 268.242,81.817 266.593,80.937 C264.943,80.058 262.893,80.682 262.014,82.331 Z" />
            <path d="M251.462,87.308 L278.538,87.308 C280.408,87.308 281.923,85.793 281.923,83.924 C281.923,82.054 280.408,80.539 278.538,80.539 L251.462,80.539 C249.592,80.539 248.077,82.054 248.077,83.924 C248.077,85.793 249.592,87.308 251.462,87.308 Z" />
        </g>
        <g id="Regular-S">
            <path d="M427.758,138.358 L432.271,84.205 L428.898,87.308 L501.102,87.308 L497.729,84.205 L502.242,138.358 L505.615,134.693 L471.413,134.693 L474.69,137.231 L468.277,112.41 C467.403,109.026 462.597,109.026 461.723,112.41 L455.31,137.231 L458.587,134.693 L424.385,134.693 L427.758,138.358 Z M421.012,137.796 C420.847,139.769 422.405,141.462 424.385,141.462 L458.587,141.462 C460.13,141.462 461.478,140.418 461.864,138.924 L468.277,114.104 L461.723,114.104 L468.136,138.924 C468.522,140.418 469.87,141.462 471.413,141.462 L505.615,141.462 C507.595,141.462 509.152,139.769 508.988,137.796 L504.475,83.643 C504.329,81.888 502.863,80.539 501.102,80.539 L428.898,80.539 C427.137,80.539 425.671,81.888 425.525,83.643 L421.012,137.796 Z" />
            <path d="M461.889,85.257 L468.658,101.052 C469.395,102.77 471.384,103.566 473.102,102.829 C474.821,102.093 475.616,100.103 474.88,98.385 L468.111,82.59 C467.375,80.872 465.385,80.076 463.667,80.813 C461.949,81.549 461.153,83.539 461.889,85.257 Z" />
            <path d="M462.014,82.331 L452.988,99.254 C452.108,100.903 452.732,102.953 454.382,103.833 C456.031,104.713 458.081,104.089 458.961,102.439 L467.986,85.516 C468.866,83.867 468.242,81.817 466.593,80.937 C464.943,80.058 462.893,80.682 462.014,82.331 Z" />
            <path d="M451.462,87.308 L478.538,87.308 C480.408,87.308 481.923,85.793 481.923,83.924 C481.923,82.054 480.408,80.539 478.538,80.539 L451.462,80.539 C449.592,80.539 448.077,82.054 448.077,83.924 C448.077,85.793 449.592,87.308 451.462,87.308 Z" />
        </g>
        <g id="Black-S">
            <path d="M627.758,138.358 L632.271,84.205 L628.898,87.308 L701.102,87.308 L697.729,84.205 L702.242,138.358 L705.615,134.693 L671.413,134.693 L674.69,137.231 L668.277,112.41 C667.403,109.026 662.597,109.026 661.723,112.41 L655.31,137.231 L658.587,134.693 L624.385,134.693 L627.758,138.358 Z M621.012,137.796 C620.847,139.769 622.405,141.462 624.385,141.462 L658.587,141.462 C660.13,141.462 661.478,140.418 661.864,138.924 L668.277,114.104 L661.723,114.104 L668.136,138.924 C668.522,140.418 669.87,141.462 671.413,141.462 L705.615,141.462 C707.595,141.462 709.153,139.769 708.988,137.796 L704.475,83.643 C704.329,81.888 702.863,80.539 701.102,80.539 L628.898,80.539 C627.137,80.539 625.671,81.888 625.525,83.643 L621.012,137.796 Z" />
            <path d="M661.889,85.257 L668.658,101.052 C669.395,102.77 671.384,103.566 673.102,102.829 C674.821,102.093 675.616,100.103 674.88,98.385 L668.111,82.59 C667.375,80.872 665.385,80.076 663.667,80.813 C661.949,81.549 661.153,83.539 661.889,85.257 Z" />
            <path d="M662.014,82.331 L652.988,99.254 C652.108,100.903 652.732,102.953 654.382,103.833 C656.031,104.713 658.081,104.089 658.961,102.439 L667.986,85.516 C668.866,83.867 668.242,81.817 666.593,80.937 C664.943,80.058 662.893,80.682 662.014,82.331 Z" />
            <path d="M651.462,87.308 L678.538,87.308 C680.408,87.308 681.923,85.793 681.923,83.924 C681.923,82.054 680.408,80.539 678.538,80.539 L651.462,80.539 C649.592,80.539 648.077,82.054 648.077,83.924 C648.077,85.793 649.592,87.308 651.462,87.308 Z" />
        </g>
    </g>
</svg>