<?xml version="1.0" encoding="UTF-8"?>
<svg height="600" width="800" xmlns="http://www.w3.org/2000/svg" xmlns:xlink="http://www.w3.org/1999/xlink">
    <g id="Notes" font-family="'LucidaGrande', 'Lucida Grande', sans-serif" font-size="13">
        <rect fill="white" height="600.0" width="800.0" x="0.0" y="0.0" />
        <g font-size="13">
            <text x="18.0" y="176.0">Small</text>
            <text x="18.0" y="376.0">Medium</text>
            <text x="18.0" y="576.0">Large</text>
        </g>
        <g font-size="9">
            <text x="250.0" y="30.0">Ultralight</text>
            <text x="450.0" y="30.0">Regular</text>
            <text x="650.0" y="30.0">Black</text>
            <text id="template-version" fill="#505050" text-anchor="end" x="785.0" y="575.0">Template v.3.0</text>
            <a href="https://github.com/swhitty/SwiftDraw">
                <text fill="#505050" text-anchor="end" x="785.0" y="590.0">https://github.com/swhitty/SwiftDraw</text>
            </a>
        </g>
    </g>
    <g id="Guides" stroke="rgb(39, 170, 225)" stroke-width="0.5">
        <path id="Capline-S" d="M18,76 l800,0" />
        <path id="H-reference" d="M85,145.755 L87.685,145.755 L113.369,79.287 L114.052,79.287 L114.052,76 L112.148,76 L85,145.755 Z M95.693,121.536 L130.996,121.536 L130.263,119.313 L96.474,119.313 L95.693,121.536 Z M139.15,145.755 L141.787,145.755 L114.638,76 L113.466,76 L113.466,79.287 L139.15,145.755 Z" stroke="none" />
        <path id="Baseline-S" d="M18,146 l800,0" />
        <path id="left-margin-Ultralight-S" d="M211,56 l0,110" />
        <path id="right-margin-Ultralight-S" d="M319,56 l0,110" />
        <path id="left-margin-Regular-S" d="M411,56 l0,110" />
        <path id="right-margin-Regular-S" d="M519,56 l0,110" />
        <path id="left-margin-Black-S" d="M611,56 l0,110" />
        <path id="right-margin-Black-S" d="M719,56 l0,110" />
        <path id="Capline-M" d="M18,276 l800,0" />
        <path id="Baseline-M" d="M18,346 l800,0" />
        <path id="Capline-L" d="M18,476 l800,0" />
        <path id="Baseline-L" d="M18,546 l800,0" />
    </g>
    <g id="Symbols">
        <g id="Ultralight-S">
            <path d="M302.86,111 L302.86,135.558 C302.86,135.83 302.753,136.09 302.561,136.282 C302.369,136.474 302.109,136.581 301.837,136.581 L228.163,136.581 C227.891,136.581 227.631,136.474 227.439,136.282 C227.247,136.09 227.14,135.83 227.14,135.558 L227.14,86.442 C227.14,86.17 227.247,85.91 227.439,85.718 C227.631,85.526 227.891,85.419 228.163,85.419 L301.837,85.419 C302.109,85.419 302.369,85.526 302.561,85.718 C302.753,85.91 302.86,86.17 302.86,86.442 L302.86,111 Z M309,111 L309,86.442 C309,84.542 308.245,82.72 306.902,81.377 C305.559,80.034 303.737,79.279 301.837,79.279 L228.163,79.279 C226.263,79.279 224.441,80.034 223.098,81.377 C221.755,82.72 221,84.542 221,86.442 L221,135.558 C221,137.458 221.755,139.28 223.098,140.623 C224.441,141.966 226.263,142.721 228.163,142.721 L301.837,142.721 C303.737,142.721 305.559,141.966 306.902,140.623 C308.245,139.28 309,137.458 309,135.558 L309,111 Z" />
            <path d="M224.07,105.884 L305.93,105.884 C307.626,105.884 309,104.509 309,102.814 C309,101.119 307.626,99.744 305.93,99.744 L224.07,99.744 C222.374,99.744 221,101.119 221,102.814 C221,104.509 222.374,105.884 224.07,105.884 Z" />
            <path d="M221,96.674 L221,108.953 C221,110.649 222.374,112.023 224.07,112.023 C225.765,112.023 227.14,110.649 227.14,108.953 L227.14,96.674 C227.14,94.979 225.765,93.605 224.07,93.605 C222.374,93.605 221,94.979 221,96.674 Z" />
            <path d="M302.86,96.674 L302.86,108.953 C302.86,110.649 304.235,112.023 305.93,112.023 C307.626,112.023 309,110.649 309,108.953 L309,96.674 C309,94.979 307.626,93.605 305.93,93.605 C304.235,93.605 302.86,94.979 302.86,96.674 Z" />
            <path d="M275.233,124.302 L291.605,124.302 C293.3,124.302 294.674,122.928 294.674,121.233 C294.674,119.537 293.3,118.163 291.605,118.163 L275.233,118.163 C273.537,118.163 272.163,119.537 272.163,121.233 C272.163,122.928 273.537,124.302 275.233,124.302 Z" />
        </g>
        <g id="Regular-S">
            <path d="M502.86,111 L502.86,135.558 C502.86,135.83 502.753,136.09 502.561,136.282 C502.369,136.474 502.109,136.581 501.837,136.581 L428.163,136.581 C427.891,136.581 427.631,136.474 427.439,136.282 C427.247,136.09 427.14,135.83 427.14,135.558 L427.14,86.442 C427.14,86.17 427.247,85.91 427.439,85.718 C427.631,85.526 427.891,85.419 428.163,85.419 L501.837,85.419 C502.109,85.419 502.369,85.526 502.561,85.718 C502.753,85.91 502.86,86.17 502.86,86.442 L502.86,111 Z M509,111 L509,86.442 C509,84.542 508.245,82.72 506.902,81.377 C505.559,80.034 503.737,79.279 501.837,79.279 L428.163,79.279 C426.263,79.279 424.441,80.034 423.098,81.377 C421.755,82.72 421,84.542 421,86.442 L421,135.558 C421,137.458 421.755,139.28 423.098,140.623 C424.441,141.966 426.263,142.721 428.163,142.721 L501.837,142.721 C503.737,142.721 505.559,141.966 506.902,140.623 C508.245,139.28 509,137.458 509,135.558 L509,111 Z" />
            <path d="M424.07,105.884 L505.93,105.884 C507.626,105.884 509,104.509 509,102.814 C509,101.119 507.626,99.744 505.93,99.744 L424.07,99.744 C422.374,99.744 421,101.119 421,102.814 C421,104.509 422.374,105.884 424.07,105.884 Z" />
            <path d="M421,96.674 L421,108.953 C421,110.649 422.374,112.023 424.07,112.023 C425.765,112.023 427.14,110.649 427.14,108.953 L427.14,96.674 C427.14,94.979 425.765,93.605 424.07,93.605 C422.374,93.605 421,94.979 421,96.674 Z" />
            <path d="M502.86,96.674 L502.86,108.953 C502.86,110.649 504.235,112.023 505.93,112.023 C507.626,112.023 509,110.649 509,108.953 L509,96.674 C509,94.979 507.626,93.605 505.93,93.605 C504.235,93.605 502.86,94.979 502.86,96.674 Z" />
            <path d="M475.233,124.302 L491.605,124.302 C493.3,124.302 494.674,122.928 494.674,121.233 C494.674,119.537 493.3,118.163 491.605,118.163 L475.233,118.163 C473.537,118.163 472.163,119.537 472.163,121.233 C472.163,122.928 473.537,124.302 475.233,124.302 Z" />
        </g>
        <g id="Black-S">
            <path d="M702.86,111 L702.86,135.558 C702.86,135.83 702.753,136.09 702.561,136.282 C702.369,136.474 702.109,136.581 701.837,136.581 L628.163,136.581 C627.891,136.581 627.631,136.474 627.439,136.282 C627.247,136.09 627.14,135.83 627.14,135.558 L627.14,86.442 C627.14,86.17 627.247,85.91 627.439,85.718 C627.631,85.526 627.891,85.419 628.163,85.419 L701.837,85.419 C702.109,85.419 702.369,85.526 702.561,85.718 C702.753,85.91 702.86,86.17 702.86,86.442 L702.86,111 Z M709,111 L709,86.442 C709,84.542 708.245,82.72 706.902,81.377 C705.559,80.034 703.737,79.279 701.837,79.279 L628.163,79.279 C626.263,79.279 624.441,80.034 623.098,81.377 C621.755,82.72 621,84.542 621,86.442 L621,135.558 C621,137.458 621.755,139.28 623.098,140.623 C624.441,141.966 626.263,142.721 628.163,142.721 L701.837,142.721 C703.737,142.721 705.559,141.966 706.902,140.623 C708.245,139.28 709,137.458 709,135.558 L709,111 Z" />
            <path d="M624.07,105.884 L705.93,105.884 C707.626,105.884 709,104.509 709,102.814 C709,101.119 707.626,99.744 705.93,99.744 L624.07,99.744 C622.374,99.744 621,101.119 621,102.814 C621,104.509 622.374,105.884 624.07,105.884 Z" />
            <path d="M621,96.674 L621,108.953 C621,110.649 622.374,112.023 624.07,112.023 C625.765,112.023 627.14,110.649 627.14,108.953 L627.14,96.674 C627.14,94.979 625.765,93.605 624.07,93.605 C622.374,93.605 621,94.979 621,96.674 Z" />
            <path d="M702.86,96.674 L702.86,108.953 C702.86,110.649 704.235,112.023 705.93,112.023 C707.626,112.023 709,110.649 709,108.953 L709,96.674 C709,94.979 707.626,93.605 705.93,93.605 C704.235,93.605 702.86,94.979 702.86,96.674 Z" />
            <path d="M675.233,124.302 L691.605,124.302 C693.3,124.302 694.674,122.928 694.674,121.233 C694.674,119.537 693.3,118.163 691.605,118.163 L675.233,118.163 C673.537,118.163 672.163,119.537 672.163,121.233 C672.163,122.928 673.537,124.302 675.233,124.302 Z" />
        </g>
    </g>
</svg>