<?xml version="1.0" encoding="UTF-8"?>
<svg height="600" width="800" xmlns="http://www.w3.org/2000/svg" xmlns:xlink="http://www.w3.org/1999/xlink">
    <g id="Notes" font-family="'LucidaGrande', 'Lucida Grande', sans-serif" font-size="13">
        <rect fill="white" height="600.0" width="800.0" x="0.0" y="0.0" />
        <g font-size="13">
            <text x="18.0" y="176.0">Small</text>
            <text x="18.0" y="376.0">Medium</text>
            <text x="18.0" y="576.0">Large</text>
        </g>
        <g font-size="9">
            <text x="250.0" y="30.0">Ultralight</text>
            <text x="450.0" y="30.0">Regular</text>
            <text x="650.0" y="30.0">Black</text>
            <text id="template-version" fill="#505050" text-anchor="end" x="785.0" y="575.0">Template v.3.0</text>
            <a href="https://github.com/swhitty/SwiftDraw">
                <text fill="#505050" text-anchor="end" x="785.0" y="590.0">https://github.com/swhitty/SwiftDraw</text>
            </a>
        </g>
    </g>
    <g id="Guides" stroke="rgb(39, 170, 225)" stroke-width="0.5">
        <path id="Capline-S" d="M18,76 l800,0" />
        <path id="H-reference" d="M85,145.755 L87.685,145.755 L113.369,79.287 L114.052,79.287 L114.052,76 L112.148,76 L85,145.755 Z M95.693,121.536 L130.996,121.536 L130.263,119.313 L96.474,119.313 L95.693,121.536 Z M139.15,145.755 L141.787,145.755 L114.638,76 L113.466,76 L113.466,79.287 L139.15,145.755 Z" stroke="none" />
        <path id="Baseline-S" d="M18,146 l800,0" />
        <path id="left-margin-Ultralight-S" d="M220,56 l0,110" />
        <path id="right-margin-Ultralight-S" d="M310,56 l0,110" />
        <path id="left-margin-Regular-S" d="M420,56 l0,110" />
        <path id="right-margin-Regular-S" d="M510,56 l0,110" />
        <path id="left-margin-Black-S" d="M620,56 l0,110" />
        <path id="right-margin-Black-S" d="M710,56 l0,110" />
        <path id="Capline-M" d="M18,276 l800,0" />
        <path id="Baseline-M" d="M18,346 l800,0" />
        <path id="Capline-L" d="M18,476 l800,0" />
        <path id="Baseline-L" d="M18,546 l800,0" />
    </g>
    <g id="Symbols">
        <g id="Ultralight-S">
            <path d="M265,146 C274.407,146 283.229,142.269 289.749,135.749 C296.269,129.229 300,120.407 300,111 C300,101.593 296.269,92.771 289.749,86.251 C283.229,79.731 274.407,76 265,76 C255.593,76 246.771,79.731 240.251,86.251 C233.731,92.771 230,101.593 230,111 C230,120.407 233.731,129.229 240.251,135.749 C246.771,142.269 255.593,146 265,146 Z M265,141.116 C256.902,141.116 249.318,137.908 243.705,132.295 C238.092,126.682 234.884,119.098 234.884,111 C234.884,102.902 238.092,95.318 243.705,89.705 C249.318,84.092 256.902,80.884 265,80.884 C273.098,80.884 280.682,84.092 286.296,89.705 C291.908,95.318 295.116,102.902 295.116,111 C295.116,119.098 291.908,126.682 286.295,132.296 C280.682,137.908 273.098,141.116 265,141.116 Z" />
            <path d="M265,85.767 C258.219,85.767 251.858,88.458 247.158,93.158 C242.458,97.858 239.767,104.219 239.767,111 C239.767,112.349 240.861,113.442 242.209,113.442 C243.558,113.442 244.651,112.349 244.651,111 C244.651,105.528 246.818,100.404 250.611,96.611 C254.404,92.818 259.527,90.651 265,90.651 C266.349,90.651 267.442,89.558 267.442,88.209 C267.442,86.861 266.349,85.767 265,85.767 Z" />
        </g>
        <g id="Regular-S">
            <path d="M465,146 C474.407,146 483.229,142.269 489.749,135.749 C496.269,129.229 500,120.407 500,111 C500,101.593 496.269,92.771 489.749,86.251 C483.229,79.731 474.407,76 465,76 C455.593,76 446.771,79.731 440.251,86.251 C433.731,92.771 430,101.593 430,111 C430,120.407 433.731,129.229 440.251,135.749 C446.771,142.269 455.594,146 465,146 Z M465,141.116 C456.902,141.116 449.318,137.908 443.705,132.295 C438.092,126.682 434.884,119.098 434.884,111 C434.884,102.902 438.092,95.318 443.705,89.705 C449.318,84.092 456.902,80.884 465,80.884 C473.098,80.884 480.682,84.092 486.296,89.705 C491.908,95.318 495.116,102.902 495.116,111 C495.116,119.098 491.908,126.682 486.295,132.296 C480.682,137.908 473.098,141.116 465,141.116 Z" />
            <path d="M465,85.767 C458.219,85.767 451.858,88.458 447.158,93.158 C442.458,97.858 439.767,104.219 439.767,111 C439.767,112.349 440.861,113.442 442.209,113.442 C443.558,113.442 444.651,112.349 444.651,111 C444.651,105.528 446.818,100.404 450.611,96.611 C454.404,92.818 459.527,90.651 465,90.651 C466.349,90.651 467.442,89.558 467.442,88.209 C467.442,86.861 466.349,85.767 465,85.767 Z" />
        </g>
        <g id="Black-S">
            <path d="M665,146 C674.407,146 683.229,142.269 689.749,135.749 C696.269,129.229 700,120.407 700,111 C700,101.593 696.269,92.771 689.749,86.251 C683.229,79.731 674.407,76 665,76 C655.593,76 646.771,79.731 640.251,86.251 C633.731,92.771 630,101.593 630,111 C630,120.407 633.731,129.229 640.251,135.749 C646.771,142.269 655.594,146 665,146 Z M665,141.116 C656.902,141.116 649.318,137.908 643.705,132.295 C638.092,126.682 634.884,119.098 634.884,111 C634.884,102.902 638.092,95.318 643.705,89.705 C649.318,84.092 656.902,80.884 665,80.884 C673.098,80.884 680.682,84.092 686.296,89.705 C691.908,95.318 695.116,102.902 695.116,111 C695.116,119.098 691.908,126.682 686.295,132.296 C680.682,137.908 673.098,141.116 665,141.116 Z" />
            <path d="M665,85.767 C658.219,85.767 651.858,88.458 647.158,93.158 C642.458,97.858 639.767,104.219 639.767,111 C639.767,112.349 640.861,113.442 642.209,113.442 C643.558,113.442 644.651,112.349 644.651,111 C644.651,105.528 646.818,100.404 650.611,96.611 C654.404,92.818 659.528,90.651 665,90.651 C666.349,90.651 667.442,89.558 667.442,88.209 C667.442,86.861 666.349,85.767 665,85.767 Z" />
        </g>
    </g>
</svg>