<?xml version="1.0" encoding="UTF-8"?>
<svg height="600" width="800" xmlns="http://www.w3.org/2000/svg" xmlns:xlink="http://www.w3.org/1999/xlink">
    <g id="Notes" font-family="'LucidaGrande', 'Lucida Grande', sans-serif" font-size="13">
        <rect fill="white" height="600.0" width="800.0" x="0.0" y="0.0" />
        <g font-size="13">
            <text x="18.0" y="176.0">Small</text>
            <text x="18.0" y="376.0">Medium</text>
            <text x="18.0" y="576.0">Large</text>
        </g>
        <g font-size="9">
            <text x="250.0" y="30.0">Ultralight</text>
            <text x="450.0" y="30.0">Regular</text>
            <text x="650.0" y="30.0">Black</text>
            <text id="template-version" fill="#505050" text-anchor="end" x="785.0" y="575.0">Template v.3.0</text>
            <a href="https://github.com/swhitty/SwiftDraw">
                <text fill="#505050" text-anchor="end" x="785.0" y="590.0">https://github.com/swhitty/SwiftDraw</text>
            </a>
        </g>
    </g>
    <g id="Guides" stroke="rgb(39, 170, 225)" stroke-width="0.5">
        <path id="Capline-S" d="M18,76 l800,0" />
        <path id="H-reference" d="M85,145.755 L87.685,145.755 L113.369,79.287 L114.052,79.287 L114.052,76 L112.148,76 L85,145.755 Z M95.693,121.536 L130.996,121.536 L130.263,119.313 L96.474,119.313 L95.693,121.536 Z M139.15,145.755 L141.787,145.755 L114.638,76 L113.466,76 L113.466,79.287 L139.15,145.755 Z" stroke="none" />
        <path id="Baseline-S" d="M18,146 l800,0" />
        <path id="left-margin-Ultralight-S" d="M211,56 l0,110" />
        <path id="right-margin-Ultralight-S" d="M319,56 l0,110" />
        <path id="left-margin-Regular-S" d="M411,56 l0,110" />
        <path id="right-margin-Regular-S" d="M519,56 l0,110" />
        <path id="left-margin-Black-S" d="M611,56 l0,110" />
        <path id="right-margin-Black-S" d="M719,56 l0,110" />
        <path id="Capline-M" d="M18,276 l800,0" />
        <path id="Baseline-M" d="M18,346 l800,0" />
        <path id="Capline-L" d="M18,476 l800,0" />
        <path id="Baseline-L" d="M18,546 l800,0" />
    </g>
    <g id="Symbols">
        <g id="Ultralight-S">
            <path d="M224.771,84.6 L305.229,84.6 C307.311,84.6 309,82.911 309,80.829 C309,78.746 307.311,77.057 305.229,77.057 L224.771,77.057 C222.689,77.057 221,78.746 221,80.829 C221,82.911 222.689,84.6 224.771,84.6 Z" />
            <path d="M224.771,114.771 L305.229,114.771 C307.311,114.771 309,113.083 309,111 C309,108.917 307.311,107.229 305.229,107.229 L224.771,107.229 C222.689,107.229 221,108.917 221,111 C221,113.083 222.689,114.771 224.771,114.771 Z" />
            <path d="M224.771,144.943 L305.229,144.943 C307.311,144.943 309,143.254 309,141.171 C309,139.089 307.311,137.4 305.229,137.4 L224.771,137.4 C222.689,137.4 221,139.089 221,141.171 C221,143.254 222.689,144.943 224.771,144.943 Z" />
        </g>
        <g id="Regular-S">
            <path d="M424.771,84.6 L505.229,84.6 C507.311,84.6 509,82.911 509,80.829 C509,78.746 507.311,77.057 505.229,77.057 L424.771,77.057 C422.689,77.057 421,78.746 421,80.829 C421,82.911 422.689,84.6 424.771,84.6 Z" />
            <path d="M424.771,114.771 L505.229,114.771 C507.311,114.771 509,113.083 509,111 C509,108.917 507.311,107.229 505.229,107.229 L424.771,107.229 C422.689,107.229 421,108.917 421,111 C421,113.083 422.689,114.771 424.771,114.771 Z" />
            <path d="M424.771,144.943 L505.229,144.943 C507.311,144.943 509,143.254 509,141.171 C509,139.089 507.311,137.4 505.229,137.4 L424.771,137.4 C422.689,137.4 421,139.089 421,141.171 C421,143.254 422.689,144.943 424.771,144.943 Z" />
        </g>
        <g id="Black-S">
            <path d="M624.771,84.6 L705.229,84.6 C707.311,84.6 709,82.911 709,80.829 C709,78.746 707.311,77.057 705.229,77.057 L624.771,77.057 C622.689,77.057 621,78.746 621,80.829 C621,82.911 622.689,84.6 624.771,84.6 Z" />
            <path d="M624.771,114.771 L705.229,114.771 C707.311,114.771 709,113.083 709,111 C709,108.917 707.311,107.229 705.229,107.229 L624.771,107.229 C622.689,107.229 621,108.917 621,111 C621,113.083 622.689,114.771 624.771,114.771 Z" />
            <path d="M624.771,144.943 L705.229,144.943 C707.311,144.943 709,143.254 709,141.171 C709,139.089 707.311,137.4 705.229,137.4 L624.771,137.4 C622.689,137.4 621,139.089 621,141.171 C621,143.254 622.689,144.943 624.771,144.943 Z" />
        </g>
    </g>
</svg>