<?xml version="1.0" encoding="UTF-8"?>
<svg height="600" width="800" xmlns="http://www.w3.org/2000/svg" xmlns:xlink="http://www.w3.org/1999/xlink">
    <g id="Notes" font-family="'LucidaGrande', 'Lucida Grande', sans-serif" font-size="13">
        <rect fill="white" height="600.0" width="800.0" x="0.0" y="0.0" />
        <g font-size="13">
            <text x="18.0" y="176.0">Small</text>
            <text x="18.0" y="376.0">Medium</text>
            <text x="18.0" y="576.0">Large</text>
        </g>
        <g font-size="9">
            <text x="250.0" y="30.0">Ultralight</text>
            <text x="450.0" y="30.0">Regular</text>
            <text x="650.0" y="30.0">Black</text>
            <text id="template-version" fill="#505050" text-anchor="end" x="785.0" y="575.0">Template v.3.0</text>
            <a href="https://github.com/swhitty/SwiftDraw">
                <text fill="#505050" text-anchor="end" x="785.0" y="590.0">https://github.com/swhitty/SwiftDraw</text>
            </a>
        </g>
    </g>
    <g id="Guides" stroke="rgb(39, 170, 225)" stroke-width="0.5">
        <path id="Capline-S" d="M18,76 l800,0" />
        <path id="H-reference" d="M85,145.755 L87.685,145.755 L113.369,79.287 L114.052,79.287 L114.052,76 L112.148,76 L85,145.755 Z M95.693,121.536 L130.996,121.536 L130.263,119.313 L96.474,119.313 L95.693,121.536 Z M139.15,145.755 L141.787,145.755 L114.638,76 L113.466,76 L113.466,79.287 L139.15,145.755 Z" stroke="none" />
        <path id="Baseline-S" d="M18,146 l800,0" />
        <path id="left-margin-Ultralight-S" d="M220,56 l0,110" />
        <path id="right-margin-Ultralight-S" d="M310,56 l0,110" />
        <path id="left-margin-Regular-S" d="M420,56 l0,110" />
        <path id="right-margin-Regular-S" d="M510,56 l0,110" />
        <path id="left-margin-Black-S" d="M620,56 l0,110" />
        <path id="right-margin-Black-S" d="M710,56 l0,110" />
        <path id="Capline-M" d="M18,276 l800,0" />
        <path id="Baseline-M" d="M18,346 l800,0" />
        <path id="Capline-L" d="M18,476 l800,0" />
        <path id="Baseline-L" d="M18,546 l800,0" />
    </g>
    <g id="Symbols">
        <g id="Ultralight-S">
            <path d="M294.303,76 L235.697,76 C232.551,76 230,78.551 230,81.698 L230.001,140.303 C230.001,143.449 232.552,146 235.699,146 L294.303,146 C297.449,146 300,143.449 300,140.302 L300,81.698 C300,78.551 297.449,76 294.303,76 Z M294.303,80.884 C294.752,80.884 295.117,81.248 295.117,81.698 L295.117,140.302 C295.117,140.752 294.752,141.116 294.303,141.116 L235.699,141.116 C235.25,141.116 234.885,140.752 234.885,140.302 L234.883,81.698 C234.883,81.248 235.248,80.884 235.697,80.884 L294.303,80.884 Z" />
            <path d="M258.502,129.734 L280.466,129.734 C281.814,129.734 282.907,128.641 282.907,127.293 L282.907,104.502 C282.907,103.153 281.814,102.06 280.466,102.06 C279.117,102.06 278.024,103.153 278.024,104.502 L278.024,127.293 L280.466,124.851 L258.502,124.851 C257.154,124.851 256.061,125.944 256.061,127.293 C256.061,128.641 257.154,129.734 258.502,129.734 Z" />
            <path d="M267.54,132.878 L265.098,130.436 L260.215,125.552 L260.215,129.006 L265.098,124.122 L267.54,121.68 C268.494,120.727 268.494,119.18 267.54,118.227 C266.587,117.273 265.041,117.273 264.087,118.227 L261.645,120.669 L256.761,125.552 C255.808,126.506 255.808,128.052 256.761,129.006 L261.645,133.889 L264.087,136.331 C265.041,137.285 266.587,137.285 267.54,136.331 C268.494,135.378 268.494,133.832 267.54,132.878 Z" />
            <path d="M274.866,113.541 L277.308,111.099 L282.191,106.215 L278.738,106.215 L283.622,111.099 L286.064,113.541 C287.017,114.494 288.563,114.494 289.517,113.541 C290.471,112.587 290.471,111.041 289.517,110.087 L287.075,107.645 L282.191,102.762 C281.238,101.808 279.692,101.808 278.738,102.762 L273.854,107.645 L271.413,110.087 C270.459,111.041 270.459,112.587 271.413,113.541 C272.366,114.494 273.912,114.494 274.866,113.541 Z" />
            <path d="M246.279,78.442 L246.279,143.558 C246.279,144.907 247.372,146 248.721,146 C250.069,146 251.162,144.907 251.162,143.558 L251.162,78.442 C251.162,77.093 250.069,76 248.721,76 C247.372,76 246.279,77.093 246.279,78.442 Z" />
            <path d="M232.444,97.224 L297.56,97.163 C298.909,97.162 300.001,96.067 300,94.719 C299.998,93.37 298.904,92.278 297.555,92.279 L232.439,92.341 C231.091,92.342 229.998,93.436 230,94.785 C230.001,96.133 231.095,97.226 232.444,97.224 Z" />
            <path d="M238.953,80.884 L271.511,80.884 C272.86,80.884 273.953,79.79 273.953,78.442 C273.953,77.093 272.86,76 271.511,76 L238.953,76 C237.605,76 236.511,77.093 236.511,78.442 C236.511,79.79 237.605,80.884 238.953,80.884 Z" />
            <path d="M238.953,146 L271.511,146 C272.86,146 273.953,144.907 273.953,143.558 C273.953,142.21 272.86,141.116 271.511,141.116 L238.953,141.116 C237.605,141.116 236.511,142.21 236.511,143.558 C236.511,144.907 237.605,146 238.953,146 Z" />
            <path d="M295.116,84.953 L295.116,101.233 C295.116,102.581 296.209,103.674 297.558,103.674 C298.906,103.674 300,102.581 300,101.233 L300,84.953 C300,83.605 298.906,82.512 297.558,82.512 C296.209,82.512 295.116,83.605 295.116,84.953 Z" />
            <path d="M230,84.953 L230,101.233 C230,102.581 231.093,103.674 232.442,103.674 C233.79,103.674 234.883,102.581 234.883,101.233 L234.883,84.953 C234.883,83.605 233.79,82.512 232.442,82.512 C231.093,82.512 230,83.605 230,84.953 Z" />
        </g>
        <g id="Regular-S">
            <path d="M494.303,76 L435.697,76 C432.551,76 430,78.551 430,81.698 L430.001,140.303 C430.001,143.449 432.552,146 435.699,146 L494.303,146 C497.449,146 500,143.449 500,140.302 L500,81.698 C500,78.551 497.449,76 494.303,76 Z M494.303,80.884 C494.752,80.884 495.117,81.248 495.117,81.698 L495.117,140.302 C495.117,140.752 494.752,141.116 494.303,141.116 L435.699,141.116 C435.25,141.116 434.885,140.752 434.885,140.302 L434.883,81.698 C434.883,81.248 435.248,80.884 435.697,80.884 L494.303,80.884 Z" />
            <path d="M458.502,129.734 L480.466,129.734 C481.814,129.734 482.907,128.641 482.907,127.293 L482.907,104.502 C482.907,103.153 481.814,102.06 480.466,102.06 C479.117,102.06 478.024,103.153 478.024,104.502 L478.024,127.293 L480.466,124.851 L458.502,124.851 C457.154,124.851 456.061,125.944 456.061,127.293 C456.061,128.641 457.154,129.734 458.502,129.734 Z" />
            <path d="M467.54,132.878 L465.098,130.436 L460.215,125.552 L460.215,129.006 L465.098,124.122 L467.54,121.68 C468.494,120.727 468.494,119.18 467.54,118.227 C466.587,117.273 465.041,117.273 464.087,118.227 L461.645,120.669 L456.761,125.552 C455.808,126.506 455.808,128.052 456.761,129.006 L461.645,133.889 L464.087,136.331 C465.041,137.285 466.587,137.285 467.54,136.331 C468.494,135.378 468.494,133.832 467.54,132.878 Z" />
            <path d="M474.866,113.541 L477.308,111.099 L482.191,106.215 L478.738,106.215 L483.622,111.099 L486.064,113.541 C487.017,114.494 488.563,114.494 489.517,113.541 C490.471,112.587 490.471,111.041 489.517,110.087 L487.075,107.645 L482.191,102.762 C481.238,101.808 479.692,101.808 478.738,102.762 L473.854,107.645 L471.413,110.087 C470.459,111.041 470.459,112.587 471.413,113.541 C472.366,114.494 473.912,114.494 474.866,113.541 Z" />
            <path d="M446.279,78.442 L446.279,143.558 C446.279,144.907 447.372,146 448.721,146 C450.069,146 451.162,144.907 451.162,143.558 L451.162,78.442 C451.162,77.093 450.069,76 448.721,76 C447.372,76 446.279,77.093 446.279,78.442 Z" />
            <path d="M432.444,97.224 L497.56,97.163 C498.909,97.162 500.001,96.067 500,94.719 C499.998,93.37 498.904,92.278 497.555,92.279 L432.439,92.341 C431.091,92.342 429.998,93.436 430,94.785 C430.001,96.133 431.095,97.226 432.444,97.224 Z" />
            <path d="M438.953,80.884 L471.511,80.884 C472.86,80.884 473.953,79.79 473.953,78.442 C473.953,77.093 472.86,76 471.511,76 L438.953,76 C437.605,76 436.511,77.093 436.511,78.442 C436.511,79.79 437.605,80.884 438.953,80.884 Z" />
            <path d="M438.953,146 L471.511,146 C472.86,146 473.953,144.907 473.953,143.558 C473.953,142.21 472.86,141.116 471.511,141.116 L438.953,141.116 C437.605,141.116 436.511,142.21 436.511,143.558 C436.511,144.907 437.605,146 438.953,146 Z" />
            <path d="M495.116,84.953 L495.116,101.233 C495.116,102.581 496.209,103.674 497.558,103.674 C498.906,103.674 500,102.581 500,101.233 L500,84.953 C500,83.605 498.906,82.512 497.558,82.512 C496.209,82.512 495.116,83.605 495.116,84.953 Z" />
            <path d="M430,84.953 L430,101.233 C430,102.581 431.093,103.674 432.442,103.674 C433.79,103.674 434.883,102.581 434.883,101.233 L434.883,84.953 C434.883,83.605 433.79,82.512 432.442,82.512 C431.093,82.512 430,83.605 430,84.953 Z" />
        </g>
        <g id="Black-S">
            <path d="M694.303,76 L635.697,76 C632.551,76 630,78.551 630,81.698 L630.001,140.303 C630.001,143.449 632.552,146 635.699,146 L694.303,146 C697.449,146 700,143.449 700,140.302 L700,81.698 C700,78.551 697.449,76 694.303,76 Z M694.303,80.884 C694.752,80.884 695.117,81.248 695.117,81.698 L695.117,140.302 C695.117,140.752 694.752,141.116 694.303,141.116 L635.699,141.116 C635.25,141.116 634.885,140.752 634.885,140.302 L634.883,81.698 C634.883,81.248 635.248,80.884 635.697,80.884 L694.303,80.884 Z" />
            <path d="M658.502,129.734 L680.466,129.734 C681.814,129.734 682.907,128.641 682.907,127.293 L682.907,104.502 C682.907,103.153 681.814,102.06 680.466,102.06 C679.117,102.06 678.024,103.153 678.024,104.502 L678.024,127.293 L680.466,124.851 L658.502,124.851 C657.154,124.851 656.061,125.944 656.061,127.293 C656.061,128.641 657.154,129.734 658.502,129.734 Z" />
            <path d="M667.54,132.878 L665.098,130.436 L660.215,125.552 L660.215,129.006 L665.098,124.122 L667.54,121.68 C668.494,120.727 668.494,119.18 667.54,118.227 C666.587,117.273 665.041,117.273 664.087,118.227 L661.645,120.669 L656.761,125.552 C655.808,126.506 655.808,128.052 656.761,129.006 L661.645,133.889 L664.087,136.331 C665.041,137.285 666.587,137.285 667.54,136.331 C668.494,135.378 668.494,133.832 667.54,132.878 Z" />
            <path d="M674.866,113.541 L677.308,111.099 L682.191,106.215 L678.738,106.215 L683.622,111.099 L686.064,113.541 C687.017,114.494 688.563,114.494 689.517,113.541 C690.471,112.587 690.471,111.041 689.517,110.087 L687.075,107.645 L682.191,102.762 C681.238,101.808 679.692,101.808 678.738,102.762 L673.854,107.645 L671.413,110.087 C670.459,111.041 670.459,112.587 671.413,113.541 C672.366,114.494 673.912,114.494 674.866,113.541 Z" />
            <path d="M646.279,78.442 L646.279,143.558 C646.279,144.907 647.372,146 648.721,146 C650.069,146 651.162,144.907 651.162,143.558 L651.162,78.442 C651.162,77.093 650.069,76 648.721,76 C647.372,76 646.279,77.093 646.279,78.442 Z" />
            <path d="M632.444,97.224 L697.56,97.163 C698.909,97.162 700.001,96.067 700,94.719 C699.998,93.37 698.904,92.278 697.556,92.279 L632.439,92.341 C631.091,92.342 629.998,93.436 630,94.785 C630.001,96.133 631.095,97.226 632.444,97.224 Z" />
            <path d="M638.953,80.884 L671.511,80.884 C672.86,80.884 673.953,79.79 673.953,78.442 C673.953,77.093 672.86,76 671.511,76 L638.953,76 C637.605,76 636.511,77.093 636.511,78.442 C636.511,79.79 637.605,80.884 638.953,80.884 Z" />
            <path d="M638.953,146 L671.511,146 C672.86,146 673.953,144.907 673.953,143.558 C673.953,142.21 672.86,141.116 671.511,141.116 L638.953,141.116 C637.605,141.116 636.511,142.21 636.511,143.558 C636.511,144.907 637.605,146 638.953,146 Z" />
            <path d="M695.116,84.953 L695.116,101.233 C695.116,102.581 696.209,103.674 697.558,103.674 C698.906,103.674 700,102.581 700,101.233 L700,84.953 C700,83.605 698.906,82.512 697.558,82.512 C696.209,82.512 695.116,83.605 695.116,84.953 Z" />
            <path d="M630,84.953 L630,101.233 C630,102.581 631.093,103.674 632.442,103.674 C633.79,103.674 634.883,102.581 634.883,101.233 L634.883,84.953 C634.883,83.605 633.79,82.512 632.442,82.512 C631.093,82.512 630,83.605 630,84.953 Z" />
        </g>
    </g>
</svg>