<?xml version="1.0" encoding="UTF-8"?>
<svg height="600" width="800" xmlns="http://www.w3.org/2000/svg" xmlns:xlink="http://www.w3.org/1999/xlink">
    <g id="Notes" font-family="'LucidaGrande', 'Lucida Grande', sans-serif" font-size="13">
        <rect fill="white" height="600.0" width="800.0" x="0.0" y="0.0" />
        <g font-size="13">
            <text x="18.0" y="176.0">Small</text>
            <text x="18.0" y="376.0">Medium</text>
            <text x="18.0" y="576.0">Large</text>
        </g>
        <g font-size="9">
            <text x="250.0" y="30.0">Ultralight</text>
            <text x="450.0" y="30.0">Regular</text>
            <text x="650.0" y="30.0">Black</text>
            <text id="template-version" fill="#505050" text-anchor="end" x="785.0" y="575.0">Template v.3.0</text>
            <a href="https://github.com/swhitty/SwiftDraw">
                <text fill="#505050" text-anchor="end" x="785.0" y="590.0">https://github.com/swhitty/SwiftDraw</text>
            </a>
        </g>
    </g>
    <g id="Guides" stroke="rgb(39, 170, 225)" stroke-width="0.5">
        <path id="Capline-S" d="M18,76 l800,0" />
        <path id="H-reference" d="M85,145.755 L87.685,145.755 L113.369,79.287 L114.052,79.287 L114.052,76 L112.148,76 L85,145.755 Z M95.693,121.536 L130.996,121.536 L130.263,119.313 L96.474,119.313 L95.693,121.536 Z M139.15,145.755 L141.787,145.755 L114.638,76 L113.466,76 L113.466,79.287 L139.15,145.755 Z" stroke="none" />
        <path id="Baseline-S" d="M18,146 l800,0" />
        <path id="left-margin-Ultralight-S" d="M211,56 l0,110" />
        <path id="right-margin-Ultralight-S" d="M319,56 l0,110" />
        <path id="left-margin-Regular-S" d="M411,56 l0,110" />
        <path id="right-margin-Regular-S" d="M519,56 l0,110" />
        <path id="left-margin-Black-S" d="M611,56 l0,110" />
        <path id="right-margin-Black-S" d="M719,56 l0,110" />
        <path id="Capline-M" d="M18,276 l800,0" />
        <path id="Baseline-M" d="M18,346 l800,0" />
        <path id="Capline-L" d="M18,476 l800,0" />
        <path id="Baseline-L" d="M18,546 l800,0" />
    </g>
    <g id="Symbols">
        <g id="Ultralight-S">
            <path d="M221.103,111.788 C226.227,131.081 244.214,144.767 265,144.767 C285.786,144.767 303.773,131.081 308.897,111.788 C309.034,111.272 309.034,110.728 308.897,110.212 C303.773,90.919 285.786,77.233 265,77.233 C244.214,77.233 226.227,90.919 221.103,110.212 C220.966,110.728 220.966,111.272 221.103,111.788 Z M227.037,110.212 L227.037,111.788 C231.443,95.198 246.985,83.372 265,83.372 C283.015,83.372 298.557,95.198 302.963,111.788 L302.963,110.212 C298.557,126.802 283.015,138.628 265,138.628 C246.985,138.628 231.443,126.802 227.037,110.212 Z" />
            <path d="M297.744,114.07 L305.93,114.07 C307.626,114.07 309,112.695 309,111 C309,109.305 307.626,107.93 305.93,107.93 L297.744,107.93 C296.049,107.93 294.674,109.305 294.674,111 C294.674,112.695 296.049,114.07 297.744,114.07 Z" />
            <path d="M244.535,114.07 L285.465,114.07 C287.161,114.07 288.535,112.695 288.535,111 C288.535,109.305 287.161,107.93 285.465,107.93 L244.535,107.93 C242.84,107.93 241.465,109.305 241.465,111 C241.465,112.695 242.84,114.07 244.535,114.07 Z" />
            <path d="M224.07,114.07 L232.256,114.07 C233.951,114.07 235.326,112.695 235.326,111 C235.326,109.305 233.951,107.93 232.256,107.93 L224.07,107.93 C222.374,107.93 221,109.305 221,111 C221,112.695 222.374,114.07 224.07,114.07 Z" />
            <path d="M247.605,102.814 L247.605,119.186 C247.605,120.881 248.979,122.256 250.674,122.256 C252.37,122.256 253.744,120.881 253.744,119.186 L253.744,102.814 C253.744,101.119 252.37,99.744 250.674,99.744 C248.979,99.744 247.605,101.119 247.605,102.814 Z" />
            <path d="M276.256,102.814 L276.256,119.186 C276.256,120.881 277.63,122.256 279.326,122.256 C281.021,122.256 282.395,120.881 282.395,119.186 L282.395,102.814 C282.395,101.119 281.021,99.744 279.326,99.744 C277.63,99.744 276.256,101.119 276.256,102.814 Z" />
            <path d="M261.93,102.814 L261.93,119.186 C261.93,120.881 263.305,122.256 265,122.256 C266.695,122.256 268.07,120.881 268.07,119.186 L268.07,102.814 C268.07,101.119 266.695,99.744 265,99.744 C263.305,99.744 261.93,101.119 261.93,102.814 Z" />
        </g>
        <g id="Regular-S">
            <path d="M421.103,111.788 C426.227,131.081 444.214,144.767 465,144.767 C485.786,144.767 503.773,131.081 508.897,111.788 C509.034,111.272 509.034,110.728 508.897,110.212 C503.773,90.919 485.786,77.233 465,77.233 C444.214,77.233 426.227,90.919 421.103,110.212 C420.966,110.728 420.966,111.272 421.103,111.788 Z M427.037,110.212 L427.037,111.788 C431.443,95.198 446.985,83.372 465,83.372 C483.015,83.372 498.557,95.198 502.963,111.788 L502.963,110.212 C498.557,126.802 483.015,138.628 465,138.628 C446.985,138.628 431.443,126.802 427.037,110.212 Z" />
            <path d="M497.744,114.07 L505.93,114.07 C507.626,114.07 509,112.695 509,111 C509,109.305 507.626,107.93 505.93,107.93 L497.744,107.93 C496.049,107.93 494.674,109.305 494.674,111 C494.674,112.695 496.049,114.07 497.744,114.07 Z" />
            <path d="M444.535,114.07 L485.465,114.07 C487.161,114.07 488.535,112.695 488.535,111 C488.535,109.305 487.161,107.93 485.465,107.93 L444.535,107.93 C442.84,107.93 441.465,109.305 441.465,111 C441.465,112.695 442.84,114.07 444.535,114.07 Z" />
            <path d="M424.07,114.07 L432.256,114.07 C433.951,114.07 435.326,112.695 435.326,111 C435.326,109.305 433.951,107.93 432.256,107.93 L424.07,107.93 C422.374,107.93 421,109.305 421,111 C421,112.695 422.374,114.07 424.07,114.07 Z" />
            <path d="M447.605,102.814 L447.605,119.186 C447.605,120.881 448.979,122.256 450.674,122.256 C452.37,122.256 453.744,120.881 453.744,119.186 L453.744,102.814 C453.744,101.119 452.37,99.744 450.674,99.744 C448.979,99.744 447.605,101.119 447.605,102.814 Z" />
            <path d="M476.256,102.814 L476.256,119.186 C476.256,120.881 477.63,122.256 479.326,122.256 C481.021,122.256 482.395,120.881 482.395,119.186 L482.395,102.814 C482.395,101.119 481.021,99.744 479.326,99.744 C477.63,99.744 476.256,101.119 476.256,102.814 Z" />
            <path d="M461.93,102.814 L461.93,119.186 C461.93,120.881 463.305,122.256 465,122.256 C466.695,122.256 468.07,120.881 468.07,119.186 L468.07,102.814 C468.07,101.119 466.695,99.744 465,99.744 C463.305,99.744 461.93,101.119 461.93,102.814 Z" />
        </g>
        <g id="Black-S">
            <path d="M621.103,111.788 C626.227,131.081 644.214,144.767 665,144.767 C685.786,144.767 703.773,131.081 708.897,111.788 C709.034,111.272 709.034,110.728 708.897,110.212 C703.773,90.919 685.786,77.233 665,77.233 C644.214,77.233 626.227,90.919 621.103,110.212 C620.966,110.728 620.966,111.272 621.103,111.788 Z M627.037,110.212 L627.037,111.788 C631.443,95.198 646.985,83.372 665,83.372 C683.015,83.372 698.557,95.198 702.963,111.788 L702.963,110.212 C698.557,126.802 683.015,138.628 665,138.628 C646.985,138.628 631.443,126.802 627.037,110.212 Z" />
            <path d="M697.744,114.07 L705.93,114.07 C707.626,114.07 709,112.695 709,111 C709,109.305 707.626,107.93 705.93,107.93 L697.744,107.93 C696.049,107.93 694.674,109.305 694.674,111 C694.674,112.695 696.049,114.07 697.744,114.07 Z" />
            <path d="M644.535,114.07 L685.465,114.07 C687.161,114.07 688.535,112.695 688.535,111 C688.535,109.305 687.161,107.93 685.465,107.93 L644.535,107.93 C642.839,107.93 641.465,109.305 641.465,111 C641.465,112.695 642.839,114.07 644.535,114.07 Z" />
            <path d="M624.07,114.07 L632.256,114.07 C633.951,114.07 635.326,112.695 635.326,111 C635.326,109.305 633.951,107.93 632.256,107.93 L624.07,107.93 C622.374,107.93 621,109.305 621,111 C621,112.695 622.374,114.07 624.07,114.07 Z" />
            <path d="M647.605,102.814 L647.605,119.186 C647.605,120.881 648.979,122.256 650.674,122.256 C652.37,122.256 653.744,120.881 653.744,119.186 L653.744,102.814 C653.744,101.119 652.37,99.744 650.674,99.744 C648.979,99.744 647.605,101.119 647.605,102.814 Z" />
            <path d="M676.256,102.814 L676.256,119.186 C676.256,120.881 677.63,122.256 679.326,122.256 C681.021,122.256 682.395,120.881 682.395,119.186 L682.395,102.814 C682.395,101.119 681.021,99.744 679.326,99.744 C677.63,99.744 676.256,101.119 676.256,102.814 Z" />
            <path d="M661.93,102.814 L661.93,119.186 C661.93,120.881 663.305,122.256 665,122.256 C666.695,122.256 668.07,120.881 668.07,119.186 L668.07,102.814 C668.07,101.119 666.695,99.744 665,99.744 C663.305,99.744 661.93,101.119 661.93,102.814 Z" />
        </g>
    </g>
</svg>