<?xml version="1.0" encoding="UTF-8"?>
<svg height="600" width="800" xmlns="http://www.w3.org/2000/svg" xmlns:xlink="http://www.w3.org/1999/xlink">
    <g id="Notes" font-family="'LucidaGrande', 'Lucida Grande', sans-serif" font-size="13">
        <rect fill="white" height="600.0" width="800.0" x="0.0" y="0.0" />
        <g font-size="13">
            <text x="18.0" y="176.0">Small</text>
            <text x="18.0" y="376.0">Medium</text>
            <text x="18.0" y="576.0">Large</text>
        </g>
        <g font-size="9">
            <text x="250.0" y="30.0">Ultralight</text>
            <text x="450.0" y="30.0">Regular</text>
            <text x="650.0" y="30.0">Black</text>
            <text id="template-version" fill="#505050" text-anchor="end" x="785.0" y="575.0">Template v.3.0</text>
            <a href="https://github.com/swhitty/SwiftDraw">
                <text fill="#505050" text-anchor="end" x="785.0" y="590.0">https://github.com/swhitty/SwiftDraw</text>
            </a>
        </g>
    </g>
    <g id="Guides" stroke="rgb(39, 170, 225)" stroke-width="0.5">
        <path id="Capline-S" d="M18,76 l800,0" />
        <path id="H-reference" d="M85,145.755 L87.685,145.755 L113.369,79.287 L114.052,79.287 L114.052,76 L112.148,76 L85,145.755 Z M95.693,121.536 L130.996,121.536 L130.263,119.313 L96.474,119.313 L95.693,121.536 Z M139.15,145.755 L141.787,145.755 L114.638,76 L113.466,76 L113.466,79.287 L139.15,145.755 Z" stroke="none" />
        <path id="Baseline-S" d="M18,146 l800,0" />
        <path id="left-margin-Ultralight-S" d="M216.404,56 l0,110" />
        <path id="right-margin-Ultralight-S" d="M313.596,56 l0,110" />
        <path id="left-margin-Regular-S" d="M416.404,56 l0,110" />
        <path id="right-margin-Regular-S" d="M513.596,56 l0,110" />
        <path id="left-margin-Black-S" d="M616.404,56 l0,110" />
        <path id="right-margin-Black-S" d="M713.596,56 l0,110" />
        <path id="Capline-M" d="M18,276 l800,0" />
        <path id="Baseline-M" d="M18,346 l800,0" />
        <path id="Capline-L" d="M18,476 l800,0" />
        <path id="Baseline-L" d="M18,546 l800,0" />
    </g>
    <g id="Symbols">
        <g id="Ultralight-S">
            <path d="M258.707,96.887 C259.254,90.911 261.849,84.464 266.628,80.837 L262.922,80.404 C267.088,85.464 270.694,91.799 271.3,96.956 C271.474,98.433 272.812,99.489 274.289,99.315 C275.766,99.141 276.822,97.803 276.648,96.327 C275.889,89.871 271.852,82.779 267.078,76.981 C266.16,75.866 264.524,75.675 263.372,76.548 C257.154,81.268 254.016,89.061 253.345,96.396 C253.209,97.877 254.3,99.187 255.78,99.322 C257.261,99.458 258.571,98.367 258.707,96.887 Z" />
            <path d="M265.011,140.654 C256.35,139.166 246.97,133.811 240.632,125.432 C232.343,114.474 229.482,99.159 233.744,79.257 L230.511,81.317 C237.73,82.969 245.954,88.462 251.974,96.921 C259.896,108.053 263.66,123.401 261.874,143.064 L265.011,140.654 Z M264.1,145.961 C265.648,146.227 267.095,145.115 267.237,143.551 C269.135,122.649 265.056,106.018 256.361,93.799 C249.576,84.264 240.218,78.015 231.712,76.068 C230.248,75.734 228.794,76.661 228.479,78.129 C223.901,99.503 227.062,116.418 236.337,128.68 C243.535,138.195 254.139,144.25 264.1,145.961 Z" />
            <path d="M265.9,145.961 C275.861,144.25 286.465,138.195 293.663,128.68 C302.938,116.418 306.099,99.503 301.521,78.129 C301.206,76.661 299.752,75.734 298.288,76.068 C289.782,78.015 280.424,84.264 273.639,93.799 C264.944,106.018 260.865,122.649 262.763,143.551 C262.905,145.115 264.352,146.227 265.9,145.961 Z M264.989,140.654 L268.126,143.064 C266.34,123.401 270.104,108.053 278.026,96.921 C284.046,88.462 292.27,82.969 299.489,81.317 L296.256,79.257 C300.518,99.159 297.657,114.474 289.368,125.432 C283.03,133.811 273.65,139.166 264.989,140.654 Z" />
        </g>
        <g id="Regular-S">
            <path d="M458.707,96.887 C459.254,90.911 461.849,84.464 466.628,80.837 L462.922,80.404 C467.088,85.464 470.694,91.799 471.3,96.956 C471.474,98.433 472.812,99.489 474.289,99.315 C475.766,99.141 476.822,97.803 476.648,96.327 C475.889,89.871 471.852,82.779 467.078,76.981 C466.16,75.866 464.524,75.675 463.372,76.548 C457.154,81.268 454.016,89.061 453.345,96.396 C453.209,97.877 454.3,99.187 455.78,99.322 C457.261,99.458 458.571,98.367 458.707,96.887 Z" />
            <path d="M465.011,140.654 C456.35,139.166 446.97,133.811 440.632,125.432 C432.343,114.474 429.482,99.159 433.744,79.257 L430.511,81.317 C437.73,82.969 445.954,88.462 451.974,96.921 C459.896,108.053 463.66,123.401 461.874,143.064 L465.011,140.654 Z M464.1,145.961 C465.648,146.227 467.095,145.115 467.237,143.551 C469.135,122.649 465.056,106.018 456.361,93.799 C449.576,84.264 440.218,78.015 431.712,76.068 C430.248,75.734 428.794,76.661 428.479,78.129 C423.901,99.503 427.062,116.418 436.337,128.68 C443.535,138.195 454.139,144.25 464.1,145.961 Z" />
            <path d="M465.9,145.961 C475.861,144.25 486.465,138.195 493.663,128.68 C502.938,116.418 506.099,99.503 501.521,78.129 C501.206,76.661 499.752,75.734 498.288,76.068 C489.782,78.015 480.424,84.264 473.639,93.799 C464.944,106.018 460.865,122.649 462.763,143.551 C462.905,145.115 464.352,146.227 465.9,145.961 Z M464.989,140.654 L468.126,143.064 C466.34,123.401 470.104,108.053 478.026,96.921 C484.046,88.462 492.27,82.969 499.489,81.317 L496.256,79.257 C500.518,99.159 497.657,114.474 489.368,125.432 C483.03,133.811 473.65,139.166 464.989,140.654 Z" />
        </g>
        <g id="Black-S">
            <path d="M658.707,96.887 C659.254,90.911 661.849,84.464 666.628,80.837 L662.922,80.404 C667.088,85.464 670.694,91.799 671.3,96.956 C671.474,98.433 672.812,99.489 674.289,99.315 C675.766,99.141 676.822,97.803 676.648,96.327 C675.889,89.871 671.852,82.779 667.078,76.981 C666.16,75.866 664.524,75.675 663.372,76.548 C657.154,81.268 654.016,89.061 653.345,96.396 C653.209,97.877 654.3,99.187 655.78,99.322 C657.261,99.458 658.571,98.367 658.707,96.887 Z" />
            <path d="M665.011,140.654 C656.35,139.166 646.97,133.811 640.632,125.432 C632.343,114.474 629.482,99.159 633.744,79.257 L630.511,81.317 C637.73,82.969 645.954,88.462 651.974,96.921 C659.896,108.053 663.66,123.401 661.874,143.064 L665.011,140.654 Z M664.1,145.961 C665.648,146.227 667.095,145.115 667.237,143.551 C669.135,122.649 665.056,106.018 656.361,93.799 C649.576,84.264 640.219,78.015 631.712,76.068 C630.248,75.734 628.794,76.661 628.479,78.129 C623.901,99.503 627.062,116.418 636.337,128.68 C643.535,138.195 654.139,144.25 664.1,145.961 Z" />
            <path d="M665.9,145.961 C675.861,144.25 686.465,138.195 693.663,128.68 C702.938,116.418 706.099,99.503 701.521,78.129 C701.206,76.661 699.752,75.734 698.288,76.068 C689.782,78.015 680.424,84.264 673.639,93.799 C664.944,106.018 660.865,122.649 662.763,143.551 C662.905,145.115 664.352,146.227 665.9,145.961 Z M664.989,140.654 L668.126,143.064 C666.34,123.401 670.104,108.053 678.026,96.921 C684.046,88.462 692.27,82.969 699.489,81.317 L696.256,79.257 C700.518,99.159 697.657,114.474 689.368,125.432 C683.03,133.811 673.65,139.166 664.989,140.654 Z" />
        </g>
    </g>
</svg>