<?xml version="1.0" encoding="UTF-8"?>
<svg height="600" width="800" xmlns="http://www.w3.org/2000/svg" xmlns:xlink="http://www.w3.org/1999/xlink">
    <g id="Notes" font-family="'LucidaGrande', 'Lucida Grande', sans-serif" font-size="13">
        <rect fill="white" height="600.0" width="800.0" x="0.0" y="0.0" />
        <g font-size="13">
            <text x="18.0" y="176.0">Small</text>
            <text x="18.0" y="376.0">Medium</text>
            <text x="18.0" y="576.0">Large</text>
        </g>
        <g font-size="9">
            <text x="250.0" y="30.0">Ultralight</text>
            <text x="450.0" y="30.0">Regular</text>
            <text x="650.0" y="30.0">Black</text>
            <text id="template-version" fill="#505050" text-anchor="end" x="785.0" y="575.0">Template v.3.0</text>
            <a href="https://github.com/swhitty/SwiftDraw">
                <text fill="#505050" text-anchor="end" x="785.0" y="590.0">https://github.com/swhitty/SwiftDraw</text>
            </a>
        </g>
    </g>
    <g id="Guides" stroke="rgb(39, 170, 225)" stroke-width="0.5">
        <path id="Capline-S" d="M18,76 l800,0" />
        <path id="H-reference" d="M85,145.755 L87.685,145.755 L113.369,79.287 L114.052,79.287 L114.052,76 L112.148,76 L85,145.755 Z M95.693,121.536 L130.996,121.536 L130.263,119.313 L96.474,119.313 L95.693,121.536 Z M139.15,145.755 L141.787,145.755 L114.638,76 L113.466,76 L113.466,79.287 L139.15,145.755 Z" stroke="none" />
        <path id="Baseline-S" d="M18,146 l800,0" />
        <path id="left-margin-Ultralight-S" d="M220.038,56 l0,110" />
        <path id="right-margin-Ultralight-S" d="M309.962,56 l0,110" />
        <path id="left-margin-Regular-S" d="M420.038,56 l0,110" />
        <path id="right-margin-Regular-S" d="M509.962,56 l0,110" />
        <path id="left-margin-Black-S" d="M620.038,56 l0,110" />
        <path id="right-margin-Black-S" d="M709.962,56 l0,110" />
        <path id="Capline-M" d="M18,276 l800,0" />
        <path id="Baseline-M" d="M18,346 l800,0" />
        <path id="Capline-L" d="M18,476 l800,0" />
        <path id="Baseline-L" d="M18,546 l800,0" />
    </g>
    <g id="Symbols">
        <g id="Ultralight-S">
            <path d="M292.628,82.623 L245.782,82.623 C237.5,82.623 230.038,87.802 230.038,97.975 C230.038,108.15 237.566,113.477 245.782,113.477 L284.504,113.477 C290.251,113.477 295.084,116.952 295.084,124.022 C295.084,131.102 290.224,134.622 284.504,134.622 L235.835,134.622 C234.488,134.622 233.396,135.714 233.396,137.061 C233.396,138.408 234.488,139.5 235.835,139.5 L284.504,139.5 C292.641,139.5 299.962,134.199 299.962,124.022 C299.962,113.846 292.665,108.598 284.504,108.598 L245.782,108.598 C239.971,108.598 234.916,105.022 234.916,97.975 C234.916,90.957 239.894,87.501 245.782,87.501 L292.628,87.501 C293.975,87.501 295.067,86.409 295.067,85.062 C295.067,83.715 293.975,82.623 292.628,82.623 Z" />
            <path d="M237.312,128.834 L230.843,135.446 C229.905,136.405 229.917,137.941 230.87,138.885 L237.339,145.294 C238.296,146.242 239.841,146.234 240.789,145.277 C241.737,144.32 241.729,142.776 240.772,141.828 L234.303,135.419 L234.33,138.858 L240.799,132.245 C241.741,131.282 241.724,129.738 240.762,128.796 C239.799,127.854 238.254,127.871 237.312,128.834 Z" />
            <path d="M286.092,80.145 L292.561,86.758 L292.588,83.319 L286.119,89.727 C285.162,90.676 285.155,92.22 286.103,93.177 C287.051,94.134 288.595,94.141 289.552,93.193 L296.022,86.785 C296.974,85.841 296.987,84.305 296.049,83.346 L289.579,76.733 C288.637,75.77 287.093,75.754 286.13,76.696 C285.167,77.638 285.15,79.182 286.092,80.145 Z" />
        </g>
        <g id="Regular-S">
            <path d="M492.628,82.623 L445.782,82.623 C437.5,82.623 430.038,87.802 430.038,97.975 C430.038,108.15 437.566,113.477 445.782,113.477 L484.504,113.477 C490.251,113.477 495.084,116.952 495.084,124.022 C495.084,131.102 490.224,134.622 484.504,134.622 L435.835,134.622 C434.488,134.622 433.396,135.714 433.396,137.061 C433.396,138.408 434.488,139.5 435.835,139.5 L484.504,139.5 C492.641,139.5 499.962,134.199 499.962,124.022 C499.962,113.846 492.665,108.598 484.504,108.598 L445.782,108.598 C439.971,108.598 434.916,105.022 434.916,97.975 C434.916,90.957 439.894,87.501 445.782,87.501 L492.628,87.501 C493.975,87.501 495.067,86.409 495.067,85.062 C495.067,83.715 493.975,82.623 492.628,82.623 Z" />
            <path d="M437.312,128.834 L430.843,135.446 C429.905,136.405 429.917,137.941 430.87,138.885 L437.339,145.294 C438.296,146.242 439.841,146.234 440.789,145.277 C441.737,144.32 441.729,142.776 440.772,141.828 L434.303,135.419 L434.33,138.858 L440.799,132.245 C441.741,131.282 441.724,129.738 440.762,128.796 C439.799,127.854 438.254,127.871 437.312,128.834 Z" />
            <path d="M486.092,80.145 L492.561,86.758 L492.588,83.319 L486.119,89.727 C485.162,90.676 485.155,92.22 486.103,93.177 C487.051,94.134 488.595,94.141 489.552,93.193 L496.022,86.785 C496.974,85.841 496.987,84.305 496.049,83.346 L489.579,76.733 C488.637,75.77 487.093,75.754 486.13,76.696 C485.167,77.638 485.15,79.182 486.092,80.145 Z" />
        </g>
        <g id="Black-S">
            <path d="M692.628,82.623 L645.782,82.623 C637.5,82.623 630.038,87.802 630.038,97.975 C630.038,108.15 637.566,113.477 645.782,113.477 L684.504,113.477 C690.251,113.477 695.084,116.952 695.084,124.022 C695.084,131.102 690.224,134.622 684.504,134.622 L635.835,134.622 C634.488,134.622 633.396,135.714 633.396,137.061 C633.396,138.408 634.488,139.5 635.835,139.5 L684.504,139.5 C692.641,139.5 699.962,134.199 699.962,124.022 C699.962,113.846 692.665,108.598 684.504,108.598 L645.782,108.598 C639.971,108.598 634.916,105.022 634.916,97.975 C634.916,90.957 639.894,87.501 645.782,87.501 L692.628,87.501 C693.975,87.501 695.067,86.409 695.067,85.062 C695.067,83.715 693.975,82.623 692.628,82.623 Z" />
            <path d="M637.312,128.834 L630.843,135.446 C629.905,136.405 629.917,137.941 630.87,138.885 L637.339,145.294 C638.296,146.242 639.841,146.234 640.789,145.277 C641.737,144.32 641.729,142.776 640.772,141.828 L634.303,135.419 L634.33,138.858 L640.799,132.245 C641.741,131.282 641.724,129.738 640.761,128.796 C639.799,127.854 638.254,127.871 637.312,128.834 Z" />
            <path d="M686.092,80.145 L692.561,86.758 L692.588,83.319 L686.119,89.727 C685.162,90.676 685.155,92.22 686.103,93.177 C687.051,94.134 688.595,94.141 689.552,93.193 L696.022,86.785 C696.974,85.841 696.987,84.305 696.049,83.346 L689.579,76.733 C688.637,75.77 687.093,75.754 686.13,76.696 C685.167,77.638 685.15,79.182 686.092,80.145 Z" />
        </g>
    </g>
</svg>