<?xml version="1.0" encoding="UTF-8"?>
<svg height="600" width="800" xmlns="http://www.w3.org/2000/svg" xmlns:xlink="http://www.w3.org/1999/xlink">
    <g id="Notes" font-family="'LucidaGrande', 'Lucida Grande', sans-serif" font-size="13">
        <rect fill="white" height="600.0" width="800.0" x="0.0" y="0.0" />
        <g font-size="13">
            <text x="18.0" y="176.0">Small</text>
            <text x="18.0" y="376.0">Medium</text>
            <text x="18.0" y="576.0">Large</text>
        </g>
        <g font-size="9">
            <text x="250.0" y="30.0">Ultralight</text>
            <text x="450.0" y="30.0">Regular</text>
            <text x="650.0" y="30.0">Black</text>
            <text id="template-version" fill="#505050" text-anchor="end" x="785.0" y="575.0">Template v.3.0</text>
            <a href="https://github.com/swhitty/SwiftDraw">
                <text fill="#505050" text-anchor="end" x="785.0" y="590.0">https://github.com/swhitty/SwiftDraw</text>
            </a>
        </g>
    </g>
    <g id="Guides" stroke="rgb(39, 170, 225)" stroke-width="0.5">
        <path id="Capline-S" d="M18,76 l800,0" />
        <path id="H-reference" d="M85,145.755 L87.685,145.755 L113.369,79.287 L114.052,79.287 L114.052,76 L112.148,76 L85,145.755 Z M95.693,121.536 L130.996,121.536 L130.263,119.313 L96.474,119.313 L95.693,121.536 Z M139.15,145.755 L141.787,145.755 L114.638,76 L113.466,76 L113.466,79.287 L139.15,145.755 Z" stroke="none" />
        <path id="Baseline-S" d="M18,146 l800,0" />
        <path id="left-margin-Ultralight-S" d="M211,56 l0,110" />
        <path id="right-margin-Ultralight-S" d="M319,56 l0,110" />
        <path id="left-margin-Regular-S" d="M411,56 l0,110" />
        <path id="right-margin-Regular-S" d="M519,56 l0,110" />
        <path id="left-margin-Black-S" d="M611,56 l0,110" />
        <path id="right-margin-Black-S" d="M719,56 l0,110" />
        <path id="Capline-M" d="M18,276 l800,0" />
        <path id="Baseline-M" d="M18,346 l800,0" />
        <path id="Capline-L" d="M18,476 l800,0" />
        <path id="Baseline-L" d="M18,546 l800,0" />
    </g>
    <g id="Symbols">
        <g id="Ultralight-S">
            <path d="M284.441,127.645 L284.441,131.465 C284.441,133.16 283.067,134.535 281.372,134.535 L230.209,134.535 C228.514,134.535 227.139,133.16 227.139,131.465 L227.139,125.598 L225.394,128.368 L307.254,89.211 C308.784,88.48 309.43,86.647 308.699,85.117 C307.967,83.588 306.134,82.941 304.605,83.673 L222.745,122.829 C221.679,123.339 221,124.416 221,125.598 L221,131.465 C221,136.551 225.123,140.674 230.209,140.674 L281.372,140.674 C286.458,140.674 290.581,136.551 290.581,131.465 L290.581,127.645 C290.581,125.949 289.206,124.575 287.511,124.575 C285.816,124.575 284.441,125.949 284.441,127.645 Z" />
            <path d="M290.581,94.355 L290.581,90.535 C290.581,85.449 286.458,81.326 281.372,81.326 L230.209,81.326 C225.123,81.326 221,85.449 221,90.535 L221,96.402 C221,97.584 221.679,98.661 222.745,99.171 L304.605,138.327 C306.134,139.059 307.967,138.412 308.699,136.883 C309.43,135.353 308.784,133.52 307.254,132.789 L225.394,93.632 L227.139,96.402 L227.139,90.535 C227.139,88.84 228.514,87.465 230.209,87.465 L281.372,87.465 C283.067,87.465 284.441,88.84 284.441,90.535 L284.441,94.355 C284.441,96.051 285.816,97.425 287.511,97.425 C289.206,97.425 290.581,96.051 290.581,94.355 Z" />
        </g>
        <g id="Regular-S">
            <path d="M484.441,127.645 L484.441,131.465 C484.441,133.16 483.067,134.535 481.372,134.535 L430.209,134.535 C428.514,134.535 427.139,133.16 427.139,131.465 L427.139,125.598 L425.394,128.368 L507.254,89.211 C508.784,88.48 509.43,86.647 508.699,85.117 C507.967,83.588 506.134,82.941 504.605,83.673 L422.745,122.829 C421.679,123.339 421,124.416 421,125.598 L421,131.465 C421,136.551 425.123,140.674 430.209,140.674 L481.372,140.674 C486.458,140.674 490.581,136.551 490.581,131.465 L490.581,127.645 C490.581,125.949 489.206,124.575 487.511,124.575 C485.816,124.575 484.441,125.949 484.441,127.645 Z" />
            <path d="M490.581,94.355 L490.581,90.535 C490.581,85.449 486.458,81.326 481.372,81.326 L430.209,81.326 C425.123,81.326 421,85.449 421,90.535 L421,96.402 C421,97.584 421.679,98.661 422.745,99.171 L504.605,138.327 C506.134,139.059 507.967,138.412 508.699,136.883 C509.43,135.353 508.784,133.52 507.254,132.789 L425.394,93.632 L427.139,96.402 L427.139,90.535 C427.139,88.84 428.514,87.465 430.209,87.465 L481.372,87.465 C483.067,87.465 484.441,88.84 484.441,90.535 L484.441,94.355 C484.441,96.051 485.816,97.425 487.511,97.425 C489.206,97.425 490.581,96.051 490.581,94.355 Z" />
        </g>
        <g id="Black-S">
            <path d="M684.441,127.645 L684.441,131.465 C684.441,133.16 683.067,134.535 681.372,134.535 L630.209,134.535 C628.514,134.535 627.14,133.16 627.14,131.465 L627.14,125.598 L625.394,128.368 L707.254,89.211 C708.784,88.48 709.43,86.647 708.699,85.117 C707.967,83.588 706.134,82.941 704.605,83.673 L622.745,122.829 C621.679,123.339 621,124.416 621,125.598 L621,131.465 C621,136.551 625.123,140.674 630.209,140.674 L681.372,140.674 C686.458,140.674 690.581,136.551 690.581,131.465 L690.581,127.645 C690.581,125.949 689.206,124.575 687.511,124.575 C685.816,124.575 684.441,125.949 684.441,127.645 Z" />
            <path d="M690.581,94.355 L690.581,90.535 C690.581,85.449 686.458,81.326 681.372,81.326 L630.209,81.326 C625.123,81.326 621,85.449 621,90.535 L621,96.402 C621,97.584 621.679,98.661 622.745,99.171 L704.605,138.327 C706.134,139.059 707.967,138.412 708.699,136.883 C709.43,135.353 708.784,133.52 707.254,132.789 L625.394,93.632 L627.14,96.402 L627.14,90.535 C627.14,88.84 628.514,87.465 630.209,87.465 L681.372,87.465 C683.067,87.465 684.441,88.84 684.441,90.535 L684.441,94.355 C684.441,96.051 685.816,97.425 687.511,97.425 C689.206,97.425 690.581,96.051 690.581,94.355 Z" />
        </g>
    </g>
</svg>