<?xml version="1.0" encoding="UTF-8"?>
<svg height="600" width="800" xmlns="http://www.w3.org/2000/svg" xmlns:xlink="http://www.w3.org/1999/xlink">
    <g id="Notes" font-family="'LucidaGrande', 'Lucida Grande', sans-serif" font-size="13">
        <rect fill="white" height="600.0" width="800.0" x="0.0" y="0.0" />
        <g font-size="13">
            <text x="18.0" y="176.0">Small</text>
            <text x="18.0" y="376.0">Medium</text>
            <text x="18.0" y="576.0">Large</text>
        </g>
        <g font-size="9">
            <text x="250.0" y="30.0">Ultralight</text>
            <text x="450.0" y="30.0">Regular</text>
            <text x="650.0" y="30.0">Black</text>
            <text id="template-version" fill="#505050" text-anchor="end" x="785.0" y="575.0">Template v.3.0</text>
            <a href="https://github.com/swhitty/SwiftDraw">
                <text fill="#505050" text-anchor="end" x="785.0" y="590.0">https://github.com/swhitty/SwiftDraw</text>
            </a>
        </g>
    </g>
    <g id="Guides" stroke="rgb(39, 170, 225)" stroke-width="0.5">
        <path id="Capline-S" d="M18,76 l800,0" />
        <path id="H-reference" d="M85,145.755 L87.685,145.755 L113.369,79.287 L114.052,79.287 L114.052,76 L112.148,76 L85,145.755 Z M95.693,121.536 L130.996,121.536 L130.263,119.313 L96.474,119.313 L95.693,121.536 Z M139.15,145.755 L141.787,145.755 L114.638,76 L113.466,76 L113.466,79.287 L139.15,145.755 Z" stroke="none" />
        <path id="Baseline-S" d="M18,146 l800,0" />
        <path id="left-margin-Ultralight-S" d="M220,56 l0,110" />
        <path id="right-margin-Ultralight-S" d="M310,56 l0,110" />
        <path id="left-margin-Regular-S" d="M420,56 l0,110" />
        <path id="right-margin-Regular-S" d="M510,56 l0,110" />
        <path id="left-margin-Black-S" d="M620,56 l0,110" />
        <path id="right-margin-Black-S" d="M710,56 l0,110" />
        <path id="Capline-M" d="M18,276 l800,0" />
        <path id="Baseline-M" d="M18,346 l800,0" />
        <path id="Capline-L" d="M18,476 l800,0" />
        <path id="Baseline-L" d="M18,546 l800,0" />
    </g>
    <g id="Symbols">
        <g id="Ultralight-S">
            <path d="M297.558,76 L232.442,76 C231.093,76 230,77.093 230,78.442 L230,91.465 C230,92.814 231.093,93.907 232.442,93.907 L242.209,93.907 L239.767,91.465 L239.767,143.558 C239.767,144.907 240.861,146 242.209,146 L287.791,146 C289.139,146 290.233,144.907 290.233,143.558 L290.233,91.465 L287.791,93.907 L297.558,93.907 C298.907,93.907 300,92.814 300,91.465 L300,78.442 C300,77.093 298.907,76 297.558,76 Z M297.558,80.884 L295.116,78.442 L295.116,91.465 L297.558,89.023 L287.791,89.023 C286.442,89.023 285.349,90.117 285.349,91.465 L285.349,143.558 L287.791,141.116 L242.209,141.116 L244.651,143.558 L244.651,91.465 C244.651,90.117 243.558,89.023 242.209,89.023 L232.442,89.023 L234.884,91.465 L234.884,78.442 L232.442,80.884 L297.558,80.884 Z" />
            <path d="M242.209,126.465 L287.791,126.465 C289.139,126.465 290.233,125.372 290.233,124.023 C290.233,122.675 289.139,121.581 287.791,121.581 L242.209,121.581 C240.861,121.581 239.767,122.675 239.767,124.023 C239.767,125.372 240.861,126.465 242.209,126.465 Z" />
            <path d="M242.209,113.442 L287.791,113.442 C289.139,113.442 290.233,112.349 290.233,111 C290.233,109.651 289.139,108.558 287.791,108.558 L242.209,108.558 C240.861,108.558 239.767,109.651 239.767,111 C239.767,112.349 240.861,113.442 242.209,113.442 Z" />
            <path d="M272.326,78.442 C272.326,82.488 269.046,85.767 265,85.767 C260.954,85.767 257.674,82.488 257.674,78.442 C257.674,77.093 256.581,76 255.233,76 C253.884,76 252.791,77.093 252.791,78.442 C252.791,85.185 258.257,90.651 265,90.651 C271.743,90.651 277.209,85.185 277.209,78.442 C277.209,77.093 276.116,76 274.767,76 C273.419,76 272.326,77.093 272.326,78.442 Z" />
        </g>
        <g id="Regular-S">
            <path d="M497.558,76 L432.442,76 C431.093,76 430,77.093 430,78.442 L430,91.465 C430,92.814 431.093,93.907 432.442,93.907 L442.209,93.907 L439.767,91.465 L439.767,143.558 C439.767,144.907 440.861,146 442.209,146 L487.791,146 C489.139,146 490.233,144.907 490.233,143.558 L490.233,91.465 L487.791,93.907 L497.558,93.907 C498.907,93.907 500,92.814 500,91.465 L500,78.442 C500,77.093 498.907,76 497.558,76 Z M497.558,80.884 L495.116,78.442 L495.116,91.465 L497.558,89.023 L487.791,89.023 C486.442,89.023 485.349,90.117 485.349,91.465 L485.349,143.558 L487.791,141.116 L442.209,141.116 L444.651,143.558 L444.651,91.465 C444.651,90.117 443.558,89.023 442.209,89.023 L432.442,89.023 L434.884,91.465 L434.884,78.442 L432.442,80.884 L497.558,80.884 Z" />
            <path d="M442.209,126.465 L487.791,126.465 C489.139,126.465 490.233,125.372 490.233,124.023 C490.233,122.675 489.139,121.581 487.791,121.581 L442.209,121.581 C440.861,121.581 439.767,122.675 439.767,124.023 C439.767,125.372 440.861,126.465 442.209,126.465 Z" />
            <path d="M442.209,113.442 L487.791,113.442 C489.139,113.442 490.233,112.349 490.233,111 C490.233,109.651 489.139,108.558 487.791,108.558 L442.209,108.558 C440.861,108.558 439.767,109.651 439.767,111 C439.767,112.349 440.861,113.442 442.209,113.442 Z" />
            <path d="M472.326,78.442 C472.326,82.488 469.046,85.767 465,85.767 C460.954,85.767 457.674,82.488 457.674,78.442 C457.674,77.093 456.581,76 455.233,76 C453.884,76 452.791,77.093 452.791,78.442 C452.791,85.185 458.257,90.651 465,90.651 C471.743,90.651 477.209,85.185 477.209,78.442 C477.209,77.093 476.116,76 474.767,76 C473.419,76 472.326,77.093 472.326,78.442 Z" />
        </g>
        <g id="Black-S">
            <path d="M697.558,76 L632.442,76 C631.093,76 630,77.093 630,78.442 L630,91.465 C630,92.814 631.093,93.907 632.442,93.907 L642.209,93.907 L639.767,91.465 L639.767,143.558 C639.767,144.907 640.861,146 642.209,146 L687.791,146 C689.139,146 690.233,144.907 690.233,143.558 L690.233,91.465 L687.791,93.907 L697.558,93.907 C698.907,93.907 700,92.814 700,91.465 L700,78.442 C700,77.093 698.907,76 697.558,76 Z M697.558,80.884 L695.116,78.442 L695.116,91.465 L697.558,89.023 L687.791,89.023 C686.442,89.023 685.349,90.117 685.349,91.465 L685.349,143.558 L687.791,141.116 L642.209,141.116 L644.651,143.558 L644.651,91.465 C644.651,90.117 643.558,89.023 642.209,89.023 L632.442,89.023 L634.884,91.465 L634.884,78.442 L632.442,80.884 L697.558,80.884 Z" />
            <path d="M642.209,126.465 L687.791,126.465 C689.139,126.465 690.233,125.372 690.233,124.023 C690.233,122.675 689.139,121.581 687.791,121.581 L642.209,121.581 C640.861,121.581 639.767,122.675 639.767,124.023 C639.767,125.372 640.861,126.465 642.209,126.465 Z" />
            <path d="M642.209,113.442 L687.791,113.442 C689.139,113.442 690.233,112.349 690.233,111 C690.233,109.651 689.139,108.558 687.791,108.558 L642.209,108.558 C640.861,108.558 639.767,109.651 639.767,111 C639.767,112.349 640.861,113.442 642.209,113.442 Z" />
            <path d="M672.326,78.442 C672.326,82.488 669.046,85.767 665,85.767 C660.954,85.767 657.674,82.488 657.674,78.442 C657.674,77.093 656.581,76 655.233,76 C653.884,76 652.791,77.093 652.791,78.442 C652.791,85.185 658.257,90.651 665,90.651 C671.743,90.651 677.209,85.185 677.209,78.442 C677.209,77.093 676.116,76 674.767,76 C673.419,76 672.326,77.093 672.326,78.442 Z" />
        </g>
    </g>
</svg>