<?xml version="1.0" encoding="UTF-8"?>
<svg height="600" width="800" xmlns="http://www.w3.org/2000/svg" xmlns:xlink="http://www.w3.org/1999/xlink">
    <g id="Notes" font-family="'LucidaGrande', 'Lucida Grande', sans-serif" font-size="13">
        <rect fill="white" height="600.0" width="800.0" x="0.0" y="0.0" />
        <g font-size="13">
            <text x="18.0" y="176.0">Small</text>
            <text x="18.0" y="376.0">Medium</text>
            <text x="18.0" y="576.0">Large</text>
        </g>
        <g font-size="9">
            <text x="250.0" y="30.0">Ultralight</text>
            <text x="450.0" y="30.0">Regular</text>
            <text x="650.0" y="30.0">Black</text>
            <text id="template-version" fill="#505050" text-anchor="end" x="785.0" y="575.0">Template v.3.0</text>
            <a href="https://github.com/swhitty/SwiftDraw">
                <text fill="#505050" text-anchor="end" x="785.0" y="590.0">https://github.com/swhitty/SwiftDraw</text>
            </a>
        </g>
    </g>
    <g id="Guides" stroke="rgb(39, 170, 225)" stroke-width="0.5">
        <path id="Capline-S" d="M18,76 l800,0" />
        <path id="H-reference" d="M85,145.755 L87.685,145.755 L113.369,79.287 L114.052,79.287 L114.052,76 L112.148,76 L85,145.755 Z M95.693,121.536 L130.996,121.536 L130.263,119.313 L96.474,119.313 L95.693,121.536 Z M139.15,145.755 L141.787,145.755 L114.638,76 L113.466,76 L113.466,79.287 L139.15,145.755 Z" stroke="none" />
        <path id="Baseline-S" d="M18,146 l800,0" />
        <path id="left-margin-Ultralight-S" d="M220,56 l0,110" />
        <path id="right-margin-Ultralight-S" d="M310,56 l0,110" />
        <path id="left-margin-Regular-S" d="M420,56 l0,110" />
        <path id="right-margin-Regular-S" d="M510,56 l0,110" />
        <path id="left-margin-Black-S" d="M620,56 l0,110" />
        <path id="right-margin-Black-S" d="M710,56 l0,110" />
        <path id="Capline-M" d="M18,276 l800,0" />
        <path id="Baseline-M" d="M18,346 l800,0" />
        <path id="Capline-L" d="M18,476 l800,0" />
        <path id="Baseline-L" d="M18,546 l800,0" />
    </g>
    <g id="Symbols">
        <g id="Ultralight-S">
            <path d="M300,92.827 L300,84.077 C300,79.616 296.384,76 291.923,76 L238.077,76 C233.616,76 230,79.616 230,84.077 L230,137.923 C230,142.384 233.616,146 238.077,146 L291.923,146 C296.384,146 300,142.384 300,137.923 L300,130.183 C300,128.696 298.795,127.49 297.308,127.49 C295.821,127.49 294.615,128.696 294.615,130.183 L294.615,137.923 C294.615,139.41 293.41,140.615 291.923,140.615 L238.077,140.615 C236.59,140.615 235.385,139.41 235.385,137.923 L235.385,84.077 C235.385,82.59 236.59,81.385 238.077,81.385 L291.923,81.385 C293.41,81.385 294.615,82.59 294.615,84.077 L294.615,92.827 C294.615,94.314 295.821,95.519 297.308,95.519 C298.795,95.519 300,94.314 300,92.827 Z" />
            <path d="M297.308,108.308 L265,108.308 C263.513,108.308 262.308,109.513 262.308,111 C262.308,112.487 263.513,113.692 265,113.692 L297.308,113.692 C298.795,113.692 300,112.487 300,111 C300,109.513 298.795,108.308 297.308,108.308 Z" />
            <path d="M277.673,119.865 L266.904,109.096 L266.904,112.904 L277.673,102.135 C278.724,101.083 278.724,99.378 277.673,98.327 C276.622,97.276 274.917,97.276 273.865,98.327 L263.096,109.096 C262.045,110.148 262.045,111.852 263.096,112.904 L273.865,123.673 C274.917,124.724 276.622,124.724 277.673,123.673 C278.724,122.622 278.724,120.917 277.673,119.865 Z" />
        </g>
        <g id="Regular-S">
            <path d="M500,92.827 L500,84.077 C500,79.616 496.384,76 491.923,76 L438.077,76 C433.616,76 430,79.616 430,84.077 L430,137.923 C430,142.384 433.616,146 438.077,146 L491.923,146 C496.384,146 500,142.384 500,137.923 L500,130.183 C500,128.696 498.795,127.49 497.308,127.49 C495.821,127.49 494.615,128.696 494.615,130.183 L494.615,137.923 C494.615,139.41 493.41,140.615 491.923,140.615 L438.077,140.615 C436.59,140.615 435.385,139.41 435.385,137.923 L435.385,84.077 C435.385,82.59 436.59,81.385 438.077,81.385 L491.923,81.385 C493.41,81.385 494.615,82.59 494.615,84.077 L494.615,92.827 C494.615,94.314 495.821,95.519 497.308,95.519 C498.795,95.519 500,94.314 500,92.827 Z" />
            <path d="M497.308,108.308 L465,108.308 C463.513,108.308 462.308,109.513 462.308,111 C462.308,112.487 463.513,113.692 465,113.692 L497.308,113.692 C498.795,113.692 500,112.487 500,111 C500,109.513 498.795,108.308 497.308,108.308 Z" />
            <path d="M477.673,119.865 L466.904,109.096 L466.904,112.904 L477.673,102.135 C478.724,101.083 478.724,99.378 477.673,98.327 C476.622,97.276 474.917,97.276 473.865,98.327 L463.096,109.096 C462.045,110.148 462.045,111.852 463.096,112.904 L473.865,123.673 C474.917,124.724 476.622,124.724 477.673,123.673 C478.724,122.622 478.724,120.917 477.673,119.865 Z" />
        </g>
        <g id="Black-S">
            <path d="M700,92.827 L700,84.077 C700,79.616 696.384,76 691.923,76 L638.077,76 C633.616,76 630,79.616 630,84.077 L630,137.923 C630,142.384 633.616,146 638.077,146 L691.923,146 C696.384,146 700,142.384 700,137.923 L700,130.183 C700,128.696 698.795,127.49 697.308,127.49 C695.821,127.49 694.615,128.696 694.615,130.183 L694.615,137.923 C694.615,139.41 693.41,140.615 691.923,140.615 L638.077,140.615 C636.59,140.615 635.385,139.41 635.385,137.923 L635.385,84.077 C635.385,82.59 636.59,81.385 638.077,81.385 L691.923,81.385 C693.41,81.385 694.615,82.59 694.615,84.077 L694.615,92.827 C694.615,94.314 695.821,95.519 697.308,95.519 C698.795,95.519 700,94.314 700,92.827 Z" />
            <path d="M697.308,108.308 L665,108.308 C663.513,108.308 662.308,109.513 662.308,111 C662.308,112.487 663.513,113.692 665,113.692 L697.308,113.692 C698.795,113.692 700,112.487 700,111 C700,109.513 698.795,108.308 697.308,108.308 Z" />
            <path d="M677.673,119.865 L666.904,109.096 L666.904,112.904 L677.673,102.135 C678.724,101.083 678.724,99.378 677.673,98.327 C676.622,97.276 674.917,97.276 673.865,98.327 L663.096,109.096 C662.045,110.148 662.045,111.852 663.096,112.904 L673.865,123.673 C674.917,124.724 676.622,124.724 677.673,123.673 C678.724,122.622 678.724,120.917 677.673,119.865 Z" />
        </g>
    </g>
</svg>