<?xml version="1.0" encoding="UTF-8"?>
<svg height="600" width="800" xmlns="http://www.w3.org/2000/svg" xmlns:xlink="http://www.w3.org/1999/xlink">
    <g id="Notes" font-family="'LucidaGrande', 'Lucida Grande', sans-serif" font-size="13">
        <rect fill="white" height="600.0" width="800.0" x="0.0" y="0.0" />
        <g font-size="13">
            <text x="18.0" y="176.0">Small</text>
            <text x="18.0" y="376.0">Medium</text>
            <text x="18.0" y="576.0">Large</text>
        </g>
        <g font-size="9">
            <text x="250.0" y="30.0">Ultralight</text>
            <text x="450.0" y="30.0">Regular</text>
            <text x="650.0" y="30.0">Black</text>
            <text id="template-version" fill="#505050" text-anchor="end" x="785.0" y="575.0">Template v.3.0</text>
            <a href="https://github.com/swhitty/SwiftDraw">
                <text fill="#505050" text-anchor="end" x="785.0" y="590.0">https://github.com/swhitty/SwiftDraw</text>
            </a>
        </g>
    </g>
    <g id="Guides" stroke="rgb(39, 170, 225)" stroke-width="0.5">
        <path id="Capline-S" d="M18,76 l800,0" />
        <path id="H-reference" d="M85,145.755 L87.685,145.755 L113.369,79.287 L114.052,79.287 L114.052,76 L112.148,76 L85,145.755 Z M95.693,121.536 L130.996,121.536 L130.263,119.313 L96.474,119.313 L95.693,121.536 Z M139.15,145.755 L141.787,145.755 L114.638,76 L113.466,76 L113.466,79.287 L139.15,145.755 Z" stroke="none" />
        <path id="Baseline-S" d="M18,146 l800,0" />
        <path id="left-margin-Ultralight-S" d="M220,56 l0,110" />
        <path id="right-margin-Ultralight-S" d="M310,56 l0,110" />
        <path id="left-margin-Regular-S" d="M420,56 l0,110" />
        <path id="right-margin-Regular-S" d="M510,56 l0,110" />
        <path id="left-margin-Black-S" d="M620,56 l0,110" />
        <path id="right-margin-Black-S" d="M710,56 l0,110" />
        <path id="Capline-M" d="M18,276 l800,0" />
        <path id="Baseline-M" d="M18,346 l800,0" />
        <path id="Capline-L" d="M18,476 l800,0" />
        <path id="Baseline-L" d="M18,546 l800,0" />
    </g>
    <g id="Symbols">
        <g id="Ultralight-S">
            <path d="M279.512,99.049 C279.512,94.806 282.952,91.366 287.195,91.366 C291.438,91.366 294.878,94.806 294.878,99.049 C294.878,103.292 291.438,106.732 287.195,106.732 C282.952,106.732 279.512,103.292 279.512,99.049 Z M274.39,99.049 C274.39,106.121 280.123,111.854 287.195,111.854 C294.267,111.854 300,106.121 300,99.049 C300,91.977 294.267,86.244 287.195,86.244 C280.123,86.244 274.39,91.977 274.39,99.049 Z" />
            <path d="M236.317,93.756 C236.37,93.686 236.499,93.522 236.703,93.279 C237.06,92.854 237.488,92.376 237.985,91.857 C239.418,90.362 241.106,88.861 243.031,87.461 C248.491,83.49 254.707,81.122 261.585,81.122 C268.599,81.122 274.908,82.925 280.42,85.931 C282.346,86.981 284.03,88.104 285.457,89.221 C286.292,89.875 286.842,90.366 287.092,90.616 C288.092,91.616 289.713,91.616 290.713,90.616 C291.713,89.616 291.713,87.994 290.713,86.994 C289.271,85.551 286.627,83.483 282.873,81.435 C276.647,78.039 269.511,76 261.585,76 C253.524,76 246.295,78.754 240.018,83.319 C237.834,84.907 235.921,86.608 234.287,88.313 C233.291,89.352 232.599,90.177 232.22,90.683 C231.371,91.814 231.6,93.42 232.732,94.268 C233.863,95.117 235.468,94.888 236.317,93.756 Z" />
            <path d="M250.488,122.951 C250.488,127.194 247.048,130.634 242.805,130.634 C238.562,130.634 235.122,127.194 235.122,122.951 C235.122,118.708 238.562,115.268 242.805,115.268 C247.048,115.268 250.488,118.708 250.488,122.951 Z M255.61,122.951 C255.61,115.879 249.877,110.146 242.805,110.146 C235.733,110.146 230,115.879 230,122.951 C230,130.023 235.733,135.756 242.805,135.756 C249.877,135.756 255.61,130.023 255.61,122.951 Z" />
            <path d="M293.683,128.244 C293.63,128.314 293.501,128.478 293.297,128.721 C292.94,129.146 292.512,129.624 292.015,130.143 C290.582,131.638 288.894,133.139 286.969,134.539 C281.509,138.51 275.293,140.878 268.415,140.878 C261.401,140.878 255.092,139.075 249.58,136.069 C247.654,135.019 245.97,133.896 244.543,132.779 C243.708,132.125 243.158,131.634 242.908,131.384 C241.908,130.384 240.287,130.384 239.287,131.384 C238.287,132.384 238.287,134.006 239.287,135.006 C240.729,136.449 243.373,138.517 247.127,140.565 C253.353,143.961 260.489,146 268.415,146 C276.476,146 283.705,143.246 289.982,138.681 C292.166,137.093 294.079,135.392 295.713,133.687 C296.708,132.648 297.401,131.823 297.78,131.317 C298.629,130.186 298.4,128.58 297.268,127.732 C296.137,126.883 294.532,127.112 293.683,128.244 Z" />
        </g>
        <g id="Regular-S">
            <path d="M479.512,99.049 C479.512,94.806 482.952,91.366 487.195,91.366 C491.438,91.366 494.878,94.806 494.878,99.049 C494.878,103.292 491.438,106.732 487.195,106.732 C482.952,106.732 479.512,103.292 479.512,99.049 Z M474.39,99.049 C474.39,106.121 480.123,111.854 487.195,111.854 C494.267,111.854 500,106.121 500,99.049 C500,91.977 494.267,86.244 487.195,86.244 C480.123,86.244 474.39,91.977 474.39,99.049 Z" />
            <path d="M436.317,93.756 C436.37,93.686 436.499,93.522 436.703,93.279 C437.06,92.854 437.488,92.376 437.985,91.857 C439.418,90.362 441.106,88.861 443.031,87.461 C448.491,83.49 454.707,81.122 461.585,81.122 C468.599,81.122 474.908,82.925 480.42,85.931 C482.346,86.981 484.03,88.104 485.457,89.221 C486.292,89.875 486.842,90.366 487.092,90.616 C488.092,91.616 489.713,91.616 490.713,90.616 C491.713,89.616 491.713,87.994 490.713,86.994 C489.271,85.551 486.627,83.483 482.873,81.435 C476.647,78.039 469.511,76 461.585,76 C453.524,76 446.295,78.754 440.018,83.319 C437.834,84.907 435.921,86.608 434.287,88.313 C433.291,89.352 432.599,90.177 432.22,90.683 C431.371,91.814 431.6,93.42 432.732,94.268 C433.863,95.117 435.468,94.888 436.317,93.756 Z" />
            <path d="M450.488,122.951 C450.488,127.194 447.048,130.634 442.805,130.634 C438.562,130.634 435.122,127.194 435.122,122.951 C435.122,118.708 438.562,115.268 442.805,115.268 C447.048,115.268 450.488,118.708 450.488,122.951 Z M455.61,122.951 C455.61,115.879 449.877,110.146 442.805,110.146 C435.733,110.146 430,115.879 430,122.951 C430,130.023 435.733,135.756 442.805,135.756 C449.877,135.756 455.61,130.023 455.61,122.951 Z" />
            <path d="M493.683,128.244 C493.63,128.314 493.501,128.478 493.297,128.721 C492.94,129.146 492.512,129.624 492.015,130.143 C490.582,131.638 488.894,133.139 486.969,134.539 C481.509,138.51 475.293,140.878 468.415,140.878 C461.401,140.878 455.092,139.075 449.58,136.069 C447.654,135.019 445.97,133.896 444.543,132.779 C443.708,132.125 443.158,131.634 442.908,131.384 C441.908,130.384 440.287,130.384 439.287,131.384 C438.287,132.384 438.287,134.006 439.287,135.006 C440.729,136.449 443.373,138.517 447.127,140.565 C453.353,143.961 460.489,146 468.415,146 C476.476,146 483.705,143.246 489.982,138.681 C492.166,137.093 494.079,135.392 495.713,133.687 C496.708,132.648 497.401,131.823 497.78,131.317 C498.629,130.186 498.4,128.58 497.268,127.732 C496.137,126.883 494.532,127.112 493.683,128.244 Z" />
        </g>
        <g id="Black-S">
            <path d="M679.512,99.049 C679.512,94.806 682.952,91.366 687.195,91.366 C691.438,91.366 694.878,94.806 694.878,99.049 C694.878,103.292 691.438,106.732 687.195,106.732 C682.952,106.732 679.512,103.292 679.512,99.049 Z M674.39,99.049 C674.39,106.121 680.123,111.854 687.195,111.854 C694.267,111.854 700,106.121 700,99.049 C700,91.977 694.267,86.244 687.195,86.244 C680.123,86.244 674.39,91.977 674.39,99.049 Z" />
            <path d="M636.317,93.756 C636.37,93.686 636.499,93.522 636.703,93.279 C637.06,92.854 637.488,92.376 637.985,91.857 C639.418,90.362 641.106,88.861 643.031,87.461 C648.491,83.49 654.708,81.122 661.585,81.122 C668.599,81.122 674.908,82.925 680.42,85.931 C682.346,86.981 684.03,88.104 685.457,89.221 C686.292,89.875 686.842,90.366 687.092,90.616 C688.092,91.616 689.713,91.616 690.713,90.616 C691.714,89.616 691.714,87.994 690.713,86.994 C689.271,85.551 686.627,83.483 682.873,81.435 C676.647,78.039 669.511,76 661.585,76 C653.524,76 646.295,78.754 640.018,83.319 C637.834,84.907 635.921,86.608 634.287,88.313 C633.292,89.352 632.599,90.177 632.22,90.683 C631.371,91.814 631.6,93.42 632.732,94.268 C633.863,95.117 635.468,94.888 636.317,93.756 Z" />
            <path d="M650.488,122.951 C650.488,127.194 647.048,130.634 642.805,130.634 C638.562,130.634 635.122,127.194 635.122,122.951 C635.122,118.708 638.562,115.268 642.805,115.268 C647.048,115.268 650.488,118.708 650.488,122.951 Z M655.61,122.951 C655.61,115.879 649.877,110.146 642.805,110.146 C635.733,110.146 630,115.879 630,122.951 C630,130.023 635.733,135.756 642.805,135.756 C649.877,135.756 655.61,130.023 655.61,122.951 Z" />
            <path d="M693.683,128.244 C693.63,128.314 693.501,128.478 693.297,128.721 C692.94,129.146 692.512,129.624 692.015,130.143 C690.582,131.638 688.894,133.139 686.969,134.539 C681.509,138.51 675.293,140.878 668.415,140.878 C661.401,140.878 655.092,139.075 649.58,136.069 C647.654,135.019 645.97,133.896 644.543,132.779 C643.708,132.125 643.158,131.634 642.908,131.384 C641.908,130.384 640.287,130.384 639.287,131.384 C638.287,132.384 638.287,134.006 639.287,135.006 C640.729,136.449 643.373,138.517 647.127,140.565 C653.353,143.961 660.489,146 668.415,146 C676.476,146 683.705,143.246 689.982,138.681 C692.166,137.093 694.079,135.392 695.713,133.687 C696.709,132.648 697.401,131.823 697.781,131.317 C698.629,130.186 698.4,128.58 697.268,127.732 C696.137,126.883 694.532,127.112 693.683,128.244 Z" />
        </g>
    </g>
</svg>