<?xml version="1.0" encoding="UTF-8"?>
<svg height="600" width="800" xmlns="http://www.w3.org/2000/svg" xmlns:xlink="http://www.w3.org/1999/xlink">
    <g id="Notes" font-family="'LucidaGrande', 'Lucida Grande', sans-serif" font-size="13">
        <rect fill="white" height="600.0" width="800.0" x="0.0" y="0.0" />
        <g font-size="13">
            <text x="18.0" y="176.0">Small</text>
            <text x="18.0" y="376.0">Medium</text>
            <text x="18.0" y="576.0">Large</text>
        </g>
        <g font-size="9">
            <text x="250.0" y="30.0">Ultralight</text>
            <text x="450.0" y="30.0">Regular</text>
            <text x="650.0" y="30.0">Black</text>
            <text id="template-version" fill="#505050" text-anchor="end" x="785.0" y="575.0">Template v.3.0</text>
            <a href="https://github.com/swhitty/SwiftDraw">
                <text fill="#505050" text-anchor="end" x="785.0" y="590.0">https://github.com/swhitty/SwiftDraw</text>
            </a>
        </g>
    </g>
    <g id="Guides" stroke="rgb(39, 170, 225)" stroke-width="0.5">
        <path id="Capline-S" d="M18,76 l800,0" />
        <path id="H-reference" d="M85,145.755 L87.685,145.755 L113.369,79.287 L114.052,79.287 L114.052,76 L112.148,76 L85,145.755 Z M95.693,121.536 L130.996,121.536 L130.263,119.313 L96.474,119.313 L95.693,121.536 Z M139.15,145.755 L141.787,145.755 L114.638,76 L113.466,76 L113.466,79.287 L139.15,145.755 Z" stroke="none" />
        <path id="Baseline-S" d="M18,146 l800,0" />
        <path id="left-margin-Ultralight-S" d="M220.032,56 l0,110" />
        <path id="right-margin-Ultralight-S" d="M309.968,56 l0,110" />
        <path id="left-margin-Regular-S" d="M420.032,56 l0,110" />
        <path id="right-margin-Regular-S" d="M509.968,56 l0,110" />
        <path id="left-margin-Black-S" d="M620.032,56 l0,110" />
        <path id="right-margin-Black-S" d="M709.968,56 l0,110" />
        <path id="Capline-M" d="M18,276 l800,0" />
        <path id="Baseline-M" d="M18,346 l800,0" />
        <path id="Capline-L" d="M18,476 l800,0" />
        <path id="Baseline-L" d="M18,546 l800,0" />
    </g>
    <g id="Symbols">
        <g id="Ultralight-S">
            <path d="M239.032,78.322 L230.058,142.937 C229.853,144.41 230.881,145.77 232.354,145.974 C233.827,146.179 235.187,145.151 235.391,143.678 L244.366,79.063 C244.57,77.59 243.542,76.23 242.069,76.026 C240.596,75.821 239.237,76.849 239.032,78.322 Z" />
            <path d="M285.698,79.061 L294.608,143.595 C294.812,145.068 296.171,146.097 297.644,145.894 C299.117,145.691 300.146,144.332 299.942,142.859 L291.032,78.324 C290.829,76.851 289.47,75.822 287.997,76.026 C286.524,76.229 285.495,77.588 285.698,79.061 Z" />
            <path d="M262.34,78.693 L262.34,89.462 C262.34,90.949 263.545,92.154 265.032,92.154 C266.519,92.154 267.724,90.949 267.724,89.462 L267.724,78.693 C267.724,77.206 266.519,76 265.032,76 C263.545,76 262.34,77.206 262.34,78.693 Z" />
            <path d="M262.34,130.743 L262.34,143.307 C262.34,144.794 263.545,146 265.032,146 C266.519,146 267.724,144.794 267.724,143.307 L267.724,130.743 C267.724,129.257 266.519,128.051 265.032,128.051 C263.545,128.051 262.34,129.257 262.34,130.743 Z" />
            <path d="M262.34,103.821 L262.34,116.385 C262.34,117.871 263.545,119.077 265.032,119.077 C266.519,119.077 267.724,117.871 267.724,116.385 L267.724,103.821 C267.724,102.334 266.519,101.128 265.032,101.128 C263.545,101.128 262.34,102.334 262.34,103.821 Z" />
        </g>
        <g id="Regular-S">
            <path d="M439.032,78.322 L430.058,142.937 C429.853,144.41 430.881,145.77 432.354,145.974 C433.827,146.179 435.187,145.151 435.391,143.678 L444.366,79.063 C444.57,77.59 443.542,76.23 442.069,76.026 C440.596,75.821 439.237,76.849 439.032,78.322 Z" />
            <path d="M485.698,79.061 L494.608,143.595 C494.812,145.068 496.171,146.097 497.644,145.894 C499.117,145.691 500.146,144.332 499.942,142.859 L491.032,78.324 C490.829,76.851 489.47,75.822 487.997,76.026 C486.524,76.229 485.495,77.588 485.698,79.061 Z" />
            <path d="M462.34,78.693 L462.34,89.462 C462.34,90.949 463.545,92.154 465.032,92.154 C466.519,92.154 467.724,90.949 467.724,89.462 L467.724,78.693 C467.724,77.206 466.519,76 465.032,76 C463.545,76 462.34,77.206 462.34,78.693 Z" />
            <path d="M462.34,130.743 L462.34,143.307 C462.34,144.794 463.545,146 465.032,146 C466.519,146 467.724,144.794 467.724,143.307 L467.724,130.743 C467.724,129.257 466.519,128.051 465.032,128.051 C463.545,128.051 462.34,129.257 462.34,130.743 Z" />
            <path d="M462.34,103.821 L462.34,116.385 C462.34,117.871 463.545,119.077 465.032,119.077 C466.519,119.077 467.724,117.871 467.724,116.385 L467.724,103.821 C467.724,102.334 466.519,101.128 465.032,101.128 C463.545,101.128 462.34,102.334 462.34,103.821 Z" />
        </g>
        <g id="Black-S">
            <path d="M639.032,78.322 L630.058,142.937 C629.853,144.41 630.881,145.77 632.354,145.974 C633.827,146.179 635.187,145.151 635.391,143.678 L644.366,79.063 C644.57,77.59 643.542,76.23 642.069,76.026 C640.596,75.821 639.237,76.849 639.032,78.322 Z" />
            <path d="M685.698,79.061 L694.608,143.595 C694.812,145.068 696.171,146.097 697.644,145.894 C699.117,145.691 700.146,144.332 699.942,142.859 L691.032,78.324 C690.829,76.851 689.47,75.822 687.997,76.026 C686.524,76.229 685.495,77.588 685.698,79.061 Z" />
            <path d="M662.34,78.693 L662.34,89.462 C662.34,90.949 663.545,92.154 665.032,92.154 C666.519,92.154 667.724,90.949 667.724,89.462 L667.724,78.693 C667.724,77.206 666.519,76 665.032,76 C663.545,76 662.34,77.206 662.34,78.693 Z" />
            <path d="M662.34,130.743 L662.34,143.307 C662.34,144.794 663.545,146 665.032,146 C666.519,146 667.724,144.794 667.724,143.307 L667.724,130.743 C667.724,129.257 666.519,128.051 665.032,128.051 C663.545,128.051 662.34,129.257 662.34,130.743 Z" />
            <path d="M662.34,103.821 L662.34,116.385 C662.34,117.871 663.545,119.077 665.032,119.077 C666.519,119.077 667.724,117.871 667.724,116.385 L667.724,103.821 C667.724,102.334 666.519,101.128 665.032,101.128 C663.545,101.128 662.34,102.334 662.34,103.821 Z" />
        </g>
    </g>
</svg>