<?xml version="1.0" encoding="UTF-8"?>
<svg height="600" width="800" xmlns="http://www.w3.org/2000/svg" xmlns:xlink="http://www.w3.org/1999/xlink">
    <g id="Notes" font-family="'LucidaGrande', 'Lucida Grande', sans-serif" font-size="13">
        <rect fill="white" height="600.0" width="800.0" x="0.0" y="0.0" />
        <g font-size="13">
            <text x="18.0" y="176.0">Small</text>
            <text x="18.0" y="376.0">Medium</text>
            <text x="18.0" y="576.0">Large</text>
        </g>
        <g font-size="9">
            <text x="250.0" y="30.0">Ultralight</text>
            <text x="450.0" y="30.0">Regular</text>
            <text x="650.0" y="30.0">Black</text>
            <text id="template-version" fill="#505050" text-anchor="end" x="785.0" y="575.0">Template v.3.0</text>
            <a href="https://github.com/swhitty/SwiftDraw">
                <text fill="#505050" text-anchor="end" x="785.0" y="590.0">https://github.com/swhitty/SwiftDraw</text>
            </a>
        </g>
    </g>
    <g id="Guides" stroke="rgb(39, 170, 225)" stroke-width="0.5">
        <path id="Capline-S" d="M18,76 l800,0" />
        <path id="H-reference" d="M85,145.755 L87.685,145.755 L113.369,79.287 L114.052,79.287 L114.052,76 L112.148,76 L85,145.755 Z M95.693,121.536 L130.996,121.536 L130.263,119.313 L96.474,119.313 L95.693,121.536 Z M139.15,145.755 L141.787,145.755 L114.638,76 L113.466,76 L113.466,79.287 L139.15,145.755 Z" stroke="none" />
        <path id="Baseline-S" d="M18,146 l800,0" />
        <path id="left-margin-Ultralight-S" d="M220,56 l0,110" />
        <path id="right-margin-Ultralight-S" d="M310,56 l0,110" />
        <path id="left-margin-Regular-S" d="M420,56 l0,110" />
        <path id="right-margin-Regular-S" d="M510,56 l0,110" />
        <path id="left-margin-Black-S" d="M620,56 l0,110" />
        <path id="right-margin-Black-S" d="M710,56 l0,110" />
        <path id="Capline-M" d="M18,276 l800,0" />
        <path id="Baseline-M" d="M18,346 l800,0" />
        <path id="Capline-L" d="M18,476 l800,0" />
        <path id="Baseline-L" d="M18,546 l800,0" />
    </g>
    <g id="Symbols">
        <g id="Ultralight-S">
            <path d="M291.923,76 L238.077,76 C233.616,76 230,79.616 230,84.077 L230,137.923 C230,142.384 233.616,146 238.077,146 L291.923,146 C296.384,146 300,142.384 300,137.923 L300,84.077 C300,79.616 296.384,76 291.923,76 Z M291.923,81.385 C293.41,81.385 294.615,82.59 294.615,84.077 L294.615,137.923 C294.615,139.41 293.41,140.615 291.923,140.615 L238.077,140.615 C236.59,140.615 235.385,139.41 235.385,137.923 L235.385,84.077 C235.385,82.59 236.59,81.385 238.077,81.385 L291.923,81.385 Z" />
            <path d="M244.359,94.846 L244.359,127.154 C244.359,128.641 245.564,129.846 247.051,129.846 C248.538,129.846 249.744,128.641 249.744,127.154 L249.744,94.846 C249.744,93.359 248.538,92.154 247.051,92.154 C245.564,92.154 244.359,93.359 244.359,94.846 Z" />
            <path d="M250.641,115.487 C259.544,115.487 265.897,112.137 265.897,103.821 C265.897,95.504 259.544,92.154 250.641,92.154 L247.051,92.154 C245.564,92.154 244.359,93.359 244.359,94.846 L244.359,112.795 C244.359,114.282 245.564,115.487 247.051,115.487 L250.641,115.487 Z M250.641,110.103 L247.051,110.103 L249.744,112.795 L249.744,94.846 L247.051,97.538 L250.641,97.538 C256.963,97.538 260.513,99.41 260.513,103.821 C260.513,108.231 256.963,110.103 250.641,110.103 Z" />
            <path d="M282.949,102.967 C282.84,102.967 283.146,102.976 282.19,102.946 C280.298,102.888 278.869,102.927 277.296,103.177 C272.659,103.916 269.487,106.38 269.487,111.022 C269.487,115.159 271.525,116.793 276.532,118.871 C279.602,120.145 280.256,120.67 280.256,121.747 C280.256,122.901 279.283,123.668 277.017,124.138 C275.588,124.435 274.019,124.505 272.674,124.442 C272.531,124.436 272.437,124.43 272.402,124.427 C270.92,124.304 269.619,125.405 269.496,126.887 C269.373,128.369 270.475,129.67 271.957,129.793 C272.055,129.801 272.213,129.811 272.423,129.821 C274.181,129.903 276.166,129.814 278.111,129.411 C282.576,128.484 285.641,126.068 285.641,121.747 C285.641,117.611 283.603,115.976 278.596,113.898 C275.526,112.624 274.872,112.099 274.872,111.022 C274.872,109.595 275.81,108.867 278.143,108.495 C279.298,108.311 280.445,108.279 282.023,108.328 C282.275,108.337 282.275,108.337 282.507,108.344 C282.69,108.349 282.825,108.352 282.949,108.352 C284.436,108.352 285.641,107.146 285.641,105.66 C285.641,104.173 284.436,102.967 282.949,102.967 Z" />
        </g>
        <g id="Regular-S">
            <path d="M491.923,76 L438.077,76 C433.616,76 430,79.616 430,84.077 L430,137.923 C430,142.384 433.616,146 438.077,146 L491.923,146 C496.384,146 500,142.384 500,137.923 L500,84.077 C500,79.616 496.384,76 491.923,76 Z M491.923,81.385 C493.41,81.385 494.615,82.59 494.615,84.077 L494.615,137.923 C494.615,139.41 493.41,140.615 491.923,140.615 L438.077,140.615 C436.59,140.615 435.385,139.41 435.385,137.923 L435.385,84.077 C435.385,82.59 436.59,81.385 438.077,81.385 L491.923,81.385 Z" />
            <path d="M444.359,94.846 L444.359,127.154 C444.359,128.641 445.564,129.846 447.051,129.846 C448.538,129.846 449.744,128.641 449.744,127.154 L449.744,94.846 C449.744,93.359 448.538,92.154 447.051,92.154 C445.564,92.154 444.359,93.359 444.359,94.846 Z" />
            <path d="M450.641,115.487 C459.544,115.487 465.897,112.137 465.897,103.821 C465.897,95.504 459.544,92.154 450.641,92.154 L447.051,92.154 C445.564,92.154 444.359,93.359 444.359,94.846 L444.359,112.795 C444.359,114.282 445.564,115.487 447.051,115.487 L450.641,115.487 Z M450.641,110.103 L447.051,110.103 L449.744,112.795 L449.744,94.846 L447.051,97.538 L450.641,97.538 C456.963,97.538 460.513,99.41 460.513,103.821 C460.513,108.231 456.963,110.103 450.641,110.103 Z" />
            <path d="M482.949,102.967 C482.84,102.967 483.146,102.976 482.19,102.946 C480.298,102.888 478.869,102.927 477.296,103.177 C472.659,103.916 469.487,106.38 469.487,111.022 C469.487,115.159 471.525,116.793 476.532,118.871 C479.602,120.145 480.256,120.67 480.256,121.747 C480.256,122.901 479.283,123.668 477.017,124.138 C475.588,124.435 474.019,124.505 472.674,124.442 C472.531,124.436 472.437,124.43 472.402,124.427 C470.92,124.304 469.619,125.405 469.496,126.887 C469.373,128.369 470.475,129.67 471.957,129.793 C472.055,129.801 472.213,129.811 472.423,129.821 C474.18,129.903 476.166,129.814 478.111,129.411 C482.576,128.484 485.641,126.068 485.641,121.747 C485.641,117.611 483.603,115.976 478.596,113.898 C475.526,112.624 474.872,112.099 474.872,111.022 C474.872,109.595 475.81,108.867 478.143,108.495 C479.298,108.311 480.445,108.279 482.023,108.328 C482.275,108.337 482.275,108.337 482.507,108.344 C482.69,108.349 482.825,108.352 482.949,108.352 C484.436,108.352 485.641,107.146 485.641,105.66 C485.641,104.173 484.436,102.967 482.949,102.967 Z" />
        </g>
        <g id="Black-S">
            <path d="M691.923,76 L638.077,76 C633.616,76 630,79.616 630,84.077 L630,137.923 C630,142.384 633.616,146 638.077,146 L691.923,146 C696.384,146 700,142.384 700,137.923 L700,84.077 C700,79.616 696.384,76 691.923,76 Z M691.923,81.385 C693.41,81.385 694.615,82.59 694.615,84.077 L694.615,137.923 C694.615,139.41 693.41,140.615 691.923,140.615 L638.077,140.615 C636.59,140.615 635.385,139.41 635.385,137.923 L635.385,84.077 C635.385,82.59 636.59,81.385 638.077,81.385 L691.923,81.385 Z" />
            <path d="M644.359,94.846 L644.359,127.154 C644.359,128.641 645.564,129.846 647.051,129.846 C648.538,129.846 649.744,128.641 649.744,127.154 L649.744,94.846 C649.744,93.359 648.538,92.154 647.051,92.154 C645.564,92.154 644.359,93.359 644.359,94.846 Z" />
            <path d="M650.641,115.487 C659.544,115.487 665.897,112.137 665.897,103.821 C665.897,95.504 659.544,92.154 650.641,92.154 L647.051,92.154 C645.564,92.154 644.359,93.359 644.359,94.846 L644.359,112.795 C644.359,114.282 645.564,115.487 647.051,115.487 L650.641,115.487 Z M650.641,110.103 L647.051,110.103 L649.744,112.795 L649.744,94.846 L647.051,97.538 L650.641,97.538 C656.963,97.538 660.513,99.41 660.513,103.821 C660.513,108.231 656.963,110.103 650.641,110.103 Z" />
            <path d="M682.949,102.967 C682.84,102.967 683.146,102.976 682.19,102.946 C680.298,102.888 678.869,102.927 677.296,103.177 C672.659,103.916 669.487,106.38 669.487,111.022 C669.487,115.159 671.525,116.793 676.532,118.871 C679.602,120.145 680.256,120.67 680.256,121.747 C680.256,122.901 679.283,123.668 677.017,124.138 C675.588,124.435 674.019,124.505 672.674,124.442 C672.531,124.436 672.437,124.43 672.402,124.427 C670.92,124.304 669.619,125.405 669.496,126.887 C669.373,128.369 670.475,129.67 671.957,129.793 C672.055,129.801 672.213,129.811 672.423,129.821 C674.181,129.903 676.166,129.814 678.111,129.411 C682.576,128.484 685.641,126.068 685.641,121.747 C685.641,117.611 683.603,115.976 678.596,113.898 C675.526,112.624 674.872,112.099 674.872,111.022 C674.872,109.595 675.81,108.867 678.143,108.495 C679.298,108.311 680.445,108.279 682.023,108.328 C682.275,108.337 682.275,108.337 682.507,108.344 C682.69,108.349 682.825,108.352 682.949,108.352 C684.436,108.352 685.641,107.146 685.641,105.66 C685.641,104.173 684.436,102.967 682.949,102.967 Z" />
        </g>
    </g>
</svg>