<?xml version="1.0" encoding="UTF-8"?>
<svg height="600" width="800" xmlns="http://www.w3.org/2000/svg" xmlns:xlink="http://www.w3.org/1999/xlink">
    <g id="Notes" font-family="'LucidaGrande', 'Lucida Grande', sans-serif" font-size="13">
        <rect fill="white" height="600.0" width="800.0" x="0.0" y="0.0" />
        <g font-size="13">
            <text x="18.0" y="176.0">Small</text>
            <text x="18.0" y="376.0">Medium</text>
            <text x="18.0" y="576.0">Large</text>
        </g>
        <g font-size="9">
            <text x="250.0" y="30.0">Ultralight</text>
            <text x="450.0" y="30.0">Regular</text>
            <text x="650.0" y="30.0">Black</text>
            <text id="template-version" fill="#505050" text-anchor="end" x="785.0" y="575.0">Template v.3.0</text>
            <a href="https://github.com/swhitty/SwiftDraw">
                <text fill="#505050" text-anchor="end" x="785.0" y="590.0">https://github.com/swhitty/SwiftDraw</text>
            </a>
        </g>
    </g>
    <g id="Guides" stroke="rgb(39, 170, 225)" stroke-width="0.5">
        <path id="Capline-S" d="M18,76 l800,0" />
        <path id="H-reference" d="M85,145.755 L87.685,145.755 L113.369,79.287 L114.052,79.287 L114.052,76 L112.148,76 L85,145.755 Z M95.693,121.536 L130.996,121.536 L130.263,119.313 L96.474,119.313 L95.693,121.536 Z M139.15,145.755 L141.787,145.755 L114.638,76 L113.466,76 L113.466,79.287 L139.15,145.755 Z" stroke="none" />
        <path id="Baseline-S" d="M18,146 l800,0" />
        <path id="left-margin-Ultralight-S" d="M220,56 l0,110" />
        <path id="right-margin-Ultralight-S" d="M310,56 l0,110" />
        <path id="left-margin-Regular-S" d="M420,56 l0,110" />
        <path id="right-margin-Regular-S" d="M510,56 l0,110" />
        <path id="left-margin-Black-S" d="M620,56 l0,110" />
        <path id="right-margin-Black-S" d="M710,56 l0,110" />
        <path id="Capline-M" d="M18,276 l800,0" />
        <path id="Baseline-M" d="M18,346 l800,0" />
        <path id="Capline-L" d="M18,476 l800,0" />
        <path id="Baseline-L" d="M18,546 l800,0" />
    </g>
    <g id="Symbols">
        <g id="Ultralight-S">
            <path d="M250.641,76 L236.282,76 C232.813,76 230,78.813 230,82.282 L230,96.641 C230,98.128 231.205,99.333 232.692,99.333 C234.179,99.333 235.385,98.128 235.385,96.641 L235.385,82.282 C235.385,81.786 235.786,81.385 236.282,81.385 L250.641,81.385 C252.128,81.385 253.333,80.179 253.333,78.692 C253.333,77.205 252.128,76 250.641,76 Z" />
            <path d="M250.641,140.615 L236.282,140.615 C235.786,140.615 235.385,140.214 235.385,139.718 L235.385,125.359 C235.385,123.872 234.179,122.667 232.692,122.667 C231.205,122.667 230,123.872 230,125.359 L230,139.718 C230,143.187 232.813,146 236.282,146 L250.641,146 C252.128,146 253.333,144.795 253.333,143.308 C253.333,141.821 252.128,140.615 250.641,140.615 Z" />
            <path d="M279.359,146 L293.718,146 C297.188,146 300,143.187 300,139.718 L300,125.359 C300,123.872 298.795,122.667 297.308,122.667 C295.821,122.667 294.615,123.872 294.615,125.359 L294.615,139.718 C294.615,140.214 294.214,140.615 293.718,140.615 L279.359,140.615 C277.872,140.615 276.667,141.821 276.667,143.308 C276.667,144.795 277.872,146 279.359,146 Z" />
            <path d="M279.359,81.385 L293.718,81.385 C294.214,81.385 294.615,81.786 294.615,82.282 L294.615,96.641 C294.615,98.128 295.821,99.333 297.308,99.333 C298.795,99.333 300,98.128 300,96.641 L300,82.282 C300,78.813 297.187,76 293.718,76 L279.359,76 C277.872,76 276.667,77.205 276.667,78.692 C276.667,80.179 277.872,81.385 279.359,81.385 Z" />
            <path d="M280.256,111 C280.256,115.046 278.649,118.927 275.788,121.788 C272.927,124.649 269.046,126.256 265,126.256 C260.954,126.256 257.073,124.649 254.212,121.788 C251.351,118.927 249.744,115.046 249.744,111 C249.744,106.954 251.351,103.073 254.212,100.212 C257.073,97.351 260.954,95.744 265,95.744 C269.046,95.744 272.927,97.351 275.788,100.212 C278.649,103.073 280.256,106.954 280.256,111 Z M285.641,111 C285.641,105.526 283.466,100.276 279.595,96.405 C275.724,92.534 270.474,90.359 265,90.359 C259.526,90.359 254.276,92.534 250.405,96.405 C246.534,100.276 244.359,105.526 244.359,111 C244.359,116.474 246.534,121.724 250.405,125.595 C254.276,129.466 259.526,131.641 265,131.641 C270.474,131.641 275.724,129.466 279.595,125.595 C283.466,121.724 285.641,116.474 285.641,111 Z" />
            <path d="M270.385,111 C270.385,108.026 267.974,105.615 265,105.615 C262.026,105.615 259.615,108.026 259.615,111 C259.615,113.974 262.026,116.385 265,116.385 C267.974,116.385 270.385,113.974 270.385,111 Z" />
        </g>
        <g id="Regular-S">
            <path d="M450.641,76 L436.282,76 C432.813,76 430,78.813 430,82.282 L430,96.641 C430,98.128 431.205,99.333 432.692,99.333 C434.179,99.333 435.385,98.128 435.385,96.641 L435.385,82.282 C435.385,81.786 435.786,81.385 436.282,81.385 L450.641,81.385 C452.128,81.385 453.333,80.179 453.333,78.692 C453.333,77.205 452.128,76 450.641,76 Z" />
            <path d="M450.641,140.615 L436.282,140.615 C435.786,140.615 435.385,140.214 435.385,139.718 L435.385,125.359 C435.385,123.872 434.179,122.667 432.692,122.667 C431.205,122.667 430,123.872 430,125.359 L430,139.718 C430,143.187 432.813,146 436.282,146 L450.641,146 C452.128,146 453.333,144.795 453.333,143.308 C453.333,141.821 452.128,140.615 450.641,140.615 Z" />
            <path d="M479.359,146 L493.718,146 C497.187,146 500,143.187 500,139.718 L500,125.359 C500,123.872 498.795,122.667 497.308,122.667 C495.821,122.667 494.615,123.872 494.615,125.359 L494.615,139.718 C494.615,140.214 494.214,140.615 493.718,140.615 L479.359,140.615 C477.872,140.615 476.667,141.821 476.667,143.308 C476.667,144.795 477.872,146 479.359,146 Z" />
            <path d="M479.359,81.385 L493.718,81.385 C494.214,81.385 494.615,81.786 494.615,82.282 L494.615,96.641 C494.615,98.128 495.821,99.333 497.308,99.333 C498.795,99.333 500,98.128 500,96.641 L500,82.282 C500,78.813 497.187,76 493.718,76 L479.359,76 C477.872,76 476.667,77.205 476.667,78.692 C476.667,80.179 477.872,81.385 479.359,81.385 Z" />
            <path d="M480.256,111 C480.256,115.046 478.649,118.927 475.788,121.788 C472.927,124.649 469.046,126.256 465,126.256 C460.954,126.256 457.073,124.649 454.212,121.788 C451.351,118.927 449.744,115.046 449.744,111 C449.744,106.954 451.351,103.073 454.212,100.212 C457.073,97.351 460.954,95.744 465,95.744 C469.046,95.744 472.927,97.351 475.788,100.212 C478.649,103.073 480.256,106.954 480.256,111 Z M485.641,111 C485.641,105.526 483.466,100.276 479.595,96.405 C475.724,92.534 470.474,90.359 465,90.359 C459.526,90.359 454.276,92.534 450.405,96.405 C446.534,100.276 444.359,105.526 444.359,111 C444.359,116.474 446.534,121.724 450.405,125.595 C454.276,129.466 459.526,131.641 465,131.641 C470.474,131.641 475.724,129.466 479.595,125.595 C483.466,121.724 485.641,116.474 485.641,111 Z" />
            <path d="M470.385,111 C470.385,108.026 467.974,105.615 465,105.615 C462.026,105.615 459.615,108.026 459.615,111 C459.615,113.974 462.026,116.385 465,116.385 C467.974,116.385 470.385,113.974 470.385,111 Z" />
        </g>
        <g id="Black-S">
            <path d="M650.641,76 L636.282,76 C632.813,76 630,78.813 630,82.282 L630,96.641 C630,98.128 631.205,99.333 632.692,99.333 C634.179,99.333 635.385,98.128 635.385,96.641 L635.385,82.282 C635.385,81.786 635.786,81.385 636.282,81.385 L650.641,81.385 C652.128,81.385 653.333,80.179 653.333,78.692 C653.333,77.205 652.128,76 650.641,76 Z" />
            <path d="M650.641,140.615 L636.282,140.615 C635.786,140.615 635.385,140.214 635.385,139.718 L635.385,125.359 C635.385,123.872 634.179,122.667 632.692,122.667 C631.205,122.667 630,123.872 630,125.359 L630,139.718 C630,143.187 632.813,146 636.282,146 L650.641,146 C652.128,146 653.333,144.795 653.333,143.308 C653.333,141.821 652.128,140.615 650.641,140.615 Z" />
            <path d="M679.359,146 L693.718,146 C697.188,146 700,143.187 700,139.718 L700,125.359 C700,123.872 698.795,122.667 697.308,122.667 C695.821,122.667 694.615,123.872 694.615,125.359 L694.615,139.718 C694.615,140.214 694.214,140.615 693.718,140.615 L679.359,140.615 C677.872,140.615 676.667,141.821 676.667,143.308 C676.667,144.795 677.872,146 679.359,146 Z" />
            <path d="M679.359,81.385 L693.718,81.385 C694.214,81.385 694.615,81.786 694.615,82.282 L694.615,96.641 C694.615,98.128 695.821,99.333 697.308,99.333 C698.795,99.333 700,98.128 700,96.641 L700,82.282 C700,78.813 697.188,76 693.718,76 L679.359,76 C677.872,76 676.667,77.205 676.667,78.692 C676.667,80.179 677.872,81.385 679.359,81.385 Z" />
            <path d="M680.256,111 C680.256,115.046 678.649,118.927 675.788,121.788 C672.927,124.649 669.046,126.256 665,126.256 C660.954,126.256 657.073,124.649 654.212,121.788 C651.351,118.927 649.744,115.046 649.744,111 C649.744,106.954 651.351,103.073 654.212,100.212 C657.073,97.351 660.954,95.744 665,95.744 C669.046,95.744 672.927,97.351 675.788,100.212 C678.649,103.073 680.256,106.954 680.256,111 Z M685.641,111 C685.641,105.526 683.466,100.276 679.595,96.405 C675.724,92.534 670.474,90.359 665,90.359 C659.526,90.359 654.276,92.534 650.405,96.405 C646.534,100.276 644.359,105.526 644.359,111 C644.359,116.474 646.534,121.724 650.405,125.595 C654.276,129.466 659.526,131.641 665,131.641 C670.474,131.641 675.724,129.466 679.595,125.595 C683.466,121.724 685.641,116.474 685.641,111 Z" />
            <path d="M670.385,111 C670.385,108.026 667.974,105.615 665,105.615 C662.026,105.615 659.615,108.026 659.615,111 C659.615,113.974 662.026,116.385 665,116.385 C667.974,116.385 670.385,113.974 670.385,111 Z" />
        </g>
    </g>
</svg>