<?xml version="1.0" encoding="UTF-8"?>
<svg height="600" width="800" xmlns="http://www.w3.org/2000/svg" xmlns:xlink="http://www.w3.org/1999/xlink">
    <g id="Notes" font-family="'LucidaGrande', 'Lucida Grande', sans-serif" font-size="13">
        <rect fill="white" height="600.0" width="800.0" x="0.0" y="0.0" />
        <g font-size="13">
            <text x="18.0" y="176.0">Small</text>
            <text x="18.0" y="376.0">Medium</text>
            <text x="18.0" y="576.0">Large</text>
        </g>
        <g font-size="9">
            <text x="250.0" y="30.0">Ultralight</text>
            <text x="450.0" y="30.0">Regular</text>
            <text x="650.0" y="30.0">Black</text>
            <text id="template-version" fill="#505050" text-anchor="end" x="785.0" y="575.0">Template v.3.0</text>
            <a href="https://github.com/swhitty/SwiftDraw">
                <text fill="#505050" text-anchor="end" x="785.0" y="590.0">https://github.com/swhitty/SwiftDraw</text>
            </a>
        </g>
    </g>
    <g id="Guides" stroke="rgb(39, 170, 225)" stroke-width="0.5">
        <path id="Capline-S" d="M18,76 l800,0" />
        <path id="H-reference" d="M85,145.755 L87.685,145.755 L113.369,79.287 L114.052,79.287 L114.052,76 L112.148,76 L85,145.755 Z M95.693,121.536 L130.996,121.536 L130.263,119.313 L96.474,119.313 L95.693,121.536 Z M139.15,145.755 L141.787,145.755 L114.638,76 L113.466,76 L113.466,79.287 L139.15,145.755 Z" stroke="none" />
        <path id="Baseline-S" d="M18,146 l800,0" />
        <path id="left-margin-Ultralight-S" d="M220.195,56 l0,110" />
        <path id="right-margin-Ultralight-S" d="M309.805,56 l0,110" />
        <path id="left-margin-Regular-S" d="M420.195,56 l0,110" />
        <path id="right-margin-Regular-S" d="M509.805,56 l0,110" />
        <path id="left-margin-Black-S" d="M620.195,56 l0,110" />
        <path id="right-margin-Black-S" d="M709.805,56 l0,110" />
        <path id="Capline-M" d="M18,276 l800,0" />
        <path id="Baseline-M" d="M18,346 l800,0" />
        <path id="Capline-L" d="M18,476 l800,0" />
        <path id="Baseline-L" d="M18,546 l800,0" />
    </g>
    <g id="Symbols">
        <g id="Ultralight-S">
            <path d="M295.462,106.496 L247.371,106.496 C245.694,106.496 244.465,108.071 244.871,109.697 L249.165,126.873 C249.452,128.02 250.482,128.824 251.664,128.824 L288.592,128.824 C289.646,128.824 290.593,128.183 290.984,127.205 L297.854,110.029 C298.531,108.337 297.285,106.496 295.462,106.496 Z M295.462,111.649 L293.07,108.116 L286.2,125.291 L288.592,123.672 L251.664,123.672 L254.164,125.623 L249.87,108.448 L247.371,111.649 L295.462,111.649 Z" />
            <path d="M249.725,108.026 L242.855,92.568 C242.441,91.638 241.518,91.038 240.5,91.038 L232.771,91.038 C231.348,91.038 230.195,92.191 230.195,93.614 C230.195,95.037 231.348,96.191 232.771,96.191 L240.5,96.191 L238.146,94.661 L245.016,110.119 C245.594,111.419 247.117,112.005 248.417,111.427 C249.717,110.849 250.303,109.326 249.725,108.026 Z" />
            <path d="M258.535,138.271 C258.535,136.848 259.688,135.695 261.111,135.695 C262.534,135.695 263.687,136.848 263.687,138.271 C263.687,139.694 262.534,140.847 261.111,140.847 C259.688,140.847 258.535,139.694 258.535,138.271 Z M253.382,138.271 C253.382,142.54 256.842,146 261.111,146 C265.38,146 268.84,142.54 268.84,138.271 C268.84,134.002 265.38,130.542 261.111,130.542 C256.842,130.542 253.382,134.002 253.382,138.271 Z" />
            <path d="M277.428,138.271 C277.428,136.848 278.581,135.695 280.004,135.695 C281.427,135.695 282.581,136.848 282.581,138.271 C282.581,139.694 281.427,140.847 280.004,140.847 C278.581,140.847 277.428,139.694 277.428,138.271 Z M272.275,138.271 C272.275,142.54 275.736,146 280.004,146 C284.273,146 287.733,142.54 287.733,138.271 C287.733,134.002 284.273,130.542 280.004,130.542 C275.736,130.542 272.275,134.002 272.275,138.271 Z" />
            <path d="M263.805,82.36 L272.392,109.841 C272.729,110.917 273.725,111.649 274.852,111.649 L295.462,111.649 C296.486,111.649 297.412,111.043 297.823,110.105 C298.091,109.492 298.462,108.455 298.825,107.075 C300.24,101.695 300.267,95.946 297.943,90.477 C296.822,87.839 295.183,85.398 292.99,83.205 C287.837,78.052 282.261,75.822 276.485,76.011 C272.45,76.143 269.199,77.244 265.112,79.287 C263.981,79.853 263.428,81.154 263.805,82.36 Z M268.723,80.823 L267.416,83.896 C275.667,79.771 282.059,79.561 289.347,86.849 C291.07,88.572 292.337,90.459 293.201,92.493 C295.014,96.757 294.992,101.393 293.842,105.765 C293.671,106.415 293.489,106.997 293.309,107.499 C293.207,107.784 293.134,107.968 293.102,108.04 L295.462,106.496 L274.852,106.496 L277.311,108.304 L268.723,80.823 Z" />
        </g>
        <g id="Regular-S">
            <path d="M495.462,106.496 L447.371,106.496 C445.694,106.496 444.465,108.071 444.871,109.697 L449.165,126.873 C449.452,128.02 450.482,128.824 451.664,128.824 L488.592,128.824 C489.646,128.824 490.593,128.183 490.984,127.205 L497.854,110.029 C498.531,108.337 497.285,106.496 495.462,106.496 Z M495.462,111.649 L493.07,108.116 L486.2,125.291 L488.592,123.672 L451.664,123.672 L454.164,125.623 L449.87,108.448 L447.371,111.649 L495.462,111.649 Z" />
            <path d="M449.725,108.026 L442.855,92.568 C442.441,91.638 441.518,91.038 440.5,91.038 L432.771,91.038 C431.348,91.038 430.195,92.191 430.195,93.614 C430.195,95.037 431.348,96.191 432.771,96.191 L440.5,96.191 L438.146,94.661 L445.016,110.119 C445.594,111.419 447.117,112.005 448.417,111.427 C449.717,110.849 450.303,109.326 449.725,108.026 Z" />
            <path d="M458.535,138.271 C458.535,136.848 459.688,135.695 461.111,135.695 C462.534,135.695 463.687,136.848 463.687,138.271 C463.687,139.694 462.534,140.847 461.111,140.847 C459.688,140.847 458.535,139.694 458.535,138.271 Z M453.382,138.271 C453.382,142.54 456.842,146 461.111,146 C465.38,146 468.84,142.54 468.84,138.271 C468.84,134.002 465.38,130.542 461.111,130.542 C456.842,130.542 453.382,134.002 453.382,138.271 Z" />
            <path d="M477.428,138.271 C477.428,136.848 478.581,135.695 480.004,135.695 C481.427,135.695 482.581,136.848 482.581,138.271 C482.581,139.694 481.427,140.847 480.004,140.847 C478.581,140.847 477.428,139.694 477.428,138.271 Z M472.275,138.271 C472.275,142.54 475.736,146 480.004,146 C484.273,146 487.733,142.54 487.733,138.271 C487.733,134.002 484.273,130.542 480.004,130.542 C475.736,130.542 472.275,134.002 472.275,138.271 Z" />
            <path d="M463.805,82.36 L472.392,109.841 C472.729,110.917 473.725,111.649 474.852,111.649 L495.462,111.649 C496.486,111.649 497.412,111.043 497.823,110.105 C498.091,109.492 498.462,108.455 498.825,107.075 C500.24,101.695 500.267,95.946 497.943,90.477 C496.822,87.839 495.183,85.398 492.99,83.205 C487.837,78.052 482.261,75.822 476.485,76.011 C472.45,76.143 469.199,77.244 465.112,79.287 C463.981,79.853 463.428,81.154 463.805,82.36 Z M468.723,80.823 L467.416,83.896 C475.667,79.771 482.059,79.561 489.347,86.849 C491.07,88.572 492.337,90.459 493.201,92.493 C495.014,96.757 494.992,101.393 493.842,105.765 C493.671,106.415 493.489,106.997 493.309,107.499 C493.207,107.784 493.134,107.968 493.102,108.04 L495.462,106.496 L474.852,106.496 L477.311,108.304 L468.723,80.823 Z" />
        </g>
        <g id="Black-S">
            <path d="M695.462,106.496 L647.371,106.496 C645.694,106.496 644.465,108.071 644.871,109.697 L649.165,126.873 C649.452,128.02 650.482,128.824 651.664,128.824 L688.592,128.824 C689.646,128.824 690.593,128.183 690.984,127.205 L697.854,110.029 C698.531,108.337 697.285,106.496 695.462,106.496 Z M695.462,111.649 L693.07,108.116 L686.2,125.291 L688.592,123.672 L651.664,123.672 L654.164,125.623 L649.87,108.448 L647.371,111.649 L695.462,111.649 Z" />
            <path d="M649.725,108.026 L642.855,92.568 C642.441,91.638 641.518,91.038 640.5,91.038 L632.771,91.038 C631.348,91.038 630.195,92.191 630.195,93.614 C630.195,95.037 631.348,96.191 632.771,96.191 L640.5,96.191 L638.146,94.661 L645.016,110.119 C645.594,111.419 647.117,112.005 648.417,111.427 C649.717,110.849 650.303,109.326 649.725,108.026 Z" />
            <path d="M658.535,138.271 C658.535,136.848 659.688,135.695 661.111,135.695 C662.534,135.695 663.687,136.848 663.687,138.271 C663.687,139.694 662.534,140.847 661.111,140.847 C659.688,140.847 658.535,139.694 658.535,138.271 Z M653.382,138.271 C653.382,142.54 656.842,146 661.111,146 C665.38,146 668.84,142.54 668.84,138.271 C668.84,134.002 665.38,130.542 661.111,130.542 C656.842,130.542 653.382,134.002 653.382,138.271 Z" />
            <path d="M677.428,138.271 C677.428,136.848 678.581,135.695 680.004,135.695 C681.427,135.695 682.581,136.848 682.581,138.271 C682.581,139.694 681.427,140.847 680.004,140.847 C678.581,140.847 677.428,139.694 677.428,138.271 Z M672.275,138.271 C672.275,142.54 675.736,146 680.004,146 C684.273,146 687.733,142.54 687.733,138.271 C687.733,134.002 684.273,130.542 680.004,130.542 C675.736,130.542 672.275,134.002 672.275,138.271 Z" />
            <path d="M663.805,82.36 L672.393,109.841 C672.729,110.917 673.725,111.649 674.852,111.649 L695.462,111.649 C696.486,111.649 697.412,111.043 697.823,110.105 C698.091,109.492 698.462,108.455 698.825,107.075 C700.24,101.695 700.267,95.946 697.943,90.477 C696.822,87.839 695.183,85.398 692.99,83.205 C687.837,78.052 682.261,75.822 676.485,76.011 C672.45,76.143 669.199,77.244 665.112,79.287 C663.981,79.853 663.428,81.154 663.805,82.36 Z M668.723,80.823 L667.416,83.896 C675.667,79.771 682.059,79.561 689.347,86.849 C691.07,88.572 692.337,90.459 693.201,92.493 C695.014,96.757 694.992,101.393 693.842,105.765 C693.671,106.415 693.489,106.997 693.309,107.499 C693.207,107.784 693.134,107.968 693.102,108.04 L695.462,106.496 L674.852,106.496 L677.311,108.304 L668.723,80.823 Z" />
        </g>
    </g>
</svg>