<?xml version="1.0" encoding="UTF-8"?>
<svg height="600" width="800" xmlns="http://www.w3.org/2000/svg" xmlns:xlink="http://www.w3.org/1999/xlink">
    <g id="Notes" font-family="'LucidaGrande', 'Lucida Grande', sans-serif" font-size="13">
        <rect fill="white" height="600.0" width="800.0" x="0.0" y="0.0" />
        <g font-size="13">
            <text x="18.0" y="176.0">Small</text>
            <text x="18.0" y="376.0">Medium</text>
            <text x="18.0" y="576.0">Large</text>
        </g>
        <g font-size="9">
            <text x="250.0" y="30.0">Ultralight</text>
            <text x="450.0" y="30.0">Regular</text>
            <text x="650.0" y="30.0">Black</text>
            <text id="template-version" fill="#505050" text-anchor="end" x="785.0" y="575.0">Template v.3.0</text>
            <a href="https://github.com/swhitty/SwiftDraw">
                <text fill="#505050" text-anchor="end" x="785.0" y="590.0">https://github.com/swhitty/SwiftDraw</text>
            </a>
        </g>
    </g>
    <g id="Guides" stroke="rgb(39, 170, 225)" stroke-width="0.5">
        <path id="Capline-S" d="M18,76 l800,0" />
        <path id="H-reference" d="M85,145.755 L87.685,145.755 L113.369,79.287 L114.052,79.287 L114.052,76 L112.148,76 L85,145.755 Z M95.693,121.536 L130.996,121.536 L130.263,119.313 L96.474,119.313 L95.693,121.536 Z M139.15,145.755 L141.787,145.755 L114.638,76 L113.466,76 L113.466,79.287 L139.15,145.755 Z" stroke="none" />
        <path id="Baseline-S" d="M18,146 l800,0" />
        <path id="left-margin-Ultralight-S" d="M221,56 l0,110" />
        <path id="right-margin-Ultralight-S" d="M309,56 l0,110" />
        <path id="left-margin-Regular-S" d="M421,56 l0,110" />
        <path id="right-margin-Regular-S" d="M509,56 l0,110" />
        <path id="left-margin-Black-S" d="M621,56 l0,110" />
        <path id="right-margin-Black-S" d="M709,56 l0,110" />
        <path id="Capline-M" d="M18,276 l800,0" />
        <path id="Baseline-M" d="M18,346 l800,0" />
        <path id="Capline-L" d="M18,476 l800,0" />
        <path id="Baseline-L" d="M18,546 l800,0" />
    </g>
    <g id="Symbols">
        <g id="Ultralight-S">
            <path d="M288.605,111 L288.605,140.302 C288.605,140.518 288.519,140.725 288.366,140.878 C288.214,141.031 288.007,141.116 287.791,141.116 L242.209,141.116 C241.993,141.116 241.786,141.031 241.634,140.878 C241.481,140.725 241.395,140.518 241.395,140.302 L241.395,81.698 C241.395,81.482 241.481,81.275 241.634,81.122 C241.786,80.969 241.993,80.884 242.209,80.884 L287.791,80.884 C288.007,80.884 288.214,80.969 288.366,81.122 C288.519,81.275 288.605,81.482 288.605,81.698 L288.605,111 Z M293.488,111 L293.488,81.698 C293.488,80.187 292.888,78.737 291.82,77.669 C290.751,76.6 289.302,76 287.791,76 L242.209,76 C240.698,76 239.249,76.6 238.18,77.669 C237.112,78.737 236.512,80.187 236.512,81.698 L236.512,140.302 C236.512,141.813 237.112,143.263 238.18,144.331 C239.249,145.4 240.698,146 242.209,146 L287.791,146 C289.302,146 290.751,145.4 291.82,144.331 C292.888,143.263 293.488,141.813 293.488,140.302 L293.488,111 Z" />
            <path d="M260.116,97.163 L279.651,97.163 C281,97.163 282.093,96.07 282.093,94.721 C282.093,93.372 281,92.279 279.651,92.279 L260.116,92.279 C258.768,92.279 257.674,93.372 257.674,94.721 C257.674,96.07 258.768,97.163 260.116,97.163 Z" />
            <path d="M260.116,113.442 L279.651,113.442 C281,113.442 282.093,112.349 282.093,111 C282.093,109.651 281,108.558 279.651,108.558 L260.116,108.558 C258.768,108.558 257.674,109.651 257.674,111 C257.674,112.349 258.768,113.442 260.116,113.442 Z" />
            <path d="M260.116,129.721 L279.651,129.721 C281,129.721 282.093,128.628 282.093,127.279 C282.093,125.93 281,124.837 279.651,124.837 L260.116,124.837 C258.768,124.837 257.674,125.93 257.674,127.279 C257.674,128.628 258.768,129.721 260.116,129.721 Z" />
            <path d="M250.349,97.977 C252.147,97.977 253.605,96.519 253.605,94.721 C253.605,92.923 252.147,91.465 250.349,91.465 C248.551,91.465 247.093,92.923 247.093,94.721 C247.093,96.519 248.551,97.977 250.349,97.977 Z" />
            <path d="M250.349,114.256 C252.147,114.256 253.605,112.798 253.605,111 C253.605,109.202 252.147,107.744 250.349,107.744 C248.551,107.744 247.093,109.202 247.093,111 C247.093,112.798 248.551,114.256 250.349,114.256 Z" />
            <path d="M250.349,130.535 C252.147,130.535 253.605,129.077 253.605,127.279 C253.605,125.481 252.147,124.023 250.349,124.023 C248.551,124.023 247.093,125.481 247.093,127.279 C247.093,129.077 248.551,130.535 250.349,130.535 Z" />
        </g>
        <g id="Regular-S">
            <path d="M488.605,111 L488.605,140.302 C488.605,140.518 488.519,140.725 488.366,140.878 C488.214,141.031 488.007,141.116 487.791,141.116 L442.209,141.116 C441.993,141.116 441.786,141.031 441.634,140.878 C441.481,140.725 441.395,140.518 441.395,140.302 L441.395,81.698 C441.395,81.482 441.481,81.275 441.634,81.122 C441.786,80.969 441.993,80.884 442.209,80.884 L487.791,80.884 C488.007,80.884 488.214,80.969 488.366,81.122 C488.519,81.275 488.605,81.482 488.605,81.698 L488.605,111 Z M493.488,111 L493.488,81.698 C493.488,80.187 492.888,78.737 491.82,77.669 C490.751,76.6 489.302,76 487.791,76 L442.209,76 C440.698,76 439.249,76.6 438.18,77.669 C437.112,78.737 436.512,80.187 436.512,81.698 L436.512,140.302 C436.512,141.813 437.112,143.263 438.18,144.331 C439.249,145.4 440.698,146 442.209,146 L487.791,146 C489.302,146 490.751,145.4 491.82,144.331 C492.888,143.263 493.488,141.813 493.488,140.302 L493.488,111 Z" />
            <path d="M460.116,97.163 L479.651,97.163 C481,97.163 482.093,96.07 482.093,94.721 C482.093,93.372 481,92.279 479.651,92.279 L460.116,92.279 C458.768,92.279 457.674,93.372 457.674,94.721 C457.674,96.07 458.768,97.163 460.116,97.163 Z" />
            <path d="M460.116,113.442 L479.651,113.442 C481,113.442 482.093,112.349 482.093,111 C482.093,109.651 481,108.558 479.651,108.558 L460.116,108.558 C458.768,108.558 457.674,109.651 457.674,111 C457.674,112.349 458.768,113.442 460.116,113.442 Z" />
            <path d="M460.116,129.721 L479.651,129.721 C481,129.721 482.093,128.628 482.093,127.279 C482.093,125.93 481,124.837 479.651,124.837 L460.116,124.837 C458.768,124.837 457.674,125.93 457.674,127.279 C457.674,128.628 458.768,129.721 460.116,129.721 Z" />
            <path d="M450.349,97.977 C452.147,97.977 453.605,96.519 453.605,94.721 C453.605,92.923 452.147,91.465 450.349,91.465 C448.551,91.465 447.093,92.923 447.093,94.721 C447.093,96.519 448.551,97.977 450.349,97.977 Z" />
            <path d="M450.349,114.256 C452.147,114.256 453.605,112.798 453.605,111 C453.605,109.202 452.147,107.744 450.349,107.744 C448.551,107.744 447.093,109.202 447.093,111 C447.093,112.798 448.551,114.256 450.349,114.256 Z" />
            <path d="M450.349,130.535 C452.147,130.535 453.605,129.077 453.605,127.279 C453.605,125.481 452.147,124.023 450.349,124.023 C448.551,124.023 447.093,125.481 447.093,127.279 C447.093,129.077 448.551,130.535 450.349,130.535 Z" />
        </g>
        <g id="Black-S">
            <path d="M688.605,111 L688.605,140.302 C688.605,140.518 688.519,140.725 688.366,140.878 C688.214,141.031 688.007,141.116 687.791,141.116 L642.209,141.116 C641.993,141.116 641.786,141.031 641.634,140.878 C641.481,140.725 641.395,140.518 641.395,140.302 L641.395,81.698 C641.395,81.482 641.481,81.275 641.634,81.122 C641.786,80.969 641.993,80.884 642.209,80.884 L687.791,80.884 C688.007,80.884 688.214,80.969 688.366,81.122 C688.519,81.275 688.605,81.482 688.605,81.698 L688.605,111 Z M693.488,111 L693.488,81.698 C693.488,80.187 692.888,78.737 691.82,77.669 C690.751,76.6 689.302,76 687.791,76 L642.209,76 C640.698,76 639.249,76.6 638.18,77.669 C637.112,78.737 636.512,80.187 636.512,81.698 L636.512,140.302 C636.512,141.813 637.112,143.263 638.18,144.331 C639.249,145.4 640.698,146 642.209,146 L687.791,146 C689.302,146 690.751,145.4 691.82,144.331 C692.888,143.263 693.488,141.813 693.488,140.302 L693.488,111 Z" />
            <path d="M660.116,97.163 L679.651,97.163 C681,97.163 682.093,96.07 682.093,94.721 C682.093,93.372 681,92.279 679.651,92.279 L660.116,92.279 C658.768,92.279 657.674,93.372 657.674,94.721 C657.674,96.07 658.768,97.163 660.116,97.163 Z" />
            <path d="M660.116,113.442 L679.651,113.442 C681,113.442 682.093,112.349 682.093,111 C682.093,109.651 681,108.558 679.651,108.558 L660.116,108.558 C658.768,108.558 657.674,109.651 657.674,111 C657.674,112.349 658.768,113.442 660.116,113.442 Z" />
            <path d="M660.116,129.721 L679.651,129.721 C681,129.721 682.093,128.628 682.093,127.279 C682.093,125.93 681,124.837 679.651,124.837 L660.116,124.837 C658.768,124.837 657.674,125.93 657.674,127.279 C657.674,128.628 658.768,129.721 660.116,129.721 Z" />
            <path d="M650.349,97.977 C652.147,97.977 653.605,96.519 653.605,94.721 C653.605,92.923 652.147,91.465 650.349,91.465 C648.551,91.465 647.093,92.923 647.093,94.721 C647.093,96.519 648.551,97.977 650.349,97.977 Z" />
            <path d="M650.349,114.256 C652.147,114.256 653.605,112.798 653.605,111 C653.605,109.202 652.147,107.744 650.349,107.744 C648.551,107.744 647.093,109.202 647.093,111 C647.093,112.798 648.551,114.256 650.349,114.256 Z" />
            <path d="M650.349,130.535 C652.147,130.535 653.605,129.077 653.605,127.279 C653.605,125.481 652.147,124.023 650.349,124.023 C648.551,124.023 647.093,125.481 647.093,127.279 C647.093,129.077 648.551,130.535 650.349,130.535 Z" />
        </g>
    </g>
</svg>