<?xml version="1.0" encoding="UTF-8"?>
<svg height="600" width="800" xmlns="http://www.w3.org/2000/svg" xmlns:xlink="http://www.w3.org/1999/xlink">
    <g id="Notes" font-family="'LucidaGrande', 'Lucida Grande', sans-serif" font-size="13">
        <rect fill="white" height="600.0" width="800.0" x="0.0" y="0.0" />
        <g font-size="13">
            <text x="18.0" y="176.0">Small</text>
            <text x="18.0" y="376.0">Medium</text>
            <text x="18.0" y="576.0">Large</text>
        </g>
        <g font-size="9">
            <text x="250.0" y="30.0">Ultralight</text>
            <text x="450.0" y="30.0">Regular</text>
            <text x="650.0" y="30.0">Black</text>
            <text id="template-version" fill="#505050" text-anchor="end" x="785.0" y="575.0">Template v.3.0</text>
            <a href="https://github.com/swhitty/SwiftDraw">
                <text fill="#505050" text-anchor="end" x="785.0" y="590.0">https://github.com/swhitty/SwiftDraw</text>
            </a>
        </g>
    </g>
    <g id="Guides" stroke="rgb(39, 170, 225)" stroke-width="0.5">
        <path id="Capline-S" d="M18,76 l800,0" />
        <path id="H-reference" d="M85,145.755 L87.685,145.755 L113.369,79.287 L114.052,79.287 L114.052,76 L112.148,76 L85,145.755 Z M95.693,121.536 L130.996,121.536 L130.263,119.313 L96.474,119.313 L95.693,121.536 Z M139.15,145.755 L141.787,145.755 L114.638,76 L113.466,76 L113.466,79.287 L139.15,145.755 Z" stroke="none" />
        <path id="Baseline-S" d="M18,146 l800,0" />
        <path id="left-margin-Ultralight-S" d="M220,56 l0,110" />
        <path id="right-margin-Ultralight-S" d="M310,56 l0,110" />
        <path id="left-margin-Regular-S" d="M420,56 l0,110" />
        <path id="right-margin-Regular-S" d="M510,56 l0,110" />
        <path id="left-margin-Black-S" d="M620,56 l0,110" />
        <path id="right-margin-Black-S" d="M710,56 l0,110" />
        <path id="Capline-M" d="M18,276 l800,0" />
        <path id="Baseline-M" d="M18,346 l800,0" />
        <path id="Capline-L" d="M18,476 l800,0" />
        <path id="Baseline-L" d="M18,546 l800,0" />
    </g>
    <g id="Symbols">
        <g id="Ultralight-S">
            <path d="M265,146 C284.33,146 300,130.33 300,111 C300,91.67 284.33,76 265,76 C245.67,76 230,91.67 230,111 C230,130.33 245.67,146 265,146 Z M265,141.116 C248.367,141.116 234.884,127.633 234.884,111 C234.884,94.367 248.367,80.884 265,80.884 C281.633,80.884 295.116,94.367 295.116,111 C295.116,127.633 281.633,141.116 265,141.116 Z" />
            <path d="M249.521,114.256 L278.824,114.256 C280.172,114.256 281.266,113.163 281.266,111.814 C281.266,110.465 280.172,109.372 278.824,109.372 L249.521,109.372 C248.173,109.372 247.08,110.465 247.08,111.814 C247.08,113.163 248.173,114.256 249.521,114.256 Z" />
            <path d="M262.446,98.889 L277.097,113.541 L277.097,110.087 L262.446,124.738 C261.492,125.692 261.492,127.238 262.446,128.192 C263.399,129.145 264.946,129.145 265.899,128.192 L280.55,113.541 C281.504,112.587 281.504,111.041 280.55,110.087 L265.899,95.436 C264.946,94.483 263.399,94.483 262.446,95.436 C261.492,96.39 261.492,97.936 262.446,98.889 Z" />
        </g>
        <g id="Regular-S">
            <path d="M465,146 C484.33,146 500,130.33 500,111 C500,91.67 484.33,76 465,76 C445.67,76 430,91.67 430,111 C430,130.33 445.67,146 465,146 Z M465,141.116 C448.367,141.116 434.884,127.633 434.884,111 C434.884,94.367 448.367,80.884 465,80.884 C481.633,80.884 495.116,94.367 495.116,111 C495.116,127.633 481.633,141.116 465,141.116 Z" />
            <path d="M449.521,114.256 L478.824,114.256 C480.172,114.256 481.266,113.163 481.266,111.814 C481.266,110.465 480.172,109.372 478.824,109.372 L449.521,109.372 C448.173,109.372 447.08,110.465 447.08,111.814 C447.08,113.163 448.173,114.256 449.521,114.256 Z" />
            <path d="M462.446,98.889 L477.097,113.541 L477.097,110.087 L462.446,124.738 C461.492,125.692 461.492,127.238 462.446,128.192 C463.399,129.145 464.946,129.145 465.899,128.192 L480.55,113.541 C481.504,112.587 481.504,111.041 480.55,110.087 L465.899,95.436 C464.946,94.483 463.399,94.483 462.446,95.436 C461.492,96.39 461.492,97.936 462.446,98.889 Z" />
        </g>
        <g id="Black-S">
            <path d="M665,146 C684.33,146 700,130.33 700,111 C700,91.67 684.33,76 665,76 C645.67,76 630,91.67 630,111 C630,130.33 645.67,146 665,146 Z M665,141.116 C648.367,141.116 634.884,127.633 634.884,111 C634.884,94.367 648.367,80.884 665,80.884 C681.633,80.884 695.116,94.367 695.116,111 C695.116,127.633 681.633,141.116 665,141.116 Z" />
            <path d="M649.521,114.256 L678.824,114.256 C680.172,114.256 681.266,113.163 681.266,111.814 C681.266,110.465 680.172,109.372 678.824,109.372 L649.521,109.372 C648.173,109.372 647.08,110.465 647.08,111.814 C647.08,113.163 648.173,114.256 649.521,114.256 Z" />
            <path d="M662.446,98.889 L677.097,113.541 L677.097,110.087 L662.446,124.738 C661.492,125.692 661.492,127.238 662.446,128.192 C663.399,129.145 664.946,129.145 665.899,128.192 L680.55,113.541 C681.504,112.587 681.504,111.041 680.55,110.087 L665.899,95.436 C664.946,94.483 663.399,94.483 662.446,95.436 C661.492,96.39 661.492,97.936 662.446,98.889 Z" />
        </g>
    </g>
</svg>