<?xml version="1.0" encoding="UTF-8"?>
<svg height="600" width="800" xmlns="http://www.w3.org/2000/svg" xmlns:xlink="http://www.w3.org/1999/xlink">
    <g id="Notes" font-family="'LucidaGrande', 'Lucida Grande', sans-serif" font-size="13">
        <rect fill="white" height="600.0" width="800.0" x="0.0" y="0.0" />
        <g font-size="13">
            <text x="18.0" y="176.0">Small</text>
            <text x="18.0" y="376.0">Medium</text>
            <text x="18.0" y="576.0">Large</text>
        </g>
        <g font-size="9">
            <text x="250.0" y="30.0">Ultralight</text>
            <text x="450.0" y="30.0">Regular</text>
            <text x="650.0" y="30.0">Black</text>
            <text id="template-version" fill="#505050" text-anchor="end" x="785.0" y="575.0">Template v.3.0</text>
            <a href="https://github.com/swhitty/SwiftDraw">
                <text fill="#505050" text-anchor="end" x="785.0" y="590.0">https://github.com/swhitty/SwiftDraw</text>
            </a>
        </g>
    </g>
    <g id="Guides" stroke="rgb(39, 170, 225)" stroke-width="0.5">
        <path id="Capline-S" d="M18,76 l800,0" />
        <path id="H-reference" d="M85,145.755 L87.685,145.755 L113.369,79.287 L114.052,79.287 L114.052,76 L112.148,76 L85,145.755 Z M95.693,121.536 L130.996,121.536 L130.263,119.313 L96.474,119.313 L95.693,121.536 Z M139.15,145.755 L141.787,145.755 L114.638,76 L113.466,76 L113.466,79.287 L139.15,145.755 Z" stroke="none" />
        <path id="Baseline-S" d="M18,146 l800,0" />
        <path id="left-margin-Ultralight-S" d="M220,56 l0,110" />
        <path id="right-margin-Ultralight-S" d="M310,56 l0,110" />
        <path id="left-margin-Regular-S" d="M420,56 l0,110" />
        <path id="right-margin-Regular-S" d="M510,56 l0,110" />
        <path id="left-margin-Black-S" d="M620,56 l0,110" />
        <path id="right-margin-Black-S" d="M710,56 l0,110" />
        <path id="Capline-M" d="M18,276 l800,0" />
        <path id="Baseline-M" d="M18,346 l800,0" />
        <path id="Capline-L" d="M18,476 l800,0" />
        <path id="Baseline-L" d="M18,546 l800,0" />
    </g>
    <g id="Symbols">
        <g id="Ultralight-S">
            <path d="M289.979,98.116 C293.563,99.027 294.878,100.146 294.878,102.463 C294.878,104.045 292.64,105.024 288.903,105.024 C287.488,105.024 286.342,106.171 286.342,107.585 C286.342,109 287.488,110.146 288.903,110.146 C295.166,110.146 300,108.031 300,102.463 C300,97.268 296.829,94.573 291.241,93.152 C289.87,92.804 288.476,93.632 288.128,95.003 C287.78,96.374 288.608,97.768 289.979,98.116 Z" />
            <path d="M270.976,87.098 C270.976,83.401 272.848,81.122 275.244,81.122 C277.74,81.122 278.512,81.676 279.696,84.634 C280.221,85.947 281.711,86.586 283.025,86.061 C284.338,85.535 284.977,84.045 284.451,82.732 C282.51,77.878 279.891,76 275.244,76 C269.772,76 265.854,80.771 265.854,87.098 C265.854,88.512 267,89.659 268.415,89.659 C269.829,89.659 270.976,88.512 270.976,87.098 Z" />
            <path d="M279.29,91.556 C279.345,91.432 279.465,91.183 279.639,90.851 C279.931,90.295 280.258,89.739 280.604,89.232 C281.118,88.479 281.617,87.926 281.993,87.676 C284.373,86.095 287.275,86.049 288.58,87.354 C290.297,89.072 290.297,91.83 288.58,93.547 C287.517,94.61 286.478,95.447 285.511,96.082 C284.966,96.44 284.593,96.642 284.443,96.708 C283.151,97.282 282.568,98.796 283.143,100.088 C283.717,101.381 285.23,101.963 286.523,101.389 C287.891,100.781 289.927,99.444 292.201,97.169 C295.919,93.451 295.919,87.45 292.201,83.732 C288.974,80.505 283.399,80.592 279.158,83.41 C278.131,84.093 277.227,85.094 276.374,86.344 C275.575,87.515 274.974,88.66 274.613,89.469 C274.036,90.76 274.616,92.274 275.908,92.851 C277.2,93.427 278.714,92.847 279.29,91.556 Z" />
            <path d="M239.288,92.116 C229.889,101.515 227.329,116.044 232.971,127.661 L232.764,126.037 C232.712,126.295 232.624,126.753 232.511,127.369 C232.323,128.391 232.135,129.485 231.96,130.607 C231.781,131.751 231.625,132.863 231.498,133.92 C230.868,139.173 230.885,141.968 232.459,143.542 C234.034,145.117 236.822,145.133 242.053,144.501 C243.106,144.374 244.213,144.217 245.352,144.038 C246.471,143.862 247.561,143.674 248.58,143.485 C249.194,143.372 249.651,143.283 249.907,143.231 L248.292,143.03 C252.397,144.999 256.773,146 261.248,146 C269.387,146 277.923,142.525 283.862,136.736 C289.631,130.968 292.501,123.41 292.501,114.817 C292.501,106.488 289.524,99.481 283.329,93.046 C277.137,86.615 269.802,83.363 261.396,83.363 C252.796,83.363 245.067,86.338 239.288,92.116 Z M242.91,95.738 C247.693,90.955 254.11,88.485 261.396,88.485 C268.381,88.485 274.394,91.151 279.639,96.599 C284.938,102.103 287.379,107.848 287.379,114.817 C287.379,122.102 285.007,128.349 280.264,133.091 C275.304,137.925 268.051,140.878 261.248,140.878 C257.542,140.878 253.923,140.05 250.506,138.412 C250.004,138.171 249.437,138.101 248.891,138.211 C248.662,138.258 248.233,138.341 247.65,138.449 C246.673,138.629 245.627,138.81 244.557,138.978 C243.474,139.148 242.427,139.296 241.439,139.416 C239.684,139.628 238.192,139.74 237.068,139.734 C236.509,139.73 236.068,139.697 235.779,139.643 C235.747,139.637 235.832,139.671 236.081,139.921 C236.331,140.171 236.365,140.255 236.359,140.221 C236.304,139.93 236.271,139.486 236.267,138.923 C236.26,137.794 236.372,136.294 236.584,134.53 C236.703,133.537 236.851,132.485 237.021,131.398 C237.188,130.323 237.368,129.274 237.548,128.293 C237.656,127.707 237.739,127.277 237.785,127.047 C237.896,126.498 237.823,125.927 237.578,125.423 C232.897,115.785 235.043,103.605 242.91,95.738 Z" />
            <path d="M233.063,120.34 C233.115,120.33 233.268,120.305 233.503,120.278 C235.059,120.099 236.808,120.195 238.384,120.746 C240.084,121.341 241.374,122.401 242.222,124.096 C242.854,125.361 244.393,125.874 245.658,125.241 C246.923,124.609 247.436,123.071 246.803,121.806 C245.33,118.859 242.979,116.928 240.076,115.912 C237.659,115.066 235.175,114.929 232.916,115.19 C232.535,115.234 232.244,115.281 232.059,115.318 C230.672,115.595 229.773,116.944 230.05,118.331 C230.327,119.718 231.677,120.618 233.063,120.34 Z" />
            <path d="M257.241,142.353 C257.312,142.067 257.408,141.604 257.501,141.001 C257.791,139.117 257.853,137.148 257.535,135.24 C257.17,133.046 256.322,131.139 254.86,129.677 C253.86,128.677 252.238,128.677 251.238,129.677 C250.238,130.677 250.238,132.299 251.238,133.299 C251.862,133.923 252.28,134.862 252.483,136.082 C252.699,137.376 252.653,138.831 252.439,140.222 C252.371,140.659 252.307,140.97 252.272,141.111 C251.929,142.483 252.763,143.873 254.135,144.216 C255.507,144.559 256.898,143.725 257.241,142.353 Z" />
            <path d="M261.249,140.878 C257.542,140.878 253.923,140.05 250.506,138.412 C249.231,137.801 247.701,138.339 247.09,139.614 C246.479,140.89 247.017,142.419 248.292,143.031 C252.397,144.999 256.773,146 261.249,146 C262.663,146 263.81,144.853 263.81,143.439 C263.81,142.025 262.663,140.878 261.249,140.878 Z" />
            <path d="M237.578,125.424 C232.897,115.785 235.043,103.605 242.91,95.738 C243.91,94.738 243.91,93.116 242.91,92.116 C241.91,91.116 240.289,91.116 239.288,92.116 C229.889,101.516 227.329,116.045 232.971,127.661 C233.589,128.934 235.121,129.464 236.393,128.846 C237.666,128.228 238.196,126.696 237.578,125.424 Z" />
        </g>
        <g id="Regular-S">
            <path d="M489.979,98.116 C493.563,99.027 494.878,100.146 494.878,102.463 C494.878,104.045 492.64,105.024 488.903,105.024 C487.488,105.024 486.342,106.171 486.342,107.585 C486.342,109 487.488,110.146 488.903,110.146 C495.166,110.146 500,108.031 500,102.463 C500,97.268 496.829,94.573 491.241,93.152 C489.87,92.804 488.476,93.632 488.128,95.003 C487.78,96.374 488.608,97.768 489.979,98.116 Z" />
            <path d="M470.976,87.098 C470.976,83.401 472.848,81.122 475.244,81.122 C477.74,81.122 478.512,81.676 479.696,84.634 C480.221,85.947 481.711,86.586 483.025,86.061 C484.338,85.535 484.977,84.045 484.451,82.732 C482.51,77.878 479.891,76 475.244,76 C469.772,76 465.854,80.771 465.854,87.098 C465.854,88.512 467,89.659 468.415,89.659 C469.829,89.659 470.976,88.512 470.976,87.098 Z" />
            <path d="M479.29,91.556 C479.345,91.432 479.465,91.183 479.639,90.851 C479.931,90.295 480.258,89.739 480.604,89.232 C481.118,88.479 481.617,87.926 481.993,87.676 C484.373,86.095 487.275,86.049 488.58,87.354 C490.297,89.072 490.297,91.83 488.58,93.547 C487.517,94.61 486.478,95.447 485.511,96.082 C484.966,96.44 484.593,96.642 484.443,96.708 C483.151,97.282 482.568,98.796 483.143,100.088 C483.717,101.381 485.23,101.963 486.523,101.389 C487.891,100.781 489.927,99.444 492.201,97.169 C495.919,93.451 495.919,87.45 492.201,83.732 C488.974,80.505 483.399,80.592 479.158,83.41 C478.131,84.093 477.227,85.094 476.374,86.344 C475.575,87.515 474.974,88.66 474.613,89.469 C474.036,90.76 474.616,92.274 475.908,92.851 C477.2,93.427 478.714,92.847 479.29,91.556 Z" />
            <path d="M439.288,92.116 C429.889,101.515 427.329,116.044 432.971,127.661 L432.764,126.037 C432.712,126.295 432.624,126.753 432.511,127.369 C432.323,128.391 432.135,129.485 431.96,130.607 C431.781,131.751 431.625,132.863 431.498,133.92 C430.868,139.173 430.885,141.968 432.459,143.542 C434.034,145.117 436.822,145.133 442.053,144.501 C443.106,144.374 444.213,144.217 445.352,144.038 C446.471,143.862 447.561,143.674 448.58,143.485 C449.194,143.372 449.651,143.283 449.907,143.231 L448.292,143.03 C452.397,144.999 456.773,146 461.248,146 C469.387,146 477.923,142.525 483.862,136.736 C489.631,130.968 492.501,123.41 492.501,114.817 C492.501,106.488 489.524,99.481 483.329,93.046 C477.137,86.615 469.802,83.363 461.396,83.363 C452.796,83.363 445.067,86.338 439.288,92.116 Z M442.91,95.738 C447.693,90.955 454.11,88.485 461.396,88.485 C468.381,88.485 474.394,91.151 479.639,96.599 C484.938,102.103 487.379,107.848 487.379,114.817 C487.379,122.102 485.007,128.349 480.264,133.091 C475.304,137.925 468.051,140.878 461.248,140.878 C457.542,140.878 453.923,140.05 450.506,138.412 C450.004,138.171 449.437,138.101 448.891,138.211 C448.662,138.258 448.233,138.341 447.65,138.449 C446.673,138.629 445.627,138.81 444.557,138.978 C443.474,139.148 442.427,139.296 441.439,139.416 C439.684,139.628 438.192,139.74 437.068,139.734 C436.509,139.73 436.068,139.697 435.779,139.643 C435.747,139.637 435.832,139.671 436.081,139.921 C436.331,140.171 436.365,140.255 436.359,140.221 C436.304,139.93 436.271,139.486 436.267,138.923 C436.26,137.794 436.372,136.294 436.584,134.53 C436.703,133.537 436.851,132.485 437.021,131.398 C437.188,130.323 437.368,129.274 437.548,128.293 C437.656,127.707 437.739,127.277 437.785,127.047 C437.896,126.498 437.823,125.927 437.578,125.423 C432.897,115.785 435.043,103.605 442.91,95.738 Z" />
            <path d="M433.063,120.34 C433.115,120.33 433.268,120.305 433.503,120.278 C435.059,120.099 436.808,120.195 438.384,120.746 C440.084,121.341 441.374,122.401 442.222,124.096 C442.854,125.361 444.393,125.874 445.658,125.241 C446.923,124.609 447.436,123.071 446.803,121.806 C445.33,118.859 442.979,116.928 440.076,115.912 C437.659,115.066 435.175,114.929 432.916,115.19 C432.535,115.234 432.244,115.281 432.059,115.318 C430.672,115.595 429.773,116.944 430.05,118.331 C430.327,119.718 431.677,120.618 433.063,120.34 Z" />
            <path d="M457.241,142.353 C457.312,142.067 457.408,141.604 457.501,141.001 C457.791,139.117 457.853,137.148 457.535,135.24 C457.17,133.046 456.322,131.139 454.86,129.677 C453.86,128.677 452.238,128.677 451.238,129.677 C450.238,130.677 450.238,132.299 451.238,133.299 C451.862,133.923 452.28,134.862 452.483,136.082 C452.699,137.376 452.653,138.831 452.439,140.222 C452.371,140.659 452.307,140.97 452.272,141.111 C451.929,142.483 452.763,143.873 454.135,144.216 C455.507,144.559 456.898,143.725 457.241,142.353 Z" />
            <path d="M461.249,140.878 C457.542,140.878 453.923,140.05 450.506,138.412 C449.231,137.801 447.701,138.339 447.09,139.614 C446.479,140.89 447.017,142.419 448.292,143.031 C452.397,144.999 456.773,146 461.249,146 C462.663,146 463.81,144.853 463.81,143.439 C463.81,142.025 462.663,140.878 461.249,140.878 Z" />
            <path d="M437.578,125.424 C432.897,115.785 435.043,103.605 442.91,95.738 C443.91,94.738 443.91,93.116 442.91,92.116 C441.91,91.116 440.289,91.116 439.288,92.116 C429.889,101.516 427.329,116.045 432.971,127.661 C433.589,128.934 435.121,129.464 436.393,128.846 C437.666,128.228 438.196,126.696 437.578,125.424 Z" />
        </g>
        <g id="Black-S">
            <path d="M689.979,98.116 C693.563,99.027 694.878,100.146 694.878,102.463 C694.878,104.045 692.64,105.024 688.903,105.024 C687.488,105.024 686.342,106.171 686.342,107.585 C686.342,109 687.488,110.146 688.903,110.146 C695.166,110.146 700,108.031 700,102.463 C700,97.268 696.829,94.573 691.241,93.152 C689.87,92.804 688.476,93.632 688.128,95.003 C687.78,96.374 688.608,97.768 689.979,98.116 Z" />
            <path d="M670.976,87.098 C670.976,83.401 672.848,81.122 675.244,81.122 C677.74,81.122 678.512,81.676 679.696,84.634 C680.221,85.947 681.711,86.586 683.025,86.061 C684.338,85.535 684.977,84.045 684.451,82.732 C682.51,77.878 679.891,76 675.244,76 C669.772,76 665.854,80.771 665.854,87.098 C665.854,88.512 667,89.659 668.415,89.659 C669.829,89.659 670.976,88.512 670.976,87.098 Z" />
            <path d="M679.29,91.556 C679.345,91.432 679.465,91.183 679.639,90.851 C679.931,90.295 680.258,89.739 680.604,89.232 C681.118,88.479 681.617,87.926 681.993,87.676 C684.373,86.095 687.275,86.049 688.58,87.354 C690.297,89.072 690.297,91.83 688.58,93.547 C687.517,94.61 686.478,95.447 685.511,96.082 C684.966,96.44 684.593,96.642 684.443,96.708 C683.151,97.282 682.568,98.796 683.143,100.088 C683.717,101.381 685.23,101.963 686.523,101.389 C687.891,100.781 689.927,99.444 692.201,97.169 C695.919,93.451 695.919,87.45 692.202,83.732 C688.974,80.505 683.399,80.592 679.158,83.41 C678.131,84.093 677.227,85.094 676.374,86.344 C675.575,87.515 674.974,88.66 674.613,89.469 C674.036,90.76 674.616,92.274 675.908,92.851 C677.2,93.427 678.714,92.847 679.29,91.556 Z" />
            <path d="M639.288,92.116 C629.889,101.515 627.329,116.044 632.971,127.661 L632.764,126.037 C632.712,126.295 632.624,126.753 632.511,127.369 C632.323,128.391 632.135,129.485 631.96,130.607 C631.781,131.751 631.625,132.863 631.498,133.92 C630.868,139.173 630.885,141.968 632.459,143.542 C634.034,145.117 636.822,145.133 642.053,144.501 C643.106,144.374 644.213,144.217 645.352,144.038 C646.471,143.862 647.561,143.674 648.58,143.485 C649.194,143.372 649.651,143.283 649.907,143.231 L648.292,143.03 C652.397,144.999 656.773,146 661.248,146 C669.387,146 677.923,142.525 683.862,136.736 C689.631,130.968 692.501,123.41 692.501,114.817 C692.501,106.488 689.524,99.481 683.329,93.046 C677.137,86.615 669.802,83.363 661.396,83.363 C652.796,83.363 645.067,86.338 639.288,92.116 Z M642.91,95.738 C647.693,90.955 654.11,88.485 661.396,88.485 C668.381,88.485 674.394,91.151 679.639,96.599 C684.938,102.103 687.379,107.848 687.379,114.817 C687.379,122.102 685.007,128.349 680.264,133.091 C675.304,137.925 668.051,140.878 661.248,140.878 C657.542,140.878 653.923,140.05 650.506,138.412 C650.004,138.171 649.437,138.101 648.891,138.211 C648.662,138.258 648.233,138.341 647.65,138.449 C646.673,138.629 645.627,138.81 644.557,138.978 C643.474,139.148 642.427,139.296 641.439,139.416 C639.684,139.628 638.192,139.74 637.068,139.734 C636.509,139.73 636.068,139.697 635.779,139.643 C635.747,139.637 635.832,139.671 636.081,139.921 C636.331,140.171 636.365,140.255 636.359,140.221 C636.304,139.93 636.271,139.486 636.267,138.923 C636.26,137.794 636.372,136.294 636.584,134.53 C636.703,133.537 636.851,132.485 637.021,131.398 C637.188,130.323 637.368,129.274 637.548,128.293 C637.656,127.707 637.739,127.277 637.785,127.047 C637.896,126.498 637.823,125.927 637.578,125.423 C632.897,115.785 635.043,103.605 642.91,95.738 Z" />
            <path d="M633.063,120.34 C633.115,120.33 633.268,120.305 633.503,120.278 C635.059,120.099 636.808,120.195 638.384,120.746 C640.084,121.341 641.374,122.401 642.222,124.096 C642.854,125.361 644.393,125.874 645.658,125.241 C646.923,124.609 647.436,123.071 646.803,121.806 C645.33,118.859 642.979,116.928 640.076,115.912 C637.659,115.066 635.175,114.929 632.916,115.19 C632.535,115.234 632.244,115.281 632.059,115.318 C630.672,115.595 629.773,116.944 630.05,118.331 C630.327,119.718 631.677,120.618 633.063,120.34 Z" />
            <path d="M657.241,142.353 C657.312,142.067 657.408,141.604 657.501,141.001 C657.791,139.117 657.853,137.148 657.535,135.24 C657.17,133.046 656.322,131.139 654.86,129.677 C653.86,128.677 652.238,128.677 651.238,129.677 C650.238,130.677 650.238,132.299 651.238,133.299 C651.862,133.923 652.28,134.862 652.483,136.082 C652.699,137.376 652.653,138.831 652.439,140.222 C652.371,140.659 652.307,140.97 652.272,141.111 C651.929,142.483 652.763,143.873 654.135,144.216 C655.507,144.559 656.898,143.725 657.241,142.353 Z" />
            <path d="M661.249,140.878 C657.542,140.878 653.923,140.05 650.506,138.412 C649.231,137.801 647.701,138.339 647.09,139.614 C646.479,140.89 647.017,142.419 648.292,143.031 C652.398,144.999 656.773,146 661.249,146 C662.663,146 663.81,144.853 663.81,143.439 C663.81,142.025 662.663,140.878 661.249,140.878 Z" />
            <path d="M637.578,125.424 C632.897,115.785 635.043,103.605 642.91,95.738 C643.91,94.738 643.91,93.116 642.91,92.116 C641.91,91.116 640.289,91.116 639.288,92.116 C629.889,101.516 627.329,116.045 632.971,127.661 C633.589,128.934 635.121,129.464 636.393,128.846 C637.666,128.228 638.196,126.696 637.578,125.424 Z" />
        </g>
    </g>
</svg>