<?xml version="1.0" encoding="UTF-8"?>
<svg height="600" width="800" xmlns="http://www.w3.org/2000/svg" xmlns:xlink="http://www.w3.org/1999/xlink">
    <g id="Notes" font-family="'LucidaGrande', 'Lucida Grande', sans-serif" font-size="13">
        <rect fill="white" height="600.0" width="800.0" x="0.0" y="0.0" />
        <g font-size="13">
            <text x="18.0" y="176.0">Small</text>
            <text x="18.0" y="376.0">Medium</text>
            <text x="18.0" y="576.0">Large</text>
        </g>
        <g font-size="9">
            <text x="250.0" y="30.0">Ultralight</text>
            <text x="450.0" y="30.0">Regular</text>
            <text x="650.0" y="30.0">Black</text>
            <text id="template-version" fill="#505050" text-anchor="end" x="785.0" y="575.0">Template v.3.0</text>
            <a href="https://github.com/swhitty/SwiftDraw">
                <text fill="#505050" text-anchor="end" x="785.0" y="590.0">https://github.com/swhitty/SwiftDraw</text>
            </a>
        </g>
    </g>
    <g id="Guides" stroke="rgb(39, 170, 225)" stroke-width="0.5">
        <path id="Capline-S" d="M18,76 l800,0" />
        <path id="H-reference" d="M85,145.755 L87.685,145.755 L113.369,79.287 L114.052,79.287 L114.052,76 L112.148,76 L85,145.755 Z M95.693,121.536 L130.996,121.536 L130.263,119.313 L96.474,119.313 L95.693,121.536 Z M139.15,145.755 L141.787,145.755 L114.638,76 L113.466,76 L113.466,79.287 L139.15,145.755 Z" stroke="none" />
        <path id="Baseline-S" d="M18,146 l800,0" />
        <path id="left-margin-Ultralight-S" d="M221,56 l0,110" />
        <path id="right-margin-Ultralight-S" d="M309,56 l0,110" />
        <path id="left-margin-Regular-S" d="M421,56 l0,110" />
        <path id="right-margin-Regular-S" d="M509,56 l0,110" />
        <path id="left-margin-Black-S" d="M621,56 l0,110" />
        <path id="right-margin-Black-S" d="M709,56 l0,110" />
        <path id="Capline-M" d="M18,276 l800,0" />
        <path id="Baseline-M" d="M18,346 l800,0" />
        <path id="Capline-L" d="M18,476 l800,0" />
        <path id="Baseline-L" d="M18,546 l800,0" />
    </g>
    <g id="Symbols">
        <g id="Ultralight-S">
            <path d="M264.354,107.908 L277.317,94.945 C278.271,93.992 278.271,92.446 277.317,91.493 C276.364,90.539 274.818,90.539 273.865,91.493 L260.902,104.456 C259.948,105.409 259.948,106.955 260.902,107.908 C261.855,108.862 263.401,108.862 264.354,107.908 Z M265.06,105.972 C265.055,105.909 265.045,105.76 265.034,105.534 C264.87,102.047 265.245,97.817 266.589,93.833 C267.555,90.971 268.947,88.554 270.807,86.693 C272.663,84.837 275.069,83.448 277.913,82.483 C281.894,81.132 286.12,80.755 289.602,80.92 C289.827,80.93 289.975,80.94 290.038,80.946 L287.815,78.714 C287.82,78.769 287.829,78.903 287.838,79.107 C287.993,82.576 287.6,86.82 286.218,90.823 C285.244,93.646 283.853,96.038 282.003,97.888 C280.151,99.74 277.758,101.136 274.933,102.116 C270.909,103.513 266.648,103.916 263.185,103.768 C262.995,103.76 262.871,103.752 262.819,103.748 L265.06,105.972 Z M260.196,106.392 C260.299,107.581 261.246,108.522 262.437,108.616 C262.545,108.624 262.727,108.635 262.977,108.646 C267,108.818 271.831,108.362 276.535,106.729 C280.014,105.521 283.04,103.756 285.455,101.341 C287.872,98.925 289.633,95.897 290.834,92.416 C292.45,87.733 292.896,82.918 292.716,78.889 C292.704,78.623 292.691,78.429 292.682,78.314 C292.584,77.127 291.645,76.184 290.459,76.081 C290.335,76.071 290.123,76.056 289.833,76.043 C285.794,75.851 281.001,76.279 276.344,77.859 C272.834,79.05 269.783,80.812 267.355,83.24 C264.918,85.677 263.154,88.742 261.963,92.272 C260.391,96.929 259.966,101.723 260.157,105.764 C260.171,106.055 260.185,106.267 260.196,106.392 Z" />
            <path d="M264.25,122.255 L252.904,110.909 C251.951,109.955 250.405,109.955 249.452,110.909 C248.498,111.862 248.498,113.408 249.452,114.361 L260.798,125.707 C261.751,126.661 263.297,126.661 264.25,125.707 C265.204,124.754 265.204,123.208 264.25,122.255 Z M264.947,124.279 C264.97,124.095 265,123.784 265.03,123.362 C265.266,119.968 265.032,116.129 263.95,112.424 C263.027,109.262 261.551,106.532 259.413,104.397 C257.281,102.268 254.557,100.796 251.405,99.873 C247.693,98.786 243.849,98.55 240.452,98.785 C240.032,98.814 239.723,98.844 239.541,98.866 C238.429,99.002 237.552,99.878 237.415,100.99 C237.392,101.175 237.361,101.487 237.331,101.912 C237.095,105.305 237.327,109.142 238.407,112.846 C239.33,116.008 240.805,118.738 242.943,120.873 C245.076,123.003 247.801,124.475 250.956,125.398 C254.668,126.485 258.513,126.72 261.909,126.486 C262.329,126.457 262.638,126.427 262.821,126.404 C263.933,126.268 264.81,125.392 264.947,124.279 Z M260.101,123.683 L262.227,121.558 C262.127,121.57 261.904,121.592 261.573,121.615 C258.702,121.813 255.396,121.61 252.327,120.712 C249.906,120.004 247.894,118.917 246.393,117.418 C244.89,115.917 243.802,113.904 243.095,111.479 C242.202,108.418 242.002,105.12 242.202,102.252 C242.226,101.917 242.248,101.69 242.261,101.589 L240.135,103.713 C240.234,103.7 240.458,103.679 240.789,103.656 C243.659,103.457 246.964,103.66 250.033,104.559 C252.452,105.267 254.463,106.354 255.963,107.853 C257.466,109.353 258.555,111.367 259.263,113.792 C260.157,116.855 260.358,120.155 260.159,123.023 C260.135,123.356 260.113,123.582 260.101,123.683 Z" />
            <path d="M260.13,78.457 L260.13,143.559 C260.13,144.907 261.223,146 262.571,146 C263.919,146 265.012,144.907 265.012,143.559 L265.012,78.457 C265.012,77.108 263.919,76.015 262.571,76.015 C261.223,76.015 260.13,77.108 260.13,78.457 Z" />
        </g>
        <g id="Regular-S">
            <path d="M464.354,107.908 L477.317,94.945 C478.271,93.992 478.271,92.446 477.317,91.493 C476.364,90.539 474.818,90.539 473.865,91.493 L460.902,104.456 C459.948,105.409 459.948,106.955 460.902,107.908 C461.855,108.862 463.401,108.862 464.354,107.908 Z M465.06,105.972 C465.055,105.909 465.045,105.76 465.034,105.534 C464.869,102.047 465.245,97.817 466.589,93.833 C467.555,90.971 468.947,88.554 470.807,86.693 C472.663,84.837 475.069,83.448 477.913,82.483 C481.894,81.132 486.12,80.755 489.602,80.92 C489.827,80.93 489.975,80.94 490.038,80.946 L487.815,78.714 C487.82,78.769 487.829,78.903 487.838,79.107 C487.993,82.576 487.6,86.82 486.218,90.823 C485.244,93.646 483.853,96.038 482.003,97.888 C480.151,99.74 477.758,101.136 474.933,102.116 C470.909,103.513 466.648,103.916 463.185,103.768 C462.995,103.76 462.871,103.752 462.819,103.748 L465.06,105.972 Z M460.196,106.392 C460.299,107.581 461.246,108.522 462.437,108.616 C462.545,108.624 462.727,108.635 462.977,108.646 C467,108.818 471.831,108.362 476.535,106.729 C480.014,105.521 483.04,103.756 485.455,101.341 C487.872,98.925 489.633,95.897 490.834,92.416 C492.45,87.733 492.896,82.918 492.715,78.889 C492.704,78.623 492.691,78.429 492.682,78.314 C492.584,77.127 491.645,76.184 490.459,76.081 C490.335,76.071 490.123,76.056 489.833,76.043 C485.794,75.851 481.001,76.279 476.344,77.859 C472.834,79.05 469.783,80.812 467.355,83.24 C464.918,85.677 463.154,88.742 461.963,92.272 C460.391,96.929 459.966,101.723 460.157,105.764 C460.171,106.055 460.185,106.267 460.196,106.392 Z" />
            <path d="M464.25,122.255 L452.904,110.909 C451.951,109.955 450.405,109.955 449.452,110.909 C448.498,111.862 448.498,113.408 449.452,114.361 L460.798,125.707 C461.751,126.661 463.297,126.661 464.25,125.707 C465.204,124.754 465.204,123.208 464.25,122.255 Z M464.947,124.279 C464.97,124.095 465,123.784 465.03,123.362 C465.266,119.968 465.032,116.129 463.95,112.424 C463.027,109.262 461.551,106.532 459.413,104.397 C457.281,102.268 454.557,100.796 451.405,99.873 C447.693,98.786 443.849,98.55 440.452,98.785 C440.032,98.814 439.723,98.844 439.541,98.866 C438.429,99.002 437.552,99.878 437.415,100.99 C437.392,101.175 437.361,101.487 437.331,101.912 C437.094,105.305 437.327,109.142 438.407,112.846 C439.33,116.008 440.805,118.738 442.943,120.873 C445.076,123.003 447.801,124.475 450.956,125.398 C454.668,126.485 458.513,126.72 461.909,126.486 C462.329,126.457 462.638,126.427 462.821,126.404 C463.933,126.268 464.81,125.392 464.947,124.279 Z M460.101,123.683 L462.227,121.558 C462.127,121.57 461.904,121.592 461.573,121.615 C458.702,121.813 455.396,121.61 452.327,120.712 C449.906,120.004 447.894,118.917 446.393,117.418 C444.89,115.917 443.802,113.904 443.095,111.479 C442.202,108.418 442.002,105.12 442.202,102.252 C442.226,101.917 442.248,101.69 442.26,101.589 L440.135,103.713 C440.234,103.7 440.458,103.679 440.789,103.656 C443.659,103.457 446.964,103.66 450.033,104.559 C452.452,105.267 454.463,106.354 455.963,107.853 C457.466,109.353 458.555,111.367 459.263,113.792 C460.157,116.855 460.358,120.155 460.159,123.023 C460.135,123.356 460.113,123.582 460.101,123.683 Z" />
            <path d="M460.13,78.457 L460.13,143.559 C460.13,144.907 461.223,146 462.571,146 C463.919,146 465.012,144.907 465.012,143.559 L465.012,78.457 C465.012,77.108 463.919,76.015 462.571,76.015 C461.223,76.015 460.13,77.108 460.13,78.457 Z" />
        </g>
        <g id="Black-S">
            <path d="M664.354,107.908 L677.317,94.945 C678.271,93.992 678.271,92.446 677.317,91.493 C676.364,90.539 674.818,90.539 673.865,91.493 L660.902,104.456 C659.948,105.409 659.948,106.955 660.902,107.908 C661.855,108.862 663.401,108.862 664.354,107.908 Z M665.06,105.972 C665.055,105.909 665.045,105.76 665.034,105.534 C664.87,102.047 665.245,97.817 666.589,93.833 C667.555,90.971 668.947,88.554 670.807,86.693 C672.663,84.837 675.069,83.448 677.913,82.483 C681.894,81.132 686.12,80.755 689.602,80.92 C689.827,80.93 689.975,80.94 690.038,80.946 L687.815,78.714 C687.82,78.769 687.829,78.903 687.838,79.107 C687.993,82.576 687.6,86.82 686.218,90.823 C685.244,93.646 683.853,96.038 682.003,97.888 C680.151,99.74 677.758,101.136 674.933,102.116 C670.909,103.513 666.648,103.916 663.185,103.768 C662.995,103.76 662.871,103.752 662.819,103.748 L665.06,105.972 Z M660.196,106.392 C660.299,107.581 661.246,108.522 662.437,108.616 C662.545,108.624 662.727,108.635 662.977,108.646 C667,108.818 671.831,108.362 676.535,106.729 C680.014,105.521 683.04,103.756 685.455,101.341 C687.872,98.925 689.633,95.897 690.834,92.416 C692.45,87.733 692.896,82.918 692.715,78.889 C692.704,78.623 692.691,78.429 692.682,78.314 C692.584,77.127 691.645,76.184 690.459,76.081 C690.335,76.071 690.123,76.056 689.833,76.043 C685.794,75.851 681,76.279 676.344,77.859 C672.834,79.05 669.783,80.812 667.355,83.24 C664.918,85.677 663.154,88.742 661.963,92.272 C660.391,96.929 659.966,101.723 660.157,105.764 C660.171,106.055 660.185,106.267 660.196,106.392 Z" />
            <path d="M664.25,122.255 L652.904,110.909 C651.951,109.955 650.405,109.955 649.452,110.909 C648.498,111.862 648.498,113.408 649.452,114.361 L660.798,125.707 C661.751,126.661 663.297,126.661 664.25,125.707 C665.204,124.754 665.204,123.208 664.25,122.255 Z M664.947,124.279 C664.97,124.095 665,123.784 665.03,123.362 C665.266,119.968 665.032,116.129 663.95,112.424 C663.027,109.262 661.551,106.532 659.413,104.397 C657.281,102.268 654.557,100.796 651.405,99.873 C647.693,98.786 643.849,98.55 640.452,98.785 C640.032,98.814 639.723,98.844 639.541,98.866 C638.429,99.002 637.552,99.878 637.415,100.99 C637.392,101.175 637.361,101.487 637.331,101.912 C637.094,105.305 637.327,109.142 638.407,112.846 C639.33,116.008 640.805,118.738 642.943,120.873 C645.076,123.003 647.801,124.475 650.956,125.398 C654.668,126.485 658.513,126.72 661.909,126.486 C662.329,126.457 662.638,126.427 662.821,126.404 C663.933,126.268 664.81,125.392 664.947,124.279 Z M660.101,123.683 L662.227,121.558 C662.127,121.57 661.904,121.592 661.573,121.615 C658.702,121.813 655.396,121.61 652.327,120.712 C649.906,120.004 647.894,118.917 646.393,117.418 C644.89,115.917 643.802,113.904 643.095,111.479 C642.202,108.418 642.002,105.12 642.202,102.252 C642.226,101.917 642.248,101.69 642.26,101.589 L640.135,103.713 C640.234,103.7 640.458,103.679 640.789,103.656 C643.659,103.457 646.964,103.66 650.033,104.559 C652.452,105.267 654.463,106.354 655.963,107.853 C657.466,109.353 658.555,111.367 659.263,113.792 C660.157,116.855 660.358,120.155 660.159,123.023 C660.135,123.356 660.113,123.582 660.101,123.683 Z" />
            <path d="M660.13,78.457 L660.13,143.559 C660.13,144.907 661.223,146 662.571,146 C663.919,146 665.012,144.907 665.012,143.559 L665.012,78.457 C665.012,77.108 663.919,76.015 662.571,76.015 C661.223,76.015 660.13,77.108 660.13,78.457 Z" />
        </g>
    </g>
</svg>