<?xml version="1.0" encoding="UTF-8"?>
<svg height="600" width="800" xmlns="http://www.w3.org/2000/svg" xmlns:xlink="http://www.w3.org/1999/xlink">
    <g id="Notes" font-family="'LucidaGrande', 'Lucida Grande', sans-serif" font-size="13">
        <rect fill="white" height="600.0" width="800.0" x="0.0" y="0.0" />
        <g font-size="13">
            <text x="18.0" y="176.0">Small</text>
            <text x="18.0" y="376.0">Medium</text>
            <text x="18.0" y="576.0">Large</text>
        </g>
        <g font-size="9">
            <text x="250.0" y="30.0">Ultralight</text>
            <text x="450.0" y="30.0">Regular</text>
            <text x="650.0" y="30.0">Black</text>
            <text id="template-version" fill="#505050" text-anchor="end" x="785.0" y="575.0">Template v.3.0</text>
            <a href="https://github.com/swhitty/SwiftDraw">
                <text fill="#505050" text-anchor="end" x="785.0" y="590.0">https://github.com/swhitty/SwiftDraw</text>
            </a>
        </g>
    </g>
    <g id="Guides" stroke="rgb(39, 170, 225)" stroke-width="0.5">
        <path id="Capline-S" d="M18,76 l800,0" />
        <path id="H-reference" d="M85,145.755 L87.685,145.755 L113.369,79.287 L114.052,79.287 L114.052,76 L112.148,76 L85,145.755 Z M95.693,121.536 L130.996,121.536 L130.263,119.313 L96.474,119.313 L95.693,121.536 Z M139.15,145.755 L141.787,145.755 L114.638,76 L113.466,76 L113.466,79.287 L139.15,145.755 Z" stroke="none" />
        <path id="Baseline-S" d="M18,146 l800,0" />
        <path id="left-margin-Ultralight-S" d="M221,56 l0,110" />
        <path id="right-margin-Ultralight-S" d="M309,56 l0,110" />
        <path id="left-margin-Regular-S" d="M421,56 l0,110" />
        <path id="right-margin-Regular-S" d="M509,56 l0,110" />
        <path id="left-margin-Black-S" d="M621,56 l0,110" />
        <path id="right-margin-Black-S" d="M709,56 l0,110" />
        <path id="Capline-M" d="M18,276 l800,0" />
        <path id="Baseline-M" d="M18,346 l800,0" />
        <path id="Capline-L" d="M18,476 l800,0" />
        <path id="Baseline-L" d="M18,546 l800,0" />
    </g>
    <g id="Symbols">
        <g id="Ultralight-S">
            <path d="M274.767,76 L255.233,76 C254.308,76 253.462,76.523 253.048,77.35 L236.769,109.908 C235.958,111.532 237.138,113.442 238.953,113.442 L253.605,113.442 C254.53,113.442 255.375,112.919 255.789,112.092 L263.928,95.813 L261.744,97.163 L268.256,97.163 L266.072,95.813 L274.211,112.092 C274.625,112.919 275.47,113.442 276.395,113.442 L291.047,113.442 C292.862,113.442 294.042,111.532 293.231,109.908 L276.952,77.35 C276.538,76.523 275.692,76 274.767,76 Z M274.767,80.884 L272.583,79.534 L288.862,112.092 L291.047,108.558 L276.395,108.558 L278.579,109.908 L270.44,93.629 C270.026,92.802 269.181,92.279 268.256,92.279 L261.744,92.279 C260.819,92.279 259.974,92.802 259.56,93.629 L251.421,109.908 L253.605,108.558 L238.953,108.558 L241.138,112.092 L257.417,79.534 L255.233,80.884 L274.767,80.884 Z" />
            <path d="M274.767,141.116 L255.233,141.116 L257.417,142.466 L241.138,109.908 L238.953,113.442 L253.605,113.442 L251.421,112.092 L259.56,128.371 C259.974,129.198 260.819,129.721 261.744,129.721 L268.256,129.721 C269.181,129.721 270.026,129.198 270.44,128.371 L278.579,112.092 L276.395,113.442 L291.047,113.442 L288.862,109.908 L272.583,142.466 L274.767,141.116 Z M274.767,146 C275.692,146 276.538,145.477 276.952,144.65 L293.231,112.092 C294.042,110.468 292.862,108.558 291.047,108.558 L276.395,108.558 C275.47,108.558 274.625,109.081 274.211,109.908 L266.072,126.187 L268.256,124.837 L261.744,124.837 L263.928,126.187 L255.789,109.908 C255.375,109.081 254.53,108.558 253.605,108.558 L238.953,108.558 C237.138,108.558 235.958,110.468 236.769,112.092 L253.048,144.65 C253.462,145.477 254.308,146 255.233,146 L274.767,146 Z" />
        </g>
        <g id="Regular-S">
            <path d="M474.767,76 L455.233,76 C454.308,76 453.462,76.523 453.048,77.35 L436.769,109.908 C435.958,111.532 437.138,113.442 438.953,113.442 L453.605,113.442 C454.53,113.442 455.375,112.919 455.789,112.092 L463.928,95.813 L461.744,97.163 L468.256,97.163 L466.072,95.813 L474.211,112.092 C474.625,112.919 475.47,113.442 476.395,113.442 L491.047,113.442 C492.862,113.442 494.042,111.532 493.231,109.908 L476.952,77.35 C476.538,76.523 475.692,76 474.767,76 Z M474.767,80.884 L472.583,79.534 L488.862,112.092 L491.047,108.558 L476.395,108.558 L478.579,109.908 L470.44,93.629 C470.026,92.802 469.181,92.279 468.256,92.279 L461.744,92.279 C460.819,92.279 459.974,92.802 459.56,93.629 L451.421,109.908 L453.605,108.558 L438.953,108.558 L441.138,112.092 L457.417,79.534 L455.233,80.884 L474.767,80.884 Z" />
            <path d="M474.767,141.116 L455.233,141.116 L457.417,142.466 L441.138,109.908 L438.953,113.442 L453.605,113.442 L451.421,112.092 L459.56,128.371 C459.974,129.198 460.819,129.721 461.744,129.721 L468.256,129.721 C469.181,129.721 470.026,129.198 470.44,128.371 L478.579,112.092 L476.395,113.442 L491.047,113.442 L488.862,109.908 L472.583,142.466 L474.767,141.116 Z M474.767,146 C475.692,146 476.538,145.477 476.952,144.65 L493.231,112.092 C494.042,110.468 492.862,108.558 491.047,108.558 L476.395,108.558 C475.47,108.558 474.625,109.081 474.211,109.908 L466.072,126.187 L468.256,124.837 L461.744,124.837 L463.928,126.187 L455.789,109.908 C455.375,109.081 454.53,108.558 453.605,108.558 L438.953,108.558 C437.138,108.558 435.958,110.468 436.769,112.092 L453.048,144.65 C453.462,145.477 454.308,146 455.233,146 L474.767,146 Z" />
        </g>
        <g id="Black-S">
            <path d="M674.767,76 L655.233,76 C654.308,76 653.462,76.523 653.049,77.35 L636.769,109.908 C635.958,111.532 637.138,113.442 638.953,113.442 L653.605,113.442 C654.53,113.442 655.375,112.919 655.789,112.092 L663.928,95.813 L661.744,97.163 L668.256,97.163 L666.072,95.813 L674.211,112.092 C674.625,112.919 675.47,113.442 676.395,113.442 L691.047,113.442 C692.862,113.442 694.042,111.532 693.231,109.908 L676.952,77.35 C676.538,76.523 675.692,76 674.767,76 Z M674.767,80.884 L672.583,79.534 L688.862,112.092 L691.047,108.558 L676.395,108.558 L678.579,109.908 L670.44,93.629 C670.026,92.802 669.181,92.279 668.256,92.279 L661.744,92.279 C660.819,92.279 659.974,92.802 659.56,93.629 L651.421,109.908 L653.605,108.558 L638.953,108.558 L641.138,112.092 L657.417,79.534 L655.233,80.884 L674.767,80.884 Z" />
            <path d="M674.767,141.116 L655.233,141.116 L657.417,142.466 L641.138,109.908 L638.953,113.442 L653.605,113.442 L651.421,112.092 L659.56,128.371 C659.974,129.198 660.819,129.721 661.744,129.721 L668.256,129.721 C669.181,129.721 670.026,129.198 670.44,128.371 L678.579,112.092 L676.395,113.442 L691.047,113.442 L688.862,109.908 L672.583,142.466 L674.767,141.116 Z M674.767,146 C675.692,146 676.538,145.477 676.952,144.65 L693.231,112.092 C694.042,110.468 692.862,108.558 691.047,108.558 L676.395,108.558 C675.47,108.558 674.625,109.081 674.211,109.908 L666.072,126.187 L668.256,124.837 L661.744,124.837 L663.928,126.187 L655.789,109.908 C655.375,109.081 654.53,108.558 653.605,108.558 L638.953,108.558 C637.138,108.558 635.958,110.468 636.769,112.092 L653.049,144.65 C653.462,145.477 654.308,146 655.233,146 L674.767,146 Z" />
        </g>
    </g>
</svg>