<?xml version="1.0" encoding="UTF-8"?>
<svg height="600" width="800" xmlns="http://www.w3.org/2000/svg" xmlns:xlink="http://www.w3.org/1999/xlink">
    <g id="Notes" font-family="'LucidaGrande', 'Lucida Grande', sans-serif" font-size="13">
        <rect fill="white" height="600.0" width="800.0" x="0.0" y="0.0" />
        <g font-size="13">
            <text x="18.0" y="176.0">Small</text>
            <text x="18.0" y="376.0">Medium</text>
            <text x="18.0" y="576.0">Large</text>
        </g>
        <g font-size="9">
            <text x="250.0" y="30.0">Ultralight</text>
            <text x="450.0" y="30.0">Regular</text>
            <text x="650.0" y="30.0">Black</text>
            <text id="template-version" fill="#505050" text-anchor="end" x="785.0" y="575.0">Template v.3.0</text>
            <a href="https://github.com/swhitty/SwiftDraw">
                <text fill="#505050" text-anchor="end" x="785.0" y="590.0">https://github.com/swhitty/SwiftDraw</text>
            </a>
        </g>
    </g>
    <g id="Guides" stroke="rgb(39, 170, 225)" stroke-width="0.5">
        <path id="Capline-S" d="M18,76 l800,0" />
        <path id="H-reference" d="M85,145.755 L87.685,145.755 L113.369,79.287 L114.052,79.287 L114.052,76 L112.148,76 L85,145.755 Z M95.693,121.536 L130.996,121.536 L130.263,119.313 L96.474,119.313 L95.693,121.536 Z M139.15,145.755 L141.787,145.755 L114.638,76 L113.466,76 L113.466,79.287 L139.15,145.755 Z" stroke="none" />
        <path id="Baseline-S" d="M18,146 l800,0" />
        <path id="left-margin-Ultralight-S" d="M221,56 l0,110" />
        <path id="right-margin-Ultralight-S" d="M309,56 l0,110" />
        <path id="left-margin-Regular-S" d="M421,56 l0,110" />
        <path id="right-margin-Regular-S" d="M509,56 l0,110" />
        <path id="left-margin-Black-S" d="M621,56 l0,110" />
        <path id="right-margin-Black-S" d="M709,56 l0,110" />
        <path id="Capline-M" d="M18,276 l800,0" />
        <path id="Baseline-M" d="M18,346 l800,0" />
        <path id="Capline-L" d="M18,476 l800,0" />
        <path id="Baseline-L" d="M18,546 l800,0" />
    </g>
    <g id="Symbols">
        <g id="Ultralight-S">
            <path d="M253.797,125.573 L252.402,144.193 C252.304,145.501 253.467,146.402 254.507,145.819 C261.873,141.693 284.947,126.538 296.642,93.23 C297.178,91.702 295.737,90.324 294.507,91.185 C287.599,96.023 272.502,106.022 263.172,107.927 C263.172,107.927 269.147,103.777 272.723,97.407 C273.073,96.782 273.044,95.983 272.653,95.419 L259.612,76.621 C258.839,75.507 257.253,75.969 256.973,77.389 L252.913,98.048 L233.857,114.681 C232.901,115.514 233.096,117.199 234.199,117.645 L253.797,125.573 Z" />
            <path d="M287.496,118.234 C286.289,119.918 283.69,123.382 281.289,125.499 C280.809,125.922 280.874,126.632 281.425,126.978 L294.107,134.939 C294.871,135.418 295.902,134.85 295.773,134.018 C295.183,130.214 293.483,122.281 289.186,118.116 C288.706,117.652 287.879,117.7 287.496,118.234 Z" />
        </g>
        <g id="Regular-S">
            <path d="M453.797,125.573 L452.402,144.193 C452.304,145.501 453.467,146.402 454.507,145.819 C461.873,141.693 484.947,126.538 496.642,93.23 C497.178,91.702 495.737,90.324 494.507,91.185 C487.599,96.023 472.502,106.022 463.172,107.927 C463.172,107.927 469.147,103.777 472.723,97.407 C473.073,96.782 473.044,95.983 472.653,95.419 L459.612,76.621 C458.839,75.507 457.253,75.969 456.973,77.389 L452.913,98.048 L433.857,114.681 C432.901,115.514 433.096,117.199 434.199,117.645 L453.797,125.573 Z" />
            <path d="M487.496,118.234 C486.289,119.918 483.69,123.382 481.289,125.499 C480.809,125.922 480.874,126.632 481.425,126.978 L494.107,134.939 C494.871,135.418 495.902,134.85 495.773,134.018 C495.183,130.214 493.483,122.281 489.186,118.116 C488.706,117.652 487.879,117.7 487.496,118.234 Z" />
        </g>
        <g id="Black-S">
            <path d="M653.797,125.573 L652.402,144.193 C652.304,145.501 653.467,146.402 654.507,145.819 C661.873,141.693 684.947,126.538 696.642,93.23 C697.178,91.702 695.737,90.324 694.507,91.185 C687.599,96.023 672.502,106.022 663.172,107.927 C663.172,107.927 669.147,103.777 672.723,97.407 C673.073,96.782 673.044,95.983 672.653,95.419 L659.612,76.621 C658.839,75.507 657.253,75.969 656.974,77.389 L652.913,98.048 L633.857,114.681 C632.901,115.514 633.096,117.199 634.199,117.645 L653.797,125.573 Z" />
            <path d="M687.496,118.234 C686.289,119.918 683.69,123.382 681.289,125.499 C680.809,125.922 680.874,126.632 681.425,126.978 L694.107,134.939 C694.871,135.418 695.902,134.85 695.773,134.018 C695.183,130.214 693.483,122.281 689.186,118.116 C688.706,117.652 687.879,117.7 687.496,118.234 Z" />
        </g>
    </g>
</svg>