<?xml version="1.0" encoding="UTF-8"?>
<svg height="600" width="800" xmlns="http://www.w3.org/2000/svg" xmlns:xlink="http://www.w3.org/1999/xlink">
    <g id="Notes" font-family="'LucidaGrande', 'Lucida Grande', sans-serif" font-size="13">
        <rect fill="white" height="600.0" width="800.0" x="0.0" y="0.0" />
        <g font-size="13">
            <text x="18.0" y="176.0">Small</text>
            <text x="18.0" y="376.0">Medium</text>
            <text x="18.0" y="576.0">Large</text>
        </g>
        <g font-size="9">
            <text x="250.0" y="30.0">Ultralight</text>
            <text x="450.0" y="30.0">Regular</text>
            <text x="650.0" y="30.0">Black</text>
            <text id="template-version" fill="#505050" text-anchor="end" x="785.0" y="575.0">Template v.3.0</text>
            <a href="https://github.com/swhitty/SwiftDraw">
                <text fill="#505050" text-anchor="end" x="785.0" y="590.0">https://github.com/swhitty/SwiftDraw</text>
            </a>
        </g>
    </g>
    <g id="Guides" stroke="rgb(39, 170, 225)" stroke-width="0.5">
        <path id="Capline-S" d="M18,76 l800,0" />
        <path id="H-reference" d="M85,145.755 L87.685,145.755 L113.369,79.287 L114.052,79.287 L114.052,76 L112.148,76 L85,145.755 Z M95.693,121.536 L130.996,121.536 L130.263,119.313 L96.474,119.313 L95.693,121.536 Z M139.15,145.755 L141.787,145.755 L114.638,76 L113.466,76 L113.466,79.287 L139.15,145.755 Z" stroke="none" />
        <path id="Baseline-S" d="M18,146 l800,0" />
        <path id="left-margin-Ultralight-S" d="M221,56 l0,110" />
        <path id="right-margin-Ultralight-S" d="M309,56 l0,110" />
        <path id="left-margin-Regular-S" d="M421,56 l0,110" />
        <path id="right-margin-Regular-S" d="M509,56 l0,110" />
        <path id="left-margin-Black-S" d="M621,56 l0,110" />
        <path id="right-margin-Black-S" d="M709,56 l0,110" />
        <path id="Capline-M" d="M18,276 l800,0" />
        <path id="Baseline-M" d="M18,346 l800,0" />
        <path id="Capline-L" d="M18,476 l800,0" />
        <path id="Baseline-L" d="M18,546 l800,0" />
    </g>
    <g id="Symbols">
        <g id="Ultralight-S">
            <path d="M255.278,83.778 C255.278,88.073 251.795,91.556 247.5,91.556 C243.205,91.556 239.722,88.073 239.722,83.778 C239.722,79.482 243.205,76 247.5,76 C251.795,76 255.278,79.482 255.278,83.778 Z M247.5,118.778 C251.795,118.778 255.278,115.295 255.278,111 C255.278,106.705 251.795,103.222 247.5,103.222 C243.205,103.222 239.722,106.705 239.722,111 C239.722,115.295 243.205,118.778 247.5,118.778 Z M247.5,146 C251.795,146 255.278,142.518 255.278,138.222 C255.278,133.927 251.795,130.444 247.5,130.444 C243.205,130.444 239.722,133.927 239.722,138.222 C239.722,142.518 243.205,146 247.5,146 Z" />
            <path d="M290.278,83.778 C290.278,88.073 286.795,91.556 282.5,91.556 C278.205,91.556 274.722,88.073 274.722,83.778 C274.722,79.482 278.205,76 282.5,76 C286.795,76 290.278,79.482 290.278,83.778 Z M282.5,118.778 C286.795,118.778 290.278,115.295 290.278,111 C290.278,106.705 286.795,103.222 282.5,103.222 C278.205,103.222 274.722,106.705 274.722,111 C274.722,115.295 278.205,118.778 282.5,118.778 Z M282.5,146 C286.795,146 290.278,142.518 290.278,138.222 C290.278,133.927 286.795,130.444 282.5,130.444 C278.205,130.444 274.722,133.927 274.722,138.222 C274.722,142.518 278.205,146 282.5,146 Z" />
        </g>
        <g id="Regular-S">
            <path d="M455.278,83.778 C455.278,88.073 451.795,91.556 447.5,91.556 C443.205,91.556 439.722,88.073 439.722,83.778 C439.722,79.482 443.205,76 447.5,76 C451.795,76 455.278,79.482 455.278,83.778 Z M447.5,118.778 C451.795,118.778 455.278,115.295 455.278,111 C455.278,106.705 451.795,103.222 447.5,103.222 C443.205,103.222 439.722,106.705 439.722,111 C439.722,115.295 443.205,118.778 447.5,118.778 Z M447.5,146 C451.795,146 455.278,142.518 455.278,138.222 C455.278,133.927 451.795,130.444 447.5,130.444 C443.205,130.444 439.722,133.927 439.722,138.222 C439.722,142.518 443.205,146 447.5,146 Z" />
            <path d="M490.278,83.778 C490.278,88.073 486.795,91.556 482.5,91.556 C478.205,91.556 474.722,88.073 474.722,83.778 C474.722,79.482 478.205,76 482.5,76 C486.795,76 490.278,79.482 490.278,83.778 Z M482.5,118.778 C486.795,118.778 490.278,115.295 490.278,111 C490.278,106.705 486.795,103.222 482.5,103.222 C478.205,103.222 474.722,106.705 474.722,111 C474.722,115.295 478.205,118.778 482.5,118.778 Z M482.5,146 C486.795,146 490.278,142.518 490.278,138.222 C490.278,133.927 486.795,130.444 482.5,130.444 C478.205,130.444 474.722,133.927 474.722,138.222 C474.722,142.518 478.205,146 482.5,146 Z" />
        </g>
        <g id="Black-S">
            <path d="M655.278,83.778 C655.278,88.073 651.795,91.556 647.5,91.556 C643.205,91.556 639.722,88.073 639.722,83.778 C639.722,79.482 643.205,76 647.5,76 C651.795,76 655.278,79.482 655.278,83.778 Z M647.5,118.778 C651.795,118.778 655.278,115.295 655.278,111 C655.278,106.705 651.795,103.222 647.5,103.222 C643.205,103.222 639.722,106.705 639.722,111 C639.722,115.295 643.205,118.778 647.5,118.778 Z M647.5,146 C651.795,146 655.278,142.518 655.278,138.222 C655.278,133.927 651.795,130.444 647.5,130.444 C643.205,130.444 639.722,133.927 639.722,138.222 C639.722,142.518 643.205,146 647.5,146 Z" />
            <path d="M690.278,83.778 C690.278,88.073 686.795,91.556 682.5,91.556 C678.205,91.556 674.722,88.073 674.722,83.778 C674.722,79.482 678.205,76 682.5,76 C686.795,76 690.278,79.482 690.278,83.778 Z M682.5,118.778 C686.795,118.778 690.278,115.295 690.278,111 C690.278,106.705 686.795,103.222 682.5,103.222 C678.205,103.222 674.722,106.705 674.722,111 C674.722,115.295 678.205,118.778 682.5,118.778 Z M682.5,146 C686.795,146 690.278,142.518 690.278,138.222 C690.278,133.927 686.795,130.444 682.5,130.444 C678.205,130.444 674.722,133.927 674.722,138.222 C674.722,142.518 678.205,146 682.5,146 Z" />
        </g>
    </g>
</svg>