<?xml version="1.0" encoding="UTF-8"?>
<svg height="600" width="800" xmlns="http://www.w3.org/2000/svg" xmlns:xlink="http://www.w3.org/1999/xlink">
    <g id="Notes" font-family="'LucidaGrande', 'Lucida Grande', sans-serif" font-size="13">
        <rect fill="white" height="600.0" width="800.0" x="0.0" y="0.0" />
        <g font-size="13">
            <text x="18.0" y="176.0">Small</text>
            <text x="18.0" y="376.0">Medium</text>
            <text x="18.0" y="576.0">Large</text>
        </g>
        <g font-size="9">
            <text x="250.0" y="30.0">Ultralight</text>
            <text x="450.0" y="30.0">Regular</text>
            <text x="650.0" y="30.0">Black</text>
            <text id="template-version" fill="#505050" text-anchor="end" x="785.0" y="575.0">Template v.3.0</text>
            <a href="https://github.com/swhitty/SwiftDraw">
                <text fill="#505050" text-anchor="end" x="785.0" y="590.0">https://github.com/swhitty/SwiftDraw</text>
            </a>
        </g>
    </g>
    <g id="Guides" stroke="rgb(39, 170, 225)" stroke-width="0.5">
        <path id="Capline-S" d="M18,76 l800,0" />
        <path id="H-reference" d="M85,145.755 L87.685,145.755 L113.369,79.287 L114.052,79.287 L114.052,76 L112.148,76 L85,145.755 Z M95.693,121.536 L130.996,121.536 L130.263,119.313 L96.474,119.313 L95.693,121.536 Z M139.15,145.755 L141.787,145.755 L114.638,76 L113.466,76 L113.466,79.287 L139.15,145.755 Z" stroke="none" />
        <path id="Baseline-S" d="M18,146 l800,0" />
        <path id="left-margin-Ultralight-S" d="M220,56 l0,110" />
        <path id="right-margin-Ultralight-S" d="M310,56 l0,110" />
        <path id="left-margin-Regular-S" d="M420,56 l0,110" />
        <path id="right-margin-Regular-S" d="M510,56 l0,110" />
        <path id="left-margin-Black-S" d="M620,56 l0,110" />
        <path id="right-margin-Black-S" d="M710,56 l0,110" />
        <path id="Capline-M" d="M18,276 l800,0" />
        <path id="Baseline-M" d="M18,346 l800,0" />
        <path id="Capline-L" d="M18,476 l800,0" />
        <path id="Baseline-L" d="M18,546 l800,0" />
    </g>
    <g id="Symbols">
        <g id="Ultralight-S">
            <path d="M295.116,111 C295.116,127.633 281.633,141.116 265,141.116 C248.367,141.116 234.884,127.633 234.884,111 C234.884,94.367 248.367,80.884 265,80.884 C266.349,80.884 267.442,79.79 267.442,78.442 C267.442,77.093 266.349,76 265,76 C245.67,76 230,91.67 230,111 C230,130.33 245.67,146 265,146 C284.33,146 300,130.33 300,111 C300,109.651 298.907,108.558 297.558,108.558 C296.21,108.558 295.116,109.651 295.116,111 Z" />
            <path d="M285.468,88.104 L286.027,89.823 L286.575,91.511 L288.349,91.511 L290.156,91.511 L290.156,89.069 L288.721,87.093 L287.259,88.155 L285.823,89.198 L286.372,90.885 L286.93,92.604 L289.253,91.849 L290.688,89.874 L289.226,88.812 L287.791,87.769 L286.355,88.812 L284.893,89.874 L286.329,91.849 L288.651,92.604 L289.21,90.885 L289.758,89.198 L288.322,88.155 L286.86,87.093 L285.425,89.069 L285.425,91.511 L287.232,91.511 L289.007,91.511 L289.555,89.823 L290.113,88.104 L287.791,87.35 L285.468,88.104 Z M290.113,86.595 L287.791,79.447 L285.468,86.595 L284.91,88.314 L287.232,89.069 L287.232,86.627 L285.425,86.627 L277.909,86.627 L283.99,91.044 L285.452,92.106 L286.887,90.131 L284.565,89.376 L284.006,91.095 L281.684,98.243 L287.764,93.825 L289.226,92.763 L287.791,90.787 L286.355,92.763 L287.817,93.825 L293.898,98.243 L291.575,91.095 L291.017,89.376 L288.694,90.131 L290.129,92.106 L291.591,91.044 L297.672,86.627 L290.156,86.627 L288.349,86.627 L288.349,89.069 L290.671,88.314 L290.113,86.595 Z" />
            <path d="M272.326,112.628 L272.326,122.395 C272.326,124.338 271.554,126.202 270.18,127.575 C268.806,128.949 266.943,129.721 265,129.721 C263.057,129.721 261.194,128.949 259.82,127.575 C258.446,126.202 257.674,124.338 257.674,122.395 L257.674,102.86 C257.674,100.918 258.446,99.054 259.82,97.68 C261.194,96.307 263.057,95.535 265,95.535 C266.943,95.535 268.806,96.307 270.18,97.68 C271.554,99.054 272.326,100.918 272.326,102.86 L272.326,112.628 Z M277.209,112.628 L277.209,102.86 C277.209,99.622 275.923,96.517 273.633,94.227 C271.344,91.938 268.238,90.651 265,90.651 C261.762,90.651 258.656,91.938 256.367,94.227 C254.077,96.517 252.791,99.622 252.791,102.86 L252.791,122.395 C252.791,125.633 254.077,128.739 256.367,131.029 C258.656,133.318 261.762,134.605 265,134.605 C268.238,134.605 271.344,133.318 273.633,131.029 C275.923,128.739 277.209,125.633 277.209,122.395 L277.209,112.628 Z" />
            <path d="M255.233,110.186 C249.877,110.186 244.651,115.489 244.651,122.395 C244.651,122.597 244.651,122.597 244.651,122.799 C244.651,132.08 244.651,132.08 244.651,138.323 C244.651,139.672 245.744,140.765 247.093,140.765 C248.442,140.765 249.535,139.672 249.535,138.323 C249.535,132.08 249.535,132.08 249.535,122.799 C249.535,122.597 249.535,122.597 249.535,122.395 C249.535,118.17 252.59,115.07 255.233,115.07 C256.581,115.07 257.674,113.977 257.674,112.628 C257.674,111.279 256.581,110.186 255.233,110.186 Z" />
            <path d="M274.767,115.07 C277.41,115.07 280.465,118.17 280.465,122.395 C280.465,131.679 280.465,131.679 280.465,137.86 C280.465,139.209 281.558,140.302 282.907,140.302 C284.256,140.302 285.349,139.209 285.349,137.86 C285.349,131.679 285.349,131.679 285.349,122.395 C285.349,115.489 280.123,110.186 274.767,110.186 C273.419,110.186 272.326,111.279 272.326,112.628 C272.326,113.977 273.419,115.07 274.767,115.07 Z" />
        </g>
        <g id="Regular-S">
            <path d="M495.116,111 C495.116,127.633 481.633,141.116 465,141.116 C448.367,141.116 434.884,127.633 434.884,111 C434.884,94.367 448.367,80.884 465,80.884 C466.349,80.884 467.442,79.79 467.442,78.442 C467.442,77.093 466.349,76 465,76 C445.67,76 430,91.67 430,111 C430,130.33 445.67,146 465,146 C484.33,146 500,130.33 500,111 C500,109.651 498.907,108.558 497.558,108.558 C496.21,108.558 495.116,109.651 495.116,111 Z" />
            <path d="M485.468,88.104 L486.027,89.823 L486.575,91.511 L488.349,91.511 L490.156,91.511 L490.156,89.069 L488.721,87.093 L487.259,88.155 L485.823,89.198 L486.372,90.885 L486.93,92.604 L489.253,91.849 L490.688,89.874 L489.226,88.812 L487.791,87.769 L486.355,88.812 L484.893,89.874 L486.329,91.849 L488.651,92.604 L489.21,90.885 L489.758,89.198 L488.322,88.155 L486.86,87.093 L485.425,89.069 L485.425,91.511 L487.232,91.511 L489.007,91.511 L489.555,89.823 L490.113,88.104 L487.791,87.35 L485.468,88.104 Z M490.113,86.595 L487.791,79.447 L485.468,86.595 L484.91,88.314 L487.232,89.069 L487.232,86.627 L485.425,86.627 L477.909,86.627 L483.99,91.044 L485.452,92.106 L486.887,90.131 L484.565,89.376 L484.006,91.095 L481.684,98.243 L487.764,93.825 L489.226,92.763 L487.791,90.787 L486.355,92.763 L487.817,93.825 L493.898,98.243 L491.575,91.095 L491.017,89.376 L488.694,90.131 L490.129,92.106 L491.591,91.044 L497.672,86.627 L490.156,86.627 L488.349,86.627 L488.349,89.069 L490.671,88.314 L490.113,86.595 Z" />
            <path d="M472.326,112.628 L472.326,122.395 C472.326,124.338 471.554,126.202 470.18,127.575 C468.806,128.949 466.943,129.721 465,129.721 C463.057,129.721 461.194,128.949 459.82,127.575 C458.446,126.202 457.674,124.338 457.674,122.395 L457.674,102.86 C457.674,100.918 458.446,99.054 459.82,97.68 C461.194,96.307 463.057,95.535 465,95.535 C466.943,95.535 468.806,96.307 470.18,97.68 C471.554,99.054 472.326,100.918 472.326,102.86 L472.326,112.628 Z M477.209,112.628 L477.209,102.86 C477.209,99.622 475.923,96.517 473.633,94.227 C471.344,91.938 468.238,90.651 465,90.651 C461.762,90.651 458.656,91.938 456.367,94.227 C454.077,96.517 452.791,99.622 452.791,102.86 L452.791,122.395 C452.791,125.633 454.077,128.739 456.367,131.029 C458.656,133.318 461.762,134.605 465,134.605 C468.238,134.605 471.344,133.318 473.633,131.029 C475.923,128.739 477.209,125.633 477.209,122.395 L477.209,112.628 Z" />
            <path d="M455.233,110.186 C449.877,110.186 444.651,115.489 444.651,122.395 C444.651,122.597 444.651,122.597 444.651,122.799 C444.651,132.08 444.651,132.08 444.651,138.323 C444.651,139.672 445.744,140.765 447.093,140.765 C448.442,140.765 449.535,139.672 449.535,138.323 C449.535,132.08 449.535,132.08 449.535,122.799 C449.535,122.597 449.535,122.597 449.535,122.395 C449.535,118.17 452.59,115.07 455.233,115.07 C456.581,115.07 457.674,113.977 457.674,112.628 C457.674,111.279 456.581,110.186 455.233,110.186 Z" />
            <path d="M474.767,115.07 C477.41,115.07 480.465,118.17 480.465,122.395 C480.465,131.679 480.465,131.679 480.465,137.86 C480.465,139.209 481.558,140.302 482.907,140.302 C484.256,140.302 485.349,139.209 485.349,137.86 C485.349,131.679 485.349,131.679 485.349,122.395 C485.349,115.489 480.123,110.186 474.767,110.186 C473.419,110.186 472.326,111.279 472.326,112.628 C472.326,113.977 473.419,115.07 474.767,115.07 Z" />
        </g>
        <g id="Black-S">
            <path d="M695.116,111 C695.116,127.633 681.633,141.116 665,141.116 C648.367,141.116 634.884,127.633 634.884,111 C634.884,94.367 648.367,80.884 665,80.884 C666.349,80.884 667.442,79.79 667.442,78.442 C667.442,77.093 666.349,76 665,76 C645.67,76 630,91.67 630,111 C630,130.33 645.67,146 665,146 C684.33,146 700,130.33 700,111 C700,109.651 698.907,108.558 697.558,108.558 C696.21,108.558 695.116,109.651 695.116,111 Z" />
            <path d="M685.468,88.104 L686.027,89.823 L686.575,91.511 L688.349,91.511 L690.156,91.511 L690.156,89.069 L688.721,87.093 L687.259,88.155 L685.823,89.198 L686.372,90.885 L686.93,92.604 L689.253,91.849 L690.688,89.874 L689.226,88.812 L687.791,87.769 L686.355,88.812 L684.893,89.874 L686.329,91.849 L688.651,92.604 L689.21,90.885 L689.758,89.198 L688.322,88.155 L686.86,87.093 L685.425,89.069 L685.425,91.511 L687.232,91.511 L689.007,91.511 L689.555,89.823 L690.113,88.104 L687.791,87.35 L685.468,88.104 Z M690.113,86.595 L687.791,79.447 L685.468,86.595 L684.91,88.314 L687.232,89.069 L687.232,86.627 L685.425,86.627 L677.909,86.627 L683.99,91.044 L685.452,92.106 L686.887,90.131 L684.565,89.376 L684.006,91.095 L681.684,98.243 L687.764,93.825 L689.226,92.763 L687.791,90.787 L686.355,92.763 L687.817,93.825 L693.898,98.243 L691.575,91.095 L691.016,89.376 L688.694,90.131 L690.129,92.106 L691.591,91.044 L697.672,86.627 L690.156,86.627 L688.349,86.627 L688.349,89.069 L690.671,88.314 L690.113,86.595 Z" />
            <path d="M672.326,112.628 L672.326,122.395 C672.326,124.338 671.554,126.202 670.18,127.575 C668.806,128.949 666.943,129.721 665,129.721 C663.057,129.721 661.194,128.949 659.82,127.575 C658.446,126.202 657.674,124.338 657.674,122.395 L657.674,102.86 C657.674,100.918 658.446,99.054 659.82,97.68 C661.194,96.307 663.057,95.535 665,95.535 C666.943,95.535 668.806,96.307 670.18,97.68 C671.554,99.054 672.326,100.918 672.326,102.86 L672.326,112.628 Z M677.209,112.628 L677.209,102.86 C677.209,99.622 675.923,96.517 673.633,94.227 C671.344,91.938 668.238,90.651 665,90.651 C661.762,90.651 658.656,91.938 656.367,94.227 C654.077,96.517 652.791,99.622 652.791,102.86 L652.791,122.395 C652.791,125.633 654.077,128.739 656.367,131.029 C658.656,133.318 661.762,134.605 665,134.605 C668.238,134.605 671.344,133.318 673.633,131.029 C675.923,128.739 677.209,125.633 677.209,122.395 L677.209,112.628 Z" />
            <path d="M655.233,110.186 C649.877,110.186 644.651,115.489 644.651,122.395 C644.651,122.597 644.651,122.597 644.651,122.799 C644.651,132.08 644.651,132.08 644.651,138.323 C644.651,139.672 645.744,140.765 647.093,140.765 C648.442,140.765 649.535,139.672 649.535,138.323 C649.535,132.08 649.535,132.08 649.535,122.799 C649.535,122.597 649.535,122.597 649.535,122.395 C649.535,118.17 652.59,115.07 655.233,115.07 C656.581,115.07 657.674,113.977 657.674,112.628 C657.674,111.279 656.581,110.186 655.233,110.186 Z" />
            <path d="M674.767,115.07 C677.41,115.07 680.465,118.17 680.465,122.395 C680.465,131.679 680.465,131.679 680.465,137.86 C680.465,139.209 681.558,140.302 682.907,140.302 C684.256,140.302 685.349,139.209 685.349,137.86 C685.349,131.679 685.349,131.679 685.349,122.395 C685.349,115.489 680.123,110.186 674.767,110.186 C673.419,110.186 672.326,111.279 672.326,112.628 C672.326,113.977 673.419,115.07 674.767,115.07 Z" />
        </g>
    </g>
</svg>