<?xml version="1.0" encoding="UTF-8"?>
<svg height="600" width="800" xmlns="http://www.w3.org/2000/svg" xmlns:xlink="http://www.w3.org/1999/xlink">
    <g id="Notes" font-family="'LucidaGrande', 'Lucida Grande', sans-serif" font-size="13">
        <rect fill="white" height="600.0" width="800.0" x="0.0" y="0.0" />
        <g font-size="13">
            <text x="18.0" y="176.0">Small</text>
            <text x="18.0" y="376.0">Medium</text>
            <text x="18.0" y="576.0">Large</text>
        </g>
        <g font-size="9">
            <text x="250.0" y="30.0">Ultralight</text>
            <text x="450.0" y="30.0">Regular</text>
            <text x="650.0" y="30.0">Black</text>
            <text id="template-version" fill="#505050" text-anchor="end" x="785.0" y="575.0">Template v.3.0</text>
            <a href="https://github.com/swhitty/SwiftDraw">
                <text fill="#505050" text-anchor="end" x="785.0" y="590.0">https://github.com/swhitty/SwiftDraw</text>
            </a>
        </g>
    </g>
    <g id="Guides" stroke="rgb(39, 170, 225)" stroke-width="0.5">
        <path id="Capline-S" d="M18,76 l800,0" />
        <path id="H-reference" d="M85,145.755 L87.685,145.755 L113.369,79.287 L114.052,79.287 L114.052,76 L112.148,76 L85,145.755 Z M95.693,121.536 L130.996,121.536 L130.263,119.313 L96.474,119.313 L95.693,121.536 Z M139.15,145.755 L141.787,145.755 L114.638,76 L113.466,76 L113.466,79.287 L139.15,145.755 Z" stroke="none" />
        <path id="Baseline-S" d="M18,146 l800,0" />
        <path id="left-margin-Ultralight-S" d="M213.582,56 l0,110" />
        <path id="right-margin-Ultralight-S" d="M316.418,56 l0,110" />
        <path id="left-margin-Regular-S" d="M413.582,56 l0,110" />
        <path id="right-margin-Regular-S" d="M516.418,56 l0,110" />
        <path id="left-margin-Black-S" d="M613.582,56 l0,110" />
        <path id="right-margin-Black-S" d="M716.418,56 l0,110" />
        <path id="Capline-M" d="M18,276 l800,0" />
        <path id="Baseline-M" d="M18,346 l800,0" />
        <path id="Capline-L" d="M18,476 l800,0" />
        <path id="Baseline-L" d="M18,546 l800,0" />
    </g>
    <g id="Symbols">
        <g id="Ultralight-S">
            <path d="M274.658,76 L232.582,76 C227.612,76 223.582,80.029 223.582,85 L223.582,137 C223.582,141.971 227.611,146 232.582,146 L297.408,146 C303.898,146 308.255,139.339 305.653,133.393 L282.903,81.393 C281.47,78.117 278.234,76 274.658,76 Z M274.658,82 C275.85,82 276.929,82.706 277.406,83.797 L300.156,135.797 C301.024,137.78 299.571,140 297.408,140 L232.582,140 C230.925,140 229.582,138.657 229.582,137 L229.582,85 C229.582,83.343 230.925,82 232.582,82 L274.658,82 Z" />
        </g>
        <g id="Regular-S">
            <path d="M474.658,76 L432.582,76 C427.612,76 423.582,80.029 423.582,85 L423.582,137 C423.582,141.971 427.612,146 432.582,146 L497.408,146 C503.898,146 508.255,139.339 505.653,133.393 L482.903,81.393 C481.47,78.117 478.234,76 474.658,76 Z M474.658,82 C475.85,82 476.929,82.706 477.406,83.797 L500.156,135.797 C501.024,137.78 499.571,140 497.408,140 L432.582,140 C430.925,140 429.582,138.657 429.582,137 L429.582,85 C429.582,83.343 430.925,82 432.582,82 L474.658,82 Z" />
        </g>
        <g id="Black-S">
            <path d="M674.658,76 L632.582,76 C627.612,76 623.582,80.029 623.582,85 L623.582,137 C623.582,141.971 627.612,146 632.582,146 L697.408,146 C703.898,146 708.255,139.339 705.653,133.393 L682.903,81.393 C681.47,78.117 678.234,76 674.658,76 Z M674.658,82 C675.85,82 676.929,82.706 677.406,83.797 L700.156,135.797 C701.024,137.78 699.571,140 697.408,140 L632.582,140 C630.925,140 629.582,138.657 629.582,137 L629.582,85 C629.582,83.343 630.925,82 632.582,82 L674.658,82 Z" />
        </g>
    </g>
</svg>