<?xml version="1.0" encoding="UTF-8"?>
<svg height="600" width="800" xmlns="http://www.w3.org/2000/svg" xmlns:xlink="http://www.w3.org/1999/xlink">
    <g id="Notes" font-family="'LucidaGrande', 'Lucida Grande', sans-serif" font-size="13">
        <rect fill="white" height="600.0" width="800.0" x="0.0" y="0.0" />
        <g font-size="13">
            <text x="18.0" y="176.0">Small</text>
            <text x="18.0" y="376.0">Medium</text>
            <text x="18.0" y="576.0">Large</text>
        </g>
        <g font-size="9">
            <text x="250.0" y="30.0">Ultralight</text>
            <text x="450.0" y="30.0">Regular</text>
            <text x="650.0" y="30.0">Black</text>
            <text id="template-version" fill="#505050" text-anchor="end" x="785.0" y="575.0">Template v.3.0</text>
            <a href="https://github.com/swhitty/SwiftDraw">
                <text fill="#505050" text-anchor="end" x="785.0" y="590.0">https://github.com/swhitty/SwiftDraw</text>
            </a>
        </g>
    </g>
    <g id="Guides" stroke="rgb(39, 170, 225)" stroke-width="0.5">
        <path id="Capline-S" d="M18,76 l800,0" />
        <path id="H-reference" d="M85,145.755 L87.685,145.755 L113.369,79.287 L114.052,79.287 L114.052,76 L112.148,76 L85,145.755 Z M95.693,121.536 L130.996,121.536 L130.263,119.313 L96.474,119.313 L95.693,121.536 Z M139.15,145.755 L141.787,145.755 L114.638,76 L113.466,76 L113.466,79.287 L139.15,145.755 Z" stroke="none" />
        <path id="Baseline-S" d="M18,146 l800,0" />
        <path id="left-margin-Ultralight-S" d="M221,56 l0,110" />
        <path id="right-margin-Ultralight-S" d="M309,56 l0,110" />
        <path id="left-margin-Regular-S" d="M421,56 l0,110" />
        <path id="right-margin-Regular-S" d="M509,56 l0,110" />
        <path id="left-margin-Black-S" d="M621,56 l0,110" />
        <path id="right-margin-Black-S" d="M709,56 l0,110" />
        <path id="Capline-M" d="M18,276 l800,0" />
        <path id="Baseline-M" d="M18,346 l800,0" />
        <path id="Capline-L" d="M18,476 l800,0" />
        <path id="Baseline-L" d="M18,546 l800,0" />
    </g>
    <g id="Symbols">
        <g id="Ultralight-S">
            <path d="M258.171,76 L241.098,76 C237.797,76 235.122,78.675 235.122,81.976 L235.122,140.024 C235.122,143.325 237.797,146 241.098,146 L288.902,146 C292.203,146 294.878,143.325 294.878,140.024 L294.878,112.28 C294.878,110.866 293.731,109.72 292.317,109.72 C290.903,109.72 289.756,110.866 289.756,112.28 L289.756,140.024 C289.756,140.496 289.374,140.878 288.902,140.878 L241.098,140.878 C240.626,140.878 240.244,140.496 240.244,140.024 L240.244,81.976 C240.244,81.504 240.626,81.122 241.098,81.122 L258.171,81.122 C259.585,81.122 260.732,79.975 260.732,78.561 C260.732,77.147 259.585,76 258.171,76 Z" />
            <path d="M271.829,81.122 L292.317,81.122 L289.756,78.561 L289.756,99.049 C289.756,100.463 290.903,101.61 292.317,101.61 C293.731,101.61 294.878,100.463 294.878,99.049 L294.878,78.561 C294.878,77.147 293.731,76 292.317,76 L271.829,76 C270.415,76 269.268,77.147 269.268,78.561 C269.268,79.975 270.415,81.122 271.829,81.122 Z" />
            <path d="M261.689,112.811 L292.421,82.079 C293.421,81.079 293.421,79.458 292.421,78.457 C291.421,77.457 289.799,77.457 288.799,78.457 L258.067,109.189 C257.067,110.189 257.067,111.81 258.067,112.811 C259.067,113.811 260.689,113.811 261.689,112.811 Z" />
        </g>
        <g id="Regular-S">
            <path d="M458.171,76 L441.098,76 C437.797,76 435.122,78.675 435.122,81.976 L435.122,140.024 C435.122,143.325 437.797,146 441.098,146 L488.902,146 C492.203,146 494.878,143.325 494.878,140.024 L494.878,112.28 C494.878,110.866 493.731,109.72 492.317,109.72 C490.903,109.72 489.756,110.866 489.756,112.28 L489.756,140.024 C489.756,140.496 489.374,140.878 488.902,140.878 L441.098,140.878 C440.626,140.878 440.244,140.496 440.244,140.024 L440.244,81.976 C440.244,81.504 440.626,81.122 441.098,81.122 L458.171,81.122 C459.585,81.122 460.732,79.975 460.732,78.561 C460.732,77.147 459.585,76 458.171,76 Z" />
            <path d="M471.829,81.122 L492.317,81.122 L489.756,78.561 L489.756,99.049 C489.756,100.463 490.903,101.61 492.317,101.61 C493.731,101.61 494.878,100.463 494.878,99.049 L494.878,78.561 C494.878,77.147 493.731,76 492.317,76 L471.829,76 C470.415,76 469.268,77.147 469.268,78.561 C469.268,79.975 470.415,81.122 471.829,81.122 Z" />
            <path d="M461.689,112.811 L492.421,82.079 C493.421,81.079 493.421,79.458 492.421,78.457 C491.421,77.457 489.799,77.457 488.799,78.457 L458.067,109.189 C457.067,110.189 457.067,111.81 458.067,112.811 C459.067,113.811 460.689,113.811 461.689,112.811 Z" />
        </g>
        <g id="Black-S">
            <path d="M658.171,76 L641.098,76 C637.797,76 635.122,78.675 635.122,81.976 L635.122,140.024 C635.122,143.325 637.797,146 641.098,146 L688.902,146 C692.203,146 694.878,143.325 694.878,140.024 L694.878,112.28 C694.878,110.866 693.732,109.72 692.317,109.72 C690.903,109.72 689.756,110.866 689.756,112.28 L689.756,140.024 C689.756,140.496 689.374,140.878 688.902,140.878 L641.098,140.878 C640.626,140.878 640.244,140.496 640.244,140.024 L640.244,81.976 C640.244,81.504 640.626,81.122 641.098,81.122 L658.171,81.122 C659.585,81.122 660.732,79.975 660.732,78.561 C660.732,77.147 659.585,76 658.171,76 Z" />
            <path d="M671.829,81.122 L692.317,81.122 L689.756,78.561 L689.756,99.049 C689.756,100.463 690.903,101.61 692.317,101.61 C693.732,101.61 694.878,100.463 694.878,99.049 L694.878,78.561 C694.878,77.147 693.732,76 692.317,76 L671.829,76 C670.415,76 669.268,77.147 669.268,78.561 C669.268,79.975 670.415,81.122 671.829,81.122 Z" />
            <path d="M661.689,112.811 L692.421,82.079 C693.421,81.079 693.421,79.458 692.421,78.457 C691.421,77.457 689.799,77.457 688.799,78.457 L658.067,109.189 C657.067,110.189 657.067,111.81 658.067,112.811 C659.068,113.811 660.689,113.811 661.689,112.811 Z" />
        </g>
    </g>
</svg>