<?xml version="1.0" encoding="UTF-8"?>
<svg height="600" width="800" xmlns="http://www.w3.org/2000/svg" xmlns:xlink="http://www.w3.org/1999/xlink">
    <g id="Notes" font-family="'LucidaGrande', 'Lucida Grande', sans-serif" font-size="13">
        <rect fill="white" height="600.0" width="800.0" x="0.0" y="0.0" />
        <g font-size="13">
            <text x="18.0" y="176.0">Small</text>
            <text x="18.0" y="376.0">Medium</text>
            <text x="18.0" y="576.0">Large</text>
        </g>
        <g font-size="9">
            <text x="250.0" y="30.0">Ultralight</text>
            <text x="450.0" y="30.0">Regular</text>
            <text x="650.0" y="30.0">Black</text>
            <text id="template-version" fill="#505050" text-anchor="end" x="785.0" y="575.0">Template v.3.0</text>
            <a href="https://github.com/swhitty/SwiftDraw">
                <text fill="#505050" text-anchor="end" x="785.0" y="590.0">https://github.com/swhitty/SwiftDraw</text>
            </a>
        </g>
    </g>
    <g id="Guides" stroke="rgb(39, 170, 225)" stroke-width="0.5">
        <path id="Capline-S" d="M18,76 l800,0" />
        <path id="H-reference" d="M85,145.755 L87.685,145.755 L113.369,79.287 L114.052,79.287 L114.052,76 L112.148,76 L85,145.755 Z M95.693,121.536 L130.996,121.536 L130.263,119.313 L96.474,119.313 L95.693,121.536 Z M139.15,145.755 L141.787,145.755 L114.638,76 L113.466,76 L113.466,79.287 L139.15,145.755 Z" stroke="none" />
        <path id="Baseline-S" d="M18,146 l800,0" />
        <path id="left-margin-Ultralight-S" d="M219.999,56 l0,110" />
        <path id="right-margin-Ultralight-S" d="M310.001,56 l0,110" />
        <path id="left-margin-Regular-S" d="M419.999,56 l0,110" />
        <path id="right-margin-Regular-S" d="M510.001,56 l0,110" />
        <path id="left-margin-Black-S" d="M619.999,56 l0,110" />
        <path id="right-margin-Black-S" d="M710.001,56 l0,110" />
        <path id="Capline-M" d="M18,276 l800,0" />
        <path id="Baseline-M" d="M18,346 l800,0" />
        <path id="Capline-L" d="M18,476 l800,0" />
        <path id="Baseline-L" d="M18,546 l800,0" />
    </g>
    <g id="Symbols">
        <g id="Ultralight-S">
            <path d="M250.349,92.279 L278.023,92.279 L276.786,91.942 C276.882,91.999 276.882,91.999 277.308,92.249 C277.722,92.491 278.185,92.762 278.685,93.053 C280.112,93.885 281.548,94.718 282.902,95.495 C283.012,95.559 283.012,95.559 283.123,95.622 C285.379,96.917 287.151,97.911 288.276,98.507 C289.248,99.022 290.751,99.402 292.836,99.77 C293.816,99.943 294.858,100.098 295.898,100.235 C296.522,100.316 297.01,100.374 297.296,100.404 L296.737,95.677 C296.569,95.737 296.267,95.844 295.873,95.981 C295.215,96.21 294.545,96.439 293.904,96.652 C293.724,96.712 293.724,96.712 293.544,96.771 C292.948,96.966 292.42,97.133 291.98,97.264 C291.673,97.355 291.331,97.451 290.956,97.553 C290.599,97.65 290.216,97.751 289.81,97.855 C288.899,98.087 287.919,98.324 286.939,98.552 C286.35,98.688 285.894,98.791 285.637,98.848 L286.163,98.791 L265,98.791 L243.837,98.791 L244.363,98.848 C244.106,98.791 243.65,98.688 243.061,98.552 C242.081,98.324 241.101,98.087 240.19,97.855 C239.784,97.751 239.401,97.65 239.044,97.553 C238.669,97.451 238.327,97.355 238.02,97.264 C237.58,97.133 237.052,96.966 236.456,96.771 C236.276,96.712 236.276,96.712 236.096,96.652 C235.455,96.439 234.785,96.21 234.127,95.981 C233.733,95.844 233.431,95.737 233.263,95.677 L232.704,100.404 C232.99,100.374 233.478,100.316 234.102,100.235 C235.142,100.098 236.184,99.943 237.164,99.77 C239.249,99.402 240.752,99.022 241.724,98.507 C242.807,97.934 244.247,97.036 245.984,95.876 C246.216,95.721 246.452,95.562 246.692,95.399 C247.852,94.613 249.055,93.772 250.233,92.931 C250.645,92.637 251.025,92.364 251.363,92.119 C251.567,91.971 251.712,91.866 251.792,91.807 L250.349,92.279 Z M250.349,87.395 C249.83,87.395 249.324,87.561 248.905,87.868 C248.835,87.919 248.695,88.022 248.498,88.164 C248.168,88.403 247.798,88.669 247.396,88.956 C246.248,89.775 245.076,90.594 243.951,91.357 C243.72,91.513 243.493,91.666 243.271,91.815 C241.662,92.89 240.339,93.714 239.439,94.191 C239.079,94.381 237.885,94.684 236.315,94.961 C235.415,95.12 234.442,95.265 233.468,95.392 C232.883,95.469 232.431,95.522 232.18,95.549 C229.601,95.828 229.178,99.404 231.62,100.276 C231.8,100.34 232.113,100.451 232.52,100.593 C233.199,100.829 233.891,101.066 234.557,101.287 C234.745,101.349 234.745,101.349 234.934,101.412 C235.57,101.62 236.14,101.8 236.631,101.946 C236.976,102.048 237.355,102.155 237.764,102.266 C238.146,102.37 238.553,102.477 238.981,102.586 C239.931,102.829 240.944,103.074 241.956,103.309 C242.564,103.45 243.037,103.557 243.311,103.617 C243.484,103.655 243.66,103.674 243.837,103.674 L265,103.674 L286.163,103.674 C286.34,103.674 286.516,103.655 286.689,103.617 C286.963,103.557 287.436,103.45 288.044,103.309 C289.056,103.074 290.069,102.829 291.019,102.586 C291.447,102.477 291.854,102.37 292.236,102.266 C292.645,102.155 293.024,102.048 293.369,101.946 C293.86,101.8 294.43,101.62 295.066,101.412 C295.255,101.349 295.255,101.349 295.443,101.287 C296.109,101.066 296.801,100.829 297.48,100.593 C297.887,100.451 298.2,100.34 298.38,100.276 C300.822,99.404 300.399,95.828 297.82,95.549 C297.569,95.522 297.117,95.469 296.532,95.392 C295.558,95.265 294.585,95.12 293.685,94.961 C292.115,94.684 290.921,94.381 290.561,94.191 C289.499,93.629 287.763,92.654 285.553,91.386 C285.444,91.323 285.444,91.323 285.334,91.261 C283.991,90.489 282.564,89.662 281.145,88.834 C280.648,88.545 280.188,88.276 279.776,88.034 C279.353,87.786 279.353,87.786 279.26,87.732 C278.885,87.512 278.458,87.395 278.023,87.395 L250.349,87.395 Z" />
            <path d="M255.331,91.564 L266.727,80.169 L263.146,80.031 L272.913,91.426 L274.767,87.395 L253.605,87.395 L255.331,91.564 Z M251.878,88.111 C250.34,89.649 251.429,92.279 253.605,92.279 L274.767,92.279 C276.854,92.279 277.979,89.832 276.621,88.248 L266.854,76.853 C265.928,75.773 264.279,75.709 263.273,76.715 L251.878,88.111 Z" />
            <path d="M280.465,101.233 L280.465,111 L285.349,111 L285.349,101.233 L280.465,101.233 Z" />
            <path d="M243.023,101.233 L243.023,111 L247.907,111 L247.907,101.233 L243.023,101.233 Z" />
            <path d="M234.872,143.801 L238.127,111.243 L235.698,113.442 L294.302,113.442 L291.873,111.243 L295.128,143.801 L297.558,141.116 L232.442,141.116 L234.872,143.801 Z M230.012,143.315 C229.868,144.753 230.997,146 232.442,146 L297.558,146 C299.003,146 300.132,144.753 299.988,143.315 L296.732,110.757 C296.607,109.509 295.557,108.558 294.302,108.558 L235.698,108.558 C234.443,108.558 233.393,109.509 233.268,110.757 L230.012,143.315 Z" />
            <path d="M260.93,133.791 C260.93,131.543 262.752,129.721 265,129.721 C267.248,129.721 269.07,131.543 269.07,133.791 L269.07,143.558 L271.512,141.116 L258.488,141.116 L260.93,143.558 L260.93,133.791 Z M256.047,133.791 L256.047,143.558 L256.047,146 L258.488,146 L271.512,146 L273.953,146 L273.953,143.558 L273.953,133.791 C273.953,128.846 269.945,124.837 265,124.837 C260.055,124.837 256.047,128.846 256.047,133.791 Z" />
        </g>
        <g id="Regular-S">
            <path d="M450.349,92.279 L478.023,92.279 L476.786,91.942 C476.882,91.999 476.882,91.999 477.308,92.249 C477.722,92.491 478.185,92.762 478.685,93.053 C480.112,93.885 481.548,94.718 482.902,95.495 C483.012,95.559 483.012,95.559 483.123,95.622 C485.379,96.917 487.151,97.911 488.276,98.507 C489.248,99.022 490.751,99.402 492.836,99.77 C493.816,99.943 494.858,100.098 495.898,100.235 C496.522,100.316 497.01,100.374 497.296,100.404 L496.737,95.677 C496.569,95.737 496.267,95.844 495.873,95.981 C495.215,96.21 494.545,96.439 493.904,96.652 C493.724,96.712 493.724,96.712 493.544,96.771 C492.948,96.966 492.42,97.133 491.98,97.264 C491.673,97.355 491.331,97.451 490.956,97.553 C490.599,97.65 490.216,97.751 489.81,97.855 C488.899,98.087 487.919,98.324 486.939,98.552 C486.35,98.688 485.894,98.791 485.637,98.848 L486.163,98.791 L465,98.791 L443.837,98.791 L444.363,98.848 C444.106,98.791 443.65,98.688 443.061,98.552 C442.081,98.324 441.101,98.087 440.19,97.855 C439.784,97.751 439.401,97.65 439.044,97.553 C438.669,97.451 438.327,97.355 438.02,97.264 C437.58,97.133 437.052,96.966 436.456,96.771 C436.276,96.712 436.276,96.712 436.096,96.652 C435.455,96.439 434.785,96.21 434.127,95.981 C433.733,95.844 433.431,95.737 433.263,95.677 L432.704,100.404 C432.99,100.374 433.478,100.316 434.102,100.235 C435.142,100.098 436.184,99.943 437.164,99.77 C439.249,99.402 440.752,99.022 441.724,98.507 C442.807,97.934 444.247,97.036 445.984,95.876 C446.216,95.721 446.452,95.562 446.692,95.399 C447.852,94.613 449.055,93.772 450.233,92.931 C450.645,92.637 451.025,92.364 451.363,92.119 C451.567,91.971 451.712,91.866 451.792,91.807 L450.349,92.279 Z M450.349,87.395 C449.83,87.395 449.324,87.561 448.905,87.868 C448.835,87.919 448.695,88.022 448.498,88.164 C448.168,88.403 447.798,88.669 447.396,88.956 C446.248,89.775 445.076,90.594 443.951,91.357 C443.72,91.513 443.493,91.666 443.271,91.815 C441.662,92.89 440.339,93.714 439.439,94.191 C439.079,94.381 437.885,94.684 436.315,94.961 C435.415,95.12 434.442,95.265 433.468,95.392 C432.883,95.469 432.431,95.522 432.18,95.549 C429.601,95.828 429.178,99.404 431.62,100.276 C431.8,100.34 432.113,100.451 432.52,100.593 C433.199,100.829 433.891,101.066 434.557,101.287 C434.745,101.349 434.745,101.349 434.934,101.412 C435.57,101.62 436.14,101.8 436.631,101.946 C436.976,102.048 437.355,102.155 437.764,102.266 C438.146,102.37 438.553,102.477 438.981,102.586 C439.931,102.829 440.944,103.074 441.956,103.309 C442.564,103.45 443.037,103.557 443.311,103.617 C443.484,103.655 443.66,103.674 443.837,103.674 L465,103.674 L486.163,103.674 C486.34,103.674 486.516,103.655 486.689,103.617 C486.963,103.557 487.436,103.45 488.044,103.309 C489.056,103.074 490.069,102.829 491.019,102.586 C491.447,102.477 491.854,102.37 492.236,102.266 C492.645,102.155 493.024,102.048 493.369,101.946 C493.86,101.8 494.43,101.62 495.066,101.412 C495.255,101.349 495.255,101.349 495.443,101.287 C496.109,101.066 496.801,100.829 497.48,100.593 C497.887,100.451 498.2,100.34 498.38,100.276 C500.822,99.404 500.399,95.828 497.82,95.549 C497.569,95.522 497.117,95.469 496.532,95.392 C495.558,95.265 494.585,95.12 493.685,94.961 C492.115,94.684 490.921,94.381 490.561,94.191 C489.499,93.629 487.763,92.654 485.553,91.386 C485.444,91.323 485.444,91.323 485.334,91.261 C483.991,90.489 482.564,89.662 481.145,88.834 C480.648,88.545 480.188,88.276 479.776,88.034 C479.353,87.786 479.353,87.786 479.26,87.732 C478.885,87.512 478.458,87.395 478.023,87.395 L450.349,87.395 Z" />
            <path d="M455.331,91.564 L466.727,80.169 L463.146,80.031 L472.913,91.426 L474.767,87.395 L453.605,87.395 L455.331,91.564 Z M451.878,88.111 C450.34,89.649 451.429,92.279 453.605,92.279 L474.767,92.279 C476.854,92.279 477.979,89.832 476.621,88.248 L466.854,76.853 C465.928,75.773 464.279,75.709 463.273,76.715 L451.878,88.111 Z" />
            <path d="M480.465,101.233 L480.465,111 L485.349,111 L485.349,101.233 L480.465,101.233 Z" />
            <path d="M443.023,101.233 L443.023,111 L447.907,111 L447.907,101.233 L443.023,101.233 Z" />
            <path d="M434.872,143.801 L438.127,111.243 L435.698,113.442 L494.302,113.442 L491.873,111.243 L495.128,143.801 L497.558,141.116 L432.442,141.116 L434.872,143.801 Z M430.012,143.315 C429.868,144.753 430.997,146 432.442,146 L497.558,146 C499.003,146 500.132,144.753 499.988,143.315 L496.732,110.757 C496.607,109.509 495.557,108.558 494.302,108.558 L435.698,108.558 C434.443,108.558 433.393,109.509 433.268,110.757 L430.012,143.315 Z" />
            <path d="M460.93,133.791 C460.93,131.543 462.752,129.721 465,129.721 C467.248,129.721 469.07,131.543 469.07,133.791 L469.07,143.558 L471.512,141.116 L458.488,141.116 L460.93,143.558 L460.93,133.791 Z M456.047,133.791 L456.047,143.558 L456.047,146 L458.488,146 L471.512,146 L473.953,146 L473.953,143.558 L473.953,133.791 C473.953,128.846 469.945,124.837 465,124.837 C460.055,124.837 456.047,128.846 456.047,133.791 Z" />
        </g>
        <g id="Black-S">
            <path d="M650.349,92.279 L678.023,92.279 L676.786,91.942 C676.882,91.999 676.882,91.999 677.308,92.249 C677.722,92.491 678.185,92.762 678.685,93.053 C680.112,93.885 681.548,94.718 682.902,95.495 C683.013,95.559 683.013,95.559 683.123,95.622 C685.379,96.917 687.151,97.911 688.276,98.507 C689.248,99.022 690.751,99.402 692.836,99.77 C693.816,99.943 694.858,100.098 695.898,100.235 C696.522,100.316 697.01,100.374 697.296,100.404 L696.737,95.677 C696.569,95.737 696.267,95.844 695.873,95.981 C695.215,96.21 694.545,96.439 693.904,96.652 C693.724,96.712 693.724,96.712 693.544,96.771 C692.948,96.966 692.42,97.133 691.98,97.264 C691.673,97.355 691.331,97.451 690.956,97.553 C690.599,97.65 690.216,97.751 689.81,97.855 C688.899,98.087 687.919,98.324 686.939,98.552 C686.35,98.688 685.894,98.791 685.637,98.848 L686.163,98.791 L665,98.791 L643.837,98.791 L644.363,98.848 C644.106,98.791 643.65,98.688 643.061,98.552 C642.081,98.324 641.101,98.087 640.19,97.855 C639.784,97.751 639.401,97.65 639.044,97.553 C638.669,97.451 638.327,97.355 638.02,97.264 C637.58,97.133 637.052,96.966 636.456,96.771 C636.276,96.712 636.276,96.712 636.096,96.652 C635.455,96.439 634.785,96.21 634.127,95.981 C633.733,95.844 633.431,95.737 633.263,95.677 L632.704,100.404 C632.99,100.374 633.478,100.316 634.102,100.235 C635.142,100.098 636.184,99.943 637.164,99.77 C639.249,99.402 640.752,99.022 641.724,98.507 C642.807,97.934 644.247,97.036 645.984,95.876 C646.216,95.721 646.452,95.562 646.692,95.399 C647.852,94.613 649.055,93.772 650.233,92.931 C650.645,92.637 651.025,92.364 651.363,92.119 C651.567,91.971 651.712,91.866 651.792,91.807 L650.349,92.279 Z M650.349,87.395 C649.83,87.395 649.324,87.561 648.905,87.868 C648.835,87.919 648.695,88.022 648.498,88.164 C648.168,88.403 647.798,88.669 647.396,88.956 C646.248,89.775 645.076,90.594 643.951,91.357 C643.72,91.513 643.493,91.666 643.271,91.815 C641.662,92.89 640.339,93.714 639.439,94.191 C639.079,94.381 637.885,94.684 636.315,94.961 C635.415,95.12 634.442,95.265 633.468,95.392 C632.883,95.469 632.431,95.522 632.18,95.549 C629.601,95.828 629.178,99.404 631.62,100.276 C631.8,100.34 632.113,100.451 632.52,100.593 C633.199,100.829 633.891,101.066 634.557,101.287 C634.745,101.349 634.745,101.349 634.935,101.412 C635.57,101.62 636.14,101.8 636.631,101.946 C636.976,102.048 637.355,102.155 637.764,102.266 C638.146,102.37 638.553,102.477 638.982,102.586 C639.931,102.829 640.944,103.074 641.956,103.309 C642.564,103.45 643.037,103.557 643.311,103.617 C643.484,103.655 643.66,103.674 643.837,103.674 L665,103.674 L686.163,103.674 C686.34,103.674 686.516,103.655 686.689,103.617 C686.963,103.557 687.437,103.45 688.044,103.309 C689.056,103.074 690.069,102.829 691.019,102.586 C691.447,102.477 691.854,102.37 692.236,102.266 C692.645,102.155 693.024,102.048 693.369,101.946 C693.86,101.8 694.43,101.62 695.066,101.412 C695.255,101.349 695.255,101.349 695.443,101.287 C696.109,101.066 696.801,100.829 697.48,100.593 C697.887,100.451 698.2,100.34 698.38,100.276 C700.822,99.404 700.399,95.828 697.82,95.549 C697.569,95.522 697.117,95.469 696.532,95.392 C695.558,95.265 694.585,95.12 693.685,94.961 C692.115,94.684 690.921,94.381 690.561,94.191 C689.499,93.629 687.763,92.654 685.553,91.386 C685.444,91.323 685.444,91.323 685.334,91.261 C683.991,90.489 682.564,89.662 681.145,88.834 C680.648,88.545 680.188,88.276 679.776,88.034 C679.353,87.786 679.353,87.786 679.26,87.732 C678.885,87.512 678.458,87.395 678.023,87.395 L650.349,87.395 Z" />
            <path d="M655.331,91.564 L666.727,80.169 L663.146,80.031 L672.913,91.426 L674.767,87.395 L653.605,87.395 L655.331,91.564 Z M651.878,88.111 C650.34,89.649 651.429,92.279 653.605,92.279 L674.767,92.279 C676.854,92.279 677.979,89.832 676.621,88.248 L666.854,76.853 C665.928,75.773 664.279,75.709 663.273,76.715 L651.878,88.111 Z" />
            <path d="M680.465,101.233 L680.465,111 L685.349,111 L685.349,101.233 L680.465,101.233 Z" />
            <path d="M643.023,101.233 L643.023,111 L647.907,111 L647.907,101.233 L643.023,101.233 Z" />
            <path d="M634.872,143.801 L638.127,111.243 L635.698,113.442 L694.302,113.442 L691.873,111.243 L695.128,143.801 L697.558,141.116 L632.442,141.116 L634.872,143.801 Z M630.012,143.315 C629.868,144.753 630.997,146 632.442,146 L697.558,146 C699.003,146 700.132,144.753 699.988,143.315 L696.732,110.757 C696.607,109.509 695.557,108.558 694.302,108.558 L635.698,108.558 C634.443,108.558 633.393,109.509 633.268,110.757 L630.012,143.315 Z" />
            <path d="M660.93,133.791 C660.93,131.543 662.752,129.721 665,129.721 C667.248,129.721 669.07,131.543 669.07,133.791 L669.07,143.558 L671.512,141.116 L658.488,141.116 L660.93,143.558 L660.93,133.791 Z M656.047,133.791 L656.047,143.558 L656.047,146 L658.488,146 L671.512,146 L673.953,146 L673.953,143.558 L673.953,133.791 C673.953,128.846 669.945,124.837 665,124.837 C660.055,124.837 656.047,128.846 656.047,133.791 Z" />
        </g>
    </g>
</svg>