<?xml version="1.0" encoding="UTF-8"?>
<svg height="600" width="800" xmlns="http://www.w3.org/2000/svg" xmlns:xlink="http://www.w3.org/1999/xlink">
    <g id="Notes" font-family="'LucidaGrande', 'Lucida Grande', sans-serif" font-size="13">
        <rect fill="white" height="600.0" width="800.0" x="0.0" y="0.0" />
        <g font-size="13">
            <text x="18.0" y="176.0">Small</text>
            <text x="18.0" y="376.0">Medium</text>
            <text x="18.0" y="576.0">Large</text>
        </g>
        <g font-size="9">
            <text x="250.0" y="30.0">Ultralight</text>
            <text x="450.0" y="30.0">Regular</text>
            <text x="650.0" y="30.0">Black</text>
            <text id="template-version" fill="#505050" text-anchor="end" x="785.0" y="575.0">Template v.3.0</text>
            <a href="https://github.com/swhitty/SwiftDraw">
                <text fill="#505050" text-anchor="end" x="785.0" y="590.0">https://github.com/swhitty/SwiftDraw</text>
            </a>
        </g>
    </g>
    <g id="Guides" stroke="rgb(39, 170, 225)" stroke-width="0.5">
        <path id="Capline-S" d="M18,76 l800,0" />
        <path id="H-reference" d="M85,145.755 L87.685,145.755 L113.369,79.287 L114.052,79.287 L114.052,76 L112.148,76 L85,145.755 Z M95.693,121.536 L130.996,121.536 L130.263,119.313 L96.474,119.313 L95.693,121.536 Z M139.15,145.755 L141.787,145.755 L114.638,76 L113.466,76 L113.466,79.287 L139.15,145.755 Z" stroke="none" />
        <path id="Baseline-S" d="M18,146 l800,0" />
        <path id="left-margin-Ultralight-S" d="M212,56 l0,110" />
        <path id="right-margin-Ultralight-S" d="M318,56 l0,110" />
        <path id="left-margin-Regular-S" d="M412,56 l0,110" />
        <path id="right-margin-Regular-S" d="M518,56 l0,110" />
        <path id="left-margin-Black-S" d="M612,56 l0,110" />
        <path id="right-margin-Black-S" d="M718,56 l0,110" />
        <path id="Capline-M" d="M18,276 l800,0" />
        <path id="Baseline-M" d="M18,346 l800,0" />
        <path id="Capline-L" d="M18,476 l800,0" />
        <path id="Baseline-L" d="M18,546 l800,0" />
    </g>
    <g id="Symbols">
        <g id="Ultralight-S">
            <path d="M278,99 L278,95 C278,87.82 272.18,82 265,82 C257.82,82 252,87.82 252,95 L252,99 C252,100.657 253.343,102 255,102 C256.657,102 258,100.657 258,99 L258,95 C258,91.134 261.134,88 265,88 C268.866,88 272,91.134 272,95 L272,99 C272,100.657 273.343,102 275,102 C276.657,102 278,100.657 278,99 Z" />
            <path d="M251,102 L279,102 L276.133,98.118 L271.825,112.117 L274.692,110 L255.308,110 L258.175,112.117 L253.867,98.118 L251,102 Z M251,96 C248.982,96 247.539,97.953 248.133,99.882 L252.44,113.882 C252.828,115.141 253.991,116 255.308,116 L274.692,116 C276.009,116 277.172,115.141 277.56,113.882 L281.867,99.882 C282.461,97.953 281.018,96 279,96 L251,96 Z" />
            <path d="M238,107 L238,121 L241,118 L227,118 L230,121 L230,107 L227,110 L241,110 L238,107 Z M244,107 C244,105.343 242.657,104 241,104 L227,104 C225.343,104 224,105.343 224,107 L224,121 C224,122.657 225.343,124 227,124 L241,124 C242.657,124 244,122.657 244,121 L244,107 Z" />
            <path d="M300,107 L300,121 L303,118 L289,118 L292,121 L292,107 L289,110 L303,110 L300,107 Z M306,107 C306,105.343 304.657,104 303,104 L289,104 C287.343,104 286,105.343 286,107 L286,121 C286,122.657 287.343,124 289,124 L303,124 C304.657,124 306,122.657 306,121 L306,107 Z" />
            <path d="M249,76 L225,76 C223.343,76 222,77.343 222,79 C222,80.657 223.343,82 225,82 L249,82 C250.657,82 252,80.657 252,79 C252,77.343 250.657,76 249,76 Z" />
            <path d="M274.395,130.488 L282.395,144.488 C283.217,145.926 285.05,146.426 286.488,145.604 C287.927,144.782 288.427,142.95 287.605,141.511 L279.605,127.511 C278.783,126.073 276.95,125.573 275.512,126.395 C274.073,127.217 273.573,129.049 274.395,130.488 Z" />
            <path d="M250.395,127.511 L242.395,141.511 C241.573,142.95 242.073,144.782 243.512,145.604 C244.95,146.426 246.783,145.926 247.605,144.488 L255.605,130.488 C256.427,129.049 255.927,127.217 254.488,126.395 C253.05,125.573 251.217,126.073 250.395,127.511 Z" />
            <path d="M305,76 L281,76 C279.343,76 278,77.343 278,79 C278,80.657 279.343,82 281,82 L305,82 C306.657,82 308,80.657 308,79 C308,77.343 306.657,76 305,76 Z" />
        </g>
        <g id="Regular-S">
            <path d="M478,99 L478,95 C478,87.82 472.18,82 465,82 C457.82,82 452,87.82 452,95 L452,99 C452,100.657 453.343,102 455,102 C456.657,102 458,100.657 458,99 L458,95 C458,91.134 461.134,88 465,88 C468.866,88 472,91.134 472,95 L472,99 C472,100.657 473.343,102 475,102 C476.657,102 478,100.657 478,99 Z" />
            <path d="M451,102 L479,102 L476.133,98.118 L471.825,112.117 L474.692,110 L455.308,110 L458.175,112.117 L453.867,98.118 L451,102 Z M451,96 C448.982,96 447.539,97.953 448.133,99.882 L452.44,113.882 C452.828,115.141 453.991,116 455.308,116 L474.692,116 C476.009,116 477.172,115.141 477.56,113.882 L481.867,99.882 C482.461,97.953 481.018,96 479,96 L451,96 Z" />
            <path d="M438,107 L438,121 L441,118 L427,118 L430,121 L430,107 L427,110 L441,110 L438,107 Z M444,107 C444,105.343 442.657,104 441,104 L427,104 C425.343,104 424,105.343 424,107 L424,121 C424,122.657 425.343,124 427,124 L441,124 C442.657,124 444,122.657 444,121 L444,107 Z" />
            <path d="M500,107 L500,121 L503,118 L489,118 L492,121 L492,107 L489,110 L503,110 L500,107 Z M506,107 C506,105.343 504.657,104 503,104 L489,104 C487.343,104 486,105.343 486,107 L486,121 C486,122.657 487.343,124 489,124 L503,124 C504.657,124 506,122.657 506,121 L506,107 Z" />
            <path d="M449,76 L425,76 C423.343,76 422,77.343 422,79 C422,80.657 423.343,82 425,82 L449,82 C450.657,82 452,80.657 452,79 C452,77.343 450.657,76 449,76 Z" />
            <path d="M474.395,130.488 L482.395,144.488 C483.217,145.926 485.05,146.426 486.488,145.604 C487.927,144.782 488.427,142.95 487.605,141.511 L479.605,127.511 C478.783,126.073 476.95,125.573 475.512,126.395 C474.073,127.217 473.573,129.049 474.395,130.488 Z" />
            <path d="M450.395,127.511 L442.395,141.511 C441.573,142.95 442.073,144.782 443.512,145.604 C444.95,146.426 446.783,145.926 447.605,144.488 L455.605,130.488 C456.427,129.049 455.927,127.217 454.489,126.395 C453.05,125.573 451.217,126.073 450.395,127.511 Z" />
            <path d="M505,76 L481,76 C479.343,76 478,77.343 478,79 C478,80.657 479.343,82 481,82 L505,82 C506.657,82 508,80.657 508,79 C508,77.343 506.657,76 505,76 Z" />
        </g>
        <g id="Black-S">
            <path d="M678,99 L678,95 C678,87.82 672.18,82 665,82 C657.82,82 652,87.82 652,95 L652,99 C652,100.657 653.343,102 655,102 C656.657,102 658,100.657 658,99 L658,95 C658,91.134 661.134,88 665,88 C668.866,88 672,91.134 672,95 L672,99 C672,100.657 673.343,102 675,102 C676.657,102 678,100.657 678,99 Z" />
            <path d="M651,102 L679,102 L676.133,98.118 L671.825,112.117 L674.692,110 L655.308,110 L658.175,112.117 L653.867,98.118 L651,102 Z M651,96 C648.982,96 647.539,97.953 648.133,99.882 L652.44,113.882 C652.828,115.141 653.991,116 655.308,116 L674.692,116 C676.009,116 677.172,115.141 677.56,113.882 L681.867,99.882 C682.461,97.953 681.018,96 679,96 L651,96 Z" />
            <path d="M638,107 L638,121 L641,118 L627,118 L630,121 L630,107 L627,110 L641,110 L638,107 Z M644,107 C644,105.343 642.657,104 641,104 L627,104 C625.343,104 624,105.343 624,107 L624,121 C624,122.657 625.343,124 627,124 L641,124 C642.657,124 644,122.657 644,121 L644,107 Z" />
            <path d="M700,107 L700,121 L703,118 L689,118 L692,121 L692,107 L689,110 L703,110 L700,107 Z M706,107 C706,105.343 704.657,104 703,104 L689,104 C687.343,104 686,105.343 686,107 L686,121 C686,122.657 687.343,124 689,124 L703,124 C704.657,124 706,122.657 706,121 L706,107 Z" />
            <path d="M649,76 L625,76 C623.343,76 622,77.343 622,79 C622,80.657 623.343,82 625,82 L649,82 C650.657,82 652,80.657 652,79 C652,77.343 650.657,76 649,76 Z" />
            <path d="M674.395,130.488 L682.395,144.488 C683.217,145.926 685.05,146.426 686.488,145.604 C687.927,144.782 688.427,142.95 687.605,141.511 L679.605,127.511 C678.783,126.073 676.95,125.573 675.512,126.395 C674.073,127.217 673.573,129.049 674.395,130.488 Z" />
            <path d="M650.395,127.511 L642.395,141.511 C641.573,142.95 642.073,144.782 643.512,145.604 C644.95,146.426 646.783,145.926 647.605,144.488 L655.605,130.488 C656.427,129.049 655.927,127.217 654.489,126.395 C653.05,125.573 651.217,126.073 650.395,127.511 Z" />
            <path d="M705,76 L681,76 C679.343,76 678,77.343 678,79 C678,80.657 679.343,82 681,82 L705,82 C706.657,82 708,80.657 708,79 C708,77.343 706.657,76 705,76 Z" />
        </g>
    </g>
</svg>