<?xml version="1.0" encoding="UTF-8"?>
<svg height="600" width="800" xmlns="http://www.w3.org/2000/svg" xmlns:xlink="http://www.w3.org/1999/xlink">
    <g id="Notes" font-family="'LucidaGrande', 'Lucida Grande', sans-serif" font-size="13">
        <rect fill="white" height="600.0" width="800.0" x="0.0" y="0.0" />
        <g font-size="13">
            <text x="18.0" y="176.0">Small</text>
            <text x="18.0" y="376.0">Medium</text>
            <text x="18.0" y="576.0">Large</text>
        </g>
        <g font-size="9">
            <text x="250.0" y="30.0">Ultralight</text>
            <text x="450.0" y="30.0">Regular</text>
            <text x="650.0" y="30.0">Black</text>
            <text id="template-version" fill="#505050" text-anchor="end" x="785.0" y="575.0">Template v.3.0</text>
            <a href="https://github.com/swhitty/SwiftDraw">
                <text fill="#505050" text-anchor="end" x="785.0" y="590.0">https://github.com/swhitty/SwiftDraw</text>
            </a>
        </g>
    </g>
    <g id="Guides" stroke="rgb(39, 170, 225)" stroke-width="0.5">
        <path id="Capline-S" d="M18,76 l800,0" />
        <path id="H-reference" d="M85,145.755 L87.685,145.755 L113.369,79.287 L114.052,79.287 L114.052,76 L112.148,76 L85,145.755 Z M95.693,121.536 L130.996,121.536 L130.263,119.313 L96.474,119.313 L95.693,121.536 Z M139.15,145.755 L141.787,145.755 L114.638,76 L113.466,76 L113.466,79.287 L139.15,145.755 Z" stroke="none" />
        <path id="Baseline-S" d="M18,146 l800,0" />
        <path id="left-margin-Ultralight-S" d="M216.41,56 l0,110" />
        <path id="right-margin-Ultralight-S" d="M313.59,56 l0,110" />
        <path id="left-margin-Regular-S" d="M416.41,56 l0,110" />
        <path id="right-margin-Regular-S" d="M513.59,56 l0,110" />
        <path id="left-margin-Black-S" d="M616.41,56 l0,110" />
        <path id="right-margin-Black-S" d="M713.59,56 l0,110" />
        <path id="Capline-M" d="M18,276 l800,0" />
        <path id="Baseline-M" d="M18,346 l800,0" />
        <path id="Capline-L" d="M18,476 l800,0" />
        <path id="Baseline-L" d="M18,546 l800,0" />
    </g>
    <g id="Symbols">
        <g id="Ultralight-S">
            <path d="M257.821,113.692 L300.897,113.692 C302.384,113.692 303.59,112.487 303.59,111 C303.59,109.513 302.384,108.308 300.897,108.308 L257.821,108.308 C256.334,108.308 255.128,109.513 255.128,111 C255.128,112.487 256.334,113.692 257.821,113.692 Z" />
            <path d="M257.821,138.821 L300.897,138.821 C302.384,138.821 303.59,137.615 303.59,136.128 C303.59,134.641 302.384,133.436 300.897,133.436 L257.821,133.436 C256.334,133.436 255.128,134.641 255.128,136.128 C255.128,137.615 256.334,138.821 257.821,138.821 Z" />
            <path d="M257.821,88.564 L300.897,88.564 C302.384,88.564 303.59,87.359 303.59,85.872 C303.59,84.385 302.384,83.179 300.897,83.179 L257.821,83.179 C256.334,83.179 255.128,84.385 255.128,85.872 C255.128,87.359 256.334,88.564 257.821,88.564 Z" />
            <path d="M240.769,128.949 L240.769,143.308 L243.462,140.615 L229.103,140.615 L231.795,143.308 L231.795,128.949 L229.103,131.641 L243.462,131.641 L240.769,128.949 Z M246.154,128.949 C246.154,127.462 244.948,126.256 243.462,126.256 L229.103,126.256 C227.616,126.256 226.41,127.462 226.41,128.949 L226.41,143.308 C226.41,144.795 227.616,146 229.103,146 L243.462,146 C244.948,146 246.154,144.795 246.154,143.308 L246.154,128.949 Z" />
            <path d="M240.769,103.821 L240.769,118.179 L243.462,115.487 L229.103,115.487 L231.795,118.179 L231.795,103.821 L229.103,106.513 L243.462,106.513 L240.769,103.821 Z M246.154,103.821 C246.154,102.334 244.948,101.128 243.462,101.128 L229.103,101.128 C227.616,101.128 226.41,102.334 226.41,103.821 L226.41,118.179 C226.41,119.666 227.616,120.872 229.103,120.872 L243.462,120.872 C244.948,120.872 246.154,119.666 246.154,118.179 L246.154,103.821 Z" />
            <path d="M240.769,78.692 L240.769,93.051 L243.462,90.359 L229.103,90.359 L231.795,93.051 L231.795,78.692 L229.103,81.385 L243.462,81.385 L240.769,78.692 Z M246.154,78.692 C246.154,77.205 244.948,76 243.462,76 L229.103,76 C227.616,76 226.41,77.205 226.41,78.692 L226.41,93.051 C226.41,94.538 227.616,95.744 229.103,95.744 L243.462,95.744 C244.948,95.744 246.154,94.538 246.154,93.051 L246.154,78.692 Z" />
        </g>
        <g id="Regular-S">
            <path d="M457.82,113.692 L500.897,113.692 C502.384,113.692 503.59,112.487 503.59,111 C503.59,109.513 502.384,108.308 500.897,108.308 L457.82,108.308 C456.334,108.308 455.128,109.513 455.128,111 C455.128,112.487 456.334,113.692 457.82,113.692 Z" />
            <path d="M457.82,138.821 L500.897,138.821 C502.384,138.821 503.59,137.615 503.59,136.128 C503.59,134.641 502.384,133.436 500.897,133.436 L457.82,133.436 C456.334,133.436 455.128,134.641 455.128,136.128 C455.128,137.615 456.334,138.821 457.82,138.821 Z" />
            <path d="M457.82,88.564 L500.897,88.564 C502.384,88.564 503.59,87.359 503.59,85.872 C503.59,84.385 502.384,83.179 500.897,83.179 L457.82,83.179 C456.334,83.179 455.128,84.385 455.128,85.872 C455.128,87.359 456.334,88.564 457.82,88.564 Z" />
            <path d="M440.769,128.949 L440.769,143.308 L443.462,140.615 L429.103,140.615 L431.795,143.308 L431.795,128.949 L429.103,131.641 L443.462,131.641 L440.769,128.949 Z M446.154,128.949 C446.154,127.462 444.948,126.256 443.462,126.256 L429.103,126.256 C427.616,126.256 426.41,127.462 426.41,128.949 L426.41,143.308 C426.41,144.795 427.616,146 429.103,146 L443.462,146 C444.948,146 446.154,144.795 446.154,143.308 L446.154,128.949 Z" />
            <path d="M440.769,103.821 L440.769,118.179 L443.462,115.487 L429.103,115.487 L431.795,118.179 L431.795,103.821 L429.103,106.513 L443.462,106.513 L440.769,103.821 Z M446.154,103.821 C446.154,102.334 444.948,101.128 443.462,101.128 L429.103,101.128 C427.616,101.128 426.41,102.334 426.41,103.821 L426.41,118.179 C426.41,119.666 427.616,120.872 429.103,120.872 L443.462,120.872 C444.948,120.872 446.154,119.666 446.154,118.179 L446.154,103.821 Z" />
            <path d="M440.769,78.692 L440.769,93.051 L443.462,90.359 L429.103,90.359 L431.795,93.051 L431.795,78.692 L429.103,81.385 L443.462,81.385 L440.769,78.692 Z M446.154,78.692 C446.154,77.205 444.948,76 443.462,76 L429.103,76 C427.616,76 426.41,77.205 426.41,78.692 L426.41,93.051 C426.41,94.538 427.616,95.744 429.103,95.744 L443.462,95.744 C444.948,95.744 446.154,94.538 446.154,93.051 L446.154,78.692 Z" />
        </g>
        <g id="Black-S">
            <path d="M657.821,113.692 L700.897,113.692 C702.384,113.692 703.59,112.487 703.59,111 C703.59,109.513 702.384,108.308 700.897,108.308 L657.821,108.308 C656.334,108.308 655.128,109.513 655.128,111 C655.128,112.487 656.334,113.692 657.821,113.692 Z" />
            <path d="M657.821,138.821 L700.897,138.821 C702.384,138.821 703.59,137.615 703.59,136.128 C703.59,134.641 702.384,133.436 700.897,133.436 L657.821,133.436 C656.334,133.436 655.128,134.641 655.128,136.128 C655.128,137.615 656.334,138.821 657.821,138.821 Z" />
            <path d="M657.821,88.564 L700.897,88.564 C702.384,88.564 703.59,87.359 703.59,85.872 C703.59,84.385 702.384,83.179 700.897,83.179 L657.821,83.179 C656.334,83.179 655.128,84.385 655.128,85.872 C655.128,87.359 656.334,88.564 657.821,88.564 Z" />
            <path d="M640.769,128.949 L640.769,143.308 L643.462,140.615 L629.103,140.615 L631.795,143.308 L631.795,128.949 L629.103,131.641 L643.462,131.641 L640.769,128.949 Z M646.154,128.949 C646.154,127.462 644.948,126.256 643.462,126.256 L629.103,126.256 C627.616,126.256 626.41,127.462 626.41,128.949 L626.41,143.308 C626.41,144.795 627.616,146 629.103,146 L643.462,146 C644.948,146 646.154,144.795 646.154,143.308 L646.154,128.949 Z" />
            <path d="M640.769,103.821 L640.769,118.179 L643.462,115.487 L629.103,115.487 L631.795,118.179 L631.795,103.821 L629.103,106.513 L643.462,106.513 L640.769,103.821 Z M646.154,103.821 C646.154,102.334 644.948,101.128 643.462,101.128 L629.103,101.128 C627.616,101.128 626.41,102.334 626.41,103.821 L626.41,118.179 C626.41,119.666 627.616,120.872 629.103,120.872 L643.462,120.872 C644.948,120.872 646.154,119.666 646.154,118.179 L646.154,103.821 Z" />
            <path d="M640.769,78.692 L640.769,93.051 L643.462,90.359 L629.103,90.359 L631.795,93.051 L631.795,78.692 L629.103,81.385 L643.462,81.385 L640.769,78.692 Z M646.154,78.692 C646.154,77.205 644.948,76 643.462,76 L629.103,76 C627.616,76 626.41,77.205 626.41,78.692 L626.41,93.051 C626.41,94.538 627.616,95.744 629.103,95.744 L643.462,95.744 C644.948,95.744 646.154,94.538 646.154,93.051 L646.154,78.692 Z" />
        </g>
    </g>
</svg>