<?xml version="1.0" encoding="UTF-8"?>
<svg height="600" width="800" xmlns="http://www.w3.org/2000/svg" xmlns:xlink="http://www.w3.org/1999/xlink">
    <g id="Notes" font-family="'LucidaGrande', 'Lucida Grande', sans-serif" font-size="13">
        <rect fill="white" height="600.0" width="800.0" x="0.0" y="0.0" />
        <g font-size="13">
            <text x="18.0" y="176.0">Small</text>
            <text x="18.0" y="376.0">Medium</text>
            <text x="18.0" y="576.0">Large</text>
        </g>
        <g font-size="9">
            <text x="250.0" y="30.0">Ultralight</text>
            <text x="450.0" y="30.0">Regular</text>
            <text x="650.0" y="30.0">Black</text>
            <text id="template-version" fill="#505050" text-anchor="end" x="785.0" y="575.0">Template v.3.0</text>
            <a href="https://github.com/swhitty/SwiftDraw">
                <text fill="#505050" text-anchor="end" x="785.0" y="590.0">https://github.com/swhitty/SwiftDraw</text>
            </a>
        </g>
    </g>
    <g id="Guides" stroke="rgb(39, 170, 225)" stroke-width="0.5">
        <path id="Capline-S" d="M18,76 l800,0" />
        <path id="H-reference" d="M85,145.755 L87.685,145.755 L113.369,79.287 L114.052,79.287 L114.052,76 L112.148,76 L85,145.755 Z M95.693,121.536 L130.996,121.536 L130.263,119.313 L96.474,119.313 L95.693,121.536 Z M139.15,145.755 L141.787,145.755 L114.638,76 L113.466,76 L113.466,79.287 L139.15,145.755 Z" stroke="none" />
        <path id="Baseline-S" d="M18,146 l800,0" />
        <path id="left-margin-Ultralight-S" d="M220,56 l0,110" />
        <path id="right-margin-Ultralight-S" d="M310,56 l0,110" />
        <path id="left-margin-Regular-S" d="M420,56 l0,110" />
        <path id="right-margin-Regular-S" d="M510,56 l0,110" />
        <path id="left-margin-Black-S" d="M620,56 l0,110" />
        <path id="right-margin-Black-S" d="M710,56 l0,110" />
        <path id="Capline-M" d="M18,276 l800,0" />
        <path id="Baseline-M" d="M18,346 l800,0" />
        <path id="Capline-L" d="M18,476 l800,0" />
        <path id="Baseline-L" d="M18,546 l800,0" />
    </g>
    <g id="Symbols">
        <g id="Ultralight-S">
            <path d="M294.615,111 L294.615,137.923 C294.615,138.637 294.332,139.322 293.827,139.827 C293.322,140.332 292.637,140.615 291.923,140.615 L238.077,140.615 C237.363,140.615 236.678,140.332 236.173,139.827 C235.668,139.322 235.385,138.637 235.385,137.923 L235.385,84.077 C235.385,83.363 235.668,82.678 236.173,82.173 C236.678,81.668 237.363,81.385 238.077,81.385 L291.923,81.385 C292.637,81.385 293.322,81.668 293.827,82.173 C294.332,82.678 294.615,83.363 294.615,84.077 L294.615,111 Z M300,111 L300,84.077 C300,81.935 299.149,79.88 297.634,78.366 C296.12,76.851 294.065,76 291.923,76 L238.077,76 C235.935,76 233.88,76.851 232.366,78.366 C230.851,79.88 230,81.935 230,84.077 L230,137.923 C230,140.065 230.851,142.12 232.366,143.634 C233.88,145.149 235.935,146 238.077,146 L291.923,146 C294.065,146 296.12,145.149 297.634,143.634 C299.149,142.12 300,140.065 300,137.923 L300,111 Z" />
            <path d="M234.511,120.164 L253.704,102.571 C254.039,102.264 254.55,102.255 254.895,102.551 L277.607,122.019 C278.736,122.986 280.435,122.855 281.403,121.726 C282.371,120.598 282.24,118.898 281.111,117.93 L258.399,98.463 C255.986,96.394 252.408,96.454 250.066,98.602 L230.873,116.195 C229.777,117.2 229.703,118.903 230.708,119.999 C231.712,121.095 233.415,121.169 234.511,120.164 Z" />
            <path d="M274.083,112.904 L282.651,104.336 C282.967,104.02 283.467,103.985 283.824,104.253 L295.692,113.154 C296.882,114.046 298.569,113.805 299.461,112.615 C300.354,111.426 300.113,109.738 298.923,108.846 L287.055,99.945 C284.554,98.069 281.054,98.318 278.843,100.528 L270.276,109.096 C269.224,110.148 269.224,111.852 270.276,112.904 C271.327,113.955 273.032,113.955 274.083,112.904 Z" />
            <path d="M230,103.821 L230,121.769 C230,123.256 231.205,124.462 232.692,124.462 C234.179,124.462 235.385,123.256 235.385,121.769 L235.385,103.821 C235.385,102.334 234.179,101.128 232.692,101.128 C231.205,101.128 230,102.334 230,103.821 Z" />
            <path d="M294.615,103.821 L294.615,121.769 C294.615,123.256 295.821,124.462 297.308,124.462 C298.795,124.462 300,123.256 300,121.769 L300,103.821 C300,102.334 298.795,101.128 297.308,101.128 C295.821,101.128 294.615,102.334 294.615,103.821 Z" />
        </g>
        <g id="Regular-S">
            <path d="M494.615,111 L494.615,137.923 C494.615,138.637 494.332,139.322 493.827,139.827 C493.322,140.332 492.637,140.615 491.923,140.615 L438.077,140.615 C437.363,140.615 436.678,140.332 436.173,139.827 C435.668,139.322 435.385,138.637 435.385,137.923 L435.385,84.077 C435.385,83.363 435.668,82.678 436.173,82.173 C436.678,81.668 437.363,81.385 438.077,81.385 L491.923,81.385 C492.637,81.385 493.322,81.668 493.827,82.173 C494.332,82.678 494.615,83.363 494.615,84.077 L494.615,111 Z M500,111 L500,84.077 C500,81.935 499.149,79.88 497.634,78.366 C496.12,76.851 494.065,76 491.923,76 L438.077,76 C435.935,76 433.88,76.851 432.366,78.366 C430.851,79.88 430,81.935 430,84.077 L430,137.923 C430,140.065 430.851,142.12 432.366,143.634 C433.88,145.149 435.935,146 438.077,146 L491.923,146 C494.065,146 496.12,145.149 497.634,143.634 C499.149,142.12 500,140.065 500,137.923 L500,111 Z" />
            <path d="M434.512,120.164 L453.704,102.571 C454.039,102.264 454.55,102.255 454.895,102.551 L477.607,122.019 C478.736,122.986 480.435,122.855 481.403,121.726 C482.371,120.598 482.24,118.898 481.111,117.93 L458.399,98.463 C455.986,96.394 452.408,96.454 450.066,98.602 L430.873,116.195 C429.777,117.2 429.703,118.903 430.708,119.999 C431.712,121.095 433.415,121.169 434.512,120.164 Z" />
            <path d="M474.083,112.904 L482.651,104.336 C482.967,104.02 483.467,103.985 483.824,104.253 L495.692,113.154 C496.882,114.046 498.569,113.805 499.461,112.615 C500.354,111.426 500.113,109.738 498.923,108.846 L487.055,99.945 C484.554,98.069 481.054,98.318 478.843,100.528 L470.276,109.096 C469.224,110.148 469.224,111.852 470.276,112.904 C471.327,113.955 473.032,113.955 474.083,112.904 Z" />
            <path d="M430,103.821 L430,121.769 C430,123.256 431.205,124.462 432.692,124.462 C434.179,124.462 435.385,123.256 435.385,121.769 L435.385,103.821 C435.385,102.334 434.179,101.128 432.692,101.128 C431.205,101.128 430,102.334 430,103.821 Z" />
            <path d="M494.615,103.821 L494.615,121.769 C494.615,123.256 495.821,124.462 497.308,124.462 C498.795,124.462 500,123.256 500,121.769 L500,103.821 C500,102.334 498.795,101.128 497.308,101.128 C495.821,101.128 494.615,102.334 494.615,103.821 Z" />
        </g>
        <g id="Black-S">
            <path d="M694.615,111 L694.615,137.923 C694.615,138.637 694.332,139.322 693.827,139.827 C693.322,140.332 692.637,140.615 691.923,140.615 L638.077,140.615 C637.363,140.615 636.678,140.332 636.173,139.827 C635.668,139.322 635.385,138.637 635.385,137.923 L635.385,84.077 C635.385,83.363 635.668,82.678 636.173,82.173 C636.678,81.668 637.363,81.385 638.077,81.385 L691.923,81.385 C692.637,81.385 693.322,81.668 693.827,82.173 C694.332,82.678 694.615,83.363 694.615,84.077 L694.615,111 Z M700,111 L700,84.077 C700,81.935 699.149,79.88 697.634,78.366 C696.12,76.851 694.065,76 691.923,76 L638.077,76 C635.935,76 633.88,76.851 632.366,78.366 C630.851,79.88 630,81.935 630,84.077 L630,137.923 C630,140.065 630.851,142.12 632.366,143.634 C633.88,145.149 635.935,146 638.077,146 L691.923,146 C694.065,146 696.12,145.149 697.634,143.634 C699.149,142.12 700,140.065 700,137.923 L700,111 Z" />
            <path d="M634.511,120.164 L653.704,102.571 C654.039,102.264 654.55,102.255 654.895,102.551 L677.607,122.019 C678.736,122.986 680.435,122.855 681.403,121.726 C682.371,120.598 682.24,118.898 681.111,117.93 L658.399,98.463 C655.986,96.394 652.408,96.454 650.066,98.602 L630.873,116.195 C629.777,117.2 629.703,118.903 630.708,119.999 C631.712,121.095 633.415,121.169 634.511,120.164 Z" />
            <path d="M674.083,112.904 L682.651,104.336 C682.967,104.02 683.467,103.985 683.824,104.253 L695.692,113.154 C696.882,114.046 698.569,113.805 699.461,112.615 C700.354,111.426 700.112,109.738 698.923,108.846 L687.055,99.945 C684.554,98.069 681.054,98.318 678.843,100.528 L670.276,109.096 C669.224,110.148 669.224,111.852 670.276,112.904 C671.327,113.955 673.032,113.955 674.083,112.904 Z" />
            <path d="M630,103.821 L630,121.769 C630,123.256 631.205,124.462 632.692,124.462 C634.179,124.462 635.385,123.256 635.385,121.769 L635.385,103.821 C635.385,102.334 634.179,101.128 632.692,101.128 C631.205,101.128 630,102.334 630,103.821 Z" />
            <path d="M694.615,103.821 L694.615,121.769 C694.615,123.256 695.821,124.462 697.308,124.462 C698.794,124.462 700,123.256 700,121.769 L700,103.821 C700,102.334 698.794,101.128 697.308,101.128 C695.821,101.128 694.615,102.334 694.615,103.821 Z" />
        </g>
    </g>
</svg>