<?xml version="1.0" encoding="UTF-8"?>
<svg height="600" width="800" xmlns="http://www.w3.org/2000/svg" xmlns:xlink="http://www.w3.org/1999/xlink">
    <g id="Notes" font-family="'LucidaGrande', 'Lucida Grande', sans-serif" font-size="13">
        <rect fill="white" height="600.0" width="800.0" x="0.0" y="0.0" />
        <g font-size="13">
            <text x="18.0" y="176.0">Small</text>
            <text x="18.0" y="376.0">Medium</text>
            <text x="18.0" y="576.0">Large</text>
        </g>
        <g font-size="9">
            <text x="250.0" y="30.0">Ultralight</text>
            <text x="450.0" y="30.0">Regular</text>
            <text x="650.0" y="30.0">Black</text>
            <text id="template-version" fill="#505050" text-anchor="end" x="785.0" y="575.0">Template v.3.0</text>
            <a href="https://github.com/swhitty/SwiftDraw">
                <text fill="#505050" text-anchor="end" x="785.0" y="590.0">https://github.com/swhitty/SwiftDraw</text>
            </a>
        </g>
    </g>
    <g id="Guides" stroke="rgb(39, 170, 225)" stroke-width="0.5">
        <path id="Capline-S" d="M18,76 l800,0" />
        <path id="H-reference" d="M85,145.755 L87.685,145.755 L113.369,79.287 L114.052,79.287 L114.052,76 L112.148,76 L85,145.755 Z M95.693,121.536 L130.996,121.536 L130.263,119.313 L96.474,119.313 L95.693,121.536 Z M139.15,145.755 L141.787,145.755 L114.638,76 L113.466,76 L113.466,79.287 L139.15,145.755 Z" stroke="none" />
        <path id="Baseline-S" d="M18,146 l800,0" />
        <path id="left-margin-Ultralight-S" d="M221,56 l0,110" />
        <path id="right-margin-Ultralight-S" d="M309,56 l0,110" />
        <path id="left-margin-Regular-S" d="M421,56 l0,110" />
        <path id="right-margin-Regular-S" d="M509,56 l0,110" />
        <path id="left-margin-Black-S" d="M621,56 l0,110" />
        <path id="right-margin-Black-S" d="M709,56 l0,110" />
        <path id="Capline-M" d="M18,276 l800,0" />
        <path id="Baseline-M" d="M18,346 l800,0" />
        <path id="Capline-L" d="M18,476 l800,0" />
        <path id="Baseline-L" d="M18,546 l800,0" />
    </g>
    <g id="Symbols">
        <g id="Ultralight-S">
            <path d="M275.094,108.439 L246.069,108.439 C240.655,108.439 236.679,104.464 236.679,99.049 C236.679,93.634 240.655,89.659 246.069,89.659 L278.508,89.659 C279.923,89.659 281.069,88.512 281.069,87.098 C281.069,85.683 279.923,84.537 278.508,84.537 L246.069,84.537 C237.826,84.537 231.557,90.805 231.557,99.049 C231.557,107.292 237.826,113.561 246.069,113.561 L275.094,113.561 C276.508,113.561 277.655,112.414 277.655,111 C277.655,109.586 276.508,108.439 275.094,108.439 Z" />
            <path d="M237.533,137.463 L283.63,137.463 C291.874,137.463 298.143,131.195 298.143,122.951 C298.143,114.708 291.874,108.439 283.63,108.439 L275.094,108.439 C273.679,108.439 272.533,109.586 272.533,111 C272.533,112.414 273.679,113.561 275.094,113.561 L283.63,113.561 C289.045,113.561 293.021,117.536 293.021,122.951 C293.021,128.366 289.045,132.341 283.63,132.341 L237.533,132.341 C236.118,132.341 234.972,133.488 234.972,134.902 C234.972,136.317 236.118,137.463 237.533,137.463 Z" />
            <path d="M247.88,141.628 L239.344,133.092 L239.344,136.713 L247.88,128.177 C248.88,127.177 248.88,125.555 247.88,124.555 C246.88,123.555 245.259,123.555 244.259,124.555 L235.722,133.092 C234.722,134.092 234.722,135.713 235.722,136.713 L244.259,145.25 C245.259,146.25 246.88,146.25 247.88,145.25 C248.88,144.25 248.88,142.628 247.88,141.628 Z" />
            <path d="M293.321,87.098 C293.321,90.398 290.645,93.073 287.345,93.073 C284.045,93.073 281.37,90.398 281.37,87.098 C281.37,83.797 284.045,81.122 287.345,81.122 C290.645,81.122 293.321,83.797 293.321,87.098 Z M298.443,87.098 C298.443,80.969 293.474,76 287.345,76 C281.216,76 276.248,80.969 276.248,87.098 C276.248,93.227 281.216,98.195 287.345,98.195 C293.474,98.195 298.443,93.227 298.443,87.098 Z" />
        </g>
        <g id="Regular-S">
            <path d="M475.094,108.439 L446.069,108.439 C440.655,108.439 436.679,104.464 436.679,99.049 C436.679,93.634 440.655,89.659 446.069,89.659 L478.508,89.659 C479.923,89.659 481.069,88.512 481.069,87.098 C481.069,85.683 479.923,84.537 478.508,84.537 L446.069,84.537 C437.826,84.537 431.557,90.805 431.557,99.049 C431.557,107.292 437.826,113.561 446.069,113.561 L475.094,113.561 C476.508,113.561 477.655,112.414 477.655,111 C477.655,109.586 476.508,108.439 475.094,108.439 Z" />
            <path d="M437.533,137.463 L483.63,137.463 C491.874,137.463 498.143,131.195 498.143,122.951 C498.143,114.708 491.874,108.439 483.63,108.439 L475.094,108.439 C473.679,108.439 472.533,109.586 472.533,111 C472.533,112.414 473.679,113.561 475.094,113.561 L483.63,113.561 C489.045,113.561 493.021,117.536 493.021,122.951 C493.021,128.366 489.045,132.341 483.63,132.341 L437.533,132.341 C436.119,132.341 434.972,133.488 434.972,134.902 C434.972,136.317 436.119,137.463 437.533,137.463 Z" />
            <path d="M447.88,141.628 L439.344,133.092 L439.344,136.713 L447.88,128.177 C448.88,127.177 448.88,125.555 447.88,124.555 C446.88,123.555 445.259,123.555 444.259,124.555 L435.722,133.092 C434.722,134.092 434.722,135.713 435.722,136.713 L444.259,145.25 C445.259,146.25 446.88,146.25 447.88,145.25 C448.88,144.25 448.88,142.628 447.88,141.628 Z" />
            <path d="M493.321,87.098 C493.321,90.398 490.645,93.073 487.345,93.073 C484.045,93.073 481.37,90.398 481.37,87.098 C481.37,83.797 484.045,81.122 487.345,81.122 C490.645,81.122 493.321,83.797 493.321,87.098 Z M498.443,87.098 C498.443,80.969 493.474,76 487.345,76 C481.216,76 476.248,80.969 476.248,87.098 C476.248,93.227 481.216,98.195 487.345,98.195 C493.474,98.195 498.443,93.227 498.443,87.098 Z" />
        </g>
        <g id="Black-S">
            <path d="M675.094,108.439 L646.069,108.439 C640.655,108.439 636.679,104.464 636.679,99.049 C636.679,93.634 640.655,89.659 646.069,89.659 L678.508,89.659 C679.923,89.659 681.069,88.512 681.069,87.098 C681.069,85.683 679.923,84.537 678.508,84.537 L646.069,84.537 C637.826,84.537 631.557,90.805 631.557,99.049 C631.557,107.292 637.826,113.561 646.069,113.561 L675.094,113.561 C676.508,113.561 677.655,112.414 677.655,111 C677.655,109.586 676.508,108.439 675.094,108.439 Z" />
            <path d="M637.533,137.463 L683.63,137.463 C691.874,137.463 698.143,131.195 698.143,122.951 C698.143,114.708 691.874,108.439 683.63,108.439 L675.094,108.439 C673.679,108.439 672.533,109.586 672.533,111 C672.533,112.414 673.679,113.561 675.094,113.561 L683.63,113.561 C689.045,113.561 693.021,117.536 693.021,122.951 C693.021,128.366 689.045,132.341 683.63,132.341 L637.533,132.341 C636.119,132.341 634.972,133.488 634.972,134.902 C634.972,136.317 636.119,137.463 637.533,137.463 Z" />
            <path d="M647.88,141.628 L639.344,133.092 L639.344,136.713 L647.88,128.177 C648.88,127.177 648.88,125.555 647.88,124.555 C646.88,123.555 645.259,123.555 644.259,124.555 L635.722,133.092 C634.722,134.092 634.722,135.713 635.722,136.713 L644.259,145.25 C645.259,146.25 646.88,146.25 647.88,145.25 C648.88,144.25 648.88,142.628 647.88,141.628 Z" />
            <path d="M693.321,87.098 C693.321,90.398 690.645,93.073 687.345,93.073 C684.045,93.073 681.37,90.398 681.37,87.098 C681.37,83.797 684.045,81.122 687.345,81.122 C690.645,81.122 693.321,83.797 693.321,87.098 Z M698.443,87.098 C698.443,80.969 693.474,76 687.345,76 C681.216,76 676.248,80.969 676.248,87.098 C676.248,93.227 681.216,98.195 687.345,98.195 C693.474,98.195 698.443,93.227 698.443,87.098 Z" />
        </g>
    </g>
</svg>