<?xml version="1.0" encoding="UTF-8"?>
<svg height="600" width="800" xmlns="http://www.w3.org/2000/svg" xmlns:xlink="http://www.w3.org/1999/xlink">
    <g id="Notes" font-family="'LucidaGrande', 'Lucida Grande', sans-serif" font-size="13">
        <rect fill="white" height="600.0" width="800.0" x="0.0" y="0.0" />
        <g font-size="13">
            <text x="18.0" y="176.0">Small</text>
            <text x="18.0" y="376.0">Medium</text>
            <text x="18.0" y="576.0">Large</text>
        </g>
        <g font-size="9">
            <text x="250.0" y="30.0">Ultralight</text>
            <text x="450.0" y="30.0">Regular</text>
            <text x="650.0" y="30.0">Black</text>
            <text id="template-version" fill="#505050" text-anchor="end" x="785.0" y="575.0">Template v.3.0</text>
            <a href="https://github.com/swhitty/SwiftDraw">
                <text fill="#505050" text-anchor="end" x="785.0" y="590.0">https://github.com/swhitty/SwiftDraw</text>
            </a>
        </g>
    </g>
    <g id="Guides" stroke="rgb(39, 170, 225)" stroke-width="0.5">
        <path id="Capline-S" d="M18,76 l800,0" />
        <path id="H-reference" d="M85,145.755 L87.685,145.755 L113.369,79.287 L114.052,79.287 L114.052,76 L112.148,76 L85,145.755 Z M95.693,121.536 L130.996,121.536 L130.263,119.313 L96.474,119.313 L95.693,121.536 Z M139.15,145.755 L141.787,145.755 L114.638,76 L113.466,76 L113.466,79.287 L139.15,145.755 Z" stroke="none" />
        <path id="Baseline-S" d="M18,146 l800,0" />
        <path id="left-margin-Ultralight-S" d="M211,56 l0,110" />
        <path id="right-margin-Ultralight-S" d="M319,56 l0,110" />
        <path id="left-margin-Regular-S" d="M411,56 l0,110" />
        <path id="right-margin-Regular-S" d="M519,56 l0,110" />
        <path id="left-margin-Black-S" d="M611,56 l0,110" />
        <path id="right-margin-Black-S" d="M719,56 l0,110" />
        <path id="Capline-M" d="M18,276 l800,0" />
        <path id="Baseline-M" d="M18,346 l800,0" />
        <path id="Capline-L" d="M18,476 l800,0" />
        <path id="Baseline-L" d="M18,546 l800,0" />
    </g>
    <g id="Symbols">
        <g id="Ultralight-S">
            <path d="M246.793,95.828 L283.207,95.828 C309.506,95.828 309.506,126.172 283.207,126.172 L246.793,126.172 C234.494,126.172 227.069,119.49 227.069,111 C227.069,102.51 234.494,95.828 246.793,95.828 Z M246.793,89.759 C231.276,89.759 221,99.007 221,111 C221,122.993 231.276,132.241 246.793,132.241 L283.207,132.241 C317.598,132.241 317.598,89.759 283.207,89.759 L246.793,89.759 Z" />
            <path d="M261.966,117.069 L261.966,104.931 C261.966,103.255 260.607,101.897 258.931,101.897 C257.255,101.897 255.897,103.255 255.897,104.931 L255.897,117.069 C255.897,118.745 257.255,120.103 258.931,120.103 C260.607,120.103 261.966,118.745 261.966,117.069 Z" />
            <path d="M274.103,117.069 L274.103,104.931 C274.103,103.255 272.745,101.897 271.069,101.897 C269.393,101.897 268.034,103.255 268.034,104.931 L268.034,117.069 C268.034,118.745 269.393,120.103 271.069,120.103 C272.745,120.103 274.103,118.745 274.103,117.069 Z" />
            <path d="M286.241,117.069 L286.241,104.931 C286.241,103.255 284.883,101.897 283.207,101.897 C281.531,101.897 280.172,103.255 280.172,104.931 L280.172,117.069 C280.172,118.745 281.531,120.103 283.207,120.103 C284.883,120.103 286.241,118.745 286.241,117.069 Z" />
            <path d="M249.828,117.069 L249.828,104.931 C249.828,103.255 248.469,101.897 246.793,101.897 C245.117,101.897 243.759,103.255 243.759,104.931 L243.759,117.069 C243.759,118.745 245.117,120.103 246.793,120.103 C248.469,120.103 249.828,118.745 249.828,117.069 Z" />
            <path d="M289.276,107.966 L240.724,107.966 C239.048,107.966 237.69,109.324 237.69,111 C237.69,112.676 239.048,114.034 240.724,114.034 L289.276,114.034 C290.952,114.034 292.31,112.676 292.31,111 C292.31,109.324 290.952,107.966 289.276,107.966 Z" />
        </g>
        <g id="Regular-S">
            <path d="M446.793,95.828 L483.207,95.828 C509.506,95.828 509.506,126.172 483.207,126.172 L446.793,126.172 C434.494,126.172 427.069,119.49 427.069,111 C427.069,102.51 434.494,95.828 446.793,95.828 Z M446.793,89.759 C431.276,89.759 421,99.007 421,111 C421,122.993 431.276,132.241 446.793,132.241 L483.207,132.241 C517.598,132.241 517.598,89.759 483.207,89.759 L446.793,89.759 Z" />
            <path d="M461.966,117.069 L461.966,104.931 C461.966,103.255 460.607,101.897 458.931,101.897 C457.255,101.897 455.897,103.255 455.897,104.931 L455.897,117.069 C455.897,118.745 457.255,120.103 458.931,120.103 C460.607,120.103 461.966,118.745 461.966,117.069 Z" />
            <path d="M474.103,117.069 L474.103,104.931 C474.103,103.255 472.745,101.897 471.069,101.897 C469.393,101.897 468.034,103.255 468.034,104.931 L468.034,117.069 C468.034,118.745 469.393,120.103 471.069,120.103 C472.745,120.103 474.103,118.745 474.103,117.069 Z" />
            <path d="M486.241,117.069 L486.241,104.931 C486.241,103.255 484.883,101.897 483.207,101.897 C481.531,101.897 480.172,103.255 480.172,104.931 L480.172,117.069 C480.172,118.745 481.531,120.103 483.207,120.103 C484.883,120.103 486.241,118.745 486.241,117.069 Z" />
            <path d="M449.828,117.069 L449.828,104.931 C449.828,103.255 448.469,101.897 446.793,101.897 C445.117,101.897 443.759,103.255 443.759,104.931 L443.759,117.069 C443.759,118.745 445.117,120.103 446.793,120.103 C448.469,120.103 449.828,118.745 449.828,117.069 Z" />
            <path d="M489.276,107.966 L440.724,107.966 C439.048,107.966 437.69,109.324 437.69,111 C437.69,112.676 439.048,114.034 440.724,114.034 L489.276,114.034 C490.952,114.034 492.31,112.676 492.31,111 C492.31,109.324 490.952,107.966 489.276,107.966 Z" />
        </g>
        <g id="Black-S">
            <path d="M646.793,95.828 L683.207,95.828 C709.506,95.828 709.506,126.172 683.207,126.172 L646.793,126.172 C634.494,126.172 627.069,119.49 627.069,111 C627.069,102.51 634.494,95.828 646.793,95.828 Z M646.793,89.759 C631.276,89.759 621,99.007 621,111 C621,122.993 631.276,132.241 646.793,132.241 L683.207,132.241 C717.598,132.241 717.598,89.759 683.207,89.759 L646.793,89.759 Z" />
            <path d="M661.966,117.069 L661.966,104.931 C661.966,103.255 660.607,101.897 658.931,101.897 C657.255,101.897 655.897,103.255 655.897,104.931 L655.897,117.069 C655.897,118.745 657.255,120.103 658.931,120.103 C660.607,120.103 661.966,118.745 661.966,117.069 Z" />
            <path d="M674.103,117.069 L674.103,104.931 C674.103,103.255 672.745,101.897 671.069,101.897 C669.393,101.897 668.034,103.255 668.034,104.931 L668.034,117.069 C668.034,118.745 669.393,120.103 671.069,120.103 C672.745,120.103 674.103,118.745 674.103,117.069 Z" />
            <path d="M686.241,117.069 L686.241,104.931 C686.241,103.255 684.883,101.897 683.207,101.897 C681.531,101.897 680.172,103.255 680.172,104.931 L680.172,117.069 C680.172,118.745 681.531,120.103 683.207,120.103 C684.883,120.103 686.241,118.745 686.241,117.069 Z" />
            <path d="M649.828,117.069 L649.828,104.931 C649.828,103.255 648.469,101.897 646.793,101.897 C645.117,101.897 643.759,103.255 643.759,104.931 L643.759,117.069 C643.759,118.745 645.117,120.103 646.793,120.103 C648.469,120.103 649.828,118.745 649.828,117.069 Z" />
            <path d="M689.276,107.966 L640.724,107.966 C639.048,107.966 637.69,109.324 637.69,111 C637.69,112.676 639.048,114.034 640.724,114.034 L689.276,114.034 C690.952,114.034 692.31,112.676 692.31,111 C692.31,109.324 690.952,107.966 689.276,107.966 Z" />
        </g>
    </g>
</svg>