<?xml version="1.0" encoding="UTF-8"?>
<svg height="600" width="800" xmlns="http://www.w3.org/2000/svg" xmlns:xlink="http://www.w3.org/1999/xlink">
    <g id="Notes" font-family="'LucidaGrande', 'Lucida Grande', sans-serif" font-size="13">
        <rect fill="white" height="600.0" width="800.0" x="0.0" y="0.0" />
        <g font-size="13">
            <text x="18.0" y="176.0">Small</text>
            <text x="18.0" y="376.0">Medium</text>
            <text x="18.0" y="576.0">Large</text>
        </g>
        <g font-size="9">
            <text x="250.0" y="30.0">Ultralight</text>
            <text x="450.0" y="30.0">Regular</text>
            <text x="650.0" y="30.0">Black</text>
            <text id="template-version" fill="#505050" text-anchor="end" x="785.0" y="575.0">Template v.3.0</text>
            <a href="https://github.com/swhitty/SwiftDraw">
                <text fill="#505050" text-anchor="end" x="785.0" y="590.0">https://github.com/swhitty/SwiftDraw</text>
            </a>
        </g>
    </g>
    <g id="Guides" stroke="rgb(39, 170, 225)" stroke-width="0.5">
        <path id="Capline-S" d="M18,76 l800,0" />
        <path id="H-reference" d="M85,145.755 L87.685,145.755 L113.369,79.287 L114.052,79.287 L114.052,76 L112.148,76 L85,145.755 Z M95.693,121.536 L130.996,121.536 L130.263,119.313 L96.474,119.313 L95.693,121.536 Z M139.15,145.755 L141.787,145.755 L114.638,76 L113.466,76 L113.466,79.287 L139.15,145.755 Z" stroke="none" />
        <path id="Baseline-S" d="M18,146 l800,0" />
        <path id="left-margin-Ultralight-S" d="M221,56 l0,110" />
        <path id="right-margin-Ultralight-S" d="M309,56 l0,110" />
        <path id="left-margin-Regular-S" d="M421,56 l0,110" />
        <path id="right-margin-Regular-S" d="M509,56 l0,110" />
        <path id="left-margin-Black-S" d="M621,56 l0,110" />
        <path id="right-margin-Black-S" d="M709,56 l0,110" />
        <path id="Capline-M" d="M18,276 l800,0" />
        <path id="Baseline-M" d="M18,346 l800,0" />
        <path id="Capline-L" d="M18,476 l800,0" />
        <path id="Baseline-L" d="M18,546 l800,0" />
    </g>
    <g id="Symbols">
        <g id="Ultralight-S">
            <path d="M246.529,144.474 L252.005,130.938 C252.438,129.868 252.063,128.641 251.105,127.996 C244.081,123.272 239.767,115.293 239.767,106.56 C239.767,92.371 251.073,80.884 265,80.884 C278.927,80.884 290.233,92.371 290.233,106.56 C290.233,115.293 285.919,123.272 278.895,127.996 C277.937,128.641 277.562,129.868 277.995,130.938 L283.471,144.474 L285.734,141.116 L244.266,141.116 L246.529,144.474 Z M242.002,142.642 C241.353,144.248 242.534,146 244.266,146 L285.734,146 C287.466,146 288.647,144.248 287.998,142.642 L282.522,129.107 L281.621,132.049 C289.984,126.423 295.116,116.93 295.116,106.56 C295.116,89.691 281.641,76 265,76 C248.359,76 234.884,89.691 234.884,106.56 C234.884,116.93 240.016,126.423 248.379,132.049 L247.478,129.107 L242.002,142.642 Z" />
            <path d="M256.047,133.791 L256.047,143.558 C256.047,144.907 257.14,146 258.488,146 C259.837,146 260.93,144.907 260.93,143.558 L260.93,133.791 C260.93,132.442 259.837,131.349 258.488,131.349 C257.14,131.349 256.047,132.442 256.047,133.791 Z" />
            <path d="M269.07,133.791 L269.07,143.558 C269.07,144.907 270.163,146 271.512,146 C272.86,146 273.953,144.907 273.953,143.558 L273.953,133.791 C273.953,132.442 272.86,131.349 271.512,131.349 C270.163,131.349 269.07,132.442 269.07,133.791 Z" />
            <path d="M253.605,111.814 C257.651,111.814 260.93,108.534 260.93,104.488 C260.93,100.442 257.651,97.163 253.605,97.163 C249.559,97.163 246.279,100.442 246.279,104.488 C246.279,108.534 249.559,111.814 253.605,111.814 Z M253.605,106.93 C252.256,106.93 251.163,105.837 251.163,104.488 C251.163,103.14 252.256,102.047 253.605,102.047 C254.953,102.047 256.047,103.14 256.047,104.488 C256.047,105.837 254.953,106.93 253.605,106.93 Z" />
            <path d="M276.395,111.814 C280.441,111.814 283.721,108.534 283.721,104.488 C283.721,100.442 280.441,97.163 276.395,97.163 C272.349,97.163 269.07,100.442 269.07,104.488 C269.07,108.534 272.349,111.814 276.395,111.814 Z M276.395,106.93 C275.047,106.93 273.953,105.837 273.953,104.488 C273.953,103.14 275.047,102.047 276.395,102.047 C277.744,102.047 278.837,103.14 278.837,104.488 C278.837,105.837 277.744,106.93 276.395,106.93 Z" />
            <path d="M278.023,141.116 L265,141.116 C263.651,141.116 262.558,142.21 262.558,143.558 C262.558,144.907 263.651,146 265,146 L278.023,146 C279.372,146 280.465,144.907 280.465,143.558 C280.465,142.21 279.372,141.116 278.023,141.116 Z" />
            <path d="M265,141.116 L251.977,141.116 C250.628,141.116 249.535,142.21 249.535,143.558 C249.535,144.907 250.628,146 251.977,146 L265,146 C266.349,146 267.442,144.907 267.442,143.558 C267.442,142.21 266.349,141.116 265,141.116 Z" />
        </g>
        <g id="Regular-S">
            <path d="M446.529,144.474 L452.005,130.938 C452.438,129.868 452.063,128.641 451.105,127.996 C444.081,123.272 439.767,115.293 439.767,106.56 C439.767,92.371 451.073,80.884 465,80.884 C478.927,80.884 490.233,92.371 490.233,106.56 C490.233,115.293 485.919,123.272 478.895,127.996 C477.937,128.641 477.562,129.868 477.995,130.938 L483.471,144.474 L485.734,141.116 L444.266,141.116 L446.529,144.474 Z M442.002,142.642 C441.353,144.248 442.534,146 444.266,146 L485.734,146 C487.466,146 488.647,144.248 487.998,142.642 L482.522,129.107 L481.621,132.049 C489.984,126.423 495.116,116.93 495.116,106.56 C495.116,89.691 481.641,76 465,76 C448.359,76 434.884,89.691 434.884,106.56 C434.884,116.93 440.016,126.423 448.379,132.049 L447.478,129.107 L442.002,142.642 Z" />
            <path d="M456.047,133.791 L456.047,143.558 C456.047,144.907 457.14,146 458.488,146 C459.837,146 460.93,144.907 460.93,143.558 L460.93,133.791 C460.93,132.442 459.837,131.349 458.488,131.349 C457.14,131.349 456.047,132.442 456.047,133.791 Z" />
            <path d="M469.07,133.791 L469.07,143.558 C469.07,144.907 470.163,146 471.512,146 C472.86,146 473.953,144.907 473.953,143.558 L473.953,133.791 C473.953,132.442 472.86,131.349 471.512,131.349 C470.163,131.349 469.07,132.442 469.07,133.791 Z" />
            <path d="M453.605,111.814 C457.651,111.814 460.93,108.534 460.93,104.488 C460.93,100.442 457.651,97.163 453.605,97.163 C449.559,97.163 446.279,100.442 446.279,104.488 C446.279,108.534 449.559,111.814 453.605,111.814 Z M453.605,106.93 C452.256,106.93 451.163,105.837 451.163,104.488 C451.163,103.14 452.256,102.047 453.605,102.047 C454.953,102.047 456.047,103.14 456.047,104.488 C456.047,105.837 454.953,106.93 453.605,106.93 Z" />
            <path d="M476.395,111.814 C480.441,111.814 483.721,108.534 483.721,104.488 C483.721,100.442 480.441,97.163 476.395,97.163 C472.349,97.163 469.07,100.442 469.07,104.488 C469.07,108.534 472.349,111.814 476.395,111.814 Z M476.395,106.93 C475.047,106.93 473.953,105.837 473.953,104.488 C473.953,103.14 475.047,102.047 476.395,102.047 C477.744,102.047 478.837,103.14 478.837,104.488 C478.837,105.837 477.744,106.93 476.395,106.93 Z" />
            <path d="M478.023,141.116 L465,141.116 C463.651,141.116 462.558,142.21 462.558,143.558 C462.558,144.907 463.651,146 465,146 L478.023,146 C479.372,146 480.465,144.907 480.465,143.558 C480.465,142.21 479.372,141.116 478.023,141.116 Z" />
            <path d="M465,141.116 L451.977,141.116 C450.628,141.116 449.535,142.21 449.535,143.558 C449.535,144.907 450.628,146 451.977,146 L465,146 C466.349,146 467.442,144.907 467.442,143.558 C467.442,142.21 466.349,141.116 465,141.116 Z" />
        </g>
        <g id="Black-S">
            <path d="M646.529,144.474 L652.005,130.938 C652.438,129.868 652.063,128.641 651.105,127.996 C644.081,123.272 639.767,115.293 639.767,106.56 C639.767,92.371 651.073,80.884 665,80.884 C678.927,80.884 690.233,92.371 690.233,106.56 C690.233,115.293 685.919,123.272 678.895,127.996 C677.937,128.641 677.562,129.868 677.995,130.938 L683.471,144.474 L685.734,141.116 L644.266,141.116 L646.529,144.474 Z M642.002,142.642 C641.353,144.248 642.534,146 644.266,146 L685.734,146 C687.466,146 688.647,144.248 687.998,142.642 L682.522,129.107 L681.621,132.049 C689.984,126.423 695.116,116.93 695.116,106.56 C695.116,89.691 681.641,76 665,76 C648.359,76 634.884,89.691 634.884,106.56 C634.884,116.93 640.016,126.423 648.379,132.049 L647.478,129.107 L642.002,142.642 Z" />
            <path d="M656.047,133.791 L656.047,143.558 C656.047,144.907 657.14,146 658.488,146 C659.837,146 660.93,144.907 660.93,143.558 L660.93,133.791 C660.93,132.442 659.837,131.349 658.488,131.349 C657.14,131.349 656.047,132.442 656.047,133.791 Z" />
            <path d="M669.07,133.791 L669.07,143.558 C669.07,144.907 670.163,146 671.512,146 C672.86,146 673.953,144.907 673.953,143.558 L673.953,133.791 C673.953,132.442 672.86,131.349 671.512,131.349 C670.163,131.349 669.07,132.442 669.07,133.791 Z" />
            <path d="M653.605,111.814 C657.651,111.814 660.93,108.534 660.93,104.488 C660.93,100.442 657.651,97.163 653.605,97.163 C649.559,97.163 646.279,100.442 646.279,104.488 C646.279,108.534 649.559,111.814 653.605,111.814 Z M653.605,106.93 C652.256,106.93 651.163,105.837 651.163,104.488 C651.163,103.14 652.256,102.047 653.605,102.047 C654.953,102.047 656.047,103.14 656.047,104.488 C656.047,105.837 654.953,106.93 653.605,106.93 Z" />
            <path d="M676.395,111.814 C680.441,111.814 683.721,108.534 683.721,104.488 C683.721,100.442 680.441,97.163 676.395,97.163 C672.349,97.163 669.07,100.442 669.07,104.488 C669.07,108.534 672.349,111.814 676.395,111.814 Z M676.395,106.93 C675.047,106.93 673.953,105.837 673.953,104.488 C673.953,103.14 675.047,102.047 676.395,102.047 C677.744,102.047 678.837,103.14 678.837,104.488 C678.837,105.837 677.744,106.93 676.395,106.93 Z" />
            <path d="M678.023,141.116 L665,141.116 C663.651,141.116 662.558,142.21 662.558,143.558 C662.558,144.907 663.651,146 665,146 L678.023,146 C679.372,146 680.465,144.907 680.465,143.558 C680.465,142.21 679.372,141.116 678.023,141.116 Z" />
            <path d="M665,141.116 L651.977,141.116 C650.628,141.116 649.535,142.21 649.535,143.558 C649.535,144.907 650.628,146 651.977,146 L665,146 C666.349,146 667.442,144.907 667.442,143.558 C667.442,142.21 666.349,141.116 665,141.116 Z" />
        </g>
    </g>
</svg>