<?xml version="1.0" encoding="UTF-8"?>
<svg height="600" width="800" xmlns="http://www.w3.org/2000/svg" xmlns:xlink="http://www.w3.org/1999/xlink">
    <g id="Notes" font-family="'LucidaGrande', 'Lucida Grande', sans-serif" font-size="13">
        <rect fill="white" height="600.0" width="800.0" x="0.0" y="0.0" />
        <g font-size="13">
            <text x="18.0" y="176.0">Small</text>
            <text x="18.0" y="376.0">Medium</text>
            <text x="18.0" y="576.0">Large</text>
        </g>
        <g font-size="9">
            <text x="250.0" y="30.0">Ultralight</text>
            <text x="450.0" y="30.0">Regular</text>
            <text x="650.0" y="30.0">Black</text>
            <text id="template-version" fill="#505050" text-anchor="end" x="785.0" y="575.0">Template v.3.0</text>
            <a href="https://github.com/swhitty/SwiftDraw">
                <text fill="#505050" text-anchor="end" x="785.0" y="590.0">https://github.com/swhitty/SwiftDraw</text>
            </a>
        </g>
    </g>
    <g id="Guides" stroke="rgb(39, 170, 225)" stroke-width="0.5">
        <path id="Capline-S" d="M18,76 l800,0" />
        <path id="H-reference" d="M85,145.755 L87.685,145.755 L113.369,79.287 L114.052,79.287 L114.052,76 L112.148,76 L85,145.755 Z M95.693,121.536 L130.996,121.536 L130.263,119.313 L96.474,119.313 L95.693,121.536 Z M139.15,145.755 L141.787,145.755 L114.638,76 L113.466,76 L113.466,79.287 L139.15,145.755 Z" stroke="none" />
        <path id="Baseline-S" d="M18,146 l800,0" />
        <path id="left-margin-Ultralight-S" d="M220.897,56 l0,110" />
        <path id="right-margin-Ultralight-S" d="M309.103,56 l0,110" />
        <path id="left-margin-Regular-S" d="M420.897,56 l0,110" />
        <path id="right-margin-Regular-S" d="M509.103,56 l0,110" />
        <path id="left-margin-Black-S" d="M620.897,56 l0,110" />
        <path id="right-margin-Black-S" d="M709.103,56 l0,110" />
        <path id="Capline-M" d="M18,276 l800,0" />
        <path id="Baseline-M" d="M18,346 l800,0" />
        <path id="Capline-L" d="M18,476 l800,0" />
        <path id="Baseline-L" d="M18,546 l800,0" />
    </g>
    <g id="Symbols">
        <g id="Ultralight-S">
            <path d="M256.923,106.513 C265.349,106.513 272.179,99.682 272.179,91.256 C272.179,82.831 265.349,76 256.923,76 C248.497,76 241.667,82.831 241.667,91.256 C241.667,99.682 248.497,106.513 256.923,106.513 Z M256.923,101.128 C251.471,101.128 247.051,96.708 247.051,91.256 C247.051,85.804 251.471,81.385 256.923,81.385 C262.375,81.385 266.795,85.804 266.795,91.256 C266.795,96.708 262.375,101.128 256.923,101.128 Z" />
            <path d="M286.538,121.769 L286.538,139.718 C286.538,141.205 287.744,142.41 289.231,142.41 C290.718,142.41 291.923,141.205 291.923,139.718 L291.923,121.769 C291.923,120.282 290.718,119.077 289.231,119.077 C287.744,119.077 286.538,120.282 286.538,121.769 Z" />
            <path d="M298.314,127.045 L291.135,119.865 C290.083,118.814 288.378,118.814 287.327,119.865 L280.148,127.045 C279.096,128.096 279.096,129.801 280.148,130.852 C281.199,131.904 282.904,131.904 283.955,130.852 L291.135,123.673 L287.327,123.673 L294.507,130.852 C295.558,131.904 297.263,131.904 298.314,130.852 C299.365,129.801 299.365,128.096 298.314,127.045 Z" />
            <path d="M271.282,115.487 L256.564,115.487 C245.971,115.487 243.451,115.693 240.208,117.346 C236.999,118.98 234.391,121.589 232.756,124.797 C231.103,128.041 230.897,130.56 230.897,141.154 L230.897,143.308 C230.897,144.795 232.103,146 233.59,146 L271.282,146 C272.769,146 273.974,144.795 273.974,143.308 C273.974,141.821 272.769,140.615 271.282,140.615 L233.59,140.615 L233.59,143.308 L236.282,143.308 L236.282,141.154 C236.282,131.643 236.467,129.374 237.554,127.242 C238.672,125.047 240.457,123.262 242.652,122.143 C244.784,121.057 247.053,120.872 256.564,120.872 L271.282,120.872 C272.769,120.872 273.974,119.666 273.974,118.179 C273.974,116.693 272.769,115.487 271.282,115.487 Z" />
        </g>
        <g id="Regular-S">
            <path d="M456.923,106.513 C465.349,106.513 472.179,99.682 472.179,91.256 C472.179,82.831 465.349,76 456.923,76 C448.497,76 441.667,82.831 441.667,91.256 C441.667,99.682 448.497,106.513 456.923,106.513 Z M456.923,101.128 C451.471,101.128 447.051,96.708 447.051,91.256 C447.051,85.804 451.471,81.385 456.923,81.385 C462.375,81.385 466.795,85.804 466.795,91.256 C466.795,96.708 462.375,101.128 456.923,101.128 Z" />
            <path d="M486.538,121.769 L486.538,139.718 C486.538,141.205 487.744,142.41 489.231,142.41 C490.718,142.41 491.923,141.205 491.923,139.718 L491.923,121.769 C491.923,120.282 490.718,119.077 489.231,119.077 C487.744,119.077 486.538,120.282 486.538,121.769 Z" />
            <path d="M498.314,127.045 L491.135,119.865 C490.083,118.814 488.378,118.814 487.327,119.865 L480.148,127.045 C479.096,128.096 479.096,129.801 480.148,130.852 C481.199,131.904 482.904,131.904 483.955,130.852 L491.135,123.673 L487.327,123.673 L494.506,130.852 C495.558,131.904 497.263,131.904 498.314,130.852 C499.365,129.801 499.365,128.096 498.314,127.045 Z" />
            <path d="M471.282,115.487 L456.564,115.487 C445.971,115.487 443.451,115.693 440.208,117.346 C436.999,118.98 434.391,121.589 432.756,124.797 C431.103,128.041 430.897,130.56 430.897,141.154 L430.897,143.308 C430.897,144.795 432.103,146 433.59,146 L471.282,146 C472.769,146 473.974,144.795 473.974,143.308 C473.974,141.821 472.769,140.615 471.282,140.615 L433.59,140.615 L433.59,143.308 L436.282,143.308 L436.282,141.154 C436.282,131.643 436.467,129.374 437.554,127.242 C438.672,125.047 440.457,123.262 442.652,122.143 C444.784,121.057 447.053,120.872 456.564,120.872 L471.282,120.872 C472.769,120.872 473.974,119.666 473.974,118.179 C473.974,116.693 472.769,115.487 471.282,115.487 Z" />
        </g>
        <g id="Black-S">
            <path d="M656.923,106.513 C665.349,106.513 672.179,99.682 672.179,91.256 C672.179,82.831 665.349,76 656.923,76 C648.497,76 641.667,82.831 641.667,91.256 C641.667,99.682 648.497,106.513 656.923,106.513 Z M656.923,101.128 C651.471,101.128 647.051,96.708 647.051,91.256 C647.051,85.804 651.471,81.385 656.923,81.385 C662.375,81.385 666.795,85.804 666.795,91.256 C666.795,96.708 662.375,101.128 656.923,101.128 Z" />
            <path d="M686.538,121.769 L686.538,139.718 C686.538,141.205 687.744,142.41 689.231,142.41 C690.718,142.41 691.923,141.205 691.923,139.718 L691.923,121.769 C691.923,120.282 690.718,119.077 689.231,119.077 C687.744,119.077 686.538,120.282 686.538,121.769 Z" />
            <path d="M698.314,127.045 L691.135,119.865 C690.083,118.814 688.378,118.814 687.327,119.865 L680.148,127.045 C679.096,128.096 679.096,129.801 680.148,130.852 C681.199,131.904 682.904,131.904 683.955,130.852 L691.135,123.673 L687.327,123.673 L694.506,130.852 C695.558,131.904 697.263,131.904 698.314,130.852 C699.365,129.801 699.365,128.096 698.314,127.045 Z" />
            <path d="M671.282,115.487 L656.564,115.487 C645.971,115.487 643.451,115.693 640.208,117.346 C636.999,118.98 634.391,121.589 632.756,124.797 C631.103,128.041 630.897,130.56 630.897,141.154 L630.897,143.308 C630.897,144.795 632.103,146 633.59,146 L671.282,146 C672.769,146 673.974,144.795 673.974,143.308 C673.974,141.821 672.769,140.615 671.282,140.615 L633.59,140.615 L633.59,143.308 L636.282,143.308 L636.282,141.154 C636.282,131.643 636.467,129.374 637.554,127.242 C638.672,125.047 640.457,123.262 642.652,122.143 C644.784,121.057 647.053,120.872 656.564,120.872 L671.282,120.872 C672.769,120.872 673.974,119.666 673.974,118.179 C673.974,116.693 672.769,115.487 671.282,115.487 Z" />
        </g>
    </g>
</svg>