<?xml version="1.0" encoding="UTF-8"?>
<svg height="600" width="800" xmlns="http://www.w3.org/2000/svg" xmlns:xlink="http://www.w3.org/1999/xlink">
    <g id="Notes" font-family="'LucidaGrande', 'Lucida Grande', sans-serif" font-size="13">
        <rect fill="white" height="600.0" width="800.0" x="0.0" y="0.0" />
        <g font-size="13">
            <text x="18.0" y="176.0">Small</text>
            <text x="18.0" y="376.0">Medium</text>
            <text x="18.0" y="576.0">Large</text>
        </g>
        <g font-size="9">
            <text x="250.0" y="30.0">Ultralight</text>
            <text x="450.0" y="30.0">Regular</text>
            <text x="650.0" y="30.0">Black</text>
            <text id="template-version" fill="#505050" text-anchor="end" x="785.0" y="575.0">Template v.3.0</text>
            <a href="https://github.com/swhitty/SwiftDraw">
                <text fill="#505050" text-anchor="end" x="785.0" y="590.0">https://github.com/swhitty/SwiftDraw</text>
            </a>
        </g>
    </g>
    <g id="Guides" stroke="rgb(39, 170, 225)" stroke-width="0.5">
        <path id="Capline-S" d="M18,76 l800,0" />
        <path id="H-reference" d="M85,145.755 L87.685,145.755 L113.369,79.287 L114.052,79.287 L114.052,76 L112.148,76 L85,145.755 Z M95.693,121.536 L130.996,121.536 L130.263,119.313 L96.474,119.313 L95.693,121.536 Z M139.15,145.755 L141.787,145.755 L114.638,76 L113.466,76 L113.466,79.287 L139.15,145.755 Z" stroke="none" />
        <path id="Baseline-S" d="M18,146 l800,0" />
        <path id="left-margin-Ultralight-S" d="M221,56 l0,110" />
        <path id="right-margin-Ultralight-S" d="M309,56 l0,110" />
        <path id="left-margin-Regular-S" d="M421,56 l0,110" />
        <path id="right-margin-Regular-S" d="M509,56 l0,110" />
        <path id="left-margin-Black-S" d="M621,56 l0,110" />
        <path id="right-margin-Black-S" d="M709,56 l0,110" />
        <path id="Capline-M" d="M18,276 l800,0" />
        <path id="Baseline-M" d="M18,346 l800,0" />
        <path id="Capline-L" d="M18,476 l800,0" />
        <path id="Baseline-L" d="M18,546 l800,0" />
    </g>
    <g id="Symbols">
        <g id="Ultralight-S">
            <path d="M261.745,89.082 C261.745,84.672 263.84,81.6 265.966,80.684 L265,78.442 L264.034,80.684 C266.16,81.6 268.255,84.672 268.255,89.082 L268.255,101.36 C268.255,102.084 268.577,102.771 269.134,103.235 L294.363,124.265 L293.485,122.39 L293.485,128.901 L297.018,126.717 L270.975,113.695 C269.352,112.883 267.442,114.064 267.442,115.879 L267.442,130.528 C267.442,130.986 267.57,131.434 267.813,131.822 L275.951,144.844 L278.879,141.264 L265.857,136.381 C265.305,136.173 264.695,136.173 264.143,136.381 L251.121,141.264 L254.049,144.844 L262.187,131.822 C262.43,131.434 262.558,130.986 262.558,130.528 L262.558,115.879 C262.558,114.064 260.648,112.883 259.025,113.695 L232.982,126.717 L236.515,128.901 L236.515,122.39 L235.637,124.265 L260.866,103.235 C261.423,102.771 261.745,102.084 261.745,101.36 L261.745,89.082 Z M256.861,89.082 L256.861,101.36 L257.74,99.484 L232.51,120.514 C231.954,120.978 231.632,121.665 231.632,122.39 L231.632,128.901 C231.632,130.716 233.542,131.896 235.165,131.084 L261.209,118.063 L257.675,115.879 L257.675,130.528 L258.046,129.234 L249.908,142.256 C248.671,144.235 250.65,146.656 252.836,145.836 L265.857,140.953 L264.143,140.953 L277.164,145.836 C279.35,146.656 281.329,144.235 280.092,142.256 L271.954,129.234 L272.325,130.528 L272.325,115.879 L268.791,118.063 L294.835,131.084 C296.458,131.896 298.368,130.716 298.368,128.901 L298.368,122.39 C298.368,121.665 298.046,120.978 297.49,120.514 L272.26,99.484 L273.139,101.36 L273.139,89.082 C273.139,82.689 269.854,77.875 265.966,76.199 C265.35,75.934 264.65,75.934 264.034,76.199 C260.146,77.875 256.861,82.689 256.861,89.082 Z" />
        </g>
        <g id="Regular-S">
            <path d="M461.745,89.082 C461.745,84.672 463.84,81.6 465.966,80.684 L465,78.442 L464.034,80.684 C466.16,81.6 468.255,84.672 468.255,89.082 L468.255,101.36 C468.255,102.084 468.577,102.771 469.134,103.235 L494.363,124.265 L493.485,122.39 L493.485,128.901 L497.018,126.717 L470.975,113.695 C469.352,112.883 467.442,114.064 467.442,115.879 L467.442,130.528 C467.442,130.986 467.57,131.434 467.813,131.822 L475.951,144.844 L478.879,141.264 L465.857,136.381 C465.305,136.173 464.695,136.173 464.143,136.381 L451.121,141.264 L454.049,144.844 L462.187,131.822 C462.43,131.434 462.558,130.986 462.558,130.528 L462.558,115.879 C462.558,114.064 460.648,112.883 459.025,113.695 L432.982,126.717 L436.515,128.901 L436.515,122.39 L435.637,124.265 L460.866,103.235 C461.423,102.771 461.745,102.084 461.745,101.36 L461.745,89.082 Z M456.861,89.082 L456.861,101.36 L457.74,99.484 L432.51,120.514 C431.954,120.978 431.632,121.665 431.632,122.39 L431.632,128.901 C431.632,130.716 433.542,131.896 435.165,131.084 L461.209,118.063 L457.675,115.879 L457.675,130.528 L458.046,129.234 L449.908,142.256 C448.671,144.235 450.65,146.656 452.836,145.836 L465.857,140.953 L464.143,140.953 L477.164,145.836 C479.35,146.656 481.329,144.235 480.092,142.256 L471.954,129.234 L472.325,130.528 L472.325,115.879 L468.791,118.063 L494.835,131.084 C496.458,131.896 498.368,130.716 498.368,128.901 L498.368,122.39 C498.368,121.665 498.046,120.978 497.49,120.514 L472.26,99.484 L473.139,101.36 L473.139,89.082 C473.139,82.689 469.854,77.875 465.966,76.199 C465.35,75.934 464.65,75.934 464.034,76.199 C460.146,77.875 456.861,82.689 456.861,89.082 Z" />
        </g>
        <g id="Black-S">
            <path d="M661.745,89.082 C661.745,84.672 663.84,81.6 665.966,80.684 L665,78.442 L664.034,80.684 C666.16,81.6 668.255,84.672 668.255,89.082 L668.255,101.36 C668.255,102.084 668.577,102.771 669.134,103.235 L694.363,124.265 L693.485,122.39 L693.485,128.901 L697.018,126.717 L670.975,113.695 C669.352,112.883 667.442,114.064 667.442,115.879 L667.442,130.528 C667.442,130.986 667.57,131.434 667.813,131.822 L675.951,144.844 L678.879,141.264 L665.857,136.381 C665.305,136.173 664.695,136.173 664.143,136.381 L651.121,141.264 L654.049,144.844 L662.187,131.822 C662.43,131.434 662.558,130.986 662.558,130.528 L662.558,115.879 C662.558,114.064 660.648,112.883 659.025,113.695 L632.982,126.717 L636.515,128.901 L636.515,122.39 L635.637,124.265 L660.866,103.235 C661.423,102.771 661.745,102.084 661.745,101.36 L661.745,89.082 Z M656.861,89.082 L656.861,101.36 L657.74,99.484 L632.51,120.514 C631.954,120.978 631.632,121.665 631.632,122.39 L631.632,128.901 C631.632,130.716 633.542,131.896 635.165,131.084 L661.209,118.063 L657.675,115.879 L657.675,130.528 L658.046,129.234 L649.908,142.256 C648.671,144.235 650.65,146.656 652.836,145.836 L665.857,140.953 L664.143,140.953 L677.164,145.836 C679.35,146.656 681.329,144.235 680.092,142.256 L671.954,129.234 L672.325,130.528 L672.325,115.879 L668.791,118.063 L694.835,131.084 C696.458,131.896 698.368,130.716 698.368,128.901 L698.368,122.39 C698.368,121.665 698.046,120.978 697.49,120.514 L672.26,99.484 L673.139,101.36 L673.139,89.082 C673.139,82.689 669.854,77.875 665.966,76.199 C665.35,75.934 664.65,75.934 664.034,76.199 C660.146,77.875 656.861,82.689 656.861,89.082 Z" />
        </g>
    </g>
</svg>