<?xml version="1.0" encoding="UTF-8"?>
<svg height="600" width="800" xmlns="http://www.w3.org/2000/svg" xmlns:xlink="http://www.w3.org/1999/xlink">
    <g id="Notes" font-family="'LucidaGrande', 'Lucida Grande', sans-serif" font-size="13">
        <rect fill="white" height="600.0" width="800.0" x="0.0" y="0.0" />
        <g font-size="13">
            <text x="18.0" y="176.0">Small</text>
            <text x="18.0" y="376.0">Medium</text>
            <text x="18.0" y="576.0">Large</text>
        </g>
        <g font-size="9">
            <text x="250.0" y="30.0">Ultralight</text>
            <text x="450.0" y="30.0">Regular</text>
            <text x="650.0" y="30.0">Black</text>
            <text id="template-version" fill="#505050" text-anchor="end" x="785.0" y="575.0">Template v.3.0</text>
            <a href="https://github.com/swhitty/SwiftDraw">
                <text fill="#505050" text-anchor="end" x="785.0" y="590.0">https://github.com/swhitty/SwiftDraw</text>
            </a>
        </g>
    </g>
    <g id="Guides" stroke="rgb(39, 170, 225)" stroke-width="0.5">
        <path id="Capline-S" d="M18,76 l800,0" />
        <path id="H-reference" d="M85,145.755 L87.685,145.755 L113.369,79.287 L114.052,79.287 L114.052,76 L112.148,76 L85,145.755 Z M95.693,121.536 L130.996,121.536 L130.263,119.313 L96.474,119.313 L95.693,121.536 Z M139.15,145.755 L141.787,145.755 L114.638,76 L113.466,76 L113.466,79.287 L139.15,145.755 Z" stroke="none" />
        <path id="Baseline-S" d="M18,146 l800,0" />
        <path id="left-margin-Ultralight-S" d="M221,56 l0,110" />
        <path id="right-margin-Ultralight-S" d="M309,56 l0,110" />
        <path id="left-margin-Regular-S" d="M421,56 l0,110" />
        <path id="right-margin-Regular-S" d="M509,56 l0,110" />
        <path id="left-margin-Black-S" d="M621,56 l0,110" />
        <path id="right-margin-Black-S" d="M709,56 l0,110" />
        <path id="Capline-M" d="M18,276 l800,0" />
        <path id="Baseline-M" d="M18,346 l800,0" />
        <path id="Capline-L" d="M18,476 l800,0" />
        <path id="Baseline-L" d="M18,546 l800,0" />
    </g>
    <g id="Symbols">
        <g id="Ultralight-S">
            <path d="M233.903,80.817 L293.653,113.252 L294.607,108.455 L262.171,111.87 C261.363,111.955 260.644,112.418 260.232,113.117 L243.152,142.139 L247.888,143.039 L237.654,78.167 L233.903,80.817 Z M236.347,76.316 C234.481,75.303 232.265,76.869 232.595,78.965 L242.829,143.837 C243.204,146.21 246.347,146.807 247.566,144.736 L264.646,115.715 L262.707,116.963 L295.143,113.549 C297.644,113.285 298.306,109.951 296.096,108.751 L236.347,76.316 Z" />
        </g>
        <g id="Regular-S">
            <path d="M433.903,80.817 L493.653,113.252 L494.607,108.455 L462.171,111.87 C461.363,111.955 460.644,112.418 460.232,113.117 L443.152,142.139 L447.888,143.039 L437.654,78.167 L433.903,80.817 Z M436.347,76.316 C434.481,75.303 432.265,76.869 432.595,78.965 L442.829,143.837 C443.204,146.21 446.347,146.807 447.566,144.736 L464.646,115.715 L462.707,116.963 L495.143,113.549 C497.644,113.285 498.306,109.951 496.096,108.751 L436.347,76.316 Z" />
        </g>
        <g id="Black-S">
            <path d="M633.903,80.817 L693.653,113.252 L694.607,108.455 L662.171,111.87 C661.363,111.955 660.644,112.418 660.232,113.117 L643.152,142.139 L647.888,143.039 L637.654,78.167 L633.903,80.817 Z M636.347,76.316 C634.481,75.303 632.265,76.869 632.596,78.965 L642.829,143.837 C643.204,146.21 646.347,146.807 647.566,144.736 L664.646,115.715 L662.707,116.963 L695.143,113.549 C697.644,113.285 698.307,109.951 696.096,108.751 L636.347,76.316 Z" />
        </g>
    </g>
</svg>