<?xml version="1.0" encoding="UTF-8"?>
<svg height="600" width="800" xmlns="http://www.w3.org/2000/svg" xmlns:xlink="http://www.w3.org/1999/xlink">
    <g id="Notes" font-family="'LucidaGrande', 'Lucida Grande', sans-serif" font-size="13">
        <rect fill="white" height="600.0" width="800.0" x="0.0" y="0.0" />
        <g font-size="13">
            <text x="18.0" y="176.0">Small</text>
            <text x="18.0" y="376.0">Medium</text>
            <text x="18.0" y="576.0">Large</text>
        </g>
        <g font-size="9">
            <text x="250.0" y="30.0">Ultralight</text>
            <text x="450.0" y="30.0">Regular</text>
            <text x="650.0" y="30.0">Black</text>
            <text id="template-version" fill="#505050" text-anchor="end" x="785.0" y="575.0">Template v.3.0</text>
            <a href="https://github.com/swhitty/SwiftDraw">
                <text fill="#505050" text-anchor="end" x="785.0" y="590.0">https://github.com/swhitty/SwiftDraw</text>
            </a>
        </g>
    </g>
    <g id="Guides" stroke="rgb(39, 170, 225)" stroke-width="0.5">
        <path id="Capline-S" d="M18,76 l800,0" />
        <path id="H-reference" d="M85,145.755 L87.685,145.755 L113.369,79.287 L114.052,79.287 L114.052,76 L112.148,76 L85,145.755 Z M95.693,121.536 L130.996,121.536 L130.263,119.313 L96.474,119.313 L95.693,121.536 Z M139.15,145.755 L141.787,145.755 L114.638,76 L113.466,76 L113.466,79.287 L139.15,145.755 Z" stroke="none" />
        <path id="Baseline-S" d="M18,146 l800,0" />
        <path id="left-margin-Ultralight-S" d="M221,56 l0,110" />
        <path id="right-margin-Ultralight-S" d="M309,56 l0,110" />
        <path id="left-margin-Regular-S" d="M421,56 l0,110" />
        <path id="right-margin-Regular-S" d="M509,56 l0,110" />
        <path id="left-margin-Black-S" d="M621,56 l0,110" />
        <path id="right-margin-Black-S" d="M709,56 l0,110" />
        <path id="Capline-M" d="M18,276 l800,0" />
        <path id="Baseline-M" d="M18,346 l800,0" />
        <path id="Capline-L" d="M18,476 l800,0" />
        <path id="Baseline-L" d="M18,546 l800,0" />
    </g>
    <g id="Symbols">
        <g id="Ultralight-S">
            <path d="M260.93,95.535 L260.93,78.442 L258.488,80.884 L271.512,80.884 L269.07,78.442 L269.07,93.907 L273.953,93.907 L273.953,78.442 C273.953,77.093 272.86,76 271.512,76 L258.488,76 C257.14,76 256.047,77.093 256.047,78.442 L256.047,95.535 L260.93,95.535 Z" />
            <path d="M251.163,112.628 L251.163,97.101 L249.019,99.524 L281.577,95.517 L278.837,93.093 L278.837,109.372 L283.721,109.372 L283.721,93.093 C283.721,91.626 282.437,90.49 280.981,90.669 L248.423,94.677 C247.199,94.828 246.279,95.868 246.279,97.101 L246.279,112.628 L251.163,112.628 Z" />
            <path d="M246.279,128.907 L246.279,114.256 L244.117,116.682 L286.443,111.798 L283.721,109.372 L283.721,124.023 L288.605,124.023 L288.605,109.372 C288.605,107.913 287.333,106.779 285.883,106.946 L243.557,111.83 C242.325,111.972 241.395,113.016 241.395,114.256 L241.395,128.907 L246.279,128.907 Z" />
            <path d="M291.047,141.116 L238.953,141.116 L241.395,143.558 L241.395,130.535 L239.256,132.958 L291.349,126.446 L288.605,124.023 L288.605,143.558 L291.047,141.116 Z M291.047,146 C292.395,146 293.488,144.907 293.488,143.558 L293.488,124.023 C293.488,122.554 292.201,121.418 290.744,121.6 L238.651,128.112 C237.429,128.265 236.512,129.303 236.512,130.535 L236.512,143.558 C236.512,144.907 237.605,146 238.953,146 L291.047,146 Z" />
        </g>
        <g id="Regular-S">
            <path d="M460.93,95.535 L460.93,78.442 L458.488,80.884 L471.512,80.884 L469.07,78.442 L469.07,93.907 L473.953,93.907 L473.953,78.442 C473.953,77.093 472.86,76 471.512,76 L458.488,76 C457.14,76 456.047,77.093 456.047,78.442 L456.047,95.535 L460.93,95.535 Z" />
            <path d="M451.163,112.628 L451.163,97.101 L449.019,99.524 L481.577,95.517 L478.837,93.093 L478.837,109.372 L483.721,109.372 L483.721,93.093 C483.721,91.626 482.437,90.49 480.981,90.669 L448.423,94.677 C447.199,94.828 446.279,95.868 446.279,97.101 L446.279,112.628 L451.163,112.628 Z" />
            <path d="M446.279,128.907 L446.279,114.256 L444.117,116.682 L486.443,111.798 L483.721,109.372 L483.721,124.023 L488.605,124.023 L488.605,109.372 C488.605,107.913 487.333,106.779 485.883,106.946 L443.557,111.83 C442.325,111.972 441.395,113.016 441.395,114.256 L441.395,128.907 L446.279,128.907 Z" />
            <path d="M491.047,141.116 L438.953,141.116 L441.395,143.558 L441.395,130.535 L439.256,132.958 L491.349,126.446 L488.605,124.023 L488.605,143.558 L491.047,141.116 Z M491.047,146 C492.395,146 493.488,144.907 493.488,143.558 L493.488,124.023 C493.488,122.554 492.201,121.418 490.744,121.6 L438.651,128.112 C437.429,128.265 436.512,129.303 436.512,130.535 L436.512,143.558 C436.512,144.907 437.605,146 438.953,146 L491.047,146 Z" />
        </g>
        <g id="Black-S">
            <path d="M660.93,95.535 L660.93,78.442 L658.488,80.884 L671.512,80.884 L669.07,78.442 L669.07,93.907 L673.953,93.907 L673.953,78.442 C673.953,77.093 672.86,76 671.512,76 L658.488,76 C657.14,76 656.047,77.093 656.047,78.442 L656.047,95.535 L660.93,95.535 Z" />
            <path d="M651.163,112.628 L651.163,97.101 L649.019,99.524 L681.577,95.517 L678.837,93.093 L678.837,109.372 L683.721,109.372 L683.721,93.093 C683.721,91.626 682.437,90.49 680.981,90.669 L648.423,94.677 C647.199,94.828 646.279,95.868 646.279,97.101 L646.279,112.628 L651.163,112.628 Z" />
            <path d="M646.279,128.907 L646.279,114.256 L644.117,116.682 L686.443,111.798 L683.721,109.372 L683.721,124.023 L688.605,124.023 L688.605,109.372 C688.605,107.913 687.333,106.779 685.883,106.946 L643.557,111.83 C642.325,111.972 641.395,113.016 641.395,114.256 L641.395,128.907 L646.279,128.907 Z" />
            <path d="M691.047,141.116 L638.953,141.116 L641.395,143.558 L641.395,130.535 L639.256,132.958 L691.349,126.446 L688.605,124.023 L688.605,143.558 L691.047,141.116 Z M691.047,146 C692.395,146 693.488,144.907 693.488,143.558 L693.488,124.023 C693.488,122.554 692.201,121.418 690.744,121.6 L638.651,128.112 C637.429,128.265 636.512,129.303 636.512,130.535 L636.512,143.558 C636.512,144.907 637.605,146 638.953,146 L691.047,146 Z" />
        </g>
    </g>
</svg>