<?xml version="1.0" encoding="UTF-8"?>
<svg height="600" width="800" xmlns="http://www.w3.org/2000/svg" xmlns:xlink="http://www.w3.org/1999/xlink">
    <g id="Notes" font-family="'LucidaGrande', 'Lucida Grande', sans-serif" font-size="13">
        <rect fill="white" height="600.0" width="800.0" x="0.0" y="0.0" />
        <g font-size="13">
            <text x="18.0" y="176.0">Small</text>
            <text x="18.0" y="376.0">Medium</text>
            <text x="18.0" y="576.0">Large</text>
        </g>
        <g font-size="9">
            <text x="250.0" y="30.0">Ultralight</text>
            <text x="450.0" y="30.0">Regular</text>
            <text x="650.0" y="30.0">Black</text>
            <text id="template-version" fill="#505050" text-anchor="end" x="785.0" y="575.0">Template v.3.0</text>
            <a href="https://github.com/swhitty/SwiftDraw">
                <text fill="#505050" text-anchor="end" x="785.0" y="590.0">https://github.com/swhitty/SwiftDraw</text>
            </a>
        </g>
    </g>
    <g id="Guides" stroke="rgb(39, 170, 225)" stroke-width="0.5">
        <path id="Capline-S" d="M18,76 l800,0" />
        <path id="H-reference" d="M85,145.755 L87.685,145.755 L113.369,79.287 L114.052,79.287 L114.052,76 L112.148,76 L85,145.755 Z M95.693,121.536 L130.996,121.536 L130.263,119.313 L96.474,119.313 L95.693,121.536 Z M139.15,145.755 L141.787,145.755 L114.638,76 L113.466,76 L113.466,79.287 L139.15,145.755 Z" stroke="none" />
        <path id="Baseline-S" d="M18,146 l800,0" />
        <path id="left-margin-Ultralight-S" d="M220,56 l0,110" />
        <path id="right-margin-Ultralight-S" d="M310,56 l0,110" />
        <path id="left-margin-Regular-S" d="M420,56 l0,110" />
        <path id="right-margin-Regular-S" d="M510,56 l0,110" />
        <path id="left-margin-Black-S" d="M620,56 l0,110" />
        <path id="right-margin-Black-S" d="M710,56 l0,110" />
        <path id="Capline-M" d="M18,276 l800,0" />
        <path id="Baseline-M" d="M18,346 l800,0" />
        <path id="Capline-L" d="M18,476 l800,0" />
        <path id="Baseline-L" d="M18,546 l800,0" />
    </g>
    <g id="Symbols">
        <g id="Ultralight-S">
            <path d="M246.22,146 C255.18,146 262.439,138.741 262.439,129.78 C262.439,120.82 255.18,113.561 246.22,113.561 C237.259,113.561 230,120.82 230,129.78 C230,138.741 237.259,146 246.22,146 Z M246.22,140.878 C240.088,140.878 235.122,135.912 235.122,129.78 C235.122,123.649 240.088,118.683 246.22,118.683 C252.351,118.683 257.317,123.649 257.317,129.78 C257.317,135.912 252.351,140.878 246.22,140.878 Z" />
            <path d="M283.78,146 C292.741,146 300,138.741 300,129.78 C300,120.82 292.741,113.561 283.78,113.561 C274.82,113.561 267.561,120.82 267.561,129.78 C267.561,138.741 274.82,146 283.78,146 Z M283.78,140.878 C277.649,140.878 272.683,135.912 272.683,129.78 C272.683,123.649 277.649,118.683 283.78,118.683 C289.912,118.683 294.878,123.649 294.878,129.78 C294.878,135.912 289.912,140.878 283.78,140.878 Z" />
            <path d="M234.268,81.122 L295.732,81.122 C297.146,81.122 298.293,79.975 298.293,78.561 C298.293,77.147 297.146,76 295.732,76 L234.268,76 C232.854,76 231.707,77.147 231.707,78.561 C231.707,79.975 232.854,81.122 234.268,81.122 Z" />
            <path d="M248.78,116.122 L248.78,78.561 C248.78,77.147 247.634,76 246.22,76 C244.805,76 243.659,77.147 243.659,78.561 L243.659,116.122 C243.659,117.536 244.805,118.683 246.22,118.683 C247.634,118.683 248.78,117.536 248.78,116.122 Z" />
            <path d="M286.341,116.122 L286.341,78.561 C286.341,77.147 285.195,76 283.78,76 C282.366,76 281.22,77.147 281.22,78.561 L281.22,116.122 C281.22,117.536 282.366,118.683 283.78,118.683 C285.195,118.683 286.341,117.536 286.341,116.122 Z" />
            <path d="M239.39,105.024 L253.049,105.024 C254.463,105.024 255.61,103.878 255.61,102.463 C255.61,101.049 254.463,99.902 253.049,99.902 L239.39,99.902 C237.976,99.902 236.829,101.049 236.829,102.463 C236.829,103.878 237.976,105.024 239.39,105.024 Z" />
            <path d="M276.951,105.024 L290.61,105.024 C292.024,105.024 293.171,103.878 293.171,102.463 C293.171,101.049 292.024,99.902 290.61,99.902 L276.951,99.902 C275.537,99.902 274.39,101.049 274.39,102.463 C274.39,103.878 275.537,105.024 276.951,105.024 Z" />
        </g>
        <g id="Regular-S">
            <path d="M446.22,146 C455.18,146 462.439,138.741 462.439,129.78 C462.439,120.82 455.18,113.561 446.22,113.561 C437.259,113.561 430,120.82 430,129.78 C430,138.741 437.259,146 446.22,146 Z M446.22,140.878 C440.088,140.878 435.122,135.912 435.122,129.78 C435.122,123.649 440.088,118.683 446.22,118.683 C452.351,118.683 457.317,123.649 457.317,129.78 C457.317,135.912 452.351,140.878 446.22,140.878 Z" />
            <path d="M483.78,146 C492.741,146 500,138.741 500,129.78 C500,120.82 492.741,113.561 483.78,113.561 C474.82,113.561 467.561,120.82 467.561,129.78 C467.561,138.741 474.82,146 483.78,146 Z M483.78,140.878 C477.649,140.878 472.683,135.912 472.683,129.78 C472.683,123.649 477.649,118.683 483.78,118.683 C489.912,118.683 494.878,123.649 494.878,129.78 C494.878,135.912 489.912,140.878 483.78,140.878 Z" />
            <path d="M434.268,81.122 L495.732,81.122 C497.146,81.122 498.293,79.975 498.293,78.561 C498.293,77.147 497.146,76 495.732,76 L434.268,76 C432.854,76 431.707,77.147 431.707,78.561 C431.707,79.975 432.854,81.122 434.268,81.122 Z" />
            <path d="M448.78,116.122 L448.78,78.561 C448.78,77.147 447.634,76 446.22,76 C444.805,76 443.659,77.147 443.659,78.561 L443.659,116.122 C443.659,117.536 444.805,118.683 446.22,118.683 C447.634,118.683 448.78,117.536 448.78,116.122 Z" />
            <path d="M486.341,116.122 L486.341,78.561 C486.341,77.147 485.195,76 483.78,76 C482.366,76 481.22,77.147 481.22,78.561 L481.22,116.122 C481.22,117.536 482.366,118.683 483.78,118.683 C485.195,118.683 486.341,117.536 486.341,116.122 Z" />
            <path d="M439.39,105.024 L453.049,105.024 C454.463,105.024 455.61,103.878 455.61,102.463 C455.61,101.049 454.463,99.902 453.049,99.902 L439.39,99.902 C437.976,99.902 436.829,101.049 436.829,102.463 C436.829,103.878 437.976,105.024 439.39,105.024 Z" />
            <path d="M476.951,105.024 L490.61,105.024 C492.024,105.024 493.171,103.878 493.171,102.463 C493.171,101.049 492.024,99.902 490.61,99.902 L476.951,99.902 C475.537,99.902 474.39,101.049 474.39,102.463 C474.39,103.878 475.537,105.024 476.951,105.024 Z" />
        </g>
        <g id="Black-S">
            <path d="M646.22,146 C655.18,146 662.439,138.741 662.439,129.78 C662.439,120.82 655.18,113.561 646.22,113.561 C637.259,113.561 630,120.82 630,129.78 C630,138.741 637.259,146 646.22,146 Z M646.22,140.878 C640.088,140.878 635.122,135.912 635.122,129.78 C635.122,123.649 640.088,118.683 646.22,118.683 C652.352,118.683 657.317,123.649 657.317,129.78 C657.317,135.912 652.352,140.878 646.22,140.878 Z" />
            <path d="M683.781,146 C692.741,146 700,138.741 700,129.78 C700,120.82 692.741,113.561 683.781,113.561 C674.82,113.561 667.561,120.82 667.561,129.78 C667.561,138.741 674.82,146 683.781,146 Z M683.781,140.878 C677.649,140.878 672.683,135.912 672.683,129.78 C672.683,123.649 677.649,118.683 683.781,118.683 C689.912,118.683 694.878,123.649 694.878,129.78 C694.878,135.912 689.912,140.878 683.781,140.878 Z" />
            <path d="M634.268,81.122 L695.732,81.122 C697.146,81.122 698.293,79.975 698.293,78.561 C698.293,77.147 697.146,76 695.732,76 L634.268,76 C632.854,76 631.707,77.147 631.707,78.561 C631.707,79.975 632.854,81.122 634.268,81.122 Z" />
            <path d="M648.781,116.122 L648.781,78.561 C648.781,77.147 647.634,76 646.22,76 C644.805,76 643.659,77.147 643.659,78.561 L643.659,116.122 C643.659,117.536 644.805,118.683 646.22,118.683 C647.634,118.683 648.781,117.536 648.781,116.122 Z" />
            <path d="M686.341,116.122 L686.341,78.561 C686.341,77.147 685.195,76 683.781,76 C682.366,76 681.22,77.147 681.22,78.561 L681.22,116.122 C681.22,117.536 682.366,118.683 683.781,118.683 C685.195,118.683 686.341,117.536 686.341,116.122 Z" />
            <path d="M639.39,105.024 L653.049,105.024 C654.463,105.024 655.61,103.878 655.61,102.463 C655.61,101.049 654.463,99.902 653.049,99.902 L639.39,99.902 C637.976,99.902 636.829,101.049 636.829,102.463 C636.829,103.878 637.976,105.024 639.39,105.024 Z" />
            <path d="M676.951,105.024 L690.61,105.024 C692.024,105.024 693.171,103.878 693.171,102.463 C693.171,101.049 692.024,99.902 690.61,99.902 L676.951,99.902 C675.537,99.902 674.39,101.049 674.39,102.463 C674.39,103.878 675.537,105.024 676.951,105.024 Z" />
        </g>
    </g>
</svg>