<?xml version="1.0" encoding="UTF-8"?>
<svg height="600" width="800" xmlns="http://www.w3.org/2000/svg" xmlns:xlink="http://www.w3.org/1999/xlink">
    <g id="Notes" font-family="'LucidaGrande', 'Lucida Grande', sans-serif" font-size="13">
        <rect fill="white" height="600.0" width="800.0" x="0.0" y="0.0" />
        <g font-size="13">
            <text x="18.0" y="176.0">Small</text>
            <text x="18.0" y="376.0">Medium</text>
            <text x="18.0" y="576.0">Large</text>
        </g>
        <g font-size="9">
            <text x="250.0" y="30.0">Ultralight</text>
            <text x="450.0" y="30.0">Regular</text>
            <text x="650.0" y="30.0">Black</text>
            <text id="template-version" fill="#505050" text-anchor="end" x="785.0" y="575.0">Template v.3.0</text>
            <a href="https://github.com/swhitty/SwiftDraw">
                <text fill="#505050" text-anchor="end" x="785.0" y="590.0">https://github.com/swhitty/SwiftDraw</text>
            </a>
        </g>
    </g>
    <g id="Guides" stroke="rgb(39, 170, 225)" stroke-width="0.5">
        <path id="Capline-S" d="M18,76 l800,0" />
        <path id="H-reference" d="M85,145.755 L87.685,145.755 L113.369,79.287 L114.052,79.287 L114.052,76 L112.148,76 L85,145.755 Z M95.693,121.536 L130.996,121.536 L130.263,119.313 L96.474,119.313 L95.693,121.536 Z M139.15,145.755 L141.787,145.755 L114.638,76 L113.466,76 L113.466,79.287 L139.15,145.755 Z" stroke="none" />
        <path id="Baseline-S" d="M18,146 l800,0" />
        <path id="left-margin-Ultralight-S" d="M216.41,56 l0,110" />
        <path id="right-margin-Ultralight-S" d="M313.59,56 l0,110" />
        <path id="left-margin-Regular-S" d="M416.41,56 l0,110" />
        <path id="right-margin-Regular-S" d="M513.59,56 l0,110" />
        <path id="left-margin-Black-S" d="M616.41,56 l0,110" />
        <path id="right-margin-Black-S" d="M713.59,56 l0,110" />
        <path id="Capline-M" d="M18,276 l800,0" />
        <path id="Baseline-M" d="M18,346 l800,0" />
        <path id="Capline-L" d="M18,476 l800,0" />
        <path id="Baseline-L" d="M18,546 l800,0" />
    </g>
    <g id="Symbols">
        <g id="Ultralight-S">
            <path d="M279.359,92.154 L250.641,92.154 C249.154,92.154 247.949,93.359 247.949,94.846 C247.949,98.66 241.497,104.953 232.412,111.087 C231.217,111.894 230.081,112.627 229.041,113.273 C228.422,113.657 227.978,113.924 227.746,114.059 C226.645,114.701 226.146,116.027 226.549,117.236 C226.614,117.432 226.739,117.788 226.928,118.299 C227.237,119.134 227.616,120.11 228.069,121.218 C229.356,124.365 230.983,127.96 232.977,131.948 C235.909,137.812 239.381,142.006 242.685,144.727 C243.716,145.576 245.005,146 246.343,146 L285.279,146 C286.809,146 288.273,145.444 289.358,144.369 C292.123,141.628 295.123,137.543 297.921,131.948 C299.947,127.895 301.43,124.232 302.454,121.015 C303.082,119.04 303.42,117.625 303.553,116.827 C303.748,115.661 303.159,114.505 302.102,113.977 C301.844,113.848 301.348,113.589 300.659,113.211 C299.5,112.575 298.242,111.844 296.934,111.031 C288.068,105.524 282.052,99.555 282.052,94.846 C282.052,93.359 280.846,92.154 279.359,92.154 Z M279.359,97.538 L276.667,94.846 C276.667,102.203 283.615,109.097 294.092,115.605 C295.488,116.472 296.829,117.251 298.069,117.932 C298.82,118.344 299.377,118.635 299.694,118.793 L300.898,116.385 L298.242,115.942 C298.224,116.049 298.17,116.317 298.069,116.74 C297.891,117.483 297.646,118.366 297.322,119.382 C296.383,122.335 295.005,125.739 293.105,129.54 C290.575,134.599 287.924,138.209 285.567,140.544 C285.531,140.58 285.439,140.615 285.279,140.615 L246.343,140.615 C246.207,140.615 246.133,140.591 246.108,140.57 C243.362,138.309 240.371,134.697 237.793,129.54 C235.86,125.675 234.29,122.203 233.053,119.179 C232.623,118.128 232.266,117.211 231.979,116.433 C231.81,115.976 231.704,115.674 231.657,115.533 L229.103,116.385 L230.459,118.71 C230.732,118.551 231.219,118.259 231.881,117.847 C232.977,117.167 234.171,116.396 235.426,115.549 C246.238,108.249 253.334,101.328 253.334,94.846 L250.641,97.538 L279.359,97.538 Z" />
            <path d="M281.987,95.43 L285.577,79.276 L282.949,81.385 L297.308,81.385 C298.795,81.385 300,80.179 300,78.692 C300,77.205 298.795,76 297.308,76 L282.949,76 C281.687,76 280.594,76.876 280.321,78.108 L276.731,94.262 C276.408,95.714 277.324,97.152 278.775,97.474 C280.227,97.797 281.665,96.882 281.987,95.43 Z" />
            <path d="M253.269,94.262 L249.68,78.108 C249.406,76.876 248.313,76 247.051,76 L232.693,76 C231.206,76 230,77.205 230,78.692 C230,80.179 231.206,81.385 232.693,81.385 L247.051,81.385 L244.423,79.276 L248.013,95.43 C248.336,96.882 249.774,97.797 251.225,97.474 C252.677,97.152 253.592,95.714 253.269,94.262 Z" />
            <path d="M226.695,117.589 C227.306,118.811 228.545,120.463 230.562,122.077 C233.836,124.696 238.128,126.256 243.462,126.256 C252.368,126.256 252.368,126.256 264.011,126.256 C277.317,126.256 277.317,126.256 286.539,126.256 C291.087,126.256 295.153,124.707 298.667,122.152 C300.759,120.63 302.229,119.096 303.052,118 C303.944,116.81 303.703,115.123 302.513,114.231 C301.323,113.339 299.636,113.58 298.744,114.769 C298.638,114.911 298.377,115.221 297.972,115.644 C297.272,116.375 296.443,117.111 295.5,117.797 C292.844,119.728 289.843,120.872 286.539,120.872 C277.317,120.872 277.317,120.872 264.011,120.872 C252.368,120.872 252.368,120.872 243.462,120.872 C239.373,120.872 236.261,119.74 233.926,117.872 C233.129,117.235 232.486,116.557 231.986,115.891 C231.709,115.522 231.554,115.266 231.511,115.181 C230.846,113.851 229.229,113.312 227.899,113.977 C226.569,114.642 226.03,116.259 226.695,117.589 Z" />
            <path d="M237.793,129.54 C235.86,125.675 234.29,122.203 233.053,119.18 C232.623,118.129 232.266,117.211 231.979,116.433 C231.81,115.977 231.704,115.674 231.657,115.533 L229.103,116.385 L230.459,118.71 C230.732,118.551 231.219,118.259 231.881,117.847 C232.977,117.167 234.171,116.396 235.426,115.549 C236.658,114.717 236.982,113.044 236.15,111.811 C235.318,110.579 233.645,110.255 232.412,111.087 C231.217,111.894 230.081,112.627 229.041,113.273 C228.422,113.657 227.978,113.924 227.746,114.059 C226.645,114.701 226.146,116.027 226.549,117.236 C226.614,117.432 226.739,117.789 226.928,118.3 C227.237,119.135 227.616,120.11 228.069,121.218 C229.356,124.365 230.983,127.96 232.977,131.948 C233.642,133.278 235.259,133.817 236.589,133.152 C237.919,132.487 238.458,130.87 237.793,129.54 Z" />
            <path d="M297.921,131.948 C299.947,127.896 301.43,124.232 302.454,121.015 C303.082,119.04 303.42,117.625 303.553,116.827 C303.748,115.662 303.159,114.505 302.102,113.977 C301.845,113.848 301.348,113.589 300.66,113.211 C299.5,112.575 298.243,111.844 296.934,111.031 C295.67,110.246 294.01,110.634 293.226,111.898 C292.441,113.161 292.829,114.821 294.093,115.605 C295.488,116.472 296.829,117.251 298.069,117.932 C298.82,118.344 299.377,118.635 299.694,118.793 L300.898,116.385 L298.242,115.942 C298.224,116.049 298.17,116.318 298.069,116.74 C297.891,117.483 297.646,118.366 297.322,119.383 C296.383,122.335 295.005,125.739 293.105,129.54 C292.44,130.87 292.979,132.487 294.309,133.152 C295.639,133.817 297.256,133.278 297.921,131.948 Z" />
        </g>
        <g id="Regular-S">
            <path d="M479.359,92.154 L450.641,92.154 C449.154,92.154 447.949,93.359 447.949,94.846 C447.949,98.66 441.497,104.953 432.412,111.087 C431.217,111.894 430.081,112.627 429.041,113.273 C428.422,113.657 427.978,113.924 427.746,114.059 C426.645,114.701 426.146,116.027 426.549,117.236 C426.614,117.432 426.739,117.788 426.928,118.299 C427.237,119.134 427.616,120.11 428.069,121.218 C429.356,124.365 430.983,127.96 432.977,131.948 C435.909,137.812 439.381,142.006 442.685,144.727 C443.716,145.576 445.005,146 446.343,146 L485.279,146 C486.809,146 488.273,145.444 489.358,144.369 C492.123,141.628 495.123,137.543 497.921,131.948 C499.947,127.895 501.43,124.232 502.454,121.015 C503.082,119.04 503.42,117.625 503.553,116.827 C503.748,115.661 503.159,114.505 502.102,113.977 C501.844,113.848 501.348,113.589 500.659,113.211 C499.5,112.575 498.242,111.844 496.934,111.031 C488.068,105.524 482.051,99.555 482.051,94.846 C482.051,93.359 480.846,92.154 479.359,92.154 Z M479.359,97.538 L476.667,94.846 C476.667,102.203 483.615,109.097 494.092,115.605 C495.488,116.472 496.829,117.251 498.069,117.932 C498.82,118.344 499.377,118.635 499.694,118.793 L500.898,116.385 L498.242,115.942 C498.224,116.049 498.17,116.317 498.069,116.74 C497.891,117.483 497.646,118.366 497.322,119.382 C496.383,122.335 495.005,125.739 493.105,129.54 C490.575,134.599 487.924,138.209 485.567,140.544 C485.531,140.58 485.439,140.615 485.279,140.615 L446.343,140.615 C446.207,140.615 446.133,140.591 446.108,140.57 C443.362,138.309 440.371,134.697 437.793,129.54 C435.86,125.675 434.29,122.203 433.053,119.179 C432.623,118.128 432.266,117.211 431.979,116.433 C431.81,115.976 431.704,115.674 431.657,115.533 L429.103,116.385 L430.459,118.71 C430.732,118.551 431.219,118.259 431.881,117.847 C432.977,117.167 434.171,116.396 435.426,115.549 C446.238,108.249 453.334,101.328 453.334,94.846 L450.641,97.538 L479.359,97.538 Z" />
            <path d="M481.987,95.43 L485.577,79.276 L482.949,81.385 L497.308,81.385 C498.795,81.385 500,80.179 500,78.692 C500,77.205 498.795,76 497.308,76 L482.949,76 C481.687,76 480.594,76.876 480.321,78.108 L476.731,94.262 C476.408,95.714 477.324,97.152 478.775,97.474 C480.227,97.797 481.665,96.882 481.987,95.43 Z" />
            <path d="M453.269,94.262 L449.68,78.108 C449.406,76.876 448.313,76 447.051,76 L432.693,76 C431.206,76 430,77.205 430,78.692 C430,80.179 431.206,81.385 432.693,81.385 L447.051,81.385 L444.423,79.276 L448.013,95.43 C448.336,96.882 449.774,97.797 451.225,97.474 C452.677,97.152 453.592,95.714 453.269,94.262 Z" />
            <path d="M426.695,117.589 C427.306,118.811 428.545,120.463 430.562,122.077 C433.836,124.696 438.128,126.256 443.462,126.256 C452.368,126.256 452.368,126.256 464.011,126.256 C477.317,126.256 477.317,126.256 486.539,126.256 C491.087,126.256 495.153,124.707 498.667,122.152 C500.759,120.63 502.229,119.096 503.051,118 C503.944,116.81 503.703,115.123 502.513,114.231 C501.323,113.339 499.636,113.58 498.744,114.769 C498.638,114.911 498.377,115.221 497.972,115.644 C497.272,116.375 496.443,117.111 495.5,117.797 C492.844,119.728 489.843,120.872 486.539,120.872 C477.317,120.872 477.317,120.872 464.011,120.872 C452.368,120.872 452.368,120.872 443.462,120.872 C439.373,120.872 436.261,119.74 433.926,117.872 C433.129,117.235 432.486,116.557 431.986,115.891 C431.709,115.522 431.554,115.266 431.511,115.181 C430.846,113.851 429.229,113.312 427.899,113.977 C426.569,114.642 426.03,116.259 426.695,117.589 Z" />
            <path d="M437.793,129.54 C435.86,125.675 434.29,122.203 433.053,119.18 C432.623,118.129 432.266,117.211 431.979,116.433 C431.81,115.977 431.704,115.674 431.657,115.533 L429.103,116.385 L430.459,118.71 C430.732,118.551 431.219,118.259 431.881,117.847 C432.977,117.167 434.171,116.396 435.426,115.549 C436.658,114.717 436.982,113.044 436.15,111.811 C435.318,110.579 433.645,110.255 432.412,111.087 C431.217,111.894 430.081,112.627 429.041,113.273 C428.422,113.657 427.978,113.924 427.746,114.059 C426.645,114.701 426.146,116.027 426.549,117.236 C426.614,117.432 426.739,117.789 426.928,118.3 C427.237,119.135 427.616,120.11 428.069,121.218 C429.356,124.365 430.983,127.96 432.977,131.948 C433.642,133.278 435.259,133.817 436.589,133.152 C437.919,132.487 438.458,130.87 437.793,129.54 Z" />
            <path d="M497.921,131.948 C499.947,127.896 501.43,124.232 502.454,121.015 C503.082,119.04 503.42,117.625 503.553,116.827 C503.748,115.662 503.159,114.505 502.102,113.977 C501.845,113.848 501.348,113.589 500.66,113.211 C499.5,112.575 498.243,111.844 496.934,111.031 C495.67,110.246 494.01,110.634 493.226,111.898 C492.441,113.161 492.829,114.821 494.092,115.605 C495.488,116.472 496.829,117.251 498.069,117.932 C498.82,118.344 499.377,118.635 499.694,118.793 L500.898,116.385 L498.242,115.942 C498.224,116.049 498.17,116.318 498.069,116.74 C497.891,117.483 497.646,118.366 497.322,119.383 C496.383,122.335 495.005,125.739 493.105,129.54 C492.44,130.87 492.979,132.487 494.309,133.152 C495.639,133.817 497.256,133.278 497.921,131.948 Z" />
        </g>
        <g id="Black-S">
            <path d="M679.359,92.154 L650.641,92.154 C649.154,92.154 647.949,93.359 647.949,94.846 C647.949,98.66 641.497,104.953 632.412,111.087 C631.217,111.894 630.081,112.627 629.041,113.273 C628.422,113.657 627.978,113.924 627.746,114.059 C626.645,114.701 626.146,116.027 626.549,117.236 C626.614,117.432 626.739,117.788 626.928,118.299 C627.237,119.134 627.616,120.11 628.069,121.218 C629.357,124.365 630.983,127.96 632.977,131.948 C635.909,137.812 639.381,142.006 642.685,144.727 C643.716,145.576 645.005,146 646.343,146 L685.279,146 C686.809,146 688.273,145.444 689.358,144.369 C692.123,141.628 695.123,137.543 697.921,131.948 C699.947,127.895 701.43,124.232 702.454,121.015 C703.082,119.04 703.42,117.625 703.553,116.827 C703.748,115.661 703.159,114.505 702.102,113.977 C701.844,113.848 701.348,113.589 700.659,113.211 C699.5,112.575 698.242,111.844 696.934,111.031 C688.068,105.524 682.052,99.555 682.052,94.846 C682.052,93.359 680.846,92.154 679.359,92.154 Z M679.359,97.538 L676.667,94.846 C676.667,102.203 683.615,109.097 694.092,115.605 C695.488,116.472 696.829,117.251 698.069,117.932 C698.82,118.344 699.377,118.635 699.694,118.793 L700.898,116.385 L698.242,115.942 C698.224,116.049 698.17,116.317 698.069,116.74 C697.891,117.483 697.646,118.366 697.322,119.382 C696.383,122.335 695.005,125.739 693.105,129.54 C690.575,134.599 687.924,138.209 685.567,140.544 C685.531,140.58 685.439,140.615 685.279,140.615 L646.343,140.615 C646.207,140.615 646.133,140.591 646.108,140.57 C643.362,138.309 640.371,134.697 637.793,129.54 C635.86,125.675 634.29,122.203 633.053,119.179 C632.623,118.128 632.266,117.211 631.979,116.433 C631.81,115.976 631.704,115.674 631.657,115.533 L629.103,116.385 L630.459,118.71 C630.732,118.551 631.219,118.259 631.881,117.847 C632.977,117.167 634.171,116.396 635.425,115.549 C646.238,108.249 653.334,101.328 653.334,94.846 L650.641,97.538 L679.359,97.538 Z" />
            <path d="M681.987,95.43 L685.577,79.276 L682.949,81.385 L697.308,81.385 C698.795,81.385 700,80.179 700,78.692 C700,77.205 698.795,76 697.308,76 L682.949,76 C681.687,76 680.594,76.876 680.321,78.108 L676.731,94.262 C676.408,95.714 677.324,97.152 678.775,97.474 C680.227,97.797 681.665,96.882 681.987,95.43 Z" />
            <path d="M653.269,94.262 L649.68,78.108 C649.406,76.876 648.313,76 647.051,76 L632.693,76 C631.206,76 630,77.205 630,78.692 C630,80.179 631.206,81.385 632.693,81.385 L647.052,81.385 L644.423,79.276 L648.013,95.43 C648.336,96.882 649.774,97.797 651.225,97.474 C652.677,97.152 653.592,95.714 653.269,94.262 Z" />
            <path d="M626.695,117.589 C627.306,118.811 628.545,120.463 630.562,122.077 C633.836,124.696 638.128,126.256 643.462,126.256 C652.368,126.256 652.368,126.256 664.011,126.256 C677.317,126.256 677.317,126.256 686.539,126.256 C691.087,126.256 695.153,124.707 698.667,122.152 C700.759,120.63 702.229,119.096 703.052,118 C703.944,116.81 703.703,115.123 702.513,114.231 C701.323,113.339 699.636,113.58 698.744,114.769 C698.638,114.911 698.377,115.221 697.972,115.644 C697.272,116.375 696.443,117.111 695.5,117.797 C692.844,119.728 689.843,120.872 686.539,120.872 C677.317,120.872 677.317,120.872 664.011,120.872 C652.368,120.872 652.368,120.872 643.462,120.872 C639.373,120.872 636.261,119.74 633.926,117.872 C633.129,117.235 632.486,116.557 631.986,115.891 C631.709,115.522 631.554,115.266 631.511,115.181 C630.846,113.851 629.229,113.312 627.899,113.977 C626.569,114.642 626.03,116.259 626.695,117.589 Z" />
            <path d="M637.793,129.54 C635.86,125.675 634.29,122.203 633.053,119.18 C632.623,118.129 632.266,117.211 631.979,116.433 C631.81,115.977 631.704,115.674 631.657,115.533 L629.103,116.385 L630.459,118.71 C630.732,118.551 631.219,118.259 631.881,117.847 C632.977,117.167 634.171,116.396 635.426,115.549 C636.658,114.717 636.982,113.044 636.15,111.811 C635.318,110.579 633.645,110.255 632.412,111.087 C631.217,111.894 630.081,112.627 629.041,113.273 C628.422,113.657 627.978,113.924 627.746,114.059 C626.645,114.701 626.146,116.027 626.549,117.236 C626.614,117.432 626.739,117.789 626.928,118.3 C627.237,119.135 627.616,120.11 628.069,121.218 C629.357,124.365 630.983,127.96 632.977,131.948 C633.642,133.278 635.259,133.817 636.589,133.152 C637.919,132.487 638.458,130.87 637.793,129.54 Z" />
            <path d="M697.921,131.948 C699.947,127.896 701.43,124.232 702.454,121.015 C703.082,119.04 703.42,117.625 703.553,116.827 C703.748,115.662 703.159,114.505 702.102,113.977 C701.845,113.848 701.348,113.589 700.66,113.211 C699.5,112.575 698.243,111.844 696.934,111.031 C695.67,110.246 694.01,110.634 693.226,111.898 C692.441,113.161 692.829,114.821 694.093,115.605 C695.488,116.472 696.829,117.251 698.069,117.932 C698.82,118.344 699.377,118.635 699.694,118.793 L700.898,116.385 L698.242,115.942 C698.224,116.049 698.17,116.318 698.069,116.74 C697.891,117.483 697.646,118.366 697.322,119.383 C696.383,122.335 695.005,125.739 693.105,129.54 C692.44,130.87 692.979,132.487 694.309,133.152 C695.639,133.817 697.256,133.278 697.921,131.948 Z" />
        </g>
    </g>
</svg>