<?xml version="1.0" encoding="UTF-8"?>
<svg height="600" width="800" xmlns="http://www.w3.org/2000/svg" xmlns:xlink="http://www.w3.org/1999/xlink">
    <g id="Notes" font-family="'LucidaGrande', 'Lucida Grande', sans-serif" font-size="13">
        <rect fill="white" height="600.0" width="800.0" x="0.0" y="0.0" />
        <g font-size="13">
            <text x="18.0" y="176.0">Small</text>
            <text x="18.0" y="376.0">Medium</text>
            <text x="18.0" y="576.0">Large</text>
        </g>
        <g font-size="9">
            <text x="250.0" y="30.0">Ultralight</text>
            <text x="450.0" y="30.0">Regular</text>
            <text x="650.0" y="30.0">Black</text>
            <text id="template-version" fill="#505050" text-anchor="end" x="785.0" y="575.0">Template v.3.0</text>
            <a href="https://github.com/swhitty/SwiftDraw">
                <text fill="#505050" text-anchor="end" x="785.0" y="590.0">https://github.com/swhitty/SwiftDraw</text>
            </a>
        </g>
    </g>
    <g id="Guides" stroke="rgb(39, 170, 225)" stroke-width="0.5">
        <path id="Capline-S" d="M18,76 l800,0" />
        <path id="H-reference" d="M85,145.755 L87.685,145.755 L113.369,79.287 L114.052,79.287 L114.052,76 L112.148,76 L85,145.755 Z M95.693,121.536 L130.996,121.536 L130.263,119.313 L96.474,119.313 L95.693,121.536 Z M139.15,145.755 L141.787,145.755 L114.638,76 L113.466,76 L113.466,79.287 L139.15,145.755 Z" stroke="none" />
        <path id="Baseline-S" d="M18,146 l800,0" />
        <path id="left-margin-Ultralight-S" d="M215.395,56 l0,110" />
        <path id="right-margin-Ultralight-S" d="M314.605,56 l0,110" />
        <path id="left-margin-Regular-S" d="M415.395,56 l0,110" />
        <path id="right-margin-Regular-S" d="M514.605,56 l0,110" />
        <path id="left-margin-Black-S" d="M615.395,56 l0,110" />
        <path id="right-margin-Black-S" d="M714.605,56 l0,110" />
        <path id="Capline-M" d="M18,276 l800,0" />
        <path id="Baseline-M" d="M18,346 l800,0" />
        <path id="Capline-L" d="M18,476 l800,0" />
        <path id="Baseline-L" d="M18,546 l800,0" />
    </g>
    <g id="Symbols">
        <g id="Ultralight-S">
            <path d="M230.921,104.341 C230.921,91.73 240.942,81.526 253.278,81.526 C263.428,81.526 272.24,88.494 274.858,98.36 C275.312,100.067 277.228,100.916 278.797,100.106 C280.733,99.106 282.875,98.578 285.096,98.578 C292.807,98.578 299.079,104.964 299.079,112.867 C299.079,118.375 296.004,123.311 291.26,125.697 C291.216,125.719 291.133,125.737 291.012,125.737 L248.421,125.737 C246.895,125.737 245.658,126.974 245.658,128.5 C245.658,130.026 246.895,131.263 248.421,131.263 L291.012,131.263 C291.964,131.263 292.897,131.059 293.743,130.634 C300.344,127.314 304.605,120.474 304.605,112.867 C304.605,101.934 295.882,93.052 285.096,93.052 C281.986,93.052 278.975,93.794 276.261,95.196 L277.529,97.651 L280.2,96.942 C276.946,84.682 265.964,76 253.278,76 C237.867,76 225.395,88.7 225.395,104.341 C225.395,105.867 226.632,107.104 228.158,107.104 C229.684,107.104 230.921,105.867 230.921,104.341 Z" />
            <path d="M248.421,125.737 L242.895,125.737 C237.299,125.737 232.763,130.273 232.763,135.868 C232.763,141.464 237.299,146 242.895,146 L248.421,146 C249.947,146 251.184,144.763 251.184,143.237 C251.184,141.711 249.947,140.474 248.421,140.474 L242.895,140.474 C240.351,140.474 238.289,138.412 238.289,135.868 C238.289,133.325 240.351,131.263 242.895,131.263 L248.421,131.263 C249.947,131.263 251.184,130.026 251.184,128.5 C251.184,126.974 249.947,125.737 248.421,125.737 Z" />
            <path d="M261.316,98.105 L255.789,98.105 C250.194,98.105 245.658,102.641 245.658,108.237 C245.658,113.832 250.194,118.368 255.789,118.368 L261.316,118.368 C262.842,118.368 264.079,117.131 264.079,115.605 C264.079,114.079 262.842,112.842 261.316,112.842 L255.789,112.842 C253.246,112.842 251.184,110.78 251.184,108.237 C251.184,105.693 253.246,103.632 255.789,103.632 L261.316,103.632 C262.842,103.632 264.079,102.394 264.079,100.868 C264.079,99.342 262.842,98.105 261.316,98.105 Z" />
            <path d="M255.789,118.368 L279.737,118.368 C281.263,118.368 282.5,117.131 282.5,115.605 C282.5,114.079 281.263,112.842 279.737,112.842 L255.789,112.842 C254.263,112.842 253.026,114.079 253.026,115.605 C253.026,117.131 254.263,118.368 255.789,118.368 Z" />
        </g>
        <g id="Regular-S">
            <path d="M430.921,104.341 C430.921,91.73 440.942,81.526 453.278,81.526 C463.428,81.526 472.24,88.494 474.858,98.36 C475.312,100.067 477.228,100.916 478.797,100.106 C480.733,99.106 482.875,98.578 485.096,98.578 C492.807,98.578 499.079,104.964 499.079,112.867 C499.079,118.375 496.004,123.311 491.26,125.697 C491.216,125.719 491.133,125.737 491.012,125.737 L448.421,125.737 C446.895,125.737 445.658,126.974 445.658,128.5 C445.658,130.026 446.895,131.263 448.421,131.263 L491.012,131.263 C491.964,131.263 492.897,131.059 493.743,130.634 C500.344,127.314 504.605,120.474 504.605,112.867 C504.605,101.934 495.882,93.052 485.096,93.052 C481.986,93.052 478.975,93.794 476.261,95.196 L477.529,97.651 L480.2,96.942 C476.946,84.682 465.964,76 453.278,76 C437.867,76 425.395,88.7 425.395,104.341 C425.395,105.867 426.632,107.104 428.158,107.104 C429.684,107.104 430.921,105.867 430.921,104.341 Z" />
            <path d="M448.421,125.737 L442.895,125.737 C437.299,125.737 432.763,130.273 432.763,135.868 C432.763,141.464 437.299,146 442.895,146 L448.421,146 C449.947,146 451.184,144.763 451.184,143.237 C451.184,141.711 449.947,140.474 448.421,140.474 L442.895,140.474 C440.351,140.474 438.289,138.412 438.289,135.868 C438.289,133.325 440.351,131.263 442.895,131.263 L448.421,131.263 C449.947,131.263 451.184,130.026 451.184,128.5 C451.184,126.974 449.947,125.737 448.421,125.737 Z" />
            <path d="M461.316,98.105 L455.789,98.105 C450.194,98.105 445.658,102.641 445.658,108.237 C445.658,113.832 450.194,118.368 455.789,118.368 L461.316,118.368 C462.842,118.368 464.079,117.131 464.079,115.605 C464.079,114.079 462.842,112.842 461.316,112.842 L455.789,112.842 C453.246,112.842 451.184,110.78 451.184,108.237 C451.184,105.693 453.246,103.632 455.789,103.632 L461.316,103.632 C462.842,103.632 464.079,102.394 464.079,100.868 C464.079,99.342 462.842,98.105 461.316,98.105 Z" />
            <path d="M455.789,118.368 L479.737,118.368 C481.263,118.368 482.5,117.131 482.5,115.605 C482.5,114.079 481.263,112.842 479.737,112.842 L455.789,112.842 C454.263,112.842 453.026,114.079 453.026,115.605 C453.026,117.131 454.263,118.368 455.789,118.368 Z" />
        </g>
        <g id="Black-S">
            <path d="M630.921,104.341 C630.921,91.73 640.942,81.526 653.278,81.526 C663.428,81.526 672.24,88.494 674.858,98.36 C675.312,100.067 677.228,100.916 678.797,100.106 C680.733,99.106 682.875,98.578 685.096,98.578 C692.807,98.578 699.079,104.964 699.079,112.867 C699.079,118.375 696.004,123.311 691.26,125.697 C691.216,125.719 691.133,125.737 691.012,125.737 L648.421,125.737 C646.895,125.737 645.658,126.974 645.658,128.5 C645.658,130.026 646.895,131.263 648.421,131.263 L691.012,131.263 C691.964,131.263 692.897,131.059 693.743,130.634 C700.344,127.314 704.605,120.474 704.605,112.867 C704.605,101.934 695.882,93.052 685.096,93.052 C681.986,93.052 678.975,93.794 676.261,95.196 L677.529,97.651 L680.2,96.942 C676.946,84.682 665.964,76 653.278,76 C637.867,76 625.395,88.7 625.395,104.341 C625.395,105.867 626.632,107.104 628.158,107.104 C629.684,107.104 630.921,105.867 630.921,104.341 Z" />
            <path d="M648.421,125.737 L642.895,125.737 C637.299,125.737 632.763,130.273 632.763,135.868 C632.763,141.464 637.299,146 642.895,146 L648.421,146 C649.947,146 651.184,144.763 651.184,143.237 C651.184,141.711 649.947,140.474 648.421,140.474 L642.895,140.474 C640.351,140.474 638.289,138.412 638.289,135.868 C638.289,133.325 640.351,131.263 642.895,131.263 L648.421,131.263 C649.947,131.263 651.184,130.026 651.184,128.5 C651.184,126.974 649.947,125.737 648.421,125.737 Z" />
            <path d="M661.316,98.105 L655.789,98.105 C650.194,98.105 645.658,102.641 645.658,108.237 C645.658,113.832 650.194,118.368 655.789,118.368 L661.316,118.368 C662.842,118.368 664.079,117.131 664.079,115.605 C664.079,114.079 662.842,112.842 661.316,112.842 L655.789,112.842 C653.246,112.842 651.184,110.78 651.184,108.237 C651.184,105.693 653.246,103.632 655.789,103.632 L661.316,103.632 C662.842,103.632 664.079,102.394 664.079,100.868 C664.079,99.342 662.842,98.105 661.316,98.105 Z" />
            <path d="M655.789,118.368 L679.737,118.368 C681.263,118.368 682.5,117.131 682.5,115.605 C682.5,114.079 681.263,112.842 679.737,112.842 L655.789,112.842 C654.263,112.842 653.026,114.079 653.026,115.605 C653.026,117.131 654.263,118.368 655.789,118.368 Z" />
        </g>
    </g>
</svg>