<?xml version="1.0" encoding="UTF-8"?>
<svg height="600" width="800" xmlns="http://www.w3.org/2000/svg" xmlns:xlink="http://www.w3.org/1999/xlink">
    <g id="Notes" font-family="'LucidaGrande', 'Lucida Grande', sans-serif" font-size="13">
        <rect fill="white" height="600.0" width="800.0" x="0.0" y="0.0" />
        <g font-size="13">
            <text x="18.0" y="176.0">Small</text>
            <text x="18.0" y="376.0">Medium</text>
            <text x="18.0" y="576.0">Large</text>
        </g>
        <g font-size="9">
            <text x="250.0" y="30.0">Ultralight</text>
            <text x="450.0" y="30.0">Regular</text>
            <text x="650.0" y="30.0">Black</text>
            <text id="template-version" fill="#505050" text-anchor="end" x="785.0" y="575.0">Template v.3.0</text>
            <a href="https://github.com/swhitty/SwiftDraw">
                <text fill="#505050" text-anchor="end" x="785.0" y="590.0">https://github.com/swhitty/SwiftDraw</text>
            </a>
        </g>
    </g>
    <g id="Guides" stroke="rgb(39, 170, 225)" stroke-width="0.5">
        <path id="Capline-S" d="M18,76 l800,0" />
        <path id="H-reference" d="M85,145.755 L87.685,145.755 L113.369,79.287 L114.052,79.287 L114.052,76 L112.148,76 L85,145.755 Z M95.693,121.536 L130.996,121.536 L130.263,119.313 L96.474,119.313 L95.693,121.536 Z M139.15,145.755 L141.787,145.755 L114.638,76 L113.466,76 L113.466,79.287 L139.15,145.755 Z" stroke="none" />
        <path id="Baseline-S" d="M18,146 l800,0" />
        <path id="left-margin-Ultralight-S" d="M221,56 l0,110" />
        <path id="right-margin-Ultralight-S" d="M309,56 l0,110" />
        <path id="left-margin-Regular-S" d="M421,56 l0,110" />
        <path id="right-margin-Regular-S" d="M509,56 l0,110" />
        <path id="left-margin-Black-S" d="M621,56 l0,110" />
        <path id="right-margin-Black-S" d="M709,56 l0,110" />
        <path id="Capline-M" d="M18,276 l800,0" />
        <path id="Baseline-M" d="M18,346 l800,0" />
        <path id="Capline-L" d="M18,476 l800,0" />
        <path id="Baseline-L" d="M18,546 l800,0" />
    </g>
    <g id="Symbols">
        <g id="Ultralight-S">
            <path d="M252.842,112.693 C262.975,112.693 271.189,104.479 271.189,94.346 C271.189,84.214 262.975,76 252.842,76 C242.71,76 234.496,84.214 234.496,94.346 C234.496,104.479 242.71,112.693 252.842,112.693 Z M252.842,107.907 C245.353,107.907 239.282,101.836 239.282,94.346 C239.282,86.857 245.353,80.786 252.842,80.786 C260.331,80.786 266.403,86.857 266.403,94.346 C266.403,101.836 260.331,107.907 252.842,107.907 Z" />
            <path d="M267.109,97.962 C266.917,97.75 266.917,97.75 267.018,97.872 C267.121,98.002 267.121,98.002 267.284,98.205 C267.52,98.502 267.873,98.946 268.344,99.538 C269.284,100.718 270.691,102.488 272.574,104.855 C276.288,109.527 281.872,116.55 289.458,126.092 C289.228,125.817 289.249,125.351 289.54,125.06 L283.026,131.574 C283.317,131.283 283.783,131.261 284.1,131.525 L257.31,108.486 C256.307,107.624 254.797,107.738 253.935,108.74 C253.073,109.742 253.187,111.253 254.189,112.114 L281.009,135.179 C282.624,136.523 284.952,136.416 286.41,134.958 L292.925,128.444 C294.382,126.986 294.489,124.657 293.17,123.073 C285.618,113.571 280.035,106.548 276.32,101.877 C274.437,99.508 273.029,97.739 272.09,96.558 C271.618,95.966 271.264,95.521 271.027,95.223 C270.863,95.018 270.863,95.018 270.757,94.885 C270.708,94.819 270.708,94.819 270.482,94.566 C269.544,93.635 268.029,93.64 267.098,94.578 C266.166,95.516 266.172,97.031 267.109,97.962 Z" />
            <path d="M267.854,112.742 L272.366,117.254 C273.3,118.189 274.816,118.189 275.75,117.254 C276.685,116.32 276.685,114.805 275.75,113.87 L271.238,109.358 C270.303,108.423 268.788,108.423 267.854,109.358 C266.919,110.292 266.919,111.807 267.854,112.742 Z" />
            <path d="M256.336,143.801 C258.958,140.384 261.989,138.759 265.59,138.759 C267.586,138.759 269.534,139.566 274.208,142.083 C274.624,142.307 274.856,142.432 275.113,142.569 C280.392,145.389 283.447,146.435 286.919,145.838 C295.194,144.417 298.339,135.575 292.535,130.426 C291.547,129.549 290.034,129.639 289.157,130.628 C288.28,131.617 288.37,133.129 289.359,134.006 C292.017,136.364 290.599,140.35 286.109,141.121 C284.063,141.473 281.712,140.668 277.368,138.347 C277.117,138.214 276.889,138.091 276.478,137.87 C271.028,134.934 268.706,133.973 265.59,133.973 C260.437,133.973 256.033,136.334 252.539,140.888 C251.734,141.937 251.932,143.439 252.981,144.243 C254.03,145.048 255.532,144.85 256.336,143.801 Z" />
        </g>
        <g id="Regular-S">
            <path d="M452.842,112.693 C462.975,112.693 471.189,104.479 471.189,94.346 C471.189,84.214 462.975,76 452.842,76 C442.71,76 434.496,84.214 434.496,94.346 C434.496,104.479 442.71,112.693 452.842,112.693 Z M452.842,107.907 C445.353,107.907 439.282,101.836 439.282,94.346 C439.282,86.857 445.353,80.786 452.842,80.786 C460.331,80.786 466.403,86.857 466.403,94.346 C466.403,101.836 460.331,107.907 452.842,107.907 Z" />
            <path d="M467.109,97.962 C466.917,97.75 466.917,97.75 467.018,97.872 C467.121,98.002 467.121,98.002 467.284,98.205 C467.52,98.502 467.873,98.946 468.344,99.538 C469.284,100.718 470.691,102.488 472.574,104.855 C476.288,109.527 481.872,116.55 489.458,126.092 C489.228,125.817 489.249,125.351 489.54,125.06 L483.026,131.574 C483.317,131.283 483.783,131.261 484.1,131.525 L457.31,108.486 C456.307,107.624 454.797,107.738 453.935,108.74 C453.073,109.742 453.187,111.253 454.189,112.114 L481.009,135.179 C482.624,136.523 484.952,136.416 486.41,134.958 L492.925,128.444 C494.382,126.986 494.489,124.657 493.17,123.073 C485.618,113.571 480.035,106.548 476.32,101.877 C474.437,99.508 473.029,97.739 472.09,96.558 C471.618,95.966 471.264,95.521 471.027,95.223 C470.863,95.018 470.863,95.018 470.757,94.885 C470.708,94.819 470.708,94.819 470.482,94.566 C469.544,93.635 468.029,93.64 467.098,94.578 C466.166,95.516 466.172,97.031 467.109,97.962 Z" />
            <path d="M467.854,112.742 L472.366,117.254 C473.3,118.189 474.816,118.189 475.75,117.254 C476.685,116.32 476.685,114.805 475.75,113.87 L471.238,109.358 C470.303,108.423 468.788,108.423 467.854,109.358 C466.919,110.292 466.919,111.807 467.854,112.742 Z" />
            <path d="M456.336,143.801 C458.958,140.384 461.989,138.759 465.59,138.759 C467.586,138.759 469.534,139.566 474.208,142.083 C474.624,142.307 474.856,142.432 475.113,142.569 C480.392,145.389 483.447,146.435 486.919,145.838 C495.194,144.417 498.339,135.575 492.535,130.426 C491.547,129.549 490.034,129.639 489.157,130.628 C488.28,131.617 488.37,133.129 489.359,134.006 C492.017,136.364 490.599,140.35 486.109,141.121 C484.063,141.473 481.712,140.668 477.368,138.347 C477.117,138.214 476.889,138.091 476.478,137.87 C471.028,134.934 468.706,133.973 465.59,133.973 C460.437,133.973 456.033,136.334 452.539,140.888 C451.734,141.937 451.932,143.439 452.981,144.243 C454.03,145.048 455.532,144.85 456.336,143.801 Z" />
        </g>
        <g id="Black-S">
            <path d="M652.842,112.693 C662.975,112.693 671.189,104.479 671.189,94.346 C671.189,84.214 662.975,76 652.842,76 C642.71,76 634.496,84.214 634.496,94.346 C634.496,104.479 642.71,112.693 652.842,112.693 Z M652.842,107.907 C645.353,107.907 639.282,101.836 639.282,94.346 C639.282,86.857 645.353,80.786 652.842,80.786 C660.331,80.786 666.403,86.857 666.403,94.346 C666.403,101.836 660.331,107.907 652.842,107.907 Z" />
            <path d="M667.109,97.962 C666.917,97.75 666.917,97.75 667.018,97.872 C667.121,98.002 667.121,98.002 667.284,98.205 C667.52,98.502 667.873,98.946 668.344,99.538 C669.284,100.718 670.691,102.488 672.574,104.855 C676.288,109.527 681.872,116.55 689.458,126.092 C689.228,125.817 689.249,125.351 689.54,125.06 L683.026,131.574 C683.317,131.283 683.783,131.261 684.1,131.525 L657.31,108.486 C656.307,107.624 654.797,107.738 653.935,108.74 C653.073,109.742 653.187,111.253 654.189,112.114 L681.009,135.179 C682.624,136.523 684.952,136.416 686.41,134.958 L692.925,128.444 C694.382,126.986 694.489,124.657 693.17,123.073 C685.618,113.571 680.035,106.548 676.32,101.877 C674.437,99.508 673.029,97.739 672.09,96.558 C671.618,95.966 671.264,95.521 671.027,95.223 C670.863,95.018 670.863,95.018 670.757,94.885 C670.708,94.819 670.708,94.819 670.482,94.566 C669.544,93.635 668.029,93.64 667.098,94.578 C666.166,95.516 666.172,97.031 667.109,97.962 Z" />
            <path d="M667.854,112.742 L672.366,117.254 C673.3,118.189 674.816,118.189 675.75,117.254 C676.685,116.32 676.685,114.805 675.75,113.87 L671.238,109.358 C670.303,108.423 668.788,108.423 667.854,109.358 C666.919,110.292 666.919,111.807 667.854,112.742 Z" />
            <path d="M656.336,143.801 C658.958,140.384 661.989,138.759 665.59,138.759 C667.586,138.759 669.534,139.566 674.208,142.083 C674.624,142.307 674.856,142.432 675.113,142.569 C680.392,145.389 683.447,146.435 686.919,145.838 C695.194,144.417 698.339,135.575 692.535,130.426 C691.547,129.549 690.034,129.639 689.157,130.628 C688.28,131.617 688.37,133.129 689.359,134.006 C692.017,136.364 690.599,140.35 686.109,141.121 C684.063,141.473 681.712,140.668 677.368,138.347 C677.117,138.214 676.889,138.091 676.478,137.87 C671.028,134.934 668.706,133.973 665.59,133.973 C660.437,133.973 656.032,136.334 652.539,140.888 C651.734,141.937 651.932,143.439 652.981,144.243 C654.03,145.048 655.532,144.85 656.336,143.801 Z" />
        </g>
    </g>
</svg>