<?xml version="1.0" encoding="UTF-8"?>
<svg height="600" width="800" xmlns="http://www.w3.org/2000/svg" xmlns:xlink="http://www.w3.org/1999/xlink">
    <g id="Notes" font-family="'LucidaGrande', 'Lucida Grande', sans-serif" font-size="13">
        <rect fill="white" height="600.0" width="800.0" x="0.0" y="0.0" />
        <g font-size="13">
            <text x="18.0" y="176.0">Small</text>
            <text x="18.0" y="376.0">Medium</text>
            <text x="18.0" y="576.0">Large</text>
        </g>
        <g font-size="9">
            <text x="250.0" y="30.0">Ultralight</text>
            <text x="450.0" y="30.0">Regular</text>
            <text x="650.0" y="30.0">Black</text>
            <text id="template-version" fill="#505050" text-anchor="end" x="785.0" y="575.0">Template v.3.0</text>
            <a href="https://github.com/swhitty/SwiftDraw">
                <text fill="#505050" text-anchor="end" x="785.0" y="590.0">https://github.com/swhitty/SwiftDraw</text>
            </a>
        </g>
    </g>
    <g id="Guides" stroke="rgb(39, 170, 225)" stroke-width="0.5">
        <path id="Capline-S" d="M18,76 l800,0" />
        <path id="H-reference" d="M85,145.755 L87.685,145.755 L113.369,79.287 L114.052,79.287 L114.052,76 L112.148,76 L85,145.755 Z M95.693,121.536 L130.996,121.536 L130.263,119.313 L96.474,119.313 L95.693,121.536 Z M139.15,145.755 L141.787,145.755 L114.638,76 L113.466,76 L113.466,79.287 L139.15,145.755 Z" stroke="none" />
        <path id="Baseline-S" d="M18,146 l800,0" />
        <path id="left-margin-Ultralight-S" d="M221,56 l0,110" />
        <path id="right-margin-Ultralight-S" d="M309,56 l0,110" />
        <path id="left-margin-Regular-S" d="M421,56 l0,110" />
        <path id="right-margin-Regular-S" d="M509,56 l0,110" />
        <path id="left-margin-Black-S" d="M621,56 l0,110" />
        <path id="right-margin-Black-S" d="M709,56 l0,110" />
        <path id="Capline-M" d="M18,276 l800,0" />
        <path id="Baseline-M" d="M18,346 l800,0" />
        <path id="Capline-L" d="M18,476 l800,0" />
        <path id="Baseline-L" d="M18,546 l800,0" />
    </g>
    <g id="Symbols">
        <g id="Ultralight-S">
            <path d="M292.674,109.372 L292.674,94.721 C292.674,94.118 292.451,93.536 292.048,93.087 L277.396,76.808 C276.933,76.294 276.274,76 275.581,76 L241.395,76 C238.249,76 235.698,78.551 235.698,81.698 L235.698,140.302 C235.698,143.449 238.249,146 241.395,146 L260.93,146 C262.279,146 263.372,144.907 263.372,143.558 C263.372,142.21 262.279,141.116 260.93,141.116 L241.395,141.116 C240.946,141.116 240.581,140.752 240.581,140.302 L240.581,81.698 C240.581,81.248 240.946,80.884 241.395,80.884 L275.581,80.884 L273.766,80.075 L288.418,96.354 L287.791,94.721 L287.791,109.372 C287.791,110.721 288.884,111.814 290.233,111.814 C291.581,111.814 292.674,110.721 292.674,109.372 Z" />
            <path d="M275.337,118.326 C270.437,118.326 266.628,122.765 266.628,128.071 C266.628,135.459 273.416,143.447 279.583,145.835 C280.151,146.055 280.78,146.055 281.347,145.835 C287.514,143.447 294.302,135.459 294.302,128.071 C294.302,122.765 290.493,118.326 285.593,118.326 C282.633,118.326 279.966,119.975 278.375,122.608 L280.465,123.871 L282.555,122.608 C280.964,119.975 278.297,118.326 275.337,118.326 Z M275.337,123.209 C276.508,123.209 277.633,123.905 278.375,125.133 C279.325,126.705 281.605,126.705 282.555,125.133 C283.297,123.905 284.423,123.209 285.593,123.209 C287.616,123.209 289.419,125.31 289.419,128.071 C289.419,133.213 284.023,139.562 279.583,141.281 L281.347,141.281 C276.907,139.562 271.512,133.213 271.512,128.071 C271.512,125.31 273.314,123.209 275.337,123.209 Z" />
            <path d="M271.512,78.442 L271.512,94.721 C271.512,96.07 272.605,97.163 273.953,97.163 L290.233,97.163 C291.581,97.163 292.674,96.07 292.674,94.721 C292.674,93.372 291.581,92.279 290.233,92.279 L273.953,92.279 L276.395,94.721 L276.395,78.442 C276.395,77.093 275.302,76 273.953,76 C272.605,76 271.512,77.093 271.512,78.442 Z" />
        </g>
        <g id="Regular-S">
            <path d="M492.674,109.372 L492.674,94.721 C492.674,94.118 492.451,93.536 492.048,93.087 L477.396,76.808 C476.933,76.294 476.274,76 475.581,76 L441.395,76 C438.249,76 435.698,78.551 435.698,81.698 L435.698,140.302 C435.698,143.449 438.249,146 441.395,146 L460.93,146 C462.279,146 463.372,144.907 463.372,143.558 C463.372,142.21 462.279,141.116 460.93,141.116 L441.395,141.116 C440.946,141.116 440.581,140.752 440.581,140.302 L440.581,81.698 C440.581,81.248 440.946,80.884 441.395,80.884 L475.581,80.884 L473.766,80.075 L488.418,96.354 L487.791,94.721 L487.791,109.372 C487.791,110.721 488.884,111.814 490.233,111.814 C491.581,111.814 492.674,110.721 492.674,109.372 Z" />
            <path d="M475.337,118.326 C470.437,118.326 466.628,122.765 466.628,128.071 C466.628,135.459 473.416,143.447 479.583,145.835 C480.151,146.055 480.78,146.055 481.347,145.835 C487.514,143.447 494.302,135.459 494.302,128.071 C494.302,122.765 490.493,118.326 485.593,118.326 C482.633,118.326 479.966,119.975 478.375,122.608 L480.465,123.871 L482.555,122.608 C480.964,119.975 478.297,118.326 475.337,118.326 Z M475.337,123.209 C476.508,123.209 477.633,123.905 478.375,125.133 C479.325,126.705 481.605,126.705 482.555,125.133 C483.297,123.905 484.423,123.209 485.593,123.209 C487.616,123.209 489.419,125.31 489.419,128.071 C489.419,133.213 484.023,139.562 479.583,141.281 L481.347,141.281 C476.907,139.562 471.512,133.213 471.512,128.071 C471.512,125.31 473.314,123.209 475.337,123.209 Z" />
            <path d="M471.512,78.442 L471.512,94.721 C471.512,96.07 472.605,97.163 473.953,97.163 L490.233,97.163 C491.581,97.163 492.674,96.07 492.674,94.721 C492.674,93.372 491.581,92.279 490.233,92.279 L473.953,92.279 L476.395,94.721 L476.395,78.442 C476.395,77.093 475.302,76 473.953,76 C472.605,76 471.512,77.093 471.512,78.442 Z" />
        </g>
        <g id="Black-S">
            <path d="M692.674,109.372 L692.674,94.721 C692.674,94.118 692.451,93.536 692.048,93.087 L677.396,76.808 C676.933,76.294 676.274,76 675.581,76 L641.395,76 C638.249,76 635.698,78.551 635.698,81.698 L635.698,140.302 C635.698,143.449 638.249,146 641.395,146 L660.93,146 C662.279,146 663.372,144.907 663.372,143.558 C663.372,142.21 662.279,141.116 660.93,141.116 L641.395,141.116 C640.946,141.116 640.581,140.752 640.581,140.302 L640.581,81.698 C640.581,81.248 640.946,80.884 641.395,80.884 L675.581,80.884 L673.766,80.075 L688.418,96.354 L687.791,94.721 L687.791,109.372 C687.791,110.721 688.884,111.814 690.233,111.814 C691.581,111.814 692.674,110.721 692.674,109.372 Z" />
            <path d="M675.337,118.326 C670.437,118.326 666.628,122.765 666.628,128.071 C666.628,135.459 673.416,143.447 679.583,145.835 C680.151,146.055 680.78,146.055 681.347,145.835 C687.514,143.447 694.302,135.459 694.302,128.071 C694.302,122.765 690.493,118.326 685.593,118.326 C682.633,118.326 679.966,119.975 678.375,122.608 L680.465,123.871 L682.555,122.608 C680.964,119.975 678.297,118.326 675.337,118.326 Z M675.337,123.209 C676.508,123.209 677.633,123.905 678.375,125.133 C679.325,126.705 681.605,126.705 682.555,125.133 C683.297,123.905 684.423,123.209 685.593,123.209 C687.616,123.209 689.419,125.31 689.419,128.071 C689.419,133.213 684.023,139.562 679.583,141.281 L681.347,141.281 C676.907,139.562 671.512,133.213 671.512,128.071 C671.512,125.31 673.314,123.209 675.337,123.209 Z" />
            <path d="M671.512,78.442 L671.512,94.721 C671.512,96.07 672.605,97.163 673.953,97.163 L690.233,97.163 C691.581,97.163 692.674,96.07 692.674,94.721 C692.674,93.372 691.581,92.279 690.233,92.279 L673.953,92.279 L676.395,94.721 L676.395,78.442 C676.395,77.093 675.302,76 673.953,76 C672.605,76 671.512,77.093 671.512,78.442 Z" />
        </g>
    </g>
</svg>