<?xml version="1.0" encoding="UTF-8"?>
<svg height="600" width="800" xmlns="http://www.w3.org/2000/svg" xmlns:xlink="http://www.w3.org/1999/xlink">
    <g id="Notes" font-family="'LucidaGrande', 'Lucida Grande', sans-serif" font-size="13">
        <rect fill="white" height="600.0" width="800.0" x="0.0" y="0.0" />
        <g font-size="13">
            <text x="18.0" y="176.0">Small</text>
            <text x="18.0" y="376.0">Medium</text>
            <text x="18.0" y="576.0">Large</text>
        </g>
        <g font-size="9">
            <text x="250.0" y="30.0">Ultralight</text>
            <text x="450.0" y="30.0">Regular</text>
            <text x="650.0" y="30.0">Black</text>
            <text id="template-version" fill="#505050" text-anchor="end" x="785.0" y="575.0">Template v.3.0</text>
            <a href="https://github.com/swhitty/SwiftDraw">
                <text fill="#505050" text-anchor="end" x="785.0" y="590.0">https://github.com/swhitty/SwiftDraw</text>
            </a>
        </g>
    </g>
    <g id="Guides" stroke="rgb(39, 170, 225)" stroke-width="0.5">
        <path id="Capline-S" d="M18,76 l800,0" />
        <path id="H-reference" d="M85,145.755 L87.685,145.755 L113.369,79.287 L114.052,79.287 L114.052,76 L112.148,76 L85,145.755 Z M95.693,121.536 L130.996,121.536 L130.263,119.313 L96.474,119.313 L95.693,121.536 Z M139.15,145.755 L141.787,145.755 L114.638,76 L113.466,76 L113.466,79.287 L139.15,145.755 Z" stroke="none" />
        <path id="Baseline-S" d="M18,146 l800,0" />
        <path id="left-margin-Ultralight-S" d="M211.993,56 l0,110" />
        <path id="right-margin-Ultralight-S" d="M318.007,56 l0,110" />
        <path id="left-margin-Regular-S" d="M411.993,56 l0,110" />
        <path id="right-margin-Regular-S" d="M518.007,56 l0,110" />
        <path id="left-margin-Black-S" d="M611.993,56 l0,110" />
        <path id="right-margin-Black-S" d="M718.007,56 l0,110" />
        <path id="Capline-M" d="M18,276 l800,0" />
        <path id="Baseline-M" d="M18,346 l800,0" />
        <path id="Capline-L" d="M18,476 l800,0" />
        <path id="Baseline-L" d="M18,546 l800,0" />
    </g>
    <g id="Symbols">
        <g id="Ultralight-S">
            <path d="M252.572,86.229 C253.175,87.328 253.502,88.568 253.545,89.909 C253.603,91.683 255.181,93.019 256.94,92.785 C259.248,92.477 261.609,92.321 264.001,92.321 C267.049,92.321 270.046,92.575 272.944,93.071 C274.766,93.383 276.434,91.989 276.45,90.14 C276.462,88.711 276.791,87.391 277.428,86.229 C280.032,81.479 287.404,80.47 294.036,84.503 C300.745,88.583 303.688,96.032 301.022,100.894 C300.423,101.988 299.58,102.889 298.523,103.579 C297.181,104.455 296.765,106.231 297.578,107.613 C299.178,110.333 300.001,113.213 300.001,116.161 C300.001,129.036 284.07,140 264.001,140 C243.931,140 228,129.036 228,116.161 C228,112.883 229.018,109.687 230.99,106.707 C231.807,105.471 231.6,103.824 230.503,102.828 C229.891,102.274 229.38,101.628 228.978,100.894 C226.312,96.032 229.255,88.583 235.964,84.503 C242.596,80.47 249.968,81.479 252.572,86.229 Z M257.834,83.345 C253.401,75.258 242.151,73.718 232.846,79.377 C223.618,84.989 219.345,95.803 223.716,103.778 C224.441,105.1 225.368,106.273 226.473,107.274 L228.488,105.051 L225.986,103.396 C223.382,107.332 222,111.67 222,116.161 C222,132.931 240.991,146 264.001,146 C287.01,146 306.001,132.931 306.001,116.161 C306.001,112.117 304.88,108.191 302.749,104.569 L300.163,106.091 L301.803,108.603 C303.678,107.379 305.205,105.747 306.284,103.778 C310.655,95.803 306.382,84.989 297.154,79.377 C287.85,73.718 276.599,75.258 272.166,83.345 C271.042,85.396 270.47,87.69 270.45,90.089 L273.45,90.114 L273.956,87.157 C270.723,86.604 267.387,86.321 264.001,86.321 C261.344,86.321 258.718,86.495 256.148,86.837 L256.544,89.811 L259.542,89.713 C259.468,87.449 258.898,85.288 257.834,83.345 Z" />
            <path d="M236.999,96.999 C236.999,94.79 238.79,92.999 241,92.999 C243.209,92.999 245,94.79 245,96.999 C245,99.208 243.209,100.999 241,100.999 C238.79,100.999 236.999,99.208 236.999,96.999 Z" />
            <path d="M253.312,120.152 C253.312,117.943 255.103,116.152 257.312,116.152 C259.521,116.152 261.312,117.943 261.312,120.152 C261.312,122.361 259.521,124.152 257.312,124.152 C255.103,124.152 253.312,122.361 253.312,120.152 Z" />
            <path d="M269.313,120.152 C269.313,117.943 271.103,116.152 273.313,116.152 C275.522,116.152 277.313,117.943 277.313,120.152 C277.313,122.361 275.522,124.152 273.313,124.152 C271.103,124.152 269.313,122.361 269.313,120.152 Z" />
            <path d="M285,96.999 C285,94.79 286.791,92.999 289.001,92.999 C291.21,92.999 293.001,94.79 293.001,96.999 C293.001,99.208 291.21,100.999 289.001,100.999 C286.791,100.999 285,99.208 285,96.999 Z" />
        </g>
        <g id="Regular-S">
            <path d="M452.572,86.229 C453.175,87.328 453.502,88.568 453.545,89.909 C453.603,91.683 455.181,93.019 456.94,92.785 C459.248,92.477 461.609,92.321 464.001,92.321 C467.049,92.321 470.046,92.575 472.944,93.071 C474.766,93.383 476.434,91.989 476.45,90.14 C476.462,88.711 476.791,87.391 477.428,86.229 C480.032,81.479 487.404,80.47 494.036,84.503 C500.745,88.583 503.688,96.032 501.022,100.894 C500.423,101.988 499.58,102.889 498.523,103.579 C497.181,104.455 496.765,106.231 497.578,107.613 C499.178,110.333 500.001,113.213 500.001,116.161 C500.001,129.036 484.07,140 464.001,140 C443.931,140 428,129.036 428,116.161 C428,112.883 429.018,109.687 430.99,106.707 C431.807,105.471 431.6,103.824 430.503,102.828 C429.891,102.274 429.38,101.628 428.978,100.894 C426.312,96.032 429.255,88.583 435.964,84.503 C442.596,80.47 449.968,81.479 452.572,86.229 Z M457.834,83.345 C453.401,75.258 442.151,73.718 432.846,79.377 C423.618,84.989 419.345,95.803 423.716,103.778 C424.441,105.1 425.368,106.273 426.473,107.274 L428.488,105.051 L425.986,103.396 C423.382,107.332 422,111.67 422,116.161 C422,132.931 440.991,146 464.001,146 C487.01,146 506.001,132.931 506.001,116.161 C506.001,112.117 504.88,108.191 502.749,104.569 L500.163,106.091 L501.803,108.603 C503.678,107.379 505.205,105.747 506.284,103.778 C510.655,95.803 506.382,84.989 497.154,79.377 C487.85,73.718 476.599,75.258 472.166,83.345 C471.042,85.396 470.47,87.69 470.45,90.089 L473.45,90.114 L473.956,87.157 C470.723,86.604 467.387,86.321 464.001,86.321 C461.344,86.321 458.718,86.495 456.148,86.837 L456.544,89.811 L459.542,89.713 C459.468,87.449 458.898,85.288 457.834,83.345 Z" />
            <path d="M436.999,96.999 C436.999,94.79 438.79,92.999 441,92.999 C443.209,92.999 445,94.79 445,96.999 C445,99.208 443.209,100.999 441,100.999 C438.79,100.999 436.999,99.208 436.999,96.999 Z" />
            <path d="M453.312,120.152 C453.312,117.943 455.103,116.152 457.312,116.152 C459.521,116.152 461.312,117.943 461.312,120.152 C461.312,122.361 459.521,124.152 457.312,124.152 C455.103,124.152 453.312,122.361 453.312,120.152 Z" />
            <path d="M469.313,120.152 C469.313,117.943 471.103,116.152 473.313,116.152 C475.522,116.152 477.313,117.943 477.313,120.152 C477.313,122.361 475.522,124.152 473.313,124.152 C471.103,124.152 469.313,122.361 469.313,120.152 Z" />
            <path d="M485,96.999 C485,94.79 486.791,92.999 489.001,92.999 C491.21,92.999 493.001,94.79 493.001,96.999 C493.001,99.208 491.21,100.999 489.001,100.999 C486.791,100.999 485,99.208 485,96.999 Z" />
        </g>
        <g id="Black-S">
            <path d="M652.572,86.229 C653.175,87.328 653.502,88.568 653.545,89.909 C653.603,91.683 655.181,93.019 656.94,92.785 C659.248,92.477 661.609,92.321 664.001,92.321 C667.049,92.321 670.046,92.575 672.944,93.071 C674.766,93.383 676.434,91.989 676.45,90.14 C676.462,88.711 676.791,87.391 677.428,86.229 C680.032,81.479 687.404,80.47 694.036,84.503 C700.745,88.583 703.688,96.032 701.022,100.894 C700.423,101.988 699.58,102.889 698.523,103.579 C697.181,104.455 696.765,106.231 697.578,107.613 C699.178,110.333 700.001,113.213 700.001,116.161 C700.001,129.036 684.07,140 664.001,140 C643.931,140 628,129.036 628,116.161 C628,112.883 629.018,109.687 630.99,106.707 C631.807,105.471 631.6,103.824 630.503,102.828 C629.891,102.274 629.38,101.628 628.978,100.894 C626.312,96.032 629.255,88.583 635.964,84.503 C642.596,80.47 649.969,81.479 652.572,86.229 Z M657.834,83.345 C653.401,75.258 642.151,73.718 632.846,79.377 C623.618,84.989 619.345,95.803 623.716,103.778 C624.441,105.1 625.368,106.273 626.473,107.274 L628.488,105.051 L625.986,103.396 C623.382,107.332 622,111.67 622,116.161 C622,132.931 640.991,146 664.001,146 C687.01,146 706.001,132.931 706.001,116.161 C706.001,112.117 704.88,108.191 702.749,104.569 L700.163,106.091 L701.803,108.603 C703.678,107.379 705.205,105.747 706.284,103.778 C710.655,95.803 706.383,84.989 697.154,79.377 C687.85,73.718 676.599,75.258 672.166,83.345 C671.042,85.396 670.47,87.69 670.45,90.089 L673.45,90.114 L673.956,87.157 C670.723,86.604 667.387,86.321 664.001,86.321 C661.344,86.321 658.718,86.495 656.148,86.837 L656.544,89.811 L659.542,89.713 C659.468,87.449 658.898,85.288 657.834,83.345 Z" />
            <path d="M637,96.999 C637,94.79 638.79,92.999 641,92.999 C643.209,92.999 645,94.79 645,96.999 C645,99.208 643.209,100.999 641,100.999 C638.79,100.999 637,99.208 637,96.999 Z" />
            <path d="M653.312,120.152 C653.312,117.943 655.103,116.152 657.312,116.152 C659.521,116.152 661.312,117.943 661.312,120.152 C661.312,122.361 659.521,124.152 657.312,124.152 C655.103,124.152 653.312,122.361 653.312,120.152 Z" />
            <path d="M669.312,120.152 C669.312,117.943 671.103,116.152 673.313,116.152 C675.522,116.152 677.313,117.943 677.313,120.152 C677.313,122.361 675.522,124.152 673.313,124.152 C671.103,124.152 669.312,122.361 669.312,120.152 Z" />
            <path d="M685,96.999 C685,94.79 686.791,92.999 689,92.999 C691.21,92.999 693.001,94.79 693.001,96.999 C693.001,99.208 691.21,100.999 689,100.999 C686.791,100.999 685,99.208 685,96.999 Z" />
        </g>
    </g>
</svg>