<?xml version="1.0" encoding="UTF-8"?>
<svg height="600" width="800" xmlns="http://www.w3.org/2000/svg" xmlns:xlink="http://www.w3.org/1999/xlink">
    <g id="Notes" font-family="'LucidaGrande', 'Lucida Grande', sans-serif" font-size="13">
        <rect fill="white" height="600.0" width="800.0" x="0.0" y="0.0" />
        <g font-size="13">
            <text x="18.0" y="176.0">Small</text>
            <text x="18.0" y="376.0">Medium</text>
            <text x="18.0" y="576.0">Large</text>
        </g>
        <g font-size="9">
            <text x="250.0" y="30.0">Ultralight</text>
            <text x="450.0" y="30.0">Regular</text>
            <text x="650.0" y="30.0">Black</text>
            <text id="template-version" fill="#505050" text-anchor="end" x="785.0" y="575.0">Template v.3.0</text>
            <a href="https://github.com/swhitty/SwiftDraw">
                <text fill="#505050" text-anchor="end" x="785.0" y="590.0">https://github.com/swhitty/SwiftDraw</text>
            </a>
        </g>
    </g>
    <g id="Guides" stroke="rgb(39, 170, 225)" stroke-width="0.5">
        <path id="Capline-S" d="M18,76 l800,0" />
        <path id="H-reference" d="M85,145.755 L87.685,145.755 L113.369,79.287 L114.052,79.287 L114.052,76 L112.148,76 L85,145.755 Z M95.693,121.536 L130.996,121.536 L130.263,119.313 L96.474,119.313 L95.693,121.536 Z M139.15,145.755 L141.787,145.755 L114.638,76 L113.466,76 L113.466,79.287 L139.15,145.755 Z" stroke="none" />
        <path id="Baseline-S" d="M18,146 l800,0" />
        <path id="left-margin-Ultralight-S" d="M220,56 l0,110" />
        <path id="right-margin-Ultralight-S" d="M310,56 l0,110" />
        <path id="left-margin-Regular-S" d="M420,56 l0,110" />
        <path id="right-margin-Regular-S" d="M510,56 l0,110" />
        <path id="left-margin-Black-S" d="M620,56 l0,110" />
        <path id="right-margin-Black-S" d="M710,56 l0,110" />
        <path id="Capline-M" d="M18,276 l800,0" />
        <path id="Baseline-M" d="M18,346 l800,0" />
        <path id="Capline-L" d="M18,476 l800,0" />
        <path id="Baseline-L" d="M18,546 l800,0" />
    </g>
    <g id="Symbols">
        <g id="Ultralight-S">
            <path d="M230,111 C230,130.33 245.67,146 265,146 C266.414,146 267.561,144.853 267.561,143.439 L267.561,114.415 C267.561,113.943 267.943,113.561 268.415,113.561 L297.439,113.561 C298.853,113.561 300,112.414 300,111 C300,91.67 284.33,76 265,76 C245.67,76 230,91.67 230,111 Z M235.122,111 C235.122,94.499 248.499,81.122 265,81.122 C281.501,81.122 294.878,94.499 294.878,111 L297.439,108.439 L268.415,108.439 C265.114,108.439 262.439,111.114 262.439,114.415 L262.439,143.439 L265,140.878 C248.499,140.878 235.122,127.501 235.122,111 Z" />
            <path d="M293.171,121.244 L293.171,141.732 L295.732,139.171 L275.244,139.171 L277.805,141.732 L277.805,121.244 L275.244,123.805 L295.732,123.805 L293.171,121.244 Z M298.293,121.244 C298.293,119.83 297.146,118.683 295.732,118.683 L275.244,118.683 C273.829,118.683 272.683,119.83 272.683,121.244 L272.683,141.732 C272.683,143.146 273.829,144.293 275.244,144.293 L295.732,144.293 C297.146,144.293 298.293,143.146 298.293,141.732 L298.293,121.244 Z" />
        </g>
        <g id="Regular-S">
            <path d="M430,111 C430,130.33 445.67,146 465,146 C466.414,146 467.561,144.853 467.561,143.439 L467.561,114.415 C467.561,113.943 467.943,113.561 468.415,113.561 L497.439,113.561 C498.853,113.561 500,112.414 500,111 C500,91.67 484.33,76 465,76 C445.67,76 430,91.67 430,111 Z M435.122,111 C435.122,94.499 448.499,81.122 465,81.122 C481.501,81.122 494.878,94.499 494.878,111 L497.439,108.439 L468.415,108.439 C465.114,108.439 462.439,111.114 462.439,114.415 L462.439,143.439 L465,140.878 C448.499,140.878 435.122,127.501 435.122,111 Z" />
            <path d="M493.171,121.244 L493.171,141.732 L495.732,139.171 L475.244,139.171 L477.805,141.732 L477.805,121.244 L475.244,123.805 L495.732,123.805 L493.171,121.244 Z M498.293,121.244 C498.293,119.83 497.146,118.683 495.732,118.683 L475.244,118.683 C473.829,118.683 472.683,119.83 472.683,121.244 L472.683,141.732 C472.683,143.146 473.829,144.293 475.244,144.293 L495.732,144.293 C497.146,144.293 498.293,143.146 498.293,141.732 L498.293,121.244 Z" />
        </g>
        <g id="Black-S">
            <path d="M630,111 C630,130.33 645.67,146 665,146 C666.414,146 667.561,144.853 667.561,143.439 L667.561,114.415 C667.561,113.943 667.943,113.561 668.415,113.561 L697.439,113.561 C698.853,113.561 700,112.414 700,111 C700,91.67 684.33,76 665,76 C645.67,76 630,91.67 630,111 Z M635.122,111 C635.122,94.499 648.499,81.122 665,81.122 C681.501,81.122 694.878,94.499 694.878,111 L697.439,108.439 L668.415,108.439 C665.114,108.439 662.439,111.114 662.439,114.415 L662.439,143.439 L665,140.878 C648.499,140.878 635.122,127.501 635.122,111 Z" />
            <path d="M693.171,121.244 L693.171,141.732 L695.732,139.171 L675.244,139.171 L677.805,141.732 L677.805,121.244 L675.244,123.805 L695.732,123.805 L693.171,121.244 Z M698.293,121.244 C698.293,119.83 697.146,118.683 695.732,118.683 L675.244,118.683 C673.83,118.683 672.683,119.83 672.683,121.244 L672.683,141.732 C672.683,143.146 673.83,144.293 675.244,144.293 L695.732,144.293 C697.146,144.293 698.293,143.146 698.293,141.732 L698.293,121.244 Z" />
        </g>
    </g>
</svg>