<?xml version="1.0" encoding="UTF-8"?>
<svg height="600" width="800" xmlns="http://www.w3.org/2000/svg" xmlns:xlink="http://www.w3.org/1999/xlink">
    <g id="Notes" font-family="'LucidaGrande', 'Lucida Grande', sans-serif" font-size="13">
        <rect fill="white" height="600.0" width="800.0" x="0.0" y="0.0" />
        <g font-size="13">
            <text x="18.0" y="176.0">Small</text>
            <text x="18.0" y="376.0">Medium</text>
            <text x="18.0" y="576.0">Large</text>
        </g>
        <g font-size="9">
            <text x="250.0" y="30.0">Ultralight</text>
            <text x="450.0" y="30.0">Regular</text>
            <text x="650.0" y="30.0">Black</text>
            <text id="template-version" fill="#505050" text-anchor="end" x="785.0" y="575.0">Template v.3.0</text>
            <a href="https://github.com/swhitty/SwiftDraw">
                <text fill="#505050" text-anchor="end" x="785.0" y="590.0">https://github.com/swhitty/SwiftDraw</text>
            </a>
        </g>
    </g>
    <g id="Guides" stroke="rgb(39, 170, 225)" stroke-width="0.5">
        <path id="Capline-S" d="M18,76 l800,0" />
        <path id="H-reference" d="M85,145.755 L87.685,145.755 L113.369,79.287 L114.052,79.287 L114.052,76 L112.148,76 L85,145.755 Z M95.693,121.536 L130.996,121.536 L130.263,119.313 L96.474,119.313 L95.693,121.536 Z M139.15,145.755 L141.787,145.755 L114.638,76 L113.466,76 L113.466,79.287 L139.15,145.755 Z" stroke="none" />
        <path id="Baseline-S" d="M18,146 l800,0" />
        <path id="left-margin-Ultralight-S" d="M221,56 l0,110" />
        <path id="right-margin-Ultralight-S" d="M309,56 l0,110" />
        <path id="left-margin-Regular-S" d="M421,56 l0,110" />
        <path id="right-margin-Regular-S" d="M509,56 l0,110" />
        <path id="left-margin-Black-S" d="M621,56 l0,110" />
        <path id="right-margin-Black-S" d="M709,56 l0,110" />
        <path id="Capline-M" d="M18,276 l800,0" />
        <path id="Baseline-M" d="M18,346 l800,0" />
        <path id="Capline-L" d="M18,476 l800,0" />
        <path id="Baseline-L" d="M18,546 l800,0" />
    </g>
    <g id="Symbols">
        <g id="Ultralight-S">
            <path d="M273.022,100.197 L250.593,88.392 C244.34,85.101 236.829,89.636 236.829,96.702 L236.829,121.244 C236.829,122.658 237.976,123.805 239.39,123.805 C240.805,123.805 241.951,122.658 241.951,121.244 L241.951,96.702 C241.951,93.49 245.365,91.429 248.207,92.925 L270.637,104.73 C271.888,105.388 273.437,104.908 274.096,103.656 C274.754,102.405 274.274,100.856 273.022,100.197 Z" />
            <path d="M240.963,123.265 L256.328,111.314 C256.952,110.829 257.317,110.083 257.317,109.293 L257.317,93.927 C257.317,92.512 256.171,91.366 254.756,91.366 C253.342,91.366 252.195,92.512 252.195,93.927 L252.195,109.293 L253.184,107.271 L237.818,119.222 C236.702,120.091 236.5,121.7 237.369,122.816 C238.237,123.933 239.846,124.134 240.963,123.265 Z" />
            <path d="M244.377,92.534 L259.743,80.583 L257.025,80.852 L284.342,94.51 L283.951,90.171 L270.293,100.415 C269.161,101.263 268.932,102.868 269.78,104 C270.629,105.132 272.234,105.361 273.366,104.512 L287.024,94.268 C288.547,93.126 288.336,90.78 286.633,89.929 L259.316,76.27 C258.434,75.829 257.377,75.934 256.598,76.539 L241.233,88.491 C240.116,89.359 239.915,90.968 240.783,92.084 C241.652,93.201 243.261,93.402 244.377,92.534 Z" />
            <path d="M256.978,121.803 L279.407,133.608 C285.66,136.899 293.171,132.364 293.171,125.298 L293.171,100.756 C293.171,99.342 292.024,98.195 290.61,98.195 C289.195,98.195 288.049,99.342 288.049,100.756 L288.049,125.298 C288.049,128.51 284.635,130.571 281.793,129.075 L259.363,117.27 C258.112,116.612 256.563,117.092 255.904,118.344 C255.246,119.595 255.726,121.144 256.978,121.803 Z" />
            <path d="M289.037,98.735 L273.672,110.686 C273.048,111.171 272.683,111.917 272.683,112.707 L272.683,128.073 C272.683,129.488 273.83,130.634 275.244,130.634 C276.658,130.634 277.805,129.488 277.805,128.073 L277.805,112.707 L276.816,114.729 L292.182,102.778 C293.298,101.909 293.5,100.3 292.631,99.184 C291.763,98.067 290.154,97.866 289.037,98.735 Z" />
            <path d="M285.623,129.466 L270.257,141.417 L272.975,141.148 L245.658,127.49 L246.049,131.829 L259.707,121.585 C260.839,120.737 261.068,119.132 260.22,118 C259.371,116.868 257.766,116.639 256.634,117.488 L242.976,127.732 C241.453,128.874 241.664,131.22 243.367,132.071 L270.684,145.73 C271.566,146.171 272.623,146.066 273.402,145.461 L288.767,133.509 C289.884,132.641 290.085,131.032 289.217,129.916 C288.348,128.799 286.739,128.598 285.623,129.466 Z" />
        </g>
        <g id="Regular-S">
            <path d="M473.022,100.197 L450.593,88.392 C444.34,85.101 436.829,89.636 436.829,96.702 L436.829,121.244 C436.829,122.658 437.976,123.805 439.39,123.805 C440.805,123.805 441.951,122.658 441.951,121.244 L441.951,96.702 C441.951,93.49 445.365,91.429 448.207,92.925 L470.637,104.73 C471.888,105.388 473.437,104.908 474.096,103.656 C474.754,102.405 474.274,100.856 473.022,100.197 Z" />
            <path d="M440.963,123.265 L456.328,111.314 C456.952,110.829 457.317,110.083 457.317,109.293 L457.317,93.927 C457.317,92.512 456.171,91.366 454.756,91.366 C453.342,91.366 452.195,92.512 452.195,93.927 L452.195,109.293 L453.184,107.271 L437.818,119.222 C436.702,120.091 436.5,121.7 437.369,122.816 C438.237,123.933 439.846,124.134 440.963,123.265 Z" />
            <path d="M444.377,92.534 L459.743,80.583 L457.025,80.852 L484.342,94.51 L483.951,90.171 L470.293,100.415 C469.161,101.263 468.932,102.868 469.78,104 C470.629,105.132 472.234,105.361 473.366,104.512 L487.024,94.268 C488.547,93.126 488.336,90.78 486.633,89.929 L459.316,76.27 C458.434,75.829 457.377,75.934 456.598,76.539 L441.233,88.491 C440.116,89.359 439.915,90.968 440.783,92.084 C441.652,93.201 443.261,93.402 444.377,92.534 Z" />
            <path d="M456.978,121.803 L479.407,133.608 C485.66,136.899 493.171,132.364 493.171,125.298 L493.171,100.756 C493.171,99.342 492.024,98.195 490.61,98.195 C489.195,98.195 488.049,99.342 488.049,100.756 L488.049,125.298 C488.049,128.51 484.635,130.571 481.793,129.075 L459.363,117.27 C458.112,116.612 456.563,117.092 455.904,118.344 C455.246,119.595 455.726,121.144 456.978,121.803 Z" />
            <path d="M489.037,98.735 L473.672,110.686 C473.048,111.171 472.683,111.917 472.683,112.707 L472.683,128.073 C472.683,129.488 473.83,130.634 475.244,130.634 C476.658,130.634 477.805,129.488 477.805,128.073 L477.805,112.707 L476.816,114.729 L492.182,102.778 C493.298,101.909 493.5,100.3 492.631,99.184 C491.763,98.067 490.154,97.866 489.037,98.735 Z" />
            <path d="M485.623,129.466 L470.257,141.417 L472.975,141.148 L445.658,127.49 L446.049,131.829 L459.707,121.585 C460.839,120.737 461.068,119.132 460.22,118 C459.371,116.868 457.766,116.639 456.634,117.488 L442.976,127.732 C441.453,128.874 441.664,131.22 443.367,132.071 L470.684,145.73 C471.566,146.171 472.623,146.066 473.402,145.461 L488.767,133.509 C489.884,132.641 490.085,131.032 489.217,129.916 C488.348,128.799 486.739,128.598 485.623,129.466 Z" />
        </g>
        <g id="Black-S">
            <path d="M673.022,100.197 L650.593,88.392 C644.34,85.101 636.829,89.636 636.829,96.702 L636.829,121.244 C636.829,122.658 637.976,123.805 639.39,123.805 C640.805,123.805 641.951,122.658 641.951,121.244 L641.951,96.702 C641.951,93.49 645.365,91.429 648.207,92.925 L670.636,104.73 C671.888,105.388 673.437,104.908 674.096,103.656 C674.754,102.405 674.274,100.856 673.022,100.197 Z" />
            <path d="M640.963,123.265 L656.328,111.314 C656.952,110.829 657.317,110.083 657.317,109.293 L657.317,93.927 C657.317,92.512 656.17,91.366 654.756,91.366 C653.342,91.366 652.195,92.512 652.195,93.927 L652.195,109.293 L653.184,107.271 L637.818,119.222 C636.702,120.091 636.5,121.7 637.369,122.816 C638.237,123.933 639.846,124.134 640.963,123.265 Z" />
            <path d="M644.377,92.534 L659.743,80.583 L657.025,80.852 L684.342,94.51 L683.951,90.171 L670.293,100.415 C669.161,101.263 668.932,102.868 669.781,104 C670.629,105.132 672.234,105.361 673.366,104.512 L687.024,94.268 C688.547,93.126 688.336,90.78 686.633,89.929 L659.316,76.27 C658.434,75.829 657.377,75.934 656.598,76.539 L641.233,88.491 C640.116,89.359 639.915,90.968 640.783,92.084 C641.652,93.201 643.261,93.402 644.377,92.534 Z" />
            <path d="M656.978,121.803 L679.407,133.608 C685.66,136.899 693.171,132.364 693.171,125.298 L693.171,100.756 C693.171,99.342 692.024,98.195 690.61,98.195 C689.195,98.195 688.049,99.342 688.049,100.756 L688.049,125.298 C688.049,128.51 684.635,130.571 681.793,129.075 L659.364,117.27 C658.112,116.612 656.563,117.092 655.904,118.344 C655.246,119.595 655.726,121.144 656.978,121.803 Z" />
            <path d="M689.037,98.735 L673.672,110.686 C673.048,111.171 672.683,111.917 672.683,112.707 L672.683,128.073 C672.683,129.488 673.83,130.634 675.244,130.634 C676.658,130.634 677.805,129.488 677.805,128.073 L677.805,112.707 L676.816,114.729 L692.182,102.778 C693.298,101.909 693.5,100.3 692.631,99.184 C691.763,98.067 690.154,97.866 689.037,98.735 Z" />
            <path d="M685.623,129.466 L670.257,141.417 L672.975,141.148 L645.658,127.49 L646.049,131.829 L659.707,121.585 C660.839,120.737 661.068,119.132 660.22,118 C659.371,116.868 657.766,116.639 656.634,117.488 L642.976,127.732 C641.453,128.874 641.664,131.22 643.367,132.071 L670.684,145.73 C671.566,146.171 672.623,146.066 673.402,145.461 L688.767,133.509 C689.884,132.641 690.085,131.032 689.217,129.916 C688.348,128.799 686.739,128.598 685.623,129.466 Z" />
        </g>
    </g>
</svg>