<?xml version="1.0" encoding="UTF-8"?>
<svg height="600" width="800" xmlns="http://www.w3.org/2000/svg" xmlns:xlink="http://www.w3.org/1999/xlink">
    <g id="Notes" font-family="'LucidaGrande', 'Lucida Grande', sans-serif" font-size="13">
        <rect fill="white" height="600.0" width="800.0" x="0.0" y="0.0" />
        <g font-size="13">
            <text x="18.0" y="176.0">Small</text>
            <text x="18.0" y="376.0">Medium</text>
            <text x="18.0" y="576.0">Large</text>
        </g>
        <g font-size="9">
            <text x="250.0" y="30.0">Ultralight</text>
            <text x="450.0" y="30.0">Regular</text>
            <text x="650.0" y="30.0">Black</text>
            <text id="template-version" fill="#505050" text-anchor="end" x="785.0" y="575.0">Template v.3.0</text>
            <a href="https://github.com/swhitty/SwiftDraw">
                <text fill="#505050" text-anchor="end" x="785.0" y="590.0">https://github.com/swhitty/SwiftDraw</text>
            </a>
        </g>
    </g>
    <g id="Guides" stroke="rgb(39, 170, 225)" stroke-width="0.5">
        <path id="Capline-S" d="M18,76 l800,0" />
        <path id="H-reference" d="M85,145.755 L87.685,145.755 L113.369,79.287 L114.052,79.287 L114.052,76 L112.148,76 L85,145.755 Z M95.693,121.536 L130.996,121.536 L130.263,119.313 L96.474,119.313 L95.693,121.536 Z M139.15,145.755 L141.787,145.755 L114.638,76 L113.466,76 L113.466,79.287 L139.15,145.755 Z" stroke="none" />
        <path id="Baseline-S" d="M18,146 l800,0" />
        <path id="left-margin-Ultralight-S" d="M221,56 l0,110" />
        <path id="right-margin-Ultralight-S" d="M309,56 l0,110" />
        <path id="left-margin-Regular-S" d="M421,56 l0,110" />
        <path id="right-margin-Regular-S" d="M509,56 l0,110" />
        <path id="left-margin-Black-S" d="M621,56 l0,110" />
        <path id="right-margin-Black-S" d="M709,56 l0,110" />
        <path id="Capline-M" d="M18,276 l800,0" />
        <path id="Baseline-M" d="M18,346 l800,0" />
        <path id="Capline-L" d="M18,476 l800,0" />
        <path id="Baseline-L" d="M18,546 l800,0" />
    </g>
    <g id="Symbols">
        <g id="Ultralight-S">
            <path d="M243.659,102.463 C243.659,90.677 253.213,81.122 265,81.122 C276.787,81.122 286.341,90.677 286.341,102.463 C286.341,114.25 276.787,123.805 265,123.805 C253.213,123.805 243.659,114.25 243.659,102.463 Z M238.537,102.463 C238.537,117.079 250.385,128.927 265,128.927 C279.615,128.927 291.463,117.079 291.463,102.463 C291.463,87.848 279.615,76 265,76 C250.385,76 238.537,87.848 238.537,102.463 Z" />
            <path d="M257.317,102.463 C257.317,98.22 260.757,94.78 265,94.78 C269.243,94.78 272.683,98.22 272.683,102.463 C272.683,106.707 269.243,110.146 265,110.146 C260.757,110.146 257.317,106.707 257.317,102.463 Z M252.195,102.463 C252.195,109.535 257.928,115.268 265,115.268 C272.072,115.268 277.805,109.535 277.805,102.463 C277.805,95.391 272.072,89.659 265,89.659 C257.928,89.659 252.195,95.391 252.195,102.463 Z" />
            <path d="M250.758,121.806 L240.514,142.294 C239.663,143.997 240.901,146 242.805,146 L287.195,146 C289.099,146 290.337,143.997 289.486,142.294 L279.242,121.806 C278.609,120.541 277.071,120.028 275.806,120.661 C274.541,121.293 274.028,122.831 274.661,124.097 L284.905,144.584 L287.195,140.878 L242.805,140.878 L245.095,144.584 L255.339,124.097 C255.972,122.831 255.459,121.293 254.194,120.661 C252.929,120.028 251.391,120.541 250.758,121.806 Z" />
        </g>
        <g id="Regular-S">
            <path d="M443.659,102.463 C443.659,90.677 453.213,81.122 465,81.122 C476.787,81.122 486.341,90.677 486.341,102.463 C486.341,114.25 476.787,123.805 465,123.805 C453.213,123.805 443.659,114.25 443.659,102.463 Z M438.537,102.463 C438.537,117.079 450.385,128.927 465,128.927 C479.615,128.927 491.463,117.079 491.463,102.463 C491.463,87.848 479.615,76 465,76 C450.385,76 438.537,87.848 438.537,102.463 Z" />
            <path d="M457.317,102.463 C457.317,98.22 460.757,94.78 465,94.78 C469.243,94.78 472.683,98.22 472.683,102.463 C472.683,106.707 469.243,110.146 465,110.146 C460.757,110.146 457.317,106.707 457.317,102.463 Z M452.195,102.463 C452.195,109.535 457.928,115.268 465,115.268 C472.072,115.268 477.805,109.535 477.805,102.463 C477.805,95.391 472.072,89.659 465,89.659 C457.928,89.659 452.195,95.391 452.195,102.463 Z" />
            <path d="M450.758,121.806 L440.514,142.294 C439.663,143.997 440.901,146 442.805,146 L487.195,146 C489.099,146 490.337,143.997 489.486,142.294 L479.242,121.806 C478.609,120.541 477.071,120.028 475.806,120.661 C474.541,121.293 474.028,122.831 474.661,124.097 L484.905,144.584 L487.195,140.878 L442.805,140.878 L445.095,144.584 L455.339,124.097 C455.972,122.831 455.459,121.293 454.194,120.661 C452.929,120.028 451.391,120.541 450.758,121.806 Z" />
        </g>
        <g id="Black-S">
            <path d="M643.659,102.463 C643.659,90.677 653.213,81.122 665,81.122 C676.787,81.122 686.341,90.677 686.341,102.463 C686.341,114.25 676.787,123.805 665,123.805 C653.213,123.805 643.659,114.25 643.659,102.463 Z M638.537,102.463 C638.537,117.079 650.385,128.927 665,128.927 C679.615,128.927 691.463,117.079 691.463,102.463 C691.463,87.848 679.615,76 665,76 C650.385,76 638.537,87.848 638.537,102.463 Z" />
            <path d="M657.317,102.463 C657.317,98.22 660.757,94.78 665,94.78 C669.243,94.78 672.683,98.22 672.683,102.463 C672.683,106.707 669.243,110.146 665,110.146 C660.757,110.146 657.317,106.707 657.317,102.463 Z M652.195,102.463 C652.195,109.535 657.928,115.268 665,115.268 C672.072,115.268 677.805,109.535 677.805,102.463 C677.805,95.391 672.072,89.659 665,89.659 C657.928,89.659 652.195,95.391 652.195,102.463 Z" />
            <path d="M650.758,121.806 L640.514,142.294 C639.663,143.997 640.901,146 642.805,146 L687.195,146 C689.099,146 690.337,143.997 689.486,142.294 L679.242,121.806 C678.609,120.541 677.071,120.028 675.806,120.661 C674.541,121.293 674.028,122.831 674.661,124.097 L684.905,144.584 L687.195,140.878 L642.805,140.878 L645.096,144.584 L655.339,124.097 C655.972,122.831 655.459,121.293 654.194,120.661 C652.929,120.028 651.391,120.541 650.758,121.806 Z" />
        </g>
    </g>
</svg>