<?xml version="1.0" encoding="UTF-8"?>
<svg height="600" width="800" xmlns="http://www.w3.org/2000/svg" xmlns:xlink="http://www.w3.org/1999/xlink">
    <g id="Notes" font-family="'LucidaGrande', 'Lucida Grande', sans-serif" font-size="13">
        <rect fill="white" height="600.0" width="800.0" x="0.0" y="0.0" />
        <g font-size="13">
            <text x="18.0" y="176.0">Small</text>
            <text x="18.0" y="376.0">Medium</text>
            <text x="18.0" y="576.0">Large</text>
        </g>
        <g font-size="9">
            <text x="250.0" y="30.0">Ultralight</text>
            <text x="450.0" y="30.0">Regular</text>
            <text x="650.0" y="30.0">Black</text>
            <text id="template-version" fill="#505050" text-anchor="end" x="785.0" y="575.0">Template v.3.0</text>
            <a href="https://github.com/swhitty/SwiftDraw">
                <text fill="#505050" text-anchor="end" x="785.0" y="590.0">https://github.com/swhitty/SwiftDraw</text>
            </a>
        </g>
    </g>
    <g id="Guides" stroke="rgb(39, 170, 225)" stroke-width="0.5">
        <path id="Capline-S" d="M18,76 l800,0" />
        <path id="H-reference" d="M85,145.755 L87.685,145.755 L113.369,79.287 L114.052,79.287 L114.052,76 L112.148,76 L85,145.755 Z M95.693,121.536 L130.996,121.536 L130.263,119.313 L96.474,119.313 L95.693,121.536 Z M139.15,145.755 L141.787,145.755 L114.638,76 L113.466,76 L113.466,79.287 L139.15,145.755 Z" stroke="none" />
        <path id="Baseline-S" d="M18,146 l800,0" />
        <path id="left-margin-Ultralight-S" d="M215.999,56 l0,110" />
        <path id="right-margin-Ultralight-S" d="M314.001,56 l0,110" />
        <path id="left-margin-Regular-S" d="M415.999,56 l0,110" />
        <path id="right-margin-Regular-S" d="M514.001,56 l0,110" />
        <path id="left-margin-Black-S" d="M615.999,56 l0,110" />
        <path id="right-margin-Black-S" d="M714.001,56 l0,110" />
        <path id="Capline-M" d="M18,276 l800,0" />
        <path id="Baseline-M" d="M18,346 l800,0" />
        <path id="Capline-L" d="M18,476 l800,0" />
        <path id="Baseline-L" d="M18,546 l800,0" />
    </g>
    <g id="Symbols">
        <g id="Ultralight-S">
            <path d="M225.999,79 L225.999,142.999 C225.999,144.656 227.342,145.999 228.999,145.999 C230.656,145.999 231.999,144.656 231.999,142.999 L231.999,79 C231.999,77.343 230.656,76 228.999,76 C227.342,76 225.999,77.343 225.999,79 Z" />
            <path d="M261.999,79 L261.999,142.999 C261.999,144.656 263.342,145.999 264.999,145.999 C266.655,145.999 267.999,144.656 267.999,142.999 L267.999,79 C267.999,77.343 266.655,76 264.999,76 C263.342,76 261.999,77.343 261.999,79 Z" />
            <path d="M230.999,114 L262.999,114 C264.655,114 265.999,112.656 265.999,111 C265.999,109.343 264.655,108 262.999,108 L230.999,108 C229.342,108 227.999,109.343 227.999,111 C227.999,112.656 229.342,114 230.999,114 Z" />
            <path d="M280.994,110 L300.998,110 L298.257,105.78 L282.245,141.78 C281.571,143.294 282.253,145.067 283.766,145.74 C285.28,146.414 287.053,145.732 287.727,144.218 L303.739,108.219 C304.621,106.235 303.169,104 300.998,104 L280.994,104 C279.338,104 277.994,105.343 277.994,107 C277.994,108.656 279.338,110 280.994,110 Z" />
        </g>
        <g id="Regular-S">
            <path d="M425.999,79 L425.999,142.999 C425.999,144.656 427.342,145.999 428.999,145.999 C430.656,145.999 431.999,144.656 431.999,142.999 L431.999,79 C431.999,77.343 430.656,76 428.999,76 C427.342,76 425.999,77.343 425.999,79 Z" />
            <path d="M461.999,79 L461.999,142.999 C461.999,144.656 463.342,145.999 464.999,145.999 C466.655,145.999 467.999,144.656 467.999,142.999 L467.999,79 C467.999,77.343 466.655,76 464.999,76 C463.342,76 461.999,77.343 461.999,79 Z" />
            <path d="M430.999,114 L462.999,114 C464.655,114 465.999,112.656 465.999,111 C465.999,109.343 464.655,108 462.999,108 L430.999,108 C429.342,108 427.999,109.343 427.999,111 C427.999,112.656 429.342,114 430.999,114 Z" />
            <path d="M480.994,110 L500.998,110 L498.257,105.78 L482.245,141.78 C481.571,143.294 482.253,145.067 483.766,145.74 C485.28,146.414 487.053,145.732 487.727,144.218 L503.739,108.219 C504.621,106.235 503.169,104 500.998,104 L480.994,104 C479.338,104 477.994,105.343 477.994,107 C477.994,108.656 479.338,110 480.994,110 Z" />
        </g>
        <g id="Black-S">
            <path d="M625.999,79 L625.999,142.999 C625.999,144.656 627.342,145.999 628.999,145.999 C630.656,145.999 631.999,144.656 631.999,142.999 L631.999,79 C631.999,77.343 630.656,76 628.999,76 C627.342,76 625.999,77.343 625.999,79 Z" />
            <path d="M661.999,79 L661.999,142.999 C661.999,144.656 663.342,145.999 664.999,145.999 C666.655,145.999 667.999,144.656 667.999,142.999 L667.999,79 C667.999,77.343 666.655,76 664.999,76 C663.342,76 661.999,77.343 661.999,79 Z" />
            <path d="M630.999,114 L662.999,114 C664.655,114 665.999,112.656 665.999,111 C665.999,109.343 664.655,108 662.999,108 L630.999,108 C629.342,108 627.999,109.343 627.999,111 C627.999,112.656 629.342,114 630.999,114 Z" />
            <path d="M680.994,110 L700.998,110 L698.257,105.78 L682.245,141.78 C681.571,143.294 682.253,145.067 683.766,145.74 C685.28,146.414 687.053,145.732 687.727,144.218 L703.739,108.219 C704.621,106.235 703.169,104 700.998,104 L680.994,104 C679.338,104 677.995,105.343 677.995,107 C677.995,108.656 679.338,110 680.994,110 Z" />
        </g>
    </g>
</svg>