<?xml version="1.0" encoding="UTF-8"?>
<svg height="600" width="800" xmlns="http://www.w3.org/2000/svg" xmlns:xlink="http://www.w3.org/1999/xlink">
    <g id="Notes" font-family="'LucidaGrande', 'Lucida Grande', sans-serif" font-size="13">
        <rect fill="white" height="600.0" width="800.0" x="0.0" y="0.0" />
        <g font-size="13">
            <text x="18.0" y="176.0">Small</text>
            <text x="18.0" y="376.0">Medium</text>
            <text x="18.0" y="576.0">Large</text>
        </g>
        <g font-size="9">
            <text x="250.0" y="30.0">Ultralight</text>
            <text x="450.0" y="30.0">Regular</text>
            <text x="650.0" y="30.0">Black</text>
            <text id="template-version" fill="#505050" text-anchor="end" x="785.0" y="575.0">Template v.3.0</text>
            <a href="https://github.com/swhitty/SwiftDraw">
                <text fill="#505050" text-anchor="end" x="785.0" y="590.0">https://github.com/swhitty/SwiftDraw</text>
            </a>
        </g>
    </g>
    <g id="Guides" stroke="rgb(39, 170, 225)" stroke-width="0.5">
        <path id="Capline-S" d="M18,76 l800,0" />
        <path id="H-reference" d="M85,145.755 L87.685,145.755 L113.369,79.287 L114.052,79.287 L114.052,76 L112.148,76 L85,145.755 Z M95.693,121.536 L130.996,121.536 L130.263,119.313 L96.474,119.313 L95.693,121.536 Z M139.15,145.755 L141.787,145.755 L114.638,76 L113.466,76 L113.466,79.287 L139.15,145.755 Z" stroke="none" />
        <path id="Baseline-S" d="M18,146 l800,0" />
        <path id="left-margin-Ultralight-S" d="M221,56 l0,110" />
        <path id="right-margin-Ultralight-S" d="M309,56 l0,110" />
        <path id="left-margin-Regular-S" d="M421,56 l0,110" />
        <path id="right-margin-Regular-S" d="M509,56 l0,110" />
        <path id="left-margin-Black-S" d="M621,56 l0,110" />
        <path id="right-margin-Black-S" d="M709,56 l0,110" />
        <path id="Capline-M" d="M18,276 l800,0" />
        <path id="Baseline-M" d="M18,346 l800,0" />
        <path id="Capline-L" d="M18,476 l800,0" />
        <path id="Baseline-L" d="M18,546 l800,0" />
    </g>
    <g id="Symbols">
        <g id="Ultralight-S">
            <path d="M294.302,76 L235.698,76 C234.349,76 233.256,77.093 233.256,78.442 L233.256,122.395 C233.256,123.744 234.349,124.837 235.698,124.837 L294.302,124.837 C295.651,124.837 296.744,123.744 296.744,122.395 L296.744,78.442 C296.744,77.093 295.651,76 294.302,76 Z M294.302,80.884 L291.86,78.442 L291.86,122.395 L294.302,119.953 L235.698,119.953 L238.14,122.395 L238.14,78.442 L235.698,80.884 L294.302,80.884 Z" />
            <path d="M291.86,122.395 L291.86,143.558 L294.302,141.116 L235.698,141.116 L238.14,143.558 L238.14,122.395 C238.14,121.047 237.046,119.953 235.698,119.953 C234.349,119.953 233.256,121.047 233.256,122.395 L233.256,143.558 C233.256,144.907 234.349,146 235.698,146 L294.302,146 C295.651,146 296.744,144.907 296.744,143.558 L296.744,122.395 C296.744,121.047 295.651,119.953 294.302,119.953 C292.954,119.953 291.86,121.047 291.86,122.395 Z" />
            <path d="M251.977,86.581 L247.093,86.581 C246.194,86.581 245.465,87.31 245.465,88.209 L245.465,93.093 C245.465,93.992 246.194,94.721 247.093,94.721 L251.977,94.721 C252.876,94.721 253.605,93.992 253.605,93.093 L253.605,88.209 C253.605,87.31 252.876,86.581 251.977,86.581 Z" />
            <path d="M251.977,97.977 L247.093,97.977 C246.194,97.977 245.465,98.706 245.465,99.605 L245.465,104.488 C245.465,105.387 246.194,106.116 247.093,106.116 L251.977,106.116 C252.876,106.116 253.605,105.387 253.605,104.488 L253.605,99.605 C253.605,98.706 252.876,97.977 251.977,97.977 Z" />
            <path d="M267.442,86.581 L262.558,86.581 C261.659,86.581 260.93,87.31 260.93,88.209 L260.93,93.093 C260.93,93.992 261.659,94.721 262.558,94.721 L267.442,94.721 C268.341,94.721 269.07,93.992 269.07,93.093 L269.07,88.209 C269.07,87.31 268.341,86.581 267.442,86.581 Z" />
            <path d="M267.442,97.977 L262.558,97.977 C261.659,97.977 260.93,98.706 260.93,99.605 L260.93,104.488 C260.93,105.387 261.659,106.116 262.558,106.116 L267.442,106.116 C268.341,106.116 269.07,105.387 269.07,104.488 L269.07,99.605 C269.07,98.706 268.341,97.977 267.442,97.977 Z" />
            <path d="M269.07,132.977 C269.07,130.729 267.248,128.907 265,128.907 C262.752,128.907 260.93,130.729 260.93,132.977 C260.93,135.224 262.752,137.047 265,137.047 C267.248,137.047 269.07,135.224 269.07,132.977 Z" />
            <path d="M282.907,86.581 L278.023,86.581 C277.124,86.581 276.395,87.31 276.395,88.209 L276.395,93.093 C276.395,93.992 277.124,94.721 278.023,94.721 L282.907,94.721 C283.806,94.721 284.535,93.992 284.535,93.093 L284.535,88.209 C284.535,87.31 283.806,86.581 282.907,86.581 Z" />
        </g>
        <g id="Regular-S">
            <path d="M494.302,76 L435.698,76 C434.349,76 433.256,77.093 433.256,78.442 L433.256,122.395 C433.256,123.744 434.349,124.837 435.698,124.837 L494.302,124.837 C495.651,124.837 496.744,123.744 496.744,122.395 L496.744,78.442 C496.744,77.093 495.651,76 494.302,76 Z M494.302,80.884 L491.86,78.442 L491.86,122.395 L494.302,119.953 L435.698,119.953 L438.14,122.395 L438.14,78.442 L435.698,80.884 L494.302,80.884 Z" />
            <path d="M491.86,122.395 L491.86,143.558 L494.302,141.116 L435.698,141.116 L438.14,143.558 L438.14,122.395 C438.14,121.047 437.046,119.953 435.698,119.953 C434.349,119.953 433.256,121.047 433.256,122.395 L433.256,143.558 C433.256,144.907 434.349,146 435.698,146 L494.302,146 C495.651,146 496.744,144.907 496.744,143.558 L496.744,122.395 C496.744,121.047 495.651,119.953 494.302,119.953 C492.954,119.953 491.86,121.047 491.86,122.395 Z" />
            <path d="M451.977,86.581 L447.093,86.581 C446.194,86.581 445.465,87.31 445.465,88.209 L445.465,93.093 C445.465,93.992 446.194,94.721 447.093,94.721 L451.977,94.721 C452.876,94.721 453.605,93.992 453.605,93.093 L453.605,88.209 C453.605,87.31 452.876,86.581 451.977,86.581 Z" />
            <path d="M451.977,97.977 L447.093,97.977 C446.194,97.977 445.465,98.706 445.465,99.605 L445.465,104.488 C445.465,105.387 446.194,106.116 447.093,106.116 L451.977,106.116 C452.876,106.116 453.605,105.387 453.605,104.488 L453.605,99.605 C453.605,98.706 452.876,97.977 451.977,97.977 Z" />
            <path d="M467.442,86.581 L462.558,86.581 C461.659,86.581 460.93,87.31 460.93,88.209 L460.93,93.093 C460.93,93.992 461.659,94.721 462.558,94.721 L467.442,94.721 C468.341,94.721 469.07,93.992 469.07,93.093 L469.07,88.209 C469.07,87.31 468.341,86.581 467.442,86.581 Z" />
            <path d="M467.442,97.977 L462.558,97.977 C461.659,97.977 460.93,98.706 460.93,99.605 L460.93,104.488 C460.93,105.387 461.659,106.116 462.558,106.116 L467.442,106.116 C468.341,106.116 469.07,105.387 469.07,104.488 L469.07,99.605 C469.07,98.706 468.341,97.977 467.442,97.977 Z" />
            <path d="M469.07,132.977 C469.07,130.729 467.248,128.907 465,128.907 C462.752,128.907 460.93,130.729 460.93,132.977 C460.93,135.224 462.752,137.047 465,137.047 C467.248,137.047 469.07,135.224 469.07,132.977 Z" />
            <path d="M482.907,86.581 L478.023,86.581 C477.124,86.581 476.395,87.31 476.395,88.209 L476.395,93.093 C476.395,93.992 477.124,94.721 478.023,94.721 L482.907,94.721 C483.806,94.721 484.535,93.992 484.535,93.093 L484.535,88.209 C484.535,87.31 483.806,86.581 482.907,86.581 Z" />
        </g>
        <g id="Black-S">
            <path d="M694.302,76 L635.698,76 C634.349,76 633.256,77.093 633.256,78.442 L633.256,122.395 C633.256,123.744 634.349,124.837 635.698,124.837 L694.302,124.837 C695.651,124.837 696.744,123.744 696.744,122.395 L696.744,78.442 C696.744,77.093 695.651,76 694.302,76 Z M694.302,80.884 L691.86,78.442 L691.86,122.395 L694.302,119.953 L635.698,119.953 L638.14,122.395 L638.14,78.442 L635.698,80.884 L694.302,80.884 Z" />
            <path d="M691.86,122.395 L691.86,143.558 L694.302,141.116 L635.698,141.116 L638.14,143.558 L638.14,122.395 C638.14,121.047 637.046,119.953 635.698,119.953 C634.349,119.953 633.256,121.047 633.256,122.395 L633.256,143.558 C633.256,144.907 634.349,146 635.698,146 L694.302,146 C695.651,146 696.744,144.907 696.744,143.558 L696.744,122.395 C696.744,121.047 695.651,119.953 694.302,119.953 C692.954,119.953 691.86,121.047 691.86,122.395 Z" />
            <path d="M651.977,86.581 L647.093,86.581 C646.194,86.581 645.465,87.31 645.465,88.209 L645.465,93.093 C645.465,93.992 646.194,94.721 647.093,94.721 L651.977,94.721 C652.876,94.721 653.605,93.992 653.605,93.093 L653.605,88.209 C653.605,87.31 652.876,86.581 651.977,86.581 Z" />
            <path d="M651.977,97.977 L647.093,97.977 C646.194,97.977 645.465,98.706 645.465,99.605 L645.465,104.488 C645.465,105.387 646.194,106.116 647.093,106.116 L651.977,106.116 C652.876,106.116 653.605,105.387 653.605,104.488 L653.605,99.605 C653.605,98.706 652.876,97.977 651.977,97.977 Z" />
            <path d="M667.442,86.581 L662.558,86.581 C661.659,86.581 660.93,87.31 660.93,88.209 L660.93,93.093 C660.93,93.992 661.659,94.721 662.558,94.721 L667.442,94.721 C668.341,94.721 669.07,93.992 669.07,93.093 L669.07,88.209 C669.07,87.31 668.341,86.581 667.442,86.581 Z" />
            <path d="M667.442,97.977 L662.558,97.977 C661.659,97.977 660.93,98.706 660.93,99.605 L660.93,104.488 C660.93,105.387 661.659,106.116 662.558,106.116 L667.442,106.116 C668.341,106.116 669.07,105.387 669.07,104.488 L669.07,99.605 C669.07,98.706 668.341,97.977 667.442,97.977 Z" />
            <path d="M669.07,132.977 C669.07,130.729 667.248,128.907 665,128.907 C662.752,128.907 660.93,130.729 660.93,132.977 C660.93,135.224 662.752,137.047 665,137.047 C667.248,137.047 669.07,135.224 669.07,132.977 Z" />
            <path d="M682.907,86.581 L678.023,86.581 C677.124,86.581 676.395,87.31 676.395,88.209 L676.395,93.093 C676.395,93.992 677.124,94.721 678.023,94.721 L682.907,94.721 C683.806,94.721 684.535,93.992 684.535,93.093 L684.535,88.209 C684.535,87.31 683.806,86.581 682.907,86.581 Z" />
        </g>
    </g>
</svg>