<?xml version="1.0" encoding="UTF-8"?>
<svg height="600" width="800" xmlns="http://www.w3.org/2000/svg" xmlns:xlink="http://www.w3.org/1999/xlink">
    <g id="Notes" font-family="'LucidaGrande', 'Lucida Grande', sans-serif" font-size="13">
        <rect fill="white" height="600.0" width="800.0" x="0.0" y="0.0" />
        <g font-size="13">
            <text x="18.0" y="176.0">Small</text>
            <text x="18.0" y="376.0">Medium</text>
            <text x="18.0" y="576.0">Large</text>
        </g>
        <g font-size="9">
            <text x="250.0" y="30.0">Ultralight</text>
            <text x="450.0" y="30.0">Regular</text>
            <text x="650.0" y="30.0">Black</text>
            <text id="template-version" fill="#505050" text-anchor="end" x="785.0" y="575.0">Template v.3.0</text>
            <a href="https://github.com/swhitty/SwiftDraw">
                <text fill="#505050" text-anchor="end" x="785.0" y="590.0">https://github.com/swhitty/SwiftDraw</text>
            </a>
        </g>
    </g>
    <g id="Guides" stroke="rgb(39, 170, 225)" stroke-width="0.5">
        <path id="Capline-S" d="M18,76 l800,0" />
        <path id="H-reference" d="M85,145.755 L87.685,145.755 L113.369,79.287 L114.052,79.287 L114.052,76 L112.148,76 L85,145.755 Z M95.693,121.536 L130.996,121.536 L130.263,119.313 L96.474,119.313 L95.693,121.536 Z M139.15,145.755 L141.787,145.755 L114.638,76 L113.466,76 L113.466,79.287 L139.15,145.755 Z" stroke="none" />
        <path id="Baseline-S" d="M18,146 l800,0" />
        <path id="left-margin-Ultralight-S" d="M211,56 l0,110" />
        <path id="right-margin-Ultralight-S" d="M319,56 l0,110" />
        <path id="left-margin-Regular-S" d="M411,56 l0,110" />
        <path id="right-margin-Regular-S" d="M519,56 l0,110" />
        <path id="left-margin-Black-S" d="M611,56 l0,110" />
        <path id="right-margin-Black-S" d="M719,56 l0,110" />
        <path id="Capline-M" d="M18,276 l800,0" />
        <path id="Baseline-M" d="M18,346 l800,0" />
        <path id="Capline-L" d="M18,476 l800,0" />
        <path id="Baseline-L" d="M18,546 l800,0" />
    </g>
    <g id="Symbols">
        <g id="Ultralight-S">
            <path d="M249.608,83.182 L304.864,103.647 L302.86,100.769 L302.86,141.699 L305.93,138.629 L250.674,138.629 L253.744,141.699 L253.744,80.304 L249.608,83.182 Z M251.741,77.425 C249.736,76.682 247.605,78.166 247.605,80.304 L247.605,141.699 C247.605,143.394 248.979,144.769 250.674,144.769 L305.93,144.769 C307.626,144.769 309,143.394 309,141.699 L309,100.769 C309,99.485 308.201,98.336 306.996,97.89 L251.741,77.425 Z" />
            <path d="M248.803,77.871 L222.198,98.336 C221.443,98.917 221,99.816 221,100.769 L221,141.699 C221,143.394 222.374,144.769 224.07,144.769 L250.674,144.769 C252.37,144.769 253.744,143.394 253.744,141.699 C253.744,140.004 252.37,138.629 250.674,138.629 L224.07,138.629 L227.14,141.699 L227.14,100.769 L225.941,103.202 L252.546,82.737 C253.89,81.703 254.141,79.776 253.108,78.432 C252.074,77.088 250.147,76.837 248.803,77.871 Z" />
            <path d="M290.581,141.699 L290.581,117.141 C290.581,115.82 289.736,114.646 288.482,114.229 L270.064,108.089 C268.076,107.427 266.023,108.906 266.023,111.001 L266.023,141.699 C266.023,143.394 267.398,144.769 269.093,144.769 C270.788,144.769 272.163,143.394 272.163,141.699 L272.163,111.001 L268.122,113.914 L286.541,120.053 L284.442,117.141 L284.442,141.699 C284.442,143.394 285.816,144.769 287.512,144.769 C289.207,144.769 290.581,143.394 290.581,141.699 Z" />
            <path d="M305.93,138.629 L250.674,138.629 C248.979,138.629 247.605,140.004 247.605,141.699 C247.605,143.394 248.979,144.769 250.674,144.769 L305.93,144.769 C307.626,144.769 309,143.394 309,141.699 C309,140.004 307.626,138.629 305.93,138.629 Z" />
        </g>
        <g id="Regular-S">
            <path d="M449.608,83.182 L504.864,103.647 L502.86,100.769 L502.86,141.699 L505.93,138.629 L450.674,138.629 L453.744,141.699 L453.744,80.304 L449.608,83.182 Z M451.741,77.425 C449.736,76.682 447.605,78.166 447.605,80.304 L447.605,141.699 C447.605,143.394 448.979,144.769 450.674,144.769 L505.93,144.769 C507.626,144.769 509,143.394 509,141.699 L509,100.769 C509,99.485 508.201,98.336 506.996,97.89 L451.741,77.425 Z" />
            <path d="M448.803,77.871 L422.198,98.336 C421.443,98.917 421,99.816 421,100.769 L421,141.699 C421,143.394 422.374,144.769 424.07,144.769 L450.674,144.769 C452.37,144.769 453.744,143.394 453.744,141.699 C453.744,140.004 452.37,138.629 450.674,138.629 L424.07,138.629 L427.14,141.699 L427.14,100.769 L425.941,103.202 L452.546,82.737 C453.89,81.703 454.141,79.776 453.108,78.432 C452.074,77.088 450.147,76.837 448.803,77.871 Z" />
            <path d="M490.581,141.699 L490.581,117.141 C490.581,115.82 489.736,114.646 488.482,114.229 L470.064,108.089 C468.076,107.427 466.023,108.906 466.023,111.001 L466.023,141.699 C466.023,143.394 467.398,144.769 469.093,144.769 C470.788,144.769 472.163,143.394 472.163,141.699 L472.163,111.001 L468.122,113.914 L486.541,120.053 L484.442,117.141 L484.442,141.699 C484.442,143.394 485.816,144.769 487.512,144.769 C489.207,144.769 490.581,143.394 490.581,141.699 Z" />
            <path d="M505.93,138.629 L450.674,138.629 C448.979,138.629 447.605,140.004 447.605,141.699 C447.605,143.394 448.979,144.769 450.674,144.769 L505.93,144.769 C507.626,144.769 509,143.394 509,141.699 C509,140.004 507.626,138.629 505.93,138.629 Z" />
        </g>
        <g id="Black-S">
            <path d="M649.608,83.182 L704.864,103.647 L702.86,100.769 L702.86,141.699 L705.93,138.629 L650.674,138.629 L653.744,141.699 L653.744,80.304 L649.608,83.182 Z M651.741,77.425 C649.736,76.682 647.605,78.166 647.605,80.304 L647.605,141.699 C647.605,143.394 648.979,144.769 650.674,144.769 L705.93,144.769 C707.626,144.769 709,143.394 709,141.699 L709,100.769 C709,99.485 708.201,98.336 706.996,97.89 L651.741,77.425 Z" />
            <path d="M648.803,77.871 L622.198,98.336 C621.443,98.917 621,99.816 621,100.769 L621,141.699 C621,143.394 622.374,144.769 624.07,144.769 L650.674,144.769 C652.37,144.769 653.744,143.394 653.744,141.699 C653.744,140.004 652.37,138.629 650.674,138.629 L624.07,138.629 L627.14,141.699 L627.14,100.769 L625.941,103.202 L652.546,82.737 C653.89,81.703 654.141,79.776 653.108,78.432 C652.074,77.088 650.147,76.837 648.803,77.871 Z" />
            <path d="M690.581,141.699 L690.581,117.141 C690.581,115.82 689.736,114.646 688.482,114.229 L670.064,108.089 C668.076,107.427 666.023,108.906 666.023,111.001 L666.023,141.699 C666.023,143.394 667.398,144.769 669.093,144.769 C670.788,144.769 672.163,143.394 672.163,141.699 L672.163,111.001 L668.122,113.914 L686.541,120.053 L684.442,117.141 L684.442,141.699 C684.442,143.394 685.816,144.769 687.512,144.769 C689.207,144.769 690.581,143.394 690.581,141.699 Z" />
            <path d="M705.93,138.629 L650.674,138.629 C648.979,138.629 647.605,140.004 647.605,141.699 C647.605,143.394 648.979,144.769 650.674,144.769 L705.93,144.769 C707.626,144.769 709,143.394 709,141.699 C709,140.004 707.626,138.629 705.93,138.629 Z" />
        </g>
    </g>
</svg>