<?xml version="1.0" encoding="UTF-8"?>
<svg height="600" width="800" xmlns="http://www.w3.org/2000/svg" xmlns:xlink="http://www.w3.org/1999/xlink">
    <g id="Notes" font-family="'LucidaGrande', 'Lucida Grande', sans-serif" font-size="13">
        <rect fill="white" height="600.0" width="800.0" x="0.0" y="0.0" />
        <g font-size="13">
            <text x="18.0" y="176.0">Small</text>
            <text x="18.0" y="376.0">Medium</text>
            <text x="18.0" y="576.0">Large</text>
        </g>
        <g font-size="9">
            <text x="250.0" y="30.0">Ultralight</text>
            <text x="450.0" y="30.0">Regular</text>
            <text x="650.0" y="30.0">Black</text>
            <text id="template-version" fill="#505050" text-anchor="end" x="785.0" y="575.0">Template v.3.0</text>
            <a href="https://github.com/swhitty/SwiftDraw">
                <text fill="#505050" text-anchor="end" x="785.0" y="590.0">https://github.com/swhitty/SwiftDraw</text>
            </a>
        </g>
    </g>
    <g id="Guides" stroke="rgb(39, 170, 225)" stroke-width="0.5">
        <path id="Capline-S" d="M18,76 l800,0" />
        <path id="H-reference" d="M85,145.755 L87.685,145.755 L113.369,79.287 L114.052,79.287 L114.052,76 L112.148,76 L85,145.755 Z M95.693,121.536 L130.996,121.536 L130.263,119.313 L96.474,119.313 L95.693,121.536 Z M139.15,145.755 L141.787,145.755 L114.638,76 L113.466,76 L113.466,79.287 L139.15,145.755 Z" stroke="none" />
        <path id="Baseline-S" d="M18,146 l800,0" />
        <path id="left-margin-Ultralight-S" d="M211,56 l0,110" />
        <path id="right-margin-Ultralight-S" d="M319,56 l0,110" />
        <path id="left-margin-Regular-S" d="M411,56 l0,110" />
        <path id="right-margin-Regular-S" d="M519,56 l0,110" />
        <path id="left-margin-Black-S" d="M611,56 l0,110" />
        <path id="right-margin-Black-S" d="M719,56 l0,110" />
        <path id="Capline-M" d="M18,276 l800,0" />
        <path id="Baseline-M" d="M18,346 l800,0" />
        <path id="Capline-L" d="M18,476 l800,0" />
        <path id="Baseline-L" d="M18,546 l800,0" />
    </g>
    <g id="Symbols">
        <g id="Ultralight-S">
            <path d="M256.723,133.477 L273.275,133.477 C274.833,133.477 276.096,132.213 276.096,130.655 C276.096,129.097 274.833,127.834 273.275,127.834 L256.723,127.834 C255.165,127.834 253.902,129.097 253.902,130.655 C253.902,132.213 255.165,133.477 256.723,133.477 Z" />
            <path d="M226.783,118.397 L241.181,84.864 L239.877,86.26 L249.265,81.442 C250.651,80.731 251.198,79.03 250.486,77.644 C249.775,76.258 248.074,75.711 246.688,76.422 L237.3,81.241 C236.716,81.54 236.255,82.034 235.996,82.637 L221.598,116.171 C220.983,117.603 221.646,119.262 223.077,119.877 C224.509,120.491 226.168,119.829 226.783,118.397 Z" />
            <path d="M308.603,116.628 L294.018,82.638 C293.759,82.035 293.298,81.54 292.714,81.241 L283.326,76.422 C281.939,75.711 280.239,76.258 279.527,77.644 C278.816,79.03 279.363,80.731 280.749,81.442 L290.137,86.26 L288.833,84.863 L303.418,118.853 C304.032,120.285 305.691,120.947 307.123,120.333 C308.555,119.718 309.217,118.059 308.603,116.628 Z" />
            <path d="M226.256,118.994 L255.063,118.994 C254.849,118.994 254.676,118.82 254.676,118.606 C254.676,118.597 254.676,118.587 254.677,118.575 L252.933,140.604 C252.949,140.402 253.117,140.247 253.319,140.247 L228,140.247 C228.202,140.247 228.37,140.402 228.386,140.604 L226.642,118.576 C226.658,118.789 226.499,118.975 226.286,118.992 C226.273,118.993 226.266,118.994 226.256,118.994 Z M226.256,113.351 C226.119,113.351 225.984,113.357 225.848,113.367 C222.947,113.597 220.788,116.128 221.017,119.021 L222.761,141.049 C222.977,143.782 225.258,145.89 228,145.89 L253.319,145.89 C256.06,145.89 258.341,143.782 258.558,141.049 L260.302,119.021 C260.313,118.884 260.318,118.745 260.318,118.606 C260.318,115.704 257.966,113.351 255.063,113.351 L226.256,113.351 Z" />
            <path d="M274.937,118.994 L303.745,118.994 C303.531,118.994 303.357,118.82 303.357,118.606 C303.357,118.596 303.358,118.589 303.358,118.583 L301.614,140.604 C301.63,140.403 301.798,140.247 302,140.247 L276.681,140.247 C276.883,140.247 277.051,140.402 277.067,140.604 L275.323,118.576 C275.34,118.789 275.181,118.975 274.968,118.992 C274.955,118.993 274.947,118.994 274.937,118.994 Z M274.937,113.351 C274.801,113.351 274.665,113.357 274.529,113.367 C271.629,113.597 269.469,116.128 269.698,119.021 L271.442,141.049 C271.659,143.782 273.94,145.89 276.681,145.89 L302,145.89 C304.742,145.89 307.023,143.782 307.239,141.049 L308.984,119.021 C308.995,118.878 309,118.743 309,118.606 C309,115.704 306.647,113.351 303.745,113.351 L274.937,113.351 Z" />
        </g>
        <g id="Regular-S">
            <path d="M456.723,133.477 L473.275,133.477 C474.833,133.477 476.096,132.213 476.096,130.655 C476.096,129.097 474.833,127.834 473.275,127.834 L456.723,127.834 C455.165,127.834 453.902,129.097 453.902,130.655 C453.902,132.213 455.165,133.477 456.723,133.477 Z" />
            <path d="M426.783,118.397 L441.181,84.864 L439.877,86.26 L449.265,81.442 C450.651,80.731 451.198,79.03 450.486,77.644 C449.775,76.258 448.074,75.711 446.688,76.422 L437.3,81.241 C436.716,81.54 436.255,82.034 435.996,82.637 L421.598,116.171 C420.983,117.603 421.646,119.262 423.078,119.877 C424.509,120.491 426.168,119.829 426.783,118.397 Z" />
            <path d="M508.603,116.628 L494.018,82.638 C493.759,82.035 493.298,81.54 492.714,81.241 L483.326,76.422 C481.939,75.711 480.239,76.258 479.527,77.644 C478.816,79.03 479.363,80.731 480.749,81.442 L490.137,86.26 L488.833,84.863 L503.418,118.853 C504.032,120.285 505.691,120.947 507.123,120.333 C508.555,119.718 509.217,118.059 508.603,116.628 Z" />
            <path d="M426.256,118.994 L455.063,118.994 C454.849,118.994 454.676,118.82 454.676,118.606 C454.676,118.597 454.676,118.587 454.677,118.575 L452.933,140.604 C452.949,140.402 453.117,140.247 453.319,140.247 L428,140.247 C428.202,140.247 428.37,140.402 428.386,140.604 L426.642,118.576 C426.658,118.789 426.499,118.975 426.286,118.992 C426.273,118.993 426.266,118.994 426.256,118.994 Z M426.256,113.351 C426.119,113.351 425.984,113.357 425.848,113.367 C422.947,113.597 420.788,116.128 421.017,119.021 L422.761,141.049 C422.977,143.782 425.258,145.89 428,145.89 L453.319,145.89 C456.06,145.89 458.341,143.782 458.558,141.049 L460.302,119.021 C460.313,118.884 460.318,118.745 460.318,118.606 C460.318,115.704 457.966,113.351 455.063,113.351 L426.256,113.351 Z" />
            <path d="M474.937,118.994 L503.745,118.994 C503.531,118.994 503.357,118.82 503.357,118.606 C503.357,118.596 503.358,118.589 503.358,118.583 L501.614,140.604 C501.63,140.403 501.798,140.247 502,140.247 L476.681,140.247 C476.883,140.247 477.051,140.402 477.067,140.604 L475.323,118.576 C475.34,118.789 475.181,118.975 474.968,118.992 C474.955,118.993 474.947,118.994 474.937,118.994 Z M474.937,113.351 C474.801,113.351 474.665,113.357 474.529,113.367 C471.629,113.597 469.469,116.128 469.698,119.021 L471.442,141.049 C471.659,143.782 473.94,145.89 476.681,145.89 L502,145.89 C504.742,145.89 507.023,143.782 507.239,141.049 L508.984,119.021 C508.995,118.878 509,118.743 509,118.606 C509,115.704 506.647,113.351 503.745,113.351 L474.937,113.351 Z" />
        </g>
        <g id="Black-S">
            <path d="M656.723,133.477 L673.275,133.477 C674.833,133.477 676.096,132.213 676.096,130.655 C676.096,129.097 674.833,127.834 673.275,127.834 L656.723,127.834 C655.165,127.834 653.902,129.097 653.902,130.655 C653.902,132.213 655.165,133.477 656.723,133.477 Z" />
            <path d="M626.783,118.397 L641.181,84.864 L639.877,86.26 L649.265,81.442 C650.651,80.731 651.198,79.03 650.486,77.644 C649.775,76.258 648.074,75.711 646.688,76.422 L637.3,81.241 C636.716,81.54 636.255,82.034 635.996,82.637 L621.598,116.171 C620.983,117.603 621.646,119.262 623.078,119.877 C624.509,120.491 626.168,119.829 626.783,118.397 Z" />
            <path d="M708.603,116.628 L694.018,82.638 C693.759,82.035 693.298,81.54 692.714,81.241 L683.326,76.422 C681.939,75.711 680.239,76.258 679.527,77.644 C678.816,79.03 679.363,80.731 680.749,81.442 L690.137,86.26 L688.833,84.863 L703.418,118.853 C704.032,120.285 705.691,120.947 707.123,120.333 C708.555,119.718 709.217,118.059 708.603,116.628 Z" />
            <path d="M626.256,118.994 L655.063,118.994 C654.849,118.994 654.676,118.82 654.676,118.606 C654.676,118.597 654.676,118.587 654.677,118.575 L652.933,140.604 C652.949,140.402 653.117,140.247 653.319,140.247 L628,140.247 C628.202,140.247 628.37,140.402 628.386,140.604 L626.642,118.576 C626.658,118.789 626.499,118.975 626.286,118.992 C626.273,118.993 626.266,118.994 626.256,118.994 Z M626.256,113.351 C626.119,113.351 625.984,113.357 625.848,113.367 C622.947,113.597 620.788,116.128 621.017,119.021 L622.761,141.049 C622.977,143.782 625.258,145.89 628,145.89 L653.319,145.89 C656.06,145.89 658.341,143.782 658.558,141.049 L660.302,119.021 C660.313,118.884 660.318,118.745 660.318,118.606 C660.318,115.704 657.966,113.351 655.063,113.351 L626.256,113.351 Z" />
            <path d="M674.937,118.994 L703.745,118.994 C703.531,118.994 703.357,118.82 703.357,118.606 C703.357,118.596 703.358,118.589 703.358,118.583 L701.614,140.604 C701.63,140.403 701.798,140.247 702,140.247 L676.681,140.247 C676.883,140.247 677.051,140.402 677.067,140.604 L675.323,118.576 C675.34,118.789 675.181,118.975 674.968,118.992 C674.955,118.993 674.947,118.994 674.937,118.994 Z M674.937,113.351 C674.801,113.351 674.665,113.357 674.529,113.367 C671.629,113.597 669.469,116.128 669.698,119.021 L671.442,141.049 C671.659,143.782 673.94,145.89 676.681,145.89 L702,145.89 C704.742,145.89 707.023,143.782 707.239,141.049 L708.984,119.021 C708.995,118.878 709,118.743 709,118.606 C709,115.704 706.647,113.351 703.745,113.351 L674.937,113.351 Z" />
        </g>
    </g>
</svg>