<?xml version="1.0" encoding="UTF-8"?>
<svg height="600" width="800" xmlns="http://www.w3.org/2000/svg" xmlns:xlink="http://www.w3.org/1999/xlink">
    <g id="Notes" font-family="'LucidaGrande', 'Lucida Grande', sans-serif" font-size="13">
        <rect fill="white" height="600.0" width="800.0" x="0.0" y="0.0" />
        <g font-size="13">
            <text x="18.0" y="176.0">Small</text>
            <text x="18.0" y="376.0">Medium</text>
            <text x="18.0" y="576.0">Large</text>
        </g>
        <g font-size="9">
            <text x="250.0" y="30.0">Ultralight</text>
            <text x="450.0" y="30.0">Regular</text>
            <text x="650.0" y="30.0">Black</text>
            <text id="template-version" fill="#505050" text-anchor="end" x="785.0" y="575.0">Template v.3.0</text>
            <a href="https://github.com/swhitty/SwiftDraw">
                <text fill="#505050" text-anchor="end" x="785.0" y="590.0">https://github.com/swhitty/SwiftDraw</text>
            </a>
        </g>
    </g>
    <g id="Guides" stroke="rgb(39, 170, 225)" stroke-width="0.5">
        <path id="Capline-S" d="M18,76 l800,0" />
        <path id="H-reference" d="M85,145.755 L87.685,145.755 L113.369,79.287 L114.052,79.287 L114.052,76 L112.148,76 L85,145.755 Z M95.693,121.536 L130.996,121.536 L130.263,119.313 L96.474,119.313 L95.693,121.536 Z M139.15,145.755 L141.787,145.755 L114.638,76 L113.466,76 L113.466,79.287 L139.15,145.755 Z" stroke="none" />
        <path id="Baseline-S" d="M18,146 l800,0" />
        <path id="left-margin-Ultralight-S" d="M216,56 l0,110" />
        <path id="right-margin-Ultralight-S" d="M314,56 l0,110" />
        <path id="left-margin-Regular-S" d="M416,56 l0,110" />
        <path id="right-margin-Regular-S" d="M514,56 l0,110" />
        <path id="left-margin-Black-S" d="M616,56 l0,110" />
        <path id="right-margin-Black-S" d="M714,56 l0,110" />
        <path id="Capline-M" d="M18,276 l800,0" />
        <path id="Baseline-M" d="M18,346 l800,0" />
        <path id="Capline-L" d="M18,476 l800,0" />
        <path id="Baseline-L" d="M18,546 l800,0" />
    </g>
    <g id="Symbols">
        <g id="Ultralight-S">
            <path d="M301,108 L269,108 C267.343,108 266,109.343 266,111 C266,112.657 267.343,114 269,114 L301,114 C302.657,114 304,112.657 304,111 C304,109.343 302.657,108 301,108 Z" />
            <path d="M258,111 C258,109.343 259.343,108 261,108 C262.657,108 264,109.343 264,111 C264,112.657 262.657,114 261,114 C259.343,114 258,112.657 258,111 Z M252,111 C252,115.971 256.029,120 261,120 C265.971,120 270,115.971 270,111 C270,106.029 265.971,102 261,102 C256.029,102 252,106.029 252,111 Z" />
            <path d="M301,140 L261,140 C244.984,140 232,127.016 232,111 C232,94.984 244.984,82 261,82 L301,82 C302.657,82 304,80.657 304,79 C304,77.343 302.657,76 301,76 L261,76 C241.67,76 226,91.67 226,111 C226,130.33 241.67,146 261,146 L301,146 C302.657,146 304,144.657 304,143 C304,141.343 302.657,140 301,140 Z" />
        </g>
        <g id="Regular-S">
            <path d="M501,108 L469,108 C467.343,108 466,109.343 466,111 C466,112.657 467.343,114 469,114 L501,114 C502.657,114 504,112.657 504,111 C504,109.343 502.657,108 501,108 Z" />
            <path d="M458,111 C458,109.343 459.343,108 461,108 C462.657,108 464,109.343 464,111 C464,112.657 462.657,114 461,114 C459.343,114 458,112.657 458,111 Z M452,111 C452,115.971 456.029,120 461,120 C465.971,120 470,115.971 470,111 C470,106.029 465.971,102 461,102 C456.029,102 452,106.029 452,111 Z" />
            <path d="M501,140 L461,140 C444.984,140 432,127.016 432,111 C432,94.984 444.984,82 461,82 L501,82 C502.657,82 504,80.657 504,79 C504,77.343 502.657,76 501,76 L461,76 C441.67,76 426,91.67 426,111 C426,130.33 441.67,146 461,146 L501,146 C502.657,146 504,144.657 504,143 C504,141.343 502.657,140 501,140 Z" />
        </g>
        <g id="Black-S">
            <path d="M701,108 L669,108 C667.343,108 666,109.343 666,111 C666,112.657 667.343,114 669,114 L701,114 C702.657,114 704,112.657 704,111 C704,109.343 702.657,108 701,108 Z" />
            <path d="M658,111 C658,109.343 659.343,108 661,108 C662.657,108 664,109.343 664,111 C664,112.657 662.657,114 661,114 C659.343,114 658,112.657 658,111 Z M652,111 C652,115.971 656.029,120 661,120 C665.971,120 670,115.971 670,111 C670,106.029 665.971,102 661,102 C656.029,102 652,106.029 652,111 Z" />
            <path d="M701,140 L661,140 C644.984,140 632,127.016 632,111 C632,94.984 644.984,82 661,82 L701,82 C702.657,82 704,80.657 704,79 C704,77.343 702.657,76 701,76 L661,76 C641.67,76 626,91.67 626,111 C626,130.33 641.67,146 661,146 L701,146 C702.657,146 704,144.657 704,143 C704,141.343 702.657,140 701,140 Z" />
        </g>
    </g>
</svg>