<?xml version="1.0" encoding="UTF-8"?>
<svg height="600" width="800" xmlns="http://www.w3.org/2000/svg" xmlns:xlink="http://www.w3.org/1999/xlink">
    <g id="Notes" font-family="'LucidaGrande', 'Lucida Grande', sans-serif" font-size="13">
        <rect fill="white" height="600.0" width="800.0" x="0.0" y="0.0" />
        <g font-size="13">
            <text x="18.0" y="176.0">Small</text>
            <text x="18.0" y="376.0">Medium</text>
            <text x="18.0" y="576.0">Large</text>
        </g>
        <g font-size="9">
            <text x="250.0" y="30.0">Ultralight</text>
            <text x="450.0" y="30.0">Regular</text>
            <text x="650.0" y="30.0">Black</text>
            <text id="template-version" fill="#505050" text-anchor="end" x="785.0" y="575.0">Template v.3.0</text>
            <a href="https://github.com/swhitty/SwiftDraw">
                <text fill="#505050" text-anchor="end" x="785.0" y="590.0">https://github.com/swhitty/SwiftDraw</text>
            </a>
        </g>
    </g>
    <g id="Guides" stroke="rgb(39, 170, 225)" stroke-width="0.5">
        <path id="Capline-S" d="M18,76 l800,0" />
        <path id="H-reference" d="M85,145.755 L87.685,145.755 L113.369,79.287 L114.052,79.287 L114.052,76 L112.148,76 L85,145.755 Z M95.693,121.536 L130.996,121.536 L130.263,119.313 L96.474,119.313 L95.693,121.536 Z M139.15,145.755 L141.787,145.755 L114.638,76 L113.466,76 L113.466,79.287 L139.15,145.755 Z" stroke="none" />
        <path id="Baseline-S" d="M18,146 l800,0" />
        <path id="left-margin-Ultralight-S" d="M221,56 l0,110" />
        <path id="right-margin-Ultralight-S" d="M309,56 l0,110" />
        <path id="left-margin-Regular-S" d="M421,56 l0,110" />
        <path id="right-margin-Regular-S" d="M509,56 l0,110" />
        <path id="left-margin-Black-S" d="M621,56 l0,110" />
        <path id="right-margin-Black-S" d="M709,56 l0,110" />
        <path id="Capline-M" d="M18,276 l800,0" />
        <path id="Baseline-M" d="M18,346 l800,0" />
        <path id="Capline-L" d="M18,476 l800,0" />
        <path id="Baseline-L" d="M18,546 l800,0" />
    </g>
    <g id="Symbols">
        <g id="Ultralight-S">
            <path d="M288.605,125.651 L288.605,140.302 C288.605,140.752 288.24,141.116 287.791,141.116 L277.209,141.116 C275.861,141.116 274.767,142.209 274.767,143.558 C274.767,144.907 275.861,146 277.209,146 L287.791,146 C290.937,146 293.488,143.449 293.488,140.302 L293.488,125.651 C293.488,124.302 292.395,123.209 291.046,123.209 C289.698,123.209 288.605,124.302 288.605,125.651 Z" />
            <path d="M293.488,97.977 L293.488,81.698 C293.488,78.551 290.937,76 287.791,76 L242.209,76 C239.063,76 236.512,78.551 236.512,81.698 L236.512,140.302 C236.512,143.449 239.063,146 242.209,146 L251.977,146 C253.325,146 254.419,144.907 254.419,143.558 C254.419,142.209 253.325,141.116 251.977,141.116 L242.209,141.116 C241.76,141.116 241.395,140.752 241.395,140.302 L241.395,81.698 C241.395,81.248 241.76,80.884 242.209,80.884 L287.791,80.884 C288.24,80.884 288.605,81.248 288.605,81.698 L288.605,97.977 C288.605,99.325 289.698,100.419 291.046,100.419 C292.395,100.419 293.488,99.325 293.488,97.977 Z" />
            <path d="M251.977,100.419 L274.767,100.419 C276.116,100.419 277.209,99.325 277.209,97.977 C277.209,96.628 276.116,95.535 274.767,95.535 L251.977,95.535 C250.628,95.535 249.535,96.628 249.535,97.977 C249.535,99.325 250.628,100.419 251.977,100.419 Z" />
            <path d="M265.27,145.094 L292.944,110.908 C293.793,109.86 293.631,108.323 292.583,107.474 C291.535,106.626 289.997,106.787 289.149,107.836 L261.474,142.022 C260.626,143.07 260.787,144.607 261.836,145.456 C262.884,146.305 264.421,146.143 265.27,145.094 Z" />
            <path d="M251.977,113.442 L265,113.442 C266.349,113.442 267.442,112.349 267.442,111 C267.442,109.651 266.349,108.558 265,108.558 L251.977,108.558 C250.628,108.558 249.535,109.651 249.535,111 C249.535,112.349 250.628,113.442 251.977,113.442 Z" />
        </g>
        <g id="Regular-S">
            <path d="M488.605,125.651 L488.605,140.302 C488.605,140.752 488.24,141.116 487.791,141.116 L477.209,141.116 C475.861,141.116 474.767,142.209 474.767,143.558 C474.767,144.907 475.861,146 477.209,146 L487.791,146 C490.937,146 493.488,143.449 493.488,140.302 L493.488,125.651 C493.488,124.302 492.395,123.209 491.046,123.209 C489.698,123.209 488.605,124.302 488.605,125.651 Z" />
            <path d="M493.488,97.977 L493.488,81.698 C493.488,78.551 490.937,76 487.791,76 L442.209,76 C439.063,76 436.512,78.551 436.512,81.698 L436.512,140.302 C436.512,143.449 439.063,146 442.209,146 L451.977,146 C453.325,146 454.419,144.907 454.419,143.558 C454.419,142.209 453.325,141.116 451.977,141.116 L442.209,141.116 C441.76,141.116 441.395,140.752 441.395,140.302 L441.395,81.698 C441.395,81.248 441.76,80.884 442.209,80.884 L487.791,80.884 C488.24,80.884 488.605,81.248 488.605,81.698 L488.605,97.977 C488.605,99.325 489.698,100.419 491.046,100.419 C492.395,100.419 493.488,99.325 493.488,97.977 Z" />
            <path d="M451.977,100.419 L474.767,100.419 C476.116,100.419 477.209,99.325 477.209,97.977 C477.209,96.628 476.116,95.535 474.767,95.535 L451.977,95.535 C450.628,95.535 449.535,96.628 449.535,97.977 C449.535,99.325 450.628,100.419 451.977,100.419 Z" />
            <path d="M465.27,145.094 L492.944,110.908 C493.793,109.86 493.631,108.323 492.583,107.474 C491.535,106.626 489.997,106.787 489.148,107.836 L461.474,142.022 C460.626,143.07 460.787,144.607 461.836,145.456 C462.884,146.305 464.421,146.143 465.27,145.094 Z" />
            <path d="M451.977,113.442 L465,113.442 C466.349,113.442 467.442,112.349 467.442,111 C467.442,109.651 466.349,108.558 465,108.558 L451.977,108.558 C450.628,108.558 449.535,109.651 449.535,111 C449.535,112.349 450.628,113.442 451.977,113.442 Z" />
        </g>
        <g id="Black-S">
            <path d="M688.605,125.651 L688.605,140.302 C688.605,140.752 688.24,141.116 687.791,141.116 L677.209,141.116 C675.861,141.116 674.767,142.209 674.767,143.558 C674.767,144.907 675.861,146 677.209,146 L687.791,146 C690.937,146 693.488,143.449 693.488,140.302 L693.488,125.651 C693.488,124.302 692.395,123.209 691.046,123.209 C689.698,123.209 688.605,124.302 688.605,125.651 Z" />
            <path d="M693.488,97.977 L693.488,81.698 C693.488,78.551 690.937,76 687.791,76 L642.209,76 C639.063,76 636.512,78.551 636.512,81.698 L636.512,140.302 C636.512,143.449 639.063,146 642.209,146 L651.977,146 C653.325,146 654.419,144.907 654.419,143.558 C654.419,142.209 653.325,141.116 651.977,141.116 L642.209,141.116 C641.76,141.116 641.395,140.752 641.395,140.302 L641.395,81.698 C641.395,81.248 641.76,80.884 642.209,80.884 L687.791,80.884 C688.24,80.884 688.605,81.248 688.605,81.698 L688.605,97.977 C688.605,99.325 689.698,100.419 691.046,100.419 C692.395,100.419 693.488,99.325 693.488,97.977 Z" />
            <path d="M651.977,100.419 L674.767,100.419 C676.116,100.419 677.209,99.325 677.209,97.977 C677.209,96.628 676.116,95.535 674.767,95.535 L651.977,95.535 C650.628,95.535 649.535,96.628 649.535,97.977 C649.535,99.325 650.628,100.419 651.977,100.419 Z" />
            <path d="M665.27,145.094 L692.944,110.908 C693.793,109.86 693.631,108.323 692.583,107.474 C691.535,106.626 689.997,106.787 689.148,107.836 L661.474,142.022 C660.626,143.07 660.787,144.607 661.836,145.456 C662.884,146.305 664.421,146.143 665.27,145.094 Z" />
            <path d="M651.977,113.442 L665,113.442 C666.349,113.442 667.442,112.349 667.442,111 C667.442,109.651 666.349,108.558 665,108.558 L651.977,108.558 C650.628,108.558 649.535,109.651 649.535,111 C649.535,112.349 650.628,113.442 651.977,113.442 Z" />
        </g>
    </g>
</svg>