<?xml version="1.0" encoding="UTF-8"?>
<svg height="600" width="800" xmlns="http://www.w3.org/2000/svg" xmlns:xlink="http://www.w3.org/1999/xlink">
    <g id="Notes" font-family="'LucidaGrande', 'Lucida Grande', sans-serif" font-size="13">
        <rect fill="white" height="600.0" width="800.0" x="0.0" y="0.0" />
        <g font-size="13">
            <text x="18.0" y="176.0">Small</text>
            <text x="18.0" y="376.0">Medium</text>
            <text x="18.0" y="576.0">Large</text>
        </g>
        <g font-size="9">
            <text x="250.0" y="30.0">Ultralight</text>
            <text x="450.0" y="30.0">Regular</text>
            <text x="650.0" y="30.0">Black</text>
            <text id="template-version" fill="#505050" text-anchor="end" x="785.0" y="575.0">Template v.3.0</text>
            <a href="https://github.com/swhitty/SwiftDraw">
                <text fill="#505050" text-anchor="end" x="785.0" y="590.0">https://github.com/swhitty/SwiftDraw</text>
            </a>
        </g>
    </g>
    <g id="Guides" stroke="rgb(39, 170, 225)" stroke-width="0.5">
        <path id="Capline-S" d="M18,76 l800,0" />
        <path id="H-reference" d="M85,145.755 L87.685,145.755 L113.369,79.287 L114.052,79.287 L114.052,76 L112.148,76 L85,145.755 Z M95.693,121.536 L130.996,121.536 L130.263,119.313 L96.474,119.313 L95.693,121.536 Z M139.15,145.755 L141.787,145.755 L114.638,76 L113.466,76 L113.466,79.287 L139.15,145.755 Z" stroke="none" />
        <path id="Baseline-S" d="M18,146 l800,0" />
        <path id="left-margin-Ultralight-S" d="M216.406,56 l0,110" />
        <path id="right-margin-Ultralight-S" d="M313.594,56 l0,110" />
        <path id="left-margin-Regular-S" d="M416.406,56 l0,110" />
        <path id="right-margin-Regular-S" d="M513.594,56 l0,110" />
        <path id="left-margin-Black-S" d="M616.406,56 l0,110" />
        <path id="right-margin-Black-S" d="M713.594,56 l0,110" />
        <path id="Capline-M" d="M18,276 l800,0" />
        <path id="Baseline-M" d="M18,346 l800,0" />
        <path id="Capline-L" d="M18,476 l800,0" />
        <path id="Baseline-L" d="M18,546 l800,0" />
    </g>
    <g id="Symbols">
        <g id="Ultralight-S">
            <path d="M262.308,78.692 L262.308,143.308 C262.308,144.795 263.513,146 265,146 C266.487,146 267.692,144.795 267.692,143.308 L267.692,78.692 C267.692,77.205 266.487,76 265,76 C263.513,76 262.308,77.205 262.308,78.692 Z" />
            <path d="M231.466,130.238 L253.005,90.751 L247.949,89.462 L247.949,128.949 L250.641,126.256 L229.103,126.256 L231.466,130.238 Z M226.739,127.66 C225.76,129.454 227.059,131.641 229.103,131.641 L250.641,131.641 C252.128,131.641 253.333,130.436 253.333,128.949 L253.333,89.462 C253.333,86.672 249.613,85.724 248.277,88.172 L226.739,127.66 Z" />
            <path d="M300.897,126.256 L279.359,126.256 L282.051,128.949 L282.051,89.462 L276.995,90.751 L298.534,130.238 L300.897,126.256 Z M300.897,131.641 C302.941,131.641 304.24,129.454 303.261,127.66 L281.723,88.172 C280.387,85.724 276.667,86.672 276.667,89.462 L276.667,128.949 C276.667,130.436 277.872,131.641 279.359,131.641 L300.897,131.641 Z" />
        </g>
        <g id="Regular-S">
            <path d="M462.308,78.692 L462.308,143.308 C462.308,144.795 463.513,146 465,146 C466.487,146 467.692,144.795 467.692,143.308 L467.692,78.692 C467.692,77.205 466.487,76 465,76 C463.513,76 462.308,77.205 462.308,78.692 Z" />
            <path d="M431.466,130.238 L453.005,90.751 L447.949,89.462 L447.949,128.949 L450.641,126.256 L429.103,126.256 L431.466,130.238 Z M426.739,127.66 C425.76,129.454 427.059,131.641 429.103,131.641 L450.641,131.641 C452.128,131.641 453.333,130.436 453.333,128.949 L453.333,89.462 C453.333,86.672 449.613,85.724 448.277,88.172 L426.739,127.66 Z" />
            <path d="M500.897,126.256 L479.359,126.256 L482.051,128.949 L482.051,89.462 L476.995,90.751 L498.534,130.238 L500.897,126.256 Z M500.897,131.641 C502.941,131.641 504.24,129.454 503.261,127.66 L481.723,88.172 C480.387,85.724 476.667,86.672 476.667,89.462 L476.667,128.949 C476.667,130.436 477.872,131.641 479.359,131.641 L500.897,131.641 Z" />
        </g>
        <g id="Black-S">
            <path d="M662.308,78.692 L662.308,143.308 C662.308,144.795 663.513,146 665,146 C666.487,146 667.692,144.795 667.692,143.308 L667.692,78.692 C667.692,77.205 666.487,76 665,76 C663.513,76 662.308,77.205 662.308,78.692 Z" />
            <path d="M631.466,130.238 L653.005,90.751 L647.949,89.462 L647.949,128.949 L650.641,126.256 L629.103,126.256 L631.466,130.238 Z M626.739,127.66 C625.76,129.454 627.059,131.641 629.103,131.641 L650.641,131.641 C652.128,131.641 653.333,130.436 653.333,128.949 L653.333,89.462 C653.333,86.672 649.613,85.724 648.277,88.172 L626.739,127.66 Z" />
            <path d="M700.897,126.256 L679.359,126.256 L682.051,128.949 L682.051,89.462 L676.995,90.751 L698.534,130.238 L700.897,126.256 Z M700.897,131.641 C702.941,131.641 704.24,129.454 703.261,127.66 L681.723,88.172 C680.387,85.724 676.667,86.672 676.667,89.462 L676.667,128.949 C676.667,130.436 677.872,131.641 679.359,131.641 L700.897,131.641 Z" />
        </g>
    </g>
</svg>