<?xml version="1.0" encoding="UTF-8"?>
<svg height="600" width="800" xmlns="http://www.w3.org/2000/svg" xmlns:xlink="http://www.w3.org/1999/xlink">
    <g id="Notes" font-family="'LucidaGrande', 'Lucida Grande', sans-serif" font-size="13">
        <rect fill="white" height="600.0" width="800.0" x="0.0" y="0.0" />
        <g font-size="13">
            <text x="18.0" y="176.0">Small</text>
            <text x="18.0" y="376.0">Medium</text>
            <text x="18.0" y="576.0">Large</text>
        </g>
        <g font-size="9">
            <text x="250.0" y="30.0">Ultralight</text>
            <text x="450.0" y="30.0">Regular</text>
            <text x="650.0" y="30.0">Black</text>
            <text id="template-version" fill="#505050" text-anchor="end" x="785.0" y="575.0">Template v.3.0</text>
            <a href="https://github.com/swhitty/SwiftDraw">
                <text fill="#505050" text-anchor="end" x="785.0" y="590.0">https://github.com/swhitty/SwiftDraw</text>
            </a>
        </g>
    </g>
    <g id="Guides" stroke="rgb(39, 170, 225)" stroke-width="0.5">
        <path id="Capline-S" d="M18,76 l800,0" />
        <path id="H-reference" d="M85,145.755 L87.685,145.755 L113.369,79.287 L114.052,79.287 L114.052,76 L112.148,76 L85,145.755 Z M95.693,121.536 L130.996,121.536 L130.263,119.313 L96.474,119.313 L95.693,121.536 Z M139.15,145.755 L141.787,145.755 L114.638,76 L113.466,76 L113.466,79.287 L139.15,145.755 Z" stroke="none" />
        <path id="Baseline-S" d="M18,146 l800,0" />
        <path id="left-margin-Ultralight-S" d="M221,56 l0,110" />
        <path id="right-margin-Ultralight-S" d="M309,56 l0,110" />
        <path id="left-margin-Regular-S" d="M421,56 l0,110" />
        <path id="right-margin-Regular-S" d="M509,56 l0,110" />
        <path id="left-margin-Black-S" d="M621,56 l0,110" />
        <path id="right-margin-Black-S" d="M709,56 l0,110" />
        <path id="Capline-M" d="M18,276 l800,0" />
        <path id="Baseline-M" d="M18,346 l800,0" />
        <path id="Capline-L" d="M18,476 l800,0" />
        <path id="Baseline-L" d="M18,546 l800,0" />
    </g>
    <g id="Symbols">
        <g id="Ultralight-S">
            <path d="M293.171,119.537 L293.171,138.317 C293.171,138.996 292.901,139.648 292.421,140.128 C291.94,140.608 291.289,140.878 290.61,140.878 L239.39,140.878 C238.711,140.878 238.06,140.608 237.579,140.128 C237.099,139.648 236.829,138.996 236.829,138.317 L236.829,100.756 C236.829,100.077 237.099,99.425 237.579,98.945 C238.06,98.465 238.711,98.195 239.39,98.195 L290.61,98.195 C291.289,98.195 291.94,98.465 292.421,98.945 C292.901,99.425 293.171,100.077 293.171,100.756 L293.171,119.537 Z M298.293,119.537 L298.293,100.756 C298.293,98.718 297.483,96.764 296.042,95.323 C294.602,93.883 292.647,93.073 290.61,93.073 L239.39,93.073 C237.353,93.073 235.398,93.883 233.958,95.323 C232.517,96.764 231.707,98.718 231.707,100.756 L231.707,138.317 C231.707,140.355 232.517,142.309 233.958,143.75 C235.398,145.191 237.353,146 239.39,146 L290.61,146 C292.647,146 294.602,145.191 296.042,143.75 C297.483,142.309 298.293,140.355 298.293,138.317 L298.293,119.537 Z" />
            <path d="M234.268,128.927 L295.732,128.927 L293.171,126.366 L293.171,138.317 C293.171,139.732 292.024,140.878 290.61,140.878 L239.39,140.878 C237.976,140.878 236.829,139.732 236.829,138.317 L236.829,126.366 L234.268,128.927 Z M234.268,123.805 C232.854,123.805 231.707,124.951 231.707,126.366 L231.707,138.317 C231.707,142.56 235.147,146 239.39,146 L290.61,146 C294.853,146 298.293,142.56 298.293,138.317 L298.293,126.366 C298.293,124.951 297.146,123.805 295.732,123.805 L234.268,123.805 Z" />
            <path d="M250.488,87.098 C250.488,83.797 253.163,81.122 256.463,81.122 C259.764,81.122 262.439,83.797 262.439,87.098 C262.439,90.398 259.764,93.073 256.463,93.073 C253.163,93.073 250.488,90.398 250.488,87.098 Z M245.366,87.098 C245.366,93.227 250.334,98.195 256.463,98.195 C262.592,98.195 267.561,93.227 267.561,87.098 C267.561,80.969 262.592,76 256.463,76 C250.334,76 245.366,80.969 245.366,87.098 Z" />
            <path d="M267.561,88.805 C267.561,86.448 269.472,84.537 271.829,84.537 C274.187,84.537 276.098,86.448 276.098,88.805 C276.098,91.162 274.187,93.073 271.829,93.073 C269.472,93.073 267.561,91.162 267.561,88.805 Z M262.439,88.805 C262.439,93.991 266.643,98.195 271.829,98.195 C277.015,98.195 281.22,93.991 281.22,88.805 C281.22,83.619 277.015,79.415 271.829,79.415 C266.643,79.415 262.439,83.619 262.439,88.805 Z" />
            <path d="M254.715,107.822 L266.667,97.579 L263.333,97.579 L275.285,107.822 C276.358,108.743 277.975,108.619 278.896,107.545 C279.816,106.471 279.692,104.854 278.618,103.934 L266.667,93.69 C265.708,92.868 264.292,92.868 263.333,93.69 L251.382,103.934 C250.308,104.854 250.184,106.471 251.104,107.545 C252.025,108.619 253.642,108.743 254.715,107.822 Z" />
        </g>
        <g id="Regular-S">
            <path d="M493.171,119.537 L493.171,138.317 C493.171,138.996 492.901,139.648 492.421,140.128 C491.94,140.608 491.289,140.878 490.61,140.878 L439.39,140.878 C438.711,140.878 438.06,140.608 437.579,140.128 C437.099,139.648 436.829,138.996 436.829,138.317 L436.829,100.756 C436.829,100.077 437.099,99.425 437.579,98.945 C438.06,98.465 438.711,98.195 439.39,98.195 L490.61,98.195 C491.289,98.195 491.94,98.465 492.421,98.945 C492.901,99.425 493.171,100.077 493.171,100.756 L493.171,119.537 Z M498.293,119.537 L498.293,100.756 C498.293,98.718 497.483,96.764 496.042,95.323 C494.602,93.883 492.647,93.073 490.61,93.073 L439.39,93.073 C437.353,93.073 435.398,93.883 433.958,95.323 C432.517,96.764 431.707,98.718 431.707,100.756 L431.707,138.317 C431.707,140.355 432.517,142.309 433.958,143.75 C435.398,145.191 437.353,146 439.39,146 L490.61,146 C492.647,146 494.602,145.191 496.042,143.75 C497.483,142.309 498.293,140.355 498.293,138.317 L498.293,119.537 Z" />
            <path d="M434.268,128.927 L495.732,128.927 L493.171,126.366 L493.171,138.317 C493.171,139.732 492.024,140.878 490.61,140.878 L439.39,140.878 C437.976,140.878 436.829,139.732 436.829,138.317 L436.829,126.366 L434.268,128.927 Z M434.268,123.805 C432.854,123.805 431.707,124.951 431.707,126.366 L431.707,138.317 C431.707,142.56 435.147,146 439.39,146 L490.61,146 C494.853,146 498.293,142.56 498.293,138.317 L498.293,126.366 C498.293,124.951 497.146,123.805 495.732,123.805 L434.268,123.805 Z" />
            <path d="M450.488,87.098 C450.488,83.797 453.163,81.122 456.463,81.122 C459.764,81.122 462.439,83.797 462.439,87.098 C462.439,90.398 459.764,93.073 456.463,93.073 C453.163,93.073 450.488,90.398 450.488,87.098 Z M445.366,87.098 C445.366,93.227 450.334,98.195 456.463,98.195 C462.592,98.195 467.561,93.227 467.561,87.098 C467.561,80.969 462.592,76 456.463,76 C450.334,76 445.366,80.969 445.366,87.098 Z" />
            <path d="M467.561,88.805 C467.561,86.448 469.472,84.537 471.829,84.537 C474.187,84.537 476.098,86.448 476.098,88.805 C476.098,91.162 474.187,93.073 471.829,93.073 C469.472,93.073 467.561,91.162 467.561,88.805 Z M462.439,88.805 C462.439,93.991 466.643,98.195 471.829,98.195 C477.015,98.195 481.22,93.991 481.22,88.805 C481.22,83.619 477.015,79.415 471.829,79.415 C466.643,79.415 462.439,83.619 462.439,88.805 Z" />
            <path d="M454.715,107.822 L466.667,97.579 L463.333,97.579 L475.285,107.822 C476.358,108.743 477.975,108.619 478.896,107.545 C479.816,106.471 479.692,104.854 478.618,103.934 L466.667,93.69 C465.708,92.868 464.292,92.868 463.333,93.69 L451.382,103.934 C450.308,104.854 450.184,106.471 451.104,107.545 C452.025,108.619 453.642,108.743 454.715,107.822 Z" />
        </g>
        <g id="Black-S">
            <path d="M693.171,119.537 L693.171,138.317 C693.171,138.996 692.901,139.648 692.421,140.128 C691.94,140.608 691.289,140.878 690.61,140.878 L639.39,140.878 C638.711,140.878 638.06,140.608 637.579,140.128 C637.099,139.648 636.829,138.996 636.829,138.317 L636.829,100.756 C636.829,100.077 637.099,99.425 637.579,98.945 C638.06,98.465 638.711,98.195 639.39,98.195 L690.61,98.195 C691.289,98.195 691.94,98.465 692.421,98.945 C692.901,99.425 693.171,100.077 693.171,100.756 L693.171,119.537 Z M698.293,119.537 L698.293,100.756 C698.293,98.718 697.483,96.764 696.042,95.323 C694.602,93.883 692.647,93.073 690.61,93.073 L639.39,93.073 C637.353,93.073 635.398,93.883 633.958,95.323 C632.517,96.764 631.707,98.718 631.707,100.756 L631.707,138.317 C631.707,140.355 632.517,142.309 633.958,143.75 C635.398,145.191 637.353,146 639.39,146 L690.61,146 C692.647,146 694.602,145.191 696.042,143.75 C697.483,142.309 698.293,140.355 698.293,138.317 L698.293,119.537 Z" />
            <path d="M634.268,128.927 L695.732,128.927 L693.171,126.366 L693.171,138.317 C693.171,139.732 692.024,140.878 690.61,140.878 L639.39,140.878 C637.976,140.878 636.829,139.732 636.829,138.317 L636.829,126.366 L634.268,128.927 Z M634.268,123.805 C632.854,123.805 631.707,124.951 631.707,126.366 L631.707,138.317 C631.707,142.56 635.147,146 639.39,146 L690.61,146 C694.853,146 698.293,142.56 698.293,138.317 L698.293,126.366 C698.293,124.951 697.146,123.805 695.732,123.805 L634.268,123.805 Z" />
            <path d="M650.488,87.098 C650.488,83.797 653.163,81.122 656.463,81.122 C659.764,81.122 662.439,83.797 662.439,87.098 C662.439,90.398 659.764,93.073 656.463,93.073 C653.163,93.073 650.488,90.398 650.488,87.098 Z M645.366,87.098 C645.366,93.227 650.334,98.195 656.463,98.195 C662.592,98.195 667.561,93.227 667.561,87.098 C667.561,80.969 662.592,76 656.463,76 C650.334,76 645.366,80.969 645.366,87.098 Z" />
            <path d="M667.561,88.805 C667.561,86.448 669.472,84.537 671.829,84.537 C674.187,84.537 676.098,86.448 676.098,88.805 C676.098,91.162 674.187,93.073 671.829,93.073 C669.472,93.073 667.561,91.162 667.561,88.805 Z M662.439,88.805 C662.439,93.991 666.643,98.195 671.829,98.195 C677.015,98.195 681.22,93.991 681.22,88.805 C681.22,83.619 677.015,79.415 671.829,79.415 C666.643,79.415 662.439,83.619 662.439,88.805 Z" />
            <path d="M654.715,107.822 L666.667,97.579 L663.333,97.579 L675.285,107.822 C676.358,108.743 677.975,108.619 678.896,107.545 C679.816,106.471 679.692,104.854 678.618,103.934 L666.667,93.69 C665.708,92.868 664.292,92.868 663.333,93.69 L651.382,103.934 C650.308,104.854 650.184,106.471 651.104,107.545 C652.025,108.619 653.642,108.743 654.715,107.822 Z" />
        </g>
    </g>
</svg>