<?xml version="1.0" encoding="UTF-8"?>
<svg height="600" width="800" xmlns="http://www.w3.org/2000/svg" xmlns:xlink="http://www.w3.org/1999/xlink">
    <g id="Notes" font-family="'LucidaGrande', 'Lucida Grande', sans-serif" font-size="13">
        <rect fill="white" height="600.0" width="800.0" x="0.0" y="0.0" />
        <g font-size="13">
            <text x="18.0" y="176.0">Small</text>
            <text x="18.0" y="376.0">Medium</text>
            <text x="18.0" y="576.0">Large</text>
        </g>
        <g font-size="9">
            <text x="250.0" y="30.0">Ultralight</text>
            <text x="450.0" y="30.0">Regular</text>
            <text x="650.0" y="30.0">Black</text>
            <text id="template-version" fill="#505050" text-anchor="end" x="785.0" y="575.0">Template v.3.0</text>
            <a href="https://github.com/swhitty/SwiftDraw">
                <text fill="#505050" text-anchor="end" x="785.0" y="590.0">https://github.com/swhitty/SwiftDraw</text>
            </a>
        </g>
    </g>
    <g id="Guides" stroke="rgb(39, 170, 225)" stroke-width="0.5">
        <path id="Capline-S" d="M18,76 l800,0" />
        <path id="H-reference" d="M85,145.755 L87.685,145.755 L113.369,79.287 L114.052,79.287 L114.052,76 L112.148,76 L85,145.755 Z M95.693,121.536 L130.996,121.536 L130.263,119.313 L96.474,119.313 L95.693,121.536 Z M139.15,145.755 L141.787,145.755 L114.638,76 L113.466,76 L113.466,79.287 L139.15,145.755 Z" stroke="none" />
        <path id="Baseline-S" d="M18,146 l800,0" />
        <path id="left-margin-Ultralight-S" d="M212,56 l0,110" />
        <path id="right-margin-Ultralight-S" d="M318,56 l0,110" />
        <path id="left-margin-Regular-S" d="M412,56 l0,110" />
        <path id="right-margin-Regular-S" d="M518,56 l0,110" />
        <path id="left-margin-Black-S" d="M612,56 l0,110" />
        <path id="right-margin-Black-S" d="M718,56 l0,110" />
        <path id="Capline-M" d="M18,276 l800,0" />
        <path id="Baseline-M" d="M18,346 l800,0" />
        <path id="Capline-L" d="M18,476 l800,0" />
        <path id="Baseline-L" d="M18,546 l800,0" />
    </g>
    <g id="Symbols">
        <g id="Ultralight-S">
            <path d="M235.913,98.204 C233.984,98.954 231.305,100.627 228.664,103.522 C225.171,107.349 222.791,112.363 222.023,118.635 C221.821,120.279 222.991,121.776 224.636,121.977 C226.28,122.179 227.777,121.009 227.978,119.364 C228.591,114.355 230.426,110.492 233.096,107.566 C234.242,106.31 235.465,105.315 236.677,104.558 C237.37,104.125 237.872,103.879 238.088,103.796 C239.632,103.195 240.397,101.457 239.796,99.912 C239.196,98.368 237.457,97.603 235.913,98.204 Z" />
            <path d="M291.912,103.796 C292.128,103.879 292.63,104.125 293.323,104.558 C294.535,105.315 295.758,106.31 296.904,107.566 C299.574,110.492 301.409,114.355 302.022,119.364 C302.223,121.009 303.72,122.179 305.364,121.977 C307.009,121.776 308.179,120.279 307.977,118.635 C307.209,112.363 304.829,107.349 301.336,103.521 C298.695,100.627 296.016,98.954 294.087,98.204 C292.543,97.603 290.804,98.368 290.204,99.912 C289.603,101.457 290.368,103.195 291.912,103.796 Z" />
            <path d="M252.292,103.915 C252.503,103.966 253.005,104.136 253.699,104.457 C254.907,105.016 256.124,105.794 257.259,106.818 C259.587,108.92 261.275,111.78 262.062,115.604 C262.395,117.227 263.982,118.272 265.604,117.938 C267.227,117.604 268.272,116.018 267.938,114.395 C266.888,109.291 264.536,105.304 261.28,102.365 C258.511,99.865 255.721,98.574 253.709,98.085 C252.099,97.693 250.476,98.681 250.085,100.291 C249.694,101.901 250.682,103.523 252.292,103.915 Z" />
            <path d="M276.291,98.085 C274.279,98.574 271.489,99.865 268.72,102.365 C265.464,105.304 263.112,109.291 262.062,114.395 C261.728,116.018 262.773,117.604 264.396,117.938 C266.018,118.272 267.605,117.227 267.938,115.604 C268.725,111.78 270.413,108.92 272.741,106.818 C273.876,105.794 275.093,105.016 276.301,104.457 C276.995,104.136 277.497,103.966 277.708,103.915 C279.318,103.523 280.306,101.901 279.915,100.291 C279.524,98.681 277.901,97.693 276.291,98.085 Z" />
            <path d="M256.473,128.046 C255.834,128.16 254.873,128.434 253.695,128.938 C251.798,129.749 249.912,130.931 248.159,132.552 C245.576,134.943 243.515,138.082 242.162,142.026 C241.625,143.594 242.46,145.3 244.027,145.837 C245.595,146.374 247.301,145.539 247.838,143.972 C248.866,140.975 250.374,138.677 252.234,136.956 C253.458,135.824 254.762,135.007 256.053,134.455 C256.788,134.141 257.315,133.99 257.527,133.953 C259.158,133.661 260.245,132.103 259.953,130.472 C259.662,128.841 258.104,127.755 256.473,128.046 Z" />
            <path d="M272.473,133.953 C272.685,133.99 273.212,134.141 273.947,134.455 C275.238,135.007 276.542,135.824 277.766,136.956 C279.626,138.677 281.134,140.975 282.162,143.972 C282.699,145.539 284.405,146.374 285.973,145.837 C287.54,145.3 288.375,143.594 287.838,142.026 C286.485,138.082 284.424,134.943 281.841,132.552 C280.088,130.931 278.202,129.749 276.305,128.938 C275.127,128.434 274.166,128.16 273.527,128.046 C271.896,127.755 270.338,128.841 270.047,130.472 C269.755,132.103 270.841,133.661 272.473,133.953 Z" />
            <path d="M258,124.999 C258,121.133 261.134,118 265,118 C268.866,118 272,121.133 272,124.999 C272,128.865 268.866,131.999 265,131.999 C261.134,131.999 258,128.865 258,124.999 Z M252,124.999 C252,132.179 257.82,137.999 265,137.999 C272.18,137.999 278,132.179 278,124.999 C278,117.82 272.18,112 265,112 C257.82,112 252,117.82 252,124.999 Z" />
            <path d="M276,91 C276,86.029 280.029,82 285,82 C289.97,82 294,86.029 294,91 C294,95.97 289.97,100 285,100 C280.029,100 276,95.97 276,91 Z M270,91 C270,99.284 276.716,106 285,106 C293.284,106 300,99.284 300,91 C300,82.716 293.284,76 285,76 C276.716,76 270,82.716 270,91 Z" />
            <path d="M236,91 C236,86.029 240.03,82 245,82 C249.971,82 254,86.029 254,91 C254,95.97 249.971,100 245,100 C240.03,100 236,95.97 236,91 Z M230,91 C230,99.284 236.716,106 245,106 C253.284,106 260,99.284 260,91 C260,82.716 253.284,76 245,76 C236.716,76 230,82.716 230,91 Z" />
        </g>
        <g id="Regular-S">
            <path d="M435.913,98.204 C433.984,98.954 431.305,100.627 428.664,103.522 C425.171,107.349 422.791,112.363 422.023,118.635 C421.821,120.279 422.991,121.776 424.636,121.977 C426.28,122.179 427.777,121.009 427.978,119.364 C428.591,114.355 430.426,110.492 433.096,107.566 C434.242,106.31 435.465,105.315 436.677,104.558 C437.37,104.125 437.872,103.879 438.088,103.796 C439.632,103.195 440.397,101.457 439.796,99.912 C439.196,98.368 437.457,97.603 435.913,98.204 Z" />
            <path d="M491.912,103.796 C492.128,103.879 492.63,104.125 493.323,104.558 C494.535,105.315 495.758,106.31 496.904,107.566 C499.574,110.492 501.409,114.355 502.022,119.364 C502.223,121.009 503.72,122.179 505.364,121.977 C507.009,121.776 508.179,120.279 507.977,118.635 C507.209,112.363 504.829,107.349 501.336,103.521 C498.695,100.627 496.016,98.954 494.087,98.204 C492.543,97.603 490.804,98.368 490.204,99.912 C489.603,101.457 490.368,103.195 491.912,103.796 Z" />
            <path d="M452.292,103.915 C452.503,103.966 453.005,104.136 453.699,104.457 C454.907,105.016 456.124,105.794 457.259,106.818 C459.587,108.92 461.275,111.78 462.062,115.604 C462.395,117.227 463.982,118.272 465.604,117.938 C467.227,117.604 468.272,116.018 467.938,114.395 C466.888,109.291 464.536,105.304 461.28,102.365 C458.511,99.865 455.721,98.574 453.709,98.085 C452.099,97.693 450.476,98.681 450.085,100.291 C449.694,101.901 450.682,103.523 452.292,103.915 Z" />
            <path d="M476.291,98.085 C474.279,98.574 471.489,99.865 468.72,102.365 C465.464,105.304 463.112,109.291 462.062,114.395 C461.728,116.018 462.773,117.604 464.396,117.938 C466.018,118.272 467.605,117.227 467.938,115.604 C468.725,111.78 470.413,108.92 472.741,106.818 C473.876,105.794 475.093,105.016 476.301,104.457 C476.995,104.136 477.497,103.966 477.708,103.915 C479.318,103.523 480.306,101.901 479.915,100.291 C479.524,98.681 477.901,97.693 476.291,98.085 Z" />
            <path d="M456.473,128.046 C455.834,128.16 454.873,128.434 453.695,128.938 C451.798,129.749 449.912,130.931 448.159,132.552 C445.576,134.943 443.515,138.082 442.162,142.026 C441.625,143.594 442.46,145.3 444.027,145.837 C445.595,146.374 447.301,145.539 447.838,143.972 C448.866,140.975 450.374,138.677 452.234,136.956 C453.458,135.824 454.762,135.007 456.053,134.455 C456.788,134.141 457.315,133.99 457.527,133.953 C459.158,133.661 460.245,132.103 459.953,130.472 C459.662,128.841 458.104,127.755 456.473,128.046 Z" />
            <path d="M472.473,133.953 C472.685,133.99 473.212,134.141 473.947,134.455 C475.238,135.007 476.542,135.824 477.766,136.956 C479.626,138.677 481.134,140.975 482.162,143.972 C482.699,145.539 484.405,146.374 485.973,145.837 C487.54,145.3 488.375,143.594 487.838,142.026 C486.485,138.082 484.424,134.943 481.841,132.552 C480.088,130.931 478.202,129.749 476.305,128.938 C475.127,128.434 474.166,128.16 473.527,128.046 C471.896,127.755 470.338,128.841 470.047,130.472 C469.755,132.103 470.841,133.661 472.473,133.953 Z" />
            <path d="M458,124.999 C458,121.133 461.134,118 465,118 C468.866,118 472,121.133 472,124.999 C472,128.865 468.866,131.999 465,131.999 C461.134,131.999 458,128.865 458,124.999 Z M452,124.999 C452,132.179 457.82,137.999 465,137.999 C472.18,137.999 478,132.179 478,124.999 C478,117.82 472.18,112 465,112 C457.82,112 452,117.82 452,124.999 Z" />
            <path d="M476,91 C476,86.029 480.029,82 485,82 C489.97,82 494,86.029 494,91 C494,95.97 489.97,100 485,100 C480.029,100 476,95.97 476,91 Z M470,91 C470,99.284 476.716,106 485,106 C493.284,106 500,99.284 500,91 C500,82.716 493.284,76 485,76 C476.716,76 470,82.716 470,91 Z" />
            <path d="M436,91 C436,86.029 440.03,82 445,82 C449.971,82 454,86.029 454,91 C454,95.97 449.971,100 445,100 C440.03,100 436,95.97 436,91 Z M430,91 C430,99.284 436.716,106 445,106 C453.284,106 460,99.284 460,91 C460,82.716 453.284,76 445,76 C436.716,76 430,82.716 430,91 Z" />
        </g>
        <g id="Black-S">
            <path d="M635.913,98.204 C633.984,98.954 631.305,100.627 628.664,103.522 C625.171,107.349 622.791,112.363 622.023,118.635 C621.821,120.279 622.991,121.776 624.636,121.977 C626.28,122.179 627.777,121.009 627.978,119.364 C628.591,114.355 630.426,110.492 633.096,107.566 C634.242,106.31 635.465,105.315 636.677,104.558 C637.37,104.125 637.872,103.879 638.088,103.796 C639.632,103.195 640.397,101.457 639.796,99.912 C639.196,98.368 637.457,97.603 635.913,98.204 Z" />
            <path d="M691.912,103.796 C692.128,103.879 692.63,104.125 693.323,104.558 C694.535,105.315 695.758,106.31 696.904,107.566 C699.574,110.492 701.409,114.355 702.022,119.364 C702.223,121.009 703.72,122.179 705.364,121.977 C707.009,121.776 708.179,120.279 707.977,118.635 C707.209,112.363 704.829,107.349 701.336,103.521 C698.695,100.627 696.016,98.954 694.087,98.204 C692.543,97.603 690.804,98.368 690.204,99.912 C689.603,101.457 690.368,103.195 691.912,103.796 Z" />
            <path d="M652.292,103.915 C652.503,103.966 653.005,104.136 653.699,104.457 C654.907,105.016 656.124,105.794 657.259,106.818 C659.587,108.92 661.275,111.78 662.062,115.604 C662.395,117.227 663.982,118.272 665.604,117.938 C667.227,117.604 668.272,116.018 667.938,114.395 C666.888,109.291 664.536,105.304 661.28,102.365 C658.511,99.865 655.721,98.574 653.709,98.085 C652.099,97.693 650.476,98.681 650.085,100.291 C649.694,101.901 650.682,103.523 652.292,103.915 Z" />
            <path d="M676.291,98.085 C674.279,98.574 671.489,99.865 668.72,102.365 C665.464,105.304 663.112,109.291 662.062,114.395 C661.728,116.018 662.773,117.604 664.396,117.938 C666.018,118.272 667.605,117.227 667.938,115.604 C668.725,111.78 670.413,108.92 672.741,106.818 C673.876,105.794 675.093,105.016 676.301,104.457 C676.995,104.136 677.497,103.966 677.708,103.915 C679.318,103.523 680.306,101.901 679.915,100.291 C679.524,98.681 677.901,97.693 676.291,98.085 Z" />
            <path d="M656.473,128.046 C655.834,128.16 654.873,128.434 653.695,128.938 C651.798,129.749 649.912,130.931 648.159,132.552 C645.576,134.943 643.515,138.082 642.162,142.026 C641.625,143.594 642.46,145.3 644.027,145.837 C645.595,146.374 647.301,145.539 647.838,143.972 C648.866,140.975 650.374,138.677 652.234,136.956 C653.458,135.824 654.762,135.007 656.053,134.455 C656.788,134.141 657.315,133.99 657.527,133.953 C659.159,133.661 660.245,132.103 659.953,130.472 C659.662,128.841 658.104,127.755 656.473,128.046 Z" />
            <path d="M672.473,133.953 C672.685,133.99 673.212,134.141 673.947,134.455 C675.238,135.007 676.542,135.824 677.766,136.956 C679.626,138.677 681.134,140.975 682.162,143.972 C682.699,145.539 684.405,146.374 685.973,145.837 C687.54,145.3 688.375,143.594 687.838,142.026 C686.485,138.082 684.424,134.943 681.841,132.552 C680.088,130.931 678.202,129.749 676.305,128.938 C675.127,128.434 674.166,128.16 673.527,128.046 C671.896,127.755 670.338,128.841 670.047,130.472 C669.755,132.103 670.841,133.661 672.473,133.953 Z" />
            <path d="M658,124.999 C658,121.133 661.134,118 665,118 C668.866,118 672,121.133 672,124.999 C672,128.865 668.866,131.999 665,131.999 C661.134,131.999 658,128.865 658,124.999 Z M652,124.999 C652,132.179 657.82,137.999 665,137.999 C672.18,137.999 678,132.179 678,124.999 C678,117.82 672.18,112 665,112 C657.82,112 652,117.82 652,124.999 Z" />
            <path d="M676,91 C676,86.029 680.029,82 685,82 C689.97,82 694,86.029 694,91 C694,95.97 689.97,100 685,100 C680.029,100 676,95.97 676,91 Z M670,91 C670,99.284 676.716,106 685,106 C693.284,106 700,99.284 700,91 C700,82.716 693.284,76 685,76 C676.716,76 670,82.716 670,91 Z" />
            <path d="M636,91 C636,86.029 640.03,82 645,82 C649.971,82 654,86.029 654,91 C654,95.97 649.971,100 645,100 C640.03,100 636,95.97 636,91 Z M630,91 C630,99.284 636.716,106 645,106 C653.284,106 660,99.284 660,91 C660,82.716 653.284,76 645,76 C636.716,76 630,82.716 630,91 Z" />
        </g>
    </g>
</svg>