<?xml version="1.0" encoding="UTF-8"?>
<svg height="600" width="800" xmlns="http://www.w3.org/2000/svg" xmlns:xlink="http://www.w3.org/1999/xlink">
    <g id="Notes" font-family="'LucidaGrande', 'Lucida Grande', sans-serif" font-size="13">
        <rect fill="white" height="600.0" width="800.0" x="0.0" y="0.0" />
        <g font-size="13">
            <text x="18.0" y="176.0">Small</text>
            <text x="18.0" y="376.0">Medium</text>
            <text x="18.0" y="576.0">Large</text>
        </g>
        <g font-size="9">
            <text x="250.0" y="30.0">Ultralight</text>
            <text x="450.0" y="30.0">Regular</text>
            <text x="650.0" y="30.0">Black</text>
            <text id="template-version" fill="#505050" text-anchor="end" x="785.0" y="575.0">Template v.3.0</text>
            <a href="https://github.com/swhitty/SwiftDraw">
                <text fill="#505050" text-anchor="end" x="785.0" y="590.0">https://github.com/swhitty/SwiftDraw</text>
            </a>
        </g>
    </g>
    <g id="Guides" stroke="rgb(39, 170, 225)" stroke-width="0.5">
        <path id="Capline-S" d="M18,76 l800,0" />
        <path id="H-reference" d="M85,145.755 L87.685,145.755 L113.369,79.287 L114.052,79.287 L114.052,76 L112.148,76 L85,145.755 Z M95.693,121.536 L130.996,121.536 L130.263,119.313 L96.474,119.313 L95.693,121.536 Z M139.15,145.755 L141.787,145.755 L114.638,76 L113.466,76 L113.466,79.287 L139.15,145.755 Z" stroke="none" />
        <path id="Baseline-S" d="M18,146 l800,0" />
        <path id="left-margin-Ultralight-S" d="M214.323,56 l0,110" />
        <path id="right-margin-Ultralight-S" d="M315.677,56 l0,110" />
        <path id="left-margin-Regular-S" d="M414.323,56 l0,110" />
        <path id="right-margin-Regular-S" d="M515.677,56 l0,110" />
        <path id="left-margin-Black-S" d="M614.323,56 l0,110" />
        <path id="right-margin-Black-S" d="M715.677,56 l0,110" />
        <path id="Capline-M" d="M18,276 l800,0" />
        <path id="Baseline-M" d="M18,346 l800,0" />
        <path id="Capline-L" d="M18,476 l800,0" />
        <path id="Baseline-L" d="M18,546 l800,0" />
    </g>
    <g id="Symbols">
        <g id="Ultralight-S">
            <path d="M263.108,79.782 L240.405,79.782 C235.703,79.782 231.891,83.594 231.891,88.296 L231.891,128.027 C231.891,129.594 233.162,130.864 234.729,130.864 L295.271,130.864 C296.838,130.864 298.109,129.594 298.109,128.027 L298.109,114.783 C298.109,113.216 296.838,111.945 295.271,111.945 C293.704,111.945 292.433,113.216 292.433,114.783 L292.433,128.027 L295.271,125.189 L234.729,125.189 L237.567,128.027 L237.567,88.296 C237.567,86.728 238.837,85.458 240.405,85.458 L263.108,85.458 C264.675,85.458 265.946,84.187 265.946,82.62 C265.946,81.053 264.675,79.782 263.108,79.782 Z" />
            <path d="M227.161,130.864 L302.839,130.864 L300.001,128.027 L300.001,131.81 C300.001,136.512 296.189,140.324 291.487,140.324 L238.513,140.324 C233.811,140.324 229.999,136.512 229.999,131.81 L229.999,128.027 L227.161,130.864 Z M227.161,125.189 C225.594,125.189 224.323,126.459 224.323,128.027 L224.323,131.81 C224.323,139.647 230.676,146 238.513,146 L291.487,146 C299.324,146 305.677,139.647 305.677,131.81 L305.677,128.027 C305.677,126.459 304.406,125.189 302.839,125.189 L227.161,125.189 Z" />
            <path d="M279.19,90.19 C279.19,85.488 283.002,81.676 287.704,81.676 C292.406,81.676 296.217,85.488 296.217,90.19 C296.217,94.892 292.406,98.703 287.704,98.703 C283.002,98.703 279.19,94.892 279.19,90.19 Z M273.514,90.19 C273.514,98.026 279.867,104.379 287.704,104.379 C295.54,104.379 301.893,98.026 301.893,90.19 C301.893,82.353 295.54,76 287.704,76 C279.867,76 273.514,82.353 273.514,90.19 Z" />
            <path d="M278.129,84.629 L293.264,99.764 C294.373,100.872 296.17,100.872 297.278,99.764 C298.386,98.656 298.386,96.859 297.278,95.751 L282.142,80.615 C281.034,79.507 279.237,79.507 278.129,80.615 C277.021,81.723 277.021,83.52 278.129,84.629 Z" />
        </g>
        <g id="Regular-S">
            <path d="M463.108,79.782 L440.405,79.782 C435.703,79.782 431.891,83.594 431.891,88.296 L431.891,128.027 C431.891,129.594 433.162,130.864 434.729,130.864 L495.271,130.864 C496.838,130.864 498.109,129.594 498.109,128.027 L498.109,114.783 C498.109,113.216 496.838,111.945 495.271,111.945 C493.704,111.945 492.433,113.216 492.433,114.783 L492.433,128.027 L495.271,125.189 L434.729,125.189 L437.567,128.027 L437.567,88.296 C437.567,86.728 438.837,85.458 440.405,85.458 L463.108,85.458 C464.675,85.458 465.946,84.187 465.946,82.62 C465.946,81.053 464.675,79.782 463.108,79.782 Z" />
            <path d="M427.161,130.864 L502.839,130.864 L500.001,128.027 L500.001,131.81 C500.001,136.512 496.189,140.324 491.487,140.324 L438.513,140.324 C433.811,140.324 429.999,136.512 429.999,131.81 L429.999,128.027 L427.161,130.864 Z M427.161,125.189 C425.594,125.189 424.323,126.459 424.323,128.027 L424.323,131.81 C424.323,139.647 430.676,146 438.513,146 L491.487,146 C499.324,146 505.677,139.647 505.677,131.81 L505.677,128.027 C505.677,126.459 504.406,125.189 502.839,125.189 L427.161,125.189 Z" />
            <path d="M479.19,90.19 C479.19,85.488 483.002,81.676 487.704,81.676 C492.406,81.676 496.217,85.488 496.217,90.19 C496.217,94.892 492.406,98.703 487.704,98.703 C483.002,98.703 479.19,94.892 479.19,90.19 Z M473.514,90.19 C473.514,98.026 479.867,104.379 487.704,104.379 C495.54,104.379 501.893,98.026 501.893,90.19 C501.893,82.353 495.54,76 487.704,76 C479.867,76 473.514,82.353 473.514,90.19 Z" />
            <path d="M478.129,84.629 L493.264,99.764 C494.373,100.872 496.17,100.872 497.278,99.764 C498.386,98.656 498.386,96.859 497.278,95.751 L482.142,80.615 C481.034,79.507 479.237,79.507 478.129,80.615 C477.021,81.723 477.021,83.52 478.129,84.629 Z" />
        </g>
        <g id="Black-S">
            <path d="M663.108,79.782 L640.405,79.782 C635.703,79.782 631.891,83.594 631.891,88.296 L631.891,128.027 C631.891,129.594 633.162,130.864 634.729,130.864 L695.271,130.864 C696.838,130.864 698.109,129.594 698.109,128.027 L698.109,114.783 C698.109,113.216 696.838,111.945 695.271,111.945 C693.704,111.945 692.433,113.216 692.433,114.783 L692.433,128.027 L695.271,125.189 L634.729,125.189 L637.567,128.027 L637.567,88.296 C637.567,86.728 638.837,85.458 640.405,85.458 L663.108,85.458 C664.675,85.458 665.946,84.187 665.946,82.62 C665.946,81.053 664.675,79.782 663.108,79.782 Z" />
            <path d="M627.161,130.864 L702.839,130.864 L700.001,128.027 L700.001,131.81 C700.001,136.512 696.189,140.324 691.487,140.324 L638.513,140.324 C633.811,140.324 629.999,136.512 629.999,131.81 L629.999,128.027 L627.161,130.864 Z M627.161,125.189 C625.594,125.189 624.323,126.459 624.323,128.027 L624.323,131.81 C624.323,139.647 630.676,146 638.513,146 L691.487,146 C699.324,146 705.677,139.647 705.677,131.81 L705.677,128.027 C705.677,126.459 704.406,125.189 702.839,125.189 L627.161,125.189 Z" />
            <path d="M679.19,90.19 C679.19,85.488 683.002,81.676 687.704,81.676 C692.406,81.676 696.217,85.488 696.217,90.19 C696.217,94.892 692.406,98.703 687.704,98.703 C683.002,98.703 679.19,94.892 679.19,90.19 Z M673.514,90.19 C673.514,98.026 679.867,104.379 687.704,104.379 C695.54,104.379 701.893,98.026 701.893,90.19 C701.893,82.353 695.54,76 687.704,76 C679.867,76 673.514,82.353 673.514,90.19 Z" />
            <path d="M678.129,84.629 L693.264,99.764 C694.373,100.872 696.17,100.872 697.278,99.764 C698.386,98.656 698.386,96.859 697.278,95.751 L682.142,80.615 C681.034,79.507 679.237,79.507 678.129,80.615 C677.021,81.723 677.021,83.52 678.129,84.629 Z" />
        </g>
    </g>
</svg>