<?xml version="1.0" encoding="UTF-8"?>
<svg height="600" width="800" xmlns="http://www.w3.org/2000/svg" xmlns:xlink="http://www.w3.org/1999/xlink">
    <g id="Notes" font-family="'LucidaGrande', 'Lucida Grande', sans-serif" font-size="13">
        <rect fill="white" height="600.0" width="800.0" x="0.0" y="0.0" />
        <g font-size="13">
            <text x="18.0" y="176.0">Small</text>
            <text x="18.0" y="376.0">Medium</text>
            <text x="18.0" y="576.0">Large</text>
        </g>
        <g font-size="9">
            <text x="250.0" y="30.0">Ultralight</text>
            <text x="450.0" y="30.0">Regular</text>
            <text x="650.0" y="30.0">Black</text>
            <text id="template-version" fill="#505050" text-anchor="end" x="785.0" y="575.0">Template v.3.0</text>
            <a href="https://github.com/swhitty/SwiftDraw">
                <text fill="#505050" text-anchor="end" x="785.0" y="590.0">https://github.com/swhitty/SwiftDraw</text>
            </a>
        </g>
    </g>
    <g id="Guides" stroke="rgb(39, 170, 225)" stroke-width="0.5">
        <path id="Capline-S" d="M18,76 l800,0" />
        <path id="H-reference" d="M85,145.755 L87.685,145.755 L113.369,79.287 L114.052,79.287 L114.052,76 L112.148,76 L85,145.755 Z M95.693,121.536 L130.996,121.536 L130.263,119.313 L96.474,119.313 L95.693,121.536 Z M139.15,145.755 L141.787,145.755 L114.638,76 L113.466,76 L113.466,79.287 L139.15,145.755 Z" stroke="none" />
        <path id="Baseline-S" d="M18,146 l800,0" />
        <path id="left-margin-Ultralight-S" d="M221,56 l0,110" />
        <path id="right-margin-Ultralight-S" d="M309,56 l0,110" />
        <path id="left-margin-Regular-S" d="M421,56 l0,110" />
        <path id="right-margin-Regular-S" d="M509,56 l0,110" />
        <path id="left-margin-Black-S" d="M621,56 l0,110" />
        <path id="right-margin-Black-S" d="M709,56 l0,110" />
        <path id="Capline-M" d="M18,276 l800,0" />
        <path id="Baseline-M" d="M18,346 l800,0" />
        <path id="Capline-L" d="M18,476 l800,0" />
        <path id="Baseline-L" d="M18,546 l800,0" />
    </g>
    <g id="Symbols">
        <g id="Ultralight-S">
            <path d="M256.86,113.442 L273.14,113.442 L270.698,111 L270.698,119.14 C270.698,119.781 270.95,120.396 271.4,120.853 C271.974,121.436 272.491,122.049 273.682,123.523 C274.981,125.13 275.554,125.81 276.283,126.55 L278.023,124.837 L275.581,124.837 L275.581,143.558 L278.023,141.116 L251.977,141.116 L254.419,143.558 L254.419,124.837 L253.831,126.426 L258.714,120.729 C259.094,120.286 259.302,119.722 259.302,119.14 L259.302,111 L256.86,113.442 Z M256.86,108.558 C255.512,108.558 254.419,109.651 254.419,111 L254.419,119.14 L255.006,117.55 L250.123,123.248 C249.743,123.691 249.535,124.254 249.535,124.837 L249.535,143.558 C249.535,144.907 250.628,146 251.977,146 L278.023,146 C279.372,146 280.465,144.907 280.465,143.558 L280.465,124.837 C280.465,124.196 280.213,123.581 279.763,123.124 C279.189,122.54 278.671,121.928 277.481,120.454 C276.182,118.846 275.609,118.167 274.88,117.426 L273.14,119.14 L275.581,119.14 L275.581,111 C275.581,109.651 274.488,108.558 273.14,108.558 L256.86,108.558 Z" />
            <path d="M257.674,93.093 L257.674,111 C257.674,112.349 258.768,113.442 260.116,113.442 L269.884,113.442 C271.232,113.442 272.326,112.349 272.326,111 L272.326,93.093 L271.915,94.448 L275.171,89.564 C275.589,88.937 275.694,88.152 275.456,87.437 L272.2,77.67 C271.868,76.673 270.935,76 269.884,76 L260.116,76 C259.065,76 258.132,76.673 257.8,77.67 L254.544,87.437 C254.306,88.152 254.411,88.937 254.829,89.564 L258.085,94.448 L257.674,93.093 Z M262.558,93.093 C262.558,92.611 262.415,92.14 262.148,91.739 L258.892,86.855 L259.177,88.981 L262.433,79.214 L260.116,80.884 L269.884,80.884 L267.567,79.214 L270.823,88.981 L271.108,86.855 L267.852,91.739 C267.585,92.14 267.442,92.611 267.442,93.093 L267.442,111 L269.884,108.558 L260.116,108.558 L262.558,111 L262.558,93.093 Z" />
        </g>
        <g id="Regular-S">
            <path d="M456.86,113.442 L473.14,113.442 L470.698,111 L470.698,119.14 C470.698,119.781 470.95,120.396 471.4,120.853 C471.974,121.436 472.491,122.049 473.682,123.523 C474.981,125.13 475.554,125.81 476.283,126.55 L478.023,124.837 L475.581,124.837 L475.581,143.558 L478.023,141.116 L451.977,141.116 L454.419,143.558 L454.419,124.837 L453.831,126.426 L458.714,120.729 C459.094,120.286 459.302,119.722 459.302,119.14 L459.302,111 L456.86,113.442 Z M456.86,108.558 C455.512,108.558 454.419,109.651 454.419,111 L454.419,119.14 L455.006,117.55 L450.123,123.248 C449.743,123.691 449.535,124.254 449.535,124.837 L449.535,143.558 C449.535,144.907 450.628,146 451.977,146 L478.023,146 C479.372,146 480.465,144.907 480.465,143.558 L480.465,124.837 C480.465,124.196 480.213,123.581 479.763,123.124 C479.189,122.54 478.671,121.928 477.481,120.454 C476.182,118.846 475.609,118.167 474.88,117.426 L473.14,119.14 L475.581,119.14 L475.581,111 C475.581,109.651 474.488,108.558 473.14,108.558 L456.86,108.558 Z" />
            <path d="M457.674,93.093 L457.674,111 C457.674,112.349 458.768,113.442 460.116,113.442 L469.884,113.442 C471.232,113.442 472.326,112.349 472.326,111 L472.326,93.093 L471.915,94.448 L475.171,89.564 C475.589,88.937 475.694,88.152 475.456,87.437 L472.2,77.67 C471.868,76.673 470.935,76 469.884,76 L460.116,76 C459.065,76 458.132,76.673 457.8,77.67 L454.544,87.437 C454.306,88.152 454.411,88.937 454.829,89.564 L458.085,94.448 L457.674,93.093 Z M462.558,93.093 C462.558,92.611 462.415,92.14 462.148,91.739 L458.892,86.855 L459.177,88.981 L462.433,79.214 L460.116,80.884 L469.884,80.884 L467.567,79.214 L470.823,88.981 L471.108,86.855 L467.852,91.739 C467.585,92.14 467.442,92.611 467.442,93.093 L467.442,111 L469.884,108.558 L460.116,108.558 L462.558,111 L462.558,93.093 Z" />
        </g>
        <g id="Black-S">
            <path d="M656.86,113.442 L673.14,113.442 L670.698,111 L670.698,119.14 C670.698,119.781 670.95,120.396 671.4,120.853 C671.974,121.436 672.491,122.049 673.682,123.523 C674.981,125.13 675.554,125.81 676.283,126.55 L678.023,124.837 L675.581,124.837 L675.581,143.558 L678.023,141.116 L651.977,141.116 L654.419,143.558 L654.419,124.837 L653.831,126.426 L658.714,120.729 C659.094,120.286 659.302,119.722 659.302,119.14 L659.302,111 L656.86,113.442 Z M656.86,108.558 C655.512,108.558 654.419,109.651 654.419,111 L654.419,119.14 L655.006,117.55 L650.123,123.248 C649.743,123.691 649.535,124.254 649.535,124.837 L649.535,143.558 C649.535,144.907 650.628,146 651.977,146 L678.023,146 C679.372,146 680.465,144.907 680.465,143.558 L680.465,124.837 C680.465,124.196 680.213,123.581 679.763,123.124 C679.189,122.54 678.671,121.928 677.481,120.454 C676.182,118.846 675.609,118.167 674.88,117.426 L673.14,119.14 L675.581,119.14 L675.581,111 C675.581,109.651 674.488,108.558 673.14,108.558 L656.86,108.558 Z" />
            <path d="M657.674,93.093 L657.674,111 C657.674,112.349 658.768,113.442 660.116,113.442 L669.884,113.442 C671.232,113.442 672.326,112.349 672.326,111 L672.326,93.093 L671.915,94.448 L675.171,89.564 C675.589,88.937 675.694,88.152 675.456,87.437 L672.2,77.67 C671.868,76.673 670.935,76 669.884,76 L660.116,76 C659.065,76 658.132,76.673 657.8,77.67 L654.544,87.437 C654.306,88.152 654.411,88.937 654.829,89.564 L658.085,94.448 L657.674,93.093 Z M662.558,93.093 C662.558,92.611 662.415,92.14 662.148,91.739 L658.892,86.855 L659.177,88.981 L662.433,79.214 L660.116,80.884 L669.884,80.884 L667.567,79.214 L670.823,88.981 L671.108,86.855 L667.852,91.739 C667.585,92.14 667.442,92.611 667.442,93.093 L667.442,111 L669.884,108.558 L660.116,108.558 L662.558,111 L662.558,93.093 Z" />
        </g>
    </g>
</svg>