<?xml version="1.0" encoding="UTF-8"?>
<svg height="600" width="800" xmlns="http://www.w3.org/2000/svg" xmlns:xlink="http://www.w3.org/1999/xlink">
    <g id="Notes" font-family="'LucidaGrande', 'Lucida Grande', sans-serif" font-size="13">
        <rect fill="white" height="600.0" width="800.0" x="0.0" y="0.0" />
        <g font-size="13">
            <text x="18.0" y="176.0">Small</text>
            <text x="18.0" y="376.0">Medium</text>
            <text x="18.0" y="576.0">Large</text>
        </g>
        <g font-size="9">
            <text x="250.0" y="30.0">Ultralight</text>
            <text x="450.0" y="30.0">Regular</text>
            <text x="650.0" y="30.0">Black</text>
            <text id="template-version" fill="#505050" text-anchor="end" x="785.0" y="575.0">Template v.3.0</text>
            <a href="https://github.com/swhitty/SwiftDraw">
                <text fill="#505050" text-anchor="end" x="785.0" y="590.0">https://github.com/swhitty/SwiftDraw</text>
            </a>
        </g>
    </g>
    <g id="Guides" stroke="rgb(39, 170, 225)" stroke-width="0.5">
        <path id="Capline-S" d="M18,76 l800,0" />
        <path id="H-reference" d="M85,145.755 L87.685,145.755 L113.369,79.287 L114.052,79.287 L114.052,76 L112.148,76 L85,145.755 Z M95.693,121.536 L130.996,121.536 L130.263,119.313 L96.474,119.313 L95.693,121.536 Z M139.15,145.755 L141.787,145.755 L114.638,76 L113.466,76 L113.466,79.287 L139.15,145.755 Z" stroke="none" />
        <path id="Baseline-S" d="M18,146 l800,0" />
        <path id="left-margin-Ultralight-S" d="M220,56 l0,110" />
        <path id="right-margin-Ultralight-S" d="M310,56 l0,110" />
        <path id="left-margin-Regular-S" d="M420,56 l0,110" />
        <path id="right-margin-Regular-S" d="M510,56 l0,110" />
        <path id="left-margin-Black-S" d="M620,56 l0,110" />
        <path id="right-margin-Black-S" d="M710,56 l0,110" />
        <path id="Capline-M" d="M18,276 l800,0" />
        <path id="Baseline-M" d="M18,346 l800,0" />
        <path id="Capline-L" d="M18,476 l800,0" />
        <path id="Baseline-L" d="M18,546 l800,0" />
    </g>
    <g id="Symbols">
        <g id="Ultralight-S">
            <path d="M262.558,78.442 L262.558,97.977 C262.558,99.325 263.651,100.419 265,100.419 C266.349,100.419 267.442,99.325 267.442,97.977 L267.442,78.442 C267.442,77.093 266.349,76 265,76 C263.651,76 262.558,77.093 262.558,78.442 Z" />
            <path d="M258.488,87.395 L271.512,87.395 C272.86,87.395 273.953,86.302 273.953,84.953 C273.953,83.605 272.86,82.512 271.512,82.512 L258.488,82.512 C257.14,82.512 256.047,83.605 256.047,84.953 C256.047,86.302 257.14,87.395 258.488,87.395 Z" />
            <path d="M250.349,115.07 L240.581,115.07 C237.435,115.07 234.884,117.621 234.884,120.767 L234.884,143.558 L239.767,143.558 L239.767,120.767 C239.767,120.318 240.132,119.953 240.581,119.953 L250.349,119.953 L250.349,115.07 Z" />
            <path d="M279.651,119.953 L289.419,119.953 C289.868,119.953 290.233,120.318 290.233,120.767 L290.233,143.558 L295.116,143.558 L295.116,120.767 C295.116,117.621 292.565,115.07 289.419,115.07 L279.651,115.07 L279.651,119.953 Z" />
            <path d="M232.442,146 L297.558,146 C298.907,146 300,144.907 300,143.558 C300,142.21 298.907,141.116 297.558,141.116 L232.442,141.116 C231.093,141.116 230,142.21 230,143.558 C230,144.907 231.093,146 232.442,146 Z" />
            <path d="M251.971,111.197 L266.622,98.174 L263.378,98.174 L278.029,111.197 L277.209,109.372 L277.209,143.558 L279.651,141.116 L250.349,141.116 L252.791,143.558 L252.791,109.372 L251.971,111.197 Z M248.727,107.547 C248.205,108.01 247.907,108.675 247.907,109.372 L247.907,143.558 C247.907,144.907 249,146 250.349,146 L279.651,146 C281,146 282.093,144.907 282.093,143.558 L282.093,109.372 C282.093,108.675 281.795,108.01 281.273,107.547 L266.622,94.524 C265.697,93.701 264.303,93.701 263.378,94.524 L248.727,107.547 Z" />
            <path d="M262.558,127.279 L262.558,143.558 C262.558,144.907 263.651,146 265,146 C266.349,146 267.442,144.907 267.442,143.558 L267.442,127.279 C267.442,125.93 266.349,124.837 265,124.837 C263.651,124.837 262.558,125.93 262.558,127.279 Z" />
            <path d="M258.488,146 L271.512,146 C272.86,146 273.953,144.907 273.953,143.558 C273.953,142.21 272.86,141.116 271.512,141.116 L258.488,141.116 C257.14,141.116 256.047,142.21 256.047,143.558 C256.047,144.907 257.14,146 258.488,146 Z" />
        </g>
        <g id="Regular-S">
            <path d="M462.558,78.442 L462.558,97.977 C462.558,99.325 463.651,100.419 465,100.419 C466.349,100.419 467.442,99.325 467.442,97.977 L467.442,78.442 C467.442,77.093 466.349,76 465,76 C463.651,76 462.558,77.093 462.558,78.442 Z" />
            <path d="M458.488,87.395 L471.512,87.395 C472.86,87.395 473.953,86.302 473.953,84.953 C473.953,83.605 472.86,82.512 471.512,82.512 L458.488,82.512 C457.14,82.512 456.047,83.605 456.047,84.953 C456.047,86.302 457.14,87.395 458.488,87.395 Z" />
            <path d="M450.349,115.07 L440.581,115.07 C437.435,115.07 434.884,117.621 434.884,120.767 L434.884,143.558 L439.767,143.558 L439.767,120.767 C439.767,120.318 440.132,119.953 440.581,119.953 L450.349,119.953 L450.349,115.07 Z" />
            <path d="M479.651,119.953 L489.419,119.953 C489.868,119.953 490.233,120.318 490.233,120.767 L490.233,143.558 L495.116,143.558 L495.116,120.767 C495.116,117.621 492.565,115.07 489.419,115.07 L479.651,115.07 L479.651,119.953 Z" />
            <path d="M432.442,146 L497.558,146 C498.907,146 500,144.907 500,143.558 C500,142.21 498.907,141.116 497.558,141.116 L432.442,141.116 C431.093,141.116 430,142.21 430,143.558 C430,144.907 431.093,146 432.442,146 Z" />
            <path d="M451.971,111.197 L466.622,98.174 L463.378,98.174 L478.029,111.197 L477.209,109.372 L477.209,143.558 L479.651,141.116 L450.349,141.116 L452.791,143.558 L452.791,109.372 L451.971,111.197 Z M448.727,107.547 C448.205,108.01 447.907,108.675 447.907,109.372 L447.907,143.558 C447.907,144.907 449,146 450.349,146 L479.651,146 C481,146 482.093,144.907 482.093,143.558 L482.093,109.372 C482.093,108.675 481.795,108.01 481.273,107.547 L466.622,94.524 C465.697,93.701 464.303,93.701 463.378,94.524 L448.727,107.547 Z" />
            <path d="M462.558,127.279 L462.558,143.558 C462.558,144.907 463.651,146 465,146 C466.349,146 467.442,144.907 467.442,143.558 L467.442,127.279 C467.442,125.93 466.349,124.837 465,124.837 C463.651,124.837 462.558,125.93 462.558,127.279 Z" />
            <path d="M458.488,146 L471.512,146 C472.86,146 473.953,144.907 473.953,143.558 C473.953,142.21 472.86,141.116 471.512,141.116 L458.488,141.116 C457.14,141.116 456.047,142.21 456.047,143.558 C456.047,144.907 457.14,146 458.488,146 Z" />
        </g>
        <g id="Black-S">
            <path d="M662.558,78.442 L662.558,97.977 C662.558,99.325 663.651,100.419 665,100.419 C666.349,100.419 667.442,99.325 667.442,97.977 L667.442,78.442 C667.442,77.093 666.349,76 665,76 C663.651,76 662.558,77.093 662.558,78.442 Z" />
            <path d="M658.488,87.395 L671.512,87.395 C672.86,87.395 673.953,86.302 673.953,84.953 C673.953,83.605 672.86,82.512 671.512,82.512 L658.488,82.512 C657.14,82.512 656.047,83.605 656.047,84.953 C656.047,86.302 657.14,87.395 658.488,87.395 Z" />
            <path d="M650.349,115.07 L640.581,115.07 C637.435,115.07 634.884,117.621 634.884,120.767 L634.884,143.558 L639.767,143.558 L639.767,120.767 C639.767,120.318 640.132,119.953 640.581,119.953 L650.349,119.953 L650.349,115.07 Z" />
            <path d="M679.651,119.953 L689.419,119.953 C689.868,119.953 690.233,120.318 690.233,120.767 L690.233,143.558 L695.116,143.558 L695.116,120.767 C695.116,117.621 692.565,115.07 689.419,115.07 L679.651,115.07 L679.651,119.953 Z" />
            <path d="M632.442,146 L697.558,146 C698.907,146 700,144.907 700,143.558 C700,142.21 698.907,141.116 697.558,141.116 L632.442,141.116 C631.093,141.116 630,142.21 630,143.558 C630,144.907 631.093,146 632.442,146 Z" />
            <path d="M651.971,111.197 L666.622,98.174 L663.378,98.174 L678.029,111.197 L677.209,109.372 L677.209,143.558 L679.651,141.116 L650.349,141.116 L652.791,143.558 L652.791,109.372 L651.971,111.197 Z M648.727,107.547 C648.205,108.01 647.907,108.675 647.907,109.372 L647.907,143.558 C647.907,144.907 649,146 650.349,146 L679.651,146 C681,146 682.093,144.907 682.093,143.558 L682.093,109.372 C682.093,108.675 681.795,108.01 681.273,107.547 L666.622,94.524 C665.697,93.701 664.303,93.701 663.378,94.524 L648.727,107.547 Z" />
            <path d="M662.558,127.279 L662.558,143.558 C662.558,144.907 663.651,146 665,146 C666.349,146 667.442,144.907 667.442,143.558 L667.442,127.279 C667.442,125.93 666.349,124.837 665,124.837 C663.651,124.837 662.558,125.93 662.558,127.279 Z" />
            <path d="M658.488,146 L671.512,146 C672.86,146 673.953,144.907 673.953,143.558 C673.953,142.21 672.86,141.116 671.512,141.116 L658.488,141.116 C657.14,141.116 656.047,142.21 656.047,143.558 C656.047,144.907 657.14,146 658.488,146 Z" />
        </g>
    </g>
</svg>