<?xml version="1.0" encoding="UTF-8"?>
<svg height="600" width="800" xmlns="http://www.w3.org/2000/svg" xmlns:xlink="http://www.w3.org/1999/xlink">
    <g id="Notes" font-family="'LucidaGrande', 'Lucida Grande', sans-serif" font-size="13">
        <rect fill="white" height="600.0" width="800.0" x="0.0" y="0.0" />
        <g font-size="13">
            <text x="18.0" y="176.0">Small</text>
            <text x="18.0" y="376.0">Medium</text>
            <text x="18.0" y="576.0">Large</text>
        </g>
        <g font-size="9">
            <text x="250.0" y="30.0">Ultralight</text>
            <text x="450.0" y="30.0">Regular</text>
            <text x="650.0" y="30.0">Black</text>
            <text id="template-version" fill="#505050" text-anchor="end" x="785.0" y="575.0">Template v.3.0</text>
            <a href="https://github.com/swhitty/SwiftDraw">
                <text fill="#505050" text-anchor="end" x="785.0" y="590.0">https://github.com/swhitty/SwiftDraw</text>
            </a>
        </g>
    </g>
    <g id="Guides" stroke="rgb(39, 170, 225)" stroke-width="0.5">
        <path id="Capline-S" d="M18,76 l800,0" />
        <path id="H-reference" d="M85,145.755 L87.685,145.755 L113.369,79.287 L114.052,79.287 L114.052,76 L112.148,76 L85,145.755 Z M95.693,121.536 L130.996,121.536 L130.263,119.313 L96.474,119.313 L95.693,121.536 Z M139.15,145.755 L141.787,145.755 L114.638,76 L113.466,76 L113.466,79.287 L139.15,145.755 Z" stroke="none" />
        <path id="Baseline-S" d="M18,146 l800,0" />
        <path id="left-margin-Ultralight-S" d="M221,56 l0,110" />
        <path id="right-margin-Ultralight-S" d="M309,56 l0,110" />
        <path id="left-margin-Regular-S" d="M421,56 l0,110" />
        <path id="right-margin-Regular-S" d="M509,56 l0,110" />
        <path id="left-margin-Black-S" d="M621,56 l0,110" />
        <path id="right-margin-Black-S" d="M709,56 l0,110" />
        <path id="Capline-M" d="M18,276 l800,0" />
        <path id="Baseline-M" d="M18,346 l800,0" />
        <path id="Capline-L" d="M18,476 l800,0" />
        <path id="Baseline-L" d="M18,546 l800,0" />
    </g>
    <g id="Symbols">
        <g id="Ultralight-S">
            <path d="M291.86,125.651 L291.86,140.302 C291.86,140.518 291.775,140.725 291.622,140.878 C291.469,141.031 291.262,141.116 291.047,141.116 L238.953,141.116 C238.738,141.116 238.531,141.031 238.378,140.878 C238.225,140.725 238.14,140.518 238.14,140.302 L238.14,111 C238.14,110.784 238.225,110.577 238.378,110.424 C238.531,110.272 238.738,110.186 238.953,110.186 L291.047,110.186 C291.262,110.186 291.469,110.272 291.622,110.424 C291.775,110.577 291.86,110.784 291.86,111 L291.86,125.651 Z M296.744,125.651 L296.744,111 C296.744,109.489 296.144,108.04 295.075,106.971 C294.007,105.903 292.558,105.302 291.047,105.302 L238.953,105.302 C237.442,105.302 235.993,105.903 234.925,106.971 C233.856,108.04 233.256,109.489 233.256,111 L233.256,140.302 C233.256,141.813 233.856,143.263 234.925,144.331 C235.993,145.4 237.442,146 238.953,146 L291.047,146 C292.558,146 294.007,145.4 295.075,144.331 C296.144,143.263 296.744,141.813 296.744,140.302 L296.744,125.651 Z" />
            <path d="M251.163,107.744 L251.163,94.721 C251.163,87.079 257.358,80.884 265,80.884 C272.642,80.884 278.837,87.079 278.837,94.721 L278.837,107.744 C278.837,109.093 279.93,110.186 281.279,110.186 C282.628,110.186 283.721,109.093 283.721,107.744 L283.721,94.721 C283.721,84.382 275.339,76 265,76 C254.661,76 246.279,84.382 246.279,94.721 L246.279,107.744 C246.279,109.093 247.372,110.186 248.721,110.186 C250.07,110.186 251.163,109.093 251.163,107.744 Z" />
            <path d="M262.558,120.767 L262.558,130.535 C262.558,131.883 263.651,132.977 265,132.977 C266.349,132.977 267.442,131.883 267.442,130.535 L267.442,120.767 C267.442,119.419 266.349,118.326 265,118.326 C263.651,118.326 262.558,119.419 262.558,120.767 Z" />
        </g>
        <g id="Regular-S">
            <path d="M491.86,125.651 L491.86,140.302 C491.86,140.518 491.775,140.725 491.622,140.878 C491.469,141.031 491.262,141.116 491.047,141.116 L438.953,141.116 C438.738,141.116 438.531,141.031 438.378,140.878 C438.225,140.725 438.14,140.518 438.14,140.302 L438.14,111 C438.14,110.784 438.225,110.577 438.378,110.424 C438.531,110.272 438.738,110.186 438.953,110.186 L491.047,110.186 C491.262,110.186 491.469,110.272 491.622,110.424 C491.775,110.577 491.86,110.784 491.86,111 L491.86,125.651 Z M496.744,125.651 L496.744,111 C496.744,109.489 496.144,108.04 495.075,106.971 C494.007,105.903 492.558,105.302 491.047,105.302 L438.953,105.302 C437.442,105.302 435.993,105.903 434.925,106.971 C433.856,108.04 433.256,109.489 433.256,111 L433.256,140.302 C433.256,141.813 433.856,143.263 434.925,144.331 C435.993,145.4 437.442,146 438.953,146 L491.047,146 C492.558,146 494.007,145.4 495.075,144.331 C496.144,143.263 496.744,141.813 496.744,140.302 L496.744,125.651 Z" />
            <path d="M451.163,107.744 L451.163,94.721 C451.163,87.079 457.358,80.884 465,80.884 C472.642,80.884 478.837,87.079 478.837,94.721 L478.837,107.744 C478.837,109.093 479.93,110.186 481.279,110.186 C482.628,110.186 483.721,109.093 483.721,107.744 L483.721,94.721 C483.721,84.382 475.339,76 465,76 C454.661,76 446.279,84.382 446.279,94.721 L446.279,107.744 C446.279,109.093 447.372,110.186 448.721,110.186 C450.07,110.186 451.163,109.093 451.163,107.744 Z" />
            <path d="M462.558,120.767 L462.558,130.535 C462.558,131.883 463.651,132.977 465,132.977 C466.349,132.977 467.442,131.883 467.442,130.535 L467.442,120.767 C467.442,119.419 466.349,118.326 465,118.326 C463.651,118.326 462.558,119.419 462.558,120.767 Z" />
        </g>
        <g id="Black-S">
            <path d="M691.86,125.651 L691.86,140.302 C691.86,140.518 691.775,140.725 691.622,140.878 C691.469,141.031 691.262,141.116 691.047,141.116 L638.953,141.116 C638.738,141.116 638.531,141.031 638.378,140.878 C638.225,140.725 638.14,140.518 638.14,140.302 L638.14,111 C638.14,110.784 638.225,110.577 638.378,110.424 C638.531,110.272 638.738,110.186 638.953,110.186 L691.047,110.186 C691.262,110.186 691.469,110.272 691.622,110.424 C691.775,110.577 691.86,110.784 691.86,111 L691.86,125.651 Z M696.744,125.651 L696.744,111 C696.744,109.489 696.144,108.04 695.075,106.971 C694.007,105.903 692.558,105.302 691.047,105.302 L638.953,105.302 C637.442,105.302 635.993,105.903 634.925,106.971 C633.856,108.04 633.256,109.489 633.256,111 L633.256,140.302 C633.256,141.813 633.856,143.263 634.925,144.331 C635.993,145.4 637.442,146 638.953,146 L691.047,146 C692.558,146 694.007,145.4 695.075,144.331 C696.144,143.263 696.744,141.813 696.744,140.302 L696.744,125.651 Z" />
            <path d="M651.163,107.744 L651.163,94.721 C651.163,87.079 657.358,80.884 665,80.884 C672.642,80.884 678.837,87.079 678.837,94.721 L678.837,107.744 C678.837,109.093 679.93,110.186 681.279,110.186 C682.628,110.186 683.721,109.093 683.721,107.744 L683.721,94.721 C683.721,84.382 675.339,76 665,76 C654.661,76 646.279,84.382 646.279,94.721 L646.279,107.744 C646.279,109.093 647.372,110.186 648.721,110.186 C650.07,110.186 651.163,109.093 651.163,107.744 Z" />
            <path d="M662.558,120.767 L662.558,130.535 C662.558,131.883 663.651,132.977 665,132.977 C666.349,132.977 667.442,131.883 667.442,130.535 L667.442,120.767 C667.442,119.419 666.349,118.326 665,118.326 C663.651,118.326 662.558,119.419 662.558,120.767 Z" />
        </g>
    </g>
</svg>