<?xml version="1.0" encoding="UTF-8"?>
<svg height="600" width="800" xmlns="http://www.w3.org/2000/svg" xmlns:xlink="http://www.w3.org/1999/xlink">
    <g id="Notes" font-family="'LucidaGrande', 'Lucida Grande', sans-serif" font-size="13">
        <rect fill="white" height="600.0" width="800.0" x="0.0" y="0.0" />
        <g font-size="13">
            <text x="18.0" y="176.0">Small</text>
            <text x="18.0" y="376.0">Medium</text>
            <text x="18.0" y="576.0">Large</text>
        </g>
        <g font-size="9">
            <text x="250.0" y="30.0">Ultralight</text>
            <text x="450.0" y="30.0">Regular</text>
            <text x="650.0" y="30.0">Black</text>
            <text id="template-version" fill="#505050" text-anchor="end" x="785.0" y="575.0">Template v.3.0</text>
            <a href="https://github.com/swhitty/SwiftDraw">
                <text fill="#505050" text-anchor="end" x="785.0" y="590.0">https://github.com/swhitty/SwiftDraw</text>
            </a>
        </g>
    </g>
    <g id="Guides" stroke="rgb(39, 170, 225)" stroke-width="0.5">
        <path id="Capline-S" d="M18,76 l800,0" />
        <path id="H-reference" d="M85,145.755 L87.685,145.755 L113.369,79.287 L114.052,79.287 L114.052,76 L112.148,76 L85,145.755 Z M95.693,121.536 L130.996,121.536 L130.263,119.313 L96.474,119.313 L95.693,121.536 Z M139.15,145.755 L141.787,145.755 L114.638,76 L113.466,76 L113.466,79.287 L139.15,145.755 Z" stroke="none" />
        <path id="Baseline-S" d="M18,146 l800,0" />
        <path id="left-margin-Ultralight-S" d="M220,56 l0,110" />
        <path id="right-margin-Ultralight-S" d="M310,56 l0,110" />
        <path id="left-margin-Regular-S" d="M420,56 l0,110" />
        <path id="right-margin-Regular-S" d="M510,56 l0,110" />
        <path id="left-margin-Black-S" d="M620,56 l0,110" />
        <path id="right-margin-Black-S" d="M710,56 l0,110" />
        <path id="Capline-M" d="M18,276 l800,0" />
        <path id="Baseline-M" d="M18,346 l800,0" />
        <path id="Capline-L" d="M18,476 l800,0" />
        <path id="Baseline-L" d="M18,546 l800,0" />
    </g>
    <g id="Symbols">
        <g id="Ultralight-S">
            <path d="M233.786,95.511 L266.093,81.153 L263.907,81.153 L296.214,95.511 C297.573,96.115 299.164,95.503 299.768,94.145 C300.372,92.786 299.76,91.195 298.401,90.591 L266.093,76.232 C265.397,75.923 264.603,75.923 263.907,76.232 L231.599,90.591 C230.24,91.195 229.628,92.786 230.232,94.145 C230.836,95.503 232.427,96.115 233.786,95.511 Z M231.599,95.511 L263.907,109.87 C265.265,110.474 266.856,109.862 267.46,108.503 C268.064,107.145 267.452,105.554 266.093,104.95 L233.786,90.591 C232.427,89.987 230.836,90.599 230.232,91.958 C229.628,93.316 230.24,94.907 231.599,95.511 Z M230,93.051 L230,128.948 C230,130.012 230.627,130.976 231.599,131.408 L263.907,145.767 C265.265,146.371 266.856,145.759 267.46,144.4 C268.064,143.042 267.452,141.451 266.093,140.847 L233.786,126.488 L235.385,128.948 L235.385,93.051 C235.385,91.564 234.18,90.359 232.693,90.359 C231.206,90.359 230,91.564 230,93.051 Z M296.214,90.591 L263.907,104.95 C262.548,105.554 261.936,107.145 262.54,108.503 C263.144,109.862 264.735,110.474 266.093,109.87 L298.401,95.511 C299.76,94.907 300.372,93.316 299.768,91.958 C299.164,90.599 297.573,89.987 296.214,90.591 Z M294.615,93.051 L294.615,128.948 L296.214,126.488 L263.907,140.847 C262.548,141.451 261.936,143.042 262.54,144.4 C263.144,145.759 264.735,146.371 266.093,145.767 L298.401,131.408 C299.373,130.976 300,130.012 300,128.948 L300,93.051 C300,91.564 298.794,90.359 297.307,90.359 C295.82,90.359 294.615,91.564 294.615,93.051 Z M262.308,107.41 L262.308,143.307 C262.308,144.794 263.513,145.999 265,145.999 C266.487,145.999 267.692,144.794 267.692,143.307 L267.692,107.41 C267.692,105.923 266.487,104.718 265,104.718 C263.513,104.718 262.308,105.923 262.308,107.41 Z" />
        </g>
        <g id="Regular-S">
            <path d="M433.786,95.511 L466.093,81.153 L463.907,81.153 L496.214,95.511 C497.573,96.115 499.164,95.503 499.768,94.145 C500.372,92.786 499.76,91.195 498.401,90.591 L466.093,76.232 C465.397,75.923 464.603,75.923 463.907,76.232 L431.599,90.591 C430.24,91.195 429.628,92.786 430.232,94.145 C430.836,95.503 432.427,96.115 433.786,95.511 Z M431.599,95.511 L463.907,109.87 C465.265,110.474 466.856,109.862 467.46,108.503 C468.064,107.145 467.452,105.554 466.093,104.95 L433.786,90.591 C432.427,89.987 430.836,90.599 430.232,91.958 C429.628,93.316 430.24,94.907 431.599,95.511 Z M430,93.051 L430,128.948 C430,130.012 430.627,130.976 431.599,131.408 L463.907,145.767 C465.265,146.371 466.856,145.759 467.46,144.4 C468.064,143.042 467.452,141.451 466.093,140.847 L433.786,126.488 L435.385,128.948 L435.385,93.051 C435.385,91.564 434.18,90.359 432.693,90.359 C431.206,90.359 430,91.564 430,93.051 Z M496.214,90.591 L463.907,104.95 C462.548,105.554 461.936,107.145 462.54,108.503 C463.144,109.862 464.735,110.474 466.093,109.87 L498.401,95.511 C499.76,94.907 500.372,93.316 499.768,91.958 C499.164,90.599 497.573,89.987 496.214,90.591 Z M494.615,93.051 L494.615,128.948 L496.214,126.488 L463.907,140.847 C462.548,141.451 461.936,143.042 462.54,144.4 C463.144,145.759 464.735,146.371 466.093,145.767 L498.401,131.408 C499.373,130.976 500,130.012 500,128.948 L500,93.051 C500,91.564 498.794,90.359 497.307,90.359 C495.82,90.359 494.615,91.564 494.615,93.051 Z M462.308,107.41 L462.308,143.307 C462.308,144.794 463.513,145.999 465,145.999 C466.487,145.999 467.692,144.794 467.692,143.307 L467.692,107.41 C467.692,105.923 466.487,104.718 465,104.718 C463.513,104.718 462.308,105.923 462.308,107.41 Z" />
        </g>
        <g id="Black-S">
            <path d="M633.786,95.511 L666.093,81.153 L663.907,81.153 L696.214,95.511 C697.573,96.115 699.164,95.503 699.768,94.145 C700.371,92.786 699.76,91.195 698.401,90.591 L666.093,76.232 C665.397,75.923 664.603,75.923 663.907,76.232 L631.599,90.591 C630.24,91.195 629.628,92.786 630.232,94.145 C630.836,95.503 632.427,96.115 633.786,95.511 Z M631.599,95.511 L663.907,109.87 C665.265,110.474 666.856,109.862 667.46,108.503 C668.064,107.145 667.452,105.554 666.093,104.95 L633.786,90.591 C632.427,89.987 630.836,90.599 630.232,91.958 C629.628,93.316 630.24,94.907 631.599,95.511 Z M630,93.051 L630,128.948 C630,130.012 630.627,130.976 631.599,131.408 L663.907,145.767 C665.265,146.371 666.856,145.759 667.46,144.4 C668.064,143.042 667.452,141.451 666.093,140.847 L633.786,126.488 L635.385,128.948 L635.385,93.051 C635.385,91.564 634.18,90.359 632.693,90.359 C631.206,90.359 630,91.564 630,93.051 Z M696.214,90.591 L663.907,104.95 C662.548,105.554 661.936,107.145 662.54,108.503 C663.144,109.862 664.735,110.474 666.093,109.87 L698.401,95.511 C699.76,94.907 700.371,93.316 699.768,91.958 C699.164,90.599 697.573,89.987 696.214,90.591 Z M694.615,93.051 L694.615,128.948 L696.214,126.488 L663.907,140.847 C662.548,141.451 661.936,143.042 662.54,144.4 C663.144,145.759 664.735,146.371 666.093,145.767 L698.401,131.408 C699.373,130.976 700,130.012 700,128.948 L700,93.051 C700,91.564 698.794,90.359 697.307,90.359 C695.82,90.359 694.615,91.564 694.615,93.051 Z M662.308,107.41 L662.308,143.307 C662.308,144.794 663.513,145.999 665,145.999 C666.487,145.999 667.692,144.794 667.692,143.307 L667.692,107.41 C667.692,105.923 666.487,104.718 665,104.718 C663.513,104.718 662.308,105.923 662.308,107.41 Z" />
        </g>
    </g>
</svg>