<?xml version="1.0" encoding="UTF-8"?>
<svg height="600" width="800" xmlns="http://www.w3.org/2000/svg" xmlns:xlink="http://www.w3.org/1999/xlink">
    <g id="Notes" font-family="'LucidaGrande', 'Lucida Grande', sans-serif" font-size="13">
        <rect fill="white" height="600.0" width="800.0" x="0.0" y="0.0" />
        <g font-size="13">
            <text x="18.0" y="176.0">Small</text>
            <text x="18.0" y="376.0">Medium</text>
            <text x="18.0" y="576.0">Large</text>
        </g>
        <g font-size="9">
            <text x="250.0" y="30.0">Ultralight</text>
            <text x="450.0" y="30.0">Regular</text>
            <text x="650.0" y="30.0">Black</text>
            <text id="template-version" fill="#505050" text-anchor="end" x="785.0" y="575.0">Template v.3.0</text>
            <a href="https://github.com/swhitty/SwiftDraw">
                <text fill="#505050" text-anchor="end" x="785.0" y="590.0">https://github.com/swhitty/SwiftDraw</text>
            </a>
        </g>
    </g>
    <g id="Guides" stroke="rgb(39, 170, 225)" stroke-width="0.5">
        <path id="Capline-S" d="M18,76 l800,0" />
        <path id="H-reference" d="M85,145.755 L87.685,145.755 L113.369,79.287 L114.052,79.287 L114.052,76 L112.148,76 L85,145.755 Z M95.693,121.536 L130.996,121.536 L130.263,119.313 L96.474,119.313 L95.693,121.536 Z M139.15,145.755 L141.787,145.755 L114.638,76 L113.466,76 L113.466,79.287 L139.15,145.755 Z" stroke="none" />
        <path id="Baseline-S" d="M18,146 l800,0" />
        <path id="left-margin-Ultralight-S" d="M218.367,56 l0,110" />
        <path id="right-margin-Ultralight-S" d="M311.633,56 l0,110" />
        <path id="left-margin-Regular-S" d="M418.367,56 l0,110" />
        <path id="right-margin-Regular-S" d="M511.633,56 l0,110" />
        <path id="left-margin-Black-S" d="M618.367,56 l0,110" />
        <path id="right-margin-Black-S" d="M711.633,56 l0,110" />
        <path id="Capline-M" d="M18,276 l800,0" />
        <path id="Baseline-M" d="M18,346 l800,0" />
        <path id="Capline-L" d="M18,476 l800,0" />
        <path id="Baseline-L" d="M18,546 l800,0" />
    </g>
    <g id="Symbols">
        <g id="Ultralight-S">
            <path d="M230.922,115.189 L236.034,115.189 C237.446,115.189 238.59,114.045 238.59,112.633 C238.59,111.222 237.446,110.078 236.034,110.078 L230.922,110.078 C229.511,110.078 228.367,111.222 228.367,112.633 C228.367,114.045 229.511,115.189 230.922,115.189 Z" />
            <path d="M239.338,90.586 L242.746,93.994 C243.744,94.992 245.363,94.992 246.361,93.994 C247.359,92.996 247.359,91.378 246.361,90.38 L242.953,86.972 C241.955,85.974 240.337,85.974 239.338,86.972 C238.34,87.97 238.34,89.588 239.338,90.586 Z" />
            <path d="M262.444,78.556 L262.444,83.667 C262.444,85.079 263.588,86.223 265,86.223 C266.412,86.223 267.556,85.079 267.556,83.667 L267.556,78.556 C267.556,77.144 266.412,76 265,76 C263.588,76 262.444,77.144 262.444,78.556 Z" />
            <path d="M250.517,112.633 C250.517,104.635 257.002,98.15 265,98.15 C272.998,98.15 279.483,104.635 279.483,112.633 C279.483,117.386 277.18,121.748 273.377,124.45 C272.226,125.267 271.956,126.863 272.773,128.014 C273.591,129.164 275.186,129.434 276.337,128.617 C281.476,124.966 284.595,119.059 284.595,112.633 C284.595,101.812 275.821,93.039 265,93.039 C254.179,93.039 245.405,101.812 245.405,112.633 C245.405,114.045 246.55,115.189 247.961,115.189 C249.373,115.189 250.517,114.045 250.517,112.633 Z" />
            <path d="M287.047,86.972 L283.639,90.38 C282.641,91.378 282.641,92.996 283.639,93.994 C284.637,94.992 286.256,94.992 287.254,93.994 L290.662,90.586 C291.66,89.588 291.66,87.97 290.662,86.972 C289.663,85.974 288.045,85.974 287.047,86.972 Z" />
            <path d="M299.078,110.078 L293.966,110.078 C292.554,110.078 291.41,111.222 291.41,112.633 C291.41,114.045 292.554,115.189 293.966,115.189 L299.078,115.189 C300.489,115.189 301.633,114.045 301.633,112.633 C301.633,111.222 300.489,110.078 299.078,110.078 Z" />
            <path d="M290.63,134.65 L287.87,131.89 C286.871,130.891 285.253,130.891 284.255,131.89 C283.257,132.888 283.257,134.506 284.255,135.504 L287.015,138.264 C288.014,139.262 289.632,139.262 290.63,138.264 C291.628,137.266 291.628,135.648 290.63,134.65 Z" />
            <path d="M264.148,116.893 C260.115,116.893 256.676,117.102 253.636,117.71 C248.602,118.716 245.405,120.726 245.405,124.561 C245.405,129.165 248.989,131.081 254.81,131.803 C255.459,131.884 256.133,131.95 256.903,132.012 C257.2,132.035 257.5,132.058 257.873,132.085 C258.334,132.117 258.602,132.136 258.767,132.148 C259.137,132.175 259.415,132.197 259.666,132.218 C262.885,132.5 266.171,134.64 265.901,135.986 C265.426,138.365 259.405,140.198 249.656,140.714 C245.745,140.921 242.013,140.928 236.718,140.818 C236.69,140.817 234.885,140.778 234.432,140.77 C233.656,140.755 233.093,140.747 232.626,140.747 C231.215,140.747 230.07,141.892 230.07,143.303 C230.07,144.715 231.215,145.859 232.626,145.859 C233.053,145.859 233.587,145.866 234.334,145.88 C234.78,145.889 236.579,145.927 236.612,145.928 C242.023,146.041 245.859,146.033 249.926,145.818 C262.267,145.165 269.733,142.893 270.914,136.989 C271.997,131.576 265.95,127.636 260.11,127.126 C259.83,127.102 259.529,127.078 259.135,127.05 C256.555,126.863 256.432,126.854 255.439,126.73 C251.962,126.299 250.517,125.526 250.517,124.561 C250.517,123.18 256.392,122.005 264.148,122.005 C265.559,122.005 266.704,120.861 266.704,119.449 C266.704,118.037 265.559,116.893 264.148,116.893 Z" />
        </g>
        <g id="Regular-S">
            <path d="M430.922,115.189 L436.034,115.189 C437.446,115.189 438.59,114.045 438.59,112.633 C438.59,111.222 437.446,110.078 436.034,110.078 L430.922,110.078 C429.511,110.078 428.367,111.222 428.367,112.633 C428.367,114.045 429.511,115.189 430.922,115.189 Z" />
            <path d="M439.338,90.586 L442.746,93.994 C443.744,94.992 445.363,94.992 446.361,93.994 C447.359,92.996 447.359,91.378 446.361,90.38 L442.953,86.972 C441.955,85.974 440.337,85.974 439.338,86.972 C438.34,87.97 438.34,89.588 439.338,90.586 Z" />
            <path d="M462.444,78.556 L462.444,83.667 C462.444,85.079 463.588,86.223 465,86.223 C466.412,86.223 467.556,85.079 467.556,83.667 L467.556,78.556 C467.556,77.144 466.412,76 465,76 C463.588,76 462.444,77.144 462.444,78.556 Z" />
            <path d="M450.517,112.633 C450.517,104.635 457.002,98.15 465,98.15 C472.998,98.15 479.483,104.635 479.483,112.633 C479.483,117.386 477.18,121.748 473.377,124.45 C472.226,125.267 471.956,126.863 472.773,128.014 C473.591,129.164 475.186,129.434 476.337,128.617 C481.476,124.966 484.595,119.059 484.595,112.633 C484.595,101.812 475.821,93.039 465,93.039 C454.179,93.039 445.405,101.812 445.405,112.633 C445.405,114.045 446.55,115.189 447.961,115.189 C449.373,115.189 450.517,114.045 450.517,112.633 Z" />
            <path d="M487.047,86.972 L483.639,90.38 C482.641,91.378 482.641,92.996 483.639,93.994 C484.637,94.992 486.256,94.992 487.254,93.994 L490.662,90.586 C491.66,89.588 491.66,87.97 490.662,86.972 C489.663,85.974 488.045,85.974 487.047,86.972 Z" />
            <path d="M499.078,110.078 L493.966,110.078 C492.554,110.078 491.41,111.222 491.41,112.633 C491.41,114.045 492.554,115.189 493.966,115.189 L499.078,115.189 C500.489,115.189 501.633,114.045 501.633,112.633 C501.633,111.222 500.489,110.078 499.078,110.078 Z" />
            <path d="M490.63,134.65 L487.87,131.89 C486.871,130.891 485.253,130.891 484.255,131.89 C483.257,132.888 483.257,134.506 484.255,135.504 L487.015,138.264 C488.014,139.262 489.632,139.262 490.63,138.264 C491.628,137.266 491.628,135.648 490.63,134.65 Z" />
            <path d="M464.148,116.893 C460.115,116.893 456.676,117.102 453.636,117.71 C448.602,118.716 445.405,120.726 445.405,124.561 C445.405,129.165 448.989,131.081 454.81,131.803 C455.459,131.884 456.133,131.95 456.903,132.012 C457.2,132.035 457.5,132.058 457.873,132.085 C458.334,132.117 458.602,132.136 458.767,132.148 C459.137,132.175 459.415,132.197 459.666,132.218 C462.885,132.5 466.171,134.64 465.901,135.986 C465.426,138.365 459.405,140.198 449.656,140.714 C445.745,140.921 442.013,140.928 436.718,140.818 C436.69,140.817 434.885,140.778 434.432,140.77 C433.656,140.755 433.093,140.747 432.626,140.747 C431.215,140.747 430.07,141.892 430.07,143.303 C430.07,144.715 431.215,145.859 432.626,145.859 C433.053,145.859 433.587,145.866 434.334,145.88 C434.78,145.889 436.579,145.927 436.612,145.928 C442.023,146.041 445.859,146.033 449.926,145.818 C462.267,145.165 469.733,142.893 470.914,136.989 C471.997,131.576 465.95,127.636 460.11,127.126 C459.83,127.102 459.529,127.078 459.135,127.05 C456.555,126.863 456.432,126.854 455.439,126.73 C451.962,126.299 450.517,125.526 450.517,124.561 C450.517,123.18 456.392,122.005 464.148,122.005 C465.559,122.005 466.704,120.861 466.704,119.449 C466.704,118.037 465.559,116.893 464.148,116.893 Z" />
        </g>
        <g id="Black-S">
            <path d="M630.922,115.189 L636.034,115.189 C637.445,115.189 638.59,114.045 638.59,112.633 C638.59,111.222 637.445,110.078 636.034,110.078 L630.922,110.078 C629.511,110.078 628.367,111.222 628.367,112.633 C628.367,114.045 629.511,115.189 630.922,115.189 Z" />
            <path d="M639.338,90.586 L642.746,93.994 C643.744,94.992 645.363,94.992 646.361,93.994 C647.359,92.996 647.359,91.378 646.361,90.38 L642.953,86.972 C641.955,85.974 640.336,85.974 639.338,86.972 C638.34,87.97 638.34,89.588 639.338,90.586 Z" />
            <path d="M662.444,78.556 L662.444,83.667 C662.444,85.079 663.588,86.223 665,86.223 C666.411,86.223 667.556,85.079 667.556,83.667 L667.556,78.556 C667.556,77.144 666.411,76 665,76 C663.588,76 662.444,77.144 662.444,78.556 Z" />
            <path d="M650.517,112.633 C650.517,104.635 657.002,98.15 665,98.15 C672.998,98.15 679.483,104.635 679.483,112.633 C679.483,117.386 677.18,121.748 673.377,124.45 C672.226,125.267 671.956,126.863 672.773,128.014 C673.591,129.164 675.186,129.434 676.337,128.617 C681.476,124.966 684.595,119.059 684.595,112.633 C684.595,101.812 675.821,93.039 665,93.039 C654.179,93.039 645.405,101.812 645.405,112.633 C645.405,114.045 646.55,115.189 647.961,115.189 C649.373,115.189 650.517,114.045 650.517,112.633 Z" />
            <path d="M687.047,86.972 L683.639,90.38 C682.641,91.378 682.641,92.996 683.639,93.994 C684.637,94.992 686.256,94.992 687.254,93.994 L690.662,90.586 C691.66,89.588 691.66,87.97 690.662,86.972 C689.663,85.974 688.045,85.974 687.047,86.972 Z" />
            <path d="M699.078,110.078 L693.966,110.078 C692.554,110.078 691.41,111.222 691.41,112.633 C691.41,114.045 692.554,115.189 693.966,115.189 L699.078,115.189 C700.489,115.189 701.633,114.045 701.633,112.633 C701.633,111.222 700.489,110.078 699.078,110.078 Z" />
            <path d="M690.63,134.65 L687.87,131.89 C686.871,130.891 685.253,130.891 684.255,131.89 C683.257,132.888 683.257,134.506 684.255,135.504 L687.015,138.264 C688.013,139.262 689.632,139.262 690.63,138.264 C691.628,137.266 691.628,135.648 690.63,134.65 Z" />
            <path d="M664.148,116.893 C660.115,116.893 656.676,117.102 653.636,117.71 C648.602,118.716 645.405,120.726 645.405,124.561 C645.405,129.165 648.989,131.081 654.81,131.803 C655.459,131.884 656.133,131.95 656.903,132.012 C657.2,132.035 657.5,132.058 657.873,132.085 C658.334,132.117 658.601,132.136 658.767,132.148 C659.137,132.175 659.415,132.197 659.665,132.218 C662.885,132.5 666.171,134.64 665.901,135.986 C665.426,138.365 659.405,140.198 649.656,140.714 C645.745,140.921 642.013,140.928 636.718,140.818 C636.69,140.817 634.885,140.778 634.432,140.77 C633.656,140.755 633.093,140.747 632.626,140.747 C631.215,140.747 630.07,141.892 630.07,143.303 C630.07,144.715 631.215,145.859 632.626,145.859 C633.053,145.859 633.587,145.866 634.334,145.88 C634.78,145.889 636.579,145.927 636.612,145.928 C642.023,146.041 645.859,146.033 649.926,145.818 C662.267,145.165 669.733,142.893 670.914,136.989 C671.997,131.576 665.95,127.636 660.11,127.126 C659.83,127.102 659.529,127.078 659.135,127.05 C656.555,126.863 656.432,126.854 655.439,126.73 C651.962,126.299 650.517,125.526 650.517,124.561 C650.517,123.18 656.392,122.005 664.148,122.005 C665.559,122.005 666.704,120.861 666.704,119.449 C666.704,118.037 665.559,116.893 664.148,116.893 Z" />
        </g>
    </g>
</svg>