<?xml version="1.0" encoding="UTF-8"?>
<svg height="600" width="800" xmlns="http://www.w3.org/2000/svg" xmlns:xlink="http://www.w3.org/1999/xlink">
    <g id="Notes" font-family="'LucidaGrande', 'Lucida Grande', sans-serif" font-size="13">
        <rect fill="white" height="600.0" width="800.0" x="0.0" y="0.0" />
        <g font-size="13">
            <text x="18.0" y="176.0">Small</text>
            <text x="18.0" y="376.0">Medium</text>
            <text x="18.0" y="576.0">Large</text>
        </g>
        <g font-size="9">
            <text x="250.0" y="30.0">Ultralight</text>
            <text x="450.0" y="30.0">Regular</text>
            <text x="650.0" y="30.0">Black</text>
            <text id="template-version" fill="#505050" text-anchor="end" x="785.0" y="575.0">Template v.3.0</text>
            <a href="https://github.com/swhitty/SwiftDraw">
                <text fill="#505050" text-anchor="end" x="785.0" y="590.0">https://github.com/swhitty/SwiftDraw</text>
            </a>
        </g>
    </g>
    <g id="Guides" stroke="rgb(39, 170, 225)" stroke-width="0.5">
        <path id="Capline-S" d="M18,76 l800,0" />
        <path id="H-reference" d="M85,145.755 L87.685,145.755 L113.369,79.287 L114.052,79.287 L114.052,76 L112.148,76 L85,145.755 Z M95.693,121.536 L130.996,121.536 L130.263,119.313 L96.474,119.313 L95.693,121.536 Z M139.15,145.755 L141.787,145.755 L114.638,76 L113.466,76 L113.466,79.287 L139.15,145.755 Z" stroke="none" />
        <path id="Baseline-S" d="M18,146 l800,0" />
        <path id="left-margin-Ultralight-S" d="M217.839,56 l0,110" />
        <path id="right-margin-Ultralight-S" d="M312.161,56 l0,110" />
        <path id="left-margin-Regular-S" d="M417.839,56 l0,110" />
        <path id="right-margin-Regular-S" d="M512.161,56 l0,110" />
        <path id="left-margin-Black-S" d="M617.839,56 l0,110" />
        <path id="right-margin-Black-S" d="M712.161,56 l0,110" />
        <path id="Capline-M" d="M18,276 l800,0" />
        <path id="Baseline-M" d="M18,346 l800,0" />
        <path id="Capline-L" d="M18,476 l800,0" />
        <path id="Baseline-L" d="M18,546 l800,0" />
    </g>
    <g id="Symbols">
        <g id="Ultralight-S">
            <path d="M229.199,131.861 L233.52,134.197 C237.055,136.107 241.093,136.107 244.628,134.197 C246.624,133.118 248.808,133.118 250.804,134.197 C254.339,136.107 258.377,136.107 261.912,134.197 C263.908,133.118 266.092,133.118 268.088,134.197 C271.623,136.107 275.661,136.107 279.196,134.197 C281.192,133.118 283.376,133.118 285.372,134.197 C288.907,136.107 292.945,136.107 296.48,134.197 L300.801,131.861 C302.06,131.18 302.529,129.607 301.849,128.347 C301.168,127.088 299.595,126.619 298.335,127.3 L294.014,129.635 C292.018,130.714 289.834,130.714 287.838,129.635 C284.303,127.725 280.265,127.725 276.73,129.635 C274.734,130.714 272.55,130.714 270.554,129.635 C267.019,127.725 262.981,127.725 259.446,129.635 C257.45,130.714 255.266,130.714 253.27,129.635 C249.735,127.725 245.697,127.725 242.162,129.635 C240.166,130.714 237.982,130.714 235.986,129.635 L231.665,127.3 C230.405,126.619 228.832,127.088 228.151,128.347 C227.471,129.607 227.94,131.18 229.199,131.861 Z" />
            <path d="M229.199,142.231 L233.52,144.567 C237.055,146.478 241.093,146.478 244.628,144.567 C246.624,143.488 248.808,143.488 250.804,144.567 C254.339,146.478 258.377,146.478 261.912,144.567 C263.908,143.488 266.092,143.488 268.088,144.567 C271.623,146.478 275.661,146.478 279.196,144.567 C281.192,143.488 283.376,143.488 285.372,144.567 C288.907,146.478 292.945,146.478 296.48,144.567 L300.801,142.231 C302.06,141.55 302.529,139.977 301.849,138.718 C301.168,137.458 299.595,136.989 298.335,137.67 L294.014,140.006 C292.018,141.085 289.834,141.085 287.838,140.006 C284.303,138.095 280.265,138.095 276.73,140.006 C274.734,141.085 272.55,141.085 270.554,140.006 C267.019,138.095 262.981,138.095 259.446,140.006 C257.45,141.085 255.266,141.085 253.27,140.006 C249.735,138.095 245.697,138.095 242.162,140.006 C240.166,141.085 237.982,141.085 235.986,140.006 L231.665,137.67 C230.405,136.989 228.832,137.458 228.151,138.718 C227.471,139.977 227.94,141.55 229.199,142.231 Z" />
            <path d="M266.728,102.79 C272.933,102.79 277.963,97.76 277.963,91.556 C277.963,85.351 272.933,80.321 266.728,80.321 C260.524,80.321 255.494,85.351 255.494,91.556 C255.494,97.76 260.524,102.79 266.728,102.79 Z M266.728,97.605 C263.387,97.605 260.679,94.896 260.679,91.556 C260.679,88.215 263.387,85.506 266.728,85.506 C270.069,85.506 272.778,88.215 272.778,91.556 C272.778,94.896 270.069,97.605 266.728,97.605 Z" />
            <path d="M269.244,118.581 L267.515,111.668 C267.168,110.278 265.76,109.434 264.371,109.781 C262.982,110.128 262.138,111.536 262.485,112.925 L264.213,119.839 C264.56,121.228 265.968,122.072 267.357,121.725 C268.746,121.378 269.591,119.97 269.244,118.581 Z" />
            <path d="M228.245,89.491 L240.344,108.503 C240.711,109.081 241.293,109.49 241.961,109.64 L264.43,114.704 C264.617,114.747 264.808,114.768 265,114.768 L296.111,114.768 C297.543,114.768 298.704,113.607 298.704,112.175 C298.704,110.743 297.543,109.583 296.111,109.583 L265,109.583 L265.57,109.646 L243.101,104.582 L244.718,105.719 L232.619,86.707 C231.851,85.499 230.248,85.143 229.04,85.911 C227.832,86.68 227.476,88.283 228.245,89.491 Z" />
            <path d="M242.531,86.37 C245.395,86.37 247.716,84.049 247.716,81.185 C247.716,78.321 245.395,76 242.531,76 C239.667,76 237.346,78.321 237.346,81.185 C237.346,84.049 239.667,86.37 242.531,86.37 Z" />
        </g>
        <g id="Regular-S">
            <path d="M429.199,131.861 L433.52,134.197 C437.055,136.107 441.093,136.107 444.628,134.197 C446.624,133.118 448.808,133.118 450.804,134.197 C454.339,136.107 458.377,136.107 461.912,134.197 C463.908,133.118 466.092,133.118 468.088,134.197 C471.623,136.107 475.661,136.107 479.196,134.197 C481.192,133.118 483.376,133.118 485.372,134.197 C488.907,136.107 492.945,136.107 496.48,134.197 L500.801,131.861 C502.06,131.18 502.53,129.607 501.849,128.347 C501.168,127.088 499.595,126.619 498.335,127.3 L494.014,129.635 C492.018,130.714 489.834,130.714 487.838,129.635 C484.303,127.725 480.265,127.725 476.73,129.635 C474.734,130.714 472.55,130.714 470.554,129.635 C467.019,127.725 462.981,127.725 459.446,129.635 C457.45,130.714 455.266,130.714 453.27,129.635 C449.735,127.725 445.697,127.725 442.162,129.635 C440.166,130.714 437.982,130.714 435.986,129.635 L431.665,127.3 C430.405,126.619 428.832,127.088 428.151,128.347 C427.471,129.607 427.94,131.18 429.199,131.861 Z" />
            <path d="M429.199,142.231 L433.52,144.567 C437.055,146.478 441.093,146.478 444.628,144.567 C446.624,143.488 448.808,143.488 450.804,144.567 C454.339,146.478 458.377,146.478 461.912,144.567 C463.908,143.488 466.092,143.488 468.088,144.567 C471.623,146.478 475.661,146.478 479.196,144.567 C481.192,143.488 483.376,143.488 485.372,144.567 C488.907,146.478 492.945,146.478 496.48,144.567 L500.801,142.231 C502.06,141.55 502.53,139.977 501.849,138.718 C501.168,137.458 499.595,136.989 498.335,137.67 L494.014,140.006 C492.018,141.085 489.834,141.085 487.838,140.006 C484.303,138.095 480.265,138.095 476.73,140.006 C474.734,141.085 472.55,141.085 470.554,140.006 C467.019,138.095 462.981,138.095 459.446,140.006 C457.45,141.085 455.266,141.085 453.27,140.006 C449.735,138.095 445.697,138.095 442.162,140.006 C440.166,141.085 437.982,141.085 435.986,140.006 L431.665,137.67 C430.405,136.989 428.832,137.458 428.151,138.718 C427.471,139.977 427.94,141.55 429.199,142.231 Z" />
            <path d="M466.728,102.79 C472.933,102.79 477.963,97.76 477.963,91.556 C477.963,85.351 472.933,80.321 466.728,80.321 C460.524,80.321 455.494,85.351 455.494,91.556 C455.494,97.76 460.524,102.79 466.728,102.79 Z M466.728,97.605 C463.387,97.605 460.679,94.896 460.679,91.556 C460.679,88.215 463.387,85.506 466.728,85.506 C470.069,85.506 472.778,88.215 472.778,91.556 C472.778,94.896 470.069,97.605 466.728,97.605 Z" />
            <path d="M469.244,118.581 L467.515,111.668 C467.168,110.278 465.76,109.434 464.371,109.781 C462.982,110.128 462.138,111.536 462.485,112.925 L464.213,119.839 C464.56,121.228 465.968,122.072 467.357,121.725 C468.746,121.378 469.591,119.97 469.244,118.581 Z" />
            <path d="M428.245,89.491 L440.344,108.503 C440.711,109.081 441.293,109.49 441.961,109.64 L464.43,114.704 C464.617,114.747 464.808,114.768 465,114.768 L496.111,114.768 C497.543,114.768 498.704,113.607 498.704,112.175 C498.704,110.743 497.543,109.583 496.111,109.583 L465,109.583 L465.57,109.646 L443.101,104.582 L444.718,105.719 L432.619,86.707 C431.851,85.499 430.248,85.143 429.04,85.911 C427.832,86.68 427.476,88.283 428.245,89.491 Z" />
            <path d="M442.531,86.37 C445.395,86.37 447.716,84.049 447.716,81.185 C447.716,78.321 445.395,76 442.531,76 C439.667,76 437.346,78.321 437.346,81.185 C437.346,84.049 439.667,86.37 442.531,86.37 Z" />
        </g>
        <g id="Black-S">
            <path d="M629.199,131.861 L633.52,134.197 C637.055,136.107 641.093,136.107 644.628,134.197 C646.624,133.118 648.808,133.118 650.804,134.197 C654.339,136.107 658.377,136.107 661.912,134.197 C663.908,133.118 666.092,133.118 668.088,134.197 C671.623,136.107 675.661,136.107 679.196,134.197 C681.192,133.118 683.376,133.118 685.372,134.197 C688.907,136.107 692.945,136.107 696.48,134.197 L700.801,131.861 C702.06,131.18 702.529,129.607 701.849,128.347 C701.168,127.088 699.595,126.619 698.335,127.3 L694.014,129.635 C692.018,130.714 689.834,130.714 687.838,129.635 C684.303,127.725 680.265,127.725 676.73,129.635 C674.734,130.714 672.55,130.714 670.554,129.635 C667.019,127.725 662.981,127.725 659.446,129.635 C657.45,130.714 655.266,130.714 653.27,129.635 C649.735,127.725 645.697,127.725 642.162,129.635 C640.166,130.714 637.982,130.714 635.986,129.635 L631.665,127.3 C630.405,126.619 628.832,127.088 628.151,128.347 C627.47,129.607 627.94,131.18 629.199,131.861 Z" />
            <path d="M629.199,142.231 L633.52,144.567 C637.055,146.478 641.093,146.478 644.628,144.567 C646.624,143.488 648.808,143.488 650.804,144.567 C654.339,146.478 658.377,146.478 661.912,144.567 C663.908,143.488 666.092,143.488 668.088,144.567 C671.623,146.478 675.661,146.478 679.196,144.567 C681.192,143.488 683.376,143.488 685.372,144.567 C688.907,146.478 692.945,146.478 696.48,144.567 L700.801,142.231 C702.06,141.55 702.529,139.977 701.849,138.718 C701.168,137.458 699.595,136.989 698.335,137.67 L694.014,140.006 C692.018,141.085 689.834,141.085 687.838,140.006 C684.303,138.095 680.265,138.095 676.73,140.006 C674.734,141.085 672.55,141.085 670.554,140.006 C667.019,138.095 662.981,138.095 659.446,140.006 C657.45,141.085 655.266,141.085 653.27,140.006 C649.735,138.095 645.697,138.095 642.162,140.006 C640.166,141.085 637.982,141.085 635.986,140.006 L631.665,137.67 C630.405,136.989 628.832,137.458 628.151,138.718 C627.47,139.977 627.94,141.55 629.199,142.231 Z" />
            <path d="M666.728,102.79 C672.933,102.79 677.963,97.76 677.963,91.556 C677.963,85.351 672.933,80.321 666.728,80.321 C660.524,80.321 655.494,85.351 655.494,91.556 C655.494,97.76 660.524,102.79 666.728,102.79 Z M666.728,97.605 C663.387,97.605 660.679,94.896 660.679,91.556 C660.679,88.215 663.387,85.506 666.728,85.506 C670.069,85.506 672.778,88.215 672.778,91.556 C672.778,94.896 670.069,97.605 666.728,97.605 Z" />
            <path d="M669.244,118.581 L667.515,111.668 C667.168,110.278 665.76,109.434 664.371,109.781 C662.982,110.128 662.138,111.536 662.485,112.925 L664.213,119.839 C664.56,121.228 665.968,122.072 667.357,121.725 C668.746,121.378 669.591,119.97 669.244,118.581 Z" />
            <path d="M628.245,89.491 L640.344,108.503 C640.711,109.081 641.293,109.49 641.961,109.64 L664.43,114.704 C664.617,114.747 664.808,114.768 665,114.768 L696.111,114.768 C697.543,114.768 698.704,113.607 698.704,112.175 C698.704,110.743 697.543,109.583 696.111,109.583 L665,109.583 L665.57,109.646 L643.101,104.582 L644.718,105.719 L632.619,86.707 C631.851,85.499 630.248,85.143 629.04,85.911 C627.832,86.68 627.476,88.283 628.245,89.491 Z" />
            <path d="M642.531,86.37 C645.395,86.37 647.716,84.049 647.716,81.185 C647.716,78.321 645.395,76 642.531,76 C639.667,76 637.346,78.321 637.346,81.185 C637.346,84.049 639.667,86.37 642.531,86.37 Z" />
        </g>
    </g>
</svg>