<?xml version="1.0" encoding="UTF-8"?>
<svg height="600" width="800" xmlns="http://www.w3.org/2000/svg" xmlns:xlink="http://www.w3.org/1999/xlink">
    <g id="Notes" font-family="'LucidaGrande', 'Lucida Grande', sans-serif" font-size="13">
        <rect fill="white" height="600.0" width="800.0" x="0.0" y="0.0" />
        <g font-size="13">
            <text x="18.0" y="176.0">Small</text>
            <text x="18.0" y="376.0">Medium</text>
            <text x="18.0" y="576.0">Large</text>
        </g>
        <g font-size="9">
            <text x="250.0" y="30.0">Ultralight</text>
            <text x="450.0" y="30.0">Regular</text>
            <text x="650.0" y="30.0">Black</text>
            <text id="template-version" fill="#505050" text-anchor="end" x="785.0" y="575.0">Template v.3.0</text>
            <a href="https://github.com/swhitty/SwiftDraw">
                <text fill="#505050" text-anchor="end" x="785.0" y="590.0">https://github.com/swhitty/SwiftDraw</text>
            </a>
        </g>
    </g>
    <g id="Guides" stroke="rgb(39, 170, 225)" stroke-width="0.5">
        <path id="Capline-S" d="M18,76 l800,0" />
        <path id="H-reference" d="M85,145.755 L87.685,145.755 L113.369,79.287 L114.052,79.287 L114.052,76 L112.148,76 L85,145.755 Z M95.693,121.536 L130.996,121.536 L130.263,119.313 L96.474,119.313 L95.693,121.536 Z M139.15,145.755 L141.787,145.755 L114.638,76 L113.466,76 L113.466,79.287 L139.15,145.755 Z" stroke="none" />
        <path id="Baseline-S" d="M18,146 l800,0" />
        <path id="left-margin-Ultralight-S" d="M213.194,56 l0,110" />
        <path id="right-margin-Ultralight-S" d="M316.806,56 l0,110" />
        <path id="left-margin-Regular-S" d="M413.194,56 l0,110" />
        <path id="right-margin-Regular-S" d="M516.806,56 l0,110" />
        <path id="left-margin-Black-S" d="M613.194,56 l0,110" />
        <path id="right-margin-Black-S" d="M716.806,56 l0,110" />
        <path id="Capline-M" d="M18,276 l800,0" />
        <path id="Baseline-M" d="M18,346 l800,0" />
        <path id="Capline-L" d="M18,476 l800,0" />
        <path id="Baseline-L" d="M18,546 l800,0" />
    </g>
    <g id="Symbols">
        <g id="Ultralight-S">
            <path d="M266.944,138.222 L231.944,138.222 C230.334,138.222 229.028,136.916 229.028,135.306 L229.028,84.75 C229.028,83.139 230.334,81.833 231.944,81.833 L298.056,81.833 C299.666,81.833 300.972,83.139 300.972,84.75 L300.972,108.198 C300.972,109.808 302.278,111.114 303.889,111.114 C305.5,111.114 306.806,109.808 306.806,108.198 L306.806,84.75 C306.806,79.917 302.888,76 298.056,76 L231.944,76 C227.112,76 223.194,79.918 223.194,84.75 L223.194,135.306 C223.194,140.138 227.112,144.056 231.944,144.056 L266.944,144.056 C268.555,144.056 269.861,142.75 269.861,141.139 C269.861,139.528 268.555,138.222 266.944,138.222 Z" />
            <path d="M283.472,131.417 C283.472,126.584 287.39,122.667 292.222,122.667 C297.055,122.667 300.972,126.584 300.972,131.417 C300.972,136.249 297.055,140.167 292.222,140.167 C287.39,140.167 283.472,136.249 283.472,131.417 Z M277.639,131.417 C277.639,139.471 284.168,146 292.222,146 C300.276,146 306.806,139.471 306.806,131.417 C306.806,123.363 300.276,116.833 292.222,116.833 C284.168,116.833 277.639,123.363 277.639,131.417 Z" />
            <path d="M282.382,125.701 L297.938,141.257 C299.077,142.396 300.923,142.396 302.062,141.257 C303.201,140.118 303.201,138.271 302.062,137.132 L286.507,121.576 C285.368,120.437 283.521,120.437 282.382,121.576 C281.243,122.716 281.243,124.562 282.382,125.701 Z" />
            <path d="M229.028,84.75 C229.028,83.139 230.334,81.833 231.944,81.833 L298.056,81.833 C299.666,81.833 300.972,83.139 300.972,84.75 L300.972,102.25 L303.889,99.333 L226.111,99.333 L229.028,102.25 L229.028,84.75 Z M223.194,84.75 L223.194,102.25 L223.194,105.167 L226.111,105.167 L303.889,105.167 L306.806,105.167 L306.806,102.25 L306.806,84.75 C306.806,79.917 302.888,76 298.056,76 L231.944,76 C227.112,76 223.194,79.918 223.194,84.75 Z" />
            <path d="M237.778,94.472 C239.926,94.472 241.667,92.731 241.667,90.583 C241.667,88.436 239.926,86.694 237.778,86.694 C235.63,86.694 233.889,88.436 233.889,90.583 C233.889,92.731 235.63,94.472 237.778,94.472 Z" />
            <path d="M249.444,94.472 C251.592,94.472 253.333,92.731 253.333,90.583 C253.333,88.436 251.592,86.694 249.444,86.694 C247.297,86.694 245.556,88.436 245.556,90.583 C245.556,92.731 247.297,94.472 249.444,94.472 Z" />
        </g>
        <g id="Regular-S">
            <path d="M466.944,138.222 L431.944,138.222 C430.334,138.222 429.028,136.916 429.028,135.306 L429.028,84.75 C429.028,83.139 430.334,81.833 431.944,81.833 L498.056,81.833 C499.666,81.833 500.972,83.139 500.972,84.75 L500.972,108.198 C500.972,109.808 502.278,111.114 503.889,111.114 C505.5,111.114 506.806,109.808 506.806,108.198 L506.806,84.75 C506.806,79.917 502.888,76 498.056,76 L431.944,76 C427.112,76 423.194,79.918 423.194,84.75 L423.194,135.306 C423.194,140.138 427.112,144.056 431.944,144.056 L466.944,144.056 C468.555,144.056 469.861,142.75 469.861,141.139 C469.861,139.528 468.555,138.222 466.944,138.222 Z" />
            <path d="M483.472,131.417 C483.472,126.584 487.39,122.667 492.222,122.667 C497.055,122.667 500.972,126.584 500.972,131.417 C500.972,136.249 497.055,140.167 492.222,140.167 C487.39,140.167 483.472,136.249 483.472,131.417 Z M477.639,131.417 C477.639,139.471 484.168,146 492.222,146 C500.276,146 506.806,139.471 506.806,131.417 C506.806,123.363 500.276,116.833 492.222,116.833 C484.168,116.833 477.639,123.363 477.639,131.417 Z" />
            <path d="M482.382,125.701 L497.938,141.257 C499.077,142.396 500.923,142.396 502.062,141.257 C503.201,140.118 503.201,138.271 502.062,137.132 L486.507,121.576 C485.368,120.437 483.521,120.437 482.382,121.576 C481.243,122.716 481.243,124.562 482.382,125.701 Z" />
            <path d="M429.028,84.75 C429.028,83.139 430.334,81.833 431.944,81.833 L498.056,81.833 C499.666,81.833 500.972,83.139 500.972,84.75 L500.972,102.25 L503.889,99.333 L426.111,99.333 L429.028,102.25 L429.028,84.75 Z M423.194,84.75 L423.194,102.25 L423.194,105.167 L426.111,105.167 L503.889,105.167 L506.806,105.167 L506.806,102.25 L506.806,84.75 C506.806,79.917 502.888,76 498.056,76 L431.944,76 C427.112,76 423.194,79.918 423.194,84.75 Z" />
            <path d="M437.778,94.472 C439.926,94.472 441.667,92.731 441.667,90.583 C441.667,88.436 439.926,86.694 437.778,86.694 C435.63,86.694 433.889,88.436 433.889,90.583 C433.889,92.731 435.63,94.472 437.778,94.472 Z" />
            <path d="M449.444,94.472 C451.592,94.472 453.333,92.731 453.333,90.583 C453.333,88.436 451.592,86.694 449.444,86.694 C447.297,86.694 445.556,88.436 445.556,90.583 C445.556,92.731 447.297,94.472 449.444,94.472 Z" />
        </g>
        <g id="Black-S">
            <path d="M666.944,138.222 L631.944,138.222 C630.334,138.222 629.028,136.916 629.028,135.306 L629.028,84.75 C629.028,83.139 630.334,81.833 631.944,81.833 L698.056,81.833 C699.666,81.833 700.972,83.139 700.972,84.75 L700.972,108.198 C700.972,109.808 702.278,111.114 703.889,111.114 C705.5,111.114 706.806,109.808 706.806,108.198 L706.806,84.75 C706.806,79.917 702.888,76 698.056,76 L631.944,76 C627.112,76 623.194,79.918 623.194,84.75 L623.194,135.306 C623.194,140.138 627.112,144.056 631.944,144.056 L666.944,144.056 C668.555,144.056 669.861,142.75 669.861,141.139 C669.861,139.528 668.555,138.222 666.944,138.222 Z" />
            <path d="M683.472,131.417 C683.472,126.584 687.39,122.667 692.222,122.667 C697.055,122.667 700.972,126.584 700.972,131.417 C700.972,136.249 697.055,140.167 692.222,140.167 C687.39,140.167 683.472,136.249 683.472,131.417 Z M677.639,131.417 C677.639,139.471 684.168,146 692.222,146 C700.276,146 706.806,139.471 706.806,131.417 C706.806,123.363 700.276,116.833 692.222,116.833 C684.168,116.833 677.639,123.363 677.639,131.417 Z" />
            <path d="M682.382,125.701 L697.938,141.257 C699.077,142.396 700.923,142.396 702.062,141.257 C703.201,140.118 703.201,138.271 702.062,137.132 L686.507,121.576 C685.368,120.437 683.521,120.437 682.382,121.576 C681.243,122.716 681.243,124.562 682.382,125.701 Z" />
            <path d="M629.028,84.75 C629.028,83.139 630.334,81.833 631.944,81.833 L698.056,81.833 C699.666,81.833 700.972,83.139 700.972,84.75 L700.972,102.25 L703.889,99.333 L626.111,99.333 L629.028,102.25 L629.028,84.75 Z M623.194,84.75 L623.194,102.25 L623.194,105.167 L626.111,105.167 L703.889,105.167 L706.806,105.167 L706.806,102.25 L706.806,84.75 C706.806,79.917 702.888,76 698.056,76 L631.944,76 C627.112,76 623.194,79.918 623.194,84.75 Z" />
            <path d="M637.778,94.472 C639.926,94.472 641.667,92.731 641.667,90.583 C641.667,88.436 639.926,86.694 637.778,86.694 C635.63,86.694 633.889,88.436 633.889,90.583 C633.889,92.731 635.63,94.472 637.778,94.472 Z" />
            <path d="M649.444,94.472 C651.592,94.472 653.333,92.731 653.333,90.583 C653.333,88.436 651.592,86.694 649.444,86.694 C647.297,86.694 645.556,88.436 645.556,90.583 C645.556,92.731 647.297,94.472 649.444,94.472 Z" />
        </g>
    </g>
</svg>