<?xml version="1.0" encoding="UTF-8"?>
<svg height="600" width="800" xmlns="http://www.w3.org/2000/svg" xmlns:xlink="http://www.w3.org/1999/xlink">
    <g id="Notes" font-family="'LucidaGrande', 'Lucida Grande', sans-serif" font-size="13">
        <rect fill="white" height="600.0" width="800.0" x="0.0" y="0.0" />
        <g font-size="13">
            <text x="18.0" y="176.0">Small</text>
            <text x="18.0" y="376.0">Medium</text>
            <text x="18.0" y="576.0">Large</text>
        </g>
        <g font-size="9">
            <text x="250.0" y="30.0">Ultralight</text>
            <text x="450.0" y="30.0">Regular</text>
            <text x="650.0" y="30.0">Black</text>
            <text id="template-version" fill="#505050" text-anchor="end" x="785.0" y="575.0">Template v.3.0</text>
            <a href="https://github.com/swhitty/SwiftDraw">
                <text fill="#505050" text-anchor="end" x="785.0" y="590.0">https://github.com/swhitty/SwiftDraw</text>
            </a>
        </g>
    </g>
    <g id="Guides" stroke="rgb(39, 170, 225)" stroke-width="0.5">
        <path id="Capline-S" d="M18,76 l800,0" />
        <path id="H-reference" d="M85,145.755 L87.685,145.755 L113.369,79.287 L114.052,79.287 L114.052,76 L112.148,76 L85,145.755 Z M95.693,121.536 L130.996,121.536 L130.263,119.313 L96.474,119.313 L95.693,121.536 Z M139.15,145.755 L141.787,145.755 L114.638,76 L113.466,76 L113.466,79.287 L139.15,145.755 Z" stroke="none" />
        <path id="Baseline-S" d="M18,146 l800,0" />
        <path id="left-margin-Ultralight-S" d="M213.652,56 l0,110" />
        <path id="right-margin-Ultralight-S" d="M316.348,56 l0,110" />
        <path id="left-margin-Regular-S" d="M413.652,56 l0,110" />
        <path id="right-margin-Regular-S" d="M516.348,56 l0,110" />
        <path id="left-margin-Black-S" d="M613.652,56 l0,110" />
        <path id="right-margin-Black-S" d="M716.348,56 l0,110" />
        <path id="Capline-M" d="M18,276 l800,0" />
        <path id="Baseline-M" d="M18,346 l800,0" />
        <path id="Capline-L" d="M18,476 l800,0" />
        <path id="Baseline-L" d="M18,546 l800,0" />
    </g>
    <g id="Symbols">
        <g id="Ultralight-S">
            <path d="M297.739,132.838 C304.969,127.754 308.07,118.569 305.4,110.143 C302.801,101.94 294.917,96.945 285.765,96.952 L281.376,96.952 L284.125,99.084 C280.962,86.758 270.527,77.659 257.886,76.203 C245.244,74.747 233.013,81.236 227.131,92.52 C221.249,103.804 222.934,117.547 231.367,127.076 C232.405,128.25 234.199,128.359 235.372,127.321 C236.546,126.282 236.656,124.489 235.617,123.315 C228.742,115.546 227.369,104.343 232.164,95.143 C236.96,85.944 246.93,80.654 257.236,81.841 C267.542,83.028 276.049,90.446 278.628,100.495 C278.95,101.75 280.081,102.627 281.376,102.627 L285.767,102.627 C292.584,102.622 298.189,106.174 299.989,111.857 C301.911,117.923 299.679,124.535 294.474,128.195 C293.192,129.097 292.884,130.867 293.785,132.149 C294.687,133.431 296.457,133.74 297.739,132.838 Z" />
            <path d="M267.711,143.16 L267.695,109.107 C267.694,107.539 266.423,106.269 264.856,106.27 C263.288,106.271 262.018,107.542 262.019,109.109 L262.035,143.163 C262.036,144.73 263.307,146 264.874,146 C266.441,145.999 267.711,144.728 267.711,143.16 Z" />
            <path d="M274.89,129.116 L262.85,141.156 L266.863,141.156 L254.823,129.116 C253.715,128.007 251.918,128.007 250.81,129.116 C249.702,130.224 249.702,132.021 250.81,133.129 L262.85,145.169 C263.958,146.277 265.755,146.277 266.863,145.169 L278.903,133.129 C280.011,132.021 280.011,130.224 278.903,129.116 C277.795,128.007 275.998,128.007 274.89,129.116 Z" />
        </g>
        <g id="Regular-S">
            <path d="M497.739,132.838 C504.969,127.754 508.07,118.569 505.4,110.143 C502.801,101.94 494.917,96.945 485.765,96.952 L481.376,96.952 L484.125,99.084 C480.962,86.758 470.527,77.659 457.886,76.203 C445.244,74.747 433.013,81.236 427.131,92.52 C421.249,103.804 422.934,117.547 431.367,127.076 C432.405,128.25 434.199,128.359 435.372,127.321 C436.546,126.282 436.656,124.489 435.617,123.315 C428.742,115.546 427.369,104.343 432.164,95.143 C436.96,85.944 446.93,80.654 457.236,81.841 C467.542,83.028 476.049,90.446 478.628,100.495 C478.95,101.75 480.081,102.627 481.376,102.627 L485.767,102.627 C492.584,102.622 498.189,106.174 499.989,111.857 C501.911,117.923 499.679,124.535 494.474,128.195 C493.192,129.097 492.884,130.867 493.785,132.149 C494.687,133.431 496.457,133.74 497.739,132.838 Z" />
            <path d="M467.711,143.16 L467.695,109.107 C467.694,107.539 466.423,106.269 464.856,106.27 C463.288,106.271 462.018,107.542 462.019,109.109 L462.035,143.163 C462.036,144.73 463.307,146 464.874,146 C466.441,145.999 467.711,144.728 467.711,143.16 Z" />
            <path d="M474.89,129.116 L462.85,141.156 L466.863,141.156 L454.823,129.116 C453.715,128.007 451.918,128.007 450.81,129.116 C449.702,130.224 449.702,132.021 450.81,133.129 L462.85,145.169 C463.958,146.277 465.755,146.277 466.863,145.169 L478.903,133.129 C480.011,132.021 480.011,130.224 478.903,129.116 C477.795,128.007 475.998,128.007 474.89,129.116 Z" />
        </g>
        <g id="Black-S">
            <path d="M697.739,132.838 C704.969,127.754 708.07,118.569 705.4,110.143 C702.801,101.94 694.917,96.945 685.765,96.952 L681.376,96.952 L684.125,99.084 C680.962,86.758 670.527,77.659 657.886,76.203 C645.244,74.747 633.013,81.236 627.131,92.52 C621.249,103.804 622.934,117.547 631.367,127.076 C632.405,128.25 634.199,128.359 635.372,127.321 C636.546,126.282 636.656,124.489 635.617,123.315 C628.742,115.546 627.369,104.343 632.164,95.143 C636.96,85.944 646.93,80.654 657.236,81.841 C667.542,83.028 676.049,90.446 678.628,100.495 C678.95,101.75 680.081,102.627 681.376,102.627 L685.767,102.627 C692.584,102.622 698.189,106.174 699.989,111.857 C701.911,117.923 699.68,124.535 694.474,128.195 C693.192,129.097 692.884,130.867 693.785,132.149 C694.687,133.431 696.457,133.74 697.739,132.838 Z" />
            <path d="M667.711,143.16 L667.695,109.107 C667.694,107.539 666.423,106.269 664.856,106.27 C663.288,106.271 662.018,107.542 662.019,109.109 L662.035,143.163 C662.036,144.73 663.307,146 664.874,146 C666.441,145.999 667.711,144.728 667.711,143.16 Z" />
            <path d="M674.89,129.116 L662.85,141.156 L666.863,141.156 L654.823,129.116 C653.715,128.007 651.918,128.007 650.81,129.116 C649.702,130.224 649.702,132.021 650.81,133.129 L662.85,145.169 C663.958,146.277 665.755,146.277 666.863,145.169 L678.903,133.129 C680.011,132.021 680.011,130.224 678.903,129.116 C677.795,128.007 675.998,128.007 674.89,129.116 Z" />
        </g>
    </g>
</svg>