<?xml version="1.0" encoding="UTF-8"?>
<svg height="600" width="800" xmlns="http://www.w3.org/2000/svg" xmlns:xlink="http://www.w3.org/1999/xlink">
    <g id="Notes" font-family="'LucidaGrande', 'Lucida Grande', sans-serif" font-size="13">
        <rect fill="white" height="600.0" width="800.0" x="0.0" y="0.0" />
        <g font-size="13">
            <text x="18.0" y="176.0">Small</text>
            <text x="18.0" y="376.0">Medium</text>
            <text x="18.0" y="576.0">Large</text>
        </g>
        <g font-size="9">
            <text x="250.0" y="30.0">Ultralight</text>
            <text x="450.0" y="30.0">Regular</text>
            <text x="650.0" y="30.0">Black</text>
            <text id="template-version" fill="#505050" text-anchor="end" x="785.0" y="575.0">Template v.3.0</text>
            <a href="https://github.com/swhitty/SwiftDraw">
                <text fill="#505050" text-anchor="end" x="785.0" y="590.0">https://github.com/swhitty/SwiftDraw</text>
            </a>
        </g>
    </g>
    <g id="Guides" stroke="rgb(39, 170, 225)" stroke-width="0.5">
        <path id="Capline-S" d="M18,76 l800,0" />
        <path id="H-reference" d="M85,145.755 L87.685,145.755 L113.369,79.287 L114.052,79.287 L114.052,76 L112.148,76 L85,145.755 Z M95.693,121.536 L130.996,121.536 L130.263,119.313 L96.474,119.313 L95.693,121.536 Z M139.15,145.755 L141.787,145.755 L114.638,76 L113.466,76 L113.466,79.287 L139.15,145.755 Z" stroke="none" />
        <path id="Baseline-S" d="M18,146 l800,0" />
        <path id="left-margin-Ultralight-S" d="M220.009,56 l0,110" />
        <path id="right-margin-Ultralight-S" d="M309.991,56 l0,110" />
        <path id="left-margin-Regular-S" d="M420.009,56 l0,110" />
        <path id="right-margin-Regular-S" d="M509.991,56 l0,110" />
        <path id="left-margin-Black-S" d="M620.009,56 l0,110" />
        <path id="right-margin-Black-S" d="M709.991,56 l0,110" />
        <path id="Capline-M" d="M18,276 l800,0" />
        <path id="Baseline-M" d="M18,346 l800,0" />
        <path id="Capline-L" d="M18,476 l800,0" />
        <path id="Baseline-L" d="M18,546 l800,0" />
    </g>
    <g id="Symbols">
        <g id="Ultralight-S">
            <path d="M299.991,110.991 C299.991,91.666 284.325,76 265,76 C245.675,76 230.009,91.666 230.009,110.991 C230.009,112.339 231.102,113.432 232.45,113.432 L297.55,113.432 C298.898,113.432 299.991,112.339 299.991,110.991 Z M295.108,110.991 L297.55,108.55 L232.45,108.55 L234.892,110.991 C234.892,94.362 248.372,80.882 265,80.882 C281.628,80.882 295.108,94.362 295.108,110.991 Z" />
            <path d="M262.559,110.991 L262.559,134.677 C262.559,140.923 267.69,146 273.951,146 C280.212,146 285.344,140.923 285.344,134.677 C285.344,133.328 284.251,132.235 282.902,132.235 C281.554,132.235 280.461,133.328 280.461,134.677 C280.461,138.215 277.527,141.118 273.951,141.118 C270.375,141.118 267.441,138.215 267.441,134.677 L267.441,110.991 C267.441,109.643 266.348,108.55 265,108.55 C263.652,108.55 262.559,109.643 262.559,110.991 Z" />
        </g>
        <g id="Regular-S">
            <path d="M499.991,110.991 C499.991,91.666 484.325,76 465,76 C445.675,76 430.009,91.666 430.009,110.991 C430.009,112.339 431.102,113.432 432.45,113.432 L497.55,113.432 C498.898,113.432 499.991,112.339 499.991,110.991 Z M495.108,110.991 L497.55,108.55 L432.45,108.55 L434.892,110.991 C434.892,94.362 448.372,80.882 465,80.882 C481.628,80.882 495.108,94.362 495.108,110.991 Z" />
            <path d="M462.559,110.991 L462.559,134.677 C462.559,140.923 467.69,146 473.951,146 C480.212,146 485.344,140.923 485.344,134.677 C485.344,133.328 484.251,132.235 482.902,132.235 C481.554,132.235 480.461,133.328 480.461,134.677 C480.461,138.215 477.527,141.118 473.951,141.118 C470.375,141.118 467.441,138.215 467.441,134.677 L467.441,110.991 C467.441,109.643 466.348,108.55 465,108.55 C463.652,108.55 462.559,109.643 462.559,110.991 Z" />
        </g>
        <g id="Black-S">
            <path d="M699.991,110.991 C699.991,91.666 684.325,76 665,76 C645.675,76 630.009,91.666 630.009,110.991 C630.009,112.339 631.102,113.432 632.45,113.432 L697.55,113.432 C698.898,113.432 699.991,112.339 699.991,110.991 Z M695.108,110.991 L697.55,108.55 L632.45,108.55 L634.892,110.991 C634.892,94.362 648.372,80.882 665,80.882 C681.628,80.882 695.108,94.362 695.108,110.991 Z" />
            <path d="M662.559,110.991 L662.559,134.677 C662.559,140.923 667.69,146 673.951,146 C680.212,146 685.344,140.923 685.344,134.677 C685.344,133.328 684.251,132.235 682.902,132.235 C681.554,132.235 680.461,133.328 680.461,134.677 C680.461,138.215 677.527,141.118 673.951,141.118 C670.375,141.118 667.441,138.215 667.441,134.677 L667.441,110.991 C667.441,109.643 666.348,108.55 665,108.55 C663.652,108.55 662.559,109.643 662.559,110.991 Z" />
        </g>
    </g>
</svg>