<?xml version="1.0" encoding="UTF-8"?>
<svg height="600" width="800" xmlns="http://www.w3.org/2000/svg" xmlns:xlink="http://www.w3.org/1999/xlink">
    <g id="Notes" font-family="'LucidaGrande', 'Lucida Grande', sans-serif" font-size="13">
        <rect fill="white" height="600.0" width="800.0" x="0.0" y="0.0" />
        <g font-size="13">
            <text x="18.0" y="176.0">Small</text>
            <text x="18.0" y="376.0">Medium</text>
            <text x="18.0" y="576.0">Large</text>
        </g>
        <g font-size="9">
            <text x="250.0" y="30.0">Ultralight</text>
            <text x="450.0" y="30.0">Regular</text>
            <text x="650.0" y="30.0">Black</text>
            <text id="template-version" fill="#505050" text-anchor="end" x="785.0" y="575.0">Template v.3.0</text>
            <a href="https://github.com/swhitty/SwiftDraw">
                <text fill="#505050" text-anchor="end" x="785.0" y="590.0">https://github.com/swhitty/SwiftDraw</text>
            </a>
        </g>
    </g>
    <g id="Guides" stroke="rgb(39, 170, 225)" stroke-width="0.5">
        <path id="Capline-S" d="M18,76 l800,0" />
        <path id="H-reference" d="M85,145.755 L87.685,145.755 L113.369,79.287 L114.052,79.287 L114.052,76 L112.148,76 L85,145.755 Z M95.693,121.536 L130.996,121.536 L130.263,119.313 L96.474,119.313 L95.693,121.536 Z M139.15,145.755 L141.787,145.755 L114.638,76 L113.466,76 L113.466,79.287 L139.15,145.755 Z" stroke="none" />
        <path id="Baseline-S" d="M18,146 l800,0" />
        <path id="left-margin-Ultralight-S" d="M220,56 l0,110" />
        <path id="right-margin-Ultralight-S" d="M310,56 l0,110" />
        <path id="left-margin-Regular-S" d="M420,56 l0,110" />
        <path id="right-margin-Regular-S" d="M510,56 l0,110" />
        <path id="left-margin-Black-S" d="M620,56 l0,110" />
        <path id="right-margin-Black-S" d="M710,56 l0,110" />
        <path id="Capline-M" d="M18,276 l800,0" />
        <path id="Baseline-M" d="M18,346 l800,0" />
        <path id="Capline-L" d="M18,476 l800,0" />
        <path id="Baseline-L" d="M18,546 l800,0" />
    </g>
    <g id="Symbols">
        <g id="Ultralight-S">
            <path d="M260.215,86.68 L266.727,80.169 C267.68,79.215 267.68,77.669 266.727,76.715 C265.773,75.762 264.227,75.762 263.273,76.715 L256.762,83.227 C255.808,84.18 255.808,85.727 256.762,86.68 C257.715,87.634 259.261,87.634 260.215,86.68 Z M263.273,80.169 L269.785,86.68 C270.739,87.634 272.285,87.634 273.238,86.68 C274.192,85.727 274.192,84.18 273.238,83.227 L266.727,76.715 C265.773,75.762 264.227,75.762 263.273,76.715 C262.32,77.669 262.32,79.215 263.273,80.169 Z M262.558,78.442 L262.558,97.977 C262.558,99.325 263.651,100.419 265,100.419 C266.349,100.419 267.442,99.325 267.442,97.977 L267.442,78.442 C267.442,77.093 266.349,76 265,76 C263.651,76 262.558,77.093 262.558,78.442 Z" />
            <path d="M256.762,138.773 L263.273,145.285 C264.227,146.238 265.773,146.238 266.727,145.285 C267.68,144.331 267.68,142.785 266.727,141.831 L260.215,135.32 C259.261,134.366 257.715,134.366 256.762,135.32 C255.808,136.273 255.808,137.82 256.762,138.773 Z M266.727,145.285 L273.238,138.773 C274.192,137.82 274.192,136.273 273.238,135.32 C272.285,134.366 270.739,134.366 269.785,135.32 L263.273,141.831 C262.32,142.785 262.32,144.331 263.273,145.285 C264.227,146.238 265.773,146.238 266.727,145.285 Z M267.442,143.558 L267.442,124.023 C267.442,122.675 266.349,121.581 265,121.581 C263.651,121.581 262.558,122.675 262.558,124.023 L262.558,143.558 C262.558,144.907 263.651,146 265,146 C266.349,146 267.442,144.907 267.442,143.558 Z" />
            <path d="M289.32,106.215 L295.831,112.727 C296.785,113.68 298.331,113.68 299.285,112.727 C300.238,111.773 300.238,110.227 299.285,109.273 L292.773,102.762 C291.82,101.808 290.273,101.808 289.32,102.762 C288.366,103.715 288.366,105.261 289.32,106.215 Z M295.831,109.273 L289.32,115.785 C288.366,116.739 288.366,118.285 289.32,119.238 C290.273,120.192 291.82,120.192 292.773,119.238 L299.285,112.727 C300.238,111.773 300.238,110.227 299.285,109.273 C298.331,108.32 296.785,108.32 295.831,109.273 Z M297.558,108.558 L278.023,108.558 C276.675,108.558 275.581,109.651 275.581,111 C275.581,112.349 276.675,113.442 278.023,113.442 L297.558,113.442 C298.907,113.442 300,112.349 300,111 C300,109.651 298.907,108.558 297.558,108.558 Z" />
            <path d="M237.227,102.762 L230.715,109.273 C229.762,110.227 229.762,111.773 230.715,112.727 C231.669,113.68 233.215,113.68 234.169,112.727 L240.68,106.215 C241.634,105.261 241.634,103.715 240.68,102.762 C239.727,101.808 238.18,101.808 237.227,102.762 Z M230.715,112.727 L237.227,119.238 C238.18,120.192 239.727,120.192 240.68,119.238 C241.634,118.285 241.634,116.739 240.68,115.785 L234.169,109.273 C233.215,108.32 231.669,108.32 230.715,109.273 C229.762,110.227 229.762,111.773 230.715,112.727 Z M232.442,113.442 L251.977,113.442 C253.325,113.442 254.419,112.349 254.419,111 C254.419,109.651 253.325,108.558 251.977,108.558 L232.442,108.558 C231.093,108.558 230,109.651 230,111 C230,112.349 231.093,113.442 232.442,113.442 Z" />
            <path d="M264.186,111 C264.186,110.55 264.55,110.186 265,110.186 C265.45,110.186 265.814,110.55 265.814,111 C265.814,111.45 265.45,111.814 265,111.814 C264.55,111.814 264.186,111.45 264.186,111 Z M259.302,111 C259.302,114.147 261.853,116.698 265,116.698 C268.147,116.698 270.698,114.147 270.698,111 C270.698,107.853 268.147,105.302 265,105.302 C261.853,105.302 259.302,107.853 259.302,111 Z" />
        </g>
        <g id="Regular-S">
            <path d="M460.215,86.68 L466.727,80.169 C467.68,79.215 467.68,77.669 466.727,76.715 C465.773,75.762 464.227,75.762 463.273,76.715 L456.762,83.227 C455.808,84.18 455.808,85.727 456.762,86.68 C457.715,87.634 459.261,87.634 460.215,86.68 Z M463.273,80.169 L469.785,86.68 C470.739,87.634 472.285,87.634 473.238,86.68 C474.192,85.727 474.192,84.18 473.238,83.227 L466.727,76.715 C465.773,75.762 464.227,75.762 463.273,76.715 C462.32,77.669 462.32,79.215 463.273,80.169 Z M462.558,78.442 L462.558,97.977 C462.558,99.325 463.651,100.419 465,100.419 C466.349,100.419 467.442,99.325 467.442,97.977 L467.442,78.442 C467.442,77.093 466.349,76 465,76 C463.651,76 462.558,77.093 462.558,78.442 Z" />
            <path d="M456.762,138.773 L463.273,145.285 C464.227,146.238 465.773,146.238 466.727,145.285 C467.68,144.331 467.68,142.785 466.727,141.831 L460.215,135.32 C459.261,134.366 457.715,134.366 456.762,135.32 C455.808,136.273 455.808,137.82 456.762,138.773 Z M466.727,145.285 L473.238,138.773 C474.192,137.82 474.192,136.273 473.238,135.32 C472.285,134.366 470.739,134.366 469.785,135.32 L463.273,141.831 C462.32,142.785 462.32,144.331 463.273,145.285 C464.227,146.238 465.773,146.238 466.727,145.285 Z M467.442,143.558 L467.442,124.023 C467.442,122.675 466.349,121.581 465,121.581 C463.651,121.581 462.558,122.675 462.558,124.023 L462.558,143.558 C462.558,144.907 463.651,146 465,146 C466.349,146 467.442,144.907 467.442,143.558 Z" />
            <path d="M489.32,106.215 L495.831,112.727 C496.785,113.68 498.331,113.68 499.285,112.727 C500.238,111.773 500.238,110.227 499.285,109.273 L492.773,102.762 C491.82,101.808 490.273,101.808 489.32,102.762 C488.366,103.715 488.366,105.261 489.32,106.215 Z M495.831,109.273 L489.32,115.785 C488.366,116.739 488.366,118.285 489.32,119.238 C490.273,120.192 491.82,120.192 492.773,119.238 L499.285,112.727 C500.238,111.773 500.238,110.227 499.285,109.273 C498.331,108.32 496.785,108.32 495.831,109.273 Z M497.558,108.558 L478.023,108.558 C476.675,108.558 475.581,109.651 475.581,111 C475.581,112.349 476.675,113.442 478.023,113.442 L497.558,113.442 C498.907,113.442 500,112.349 500,111 C500,109.651 498.907,108.558 497.558,108.558 Z" />
            <path d="M437.227,102.762 L430.715,109.273 C429.762,110.227 429.762,111.773 430.715,112.727 C431.669,113.68 433.215,113.68 434.169,112.727 L440.68,106.215 C441.634,105.261 441.634,103.715 440.68,102.762 C439.727,101.808 438.18,101.808 437.227,102.762 Z M430.715,112.727 L437.227,119.238 C438.18,120.192 439.727,120.192 440.68,119.238 C441.634,118.285 441.634,116.739 440.68,115.785 L434.169,109.273 C433.215,108.32 431.669,108.32 430.715,109.273 C429.762,110.227 429.762,111.773 430.715,112.727 Z M432.442,113.442 L451.977,113.442 C453.325,113.442 454.419,112.349 454.419,111 C454.419,109.651 453.325,108.558 451.977,108.558 L432.442,108.558 C431.093,108.558 430,109.651 430,111 C430,112.349 431.093,113.442 432.442,113.442 Z" />
            <path d="M464.186,111 C464.186,110.55 464.55,110.186 465,110.186 C465.45,110.186 465.814,110.55 465.814,111 C465.814,111.45 465.45,111.814 465,111.814 C464.55,111.814 464.186,111.45 464.186,111 Z M459.302,111 C459.302,114.147 461.853,116.698 465,116.698 C468.147,116.698 470.698,114.147 470.698,111 C470.698,107.853 468.147,105.302 465,105.302 C461.853,105.302 459.302,107.853 459.302,111 Z" />
        </g>
        <g id="Black-S">
            <path d="M660.215,86.68 L666.727,80.169 C667.68,79.215 667.68,77.669 666.727,76.715 C665.773,75.762 664.227,75.762 663.273,76.715 L656.762,83.227 C655.808,84.18 655.808,85.727 656.762,86.68 C657.715,87.634 659.261,87.634 660.215,86.68 Z M663.273,80.169 L669.785,86.68 C670.739,87.634 672.285,87.634 673.238,86.68 C674.192,85.727 674.192,84.18 673.238,83.227 L666.727,76.715 C665.773,75.762 664.227,75.762 663.273,76.715 C662.32,77.669 662.32,79.215 663.273,80.169 Z M662.558,78.442 L662.558,97.977 C662.558,99.325 663.651,100.419 665,100.419 C666.349,100.419 667.442,99.325 667.442,97.977 L667.442,78.442 C667.442,77.093 666.349,76 665,76 C663.651,76 662.558,77.093 662.558,78.442 Z" />
            <path d="M656.762,138.773 L663.273,145.285 C664.227,146.238 665.773,146.238 666.727,145.285 C667.68,144.331 667.68,142.785 666.727,141.831 L660.215,135.32 C659.261,134.366 657.715,134.366 656.762,135.32 C655.808,136.273 655.808,137.82 656.762,138.773 Z M666.727,145.285 L673.238,138.773 C674.192,137.82 674.192,136.273 673.238,135.32 C672.285,134.366 670.739,134.366 669.785,135.32 L663.273,141.831 C662.32,142.785 662.32,144.331 663.273,145.285 C664.227,146.238 665.773,146.238 666.727,145.285 Z M667.442,143.558 L667.442,124.023 C667.442,122.675 666.349,121.581 665,121.581 C663.651,121.581 662.558,122.675 662.558,124.023 L662.558,143.558 C662.558,144.907 663.651,146 665,146 C666.349,146 667.442,144.907 667.442,143.558 Z" />
            <path d="M689.32,106.215 L695.831,112.727 C696.785,113.68 698.331,113.68 699.285,112.727 C700.238,111.773 700.238,110.227 699.285,109.273 L692.773,102.762 C691.82,101.808 690.273,101.808 689.32,102.762 C688.366,103.715 688.366,105.261 689.32,106.215 Z M695.831,109.273 L689.32,115.785 C688.366,116.739 688.366,118.285 689.32,119.238 C690.273,120.192 691.82,120.192 692.773,119.238 L699.285,112.727 C700.238,111.773 700.238,110.227 699.285,109.273 C698.331,108.32 696.785,108.32 695.831,109.273 Z M697.558,108.558 L678.023,108.558 C676.675,108.558 675.581,109.651 675.581,111 C675.581,112.349 676.675,113.442 678.023,113.442 L697.558,113.442 C698.907,113.442 700,112.349 700,111 C700,109.651 698.907,108.558 697.558,108.558 Z" />
            <path d="M637.227,102.762 L630.715,109.273 C629.762,110.227 629.762,111.773 630.715,112.727 C631.669,113.68 633.215,113.68 634.169,112.727 L640.68,106.215 C641.634,105.261 641.634,103.715 640.68,102.762 C639.727,101.808 638.18,101.808 637.227,102.762 Z M630.715,112.727 L637.227,119.238 C638.18,120.192 639.727,120.192 640.68,119.238 C641.634,118.285 641.634,116.739 640.68,115.785 L634.169,109.273 C633.215,108.32 631.669,108.32 630.715,109.273 C629.762,110.227 629.762,111.773 630.715,112.727 Z M632.442,113.442 L651.977,113.442 C653.325,113.442 654.419,112.349 654.419,111 C654.419,109.651 653.325,108.558 651.977,108.558 L632.442,108.558 C631.093,108.558 630,109.651 630,111 C630,112.349 631.093,113.442 632.442,113.442 Z" />
            <path d="M664.186,111 C664.186,110.55 664.55,110.186 665,110.186 C665.45,110.186 665.814,110.55 665.814,111 C665.814,111.45 665.45,111.814 665,111.814 C664.55,111.814 664.186,111.45 664.186,111 Z M659.302,111 C659.302,114.147 661.853,116.698 665,116.698 C668.147,116.698 670.698,114.147 670.698,111 C670.698,107.853 668.147,105.302 665,105.302 C661.853,105.302 659.302,107.853 659.302,111 Z" />
        </g>
    </g>
</svg>