<?xml version="1.0" encoding="UTF-8"?>
<svg height="600" width="800" xmlns="http://www.w3.org/2000/svg" xmlns:xlink="http://www.w3.org/1999/xlink">
    <g id="Notes" font-family="'LucidaGrande', 'Lucida Grande', sans-serif" font-size="13">
        <rect fill="white" height="600.0" width="800.0" x="0.0" y="0.0" />
        <g font-size="13">
            <text x="18.0" y="176.0">Small</text>
            <text x="18.0" y="376.0">Medium</text>
            <text x="18.0" y="576.0">Large</text>
        </g>
        <g font-size="9">
            <text x="250.0" y="30.0">Ultralight</text>
            <text x="450.0" y="30.0">Regular</text>
            <text x="650.0" y="30.0">Black</text>
            <text id="template-version" fill="#505050" text-anchor="end" x="785.0" y="575.0">Template v.3.0</text>
            <a href="https://github.com/swhitty/SwiftDraw">
                <text fill="#505050" text-anchor="end" x="785.0" y="590.0">https://github.com/swhitty/SwiftDraw</text>
            </a>
        </g>
    </g>
    <g id="Guides" stroke="rgb(39, 170, 225)" stroke-width="0.5">
        <path id="Capline-S" d="M18,76 l800,0" />
        <path id="H-reference" d="M85,145.755 L87.685,145.755 L113.369,79.287 L114.052,79.287 L114.052,76 L112.148,76 L85,145.755 Z M95.693,121.536 L130.996,121.536 L130.263,119.313 L96.474,119.313 L95.693,121.536 Z M139.15,145.755 L141.787,145.755 L114.638,76 L113.466,76 L113.466,79.287 L139.15,145.755 Z" stroke="none" />
        <path id="Baseline-S" d="M18,146 l800,0" />
        <path id="left-margin-Ultralight-S" d="M221,56 l0,110" />
        <path id="right-margin-Ultralight-S" d="M309,56 l0,110" />
        <path id="left-margin-Regular-S" d="M421,56 l0,110" />
        <path id="right-margin-Regular-S" d="M509,56 l0,110" />
        <path id="left-margin-Black-S" d="M621,56 l0,110" />
        <path id="right-margin-Black-S" d="M709,56 l0,110" />
        <path id="Capline-M" d="M18,276 l800,0" />
        <path id="Baseline-M" d="M18,346 l800,0" />
        <path id="Capline-L" d="M18,476 l800,0" />
        <path id="Baseline-L" d="M18,546 l800,0" />
    </g>
    <g id="Symbols">
        <g id="Ultralight-S">
            <path d="M241.396,143.555 L241.396,81.697 C241.396,81.248 241.761,80.883 242.21,80.883 L287.79,80.883 C288.239,80.883 288.604,81.248 288.604,81.697 L288.604,143.555 L292.167,141.386 L266.121,127.919 C265.418,127.556 264.582,127.556 263.879,127.919 L237.833,141.386 L241.396,143.555 Z M236.513,143.555 C236.513,145.385 238.451,146.564 240.076,145.724 L266.121,132.257 L263.879,132.257 L289.924,145.724 C291.549,146.564 293.487,145.385 293.487,143.555 L293.487,81.697 C293.487,78.551 290.936,76 287.79,76 L242.21,76 C239.064,76 236.513,78.551 236.513,81.697 L236.513,143.555 Z" />
            <path d="M251.977,103.673 L278.023,103.673 C279.371,103.673 280.464,102.58 280.464,101.231 C280.464,99.883 279.371,98.79 278.023,98.79 L251.977,98.79 C250.629,98.79 249.536,99.883 249.536,101.231 C249.536,102.58 250.629,103.673 251.977,103.673 Z" />
        </g>
        <g id="Regular-S">
            <path d="M441.396,143.555 L441.396,81.697 C441.396,81.248 441.761,80.883 442.21,80.883 L487.79,80.883 C488.239,80.883 488.604,81.248 488.604,81.697 L488.604,143.555 L492.167,141.386 L466.121,127.919 C465.418,127.556 464.582,127.556 463.879,127.919 L437.833,141.386 L441.396,143.555 Z M436.513,143.555 C436.513,145.385 438.451,146.564 440.076,145.724 L466.121,132.257 L463.879,132.257 L489.924,145.724 C491.549,146.564 493.487,145.385 493.487,143.555 L493.487,81.697 C493.487,78.551 490.936,76 487.79,76 L442.21,76 C439.064,76 436.513,78.551 436.513,81.697 L436.513,143.555 Z" />
            <path d="M451.977,103.673 L478.023,103.673 C479.371,103.673 480.464,102.58 480.464,101.231 C480.464,99.883 479.371,98.79 478.023,98.79 L451.977,98.79 C450.629,98.79 449.536,99.883 449.536,101.231 C449.536,102.58 450.629,103.673 451.977,103.673 Z" />
        </g>
        <g id="Black-S">
            <path d="M641.396,143.555 L641.396,81.697 C641.396,81.248 641.761,80.883 642.21,80.883 L687.79,80.883 C688.239,80.883 688.604,81.248 688.604,81.697 L688.604,143.555 L692.167,141.386 L666.121,127.919 C665.418,127.556 664.582,127.556 663.879,127.919 L637.833,141.386 L641.396,143.555 Z M636.513,143.555 C636.513,145.385 638.451,146.564 640.076,145.724 L666.121,132.257 L663.879,132.257 L689.924,145.724 C691.549,146.564 693.487,145.385 693.487,143.555 L693.487,81.697 C693.487,78.551 690.936,76 687.79,76 L642.21,76 C639.064,76 636.513,78.551 636.513,81.697 L636.513,143.555 Z" />
            <path d="M651.977,103.673 L678.023,103.673 C679.371,103.673 680.464,102.58 680.464,101.231 C680.464,99.883 679.371,98.79 678.023,98.79 L651.977,98.79 C650.629,98.79 649.536,99.883 649.536,101.231 C649.536,102.58 650.629,103.673 651.977,103.673 Z" />
        </g>
    </g>
</svg>