<?xml version="1.0" encoding="UTF-8"?>
<svg height="600" width="800" xmlns="http://www.w3.org/2000/svg" xmlns:xlink="http://www.w3.org/1999/xlink">
    <g id="Notes" font-family="'LucidaGrande', 'Lucida Grande', sans-serif" font-size="13">
        <rect fill="white" height="600.0" width="800.0" x="0.0" y="0.0" />
        <g font-size="13">
            <text x="18.0" y="176.0">Small</text>
            <text x="18.0" y="376.0">Medium</text>
            <text x="18.0" y="576.0">Large</text>
        </g>
        <g font-size="9">
            <text x="250.0" y="30.0">Ultralight</text>
            <text x="450.0" y="30.0">Regular</text>
            <text x="650.0" y="30.0">Black</text>
            <text id="template-version" fill="#505050" text-anchor="end" x="785.0" y="575.0">Template v.3.0</text>
            <a href="https://github.com/swhitty/SwiftDraw">
                <text fill="#505050" text-anchor="end" x="785.0" y="590.0">https://github.com/swhitty/SwiftDraw</text>
            </a>
        </g>
    </g>
    <g id="Guides" stroke="rgb(39, 170, 225)" stroke-width="0.5">
        <path id="Capline-S" d="M18,76 l800,0" />
        <path id="H-reference" d="M85,145.755 L87.685,145.755 L113.369,79.287 L114.052,79.287 L114.052,76 L112.148,76 L85,145.755 Z M95.693,121.536 L130.996,121.536 L130.263,119.313 L96.474,119.313 L95.693,121.536 Z M139.15,145.755 L141.787,145.755 L114.638,76 L113.466,76 L113.466,79.287 L139.15,145.755 Z" stroke="none" />
        <path id="Baseline-S" d="M18,146 l800,0" />
        <path id="left-margin-Ultralight-S" d="M220,56 l0,110" />
        <path id="right-margin-Ultralight-S" d="M310,56 l0,110" />
        <path id="left-margin-Regular-S" d="M420,56 l0,110" />
        <path id="right-margin-Regular-S" d="M510,56 l0,110" />
        <path id="left-margin-Black-S" d="M620,56 l0,110" />
        <path id="right-margin-Black-S" d="M710,56 l0,110" />
        <path id="Capline-M" d="M18,276 l800,0" />
        <path id="Baseline-M" d="M18,346 l800,0" />
        <path id="Capline-L" d="M18,476 l800,0" />
        <path id="Baseline-L" d="M18,546 l800,0" />
    </g>
    <g id="Symbols">
        <g id="Ultralight-S">
            <path d="M234.872,111.243 C234.895,111.011 234.946,110.557 235.029,109.912 C235.168,108.829 235.345,107.619 235.563,106.314 C236.183,102.593 237.001,98.875 238.037,95.423 C240.798,86.217 244.532,80.884 248.721,80.884 C253.939,80.884 257.532,86.359 259.94,96.583 C260.85,100.443 262.654,111.723 262.606,111.479 C263.86,117.753 264.835,121.901 266.402,126.73 C270.298,138.74 275.44,146 282.907,146 C289.491,146 293.775,139.147 296.86,127.927 C297.866,124.269 298.666,120.368 299.283,116.469 C299.499,115.106 299.677,113.84 299.819,112.702 C299.905,112.014 299.961,111.517 299.988,111.243 C300.122,109.901 299.143,108.704 297.801,108.57 C296.459,108.436 295.263,109.415 295.128,110.757 C295.105,110.992 295.054,111.449 294.973,112.096 C294.837,113.183 294.667,114.397 294.46,115.705 C293.869,119.438 293.104,123.168 292.151,126.632 C289.641,135.76 286.293,141.116 282.907,141.116 C278.432,141.116 274.32,135.309 271.047,125.223 C269.555,120.624 268.614,116.619 267.394,110.521 C267.476,110.928 265.653,99.533 264.694,95.463 C261.809,83.216 257.073,76 248.721,76 C241.515,76 236.702,82.876 233.359,94.019 C232.258,97.689 231.397,101.602 230.745,105.511 C230.518,106.878 230.332,108.148 230.185,109.29 C230.096,109.981 230.04,110.481 230.012,110.757 C229.878,112.099 230.857,113.296 232.199,113.43 C233.541,113.564 234.737,112.585 234.872,111.243 Z" />
            <path d="M243.837,113.442 L253.605,113.442 C254.953,113.442 256.047,112.349 256.047,111 C256.047,109.651 254.953,108.558 253.605,108.558 L243.837,108.558 C242.489,108.558 241.395,109.651 241.395,111 C241.395,112.349 242.489,113.442 243.837,113.442 Z" />
            <path d="M276.395,113.442 L286.163,113.442 C287.511,113.442 288.605,112.349 288.605,111 C288.605,109.651 287.511,108.558 286.163,108.558 L276.395,108.558 C275.047,108.558 273.953,109.651 273.953,111 C273.953,112.349 275.047,113.442 276.395,113.442 Z" />
        </g>
        <g id="Regular-S">
            <path d="M434.872,111.243 C434.895,111.011 434.946,110.557 435.029,109.912 C435.168,108.829 435.345,107.619 435.563,106.314 C436.183,102.593 437.001,98.875 438.037,95.423 C440.798,86.217 444.532,80.884 448.721,80.884 C453.939,80.884 457.532,86.359 459.94,96.583 C460.85,100.443 462.654,111.723 462.606,111.479 C463.86,117.753 464.835,121.901 466.402,126.73 C470.298,138.74 475.44,146 482.907,146 C489.491,146 493.775,139.147 496.86,127.927 C497.866,124.269 498.666,120.368 499.283,116.469 C499.499,115.106 499.677,113.84 499.819,112.702 C499.905,112.014 499.961,111.517 499.988,111.243 C500.122,109.901 499.143,108.704 497.801,108.57 C496.459,108.436 495.263,109.415 495.128,110.757 C495.105,110.992 495.054,111.449 494.973,112.096 C494.837,113.183 494.667,114.397 494.46,115.705 C493.869,119.438 493.104,123.168 492.151,126.632 C489.641,135.76 486.293,141.116 482.907,141.116 C478.432,141.116 474.32,135.309 471.047,125.223 C469.555,120.624 468.614,116.619 467.394,110.521 C467.476,110.928 465.653,99.533 464.694,95.463 C461.809,83.216 457.073,76 448.721,76 C441.515,76 436.702,82.876 433.359,94.019 C432.258,97.689 431.397,101.602 430.745,105.511 C430.518,106.878 430.332,108.148 430.185,109.29 C430.096,109.981 430.04,110.481 430.012,110.757 C429.878,112.099 430.857,113.296 432.199,113.43 C433.541,113.564 434.737,112.585 434.872,111.243 Z" />
            <path d="M443.837,113.442 L453.605,113.442 C454.953,113.442 456.047,112.349 456.047,111 C456.047,109.651 454.953,108.558 453.605,108.558 L443.837,108.558 C442.489,108.558 441.395,109.651 441.395,111 C441.395,112.349 442.489,113.442 443.837,113.442 Z" />
            <path d="M476.395,113.442 L486.163,113.442 C487.511,113.442 488.605,112.349 488.605,111 C488.605,109.651 487.511,108.558 486.163,108.558 L476.395,108.558 C475.047,108.558 473.953,109.651 473.953,111 C473.953,112.349 475.047,113.442 476.395,113.442 Z" />
        </g>
        <g id="Black-S">
            <path d="M634.872,111.243 C634.895,111.011 634.946,110.557 635.029,109.912 C635.168,108.829 635.345,107.619 635.563,106.314 C636.183,102.593 637.001,98.875 638.037,95.423 C640.798,86.217 644.532,80.884 648.721,80.884 C653.939,80.884 657.532,86.359 659.94,96.583 C660.85,100.443 662.654,111.723 662.606,111.479 C663.86,117.753 664.835,121.901 666.402,126.73 C670.298,138.74 675.44,146 682.907,146 C689.491,146 693.775,139.147 696.86,127.927 C697.866,124.269 698.666,120.368 699.283,116.469 C699.499,115.106 699.677,113.84 699.819,112.702 C699.905,112.014 699.961,111.517 699.988,111.243 C700.122,109.901 699.143,108.704 697.801,108.57 C696.459,108.436 695.263,109.415 695.128,110.757 C695.105,110.992 695.054,111.449 694.973,112.096 C694.837,113.183 694.667,114.397 694.46,115.705 C693.869,119.438 693.104,123.168 692.151,126.632 C689.641,135.76 686.293,141.116 682.907,141.116 C678.432,141.116 674.32,135.309 671.047,125.223 C669.555,120.624 668.614,116.619 667.394,110.521 C667.476,110.928 665.653,99.533 664.694,95.463 C661.809,83.216 657.073,76 648.721,76 C641.515,76 636.702,82.876 633.359,94.019 C632.258,97.689 631.397,101.602 630.745,105.511 C630.518,106.878 630.332,108.148 630.185,109.29 C630.096,109.981 630.04,110.481 630.012,110.757 C629.878,112.099 630.857,113.296 632.199,113.43 C633.541,113.564 634.737,112.585 634.872,111.243 Z" />
            <path d="M643.837,113.442 L653.605,113.442 C654.953,113.442 656.047,112.349 656.047,111 C656.047,109.651 654.953,108.558 653.605,108.558 L643.837,108.558 C642.489,108.558 641.395,109.651 641.395,111 C641.395,112.349 642.489,113.442 643.837,113.442 Z" />
            <path d="M676.395,113.442 L686.163,113.442 C687.511,113.442 688.605,112.349 688.605,111 C688.605,109.651 687.511,108.558 686.163,108.558 L676.395,108.558 C675.047,108.558 673.953,109.651 673.953,111 C673.953,112.349 675.047,113.442 676.395,113.442 Z" />
        </g>
    </g>
</svg>