<?xml version="1.0" encoding="UTF-8"?>
<svg height="600" width="800" xmlns="http://www.w3.org/2000/svg" xmlns:xlink="http://www.w3.org/1999/xlink">
    <g id="Notes" font-family="'LucidaGrande', 'Lucida Grande', sans-serif" font-size="13">
        <rect fill="white" height="600.0" width="800.0" x="0.0" y="0.0" />
        <g font-size="13">
            <text x="18.0" y="176.0">Small</text>
            <text x="18.0" y="376.0">Medium</text>
            <text x="18.0" y="576.0">Large</text>
        </g>
        <g font-size="9">
            <text x="250.0" y="30.0">Ultralight</text>
            <text x="450.0" y="30.0">Regular</text>
            <text x="650.0" y="30.0">Black</text>
            <text id="template-version" fill="#505050" text-anchor="end" x="785.0" y="575.0">Template v.3.0</text>
            <a href="https://github.com/swhitty/SwiftDraw">
                <text fill="#505050" text-anchor="end" x="785.0" y="590.0">https://github.com/swhitty/SwiftDraw</text>
            </a>
        </g>
    </g>
    <g id="Guides" stroke="rgb(39, 170, 225)" stroke-width="0.5">
        <path id="Capline-S" d="M18,76 l800,0" />
        <path id="H-reference" d="M85,145.755 L87.685,145.755 L113.369,79.287 L114.052,79.287 L114.052,76 L112.148,76 L85,145.755 Z M95.693,121.536 L130.996,121.536 L130.263,119.313 L96.474,119.313 L95.693,121.536 Z M139.15,145.755 L141.787,145.755 L114.638,76 L113.466,76 L113.466,79.287 L139.15,145.755 Z" stroke="none" />
        <path id="Baseline-S" d="M18,146 l800,0" />
        <path id="left-margin-Ultralight-S" d="M220,56 l0,110" />
        <path id="right-margin-Ultralight-S" d="M310,56 l0,110" />
        <path id="left-margin-Regular-S" d="M420,56 l0,110" />
        <path id="right-margin-Regular-S" d="M510,56 l0,110" />
        <path id="left-margin-Black-S" d="M620,56 l0,110" />
        <path id="right-margin-Black-S" d="M710,56 l0,110" />
        <path id="Capline-M" d="M18,276 l800,0" />
        <path id="Baseline-M" d="M18,346 l800,0" />
        <path id="Capline-L" d="M18,476 l800,0" />
        <path id="Baseline-L" d="M18,546 l800,0" />
    </g>
    <g id="Symbols">
        <g id="Ultralight-S">
            <path d="M257.317,90.512 C257.317,85.326 261.521,81.122 266.707,81.122 C271.893,81.122 276.098,85.326 276.098,90.512 C276.098,95.698 271.893,99.902 266.707,99.902 C261.521,99.902 257.317,95.698 257.317,90.512 Z M252.195,90.512 C252.195,98.527 258.692,105.024 266.707,105.024 C274.722,105.024 281.22,98.527 281.22,90.512 C281.22,82.497 274.722,76 266.707,76 C258.692,76 252.195,82.497 252.195,90.512 Z" />
            <path d="M235.122,141.732 C235.122,128.131 247.672,116.976 263.293,116.976 C264.707,116.976 265.854,115.829 265.854,114.415 C265.854,113 264.707,111.854 263.293,111.854 C244.968,111.854 230,125.159 230,141.732 C230,143.146 231.147,144.293 232.561,144.293 C233.975,144.293 235.122,143.146 235.122,141.732 Z" />
            <path d="M276.098,121.585 C276.098,122.159 275.914,122.535 275.699,122.782 C275.687,122.795 275.749,122.743 275.87,122.66 C276.253,122.398 276.881,122.063 277.7,121.689 C278.474,121.335 279.393,120.957 280.424,120.564 C281.691,120.081 283.057,119.603 284.423,119.151 C284.902,118.993 285.347,118.85 285.745,118.724 C285.982,118.649 286.149,118.598 286.234,118.572 L284.741,118.572 C284.827,118.598 284.994,118.649 285.23,118.724 C285.629,118.85 286.073,118.993 286.552,119.151 C287.919,119.603 289.285,120.081 290.552,120.564 C291.583,120.957 292.502,121.335 293.276,121.689 C294.094,122.063 294.723,122.398 295.105,122.66 C295.227,122.743 295.289,122.795 295.277,122.782 C295.061,122.535 294.878,122.159 294.878,121.585 C294.878,127.321 292.865,132.229 289.483,136.351 C288.291,137.804 287.013,139.051 285.74,140.086 C284.994,140.692 284.434,141.082 284.155,141.252 L286.821,141.252 C286.541,141.082 285.982,140.692 285.236,140.086 C283.963,139.051 282.684,137.804 281.492,136.351 C278.111,132.229 276.098,127.321 276.098,121.585 Z M270.976,121.585 C270.976,128.598 273.444,134.616 277.532,139.6 C279.977,142.58 282.434,144.577 284.155,145.626 C284.973,146.125 286.002,146.125 286.821,145.626 C288.542,144.577 290.999,142.58 293.443,139.6 C297.531,134.616 300,128.598 300,121.585 C300,119.447 298.616,118.498 295.405,117.03 C294.52,116.626 293.502,116.207 292.375,115.778 C291.028,115.264 289.592,114.761 288.158,114.288 C287.657,114.122 287.191,113.972 286.772,113.84 C286.519,113.76 286.336,113.703 286.234,113.672 C285.748,113.524 285.228,113.524 284.741,113.672 C284.64,113.703 284.457,113.76 284.203,113.84 C283.785,113.972 283.319,114.122 282.818,114.288 C281.383,114.761 279.948,115.264 278.6,115.778 C277.474,116.207 276.456,116.626 275.57,117.03 C272.36,118.498 270.976,119.447 270.976,121.585 Z" />
        </g>
        <g id="Regular-S">
            <path d="M457.317,90.512 C457.317,85.326 461.521,81.122 466.707,81.122 C471.893,81.122 476.098,85.326 476.098,90.512 C476.098,95.698 471.893,99.902 466.707,99.902 C461.521,99.902 457.317,95.698 457.317,90.512 Z M452.195,90.512 C452.195,98.527 458.692,105.024 466.707,105.024 C474.722,105.024 481.219,98.527 481.219,90.512 C481.219,82.497 474.722,76 466.707,76 C458.692,76 452.195,82.497 452.195,90.512 Z" />
            <path d="M435.122,141.732 C435.122,128.131 447.672,116.976 463.293,116.976 C464.707,116.976 465.854,115.829 465.854,114.415 C465.854,113 464.707,111.854 463.293,111.854 C444.968,111.854 430,125.159 430,141.732 C430,143.146 431.147,144.293 432.561,144.293 C433.975,144.293 435.122,143.146 435.122,141.732 Z" />
            <path d="M476.098,121.585 C476.098,122.159 475.914,122.535 475.699,122.782 C475.687,122.795 475.749,122.743 475.87,122.66 C476.253,122.398 476.881,122.063 477.7,121.689 C478.474,121.335 479.393,120.957 480.424,120.564 C481.691,120.081 483.057,119.603 484.423,119.151 C484.902,118.993 485.347,118.85 485.745,118.724 C485.982,118.649 486.149,118.598 486.234,118.572 L484.741,118.572 C484.827,118.598 484.994,118.649 485.23,118.724 C485.629,118.85 486.073,118.993 486.552,119.151 C487.919,119.603 489.285,120.081 490.552,120.564 C491.583,120.957 492.502,121.335 493.276,121.689 C494.094,122.063 494.723,122.398 495.105,122.66 C495.227,122.743 495.289,122.795 495.276,122.782 C495.061,122.535 494.878,122.159 494.878,121.585 C494.878,127.321 492.865,132.229 489.483,136.351 C488.291,137.804 487.013,139.051 485.74,140.086 C484.994,140.692 484.434,141.082 484.155,141.252 L486.821,141.252 C486.541,141.082 485.982,140.692 485.236,140.086 C483.962,139.051 482.684,137.804 481.492,136.351 C478.111,132.229 476.098,127.321 476.098,121.585 Z M470.976,121.585 C470.976,128.598 473.444,134.616 477.532,139.6 C479.977,142.58 482.434,144.577 484.155,145.626 C484.973,146.125 486.002,146.125 486.821,145.626 C488.542,144.577 490.999,142.58 493.443,139.6 C497.531,134.616 500,128.598 500,121.585 C500,119.447 498.616,118.498 495.405,117.03 C494.52,116.626 493.502,116.207 492.375,115.778 C491.028,115.264 489.592,114.761 488.158,114.288 C487.657,114.122 487.191,113.972 486.772,113.84 C486.519,113.76 486.336,113.703 486.234,113.672 C485.748,113.524 485.228,113.524 484.741,113.672 C484.64,113.703 484.457,113.76 484.203,113.84 C483.785,113.972 483.319,114.122 482.818,114.288 C481.383,114.761 479.948,115.264 478.6,115.778 C477.474,116.207 476.456,116.626 475.57,117.03 C472.36,118.498 470.976,119.447 470.976,121.585 Z" />
        </g>
        <g id="Black-S">
            <path d="M657.317,90.512 C657.317,85.326 661.521,81.122 666.707,81.122 C671.893,81.122 676.098,85.326 676.098,90.512 C676.098,95.698 671.893,99.902 666.707,99.902 C661.521,99.902 657.317,95.698 657.317,90.512 Z M652.195,90.512 C652.195,98.527 658.692,105.024 666.707,105.024 C674.722,105.024 681.219,98.527 681.219,90.512 C681.219,82.497 674.722,76 666.707,76 C658.692,76 652.195,82.497 652.195,90.512 Z" />
            <path d="M635.122,141.732 C635.122,128.131 647.672,116.976 663.293,116.976 C664.707,116.976 665.854,115.829 665.854,114.415 C665.854,113 664.707,111.854 663.293,111.854 C644.968,111.854 630,125.159 630,141.732 C630,143.146 631.147,144.293 632.561,144.293 C633.975,144.293 635.122,143.146 635.122,141.732 Z" />
            <path d="M676.098,121.585 C676.098,122.159 675.914,122.535 675.699,122.782 C675.687,122.795 675.749,122.743 675.87,122.66 C676.253,122.398 676.881,122.063 677.7,121.689 C678.474,121.335 679.393,120.957 680.424,120.564 C681.691,120.081 683.057,119.603 684.423,119.151 C684.902,118.993 685.347,118.85 685.745,118.724 C685.982,118.649 686.149,118.598 686.234,118.572 L684.741,118.572 C684.827,118.598 684.994,118.649 685.23,118.724 C685.629,118.85 686.073,118.993 686.552,119.151 C687.919,119.603 689.285,120.081 690.552,120.564 C691.583,120.957 692.502,121.335 693.276,121.689 C694.094,122.063 694.723,122.398 695.105,122.66 C695.227,122.743 695.289,122.795 695.276,122.782 C695.061,122.535 694.878,122.159 694.878,121.585 C694.878,127.321 692.865,132.229 689.483,136.351 C688.291,137.804 687.013,139.051 685.74,140.086 C684.994,140.692 684.434,141.082 684.155,141.252 L686.821,141.252 C686.541,141.082 685.982,140.692 685.236,140.086 C683.963,139.051 682.684,137.804 681.492,136.351 C678.111,132.229 676.098,127.321 676.098,121.585 Z M670.976,121.585 C670.976,128.598 673.444,134.616 677.532,139.6 C679.977,142.58 682.434,144.577 684.155,145.626 C684.973,146.125 686.002,146.125 686.821,145.626 C688.542,144.577 690.999,142.58 693.443,139.6 C697.531,134.616 700,128.598 700,121.585 C700,119.447 698.616,118.498 695.405,117.03 C694.52,116.626 693.502,116.207 692.375,115.778 C691.028,115.264 689.592,114.761 688.158,114.288 C687.657,114.122 687.191,113.972 686.772,113.84 C686.519,113.76 686.336,113.703 686.234,113.672 C685.748,113.524 685.228,113.524 684.741,113.672 C684.64,113.703 684.457,113.76 684.203,113.84 C683.785,113.972 683.319,114.122 682.818,114.288 C681.383,114.761 679.948,115.264 678.6,115.778 C677.474,116.207 676.456,116.626 675.57,117.03 C672.36,118.498 670.976,119.447 670.976,121.585 Z" />
        </g>
    </g>
</svg>