<?xml version="1.0" encoding="UTF-8"?>
<svg height="600" width="800" xmlns="http://www.w3.org/2000/svg" xmlns:xlink="http://www.w3.org/1999/xlink">
    <g id="Notes" font-family="'LucidaGrande', 'Lucida Grande', sans-serif" font-size="13">
        <rect fill="white" height="600.0" width="800.0" x="0.0" y="0.0" />
        <g font-size="13">
            <text x="18.0" y="176.0">Small</text>
            <text x="18.0" y="376.0">Medium</text>
            <text x="18.0" y="576.0">Large</text>
        </g>
        <g font-size="9">
            <text x="250.0" y="30.0">Ultralight</text>
            <text x="450.0" y="30.0">Regular</text>
            <text x="650.0" y="30.0">Black</text>
            <text id="template-version" fill="#505050" text-anchor="end" x="785.0" y="575.0">Template v.3.0</text>
            <a href="https://github.com/swhitty/SwiftDraw">
                <text fill="#505050" text-anchor="end" x="785.0" y="590.0">https://github.com/swhitty/SwiftDraw</text>
            </a>
        </g>
    </g>
    <g id="Guides" stroke="rgb(39, 170, 225)" stroke-width="0.5">
        <path id="Capline-S" d="M18,76 l800,0" />
        <path id="H-reference" d="M85,145.755 L87.685,145.755 L113.369,79.287 L114.052,79.287 L114.052,76 L112.148,76 L85,145.755 Z M95.693,121.536 L130.996,121.536 L130.263,119.313 L96.474,119.313 L95.693,121.536 Z M139.15,145.755 L141.787,145.755 L114.638,76 L113.466,76 L113.466,79.287 L139.15,145.755 Z" stroke="none" />
        <path id="Baseline-S" d="M18,146 l800,0" />
        <path id="left-margin-Ultralight-S" d="M221,56 l0,110" />
        <path id="right-margin-Ultralight-S" d="M309,56 l0,110" />
        <path id="left-margin-Regular-S" d="M421,56 l0,110" />
        <path id="right-margin-Regular-S" d="M509,56 l0,110" />
        <path id="left-margin-Black-S" d="M621,56 l0,110" />
        <path id="right-margin-Black-S" d="M709,56 l0,110" />
        <path id="Capline-M" d="M18,276 l800,0" />
        <path id="Baseline-M" d="M18,346 l800,0" />
        <path id="Capline-L" d="M18,476 l800,0" />
        <path id="Baseline-L" d="M18,546 l800,0" />
    </g>
    <g id="Symbols">
        <g id="Ultralight-S">
            <path d="M263.561,80.415 L272.113,86.653 C272.532,86.959 273.038,87.123 273.557,87.122 L284.142,87.102 L281.813,85.41 L285.065,95.484 C285.225,95.977 285.537,96.408 285.958,96.712 L294.533,102.917 L293.644,100.18 L290.354,110.241 C290.192,110.734 290.192,111.266 290.354,111.759 L293.644,121.82 L294.533,119.083 L285.958,125.288 C285.537,125.592 285.225,126.023 285.065,126.516 L281.813,136.59 L284.142,134.898 L273.557,134.878 C273.038,134.877 272.532,135.041 272.113,135.347 L263.561,141.585 L266.439,141.585 L257.887,135.347 C257.468,135.041 256.962,134.877 256.444,134.878 L245.858,134.898 L248.187,136.59 L244.935,126.516 C244.775,126.023 244.463,125.592 244.042,125.288 L235.467,119.083 L236.356,121.82 L239.647,111.759 C239.808,111.266 239.808,110.734 239.647,110.241 L236.356,100.18 L235.467,102.917 L244.042,96.712 C244.463,96.408 244.775,95.977 244.935,95.484 L248.187,85.41 L245.858,87.102 L256.444,87.122 C256.962,87.123 257.468,86.959 257.887,86.653 L266.439,80.415 L263.561,80.415 Z M266.439,76.469 C265.582,75.844 264.418,75.844 263.561,76.469 L255.009,82.707 L256.453,82.238 L245.867,82.218 C244.806,82.216 243.865,82.9 243.539,83.91 L240.287,93.983 L241.179,92.755 L232.604,98.961 C231.744,99.583 231.385,100.689 231.714,101.698 L235.005,111.759 L235.005,110.241 L231.714,120.302 C231.385,121.311 231.744,122.417 232.604,123.039 L241.179,129.245 L240.287,128.017 L243.539,138.09 C243.865,139.1 244.806,139.784 245.867,139.782 L256.453,139.762 L255.009,139.293 L263.561,145.531 C264.418,146.156 265.582,146.156 266.439,145.531 L274.991,139.293 L273.547,139.762 L284.133,139.782 C285.194,139.784 286.135,139.1 286.461,138.09 L289.713,128.017 L288.821,129.245 L297.396,123.039 C298.256,122.417 298.615,121.311 298.286,120.302 L294.995,110.241 L294.995,111.759 L298.286,101.698 C298.615,100.689 298.256,99.583 297.396,98.961 L288.821,92.755 L289.713,93.983 L286.461,83.91 C286.135,82.9 285.194,82.216 284.133,82.218 L273.547,82.238 L274.991,82.707 L266.439,76.469 Z" />
            <path d="M251.878,112.727 L260.018,120.866 C260.971,121.82 262.517,121.82 263.471,120.866 L279.75,104.587 C280.704,103.634 280.704,102.087 279.75,101.134 C278.796,100.18 277.25,100.18 276.297,101.134 L260.018,117.413 L263.471,117.413 L255.331,109.273 C254.378,108.32 252.832,108.32 251.878,109.273 C250.924,110.227 250.924,111.773 251.878,112.727 Z" />
        </g>
        <g id="Regular-S">
            <path d="M463.561,80.415 L472.113,86.653 C472.532,86.959 473.038,87.123 473.557,87.122 L484.142,87.102 L481.813,85.41 L485.065,95.484 C485.225,95.977 485.537,96.408 485.958,96.712 L494.533,102.917 L493.644,100.18 L490.354,110.241 C490.192,110.734 490.192,111.266 490.354,111.759 L493.644,121.82 L494.533,119.083 L485.958,125.288 C485.537,125.592 485.225,126.023 485.065,126.516 L481.813,136.59 L484.142,134.898 L473.557,134.878 C473.038,134.877 472.532,135.041 472.113,135.347 L463.561,141.585 L466.439,141.585 L457.887,135.347 C457.468,135.041 456.962,134.877 456.444,134.878 L445.858,134.898 L448.187,136.59 L444.935,126.516 C444.775,126.023 444.463,125.592 444.042,125.288 L435.467,119.083 L436.356,121.82 L439.647,111.759 C439.808,111.266 439.808,110.734 439.647,110.241 L436.356,100.18 L435.467,102.917 L444.042,96.712 C444.463,96.408 444.775,95.977 444.935,95.484 L448.187,85.41 L445.858,87.102 L456.444,87.122 C456.962,87.123 457.468,86.959 457.887,86.653 L466.439,80.415 L463.561,80.415 Z M466.439,76.469 C465.582,75.844 464.418,75.844 463.561,76.469 L455.009,82.707 L456.453,82.238 L445.867,82.218 C444.806,82.216 443.865,82.9 443.539,83.91 L440.287,93.983 L441.179,92.755 L432.604,98.961 C431.744,99.583 431.385,100.689 431.715,101.698 L435.005,111.759 L435.005,110.241 L431.715,120.302 C431.385,121.311 431.744,122.417 432.604,123.039 L441.179,129.245 L440.287,128.017 L443.539,138.09 C443.865,139.1 444.806,139.784 445.867,139.782 L456.453,139.762 L455.009,139.293 L463.561,145.531 C464.418,146.156 465.582,146.156 466.439,145.531 L474.991,139.293 L473.547,139.762 L484.133,139.782 C485.194,139.784 486.135,139.1 486.461,138.09 L489.713,128.017 L488.821,129.245 L497.396,123.039 C498.256,122.417 498.615,121.311 498.286,120.302 L494.995,110.241 L494.995,111.759 L498.286,101.698 C498.615,100.689 498.256,99.583 497.396,98.961 L488.821,92.755 L489.713,93.983 L486.461,83.91 C486.135,82.9 485.194,82.216 484.133,82.218 L473.547,82.238 L474.991,82.707 L466.439,76.469 Z" />
            <path d="M451.878,112.727 L460.018,120.866 C460.971,121.82 462.517,121.82 463.471,120.866 L479.75,104.587 C480.704,103.634 480.704,102.087 479.75,101.134 C478.796,100.18 477.25,100.18 476.297,101.134 L460.018,117.413 L463.471,117.413 L455.331,109.273 C454.378,108.32 452.832,108.32 451.878,109.273 C450.924,110.227 450.924,111.773 451.878,112.727 Z" />
        </g>
        <g id="Black-S">
            <path d="M663.561,80.415 L672.113,86.653 C672.532,86.959 673.038,87.123 673.557,87.122 L684.142,87.102 L681.813,85.41 L685.065,95.484 C685.225,95.977 685.537,96.408 685.958,96.712 L694.533,102.917 L693.644,100.18 L690.354,110.241 C690.192,110.734 690.192,111.266 690.354,111.759 L693.644,121.82 L694.533,119.083 L685.958,125.288 C685.537,125.592 685.225,126.023 685.065,126.516 L681.813,136.59 L684.142,134.898 L673.557,134.878 C673.038,134.877 672.532,135.041 672.113,135.347 L663.561,141.585 L666.439,141.585 L657.887,135.347 C657.468,135.041 656.962,134.877 656.443,134.878 L645.858,134.898 L648.187,136.59 L644.935,126.516 C644.775,126.023 644.463,125.592 644.042,125.288 L635.467,119.083 L636.356,121.82 L639.646,111.759 C639.808,111.266 639.808,110.734 639.646,110.241 L636.356,100.18 L635.467,102.917 L644.042,96.712 C644.463,96.408 644.775,95.977 644.935,95.484 L648.187,85.41 L645.858,87.102 L656.443,87.122 C656.962,87.123 657.468,86.959 657.887,86.653 L666.439,80.415 L663.561,80.415 Z M666.439,76.469 C665.582,75.844 664.418,75.844 663.561,76.469 L655.009,82.707 L656.453,82.238 L645.867,82.218 C644.806,82.216 643.865,82.9 643.539,83.91 L640.287,93.983 L641.179,92.755 L632.604,98.961 C631.744,99.583 631.385,100.689 631.714,101.698 L635.005,111.759 L635.005,110.241 L631.714,120.302 C631.385,121.311 631.744,122.417 632.604,123.039 L641.179,129.245 L640.287,128.017 L643.539,138.09 C643.865,139.1 644.806,139.784 645.867,139.782 L656.453,139.762 L655.009,139.293 L663.561,145.531 C664.418,146.156 665.582,146.156 666.439,145.531 L674.991,139.293 L673.547,139.762 L684.133,139.782 C685.194,139.784 686.135,139.1 686.461,138.09 L689.713,128.017 L688.821,129.245 L697.396,123.039 C698.256,122.417 698.615,121.311 698.286,120.302 L694.995,110.241 L694.995,111.759 L698.286,101.698 C698.615,100.689 698.256,99.583 697.396,98.961 L688.821,92.755 L689.713,93.983 L686.461,83.91 C686.135,82.9 685.194,82.216 684.133,82.218 L673.547,82.238 L674.991,82.707 L666.439,76.469 Z" />
            <path d="M651.878,112.727 L660.018,120.866 C660.971,121.82 662.517,121.82 663.471,120.866 L679.75,104.587 C680.703,103.634 680.703,102.087 679.75,101.134 C678.796,100.18 677.25,100.18 676.297,101.134 L660.018,117.413 L663.471,117.413 L655.331,109.273 C654.378,108.32 652.832,108.32 651.878,109.273 C650.924,110.227 650.924,111.773 651.878,112.727 Z" />
        </g>
    </g>
</svg>