<?xml version="1.0" encoding="UTF-8"?>
<svg height="600" width="800" xmlns="http://www.w3.org/2000/svg" xmlns:xlink="http://www.w3.org/1999/xlink">
    <g id="Notes" font-family="'LucidaGrande', 'Lucida Grande', sans-serif" font-size="13">
        <rect fill="white" height="600.0" width="800.0" x="0.0" y="0.0" />
        <g font-size="13">
            <text x="18.0" y="176.0">Small</text>
            <text x="18.0" y="376.0">Medium</text>
            <text x="18.0" y="576.0">Large</text>
        </g>
        <g font-size="9">
            <text x="250.0" y="30.0">Ultralight</text>
            <text x="450.0" y="30.0">Regular</text>
            <text x="650.0" y="30.0">Black</text>
            <text id="template-version" fill="#505050" text-anchor="end" x="785.0" y="575.0">Template v.3.0</text>
            <a href="https://github.com/swhitty/SwiftDraw">
                <text fill="#505050" text-anchor="end" x="785.0" y="590.0">https://github.com/swhitty/SwiftDraw</text>
            </a>
        </g>
    </g>
    <g id="Guides" stroke="rgb(39, 170, 225)" stroke-width="0.5">
        <path id="Capline-S" d="M18,76 l800,0" />
        <path id="H-reference" d="M85,145.755 L87.685,145.755 L113.369,79.287 L114.052,79.287 L114.052,76 L112.148,76 L85,145.755 Z M95.693,121.536 L130.996,121.536 L130.263,119.313 L96.474,119.313 L95.693,121.536 Z M139.15,145.755 L141.787,145.755 L114.638,76 L113.466,76 L113.466,79.287 L139.15,145.755 Z" stroke="none" />
        <path id="Baseline-S" d="M18,146 l800,0" />
        <path id="left-margin-Ultralight-S" d="M220,56 l0,110" />
        <path id="right-margin-Ultralight-S" d="M310,56 l0,110" />
        <path id="left-margin-Regular-S" d="M420,56 l0,110" />
        <path id="right-margin-Regular-S" d="M510,56 l0,110" />
        <path id="left-margin-Black-S" d="M620,56 l0,110" />
        <path id="right-margin-Black-S" d="M710,56 l0,110" />
        <path id="Capline-M" d="M18,276 l800,0" />
        <path id="Baseline-M" d="M18,346 l800,0" />
        <path id="Capline-L" d="M18,476 l800,0" />
        <path id="Baseline-L" d="M18,546 l800,0" />
    </g>
    <g id="Symbols">
        <g id="Ultralight-S">
            <path d="M281.581,80.169 C276.527,77.446 270.865,76 265,76 C245.67,76 230,91.67 230,111 C230,130.33 245.67,146 265,146 C270.157,146 275.16,144.882 279.738,142.754 C281.021,142.158 281.577,140.635 280.981,139.352 C280.385,138.07 278.862,137.513 277.579,138.11 C273.674,139.925 269.407,140.878 265,140.878 C248.499,140.878 235.122,127.501 235.122,111 C235.122,94.499 248.499,81.122 265,81.122 C270.012,81.122 274.839,82.355 279.151,84.678 C280.396,85.349 281.949,84.884 282.62,83.639 C283.291,82.394 282.826,80.84 281.581,80.169 Z" />
            <path d="M276.951,123.805 L297.439,123.805 C298.853,123.805 300,122.658 300,121.244 C300,119.83 298.853,118.683 297.439,118.683 L276.951,118.683 C275.537,118.683 274.39,119.83 274.39,121.244 C274.39,122.658 275.537,123.805 276.951,123.805 Z" />
            <path d="M247.823,109.396 L259.774,121.347 C260.756,122.329 262.339,122.35 263.347,121.396 L295.786,90.664 C296.812,89.691 296.856,88.07 295.884,87.044 C294.911,86.017 293.29,85.973 292.263,86.946 L259.824,117.677 L263.396,117.726 L251.445,105.774 C250.445,104.774 248.823,104.774 247.823,105.774 C246.823,106.775 246.823,108.396 247.823,109.396 Z" />
            <path d="M284.634,111 L284.634,131.488 C284.634,132.902 285.781,134.049 287.195,134.049 C288.609,134.049 289.756,132.902 289.756,131.488 L289.756,111 C289.756,109.586 288.609,108.439 287.195,108.439 C285.781,108.439 284.634,109.586 284.634,111 Z" />
        </g>
        <g id="Regular-S">
            <path d="M481.581,80.169 C476.527,77.446 470.865,76 465,76 C445.67,76 430,91.67 430,111 C430,130.33 445.67,146 465,146 C470.157,146 475.16,144.882 479.738,142.754 C481.021,142.158 481.577,140.635 480.981,139.352 C480.385,138.07 478.862,137.513 477.579,138.11 C473.674,139.925 469.407,140.878 465,140.878 C448.499,140.878 435.122,127.501 435.122,111 C435.122,94.499 448.499,81.122 465,81.122 C470.012,81.122 474.839,82.355 479.151,84.678 C480.396,85.349 481.949,84.884 482.62,83.639 C483.291,82.394 482.826,80.84 481.581,80.169 Z" />
            <path d="M476.951,123.805 L497.439,123.805 C498.853,123.805 500,122.658 500,121.244 C500,119.83 498.853,118.683 497.439,118.683 L476.951,118.683 C475.537,118.683 474.39,119.83 474.39,121.244 C474.39,122.658 475.537,123.805 476.951,123.805 Z" />
            <path d="M447.823,109.396 L459.774,121.347 C460.756,122.329 462.339,122.35 463.347,121.396 L495.786,90.664 C496.812,89.691 496.856,88.07 495.884,87.044 C494.911,86.017 493.29,85.973 492.263,86.946 L459.824,117.677 L463.396,117.726 L451.445,105.774 C450.445,104.774 448.823,104.774 447.823,105.774 C446.823,106.775 446.823,108.396 447.823,109.396 Z" />
            <path d="M484.634,111 L484.634,131.488 C484.634,132.902 485.781,134.049 487.195,134.049 C488.609,134.049 489.756,132.902 489.756,131.488 L489.756,111 C489.756,109.586 488.609,108.439 487.195,108.439 C485.781,108.439 484.634,109.586 484.634,111 Z" />
        </g>
        <g id="Black-S">
            <path d="M681.581,80.169 C676.527,77.446 670.865,76 665,76 C645.67,76 630,91.67 630,111 C630,130.33 645.67,146 665,146 C670.157,146 675.16,144.882 679.738,142.754 C681.021,142.158 681.577,140.635 680.981,139.352 C680.385,138.07 678.862,137.513 677.579,138.11 C673.674,139.925 669.407,140.878 665,140.878 C648.499,140.878 635.122,127.501 635.122,111 C635.122,94.499 648.499,81.122 665,81.122 C670.012,81.122 674.839,82.355 679.151,84.678 C680.396,85.349 681.949,84.884 682.62,83.639 C683.291,82.394 682.826,80.84 681.581,80.169 Z" />
            <path d="M676.951,123.805 L697.439,123.805 C698.853,123.805 700,122.658 700,121.244 C700,119.83 698.853,118.683 697.439,118.683 L676.951,118.683 C675.537,118.683 674.39,119.83 674.39,121.244 C674.39,122.658 675.537,123.805 676.951,123.805 Z" />
            <path d="M647.823,109.396 L659.775,121.347 C660.756,122.329 662.339,122.35 663.347,121.396 L695.786,90.664 C696.812,89.691 696.856,88.07 695.884,87.044 C694.911,86.017 693.29,85.973 692.263,86.946 L659.824,117.677 L663.396,117.726 L651.445,105.774 C650.445,104.774 648.823,104.774 647.823,105.774 C646.823,106.775 646.823,108.396 647.823,109.396 Z" />
            <path d="M684.634,111 L684.634,131.488 C684.634,132.902 685.781,134.049 687.195,134.049 C688.61,134.049 689.756,132.902 689.756,131.488 L689.756,111 C689.756,109.586 688.61,108.439 687.195,108.439 C685.781,108.439 684.634,109.586 684.634,111 Z" />
        </g>
    </g>
</svg>