<?xml version="1.0" encoding="UTF-8"?>
<svg height="600" width="800" xmlns="http://www.w3.org/2000/svg" xmlns:xlink="http://www.w3.org/1999/xlink">
    <g id="Notes" font-family="'LucidaGrande', 'Lucida Grande', sans-serif" font-size="13">
        <rect fill="white" height="600.0" width="800.0" x="0.0" y="0.0" />
        <g font-size="13">
            <text x="18.0" y="176.0">Small</text>
            <text x="18.0" y="376.0">Medium</text>
            <text x="18.0" y="576.0">Large</text>
        </g>
        <g font-size="9">
            <text x="250.0" y="30.0">Ultralight</text>
            <text x="450.0" y="30.0">Regular</text>
            <text x="650.0" y="30.0">Black</text>
            <text id="template-version" fill="#505050" text-anchor="end" x="785.0" y="575.0">Template v.3.0</text>
            <a href="https://github.com/swhitty/SwiftDraw">
                <text fill="#505050" text-anchor="end" x="785.0" y="590.0">https://github.com/swhitty/SwiftDraw</text>
            </a>
        </g>
    </g>
    <g id="Guides" stroke="rgb(39, 170, 225)" stroke-width="0.5">
        <path id="Capline-S" d="M18,76 l800,0" />
        <path id="H-reference" d="M85,145.755 L87.685,145.755 L113.369,79.287 L114.052,79.287 L114.052,76 L112.148,76 L85,145.755 Z M95.693,121.536 L130.996,121.536 L130.263,119.313 L96.474,119.313 L95.693,121.536 Z M139.15,145.755 L141.787,145.755 L114.638,76 L113.466,76 L113.466,79.287 L139.15,145.755 Z" stroke="none" />
        <path id="Baseline-S" d="M18,146 l800,0" />
        <path id="left-margin-Ultralight-S" d="M218.293,56 l0,110" />
        <path id="right-margin-Ultralight-S" d="M311.707,56 l0,110" />
        <path id="left-margin-Regular-S" d="M418.293,56 l0,110" />
        <path id="right-margin-Regular-S" d="M511.707,56 l0,110" />
        <path id="left-margin-Black-S" d="M618.293,56 l0,110" />
        <path id="right-margin-Black-S" d="M711.707,56 l0,110" />
        <path id="Capline-M" d="M18,276 l800,0" />
        <path id="Baseline-M" d="M18,346 l800,0" />
        <path id="Capline-L" d="M18,476 l800,0" />
        <path id="Baseline-L" d="M18,546 l800,0" />
    </g>
    <g id="Symbols">
        <g id="Ultralight-S">
            <path d="M230.854,146 L299.146,146 C300.561,146 301.707,144.853 301.707,143.439 C301.707,142.025 300.561,140.878 299.146,140.878 L230.854,140.878 C229.439,140.878 228.293,142.025 228.293,143.439 C228.293,144.853 229.439,146 230.854,146 Z" />
            <path d="M248.78,129.78 L248.78,140.024 C248.78,140.251 248.691,140.468 248.53,140.628 C248.37,140.788 248.153,140.878 247.927,140.878 L241.098,140.878 C240.871,140.878 240.654,140.788 240.494,140.628 C240.334,140.468 240.244,140.251 240.244,140.024 L240.244,119.537 C240.244,119.31 240.334,119.093 240.494,118.933 C240.654,118.773 240.871,118.683 241.098,118.683 L247.927,118.683 C248.153,118.683 248.37,118.773 248.53,118.933 C248.691,119.093 248.78,119.31 248.78,119.537 L248.78,129.78 Z M253.902,129.78 L253.902,119.537 C253.902,117.952 253.273,116.432 252.152,115.311 C251.032,114.191 249.512,113.561 247.927,113.561 L241.098,113.561 C239.513,113.561 237.993,114.191 236.872,115.311 C235.752,116.432 235.122,117.952 235.122,119.537 L235.122,140.024 C235.122,141.609 235.752,143.129 236.872,144.25 C237.993,145.37 239.513,146 241.098,146 L247.927,146 C249.512,146 251.032,145.37 252.152,144.25 C253.273,143.129 253.902,141.609 253.902,140.024 L253.902,129.78 Z" />
            <path d="M244.512,132.341 L246.22,132.341 C247.634,132.341 248.78,131.195 248.78,129.78 C248.78,128.366 247.634,127.22 246.22,127.22 L244.512,127.22 C243.098,127.22 241.951,128.366 241.951,129.78 C241.951,131.195 243.098,132.341 244.512,132.341 Z" />
            <path d="M289.756,111 L289.756,140.024 C289.756,140.251 289.666,140.468 289.506,140.628 C289.346,140.788 289.129,140.878 288.902,140.878 L254.756,140.878 C254.53,140.878 254.313,140.788 254.152,140.628 C253.992,140.468 253.902,140.251 253.902,140.024 L253.902,81.976 C253.902,81.749 253.992,81.532 254.152,81.372 C254.313,81.212 254.53,81.122 254.756,81.122 L288.902,81.122 C289.129,81.122 289.346,81.212 289.506,81.372 C289.666,81.532 289.756,81.749 289.756,81.976 L289.756,111 Z M294.878,111 L294.878,81.976 C294.878,80.391 294.248,78.871 293.128,77.75 C292.007,76.63 290.487,76 288.902,76 L254.756,76 C253.171,76 251.651,76.63 250.531,77.75 C249.41,78.871 248.78,80.391 248.78,81.976 L248.78,140.024 C248.78,141.609 249.41,143.129 250.531,144.25 C251.651,145.37 253.171,146 254.756,146 L288.902,146 C290.487,146 292.007,145.37 293.128,144.25 C294.248,143.129 294.878,141.609 294.878,140.024 L294.878,111 Z" />
            <path d="M268.415,88.805 L268.415,95.634 L261.585,95.634 L261.585,88.805 Z" />
            <path d="M282.073,88.805 L282.073,95.634 L275.244,95.634 L275.244,88.805 Z" />
            <path d="M268.415,100.756 L268.415,107.585 L261.585,107.585 L261.585,100.756 Z" />
            <path d="M282.073,100.756 L282.073,107.585 L275.244,107.585 L275.244,100.756 Z" />
            <path d="M282.073,112.707 L282.073,119.537 L275.244,119.537 L275.244,112.707 Z" />
            <path d="M282.073,124.659 L282.073,131.488 L275.244,131.488 L275.244,124.659 Z" />
        </g>
        <g id="Regular-S">
            <path d="M430.854,146 L499.146,146 C500.561,146 501.707,144.853 501.707,143.439 C501.707,142.025 500.561,140.878 499.146,140.878 L430.854,140.878 C429.439,140.878 428.293,142.025 428.293,143.439 C428.293,144.853 429.439,146 430.854,146 Z" />
            <path d="M448.78,129.78 L448.78,140.024 C448.78,140.251 448.691,140.468 448.53,140.628 C448.37,140.788 448.153,140.878 447.927,140.878 L441.098,140.878 C440.871,140.878 440.654,140.788 440.494,140.628 C440.334,140.468 440.244,140.251 440.244,140.024 L440.244,119.537 C440.244,119.31 440.334,119.093 440.494,118.933 C440.654,118.773 440.871,118.683 441.098,118.683 L447.927,118.683 C448.153,118.683 448.37,118.773 448.53,118.933 C448.691,119.093 448.78,119.31 448.78,119.537 L448.78,129.78 Z M453.902,129.78 L453.902,119.537 C453.902,117.952 453.273,116.432 452.152,115.311 C451.032,114.191 449.512,113.561 447.927,113.561 L441.098,113.561 C439.513,113.561 437.993,114.191 436.872,115.311 C435.752,116.432 435.122,117.952 435.122,119.537 L435.122,140.024 C435.122,141.609 435.752,143.129 436.872,144.25 C437.993,145.37 439.513,146 441.098,146 L447.927,146 C449.512,146 451.032,145.37 452.152,144.25 C453.273,143.129 453.902,141.609 453.902,140.024 L453.902,129.78 Z" />
            <path d="M444.512,132.341 L446.22,132.341 C447.634,132.341 448.78,131.195 448.78,129.78 C448.78,128.366 447.634,127.22 446.22,127.22 L444.512,127.22 C443.098,127.22 441.951,128.366 441.951,129.78 C441.951,131.195 443.098,132.341 444.512,132.341 Z" />
            <path d="M489.756,111 L489.756,140.024 C489.756,140.251 489.666,140.468 489.506,140.628 C489.346,140.788 489.129,140.878 488.902,140.878 L454.756,140.878 C454.53,140.878 454.313,140.788 454.152,140.628 C453.992,140.468 453.902,140.251 453.902,140.024 L453.902,81.976 C453.902,81.749 453.992,81.532 454.152,81.372 C454.313,81.212 454.53,81.122 454.756,81.122 L488.902,81.122 C489.129,81.122 489.346,81.212 489.506,81.372 C489.666,81.532 489.756,81.749 489.756,81.976 L489.756,111 Z M494.878,111 L494.878,81.976 C494.878,80.391 494.248,78.871 493.128,77.75 C492.007,76.63 490.487,76 488.902,76 L454.756,76 C453.171,76 451.651,76.63 450.531,77.75 C449.41,78.871 448.78,80.391 448.78,81.976 L448.78,140.024 C448.78,141.609 449.41,143.129 450.531,144.25 C451.651,145.37 453.171,146 454.756,146 L488.902,146 C490.487,146 492.007,145.37 493.128,144.25 C494.248,143.129 494.878,141.609 494.878,140.024 L494.878,111 Z" />
            <path d="M468.415,88.805 L468.415,95.634 L461.585,95.634 L461.585,88.805 Z" />
            <path d="M482.073,88.805 L482.073,95.634 L475.244,95.634 L475.244,88.805 Z" />
            <path d="M468.415,100.756 L468.415,107.585 L461.585,107.585 L461.585,100.756 Z" />
            <path d="M482.073,100.756 L482.073,107.585 L475.244,107.585 L475.244,100.756 Z" />
            <path d="M482.073,112.707 L482.073,119.537 L475.244,119.537 L475.244,112.707 Z" />
            <path d="M482.073,124.659 L482.073,131.488 L475.244,131.488 L475.244,124.659 Z" />
        </g>
        <g id="Black-S">
            <path d="M630.854,146 L699.146,146 C700.561,146 701.707,144.853 701.707,143.439 C701.707,142.025 700.561,140.878 699.146,140.878 L630.854,140.878 C629.439,140.878 628.293,142.025 628.293,143.439 C628.293,144.853 629.439,146 630.854,146 Z" />
            <path d="M648.781,129.78 L648.781,140.024 C648.781,140.251 648.691,140.468 648.53,140.628 C648.37,140.788 648.153,140.878 647.927,140.878 L641.098,140.878 C640.871,140.878 640.654,140.788 640.494,140.628 C640.334,140.468 640.244,140.251 640.244,140.024 L640.244,119.537 C640.244,119.31 640.334,119.093 640.494,118.933 C640.654,118.773 640.871,118.683 641.098,118.683 L647.927,118.683 C648.153,118.683 648.37,118.773 648.53,118.933 C648.691,119.093 648.781,119.31 648.781,119.537 L648.781,129.78 Z M653.902,129.78 L653.902,119.537 C653.902,117.952 653.273,116.432 652.152,115.311 C651.032,114.191 649.512,113.561 647.927,113.561 L641.098,113.561 C639.513,113.561 637.993,114.191 636.872,115.311 C635.752,116.432 635.122,117.952 635.122,119.537 L635.122,140.024 C635.122,141.609 635.752,143.129 636.872,144.25 C637.993,145.37 639.513,146 641.098,146 L647.927,146 C649.512,146 651.032,145.37 652.152,144.25 C653.273,143.129 653.902,141.609 653.902,140.024 L653.902,129.78 Z" />
            <path d="M644.512,132.341 L646.22,132.341 C647.634,132.341 648.781,131.195 648.781,129.78 C648.781,128.366 647.634,127.22 646.22,127.22 L644.512,127.22 C643.098,127.22 641.951,128.366 641.951,129.78 C641.951,131.195 643.098,132.341 644.512,132.341 Z" />
            <path d="M689.756,111 L689.756,140.024 C689.756,140.251 689.666,140.468 689.506,140.628 C689.346,140.788 689.129,140.878 688.902,140.878 L654.756,140.878 C654.53,140.878 654.313,140.788 654.152,140.628 C653.992,140.468 653.902,140.251 653.902,140.024 L653.902,81.976 C653.902,81.749 653.992,81.532 654.152,81.372 C654.313,81.212 654.53,81.122 654.756,81.122 L688.902,81.122 C689.129,81.122 689.346,81.212 689.506,81.372 C689.666,81.532 689.756,81.749 689.756,81.976 L689.756,111 Z M694.878,111 L694.878,81.976 C694.878,80.391 694.249,78.871 693.128,77.75 C692.007,76.63 690.487,76 688.902,76 L654.756,76 C653.171,76 651.651,76.63 650.531,77.75 C649.41,78.871 648.781,80.391 648.781,81.976 L648.781,140.024 C648.781,141.609 649.41,143.129 650.531,144.25 C651.651,145.37 653.171,146 654.756,146 L688.902,146 C690.487,146 692.007,145.37 693.128,144.25 C694.249,143.129 694.878,141.609 694.878,140.024 L694.878,111 Z" />
            <path d="M668.415,88.805 L668.415,95.634 L661.585,95.634 L661.585,88.805 Z" />
            <path d="M682.073,88.805 L682.073,95.634 L675.244,95.634 L675.244,88.805 Z" />
            <path d="M668.415,100.756 L668.415,107.585 L661.585,107.585 L661.585,100.756 Z" />
            <path d="M682.073,100.756 L682.073,107.585 L675.244,107.585 L675.244,100.756 Z" />
            <path d="M682.073,112.707 L682.073,119.537 L675.244,119.537 L675.244,112.707 Z" />
            <path d="M682.073,124.659 L682.073,131.488 L675.244,131.488 L675.244,124.659 Z" />
        </g>
    </g>
</svg>