<?xml version="1.0" encoding="UTF-8"?>
<svg height="600" width="800" xmlns="http://www.w3.org/2000/svg" xmlns:xlink="http://www.w3.org/1999/xlink">
    <g id="Notes" font-family="'LucidaGrande', 'Lucida Grande', sans-serif" font-size="13">
        <rect fill="white" height="600.0" width="800.0" x="0.0" y="0.0" />
        <g font-size="13">
            <text x="18.0" y="176.0">Small</text>
            <text x="18.0" y="376.0">Medium</text>
            <text x="18.0" y="576.0">Large</text>
        </g>
        <g font-size="9">
            <text x="250.0" y="30.0">Ultralight</text>
            <text x="450.0" y="30.0">Regular</text>
            <text x="650.0" y="30.0">Black</text>
            <text id="template-version" fill="#505050" text-anchor="end" x="785.0" y="575.0">Template v.3.0</text>
            <a href="https://github.com/swhitty/SwiftDraw">
                <text fill="#505050" text-anchor="end" x="785.0" y="590.0">https://github.com/swhitty/SwiftDraw</text>
            </a>
        </g>
    </g>
    <g id="Guides" stroke="rgb(39, 170, 225)" stroke-width="0.5">
        <path id="Capline-S" d="M18,76 l800,0" />
        <path id="H-reference" d="M85,145.755 L87.685,145.755 L113.369,79.287 L114.052,79.287 L114.052,76 L112.148,76 L85,145.755 Z M95.693,121.536 L130.996,121.536 L130.263,119.313 L96.474,119.313 L95.693,121.536 Z M139.15,145.755 L141.787,145.755 L114.638,76 L113.466,76 L113.466,79.287 L139.15,145.755 Z" stroke="none" />
        <path id="Baseline-S" d="M18,146 l800,0" />
        <path id="left-margin-Ultralight-S" d="M220,56 l0,110" />
        <path id="right-margin-Ultralight-S" d="M310,56 l0,110" />
        <path id="left-margin-Regular-S" d="M420,56 l0,110" />
        <path id="right-margin-Regular-S" d="M510,56 l0,110" />
        <path id="left-margin-Black-S" d="M620,56 l0,110" />
        <path id="right-margin-Black-S" d="M710,56 l0,110" />
        <path id="Capline-M" d="M18,276 l800,0" />
        <path id="Baseline-M" d="M18,346 l800,0" />
        <path id="Capline-L" d="M18,476 l800,0" />
        <path id="Baseline-L" d="M18,546 l800,0" />
    </g>
    <g id="Symbols">
        <g id="Ultralight-S">
            <path d="M283.721,112.628 L283.721,132.163 C283.721,133.511 284.814,134.605 286.163,134.605 C287.511,134.605 288.605,133.511 288.605,132.163 L288.605,112.628 C288.605,111.279 287.511,110.186 286.163,110.186 C284.814,110.186 283.721,111.279 283.721,112.628 Z M241.395,132.163 L241.395,143.558 C241.395,144.907 242.489,146 243.837,146 L286.163,146 C287.511,146 288.605,144.907 288.605,143.558 L288.605,132.163 C288.605,130.814 287.511,129.721 286.163,129.721 C284.814,129.721 283.721,130.814 283.721,132.163 L283.721,143.558 L286.163,141.116 L243.837,141.116 L246.279,143.558 L246.279,132.163 C246.279,130.814 245.186,129.721 243.837,129.721 C242.489,129.721 241.395,130.814 241.395,132.163 Z M243.837,129.721 L232.442,129.721 L234.884,132.163 L234.884,101.233 L233.986,103.124 L243.957,94.985 L240.977,95.068 L252.168,103.207 C253.19,103.951 254.61,103.791 255.442,102.841 L266.838,89.817 L263.162,89.817 L274.558,102.841 C275.39,103.791 276.81,103.951 277.832,103.207 L289.023,95.068 L286.043,94.985 L296.014,103.124 L295.116,101.233 L295.116,132.163 L297.558,129.721 L286.163,129.721 C284.814,129.721 283.721,130.814 283.721,132.163 C283.721,133.511 284.814,134.605 286.163,134.605 L297.558,134.605 C298.907,134.605 300,133.511 300,132.163 L300,101.233 C300,100.499 299.67,99.805 299.102,99.341 L289.131,91.201 C288.272,90.5 287.048,90.466 286.151,91.118 L274.959,99.258 L278.233,99.625 L266.838,86.601 C265.865,85.489 264.135,85.489 263.162,86.601 L251.767,99.625 L255.041,99.258 L243.849,91.118 C242.952,90.466 241.728,90.5 240.869,91.201 L230.898,99.341 C230.33,99.805 230,100.499 230,101.233 L230,132.163 C230,133.511 231.093,134.605 232.442,134.605 L243.837,134.605 C245.186,134.605 246.279,133.511 246.279,132.163 C246.279,130.814 245.186,129.721 243.837,129.721 Z M246.279,132.163 L246.279,112.628 C246.279,111.279 245.186,110.186 243.837,110.186 C242.489,110.186 241.395,111.279 241.395,112.628 L241.395,132.163 C241.395,133.511 242.489,134.605 243.837,134.605 C245.186,134.605 246.279,133.511 246.279,132.163 Z" />
            <path d="M256.86,90.651 L265,90.651 C266.349,90.651 267.442,89.558 267.442,88.209 C267.442,86.861 266.349,85.767 265,85.767 L256.86,85.767 C255.512,85.767 254.419,86.861 254.419,88.209 C254.419,89.558 255.512,90.651 256.86,90.651 Z M273.14,85.767 L265,85.767 C263.651,85.767 262.558,86.861 262.558,88.209 C262.558,89.558 263.651,90.651 265,90.651 L273.14,90.651 C274.488,90.651 275.581,89.558 275.581,88.209 C275.581,86.861 274.488,85.767 273.14,85.767 Z M263.162,86.601 L251.767,99.625 L255.041,99.258 L237.134,86.234 L237.882,89.301 L242.765,79.534 L240.581,80.884 L290.233,80.884 L287.979,79.381 L292.048,89.148 L292.866,86.234 L274.959,99.258 L278.233,99.625 L266.838,86.601 C265.865,85.489 264.135,85.489 263.162,86.601 Z M266.838,89.817 L263.162,89.817 L274.558,102.841 C275.39,103.791 276.81,103.951 277.832,103.207 L295.739,90.184 C296.653,89.519 296.991,88.314 296.556,87.27 L292.487,77.503 C292.107,76.593 291.218,76 290.233,76 L240.581,76 C239.656,76 238.811,76.523 238.397,77.35 L233.514,87.117 C232.98,88.185 233.296,89.482 234.261,90.184 L252.168,103.207 C253.19,103.951 254.61,103.791 255.442,102.841 L266.838,89.817 Z" />
        </g>
        <g id="Regular-S">
            <path d="M483.721,112.628 L483.721,132.163 C483.721,133.511 484.814,134.605 486.163,134.605 C487.511,134.605 488.605,133.511 488.605,132.163 L488.605,112.628 C488.605,111.279 487.511,110.186 486.163,110.186 C484.814,110.186 483.721,111.279 483.721,112.628 Z M441.395,132.163 L441.395,143.558 C441.395,144.907 442.489,146 443.837,146 L486.163,146 C487.511,146 488.605,144.907 488.605,143.558 L488.605,132.163 C488.605,130.814 487.511,129.721 486.163,129.721 C484.814,129.721 483.721,130.814 483.721,132.163 L483.721,143.558 L486.163,141.116 L443.837,141.116 L446.279,143.558 L446.279,132.163 C446.279,130.814 445.186,129.721 443.837,129.721 C442.489,129.721 441.395,130.814 441.395,132.163 Z M443.837,129.721 L432.442,129.721 L434.884,132.163 L434.884,101.233 L433.986,103.124 L443.957,94.985 L440.977,95.068 L452.168,103.207 C453.19,103.951 454.61,103.791 455.442,102.841 L466.838,89.817 L463.162,89.817 L474.558,102.841 C475.39,103.791 476.81,103.951 477.832,103.207 L489.023,95.068 L486.043,94.985 L496.014,103.124 L495.116,101.233 L495.116,132.163 L497.558,129.721 L486.163,129.721 C484.814,129.721 483.721,130.814 483.721,132.163 C483.721,133.511 484.814,134.605 486.163,134.605 L497.558,134.605 C498.907,134.605 500,133.511 500,132.163 L500,101.233 C500,100.499 499.67,99.805 499.102,99.341 L489.131,91.201 C488.272,90.5 487.048,90.466 486.151,91.118 L474.959,99.258 L478.233,99.625 L466.838,86.601 C465.865,85.489 464.135,85.489 463.162,86.601 L451.767,99.625 L455.041,99.258 L443.849,91.118 C442.952,90.466 441.728,90.5 440.869,91.201 L430.898,99.341 C430.33,99.805 430,100.499 430,101.233 L430,132.163 C430,133.511 431.093,134.605 432.442,134.605 L443.837,134.605 C445.186,134.605 446.279,133.511 446.279,132.163 C446.279,130.814 445.186,129.721 443.837,129.721 Z M446.279,132.163 L446.279,112.628 C446.279,111.279 445.186,110.186 443.837,110.186 C442.489,110.186 441.395,111.279 441.395,112.628 L441.395,132.163 C441.395,133.511 442.489,134.605 443.837,134.605 C445.186,134.605 446.279,133.511 446.279,132.163 Z" />
            <path d="M456.86,90.651 L465,90.651 C466.349,90.651 467.442,89.558 467.442,88.209 C467.442,86.861 466.349,85.767 465,85.767 L456.86,85.767 C455.512,85.767 454.419,86.861 454.419,88.209 C454.419,89.558 455.512,90.651 456.86,90.651 Z M473.14,85.767 L465,85.767 C463.651,85.767 462.558,86.861 462.558,88.209 C462.558,89.558 463.651,90.651 465,90.651 L473.14,90.651 C474.488,90.651 475.581,89.558 475.581,88.209 C475.581,86.861 474.488,85.767 473.14,85.767 Z M463.162,86.601 L451.767,99.625 L455.041,99.258 L437.134,86.234 L437.882,89.301 L442.765,79.534 L440.581,80.884 L490.233,80.884 L487.979,79.381 L492.048,89.148 L492.866,86.234 L474.959,99.258 L478.233,99.625 L466.838,86.601 C465.865,85.489 464.135,85.489 463.162,86.601 Z M466.838,89.817 L463.162,89.817 L474.558,102.841 C475.39,103.791 476.81,103.951 477.832,103.207 L495.739,90.184 C496.653,89.519 496.991,88.314 496.556,87.27 L492.487,77.503 C492.107,76.593 491.218,76 490.233,76 L440.581,76 C439.656,76 438.811,76.523 438.397,77.35 L433.514,87.117 C432.98,88.185 433.296,89.482 434.261,90.184 L452.168,103.207 C453.19,103.951 454.61,103.791 455.442,102.841 L466.838,89.817 Z" />
        </g>
        <g id="Black-S">
            <path d="M683.721,112.628 L683.721,132.163 C683.721,133.511 684.814,134.605 686.163,134.605 C687.511,134.605 688.605,133.511 688.605,132.163 L688.605,112.628 C688.605,111.279 687.511,110.186 686.163,110.186 C684.814,110.186 683.721,111.279 683.721,112.628 Z M641.395,132.163 L641.395,143.558 C641.395,144.907 642.489,146 643.837,146 L686.163,146 C687.511,146 688.605,144.907 688.605,143.558 L688.605,132.163 C688.605,130.814 687.511,129.721 686.163,129.721 C684.814,129.721 683.721,130.814 683.721,132.163 L683.721,143.558 L686.163,141.116 L643.837,141.116 L646.279,143.558 L646.279,132.163 C646.279,130.814 645.186,129.721 643.837,129.721 C642.489,129.721 641.395,130.814 641.395,132.163 Z M643.837,129.721 L632.442,129.721 L634.884,132.163 L634.884,101.233 L633.986,103.124 L643.957,94.985 L640.977,95.068 L652.168,103.207 C653.19,103.951 654.61,103.791 655.442,102.841 L666.838,89.817 L663.162,89.817 L674.558,102.841 C675.39,103.791 676.81,103.951 677.832,103.207 L689.023,95.068 L686.043,94.985 L696.014,103.124 L695.116,101.233 L695.116,132.163 L697.558,129.721 L686.163,129.721 C684.814,129.721 683.721,130.814 683.721,132.163 C683.721,133.511 684.814,134.605 686.163,134.605 L697.558,134.605 C698.907,134.605 700,133.511 700,132.163 L700,101.233 C700,100.499 699.67,99.805 699.102,99.341 L689.131,91.201 C688.272,90.5 687.048,90.466 686.151,91.118 L674.959,99.258 L678.233,99.625 L666.838,86.601 C665.865,85.489 664.135,85.489 663.162,86.601 L651.767,99.625 L655.041,99.258 L643.849,91.118 C642.952,90.466 641.728,90.5 640.869,91.201 L630.898,99.341 C630.33,99.805 630,100.499 630,101.233 L630,132.163 C630,133.511 631.093,134.605 632.442,134.605 L643.837,134.605 C645.186,134.605 646.279,133.511 646.279,132.163 C646.279,130.814 645.186,129.721 643.837,129.721 Z M646.279,132.163 L646.279,112.628 C646.279,111.279 645.186,110.186 643.837,110.186 C642.489,110.186 641.395,111.279 641.395,112.628 L641.395,132.163 C641.395,133.511 642.489,134.605 643.837,134.605 C645.186,134.605 646.279,133.511 646.279,132.163 Z" />
            <path d="M656.86,90.651 L665,90.651 C666.349,90.651 667.442,89.558 667.442,88.209 C667.442,86.861 666.349,85.767 665,85.767 L656.86,85.767 C655.512,85.767 654.419,86.861 654.419,88.209 C654.419,89.558 655.512,90.651 656.86,90.651 Z M673.14,85.767 L665,85.767 C663.651,85.767 662.558,86.861 662.558,88.209 C662.558,89.558 663.651,90.651 665,90.651 L673.14,90.651 C674.488,90.651 675.581,89.558 675.581,88.209 C675.581,86.861 674.488,85.767 673.14,85.767 Z M663.162,86.601 L651.767,99.625 L655.041,99.258 L637.134,86.234 L637.882,89.301 L642.765,79.534 L640.581,80.884 L690.233,80.884 L687.979,79.381 L692.048,89.148 L692.866,86.234 L674.959,99.258 L678.233,99.625 L666.838,86.601 C665.865,85.489 664.135,85.489 663.162,86.601 Z M666.838,89.817 L663.162,89.817 L674.558,102.841 C675.39,103.791 676.81,103.951 677.832,103.207 L695.739,90.184 C696.653,89.519 696.991,88.314 696.556,87.27 L692.487,77.503 C692.107,76.593 691.218,76 690.233,76 L640.581,76 C639.656,76 638.811,76.523 638.397,77.35 L633.514,87.117 C632.98,88.185 633.296,89.482 634.261,90.184 L652.168,103.207 C653.19,103.951 654.61,103.791 655.442,102.841 L666.838,89.817 Z" />
        </g>
    </g>
</svg>