<?xml version="1.0" encoding="UTF-8"?>
<svg height="600" width="800" xmlns="http://www.w3.org/2000/svg" xmlns:xlink="http://www.w3.org/1999/xlink">
    <g id="Notes" font-family="'LucidaGrande', 'Lucida Grande', sans-serif" font-size="13">
        <rect fill="white" height="600.0" width="800.0" x="0.0" y="0.0" />
        <g font-size="13">
            <text x="18.0" y="176.0">Small</text>
            <text x="18.0" y="376.0">Medium</text>
            <text x="18.0" y="576.0">Large</text>
        </g>
        <g font-size="9">
            <text x="250.0" y="30.0">Ultralight</text>
            <text x="450.0" y="30.0">Regular</text>
            <text x="650.0" y="30.0">Black</text>
            <text id="template-version" fill="#505050" text-anchor="end" x="785.0" y="575.0">Template v.3.0</text>
            <a href="https://github.com/swhitty/SwiftDraw">
                <text fill="#505050" text-anchor="end" x="785.0" y="590.0">https://github.com/swhitty/SwiftDraw</text>
            </a>
        </g>
    </g>
    <g id="Guides" stroke="rgb(39, 170, 225)" stroke-width="0.5">
        <path id="Capline-S" d="M18,76 l800,0" />
        <path id="H-reference" d="M85,145.755 L87.685,145.755 L113.369,79.287 L114.052,79.287 L114.052,76 L112.148,76 L85,145.755 Z M95.693,121.536 L130.996,121.536 L130.263,119.313 L96.474,119.313 L95.693,121.536 Z M139.15,145.755 L141.787,145.755 L114.638,76 L113.466,76 L113.466,79.287 L139.15,145.755 Z" stroke="none" />
        <path id="Baseline-S" d="M18,146 l800,0" />
        <path id="left-margin-Ultralight-S" d="M221,56 l0,110" />
        <path id="right-margin-Ultralight-S" d="M309,56 l0,110" />
        <path id="left-margin-Regular-S" d="M421,56 l0,110" />
        <path id="right-margin-Regular-S" d="M509,56 l0,110" />
        <path id="left-margin-Black-S" d="M621,56 l0,110" />
        <path id="right-margin-Black-S" d="M709,56 l0,110" />
        <path id="Capline-M" d="M18,276 l800,0" />
        <path id="Baseline-M" d="M18,346 l800,0" />
        <path id="Capline-L" d="M18,476 l800,0" />
        <path id="Baseline-L" d="M18,546 l800,0" />
    </g>
    <g id="Symbols">
        <g id="Ultralight-S">
            <path d="M243.136,120.253 C243.136,121.057 243.136,121.057 243.136,124.678 C243.136,129.506 243.136,129.506 243.136,136.345 C243.136,149.218 260.837,149.218 260.837,136.345 C260.837,129.506 260.837,129.506 260.837,124.678 C260.837,121.057 260.837,121.057 260.837,120.253 C260.837,118.92 259.757,117.839 258.424,117.839 C257.091,117.839 256.01,118.92 256.01,120.253 C256.01,121.057 256.01,121.057 256.01,124.678 C256.01,129.506 256.01,129.506 256.01,136.345 C256.01,142.782 247.964,142.782 247.964,136.345 C247.964,129.506 247.964,129.506 247.964,124.678 C247.964,121.057 247.964,121.057 247.964,120.253 C247.964,118.92 246.883,117.839 245.55,117.839 C244.217,117.839 243.136,118.92 243.136,120.253 Z" />
            <path d="M258.424,129.103 L245.55,129.103 C244.217,129.103 243.136,130.184 243.136,131.517 C243.136,132.85 244.217,133.931 245.55,133.931 L258.424,133.931 C259.757,133.931 260.837,132.85 260.837,131.517 C260.837,130.184 259.757,129.103 258.424,129.103 Z" />
            <path d="M247.964,81.632 C247.964,81.188 248.324,80.828 248.769,80.828 L275.537,80.828 C275.602,80.828 275.587,80.823 275.523,80.776 C278.298,82.846 280.825,87.199 281.776,94.805 C282.717,102.339 280.977,110.434 278.102,117.5 C278.021,117.701 277.806,117.839 277.52,117.839 L245.55,117.839 L247.964,120.253 L247.964,81.632 Z M243.136,81.632 L243.136,120.253 L243.136,122.667 L245.55,122.667 L277.52,122.667 C279.736,122.667 281.739,121.373 282.574,119.319 C285.732,111.557 287.631,102.725 286.566,94.206 C285.453,85.299 282.24,79.763 278.409,76.906 C277.572,76.281 276.578,76 275.537,76 L248.769,76 C245.658,76 243.136,78.522 243.136,81.632 Z" />
            <path d="M255.205,88.069 C255.205,86.291 256.646,84.851 258.424,84.851 C260.201,84.851 261.642,86.291 261.642,88.069 C261.642,89.846 260.201,91.287 258.424,91.287 C256.646,91.287 255.205,89.846 255.205,88.069 Z" />
        </g>
        <g id="Regular-S">
            <path d="M443.136,120.253 C443.136,121.057 443.136,121.057 443.136,124.678 C443.136,129.506 443.136,129.506 443.136,136.345 C443.136,149.218 460.837,149.218 460.837,136.345 C460.837,129.506 460.837,129.506 460.837,124.678 C460.837,121.057 460.837,121.057 460.837,120.253 C460.837,118.92 459.757,117.839 458.424,117.839 C457.091,117.839 456.01,118.92 456.01,120.253 C456.01,121.057 456.01,121.057 456.01,124.678 C456.01,129.506 456.01,129.506 456.01,136.345 C456.01,142.782 447.964,142.782 447.964,136.345 C447.964,129.506 447.964,129.506 447.964,124.678 C447.964,121.057 447.964,121.057 447.964,120.253 C447.964,118.92 446.883,117.839 445.55,117.839 C444.217,117.839 443.136,118.92 443.136,120.253 Z" />
            <path d="M458.424,129.103 L445.55,129.103 C444.217,129.103 443.136,130.184 443.136,131.517 C443.136,132.85 444.217,133.931 445.55,133.931 L458.424,133.931 C459.757,133.931 460.837,132.85 460.837,131.517 C460.837,130.184 459.757,129.103 458.424,129.103 Z" />
            <path d="M447.964,81.632 C447.964,81.188 448.324,80.828 448.769,80.828 L475.537,80.828 C475.602,80.828 475.587,80.823 475.523,80.776 C478.298,82.846 480.825,87.199 481.776,94.805 C482.717,102.339 480.977,110.434 478.102,117.5 C478.021,117.701 477.806,117.839 477.52,117.839 L445.55,117.839 L447.964,120.253 L447.964,81.632 Z M443.136,81.632 L443.136,120.253 L443.136,122.667 L445.55,122.667 L477.52,122.667 C479.736,122.667 481.739,121.373 482.574,119.319 C485.732,111.557 487.631,102.725 486.566,94.206 C485.453,85.299 482.24,79.763 478.409,76.906 C477.572,76.281 476.578,76 475.537,76 L448.769,76 C445.658,76 443.136,78.522 443.136,81.632 Z" />
            <path d="M455.205,88.069 C455.205,86.291 456.646,84.851 458.424,84.851 C460.201,84.851 461.642,86.291 461.642,88.069 C461.642,89.846 460.201,91.287 458.424,91.287 C456.646,91.287 455.205,89.846 455.205,88.069 Z" />
        </g>
        <g id="Black-S">
            <path d="M643.136,120.253 C643.136,121.057 643.136,121.057 643.136,124.678 C643.136,129.506 643.136,129.506 643.136,136.345 C643.136,149.218 660.837,149.218 660.837,136.345 C660.837,129.506 660.837,129.506 660.837,124.678 C660.837,121.057 660.837,121.057 660.837,120.253 C660.837,118.92 659.757,117.839 658.424,117.839 C657.091,117.839 656.01,118.92 656.01,120.253 C656.01,121.057 656.01,121.057 656.01,124.678 C656.01,129.506 656.01,129.506 656.01,136.345 C656.01,142.782 647.964,142.782 647.964,136.345 C647.964,129.506 647.964,129.506 647.964,124.678 C647.964,121.057 647.964,121.057 647.964,120.253 C647.964,118.92 646.883,117.839 645.55,117.839 C644.217,117.839 643.136,118.92 643.136,120.253 Z" />
            <path d="M658.424,129.103 L645.55,129.103 C644.217,129.103 643.136,130.184 643.136,131.517 C643.136,132.85 644.217,133.931 645.55,133.931 L658.424,133.931 C659.757,133.931 660.837,132.85 660.837,131.517 C660.837,130.184 659.757,129.103 658.424,129.103 Z" />
            <path d="M647.964,81.632 C647.964,81.188 648.324,80.828 648.768,80.828 L675.537,80.828 C675.602,80.828 675.587,80.823 675.523,80.776 C678.298,82.846 680.825,87.199 681.776,94.805 C682.717,102.339 680.977,110.434 678.102,117.5 C678.021,117.701 677.806,117.839 677.52,117.839 L645.55,117.839 L647.964,120.253 L647.964,81.632 Z M643.136,81.632 L643.136,120.253 L643.136,122.667 L645.55,122.667 L677.52,122.667 C679.736,122.667 681.739,121.373 682.574,119.319 C685.732,111.557 687.631,102.725 686.566,94.206 C685.452,85.299 682.24,79.763 678.409,76.906 C677.571,76.281 676.578,76 675.537,76 L648.768,76 C645.658,76 643.136,78.522 643.136,81.632 Z" />
            <path d="M655.205,88.069 C655.205,86.291 656.646,84.851 658.424,84.851 C660.201,84.851 661.642,86.291 661.642,88.069 C661.642,89.846 660.201,91.287 658.424,91.287 C656.646,91.287 655.205,89.846 655.205,88.069 Z" />
        </g>
    </g>
</svg>