<?xml version="1.0" encoding="UTF-8"?>
<svg height="600" width="800" xmlns="http://www.w3.org/2000/svg" xmlns:xlink="http://www.w3.org/1999/xlink">
    <g id="Notes" font-family="'LucidaGrande', 'Lucida Grande', sans-serif" font-size="13">
        <rect fill="white" height="600.0" width="800.0" x="0.0" y="0.0" />
        <g font-size="13">
            <text x="18.0" y="176.0">Small</text>
            <text x="18.0" y="376.0">Medium</text>
            <text x="18.0" y="576.0">Large</text>
        </g>
        <g font-size="9">
            <text x="250.0" y="30.0">Ultralight</text>
            <text x="450.0" y="30.0">Regular</text>
            <text x="650.0" y="30.0">Black</text>
            <text id="template-version" fill="#505050" text-anchor="end" x="785.0" y="575.0">Template v.3.0</text>
            <a href="https://github.com/swhitty/SwiftDraw">
                <text fill="#505050" text-anchor="end" x="785.0" y="590.0">https://github.com/swhitty/SwiftDraw</text>
            </a>
        </g>
    </g>
    <g id="Guides" stroke="rgb(39, 170, 225)" stroke-width="0.5">
        <path id="Capline-S" d="M18,76 l800,0" />
        <path id="H-reference" d="M85,145.755 L87.685,145.755 L113.369,79.287 L114.052,79.287 L114.052,76 L112.148,76 L85,145.755 Z M95.693,121.536 L130.996,121.536 L130.263,119.313 L96.474,119.313 L95.693,121.536 Z M139.15,145.755 L141.787,145.755 L114.638,76 L113.466,76 L113.466,79.287 L139.15,145.755 Z" stroke="none" />
        <path id="Baseline-S" d="M18,146 l800,0" />
        <path id="left-margin-Ultralight-S" d="M221,56 l0,110" />
        <path id="right-margin-Ultralight-S" d="M309,56 l0,110" />
        <path id="left-margin-Regular-S" d="M421,56 l0,110" />
        <path id="right-margin-Regular-S" d="M509,56 l0,110" />
        <path id="left-margin-Black-S" d="M621,56 l0,110" />
        <path id="right-margin-Black-S" d="M709,56 l0,110" />
        <path id="Capline-M" d="M18,276 l800,0" />
        <path id="Baseline-M" d="M18,346 l800,0" />
        <path id="Capline-L" d="M18,476 l800,0" />
        <path id="Baseline-L" d="M18,546 l800,0" />
    </g>
    <g id="Symbols">
        <g id="Ultralight-S">
            <path d="M290.233,98.624 L290.233,81.698 C290.233,78.551 287.682,76 284.535,76 L238.953,76 C235.807,76 233.256,78.551 233.256,81.698 L233.256,140.302 C233.256,143.449 235.807,146 238.953,146 L255.233,146 C256.581,146 257.674,144.907 257.674,143.558 C257.674,142.21 256.581,141.116 255.233,141.116 L238.953,141.116 C238.504,141.116 238.14,140.752 238.14,140.302 L238.14,81.698 C238.14,81.248 238.504,80.884 238.953,80.884 L284.535,80.884 C284.984,80.884 285.349,81.248 285.349,81.698 L285.349,98.624 C285.349,99.973 286.442,101.066 287.791,101.066 C289.139,101.066 290.233,99.973 290.233,98.624 Z" />
            <path d="M248.721,97.163 L269.884,97.163 C271.232,97.163 272.326,96.07 272.326,94.721 C272.326,93.372 271.232,92.279 269.884,92.279 L248.721,92.279 C247.372,92.279 246.279,93.372 246.279,94.721 C246.279,96.07 247.372,97.163 248.721,97.163 Z" />
            <path d="M248.721,108.558 L256.86,108.558 C258.209,108.558 259.302,107.465 259.302,106.116 C259.302,104.768 258.209,103.674 256.86,103.674 L248.721,103.674 C247.372,103.674 246.279,104.768 246.279,106.116 C246.279,107.465 247.372,108.558 248.721,108.558 Z" />
            <path d="M278.023,141.116 C270.381,141.116 264.186,134.921 264.186,127.279 C264.186,119.637 270.381,113.442 278.023,113.442 C285.665,113.442 291.86,119.637 291.86,127.279 C291.86,134.921 285.665,141.116 278.023,141.116 Z M278.023,146 C288.362,146 296.744,137.618 296.744,127.279 C296.744,116.94 288.362,108.558 278.023,108.558 C267.684,108.558 259.302,116.94 259.302,127.279 C259.302,137.618 267.684,146 278.023,146 Z" />
            <path d="M264.901,117.61 L287.692,140.401 C288.646,141.355 290.192,141.355 291.145,140.401 C292.099,139.447 292.099,137.901 291.145,136.948 L268.355,114.157 C267.401,113.203 265.855,113.203 264.901,114.157 C263.948,115.111 263.948,116.657 264.901,117.61 Z" />
            <path d="M264.186,127.279 C264.186,119.637 270.381,113.442 278.023,113.442 C279.372,113.442 280.465,112.349 280.465,111 C280.465,109.651 279.372,108.558 278.023,108.558 C267.684,108.558 259.302,116.94 259.302,127.279 C259.302,128.628 260.396,129.721 261.744,129.721 C263.093,129.721 264.186,128.628 264.186,127.279 Z" />
            <path d="M278.023,146 C288.362,146 296.744,137.618 296.744,127.279 C296.744,125.93 295.651,124.837 294.302,124.837 C292.954,124.837 291.86,125.93 291.86,127.279 C291.86,134.921 285.665,141.116 278.023,141.116 C276.675,141.116 275.581,142.21 275.581,143.558 C275.581,144.907 276.675,146 278.023,146 Z" />
        </g>
        <g id="Regular-S">
            <path d="M490.233,98.624 L490.233,81.698 C490.233,78.551 487.682,76 484.535,76 L438.953,76 C435.807,76 433.256,78.551 433.256,81.698 L433.256,140.302 C433.256,143.449 435.807,146 438.953,146 L455.233,146 C456.581,146 457.674,144.907 457.674,143.558 C457.674,142.21 456.581,141.116 455.233,141.116 L438.953,141.116 C438.504,141.116 438.14,140.752 438.14,140.302 L438.14,81.698 C438.14,81.248 438.504,80.884 438.953,80.884 L484.535,80.884 C484.984,80.884 485.349,81.248 485.349,81.698 L485.349,98.624 C485.349,99.973 486.442,101.066 487.791,101.066 C489.139,101.066 490.233,99.973 490.233,98.624 Z" />
            <path d="M448.721,97.163 L469.884,97.163 C471.232,97.163 472.326,96.07 472.326,94.721 C472.326,93.372 471.232,92.279 469.884,92.279 L448.721,92.279 C447.372,92.279 446.279,93.372 446.279,94.721 C446.279,96.07 447.372,97.163 448.721,97.163 Z" />
            <path d="M448.721,108.558 L456.86,108.558 C458.209,108.558 459.302,107.465 459.302,106.116 C459.302,104.768 458.209,103.674 456.86,103.674 L448.721,103.674 C447.372,103.674 446.279,104.768 446.279,106.116 C446.279,107.465 447.372,108.558 448.721,108.558 Z" />
            <path d="M478.023,141.116 C470.381,141.116 464.186,134.921 464.186,127.279 C464.186,119.637 470.381,113.442 478.023,113.442 C485.665,113.442 491.86,119.637 491.86,127.279 C491.86,134.921 485.665,141.116 478.023,141.116 Z M478.023,146 C488.362,146 496.744,137.618 496.744,127.279 C496.744,116.94 488.362,108.558 478.023,108.558 C467.684,108.558 459.302,116.94 459.302,127.279 C459.302,137.618 467.684,146 478.023,146 Z" />
            <path d="M464.901,117.61 L487.692,140.401 C488.646,141.355 490.192,141.355 491.145,140.401 C492.099,139.447 492.099,137.901 491.145,136.948 L468.355,114.157 C467.401,113.203 465.855,113.203 464.901,114.157 C463.948,115.111 463.948,116.657 464.901,117.61 Z" />
            <path d="M464.186,127.279 C464.186,119.637 470.381,113.442 478.023,113.442 C479.372,113.442 480.465,112.349 480.465,111 C480.465,109.651 479.372,108.558 478.023,108.558 C467.684,108.558 459.302,116.94 459.302,127.279 C459.302,128.628 460.396,129.721 461.744,129.721 C463.093,129.721 464.186,128.628 464.186,127.279 Z" />
            <path d="M478.023,146 C488.362,146 496.744,137.618 496.744,127.279 C496.744,125.93 495.651,124.837 494.302,124.837 C492.954,124.837 491.86,125.93 491.86,127.279 C491.86,134.921 485.665,141.116 478.023,141.116 C476.675,141.116 475.581,142.21 475.581,143.558 C475.581,144.907 476.675,146 478.023,146 Z" />
        </g>
        <g id="Black-S">
            <path d="M690.233,98.624 L690.233,81.698 C690.233,78.551 687.682,76 684.535,76 L638.953,76 C635.807,76 633.256,78.551 633.256,81.698 L633.256,140.302 C633.256,143.449 635.807,146 638.953,146 L655.233,146 C656.581,146 657.674,144.907 657.674,143.558 C657.674,142.21 656.581,141.116 655.233,141.116 L638.953,141.116 C638.504,141.116 638.14,140.752 638.14,140.302 L638.14,81.698 C638.14,81.248 638.504,80.884 638.953,80.884 L684.535,80.884 C684.984,80.884 685.349,81.248 685.349,81.698 L685.349,98.624 C685.349,99.973 686.442,101.066 687.791,101.066 C689.139,101.066 690.233,99.973 690.233,98.624 Z" />
            <path d="M648.721,97.163 L669.884,97.163 C671.232,97.163 672.326,96.07 672.326,94.721 C672.326,93.372 671.232,92.279 669.884,92.279 L648.721,92.279 C647.372,92.279 646.279,93.372 646.279,94.721 C646.279,96.07 647.372,97.163 648.721,97.163 Z" />
            <path d="M648.721,108.558 L656.86,108.558 C658.209,108.558 659.302,107.465 659.302,106.116 C659.302,104.768 658.209,103.674 656.86,103.674 L648.721,103.674 C647.372,103.674 646.279,104.768 646.279,106.116 C646.279,107.465 647.372,108.558 648.721,108.558 Z" />
            <path d="M678.023,141.116 C670.381,141.116 664.186,134.921 664.186,127.279 C664.186,119.637 670.381,113.442 678.023,113.442 C685.665,113.442 691.86,119.637 691.86,127.279 C691.86,134.921 685.665,141.116 678.023,141.116 Z M678.023,146 C688.362,146 696.744,137.618 696.744,127.279 C696.744,116.94 688.362,108.558 678.023,108.558 C667.684,108.558 659.302,116.94 659.302,127.279 C659.302,137.618 667.684,146 678.023,146 Z" />
            <path d="M664.901,117.61 L687.692,140.401 C688.646,141.355 690.192,141.355 691.145,140.401 C692.099,139.447 692.099,137.901 691.145,136.948 L668.355,114.157 C667.401,113.203 665.855,113.203 664.901,114.157 C663.948,115.111 663.948,116.657 664.901,117.61 Z" />
            <path d="M664.186,127.279 C664.186,119.637 670.381,113.442 678.023,113.442 C679.372,113.442 680.465,112.349 680.465,111 C680.465,109.651 679.372,108.558 678.023,108.558 C667.684,108.558 659.302,116.94 659.302,127.279 C659.302,128.628 660.396,129.721 661.744,129.721 C663.093,129.721 664.186,128.628 664.186,127.279 Z" />
            <path d="M678.023,146 C688.362,146 696.744,137.618 696.744,127.279 C696.744,125.93 695.651,124.837 694.302,124.837 C692.954,124.837 691.86,125.93 691.86,127.279 C691.86,134.921 685.665,141.116 678.023,141.116 C676.675,141.116 675.581,142.21 675.581,143.558 C675.581,144.907 676.675,146 678.023,146 Z" />
        </g>
    </g>
</svg>