<?xml version="1.0" encoding="UTF-8"?>
<svg height="600" width="800" xmlns="http://www.w3.org/2000/svg" xmlns:xlink="http://www.w3.org/1999/xlink">
    <g id="Notes" font-family="'LucidaGrande', 'Lucida Grande', sans-serif" font-size="13">
        <rect fill="white" height="600.0" width="800.0" x="0.0" y="0.0" />
        <g font-size="13">
            <text x="18.0" y="176.0">Small</text>
            <text x="18.0" y="376.0">Medium</text>
            <text x="18.0" y="576.0">Large</text>
        </g>
        <g font-size="9">
            <text x="250.0" y="30.0">Ultralight</text>
            <text x="450.0" y="30.0">Regular</text>
            <text x="650.0" y="30.0">Black</text>
            <text id="template-version" fill="#505050" text-anchor="end" x="785.0" y="575.0">Template v.3.0</text>
            <a href="https://github.com/swhitty/SwiftDraw">
                <text fill="#505050" text-anchor="end" x="785.0" y="590.0">https://github.com/swhitty/SwiftDraw</text>
            </a>
        </g>
    </g>
    <g id="Guides" stroke="rgb(39, 170, 225)" stroke-width="0.5">
        <path id="Capline-S" d="M18,76 l800,0" />
        <path id="H-reference" d="M85,145.755 L87.685,145.755 L113.369,79.287 L114.052,79.287 L114.052,76 L112.148,76 L85,145.755 Z M95.693,121.536 L130.996,121.536 L130.263,119.313 L96.474,119.313 L95.693,121.536 Z M139.15,145.755 L141.787,145.755 L114.638,76 L113.466,76 L113.466,79.287 L139.15,145.755 Z" stroke="none" />
        <path id="Baseline-S" d="M18,146 l800,0" />
        <path id="left-margin-Ultralight-S" d="M218.693,56 l0,110" />
        <path id="right-margin-Ultralight-S" d="M311.307,56 l0,110" />
        <path id="left-margin-Regular-S" d="M418.693,56 l0,110" />
        <path id="right-margin-Regular-S" d="M511.307,56 l0,110" />
        <path id="left-margin-Black-S" d="M618.693,56 l0,110" />
        <path id="right-margin-Black-S" d="M711.307,56 l0,110" />
        <path id="Capline-M" d="M18,276 l800,0" />
        <path id="Baseline-M" d="M18,346 l800,0" />
        <path id="Capline-L" d="M18,476 l800,0" />
        <path id="Baseline-L" d="M18,546 l800,0" />
    </g>
    <g id="Symbols">
        <g id="Ultralight-S">
            <path d="M301.307,104.571 C301.307,101.252 295.743,97.31 282.91,89.755 C275.538,85.415 267.124,80.799 259.395,76.712 C257.237,75.571 254.626,75.819 252.706,77.328 L229.708,95.397 C228.554,96.304 228.354,97.974 229.261,99.128 C230.167,100.281 231.837,100.482 232.991,99.575 L255.989,81.506 C256.266,81.288 256.618,81.254 256.911,81.409 C264.575,85.461 272.926,90.043 280.214,94.334 C285.126,97.225 289.124,99.738 291.972,101.756 C293.501,102.84 294.669,103.761 295.428,104.481 C295.763,104.798 295.995,105.055 296.112,105.223 C296.069,105.161 295.994,104.983 295.994,104.571 C295.994,106.038 297.183,107.227 298.651,107.227 C300.118,107.227 301.307,106.038 301.307,104.571 Z" />
            <path d="M234.006,100.413 C234.006,99.806 234.603,99.348 235.208,99.505 C258.244,105.481 280.372,109.081 294.067,106.763 C295.049,106.597 295.994,107.304 295.994,108.026 L295.994,136.632 C295.994,137.103 295.625,137.491 295.155,137.516 L234.938,140.685 C234.432,140.712 234.006,140.308 234.006,139.801 L234.006,100.413 Z M228.693,100.413 L228.693,139.801 C228.693,143.352 231.671,146.178 235.217,145.991 L295.434,142.822 C298.727,142.649 301.307,139.929 301.307,136.632 L301.307,108.026 C301.307,103.858 297.266,100.833 293.18,101.524 C280.512,103.668 258.803,100.136 236.542,94.362 C232.583,93.335 228.693,96.319 228.693,100.413 Z" />
            <path d="M240.205,113.426 C240.205,111.47 241.791,109.884 243.747,109.884 C245.703,109.884 247.289,111.47 247.289,113.426 C247.289,115.382 245.703,116.968 243.747,116.968 C241.791,116.968 240.205,115.382 240.205,113.426 Z" />
            <path d="M263.229,116.968 C263.229,115.012 264.815,113.426 266.771,113.426 C268.727,113.426 270.313,115.012 270.313,116.968 C270.313,118.925 268.727,120.51 266.771,120.51 C264.815,120.51 263.229,118.925 263.229,116.968 Z" />
            <path d="M279.169,125.824 C279.169,123.867 280.755,122.282 282.711,122.282 C284.667,122.282 286.253,123.867 286.253,125.824 C286.253,127.78 284.667,129.366 282.711,129.366 C280.755,129.366 279.169,127.78 279.169,125.824 Z" />
            <path d="M250.831,125.824 C250.831,123.867 252.417,122.282 254.374,122.282 C256.33,122.282 257.916,123.867 257.916,125.824 C257.916,127.78 256.33,129.366 254.374,129.366 C252.417,129.366 250.831,127.78 250.831,125.824 Z" />
        </g>
        <g id="Regular-S">
            <path d="M501.307,104.571 C501.307,101.252 495.743,97.31 482.91,89.755 C475.538,85.415 467.124,80.799 459.395,76.712 C457.237,75.571 454.626,75.819 452.706,77.328 L429.708,95.397 C428.554,96.304 428.354,97.974 429.261,99.128 C430.167,100.281 431.837,100.482 432.991,99.575 L455.989,81.506 C456.266,81.288 456.618,81.254 456.911,81.409 C464.575,85.461 472.926,90.043 480.214,94.334 C485.126,97.225 489.124,99.738 491.972,101.756 C493.501,102.84 494.669,103.761 495.428,104.481 C495.763,104.798 495.995,105.055 496.112,105.223 C496.069,105.161 495.994,104.983 495.994,104.571 C495.994,106.038 497.183,107.227 498.651,107.227 C500.118,107.227 501.307,106.038 501.307,104.571 Z" />
            <path d="M434.006,100.413 C434.006,99.806 434.603,99.348 435.208,99.505 C458.244,105.481 480.372,109.081 494.067,106.763 C495.049,106.597 495.994,107.304 495.994,108.026 L495.994,136.632 C495.994,137.103 495.625,137.491 495.155,137.516 L434.938,140.685 C434.432,140.712 434.006,140.308 434.006,139.801 L434.006,100.413 Z M428.693,100.413 L428.693,139.801 C428.693,143.352 431.671,146.178 435.217,145.991 L495.434,142.822 C498.727,142.649 501.307,139.929 501.307,136.632 L501.307,108.026 C501.307,103.858 497.266,100.833 493.18,101.524 C480.512,103.668 458.803,100.136 436.542,94.362 C432.583,93.335 428.693,96.319 428.693,100.413 Z" />
            <path d="M440.205,113.426 C440.205,111.47 441.791,109.884 443.747,109.884 C445.703,109.884 447.289,111.47 447.289,113.426 C447.289,115.382 445.703,116.968 443.747,116.968 C441.791,116.968 440.205,115.382 440.205,113.426 Z" />
            <path d="M463.229,116.968 C463.229,115.012 464.815,113.426 466.771,113.426 C468.727,113.426 470.313,115.012 470.313,116.968 C470.313,118.925 468.727,120.51 466.771,120.51 C464.815,120.51 463.229,118.925 463.229,116.968 Z" />
            <path d="M479.169,125.824 C479.169,123.867 480.755,122.282 482.711,122.282 C484.667,122.282 486.253,123.867 486.253,125.824 C486.253,127.78 484.667,129.366 482.711,129.366 C480.755,129.366 479.169,127.78 479.169,125.824 Z" />
            <path d="M450.831,125.824 C450.831,123.867 452.417,122.282 454.374,122.282 C456.33,122.282 457.916,123.867 457.916,125.824 C457.916,127.78 456.33,129.366 454.374,129.366 C452.417,129.366 450.831,127.78 450.831,125.824 Z" />
        </g>
        <g id="Black-S">
            <path d="M701.307,104.571 C701.307,101.252 695.744,97.31 682.91,89.755 C675.538,85.415 667.124,80.799 659.395,76.712 C657.237,75.571 654.626,75.819 652.706,77.328 L629.708,95.397 C628.555,96.304 628.354,97.974 629.261,99.128 C630.167,100.281 631.837,100.482 632.991,99.575 L655.989,81.506 C656.266,81.288 656.618,81.254 656.911,81.409 C664.575,85.461 672.926,90.043 680.214,94.334 C685.126,97.225 689.124,99.738 691.972,101.756 C693.501,102.84 694.669,103.761 695.428,104.481 C695.763,104.798 695.995,105.055 696.112,105.223 C696.069,105.161 695.994,104.983 695.994,104.571 C695.994,106.038 697.183,107.227 698.651,107.227 C700.118,107.227 701.307,106.038 701.307,104.571 Z" />
            <path d="M634.006,100.413 C634.006,99.806 634.603,99.348 635.208,99.505 C658.244,105.481 680.372,109.081 694.067,106.763 C695.049,106.597 695.994,107.304 695.994,108.026 L695.994,136.632 C695.994,137.103 695.625,137.491 695.155,137.516 L634.938,140.685 C634.432,140.712 634.006,140.308 634.006,139.801 L634.006,100.413 Z M628.693,100.413 L628.693,139.801 C628.693,143.352 631.671,146.178 635.217,145.991 L695.434,142.822 C698.727,142.649 701.307,139.929 701.307,136.632 L701.307,108.026 C701.307,103.858 697.266,100.833 693.18,101.524 C680.512,103.668 658.803,100.136 636.542,94.362 C632.583,93.335 628.693,96.319 628.693,100.413 Z" />
            <path d="M640.205,113.426 C640.205,111.47 641.791,109.884 643.747,109.884 C645.703,109.884 647.289,111.47 647.289,113.426 C647.289,115.382 645.703,116.968 643.747,116.968 C641.791,116.968 640.205,115.382 640.205,113.426 Z" />
            <path d="M663.229,116.968 C663.229,115.012 664.815,113.426 666.771,113.426 C668.727,113.426 670.313,115.012 670.313,116.968 C670.313,118.925 668.727,120.51 666.771,120.51 C664.815,120.51 663.229,118.925 663.229,116.968 Z" />
            <path d="M679.169,125.824 C679.169,123.867 680.755,122.282 682.711,122.282 C684.667,122.282 686.253,123.867 686.253,125.824 C686.253,127.78 684.667,129.366 682.711,129.366 C680.755,129.366 679.169,127.78 679.169,125.824 Z" />
            <path d="M650.831,125.824 C650.831,123.867 652.417,122.282 654.374,122.282 C656.33,122.282 657.916,123.867 657.916,125.824 C657.916,127.78 656.33,129.366 654.374,129.366 C652.417,129.366 650.831,127.78 650.831,125.824 Z" />
        </g>
    </g>
</svg>