<?xml version="1.0" encoding="UTF-8"?>
<svg height="600" width="800" xmlns="http://www.w3.org/2000/svg" xmlns:xlink="http://www.w3.org/1999/xlink">
    <g id="Notes" font-family="'LucidaGrande', 'Lucida Grande', sans-serif" font-size="13">
        <rect fill="white" height="600.0" width="800.0" x="0.0" y="0.0" />
        <g font-size="13">
            <text x="18.0" y="176.0">Small</text>
            <text x="18.0" y="376.0">Medium</text>
            <text x="18.0" y="576.0">Large</text>
        </g>
        <g font-size="9">
            <text x="250.0" y="30.0">Ultralight</text>
            <text x="450.0" y="30.0">Regular</text>
            <text x="650.0" y="30.0">Black</text>
            <text id="template-version" fill="#505050" text-anchor="end" x="785.0" y="575.0">Template v.3.0</text>
            <a href="https://github.com/swhitty/SwiftDraw">
                <text fill="#505050" text-anchor="end" x="785.0" y="590.0">https://github.com/swhitty/SwiftDraw</text>
            </a>
        </g>
    </g>
    <g id="Guides" stroke="rgb(39, 170, 225)" stroke-width="0.5">
        <path id="Capline-S" d="M18,76 l800,0" />
        <path id="H-reference" d="M85,145.755 L87.685,145.755 L113.369,79.287 L114.052,79.287 L114.052,76 L112.148,76 L85,145.755 Z M95.693,121.536 L130.996,121.536 L130.263,119.313 L96.474,119.313 L95.693,121.536 Z M139.15,145.755 L141.787,145.755 L114.638,76 L113.466,76 L113.466,79.287 L139.15,145.755 Z" stroke="none" />
        <path id="Baseline-S" d="M18,146 l800,0" />
        <path id="left-margin-Ultralight-S" d="M221,56 l0,110" />
        <path id="right-margin-Ultralight-S" d="M309,56 l0,110" />
        <path id="left-margin-Regular-S" d="M421,56 l0,110" />
        <path id="right-margin-Regular-S" d="M509,56 l0,110" />
        <path id="left-margin-Black-S" d="M621,56 l0,110" />
        <path id="right-margin-Black-S" d="M709,56 l0,110" />
        <path id="Capline-M" d="M18,276 l800,0" />
        <path id="Baseline-M" d="M18,346 l800,0" />
        <path id="Capline-L" d="M18,476 l800,0" />
        <path id="Baseline-L" d="M18,546 l800,0" />
    </g>
    <g id="Symbols">
        <g id="Ultralight-S">
            <path d="M287.791,76 L242.209,76 C239.063,76 236.512,78.551 236.512,81.698 L236.512,140.302 C236.512,143.449 239.063,146 242.209,146 L287.791,146 C290.938,146 293.488,143.449 293.488,140.302 L293.488,81.698 C293.488,78.551 290.937,76 287.791,76 Z M287.791,80.884 C288.24,80.884 288.605,81.248 288.605,81.698 L288.605,140.302 C288.605,140.752 288.24,141.116 287.791,141.116 L242.209,141.116 C241.76,141.116 241.395,140.752 241.395,140.302 L241.395,81.698 C241.395,81.248 241.76,80.884 242.209,80.884 L287.791,80.884 Z" />
            <path d="M253.605,123.209 L276.395,123.209 C277.744,123.209 278.837,122.116 278.837,120.767 C278.837,119.419 277.744,118.326 276.395,118.326 L253.605,118.326 C252.256,118.326 251.163,119.419 251.163,120.767 C251.163,122.116 252.256,123.209 253.605,123.209 Z" />
            <path d="M253.605,132.977 L265,132.977 C266.349,132.977 267.442,131.883 267.442,130.535 C267.442,129.186 266.349,128.093 265,128.093 L253.605,128.093 C252.256,128.093 251.163,129.186 251.163,130.535 C251.163,131.883 252.256,132.977 253.605,132.977 Z" />
            <path d="M273.041,91.366 L260.018,104.39 L263.471,104.39 L256.959,97.878 C256.006,96.924 254.46,96.924 253.506,97.878 C252.552,98.832 252.552,100.378 253.506,101.331 L260.018,107.843 C260.971,108.797 262.517,108.797 263.471,107.843 L276.494,94.82 C277.448,93.866 277.448,92.32 276.494,91.366 C275.54,90.413 273.994,90.413 273.041,91.366 Z" />
        </g>
        <g id="Regular-S">
            <path d="M487.791,76 L442.209,76 C439.063,76 436.512,78.551 436.512,81.698 L436.512,140.302 C436.512,143.449 439.063,146 442.209,146 L487.791,146 C490.938,146 493.488,143.449 493.488,140.302 L493.488,81.698 C493.488,78.551 490.937,76 487.791,76 Z M487.791,80.884 C488.24,80.884 488.605,81.248 488.605,81.698 L488.605,140.302 C488.605,140.752 488.24,141.116 487.791,141.116 L442.209,141.116 C441.76,141.116 441.395,140.752 441.395,140.302 L441.395,81.698 C441.395,81.248 441.76,80.884 442.209,80.884 L487.791,80.884 Z" />
            <path d="M453.605,123.209 L476.395,123.209 C477.744,123.209 478.837,122.116 478.837,120.767 C478.837,119.419 477.744,118.326 476.395,118.326 L453.605,118.326 C452.256,118.326 451.163,119.419 451.163,120.767 C451.163,122.116 452.256,123.209 453.605,123.209 Z" />
            <path d="M453.605,132.977 L465,132.977 C466.349,132.977 467.442,131.883 467.442,130.535 C467.442,129.186 466.349,128.093 465,128.093 L453.605,128.093 C452.256,128.093 451.163,129.186 451.163,130.535 C451.163,131.883 452.256,132.977 453.605,132.977 Z" />
            <path d="M473.041,91.366 L460.018,104.39 L463.471,104.39 L456.959,97.878 C456.006,96.924 454.46,96.924 453.506,97.878 C452.552,98.832 452.552,100.378 453.506,101.331 L460.018,107.843 C460.971,108.797 462.517,108.797 463.471,107.843 L476.494,94.82 C477.448,93.866 477.448,92.32 476.494,91.366 C475.54,90.413 473.994,90.413 473.041,91.366 Z" />
        </g>
        <g id="Black-S">
            <path d="M687.791,76 L642.209,76 C639.063,76 636.512,78.551 636.512,81.698 L636.512,140.302 C636.512,143.449 639.063,146 642.209,146 L687.791,146 C690.938,146 693.488,143.449 693.488,140.302 L693.488,81.698 C693.488,78.551 690.938,76 687.791,76 Z M687.791,80.884 C688.24,80.884 688.605,81.248 688.605,81.698 L688.605,140.302 C688.605,140.752 688.24,141.116 687.791,141.116 L642.209,141.116 C641.76,141.116 641.395,140.752 641.395,140.302 L641.395,81.698 C641.395,81.248 641.76,80.884 642.209,80.884 L687.791,80.884 Z" />
            <path d="M653.605,123.209 L676.395,123.209 C677.744,123.209 678.837,122.116 678.837,120.767 C678.837,119.419 677.744,118.326 676.395,118.326 L653.605,118.326 C652.256,118.326 651.163,119.419 651.163,120.767 C651.163,122.116 652.256,123.209 653.605,123.209 Z" />
            <path d="M653.605,132.977 L665,132.977 C666.349,132.977 667.442,131.883 667.442,130.535 C667.442,129.186 666.349,128.093 665,128.093 L653.605,128.093 C652.256,128.093 651.163,129.186 651.163,130.535 C651.163,131.883 652.256,132.977 653.605,132.977 Z" />
            <path d="M673.041,91.366 L660.018,104.39 L663.471,104.39 L656.959,97.878 C656.006,96.924 654.46,96.924 653.506,97.878 C652.552,98.832 652.552,100.378 653.506,101.331 L660.018,107.843 C660.971,108.797 662.517,108.797 663.471,107.843 L676.494,94.82 C677.448,93.866 677.448,92.32 676.494,91.366 C675.541,90.413 673.994,90.413 673.041,91.366 Z" />
        </g>
    </g>
</svg>