<?xml version="1.0" encoding="UTF-8"?>
<svg height="600" width="800" xmlns="http://www.w3.org/2000/svg" xmlns:xlink="http://www.w3.org/1999/xlink">
    <g id="Notes" font-family="'LucidaGrande', 'Lucida Grande', sans-serif" font-size="13">
        <rect fill="white" height="600.0" width="800.0" x="0.0" y="0.0" />
        <g font-size="13">
            <text x="18.0" y="176.0">Small</text>
            <text x="18.0" y="376.0">Medium</text>
            <text x="18.0" y="576.0">Large</text>
        </g>
        <g font-size="9">
            <text x="250.0" y="30.0">Ultralight</text>
            <text x="450.0" y="30.0">Regular</text>
            <text x="650.0" y="30.0">Black</text>
            <text id="template-version" fill="#505050" text-anchor="end" x="785.0" y="575.0">Template v.3.0</text>
            <a href="https://github.com/swhitty/SwiftDraw">
                <text fill="#505050" text-anchor="end" x="785.0" y="590.0">https://github.com/swhitty/SwiftDraw</text>
            </a>
        </g>
    </g>
    <g id="Guides" stroke="rgb(39, 170, 225)" stroke-width="0.5">
        <path id="Capline-S" d="M18,76 l800,0" />
        <path id="H-reference" d="M85,145.755 L87.685,145.755 L113.369,79.287 L114.052,79.287 L114.052,76 L112.148,76 L85,145.755 Z M95.693,121.536 L130.996,121.536 L130.263,119.313 L96.474,119.313 L95.693,121.536 Z M139.15,145.755 L141.787,145.755 L114.638,76 L113.466,76 L113.466,79.287 L139.15,145.755 Z" stroke="none" />
        <path id="Baseline-S" d="M18,146 l800,0" />
        <path id="left-margin-Ultralight-S" d="M220,56 l0,110" />
        <path id="right-margin-Ultralight-S" d="M310,56 l0,110" />
        <path id="left-margin-Regular-S" d="M420,56 l0,110" />
        <path id="right-margin-Regular-S" d="M510,56 l0,110" />
        <path id="left-margin-Black-S" d="M620,56 l0,110" />
        <path id="right-margin-Black-S" d="M710,56 l0,110" />
        <path id="Capline-M" d="M18,276 l800,0" />
        <path id="Baseline-M" d="M18,346 l800,0" />
        <path id="Capline-L" d="M18,476 l800,0" />
        <path id="Baseline-L" d="M18,546 l800,0" />
    </g>
    <g id="Symbols">
        <g id="Ultralight-S">
            <path d="M294.615,111 L294.615,137.923 C294.615,138.637 294.332,139.322 293.827,139.827 C293.322,140.332 292.637,140.615 291.923,140.615 L238.077,140.615 C237.363,140.615 236.678,140.332 236.173,139.827 C235.668,139.322 235.385,138.637 235.385,137.923 L235.385,84.077 C235.385,83.363 235.668,82.678 236.173,82.173 C236.678,81.668 237.363,81.385 238.077,81.385 L291.923,81.385 C292.637,81.385 293.322,81.668 293.827,82.173 C294.332,82.678 294.615,83.363 294.615,84.077 L294.615,111 Z M300,111 L300,84.077 C300,81.935 299.149,79.88 297.634,78.366 C296.12,76.851 294.065,76 291.923,76 L238.077,76 C235.935,76 233.88,76.851 232.366,78.366 C230.851,79.88 230,81.935 230,84.077 L230,137.923 C230,140.065 230.851,142.12 232.366,143.634 C233.88,145.149 235.935,146 238.077,146 L291.923,146 C294.065,146 296.12,145.149 297.634,143.634 C299.149,142.12 300,140.065 300,137.923 L300,111 Z" />
            <path d="M251.538,78.692 L251.538,143.308 C251.538,144.795 252.744,146 254.231,146 C255.718,146 256.923,144.795 256.923,143.308 L256.923,78.692 C256.923,77.205 255.718,76 254.231,76 C252.744,76 251.538,77.205 251.538,78.692 Z" />
            <path d="M241.667,81.385 L286.538,81.385 C288.025,81.385 289.231,80.179 289.231,78.692 C289.231,77.205 288.025,76 286.538,76 L241.667,76 C240.18,76 238.974,77.205 238.974,78.692 C238.974,80.179 240.18,81.385 241.667,81.385 Z" />
            <path d="M241.667,146 L286.538,146 C288.025,146 289.231,144.795 289.231,143.308 C289.231,141.821 288.025,140.615 286.538,140.615 L241.667,140.615 C240.18,140.615 238.974,141.821 238.974,143.308 C238.974,144.795 240.18,146 241.667,146 Z" />
            <path d="M277.455,101.917 L270.276,109.096 C269.224,110.148 269.224,111.852 270.276,112.904 L277.455,120.083 C278.507,121.135 280.211,121.135 281.263,120.083 C282.314,119.032 282.314,117.327 281.263,116.276 L274.083,109.096 L274.083,112.904 L281.263,105.724 C282.314,104.673 282.314,102.968 281.263,101.917 C280.211,100.865 278.507,100.865 277.455,101.917 Z" />
        </g>
        <g id="Regular-S">
            <path d="M494.615,111 L494.615,137.923 C494.615,138.637 494.332,139.322 493.827,139.827 C493.322,140.332 492.637,140.615 491.923,140.615 L438.077,140.615 C437.363,140.615 436.678,140.332 436.173,139.827 C435.668,139.322 435.385,138.637 435.385,137.923 L435.385,84.077 C435.385,83.363 435.668,82.678 436.173,82.173 C436.678,81.668 437.363,81.385 438.077,81.385 L491.923,81.385 C492.637,81.385 493.322,81.668 493.827,82.173 C494.332,82.678 494.615,83.363 494.615,84.077 L494.615,111 Z M500,111 L500,84.077 C500,81.935 499.149,79.88 497.634,78.366 C496.12,76.851 494.065,76 491.923,76 L438.077,76 C435.935,76 433.88,76.851 432.366,78.366 C430.851,79.88 430,81.935 430,84.077 L430,137.923 C430,140.065 430.851,142.12 432.366,143.634 C433.88,145.149 435.935,146 438.077,146 L491.923,146 C494.065,146 496.12,145.149 497.634,143.634 C499.149,142.12 500,140.065 500,137.923 L500,111 Z" />
            <path d="M451.538,78.692 L451.538,143.308 C451.538,144.795 452.744,146 454.231,146 C455.718,146 456.923,144.795 456.923,143.308 L456.923,78.692 C456.923,77.205 455.718,76 454.231,76 C452.744,76 451.538,77.205 451.538,78.692 Z" />
            <path d="M441.667,81.385 L486.538,81.385 C488.025,81.385 489.231,80.179 489.231,78.692 C489.231,77.205 488.025,76 486.538,76 L441.667,76 C440.18,76 438.974,77.205 438.974,78.692 C438.974,80.179 440.18,81.385 441.667,81.385 Z" />
            <path d="M441.667,146 L486.538,146 C488.025,146 489.231,144.795 489.231,143.308 C489.231,141.821 488.025,140.615 486.538,140.615 L441.667,140.615 C440.18,140.615 438.974,141.821 438.974,143.308 C438.974,144.795 440.18,146 441.667,146 Z" />
            <path d="M477.455,101.917 L470.276,109.096 C469.224,110.148 469.224,111.852 470.276,112.904 L477.455,120.083 C478.507,121.135 480.211,121.135 481.263,120.083 C482.314,119.032 482.314,117.327 481.263,116.276 L474.083,109.096 L474.083,112.904 L481.263,105.724 C482.314,104.673 482.314,102.968 481.263,101.917 C480.211,100.865 478.507,100.865 477.455,101.917 Z" />
        </g>
        <g id="Black-S">
            <path d="M694.615,111 L694.615,137.923 C694.615,138.637 694.332,139.322 693.827,139.827 C693.322,140.332 692.637,140.615 691.923,140.615 L638.077,140.615 C637.363,140.615 636.678,140.332 636.173,139.827 C635.668,139.322 635.385,138.637 635.385,137.923 L635.385,84.077 C635.385,83.363 635.668,82.678 636.173,82.173 C636.678,81.668 637.363,81.385 638.077,81.385 L691.923,81.385 C692.637,81.385 693.322,81.668 693.827,82.173 C694.332,82.678 694.615,83.363 694.615,84.077 L694.615,111 Z M700,111 L700,84.077 C700,81.935 699.149,79.88 697.634,78.366 C696.12,76.851 694.065,76 691.923,76 L638.077,76 C635.935,76 633.88,76.851 632.366,78.366 C630.851,79.88 630,81.935 630,84.077 L630,137.923 C630,140.065 630.851,142.12 632.366,143.634 C633.88,145.149 635.935,146 638.077,146 L691.923,146 C694.065,146 696.12,145.149 697.634,143.634 C699.149,142.12 700,140.065 700,137.923 L700,111 Z" />
            <path d="M651.538,78.692 L651.538,143.308 C651.538,144.795 652.744,146 654.231,146 C655.718,146 656.923,144.795 656.923,143.308 L656.923,78.692 C656.923,77.205 655.718,76 654.231,76 C652.744,76 651.538,77.205 651.538,78.692 Z" />
            <path d="M641.667,81.385 L686.538,81.385 C688.025,81.385 689.231,80.179 689.231,78.692 C689.231,77.205 688.025,76 686.538,76 L641.667,76 C640.18,76 638.974,77.205 638.974,78.692 C638.974,80.179 640.18,81.385 641.667,81.385 Z" />
            <path d="M641.667,146 L686.538,146 C688.025,146 689.231,144.795 689.231,143.308 C689.231,141.821 688.025,140.615 686.538,140.615 L641.667,140.615 C640.18,140.615 638.974,141.821 638.974,143.308 C638.974,144.795 640.18,146 641.667,146 Z" />
            <path d="M677.455,101.917 L670.276,109.096 C669.224,110.148 669.224,111.852 670.276,112.904 L677.455,120.083 C678.507,121.135 680.211,121.135 681.263,120.083 C682.314,119.032 682.314,117.327 681.263,116.276 L674.083,109.096 L674.083,112.904 L681.263,105.724 C682.314,104.673 682.314,102.968 681.263,101.917 C680.211,100.865 678.507,100.865 677.455,101.917 Z" />
        </g>
    </g>
</svg>