<?xml version="1.0" encoding="UTF-8"?>
<svg height="600" width="800" xmlns="http://www.w3.org/2000/svg" xmlns:xlink="http://www.w3.org/1999/xlink">
    <g id="Notes" font-family="'LucidaGrande', 'Lucida Grande', sans-serif" font-size="13">
        <rect fill="white" height="600.0" width="800.0" x="0.0" y="0.0" />
        <g font-size="13">
            <text x="18.0" y="176.0">Small</text>
            <text x="18.0" y="376.0">Medium</text>
            <text x="18.0" y="576.0">Large</text>
        </g>
        <g font-size="9">
            <text x="250.0" y="30.0">Ultralight</text>
            <text x="450.0" y="30.0">Regular</text>
            <text x="650.0" y="30.0">Black</text>
            <text id="template-version" fill="#505050" text-anchor="end" x="785.0" y="575.0">Template v.3.0</text>
            <a href="https://github.com/swhitty/SwiftDraw">
                <text fill="#505050" text-anchor="end" x="785.0" y="590.0">https://github.com/swhitty/SwiftDraw</text>
            </a>
        </g>
    </g>
    <g id="Guides" stroke="rgb(39, 170, 225)" stroke-width="0.5">
        <path id="Capline-S" d="M18,76 l800,0" />
        <path id="H-reference" d="M85,145.755 L87.685,145.755 L113.369,79.287 L114.052,79.287 L114.052,76 L112.148,76 L85,145.755 Z M95.693,121.536 L130.996,121.536 L130.263,119.313 L96.474,119.313 L95.693,121.536 Z M139.15,145.755 L141.787,145.755 L114.638,76 L113.466,76 L113.466,79.287 L139.15,145.755 Z" stroke="none" />
        <path id="Baseline-S" d="M18,146 l800,0" />
        <path id="left-margin-Ultralight-S" d="M221,56 l0,110" />
        <path id="right-margin-Ultralight-S" d="M309,56 l0,110" />
        <path id="left-margin-Regular-S" d="M421,56 l0,110" />
        <path id="right-margin-Regular-S" d="M509,56 l0,110" />
        <path id="left-margin-Black-S" d="M621,56 l0,110" />
        <path id="right-margin-Black-S" d="M709,56 l0,110" />
        <path id="Capline-M" d="M18,276 l800,0" />
        <path id="Baseline-M" d="M18,346 l800,0" />
        <path id="Capline-L" d="M18,476 l800,0" />
        <path id="Baseline-L" d="M18,546 l800,0" />
    </g>
    <g id="Symbols">
        <g id="Ultralight-S">
            <path d="M285.349,111 L285.349,140.302 C285.349,140.518 285.263,140.725 285.11,140.878 C284.958,141.031 284.751,141.116 284.535,141.116 L245.465,141.116 C245.249,141.116 245.042,141.031 244.89,140.878 C244.737,140.725 244.651,140.518 244.651,140.302 L244.651,81.698 C244.651,81.482 244.737,81.275 244.89,81.122 C245.042,80.969 245.249,80.884 245.465,80.884 L284.535,80.884 C284.751,80.884 284.958,80.969 285.11,81.122 C285.263,81.275 285.349,81.482 285.349,81.698 L285.349,111 Z M290.233,111 L290.233,81.698 C290.233,80.187 289.632,78.737 288.564,77.669 C287.495,76.6 286.046,76 284.535,76 L245.465,76 C243.954,76 242.505,76.6 241.436,77.669 C240.368,78.737 239.767,80.187 239.767,81.698 L239.767,140.302 C239.767,141.813 240.368,143.263 241.436,144.331 C242.505,145.4 243.954,146 245.465,146 L284.535,146 C286.046,146 287.495,145.4 288.564,144.331 C289.632,143.263 290.233,141.813 290.233,140.302 L290.233,111 Z" />
            <path d="M275.581,91.465 L275.581,107.744 L278.023,105.302 L251.977,105.302 L254.419,107.744 L254.419,91.465 L251.977,93.907 L278.023,93.907 L275.581,91.465 Z M280.465,91.465 C280.465,90.117 279.372,89.023 278.023,89.023 L251.977,89.023 C250.628,89.023 249.535,90.117 249.535,91.465 L249.535,107.744 C249.535,109.093 250.628,110.186 251.977,110.186 L278.023,110.186 C279.372,110.186 280.465,109.093 280.465,107.744 L280.465,91.465 Z" />
            <path d="M251.977,126.465 L265,126.465 C266.349,126.465 267.442,125.372 267.442,124.023 C267.442,122.675 266.349,121.581 265,121.581 L251.977,121.581 C250.628,121.581 249.535,122.675 249.535,124.023 C249.535,125.372 250.628,126.465 251.977,126.465 Z" />
            <path d="M260.93,130.535 L260.93,117.512 C260.93,116.163 259.837,115.07 258.488,115.07 C257.14,115.07 256.047,116.163 256.047,117.512 L256.047,130.535 C256.047,131.883 257.14,132.977 258.488,132.977 C259.837,132.977 260.93,131.883 260.93,130.535 Z" />
            <path d="M276.395,128.907 L276.395,128.907 C276.395,129.77 276.052,130.599 275.442,131.209 C274.831,131.82 274.003,132.163 273.14,132.163 L273.14,132.163 C272.276,132.163 271.448,131.82 270.837,131.209 C270.227,130.599 269.884,129.77 269.884,128.907 L269.884,128.907 C269.884,128.043 270.227,127.215 270.837,126.605 C271.448,125.994 272.276,125.651 273.14,125.651 L273.14,125.651 C274.003,125.651 274.831,125.994 275.442,126.605 C276.052,127.215 276.395,128.043 276.395,128.907 Z" />
            <path d="M281.279,117.512 L281.279,117.512 C281.279,118.375 280.936,119.203 280.325,119.814 C279.715,120.424 278.887,120.767 278.023,120.767 L278.023,120.767 C277.16,120.767 276.332,120.424 275.721,119.814 C275.11,119.203 274.767,118.375 274.767,117.512 L274.767,117.512 C274.767,116.648 275.11,115.82 275.721,115.209 C276.332,114.599 277.16,114.256 278.023,114.256 L278.023,114.256 C278.887,114.256 279.715,114.599 280.325,115.209 C280.936,115.82 281.279,116.648 281.279,117.512 Z" />
        </g>
        <g id="Regular-S">
            <path d="M485.349,111 L485.349,140.302 C485.349,140.518 485.263,140.725 485.11,140.878 C484.958,141.031 484.751,141.116 484.535,141.116 L445.465,141.116 C445.249,141.116 445.042,141.031 444.89,140.878 C444.737,140.725 444.651,140.518 444.651,140.302 L444.651,81.698 C444.651,81.482 444.737,81.275 444.89,81.122 C445.042,80.969 445.249,80.884 445.465,80.884 L484.535,80.884 C484.751,80.884 484.958,80.969 485.11,81.122 C485.263,81.275 485.349,81.482 485.349,81.698 L485.349,111 Z M490.233,111 L490.233,81.698 C490.233,80.187 489.632,78.737 488.564,77.669 C487.495,76.6 486.046,76 484.535,76 L445.465,76 C443.954,76 442.505,76.6 441.436,77.669 C440.368,78.737 439.767,80.187 439.767,81.698 L439.767,140.302 C439.767,141.813 440.368,143.263 441.436,144.331 C442.505,145.4 443.954,146 445.465,146 L484.535,146 C486.046,146 487.495,145.4 488.564,144.331 C489.632,143.263 490.233,141.813 490.233,140.302 L490.233,111 Z" />
            <path d="M475.581,91.465 L475.581,107.744 L478.023,105.302 L451.977,105.302 L454.419,107.744 L454.419,91.465 L451.977,93.907 L478.023,93.907 L475.581,91.465 Z M480.465,91.465 C480.465,90.117 479.372,89.023 478.023,89.023 L451.977,89.023 C450.628,89.023 449.535,90.117 449.535,91.465 L449.535,107.744 C449.535,109.093 450.628,110.186 451.977,110.186 L478.023,110.186 C479.372,110.186 480.465,109.093 480.465,107.744 L480.465,91.465 Z" />
            <path d="M451.977,126.465 L465,126.465 C466.349,126.465 467.442,125.372 467.442,124.023 C467.442,122.675 466.349,121.581 465,121.581 L451.977,121.581 C450.628,121.581 449.535,122.675 449.535,124.023 C449.535,125.372 450.628,126.465 451.977,126.465 Z" />
            <path d="M460.93,130.535 L460.93,117.512 C460.93,116.163 459.837,115.07 458.488,115.07 C457.14,115.07 456.047,116.163 456.047,117.512 L456.047,130.535 C456.047,131.883 457.14,132.977 458.488,132.977 C459.837,132.977 460.93,131.883 460.93,130.535 Z" />
            <path d="M476.395,128.907 L476.395,128.907 C476.395,129.77 476.052,130.599 475.442,131.209 C474.831,131.82 474.003,132.163 473.14,132.163 L473.14,132.163 C472.276,132.163 471.448,131.82 470.837,131.209 C470.227,130.599 469.884,129.77 469.884,128.907 L469.884,128.907 C469.884,128.043 470.227,127.215 470.837,126.605 C471.448,125.994 472.276,125.651 473.14,125.651 L473.14,125.651 C474.003,125.651 474.831,125.994 475.442,126.605 C476.052,127.215 476.395,128.043 476.395,128.907 Z" />
            <path d="M481.279,117.512 L481.279,117.512 C481.279,118.375 480.936,119.203 480.325,119.814 C479.715,120.424 478.887,120.767 478.023,120.767 L478.023,120.767 C477.16,120.767 476.332,120.424 475.721,119.814 C475.11,119.203 474.767,118.375 474.767,117.512 L474.767,117.512 C474.767,116.648 475.11,115.82 475.721,115.209 C476.332,114.599 477.16,114.256 478.023,114.256 L478.023,114.256 C478.887,114.256 479.715,114.599 480.325,115.209 C480.936,115.82 481.279,116.648 481.279,117.512 Z" />
        </g>
        <g id="Black-S">
            <path d="M685.349,111 L685.349,140.302 C685.349,140.518 685.263,140.725 685.11,140.878 C684.958,141.031 684.751,141.116 684.535,141.116 L645.465,141.116 C645.249,141.116 645.042,141.031 644.89,140.878 C644.737,140.725 644.651,140.518 644.651,140.302 L644.651,81.698 C644.651,81.482 644.737,81.275 644.89,81.122 C645.042,80.969 645.249,80.884 645.465,80.884 L684.535,80.884 C684.751,80.884 684.958,80.969 685.11,81.122 C685.263,81.275 685.349,81.482 685.349,81.698 L685.349,111 Z M690.233,111 L690.233,81.698 C690.233,80.187 689.632,78.737 688.564,77.669 C687.495,76.6 686.046,76 684.535,76 L645.465,76 C643.954,76 642.505,76.6 641.436,77.669 C640.368,78.737 639.767,80.187 639.767,81.698 L639.767,140.302 C639.767,141.813 640.368,143.263 641.436,144.331 C642.505,145.4 643.954,146 645.465,146 L684.535,146 C686.046,146 687.495,145.4 688.564,144.331 C689.632,143.263 690.233,141.813 690.233,140.302 L690.233,111 Z" />
            <path d="M675.581,91.465 L675.581,107.744 L678.023,105.302 L651.977,105.302 L654.419,107.744 L654.419,91.465 L651.977,93.907 L678.023,93.907 L675.581,91.465 Z M680.465,91.465 C680.465,90.117 679.372,89.023 678.023,89.023 L651.977,89.023 C650.628,89.023 649.535,90.117 649.535,91.465 L649.535,107.744 C649.535,109.093 650.628,110.186 651.977,110.186 L678.023,110.186 C679.372,110.186 680.465,109.093 680.465,107.744 L680.465,91.465 Z" />
            <path d="M651.977,126.465 L665,126.465 C666.349,126.465 667.442,125.372 667.442,124.023 C667.442,122.675 666.349,121.581 665,121.581 L651.977,121.581 C650.628,121.581 649.535,122.675 649.535,124.023 C649.535,125.372 650.628,126.465 651.977,126.465 Z" />
            <path d="M660.93,130.535 L660.93,117.512 C660.93,116.163 659.837,115.07 658.488,115.07 C657.14,115.07 656.047,116.163 656.047,117.512 L656.047,130.535 C656.047,131.883 657.14,132.977 658.488,132.977 C659.837,132.977 660.93,131.883 660.93,130.535 Z" />
            <path d="M676.395,128.907 L676.395,128.907 C676.395,129.77 676.052,130.599 675.442,131.209 C674.831,131.82 674.003,132.163 673.14,132.163 L673.14,132.163 C672.276,132.163 671.448,131.82 670.837,131.209 C670.227,130.599 669.884,129.77 669.884,128.907 L669.884,128.907 C669.884,128.043 670.227,127.215 670.837,126.605 C671.448,125.994 672.276,125.651 673.14,125.651 L673.14,125.651 C674.003,125.651 674.831,125.994 675.442,126.605 C676.052,127.215 676.395,128.043 676.395,128.907 Z" />
            <path d="M681.279,117.512 L681.279,117.512 C681.279,118.375 680.936,119.203 680.325,119.814 C679.715,120.424 678.887,120.767 678.023,120.767 L678.023,120.767 C677.16,120.767 676.332,120.424 675.721,119.814 C675.11,119.203 674.767,118.375 674.767,117.512 L674.767,117.512 C674.767,116.648 675.11,115.82 675.721,115.209 C676.332,114.599 677.16,114.256 678.023,114.256 L678.023,114.256 C678.887,114.256 679.715,114.599 680.325,115.209 C680.936,115.82 681.279,116.648 681.279,117.512 Z" />
        </g>
    </g>
</svg>