<?xml version="1.0" encoding="UTF-8"?>
<svg height="600" width="800" xmlns="http://www.w3.org/2000/svg" xmlns:xlink="http://www.w3.org/1999/xlink">
    <g id="Notes" font-family="'LucidaGrande', 'Lucida Grande', sans-serif" font-size="13">
        <rect fill="white" height="600.0" width="800.0" x="0.0" y="0.0" />
        <g font-size="13">
            <text x="18.0" y="176.0">Small</text>
            <text x="18.0" y="376.0">Medium</text>
            <text x="18.0" y="576.0">Large</text>
        </g>
        <g font-size="9">
            <text x="250.0" y="30.0">Ultralight</text>
            <text x="450.0" y="30.0">Regular</text>
            <text x="650.0" y="30.0">Black</text>
            <text id="template-version" fill="#505050" text-anchor="end" x="785.0" y="575.0">Template v.3.0</text>
            <a href="https://github.com/swhitty/SwiftDraw">
                <text fill="#505050" text-anchor="end" x="785.0" y="590.0">https://github.com/swhitty/SwiftDraw</text>
            </a>
        </g>
    </g>
    <g id="Guides" stroke="rgb(39, 170, 225)" stroke-width="0.5">
        <path id="Capline-S" d="M18,76 l800,0" />
        <path id="H-reference" d="M85,145.755 L87.685,145.755 L113.369,79.287 L114.052,79.287 L114.052,76 L112.148,76 L85,145.755 Z M95.693,121.536 L130.996,121.536 L130.263,119.313 L96.474,119.313 L95.693,121.536 Z M139.15,145.755 L141.787,145.755 L114.638,76 L113.466,76 L113.466,79.287 L139.15,145.755 Z" stroke="none" />
        <path id="Baseline-S" d="M18,146 l800,0" />
        <path id="left-margin-Ultralight-S" d="M220,56 l0,110" />
        <path id="right-margin-Ultralight-S" d="M310,56 l0,110" />
        <path id="left-margin-Regular-S" d="M420,56 l0,110" />
        <path id="right-margin-Regular-S" d="M510,56 l0,110" />
        <path id="left-margin-Black-S" d="M620,56 l0,110" />
        <path id="right-margin-Black-S" d="M710,56 l0,110" />
        <path id="Capline-M" d="M18,276 l800,0" />
        <path id="Baseline-M" d="M18,346 l800,0" />
        <path id="Capline-L" d="M18,476 l800,0" />
        <path id="Baseline-L" d="M18,546 l800,0" />
    </g>
    <g id="Symbols">
        <g id="Ultralight-S">
            <path d="M265,146 C284.33,146 300,130.33 300,111 C300,91.67 284.33,76 265,76 C245.67,76 230,91.67 230,111 C230,130.33 245.67,146 265,146 Z M265,141.116 C248.367,141.116 234.884,127.633 234.884,111 C234.884,94.367 248.367,80.884 265,80.884 C281.633,80.884 295.116,94.367 295.116,111 C295.116,127.633 281.633,141.116 265,141.116 Z" />
            <path d="M273.953,101.233 L273.953,102.86 C273.953,104.209 275.047,105.302 276.395,105.302 C277.744,105.302 278.837,104.209 278.837,102.86 L278.837,101.233 C278.837,99.884 277.744,98.791 276.395,98.791 C275.047,98.791 273.953,99.884 273.953,101.233 Z" />
            <path d="M251.163,101.233 L251.163,102.86 C251.163,104.209 252.256,105.302 253.605,105.302 C254.953,105.302 256.047,104.209 256.047,102.86 L256.047,101.233 C256.047,99.884 254.953,98.791 253.605,98.791 C252.256,98.791 251.163,99.884 251.163,101.233 Z" />
            <path d="M253.95,126.441 L276.741,123.185 C278.076,122.994 279.003,121.757 278.813,120.422 C278.622,119.087 277.385,118.159 276.05,118.35 L253.259,121.606 C251.924,121.797 250.997,123.034 251.187,124.369 C251.378,125.704 252.615,126.631 253.95,126.441 Z" />
        </g>
        <g id="Regular-S">
            <path d="M465,146 C484.33,146 500,130.33 500,111 C500,91.67 484.33,76 465,76 C445.67,76 430,91.67 430,111 C430,130.33 445.67,146 465,146 Z M465,141.116 C448.367,141.116 434.884,127.633 434.884,111 C434.884,94.367 448.367,80.884 465,80.884 C481.633,80.884 495.116,94.367 495.116,111 C495.116,127.633 481.633,141.116 465,141.116 Z" />
            <path d="M473.953,101.233 L473.953,102.86 C473.953,104.209 475.047,105.302 476.395,105.302 C477.744,105.302 478.837,104.209 478.837,102.86 L478.837,101.233 C478.837,99.884 477.744,98.791 476.395,98.791 C475.047,98.791 473.953,99.884 473.953,101.233 Z" />
            <path d="M451.163,101.233 L451.163,102.86 C451.163,104.209 452.256,105.302 453.605,105.302 C454.953,105.302 456.047,104.209 456.047,102.86 L456.047,101.233 C456.047,99.884 454.953,98.791 453.605,98.791 C452.256,98.791 451.163,99.884 451.163,101.233 Z" />
            <path d="M453.95,126.441 L476.741,123.185 C478.076,122.994 479.003,121.757 478.813,120.422 C478.622,119.087 477.385,118.159 476.05,118.35 L453.259,121.606 C451.924,121.797 450.997,123.034 451.187,124.369 C451.378,125.704 452.615,126.631 453.95,126.441 Z" />
        </g>
        <g id="Black-S">
            <path d="M665,146 C684.33,146 700,130.33 700,111 C700,91.67 684.33,76 665,76 C645.67,76 630,91.67 630,111 C630,130.33 645.67,146 665,146 Z M665,141.116 C648.367,141.116 634.884,127.633 634.884,111 C634.884,94.367 648.367,80.884 665,80.884 C681.633,80.884 695.116,94.367 695.116,111 C695.116,127.633 681.633,141.116 665,141.116 Z" />
            <path d="M673.953,101.233 L673.953,102.86 C673.953,104.209 675.047,105.302 676.395,105.302 C677.744,105.302 678.837,104.209 678.837,102.86 L678.837,101.233 C678.837,99.884 677.744,98.791 676.395,98.791 C675.047,98.791 673.953,99.884 673.953,101.233 Z" />
            <path d="M651.163,101.233 L651.163,102.86 C651.163,104.209 652.256,105.302 653.605,105.302 C654.953,105.302 656.047,104.209 656.047,102.86 L656.047,101.233 C656.047,99.884 654.953,98.791 653.605,98.791 C652.256,98.791 651.163,99.884 651.163,101.233 Z" />
            <path d="M653.95,126.441 L676.741,123.185 C678.076,122.994 679.003,121.757 678.813,120.422 C678.622,119.087 677.385,118.159 676.05,118.35 L653.259,121.606 C651.924,121.797 650.997,123.034 651.187,124.369 C651.378,125.704 652.615,126.631 653.95,126.441 Z" />
        </g>
    </g>
</svg>