<?xml version="1.0" encoding="UTF-8"?>
<svg height="600" width="800" xmlns="http://www.w3.org/2000/svg" xmlns:xlink="http://www.w3.org/1999/xlink">
    <g id="Notes" font-family="'LucidaGrande', 'Lucida Grande', sans-serif" font-size="13">
        <rect fill="white" height="600.0" width="800.0" x="0.0" y="0.0" />
        <g font-size="13">
            <text x="18.0" y="176.0">Small</text>
            <text x="18.0" y="376.0">Medium</text>
            <text x="18.0" y="576.0">Large</text>
        </g>
        <g font-size="9">
            <text x="250.0" y="30.0">Ultralight</text>
            <text x="450.0" y="30.0">Regular</text>
            <text x="650.0" y="30.0">Black</text>
            <text id="template-version" fill="#505050" text-anchor="end" x="785.0" y="575.0">Template v.3.0</text>
            <a href="https://github.com/swhitty/SwiftDraw">
                <text fill="#505050" text-anchor="end" x="785.0" y="590.0">https://github.com/swhitty/SwiftDraw</text>
            </a>
        </g>
    </g>
    <g id="Guides" stroke="rgb(39, 170, 225)" stroke-width="0.5">
        <path id="Capline-S" d="M18,76 l800,0" />
        <path id="H-reference" d="M85,145.755 L87.685,145.755 L113.369,79.287 L114.052,79.287 L114.052,76 L112.148,76 L85,145.755 Z M95.693,121.536 L130.996,121.536 L130.263,119.313 L96.474,119.313 L95.693,121.536 Z M139.15,145.755 L141.787,145.755 L114.638,76 L113.466,76 L113.466,79.287 L139.15,145.755 Z" stroke="none" />
        <path id="Baseline-S" d="M18,146 l800,0" />
        <path id="left-margin-Ultralight-S" d="M220,56 l0,110" />
        <path id="right-margin-Ultralight-S" d="M310,56 l0,110" />
        <path id="left-margin-Regular-S" d="M420,56 l0,110" />
        <path id="right-margin-Regular-S" d="M510,56 l0,110" />
        <path id="left-margin-Black-S" d="M620,56 l0,110" />
        <path id="right-margin-Black-S" d="M710,56 l0,110" />
        <path id="Capline-M" d="M18,276 l800,0" />
        <path id="Baseline-M" d="M18,346 l800,0" />
        <path id="Capline-L" d="M18,476 l800,0" />
        <path id="Baseline-L" d="M18,546 l800,0" />
    </g>
    <g id="Symbols">
        <g id="Ultralight-S">
            <path d="M294.615,111 L294.615,137.923 C294.615,138.637 294.332,139.322 293.827,139.827 C293.322,140.332 292.637,140.615 291.923,140.615 L238.077,140.615 C237.363,140.615 236.678,140.332 236.173,139.827 C235.668,139.322 235.385,138.637 235.385,137.923 L235.385,84.077 C235.385,83.363 235.668,82.678 236.173,82.173 C236.678,81.668 237.363,81.385 238.077,81.385 L291.923,81.385 C292.637,81.385 293.322,81.668 293.827,82.173 C294.332,82.678 294.615,83.363 294.615,84.077 L294.615,111 Z M300,111 L300,84.077 C300,81.935 299.149,79.88 297.634,78.366 C296.12,76.851 294.065,76 291.923,76 L238.077,76 C235.935,76 233.88,76.851 232.366,78.366 C230.851,79.88 230,81.935 230,84.077 L230,137.923 C230,140.065 230.851,142.12 232.366,143.634 C233.88,145.149 235.935,146 238.077,146 L291.923,146 C294.065,146 296.12,145.149 297.634,143.634 C299.149,142.12 300,140.065 300,137.923 L300,111 Z" />
            <path d="M271.282,111 L271.282,119.974 C271.282,121.64 270.62,123.238 269.442,124.416 C268.264,125.595 266.666,126.256 265,126.256 C263.334,126.256 261.736,125.595 260.558,124.416 C259.38,123.238 258.718,121.64 258.718,119.974 L258.718,102.026 C258.718,100.36 259.38,98.762 260.558,97.584 C261.736,96.405 263.334,95.744 265,95.744 C266.666,95.744 268.264,96.405 269.442,97.584 C270.62,98.762 271.282,100.36 271.282,102.026 L271.282,111 Z M276.667,111 L276.667,102.026 C276.667,98.931 275.438,95.964 273.25,93.776 C271.062,91.588 268.094,90.359 265,90.359 C261.906,90.359 258.938,91.588 256.75,93.776 C254.562,95.964 253.333,98.931 253.333,102.026 L253.333,119.974 C253.333,123.069 254.562,126.036 256.75,128.224 C258.938,130.412 261.906,131.641 265,131.641 C268.094,131.641 271.062,130.412 273.25,128.224 C275.438,126.036 276.667,123.069 276.667,119.974 L276.667,111 Z" />
        </g>
        <g id="Regular-S">
            <path d="M494.615,111 L494.615,137.923 C494.615,138.637 494.332,139.322 493.827,139.827 C493.322,140.332 492.637,140.615 491.923,140.615 L438.077,140.615 C437.363,140.615 436.678,140.332 436.173,139.827 C435.668,139.322 435.385,138.637 435.385,137.923 L435.385,84.077 C435.385,83.363 435.668,82.678 436.173,82.173 C436.678,81.668 437.363,81.385 438.077,81.385 L491.923,81.385 C492.637,81.385 493.322,81.668 493.827,82.173 C494.332,82.678 494.615,83.363 494.615,84.077 L494.615,111 Z M500,111 L500,84.077 C500,81.935 499.149,79.88 497.634,78.366 C496.12,76.851 494.065,76 491.923,76 L438.077,76 C435.935,76 433.88,76.851 432.366,78.366 C430.851,79.88 430,81.935 430,84.077 L430,137.923 C430,140.065 430.851,142.12 432.366,143.634 C433.88,145.149 435.935,146 438.077,146 L491.923,146 C494.065,146 496.12,145.149 497.634,143.634 C499.149,142.12 500,140.065 500,137.923 L500,111 Z" />
            <path d="M471.282,111 L471.282,119.974 C471.282,121.64 470.62,123.238 469.442,124.416 C468.264,125.595 466.666,126.256 465,126.256 C463.334,126.256 461.736,125.595 460.558,124.416 C459.38,123.238 458.718,121.64 458.718,119.974 L458.718,102.026 C458.718,100.36 459.38,98.762 460.558,97.584 C461.736,96.405 463.334,95.744 465,95.744 C466.666,95.744 468.264,96.405 469.442,97.584 C470.62,98.762 471.282,100.36 471.282,102.026 L471.282,111 Z M476.667,111 L476.667,102.026 C476.667,98.931 475.438,95.964 473.25,93.776 C471.062,91.588 468.094,90.359 465,90.359 C461.906,90.359 458.938,91.588 456.75,93.776 C454.562,95.964 453.333,98.931 453.333,102.026 L453.333,119.974 C453.333,123.069 454.562,126.036 456.75,128.224 C458.938,130.412 461.906,131.641 465,131.641 C468.094,131.641 471.062,130.412 473.25,128.224 C475.438,126.036 476.667,123.069 476.667,119.974 L476.667,111 Z" />
        </g>
        <g id="Black-S">
            <path d="M694.615,111 L694.615,137.923 C694.615,138.637 694.332,139.322 693.827,139.827 C693.322,140.332 692.637,140.615 691.923,140.615 L638.077,140.615 C637.363,140.615 636.678,140.332 636.173,139.827 C635.668,139.322 635.385,138.637 635.385,137.923 L635.385,84.077 C635.385,83.363 635.668,82.678 636.173,82.173 C636.678,81.668 637.363,81.385 638.077,81.385 L691.923,81.385 C692.637,81.385 693.322,81.668 693.827,82.173 C694.332,82.678 694.615,83.363 694.615,84.077 L694.615,111 Z M700,111 L700,84.077 C700,81.935 699.149,79.88 697.634,78.366 C696.12,76.851 694.065,76 691.923,76 L638.077,76 C635.935,76 633.88,76.851 632.366,78.366 C630.851,79.88 630,81.935 630,84.077 L630,137.923 C630,140.065 630.851,142.12 632.366,143.634 C633.88,145.149 635.935,146 638.077,146 L691.923,146 C694.065,146 696.12,145.149 697.634,143.634 C699.149,142.12 700,140.065 700,137.923 L700,111 Z" />
            <path d="M671.282,111 L671.282,119.974 C671.282,121.64 670.62,123.238 669.442,124.416 C668.264,125.595 666.666,126.256 665,126.256 C663.334,126.256 661.736,125.595 660.558,124.416 C659.38,123.238 658.718,121.64 658.718,119.974 L658.718,102.026 C658.718,100.36 659.38,98.762 660.558,97.584 C661.736,96.405 663.334,95.744 665,95.744 C666.666,95.744 668.264,96.405 669.442,97.584 C670.62,98.762 671.282,100.36 671.282,102.026 L671.282,111 Z M676.667,111 L676.667,102.026 C676.667,98.931 675.438,95.964 673.25,93.776 C671.062,91.588 668.094,90.359 665,90.359 C661.906,90.359 658.938,91.588 656.75,93.776 C654.562,95.964 653.333,98.931 653.333,102.026 L653.333,119.974 C653.333,123.069 654.562,126.036 656.75,128.224 C658.938,130.412 661.906,131.641 665,131.641 C668.094,131.641 671.062,130.412 673.25,128.224 C675.438,126.036 676.667,123.069 676.667,119.974 L676.667,111 Z" />
        </g>
    </g>
</svg>