<?xml version="1.0" encoding="UTF-8"?>
<svg height="600" width="800" xmlns="http://www.w3.org/2000/svg" xmlns:xlink="http://www.w3.org/1999/xlink">
    <g id="Notes" font-family="'LucidaGrande', 'Lucida Grande', sans-serif" font-size="13">
        <rect fill="white" height="600.0" width="800.0" x="0.0" y="0.0" />
        <g font-size="13">
            <text x="18.0" y="176.0">Small</text>
            <text x="18.0" y="376.0">Medium</text>
            <text x="18.0" y="576.0">Large</text>
        </g>
        <g font-size="9">
            <text x="250.0" y="30.0">Ultralight</text>
            <text x="450.0" y="30.0">Regular</text>
            <text x="650.0" y="30.0">Black</text>
            <text id="template-version" fill="#505050" text-anchor="end" x="785.0" y="575.0">Template v.3.0</text>
            <a href="https://github.com/swhitty/SwiftDraw">
                <text fill="#505050" text-anchor="end" x="785.0" y="590.0">https://github.com/swhitty/SwiftDraw</text>
            </a>
        </g>
    </g>
    <g id="Guides" stroke="rgb(39, 170, 225)" stroke-width="0.5">
        <path id="Capline-S" d="M18,76 l800,0" />
        <path id="H-reference" d="M85,145.755 L87.685,145.755 L113.369,79.287 L114.052,79.287 L114.052,76 L112.148,76 L85,145.755 Z M95.693,121.536 L130.996,121.536 L130.263,119.313 L96.474,119.313 L95.693,121.536 Z M139.15,145.755 L141.787,145.755 L114.638,76 L113.466,76 L113.466,79.287 L139.15,145.755 Z" stroke="none" />
        <path id="Baseline-S" d="M18,146 l800,0" />
        <path id="left-margin-Ultralight-S" d="M220,56 l0,110" />
        <path id="right-margin-Ultralight-S" d="M310,56 l0,110" />
        <path id="left-margin-Regular-S" d="M420,56 l0,110" />
        <path id="right-margin-Regular-S" d="M510,56 l0,110" />
        <path id="left-margin-Black-S" d="M620,56 l0,110" />
        <path id="right-margin-Black-S" d="M710,56 l0,110" />
        <path id="Capline-M" d="M18,276 l800,0" />
        <path id="Baseline-M" d="M18,346 l800,0" />
        <path id="Capline-L" d="M18,476 l800,0" />
        <path id="Baseline-L" d="M18,546 l800,0" />
    </g>
    <g id="Symbols">
        <g id="Ultralight-S">
            <path d="M265,146 C284.33,146 300,130.33 300,111 C300,91.67 284.33,76 265,76 C245.67,76 230,91.67 230,111 C230,130.33 245.67,146 265,146 Z M265,141.116 C248.367,141.116 234.884,127.633 234.884,111 C234.884,94.367 248.367,80.884 265,80.884 C281.633,80.884 295.116,94.367 295.116,111 C295.116,127.633 281.633,141.116 265,141.116 Z" />
            <path d="M265,121.581 C267.93,121.581 270.265,122.565 272.128,124.22 C272.783,124.803 273.329,125.427 273.767,126.045 C274.015,126.396 274.163,126.646 274.211,126.743 L276.395,123.209 L253.605,123.209 L255.789,126.743 C255.837,126.646 255.985,126.396 256.233,126.045 C256.671,125.427 257.217,124.803 257.872,124.22 C259.735,122.565 262.07,121.581 265,121.581 Z M265,116.698 C260.808,116.698 257.343,118.156 254.628,120.57 C252.995,122.022 251.956,123.488 251.421,124.559 C250.609,126.183 251.789,128.093 253.605,128.093 L276.395,128.093 C278.211,128.093 279.391,126.183 278.579,124.559 C278.044,123.488 277.005,122.022 275.372,120.57 C272.657,118.156 269.192,116.698 265,116.698 Z" />
            <path d="M273.953,104.488 L273.953,106.116 C273.953,107.465 275.047,108.558 276.395,108.558 C277.744,108.558 278.837,107.465 278.837,106.116 L278.837,104.488 C278.837,103.14 277.744,102.047 276.395,102.047 C275.047,102.047 273.953,103.14 273.953,104.488 Z" />
            <path d="M251.163,104.488 L251.163,106.116 C251.163,107.465 252.256,108.558 253.605,108.558 C254.953,108.558 256.047,107.465 256.047,106.116 L256.047,104.488 C256.047,103.14 254.953,102.047 253.605,102.047 C252.256,102.047 251.163,103.14 251.163,104.488 Z" />
        </g>
        <g id="Regular-S">
            <path d="M465,146 C484.33,146 500,130.33 500,111 C500,91.67 484.33,76 465,76 C445.67,76 430,91.67 430,111 C430,130.33 445.67,146 465,146 Z M465,141.116 C448.367,141.116 434.884,127.633 434.884,111 C434.884,94.367 448.367,80.884 465,80.884 C481.633,80.884 495.116,94.367 495.116,111 C495.116,127.633 481.633,141.116 465,141.116 Z" />
            <path d="M465,121.581 C467.93,121.581 470.265,122.565 472.128,124.22 C472.783,124.803 473.329,125.427 473.767,126.045 C474.015,126.396 474.163,126.646 474.211,126.743 L476.395,123.209 L453.605,123.209 L455.789,126.743 C455.837,126.646 455.985,126.396 456.233,126.045 C456.671,125.427 457.217,124.803 457.872,124.22 C459.735,122.565 462.07,121.581 465,121.581 Z M465,116.698 C460.808,116.698 457.343,118.156 454.628,120.57 C452.995,122.022 451.956,123.488 451.421,124.559 C450.609,126.183 451.789,128.093 453.605,128.093 L476.395,128.093 C478.211,128.093 479.391,126.183 478.579,124.559 C478.044,123.488 477.005,122.022 475.372,120.57 C472.657,118.156 469.192,116.698 465,116.698 Z" />
            <path d="M473.953,104.488 L473.953,106.116 C473.953,107.465 475.047,108.558 476.395,108.558 C477.744,108.558 478.837,107.465 478.837,106.116 L478.837,104.488 C478.837,103.14 477.744,102.047 476.395,102.047 C475.047,102.047 473.953,103.14 473.953,104.488 Z" />
            <path d="M451.163,104.488 L451.163,106.116 C451.163,107.465 452.256,108.558 453.605,108.558 C454.953,108.558 456.047,107.465 456.047,106.116 L456.047,104.488 C456.047,103.14 454.953,102.047 453.605,102.047 C452.256,102.047 451.163,103.14 451.163,104.488 Z" />
        </g>
        <g id="Black-S">
            <path d="M665,146 C684.33,146 700,130.33 700,111 C700,91.67 684.33,76 665,76 C645.67,76 630,91.67 630,111 C630,130.33 645.67,146 665,146 Z M665,141.116 C648.367,141.116 634.884,127.633 634.884,111 C634.884,94.367 648.367,80.884 665,80.884 C681.633,80.884 695.116,94.367 695.116,111 C695.116,127.633 681.633,141.116 665,141.116 Z" />
            <path d="M665,121.581 C667.93,121.581 670.265,122.565 672.128,124.22 C672.783,124.803 673.329,125.427 673.767,126.045 C674.015,126.396 674.163,126.646 674.211,126.743 L676.395,123.209 L653.605,123.209 L655.789,126.743 C655.837,126.646 655.985,126.396 656.233,126.045 C656.671,125.427 657.217,124.803 657.872,124.22 C659.735,122.565 662.07,121.581 665,121.581 Z M665,116.698 C660.808,116.698 657.343,118.156 654.628,120.57 C652.995,122.022 651.956,123.488 651.421,124.559 C650.609,126.183 651.789,128.093 653.605,128.093 L676.395,128.093 C678.211,128.093 679.391,126.183 678.579,124.559 C678.044,123.488 677.005,122.022 675.372,120.57 C672.657,118.156 669.192,116.698 665,116.698 Z" />
            <path d="M673.953,104.488 L673.953,106.116 C673.953,107.465 675.047,108.558 676.395,108.558 C677.744,108.558 678.837,107.465 678.837,106.116 L678.837,104.488 C678.837,103.14 677.744,102.047 676.395,102.047 C675.047,102.047 673.953,103.14 673.953,104.488 Z" />
            <path d="M651.163,104.488 L651.163,106.116 C651.163,107.465 652.256,108.558 653.605,108.558 C654.953,108.558 656.047,107.465 656.047,106.116 L656.047,104.488 C656.047,103.14 654.953,102.047 653.605,102.047 C652.256,102.047 651.163,103.14 651.163,104.488 Z" />
        </g>
    </g>
</svg>