<?xml version="1.0" encoding="UTF-8"?>
<svg height="600" width="800" xmlns="http://www.w3.org/2000/svg" xmlns:xlink="http://www.w3.org/1999/xlink">
    <g id="Notes" font-family="'LucidaGrande', 'Lucida Grande', sans-serif" font-size="13">
        <rect fill="white" height="600.0" width="800.0" x="0.0" y="0.0" />
        <g font-size="13">
            <text x="18.0" y="176.0">Small</text>
            <text x="18.0" y="376.0">Medium</text>
            <text x="18.0" y="576.0">Large</text>
        </g>
        <g font-size="9">
            <text x="250.0" y="30.0">Ultralight</text>
            <text x="450.0" y="30.0">Regular</text>
            <text x="650.0" y="30.0">Black</text>
            <text id="template-version" fill="#505050" text-anchor="end" x="785.0" y="575.0">Template v.3.0</text>
            <a href="https://github.com/swhitty/SwiftDraw">
                <text fill="#505050" text-anchor="end" x="785.0" y="590.0">https://github.com/swhitty/SwiftDraw</text>
            </a>
        </g>
    </g>
    <g id="Guides" stroke="rgb(39, 170, 225)" stroke-width="0.5">
        <path id="Capline-S" d="M18,76 l800,0" />
        <path id="H-reference" d="M85,145.755 L87.685,145.755 L113.369,79.287 L114.052,79.287 L114.052,76 L112.148,76 L85,145.755 Z M95.693,121.536 L130.996,121.536 L130.263,119.313 L96.474,119.313 L95.693,121.536 Z M139.15,145.755 L141.787,145.755 L114.638,76 L113.466,76 L113.466,79.287 L139.15,145.755 Z" stroke="none" />
        <path id="Baseline-S" d="M18,146 l800,0" />
        <path id="left-margin-Ultralight-S" d="M213.194,56 l0,110" />
        <path id="right-margin-Ultralight-S" d="M316.806,56 l0,110" />
        <path id="left-margin-Regular-S" d="M413.194,56 l0,110" />
        <path id="right-margin-Regular-S" d="M516.806,56 l0,110" />
        <path id="left-margin-Black-S" d="M613.194,56 l0,110" />
        <path id="right-margin-Black-S" d="M716.806,56 l0,110" />
        <path id="Capline-M" d="M18,276 l800,0" />
        <path id="Baseline-M" d="M18,346 l800,0" />
        <path id="Capline-L" d="M18,476 l800,0" />
        <path id="Baseline-L" d="M18,546 l800,0" />
    </g>
    <g id="Symbols">
        <g id="Ultralight-S">
            <path d="M272.778,138.222 L231.944,138.222 C230.334,138.222 229.028,136.916 229.028,135.306 L229.028,84.75 C229.028,83.139 230.334,81.833 231.944,81.833 L298.056,81.833 C299.666,81.833 300.972,83.139 300.972,84.75 L300.972,108.198 C300.972,109.808 302.278,111.114 303.889,111.114 C305.5,111.114 306.806,109.808 306.806,108.198 L306.806,84.75 C306.806,79.917 302.888,76 298.056,76 L231.944,76 C227.112,76 223.194,79.918 223.194,84.75 L223.194,135.306 C223.194,140.138 227.112,144.056 231.944,144.056 L272.778,144.056 C274.389,144.056 275.694,142.75 275.694,141.139 C275.694,139.528 274.389,138.222 272.778,138.222 Z" />
            <path d="M297.083,143.083 L297.083,119.75 C297.083,118.139 295.777,116.833 294.167,116.833 C292.556,116.833 291.25,118.139 291.25,119.75 L291.25,143.083 C291.25,144.694 292.556,146 294.167,146 C295.777,146 297.083,144.694 297.083,143.083 Z" />
            <path d="M286.507,131.535 L296.229,121.812 L292.104,121.812 L301.827,131.535 C302.966,132.674 304.812,132.674 305.951,131.535 C307.09,130.396 307.09,128.549 305.951,127.41 L296.229,117.688 C295.09,116.549 293.243,116.549 292.104,117.688 L282.382,127.41 C281.243,128.549 281.243,130.396 282.382,131.535 C283.521,132.674 285.368,132.674 286.507,131.535 Z" />
            <path d="M229.028,84.75 C229.028,83.139 230.334,81.833 231.944,81.833 L298.056,81.833 C299.666,81.833 300.972,83.139 300.972,84.75 L300.972,102.25 L303.889,99.333 L226.111,99.333 L229.028,102.25 L229.028,84.75 Z M223.194,84.75 L223.194,102.25 L223.194,105.167 L226.111,105.167 L303.889,105.167 L306.806,105.167 L306.806,102.25 L306.806,84.75 C306.806,79.917 302.888,76 298.056,76 L231.944,76 C227.112,76 223.194,79.918 223.194,84.75 Z" />
            <path d="M237.778,94.472 C239.926,94.472 241.667,92.731 241.667,90.583 C241.667,88.436 239.926,86.694 237.778,86.694 C235.63,86.694 233.889,88.436 233.889,90.583 C233.889,92.731 235.63,94.472 237.778,94.472 Z" />
            <path d="M249.444,94.472 C251.592,94.472 253.333,92.731 253.333,90.583 C253.333,88.436 251.592,86.694 249.444,86.694 C247.297,86.694 245.556,88.436 245.556,90.583 C245.556,92.731 247.297,94.472 249.444,94.472 Z" />
        </g>
        <g id="Regular-S">
            <path d="M472.778,138.222 L431.944,138.222 C430.334,138.222 429.028,136.916 429.028,135.306 L429.028,84.75 C429.028,83.139 430.334,81.833 431.944,81.833 L498.056,81.833 C499.666,81.833 500.972,83.139 500.972,84.75 L500.972,108.198 C500.972,109.808 502.278,111.114 503.889,111.114 C505.5,111.114 506.806,109.808 506.806,108.198 L506.806,84.75 C506.806,79.917 502.888,76 498.056,76 L431.944,76 C427.112,76 423.194,79.918 423.194,84.75 L423.194,135.306 C423.194,140.138 427.112,144.056 431.944,144.056 L472.778,144.056 C474.389,144.056 475.694,142.75 475.694,141.139 C475.694,139.528 474.389,138.222 472.778,138.222 Z" />
            <path d="M497.083,143.083 L497.083,119.75 C497.083,118.139 495.777,116.833 494.167,116.833 C492.556,116.833 491.25,118.139 491.25,119.75 L491.25,143.083 C491.25,144.694 492.556,146 494.167,146 C495.777,146 497.083,144.694 497.083,143.083 Z" />
            <path d="M486.507,131.535 L496.229,121.812 L492.104,121.812 L501.827,131.535 C502.966,132.674 504.812,132.674 505.951,131.535 C507.09,130.396 507.09,128.549 505.951,127.41 L496.229,117.688 C495.09,116.549 493.243,116.549 492.104,117.688 L482.382,127.41 C481.243,128.549 481.243,130.396 482.382,131.535 C483.521,132.674 485.368,132.674 486.507,131.535 Z" />
            <path d="M429.028,84.75 C429.028,83.139 430.334,81.833 431.944,81.833 L498.056,81.833 C499.666,81.833 500.972,83.139 500.972,84.75 L500.972,102.25 L503.889,99.333 L426.111,99.333 L429.028,102.25 L429.028,84.75 Z M423.194,84.75 L423.194,102.25 L423.194,105.167 L426.111,105.167 L503.889,105.167 L506.806,105.167 L506.806,102.25 L506.806,84.75 C506.806,79.917 502.888,76 498.056,76 L431.944,76 C427.112,76 423.194,79.918 423.194,84.75 Z" />
            <path d="M437.778,94.472 C439.926,94.472 441.667,92.731 441.667,90.583 C441.667,88.436 439.926,86.694 437.778,86.694 C435.63,86.694 433.889,88.436 433.889,90.583 C433.889,92.731 435.63,94.472 437.778,94.472 Z" />
            <path d="M449.444,94.472 C451.592,94.472 453.333,92.731 453.333,90.583 C453.333,88.436 451.592,86.694 449.444,86.694 C447.297,86.694 445.556,88.436 445.556,90.583 C445.556,92.731 447.297,94.472 449.444,94.472 Z" />
        </g>
        <g id="Black-S">
            <path d="M672.778,138.222 L631.944,138.222 C630.334,138.222 629.028,136.916 629.028,135.306 L629.028,84.75 C629.028,83.139 630.334,81.833 631.944,81.833 L698.056,81.833 C699.666,81.833 700.972,83.139 700.972,84.75 L700.972,108.198 C700.972,109.808 702.278,111.114 703.889,111.114 C705.5,111.114 706.806,109.808 706.806,108.198 L706.806,84.75 C706.806,79.917 702.888,76 698.056,76 L631.944,76 C627.112,76 623.194,79.918 623.194,84.75 L623.194,135.306 C623.194,140.138 627.112,144.056 631.944,144.056 L672.778,144.056 C674.389,144.056 675.694,142.75 675.694,141.139 C675.694,139.528 674.389,138.222 672.778,138.222 Z" />
            <path d="M697.083,143.083 L697.083,119.75 C697.083,118.139 695.777,116.833 694.167,116.833 C692.556,116.833 691.25,118.139 691.25,119.75 L691.25,143.083 C691.25,144.694 692.556,146 694.167,146 C695.777,146 697.083,144.694 697.083,143.083 Z" />
            <path d="M686.507,131.535 L696.229,121.812 L692.104,121.812 L701.826,131.535 C702.966,132.674 704.812,132.674 705.951,131.535 C707.09,130.396 707.09,128.549 705.951,127.41 L696.229,117.688 C695.09,116.549 693.243,116.549 692.104,117.688 L682.382,127.41 C681.243,128.549 681.243,130.396 682.382,131.535 C683.521,132.674 685.368,132.674 686.507,131.535 Z" />
            <path d="M629.028,84.75 C629.028,83.139 630.334,81.833 631.944,81.833 L698.056,81.833 C699.666,81.833 700.972,83.139 700.972,84.75 L700.972,102.25 L703.889,99.333 L626.111,99.333 L629.028,102.25 L629.028,84.75 Z M623.194,84.75 L623.194,102.25 L623.194,105.167 L626.111,105.167 L703.889,105.167 L706.806,105.167 L706.806,102.25 L706.806,84.75 C706.806,79.917 702.888,76 698.056,76 L631.944,76 C627.112,76 623.194,79.918 623.194,84.75 Z" />
            <path d="M637.778,94.472 C639.926,94.472 641.667,92.731 641.667,90.583 C641.667,88.436 639.926,86.694 637.778,86.694 C635.63,86.694 633.889,88.436 633.889,90.583 C633.889,92.731 635.63,94.472 637.778,94.472 Z" />
            <path d="M649.444,94.472 C651.592,94.472 653.333,92.731 653.333,90.583 C653.333,88.436 651.592,86.694 649.444,86.694 C647.297,86.694 645.556,88.436 645.556,90.583 C645.556,92.731 647.297,94.472 649.444,94.472 Z" />
        </g>
    </g>
</svg>