<?xml version="1.0" encoding="UTF-8"?>
<svg height="600" width="800" xmlns="http://www.w3.org/2000/svg" xmlns:xlink="http://www.w3.org/1999/xlink">
    <g id="Notes" font-family="'LucidaGrande', 'Lucida Grande', sans-serif" font-size="13">
        <rect fill="white" height="600.0" width="800.0" x="0.0" y="0.0" />
        <g font-size="13">
            <text x="18.0" y="176.0">Small</text>
            <text x="18.0" y="376.0">Medium</text>
            <text x="18.0" y="576.0">Large</text>
        </g>
        <g font-size="9">
            <text x="250.0" y="30.0">Ultralight</text>
            <text x="450.0" y="30.0">Regular</text>
            <text x="650.0" y="30.0">Black</text>
            <text id="template-version" fill="#505050" text-anchor="end" x="785.0" y="575.0">Template v.3.0</text>
            <a href="https://github.com/swhitty/SwiftDraw">
                <text fill="#505050" text-anchor="end" x="785.0" y="590.0">https://github.com/swhitty/SwiftDraw</text>
            </a>
        </g>
    </g>
    <g id="Guides" stroke="rgb(39, 170, 225)" stroke-width="0.5">
        <path id="Capline-S" d="M18,76 l800,0" />
        <path id="H-reference" d="M85,145.755 L87.685,145.755 L113.369,79.287 L114.052,79.287 L114.052,76 L112.148,76 L85,145.755 Z M95.693,121.536 L130.996,121.536 L130.263,119.313 L96.474,119.313 L95.693,121.536 Z M139.15,145.755 L141.787,145.755 L114.638,76 L113.466,76 L113.466,79.287 L139.15,145.755 Z" stroke="none" />
        <path id="Baseline-S" d="M18,146 l800,0" />
        <path id="left-margin-Ultralight-S" d="M220,56 l0,110" />
        <path id="right-margin-Ultralight-S" d="M310,56 l0,110" />
        <path id="left-margin-Regular-S" d="M420,56 l0,110" />
        <path id="right-margin-Regular-S" d="M510,56 l0,110" />
        <path id="left-margin-Black-S" d="M620,56 l0,110" />
        <path id="right-margin-Black-S" d="M710,56 l0,110" />
        <path id="Capline-M" d="M18,276 l800,0" />
        <path id="Baseline-M" d="M18,346 l800,0" />
        <path id="Capline-L" d="M18,476 l800,0" />
        <path id="Baseline-L" d="M18,546 l800,0" />
    </g>
    <g id="Symbols">
        <g id="Ultralight-S">
            <path d="M272.18,81.385 L297.308,81.385 L294.615,78.692 L294.615,103.821 C294.615,105.307 295.821,106.513 297.308,106.513 C298.795,106.513 300,105.307 300,103.821 L300,78.692 C300,77.205 298.795,76 297.308,76 L272.18,76 C270.693,76 269.487,77.205 269.487,78.692 C269.487,80.179 270.693,81.385 272.18,81.385 Z" />
            <path d="M294.615,120.825 L294.615,137.923 C294.615,139.41 293.41,140.615 291.923,140.615 L238.077,140.615 C236.59,140.615 235.385,139.41 235.385,137.923 L235.385,84.077 C235.385,82.59 236.59,81.385 238.077,81.385 L254.231,81.385 C255.718,81.385 256.923,80.179 256.923,78.692 C256.923,77.205 255.718,76 254.231,76 L238.077,76 C233.616,76 230,79.616 230,84.077 L230,137.923 C230,142.384 233.616,146 238.077,146 L291.923,146 C296.384,146 300,142.384 300,137.923 L300,120.825 C300,119.338 298.795,118.132 297.308,118.132 C295.821,118.132 294.615,119.338 294.615,120.825 Z" />
            <path d="M270.134,109.673 L297.596,82.211 C298.647,81.16 298.647,79.455 297.596,78.404 C296.544,77.352 294.84,77.352 293.788,78.404 L266.327,105.865 C265.275,106.917 265.275,108.621 266.327,109.673 C267.378,110.724 269.083,110.724 270.134,109.673 Z" />
        </g>
        <g id="Regular-S">
            <path d="M472.179,81.385 L497.308,81.385 L494.615,78.692 L494.615,103.821 C494.615,105.307 495.821,106.513 497.308,106.513 C498.795,106.513 500,105.307 500,103.821 L500,78.692 C500,77.205 498.795,76 497.308,76 L472.179,76 C470.693,76 469.487,77.205 469.487,78.692 C469.487,80.179 470.693,81.385 472.179,81.385 Z" />
            <path d="M494.615,120.825 L494.615,137.923 C494.615,139.41 493.41,140.615 491.923,140.615 L438.077,140.615 C436.59,140.615 435.385,139.41 435.385,137.923 L435.385,84.077 C435.385,82.59 436.59,81.385 438.077,81.385 L454.231,81.385 C455.718,81.385 456.923,80.179 456.923,78.692 C456.923,77.205 455.718,76 454.231,76 L438.077,76 C433.616,76 430,79.616 430,84.077 L430,137.923 C430,142.384 433.616,146 438.077,146 L491.923,146 C496.384,146 500,142.384 500,137.923 L500,120.825 C500,119.338 498.795,118.132 497.308,118.132 C495.821,118.132 494.615,119.338 494.615,120.825 Z" />
            <path d="M470.134,109.673 L497.596,82.211 C498.647,81.16 498.647,79.455 497.596,78.404 C496.544,77.352 494.84,77.352 493.788,78.404 L466.327,105.865 C465.275,106.917 465.275,108.621 466.327,109.673 C467.378,110.724 469.083,110.724 470.134,109.673 Z" />
        </g>
        <g id="Black-S">
            <path d="M672.18,81.385 L697.308,81.385 L694.615,78.692 L694.615,103.821 C694.615,105.307 695.821,106.513 697.308,106.513 C698.795,106.513 700,105.307 700,103.821 L700,78.692 C700,77.205 698.795,76 697.308,76 L672.18,76 C670.693,76 669.487,77.205 669.487,78.692 C669.487,80.179 670.693,81.385 672.18,81.385 Z" />
            <path d="M694.615,120.825 L694.615,137.923 C694.615,139.41 693.41,140.615 691.923,140.615 L638.077,140.615 C636.59,140.615 635.385,139.41 635.385,137.923 L635.385,84.077 C635.385,82.59 636.59,81.385 638.077,81.385 L654.231,81.385 C655.718,81.385 656.923,80.179 656.923,78.692 C656.923,77.205 655.718,76 654.231,76 L638.077,76 C633.616,76 630,79.616 630,84.077 L630,137.923 C630,142.384 633.616,146 638.077,146 L691.923,146 C696.384,146 700,142.384 700,137.923 L700,120.825 C700,119.338 698.795,118.132 697.308,118.132 C695.821,118.132 694.615,119.338 694.615,120.825 Z" />
            <path d="M670.134,109.673 L697.596,82.211 C698.647,81.16 698.647,79.455 697.596,78.404 C696.544,77.352 694.84,77.352 693.788,78.404 L666.327,105.865 C665.275,106.917 665.275,108.621 666.327,109.673 C667.378,110.724 669.083,110.724 670.134,109.673 Z" />
        </g>
    </g>
</svg>