<?xml version="1.0" encoding="UTF-8"?>
<svg height="600" width="800" xmlns="http://www.w3.org/2000/svg" xmlns:xlink="http://www.w3.org/1999/xlink">
    <g id="Notes" font-family="'LucidaGrande', 'Lucida Grande', sans-serif" font-size="13">
        <rect fill="white" height="600.0" width="800.0" x="0.0" y="0.0" />
        <g font-size="13">
            <text x="18.0" y="176.0">Small</text>
            <text x="18.0" y="376.0">Medium</text>
            <text x="18.0" y="576.0">Large</text>
        </g>
        <g font-size="9">
            <text x="250.0" y="30.0">Ultralight</text>
            <text x="450.0" y="30.0">Regular</text>
            <text x="650.0" y="30.0">Black</text>
            <text id="template-version" fill="#505050" text-anchor="end" x="785.0" y="575.0">Template v.3.0</text>
            <a href="https://github.com/swhitty/SwiftDraw">
                <text fill="#505050" text-anchor="end" x="785.0" y="590.0">https://github.com/swhitty/SwiftDraw</text>
            </a>
        </g>
    </g>
    <g id="Guides" stroke="rgb(39, 170, 225)" stroke-width="0.5">
        <path id="Capline-S" d="M18,76 l800,0" />
        <path id="H-reference" d="M85,145.755 L87.685,145.755 L113.369,79.287 L114.052,79.287 L114.052,76 L112.148,76 L85,145.755 Z M95.693,121.536 L130.996,121.536 L130.263,119.313 L96.474,119.313 L95.693,121.536 Z M139.15,145.755 L141.787,145.755 L114.638,76 L113.466,76 L113.466,79.287 L139.15,145.755 Z" stroke="none" />
        <path id="Baseline-S" d="M18,146 l800,0" />
        <path id="left-margin-Ultralight-S" d="M221,56 l0,110" />
        <path id="right-margin-Ultralight-S" d="M309,56 l0,110" />
        <path id="left-margin-Regular-S" d="M421,56 l0,110" />
        <path id="right-margin-Regular-S" d="M509,56 l0,110" />
        <path id="left-margin-Black-S" d="M621,56 l0,110" />
        <path id="right-margin-Black-S" d="M709,56 l0,110" />
        <path id="Capline-M" d="M18,276 l800,0" />
        <path id="Baseline-M" d="M18,346 l800,0" />
        <path id="Capline-L" d="M18,476 l800,0" />
        <path id="Baseline-L" d="M18,546 l800,0" />
    </g>
    <g id="Symbols">
        <g id="Ultralight-S">
            <path d="M260.93,84.953 C260.93,82.706 262.752,80.884 265,80.884 C267.248,80.884 269.07,82.706 269.07,84.953 C269.07,87.201 267.248,89.023 265,89.023 C262.752,89.023 260.93,87.201 260.93,84.953 Z M256.046,84.953 C256.046,89.898 260.055,93.907 265,93.907 C269.945,93.907 273.953,89.898 273.953,84.953 C273.953,80.009 269.945,76 265,76 C260.055,76 256.046,80.009 256.046,84.953 Z" />
            <path d="M291.15,83.046 L271.615,98.659 C271.035,99.122 270.698,99.824 270.698,100.567 L270.698,143.558 C270.698,144.907 271.791,146 273.139,146 C274.488,146 275.581,144.907 275.581,143.558 L275.581,100.567 L274.664,102.474 L294.199,86.861 C295.252,86.019 295.424,84.482 294.582,83.429 C293.74,82.375 292.203,82.204 291.15,83.046 Z" />
            <path d="M243.632,111.882 L258.102,103.335 L254.419,101.233 L254.419,119.004 L255.128,117.283 L235.593,136.954 C234.643,137.911 234.648,139.457 235.605,140.407 C236.562,141.357 238.108,141.352 239.058,140.395 L258.593,120.725 C259.047,120.267 259.302,119.649 259.302,119.004 L259.302,101.233 C259.302,99.342 257.246,98.169 255.619,99.13 L241.148,107.677 C239.987,108.362 239.602,109.86 240.288,111.021 C240.973,112.182 242.471,112.567 243.632,111.882 Z" />
        </g>
        <g id="Regular-S">
            <path d="M460.93,84.953 C460.93,82.706 462.752,80.884 465,80.884 C467.248,80.884 469.07,82.706 469.07,84.953 C469.07,87.201 467.248,89.023 465,89.023 C462.752,89.023 460.93,87.201 460.93,84.953 Z M456.046,84.953 C456.046,89.898 460.055,93.907 465,93.907 C469.945,93.907 473.953,89.898 473.953,84.953 C473.953,80.009 469.945,76 465,76 C460.055,76 456.046,80.009 456.046,84.953 Z" />
            <path d="M491.15,83.046 L471.615,98.659 C471.035,99.122 470.698,99.824 470.698,100.567 L470.698,143.558 C470.698,144.907 471.791,146 473.139,146 C474.488,146 475.581,144.907 475.581,143.558 L475.581,100.567 L474.664,102.474 L494.199,86.861 C495.252,86.019 495.424,84.482 494.582,83.429 C493.74,82.375 492.203,82.204 491.15,83.046 Z" />
            <path d="M443.632,111.882 L458.102,103.335 L454.419,101.233 L454.419,119.004 L455.128,117.283 L435.593,136.954 C434.643,137.911 434.648,139.457 435.605,140.407 C436.562,141.357 438.108,141.352 439.058,140.395 L458.593,120.725 C459.047,120.267 459.302,119.649 459.302,119.004 L459.302,101.233 C459.302,99.342 457.246,98.169 455.619,99.13 L441.148,107.677 C439.987,108.362 439.602,109.86 440.288,111.021 C440.973,112.182 442.471,112.567 443.632,111.882 Z" />
        </g>
        <g id="Black-S">
            <path d="M660.93,84.953 C660.93,82.706 662.752,80.884 665,80.884 C667.248,80.884 669.07,82.706 669.07,84.953 C669.07,87.201 667.248,89.023 665,89.023 C662.752,89.023 660.93,87.201 660.93,84.953 Z M656.046,84.953 C656.046,89.898 660.055,93.907 665,93.907 C669.945,93.907 673.953,89.898 673.953,84.953 C673.953,80.009 669.945,76 665,76 C660.055,76 656.046,80.009 656.046,84.953 Z" />
            <path d="M691.15,83.046 L671.615,98.659 C671.035,99.122 670.698,99.824 670.698,100.567 L670.698,143.558 C670.698,144.907 671.791,146 673.139,146 C674.488,146 675.581,144.907 675.581,143.558 L675.581,100.567 L674.664,102.474 L694.199,86.861 C695.252,86.019 695.424,84.482 694.582,83.429 C693.74,82.375 692.203,82.204 691.15,83.046 Z" />
            <path d="M643.632,111.882 L658.102,103.335 L654.419,101.233 L654.419,119.004 L655.128,117.283 L635.593,136.954 C634.643,137.911 634.648,139.457 635.605,140.407 C636.562,141.357 638.108,141.352 639.058,140.395 L658.593,120.725 C659.047,120.267 659.302,119.649 659.302,119.004 L659.302,101.233 C659.302,99.342 657.246,98.169 655.619,99.13 L641.148,107.677 C639.987,108.362 639.602,109.86 640.288,111.021 C640.973,112.182 642.471,112.567 643.632,111.882 Z" />
        </g>
    </g>
</svg>