<?xml version="1.0" encoding="UTF-8"?>
<svg height="600" width="800" xmlns="http://www.w3.org/2000/svg" xmlns:xlink="http://www.w3.org/1999/xlink">
    <g id="Notes" font-family="'LucidaGrande', 'Lucida Grande', sans-serif" font-size="13">
        <rect fill="white" height="600.0" width="800.0" x="0.0" y="0.0" />
        <g font-size="13">
            <text x="18.0" y="176.0">Small</text>
            <text x="18.0" y="376.0">Medium</text>
            <text x="18.0" y="576.0">Large</text>
        </g>
        <g font-size="9">
            <text x="250.0" y="30.0">Ultralight</text>
            <text x="450.0" y="30.0">Regular</text>
            <text x="650.0" y="30.0">Black</text>
            <text id="template-version" fill="#505050" text-anchor="end" x="785.0" y="575.0">Template v.3.0</text>
            <a href="https://github.com/swhitty/SwiftDraw">
                <text fill="#505050" text-anchor="end" x="785.0" y="590.0">https://github.com/swhitty/SwiftDraw</text>
            </a>
        </g>
    </g>
    <g id="Guides" stroke="rgb(39, 170, 225)" stroke-width="0.5">
        <path id="Capline-S" d="M18,76 l800,0" />
        <path id="H-reference" d="M85,145.755 L87.685,145.755 L113.369,79.287 L114.052,79.287 L114.052,76 L112.148,76 L85,145.755 Z M95.693,121.536 L130.996,121.536 L130.263,119.313 L96.474,119.313 L95.693,121.536 Z M139.15,145.755 L141.787,145.755 L114.638,76 L113.466,76 L113.466,79.287 L139.15,145.755 Z" stroke="none" />
        <path id="Baseline-S" d="M18,146 l800,0" />
        <path id="left-margin-Ultralight-S" d="M218.338,56 l0,110" />
        <path id="right-margin-Ultralight-S" d="M311.662,56 l0,110" />
        <path id="left-margin-Regular-S" d="M418.338,56 l0,110" />
        <path id="right-margin-Regular-S" d="M511.662,56 l0,110" />
        <path id="left-margin-Black-S" d="M618.338,56 l0,110" />
        <path id="right-margin-Black-S" d="M711.662,56 l0,110" />
        <path id="Capline-M" d="M18,276 l800,0" />
        <path id="Baseline-M" d="M18,346 l800,0" />
        <path id="Capline-L" d="M18,476 l800,0" />
        <path id="Baseline-L" d="M18,546 l800,0" />
    </g>
    <g id="Symbols">
        <g id="Ultralight-S">
            <path d="M250.16,113.1 C247.886,109.178 248.195,104.357 253.286,98.61 L253.124,98.777 C256.27,95.818 258.216,94.508 261.783,93.549 C261.929,93.51 262.071,93.458 262.208,93.393 C269.376,90.022 271.862,84.234 267.752,77.274 L264.19,80.741 C267.62,82.893 270.967,89.525 270.967,98.581 C270.967,99.994 272.112,101.139 273.524,101.139 C274.937,101.139 276.082,99.994 276.082,98.581 C276.082,87.832 271.896,79.536 266.908,76.408 C264.638,74.984 261.984,77.567 263.347,79.875 C265.782,83.998 264.673,86.581 260.03,88.764 L260.455,88.609 C255.895,89.835 253.326,91.565 249.619,95.051 L249.457,95.218 C242.854,102.673 242.39,109.897 245.734,115.665 C246.443,116.887 248.008,117.304 249.23,116.595 C250.452,115.887 250.868,114.322 250.16,113.1 Z" />
            <path d="M252.983,115.411 C245.751,111.592 239.5,111.858 234.806,115.57 C231.279,118.359 228.981,122.945 228.365,127.242 C228.144,128.783 229.339,130.163 230.896,130.163 C236.459,130.163 243.806,134.33 247.083,139.004 C253.198,146.762 262.899,147.501 270.297,143.984 C275.891,141.032 280.067,139.376 282.897,138.801 C283.895,138.598 284.617,138.554 285.023,138.616 C284.931,138.602 284.629,138.437 284.346,137.898 L286.61,136.708 L284.074,137.041 C284.795,142.526 287.078,145.887 290.092,145.887 L290.092,143.329 L289.823,145.873 C296.947,146.625 300.794,140.132 301.347,132.761 C302.017,125.125 301.613,120.136 300.175,117.364 C298.492,114.117 295.261,113.708 292.829,115.69 C292.705,115.791 292.59,115.904 292.487,116.026 C288.83,120.372 285.633,123.392 283.012,125.182 C282.017,125.862 281.167,126.319 280.506,126.564 C280.154,126.694 279.986,126.72 280.124,126.747 C278.027,126.303 277.08,125.776 276.99,125.588 C277.144,125.909 277.07,126.133 277.055,126.147 C287.008,117.875 289.82,100.212 287.394,84.993 C286.99,82.452 283.509,82.032 282.511,84.403 C279.359,91.895 274.072,96.739 270.239,97.833 C254.721,101.963 247.571,110.592 249.294,118.235 L252.983,115.411 Z M250.595,119.934 C252.526,120.954 254.764,119.241 254.284,117.11 C253.25,112.523 258.433,106.269 271.598,102.764 C276.998,101.224 283.484,95.282 287.226,86.387 L282.343,85.798 C284.512,99.407 281.963,115.418 273.657,122.327 C272.094,123.806 271.43,125.825 272.377,127.8 C273.316,129.757 275.569,131.012 279.117,131.762 C282.704,132.445 288.943,128.183 296.401,119.319 L296.06,119.655 C296.115,119.611 296.061,119.631 295.856,119.605 C295.695,119.585 295.553,119.523 295.469,119.455 C295.482,119.465 295.543,119.544 295.634,119.719 C296.504,121.396 296.842,125.575 296.249,132.346 C295.881,137.238 293.578,141.125 290.361,140.785 L290.092,140.771 C290.391,140.771 290.586,140.837 290.689,140.906 C290.641,140.874 290.537,140.768 290.401,140.568 C289.876,139.795 289.414,138.413 289.145,136.375 C289.106,136.075 289.014,135.785 288.873,135.518 C286.904,131.773 279.69,133.24 268.005,139.412 C262.636,141.962 255.498,141.418 251.185,135.952 C247.074,130.08 238.201,125.048 230.896,125.048 L233.428,127.968 C233.871,124.882 235.573,121.485 237.979,119.583 C241.001,117.192 245.074,117.019 250.595,119.934 Z" />
            <path d="M241.127,123.611 C241.127,121.727 242.654,120.201 244.538,120.201 C246.421,120.201 247.948,121.727 247.948,123.611 C247.948,125.494 246.421,127.021 244.538,127.021 C242.654,127.021 241.127,125.494 241.127,123.611 Z" />
        </g>
        <g id="Regular-S">
            <path d="M450.16,113.1 C447.886,109.178 448.195,104.357 453.286,98.61 L453.124,98.777 C456.27,95.818 458.216,94.508 461.783,93.549 C461.929,93.51 462.071,93.458 462.208,93.393 C469.376,90.022 471.862,84.234 467.752,77.274 L464.19,80.741 C467.62,82.893 470.967,89.525 470.967,98.581 C470.967,99.994 472.112,101.139 473.524,101.139 C474.937,101.139 476.082,99.994 476.082,98.581 C476.082,87.832 471.896,79.536 466.908,76.408 C464.638,74.984 461.984,77.567 463.347,79.875 C465.782,83.998 464.673,86.581 460.03,88.764 L460.455,88.609 C455.895,89.835 453.326,91.565 449.619,95.051 L449.457,95.218 C442.854,102.673 442.39,109.897 445.734,115.665 C446.443,116.887 448.008,117.304 449.23,116.595 C450.452,115.887 450.868,114.322 450.16,113.1 Z" />
            <path d="M452.983,115.411 C445.751,111.592 439.5,111.858 434.806,115.57 C431.279,118.359 428.981,122.945 428.365,127.242 C428.144,128.783 429.339,130.163 430.896,130.163 C436.459,130.163 443.806,134.33 447.083,139.004 C453.198,146.762 462.899,147.501 470.297,143.984 C475.892,141.032 480.067,139.376 482.897,138.801 C483.895,138.598 484.617,138.554 485.023,138.616 C484.931,138.602 484.629,138.437 484.346,137.898 L486.61,136.708 L484.074,137.041 C484.795,142.526 487.078,145.887 490.092,145.887 L490.092,143.329 L489.823,145.873 C496.947,146.625 500.794,140.132 501.347,132.761 C502.017,125.125 501.613,120.136 500.175,117.364 C498.492,114.117 495.261,113.708 492.829,115.69 C492.705,115.791 492.59,115.904 492.487,116.026 C488.83,120.372 485.633,123.392 483.012,125.182 C482.017,125.862 481.167,126.319 480.506,126.564 C480.154,126.694 479.986,126.72 480.124,126.747 C478.027,126.303 477.08,125.776 476.99,125.588 C477.144,125.909 477.07,126.133 477.055,126.147 C487.008,117.875 489.82,100.212 487.394,84.993 C486.99,82.452 483.509,82.032 482.511,84.403 C479.359,91.895 474.072,96.739 470.239,97.833 C454.721,101.963 447.571,110.592 449.294,118.235 L452.983,115.411 Z M450.595,119.934 C452.526,120.954 454.764,119.241 454.284,117.11 C453.25,112.523 458.433,106.269 471.598,102.764 C476.998,101.224 483.484,95.282 487.226,86.387 L482.343,85.798 C484.512,99.407 481.963,115.418 473.657,122.327 C472.094,123.806 471.43,125.825 472.377,127.8 C473.316,129.757 475.569,131.012 479.117,131.762 C482.704,132.445 488.943,128.183 496.401,119.319 L496.06,119.655 C496.115,119.611 496.061,119.631 495.856,119.605 C495.695,119.585 495.553,119.523 495.469,119.455 C495.482,119.465 495.543,119.544 495.634,119.719 C496.504,121.396 496.842,125.575 496.249,132.346 C495.881,137.238 493.578,141.125 490.361,140.785 L490.092,140.771 C490.391,140.771 490.586,140.837 490.689,140.906 C490.641,140.874 490.537,140.768 490.401,140.568 C489.876,139.795 489.414,138.413 489.145,136.375 C489.106,136.075 489.014,135.785 488.873,135.518 C486.904,131.773 479.69,133.24 468.005,139.412 C462.636,141.962 455.498,141.418 451.185,135.952 C447.074,130.08 438.201,125.048 430.896,125.048 L433.428,127.968 C433.871,124.882 435.573,121.485 437.979,119.583 C441.001,117.192 445.074,117.019 450.595,119.934 Z" />
            <path d="M441.127,123.611 C441.127,121.727 442.654,120.201 444.538,120.201 C446.421,120.201 447.948,121.727 447.948,123.611 C447.948,125.494 446.421,127.021 444.538,127.021 C442.654,127.021 441.127,125.494 441.127,123.611 Z" />
        </g>
        <g id="Black-S">
            <path d="M650.16,113.1 C647.886,109.178 648.195,104.357 653.286,98.61 L653.124,98.777 C656.27,95.818 658.216,94.508 661.783,93.549 C661.929,93.51 662.071,93.458 662.208,93.393 C669.376,90.022 671.862,84.234 667.752,77.274 L664.19,80.741 C667.62,82.893 670.967,89.525 670.967,98.581 C670.967,99.994 672.112,101.139 673.524,101.139 C674.937,101.139 676.082,99.994 676.082,98.581 C676.082,87.832 671.896,79.536 666.908,76.408 C664.638,74.984 661.984,77.567 663.347,79.875 C665.782,83.998 664.673,86.581 660.03,88.764 L660.455,88.609 C655.895,89.835 653.326,91.565 649.619,95.051 L649.457,95.218 C642.854,102.673 642.39,109.897 645.734,115.665 C646.443,116.887 648.008,117.304 649.23,116.595 C650.452,115.887 650.868,114.322 650.16,113.1 Z" />
            <path d="M652.983,115.411 C645.751,111.592 639.5,111.858 634.806,115.57 C631.279,118.359 628.981,122.945 628.365,127.242 C628.144,128.783 629.339,130.163 630.896,130.163 C636.459,130.163 643.806,134.33 647.083,139.004 C653.198,146.762 662.899,147.501 670.297,143.984 C675.891,141.032 680.067,139.376 682.897,138.801 C683.895,138.598 684.617,138.554 685.023,138.616 C684.931,138.602 684.629,138.437 684.346,137.898 L686.61,136.708 L684.074,137.041 C684.795,142.526 687.078,145.887 690.092,145.887 L690.092,143.329 L689.823,145.873 C696.947,146.625 700.794,140.132 701.347,132.761 C702.017,125.125 701.613,120.136 700.175,117.364 C698.492,114.117 695.261,113.708 692.829,115.69 C692.705,115.791 692.59,115.904 692.487,116.026 C688.83,120.372 685.633,123.392 683.012,125.182 C682.017,125.862 681.167,126.319 680.506,126.564 C680.154,126.694 679.986,126.72 680.124,126.747 C678.027,126.303 677.08,125.776 676.99,125.588 C677.144,125.909 677.07,126.133 677.055,126.147 C687.008,117.875 689.82,100.212 687.394,84.993 C686.99,82.452 683.509,82.032 682.511,84.403 C679.359,91.895 674.072,96.739 670.239,97.833 C654.721,101.963 647.571,110.592 649.294,118.235 L652.983,115.411 Z M650.595,119.934 C652.526,120.954 654.764,119.241 654.284,117.11 C653.25,112.523 658.433,106.269 671.598,102.764 C676.998,101.224 683.484,95.282 687.226,86.387 L682.343,85.798 C684.512,99.407 681.963,115.418 673.657,122.327 C672.094,123.806 671.43,125.825 672.377,127.8 C673.316,129.757 675.569,131.012 679.117,131.762 C682.704,132.445 688.943,128.183 696.401,119.319 L696.06,119.655 C696.115,119.611 696.061,119.631 695.856,119.605 C695.695,119.585 695.553,119.523 695.469,119.455 C695.482,119.465 695.543,119.544 695.634,119.719 C696.504,121.396 696.843,125.575 696.249,132.346 C695.881,137.238 693.578,141.125 690.361,140.785 L690.092,140.771 C690.391,140.771 690.586,140.837 690.689,140.906 C690.641,140.874 690.537,140.768 690.401,140.568 C689.876,139.795 689.414,138.413 689.145,136.375 C689.106,136.075 689.014,135.785 688.873,135.518 C686.904,131.773 679.69,133.24 668.005,139.412 C662.636,141.962 655.498,141.418 651.185,135.952 C647.073,130.08 638.201,125.048 630.896,125.048 L633.428,127.968 C633.871,124.882 635.573,121.485 637.979,119.583 C641.001,117.192 645.074,117.019 650.595,119.934 Z" />
            <path d="M641.127,123.611 C641.127,121.727 642.654,120.201 644.538,120.201 C646.421,120.201 647.948,121.727 647.948,123.611 C647.948,125.494 646.421,127.021 644.538,127.021 C642.654,127.021 641.127,125.494 641.127,123.611 Z" />
        </g>
    </g>
</svg>