<?xml version="1.0" encoding="UTF-8"?>
<svg height="600" width="800" xmlns="http://www.w3.org/2000/svg" xmlns:xlink="http://www.w3.org/1999/xlink">
    <g id="Notes" font-family="'LucidaGrande', 'Lucida Grande', sans-serif" font-size="13">
        <rect fill="white" height="600.0" width="800.0" x="0.0" y="0.0" />
        <g font-size="13">
            <text x="18.0" y="176.0">Small</text>
            <text x="18.0" y="376.0">Medium</text>
            <text x="18.0" y="576.0">Large</text>
        </g>
        <g font-size="9">
            <text x="250.0" y="30.0">Ultralight</text>
            <text x="450.0" y="30.0">Regular</text>
            <text x="650.0" y="30.0">Black</text>
            <text id="template-version" fill="#505050" text-anchor="end" x="785.0" y="575.0">Template v.3.0</text>
            <a href="https://github.com/swhitty/SwiftDraw">
                <text fill="#505050" text-anchor="end" x="785.0" y="590.0">https://github.com/swhitty/SwiftDraw</text>
            </a>
        </g>
    </g>
    <g id="Guides" stroke="rgb(39, 170, 225)" stroke-width="0.5">
        <path id="Capline-S" d="M18,76 l800,0" />
        <path id="H-reference" d="M85,145.755 L87.685,145.755 L113.369,79.287 L114.052,79.287 L114.052,76 L112.148,76 L85,145.755 Z M95.693,121.536 L130.996,121.536 L130.263,119.313 L96.474,119.313 L95.693,121.536 Z M139.15,145.755 L141.787,145.755 L114.638,76 L113.466,76 L113.466,79.287 L139.15,145.755 Z" stroke="none" />
        <path id="Baseline-S" d="M18,146 l800,0" />
        <path id="left-margin-Ultralight-S" d="M211,56 l0,110" />
        <path id="right-margin-Ultralight-S" d="M319,56 l0,110" />
        <path id="left-margin-Regular-S" d="M411,56 l0,110" />
        <path id="right-margin-Regular-S" d="M519,56 l0,110" />
        <path id="left-margin-Black-S" d="M611,56 l0,110" />
        <path id="right-margin-Black-S" d="M719,56 l0,110" />
        <path id="Capline-M" d="M18,276 l800,0" />
        <path id="Baseline-M" d="M18,346 l800,0" />
        <path id="Capline-L" d="M18,476 l800,0" />
        <path id="Baseline-L" d="M18,546 l800,0" />
    </g>
    <g id="Symbols">
        <g id="Ultralight-S">
            <path d="M237.372,123.279 L237.372,139.651 L240.442,136.581 L224.07,136.581 L227.14,139.651 L227.14,123.279 L224.07,126.349 L240.442,126.349 L237.372,123.279 Z M243.512,123.279 C243.512,121.584 242.137,120.209 240.442,120.209 L224.07,120.209 C222.374,120.209 221,121.584 221,123.279 L221,139.651 C221,141.347 222.374,142.721 224.07,142.721 L240.442,142.721 C242.137,142.721 243.512,141.347 243.512,139.651 L243.512,123.279 Z" />
            <path d="M302.86,123.279 L302.86,139.651 L305.93,136.581 L289.558,136.581 L292.628,139.651 L292.628,123.279 L289.558,126.349 L305.93,126.349 L302.86,123.279 Z M309,123.279 C309,121.584 307.626,120.209 305.93,120.209 L289.558,120.209 C287.863,120.209 286.488,121.584 286.488,123.279 L286.488,139.651 C286.488,141.347 287.863,142.721 289.558,142.721 L305.93,142.721 C307.626,142.721 309,141.347 309,139.651 L309,123.279 Z" />
            <path d="M270.116,82.349 L270.116,98.721 L273.186,95.651 L256.814,95.651 L259.884,98.721 L259.884,82.349 L256.814,85.419 L273.186,85.419 L270.116,82.349 Z M276.256,82.349 C276.256,80.653 274.881,79.279 273.186,79.279 L256.814,79.279 C255.119,79.279 253.744,80.653 253.744,82.349 L253.744,98.721 C253.744,100.416 255.119,101.791 256.814,101.791 L273.186,101.791 C274.881,101.791 276.256,100.416 276.256,98.721 L276.256,82.349 Z" />
            <path d="M256.814,87.465 L224.07,87.465 C222.374,87.465 221,88.839 221,90.535 C221,92.23 222.374,93.605 224.07,93.605 L256.814,93.605 C258.509,93.605 259.884,92.23 259.884,90.535 C259.884,88.839 258.509,87.465 256.814,87.465 Z" />
            <path d="M305.93,87.465 L273.186,87.465 C271.491,87.465 270.116,88.839 270.116,90.535 C270.116,92.23 271.491,93.605 273.186,93.605 L305.93,93.605 C307.626,93.605 309,92.23 309,90.535 C309,88.839 307.626,87.465 305.93,87.465 Z" />
            <path d="M235.326,123.279 C235.326,109.661 244.578,97.886 257.579,94.54 C259.221,94.117 260.209,92.443 259.787,90.802 C259.364,89.16 257.691,88.171 256.049,88.594 C240.351,92.634 229.186,106.843 229.186,123.279 C229.186,124.975 230.56,126.349 232.256,126.349 C233.951,126.349 235.326,124.975 235.326,123.279 Z" />
            <path d="M272.421,94.54 C285.422,97.886 294.674,109.661 294.674,123.279 C294.674,124.975 296.049,126.349 297.744,126.349 C299.44,126.349 300.814,124.975 300.814,123.279 C300.814,106.843 289.649,92.634 273.951,88.594 C272.309,88.171 270.636,89.16 270.213,90.802 C269.791,92.443 270.779,94.117 272.421,94.54 Z" />
        </g>
        <g id="Regular-S">
            <path d="M437.372,123.279 L437.372,139.651 L440.442,136.581 L424.07,136.581 L427.14,139.651 L427.14,123.279 L424.07,126.349 L440.442,126.349 L437.372,123.279 Z M443.512,123.279 C443.512,121.584 442.137,120.209 440.442,120.209 L424.07,120.209 C422.374,120.209 421,121.584 421,123.279 L421,139.651 C421,141.347 422.374,142.721 424.07,142.721 L440.442,142.721 C442.137,142.721 443.512,141.347 443.512,139.651 L443.512,123.279 Z" />
            <path d="M502.86,123.279 L502.86,139.651 L505.93,136.581 L489.558,136.581 L492.628,139.651 L492.628,123.279 L489.558,126.349 L505.93,126.349 L502.86,123.279 Z M509,123.279 C509,121.584 507.626,120.209 505.93,120.209 L489.558,120.209 C487.863,120.209 486.488,121.584 486.488,123.279 L486.488,139.651 C486.488,141.347 487.863,142.721 489.558,142.721 L505.93,142.721 C507.626,142.721 509,141.347 509,139.651 L509,123.279 Z" />
            <path d="M470.116,82.349 L470.116,98.721 L473.186,95.651 L456.814,95.651 L459.884,98.721 L459.884,82.349 L456.814,85.419 L473.186,85.419 L470.116,82.349 Z M476.256,82.349 C476.256,80.653 474.881,79.279 473.186,79.279 L456.814,79.279 C455.119,79.279 453.744,80.653 453.744,82.349 L453.744,98.721 C453.744,100.416 455.119,101.791 456.814,101.791 L473.186,101.791 C474.881,101.791 476.256,100.416 476.256,98.721 L476.256,82.349 Z" />
            <path d="M456.814,87.465 L424.07,87.465 C422.374,87.465 421,88.839 421,90.535 C421,92.23 422.374,93.605 424.07,93.605 L456.814,93.605 C458.509,93.605 459.884,92.23 459.884,90.535 C459.884,88.839 458.509,87.465 456.814,87.465 Z" />
            <path d="M505.93,87.465 L473.186,87.465 C471.491,87.465 470.116,88.839 470.116,90.535 C470.116,92.23 471.491,93.605 473.186,93.605 L505.93,93.605 C507.626,93.605 509,92.23 509,90.535 C509,88.839 507.626,87.465 505.93,87.465 Z" />
            <path d="M435.326,123.279 C435.326,109.661 444.578,97.886 457.579,94.54 C459.221,94.117 460.209,92.443 459.787,90.802 C459.364,89.16 457.691,88.171 456.049,88.594 C440.351,92.634 429.186,106.843 429.186,123.279 C429.186,124.975 430.56,126.349 432.256,126.349 C433.951,126.349 435.326,124.975 435.326,123.279 Z" />
            <path d="M472.421,94.54 C485.422,97.886 494.674,109.661 494.674,123.279 C494.674,124.975 496.049,126.349 497.744,126.349 C499.44,126.349 500.814,124.975 500.814,123.279 C500.814,106.843 489.649,92.634 473.951,88.594 C472.309,88.171 470.636,89.16 470.213,90.802 C469.791,92.443 470.779,94.117 472.421,94.54 Z" />
        </g>
        <g id="Black-S">
            <path d="M637.372,123.279 L637.372,139.651 L640.442,136.581 L624.07,136.581 L627.14,139.651 L627.14,123.279 L624.07,126.349 L640.442,126.349 L637.372,123.279 Z M643.512,123.279 C643.512,121.584 642.137,120.209 640.442,120.209 L624.07,120.209 C622.374,120.209 621,121.584 621,123.279 L621,139.651 C621,141.347 622.374,142.721 624.07,142.721 L640.442,142.721 C642.137,142.721 643.512,141.347 643.512,139.651 L643.512,123.279 Z" />
            <path d="M702.86,123.279 L702.86,139.651 L705.93,136.581 L689.558,136.581 L692.628,139.651 L692.628,123.279 L689.558,126.349 L705.93,126.349 L702.86,123.279 Z M709,123.279 C709,121.584 707.626,120.209 705.93,120.209 L689.558,120.209 C687.863,120.209 686.488,121.584 686.488,123.279 L686.488,139.651 C686.488,141.347 687.863,142.721 689.558,142.721 L705.93,142.721 C707.626,142.721 709,141.347 709,139.651 L709,123.279 Z" />
            <path d="M670.116,82.349 L670.116,98.721 L673.186,95.651 L656.814,95.651 L659.884,98.721 L659.884,82.349 L656.814,85.419 L673.186,85.419 L670.116,82.349 Z M676.256,82.349 C676.256,80.653 674.881,79.279 673.186,79.279 L656.814,79.279 C655.119,79.279 653.744,80.653 653.744,82.349 L653.744,98.721 C653.744,100.416 655.119,101.791 656.814,101.791 L673.186,101.791 C674.881,101.791 676.256,100.416 676.256,98.721 L676.256,82.349 Z" />
            <path d="M656.814,87.465 L624.07,87.465 C622.374,87.465 621,88.839 621,90.535 C621,92.23 622.374,93.605 624.07,93.605 L656.814,93.605 C658.509,93.605 659.884,92.23 659.884,90.535 C659.884,88.839 658.509,87.465 656.814,87.465 Z" />
            <path d="M705.93,87.465 L673.186,87.465 C671.491,87.465 670.116,88.839 670.116,90.535 C670.116,92.23 671.491,93.605 673.186,93.605 L705.93,93.605 C707.626,93.605 709,92.23 709,90.535 C709,88.839 707.626,87.465 705.93,87.465 Z" />
            <path d="M635.326,123.279 C635.326,109.661 644.578,97.886 657.579,94.54 C659.221,94.117 660.209,92.443 659.787,90.802 C659.364,89.16 657.691,88.171 656.049,88.594 C640.351,92.634 629.186,106.843 629.186,123.279 C629.186,124.975 630.56,126.349 632.256,126.349 C633.951,126.349 635.326,124.975 635.326,123.279 Z" />
            <path d="M672.421,94.54 C685.422,97.886 694.674,109.661 694.674,123.279 C694.674,124.975 696.049,126.349 697.744,126.349 C699.44,126.349 700.814,124.975 700.814,123.279 C700.814,106.843 689.649,92.634 673.951,88.594 C672.309,88.171 670.636,89.16 670.213,90.802 C669.791,92.443 670.779,94.117 672.421,94.54 Z" />
        </g>
    </g>
</svg>