<?xml version="1.0" encoding="UTF-8"?>
<svg height="600" width="800" xmlns="http://www.w3.org/2000/svg" xmlns:xlink="http://www.w3.org/1999/xlink">
    <g id="Notes" font-family="'LucidaGrande', 'Lucida Grande', sans-serif" font-size="13">
        <rect fill="white" height="600.0" width="800.0" x="0.0" y="0.0" />
        <g font-size="13">
            <text x="18.0" y="176.0">Small</text>
            <text x="18.0" y="376.0">Medium</text>
            <text x="18.0" y="576.0">Large</text>
        </g>
        <g font-size="9">
            <text x="250.0" y="30.0">Ultralight</text>
            <text x="450.0" y="30.0">Regular</text>
            <text x="650.0" y="30.0">Black</text>
            <text id="template-version" fill="#505050" text-anchor="end" x="785.0" y="575.0">Template v.3.0</text>
            <a href="https://github.com/swhitty/SwiftDraw">
                <text fill="#505050" text-anchor="end" x="785.0" y="590.0">https://github.com/swhitty/SwiftDraw</text>
            </a>
        </g>
    </g>
    <g id="Guides" stroke="rgb(39, 170, 225)" stroke-width="0.5">
        <path id="Capline-S" d="M18,76 l800,0" />
        <path id="H-reference" d="M85,145.755 L87.685,145.755 L113.369,79.287 L114.052,79.287 L114.052,76 L112.148,76 L85,145.755 Z M95.693,121.536 L130.996,121.536 L130.263,119.313 L96.474,119.313 L95.693,121.536 Z M139.15,145.755 L141.787,145.755 L114.638,76 L113.466,76 L113.466,79.287 L139.15,145.755 Z" stroke="none" />
        <path id="Baseline-S" d="M18,146 l800,0" />
        <path id="left-margin-Ultralight-S" d="M220,56 l0,110" />
        <path id="right-margin-Ultralight-S" d="M310,56 l0,110" />
        <path id="left-margin-Regular-S" d="M420,56 l0,110" />
        <path id="right-margin-Regular-S" d="M510,56 l0,110" />
        <path id="left-margin-Black-S" d="M620,56 l0,110" />
        <path id="right-margin-Black-S" d="M710,56 l0,110" />
        <path id="Capline-M" d="M18,276 l800,0" />
        <path id="Baseline-M" d="M18,346 l800,0" />
        <path id="Capline-L" d="M18,476 l800,0" />
        <path id="Baseline-L" d="M18,546 l800,0" />
    </g>
    <g id="Symbols">
        <g id="Ultralight-S">
            <path d="M267.442,102.86 L267.442,78.442 C267.442,77.093 266.349,76 265,76 C263.651,76 262.558,77.093 262.558,78.442 L262.558,102.86 C262.558,104.209 263.651,105.302 265,105.302 C266.349,105.302 267.442,104.209 267.442,102.86 Z" />
            <path d="M246.057,110.113 L265.592,105.229 L285.127,100.346 C286.435,100.019 287.231,98.693 286.904,97.385 C286.577,96.076 285.251,95.281 283.943,95.608 L264.408,100.492 L244.873,105.375 C243.565,105.702 242.769,107.028 243.096,108.336 C243.423,109.645 244.749,110.44 246.057,110.113 Z" />
            <path d="M273.632,121.979 L286.655,99.188 C287.324,98.017 286.917,96.526 285.746,95.857 C284.575,95.188 283.084,95.594 282.415,96.765 L269.392,119.556 C268.722,120.727 269.129,122.218 270.3,122.888 C271.471,123.557 272.963,123.15 273.632,121.979 Z" />
            <path d="M299.678,119.556 L286.655,96.765 C285.986,95.594 284.494,95.188 283.323,95.857 C282.152,96.526 281.746,98.017 282.415,99.188 L295.438,121.979 C296.107,123.15 297.599,123.557 298.77,122.888 C299.941,122.218 300.347,120.727 299.678,119.556 Z" />
            <path d="M260.608,129.323 L247.585,106.533 C246.916,105.362 245.425,104.955 244.254,105.624 C243.083,106.293 242.676,107.785 243.345,108.956 L256.368,131.746 C257.037,132.917 258.529,133.324 259.7,132.655 C260.871,131.986 261.278,130.494 260.608,129.323 Z" />
            <path d="M234.562,131.746 L247.585,108.956 C248.254,107.785 247.848,106.293 246.677,105.624 C245.506,104.955 244.014,105.362 243.345,106.533 L230.322,129.323 C229.653,130.494 230.059,131.986 231.23,132.655 C232.401,133.324 233.893,132.917 234.562,131.746 Z" />
            <path d="M245.465,146 C254.006,146 260.93,139.076 260.93,130.535 C260.93,129.186 259.837,128.093 258.488,128.093 L232.442,128.093 C231.093,128.093 230,129.186 230,130.535 C230,139.076 236.924,146 245.465,146 Z M245.465,141.116 C239.621,141.116 234.884,136.379 234.884,130.535 L232.442,132.977 L258.488,132.977 L256.047,130.535 C256.047,136.379 251.309,141.116 245.465,141.116 Z" />
            <path d="M284.535,136.233 C293.076,136.233 300,129.309 300,120.767 C300,119.419 298.907,118.326 297.558,118.326 L271.512,118.326 C270.163,118.326 269.07,119.419 269.07,120.767 C269.07,129.309 275.994,136.233 284.535,136.233 Z M284.535,131.349 C278.691,131.349 273.953,126.611 273.953,120.767 L271.512,123.209 L297.558,123.209 L295.116,120.767 C295.116,126.611 290.379,131.349 284.535,131.349 Z" />
        </g>
        <g id="Regular-S">
            <path d="M467.442,102.86 L467.442,78.442 C467.442,77.093 466.349,76 465,76 C463.651,76 462.558,77.093 462.558,78.442 L462.558,102.86 C462.558,104.209 463.651,105.302 465,105.302 C466.349,105.302 467.442,104.209 467.442,102.86 Z" />
            <path d="M446.057,110.113 L465.592,105.229 L485.127,100.346 C486.435,100.019 487.231,98.693 486.904,97.385 C486.577,96.076 485.251,95.281 483.943,95.608 L464.408,100.492 L444.873,105.375 C443.565,105.702 442.769,107.028 443.096,108.336 C443.423,109.645 444.749,110.44 446.057,110.113 Z" />
            <path d="M473.632,121.979 L486.655,99.188 C487.324,98.017 486.917,96.526 485.746,95.857 C484.575,95.188 483.084,95.594 482.415,96.765 L469.392,119.556 C468.722,120.727 469.129,122.218 470.3,122.888 C471.471,123.557 472.963,123.15 473.632,121.979 Z" />
            <path d="M499.678,119.556 L486.655,96.765 C485.986,95.594 484.494,95.188 483.323,95.857 C482.152,96.526 481.746,98.017 482.415,99.188 L495.438,121.979 C496.107,123.15 497.599,123.557 498.77,122.888 C499.941,122.218 500.347,120.727 499.678,119.556 Z" />
            <path d="M460.608,129.323 L447.585,106.533 C446.916,105.362 445.425,104.955 444.254,105.624 C443.083,106.293 442.676,107.785 443.345,108.956 L456.368,131.746 C457.037,132.917 458.529,133.324 459.7,132.655 C460.871,131.986 461.278,130.494 460.608,129.323 Z" />
            <path d="M434.562,131.746 L447.585,108.956 C448.254,107.785 447.848,106.293 446.677,105.624 C445.506,104.955 444.014,105.362 443.345,106.533 L430.322,129.323 C429.653,130.494 430.059,131.986 431.23,132.655 C432.401,133.324 433.893,132.917 434.562,131.746 Z" />
            <path d="M445.465,146 C454.006,146 460.93,139.076 460.93,130.535 C460.93,129.186 459.837,128.093 458.488,128.093 L432.442,128.093 C431.093,128.093 430,129.186 430,130.535 C430,139.076 436.924,146 445.465,146 Z M445.465,141.116 C439.621,141.116 434.884,136.379 434.884,130.535 L432.442,132.977 L458.488,132.977 L456.047,130.535 C456.047,136.379 451.309,141.116 445.465,141.116 Z" />
            <path d="M484.535,136.233 C493.076,136.233 500,129.309 500,120.767 C500,119.419 498.907,118.326 497.558,118.326 L471.512,118.326 C470.163,118.326 469.07,119.419 469.07,120.767 C469.07,129.309 475.994,136.233 484.535,136.233 Z M484.535,131.349 C478.691,131.349 473.953,126.611 473.953,120.767 L471.512,123.209 L497.558,123.209 L495.116,120.767 C495.116,126.611 490.379,131.349 484.535,131.349 Z" />
        </g>
        <g id="Black-S">
            <path d="M667.442,102.86 L667.442,78.442 C667.442,77.093 666.349,76 665,76 C663.651,76 662.558,77.093 662.558,78.442 L662.558,102.86 C662.558,104.209 663.651,105.302 665,105.302 C666.349,105.302 667.442,104.209 667.442,102.86 Z" />
            <path d="M646.057,110.113 L665.592,105.229 L685.127,100.346 C686.435,100.019 687.231,98.693 686.904,97.385 C686.577,96.076 685.251,95.281 683.943,95.608 L664.408,100.492 L644.873,105.375 C643.565,105.702 642.769,107.028 643.096,108.336 C643.423,109.645 644.749,110.44 646.057,110.113 Z" />
            <path d="M673.632,121.979 L686.655,99.188 C687.324,98.017 686.917,96.526 685.746,95.857 C684.576,95.188 683.084,95.594 682.415,96.765 L669.391,119.556 C668.722,120.727 669.129,122.218 670.3,122.888 C671.471,123.557 672.963,123.15 673.632,121.979 Z" />
            <path d="M699.678,119.556 L686.655,96.765 C685.986,95.594 684.494,95.188 683.323,95.857 C682.152,96.526 681.746,98.017 682.415,99.188 L695.438,121.979 C696.107,123.15 697.599,123.557 698.77,122.888 C699.941,122.218 700.347,120.727 699.678,119.556 Z" />
            <path d="M660.609,129.323 L647.585,106.533 C646.916,105.362 645.425,104.955 644.254,105.624 C643.083,106.293 642.676,107.785 643.345,108.956 L656.368,131.746 C657.037,132.917 658.529,133.324 659.7,132.655 C660.871,131.986 661.278,130.494 660.609,129.323 Z" />
            <path d="M634.562,131.746 L647.585,108.956 C648.254,107.785 647.848,106.293 646.677,105.624 C645.506,104.955 644.014,105.362 643.345,106.533 L630.322,129.323 C629.653,130.494 630.059,131.986 631.23,132.655 C632.401,133.324 633.893,132.917 634.562,131.746 Z" />
            <path d="M645.465,146 C654.006,146 660.93,139.076 660.93,130.535 C660.93,129.186 659.837,128.093 658.488,128.093 L632.442,128.093 C631.093,128.093 630,129.186 630,130.535 C630,139.076 636.924,146 645.465,146 Z M645.465,141.116 C639.621,141.116 634.884,136.379 634.884,130.535 L632.442,132.977 L658.488,132.977 L656.047,130.535 C656.047,136.379 651.309,141.116 645.465,141.116 Z" />
            <path d="M684.535,136.233 C693.076,136.233 700,129.309 700,120.767 C700,119.419 698.907,118.326 697.558,118.326 L671.512,118.326 C670.163,118.326 669.07,119.419 669.07,120.767 C669.07,129.309 675.994,136.233 684.535,136.233 Z M684.535,131.349 C678.691,131.349 673.953,126.611 673.953,120.767 L671.512,123.209 L697.558,123.209 L695.116,120.767 C695.116,126.611 690.379,131.349 684.535,131.349 Z" />
        </g>
    </g>
</svg>