<?xml version="1.0" encoding="UTF-8"?>
<svg height="600" width="800" xmlns="http://www.w3.org/2000/svg" xmlns:xlink="http://www.w3.org/1999/xlink">
    <g id="Notes" font-family="'LucidaGrande', 'Lucida Grande', sans-serif" font-size="13">
        <rect fill="white" height="600.0" width="800.0" x="0.0" y="0.0" />
        <g font-size="13">
            <text x="18.0" y="176.0">Small</text>
            <text x="18.0" y="376.0">Medium</text>
            <text x="18.0" y="576.0">Large</text>
        </g>
        <g font-size="9">
            <text x="250.0" y="30.0">Ultralight</text>
            <text x="450.0" y="30.0">Regular</text>
            <text x="650.0" y="30.0">Black</text>
            <text id="template-version" fill="#505050" text-anchor="end" x="785.0" y="575.0">Template v.3.0</text>
            <a href="https://github.com/swhitty/SwiftDraw">
                <text fill="#505050" text-anchor="end" x="785.0" y="590.0">https://github.com/swhitty/SwiftDraw</text>
            </a>
        </g>
    </g>
    <g id="Guides" stroke="rgb(39, 170, 225)" stroke-width="0.5">
        <path id="Capline-S" d="M18,76 l800,0" />
        <path id="H-reference" d="M85,145.755 L87.685,145.755 L113.369,79.287 L114.052,79.287 L114.052,76 L112.148,76 L85,145.755 Z M95.693,121.536 L130.996,121.536 L130.263,119.313 L96.474,119.313 L95.693,121.536 Z M139.15,145.755 L141.787,145.755 L114.638,76 L113.466,76 L113.466,79.287 L139.15,145.755 Z" stroke="none" />
        <path id="Baseline-S" d="M18,146 l800,0" />
        <path id="left-margin-Ultralight-S" d="M220,56 l0,110" />
        <path id="right-margin-Ultralight-S" d="M310,56 l0,110" />
        <path id="left-margin-Regular-S" d="M420,56 l0,110" />
        <path id="right-margin-Regular-S" d="M510,56 l0,110" />
        <path id="left-margin-Black-S" d="M620,56 l0,110" />
        <path id="right-margin-Black-S" d="M710,56 l0,110" />
        <path id="Capline-M" d="M18,276 l800,0" />
        <path id="Baseline-M" d="M18,346 l800,0" />
        <path id="Capline-L" d="M18,476 l800,0" />
        <path id="Baseline-L" d="M18,546 l800,0" />
    </g>
    <g id="Symbols">
        <g id="Ultralight-S">
            <path d="M286.43,105.507 L281.045,110.891 L284.852,110.891 L265.109,91.148 L265.109,94.955 L270.493,89.571 C274.001,86.063 281.748,84.889 286.43,89.571 C291.111,94.252 289.937,101.999 286.43,105.507 Z M290.237,109.314 C295.64,103.911 297.317,92.843 290.237,85.763 C283.157,78.683 272.088,80.36 266.686,85.763 L261.301,91.148 C260.25,92.199 260.25,93.904 261.301,94.955 L281.045,114.699 C282.096,115.75 283.801,115.75 284.852,114.699 L290.237,109.314 Z" />
            <path d="M295.404,76.789 L286.43,85.763 C285.378,86.814 285.378,88.519 286.43,89.57 C287.481,90.622 289.186,90.622 290.237,89.57 L299.211,80.596 C300.263,79.545 300.263,77.84 299.211,76.789 C298.16,75.737 296.455,75.737 295.404,76.789 Z" />
            <path d="M243.57,116.493 L248.955,111.109 L245.148,111.109 L264.891,130.852 L264.891,127.045 L259.507,132.429 C255.999,135.937 248.252,137.111 243.57,132.429 C238.889,127.748 240.063,120.001 243.57,116.493 Z M239.763,112.686 C234.36,118.089 232.683,129.157 239.763,136.237 C246.843,143.317 257.912,141.64 263.314,136.237 L268.699,130.852 C269.75,129.801 269.75,128.096 268.699,127.045 L248.955,107.301 C247.904,106.25 246.199,106.25 245.148,107.301 L239.763,112.686 Z" />
            <path d="M265.109,127.263 L272.288,120.083 C273.34,119.032 273.34,117.327 272.288,116.276 C271.237,115.224 269.532,115.224 268.481,116.276 L261.301,123.455 C260.25,124.507 260.25,126.211 261.301,127.263 C262.353,128.314 264.057,128.314 265.109,127.263 Z" />
            <path d="M234.596,145.211 L243.57,136.237 C244.622,135.186 244.622,133.481 243.57,132.43 C242.519,131.378 240.814,131.378 239.763,132.43 L230.789,141.404 C229.737,142.455 229.737,144.16 230.789,145.211 C231.84,146.263 233.545,146.263 234.596,145.211 Z" />
            <path d="M252.545,114.699 L259.724,107.519 C260.776,106.468 260.776,104.763 259.724,103.712 C258.673,102.66 256.968,102.66 255.917,103.712 L248.737,110.891 C247.686,111.943 247.686,113.647 248.737,114.699 C249.789,115.75 251.493,115.75 252.545,114.699 Z" />
        </g>
        <g id="Regular-S">
            <path d="M486.43,105.507 L481.045,110.891 L484.852,110.891 L465.109,91.148 L465.109,94.955 L470.493,89.571 C474.001,86.063 481.748,84.889 486.43,89.571 C491.111,94.252 489.937,101.999 486.43,105.507 Z M490.237,109.314 C495.64,103.911 497.317,92.843 490.237,85.763 C483.157,78.683 472.088,80.36 466.686,85.763 L461.301,91.148 C460.25,92.199 460.25,93.904 461.301,94.955 L481.045,114.699 C482.096,115.75 483.801,115.75 484.852,114.699 L490.237,109.314 Z" />
            <path d="M495.404,76.789 L486.43,85.763 C485.378,86.814 485.378,88.519 486.43,89.57 C487.481,90.622 489.186,90.622 490.237,89.57 L499.211,80.596 C500.263,79.545 500.263,77.84 499.211,76.789 C498.16,75.737 496.455,75.737 495.404,76.789 Z" />
            <path d="M443.57,116.493 L448.955,111.109 L445.148,111.109 L464.891,130.852 L464.891,127.045 L459.507,132.429 C455.999,135.937 448.252,137.111 443.57,132.429 C438.889,127.748 440.063,120.001 443.57,116.493 Z M439.763,112.686 C434.36,118.089 432.683,129.157 439.763,136.237 C446.843,143.317 457.912,141.64 463.314,136.237 L468.699,130.852 C469.75,129.801 469.75,128.096 468.699,127.045 L448.955,107.301 C447.904,106.25 446.199,106.25 445.148,107.301 L439.763,112.686 Z" />
            <path d="M465.109,127.263 L472.288,120.083 C473.34,119.032 473.34,117.327 472.288,116.276 C471.237,115.224 469.532,115.224 468.481,116.276 L461.301,123.455 C460.25,124.507 460.25,126.211 461.301,127.263 C462.353,128.314 464.057,128.314 465.109,127.263 Z" />
            <path d="M434.596,145.211 L443.57,136.237 C444.622,135.186 444.622,133.481 443.57,132.43 C442.519,131.378 440.814,131.378 439.763,132.43 L430.789,141.404 C429.737,142.455 429.737,144.16 430.789,145.211 C431.84,146.263 433.545,146.263 434.596,145.211 Z" />
            <path d="M452.545,114.699 L459.724,107.519 C460.776,106.468 460.776,104.763 459.724,103.712 C458.673,102.66 456.968,102.66 455.917,103.712 L448.737,110.891 C447.686,111.943 447.686,113.647 448.737,114.699 C449.789,115.75 451.493,115.75 452.545,114.699 Z" />
        </g>
        <g id="Black-S">
            <path d="M686.43,105.507 L681.045,110.891 L684.852,110.891 L665.109,91.148 L665.109,94.955 L670.494,89.571 C674.001,86.063 681.748,84.889 686.43,89.571 C691.111,94.252 689.937,101.999 686.43,105.507 Z M690.237,109.314 C695.64,103.911 697.317,92.843 690.237,85.763 C683.157,78.683 672.088,80.36 666.686,85.763 L661.301,91.148 C660.25,92.199 660.25,93.904 661.301,94.955 L681.045,114.699 C682.096,115.75 683.801,115.75 684.852,114.699 L690.237,109.314 Z" />
            <path d="M695.404,76.789 L686.43,85.763 C685.378,86.814 685.378,88.519 686.43,89.57 C687.481,90.622 689.186,90.622 690.237,89.57 L699.211,80.596 C700.263,79.545 700.263,77.84 699.211,76.789 C698.16,75.737 696.455,75.737 695.404,76.789 Z" />
            <path d="M643.57,116.493 L648.955,111.109 L645.148,111.109 L664.891,130.852 L664.891,127.045 L659.507,132.429 C655.999,135.937 648.252,137.111 643.57,132.429 C638.889,127.748 640.063,120.001 643.57,116.493 Z M639.763,112.686 C634.36,118.089 632.683,129.157 639.763,136.237 C646.843,143.317 657.912,141.64 663.314,136.237 L668.699,130.852 C669.75,129.801 669.75,128.096 668.699,127.045 L648.955,107.301 C647.904,106.25 646.199,106.25 645.148,107.301 L639.763,112.686 Z" />
            <path d="M665.109,127.263 L672.288,120.083 C673.34,119.032 673.34,117.327 672.288,116.276 C671.237,115.224 669.532,115.224 668.481,116.276 L661.301,123.455 C660.25,124.507 660.25,126.211 661.301,127.263 C662.353,128.314 664.057,128.314 665.109,127.263 Z" />
            <path d="M634.596,145.211 L643.57,136.237 C644.622,135.186 644.622,133.481 643.57,132.43 C642.519,131.378 640.814,131.378 639.763,132.43 L630.789,141.404 C629.737,142.455 629.737,144.16 630.789,145.211 C631.84,146.263 633.545,146.263 634.596,145.211 Z" />
            <path d="M652.545,114.699 L659.724,107.519 C660.776,106.468 660.776,104.763 659.724,103.712 C658.673,102.66 656.968,102.66 655.917,103.712 L648.737,110.891 C647.686,111.943 647.686,113.647 648.737,114.699 C649.789,115.75 651.493,115.75 652.545,114.699 Z" />
        </g>
    </g>
</svg>