<?xml version="1.0" encoding="UTF-8"?>
<svg height="600" width="800" xmlns="http://www.w3.org/2000/svg" xmlns:xlink="http://www.w3.org/1999/xlink">
    <g id="Notes" font-family="'LucidaGrande', 'Lucida Grande', sans-serif" font-size="13">
        <rect fill="white" height="600.0" width="800.0" x="0.0" y="0.0" />
        <g font-size="13">
            <text x="18.0" y="176.0">Small</text>
            <text x="18.0" y="376.0">Medium</text>
            <text x="18.0" y="576.0">Large</text>
        </g>
        <g font-size="9">
            <text x="250.0" y="30.0">Ultralight</text>
            <text x="450.0" y="30.0">Regular</text>
            <text x="650.0" y="30.0">Black</text>
            <text id="template-version" fill="#505050" text-anchor="end" x="785.0" y="575.0">Template v.3.0</text>
            <a href="https://github.com/swhitty/SwiftDraw">
                <text fill="#505050" text-anchor="end" x="785.0" y="590.0">https://github.com/swhitty/SwiftDraw</text>
            </a>
        </g>
    </g>
    <g id="Guides" stroke="rgb(39, 170, 225)" stroke-width="0.5">
        <path id="Capline-S" d="M18,76 l800,0" />
        <path id="H-reference" d="M85,145.755 L87.685,145.755 L113.369,79.287 L114.052,79.287 L114.052,76 L112.148,76 L85,145.755 Z M95.693,121.536 L130.996,121.536 L130.263,119.313 L96.474,119.313 L95.693,121.536 Z M139.15,145.755 L141.787,145.755 L114.638,76 L113.466,76 L113.466,79.287 L139.15,145.755 Z" stroke="none" />
        <path id="Baseline-S" d="M18,146 l800,0" />
        <path id="left-margin-Ultralight-S" d="M220,56 l0,110" />
        <path id="right-margin-Ultralight-S" d="M310,56 l0,110" />
        <path id="left-margin-Regular-S" d="M420,56 l0,110" />
        <path id="right-margin-Regular-S" d="M510,56 l0,110" />
        <path id="left-margin-Black-S" d="M620,56 l0,110" />
        <path id="right-margin-Black-S" d="M710,56 l0,110" />
        <path id="Capline-M" d="M18,276 l800,0" />
        <path id="Baseline-M" d="M18,346 l800,0" />
        <path id="Capline-L" d="M18,476 l800,0" />
        <path id="Baseline-L" d="M18,546 l800,0" />
    </g>
    <g id="Symbols">
        <g id="Ultralight-S">
            <path d="M283.846,111 L283.846,139.718 C283.846,139.956 283.752,140.184 283.583,140.353 C283.415,140.521 283.187,140.615 282.949,140.615 L247.051,140.615 C246.813,140.615 246.585,140.521 246.417,140.353 C246.248,140.184 246.154,139.956 246.154,139.718 L246.154,82.282 C246.154,82.044 246.248,81.816 246.417,81.647 C246.585,81.479 246.813,81.385 247.051,81.385 L282.949,81.385 C283.187,81.385 283.415,81.479 283.583,81.647 C283.752,81.816 283.846,82.044 283.846,82.282 L283.846,111 Z M289.231,111 L289.231,82.282 C289.231,80.616 288.569,79.018 287.391,77.84 C286.213,76.662 284.615,76 282.949,76 L247.051,76 C245.385,76 243.787,76.662 242.609,77.84 C241.431,79.018 240.769,80.616 240.769,82.282 L240.769,139.718 C240.769,141.384 241.431,142.982 242.609,144.16 C243.787,145.338 245.385,146 247.051,146 L282.949,146 C284.615,146 286.213,145.338 287.391,144.16 C288.569,142.982 289.231,141.384 289.231,139.718 L289.231,111 Z" />
            <path d="M243.462,86.769 L232.692,86.769 C231.205,86.769 230,87.975 230,89.462 C230,90.948 231.205,92.154 232.692,92.154 L243.462,92.154 C244.948,92.154 246.154,90.948 246.154,89.462 C246.154,87.975 244.948,86.769 243.462,86.769 Z" />
            <path d="M243.462,101.128 L232.692,101.128 C231.205,101.128 230,102.334 230,103.821 C230,105.307 231.205,106.513 232.692,106.513 L243.462,106.513 C244.948,106.513 246.154,105.307 246.154,103.821 C246.154,102.334 244.948,101.128 243.462,101.128 Z" />
            <path d="M243.462,115.487 L232.692,115.487 C231.205,115.487 230,116.693 230,118.179 C230,119.666 231.205,120.872 232.692,120.872 L243.462,120.872 C244.948,120.872 246.154,119.666 246.154,118.179 C246.154,116.693 244.948,115.487 243.462,115.487 Z" />
            <path d="M243.462,129.846 L232.692,129.846 C231.205,129.846 230,131.052 230,132.538 C230,134.025 231.205,135.231 232.692,135.231 L243.462,135.231 C244.948,135.231 246.154,134.025 246.154,132.538 C246.154,131.052 244.948,129.846 243.462,129.846 Z" />
            <path d="M297.308,86.769 L286.538,86.769 C285.052,86.769 283.846,87.975 283.846,89.462 C283.846,90.948 285.052,92.154 286.538,92.154 L297.308,92.154 C298.795,92.154 300,90.948 300,89.462 C300,87.975 298.795,86.769 297.308,86.769 Z" />
            <path d="M297.308,101.128 L286.538,101.128 C285.052,101.128 283.846,102.334 283.846,103.821 C283.846,105.307 285.052,106.513 286.538,106.513 L297.308,106.513 C298.795,106.513 300,105.307 300,103.821 C300,102.334 298.795,101.128 297.308,101.128 Z" />
            <path d="M297.308,115.487 L286.538,115.487 C285.052,115.487 283.846,116.693 283.846,118.179 C283.846,119.666 285.052,120.872 286.538,120.872 L297.308,120.872 C298.795,120.872 300,119.666 300,118.179 C300,116.693 298.795,115.487 297.308,115.487 Z" />
            <path d="M297.308,129.846 L286.538,129.846 C285.052,129.846 283.846,131.052 283.846,132.538 C283.846,134.025 285.052,135.231 286.538,135.231 L297.308,135.231 C298.795,135.231 300,134.025 300,132.538 C300,131.052 298.795,129.846 297.308,129.846 Z" />
        </g>
        <g id="Regular-S">
            <path d="M483.846,111 L483.846,139.718 C483.846,139.956 483.752,140.184 483.583,140.353 C483.415,140.521 483.187,140.615 482.949,140.615 L447.051,140.615 C446.813,140.615 446.585,140.521 446.417,140.353 C446.248,140.184 446.154,139.956 446.154,139.718 L446.154,82.282 C446.154,82.044 446.248,81.816 446.417,81.647 C446.585,81.479 446.813,81.385 447.051,81.385 L482.949,81.385 C483.187,81.385 483.415,81.479 483.583,81.647 C483.752,81.816 483.846,82.044 483.846,82.282 L483.846,111 Z M489.231,111 L489.231,82.282 C489.231,80.616 488.569,79.018 487.391,77.84 C486.213,76.662 484.615,76 482.949,76 L447.051,76 C445.385,76 443.787,76.662 442.609,77.84 C441.431,79.018 440.769,80.616 440.769,82.282 L440.769,139.718 C440.769,141.384 441.431,142.982 442.609,144.16 C443.787,145.338 445.385,146 447.051,146 L482.949,146 C484.615,146 486.213,145.338 487.391,144.16 C488.569,142.982 489.231,141.384 489.231,139.718 L489.231,111 Z" />
            <path d="M443.462,86.769 L432.692,86.769 C431.205,86.769 430,87.975 430,89.462 C430,90.948 431.205,92.154 432.692,92.154 L443.462,92.154 C444.948,92.154 446.154,90.948 446.154,89.462 C446.154,87.975 444.948,86.769 443.462,86.769 Z" />
            <path d="M443.462,101.128 L432.692,101.128 C431.205,101.128 430,102.334 430,103.821 C430,105.307 431.205,106.513 432.692,106.513 L443.462,106.513 C444.948,106.513 446.154,105.307 446.154,103.821 C446.154,102.334 444.948,101.128 443.462,101.128 Z" />
            <path d="M443.462,115.487 L432.692,115.487 C431.205,115.487 430,116.693 430,118.179 C430,119.666 431.205,120.872 432.692,120.872 L443.462,120.872 C444.948,120.872 446.154,119.666 446.154,118.179 C446.154,116.693 444.948,115.487 443.462,115.487 Z" />
            <path d="M443.462,129.846 L432.692,129.846 C431.205,129.846 430,131.052 430,132.538 C430,134.025 431.205,135.231 432.692,135.231 L443.462,135.231 C444.948,135.231 446.154,134.025 446.154,132.538 C446.154,131.052 444.948,129.846 443.462,129.846 Z" />
            <path d="M497.308,86.769 L486.538,86.769 C485.052,86.769 483.846,87.975 483.846,89.462 C483.846,90.948 485.052,92.154 486.538,92.154 L497.308,92.154 C498.795,92.154 500,90.948 500,89.462 C500,87.975 498.795,86.769 497.308,86.769 Z" />
            <path d="M497.308,101.128 L486.538,101.128 C485.052,101.128 483.846,102.334 483.846,103.821 C483.846,105.307 485.052,106.513 486.538,106.513 L497.308,106.513 C498.795,106.513 500,105.307 500,103.821 C500,102.334 498.795,101.128 497.308,101.128 Z" />
            <path d="M497.308,115.487 L486.538,115.487 C485.052,115.487 483.846,116.693 483.846,118.179 C483.846,119.666 485.052,120.872 486.538,120.872 L497.308,120.872 C498.795,120.872 500,119.666 500,118.179 C500,116.693 498.795,115.487 497.308,115.487 Z" />
            <path d="M497.308,129.846 L486.538,129.846 C485.052,129.846 483.846,131.052 483.846,132.538 C483.846,134.025 485.052,135.231 486.538,135.231 L497.308,135.231 C498.795,135.231 500,134.025 500,132.538 C500,131.052 498.795,129.846 497.308,129.846 Z" />
        </g>
        <g id="Black-S">
            <path d="M683.846,111 L683.846,139.718 C683.846,139.956 683.752,140.184 683.583,140.353 C683.415,140.521 683.187,140.615 682.949,140.615 L647.051,140.615 C646.813,140.615 646.585,140.521 646.417,140.353 C646.248,140.184 646.154,139.956 646.154,139.718 L646.154,82.282 C646.154,82.044 646.248,81.816 646.417,81.647 C646.585,81.479 646.813,81.385 647.051,81.385 L682.949,81.385 C683.187,81.385 683.415,81.479 683.583,81.647 C683.752,81.816 683.846,82.044 683.846,82.282 L683.846,111 Z M689.231,111 L689.231,82.282 C689.231,80.616 688.569,79.018 687.391,77.84 C686.213,76.662 684.615,76 682.949,76 L647.051,76 C645.385,76 643.787,76.662 642.609,77.84 C641.431,79.018 640.769,80.616 640.769,82.282 L640.769,139.718 C640.769,141.384 641.431,142.982 642.609,144.16 C643.787,145.338 645.385,146 647.051,146 L682.949,146 C684.615,146 686.213,145.338 687.391,144.16 C688.569,142.982 689.231,141.384 689.231,139.718 L689.231,111 Z" />
            <path d="M643.462,86.769 L632.692,86.769 C631.205,86.769 630,87.975 630,89.462 C630,90.948 631.205,92.154 632.692,92.154 L643.462,92.154 C644.948,92.154 646.154,90.948 646.154,89.462 C646.154,87.975 644.948,86.769 643.462,86.769 Z" />
            <path d="M643.462,101.128 L632.692,101.128 C631.205,101.128 630,102.334 630,103.821 C630,105.307 631.205,106.513 632.692,106.513 L643.462,106.513 C644.948,106.513 646.154,105.307 646.154,103.821 C646.154,102.334 644.948,101.128 643.462,101.128 Z" />
            <path d="M643.462,115.487 L632.692,115.487 C631.205,115.487 630,116.693 630,118.179 C630,119.666 631.205,120.872 632.692,120.872 L643.462,120.872 C644.948,120.872 646.154,119.666 646.154,118.179 C646.154,116.693 644.948,115.487 643.462,115.487 Z" />
            <path d="M643.462,129.846 L632.692,129.846 C631.205,129.846 630,131.052 630,132.538 C630,134.025 631.205,135.231 632.692,135.231 L643.462,135.231 C644.948,135.231 646.154,134.025 646.154,132.538 C646.154,131.052 644.948,129.846 643.462,129.846 Z" />
            <path d="M697.308,86.769 L686.538,86.769 C685.052,86.769 683.846,87.975 683.846,89.462 C683.846,90.948 685.052,92.154 686.538,92.154 L697.308,92.154 C698.795,92.154 700,90.948 700,89.462 C700,87.975 698.795,86.769 697.308,86.769 Z" />
            <path d="M697.308,101.128 L686.538,101.128 C685.052,101.128 683.846,102.334 683.846,103.821 C683.846,105.307 685.052,106.513 686.538,106.513 L697.308,106.513 C698.795,106.513 700,105.307 700,103.821 C700,102.334 698.795,101.128 697.308,101.128 Z" />
            <path d="M697.308,115.487 L686.538,115.487 C685.052,115.487 683.846,116.693 683.846,118.179 C683.846,119.666 685.052,120.872 686.538,120.872 L697.308,120.872 C698.795,120.872 700,119.666 700,118.179 C700,116.693 698.795,115.487 697.308,115.487 Z" />
            <path d="M697.308,129.846 L686.538,129.846 C685.052,129.846 683.846,131.052 683.846,132.538 C683.846,134.025 685.052,135.231 686.538,135.231 L697.308,135.231 C698.795,135.231 700,134.025 700,132.538 C700,131.052 698.795,129.846 697.308,129.846 Z" />
        </g>
    </g>
</svg>