<?xml version="1.0" encoding="UTF-8"?>
<svg height="600" width="800" xmlns="http://www.w3.org/2000/svg" xmlns:xlink="http://www.w3.org/1999/xlink">
    <g id="Notes" font-family="'LucidaGrande', 'Lucida Grande', sans-serif" font-size="13">
        <rect fill="white" height="600.0" width="800.0" x="0.0" y="0.0" />
        <g font-size="13">
            <text x="18.0" y="176.0">Small</text>
            <text x="18.0" y="376.0">Medium</text>
            <text x="18.0" y="576.0">Large</text>
        </g>
        <g font-size="9">
            <text x="250.0" y="30.0">Ultralight</text>
            <text x="450.0" y="30.0">Regular</text>
            <text x="650.0" y="30.0">Black</text>
            <text id="template-version" fill="#505050" text-anchor="end" x="785.0" y="575.0">Template v.3.0</text>
            <a href="https://github.com/swhitty/SwiftDraw">
                <text fill="#505050" text-anchor="end" x="785.0" y="590.0">https://github.com/swhitty/SwiftDraw</text>
            </a>
        </g>
    </g>
    <g id="Guides" stroke="rgb(39, 170, 225)" stroke-width="0.5">
        <path id="Capline-S" d="M18,76 l800,0" />
        <path id="H-reference" d="M85,145.755 L87.685,145.755 L113.369,79.287 L114.052,79.287 L114.052,76 L112.148,76 L85,145.755 Z M95.693,121.536 L130.996,121.536 L130.263,119.313 L96.474,119.313 L95.693,121.536 Z M139.15,145.755 L141.787,145.755 L114.638,76 L113.466,76 L113.466,79.287 L139.15,145.755 Z" stroke="none" />
        <path id="Baseline-S" d="M18,146 l800,0" />
        <path id="left-margin-Ultralight-S" d="M221,56 l0,110" />
        <path id="right-margin-Ultralight-S" d="M309,56 l0,110" />
        <path id="left-margin-Regular-S" d="M421,56 l0,110" />
        <path id="right-margin-Regular-S" d="M509,56 l0,110" />
        <path id="left-margin-Black-S" d="M621,56 l0,110" />
        <path id="right-margin-Black-S" d="M709,56 l0,110" />
        <path id="Capline-M" d="M18,276 l800,0" />
        <path id="Baseline-M" d="M18,346 l800,0" />
        <path id="Capline-L" d="M18,476 l800,0" />
        <path id="Baseline-L" d="M18,546 l800,0" />
    </g>
    <g id="Symbols">
        <g id="Ultralight-S">
            <path d="M236.802,78.488 L236.802,93.417 C236.802,94.791 237.916,95.905 239.29,95.905 C240.664,95.905 241.778,94.791 241.778,93.417 L241.778,78.488 C241.778,77.114 240.664,76 239.29,76 C237.916,76 236.802,77.114 236.802,78.488 Z" />
            <path d="M244.266,90.929 L234.314,90.929 C232.94,90.929 231.826,92.043 231.826,93.417 C231.826,94.791 232.94,95.905 234.314,95.905 L244.266,95.905 C245.641,95.905 246.754,94.791 246.754,93.417 C246.754,92.043 245.641,90.929 244.266,90.929 Z" />
            <path d="M244.266,114.15 L234.314,114.15 C232.94,114.15 231.826,115.264 231.826,116.638 C231.826,118.013 232.94,119.127 234.314,119.127 L244.266,119.127 C245.641,119.127 246.754,118.013 246.754,116.638 C246.754,115.264 245.641,114.15 244.266,114.15 Z" />
            <path d="M236.074,106.787 C236.234,106.626 236.596,106.321 237.073,106.014 C237.962,105.442 238.767,105.206 239.309,105.342 C239.692,105.437 240.09,105.736 240.538,106.407 C240.738,106.708 240.77,106.985 240.636,107.431 C240.3,108.55 239.047,110.05 237.17,111.609 C236.275,112.352 235.306,113.056 234.336,113.694 C233.757,114.074 233.315,114.344 233.08,114.478 C231.887,115.16 231.472,116.679 232.154,117.873 C232.836,119.066 234.356,119.48 235.549,118.798 C235.869,118.615 236.399,118.293 237.07,117.851 C238.184,117.119 239.299,116.309 240.348,115.437 C242.918,113.304 244.715,111.153 245.402,108.86 C245.945,107.05 245.738,105.237 244.678,103.647 C243.57,101.986 242.154,100.924 240.516,100.514 C238.38,99.98 236.314,100.586 234.382,101.829 C233.569,102.351 232.947,102.876 232.555,103.268 C231.583,104.24 231.583,105.815 232.555,106.787 C233.527,107.758 235.102,107.758 236.074,106.787 Z" />
            <path d="M236.385,130.459 C236.494,130.295 236.789,129.947 237.213,129.596 C238.427,128.591 239.611,128.412 241.228,129.49 C241.731,129.826 242.04,130.135 242.202,130.405 C242.454,130.825 242.323,131.394 241.723,132.193 C241.44,132.572 241.155,132.856 241.015,132.973 C239.822,133.968 239.822,135.801 241.015,136.796 C241.155,136.912 241.44,137.197 241.723,137.575 C242.323,138.375 242.454,138.943 242.202,139.364 C242.04,139.633 241.731,139.943 241.228,140.278 C239.611,141.356 238.427,141.178 237.213,140.172 C236.789,139.821 236.494,139.474 236.385,139.31 C235.622,138.166 234.078,137.857 232.934,138.62 C231.791,139.382 231.482,140.926 232.244,142.07 C232.601,142.605 233.196,143.307 234.04,144.006 C236.819,146.305 240.357,146.839 243.988,144.419 C245.075,143.694 245.906,142.863 246.469,141.924 C247.98,139.407 247.385,136.83 245.704,134.589 C245.159,133.862 244.614,133.317 244.201,132.973 L244.201,136.796 C244.614,136.451 245.159,135.907 245.704,135.179 C247.385,132.938 247.98,130.362 246.469,127.845 C245.906,126.905 245.075,126.074 243.988,125.35 C240.357,122.929 236.819,123.463 234.04,125.763 C233.196,126.461 232.601,127.163 232.244,127.699 C231.482,128.842 231.791,130.387 232.934,131.149 C234.078,131.911 235.622,131.602 236.385,130.459 Z" />
            <path d="M242.608,132.396 L239.29,132.396 C237.916,132.396 236.802,133.51 236.802,134.884 C236.802,136.258 237.916,137.372 239.29,137.372 L242.608,137.372 C243.982,137.372 245.096,136.258 245.096,134.884 C245.096,133.51 243.982,132.396 242.608,132.396 Z" />
            <path d="M237.91,76.418 L232.934,79.736 C231.791,80.498 231.482,82.043 232.244,83.186 C233.006,84.329 234.551,84.638 235.694,83.876 L240.67,80.559 C241.814,79.796 242.123,78.252 241.361,77.108 C240.598,75.965 239.054,75.656 237.91,76.418 Z" />
            <path d="M259.195,114.15 L295.686,114.15 C297.06,114.15 298.174,113.036 298.174,111.662 C298.174,110.288 297.06,109.174 295.686,109.174 L259.195,109.174 C257.821,109.174 256.707,110.288 256.707,111.662 C256.707,113.036 257.821,114.15 259.195,114.15 Z" />
            <path d="M259.195,137.372 L295.686,137.372 C297.06,137.372 298.174,136.258 298.174,134.884 C298.174,133.51 297.06,132.396 295.686,132.396 L259.195,132.396 C257.821,132.396 256.707,133.51 256.707,134.884 C256.707,136.258 257.821,137.372 259.195,137.372 Z" />
            <path d="M259.195,90.929 L295.686,90.929 C297.06,90.929 298.174,89.815 298.174,88.441 C298.174,87.066 297.06,85.952 295.686,85.952 L259.195,85.952 C257.821,85.952 256.707,87.066 256.707,88.441 C256.707,89.815 257.821,90.929 259.195,90.929 Z" />
        </g>
        <g id="Regular-S">
            <path d="M436.802,78.488 L436.802,93.417 C436.802,94.791 437.916,95.905 439.29,95.905 C440.664,95.905 441.778,94.791 441.778,93.417 L441.778,78.488 C441.778,77.114 440.664,76 439.29,76 C437.916,76 436.802,77.114 436.802,78.488 Z" />
            <path d="M444.266,90.929 L434.314,90.929 C432.94,90.929 431.826,92.043 431.826,93.417 C431.826,94.791 432.94,95.905 434.314,95.905 L444.266,95.905 C445.641,95.905 446.754,94.791 446.754,93.417 C446.754,92.043 445.641,90.929 444.266,90.929 Z" />
            <path d="M444.266,114.15 L434.314,114.15 C432.94,114.15 431.826,115.264 431.826,116.638 C431.826,118.013 432.94,119.127 434.314,119.127 L444.266,119.127 C445.641,119.127 446.754,118.013 446.754,116.638 C446.754,115.264 445.641,114.15 444.266,114.15 Z" />
            <path d="M436.074,106.787 C436.234,106.626 436.596,106.321 437.073,106.014 C437.962,105.442 438.767,105.206 439.309,105.342 C439.692,105.437 440.09,105.736 440.538,106.407 C440.738,106.708 440.77,106.985 440.636,107.431 C440.3,108.55 439.047,110.05 437.17,111.609 C436.275,112.352 435.306,113.056 434.336,113.694 C433.757,114.074 433.315,114.344 433.08,114.478 C431.887,115.16 431.472,116.679 432.154,117.873 C432.836,119.066 434.356,119.48 435.549,118.798 C435.869,118.615 436.399,118.293 437.07,117.851 C438.184,117.119 439.299,116.309 440.348,115.437 C442.918,113.304 444.715,111.153 445.402,108.86 C445.945,107.05 445.738,105.237 444.678,103.647 C443.57,101.986 442.154,100.924 440.516,100.514 C438.38,99.98 436.314,100.586 434.382,101.829 C433.569,102.351 432.947,102.876 432.555,103.268 C431.583,104.24 431.583,105.815 432.555,106.787 C433.527,107.758 435.102,107.758 436.074,106.787 Z" />
            <path d="M436.385,130.459 C436.494,130.295 436.789,129.947 437.213,129.596 C438.427,128.591 439.611,128.412 441.228,129.49 C441.731,129.826 442.04,130.135 442.202,130.405 C442.455,130.825 442.323,131.394 441.723,132.193 C441.44,132.572 441.155,132.856 441.015,132.973 C439.822,133.968 439.822,135.801 441.015,136.796 C441.155,136.912 441.44,137.197 441.723,137.575 C442.323,138.375 442.455,138.943 442.202,139.364 C442.04,139.633 441.731,139.943 441.228,140.278 C439.611,141.356 438.427,141.178 437.213,140.172 C436.789,139.821 436.494,139.474 436.385,139.31 C435.622,138.166 434.078,137.857 432.934,138.62 C431.791,139.382 431.482,140.926 432.244,142.07 C432.601,142.605 433.196,143.307 434.04,144.006 C436.819,146.305 440.357,146.839 443.988,144.419 C445.075,143.694 445.906,142.863 446.469,141.924 C447.98,139.407 447.385,136.83 445.704,134.589 C445.159,133.862 444.614,133.317 444.201,132.973 L444.201,136.796 C444.614,136.451 445.159,135.907 445.704,135.179 C447.385,132.938 447.98,130.362 446.469,127.845 C445.906,126.905 445.075,126.074 443.988,125.35 C440.357,122.929 436.819,123.463 434.04,125.763 C433.196,126.461 432.601,127.163 432.244,127.699 C431.482,128.842 431.791,130.387 432.934,131.149 C434.078,131.911 435.622,131.602 436.385,130.459 Z" />
            <path d="M442.608,132.396 L439.29,132.396 C437.916,132.396 436.802,133.51 436.802,134.884 C436.802,136.258 437.916,137.372 439.29,137.372 L442.608,137.372 C443.982,137.372 445.096,136.258 445.096,134.884 C445.096,133.51 443.982,132.396 442.608,132.396 Z" />
            <path d="M437.91,76.418 L432.934,79.736 C431.791,80.498 431.482,82.043 432.244,83.186 C433.006,84.329 434.551,84.638 435.694,83.876 L440.67,80.559 C441.814,79.796 442.123,78.252 441.361,77.108 C440.598,75.965 439.054,75.656 437.91,76.418 Z" />
            <path d="M459.195,114.15 L495.686,114.15 C497.06,114.15 498.174,113.036 498.174,111.662 C498.174,110.288 497.06,109.174 495.686,109.174 L459.195,109.174 C457.821,109.174 456.707,110.288 456.707,111.662 C456.707,113.036 457.821,114.15 459.195,114.15 Z" />
            <path d="M459.195,137.372 L495.686,137.372 C497.06,137.372 498.174,136.258 498.174,134.884 C498.174,133.51 497.06,132.396 495.686,132.396 L459.195,132.396 C457.821,132.396 456.707,133.51 456.707,134.884 C456.707,136.258 457.821,137.372 459.195,137.372 Z" />
            <path d="M459.195,90.929 L495.686,90.929 C497.06,90.929 498.174,89.815 498.174,88.441 C498.174,87.066 497.06,85.952 495.686,85.952 L459.195,85.952 C457.821,85.952 456.707,87.066 456.707,88.441 C456.707,89.815 457.821,90.929 459.195,90.929 Z" />
        </g>
        <g id="Black-S">
            <path d="M636.802,78.488 L636.802,93.417 C636.802,94.791 637.916,95.905 639.29,95.905 C640.664,95.905 641.778,94.791 641.778,93.417 L641.778,78.488 C641.778,77.114 640.664,76 639.29,76 C637.916,76 636.802,77.114 636.802,78.488 Z" />
            <path d="M644.266,90.929 L634.314,90.929 C632.94,90.929 631.826,92.043 631.826,93.417 C631.826,94.791 632.94,95.905 634.314,95.905 L644.266,95.905 C645.641,95.905 646.755,94.791 646.755,93.417 C646.755,92.043 645.641,90.929 644.266,90.929 Z" />
            <path d="M644.266,114.15 L634.314,114.15 C632.94,114.15 631.826,115.264 631.826,116.638 C631.826,118.013 632.94,119.127 634.314,119.127 L644.266,119.127 C645.641,119.127 646.755,118.013 646.755,116.638 C646.755,115.264 645.641,114.15 644.266,114.15 Z" />
            <path d="M636.074,106.787 C636.234,106.626 636.596,106.321 637.073,106.014 C637.962,105.442 638.767,105.206 639.309,105.342 C639.692,105.437 640.09,105.736 640.538,106.407 C640.738,106.708 640.77,106.985 640.636,107.431 C640.3,108.55 639.047,110.05 637.17,111.609 C636.275,112.352 635.306,113.056 634.336,113.694 C633.757,114.074 633.315,114.344 633.08,114.478 C631.887,115.16 631.472,116.679 632.154,117.873 C632.836,119.066 634.356,119.48 635.549,118.798 C635.869,118.615 636.399,118.293 637.07,117.851 C638.184,117.119 639.299,116.309 640.348,115.437 C642.918,113.304 644.715,111.153 645.402,108.86 C645.945,107.05 645.738,105.237 644.678,103.647 C643.57,101.986 642.154,100.924 640.516,100.514 C638.38,99.98 636.314,100.586 634.382,101.829 C633.569,102.351 632.947,102.876 632.555,103.268 C631.583,104.24 631.583,105.815 632.555,106.787 C633.527,107.758 635.102,107.758 636.074,106.787 Z" />
            <path d="M636.385,130.459 C636.494,130.295 636.789,129.947 637.213,129.596 C638.427,128.591 639.611,128.412 641.228,129.49 C641.731,129.826 642.04,130.135 642.202,130.405 C642.455,130.825 642.323,131.394 641.723,132.193 C641.44,132.572 641.155,132.856 641.015,132.973 C639.822,133.968 639.822,135.801 641.015,136.796 C641.155,136.912 641.44,137.197 641.723,137.575 C642.323,138.375 642.455,138.943 642.202,139.364 C642.04,139.633 641.731,139.943 641.228,140.278 C639.611,141.356 638.427,141.178 637.213,140.172 C636.789,139.821 636.494,139.474 636.385,139.31 C635.622,138.166 634.078,137.857 632.934,138.62 C631.791,139.382 631.482,140.926 632.244,142.07 C632.601,142.605 633.196,143.307 634.04,144.006 C636.819,146.305 640.357,146.839 643.988,144.419 C645.075,143.694 645.906,142.863 646.469,141.924 C647.98,139.407 647.385,136.83 645.704,134.589 C645.159,133.862 644.614,133.317 644.201,132.973 L644.201,136.796 C644.614,136.451 645.159,135.907 645.704,135.179 C647.385,132.938 647.98,130.362 646.469,127.845 C645.906,126.905 645.075,126.074 643.988,125.35 C640.357,122.929 636.819,123.463 634.04,125.763 C633.196,126.461 632.601,127.163 632.244,127.699 C631.482,128.842 631.791,130.387 632.934,131.149 C634.078,131.911 635.622,131.602 636.385,130.459 Z" />
            <path d="M642.608,132.396 L639.29,132.396 C637.916,132.396 636.802,133.51 636.802,134.884 C636.802,136.258 637.916,137.372 639.29,137.372 L642.608,137.372 C643.982,137.372 645.096,136.258 645.096,134.884 C645.096,133.51 643.982,132.396 642.608,132.396 Z" />
            <path d="M637.91,76.418 L632.934,79.736 C631.791,80.498 631.482,82.043 632.244,83.186 C633.006,84.329 634.551,84.638 635.694,83.876 L640.67,80.559 C641.814,79.796 642.123,78.252 641.361,77.108 C640.598,75.965 639.054,75.656 637.91,76.418 Z" />
            <path d="M659.195,114.15 L695.686,114.15 C697.06,114.15 698.174,113.036 698.174,111.662 C698.174,110.288 697.06,109.174 695.686,109.174 L659.195,109.174 C657.821,109.174 656.707,110.288 656.707,111.662 C656.707,113.036 657.821,114.15 659.195,114.15 Z" />
            <path d="M659.195,137.372 L695.686,137.372 C697.06,137.372 698.174,136.258 698.174,134.884 C698.174,133.51 697.06,132.396 695.686,132.396 L659.195,132.396 C657.821,132.396 656.707,133.51 656.707,134.884 C656.707,136.258 657.821,137.372 659.195,137.372 Z" />
            <path d="M659.195,90.929 L695.686,90.929 C697.06,90.929 698.174,89.815 698.174,88.441 C698.174,87.066 697.06,85.952 695.686,85.952 L659.195,85.952 C657.821,85.952 656.707,87.066 656.707,88.441 C656.707,89.815 657.821,90.929 659.195,90.929 Z" />
        </g>
    </g>
</svg>