<?xml version="1.0" encoding="UTF-8"?>
<svg height="600" width="800" xmlns="http://www.w3.org/2000/svg" xmlns:xlink="http://www.w3.org/1999/xlink">
    <g id="Notes" font-family="'LucidaGrande', 'Lucida Grande', sans-serif" font-size="13">
        <rect fill="white" height="600.0" width="800.0" x="0.0" y="0.0" />
        <g font-size="13">
            <text x="18.0" y="176.0">Small</text>
            <text x="18.0" y="376.0">Medium</text>
            <text x="18.0" y="576.0">Large</text>
        </g>
        <g font-size="9">
            <text x="250.0" y="30.0">Ultralight</text>
            <text x="450.0" y="30.0">Regular</text>
            <text x="650.0" y="30.0">Black</text>
            <text id="template-version" fill="#505050" text-anchor="end" x="785.0" y="575.0">Template v.3.0</text>
            <a href="https://github.com/swhitty/SwiftDraw">
                <text fill="#505050" text-anchor="end" x="785.0" y="590.0">https://github.com/swhitty/SwiftDraw</text>
            </a>
        </g>
    </g>
    <g id="Guides" stroke="rgb(39, 170, 225)" stroke-width="0.5">
        <path id="Capline-S" d="M18,76 l800,0" />
        <path id="H-reference" d="M85,145.755 L87.685,145.755 L113.369,79.287 L114.052,79.287 L114.052,76 L112.148,76 L85,145.755 Z M95.693,121.536 L130.996,121.536 L130.263,119.313 L96.474,119.313 L95.693,121.536 Z M139.15,145.755 L141.787,145.755 L114.638,76 L113.466,76 L113.466,79.287 L139.15,145.755 Z" stroke="none" />
        <path id="Baseline-S" d="M18,146 l800,0" />
        <path id="left-margin-Ultralight-S" d="M221,56 l0,110" />
        <path id="right-margin-Ultralight-S" d="M309,56 l0,110" />
        <path id="left-margin-Regular-S" d="M421,56 l0,110" />
        <path id="right-margin-Regular-S" d="M509,56 l0,110" />
        <path id="left-margin-Black-S" d="M621,56 l0,110" />
        <path id="right-margin-Black-S" d="M709,56 l0,110" />
        <path id="Capline-M" d="M18,276 l800,0" />
        <path id="Baseline-M" d="M18,346 l800,0" />
        <path id="Capline-L" d="M18,476 l800,0" />
        <path id="Baseline-L" d="M18,546 l800,0" />
    </g>
    <g id="Symbols">
        <g id="Ultralight-S">
            <path d="M269.462,106.685 L273.269,110.493 C273.438,110.661 273.532,110.889 273.532,111.127 C273.532,111.365 273.438,111.594 273.269,111.762 L265.654,119.377 C265.486,119.545 265.258,119.64 265.02,119.64 C264.782,119.64 264.553,119.545 264.385,119.377 L256.77,111.762 C256.602,111.594 256.507,111.365 256.507,111.127 C256.507,110.889 256.602,110.661 256.77,110.493 L264.385,102.878 C264.553,102.71 264.782,102.615 265.02,102.615 C265.258,102.615 265.486,102.71 265.654,102.878 L269.462,106.685 Z M273.269,102.878 L269.462,99.07 C268.284,97.892 266.686,97.23 265.02,97.23 C263.354,97.23 261.756,97.892 260.578,99.07 L252.963,106.685 C251.785,107.863 251.123,109.461 251.123,111.127 C251.123,112.794 251.785,114.391 252.963,115.57 L260.578,123.185 C261.756,124.363 263.354,125.024 265.02,125.024 C266.686,125.024 268.284,124.363 269.462,123.185 L277.077,115.57 C278.255,114.391 278.917,112.794 278.917,111.127 C278.917,109.461 278.255,107.863 277.077,106.685 L273.269,102.878 Z" />
            <path d="M296.237,95.443 C290.367,83.631 278.304,76 264.876,76 C251.494,76 239.657,83.582 233.763,95.443 C233.102,96.774 233.645,98.39 234.976,99.052 C236.308,99.714 237.924,99.171 238.585,97.839 C243.583,87.782 253.57,81.385 264.876,81.385 C276.24,81.385 286.446,87.841 291.415,97.839 C292.076,99.171 293.692,99.714 295.024,99.052 C296.355,98.39 296.898,96.774 296.237,95.443 Z" />
            <path d="M233.482,82.282 L233.482,96.641 C233.482,98.128 234.687,99.333 236.174,99.333 C237.661,99.333 238.867,98.128 238.867,96.641 L238.867,82.282 C238.867,80.795 237.661,79.59 236.174,79.59 C234.687,79.59 233.482,80.795 233.482,82.282 Z" />
            <path d="M248.344,93.949 L236.174,93.949 C234.688,93.949 233.482,95.154 233.482,96.641 C233.482,98.128 234.688,99.333 236.174,99.333 L248.344,99.333 C249.831,99.333 251.036,98.128 251.036,96.641 C251.036,95.154 249.831,93.949 248.344,93.949 Z" />
            <path d="M233.763,126.557 C239.633,138.369 251.696,146 265.124,146 C278.506,146 290.343,138.418 296.237,126.557 C296.898,125.226 296.355,123.61 295.024,122.948 C293.692,122.286 292.076,122.829 291.415,124.161 C286.417,134.218 276.43,140.615 265.124,140.615 C253.76,140.615 243.554,134.159 238.585,124.161 C237.924,122.829 236.308,122.286 234.976,122.948 C233.645,123.61 233.102,125.226 233.763,126.557 Z" />
            <path d="M296.518,139.718 L296.518,125.359 C296.518,123.872 295.313,122.667 293.826,122.667 C292.339,122.667 291.133,123.872 291.133,125.359 L291.133,139.718 C291.133,141.205 292.339,142.41 293.826,142.41 C295.313,142.41 296.518,141.205 296.518,139.718 Z" />
            <path d="M281.656,128.051 L293.826,128.051 C295.312,128.051 296.518,126.846 296.518,125.359 C296.518,123.872 295.312,122.667 293.826,122.667 L281.656,122.667 C280.169,122.667 278.964,123.872 278.964,125.359 C278.964,126.846 280.169,128.051 281.656,128.051 Z" />
        </g>
        <g id="Regular-S">
            <path d="M469.462,106.685 L473.269,110.493 C473.438,110.661 473.532,110.889 473.532,111.127 C473.532,111.365 473.438,111.594 473.269,111.762 L465.654,119.377 C465.486,119.545 465.258,119.64 465.02,119.64 C464.782,119.64 464.553,119.545 464.385,119.377 L456.77,111.762 C456.602,111.594 456.507,111.365 456.507,111.127 C456.507,110.889 456.602,110.661 456.77,110.493 L464.385,102.878 C464.553,102.71 464.782,102.615 465.02,102.615 C465.258,102.615 465.486,102.71 465.654,102.878 L469.462,106.685 Z M473.269,102.878 L469.462,99.07 C468.284,97.892 466.686,97.23 465.02,97.23 C463.354,97.23 461.756,97.892 460.578,99.07 L452.963,106.685 C451.785,107.863 451.123,109.461 451.123,111.127 C451.123,112.794 451.785,114.391 452.963,115.57 L460.578,123.185 C461.756,124.363 463.354,125.024 465.02,125.024 C466.686,125.024 468.284,124.363 469.462,123.185 L477.077,115.57 C478.255,114.391 478.917,112.794 478.917,111.127 C478.917,109.461 478.255,107.863 477.077,106.685 L473.269,102.878 Z" />
            <path d="M496.237,95.443 C490.367,83.631 478.304,76 464.876,76 C451.494,76 439.657,83.582 433.763,95.443 C433.102,96.774 433.645,98.39 434.976,99.052 C436.308,99.714 437.924,99.171 438.585,97.839 C443.583,87.782 453.57,81.385 464.876,81.385 C476.24,81.385 486.446,87.841 491.415,97.839 C492.076,99.171 493.692,99.714 495.024,99.052 C496.355,98.39 496.898,96.774 496.237,95.443 Z" />
            <path d="M433.482,82.282 L433.482,96.641 C433.482,98.128 434.687,99.333 436.174,99.333 C437.661,99.333 438.867,98.128 438.867,96.641 L438.867,82.282 C438.867,80.795 437.661,79.59 436.174,79.59 C434.687,79.59 433.482,80.795 433.482,82.282 Z" />
            <path d="M448.344,93.949 L436.174,93.949 C434.688,93.949 433.482,95.154 433.482,96.641 C433.482,98.128 434.688,99.333 436.174,99.333 L448.344,99.333 C449.831,99.333 451.036,98.128 451.036,96.641 C451.036,95.154 449.831,93.949 448.344,93.949 Z" />
            <path d="M433.763,126.557 C439.633,138.369 451.696,146 465.124,146 C478.506,146 490.343,138.418 496.237,126.557 C496.898,125.226 496.355,123.61 495.024,122.948 C493.692,122.286 492.076,122.829 491.415,124.161 C486.417,134.218 476.43,140.615 465.124,140.615 C453.76,140.615 443.554,134.159 438.585,124.161 C437.924,122.829 436.308,122.286 434.976,122.948 C433.645,123.61 433.102,125.226 433.763,126.557 Z" />
            <path d="M496.518,139.718 L496.518,125.359 C496.518,123.872 495.313,122.667 493.826,122.667 C492.339,122.667 491.133,123.872 491.133,125.359 L491.133,139.718 C491.133,141.205 492.339,142.41 493.826,142.41 C495.313,142.41 496.518,141.205 496.518,139.718 Z" />
            <path d="M481.656,128.051 L493.826,128.051 C495.312,128.051 496.518,126.846 496.518,125.359 C496.518,123.872 495.312,122.667 493.826,122.667 L481.656,122.667 C480.169,122.667 478.964,123.872 478.964,125.359 C478.964,126.846 480.169,128.051 481.656,128.051 Z" />
        </g>
        <g id="Black-S">
            <path d="M669.462,106.685 L673.269,110.493 C673.438,110.661 673.532,110.889 673.532,111.127 C673.532,111.365 673.438,111.594 673.269,111.762 L665.654,119.377 C665.486,119.545 665.258,119.64 665.02,119.64 C664.782,119.64 664.554,119.545 664.385,119.377 L656.77,111.762 C656.602,111.594 656.507,111.365 656.507,111.127 C656.507,110.889 656.602,110.661 656.77,110.493 L664.385,102.878 C664.554,102.71 664.782,102.615 665.02,102.615 C665.258,102.615 665.486,102.71 665.654,102.878 L669.462,106.685 Z M673.269,102.878 L669.462,99.07 C668.284,97.892 666.686,97.23 665.02,97.23 C663.354,97.23 661.756,97.892 660.578,99.07 L652.963,106.685 C651.785,107.863 651.123,109.461 651.123,111.127 C651.123,112.794 651.785,114.391 652.963,115.57 L660.578,123.185 C661.756,124.363 663.354,125.024 665.02,125.024 C666.686,125.024 668.284,124.363 669.462,123.185 L677.077,115.57 C678.255,114.391 678.917,112.794 678.917,111.127 C678.917,109.461 678.255,107.863 677.077,106.685 L673.269,102.878 Z" />
            <path d="M696.237,95.443 C690.367,83.631 678.304,76 664.876,76 C651.494,76 639.657,83.582 633.763,95.443 C633.102,96.774 633.645,98.39 634.976,99.052 C636.308,99.714 637.924,99.171 638.585,97.839 C643.583,87.782 653.57,81.385 664.876,81.385 C676.24,81.385 686.446,87.841 691.415,97.839 C692.076,99.171 693.692,99.714 695.024,99.052 C696.355,98.39 696.898,96.774 696.237,95.443 Z" />
            <path d="M633.482,82.282 L633.482,96.641 C633.482,98.128 634.687,99.333 636.174,99.333 C637.661,99.333 638.867,98.128 638.867,96.641 L638.867,82.282 C638.867,80.795 637.661,79.59 636.174,79.59 C634.687,79.59 633.482,80.795 633.482,82.282 Z" />
            <path d="M648.344,93.949 L636.174,93.949 C634.688,93.949 633.482,95.154 633.482,96.641 C633.482,98.128 634.688,99.333 636.174,99.333 L648.344,99.333 C649.831,99.333 651.036,98.128 651.036,96.641 C651.036,95.154 649.831,93.949 648.344,93.949 Z" />
            <path d="M633.763,126.557 C639.633,138.369 651.696,146 665.124,146 C678.506,146 690.343,138.418 696.237,126.557 C696.898,125.226 696.355,123.61 695.024,122.948 C693.692,122.286 692.076,122.829 691.415,124.161 C686.417,134.218 676.43,140.615 665.124,140.615 C653.76,140.615 643.554,134.159 638.585,124.161 C637.924,122.829 636.308,122.286 634.976,122.948 C633.645,123.61 633.102,125.226 633.763,126.557 Z" />
            <path d="M696.518,139.718 L696.518,125.359 C696.518,123.872 695.313,122.667 693.826,122.667 C692.339,122.667 691.133,123.872 691.133,125.359 L691.133,139.718 C691.133,141.205 692.339,142.41 693.826,142.41 C695.313,142.41 696.518,141.205 696.518,139.718 Z" />
            <path d="M681.656,128.051 L693.826,128.051 C695.312,128.051 696.518,126.846 696.518,125.359 C696.518,123.872 695.312,122.667 693.826,122.667 L681.656,122.667 C680.169,122.667 678.964,123.872 678.964,125.359 C678.964,126.846 680.169,128.051 681.656,128.051 Z" />
        </g>
    </g>
</svg>