<?xml version="1.0" encoding="UTF-8"?>
<svg height="600" width="800" xmlns="http://www.w3.org/2000/svg" xmlns:xlink="http://www.w3.org/1999/xlink">
    <g id="Notes" font-family="'LucidaGrande', 'Lucida Grande', sans-serif" font-size="13">
        <rect fill="white" height="600.0" width="800.0" x="0.0" y="0.0" />
        <g font-size="13">
            <text x="18.0" y="176.0">Small</text>
            <text x="18.0" y="376.0">Medium</text>
            <text x="18.0" y="576.0">Large</text>
        </g>
        <g font-size="9">
            <text x="250.0" y="30.0">Ultralight</text>
            <text x="450.0" y="30.0">Regular</text>
            <text x="650.0" y="30.0">Black</text>
            <text id="template-version" fill="#505050" text-anchor="end" x="785.0" y="575.0">Template v.3.0</text>
            <a href="https://github.com/swhitty/SwiftDraw">
                <text fill="#505050" text-anchor="end" x="785.0" y="590.0">https://github.com/swhitty/SwiftDraw</text>
            </a>
        </g>
    </g>
    <g id="Guides" stroke="rgb(39, 170, 225)" stroke-width="0.5">
        <path id="Capline-S" d="M18,76 l800,0" />
        <path id="H-reference" d="M85,145.755 L87.685,145.755 L113.369,79.287 L114.052,79.287 L114.052,76 L112.148,76 L85,145.755 Z M95.693,121.536 L130.996,121.536 L130.263,119.313 L96.474,119.313 L95.693,121.536 Z M139.15,145.755 L141.787,145.755 L114.638,76 L113.466,76 L113.466,79.287 L139.15,145.755 Z" stroke="none" />
        <path id="Baseline-S" d="M18,146 l800,0" />
        <path id="left-margin-Ultralight-S" d="M221,56 l0,110" />
        <path id="right-margin-Ultralight-S" d="M309,56 l0,110" />
        <path id="left-margin-Regular-S" d="M421,56 l0,110" />
        <path id="right-margin-Regular-S" d="M509,56 l0,110" />
        <path id="left-margin-Black-S" d="M621,56 l0,110" />
        <path id="right-margin-Black-S" d="M709,56 l0,110" />
        <path id="Capline-M" d="M18,276 l800,0" />
        <path id="Baseline-M" d="M18,346 l800,0" />
        <path id="Capline-L" d="M18,476 l800,0" />
        <path id="Baseline-L" d="M18,546 l800,0" />
    </g>
    <g id="Symbols">
        <g id="Ultralight-S">
            <path d="M249.925,84.477 L236.088,92.616 C235.342,93.055 234.884,93.856 234.884,94.721 L234.884,111 L234.884,127.279 C234.884,128.144 235.342,128.945 236.088,129.384 L249.925,137.523 L263.762,145.663 C264.526,146.112 265.474,146.112 266.238,145.663 L280.075,137.523 L293.913,129.384 C294.658,128.945 295.116,128.144 295.116,127.279 L295.116,111 L295.116,94.721 C295.116,93.856 294.658,93.055 293.913,92.616 L280.075,84.477 L266.238,76.337 C265.474,75.888 264.526,75.888 263.762,76.337 L249.925,84.477 Z M252.401,88.686 L266.238,80.547 L263.762,80.547 L277.599,88.686 L291.436,96.826 L290.233,94.721 L290.233,111 L290.233,127.279 L291.436,125.174 L277.599,133.314 L263.762,141.453 L266.238,141.453 L252.401,133.314 L238.564,125.174 L239.767,127.279 L239.767,111 L239.767,94.721 L238.564,96.826 L252.401,88.686 Z" />
            <path d="M291.436,92.616 L236.088,125.174 C234.925,125.858 234.537,127.355 235.221,128.517 C235.905,129.68 237.401,130.068 238.564,129.384 L293.912,96.826 C295.075,96.142 295.463,94.645 294.779,93.483 C294.095,92.32 292.599,91.932 291.436,92.616 Z" />
            <path d="M262.558,78.442 L262.558,143.558 C262.558,144.907 263.651,146 265,146 C266.349,146 267.442,144.907 267.442,143.558 L267.442,78.442 C267.442,77.093 266.349,76 265,76 C263.651,76 262.558,77.093 262.558,78.442 Z" />
            <path d="M236.088,96.826 L291.436,129.384 C292.599,130.068 294.095,129.68 294.779,128.517 C295.463,127.355 295.075,125.858 293.912,125.174 L238.564,92.616 C237.401,91.932 235.905,92.32 235.221,93.483 C234.537,94.645 234.925,96.142 236.088,96.826 Z" />
        </g>
        <g id="Regular-S">
            <path d="M449.925,84.477 L436.088,92.616 C435.342,93.055 434.884,93.856 434.884,94.721 L434.884,111 L434.884,127.279 C434.884,128.144 435.342,128.945 436.088,129.384 L449.925,137.523 L463.762,145.663 C464.526,146.112 465.474,146.112 466.238,145.663 L480.075,137.523 L493.913,129.384 C494.658,128.945 495.116,128.144 495.116,127.279 L495.116,111 L495.116,94.721 C495.116,93.856 494.658,93.055 493.913,92.616 L480.075,84.477 L466.238,76.337 C465.474,75.888 464.526,75.888 463.762,76.337 L449.925,84.477 Z M452.401,88.686 L466.238,80.547 L463.762,80.547 L477.599,88.686 L491.436,96.826 L490.233,94.721 L490.233,111 L490.233,127.279 L491.436,125.174 L477.599,133.314 L463.762,141.453 L466.238,141.453 L452.401,133.314 L438.564,125.174 L439.767,127.279 L439.767,111 L439.767,94.721 L438.564,96.826 L452.401,88.686 Z" />
            <path d="M491.436,92.616 L436.088,125.174 C434.925,125.858 434.537,127.355 435.221,128.517 C435.905,129.68 437.401,130.068 438.564,129.384 L493.912,96.826 C495.075,96.142 495.463,94.645 494.779,93.483 C494.095,92.32 492.599,91.932 491.436,92.616 Z" />
            <path d="M462.558,78.442 L462.558,143.558 C462.558,144.907 463.651,146 465,146 C466.349,146 467.442,144.907 467.442,143.558 L467.442,78.442 C467.442,77.093 466.349,76 465,76 C463.651,76 462.558,77.093 462.558,78.442 Z" />
            <path d="M436.088,96.826 L491.436,129.384 C492.599,130.068 494.095,129.68 494.779,128.517 C495.463,127.355 495.075,125.858 493.912,125.174 L438.564,92.616 C437.401,91.932 435.905,92.32 435.221,93.483 C434.537,94.645 434.925,96.142 436.088,96.826 Z" />
        </g>
        <g id="Black-S">
            <path d="M649.925,84.477 L636.088,92.616 C635.342,93.055 634.884,93.856 634.884,94.721 L634.884,111 L634.884,127.279 C634.884,128.144 635.342,128.945 636.088,129.384 L649.925,137.523 L663.762,145.663 C664.526,146.112 665.474,146.112 666.238,145.663 L680.075,137.523 L693.912,129.384 C694.658,128.945 695.116,128.144 695.116,127.279 L695.116,111 L695.116,94.721 C695.116,93.856 694.658,93.055 693.912,92.616 L680.075,84.477 L666.238,76.337 C665.474,75.888 664.526,75.888 663.762,76.337 L649.925,84.477 Z M652.401,88.686 L666.238,80.547 L663.762,80.547 L677.599,88.686 L691.436,96.826 L690.233,94.721 L690.233,111 L690.233,127.279 L691.436,125.174 L677.599,133.314 L663.762,141.453 L666.238,141.453 L652.401,133.314 L638.564,125.174 L639.767,127.279 L639.767,111 L639.767,94.721 L638.564,96.826 L652.401,88.686 Z" />
            <path d="M691.436,92.616 L636.088,125.174 C634.925,125.858 634.537,127.355 635.221,128.517 C635.905,129.68 637.401,130.068 638.564,129.384 L693.912,96.826 C695.075,96.142 695.463,94.645 694.779,93.483 C694.095,92.32 692.599,91.932 691.436,92.616 Z" />
            <path d="M662.558,78.442 L662.558,143.558 C662.558,144.907 663.651,146 665,146 C666.349,146 667.442,144.907 667.442,143.558 L667.442,78.442 C667.442,77.093 666.349,76 665,76 C663.651,76 662.558,77.093 662.558,78.442 Z" />
            <path d="M636.088,96.826 L691.436,129.384 C692.599,130.068 694.095,129.68 694.779,128.517 C695.463,127.355 695.075,125.858 693.912,125.174 L638.564,92.616 C637.401,91.932 635.905,92.32 635.221,93.483 C634.537,94.645 634.925,96.142 636.088,96.826 Z" />
        </g>
    </g>
</svg>