<?xml version="1.0" encoding="UTF-8"?>
<svg height="600" width="800" xmlns="http://www.w3.org/2000/svg" xmlns:xlink="http://www.w3.org/1999/xlink">
    <g id="Notes" font-family="'LucidaGrande', 'Lucida Grande', sans-serif" font-size="13">
        <rect fill="white" height="600.0" width="800.0" x="0.0" y="0.0" />
        <g font-size="13">
            <text x="18.0" y="176.0">Small</text>
            <text x="18.0" y="376.0">Medium</text>
            <text x="18.0" y="576.0">Large</text>
        </g>
        <g font-size="9">
            <text x="250.0" y="30.0">Ultralight</text>
            <text x="450.0" y="30.0">Regular</text>
            <text x="650.0" y="30.0">Black</text>
            <text id="template-version" fill="#505050" text-anchor="end" x="785.0" y="575.0">Template v.3.0</text>
            <a href="https://github.com/swhitty/SwiftDraw">
                <text fill="#505050" text-anchor="end" x="785.0" y="590.0">https://github.com/swhitty/SwiftDraw</text>
            </a>
        </g>
    </g>
    <g id="Guides" stroke="rgb(39, 170, 225)" stroke-width="0.5">
        <path id="Capline-S" d="M18,76 l800,0" />
        <path id="H-reference" d="M85,145.755 L87.685,145.755 L113.369,79.287 L114.052,79.287 L114.052,76 L112.148,76 L85,145.755 Z M95.693,121.536 L130.996,121.536 L130.263,119.313 L96.474,119.313 L95.693,121.536 Z M139.15,145.755 L141.787,145.755 L114.638,76 L113.466,76 L113.466,79.287 L139.15,145.755 Z" stroke="none" />
        <path id="Baseline-S" d="M18,146 l800,0" />
        <path id="left-margin-Ultralight-S" d="M220,56 l0,110" />
        <path id="right-margin-Ultralight-S" d="M310,56 l0,110" />
        <path id="left-margin-Regular-S" d="M420,56 l0,110" />
        <path id="right-margin-Regular-S" d="M510,56 l0,110" />
        <path id="left-margin-Black-S" d="M620,56 l0,110" />
        <path id="right-margin-Black-S" d="M710,56 l0,110" />
        <path id="Capline-M" d="M18,276 l800,0" />
        <path id="Baseline-M" d="M18,346 l800,0" />
        <path id="Capline-L" d="M18,476 l800,0" />
        <path id="Baseline-L" d="M18,546 l800,0" />
    </g>
    <g id="Symbols">
        <g id="Ultralight-S">
            <path d="M291.923,76 L238.077,76 C233.616,76 230,79.616 230,84.077 L230,137.923 C230,142.384 233.616,146 238.077,146 L291.923,146 C296.384,146 300,142.384 300,137.923 L300,84.077 C300,79.616 296.384,76 291.923,76 Z M291.923,81.385 C293.41,81.385 294.615,82.59 294.615,84.077 L294.615,137.923 C294.615,139.41 293.41,140.615 291.923,140.615 L238.077,140.615 C236.59,140.615 235.385,139.41 235.385,137.923 L235.385,84.077 C235.385,82.59 236.59,81.385 238.077,81.385 L291.923,81.385 Z" />
            <path d="M282.051,109.205 C282.051,117.631 275.221,124.462 266.795,124.462 C263.381,124.462 263.381,124.462 259.006,124.462 C251.386,124.462 251.386,124.462 248.846,124.462 L251.538,127.154 C251.538,124.724 251.538,124.724 251.538,117.433 C251.538,112.62 251.538,112.62 251.538,109.205 C251.538,100.779 258.369,93.949 266.795,93.949 C275.221,93.949 282.051,100.779 282.051,109.205 Z M287.436,109.205 C287.436,97.805 278.195,88.564 266.795,88.564 C255.395,88.564 246.154,97.805 246.154,109.205 C246.154,112.62 246.154,112.62 246.154,117.433 C246.154,124.724 246.154,124.724 246.154,127.154 C246.154,128.641 247.359,129.846 248.846,129.846 C251.386,129.846 251.386,129.846 259.006,129.846 C263.381,129.846 263.381,129.846 266.795,129.846 C278.195,129.846 287.436,120.605 287.436,109.205 Z" />
            <path d="M261.41,108.308 L272.18,108.308 C273.666,108.308 274.872,107.102 274.872,105.615 C274.872,104.128 273.666,102.923 272.18,102.923 L261.41,102.923 C259.923,102.923 258.718,104.128 258.718,105.615 C258.718,107.102 259.923,108.308 261.41,108.308 Z" />
            <path d="M261.41,119.077 L265,119.077 C266.487,119.077 267.692,117.872 267.692,116.385 C267.692,114.898 266.487,113.692 265,113.692 L261.41,113.692 C259.923,113.692 258.718,114.898 258.718,116.385 C258.718,117.872 259.923,119.077 261.41,119.077 Z" />
        </g>
        <g id="Regular-S">
            <path d="M491.923,76 L438.077,76 C433.616,76 430,79.616 430,84.077 L430,137.923 C430,142.384 433.616,146 438.077,146 L491.923,146 C496.384,146 500,142.384 500,137.923 L500,84.077 C500,79.616 496.384,76 491.923,76 Z M491.923,81.385 C493.41,81.385 494.615,82.59 494.615,84.077 L494.615,137.923 C494.615,139.41 493.41,140.615 491.923,140.615 L438.077,140.615 C436.59,140.615 435.385,139.41 435.385,137.923 L435.385,84.077 C435.385,82.59 436.59,81.385 438.077,81.385 L491.923,81.385 Z" />
            <path d="M482.051,109.205 C482.051,117.631 475.221,124.462 466.795,124.462 C463.381,124.462 463.381,124.462 459.006,124.462 C451.386,124.462 451.386,124.462 448.846,124.462 L451.538,127.154 C451.538,124.724 451.538,124.724 451.538,117.433 C451.538,112.62 451.538,112.62 451.538,109.205 C451.538,100.779 458.369,93.949 466.795,93.949 C475.221,93.949 482.051,100.779 482.051,109.205 Z M487.436,109.205 C487.436,97.805 478.195,88.564 466.795,88.564 C455.395,88.564 446.154,97.805 446.154,109.205 C446.154,112.62 446.154,112.62 446.154,117.433 C446.154,124.724 446.154,124.724 446.154,127.154 C446.154,128.641 447.359,129.846 448.846,129.846 C451.386,129.846 451.386,129.846 459.006,129.846 C463.381,129.846 463.381,129.846 466.795,129.846 C478.195,129.846 487.436,120.605 487.436,109.205 Z" />
            <path d="M461.41,108.308 L472.179,108.308 C473.666,108.308 474.872,107.102 474.872,105.615 C474.872,104.128 473.666,102.923 472.179,102.923 L461.41,102.923 C459.923,102.923 458.718,104.128 458.718,105.615 C458.718,107.102 459.923,108.308 461.41,108.308 Z" />
            <path d="M461.41,119.077 L465,119.077 C466.487,119.077 467.692,117.872 467.692,116.385 C467.692,114.898 466.487,113.692 465,113.692 L461.41,113.692 C459.923,113.692 458.718,114.898 458.718,116.385 C458.718,117.872 459.923,119.077 461.41,119.077 Z" />
        </g>
        <g id="Black-S">
            <path d="M691.923,76 L638.077,76 C633.616,76 630,79.616 630,84.077 L630,137.923 C630,142.384 633.616,146 638.077,146 L691.923,146 C696.384,146 700,142.384 700,137.923 L700,84.077 C700,79.616 696.384,76 691.923,76 Z M691.923,81.385 C693.41,81.385 694.615,82.59 694.615,84.077 L694.615,137.923 C694.615,139.41 693.41,140.615 691.923,140.615 L638.077,140.615 C636.59,140.615 635.385,139.41 635.385,137.923 L635.385,84.077 C635.385,82.59 636.59,81.385 638.077,81.385 L691.923,81.385 Z" />
            <path d="M682.051,109.205 C682.051,117.631 675.221,124.462 666.795,124.462 C663.381,124.462 663.381,124.462 659.006,124.462 C651.386,124.462 651.386,124.462 648.846,124.462 L651.538,127.154 C651.538,124.724 651.538,124.724 651.538,117.433 C651.538,112.62 651.538,112.62 651.538,109.205 C651.538,100.779 658.369,93.949 666.795,93.949 C675.221,93.949 682.051,100.779 682.051,109.205 Z M687.436,109.205 C687.436,97.805 678.195,88.564 666.795,88.564 C655.395,88.564 646.154,97.805 646.154,109.205 C646.154,112.62 646.154,112.62 646.154,117.433 C646.154,124.724 646.154,124.724 646.154,127.154 C646.154,128.641 647.359,129.846 648.846,129.846 C651.386,129.846 651.386,129.846 659.006,129.846 C663.381,129.846 663.381,129.846 666.795,129.846 C678.195,129.846 687.436,120.605 687.436,109.205 Z" />
            <path d="M661.41,108.308 L672.18,108.308 C673.666,108.308 674.872,107.102 674.872,105.615 C674.872,104.128 673.666,102.923 672.18,102.923 L661.41,102.923 C659.923,102.923 658.718,104.128 658.718,105.615 C658.718,107.102 659.923,108.308 661.41,108.308 Z" />
            <path d="M661.41,119.077 L665,119.077 C666.487,119.077 667.692,117.872 667.692,116.385 C667.692,114.898 666.487,113.692 665,113.692 L661.41,113.692 C659.923,113.692 658.718,114.898 658.718,116.385 C658.718,117.872 659.923,119.077 661.41,119.077 Z" />
        </g>
    </g>
</svg>