<?xml version="1.0" encoding="UTF-8"?>
<svg height="600" width="800" xmlns="http://www.w3.org/2000/svg" xmlns:xlink="http://www.w3.org/1999/xlink">
    <g id="Notes" font-family="'LucidaGrande', 'Lucida Grande', sans-serif" font-size="13">
        <rect fill="white" height="600.0" width="800.0" x="0.0" y="0.0" />
        <g font-size="13">
            <text x="18.0" y="176.0">Small</text>
            <text x="18.0" y="376.0">Medium</text>
            <text x="18.0" y="576.0">Large</text>
        </g>
        <g font-size="9">
            <text x="250.0" y="30.0">Ultralight</text>
            <text x="450.0" y="30.0">Regular</text>
            <text x="650.0" y="30.0">Black</text>
            <text id="template-version" fill="#505050" text-anchor="end" x="785.0" y="575.0">Template v.3.0</text>
            <a href="https://github.com/swhitty/SwiftDraw">
                <text fill="#505050" text-anchor="end" x="785.0" y="590.0">https://github.com/swhitty/SwiftDraw</text>
            </a>
        </g>
    </g>
    <g id="Guides" stroke="rgb(39, 170, 225)" stroke-width="0.5">
        <path id="Capline-S" d="M18,76 l800,0" />
        <path id="H-reference" d="M85,145.755 L87.685,145.755 L113.369,79.287 L114.052,79.287 L114.052,76 L112.148,76 L85,145.755 Z M95.693,121.536 L130.996,121.536 L130.263,119.313 L96.474,119.313 L95.693,121.536 Z M139.15,145.755 L141.787,145.755 L114.638,76 L113.466,76 L113.466,79.287 L139.15,145.755 Z" stroke="none" />
        <path id="Baseline-S" d="M18,146 l800,0" />
        <path id="left-margin-Ultralight-S" d="M220,56 l0,110" />
        <path id="right-margin-Ultralight-S" d="M310,56 l0,110" />
        <path id="left-margin-Regular-S" d="M420,56 l0,110" />
        <path id="right-margin-Regular-S" d="M510,56 l0,110" />
        <path id="left-margin-Black-S" d="M620,56 l0,110" />
        <path id="right-margin-Black-S" d="M710,56 l0,110" />
        <path id="Capline-M" d="M18,276 l800,0" />
        <path id="Baseline-M" d="M18,346 l800,0" />
        <path id="Capline-L" d="M18,476 l800,0" />
        <path id="Baseline-L" d="M18,546 l800,0" />
    </g>
    <g id="Symbols">
        <g id="Ultralight-S">
            <path d="M234.884,111 L234.884,78.442 L232.442,80.884 L297.558,80.884 L295.116,78.442 L295.116,111 C295.116,112.349 296.21,113.442 297.558,113.442 C298.907,113.442 300,112.349 300,111 L300,78.442 C300,77.093 298.907,76 297.558,76 L232.442,76 C231.093,76 230,77.093 230,78.442 L230,111 C230,112.349 231.093,113.442 232.442,113.442 C233.79,113.442 234.884,112.349 234.884,111 Z" />
            <path d="M242.209,146 C248.952,146 254.419,140.534 254.419,133.791 C254.419,127.048 248.952,121.581 242.209,121.581 C235.466,121.581 230,127.048 230,133.791 C230,140.534 235.466,146 242.209,146 Z M242.209,141.116 C238.163,141.116 234.884,137.837 234.884,133.791 C234.884,129.745 238.163,126.465 242.209,126.465 C246.255,126.465 249.535,129.745 249.535,133.791 C249.535,137.836 246.255,141.116 242.209,141.116 Z" />
            <path d="M282.566,90.02 C267.398,110.686 248.127,138.233 247.389,138.971 C244.528,141.831 239.89,141.831 237.029,138.971 C236.076,138.017 234.53,138.017 233.576,138.971 C232.622,139.924 232.622,141.47 233.576,142.424 C238.344,147.192 246.075,147.192 250.843,142.424 C251.935,141.332 271.697,113.083 286.503,92.91 C287.301,91.823 287.067,90.295 285.98,89.497 C284.893,88.699 283.364,88.933 282.566,90.02 Z" />
            <path d="M287.791,146 C294.534,146 300,140.534 300,133.791 C300,127.048 294.534,121.581 287.791,121.581 C281.048,121.581 275.581,127.048 275.581,133.791 C275.581,140.534 281.048,146 287.791,146 Z M287.791,141.116 C283.745,141.116 280.465,137.836 280.465,133.791 C280.465,129.745 283.745,126.465 287.791,126.465 C291.836,126.465 295.116,129.745 295.116,133.791 C295.116,137.836 291.836,141.116 287.791,141.116 Z" />
            <path d="M292.971,138.971 C290.11,141.831 285.472,141.831 282.611,138.971 C281.873,138.233 262.602,110.686 247.434,90.02 C246.636,88.933 245.107,88.699 244.02,89.497 C242.933,90.295 242.699,91.823 243.497,92.91 C258.303,113.083 278.065,141.332 279.157,142.424 C283.925,147.192 291.656,147.192 296.424,142.424 C297.378,141.47 297.378,139.924 296.424,138.971 C295.47,138.017 293.924,138.017 292.971,138.971 Z" />
        </g>
        <g id="Regular-S">
            <path d="M434.884,111 L434.884,78.442 L432.442,80.884 L497.558,80.884 L495.116,78.442 L495.116,111 C495.116,112.349 496.21,113.442 497.558,113.442 C498.907,113.442 500,112.349 500,111 L500,78.442 C500,77.093 498.907,76 497.558,76 L432.442,76 C431.093,76 430,77.093 430,78.442 L430,111 C430,112.349 431.093,113.442 432.442,113.442 C433.79,113.442 434.884,112.349 434.884,111 Z" />
            <path d="M442.209,146 C448.952,146 454.419,140.534 454.419,133.791 C454.419,127.048 448.952,121.581 442.209,121.581 C435.466,121.581 430,127.048 430,133.791 C430,140.534 435.466,146 442.209,146 Z M442.209,141.116 C438.164,141.116 434.884,137.837 434.884,133.791 C434.884,129.745 438.164,126.465 442.209,126.465 C446.255,126.465 449.535,129.745 449.535,133.791 C449.535,137.836 446.255,141.116 442.209,141.116 Z" />
            <path d="M482.566,90.02 C467.398,110.686 448.127,138.233 447.389,138.971 C444.528,141.831 439.89,141.831 437.029,138.971 C436.076,138.017 434.53,138.017 433.576,138.971 C432.622,139.924 432.622,141.47 433.576,142.424 C438.344,147.192 446.075,147.192 450.843,142.424 C451.935,141.332 471.697,113.083 486.503,92.91 C487.301,91.823 487.067,90.295 485.98,89.497 C484.893,88.699 483.364,88.933 482.566,90.02 Z" />
            <path d="M487.791,146 C494.534,146 500,140.534 500,133.791 C500,127.048 494.534,121.581 487.791,121.581 C481.048,121.581 475.581,127.048 475.581,133.791 C475.581,140.534 481.048,146 487.791,146 Z M487.791,141.116 C483.745,141.116 480.465,137.836 480.465,133.791 C480.465,129.745 483.745,126.465 487.791,126.465 C491.836,126.465 495.116,129.745 495.116,133.791 C495.116,137.836 491.836,141.116 487.791,141.116 Z" />
            <path d="M492.971,138.971 C490.11,141.831 485.472,141.831 482.611,138.971 C481.873,138.233 462.602,110.686 447.434,90.02 C446.636,88.933 445.107,88.699 444.02,89.497 C442.933,90.295 442.699,91.823 443.497,92.91 C458.303,113.083 478.065,141.332 479.157,142.424 C483.925,147.192 491.656,147.192 496.424,142.424 C497.378,141.47 497.378,139.924 496.424,138.971 C495.47,138.017 493.924,138.017 492.971,138.971 Z" />
        </g>
        <g id="Black-S">
            <path d="M634.884,111 L634.884,78.442 L632.442,80.884 L697.558,80.884 L695.116,78.442 L695.116,111 C695.116,112.349 696.21,113.442 697.558,113.442 C698.907,113.442 700,112.349 700,111 L700,78.442 C700,77.093 698.907,76 697.558,76 L632.442,76 C631.093,76 630,77.093 630,78.442 L630,111 C630,112.349 631.093,113.442 632.442,113.442 C633.79,113.442 634.884,112.349 634.884,111 Z" />
            <path d="M642.209,146 C648.952,146 654.419,140.534 654.419,133.791 C654.419,127.048 648.952,121.581 642.209,121.581 C635.466,121.581 630,127.048 630,133.791 C630,140.534 635.466,146 642.209,146 Z M642.209,141.116 C638.164,141.116 634.884,137.837 634.884,133.791 C634.884,129.745 638.164,126.465 642.209,126.465 C646.255,126.465 649.535,129.745 649.535,133.791 C649.535,137.836 646.255,141.116 642.209,141.116 Z" />
            <path d="M682.566,90.02 C667.398,110.686 648.127,138.233 647.389,138.971 C644.528,141.831 639.89,141.831 637.029,138.971 C636.076,138.017 634.53,138.017 633.576,138.971 C632.622,139.924 632.622,141.47 633.576,142.424 C638.344,147.192 646.075,147.192 650.843,142.424 C651.935,141.332 671.697,113.083 686.503,92.91 C687.301,91.823 687.067,90.295 685.98,89.497 C684.893,88.699 683.364,88.933 682.566,90.02 Z" />
            <path d="M687.791,146 C694.534,146 700,140.534 700,133.791 C700,127.048 694.534,121.581 687.791,121.581 C681.048,121.581 675.581,127.048 675.581,133.791 C675.581,140.534 681.048,146 687.791,146 Z M687.791,141.116 C683.745,141.116 680.465,137.836 680.465,133.791 C680.465,129.745 683.745,126.465 687.791,126.465 C691.836,126.465 695.116,129.745 695.116,133.791 C695.116,137.836 691.836,141.116 687.791,141.116 Z" />
            <path d="M692.971,138.971 C690.11,141.831 685.472,141.831 682.611,138.971 C681.873,138.233 662.602,110.686 647.434,90.02 C646.636,88.933 645.107,88.699 644.02,89.497 C642.933,90.295 642.699,91.823 643.497,92.91 C658.303,113.083 678.065,141.332 679.157,142.424 C683.925,147.192 691.656,147.192 696.424,142.424 C697.378,141.47 697.378,139.924 696.424,138.971 C695.47,138.017 693.924,138.017 692.971,138.971 Z" />
        </g>
    </g>
</svg>