<?xml version="1.0" encoding="UTF-8"?>
<svg height="600" width="800" xmlns="http://www.w3.org/2000/svg" xmlns:xlink="http://www.w3.org/1999/xlink">
    <g id="Notes" font-family="'LucidaGrande', 'Lucida Grande', sans-serif" font-size="13">
        <rect fill="white" height="600.0" width="800.0" x="0.0" y="0.0" />
        <g font-size="13">
            <text x="18.0" y="176.0">Small</text>
            <text x="18.0" y="376.0">Medium</text>
            <text x="18.0" y="576.0">Large</text>
        </g>
        <g font-size="9">
            <text x="250.0" y="30.0">Ultralight</text>
            <text x="450.0" y="30.0">Regular</text>
            <text x="650.0" y="30.0">Black</text>
            <text id="template-version" fill="#505050" text-anchor="end" x="785.0" y="575.0">Template v.3.0</text>
            <a href="https://github.com/swhitty/SwiftDraw">
                <text fill="#505050" text-anchor="end" x="785.0" y="590.0">https://github.com/swhitty/SwiftDraw</text>
            </a>
        </g>
    </g>
    <g id="Guides" stroke="rgb(39, 170, 225)" stroke-width="0.5">
        <path id="Capline-S" d="M18,76 l800,0" />
        <path id="H-reference" d="M85,145.755 L87.685,145.755 L113.369,79.287 L114.052,79.287 L114.052,76 L112.148,76 L85,145.755 Z M95.693,121.536 L130.996,121.536 L130.263,119.313 L96.474,119.313 L95.693,121.536 Z M139.15,145.755 L141.787,145.755 L114.638,76 L113.466,76 L113.466,79.287 L139.15,145.755 Z" stroke="none" />
        <path id="Baseline-S" d="M18,146 l800,0" />
        <path id="left-margin-Ultralight-S" d="M220,56 l0,110" />
        <path id="right-margin-Ultralight-S" d="M310,56 l0,110" />
        <path id="left-margin-Regular-S" d="M420,56 l0,110" />
        <path id="right-margin-Regular-S" d="M510,56 l0,110" />
        <path id="left-margin-Black-S" d="M620,56 l0,110" />
        <path id="right-margin-Black-S" d="M710,56 l0,110" />
        <path id="Capline-M" d="M18,276 l800,0" />
        <path id="Baseline-M" d="M18,346 l800,0" />
        <path id="Capline-L" d="M18,476 l800,0" />
        <path id="Baseline-L" d="M18,546 l800,0" />
    </g>
    <g id="Symbols">
        <g id="Ultralight-S">
            <path d="M230,78.692 L230,143.308 C230,144.795 231.205,146 232.692,146 L297.308,146 C298.795,146 300,144.795 300,143.308 C300,141.821 298.795,140.615 297.308,140.615 L232.692,140.615 L235.385,143.308 L235.385,78.692 C235.385,77.205 234.179,76 232.692,76 C231.205,76 230,77.205 230,78.692 Z" />
            <path d="M244.359,121.769 L244.359,128.949 C244.359,130.436 245.564,131.641 247.051,131.641 C248.538,131.641 249.744,130.436 249.744,128.949 L249.744,121.769 C249.744,120.282 248.538,119.077 247.051,119.077 C245.564,119.077 244.359,120.282 244.359,121.769 Z" />
            <path d="M258.718,107.41 L258.718,128.949 C258.718,130.436 259.923,131.641 261.41,131.641 C262.897,131.641 264.103,130.436 264.103,128.949 L264.103,107.41 C264.103,105.923 262.897,104.718 261.41,104.718 C259.923,104.718 258.718,105.923 258.718,107.41 Z" />
            <path d="M273.077,78.692 L273.077,128.949 C273.077,130.436 274.282,131.641 275.769,131.641 C277.256,131.641 278.462,130.436 278.462,128.949 L278.462,78.692 C278.462,77.205 277.256,76 275.769,76 C274.282,76 273.077,77.205 273.077,78.692 Z" />
            <path d="M287.436,93.051 L287.436,128.949 C287.436,130.436 288.641,131.641 290.128,131.641 C291.615,131.641 292.821,130.436 292.821,128.949 L292.821,93.051 C292.821,91.564 291.615,90.359 290.128,90.359 C288.641,90.359 287.436,91.564 287.436,93.051 Z" />
        </g>
        <g id="Regular-S">
            <path d="M430,78.692 L430,143.308 C430,144.795 431.205,146 432.692,146 L497.308,146 C498.795,146 500,144.795 500,143.308 C500,141.821 498.795,140.615 497.308,140.615 L432.692,140.615 L435.385,143.308 L435.385,78.692 C435.385,77.205 434.179,76 432.692,76 C431.205,76 430,77.205 430,78.692 Z" />
            <path d="M444.359,121.769 L444.359,128.949 C444.359,130.436 445.564,131.641 447.051,131.641 C448.538,131.641 449.744,130.436 449.744,128.949 L449.744,121.769 C449.744,120.282 448.538,119.077 447.051,119.077 C445.564,119.077 444.359,120.282 444.359,121.769 Z" />
            <path d="M458.718,107.41 L458.718,128.949 C458.718,130.436 459.923,131.641 461.41,131.641 C462.897,131.641 464.103,130.436 464.103,128.949 L464.103,107.41 C464.103,105.923 462.897,104.718 461.41,104.718 C459.923,104.718 458.718,105.923 458.718,107.41 Z" />
            <path d="M473.077,78.692 L473.077,128.949 C473.077,130.436 474.282,131.641 475.769,131.641 C477.256,131.641 478.462,130.436 478.462,128.949 L478.462,78.692 C478.462,77.205 477.256,76 475.769,76 C474.282,76 473.077,77.205 473.077,78.692 Z" />
            <path d="M487.436,93.051 L487.436,128.949 C487.436,130.436 488.641,131.641 490.128,131.641 C491.615,131.641 492.82,130.436 492.82,128.949 L492.82,93.051 C492.82,91.564 491.615,90.359 490.128,90.359 C488.641,90.359 487.436,91.564 487.436,93.051 Z" />
        </g>
        <g id="Black-S">
            <path d="M630,78.692 L630,143.308 C630,144.795 631.205,146 632.692,146 L697.308,146 C698.795,146 700,144.795 700,143.308 C700,141.821 698.795,140.615 697.308,140.615 L632.692,140.615 L635.385,143.308 L635.385,78.692 C635.385,77.205 634.179,76 632.692,76 C631.205,76 630,77.205 630,78.692 Z" />
            <path d="M644.359,121.769 L644.359,128.949 C644.359,130.436 645.564,131.641 647.051,131.641 C648.538,131.641 649.744,130.436 649.744,128.949 L649.744,121.769 C649.744,120.282 648.538,119.077 647.051,119.077 C645.564,119.077 644.359,120.282 644.359,121.769 Z" />
            <path d="M658.718,107.41 L658.718,128.949 C658.718,130.436 659.923,131.641 661.41,131.641 C662.897,131.641 664.103,130.436 664.103,128.949 L664.103,107.41 C664.103,105.923 662.897,104.718 661.41,104.718 C659.923,104.718 658.718,105.923 658.718,107.41 Z" />
            <path d="M673.077,78.692 L673.077,128.949 C673.077,130.436 674.282,131.641 675.769,131.641 C677.256,131.641 678.462,130.436 678.462,128.949 L678.462,78.692 C678.462,77.205 677.256,76 675.769,76 C674.282,76 673.077,77.205 673.077,78.692 Z" />
            <path d="M687.436,93.051 L687.436,128.949 C687.436,130.436 688.641,131.641 690.128,131.641 C691.615,131.641 692.821,130.436 692.821,128.949 L692.821,93.051 C692.821,91.564 691.615,90.359 690.128,90.359 C688.641,90.359 687.436,91.564 687.436,93.051 Z" />
        </g>
    </g>
</svg>