<?xml version="1.0" encoding="UTF-8"?>
<svg height="600" width="800" xmlns="http://www.w3.org/2000/svg" xmlns:xlink="http://www.w3.org/1999/xlink">
    <g id="Notes" font-family="'LucidaGrande', 'Lucida Grande', sans-serif" font-size="13">
        <rect fill="white" height="600.0" width="800.0" x="0.0" y="0.0" />
        <g font-size="13">
            <text x="18.0" y="176.0">Small</text>
            <text x="18.0" y="376.0">Medium</text>
            <text x="18.0" y="576.0">Large</text>
        </g>
        <g font-size="9">
            <text x="250.0" y="30.0">Ultralight</text>
            <text x="450.0" y="30.0">Regular</text>
            <text x="650.0" y="30.0">Black</text>
            <text id="template-version" fill="#505050" text-anchor="end" x="785.0" y="575.0">Template v.3.0</text>
            <a href="https://github.com/swhitty/SwiftDraw">
                <text fill="#505050" text-anchor="end" x="785.0" y="590.0">https://github.com/swhitty/SwiftDraw</text>
            </a>
        </g>
    </g>
    <g id="Guides" stroke="rgb(39, 170, 225)" stroke-width="0.5">
        <path id="Capline-S" d="M18,76 l800,0" />
        <path id="H-reference" d="M85,145.755 L87.685,145.755 L113.369,79.287 L114.052,79.287 L114.052,76 L112.148,76 L85,145.755 Z M95.693,121.536 L130.996,121.536 L130.263,119.313 L96.474,119.313 L95.693,121.536 Z M139.15,145.755 L141.787,145.755 L114.638,76 L113.466,76 L113.466,79.287 L139.15,145.755 Z" stroke="none" />
        <path id="Baseline-S" d="M18,146 l800,0" />
        <path id="left-margin-Ultralight-S" d="M213.192,56 l0,110" />
        <path id="right-margin-Ultralight-S" d="M316.808,56 l0,110" />
        <path id="left-margin-Regular-S" d="M413.192,56 l0,110" />
        <path id="right-margin-Regular-S" d="M516.808,56 l0,110" />
        <path id="left-margin-Black-S" d="M613.192,56 l0,110" />
        <path id="right-margin-Black-S" d="M716.808,56 l0,110" />
        <path id="Capline-M" d="M18,276 l800,0" />
        <path id="Baseline-M" d="M18,346 l800,0" />
        <path id="Capline-L" d="M18,476 l800,0" />
        <path id="Baseline-L" d="M18,546 l800,0" />
    </g>
    <g id="Symbols">
        <g id="Ultralight-S">
            <path d="M293.194,78.917 L293.194,117.806 L296.111,114.889 L233.889,114.889 L236.806,117.806 L236.806,78.917 L233.889,81.833 L296.111,81.833 L293.194,78.917 Z M299.028,78.917 C299.028,77.306 297.722,76 296.111,76 L233.889,76 C232.278,76 230.972,77.306 230.972,78.917 L230.972,117.806 C230.972,119.416 232.278,120.722 233.889,120.722 L296.111,120.722 C297.722,120.722 299.028,119.416 299.028,117.806 L299.028,78.917 Z" />
            <path d="M231.101,116.948 L223.323,142.226 C222.746,144.101 224.149,146 226.111,146 L303.889,146 C305.851,146 307.254,144.101 306.677,142.226 L298.899,116.948 C298.425,115.408 296.793,114.544 295.253,115.018 C293.714,115.492 292.85,117.124 293.323,118.663 L301.101,143.941 L303.889,140.167 L226.111,140.167 L228.899,143.941 L236.677,118.663 C237.15,117.124 236.286,115.492 234.747,115.018 C233.207,114.544 231.575,115.408 231.101,116.948 Z" />
            <path d="M257.028,134.333 L272.972,134.333 L270.192,132.297 L273.886,143.964 L276.667,140.167 L253.333,140.167 L256.114,143.964 L259.808,132.297 L257.028,134.333 Z M257.028,128.5 C255.756,128.5 254.631,129.324 254.247,130.536 L250.553,142.203 C249.957,144.083 251.361,146 253.333,146 L276.667,146 C278.639,146 280.043,144.083 279.447,142.203 L275.753,130.536 C275.369,129.324 274.244,128.5 272.972,128.5 L257.028,128.5 Z" />
        </g>
        <g id="Regular-S">
            <path d="M493.194,78.917 L493.194,117.806 L496.111,114.889 L433.889,114.889 L436.806,117.806 L436.806,78.917 L433.889,81.833 L496.111,81.833 L493.194,78.917 Z M499.028,78.917 C499.028,77.306 497.722,76 496.111,76 L433.889,76 C432.278,76 430.972,77.306 430.972,78.917 L430.972,117.806 C430.972,119.416 432.278,120.722 433.889,120.722 L496.111,120.722 C497.722,120.722 499.028,119.416 499.028,117.806 L499.028,78.917 Z" />
            <path d="M431.101,116.948 L423.323,142.226 C422.746,144.101 424.149,146 426.111,146 L503.889,146 C505.851,146 507.254,144.101 506.677,142.226 L498.899,116.948 C498.425,115.408 496.793,114.544 495.253,115.018 C493.714,115.492 492.85,117.124 493.323,118.663 L501.101,143.941 L503.889,140.167 L426.111,140.167 L428.899,143.941 L436.677,118.663 C437.15,117.124 436.286,115.492 434.747,115.018 C433.207,114.544 431.575,115.408 431.101,116.948 Z" />
            <path d="M457.028,134.333 L472.972,134.333 L470.192,132.297 L473.886,143.964 L476.667,140.167 L453.333,140.167 L456.114,143.964 L459.808,132.297 L457.028,134.333 Z M457.028,128.5 C455.756,128.5 454.631,129.324 454.247,130.536 L450.553,142.203 C449.957,144.083 451.361,146 453.333,146 L476.667,146 C478.639,146 480.043,144.083 479.447,142.203 L475.753,130.536 C475.369,129.324 474.244,128.5 472.972,128.5 L457.028,128.5 Z" />
        </g>
        <g id="Black-S">
            <path d="M693.194,78.917 L693.194,117.806 L696.111,114.889 L633.889,114.889 L636.806,117.806 L636.806,78.917 L633.889,81.833 L696.111,81.833 L693.194,78.917 Z M699.028,78.917 C699.028,77.306 697.722,76 696.111,76 L633.889,76 C632.278,76 630.972,77.306 630.972,78.917 L630.972,117.806 C630.972,119.416 632.278,120.722 633.889,120.722 L696.111,120.722 C697.722,120.722 699.028,119.416 699.028,117.806 L699.028,78.917 Z" />
            <path d="M631.101,116.948 L623.323,142.226 C622.746,144.101 624.149,146 626.111,146 L703.889,146 C705.851,146 707.254,144.101 706.677,142.226 L698.899,116.948 C698.425,115.408 696.793,114.544 695.253,115.018 C693.714,115.492 692.85,117.124 693.323,118.663 L701.101,143.941 L703.889,140.167 L626.111,140.167 L628.899,143.941 L636.677,118.663 C637.15,117.124 636.286,115.492 634.747,115.018 C633.207,114.544 631.575,115.408 631.101,116.948 Z" />
            <path d="M657.028,134.333 L672.972,134.333 L670.192,132.297 L673.886,143.964 L676.667,140.167 L653.333,140.167 L656.114,143.964 L659.808,132.297 L657.028,134.333 Z M657.028,128.5 C655.756,128.5 654.631,129.324 654.247,130.536 L650.553,142.203 C649.957,144.083 651.361,146 653.333,146 L676.667,146 C678.639,146 680.043,144.083 679.447,142.203 L675.753,130.536 C675.369,129.324 674.244,128.5 672.972,128.5 L657.028,128.5 Z" />
        </g>
    </g>
</svg>