<?xml version="1.0" encoding="UTF-8"?>
<svg height="600" width="800" xmlns="http://www.w3.org/2000/svg" xmlns:xlink="http://www.w3.org/1999/xlink">
    <g id="Notes" font-family="'LucidaGrande', 'Lucida Grande', sans-serif" font-size="13">
        <rect fill="white" height="600.0" width="800.0" x="0.0" y="0.0" />
        <g font-size="13">
            <text x="18.0" y="176.0">Small</text>
            <text x="18.0" y="376.0">Medium</text>
            <text x="18.0" y="576.0">Large</text>
        </g>
        <g font-size="9">
            <text x="250.0" y="30.0">Ultralight</text>
            <text x="450.0" y="30.0">Regular</text>
            <text x="650.0" y="30.0">Black</text>
            <text id="template-version" fill="#505050" text-anchor="end" x="785.0" y="575.0">Template v.3.0</text>
            <a href="https://github.com/swhitty/SwiftDraw">
                <text fill="#505050" text-anchor="end" x="785.0" y="590.0">https://github.com/swhitty/SwiftDraw</text>
            </a>
        </g>
    </g>
    <g id="Guides" stroke="rgb(39, 170, 225)" stroke-width="0.5">
        <path id="Capline-S" d="M18,76 l800,0" />
        <path id="H-reference" d="M85,145.755 L87.685,145.755 L113.369,79.287 L114.052,79.287 L114.052,76 L112.148,76 L85,145.755 Z M95.693,121.536 L130.996,121.536 L130.263,119.313 L96.474,119.313 L95.693,121.536 Z M139.15,145.755 L141.787,145.755 L114.638,76 L113.466,76 L113.466,79.287 L139.15,145.755 Z" stroke="none" />
        <path id="Baseline-S" d="M18,146 l800,0" />
        <path id="left-margin-Ultralight-S" d="M214.68,56 l0,110" />
        <path id="right-margin-Ultralight-S" d="M315.32,56 l0,110" />
        <path id="left-margin-Regular-S" d="M414.68,56 l0,110" />
        <path id="right-margin-Regular-S" d="M515.32,56 l0,110" />
        <path id="left-margin-Black-S" d="M614.68,56 l0,110" />
        <path id="right-margin-Black-S" d="M715.32,56 l0,110" />
        <path id="Capline-M" d="M18,276 l800,0" />
        <path id="Baseline-M" d="M18,346 l800,0" />
        <path id="Capline-L" d="M18,476 l800,0" />
        <path id="Baseline-L" d="M18,546 l800,0" />
    </g>
    <g id="Symbols">
        <g id="Ultralight-S">
            <path d="M278.111,132.806 C273.181,136.424 268.112,139.188 264.113,140.517 L265.887,140.517 C249.46,135.058 230.306,115.715 230.306,99.442 C230.306,89.603 238.282,81.626 248.122,81.626 C253.994,81.626 259.381,84.484 262.7,89.198 C263.821,90.789 266.179,90.789 267.3,89.198 C270.619,84.484 276.006,81.626 281.878,81.626 C291.718,81.626 299.694,89.603 299.694,99.442 C299.694,102.299 299.17,105.21 298.148,108.154 C297.639,109.621 298.416,111.224 299.884,111.733 C301.351,112.243 302.954,111.466 303.464,109.998 C304.685,106.48 305.32,102.95 305.32,99.442 C305.32,86.495 294.825,76 281.878,76 C274.156,76 267.062,79.764 262.7,85.958 L267.3,85.958 C262.938,79.764 255.844,76 248.122,76 C235.175,76 224.68,86.495 224.68,99.442 C224.68,118.559 245.626,139.713 264.113,145.856 C264.689,146.048 265.311,146.048 265.887,145.856 C270.488,144.327 276.065,141.286 281.439,137.342 C282.692,136.422 282.962,134.662 282.043,133.409 C281.124,132.157 279.363,131.887 278.111,132.806 Z" />
            <path d="M270.626,122.884 L278.128,122.884 C279.013,122.884 279.847,122.467 280.378,121.759 L286.004,114.257 L281.12,113.557 L286.746,128.56 C287.529,130.648 290.313,131.038 291.64,129.247 L297.196,121.745 L294.935,122.884 L302.507,122.884 C304.061,122.884 305.32,121.625 305.32,120.071 C305.32,118.517 304.061,117.258 302.507,117.258 L294.935,117.258 C294.044,117.258 293.205,117.68 292.675,118.397 L287.119,125.898 L292.014,126.585 L286.388,111.582 C285.607,109.501 282.836,109.104 281.503,110.882 L275.877,118.383 L278.128,117.258 L270.626,117.258 C269.072,117.258 267.813,118.517 267.813,120.071 C267.813,121.625 269.072,122.884 270.626,122.884 Z" />
        </g>
        <g id="Regular-S">
            <path d="M478.111,132.806 C473.181,136.424 468.112,139.188 464.113,140.517 L465.887,140.517 C449.46,135.058 430.306,115.715 430.306,99.442 C430.306,89.603 438.282,81.626 448.122,81.626 C453.994,81.626 459.381,84.484 462.7,89.198 C463.821,90.789 466.179,90.789 467.3,89.198 C470.619,84.484 476.006,81.626 481.878,81.626 C491.718,81.626 499.694,89.603 499.694,99.442 C499.694,102.299 499.17,105.21 498.148,108.154 C497.639,109.621 498.416,111.224 499.884,111.733 C501.351,112.243 502.954,111.466 503.464,109.998 C504.685,106.48 505.32,102.95 505.32,99.442 C505.32,86.495 494.825,76 481.878,76 C474.156,76 467.062,79.764 462.7,85.958 L467.3,85.958 C462.938,79.764 455.844,76 448.122,76 C435.175,76 424.68,86.495 424.68,99.442 C424.68,118.559 445.626,139.713 464.113,145.856 C464.689,146.048 465.311,146.048 465.887,145.856 C470.488,144.327 476.065,141.286 481.439,137.342 C482.692,136.422 482.962,134.662 482.043,133.409 C481.124,132.157 479.363,131.887 478.111,132.806 Z" />
            <path d="M470.626,122.884 L478.128,122.884 C479.013,122.884 479.847,122.467 480.378,121.759 L486.004,114.257 L481.12,113.557 L486.746,128.56 C487.529,130.648 490.313,131.038 491.64,129.247 L497.196,121.745 L494.935,122.884 L502.507,122.884 C504.061,122.884 505.32,121.625 505.32,120.071 C505.32,118.517 504.061,117.258 502.507,117.258 L494.935,117.258 C494.044,117.258 493.205,117.68 492.675,118.397 L487.119,125.898 L492.014,126.585 L486.388,111.582 C485.607,109.501 482.836,109.104 481.503,110.882 L475.877,118.383 L478.128,117.258 L470.626,117.258 C469.072,117.258 467.813,118.517 467.813,120.071 C467.813,121.625 469.072,122.884 470.626,122.884 Z" />
        </g>
        <g id="Black-S">
            <path d="M678.111,132.806 C673.181,136.424 668.112,139.188 664.113,140.517 L665.887,140.517 C649.46,135.058 630.306,115.715 630.306,99.442 C630.306,89.603 638.282,81.626 648.122,81.626 C653.994,81.626 659.381,84.484 662.7,89.198 C663.82,90.789 666.179,90.789 667.3,89.198 C670.619,84.484 676.006,81.626 681.878,81.626 C691.718,81.626 699.694,89.603 699.694,99.442 C699.694,102.299 699.17,105.21 698.148,108.154 C697.639,109.621 698.416,111.224 699.884,111.733 C701.351,112.243 702.954,111.466 703.464,109.998 C704.685,106.48 705.32,102.95 705.32,99.442 C705.32,86.495 694.825,76 681.878,76 C674.156,76 667.062,79.764 662.7,85.958 L667.3,85.958 C662.938,79.764 655.844,76 648.122,76 C635.175,76 624.68,86.495 624.68,99.442 C624.68,118.559 645.626,139.713 664.113,145.856 C664.689,146.048 665.311,146.048 665.887,145.856 C670.488,144.327 676.065,141.286 681.439,137.342 C682.692,136.422 682.962,134.662 682.043,133.409 C681.124,132.157 679.363,131.887 678.111,132.806 Z" />
            <path d="M670.626,122.884 L678.128,122.884 C679.013,122.884 679.847,122.467 680.378,121.759 L686.004,114.257 L681.12,113.557 L686.746,128.56 C687.529,130.648 690.313,131.038 691.64,129.247 L697.196,121.745 L694.935,122.884 L702.507,122.884 C704.061,122.884 705.32,121.625 705.32,120.071 C705.32,118.517 704.061,117.258 702.507,117.258 L694.935,117.258 C694.044,117.258 693.205,117.68 692.675,118.397 L687.119,125.898 L692.014,126.585 L686.388,111.582 C685.607,109.501 682.836,109.104 681.503,110.882 L675.877,118.383 L678.128,117.258 L670.626,117.258 C669.072,117.258 667.813,118.517 667.813,120.071 C667.813,121.625 669.072,122.884 670.626,122.884 Z" />
        </g>
    </g>
</svg>