<?xml version="1.0" encoding="UTF-8"?>
<svg height="600" width="800" xmlns="http://www.w3.org/2000/svg" xmlns:xlink="http://www.w3.org/1999/xlink">
    <g id="Notes" font-family="'LucidaGrande', 'Lucida Grande', sans-serif" font-size="13">
        <rect fill="white" height="600.0" width="800.0" x="0.0" y="0.0" />
        <g font-size="13">
            <text x="18.0" y="176.0">Small</text>
            <text x="18.0" y="376.0">Medium</text>
            <text x="18.0" y="576.0">Large</text>
        </g>
        <g font-size="9">
            <text x="250.0" y="30.0">Ultralight</text>
            <text x="450.0" y="30.0">Regular</text>
            <text x="650.0" y="30.0">Black</text>
            <text id="template-version" fill="#505050" text-anchor="end" x="785.0" y="575.0">Template v.3.0</text>
            <a href="https://github.com/swhitty/SwiftDraw">
                <text fill="#505050" text-anchor="end" x="785.0" y="590.0">https://github.com/swhitty/SwiftDraw</text>
            </a>
        </g>
    </g>
    <g id="Guides" stroke="rgb(39, 170, 225)" stroke-width="0.5">
        <path id="Capline-S" d="M18,76 l800,0" />
        <path id="H-reference" d="M85,145.755 L87.685,145.755 L113.369,79.287 L114.052,79.287 L114.052,76 L112.148,76 L85,145.755 Z M95.693,121.536 L130.996,121.536 L130.263,119.313 L96.474,119.313 L95.693,121.536 Z M139.15,145.755 L141.787,145.755 L114.638,76 L113.466,76 L113.466,79.287 L139.15,145.755 Z" stroke="none" />
        <path id="Baseline-S" d="M18,146 l800,0" />
        <path id="left-margin-Ultralight-S" d="M216.191,56 l0,110" />
        <path id="right-margin-Ultralight-S" d="M313.809,56 l0,110" />
        <path id="left-margin-Regular-S" d="M416.191,56 l0,110" />
        <path id="right-margin-Regular-S" d="M513.809,56 l0,110" />
        <path id="left-margin-Black-S" d="M616.191,56 l0,110" />
        <path id="right-margin-Black-S" d="M713.809,56 l0,110" />
        <path id="Capline-M" d="M18,276 l800,0" />
        <path id="Baseline-M" d="M18,346 l800,0" />
        <path id="Capline-L" d="M18,476 l800,0" />
        <path id="Baseline-L" d="M18,546 l800,0" />
    </g>
    <g id="Symbols">
        <g id="Ultralight-S">
            <path d="M266.566,85.206 C256.641,76.349 244.98,73.451 236.352,78.433 C223.965,85.584 222.894,105.847 233.19,123.681 C239.727,135.003 249.593,143.126 259.362,145.372 C260.774,145.697 262.182,144.815 262.507,143.403 C262.832,141.991 261.95,140.583 260.538,140.259 C252.296,138.363 243.586,131.192 237.735,121.057 C228.711,105.428 229.611,88.383 238.975,82.977 C245.338,79.303 254.669,81.623 263.072,89.121 C264.154,90.086 265.812,89.991 266.777,88.91 C267.742,87.829 267.647,86.17 266.566,85.206 Z" />
            <path d="M252.882,98.319 C242.586,116.153 243.656,136.415 256.043,143.567 C268.43,150.719 286.514,141.514 296.81,123.681 C307.106,105.847 306.035,85.584 293.648,78.433 C281.261,71.281 263.178,80.486 252.882,98.319 Z M257.426,100.943 C266.45,85.313 281.661,77.571 291.025,82.977 C300.389,88.383 301.289,105.428 292.266,121.057 C283.242,136.687 268.031,144.429 258.667,139.023 C249.303,133.617 248.403,116.572 257.426,100.943 Z" />
        </g>
        <g id="Regular-S">
            <path d="M466.566,85.206 C456.641,76.349 444.98,73.451 436.352,78.433 C423.965,85.584 422.894,105.847 433.19,123.681 C439.727,135.003 449.593,143.126 459.362,145.372 C460.774,145.697 462.182,144.815 462.507,143.403 C462.832,141.991 461.95,140.583 460.538,140.259 C452.296,138.363 443.586,131.192 437.735,121.057 C428.711,105.428 429.611,88.383 438.975,82.977 C445.338,79.303 454.669,81.623 463.072,89.121 C464.154,90.086 465.812,89.991 466.777,88.91 C467.742,87.829 467.647,86.17 466.566,85.206 Z" />
            <path d="M452.882,98.319 C442.586,116.153 443.656,136.415 456.043,143.567 C468.43,150.719 486.514,141.514 496.81,123.681 C507.106,105.847 506.035,85.584 493.648,78.433 C481.261,71.281 463.178,80.486 452.882,98.319 Z M457.426,100.943 C466.45,85.313 481.661,77.571 491.025,82.977 C500.389,88.383 501.289,105.428 492.266,121.057 C483.242,136.687 468.031,144.429 458.667,139.023 C449.303,133.617 448.403,116.572 457.426,100.943 Z" />
        </g>
        <g id="Black-S">
            <path d="M666.566,85.206 C656.641,76.349 644.98,73.451 636.352,78.433 C623.965,85.584 622.894,105.847 633.19,123.681 C639.727,135.003 649.593,143.126 659.362,145.372 C660.774,145.697 662.182,144.815 662.507,143.403 C662.832,141.991 661.95,140.583 660.538,140.259 C652.296,138.363 643.586,131.192 637.735,121.057 C628.711,105.428 629.611,88.383 638.975,82.977 C645.339,79.303 654.669,81.623 663.072,89.121 C664.154,90.086 665.812,89.991 666.777,88.91 C667.742,87.829 667.647,86.17 666.566,85.206 Z" />
            <path d="M652.882,98.319 C642.586,116.153 643.656,136.415 656.043,143.567 C668.43,150.719 686.514,141.514 696.81,123.681 C707.106,105.847 706.035,85.584 693.648,78.433 C681.261,71.281 663.178,80.486 652.882,98.319 Z M657.426,100.943 C666.45,85.313 681.661,77.571 691.025,82.977 C700.389,88.383 701.289,105.428 692.266,121.057 C683.242,136.687 668.031,144.429 658.667,139.023 C649.303,133.617 648.403,116.572 657.426,100.943 Z" />
        </g>
    </g>
</svg>