<?xml version="1.0" encoding="UTF-8"?>
<svg height="600" width="800" xmlns="http://www.w3.org/2000/svg" xmlns:xlink="http://www.w3.org/1999/xlink">
    <g id="Notes" font-family="'LucidaGrande', 'Lucida Grande', sans-serif" font-size="13">
        <rect fill="white" height="600.0" width="800.0" x="0.0" y="0.0" />
        <g font-size="13">
            <text x="18.0" y="176.0">Small</text>
            <text x="18.0" y="376.0">Medium</text>
            <text x="18.0" y="576.0">Large</text>
        </g>
        <g font-size="9">
            <text x="250.0" y="30.0">Ultralight</text>
            <text x="450.0" y="30.0">Regular</text>
            <text x="650.0" y="30.0">Black</text>
            <text id="template-version" fill="#505050" text-anchor="end" x="785.0" y="575.0">Template v.3.0</text>
            <a href="https://github.com/swhitty/SwiftDraw">
                <text fill="#505050" text-anchor="end" x="785.0" y="590.0">https://github.com/swhitty/SwiftDraw</text>
            </a>
        </g>
    </g>
    <g id="Guides" stroke="rgb(39, 170, 225)" stroke-width="0.5">
        <path id="Capline-S" d="M18,76 l800,0" />
        <path id="H-reference" d="M85,145.755 L87.685,145.755 L113.369,79.287 L114.052,79.287 L114.052,76 L112.148,76 L85,145.755 Z M95.693,121.536 L130.996,121.536 L130.263,119.313 L96.474,119.313 L95.693,121.536 Z M139.15,145.755 L141.787,145.755 L114.638,76 L113.466,76 L113.466,79.287 L139.15,145.755 Z" stroke="none" />
        <path id="Baseline-S" d="M18,146 l800,0" />
        <path id="left-margin-Ultralight-S" d="M220,56 l0,110" />
        <path id="right-margin-Ultralight-S" d="M310,56 l0,110" />
        <path id="left-margin-Regular-S" d="M420,56 l0,110" />
        <path id="right-margin-Regular-S" d="M510,56 l0,110" />
        <path id="left-margin-Black-S" d="M620,56 l0,110" />
        <path id="right-margin-Black-S" d="M710,56 l0,110" />
        <path id="Capline-M" d="M18,276 l800,0" />
        <path id="Baseline-M" d="M18,346 l800,0" />
        <path id="Capline-L" d="M18,476 l800,0" />
        <path id="Baseline-L" d="M18,546 l800,0" />
    </g>
    <g id="Symbols">
        <g id="Ultralight-S">
            <path d="M297.558,76 L271.512,76 C270.163,76 269.07,77.093 269.07,78.442 L269.07,91.465 C269.07,92.814 270.163,93.907 271.512,93.907 L297.558,93.907 C298.907,93.907 300,92.814 300,91.465 L300,78.442 C300,77.093 298.907,76 297.558,76 Z M297.558,80.884 L295.116,78.442 L295.116,91.465 L297.558,89.023 L271.512,89.023 L273.953,91.465 L273.953,78.442 L271.512,80.884 L297.558,80.884 Z" />
            <path d="M295.116,91.465 L295.116,127.279 C295.116,127.737 294.761,128.093 294.302,128.093 L238.953,128.093 C236.704,128.093 234.884,126.272 234.884,124.023 L234.884,114.256 C234.884,108.409 239.618,103.674 245.465,103.674 L271.512,103.674 C272.86,103.674 273.953,102.581 273.953,101.233 L273.953,91.465 L271.512,93.907 L297.558,93.907 L295.116,91.465 Z M300,91.465 C300,90.117 298.907,89.023 297.558,89.023 L271.512,89.023 C270.163,89.023 269.07,90.117 269.07,91.465 L269.07,101.233 L271.512,98.791 L245.465,98.791 C236.921,98.791 230,105.712 230,114.256 L230,124.023 C230,128.97 234.007,132.977 238.953,132.977 L294.302,132.977 C297.458,132.977 300,130.435 300,127.279 L300,91.465 Z" />
            <path d="M251.163,111 L251.163,101.233 C251.163,99.884 250.07,98.791 248.721,98.791 C247.372,98.791 246.279,99.884 246.279,101.233 L246.279,111 C246.279,112.349 247.372,113.442 248.721,113.442 C250.07,113.442 251.163,112.349 251.163,111 Z" />
            <path d="M262.558,111 L262.558,101.233 C262.558,99.884 261.465,98.791 260.116,98.791 C258.768,98.791 257.674,99.884 257.674,101.233 L257.674,111 C257.674,112.349 258.768,113.442 260.116,113.442 C261.465,113.442 262.558,112.349 262.558,111 Z" />
            <path d="M251.163,143.558 L251.163,130.535 C251.163,129.186 250.07,128.093 248.721,128.093 C247.372,128.093 246.279,129.186 246.279,130.535 L246.279,143.558 C246.279,144.907 247.372,146 248.721,146 C250.07,146 251.163,144.907 251.163,143.558 Z" />
            <path d="M286.977,143.558 L286.977,130.535 C286.977,129.186 285.883,128.093 284.535,128.093 C283.186,128.093 282.093,129.186 282.093,130.535 L282.093,143.558 C282.093,144.907 283.186,146 284.535,146 C285.883,146 286.977,144.907 286.977,143.558 Z" />
            <path d="M263.372,98.791 L245.465,98.791 C244.117,98.791 243.023,99.884 243.023,101.233 C243.023,102.581 244.117,103.674 245.465,103.674 L263.372,103.674 C264.721,103.674 265.814,102.581 265.814,101.233 C265.814,99.884 264.721,98.791 263.372,98.791 Z" />
            <path d="M297.558,141.116 L235.698,141.116 C235.247,141.116 234.884,140.752 234.884,140.302 L234.884,138.072 C234.884,136.723 233.79,135.63 232.442,135.63 C231.093,135.63 230,136.723 230,138.072 L230,140.302 C230,143.445 232.546,146 235.698,146 L297.558,146 C298.907,146 300,144.907 300,143.558 C300,142.209 298.907,141.116 297.558,141.116 Z" />
        </g>
        <g id="Regular-S">
            <path d="M497.558,76 L471.512,76 C470.163,76 469.07,77.093 469.07,78.442 L469.07,91.465 C469.07,92.814 470.163,93.907 471.512,93.907 L497.558,93.907 C498.907,93.907 500,92.814 500,91.465 L500,78.442 C500,77.093 498.907,76 497.558,76 Z M497.558,80.884 L495.116,78.442 L495.116,91.465 L497.558,89.023 L471.512,89.023 L473.953,91.465 L473.953,78.442 L471.512,80.884 L497.558,80.884 Z" />
            <path d="M495.116,91.465 L495.116,127.279 C495.116,127.737 494.761,128.093 494.302,128.093 L438.953,128.093 C436.704,128.093 434.884,126.272 434.884,124.023 L434.884,114.256 C434.884,108.409 439.618,103.674 445.465,103.674 L471.512,103.674 C472.86,103.674 473.953,102.581 473.953,101.233 L473.953,91.465 L471.512,93.907 L497.558,93.907 L495.116,91.465 Z M500,91.465 C500,90.117 498.907,89.023 497.558,89.023 L471.512,89.023 C470.163,89.023 469.07,90.117 469.07,91.465 L469.07,101.233 L471.512,98.791 L445.465,98.791 C436.921,98.791 430,105.712 430,114.256 L430,124.023 C430,128.97 434.007,132.977 438.953,132.977 L494.302,132.977 C497.458,132.977 500,130.435 500,127.279 L500,91.465 Z" />
            <path d="M451.163,111 L451.163,101.233 C451.163,99.884 450.07,98.791 448.721,98.791 C447.372,98.791 446.279,99.884 446.279,101.233 L446.279,111 C446.279,112.349 447.372,113.442 448.721,113.442 C450.07,113.442 451.163,112.349 451.163,111 Z" />
            <path d="M462.558,111 L462.558,101.233 C462.558,99.884 461.465,98.791 460.116,98.791 C458.768,98.791 457.674,99.884 457.674,101.233 L457.674,111 C457.674,112.349 458.768,113.442 460.116,113.442 C461.465,113.442 462.558,112.349 462.558,111 Z" />
            <path d="M451.163,143.558 L451.163,130.535 C451.163,129.186 450.07,128.093 448.721,128.093 C447.372,128.093 446.279,129.186 446.279,130.535 L446.279,143.558 C446.279,144.907 447.372,146 448.721,146 C450.07,146 451.163,144.907 451.163,143.558 Z" />
            <path d="M486.977,143.558 L486.977,130.535 C486.977,129.186 485.883,128.093 484.535,128.093 C483.186,128.093 482.093,129.186 482.093,130.535 L482.093,143.558 C482.093,144.907 483.186,146 484.535,146 C485.883,146 486.977,144.907 486.977,143.558 Z" />
            <path d="M463.372,98.791 L445.465,98.791 C444.117,98.791 443.023,99.884 443.023,101.233 C443.023,102.581 444.117,103.674 445.465,103.674 L463.372,103.674 C464.721,103.674 465.814,102.581 465.814,101.233 C465.814,99.884 464.721,98.791 463.372,98.791 Z" />
            <path d="M497.558,141.116 L435.698,141.116 C435.247,141.116 434.884,140.752 434.884,140.302 L434.884,138.072 C434.884,136.723 433.79,135.63 432.442,135.63 C431.093,135.63 430,136.723 430,138.072 L430,140.302 C430,143.445 432.546,146 435.698,146 L497.558,146 C498.907,146 500,144.907 500,143.558 C500,142.209 498.907,141.116 497.558,141.116 Z" />
        </g>
        <g id="Black-S">
            <path d="M697.558,76 L671.512,76 C670.163,76 669.07,77.093 669.07,78.442 L669.07,91.465 C669.07,92.814 670.163,93.907 671.512,93.907 L697.558,93.907 C698.907,93.907 700,92.814 700,91.465 L700,78.442 C700,77.093 698.907,76 697.558,76 Z M697.558,80.884 L695.116,78.442 L695.116,91.465 L697.558,89.023 L671.512,89.023 L673.953,91.465 L673.953,78.442 L671.512,80.884 L697.558,80.884 Z" />
            <path d="M695.116,91.465 L695.116,127.279 C695.116,127.737 694.761,128.093 694.302,128.093 L638.953,128.093 C636.704,128.093 634.884,126.272 634.884,124.023 L634.884,114.256 C634.884,108.409 639.618,103.674 645.465,103.674 L671.512,103.674 C672.86,103.674 673.953,102.581 673.953,101.233 L673.953,91.465 L671.512,93.907 L697.558,93.907 L695.116,91.465 Z M700,91.465 C700,90.117 698.907,89.023 697.558,89.023 L671.512,89.023 C670.163,89.023 669.07,90.117 669.07,91.465 L669.07,101.233 L671.512,98.791 L645.465,98.791 C636.921,98.791 630,105.712 630,114.256 L630,124.023 C630,128.97 634.007,132.977 638.953,132.977 L694.302,132.977 C697.458,132.977 700,130.435 700,127.279 L700,91.465 Z" />
            <path d="M651.163,111 L651.163,101.233 C651.163,99.884 650.07,98.791 648.721,98.791 C647.372,98.791 646.279,99.884 646.279,101.233 L646.279,111 C646.279,112.349 647.372,113.442 648.721,113.442 C650.07,113.442 651.163,112.349 651.163,111 Z" />
            <path d="M662.558,111 L662.558,101.233 C662.558,99.884 661.465,98.791 660.116,98.791 C658.768,98.791 657.674,99.884 657.674,101.233 L657.674,111 C657.674,112.349 658.768,113.442 660.116,113.442 C661.465,113.442 662.558,112.349 662.558,111 Z" />
            <path d="M651.163,143.558 L651.163,130.535 C651.163,129.186 650.07,128.093 648.721,128.093 C647.372,128.093 646.279,129.186 646.279,130.535 L646.279,143.558 C646.279,144.907 647.372,146 648.721,146 C650.07,146 651.163,144.907 651.163,143.558 Z" />
            <path d="M686.977,143.558 L686.977,130.535 C686.977,129.186 685.883,128.093 684.535,128.093 C683.186,128.093 682.093,129.186 682.093,130.535 L682.093,143.558 C682.093,144.907 683.186,146 684.535,146 C685.883,146 686.977,144.907 686.977,143.558 Z" />
            <path d="M663.372,98.791 L645.465,98.791 C644.117,98.791 643.023,99.884 643.023,101.233 C643.023,102.581 644.117,103.674 645.465,103.674 L663.372,103.674 C664.721,103.674 665.814,102.581 665.814,101.233 C665.814,99.884 664.721,98.791 663.372,98.791 Z" />
            <path d="M697.558,141.116 L635.698,141.116 C635.247,141.116 634.884,140.752 634.884,140.302 L634.884,138.072 C634.884,136.723 633.79,135.63 632.442,135.63 C631.093,135.63 630,136.723 630,138.072 L630,140.302 C630,143.445 632.546,146 635.698,146 L697.558,146 C698.907,146 700,144.907 700,143.558 C700,142.209 698.907,141.116 697.558,141.116 Z" />
        </g>
    </g>
</svg>