<?xml version="1.0" encoding="UTF-8"?>
<svg height="600" width="800" xmlns="http://www.w3.org/2000/svg" xmlns:xlink="http://www.w3.org/1999/xlink">
    <g id="Notes" font-family="'LucidaGrande', 'Lucida Grande', sans-serif" font-size="13">
        <rect fill="white" height="600.0" width="800.0" x="0.0" y="0.0" />
        <g font-size="13">
            <text x="18.0" y="176.0">Small</text>
            <text x="18.0" y="376.0">Medium</text>
            <text x="18.0" y="576.0">Large</text>
        </g>
        <g font-size="9">
            <text x="250.0" y="30.0">Ultralight</text>
            <text x="450.0" y="30.0">Regular</text>
            <text x="650.0" y="30.0">Black</text>
            <text id="template-version" fill="#505050" text-anchor="end" x="785.0" y="575.0">Template v.3.0</text>
            <a href="https://github.com/swhitty/SwiftDraw">
                <text fill="#505050" text-anchor="end" x="785.0" y="590.0">https://github.com/swhitty/SwiftDraw</text>
            </a>
        </g>
    </g>
    <g id="Guides" stroke="rgb(39, 170, 225)" stroke-width="0.5">
        <path id="Capline-S" d="M18,76 l800,0" />
        <path id="H-reference" d="M85,145.755 L87.685,145.755 L113.369,79.287 L114.052,79.287 L114.052,76 L112.148,76 L85,145.755 Z M95.693,121.536 L130.996,121.536 L130.263,119.313 L96.474,119.313 L95.693,121.536 Z M139.15,145.755 L141.787,145.755 L114.638,76 L113.466,76 L113.466,79.287 L139.15,145.755 Z" stroke="none" />
        <path id="Baseline-S" d="M18,146 l800,0" />
        <path id="left-margin-Ultralight-S" d="M220,56 l0,110" />
        <path id="right-margin-Ultralight-S" d="M310,56 l0,110" />
        <path id="left-margin-Regular-S" d="M420,56 l0,110" />
        <path id="right-margin-Regular-S" d="M510,56 l0,110" />
        <path id="left-margin-Black-S" d="M620,56 l0,110" />
        <path id="right-margin-Black-S" d="M710,56 l0,110" />
        <path id="Capline-M" d="M18,276 l800,0" />
        <path id="Baseline-M" d="M18,346 l800,0" />
        <path id="Capline-L" d="M18,476 l800,0" />
        <path id="Baseline-L" d="M18,546 l800,0" />
    </g>
    <g id="Symbols">
        <g id="Ultralight-S">
            <path d="M265,76 C245.67,76 230,91.67 230,111 C230,130.33 245.67,146 265,146 C284.33,146 300,130.33 300,111 C300,106.345 299.09,101.813 297.343,97.602 C296.904,96.543 296.413,95.507 295.872,94.497 C295.235,93.308 293.755,92.861 292.567,93.497 C291.378,94.134 290.93,95.614 291.567,96.803 C292.032,97.671 292.454,98.562 292.832,99.473 C294.334,103.094 295.116,106.99 295.116,111 C295.116,127.633 281.633,141.116 265,141.116 C248.367,141.116 234.884,127.633 234.884,111 C234.884,94.367 248.367,80.884 265,80.884 C266.349,80.884 267.442,79.79 267.442,78.442 C267.442,77.093 266.349,76 265,76 Z" />
            <path d="M282.907,90.651 C287.724,90.651 291.86,87.549 291.86,83.326 C291.86,79.102 287.724,76 282.907,76 C278.09,76 273.953,79.102 273.953,83.326 C273.953,87.549 278.09,90.651 282.907,90.651 Z M282.907,85.767 C280.532,85.767 278.837,84.497 278.837,83.326 C278.837,82.155 280.532,80.884 282.907,80.884 C285.282,80.884 286.977,82.155 286.977,83.326 C286.977,84.497 285.282,85.767 282.907,85.767 Z" />
            <path d="M265,124.837 C272.642,124.837 278.837,118.642 278.837,111 C278.837,103.358 272.642,97.163 265,97.163 C257.358,97.163 251.163,103.358 251.163,111 C251.163,118.642 257.358,124.837 265,124.837 Z M265,119.953 C260.055,119.953 256.047,115.945 256.047,111 C256.047,106.055 260.055,102.047 265,102.047 C269.945,102.047 273.953,106.055 273.953,111 C273.953,115.945 269.945,119.953 265,119.953 Z" />
            <path d="M273.953,82.512 L273.953,111 C273.953,112.349 275.047,113.442 276.395,113.442 C277.744,113.442 278.837,112.349 278.837,111 L278.837,82.512 C278.837,81.163 277.744,80.07 276.395,80.07 C275.047,80.07 273.953,81.163 273.953,82.512 Z" />
        </g>
        <g id="Regular-S">
            <path d="M465,76 C445.67,76 430,91.67 430,111 C430,130.33 445.67,146 465,146 C484.33,146 500,130.33 500,111 C500,106.345 499.09,101.813 497.343,97.602 C496.904,96.543 496.413,95.507 495.872,94.497 C495.235,93.308 493.755,92.861 492.567,93.497 C491.378,94.134 490.93,95.614 491.567,96.803 C492.032,97.671 492.454,98.562 492.832,99.473 C494.334,103.094 495.116,106.99 495.116,111 C495.116,127.633 481.633,141.116 465,141.116 C448.367,141.116 434.884,127.633 434.884,111 C434.884,94.367 448.367,80.884 465,80.884 C466.349,80.884 467.442,79.79 467.442,78.442 C467.442,77.093 466.349,76 465,76 Z" />
            <path d="M482.907,90.651 C487.724,90.651 491.86,87.549 491.86,83.326 C491.86,79.102 487.724,76 482.907,76 C478.09,76 473.953,79.102 473.953,83.326 C473.953,87.549 478.09,90.651 482.907,90.651 Z M482.907,85.767 C480.532,85.767 478.837,84.497 478.837,83.326 C478.837,82.155 480.532,80.884 482.907,80.884 C485.282,80.884 486.977,82.155 486.977,83.326 C486.977,84.497 485.282,85.767 482.907,85.767 Z" />
            <path d="M465,124.837 C472.642,124.837 478.837,118.642 478.837,111 C478.837,103.358 472.642,97.163 465,97.163 C457.358,97.163 451.163,103.358 451.163,111 C451.163,118.642 457.358,124.837 465,124.837 Z M465,119.953 C460.055,119.953 456.047,115.945 456.047,111 C456.047,106.055 460.055,102.047 465,102.047 C469.945,102.047 473.953,106.055 473.953,111 C473.953,115.945 469.945,119.953 465,119.953 Z" />
            <path d="M473.953,82.512 L473.953,111 C473.953,112.349 475.047,113.442 476.395,113.442 C477.744,113.442 478.837,112.349 478.837,111 L478.837,82.512 C478.837,81.163 477.744,80.07 476.395,80.07 C475.047,80.07 473.953,81.163 473.953,82.512 Z" />
        </g>
        <g id="Black-S">
            <path d="M665,76 C645.67,76 630,91.67 630,111 C630,130.33 645.67,146 665,146 C684.33,146 700,130.33 700,111 C700,106.345 699.09,101.813 697.343,97.602 C696.904,96.543 696.413,95.507 695.872,94.497 C695.235,93.308 693.755,92.861 692.567,93.497 C691.378,94.134 690.93,95.614 691.567,96.803 C692.032,97.671 692.454,98.562 692.832,99.473 C694.334,103.094 695.116,106.99 695.116,111 C695.116,127.633 681.633,141.116 665,141.116 C648.367,141.116 634.884,127.633 634.884,111 C634.884,94.367 648.367,80.884 665,80.884 C666.349,80.884 667.442,79.79 667.442,78.442 C667.442,77.093 666.349,76 665,76 Z" />
            <path d="M682.907,90.651 C687.724,90.651 691.86,87.549 691.86,83.326 C691.86,79.102 687.724,76 682.907,76 C678.09,76 673.953,79.102 673.953,83.326 C673.953,87.549 678.09,90.651 682.907,90.651 Z M682.907,85.767 C680.532,85.767 678.837,84.497 678.837,83.326 C678.837,82.155 680.532,80.884 682.907,80.884 C685.282,80.884 686.977,82.155 686.977,83.326 C686.977,84.497 685.282,85.767 682.907,85.767 Z" />
            <path d="M665,124.837 C672.642,124.837 678.837,118.642 678.837,111 C678.837,103.358 672.642,97.163 665,97.163 C657.358,97.163 651.163,103.358 651.163,111 C651.163,118.642 657.358,124.837 665,124.837 Z M665,119.953 C660.055,119.953 656.047,115.945 656.047,111 C656.047,106.055 660.055,102.047 665,102.047 C669.945,102.047 673.953,106.055 673.953,111 C673.953,115.945 669.945,119.953 665,119.953 Z" />
            <path d="M673.953,82.512 L673.953,111 C673.953,112.349 675.047,113.442 676.395,113.442 C677.744,113.442 678.837,112.349 678.837,111 L678.837,82.512 C678.837,81.163 677.744,80.07 676.395,80.07 C675.047,80.07 673.953,81.163 673.953,82.512 Z" />
        </g>
    </g>
</svg>