<?xml version="1.0" encoding="UTF-8"?>
<svg height="600" width="800" xmlns="http://www.w3.org/2000/svg" xmlns:xlink="http://www.w3.org/1999/xlink">
    <g id="Notes" font-family="'LucidaGrande', 'Lucida Grande', sans-serif" font-size="13">
        <rect fill="white" height="600.0" width="800.0" x="0.0" y="0.0" />
        <g font-size="13">
            <text x="18.0" y="176.0">Small</text>
            <text x="18.0" y="376.0">Medium</text>
            <text x="18.0" y="576.0">Large</text>
        </g>
        <g font-size="9">
            <text x="250.0" y="30.0">Ultralight</text>
            <text x="450.0" y="30.0">Regular</text>
            <text x="650.0" y="30.0">Black</text>
            <text id="template-version" fill="#505050" text-anchor="end" x="785.0" y="575.0">Template v.3.0</text>
            <a href="https://github.com/swhitty/SwiftDraw">
                <text fill="#505050" text-anchor="end" x="785.0" y="590.0">https://github.com/swhitty/SwiftDraw</text>
            </a>
        </g>
    </g>
    <g id="Guides" stroke="rgb(39, 170, 225)" stroke-width="0.5">
        <path id="Capline-S" d="M18,76 l800,0" />
        <path id="H-reference" d="M85,145.755 L87.685,145.755 L113.369,79.287 L114.052,79.287 L114.052,76 L112.148,76 L85,145.755 Z M95.693,121.536 L130.996,121.536 L130.263,119.313 L96.474,119.313 L95.693,121.536 Z M139.15,145.755 L141.787,145.755 L114.638,76 L113.466,76 L113.466,79.287 L139.15,145.755 Z" stroke="none" />
        <path id="Baseline-S" d="M18,146 l800,0" />
        <path id="left-margin-Ultralight-S" d="M216.411,56 l0,110" />
        <path id="right-margin-Ultralight-S" d="M313.589,56 l0,110" />
        <path id="left-margin-Regular-S" d="M416.411,56 l0,110" />
        <path id="right-margin-Regular-S" d="M513.589,56 l0,110" />
        <path id="left-margin-Black-S" d="M616.411,56 l0,110" />
        <path id="right-margin-Black-S" d="M713.589,56 l0,110" />
        <path id="Capline-M" d="M18,276 l800,0" />
        <path id="Baseline-M" d="M18,346 l800,0" />
        <path id="Capline-L" d="M18,476 l800,0" />
        <path id="Baseline-L" d="M18,546 l800,0" />
    </g>
    <g id="Symbols">
        <g id="Ultralight-S">
            <path d="M296.41,118.18 L296.41,128.949 C296.41,129.445 296.008,129.846 295.513,129.846 L234.487,129.846 C233.992,129.846 233.59,129.445 233.59,128.949 L233.59,93.052 C233.59,92.556 233.992,92.154 234.487,92.154 L250.641,92.154 C252.128,92.154 253.333,90.949 253.333,89.462 C253.333,87.975 252.128,86.77 250.641,86.77 L234.487,86.77 C231.018,86.77 228.205,89.582 228.205,93.052 L228.205,128.949 C228.205,132.418 231.018,135.231 234.487,135.231 L295.513,135.231 C298.982,135.231 301.794,132.418 301.794,128.949 L301.794,118.18 C301.794,116.693 300.589,115.487 299.102,115.487 C297.615,115.487 296.41,116.693 296.41,118.18 Z" />
            <path d="M229.103,146 L300.897,146 C302.384,146 303.589,144.795 303.589,143.308 C303.589,141.821 302.384,140.615 300.897,140.615 L229.103,140.615 C227.616,140.615 226.411,141.821 226.411,143.308 C226.411,144.795 227.616,146 229.103,146 Z" />
            <path d="M262.308,102.026 C262.308,94.592 268.335,88.565 275.769,88.565 C283.204,88.565 289.231,94.592 289.231,102.026 C289.231,109.461 283.204,115.487 275.769,115.487 C268.335,115.487 262.308,109.461 262.308,102.026 Z M256.923,102.026 C256.923,112.434 265.361,120.872 275.769,120.872 C286.177,120.872 294.615,112.434 294.615,102.026 C294.615,91.618 286.177,83.18 275.769,83.18 C265.361,83.18 256.923,91.618 256.923,102.026 Z" />
            <path d="M258.718,103.821 L258.718,100.231 C258.718,98.744 257.513,97.539 256.026,97.539 C254.539,97.539 253.333,98.744 253.333,100.231 L253.333,103.821 C253.333,105.308 254.539,106.513 256.026,106.513 C257.513,106.513 258.718,105.308 258.718,103.821 Z" />
            <path d="M298.205,103.821 L298.205,100.231 C298.205,98.744 296.999,97.539 295.513,97.539 C294.026,97.539 292.82,98.744 292.82,100.231 L292.82,103.821 C292.82,105.308 294.026,106.513 295.513,106.513 C296.999,106.513 298.205,105.308 298.205,103.821 Z" />
            <path d="M278.425,85.43 C277.788,81.607 274.525,77.589 269.329,76.104 C267.9,75.696 266.41,76.524 266.001,77.953 C265.593,79.383 266.42,80.873 267.85,81.282 C270.946,82.166 272.803,84.454 273.113,86.315 C273.358,87.782 274.745,88.773 276.212,88.528 C277.678,88.284 278.669,86.896 278.425,85.43 Z" />
            <path d="M278.452,86.096 C278.622,84.052 279.593,81.66 280.695,81.031 C281.986,80.293 282.434,78.648 281.696,77.357 C280.959,76.066 279.314,75.618 278.023,76.355 C274.978,78.095 273.389,82.009 273.086,85.649 C272.963,87.131 274.064,88.432 275.546,88.555 C277.027,88.679 278.329,87.578 278.452,86.096 Z" />
            <path d="M277.564,100.231 C277.564,98.249 279.171,96.642 281.154,96.642 C283.136,96.642 284.743,98.249 284.743,100.231 C284.743,102.214 283.136,103.821 281.154,103.821 C279.171,103.821 277.564,102.214 277.564,100.231 Z" />
            <path d="M266.795,100.231 C266.795,98.249 268.402,96.642 270.385,96.642 C272.367,96.642 273.974,98.249 273.974,100.231 C273.974,102.214 272.367,103.821 270.385,103.821 C268.402,103.821 266.795,102.214 266.795,100.231 Z" />
        </g>
        <g id="Regular-S">
            <path d="M496.41,118.18 L496.41,128.949 C496.41,129.445 496.008,129.846 495.513,129.846 L434.487,129.846 C433.992,129.846 433.59,129.445 433.59,128.949 L433.59,93.052 C433.59,92.556 433.992,92.154 434.487,92.154 L450.641,92.154 C452.128,92.154 453.333,90.949 453.333,89.462 C453.333,87.975 452.128,86.77 450.641,86.77 L434.487,86.77 C431.018,86.77 428.205,89.582 428.205,93.052 L428.205,128.949 C428.205,132.418 431.018,135.231 434.487,135.231 L495.513,135.231 C498.982,135.231 501.794,132.418 501.794,128.949 L501.794,118.18 C501.794,116.693 500.589,115.487 499.102,115.487 C497.615,115.487 496.41,116.693 496.41,118.18 Z" />
            <path d="M429.103,146 L500.897,146 C502.384,146 503.589,144.795 503.589,143.308 C503.589,141.821 502.384,140.615 500.897,140.615 L429.103,140.615 C427.616,140.615 426.411,141.821 426.411,143.308 C426.411,144.795 427.616,146 429.103,146 Z" />
            <path d="M462.308,102.026 C462.308,94.592 468.335,88.565 475.769,88.565 C483.204,88.565 489.231,94.592 489.231,102.026 C489.231,109.461 483.204,115.487 475.769,115.487 C468.335,115.487 462.308,109.461 462.308,102.026 Z M456.923,102.026 C456.923,112.434 465.361,120.872 475.769,120.872 C486.177,120.872 494.615,112.434 494.615,102.026 C494.615,91.618 486.177,83.18 475.769,83.18 C465.361,83.18 456.923,91.618 456.923,102.026 Z" />
            <path d="M458.718,103.821 L458.718,100.231 C458.718,98.744 457.513,97.539 456.026,97.539 C454.539,97.539 453.333,98.744 453.333,100.231 L453.333,103.821 C453.333,105.308 454.539,106.513 456.026,106.513 C457.513,106.513 458.718,105.308 458.718,103.821 Z" />
            <path d="M498.205,103.821 L498.205,100.231 C498.205,98.744 496.999,97.539 495.513,97.539 C494.026,97.539 492.82,98.744 492.82,100.231 L492.82,103.821 C492.82,105.308 494.026,106.513 495.513,106.513 C496.999,106.513 498.205,105.308 498.205,103.821 Z" />
            <path d="M478.425,85.43 C477.788,81.607 474.525,77.589 469.329,76.104 C467.9,75.696 466.409,76.524 466.001,77.953 C465.593,79.383 466.42,80.873 467.85,81.282 C470.946,82.166 472.803,84.454 473.113,86.315 C473.358,87.782 474.745,88.773 476.212,88.528 C477.678,88.284 478.669,86.896 478.425,85.43 Z" />
            <path d="M478.452,86.096 C478.622,84.052 479.593,81.66 480.695,81.031 C481.986,80.293 482.434,78.648 481.696,77.357 C480.959,76.066 479.314,75.618 478.023,76.355 C474.978,78.095 473.389,82.009 473.086,85.649 C472.963,87.131 474.064,88.432 475.546,88.555 C477.027,88.679 478.329,87.578 478.452,86.096 Z" />
            <path d="M477.564,100.231 C477.564,98.249 479.171,96.642 481.154,96.642 C483.136,96.642 484.743,98.249 484.743,100.231 C484.743,102.214 483.136,103.821 481.154,103.821 C479.171,103.821 477.564,102.214 477.564,100.231 Z" />
            <path d="M466.795,100.231 C466.795,98.249 468.402,96.642 470.385,96.642 C472.367,96.642 473.974,98.249 473.974,100.231 C473.974,102.214 472.367,103.821 470.385,103.821 C468.402,103.821 466.795,102.214 466.795,100.231 Z" />
        </g>
        <g id="Black-S">
            <path d="M696.41,118.18 L696.41,128.949 C696.41,129.445 696.008,129.846 695.513,129.846 L634.487,129.846 C633.992,129.846 633.59,129.445 633.59,128.949 L633.59,93.052 C633.59,92.556 633.992,92.154 634.487,92.154 L650.641,92.154 C652.128,92.154 653.333,90.949 653.333,89.462 C653.333,87.975 652.128,86.77 650.641,86.77 L634.487,86.77 C631.018,86.77 628.206,89.582 628.206,93.052 L628.206,128.949 C628.206,132.418 631.018,135.231 634.487,135.231 L695.513,135.231 C698.982,135.231 701.795,132.418 701.795,128.949 L701.795,118.18 C701.795,116.693 700.589,115.487 699.102,115.487 C697.615,115.487 696.41,116.693 696.41,118.18 Z" />
            <path d="M629.103,146 L700.897,146 C702.384,146 703.589,144.795 703.589,143.308 C703.589,141.821 702.384,140.615 700.897,140.615 L629.103,140.615 C627.616,140.615 626.411,141.821 626.411,143.308 C626.411,144.795 627.616,146 629.103,146 Z" />
            <path d="M662.308,102.026 C662.308,94.592 668.335,88.565 675.769,88.565 C683.204,88.565 689.231,94.592 689.231,102.026 C689.231,109.461 683.204,115.487 675.769,115.487 C668.335,115.487 662.308,109.461 662.308,102.026 Z M656.923,102.026 C656.923,112.434 665.361,120.872 675.769,120.872 C686.177,120.872 694.615,112.434 694.615,102.026 C694.615,91.618 686.177,83.18 675.769,83.18 C665.361,83.18 656.923,91.618 656.923,102.026 Z" />
            <path d="M658.718,103.821 L658.718,100.231 C658.718,98.744 657.513,97.539 656.026,97.539 C654.539,97.539 653.333,98.744 653.333,100.231 L653.333,103.821 C653.333,105.308 654.539,106.513 656.026,106.513 C657.513,106.513 658.718,105.308 658.718,103.821 Z" />
            <path d="M698.205,103.821 L698.205,100.231 C698.205,98.744 696.999,97.539 695.513,97.539 C694.026,97.539 692.82,98.744 692.82,100.231 L692.82,103.821 C692.82,105.308 694.026,106.513 695.513,106.513 C696.999,106.513 698.205,105.308 698.205,103.821 Z" />
            <path d="M678.425,85.43 C677.788,81.607 674.525,77.589 669.329,76.104 C667.9,75.696 666.41,76.524 666.001,77.953 C665.593,79.383 666.42,80.873 667.85,81.282 C670.946,82.166 672.803,84.454 673.114,86.315 C673.358,87.782 674.745,88.773 676.212,88.528 C677.679,88.284 678.669,86.896 678.425,85.43 Z" />
            <path d="M678.452,86.096 C678.622,84.052 679.594,81.66 680.695,81.031 C681.986,80.293 682.434,78.648 681.696,77.357 C680.959,76.066 679.314,75.618 678.023,76.355 C674.978,78.095 673.389,82.009 673.086,85.649 C672.963,87.131 674.064,88.432 675.546,88.555 C677.027,88.679 678.329,87.578 678.452,86.096 Z" />
            <path d="M677.564,100.231 C677.564,98.249 679.171,96.642 681.154,96.642 C683.136,96.642 684.743,98.249 684.743,100.231 C684.743,102.214 683.136,103.821 681.154,103.821 C679.171,103.821 677.564,102.214 677.564,100.231 Z" />
            <path d="M666.795,100.231 C666.795,98.249 668.402,96.642 670.385,96.642 C672.367,96.642 673.974,98.249 673.974,100.231 C673.974,102.214 672.367,103.821 670.385,103.821 C668.402,103.821 666.795,102.214 666.795,100.231 Z" />
        </g>
    </g>
</svg>