<?xml version="1.0" encoding="UTF-8"?>
<svg height="600" width="800" xmlns="http://www.w3.org/2000/svg" xmlns:xlink="http://www.w3.org/1999/xlink">
    <g id="Notes" font-family="'LucidaGrande', 'Lucida Grande', sans-serif" font-size="13">
        <rect fill="white" height="600.0" width="800.0" x="0.0" y="0.0" />
        <g font-size="13">
            <text x="18.0" y="176.0">Small</text>
            <text x="18.0" y="376.0">Medium</text>
            <text x="18.0" y="576.0">Large</text>
        </g>
        <g font-size="9">
            <text x="250.0" y="30.0">Ultralight</text>
            <text x="450.0" y="30.0">Regular</text>
            <text x="650.0" y="30.0">Black</text>
            <text id="template-version" fill="#505050" text-anchor="end" x="785.0" y="575.0">Template v.3.0</text>
            <a href="https://github.com/swhitty/SwiftDraw">
                <text fill="#505050" text-anchor="end" x="785.0" y="590.0">https://github.com/swhitty/SwiftDraw</text>
            </a>
        </g>
    </g>
    <g id="Guides" stroke="rgb(39, 170, 225)" stroke-width="0.5">
        <path id="Capline-S" d="M18,76 l800,0" />
        <path id="H-reference" d="M85,145.755 L87.685,145.755 L113.369,79.287 L114.052,79.287 L114.052,76 L112.148,76 L85,145.755 Z M95.693,121.536 L130.996,121.536 L130.263,119.313 L96.474,119.313 L95.693,121.536 Z M139.15,145.755 L141.787,145.755 L114.638,76 L113.466,76 L113.466,79.287 L139.15,145.755 Z" stroke="none" />
        <path id="Baseline-S" d="M18,146 l800,0" />
        <path id="left-margin-Ultralight-S" d="M221,56 l0,110" />
        <path id="right-margin-Ultralight-S" d="M309,56 l0,110" />
        <path id="left-margin-Regular-S" d="M421,56 l0,110" />
        <path id="right-margin-Regular-S" d="M509,56 l0,110" />
        <path id="left-margin-Black-S" d="M621,56 l0,110" />
        <path id="right-margin-Black-S" d="M709,56 l0,110" />
        <path id="Capline-M" d="M18,276 l800,0" />
        <path id="Baseline-M" d="M18,346 l800,0" />
        <path id="Capline-L" d="M18,476 l800,0" />
        <path id="Baseline-L" d="M18,546 l800,0" />
    </g>
    <g id="Symbols">
        <g id="Ultralight-S">
            <path d="M244.027,112.606 C240.347,115.127 238.531,119.244 238.531,124.654 C238.531,133.541 248.557,146 257.25,146 C262.722,146 262.722,146 267.347,146 C271.738,146 271.738,146 276.854,146 C285.144,146 291.469,138.983 291.469,131.588 C291.469,120.444 291.469,120.444 291.469,109.301 C291.469,105.057 288.028,101.617 283.784,101.617 L283.769,101.617 C279.533,101.617 276.1,105.05 276.1,109.285 C276.1,110.7 277.247,111.847 278.661,111.847 C280.076,111.847 281.223,110.7 281.223,109.285 C281.223,107.879 282.363,106.739 283.769,106.739 L283.784,106.739 C285.199,106.739 286.346,107.886 286.346,109.301 C286.346,120.444 286.346,120.444 286.346,131.588 C286.346,136.265 282.189,140.877 276.854,140.877 C271.738,140.877 271.738,140.877 267.347,140.877 C262.722,140.877 262.722,140.877 257.25,140.877 C251.661,140.877 243.654,130.927 243.654,124.654 C243.654,120.821 244.76,118.314 246.922,116.833 C248.089,116.033 248.387,114.439 247.588,113.272 C246.788,112.105 245.194,111.807 244.027,112.606 Z" />
            <path d="M250.452,118.584 L250.452,83.68 C250.452,82.268 251.597,81.123 253.01,81.123 C253.015,81.123 253.015,81.123 253.014,81.123 C254.442,81.127 255.595,82.283 255.595,83.709 L255.595,110.296 C255.595,111.711 256.742,112.857 258.157,112.857 C259.572,112.857 260.718,111.711 260.718,110.296 L260.718,83.709 C260.718,79.46 257.28,76.012 253.031,76 C253.018,76 253.018,76 253.01,76 C248.768,76 245.33,79.439 245.33,83.68 L245.33,118.584 C245.33,119.998 246.476,121.145 247.891,121.145 C249.306,121.145 250.452,119.998 250.452,118.584 Z" />
            <path d="M260.718,109.299 L260.718,102.481 C260.718,101.052 261.877,99.893 263.306,99.893 C264.736,99.893 265.894,101.052 265.894,102.481 L265.894,109.299 C265.894,110.714 267.041,111.861 268.456,111.861 C269.87,111.861 271.017,110.714 271.017,109.299 L271.017,102.481 C271.017,98.222 267.565,94.77 263.306,94.77 C259.048,94.77 255.595,98.222 255.595,102.481 L255.595,109.299 C255.595,110.714 256.742,111.861 258.157,111.861 C259.572,111.861 260.718,110.714 260.718,109.299 Z" />
            <path d="M270.977,108.8 L270.977,104.168 C270.977,102.753 272.124,101.606 273.538,101.606 C274.953,101.606 276.1,102.753 276.1,104.168 L276.1,109.291 C276.1,110.706 277.247,111.852 278.661,111.852 C280.076,111.852 281.223,110.706 281.223,109.291 L281.223,104.168 C281.223,99.924 277.782,96.483 273.538,96.483 C269.294,96.483 265.854,99.924 265.854,104.168 L265.854,108.8 C265.854,110.214 267.001,111.361 268.415,111.361 C269.83,111.361 270.977,110.214 270.977,108.8 Z" />
        </g>
        <g id="Regular-S">
            <path d="M444.027,112.606 C440.347,115.127 438.531,119.244 438.531,124.654 C438.531,133.541 448.557,146 457.25,146 C462.722,146 462.722,146 467.347,146 C471.738,146 471.738,146 476.854,146 C485.144,146 491.469,138.983 491.469,131.588 C491.469,120.444 491.469,120.444 491.469,109.301 C491.469,105.057 488.028,101.617 483.784,101.617 L483.769,101.617 C479.533,101.617 476.1,105.05 476.1,109.285 C476.1,110.7 477.247,111.847 478.661,111.847 C480.076,111.847 481.223,110.7 481.223,109.285 C481.223,107.879 482.363,106.739 483.769,106.739 L483.784,106.739 C485.199,106.739 486.346,107.886 486.346,109.301 C486.346,120.444 486.346,120.444 486.346,131.588 C486.346,136.265 482.189,140.877 476.854,140.877 C471.738,140.877 471.738,140.877 467.347,140.877 C462.722,140.877 462.722,140.877 457.25,140.877 C451.661,140.877 443.654,130.927 443.654,124.654 C443.654,120.821 444.76,118.314 446.922,116.833 C448.089,116.033 448.387,114.439 447.588,113.272 C446.788,112.105 445.194,111.807 444.027,112.606 Z" />
            <path d="M450.452,118.584 L450.452,83.68 C450.452,82.268 451.597,81.123 453.01,81.123 C453.015,81.123 453.015,81.123 453.014,81.123 C454.442,81.127 455.595,82.283 455.595,83.709 L455.595,110.296 C455.595,111.711 456.742,112.857 458.157,112.857 C459.572,112.857 460.718,111.711 460.718,110.296 L460.718,83.709 C460.718,79.46 457.28,76.012 453.031,76 C453.018,76 453.018,76 453.01,76 C448.768,76 445.33,79.439 445.33,83.68 L445.33,118.584 C445.33,119.998 446.476,121.145 447.891,121.145 C449.306,121.145 450.452,119.998 450.452,118.584 Z" />
            <path d="M460.718,109.299 L460.718,102.481 C460.718,101.052 461.877,99.893 463.306,99.893 C464.736,99.893 465.894,101.052 465.894,102.481 L465.894,109.299 C465.894,110.714 467.041,111.861 468.456,111.861 C469.87,111.861 471.017,110.714 471.017,109.299 L471.017,102.481 C471.017,98.222 467.565,94.77 463.306,94.77 C459.048,94.77 455.595,98.222 455.595,102.481 L455.595,109.299 C455.595,110.714 456.742,111.861 458.157,111.861 C459.572,111.861 460.718,110.714 460.718,109.299 Z" />
            <path d="M470.977,108.8 L470.977,104.168 C470.977,102.753 472.124,101.606 473.538,101.606 C474.953,101.606 476.1,102.753 476.1,104.168 L476.1,109.291 C476.1,110.706 477.247,111.852 478.661,111.852 C480.076,111.852 481.223,110.706 481.223,109.291 L481.223,104.168 C481.223,99.924 477.782,96.483 473.538,96.483 C469.294,96.483 465.854,99.924 465.854,104.168 L465.854,108.8 C465.854,110.214 467.001,111.361 468.415,111.361 C469.83,111.361 470.977,110.214 470.977,108.8 Z" />
        </g>
        <g id="Black-S">
            <path d="M644.027,112.606 C640.347,115.127 638.531,119.244 638.531,124.654 C638.531,133.541 648.557,146 657.25,146 C662.722,146 662.722,146 667.347,146 C671.738,146 671.738,146 676.854,146 C685.144,146 691.469,138.983 691.469,131.588 C691.469,120.444 691.469,120.444 691.469,109.301 C691.469,105.057 688.028,101.617 683.784,101.617 L683.769,101.617 C679.533,101.617 676.1,105.05 676.1,109.285 C676.1,110.7 677.247,111.847 678.661,111.847 C680.076,111.847 681.223,110.7 681.223,109.285 C681.223,107.879 682.363,106.739 683.769,106.739 L683.784,106.739 C685.199,106.739 686.346,107.886 686.346,109.301 C686.346,120.444 686.346,120.444 686.346,131.588 C686.346,136.265 682.189,140.877 676.854,140.877 C671.738,140.877 671.738,140.877 667.347,140.877 C662.722,140.877 662.722,140.877 657.25,140.877 C651.661,140.877 643.654,130.927 643.654,124.654 C643.654,120.821 644.76,118.314 646.922,116.833 C648.089,116.033 648.387,114.439 647.588,113.272 C646.788,112.105 645.194,111.807 644.027,112.606 Z" />
            <path d="M650.453,118.584 L650.453,83.68 C650.453,82.268 651.597,81.123 653.01,81.123 C653.015,81.123 653.015,81.123 653.014,81.123 C654.442,81.127 655.595,82.283 655.595,83.709 L655.595,110.296 C655.595,111.711 656.742,112.857 658.157,112.857 C659.572,112.857 660.718,111.711 660.718,110.296 L660.718,83.709 C660.718,79.46 657.28,76.012 653.031,76 C653.018,76 653.018,76 653.01,76 C648.768,76 645.33,79.439 645.33,83.68 L645.33,118.584 C645.33,119.998 646.476,121.145 647.891,121.145 C649.306,121.145 650.453,119.998 650.453,118.584 Z" />
            <path d="M660.718,109.299 L660.718,102.481 C660.718,101.052 661.877,99.893 663.306,99.893 C664.736,99.893 665.894,101.052 665.894,102.481 L665.894,109.299 C665.894,110.714 667.041,111.861 668.456,111.861 C669.87,111.861 671.017,110.714 671.017,109.299 L671.017,102.481 C671.017,98.222 667.565,94.77 663.306,94.77 C659.048,94.77 655.595,98.222 655.595,102.481 L655.595,109.299 C655.595,110.714 656.742,111.861 658.157,111.861 C659.572,111.861 660.718,110.714 660.718,109.299 Z" />
            <path d="M670.977,108.8 L670.977,104.168 C670.977,102.753 672.124,101.606 673.538,101.606 C674.953,101.606 676.1,102.753 676.1,104.168 L676.1,109.291 C676.1,110.706 677.247,111.852 678.661,111.852 C680.076,111.852 681.223,110.706 681.223,109.291 L681.223,104.168 C681.223,99.924 677.782,96.483 673.538,96.483 C669.294,96.483 665.854,99.924 665.854,104.168 L665.854,108.8 C665.854,110.214 667.001,111.361 668.415,111.361 C669.83,111.361 670.977,110.214 670.977,108.8 Z" />
        </g>
    </g>
</svg>