<?xml version="1.0" encoding="UTF-8"?>
<svg height="600" width="800" xmlns="http://www.w3.org/2000/svg" xmlns:xlink="http://www.w3.org/1999/xlink">
    <g id="Notes" font-family="'LucidaGrande', 'Lucida Grande', sans-serif" font-size="13">
        <rect fill="white" height="600.0" width="800.0" x="0.0" y="0.0" />
        <g font-size="13">
            <text x="18.0" y="176.0">Small</text>
            <text x="18.0" y="376.0">Medium</text>
            <text x="18.0" y="576.0">Large</text>
        </g>
        <g font-size="9">
            <text x="250.0" y="30.0">Ultralight</text>
            <text x="450.0" y="30.0">Regular</text>
            <text x="650.0" y="30.0">Black</text>
            <text id="template-version" fill="#505050" text-anchor="end" x="785.0" y="575.0">Template v.3.0</text>
            <a href="https://github.com/swhitty/SwiftDraw">
                <text fill="#505050" text-anchor="end" x="785.0" y="590.0">https://github.com/swhitty/SwiftDraw</text>
            </a>
        </g>
    </g>
    <g id="Guides" stroke="rgb(39, 170, 225)" stroke-width="0.5">
        <path id="Capline-S" d="M18,76 l800,0" />
        <path id="H-reference" d="M85,145.755 L87.685,145.755 L113.369,79.287 L114.052,79.287 L114.052,76 L112.148,76 L85,145.755 Z M95.693,121.536 L130.996,121.536 L130.263,119.313 L96.474,119.313 L95.693,121.536 Z M139.15,145.755 L141.787,145.755 L114.638,76 L113.466,76 L113.466,79.287 L139.15,145.755 Z" stroke="none" />
        <path id="Baseline-S" d="M18,146 l800,0" />
        <path id="left-margin-Ultralight-S" d="M219.999,56 l0,110" />
        <path id="right-margin-Ultralight-S" d="M310.001,56 l0,110" />
        <path id="left-margin-Regular-S" d="M419.999,56 l0,110" />
        <path id="right-margin-Regular-S" d="M510.001,56 l0,110" />
        <path id="left-margin-Black-S" d="M619.999,56 l0,110" />
        <path id="right-margin-Black-S" d="M710.001,56 l0,110" />
        <path id="Capline-M" d="M18,276 l800,0" />
        <path id="Baseline-M" d="M18,346 l800,0" />
        <path id="Capline-L" d="M18,476 l800,0" />
        <path id="Baseline-L" d="M18,546 l800,0" />
    </g>
    <g id="Symbols">
        <g id="Ultralight-S">
            <path d="M299.972,105.531 C297.681,90.33 285.673,78.321 270.472,76.028 C269.132,75.826 267.881,76.748 267.679,78.089 C267.476,79.429 268.399,80.68 269.74,80.882 C282.811,82.854 293.147,93.192 295.117,106.263 C295.319,107.603 296.57,108.526 297.911,108.324 C299.251,108.122 300.174,106.872 299.972,105.531 Z M259.866,76.032 C242.783,78.623 229.999,93.365 229.999,110.816 C229.999,128.274 242.792,143.02 259.884,145.603 C261.628,145.867 263.397,146 265.183,146 C266.962,146 268.726,145.868 270.464,145.606 C285.672,143.315 297.685,131.3 299.973,116.092 C300.175,114.751 299.252,113.501 297.911,113.299 C296.571,113.097 295.32,114.021 295.119,115.361 C293.151,128.439 282.81,138.782 269.733,140.751 C268.237,140.977 266.717,141.091 265.183,141.091 C263.643,141.091 262.119,140.976 260.618,140.749 C245.918,138.528 234.908,125.837 234.908,110.816 C234.908,95.801 245.91,83.114 260.602,80.886 C261.942,80.683 262.864,79.431 262.661,78.091 C262.457,76.75 261.206,75.829 259.866,76.032 Z" />
            <path d="M265.183,95.27 C256.597,95.27 249.636,102.231 249.636,110.817 C249.636,119.403 256.597,126.363 265.183,126.363 C273.769,126.363 280.729,119.403 280.729,110.817 C280.729,102.231 273.769,95.27 265.183,95.27 Z M265.183,100.18 C271.057,100.18 275.82,104.942 275.82,110.817 C275.82,116.691 271.057,121.454 265.183,121.454 C259.308,121.454 254.546,116.691 254.546,110.817 C254.546,104.942 259.308,100.18 265.183,100.18 Z" />
        </g>
        <g id="Regular-S">
            <path d="M499.972,105.531 C497.681,90.33 485.673,78.321 470.472,76.028 C469.132,75.826 467.881,76.748 467.679,78.089 C467.476,79.429 468.399,80.68 469.74,80.882 C482.811,82.854 493.147,93.192 495.117,106.263 C495.319,107.603 496.57,108.526 497.911,108.324 C499.251,108.122 500.174,106.872 499.972,105.531 Z M459.866,76.032 C442.783,78.623 429.999,93.365 429.999,110.816 C429.999,128.274 442.792,143.02 459.884,145.603 C461.628,145.867 463.397,146 465.183,146 C466.962,146 468.726,145.868 470.464,145.606 C485.672,143.315 497.685,131.3 499.973,116.092 C500.175,114.751 499.252,113.501 497.911,113.299 C496.571,113.097 495.32,114.021 495.119,115.361 C493.151,128.439 482.81,138.782 469.733,140.751 C468.237,140.977 466.717,141.091 465.183,141.091 C463.643,141.091 462.119,140.976 460.618,140.749 C445.918,138.528 434.908,125.837 434.908,110.816 C434.908,95.801 445.91,83.114 460.602,80.886 C461.942,80.683 462.864,79.431 462.661,78.091 C462.457,76.75 461.206,75.829 459.866,76.032 Z" />
            <path d="M465.183,95.27 C456.597,95.27 449.636,102.231 449.636,110.817 C449.636,119.403 456.597,126.363 465.183,126.363 C473.769,126.363 480.729,119.403 480.729,110.817 C480.729,102.231 473.769,95.27 465.183,95.27 Z M465.183,100.18 C471.057,100.18 475.82,104.942 475.82,110.817 C475.82,116.691 471.057,121.454 465.183,121.454 C459.308,121.454 454.546,116.691 454.546,110.817 C454.546,104.942 459.308,100.18 465.183,100.18 Z" />
        </g>
        <g id="Black-S">
            <path d="M699.972,105.531 C697.681,90.33 685.673,78.321 670.472,76.028 C669.132,75.826 667.881,76.748 667.679,78.089 C667.477,79.429 668.399,80.68 669.74,80.882 C682.811,82.854 693.147,93.192 695.117,106.263 C695.32,107.603 696.57,108.526 697.911,108.324 C699.251,108.122 700.174,106.872 699.972,105.531 Z M659.866,76.032 C642.783,78.623 629.999,93.365 629.999,110.816 C629.999,128.274 642.792,143.02 659.884,145.603 C661.628,145.867 663.397,146 665.183,146 C666.962,146 668.726,145.868 670.464,145.606 C685.672,143.315 697.685,131.3 699.973,116.092 C700.175,114.751 699.252,113.501 697.911,113.299 C696.571,113.097 695.32,114.021 695.119,115.361 C693.151,128.439 682.81,138.782 669.733,140.751 C668.237,140.977 666.717,141.091 665.183,141.091 C663.643,141.091 662.119,140.976 660.618,140.749 C645.918,138.528 634.908,125.837 634.908,110.816 C634.908,95.801 645.91,83.114 660.602,80.886 C661.942,80.683 662.864,79.431 662.661,78.091 C662.457,76.75 661.206,75.829 659.866,76.032 Z" />
            <path d="M665.183,95.27 C656.597,95.27 649.636,102.231 649.636,110.817 C649.636,119.403 656.597,126.363 665.183,126.363 C673.769,126.363 680.729,119.403 680.729,110.817 C680.729,102.231 673.769,95.27 665.183,95.27 Z M665.183,100.18 C671.057,100.18 675.82,104.942 675.82,110.817 C675.82,116.691 671.057,121.454 665.183,121.454 C659.308,121.454 654.546,116.691 654.546,110.817 C654.546,104.942 659.308,100.18 665.183,100.18 Z" />
        </g>
    </g>
</svg>