<?xml version="1.0" encoding="UTF-8"?>
<svg height="600" width="800" xmlns="http://www.w3.org/2000/svg" xmlns:xlink="http://www.w3.org/1999/xlink">
    <g id="Notes" font-family="'LucidaGrande', 'Lucida Grande', sans-serif" font-size="13">
        <rect fill="white" height="600.0" width="800.0" x="0.0" y="0.0" />
        <g font-size="13">
            <text x="18.0" y="176.0">Small</text>
            <text x="18.0" y="376.0">Medium</text>
            <text x="18.0" y="576.0">Large</text>
        </g>
        <g font-size="9">
            <text x="250.0" y="30.0">Ultralight</text>
            <text x="450.0" y="30.0">Regular</text>
            <text x="650.0" y="30.0">Black</text>
            <text id="template-version" fill="#505050" text-anchor="end" x="785.0" y="575.0">Template v.3.0</text>
            <a href="https://github.com/swhitty/SwiftDraw">
                <text fill="#505050" text-anchor="end" x="785.0" y="590.0">https://github.com/swhitty/SwiftDraw</text>
            </a>
        </g>
    </g>
    <g id="Guides" stroke="rgb(39, 170, 225)" stroke-width="0.5">
        <path id="Capline-S" d="M18,76 l800,0" />
        <path id="H-reference" d="M85,145.755 L87.685,145.755 L113.369,79.287 L114.052,79.287 L114.052,76 L112.148,76 L85,145.755 Z M95.693,121.536 L130.996,121.536 L130.263,119.313 L96.474,119.313 L95.693,121.536 Z M139.15,145.755 L141.787,145.755 L114.638,76 L113.466,76 L113.466,79.287 L139.15,145.755 Z" stroke="none" />
        <path id="Baseline-S" d="M18,146 l800,0" />
        <path id="left-margin-Ultralight-S" d="M218.293,56 l0,110" />
        <path id="right-margin-Ultralight-S" d="M311.707,56 l0,110" />
        <path id="left-margin-Regular-S" d="M418.293,56 l0,110" />
        <path id="right-margin-Regular-S" d="M511.707,56 l0,110" />
        <path id="left-margin-Black-S" d="M618.293,56 l0,110" />
        <path id="right-margin-Black-S" d="M711.707,56 l0,110" />
        <path id="Capline-M" d="M18,276 l800,0" />
        <path id="Baseline-M" d="M18,346 l800,0" />
        <path id="Capline-L" d="M18,476 l800,0" />
        <path id="Baseline-L" d="M18,546 l800,0" />
    </g>
    <g id="Symbols">
        <g id="Ultralight-S">
            <path d="M230.854,146 L299.146,146 C300.561,146 301.707,144.853 301.707,143.439 C301.707,142.025 300.561,140.878 299.146,140.878 L230.854,140.878 C229.439,140.878 228.293,142.025 228.293,143.439 C228.293,144.853 229.439,146 230.854,146 Z" />
            <path d="M275.14,76.75 L234.165,117.726 C233.165,118.726 233.165,120.347 234.165,121.347 L244.409,131.591 C244.889,132.072 245.54,132.341 246.22,132.341 L259.878,132.341 C260.557,132.341 261.209,132.072 261.689,131.591 L295.835,97.445 C296.835,96.445 296.835,94.823 295.835,93.823 L278.762,76.75 C277.762,75.75 276.14,75.75 275.14,76.75 Z M278.762,80.372 L275.14,80.372 L292.214,97.445 L292.214,93.823 L258.067,127.97 L259.878,127.22 L246.22,127.22 L248.03,127.97 L237.786,117.726 L237.786,121.347 L278.762,80.372 Z" />
        </g>
        <g id="Regular-S">
            <path d="M430.854,146 L499.146,146 C500.561,146 501.707,144.853 501.707,143.439 C501.707,142.025 500.561,140.878 499.146,140.878 L430.854,140.878 C429.439,140.878 428.293,142.025 428.293,143.439 C428.293,144.853 429.439,146 430.854,146 Z" />
            <path d="M475.14,76.75 L434.165,117.726 C433.165,118.726 433.165,120.347 434.165,121.347 L444.409,131.591 C444.889,132.072 445.54,132.341 446.22,132.341 L459.878,132.341 C460.557,132.341 461.209,132.072 461.689,131.591 L495.835,97.445 C496.835,96.445 496.835,94.823 495.835,93.823 L478.762,76.75 C477.762,75.75 476.14,75.75 475.14,76.75 Z M478.762,80.372 L475.14,80.372 L492.214,97.445 L492.214,93.823 L458.067,127.97 L459.878,127.22 L446.22,127.22 L448.03,127.97 L437.786,117.726 L437.786,121.347 L478.762,80.372 Z" />
        </g>
        <g id="Black-S">
            <path d="M630.854,146 L699.146,146 C700.561,146 701.707,144.853 701.707,143.439 C701.707,142.025 700.561,140.878 699.146,140.878 L630.854,140.878 C629.439,140.878 628.293,142.025 628.293,143.439 C628.293,144.853 629.439,146 630.854,146 Z" />
            <path d="M675.14,76.75 L634.165,117.726 C633.165,118.726 633.165,120.347 634.165,121.347 L644.409,131.591 C644.889,132.072 645.54,132.341 646.22,132.341 L659.878,132.341 C660.557,132.341 661.209,132.072 661.689,131.591 L695.835,97.445 C696.835,96.445 696.835,94.823 695.835,93.823 L678.762,76.75 C677.762,75.75 676.141,75.75 675.14,76.75 Z M678.762,80.372 L675.14,80.372 L692.214,97.445 L692.214,93.823 L658.067,127.97 L659.878,127.22 L646.22,127.22 L648.03,127.97 L637.786,117.726 L637.786,121.347 L678.762,80.372 Z" />
        </g>
    </g>
</svg>