<?xml version="1.0" encoding="UTF-8"?>
<svg height="600" width="800" xmlns="http://www.w3.org/2000/svg" xmlns:xlink="http://www.w3.org/1999/xlink">
    <g id="Notes" font-family="'LucidaGrande', 'Lucida Grande', sans-serif" font-size="13">
        <rect fill="white" height="600.0" width="800.0" x="0.0" y="0.0" />
        <g font-size="13">
            <text x="18.0" y="176.0">Small</text>
            <text x="18.0" y="376.0">Medium</text>
            <text x="18.0" y="576.0">Large</text>
        </g>
        <g font-size="9">
            <text x="250.0" y="30.0">Ultralight</text>
            <text x="450.0" y="30.0">Regular</text>
            <text x="650.0" y="30.0">Black</text>
            <text id="template-version" fill="#505050" text-anchor="end" x="785.0" y="575.0">Template v.3.0</text>
            <a href="https://github.com/swhitty/SwiftDraw">
                <text fill="#505050" text-anchor="end" x="785.0" y="590.0">https://github.com/swhitty/SwiftDraw</text>
            </a>
        </g>
    </g>
    <g id="Guides" stroke="rgb(39, 170, 225)" stroke-width="0.5">
        <path id="Capline-S" d="M18,76 l800,0" />
        <path id="H-reference" d="M85,145.755 L87.685,145.755 L113.369,79.287 L114.052,79.287 L114.052,76 L112.148,76 L85,145.755 Z M95.693,121.536 L130.996,121.536 L130.263,119.313 L96.474,119.313 L95.693,121.536 Z M139.15,145.755 L141.787,145.755 L114.638,76 L113.466,76 L113.466,79.287 L139.15,145.755 Z" stroke="none" />
        <path id="Baseline-S" d="M18,146 l800,0" />
        <path id="left-margin-Ultralight-S" d="M213.774,56 l0,110" />
        <path id="right-margin-Ultralight-S" d="M316.226,56 l0,110" />
        <path id="left-margin-Regular-S" d="M413.774,56 l0,110" />
        <path id="right-margin-Regular-S" d="M516.226,56 l0,110" />
        <path id="left-margin-Black-S" d="M613.774,56 l0,110" />
        <path id="right-margin-Black-S" d="M716.226,56 l0,110" />
        <path id="Capline-M" d="M18,276 l800,0" />
        <path id="Baseline-M" d="M18,346 l800,0" />
        <path id="Capline-L" d="M18,476 l800,0" />
        <path id="Baseline-L" d="M18,546 l800,0" />
    </g>
    <g id="Symbols">
        <g id="Ultralight-S">
            <path d="M287.363,90.639 L255.545,76.574 C252.612,75.277 249.172,76.236 247.334,78.863 L238.404,91.62 C237.494,92.921 237.81,94.715 239.111,95.626 C240.413,96.537 242.206,96.22 243.117,94.919 L252.046,82.162 C252.309,81.787 252.8,81.65 253.219,81.835 L285.038,95.9 C286.49,96.542 288.189,95.885 288.831,94.432 C289.473,92.979 288.816,91.281 287.363,90.639 Z" />
            <path d="M301.432,90.393 L228.568,90.393 C225.92,90.393 223.774,92.539 223.774,95.186 L223.774,141.206 C223.774,143.854 225.92,146 228.568,146 L301.432,146 C304.08,146 306.226,143.854 306.226,141.206 L306.226,95.186 C306.226,92.539 304.08,90.393 301.432,90.393 Z M301.432,96.145 C300.903,96.145 300.474,95.716 300.474,95.186 L300.474,141.206 C300.474,140.677 300.903,140.248 301.432,140.248 L228.568,140.248 C229.097,140.248 229.526,140.677 229.526,141.206 L229.526,95.186 C229.526,95.716 229.097,96.145 228.568,96.145 L301.432,96.145 Z" />
            <path d="M252.851,109.916 L262.635,129.091 C263.712,131.202 266.737,131.178 267.78,129.049 L277.171,109.874 C277.869,108.447 277.279,106.724 275.853,106.026 C274.426,105.327 272.703,105.917 272.004,107.344 L262.614,126.519 L267.759,126.477 L257.975,107.302 C257.253,105.887 255.52,105.325 254.105,106.047 C252.69,106.769 252.129,108.501 252.851,109.916 Z" />
        </g>
        <g id="Regular-S">
            <path d="M487.363,90.639 L455.545,76.574 C452.612,75.277 449.172,76.236 447.334,78.863 L438.404,91.62 C437.494,92.921 437.81,94.715 439.111,95.626 C440.413,96.537 442.206,96.22 443.117,94.919 L452.046,82.162 C452.309,81.787 452.8,81.65 453.219,81.835 L485.038,95.9 C486.49,96.542 488.189,95.885 488.831,94.432 C489.473,92.979 488.816,91.281 487.363,90.639 Z" />
            <path d="M501.432,90.393 L428.568,90.393 C425.92,90.393 423.774,92.539 423.774,95.186 L423.774,141.206 C423.774,143.854 425.92,146 428.568,146 L501.432,146 C504.08,146 506.226,143.854 506.226,141.206 L506.226,95.186 C506.226,92.539 504.08,90.393 501.432,90.393 Z M501.432,96.145 C500.903,96.145 500.474,95.716 500.474,95.186 L500.474,141.206 C500.474,140.677 500.903,140.248 501.432,140.248 L428.568,140.248 C429.097,140.248 429.526,140.677 429.526,141.206 L429.526,95.186 C429.526,95.716 429.097,96.145 428.568,96.145 L501.432,96.145 Z" />
            <path d="M452.851,109.916 L462.635,129.091 C463.712,131.202 466.737,131.178 467.78,129.049 L477.171,109.874 C477.869,108.447 477.279,106.724 475.853,106.026 C474.426,105.327 472.703,105.917 472.004,107.344 L462.614,126.519 L467.759,126.477 L457.975,107.302 C457.253,105.887 455.52,105.325 454.105,106.047 C452.69,106.769 452.129,108.501 452.851,109.916 Z" />
        </g>
        <g id="Black-S">
            <path d="M687.363,90.639 L655.545,76.574 C652.612,75.277 649.172,76.236 647.334,78.863 L638.404,91.62 C637.494,92.921 637.81,94.715 639.111,95.626 C640.413,96.537 642.206,96.22 643.117,94.919 L652.046,82.162 C652.309,81.787 652.8,81.65 653.219,81.835 L685.037,95.9 C686.49,96.542 688.189,95.885 688.831,94.432 C689.473,92.979 688.816,91.281 687.363,90.639 Z" />
            <path d="M701.432,90.393 L628.568,90.393 C625.92,90.393 623.774,92.539 623.774,95.186 L623.774,141.206 C623.774,143.854 625.92,146 628.568,146 L701.432,146 C704.08,146 706.226,143.854 706.226,141.206 L706.226,95.186 C706.226,92.539 704.08,90.393 701.432,90.393 Z M701.432,96.145 C700.903,96.145 700.474,95.716 700.474,95.186 L700.474,141.206 C700.474,140.677 700.903,140.248 701.432,140.248 L628.568,140.248 C629.097,140.248 629.526,140.677 629.526,141.206 L629.526,95.186 C629.526,95.716 629.097,96.145 628.568,96.145 L701.432,96.145 Z" />
            <path d="M652.851,109.916 L662.635,129.091 C663.712,131.202 666.737,131.178 667.78,129.049 L677.171,109.874 C677.869,108.447 677.279,106.724 675.853,106.026 C674.426,105.327 672.703,105.917 672.004,107.344 L662.614,126.519 L667.759,126.477 L657.975,107.302 C657.253,105.887 655.52,105.325 654.105,106.047 C652.69,106.769 652.129,108.501 652.851,109.916 Z" />
        </g>
    </g>
</svg>