<?xml version="1.0" encoding="UTF-8"?>
<svg height="600" width="800" xmlns="http://www.w3.org/2000/svg" xmlns:xlink="http://www.w3.org/1999/xlink">
    <g id="Notes" font-family="'LucidaGrande', 'Lucida Grande', sans-serif" font-size="13">
        <rect fill="white" height="600.0" width="800.0" x="0.0" y="0.0" />
        <g font-size="13">
            <text x="18.0" y="176.0">Small</text>
            <text x="18.0" y="376.0">Medium</text>
            <text x="18.0" y="576.0">Large</text>
        </g>
        <g font-size="9">
            <text x="250.0" y="30.0">Ultralight</text>
            <text x="450.0" y="30.0">Regular</text>
            <text x="650.0" y="30.0">Black</text>
            <text id="template-version" fill="#505050" text-anchor="end" x="785.0" y="575.0">Template v.3.0</text>
            <a href="https://github.com/swhitty/SwiftDraw">
                <text fill="#505050" text-anchor="end" x="785.0" y="590.0">https://github.com/swhitty/SwiftDraw</text>
            </a>
        </g>
    </g>
    <g id="Guides" stroke="rgb(39, 170, 225)" stroke-width="0.5">
        <path id="Capline-S" d="M18,76 l800,0" />
        <path id="H-reference" d="M85,145.755 L87.685,145.755 L113.369,79.287 L114.052,79.287 L114.052,76 L112.148,76 L85,145.755 Z M95.693,121.536 L130.996,121.536 L130.263,119.313 L96.474,119.313 L95.693,121.536 Z M139.15,145.755 L141.787,145.755 L114.638,76 L113.466,76 L113.466,79.287 L139.15,145.755 Z" stroke="none" />
        <path id="Baseline-S" d="M18,146 l800,0" />
        <path id="left-margin-Ultralight-S" d="M217.375,56 l0,110" />
        <path id="right-margin-Ultralight-S" d="M312.625,56 l0,110" />
        <path id="left-margin-Regular-S" d="M417.375,56 l0,110" />
        <path id="right-margin-Regular-S" d="M512.625,56 l0,110" />
        <path id="left-margin-Black-S" d="M617.375,56 l0,110" />
        <path id="right-margin-Black-S" d="M712.625,56 l0,110" />
        <path id="Capline-M" d="M18,276 l800,0" />
        <path id="Baseline-M" d="M18,346 l800,0" />
        <path id="Capline-L" d="M18,476 l800,0" />
        <path id="Baseline-L" d="M18,546 l800,0" />
    </g>
    <g id="Symbols">
        <g id="Ultralight-S">
            <path d="M276.406,99.226 C274.636,110.733 271.035,117.125 265.875,117.125 C260.911,117.125 258.436,112.588 255.308,99.035 C252.658,87.55 255.898,81.25 265.875,81.25 C275.321,81.25 278.219,87.442 276.406,99.226 Z M281.595,100.024 C283.829,85.504 279.381,76 265.875,76 C251.928,76 246.873,85.829 250.193,100.215 C251.904,107.63 253.171,111.785 255.04,115.21 C257.572,119.853 261.096,122.375 265.875,122.375 C274.679,122.375 279.463,113.882 281.595,100.024 Z" />
            <path d="M281.665,91.92 C284.144,89.608 286.538,88.862 290.808,89.127 C295.798,89.438 297.375,92.106 297.375,99.549 C297.375,100.998 298.55,102.174 300,102.174 C301.45,102.174 302.625,100.998 302.625,99.549 C302.625,89.677 299.512,84.409 291.134,83.888 C285.495,83.537 281.681,84.726 278.085,88.08 C277.025,89.069 276.966,90.73 277.955,91.79 C278.944,92.85 280.605,92.909 281.665,91.92 Z M297.375,99.549 C297.375,106.58 294.989,110.654 292.036,109.859 C289.182,109.09 288.903,105.886 291.009,103.641 C293.01,101.506 296.491,100.733 298.83,101.898 L297.375,99.549 Z M302.625,99.549 L302.625,97.924 L301.17,97.199 C296.673,94.959 290.71,96.283 287.179,100.05 C282.674,104.854 283.381,112.964 290.67,114.928 C298.259,116.973 302.625,109.517 302.625,99.549 Z" />
            <path d="M253.601,87.147 C250.208,84.186 246.492,83.478 240.473,83.89 C232.378,84.443 227.375,90.692 227.375,99.626 C227.375,101.076 228.55,102.251 230,102.251 C231.45,102.251 232.625,101.076 232.625,99.626 C232.625,93.294 235.679,89.48 240.831,89.127 C245.591,88.802 248.049,89.27 250.149,91.103 C251.241,92.056 252.899,91.943 253.853,90.851 C254.806,89.759 254.693,88.101 253.601,87.147 Z M227.375,99.626 C227.375,108.839 233.832,117.049 241.05,114.911 C247.81,112.908 248.443,104.935 244.357,100.143 C241.131,96.359 233.059,94.958 228.739,97.324 L227.375,98.071 L227.375,99.626 Z M232.625,99.626 L231.261,101.929 C233.418,100.747 238.764,101.676 240.362,103.549 C242.288,105.807 242.023,109.147 239.559,109.877 C236.519,110.778 232.625,105.827 232.625,99.626 Z" />
            <path d="M255.375,115.375 L255.375,143.375 C255.375,144.825 256.55,146 258,146 C259.45,146 260.625,144.825 260.625,143.375 L260.625,115.375 C260.625,113.925 259.45,112.75 258,112.75 C256.55,112.75 255.375,113.925 255.375,115.375 Z" />
            <path d="M271.125,115.375 L271.125,143.375 C271.125,144.825 272.3,146 273.75,146 C275.2,146 276.375,144.825 276.375,143.375 L276.375,115.375 C276.375,113.925 275.2,112.75 273.75,112.75 C272.3,112.75 271.125,113.925 271.125,115.375 Z" />
        </g>
        <g id="Regular-S">
            <path d="M476.406,99.226 C474.636,110.733 471.035,117.125 465.875,117.125 C460.911,117.125 458.436,112.588 455.308,99.035 C452.658,87.55 455.898,81.25 465.875,81.25 C475.321,81.25 478.219,87.442 476.406,99.226 Z M481.595,100.024 C483.829,85.504 479.381,76 465.875,76 C451.928,76 446.873,85.829 450.193,100.215 C451.904,107.63 453.171,111.785 455.04,115.21 C457.572,119.853 461.096,122.375 465.875,122.375 C474.679,122.375 479.463,113.882 481.595,100.024 Z" />
            <path d="M481.665,91.92 C484.144,89.608 486.538,88.862 490.808,89.127 C495.798,89.438 497.375,92.106 497.375,99.549 C497.375,100.998 498.55,102.174 500,102.174 C501.45,102.174 502.625,100.998 502.625,99.549 C502.625,89.677 499.512,84.409 491.134,83.888 C485.495,83.537 481.681,84.726 478.085,88.08 C477.025,89.069 476.966,90.73 477.955,91.79 C478.944,92.85 480.605,92.909 481.665,91.92 Z M497.375,99.549 C497.375,106.58 494.989,110.654 492.036,109.859 C489.182,109.09 488.903,105.886 491.009,103.641 C493.01,101.506 496.491,100.733 498.83,101.898 L497.375,99.549 Z M502.625,99.549 L502.625,97.924 L501.17,97.199 C496.673,94.959 490.71,96.283 487.179,100.05 C482.674,104.854 483.381,112.964 490.67,114.928 C498.259,116.973 502.625,109.517 502.625,99.549 Z" />
            <path d="M453.601,87.147 C450.208,84.186 446.492,83.478 440.473,83.89 C432.378,84.443 427.375,90.692 427.375,99.626 C427.375,101.076 428.55,102.251 430,102.251 C431.45,102.251 432.625,101.076 432.625,99.626 C432.625,93.294 435.679,89.48 440.831,89.127 C445.591,88.802 448.049,89.27 450.149,91.103 C451.241,92.056 452.899,91.943 453.853,90.851 C454.806,89.759 454.693,88.101 453.601,87.147 Z M427.375,99.626 C427.375,108.839 433.832,117.049 441.05,114.911 C447.81,112.908 448.443,104.935 444.357,100.143 C441.131,96.359 433.059,94.958 428.739,97.324 L427.375,98.071 L427.375,99.626 Z M432.625,99.626 L431.261,101.929 C433.418,100.747 438.764,101.676 440.362,103.549 C442.288,105.807 442.023,109.147 439.559,109.877 C436.519,110.778 432.625,105.827 432.625,99.626 Z" />
            <path d="M455.375,115.375 L455.375,143.375 C455.375,144.825 456.55,146 458,146 C459.45,146 460.625,144.825 460.625,143.375 L460.625,115.375 C460.625,113.925 459.45,112.75 458,112.75 C456.55,112.75 455.375,113.925 455.375,115.375 Z" />
            <path d="M471.125,115.375 L471.125,143.375 C471.125,144.825 472.3,146 473.75,146 C475.2,146 476.375,144.825 476.375,143.375 L476.375,115.375 C476.375,113.925 475.2,112.75 473.75,112.75 C472.3,112.75 471.125,113.925 471.125,115.375 Z" />
        </g>
        <g id="Black-S">
            <path d="M676.406,99.226 C674.636,110.733 671.035,117.125 665.875,117.125 C660.911,117.125 658.436,112.588 655.308,99.035 C652.658,87.55 655.898,81.25 665.875,81.25 C675.321,81.25 678.219,87.442 676.406,99.226 Z M681.595,100.024 C683.829,85.504 679.381,76 665.875,76 C651.928,76 646.873,85.829 650.193,100.215 C651.904,107.63 653.171,111.785 655.04,115.21 C657.572,119.853 661.096,122.375 665.875,122.375 C674.679,122.375 679.463,113.882 681.595,100.024 Z" />
            <path d="M681.665,91.92 C684.144,89.608 686.538,88.862 690.808,89.127 C695.798,89.438 697.375,92.106 697.375,99.549 C697.375,100.998 698.55,102.174 700,102.174 C701.45,102.174 702.625,100.998 702.625,99.549 C702.625,89.677 699.512,84.409 691.134,83.888 C685.495,83.537 681.681,84.726 678.085,88.08 C677.025,89.069 676.966,90.73 677.955,91.79 C678.944,92.85 680.605,92.909 681.665,91.92 Z M697.375,99.549 C697.375,106.58 694.989,110.654 692.036,109.859 C689.182,109.09 688.903,105.886 691.009,103.641 C693.01,101.506 696.491,100.733 698.83,101.898 L697.375,99.549 Z M702.625,99.549 L702.625,97.924 L701.17,97.199 C696.673,94.959 690.71,96.283 687.179,100.05 C682.674,104.854 683.381,112.964 690.67,114.928 C698.259,116.973 702.625,109.517 702.625,99.549 Z" />
            <path d="M653.601,87.147 C650.208,84.186 646.492,83.478 640.473,83.89 C632.378,84.443 627.375,90.692 627.375,99.626 C627.375,101.076 628.55,102.251 630,102.251 C631.45,102.251 632.625,101.076 632.625,99.626 C632.625,93.294 635.679,89.48 640.831,89.127 C645.591,88.802 648.049,89.27 650.149,91.103 C651.241,92.056 652.899,91.943 653.853,90.851 C654.806,89.759 654.693,88.101 653.601,87.147 Z M627.375,99.626 C627.375,108.839 633.832,117.049 641.05,114.911 C647.81,112.908 648.443,104.935 644.357,100.143 C641.131,96.359 633.059,94.958 628.739,97.324 L627.375,98.071 L627.375,99.626 Z M632.625,99.626 L631.261,101.929 C633.418,100.747 638.764,101.676 640.362,103.549 C642.288,105.807 642.023,109.147 639.559,109.877 C636.519,110.778 632.625,105.827 632.625,99.626 Z" />
            <path d="M655.375,115.375 L655.375,143.375 C655.375,144.825 656.55,146 658,146 C659.45,146 660.625,144.825 660.625,143.375 L660.625,115.375 C660.625,113.925 659.45,112.75 658,112.75 C656.55,112.75 655.375,113.925 655.375,115.375 Z" />
            <path d="M671.125,115.375 L671.125,143.375 C671.125,144.825 672.3,146 673.75,146 C675.2,146 676.375,144.825 676.375,143.375 L676.375,115.375 C676.375,113.925 675.2,112.75 673.75,112.75 C672.3,112.75 671.125,113.925 671.125,115.375 Z" />
        </g>
    </g>
</svg>