<?xml version="1.0" encoding="UTF-8"?>
<svg height="600" width="800" xmlns="http://www.w3.org/2000/svg" xmlns:xlink="http://www.w3.org/1999/xlink">
    <g id="Notes" font-family="'LucidaGrande', 'Lucida Grande', sans-serif" font-size="13">
        <rect fill="white" height="600.0" width="800.0" x="0.0" y="0.0" />
        <g font-size="13">
            <text x="18.0" y="176.0">Small</text>
            <text x="18.0" y="376.0">Medium</text>
            <text x="18.0" y="576.0">Large</text>
        </g>
        <g font-size="9">
            <text x="250.0" y="30.0">Ultralight</text>
            <text x="450.0" y="30.0">Regular</text>
            <text x="650.0" y="30.0">Black</text>
            <text id="template-version" fill="#505050" text-anchor="end" x="785.0" y="575.0">Template v.3.0</text>
            <a href="https://github.com/swhitty/SwiftDraw">
                <text fill="#505050" text-anchor="end" x="785.0" y="590.0">https://github.com/swhitty/SwiftDraw</text>
            </a>
        </g>
    </g>
    <g id="Guides" stroke="rgb(39, 170, 225)" stroke-width="0.5">
        <path id="Capline-S" d="M18,76 l800,0" />
        <path id="H-reference" d="M85,145.755 L87.685,145.755 L113.369,79.287 L114.052,79.287 L114.052,76 L112.148,76 L85,145.755 Z M95.693,121.536 L130.996,121.536 L130.263,119.313 L96.474,119.313 L95.693,121.536 Z M139.15,145.755 L141.787,145.755 L114.638,76 L113.466,76 L113.466,79.287 L139.15,145.755 Z" stroke="none" />
        <path id="Baseline-S" d="M18,146 l800,0" />
        <path id="left-margin-Ultralight-S" d="M221,56 l0,110" />
        <path id="right-margin-Ultralight-S" d="M309,56 l0,110" />
        <path id="left-margin-Regular-S" d="M421,56 l0,110" />
        <path id="right-margin-Regular-S" d="M509,56 l0,110" />
        <path id="left-margin-Black-S" d="M621,56 l0,110" />
        <path id="right-margin-Black-S" d="M709,56 l0,110" />
        <path id="Capline-M" d="M18,276 l800,0" />
        <path id="Baseline-M" d="M18,346 l800,0" />
        <path id="Capline-L" d="M18,476 l800,0" />
        <path id="Baseline-L" d="M18,546 l800,0" />
    </g>
    <g id="Symbols">
        <g id="Ultralight-S">
            <path d="M252.584,105.212 C244.661,107.7 239.167,115.068 239.167,123.5 C239.167,134.086 247.748,142.667 258.333,142.667 C264.438,142.667 270.07,139.79 273.667,135.002 C274.127,134.389 274.551,133.749 274.934,133.085 C275.626,131.89 275.217,130.361 274.022,129.669 C272.827,128.978 271.298,129.386 270.607,130.581 C270.323,131.072 270.009,131.546 269.669,131.999 C267.007,135.543 262.849,137.667 258.333,137.667 C250.509,137.667 244.167,131.324 244.167,123.5 C244.167,117.267 248.229,111.82 254.082,109.982 C255.4,109.568 256.132,108.165 255.718,106.848 C255.305,105.53 253.901,104.798 252.584,105.212 Z" />
            <path d="M288.333,102.667 C281.153,102.667 275.552,101.546 265.897,97.833 C264.26,97.203 262.5,98.412 262.5,100.167 L262.5,120.167 C262.5,121.547 263.619,122.667 265,122.667 L288.333,122.667 L285.833,120.167 L285.833,143.5 C285.833,144.881 286.953,146 288.333,146 C289.714,146 290.833,144.881 290.833,143.5 L290.833,120.167 C290.833,118.786 289.714,117.667 288.333,117.667 L265,117.667 L267.5,120.167 L267.5,100.167 L264.103,102.5 C274.309,106.426 280.514,107.667 288.333,107.667 C289.714,107.667 290.833,106.547 290.833,105.167 C290.833,103.786 289.714,102.667 288.333,102.667 Z" />
            <path d="M260.833,85.167 C260.833,82.865 262.699,81 265,81 C267.301,81 269.167,82.865 269.167,85.167 C269.167,87.468 267.301,89.333 265,89.333 C262.699,89.333 260.833,87.468 260.833,85.167 Z M255.833,85.167 C255.833,90.229 259.937,94.333 265,94.333 C270.063,94.333 274.167,90.229 274.167,85.167 C274.167,80.104 270.063,76 265,76 C259.937,76 255.833,80.104 255.833,85.167 Z" />
        </g>
        <g id="Regular-S">
            <path d="M452.584,105.212 C444.661,107.7 439.167,115.068 439.167,123.5 C439.167,134.086 447.748,142.667 458.333,142.667 C464.438,142.667 470.07,139.79 473.667,135.002 C474.127,134.389 474.551,133.749 474.934,133.085 C475.626,131.89 475.217,130.361 474.022,129.669 C472.827,128.978 471.298,129.386 470.607,130.581 C470.323,131.072 470.009,131.546 469.669,131.999 C467.007,135.543 462.849,137.667 458.333,137.667 C450.509,137.667 444.167,131.324 444.167,123.5 C444.167,117.267 448.229,111.82 454.082,109.982 C455.4,109.568 456.132,108.165 455.718,106.848 C455.305,105.53 453.901,104.798 452.584,105.212 Z" />
            <path d="M488.333,102.667 C481.153,102.667 475.552,101.546 465.897,97.833 C464.26,97.203 462.5,98.412 462.5,100.167 L462.5,120.167 C462.5,121.547 463.619,122.667 465,122.667 L488.333,122.667 L485.833,120.167 L485.833,143.5 C485.833,144.881 486.953,146 488.333,146 C489.714,146 490.833,144.881 490.833,143.5 L490.833,120.167 C490.833,118.786 489.714,117.667 488.333,117.667 L465,117.667 L467.5,120.167 L467.5,100.167 L464.103,102.5 C474.309,106.426 480.514,107.667 488.333,107.667 C489.714,107.667 490.833,106.547 490.833,105.167 C490.833,103.786 489.714,102.667 488.333,102.667 Z" />
            <path d="M460.833,85.167 C460.833,82.865 462.699,81 465,81 C467.301,81 469.167,82.865 469.167,85.167 C469.167,87.468 467.301,89.333 465,89.333 C462.699,89.333 460.833,87.468 460.833,85.167 Z M455.833,85.167 C455.833,90.229 459.937,94.333 465,94.333 C470.063,94.333 474.167,90.229 474.167,85.167 C474.167,80.104 470.063,76 465,76 C459.937,76 455.833,80.104 455.833,85.167 Z" />
        </g>
        <g id="Black-S">
            <path d="M652.584,105.212 C644.661,107.7 639.167,115.068 639.167,123.5 C639.167,134.086 647.748,142.667 658.333,142.667 C664.438,142.667 670.07,139.79 673.667,135.002 C674.127,134.389 674.55,133.749 674.934,133.085 C675.626,131.89 675.218,130.361 674.022,129.669 C672.827,128.978 671.298,129.386 670.607,130.581 C670.323,131.072 670.009,131.546 669.669,131.999 C667.007,135.543 662.849,137.667 658.333,137.667 C650.509,137.667 644.167,131.324 644.167,123.5 C644.167,117.267 648.229,111.82 654.082,109.982 C655.4,109.568 656.132,108.165 655.718,106.848 C655.305,105.53 653.901,104.798 652.584,105.212 Z" />
            <path d="M688.333,102.667 C681.153,102.667 675.552,101.546 665.897,97.833 C664.26,97.203 662.5,98.412 662.5,100.167 L662.5,120.167 C662.5,121.547 663.619,122.667 665,122.667 L688.333,122.667 L685.833,120.167 L685.833,143.5 C685.833,144.881 686.953,146 688.333,146 C689.714,146 690.833,144.881 690.833,143.5 L690.833,120.167 C690.833,118.786 689.714,117.667 688.333,117.667 L665,117.667 L667.5,120.167 L667.5,100.167 L664.103,102.5 C674.309,106.426 680.514,107.667 688.333,107.667 C689.714,107.667 690.833,106.547 690.833,105.167 C690.833,103.786 689.714,102.667 688.333,102.667 Z" />
            <path d="M660.833,85.167 C660.833,82.865 662.699,81 665,81 C667.301,81 669.167,82.865 669.167,85.167 C669.167,87.468 667.301,89.333 665,89.333 C662.699,89.333 660.833,87.468 660.833,85.167 Z M655.833,85.167 C655.833,90.229 659.937,94.333 665,94.333 C670.063,94.333 674.167,90.229 674.167,85.167 C674.167,80.104 670.063,76 665,76 C659.937,76 655.833,80.104 655.833,85.167 Z" />
        </g>
    </g>
</svg>