<?xml version="1.0" encoding="UTF-8"?>
<svg height="600" width="800" xmlns="http://www.w3.org/2000/svg" xmlns:xlink="http://www.w3.org/1999/xlink">
    <g id="Notes" font-family="'LucidaGrande', 'Lucida Grande', sans-serif" font-size="13">
        <rect fill="white" height="600.0" width="800.0" x="0.0" y="0.0" />
        <g font-size="13">
            <text x="18.0" y="176.0">Small</text>
            <text x="18.0" y="376.0">Medium</text>
            <text x="18.0" y="576.0">Large</text>
        </g>
        <g font-size="9">
            <text x="250.0" y="30.0">Ultralight</text>
            <text x="450.0" y="30.0">Regular</text>
            <text x="650.0" y="30.0">Black</text>
            <text id="template-version" fill="#505050" text-anchor="end" x="785.0" y="575.0">Template v.3.0</text>
            <a href="https://github.com/swhitty/SwiftDraw">
                <text fill="#505050" text-anchor="end" x="785.0" y="590.0">https://github.com/swhitty/SwiftDraw</text>
            </a>
        </g>
    </g>
    <g id="Guides" stroke="rgb(39, 170, 225)" stroke-width="0.5">
        <path id="Capline-S" d="M18,76 l800,0" />
        <path id="H-reference" d="M85,145.755 L87.685,145.755 L113.369,79.287 L114.052,79.287 L114.052,76 L112.148,76 L85,145.755 Z M95.693,121.536 L130.996,121.536 L130.263,119.313 L96.474,119.313 L95.693,121.536 Z M139.15,145.755 L141.787,145.755 L114.638,76 L113.466,76 L113.466,79.287 L139.15,145.755 Z" stroke="none" />
        <path id="Baseline-S" d="M18,146 l800,0" />
        <path id="left-margin-Ultralight-S" d="M218.293,56 l0,110" />
        <path id="right-margin-Ultralight-S" d="M311.707,56 l0,110" />
        <path id="left-margin-Regular-S" d="M418.293,56 l0,110" />
        <path id="right-margin-Regular-S" d="M511.707,56 l0,110" />
        <path id="left-margin-Black-S" d="M618.293,56 l0,110" />
        <path id="right-margin-Black-S" d="M711.707,56 l0,110" />
        <path id="Capline-M" d="M18,276 l800,0" />
        <path id="Baseline-M" d="M18,346 l800,0" />
        <path id="Capline-L" d="M18,476 l800,0" />
        <path id="Baseline-L" d="M18,546 l800,0" />
    </g>
    <g id="Symbols">
        <g id="Ultralight-S">
            <path d="M230.854,81.122 L299.146,81.122 L296.585,78.561 L296.585,92.22 L297.829,90.023 L295.441,91.456 C292.467,93.24 288.752,93.24 285.778,91.456 L283.391,90.023 C282.58,89.537 281.567,89.537 280.756,90.023 L278.368,91.456 C275.394,93.24 271.679,93.24 268.705,91.456 L266.318,90.023 C265.507,89.537 264.493,89.537 263.682,90.023 L261.295,91.456 C258.321,93.24 254.606,93.24 251.632,91.456 L249.244,90.023 C248.433,89.537 247.42,89.537 246.609,90.023 L244.222,91.456 C241.248,93.24 237.533,93.24 234.559,91.456 L232.171,90.023 L233.415,92.22 L233.415,78.561 L230.854,81.122 Z M230.854,76 C229.439,76 228.293,77.147 228.293,78.561 L228.293,92.22 C228.293,93.119 228.765,93.953 229.536,94.416 L231.924,95.848 C236.52,98.606 242.261,98.606 246.857,95.848 L249.244,94.416 L246.609,94.416 L248.997,95.848 C253.593,98.606 259.334,98.606 263.93,95.848 L266.318,94.416 L263.682,94.416 L266.07,95.848 C270.666,98.606 276.407,98.606 281.003,95.848 L283.391,94.416 L280.756,94.416 L283.143,95.848 C287.739,98.606 293.48,98.606 298.076,95.848 L300.464,94.416 C301.235,93.953 301.707,93.119 301.707,92.22 L301.707,78.561 C301.707,77.147 300.561,76 299.146,76 L230.854,76 Z" />
            <path d="M293.171,112.707 L293.171,143.439 L295.732,140.878 L234.268,140.878 L236.829,143.439 L236.829,112.707 L234.268,115.268 L295.732,115.268 L293.171,112.707 Z M298.293,112.707 C298.293,111.293 297.146,110.146 295.732,110.146 L234.268,110.146 C232.854,110.146 231.707,111.293 231.707,112.707 L231.707,143.439 C231.707,144.853 232.854,146 234.268,146 L295.732,146 C297.146,146 298.293,144.853 298.293,143.439 L298.293,112.707 Z" />
            <path d="M236.829,97.341 L236.829,112.707 C236.829,114.122 237.976,115.268 239.39,115.268 C240.805,115.268 241.951,114.122 241.951,112.707 L241.951,97.341 C241.951,95.927 240.805,94.78 239.39,94.78 C237.976,94.78 236.829,95.927 236.829,97.341 Z" />
            <path d="M288.049,97.341 L288.049,112.707 C288.049,114.122 289.195,115.268 290.61,115.268 C292.024,115.268 293.171,114.122 293.171,112.707 L293.171,97.341 C293.171,95.927 292.024,94.78 290.61,94.78 C289.195,94.78 288.049,95.927 288.049,97.341 Z" />
        </g>
        <g id="Regular-S">
            <path d="M430.854,81.122 L499.146,81.122 L496.585,78.561 L496.585,92.22 L497.829,90.023 L495.441,91.456 C492.467,93.24 488.752,93.24 485.778,91.456 L483.391,90.023 C482.58,89.537 481.567,89.537 480.756,90.023 L478.368,91.456 C475.394,93.24 471.679,93.24 468.705,91.456 L466.318,90.023 C465.507,89.537 464.493,89.537 463.682,90.023 L461.295,91.456 C458.321,93.24 454.606,93.24 451.632,91.456 L449.244,90.023 C448.433,89.537 447.42,89.537 446.609,90.023 L444.222,91.456 C441.248,93.24 437.533,93.24 434.559,91.456 L432.171,90.023 L433.415,92.22 L433.415,78.561 L430.854,81.122 Z M430.854,76 C429.439,76 428.293,77.147 428.293,78.561 L428.293,92.22 C428.293,93.119 428.765,93.953 429.536,94.416 L431.924,95.848 C436.52,98.606 442.261,98.606 446.857,95.848 L449.244,94.416 L446.609,94.416 L448.997,95.848 C453.593,98.606 459.334,98.606 463.93,95.848 L466.318,94.416 L463.682,94.416 L466.07,95.848 C470.666,98.606 476.407,98.606 481.003,95.848 L483.391,94.416 L480.756,94.416 L483.143,95.848 C487.739,98.606 493.48,98.606 498.076,95.848 L500.464,94.416 C501.235,93.953 501.707,93.119 501.707,92.22 L501.707,78.561 C501.707,77.147 500.561,76 499.146,76 L430.854,76 Z" />
            <path d="M493.171,112.707 L493.171,143.439 L495.732,140.878 L434.268,140.878 L436.829,143.439 L436.829,112.707 L434.268,115.268 L495.732,115.268 L493.171,112.707 Z M498.293,112.707 C498.293,111.293 497.146,110.146 495.732,110.146 L434.268,110.146 C432.854,110.146 431.707,111.293 431.707,112.707 L431.707,143.439 C431.707,144.853 432.854,146 434.268,146 L495.732,146 C497.146,146 498.293,144.853 498.293,143.439 L498.293,112.707 Z" />
            <path d="M436.829,97.341 L436.829,112.707 C436.829,114.122 437.976,115.268 439.39,115.268 C440.805,115.268 441.951,114.122 441.951,112.707 L441.951,97.341 C441.951,95.927 440.805,94.78 439.39,94.78 C437.976,94.78 436.829,95.927 436.829,97.341 Z" />
            <path d="M488.049,97.341 L488.049,112.707 C488.049,114.122 489.195,115.268 490.61,115.268 C492.024,115.268 493.171,114.122 493.171,112.707 L493.171,97.341 C493.171,95.927 492.024,94.78 490.61,94.78 C489.195,94.78 488.049,95.927 488.049,97.341 Z" />
        </g>
        <g id="Black-S">
            <path d="M630.854,81.122 L699.146,81.122 L696.585,78.561 L696.585,92.22 L697.829,90.023 L695.441,91.456 C692.467,93.24 688.752,93.24 685.779,91.456 L683.391,90.023 C682.58,89.537 681.567,89.537 680.756,90.023 L678.368,91.456 C675.394,93.24 671.679,93.24 668.705,91.456 L666.318,90.023 C665.507,89.537 664.493,89.537 663.682,90.023 L661.295,91.456 C658.321,93.24 654.606,93.24 651.632,91.456 L649.244,90.023 C648.433,89.537 647.42,89.537 646.609,90.023 L644.222,91.456 C641.248,93.24 637.533,93.24 634.559,91.456 L632.171,90.023 L633.415,92.22 L633.415,78.561 L630.854,81.122 Z M630.854,76 C629.439,76 628.293,77.147 628.293,78.561 L628.293,92.22 C628.293,93.119 628.765,93.953 629.536,94.416 L631.924,95.848 C636.52,98.606 642.261,98.606 646.857,95.848 L649.244,94.416 L646.609,94.416 L648.997,95.848 C653.593,98.606 659.334,98.606 663.93,95.848 L666.318,94.416 L663.682,94.416 L666.07,95.848 C670.666,98.606 676.407,98.606 681.003,95.848 L683.391,94.416 L680.756,94.416 L683.143,95.848 C687.739,98.606 693.481,98.606 698.076,95.848 L700.464,94.416 C701.235,93.953 701.707,93.119 701.707,92.22 L701.707,78.561 C701.707,77.147 700.561,76 699.146,76 L630.854,76 Z" />
            <path d="M693.171,112.707 L693.171,143.439 L695.732,140.878 L634.268,140.878 L636.829,143.439 L636.829,112.707 L634.268,115.268 L695.732,115.268 L693.171,112.707 Z M698.293,112.707 C698.293,111.293 697.146,110.146 695.732,110.146 L634.268,110.146 C632.854,110.146 631.707,111.293 631.707,112.707 L631.707,143.439 C631.707,144.853 632.854,146 634.268,146 L695.732,146 C697.146,146 698.293,144.853 698.293,143.439 L698.293,112.707 Z" />
            <path d="M636.829,97.341 L636.829,112.707 C636.829,114.122 637.976,115.268 639.39,115.268 C640.805,115.268 641.951,114.122 641.951,112.707 L641.951,97.341 C641.951,95.927 640.805,94.78 639.39,94.78 C637.976,94.78 636.829,95.927 636.829,97.341 Z" />
            <path d="M688.049,97.341 L688.049,112.707 C688.049,114.122 689.195,115.268 690.61,115.268 C692.024,115.268 693.171,114.122 693.171,112.707 L693.171,97.341 C693.171,95.927 692.024,94.78 690.61,94.78 C689.195,94.78 688.049,95.927 688.049,97.341 Z" />
        </g>
    </g>
</svg>