<?xml version="1.0" encoding="UTF-8"?>
<svg height="600" width="800" xmlns="http://www.w3.org/2000/svg" xmlns:xlink="http://www.w3.org/1999/xlink">
    <g id="Notes" font-family="'LucidaGrande', 'Lucida Grande', sans-serif" font-size="13">
        <rect fill="white" height="600.0" width="800.0" x="0.0" y="0.0" />
        <g font-size="13">
            <text x="18.0" y="176.0">Small</text>
            <text x="18.0" y="376.0">Medium</text>
            <text x="18.0" y="576.0">Large</text>
        </g>
        <g font-size="9">
            <text x="250.0" y="30.0">Ultralight</text>
            <text x="450.0" y="30.0">Regular</text>
            <text x="650.0" y="30.0">Black</text>
            <text id="template-version" fill="#505050" text-anchor="end" x="785.0" y="575.0">Template v.3.0</text>
            <a href="https://github.com/swhitty/SwiftDraw">
                <text fill="#505050" text-anchor="end" x="785.0" y="590.0">https://github.com/swhitty/SwiftDraw</text>
            </a>
        </g>
    </g>
    <g id="Guides" stroke="rgb(39, 170, 225)" stroke-width="0.5">
        <path id="Capline-S" d="M18,76 l800,0" />
        <path id="H-reference" d="M85,145.755 L87.685,145.755 L113.369,79.287 L114.052,79.287 L114.052,76 L112.148,76 L85,145.755 Z M95.693,121.536 L130.996,121.536 L130.263,119.313 L96.474,119.313 L95.693,121.536 Z M139.15,145.755 L141.787,145.755 L114.638,76 L113.466,76 L113.466,79.287 L139.15,145.755 Z" stroke="none" />
        <path id="Baseline-S" d="M18,146 l800,0" />
        <path id="left-margin-Ultralight-S" d="M220,56 l0,110" />
        <path id="right-margin-Ultralight-S" d="M310,56 l0,110" />
        <path id="left-margin-Regular-S" d="M420,56 l0,110" />
        <path id="right-margin-Regular-S" d="M510,56 l0,110" />
        <path id="left-margin-Black-S" d="M620,56 l0,110" />
        <path id="right-margin-Black-S" d="M710,56 l0,110" />
        <path id="Capline-M" d="M18,276 l800,0" />
        <path id="Baseline-M" d="M18,346 l800,0" />
        <path id="Capline-L" d="M18,476 l800,0" />
        <path id="Baseline-L" d="M18,546 l800,0" />
    </g>
    <g id="Symbols">
        <g id="Ultralight-S">
            <path d="M294.615,111 L294.615,137.923 C294.615,138.637 294.332,139.322 293.827,139.827 C293.322,140.332 292.637,140.615 291.923,140.615 L238.077,140.615 C237.363,140.615 236.678,140.332 236.173,139.827 C235.668,139.322 235.385,138.637 235.385,137.923 L235.385,84.077 C235.385,83.363 235.668,82.678 236.173,82.173 C236.678,81.668 237.363,81.385 238.077,81.385 L291.923,81.385 C292.637,81.385 293.322,81.668 293.827,82.173 C294.332,82.678 294.615,83.363 294.615,84.077 L294.615,111 Z M300,111 L300,84.077 C300,81.935 299.149,79.88 297.634,78.366 C296.12,76.851 294.065,76 291.923,76 L238.077,76 C235.935,76 233.88,76.851 232.366,78.366 C230.851,79.88 230,81.935 230,84.077 L230,137.923 C230,140.065 230.851,142.12 232.366,143.634 C233.88,145.149 235.935,146 238.077,146 L291.923,146 C294.065,146 296.12,145.149 297.634,143.634 C299.149,142.12 300,140.065 300,137.923 L300,111 Z" />
            <path d="M284.744,89.462 L276.513,89.462 C274.914,89.462 274.113,91.395 275.244,92.526 L283.474,100.756 C284.605,101.887 286.538,101.086 286.538,99.487 L286.538,91.256 C286.538,90.265 285.735,89.462 284.744,89.462 Z" />
            <path d="M243.462,91.256 L243.462,99.487 C243.462,101.086 245.395,101.887 246.526,100.756 L254.757,92.526 C255.887,91.395 255.086,89.462 253.487,89.462 L245.256,89.462 C244.265,89.462 243.462,90.265 243.462,91.256 Z" />
            <path d="M245.256,132.538 L253.487,132.538 C255.086,132.538 255.887,130.605 254.757,129.474 L246.526,121.244 C245.395,120.113 243.462,120.914 243.462,122.513 L243.462,130.744 C243.462,131.735 244.265,132.538 245.256,132.538 Z" />
            <path d="M286.538,130.744 L286.538,122.513 C286.538,120.914 284.605,120.113 283.474,121.244 L275.244,129.474 C274.113,130.605 274.914,132.538 276.513,132.538 L284.744,132.538 C285.735,132.538 286.538,131.735 286.538,130.744 Z" />
        </g>
        <g id="Regular-S">
            <path d="M494.615,111 L494.615,137.923 C494.615,138.637 494.332,139.322 493.827,139.827 C493.322,140.332 492.637,140.615 491.923,140.615 L438.077,140.615 C437.363,140.615 436.678,140.332 436.173,139.827 C435.668,139.322 435.385,138.637 435.385,137.923 L435.385,84.077 C435.385,83.363 435.668,82.678 436.173,82.173 C436.678,81.668 437.363,81.385 438.077,81.385 L491.923,81.385 C492.637,81.385 493.322,81.668 493.827,82.173 C494.332,82.678 494.615,83.363 494.615,84.077 L494.615,111 Z M500,111 L500,84.077 C500,81.935 499.149,79.88 497.634,78.366 C496.12,76.851 494.065,76 491.923,76 L438.077,76 C435.935,76 433.88,76.851 432.366,78.366 C430.851,79.88 430,81.935 430,84.077 L430,137.923 C430,140.065 430.851,142.12 432.366,143.634 C433.88,145.149 435.935,146 438.077,146 L491.923,146 C494.065,146 496.12,145.149 497.634,143.634 C499.149,142.12 500,140.065 500,137.923 L500,111 Z" />
            <path d="M484.744,89.462 L476.513,89.462 C474.914,89.462 474.113,91.395 475.243,92.526 L483.474,100.756 C484.605,101.887 486.538,101.086 486.538,99.487 L486.538,91.256 C486.538,90.265 485.735,89.462 484.744,89.462 Z" />
            <path d="M443.462,91.256 L443.462,99.487 C443.462,101.086 445.395,101.887 446.526,100.756 L454.756,92.526 C455.887,91.395 455.086,89.462 453.487,89.462 L445.256,89.462 C444.265,89.462 443.462,90.265 443.462,91.256 Z" />
            <path d="M445.256,132.538 L453.487,132.538 C455.086,132.538 455.887,130.605 454.756,129.474 L446.526,121.244 C445.395,120.113 443.462,120.914 443.462,122.513 L443.462,130.744 C443.462,131.735 444.265,132.538 445.256,132.538 Z" />
            <path d="M486.538,130.744 L486.538,122.513 C486.538,120.914 484.605,120.113 483.474,121.244 L475.243,129.474 C474.113,130.605 474.914,132.538 476.513,132.538 L484.744,132.538 C485.735,132.538 486.538,131.735 486.538,130.744 Z" />
        </g>
        <g id="Black-S">
            <path d="M694.615,111 L694.615,137.923 C694.615,138.637 694.332,139.322 693.827,139.827 C693.322,140.332 692.637,140.615 691.923,140.615 L638.077,140.615 C637.363,140.615 636.678,140.332 636.173,139.827 C635.668,139.322 635.385,138.637 635.385,137.923 L635.385,84.077 C635.385,83.363 635.668,82.678 636.173,82.173 C636.678,81.668 637.363,81.385 638.077,81.385 L691.923,81.385 C692.637,81.385 693.322,81.668 693.827,82.173 C694.332,82.678 694.615,83.363 694.615,84.077 L694.615,111 Z M700,111 L700,84.077 C700,81.935 699.149,79.88 697.634,78.366 C696.12,76.851 694.065,76 691.923,76 L638.077,76 C635.935,76 633.88,76.851 632.366,78.366 C630.851,79.88 630,81.935 630,84.077 L630,137.923 C630,140.065 630.851,142.12 632.366,143.634 C633.88,145.149 635.935,146 638.077,146 L691.923,146 C694.065,146 696.12,145.149 697.634,143.634 C699.149,142.12 700,140.065 700,137.923 L700,111 Z" />
            <path d="M684.744,89.462 L676.513,89.462 C674.914,89.462 674.113,91.395 675.244,92.526 L683.474,100.756 C684.605,101.887 686.538,101.086 686.538,99.487 L686.538,91.256 C686.538,90.265 685.735,89.462 684.744,89.462 Z" />
            <path d="M643.462,91.256 L643.462,99.487 C643.462,101.086 645.395,101.887 646.526,100.756 L654.757,92.526 C655.887,91.395 655.086,89.462 653.487,89.462 L645.256,89.462 C644.265,89.462 643.462,90.265 643.462,91.256 Z" />
            <path d="M645.256,132.538 L653.487,132.538 C655.086,132.538 655.887,130.605 654.757,129.474 L646.526,121.244 C645.395,120.113 643.462,120.914 643.462,122.513 L643.462,130.744 C643.462,131.735 644.265,132.538 645.256,132.538 Z" />
            <path d="M686.538,130.744 L686.538,122.513 C686.538,120.914 684.605,120.113 683.474,121.244 L675.244,129.474 C674.113,130.605 674.914,132.538 676.513,132.538 L684.744,132.538 C685.735,132.538 686.538,131.735 686.538,130.744 Z" />
        </g>
    </g>
</svg>