<?xml version="1.0" encoding="UTF-8"?>
<svg height="600" width="800" xmlns="http://www.w3.org/2000/svg" xmlns:xlink="http://www.w3.org/1999/xlink">
    <g id="Notes" font-family="'LucidaGrande', 'Lucida Grande', sans-serif" font-size="13">
        <rect fill="white" height="600.0" width="800.0" x="0.0" y="0.0" />
        <g font-size="13">
            <text x="18.0" y="176.0">Small</text>
            <text x="18.0" y="376.0">Medium</text>
            <text x="18.0" y="576.0">Large</text>
        </g>
        <g font-size="9">
            <text x="250.0" y="30.0">Ultralight</text>
            <text x="450.0" y="30.0">Regular</text>
            <text x="650.0" y="30.0">Black</text>
            <text id="template-version" fill="#505050" text-anchor="end" x="785.0" y="575.0">Template v.3.0</text>
            <a href="https://github.com/swhitty/SwiftDraw">
                <text fill="#505050" text-anchor="end" x="785.0" y="590.0">https://github.com/swhitty/SwiftDraw</text>
            </a>
        </g>
    </g>
    <g id="Guides" stroke="rgb(39, 170, 225)" stroke-width="0.5">
        <path id="Capline-S" d="M18,76 l800,0" />
        <path id="H-reference" d="M85,145.755 L87.685,145.755 L113.369,79.287 L114.052,79.287 L114.052,76 L112.148,76 L85,145.755 Z M95.693,121.536 L130.996,121.536 L130.263,119.313 L96.474,119.313 L95.693,121.536 Z M139.15,145.755 L141.787,145.755 L114.638,76 L113.466,76 L113.466,79.287 L139.15,145.755 Z" stroke="none" />
        <path id="Baseline-S" d="M18,146 l800,0" />
        <path id="left-margin-Ultralight-S" d="M220,56 l0,110" />
        <path id="right-margin-Ultralight-S" d="M310,56 l0,110" />
        <path id="left-margin-Regular-S" d="M420,56 l0,110" />
        <path id="right-margin-Regular-S" d="M510,56 l0,110" />
        <path id="left-margin-Black-S" d="M620,56 l0,110" />
        <path id="right-margin-Black-S" d="M710,56 l0,110" />
        <path id="Capline-M" d="M18,276 l800,0" />
        <path id="Baseline-M" d="M18,346 l800,0" />
        <path id="Capline-L" d="M18,476 l800,0" />
        <path id="Baseline-L" d="M18,546 l800,0" />
    </g>
    <g id="Symbols">
        <g id="Ultralight-S">
            <path d="M278.333,100.167 L278.333,78.5 C278.333,77.119 277.214,76 275.833,76 L232.5,76 C231.119,76 230,77.119 230,78.5 L230,121.833 C230,123.214 231.119,124.333 232.5,124.333 L254.167,124.333 C255.547,124.333 256.667,123.214 256.667,121.833 C256.667,120.453 255.547,119.333 254.167,119.333 L232.5,119.333 L235,121.833 L235,78.5 L232.5,81 L275.833,81 L273.333,78.5 L273.333,100.167 C273.333,101.547 274.453,102.667 275.833,102.667 C277.214,102.667 278.333,101.547 278.333,100.167 Z" />
            <path d="M300,143.5 L300,100.167 C300,98.786 298.881,97.667 297.5,97.667 L254.167,97.667 C252.786,97.667 251.667,98.786 251.667,100.167 L251.667,143.5 C251.667,144.881 252.786,146 254.167,146 L297.5,146 C298.881,146 300,144.881 300,143.5 Z M295,143.5 L297.5,141 L254.167,141 L256.667,143.5 L256.667,100.167 L254.167,102.667 L297.5,102.667 L295,100.167 L295,143.5 Z" />
            <path d="M280.833,119.333 L254.167,119.333 C252.786,119.333 251.667,120.453 251.667,121.833 C251.667,123.214 252.786,124.333 254.167,124.333 L280.833,124.333 C282.214,124.333 283.333,123.214 283.333,121.833 C283.333,120.453 282.214,119.333 280.833,119.333 Z M282.601,120.066 L274.268,111.732 L270.732,115.268 L279.066,123.601 L282.601,120.066 Z M279.066,123.601 C281.423,125.958 284.958,122.423 282.601,120.066 L274.268,111.732 C271.911,109.375 268.375,112.911 270.732,115.268 L279.066,123.601 Z M279.066,120.066 L270.732,128.399 L274.268,131.934 L282.601,123.601 L279.066,120.066 Z M282.601,123.601 C284.958,121.244 281.423,117.709 279.066,120.066 L270.732,128.399 C268.375,130.756 271.911,134.291 274.268,131.934 L282.601,123.601 Z" />
            <path d="M251.667,100.167 L251.667,143.5 C251.667,144.881 252.786,146 254.167,146 C255.547,146 256.667,144.881 256.667,143.5 L256.667,100.167 C256.667,98.786 255.547,97.667 254.167,97.667 C252.786,97.667 251.667,98.786 251.667,100.167 Z" />
        </g>
        <g id="Regular-S">
            <path d="M478.333,100.167 L478.333,78.5 C478.333,77.119 477.214,76 475.833,76 L432.5,76 C431.119,76 430,77.119 430,78.5 L430,121.833 C430,123.214 431.119,124.333 432.5,124.333 L454.167,124.333 C455.547,124.333 456.667,123.214 456.667,121.833 C456.667,120.453 455.547,119.333 454.167,119.333 L432.5,119.333 L435,121.833 L435,78.5 L432.5,81 L475.833,81 L473.333,78.5 L473.333,100.167 C473.333,101.547 474.453,102.667 475.833,102.667 C477.214,102.667 478.333,101.547 478.333,100.167 Z" />
            <path d="M500,143.5 L500,100.167 C500,98.786 498.881,97.667 497.5,97.667 L454.167,97.667 C452.786,97.667 451.667,98.786 451.667,100.167 L451.667,143.5 C451.667,144.881 452.786,146 454.167,146 L497.5,146 C498.881,146 500,144.881 500,143.5 Z M495,143.5 L497.5,141 L454.167,141 L456.667,143.5 L456.667,100.167 L454.167,102.667 L497.5,102.667 L495,100.167 L495,143.5 Z" />
            <path d="M480.833,119.333 L454.167,119.333 C452.786,119.333 451.667,120.453 451.667,121.833 C451.667,123.214 452.786,124.333 454.167,124.333 L480.833,124.333 C482.214,124.333 483.333,123.214 483.333,121.833 C483.333,120.453 482.214,119.333 480.833,119.333 Z M482.601,120.066 L474.268,111.732 L470.732,115.268 L479.066,123.601 L482.601,120.066 Z M479.066,123.601 C481.423,125.958 484.958,122.423 482.601,120.066 L474.268,111.732 C471.911,109.375 468.375,112.911 470.732,115.268 L479.066,123.601 Z M479.066,120.066 L470.732,128.399 L474.268,131.934 L482.601,123.601 L479.066,120.066 Z M482.601,123.601 C484.958,121.244 481.423,117.709 479.066,120.066 L470.732,128.399 C468.375,130.756 471.911,134.291 474.268,131.934 L482.601,123.601 Z" />
            <path d="M451.667,100.167 L451.667,143.5 C451.667,144.881 452.786,146 454.167,146 C455.547,146 456.667,144.881 456.667,143.5 L456.667,100.167 C456.667,98.786 455.547,97.667 454.167,97.667 C452.786,97.667 451.667,98.786 451.667,100.167 Z" />
        </g>
        <g id="Black-S">
            <path d="M678.333,100.167 L678.333,78.5 C678.333,77.119 677.214,76 675.833,76 L632.5,76 C631.119,76 630,77.119 630,78.5 L630,121.833 C630,123.214 631.119,124.333 632.5,124.333 L654.167,124.333 C655.547,124.333 656.667,123.214 656.667,121.833 C656.667,120.453 655.547,119.333 654.167,119.333 L632.5,119.333 L635,121.833 L635,78.5 L632.5,81 L675.833,81 L673.333,78.5 L673.333,100.167 C673.333,101.547 674.453,102.667 675.833,102.667 C677.214,102.667 678.333,101.547 678.333,100.167 Z" />
            <path d="M700,143.5 L700,100.167 C700,98.786 698.881,97.667 697.5,97.667 L654.167,97.667 C652.786,97.667 651.667,98.786 651.667,100.167 L651.667,143.5 C651.667,144.881 652.786,146 654.167,146 L697.5,146 C698.881,146 700,144.881 700,143.5 Z M695,143.5 L697.5,141 L654.167,141 L656.667,143.5 L656.667,100.167 L654.167,102.667 L697.5,102.667 L695,100.167 L695,143.5 Z" />
            <path d="M680.833,119.333 L654.167,119.333 C652.786,119.333 651.667,120.453 651.667,121.833 C651.667,123.214 652.786,124.333 654.167,124.333 L680.833,124.333 C682.214,124.333 683.333,123.214 683.333,121.833 C683.333,120.453 682.214,119.333 680.833,119.333 Z M682.601,120.066 L674.268,111.732 L670.732,115.268 L679.066,123.601 L682.601,120.066 Z M679.066,123.601 C681.423,125.958 684.958,122.423 682.601,120.066 L674.268,111.732 C671.911,109.375 668.375,112.911 670.732,115.268 L679.066,123.601 Z M679.066,120.066 L670.732,128.399 L674.268,131.934 L682.601,123.601 L679.066,120.066 Z M682.601,123.601 C684.958,121.244 681.423,117.709 679.066,120.066 L670.732,128.399 C668.375,130.756 671.911,134.291 674.268,131.934 L682.601,123.601 Z" />
            <path d="M651.667,100.167 L651.667,143.5 C651.667,144.881 652.786,146 654.167,146 C655.547,146 656.667,144.881 656.667,143.5 L656.667,100.167 C656.667,98.786 655.547,97.667 654.167,97.667 C652.786,97.667 651.667,98.786 651.667,100.167 Z" />
        </g>
    </g>
</svg>