<?xml version="1.0" encoding="UTF-8"?>
<svg height="600" width="800" xmlns="http://www.w3.org/2000/svg" xmlns:xlink="http://www.w3.org/1999/xlink">
    <g id="Notes" font-family="'LucidaGrande', 'Lucida Grande', sans-serif" font-size="13">
        <rect fill="white" height="600.0" width="800.0" x="0.0" y="0.0" />
        <g font-size="13">
            <text x="18.0" y="176.0">Small</text>
            <text x="18.0" y="376.0">Medium</text>
            <text x="18.0" y="576.0">Large</text>
        </g>
        <g font-size="9">
            <text x="250.0" y="30.0">Ultralight</text>
            <text x="450.0" y="30.0">Regular</text>
            <text x="650.0" y="30.0">Black</text>
            <text id="template-version" fill="#505050" text-anchor="end" x="785.0" y="575.0">Template v.3.0</text>
            <a href="https://github.com/swhitty/SwiftDraw">
                <text fill="#505050" text-anchor="end" x="785.0" y="590.0">https://github.com/swhitty/SwiftDraw</text>
            </a>
        </g>
    </g>
    <g id="Guides" stroke="rgb(39, 170, 225)" stroke-width="0.5">
        <path id="Capline-S" d="M18,76 l800,0" />
        <path id="H-reference" d="M85,145.755 L87.685,145.755 L113.369,79.287 L114.052,79.287 L114.052,76 L112.148,76 L85,145.755 Z M95.693,121.536 L130.996,121.536 L130.263,119.313 L96.474,119.313 L95.693,121.536 Z M139.15,145.755 L141.787,145.755 L114.638,76 L113.466,76 L113.466,79.287 L139.15,145.755 Z" stroke="none" />
        <path id="Baseline-S" d="M18,146 l800,0" />
        <path id="left-margin-Ultralight-S" d="M221,56 l0,110" />
        <path id="right-margin-Ultralight-S" d="M309,56 l0,110" />
        <path id="left-margin-Regular-S" d="M421,56 l0,110" />
        <path id="right-margin-Regular-S" d="M509,56 l0,110" />
        <path id="left-margin-Black-S" d="M621,56 l0,110" />
        <path id="right-margin-Black-S" d="M709,56 l0,110" />
        <path id="Capline-M" d="M18,276 l800,0" />
        <path id="Baseline-M" d="M18,346 l800,0" />
        <path id="Capline-L" d="M18,476 l800,0" />
        <path id="Baseline-L" d="M18,546 l800,0" />
    </g>
    <g id="Symbols">
        <g id="Ultralight-S">
            <path d="M285.349,107.744 L285.349,133.791 C285.349,134.007 285.263,134.214 285.11,134.366 C284.958,134.519 284.751,134.605 284.535,134.605 L245.465,134.605 C245.249,134.605 245.042,134.519 244.89,134.366 C244.737,134.214 244.651,134.007 244.651,133.791 L244.651,81.698 C244.651,81.482 244.737,81.275 244.89,81.122 C245.042,80.969 245.249,80.884 245.465,80.884 L284.535,80.884 C284.751,80.884 284.958,80.969 285.11,81.122 C285.263,81.275 285.349,81.482 285.349,81.698 L285.349,107.744 Z M290.233,107.744 L290.233,81.698 C290.233,80.187 289.632,78.737 288.564,77.669 C287.495,76.6 286.046,76 284.535,76 L245.465,76 C243.954,76 242.505,76.6 241.436,77.669 C240.368,78.737 239.767,80.187 239.767,81.698 L239.767,133.791 C239.767,135.302 240.368,136.751 241.436,137.82 C242.505,138.888 243.954,139.488 245.465,139.488 L284.535,139.488 C286.046,139.488 287.495,138.888 288.564,137.82 C289.632,136.751 290.233,135.302 290.233,133.791 L290.233,107.744 Z" />
            <path d="M242.209,110.186 L287.791,110.186 C289.139,110.186 290.233,109.093 290.233,107.744 C290.233,106.396 289.139,105.302 287.791,105.302 L242.209,105.302 C240.861,105.302 239.767,106.396 239.767,107.744 C239.767,109.093 240.861,110.186 242.209,110.186 Z" />
            <path d="M239.767,104.488 L239.767,111 C239.767,112.349 240.861,113.442 242.209,113.442 C243.558,113.442 244.651,112.349 244.651,111 L244.651,104.488 C244.651,103.14 243.558,102.047 242.209,102.047 C240.861,102.047 239.767,103.14 239.767,104.488 Z" />
            <path d="M285.349,104.488 L285.349,111 C285.349,112.349 286.442,113.442 287.791,113.442 C289.139,113.442 290.233,112.349 290.233,111 L290.233,104.488 C290.233,103.14 289.139,102.047 287.791,102.047 C286.442,102.047 285.349,103.14 285.349,104.488 Z" />
            <path d="M249.535,119.14 L249.535,125.651 C249.535,127 250.628,128.093 251.977,128.093 C253.325,128.093 254.419,127 254.419,125.651 L254.419,119.14 C254.419,117.791 253.325,116.698 251.977,116.698 C250.628,116.698 249.535,117.791 249.535,119.14 Z" />
            <path d="M249.535,89.837 L249.535,96.349 C249.535,97.697 250.628,98.791 251.977,98.791 C253.325,98.791 254.419,97.697 254.419,96.349 L254.419,89.837 C254.419,88.489 253.325,87.395 251.977,87.395 C250.628,87.395 249.535,88.489 249.535,89.837 Z" />
            <path d="M278.837,137.047 L278.837,143.558 C278.837,144.907 279.93,146 281.279,146 C282.628,146 283.721,144.907 283.721,143.558 L283.721,137.047 C283.721,135.698 282.628,134.605 281.279,134.605 C279.93,134.605 278.837,135.698 278.837,137.047 Z" />
            <path d="M246.279,137.047 L246.279,143.558 C246.279,144.907 247.372,146 248.721,146 C250.07,146 251.163,144.907 251.163,143.558 L251.163,137.047 C251.163,135.698 250.07,134.605 248.721,134.605 C247.372,134.605 246.279,135.698 246.279,137.047 Z" />
        </g>
        <g id="Regular-S">
            <path d="M485.349,107.744 L485.349,133.791 C485.349,134.007 485.263,134.214 485.11,134.366 C484.958,134.519 484.751,134.605 484.535,134.605 L445.465,134.605 C445.249,134.605 445.042,134.519 444.89,134.366 C444.737,134.214 444.651,134.007 444.651,133.791 L444.651,81.698 C444.651,81.482 444.737,81.275 444.89,81.122 C445.042,80.969 445.249,80.884 445.465,80.884 L484.535,80.884 C484.751,80.884 484.958,80.969 485.11,81.122 C485.263,81.275 485.349,81.482 485.349,81.698 L485.349,107.744 Z M490.233,107.744 L490.233,81.698 C490.233,80.187 489.632,78.737 488.564,77.669 C487.495,76.6 486.046,76 484.535,76 L445.465,76 C443.954,76 442.505,76.6 441.436,77.669 C440.368,78.737 439.767,80.187 439.767,81.698 L439.767,133.791 C439.767,135.302 440.368,136.751 441.436,137.82 C442.505,138.888 443.954,139.488 445.465,139.488 L484.535,139.488 C486.046,139.488 487.495,138.888 488.564,137.82 C489.632,136.751 490.233,135.302 490.233,133.791 L490.233,107.744 Z" />
            <path d="M442.209,110.186 L487.791,110.186 C489.139,110.186 490.233,109.093 490.233,107.744 C490.233,106.396 489.139,105.302 487.791,105.302 L442.209,105.302 C440.861,105.302 439.767,106.396 439.767,107.744 C439.767,109.093 440.861,110.186 442.209,110.186 Z" />
            <path d="M439.767,104.488 L439.767,111 C439.767,112.349 440.861,113.442 442.209,113.442 C443.558,113.442 444.651,112.349 444.651,111 L444.651,104.488 C444.651,103.14 443.558,102.047 442.209,102.047 C440.861,102.047 439.767,103.14 439.767,104.488 Z" />
            <path d="M485.349,104.488 L485.349,111 C485.349,112.349 486.442,113.442 487.791,113.442 C489.139,113.442 490.233,112.349 490.233,111 L490.233,104.488 C490.233,103.14 489.139,102.047 487.791,102.047 C486.442,102.047 485.349,103.14 485.349,104.488 Z" />
            <path d="M449.535,119.14 L449.535,125.651 C449.535,127 450.628,128.093 451.977,128.093 C453.325,128.093 454.419,127 454.419,125.651 L454.419,119.14 C454.419,117.791 453.325,116.698 451.977,116.698 C450.628,116.698 449.535,117.791 449.535,119.14 Z" />
            <path d="M449.535,89.837 L449.535,96.349 C449.535,97.697 450.628,98.791 451.977,98.791 C453.325,98.791 454.419,97.697 454.419,96.349 L454.419,89.837 C454.419,88.489 453.325,87.395 451.977,87.395 C450.628,87.395 449.535,88.489 449.535,89.837 Z" />
            <path d="M478.837,137.047 L478.837,143.558 C478.837,144.907 479.93,146 481.279,146 C482.628,146 483.721,144.907 483.721,143.558 L483.721,137.047 C483.721,135.698 482.628,134.605 481.279,134.605 C479.93,134.605 478.837,135.698 478.837,137.047 Z" />
            <path d="M446.279,137.047 L446.279,143.558 C446.279,144.907 447.372,146 448.721,146 C450.07,146 451.163,144.907 451.163,143.558 L451.163,137.047 C451.163,135.698 450.07,134.605 448.721,134.605 C447.372,134.605 446.279,135.698 446.279,137.047 Z" />
        </g>
        <g id="Black-S">
            <path d="M685.349,107.744 L685.349,133.791 C685.349,134.007 685.263,134.214 685.11,134.366 C684.958,134.519 684.751,134.605 684.535,134.605 L645.465,134.605 C645.249,134.605 645.042,134.519 644.89,134.366 C644.737,134.214 644.651,134.007 644.651,133.791 L644.651,81.698 C644.651,81.482 644.737,81.275 644.89,81.122 C645.042,80.969 645.249,80.884 645.465,80.884 L684.535,80.884 C684.751,80.884 684.958,80.969 685.11,81.122 C685.263,81.275 685.349,81.482 685.349,81.698 L685.349,107.744 Z M690.233,107.744 L690.233,81.698 C690.233,80.187 689.632,78.737 688.564,77.669 C687.495,76.6 686.046,76 684.535,76 L645.465,76 C643.954,76 642.505,76.6 641.436,77.669 C640.368,78.737 639.767,80.187 639.767,81.698 L639.767,133.791 C639.767,135.302 640.368,136.751 641.436,137.82 C642.505,138.888 643.954,139.488 645.465,139.488 L684.535,139.488 C686.046,139.488 687.495,138.888 688.564,137.82 C689.632,136.751 690.233,135.302 690.233,133.791 L690.233,107.744 Z" />
            <path d="M642.209,110.186 L687.791,110.186 C689.139,110.186 690.233,109.093 690.233,107.744 C690.233,106.396 689.139,105.302 687.791,105.302 L642.209,105.302 C640.861,105.302 639.767,106.396 639.767,107.744 C639.767,109.093 640.861,110.186 642.209,110.186 Z" />
            <path d="M639.767,104.488 L639.767,111 C639.767,112.349 640.861,113.442 642.209,113.442 C643.558,113.442 644.651,112.349 644.651,111 L644.651,104.488 C644.651,103.14 643.558,102.047 642.209,102.047 C640.861,102.047 639.767,103.14 639.767,104.488 Z" />
            <path d="M685.349,104.488 L685.349,111 C685.349,112.349 686.442,113.442 687.791,113.442 C689.139,113.442 690.233,112.349 690.233,111 L690.233,104.488 C690.233,103.14 689.139,102.047 687.791,102.047 C686.442,102.047 685.349,103.14 685.349,104.488 Z" />
            <path d="M649.535,119.14 L649.535,125.651 C649.535,127 650.628,128.093 651.977,128.093 C653.325,128.093 654.419,127 654.419,125.651 L654.419,119.14 C654.419,117.791 653.325,116.698 651.977,116.698 C650.628,116.698 649.535,117.791 649.535,119.14 Z" />
            <path d="M649.535,89.837 L649.535,96.349 C649.535,97.697 650.628,98.791 651.977,98.791 C653.325,98.791 654.419,97.697 654.419,96.349 L654.419,89.837 C654.419,88.489 653.325,87.395 651.977,87.395 C650.628,87.395 649.535,88.489 649.535,89.837 Z" />
            <path d="M678.837,137.047 L678.837,143.558 C678.837,144.907 679.93,146 681.279,146 C682.628,146 683.721,144.907 683.721,143.558 L683.721,137.047 C683.721,135.698 682.628,134.605 681.279,134.605 C679.93,134.605 678.837,135.698 678.837,137.047 Z" />
            <path d="M646.279,137.047 L646.279,143.558 C646.279,144.907 647.372,146 648.721,146 C650.07,146 651.163,144.907 651.163,143.558 L651.163,137.047 C651.163,135.698 650.07,134.605 648.721,134.605 C647.372,134.605 646.279,135.698 646.279,137.047 Z" />
        </g>
    </g>
</svg>