<?xml version="1.0" encoding="UTF-8"?>
<svg height="600" width="800" xmlns="http://www.w3.org/2000/svg" xmlns:xlink="http://www.w3.org/1999/xlink">
    <g id="Notes" font-family="'LucidaGrande', 'Lucida Grande', sans-serif" font-size="13">
        <rect fill="white" height="600.0" width="800.0" x="0.0" y="0.0" />
        <g font-size="13">
            <text x="18.0" y="176.0">Small</text>
            <text x="18.0" y="376.0">Medium</text>
            <text x="18.0" y="576.0">Large</text>
        </g>
        <g font-size="9">
            <text x="250.0" y="30.0">Ultralight</text>
            <text x="450.0" y="30.0">Regular</text>
            <text x="650.0" y="30.0">Black</text>
            <text id="template-version" fill="#505050" text-anchor="end" x="785.0" y="575.0">Template v.3.0</text>
            <a href="https://github.com/swhitty/SwiftDraw">
                <text fill="#505050" text-anchor="end" x="785.0" y="590.0">https://github.com/swhitty/SwiftDraw</text>
            </a>
        </g>
    </g>
    <g id="Guides" stroke="rgb(39, 170, 225)" stroke-width="0.5">
        <path id="Capline-S" d="M18,76 l800,0" />
        <path id="H-reference" d="M85,145.755 L87.685,145.755 L113.369,79.287 L114.052,79.287 L114.052,76 L112.148,76 L85,145.755 Z M95.693,121.536 L130.996,121.536 L130.263,119.313 L96.474,119.313 L95.693,121.536 Z M139.15,145.755 L141.787,145.755 L114.638,76 L113.466,76 L113.466,79.287 L139.15,145.755 Z" stroke="none" />
        <path id="Baseline-S" d="M18,146 l800,0" />
        <path id="left-margin-Ultralight-S" d="M220.443,56 l0,110" />
        <path id="right-margin-Ultralight-S" d="M309.557,56 l0,110" />
        <path id="left-margin-Regular-S" d="M420.443,56 l0,110" />
        <path id="right-margin-Regular-S" d="M509.557,56 l0,110" />
        <path id="left-margin-Black-S" d="M620.443,56 l0,110" />
        <path id="right-margin-Black-S" d="M709.557,56 l0,110" />
        <path id="Capline-M" d="M18,276 l800,0" />
        <path id="Baseline-M" d="M18,346 l800,0" />
        <path id="Capline-L" d="M18,476 l800,0" />
        <path id="Baseline-L" d="M18,546 l800,0" />
    </g>
    <g id="Symbols">
        <g id="Ultralight-S">
            <path d="M272.089,130.051 L296.899,130.051 C298.367,130.051 299.557,128.861 299.557,127.392 C299.557,125.924 298.367,124.734 296.899,124.734 L272.089,124.734 C270.621,124.734 269.43,125.924 269.43,127.392 C269.43,128.861 270.621,130.051 272.089,130.051 Z" />
            <path d="M272.089,146 L296.899,146 C298.367,146 299.557,144.81 299.557,143.342 C299.557,141.874 298.367,140.684 296.899,140.684 L272.089,140.684 C270.621,140.684 269.43,141.874 269.43,143.342 C269.43,144.81 270.621,146 272.089,146 Z" />
            <path d="M233.101,95.494 L261.456,95.494 C262.924,95.494 264.114,94.304 264.114,92.835 C264.114,91.367 262.924,90.177 261.456,90.177 L233.101,90.177 C231.633,90.177 230.443,91.367 230.443,92.835 C230.443,94.304 231.633,95.494 233.101,95.494 Z" />
            <path d="M244.62,78.658 L244.62,107.013 C244.62,108.481 245.81,109.671 247.278,109.671 C248.747,109.671 249.937,108.481 249.937,107.013 L249.937,78.658 C249.937,77.19 248.747,76 247.278,76 C245.81,76 244.62,77.19 244.62,78.658 Z" />
            <path d="M295.019,76.779 L231.222,140.576 C230.184,141.614 230.184,143.297 231.222,144.335 C232.26,145.373 233.943,145.373 234.981,144.335 L298.778,80.538 C299.816,79.5 299.816,77.817 298.778,76.779 C297.74,75.74 296.057,75.74 295.019,76.779 Z" />
        </g>
        <g id="Regular-S">
            <path d="M472.089,130.051 L496.899,130.051 C498.367,130.051 499.557,128.861 499.557,127.392 C499.557,125.924 498.367,124.734 496.899,124.734 L472.089,124.734 C470.621,124.734 469.43,125.924 469.43,127.392 C469.43,128.861 470.621,130.051 472.089,130.051 Z" />
            <path d="M472.089,146 L496.899,146 C498.367,146 499.557,144.81 499.557,143.342 C499.557,141.874 498.367,140.684 496.899,140.684 L472.089,140.684 C470.621,140.684 469.43,141.874 469.43,143.342 C469.43,144.81 470.621,146 472.089,146 Z" />
            <path d="M433.101,95.494 L461.456,95.494 C462.924,95.494 464.114,94.304 464.114,92.835 C464.114,91.367 462.924,90.177 461.456,90.177 L433.101,90.177 C431.633,90.177 430.443,91.367 430.443,92.835 C430.443,94.304 431.633,95.494 433.101,95.494 Z" />
            <path d="M444.62,78.658 L444.62,107.013 C444.62,108.481 445.81,109.671 447.278,109.671 C448.747,109.671 449.937,108.481 449.937,107.013 L449.937,78.658 C449.937,77.19 448.747,76 447.278,76 C445.81,76 444.62,77.19 444.62,78.658 Z" />
            <path d="M495.019,76.779 L431.222,140.576 C430.184,141.614 430.184,143.297 431.222,144.335 C432.26,145.373 433.943,145.373 434.981,144.335 L498.778,80.538 C499.816,79.5 499.816,77.817 498.778,76.779 C497.74,75.74 496.057,75.74 495.019,76.779 Z" />
        </g>
        <g id="Black-S">
            <path d="M672.089,130.051 L696.899,130.051 C698.367,130.051 699.557,128.861 699.557,127.392 C699.557,125.924 698.367,124.734 696.899,124.734 L672.089,124.734 C670.621,124.734 669.43,125.924 669.43,127.392 C669.43,128.861 670.621,130.051 672.089,130.051 Z" />
            <path d="M672.089,146 L696.899,146 C698.367,146 699.557,144.81 699.557,143.342 C699.557,141.874 698.367,140.684 696.899,140.684 L672.089,140.684 C670.621,140.684 669.43,141.874 669.43,143.342 C669.43,144.81 670.621,146 672.089,146 Z" />
            <path d="M633.101,95.494 L661.456,95.494 C662.924,95.494 664.114,94.304 664.114,92.835 C664.114,91.367 662.924,90.177 661.456,90.177 L633.101,90.177 C631.633,90.177 630.443,91.367 630.443,92.835 C630.443,94.304 631.633,95.494 633.101,95.494 Z" />
            <path d="M644.62,78.658 L644.62,107.013 C644.62,108.481 645.81,109.671 647.279,109.671 C648.747,109.671 649.937,108.481 649.937,107.013 L649.937,78.658 C649.937,77.19 648.747,76 647.279,76 C645.81,76 644.62,77.19 644.62,78.658 Z" />
            <path d="M695.019,76.779 L631.222,140.576 C630.184,141.614 630.184,143.297 631.222,144.335 C632.26,145.373 633.943,145.373 634.981,144.335 L698.778,80.538 C699.817,79.5 699.817,77.817 698.778,76.779 C697.74,75.74 696.057,75.74 695.019,76.779 Z" />
        </g>
    </g>
</svg>