<?xml version="1.0" encoding="UTF-8"?>
<svg height="600" width="800" xmlns="http://www.w3.org/2000/svg" xmlns:xlink="http://www.w3.org/1999/xlink">
    <g id="Notes" font-family="'LucidaGrande', 'Lucida Grande', sans-serif" font-size="13">
        <rect fill="white" height="600.0" width="800.0" x="0.0" y="0.0" />
        <g font-size="13">
            <text x="18.0" y="176.0">Small</text>
            <text x="18.0" y="376.0">Medium</text>
            <text x="18.0" y="576.0">Large</text>
        </g>
        <g font-size="9">
            <text x="250.0" y="30.0">Ultralight</text>
            <text x="450.0" y="30.0">Regular</text>
            <text x="650.0" y="30.0">Black</text>
            <text id="template-version" fill="#505050" text-anchor="end" x="785.0" y="575.0">Template v.3.0</text>
            <a href="https://github.com/swhitty/SwiftDraw">
                <text fill="#505050" text-anchor="end" x="785.0" y="590.0">https://github.com/swhitty/SwiftDraw</text>
            </a>
        </g>
    </g>
    <g id="Guides" stroke="rgb(39, 170, 225)" stroke-width="0.5">
        <path id="Capline-S" d="M18,76 l800,0" />
        <path id="H-reference" d="M85,145.755 L87.685,145.755 L113.369,79.287 L114.052,79.287 L114.052,76 L112.148,76 L85,145.755 Z M95.693,121.536 L130.996,121.536 L130.263,119.313 L96.474,119.313 L95.693,121.536 Z M139.15,145.755 L141.787,145.755 L114.638,76 L113.466,76 L113.466,79.287 L139.15,145.755 Z" stroke="none" />
        <path id="Baseline-S" d="M18,146 l800,0" />
        <path id="left-margin-Ultralight-S" d="M220,56 l0,110" />
        <path id="right-margin-Ultralight-S" d="M310,56 l0,110" />
        <path id="left-margin-Regular-S" d="M420,56 l0,110" />
        <path id="right-margin-Regular-S" d="M510,56 l0,110" />
        <path id="left-margin-Black-S" d="M620,56 l0,110" />
        <path id="right-margin-Black-S" d="M710,56 l0,110" />
        <path id="Capline-M" d="M18,276 l800,0" />
        <path id="Baseline-M" d="M18,346 l800,0" />
        <path id="Capline-L" d="M18,476 l800,0" />
        <path id="Baseline-L" d="M18,546 l800,0" />
    </g>
    <g id="Symbols">
        <g id="Ultralight-S">
            <path d="M243.023,111 C243.023,98.863 252.863,89.023 265,89.023 C277.137,89.023 286.977,98.863 286.977,111 C286.977,123.137 277.137,132.977 265,132.977 C252.863,132.977 243.023,123.137 243.023,111 Z M238.14,111 C238.14,125.835 250.165,137.86 265,137.86 C279.835,137.86 291.86,125.835 291.86,111 C291.86,96.165 279.835,84.14 265,84.14 C250.165,84.14 238.14,96.165 238.14,111 Z" />
            <path d="M262.558,135.419 L262.558,143.558 C262.558,144.907 263.651,146 265,146 C266.349,146 267.442,144.907 267.442,143.558 L267.442,135.419 C267.442,134.07 266.349,132.977 265,132.977 C263.651,132.977 262.558,134.07 262.558,135.419 Z" />
            <path d="M289.419,111.814 L297.558,111.814 C298.907,111.814 300,110.721 300,109.372 C300,108.023 298.907,106.93 297.558,106.93 L289.419,106.93 C288.07,106.93 286.977,108.023 286.977,109.372 C286.977,110.721 288.07,111.814 289.419,111.814 Z" />
            <path d="M232.442,111.814 L240.581,111.814 C241.93,111.814 243.023,110.721 243.023,109.372 C243.023,108.023 241.93,106.93 240.581,106.93 L232.442,106.93 C231.093,106.93 230,108.023 230,109.372 C230,110.721 231.093,111.814 232.442,111.814 Z" />
            <path d="M262.558,78.442 L262.558,86.581 C262.558,87.93 263.651,89.023 265,89.023 C266.349,89.023 267.442,87.93 267.442,86.581 L267.442,78.442 C267.442,77.093 266.349,76 265,76 C263.651,76 262.558,77.093 262.558,78.442 Z" />
            <path d="M280.54,129.993 L286.295,135.749 C287.249,136.702 288.795,136.702 289.749,135.749 C290.702,134.795 290.702,133.249 289.749,132.295 L283.993,126.54 C283.039,125.586 281.493,125.586 280.54,126.54 C279.586,127.493 279.586,129.039 280.54,129.993 Z" />
            <path d="M282.842,94.309 L288.597,88.554 C289.551,87.6 289.551,86.054 288.597,85.101 C287.644,84.147 286.098,84.147 285.144,85.101 L279.389,90.856 C278.435,91.81 278.435,93.356 279.389,94.309 C280.342,95.263 281.888,95.263 282.842,94.309 Z" />
            <path d="M242.554,134.598 L248.309,128.842 C249.263,127.888 249.263,126.342 248.309,125.389 C247.356,124.435 245.809,124.435 244.856,125.389 L239.1,131.144 C238.147,132.098 238.147,133.644 239.1,134.598 C240.054,135.551 241.6,135.551 242.554,134.598 Z" />
            <path d="M240.251,89.705 L246.007,95.46 C246.96,96.414 248.507,96.414 249.46,95.46 C250.414,94.507 250.414,92.96 249.46,92.007 L243.705,86.251 C242.751,85.298 241.205,85.298 240.251,86.251 C239.298,87.205 239.298,88.751 240.251,89.705 Z" />
        </g>
        <g id="Regular-S">
            <path d="M443.023,111 C443.023,98.863 452.863,89.023 465,89.023 C477.137,89.023 486.977,98.863 486.977,111 C486.977,123.137 477.137,132.977 465,132.977 C452.863,132.977 443.023,123.137 443.023,111 Z M438.14,111 C438.14,125.835 450.165,137.86 465,137.86 C479.835,137.86 491.86,125.835 491.86,111 C491.86,96.165 479.835,84.14 465,84.14 C450.165,84.14 438.14,96.165 438.14,111 Z" />
            <path d="M462.558,135.419 L462.558,143.558 C462.558,144.907 463.651,146 465,146 C466.349,146 467.442,144.907 467.442,143.558 L467.442,135.419 C467.442,134.07 466.349,132.977 465,132.977 C463.651,132.977 462.558,134.07 462.558,135.419 Z" />
            <path d="M489.419,111.814 L497.558,111.814 C498.907,111.814 500,110.721 500,109.372 C500,108.023 498.907,106.93 497.558,106.93 L489.419,106.93 C488.07,106.93 486.977,108.023 486.977,109.372 C486.977,110.721 488.07,111.814 489.419,111.814 Z" />
            <path d="M432.442,111.814 L440.581,111.814 C441.93,111.814 443.023,110.721 443.023,109.372 C443.023,108.023 441.93,106.93 440.581,106.93 L432.442,106.93 C431.093,106.93 430,108.023 430,109.372 C430,110.721 431.093,111.814 432.442,111.814 Z" />
            <path d="M462.558,78.442 L462.558,86.581 C462.558,87.93 463.651,89.023 465,89.023 C466.349,89.023 467.442,87.93 467.442,86.581 L467.442,78.442 C467.442,77.093 466.349,76 465,76 C463.651,76 462.558,77.093 462.558,78.442 Z" />
            <path d="M480.54,129.993 L486.295,135.749 C487.249,136.702 488.795,136.702 489.749,135.749 C490.702,134.795 490.702,133.249 489.749,132.295 L483.993,126.54 C483.039,125.586 481.493,125.586 480.54,126.54 C479.586,127.493 479.586,129.039 480.54,129.993 Z" />
            <path d="M482.842,94.309 L488.597,88.554 C489.551,87.6 489.551,86.054 488.597,85.101 C487.644,84.147 486.098,84.147 485.144,85.101 L479.389,90.856 C478.435,91.81 478.435,93.356 479.389,94.309 C480.342,95.263 481.888,95.263 482.842,94.309 Z" />
            <path d="M442.554,134.598 L448.309,128.842 C449.263,127.888 449.263,126.342 448.309,125.389 C447.356,124.435 445.809,124.435 444.856,125.389 L439.1,131.144 C438.147,132.098 438.147,133.644 439.1,134.598 C440.054,135.551 441.6,135.551 442.554,134.598 Z" />
            <path d="M440.251,89.705 L446.007,95.46 C446.96,96.414 448.507,96.414 449.46,95.46 C450.414,94.507 450.414,92.96 449.46,92.007 L443.705,86.251 C442.751,85.298 441.205,85.298 440.251,86.251 C439.298,87.205 439.298,88.751 440.251,89.705 Z" />
        </g>
        <g id="Black-S">
            <path d="M643.023,111 C643.023,98.863 652.863,89.023 665,89.023 C677.137,89.023 686.977,98.863 686.977,111 C686.977,123.137 677.137,132.977 665,132.977 C652.863,132.977 643.023,123.137 643.023,111 Z M638.14,111 C638.14,125.835 650.165,137.86 665,137.86 C679.835,137.86 691.86,125.835 691.86,111 C691.86,96.165 679.835,84.14 665,84.14 C650.165,84.14 638.14,96.165 638.14,111 Z" />
            <path d="M662.558,135.419 L662.558,143.558 C662.558,144.907 663.651,146 665,146 C666.349,146 667.442,144.907 667.442,143.558 L667.442,135.419 C667.442,134.07 666.349,132.977 665,132.977 C663.651,132.977 662.558,134.07 662.558,135.419 Z" />
            <path d="M689.419,111.814 L697.558,111.814 C698.907,111.814 700,110.721 700,109.372 C700,108.023 698.907,106.93 697.558,106.93 L689.419,106.93 C688.07,106.93 686.977,108.023 686.977,109.372 C686.977,110.721 688.07,111.814 689.419,111.814 Z" />
            <path d="M632.442,111.814 L640.581,111.814 C641.93,111.814 643.023,110.721 643.023,109.372 C643.023,108.023 641.93,106.93 640.581,106.93 L632.442,106.93 C631.093,106.93 630,108.023 630,109.372 C630,110.721 631.093,111.814 632.442,111.814 Z" />
            <path d="M662.558,78.442 L662.558,86.581 C662.558,87.93 663.651,89.023 665,89.023 C666.349,89.023 667.442,87.93 667.442,86.581 L667.442,78.442 C667.442,77.093 666.349,76 665,76 C663.651,76 662.558,77.093 662.558,78.442 Z" />
            <path d="M680.54,129.993 L686.295,135.749 C687.249,136.702 688.795,136.702 689.749,135.749 C690.702,134.795 690.702,133.249 689.749,132.295 L683.993,126.54 C683.039,125.586 681.493,125.586 680.54,126.54 C679.586,127.493 679.586,129.039 680.54,129.993 Z" />
            <path d="M682.842,94.309 L688.597,88.554 C689.551,87.6 689.551,86.054 688.597,85.101 C687.644,84.147 686.098,84.147 685.144,85.101 L679.389,90.856 C678.435,91.81 678.435,93.356 679.389,94.309 C680.342,95.263 681.888,95.263 682.842,94.309 Z" />
            <path d="M642.554,134.598 L648.309,128.842 C649.263,127.888 649.263,126.342 648.309,125.389 C647.356,124.435 645.809,124.435 644.856,125.389 L639.1,131.144 C638.147,132.098 638.147,133.644 639.1,134.598 C640.054,135.551 641.6,135.551 642.554,134.598 Z" />
            <path d="M640.251,89.705 L646.007,95.46 C646.96,96.414 648.506,96.414 649.46,95.46 C650.414,94.507 650.414,92.96 649.46,92.007 L643.705,86.251 C642.751,85.298 641.205,85.298 640.251,86.251 C639.298,87.205 639.298,88.751 640.251,89.705 Z" />
        </g>
    </g>
</svg>