<?xml version="1.0" encoding="UTF-8"?>
<svg height="600" width="800" xmlns="http://www.w3.org/2000/svg" xmlns:xlink="http://www.w3.org/1999/xlink">
    <g id="Notes" font-family="'LucidaGrande', 'Lucida Grande', sans-serif" font-size="13">
        <rect fill="white" height="600.0" width="800.0" x="0.0" y="0.0" />
        <g font-size="13">
            <text x="18.0" y="176.0">Small</text>
            <text x="18.0" y="376.0">Medium</text>
            <text x="18.0" y="576.0">Large</text>
        </g>
        <g font-size="9">
            <text x="250.0" y="30.0">Ultralight</text>
            <text x="450.0" y="30.0">Regular</text>
            <text x="650.0" y="30.0">Black</text>
            <text id="template-version" fill="#505050" text-anchor="end" x="785.0" y="575.0">Template v.3.0</text>
            <a href="https://github.com/swhitty/SwiftDraw">
                <text fill="#505050" text-anchor="end" x="785.0" y="590.0">https://github.com/swhitty/SwiftDraw</text>
            </a>
        </g>
    </g>
    <g id="Guides" stroke="rgb(39, 170, 225)" stroke-width="0.5">
        <path id="Capline-S" d="M18,76 l800,0" />
        <path id="H-reference" d="M85,145.755 L87.685,145.755 L113.369,79.287 L114.052,79.287 L114.052,76 L112.148,76 L85,145.755 Z M95.693,121.536 L130.996,121.536 L130.263,119.313 L96.474,119.313 L95.693,121.536 Z M139.15,145.755 L141.787,145.755 L114.638,76 L113.466,76 L113.466,79.287 L139.15,145.755 Z" stroke="none" />
        <path id="Baseline-S" d="M18,146 l800,0" />
        <path id="left-margin-Ultralight-S" d="M216.41,56 l0,110" />
        <path id="right-margin-Ultralight-S" d="M313.59,56 l0,110" />
        <path id="left-margin-Regular-S" d="M416.41,56 l0,110" />
        <path id="right-margin-Regular-S" d="M513.59,56 l0,110" />
        <path id="left-margin-Black-S" d="M616.41,56 l0,110" />
        <path id="right-margin-Black-S" d="M713.59,56 l0,110" />
        <path id="Capline-M" d="M18,276 l800,0" />
        <path id="Baseline-M" d="M18,346 l800,0" />
        <path id="Capline-L" d="M18,476 l800,0" />
        <path id="Baseline-L" d="M18,546 l800,0" />
    </g>
    <g id="Symbols">
        <g id="Ultralight-S">
            <path d="M256.026,106.513 C264.452,106.513 271.282,99.682 271.282,91.256 C271.282,82.831 264.452,76 256.026,76 C247.6,76 240.769,82.831 240.769,91.256 C240.769,99.682 247.6,106.513 256.026,106.513 Z M256.026,101.128 C250.574,101.128 246.154,96.708 246.154,91.256 C246.154,85.804 250.574,81.385 256.026,81.385 C261.478,81.385 265.897,85.804 265.897,91.256 C265.897,96.708 261.478,101.128 256.026,101.128 Z" />
            <path d="M226.41,141.154 L226.41,143.308 C226.41,144.795 227.616,146 229.103,146 L282.949,146 C284.436,146 285.641,144.795 285.641,143.308 L285.641,141.154 C285.641,130.56 285.435,128.041 283.783,124.797 C282.148,121.589 279.539,118.98 276.331,117.346 C273.087,115.693 270.568,115.487 259.974,115.487 L252.077,115.487 C241.483,115.487 238.964,115.693 235.72,117.346 C232.512,118.98 229.904,121.589 228.269,124.797 C226.616,128.041 226.41,130.56 226.41,141.154 Z M231.795,141.154 C231.795,131.643 231.98,129.374 233.066,127.242 C234.185,125.047 235.97,123.262 238.165,122.143 C240.297,121.057 242.566,120.872 252.077,120.872 L259.974,120.872 C269.485,120.872 271.755,121.057 273.886,122.143 C276.081,123.262 277.866,125.047 278.985,127.242 C280.071,129.374 280.256,131.643 280.256,141.154 L280.256,143.308 L282.949,143.308 L282.949,140.615 L229.103,140.615 L229.103,143.308 L231.795,143.308 L231.795,141.154 Z" />
            <path d="M279.359,104.718 L300.897,104.718 C302.384,104.718 303.59,103.513 303.59,102.026 C303.59,100.539 302.384,99.333 300.897,99.333 L279.359,99.333 C277.872,99.333 276.667,100.539 276.667,102.026 C276.667,103.513 277.872,104.718 279.359,104.718 Z" />
        </g>
        <g id="Regular-S">
            <path d="M456.026,106.513 C464.452,106.513 471.282,99.682 471.282,91.256 C471.282,82.831 464.452,76 456.026,76 C447.6,76 440.769,82.831 440.769,91.256 C440.769,99.682 447.6,106.513 456.026,106.513 Z M456.026,101.128 C450.574,101.128 446.154,96.708 446.154,91.256 C446.154,85.804 450.574,81.385 456.026,81.385 C461.478,81.385 465.897,85.804 465.897,91.256 C465.897,96.708 461.478,101.128 456.026,101.128 Z" />
            <path d="M426.41,141.154 L426.41,143.308 C426.41,144.795 427.616,146 429.103,146 L482.949,146 C484.436,146 485.641,144.795 485.641,143.308 L485.641,141.154 C485.641,130.56 485.435,128.041 483.783,124.797 C482.148,121.589 479.539,118.98 476.331,117.346 C473.087,115.693 470.568,115.487 459.974,115.487 L452.077,115.487 C441.483,115.487 438.964,115.693 435.72,117.346 C432.512,118.98 429.903,121.589 428.269,124.797 C426.616,128.041 426.41,130.56 426.41,141.154 Z M431.795,141.154 C431.795,131.643 431.98,129.374 433.066,127.242 C434.185,125.047 435.97,123.262 438.165,122.143 C440.297,121.057 442.566,120.872 452.077,120.872 L459.974,120.872 C469.485,120.872 471.755,121.057 473.886,122.143 C476.081,123.262 477.866,125.047 478.985,127.242 C480.071,129.374 480.256,131.643 480.256,141.154 L480.256,143.308 L482.949,143.308 L482.949,140.615 L429.103,140.615 L429.103,143.308 L431.795,143.308 L431.795,141.154 Z" />
            <path d="M479.359,104.718 L500.897,104.718 C502.384,104.718 503.59,103.513 503.59,102.026 C503.59,100.539 502.384,99.333 500.897,99.333 L479.359,99.333 C477.872,99.333 476.667,100.539 476.667,102.026 C476.667,103.513 477.872,104.718 479.359,104.718 Z" />
        </g>
        <g id="Black-S">
            <path d="M656.026,106.513 C664.452,106.513 671.282,99.682 671.282,91.256 C671.282,82.831 664.452,76 656.026,76 C647.6,76 640.769,82.831 640.769,91.256 C640.769,99.682 647.6,106.513 656.026,106.513 Z M656.026,101.128 C650.574,101.128 646.154,96.708 646.154,91.256 C646.154,85.804 650.574,81.385 656.026,81.385 C661.478,81.385 665.897,85.804 665.897,91.256 C665.897,96.708 661.478,101.128 656.026,101.128 Z" />
            <path d="M626.41,141.154 L626.41,143.308 C626.41,144.795 627.616,146 629.103,146 L682.949,146 C684.436,146 685.641,144.795 685.641,143.308 L685.641,141.154 C685.641,130.56 685.435,128.041 683.783,124.797 C682.148,121.589 679.539,118.98 676.331,117.346 C673.087,115.693 670.568,115.487 659.974,115.487 L652.077,115.487 C641.484,115.487 638.964,115.693 635.721,117.346 C632.512,118.98 629.904,121.589 628.269,124.797 C626.616,128.041 626.41,130.56 626.41,141.154 Z M631.795,141.154 C631.795,131.643 631.98,129.374 633.066,127.242 C634.185,125.047 635.97,123.262 638.165,122.143 C640.297,121.057 642.566,120.872 652.077,120.872 L659.974,120.872 C669.485,120.872 671.755,121.057 673.886,122.143 C676.081,123.262 677.866,125.047 678.985,127.242 C680.071,129.374 680.256,131.643 680.256,141.154 L680.256,143.308 L682.949,143.308 L682.949,140.615 L629.103,140.615 L629.103,143.308 L631.795,143.308 L631.795,141.154 Z" />
            <path d="M679.359,104.718 L700.897,104.718 C702.384,104.718 703.59,103.513 703.59,102.026 C703.59,100.539 702.384,99.333 700.897,99.333 L679.359,99.333 C677.872,99.333 676.667,100.539 676.667,102.026 C676.667,103.513 677.872,104.718 679.359,104.718 Z" />
        </g>
    </g>
</svg>