<?xml version="1.0" encoding="UTF-8"?>
<svg height="600" width="800" xmlns="http://www.w3.org/2000/svg" xmlns:xlink="http://www.w3.org/1999/xlink">
    <g id="Notes" font-family="'LucidaGrande', 'Lucida Grande', sans-serif" font-size="13">
        <rect fill="white" height="600.0" width="800.0" x="0.0" y="0.0" />
        <g font-size="13">
            <text x="18.0" y="176.0">Small</text>
            <text x="18.0" y="376.0">Medium</text>
            <text x="18.0" y="576.0">Large</text>
        </g>
        <g font-size="9">
            <text x="250.0" y="30.0">Ultralight</text>
            <text x="450.0" y="30.0">Regular</text>
            <text x="650.0" y="30.0">Black</text>
            <text id="template-version" fill="#505050" text-anchor="end" x="785.0" y="575.0">Template v.3.0</text>
            <a href="https://github.com/swhitty/SwiftDraw">
                <text fill="#505050" text-anchor="end" x="785.0" y="590.0">https://github.com/swhitty/SwiftDraw</text>
            </a>
        </g>
    </g>
    <g id="Guides" stroke="rgb(39, 170, 225)" stroke-width="0.5">
        <path id="Capline-S" d="M18,76 l800,0" />
        <path id="H-reference" d="M85,145.755 L87.685,145.755 L113.369,79.287 L114.052,79.287 L114.052,76 L112.148,76 L85,145.755 Z M95.693,121.536 L130.996,121.536 L130.263,119.313 L96.474,119.313 L95.693,121.536 Z M139.15,145.755 L141.787,145.755 L114.638,76 L113.466,76 L113.466,79.287 L139.15,145.755 Z" stroke="none" />
        <path id="Baseline-S" d="M18,146 l800,0" />
        <path id="left-margin-Ultralight-S" d="M218.205,56 l0,110" />
        <path id="right-margin-Ultralight-S" d="M311.795,56 l0,110" />
        <path id="left-margin-Regular-S" d="M418.205,56 l0,110" />
        <path id="right-margin-Regular-S" d="M511.795,56 l0,110" />
        <path id="left-margin-Black-S" d="M618.205,56 l0,110" />
        <path id="right-margin-Black-S" d="M711.795,56 l0,110" />
        <path id="Capline-M" d="M18,276 l800,0" />
        <path id="Baseline-M" d="M18,346 l800,0" />
        <path id="Capline-L" d="M18,476 l800,0" />
        <path id="Baseline-L" d="M18,546 l800,0" />
    </g>
    <g id="Symbols">
        <g id="Ultralight-S">
            <path d="M296.41,121.769 L296.41,139.718 C296.41,139.956 296.316,140.184 296.147,140.353 C295.979,140.521 295.751,140.615 295.513,140.615 L234.487,140.615 C234.249,140.615 234.021,140.521 233.853,140.353 C233.684,140.184 233.59,139.956 233.59,139.718 L233.59,103.821 C233.59,103.583 233.684,103.354 233.853,103.186 C234.021,103.018 234.249,102.923 234.487,102.923 L295.513,102.923 C295.751,102.923 295.979,103.018 296.147,103.186 C296.316,103.354 296.41,103.582 296.41,103.821 L296.41,121.769 Z M301.795,121.769 L301.795,103.821 C301.795,102.154 301.133,100.557 299.955,99.378 C298.777,98.2 297.179,97.538 295.513,97.538 L234.487,97.538 C232.821,97.538 231.223,98.2 230.045,99.378 C228.867,100.557 228.205,102.154 228.205,103.821 L228.205,139.718 C228.205,141.384 228.867,142.982 230.045,144.16 C231.223,145.338 232.821,146 234.487,146 L295.513,146 C297.179,146 298.777,145.338 299.955,144.16 C301.133,142.982 301.795,141.384 301.795,139.718 L301.795,121.769 Z" />
            <path d="M236.282,92.154 L293.718,92.154 C295.205,92.154 296.41,90.948 296.41,89.462 C296.41,87.975 295.205,86.769 293.718,86.769 L236.282,86.769 C234.795,86.769 233.59,87.975 233.59,89.462 C233.59,90.948 234.795,92.154 236.282,92.154 Z" />
            <path d="M248.846,81.385 L281.154,81.385 C282.641,81.385 283.846,80.179 283.846,78.692 C283.846,77.205 282.641,76 281.154,76 L248.846,76 C247.359,76 246.154,77.205 246.154,78.692 C246.154,80.179 247.359,81.385 248.846,81.385 Z" />
            <path d="M265.897,111 L265.897,121.769 C265.897,123.256 267.103,124.462 268.59,124.462 C270.077,124.462 271.282,123.256 271.282,121.769 L271.282,111 C271.282,109.513 270.077,108.308 268.59,108.308 C267.103,108.308 265.897,109.513 265.897,111 Z" />
            <path d="M256.923,126.704 C256.923,125.494 258.005,124.462 259.4,124.462 L268.59,124.462 L265.897,121.769 L265.897,127.604 C265.897,128.814 264.816,129.846 263.421,129.846 L259.4,129.846 C258.005,129.846 256.923,128.814 256.923,127.604 L256.923,126.704 Z M251.538,126.704 L251.538,127.604 C251.538,131.845 255.085,135.231 259.4,135.231 L263.421,135.231 C267.735,135.231 271.282,131.845 271.282,127.604 L271.282,121.769 C271.282,120.282 270.077,119.077 268.59,119.077 L259.4,119.077 C255.085,119.077 251.538,122.463 251.538,126.704 Z" />
            <path d="M278.092,110.155 L269.118,108.36 C267.66,108.068 266.241,109.014 265.95,110.472 C265.658,111.93 266.604,113.348 268.062,113.64 L277.036,115.435 C278.494,115.727 279.913,114.781 280.204,113.323 C280.496,111.865 279.55,110.446 278.092,110.155 Z" />
        </g>
        <g id="Regular-S">
            <path d="M496.41,121.769 L496.41,139.718 C496.41,139.956 496.316,140.184 496.147,140.353 C495.979,140.521 495.751,140.615 495.513,140.615 L434.487,140.615 C434.249,140.615 434.021,140.521 433.853,140.353 C433.684,140.184 433.59,139.956 433.59,139.718 L433.59,103.821 C433.59,103.583 433.684,103.354 433.853,103.186 C434.021,103.018 434.249,102.923 434.487,102.923 L495.513,102.923 C495.751,102.923 495.979,103.018 496.147,103.186 C496.316,103.354 496.41,103.582 496.41,103.821 L496.41,121.769 Z M501.795,121.769 L501.795,103.821 C501.795,102.154 501.133,100.557 499.955,99.378 C498.777,98.2 497.179,97.538 495.513,97.538 L434.487,97.538 C432.821,97.538 431.223,98.2 430.045,99.378 C428.867,100.557 428.205,102.154 428.205,103.821 L428.205,139.718 C428.205,141.384 428.867,142.982 430.045,144.16 C431.223,145.338 432.821,146 434.487,146 L495.513,146 C497.179,146 498.777,145.338 499.955,144.16 C501.133,142.982 501.795,141.384 501.795,139.718 L501.795,121.769 Z" />
            <path d="M436.282,92.154 L493.718,92.154 C495.205,92.154 496.41,90.948 496.41,89.462 C496.41,87.975 495.205,86.769 493.718,86.769 L436.282,86.769 C434.795,86.769 433.59,87.975 433.59,89.462 C433.59,90.948 434.795,92.154 436.282,92.154 Z" />
            <path d="M448.846,81.385 L481.154,81.385 C482.641,81.385 483.846,80.179 483.846,78.692 C483.846,77.205 482.641,76 481.154,76 L448.846,76 C447.359,76 446.154,77.205 446.154,78.692 C446.154,80.179 447.359,81.385 448.846,81.385 Z" />
            <path d="M465.897,111 L465.897,121.769 C465.897,123.256 467.103,124.462 468.59,124.462 C470.077,124.462 471.282,123.256 471.282,121.769 L471.282,111 C471.282,109.513 470.077,108.308 468.59,108.308 C467.103,108.308 465.897,109.513 465.897,111 Z" />
            <path d="M456.923,126.704 C456.923,125.494 458.005,124.462 459.4,124.462 L468.59,124.462 L465.897,121.769 L465.897,127.604 C465.897,128.814 464.816,129.846 463.421,129.846 L459.4,129.846 C458.005,129.846 456.923,128.814 456.923,127.604 L456.923,126.704 Z M451.538,126.704 L451.538,127.604 C451.538,131.845 455.085,135.231 459.4,135.231 L463.421,135.231 C467.735,135.231 471.282,131.845 471.282,127.604 L471.282,121.769 C471.282,120.282 470.077,119.077 468.59,119.077 L459.4,119.077 C455.085,119.077 451.538,122.463 451.538,126.704 Z" />
            <path d="M478.092,110.155 L469.118,108.36 C467.66,108.068 466.241,109.014 465.95,110.472 C465.658,111.93 466.604,113.348 468.062,113.64 L477.036,115.435 C478.494,115.727 479.913,114.781 480.204,113.323 C480.496,111.865 479.55,110.446 478.092,110.155 Z" />
        </g>
        <g id="Black-S">
            <path d="M696.41,121.769 L696.41,139.718 C696.41,139.956 696.316,140.184 696.147,140.353 C695.979,140.521 695.751,140.615 695.513,140.615 L634.487,140.615 C634.249,140.615 634.021,140.521 633.853,140.353 C633.684,140.184 633.59,139.956 633.59,139.718 L633.59,103.821 C633.59,103.583 633.684,103.354 633.853,103.186 C634.021,103.018 634.249,102.923 634.487,102.923 L695.513,102.923 C695.751,102.923 695.979,103.018 696.147,103.186 C696.316,103.354 696.41,103.582 696.41,103.821 L696.41,121.769 Z M701.795,121.769 L701.795,103.821 C701.795,102.154 701.133,100.557 699.955,99.378 C698.777,98.2 697.179,97.538 695.513,97.538 L634.487,97.538 C632.821,97.538 631.223,98.2 630.045,99.378 C628.867,100.557 628.205,102.154 628.205,103.821 L628.205,139.718 C628.205,141.384 628.867,142.982 630.045,144.16 C631.223,145.338 632.821,146 634.487,146 L695.513,146 C697.179,146 698.777,145.338 699.955,144.16 C701.133,142.982 701.795,141.384 701.795,139.718 L701.795,121.769 Z" />
            <path d="M636.282,92.154 L693.718,92.154 C695.205,92.154 696.41,90.948 696.41,89.462 C696.41,87.975 695.205,86.769 693.718,86.769 L636.282,86.769 C634.795,86.769 633.59,87.975 633.59,89.462 C633.59,90.948 634.795,92.154 636.282,92.154 Z" />
            <path d="M648.846,81.385 L681.154,81.385 C682.641,81.385 683.846,80.179 683.846,78.692 C683.846,77.205 682.641,76 681.154,76 L648.846,76 C647.359,76 646.154,77.205 646.154,78.692 C646.154,80.179 647.359,81.385 648.846,81.385 Z" />
            <path d="M665.897,111 L665.897,121.769 C665.897,123.256 667.103,124.462 668.59,124.462 C670.077,124.462 671.282,123.256 671.282,121.769 L671.282,111 C671.282,109.513 670.077,108.308 668.59,108.308 C667.103,108.308 665.897,109.513 665.897,111 Z" />
            <path d="M656.923,126.704 C656.923,125.494 658.005,124.462 659.4,124.462 L668.59,124.462 L665.897,121.769 L665.897,127.604 C665.897,128.814 664.816,129.846 663.421,129.846 L659.4,129.846 C658.005,129.846 656.923,128.814 656.923,127.604 L656.923,126.704 Z M651.538,126.704 L651.538,127.604 C651.538,131.845 655.085,135.231 659.4,135.231 L663.421,135.231 C667.735,135.231 671.282,131.845 671.282,127.604 L671.282,121.769 C671.282,120.282 670.077,119.077 668.59,119.077 L659.4,119.077 C655.085,119.077 651.538,122.463 651.538,126.704 Z" />
            <path d="M678.092,110.155 L669.118,108.36 C667.66,108.068 666.241,109.014 665.95,110.472 C665.658,111.93 666.604,113.348 668.062,113.64 L677.036,115.435 C678.494,115.727 679.913,114.781 680.204,113.323 C680.496,111.865 679.55,110.446 678.092,110.155 Z" />
        </g>
    </g>
</svg>