<?xml version="1.0" encoding="UTF-8"?>
<svg height="600" width="800" xmlns="http://www.w3.org/2000/svg" xmlns:xlink="http://www.w3.org/1999/xlink">
    <g id="Notes" font-family="'LucidaGrande', 'Lucida Grande', sans-serif" font-size="13">
        <rect fill="white" height="600.0" width="800.0" x="0.0" y="0.0" />
        <g font-size="13">
            <text x="18.0" y="176.0">Small</text>
            <text x="18.0" y="376.0">Medium</text>
            <text x="18.0" y="576.0">Large</text>
        </g>
        <g font-size="9">
            <text x="250.0" y="30.0">Ultralight</text>
            <text x="450.0" y="30.0">Regular</text>
            <text x="650.0" y="30.0">Black</text>
            <text id="template-version" fill="#505050" text-anchor="end" x="785.0" y="575.0">Template v.3.0</text>
            <a href="https://github.com/swhitty/SwiftDraw">
                <text fill="#505050" text-anchor="end" x="785.0" y="590.0">https://github.com/swhitty/SwiftDraw</text>
            </a>
        </g>
    </g>
    <g id="Guides" stroke="rgb(39, 170, 225)" stroke-width="0.5">
        <path id="Capline-S" d="M18,76 l800,0" />
        <path id="H-reference" d="M85,145.755 L87.685,145.755 L113.369,79.287 L114.052,79.287 L114.052,76 L112.148,76 L85,145.755 Z M95.693,121.536 L130.996,121.536 L130.263,119.313 L96.474,119.313 L95.693,121.536 Z M139.15,145.755 L141.787,145.755 L114.638,76 L113.466,76 L113.466,79.287 L139.15,145.755 Z" stroke="none" />
        <path id="Baseline-S" d="M18,146 l800,0" />
        <path id="left-margin-Ultralight-S" d="M221,56 l0,110" />
        <path id="right-margin-Ultralight-S" d="M309,56 l0,110" />
        <path id="left-margin-Regular-S" d="M421,56 l0,110" />
        <path id="right-margin-Regular-S" d="M509,56 l0,110" />
        <path id="left-margin-Black-S" d="M621,56 l0,110" />
        <path id="right-margin-Black-S" d="M709,56 l0,110" />
        <path id="Capline-M" d="M18,276 l800,0" />
        <path id="Baseline-M" d="M18,346 l800,0" />
        <path id="Capline-L" d="M18,476 l800,0" />
        <path id="Baseline-L" d="M18,546 l800,0" />
    </g>
    <g id="Symbols">
        <g id="Ultralight-S">
            <path d="M247.915,127.279 L247.915,143.558 C247.915,144.907 249.008,146 250.357,146 L279.659,146 C281.008,146 282.101,144.907 282.101,143.558 L282.101,127.279 C282.101,125.93 281.008,124.837 279.659,124.837 C278.311,124.837 277.217,125.93 277.217,127.279 L277.217,143.558 L279.659,141.116 L250.357,141.116 L252.799,143.558 L252.799,127.279 C252.799,125.93 251.706,124.837 250.357,124.837 C249.008,124.837 247.915,125.93 247.915,127.279 Z" />
            <path d="M277.926,76 L251.961,76 C240.822,76 236.388,83.106 238.657,90.609 L247.97,127.871 L248.433,129.721 L250.339,129.721 L279.547,129.721 L281.434,129.721 L281.91,127.895 C281.93,127.819 281.93,127.819 282.024,127.46 C282.152,126.968 282.152,126.968 282.344,126.23 C282.688,124.906 283.072,123.428 283.486,121.835 C284.667,117.284 285.849,112.718 286.951,108.435 C286.997,108.258 286.997,108.258 287.043,108.081 C289.182,99.771 290.747,93.611 291.505,90.476 C293.357,82.824 289.02,75.972 277.919,76 Z M277.932,80.884 C285.593,80.865 287.918,84.537 286.758,89.328 C286.008,92.43 284.446,98.578 282.313,106.863 C282.268,107.04 282.268,107.04 282.222,107.217 C281.12,111.496 279.939,116.059 278.759,120.608 C278.345,122.2 277.962,123.677 277.617,125.001 C277.425,125.738 277.425,125.738 277.297,126.229 C277.204,126.588 277.204,126.588 277.184,126.663 L279.547,124.837 L250.339,124.837 L252.708,126.687 L243.364,89.31 C241.958,84.653 244.31,80.884 251.961,80.884 L277.926,80.884 Z" />
            <path d="M261.157,104.582 C263.488,101.818 265.139,98.829 267.341,94.129 L263.241,94.641 C265.668,97.602 269.349,103.079 270.386,105.54 C271.297,107.701 268.558,110.857 265.129,110.857 C261.877,110.857 259.373,106.698 261.157,104.582 Z M257.423,101.435 C252.742,106.987 258.014,115.741 265.129,115.741 C271.759,115.741 277.297,109.36 274.887,103.643 C273.628,100.657 269.717,94.839 267.018,91.545 C265.879,90.156 263.68,90.43 262.918,92.057 C260.896,96.375 259.387,99.105 257.423,101.435 Z" />
        </g>
        <g id="Regular-S">
            <path d="M447.915,127.279 L447.915,143.558 C447.915,144.907 449.008,146 450.357,146 L479.659,146 C481.008,146 482.101,144.907 482.101,143.558 L482.101,127.279 C482.101,125.93 481.008,124.837 479.659,124.837 C478.311,124.837 477.217,125.93 477.217,127.279 L477.217,143.558 L479.659,141.116 L450.357,141.116 L452.799,143.558 L452.799,127.279 C452.799,125.93 451.706,124.837 450.357,124.837 C449.008,124.837 447.915,125.93 447.915,127.279 Z" />
            <path d="M477.926,76 L451.961,76 C440.822,76 436.388,83.106 438.657,90.609 L447.97,127.871 L448.433,129.721 L450.339,129.721 L479.547,129.721 L481.434,129.721 L481.91,127.895 C481.93,127.819 481.93,127.819 482.024,127.46 C482.152,126.968 482.152,126.968 482.344,126.23 C482.688,124.906 483.072,123.428 483.486,121.835 C484.667,117.284 485.849,112.718 486.951,108.435 C486.997,108.258 486.997,108.258 487.043,108.081 C489.182,99.771 490.747,93.611 491.505,90.476 C493.357,82.824 489.02,75.972 477.919,76 Z M477.932,80.884 C485.593,80.865 487.918,84.537 486.758,89.328 C486.008,92.43 484.446,98.578 482.313,106.863 C482.268,107.04 482.268,107.04 482.222,107.217 C481.12,111.496 479.939,116.059 478.759,120.608 C478.345,122.2 477.962,123.677 477.617,125.001 C477.425,125.738 477.425,125.738 477.297,126.229 C477.204,126.588 477.204,126.588 477.184,126.663 L479.547,124.837 L450.339,124.837 L452.708,126.687 L443.364,89.31 C441.958,84.653 444.31,80.884 451.961,80.884 L477.926,80.884 Z" />
            <path d="M461.157,104.582 C463.488,101.818 465.139,98.829 467.341,94.129 L463.241,94.641 C465.668,97.602 469.349,103.079 470.386,105.54 C471.297,107.701 468.558,110.857 465.129,110.857 C461.877,110.857 459.373,106.698 461.157,104.582 Z M457.423,101.435 C452.742,106.987 458.014,115.741 465.129,115.741 C471.759,115.741 477.297,109.36 474.887,103.643 C473.628,100.657 469.717,94.839 467.018,91.545 C465.879,90.156 463.68,90.43 462.918,92.057 C460.896,96.375 459.387,99.105 457.423,101.435 Z" />
        </g>
        <g id="Black-S">
            <path d="M647.915,127.279 L647.915,143.558 C647.915,144.907 649.008,146 650.357,146 L679.659,146 C681.008,146 682.101,144.907 682.101,143.558 L682.101,127.279 C682.101,125.93 681.008,124.837 679.659,124.837 C678.311,124.837 677.217,125.93 677.217,127.279 L677.217,143.558 L679.659,141.116 L650.357,141.116 L652.799,143.558 L652.799,127.279 C652.799,125.93 651.706,124.837 650.357,124.837 C649.008,124.837 647.915,125.93 647.915,127.279 Z" />
            <path d="M677.926,76 L651.961,76 C640.822,76 636.388,83.106 638.657,90.609 L647.97,127.871 L648.433,129.721 L650.339,129.721 L679.547,129.721 L681.434,129.721 L681.91,127.895 C681.93,127.819 681.93,127.819 682.024,127.46 C682.152,126.968 682.152,126.968 682.344,126.23 C682.688,124.906 683.072,123.428 683.486,121.835 C684.667,117.284 685.849,112.718 686.951,108.435 C686.997,108.258 686.997,108.258 687.043,108.081 C689.182,99.771 690.747,93.611 691.505,90.476 C693.357,82.824 689.02,75.972 677.919,76 Z M677.932,80.884 C685.593,80.865 687.918,84.537 686.758,89.328 C686.008,92.43 684.446,98.578 682.313,106.863 C682.268,107.04 682.268,107.04 682.222,107.217 C681.12,111.496 679.939,116.059 678.759,120.608 C678.345,122.2 677.962,123.677 677.617,125.001 C677.425,125.738 677.425,125.738 677.297,126.229 C677.204,126.588 677.204,126.588 677.184,126.663 L679.547,124.837 L650.339,124.837 L652.708,126.687 L643.364,89.31 C641.958,84.653 644.31,80.884 651.961,80.884 L677.926,80.884 Z" />
            <path d="M661.157,104.582 C663.488,101.818 665.139,98.829 667.341,94.129 L663.241,94.641 C665.668,97.602 669.349,103.079 670.386,105.54 C671.297,107.701 668.558,110.857 665.129,110.857 C661.877,110.857 659.373,106.698 661.157,104.582 Z M657.423,101.435 C652.742,106.987 658.014,115.741 665.129,115.741 C671.759,115.741 677.297,109.36 674.887,103.643 C673.628,100.657 669.717,94.839 667.018,91.545 C665.879,90.156 663.68,90.43 662.918,92.057 C660.896,96.375 659.387,99.105 657.423,101.435 Z" />
        </g>
    </g>
</svg>