<?xml version="1.0" encoding="UTF-8"?>
<svg height="600" width="800" xmlns="http://www.w3.org/2000/svg" xmlns:xlink="http://www.w3.org/1999/xlink">
    <g id="Notes" font-family="'LucidaGrande', 'Lucida Grande', sans-serif" font-size="13">
        <rect fill="white" height="600.0" width="800.0" x="0.0" y="0.0" />
        <g font-size="13">
            <text x="18.0" y="176.0">Small</text>
            <text x="18.0" y="376.0">Medium</text>
            <text x="18.0" y="576.0">Large</text>
        </g>
        <g font-size="9">
            <text x="250.0" y="30.0">Ultralight</text>
            <text x="450.0" y="30.0">Regular</text>
            <text x="650.0" y="30.0">Black</text>
            <text id="template-version" fill="#505050" text-anchor="end" x="785.0" y="575.0">Template v.3.0</text>
            <a href="https://github.com/swhitty/SwiftDraw">
                <text fill="#505050" text-anchor="end" x="785.0" y="590.0">https://github.com/swhitty/SwiftDraw</text>
            </a>
        </g>
    </g>
    <g id="Guides" stroke="rgb(39, 170, 225)" stroke-width="0.5">
        <path id="Capline-S" d="M18,76 l800,0" />
        <path id="H-reference" d="M85,145.755 L87.685,145.755 L113.369,79.287 L114.052,79.287 L114.052,76 L112.148,76 L85,145.755 Z M95.693,121.536 L130.996,121.536 L130.263,119.313 L96.474,119.313 L95.693,121.536 Z M139.15,145.755 L141.787,145.755 L114.638,76 L113.466,76 L113.466,79.287 L139.15,145.755 Z" stroke="none" />
        <path id="Baseline-S" d="M18,146 l800,0" />
        <path id="left-margin-Ultralight-S" d="M218.205,56 l0,110" />
        <path id="right-margin-Ultralight-S" d="M311.795,56 l0,110" />
        <path id="left-margin-Regular-S" d="M418.205,56 l0,110" />
        <path id="right-margin-Regular-S" d="M511.795,56 l0,110" />
        <path id="left-margin-Black-S" d="M618.205,56 l0,110" />
        <path id="right-margin-Black-S" d="M711.795,56 l0,110" />
        <path id="Capline-M" d="M18,276 l800,0" />
        <path id="Baseline-M" d="M18,346 l800,0" />
        <path id="Capline-L" d="M18,476 l800,0" />
        <path id="Baseline-L" d="M18,546 l800,0" />
    </g>
    <g id="Symbols">
        <g id="Ultralight-S">
            <path d="M238.077,146 C243.529,146 247.949,141.58 247.949,136.128 C247.949,130.676 243.529,126.256 238.077,126.256 C232.625,126.256 228.205,130.676 228.205,136.128 C228.205,141.58 232.625,146 238.077,146 Z M238.077,140.615 C235.599,140.615 233.59,138.606 233.59,136.128 C233.59,133.65 235.599,131.641 238.077,131.641 C240.555,131.641 242.564,133.65 242.564,136.128 C242.564,138.606 240.555,140.615 238.077,140.615 Z" />
            <path d="M238.077,95.744 C243.529,95.744 247.949,91.324 247.949,85.872 C247.949,80.42 243.529,76 238.077,76 C232.625,76 228.205,80.42 228.205,85.872 C228.205,91.324 232.625,95.744 238.077,95.744 Z M238.077,90.359 C235.599,90.359 233.59,88.35 233.59,85.872 C233.59,83.394 235.599,81.385 238.077,81.385 C240.555,81.385 242.564,83.394 242.564,85.872 C242.564,88.35 240.555,90.359 238.077,90.359 Z" />
            <path d="M238.077,120.872 C243.529,120.872 247.949,116.452 247.949,111 C247.949,105.548 243.529,101.128 238.077,101.128 C232.625,101.128 228.205,105.548 228.205,111 C228.205,116.452 232.625,120.872 238.077,120.872 Z M238.077,115.487 C235.599,115.487 233.59,113.478 233.59,111 C233.59,108.522 235.599,106.513 238.077,106.513 C240.555,106.513 242.564,108.522 242.564,111 C242.564,113.478 240.555,115.487 238.077,115.487 Z" />
            <path d="M259.615,113.692 L299.103,113.692 C300.589,113.692 301.795,112.487 301.795,111 C301.795,109.513 300.589,108.308 299.103,108.308 L259.615,108.308 C258.128,108.308 256.923,109.513 256.923,111 C256.923,112.487 258.128,113.692 259.615,113.692 Z" />
            <path d="M259.615,138.821 L299.103,138.821 C300.589,138.821 301.795,137.615 301.795,136.128 C301.795,134.641 300.589,133.436 299.103,133.436 L259.615,133.436 C258.128,133.436 256.923,134.641 256.923,136.128 C256.923,137.615 258.128,138.821 259.615,138.821 Z" />
            <path d="M259.615,88.564 L299.103,88.564 C300.589,88.564 301.795,87.359 301.795,85.872 C301.795,84.385 300.589,83.179 299.103,83.179 L259.615,83.179 C258.128,83.179 256.923,84.385 256.923,85.872 C256.923,87.359 258.128,88.564 259.615,88.564 Z" />
        </g>
        <g id="Regular-S">
            <path d="M438.077,146 C443.529,146 447.949,141.58 447.949,136.128 C447.949,130.676 443.529,126.256 438.077,126.256 C432.625,126.256 428.205,130.676 428.205,136.128 C428.205,141.58 432.625,146 438.077,146 Z M438.077,140.615 C435.599,140.615 433.59,138.606 433.59,136.128 C433.59,133.65 435.599,131.641 438.077,131.641 C440.555,131.641 442.564,133.65 442.564,136.128 C442.564,138.606 440.555,140.615 438.077,140.615 Z" />
            <path d="M438.077,95.744 C443.529,95.744 447.949,91.324 447.949,85.872 C447.949,80.42 443.529,76 438.077,76 C432.625,76 428.205,80.42 428.205,85.872 C428.205,91.324 432.625,95.744 438.077,95.744 Z M438.077,90.359 C435.599,90.359 433.59,88.35 433.59,85.872 C433.59,83.394 435.599,81.385 438.077,81.385 C440.555,81.385 442.564,83.394 442.564,85.872 C442.564,88.35 440.555,90.359 438.077,90.359 Z" />
            <path d="M438.077,120.872 C443.529,120.872 447.949,116.452 447.949,111 C447.949,105.548 443.529,101.128 438.077,101.128 C432.625,101.128 428.205,105.548 428.205,111 C428.205,116.452 432.625,120.872 438.077,120.872 Z M438.077,115.487 C435.599,115.487 433.59,113.478 433.59,111 C433.59,108.522 435.599,106.513 438.077,106.513 C440.555,106.513 442.564,108.522 442.564,111 C442.564,113.478 440.555,115.487 438.077,115.487 Z" />
            <path d="M459.615,113.692 L499.103,113.692 C500.589,113.692 501.795,112.487 501.795,111 C501.795,109.513 500.589,108.308 499.103,108.308 L459.615,108.308 C458.128,108.308 456.923,109.513 456.923,111 C456.923,112.487 458.128,113.692 459.615,113.692 Z" />
            <path d="M459.615,138.821 L499.103,138.821 C500.589,138.821 501.795,137.615 501.795,136.128 C501.795,134.641 500.589,133.436 499.103,133.436 L459.615,133.436 C458.128,133.436 456.923,134.641 456.923,136.128 C456.923,137.615 458.128,138.821 459.615,138.821 Z" />
            <path d="M459.615,88.564 L499.103,88.564 C500.589,88.564 501.795,87.359 501.795,85.872 C501.795,84.385 500.589,83.179 499.103,83.179 L459.615,83.179 C458.128,83.179 456.923,84.385 456.923,85.872 C456.923,87.359 458.128,88.564 459.615,88.564 Z" />
        </g>
        <g id="Black-S">
            <path d="M638.077,146 C643.529,146 647.949,141.58 647.949,136.128 C647.949,130.676 643.529,126.256 638.077,126.256 C632.625,126.256 628.205,130.676 628.205,136.128 C628.205,141.58 632.625,146 638.077,146 Z M638.077,140.615 C635.599,140.615 633.59,138.606 633.59,136.128 C633.59,133.65 635.599,131.641 638.077,131.641 C640.555,131.641 642.564,133.65 642.564,136.128 C642.564,138.606 640.555,140.615 638.077,140.615 Z" />
            <path d="M638.077,95.744 C643.529,95.744 647.949,91.324 647.949,85.872 C647.949,80.42 643.529,76 638.077,76 C632.625,76 628.205,80.42 628.205,85.872 C628.205,91.324 632.625,95.744 638.077,95.744 Z M638.077,90.359 C635.599,90.359 633.59,88.35 633.59,85.872 C633.59,83.394 635.599,81.385 638.077,81.385 C640.555,81.385 642.564,83.394 642.564,85.872 C642.564,88.35 640.555,90.359 638.077,90.359 Z" />
            <path d="M638.077,120.872 C643.529,120.872 647.949,116.452 647.949,111 C647.949,105.548 643.529,101.128 638.077,101.128 C632.625,101.128 628.205,105.548 628.205,111 C628.205,116.452 632.625,120.872 638.077,120.872 Z M638.077,115.487 C635.599,115.487 633.59,113.478 633.59,111 C633.59,108.522 635.599,106.513 638.077,106.513 C640.555,106.513 642.564,108.522 642.564,111 C642.564,113.478 640.555,115.487 638.077,115.487 Z" />
            <path d="M659.615,113.692 L699.103,113.692 C700.589,113.692 701.795,112.487 701.795,111 C701.795,109.513 700.589,108.308 699.103,108.308 L659.615,108.308 C658.128,108.308 656.923,109.513 656.923,111 C656.923,112.487 658.128,113.692 659.615,113.692 Z" />
            <path d="M659.615,138.821 L699.103,138.821 C700.589,138.821 701.795,137.615 701.795,136.128 C701.795,134.641 700.589,133.436 699.103,133.436 L659.615,133.436 C658.128,133.436 656.923,134.641 656.923,136.128 C656.923,137.615 658.128,138.821 659.615,138.821 Z" />
            <path d="M659.615,88.564 L699.103,88.564 C700.589,88.564 701.795,87.359 701.795,85.872 C701.795,84.385 700.589,83.179 699.103,83.179 L659.615,83.179 C658.128,83.179 656.923,84.385 656.923,85.872 C656.923,87.359 658.128,88.564 659.615,88.564 Z" />
        </g>
    </g>
</svg>