<?xml version="1.0" encoding="UTF-8"?>
<svg height="600" width="800" xmlns="http://www.w3.org/2000/svg" xmlns:xlink="http://www.w3.org/1999/xlink">
    <g id="Notes" font-family="'LucidaGrande', 'Lucida Grande', sans-serif" font-size="13">
        <rect fill="white" height="600.0" width="800.0" x="0.0" y="0.0" />
        <g font-size="13">
            <text x="18.0" y="176.0">Small</text>
            <text x="18.0" y="376.0">Medium</text>
            <text x="18.0" y="576.0">Large</text>
        </g>
        <g font-size="9">
            <text x="250.0" y="30.0">Ultralight</text>
            <text x="450.0" y="30.0">Regular</text>
            <text x="650.0" y="30.0">Black</text>
            <text id="template-version" fill="#505050" text-anchor="end" x="785.0" y="575.0">Template v.3.0</text>
            <a href="https://github.com/swhitty/SwiftDraw">
                <text fill="#505050" text-anchor="end" x="785.0" y="590.0">https://github.com/swhitty/SwiftDraw</text>
            </a>
        </g>
    </g>
    <g id="Guides" stroke="rgb(39, 170, 225)" stroke-width="0.5">
        <path id="Capline-S" d="M18,76 l800,0" />
        <path id="H-reference" d="M85,145.755 L87.685,145.755 L113.369,79.287 L114.052,79.287 L114.052,76 L112.148,76 L85,145.755 Z M95.693,121.536 L130.996,121.536 L130.263,119.313 L96.474,119.313 L95.693,121.536 Z M139.15,145.755 L141.787,145.755 L114.638,76 L113.466,76 L113.466,79.287 L139.15,145.755 Z" stroke="none" />
        <path id="Baseline-S" d="M18,146 l800,0" />
        <path id="left-margin-Ultralight-S" d="M221,56 l0,110" />
        <path id="right-margin-Ultralight-S" d="M309,56 l0,110" />
        <path id="left-margin-Regular-S" d="M421,56 l0,110" />
        <path id="right-margin-Regular-S" d="M509,56 l0,110" />
        <path id="left-margin-Black-S" d="M621,56 l0,110" />
        <path id="right-margin-Black-S" d="M709,56 l0,110" />
        <path id="Capline-M" d="M18,276 l800,0" />
        <path id="Baseline-M" d="M18,346 l800,0" />
        <path id="Capline-L" d="M18,476 l800,0" />
        <path id="Baseline-L" d="M18,546 l800,0" />
    </g>
    <g id="Symbols">
        <g id="Ultralight-S">
            <path d="M280.465,143.558 C280.465,143.361 280.465,143.361 280.465,142.573 C280.465,141.589 280.465,141.589 280.465,140.407 C280.466,139.228 280.466,138.786 280.466,138.245 C280.466,137.827 280.466,137.827 280.467,137.532 C280.467,137.413 280.467,137.413 280.467,137.335 C280.476,137.205 280.476,137.205 280.418,137.746 L278.026,137.255 L279.112,139.442 C280.338,138.833 281.523,138.145 282.659,137.382 C284.379,136.229 285.983,134.91 287.447,133.446 C293.36,127.533 296.744,119.532 296.744,111 C296.744,109.651 295.651,108.558 294.302,108.558 L235.698,108.558 C234.349,108.558 233.256,109.651 233.256,111 C233.256,119.532 236.64,127.533 242.554,133.447 C244.031,134.924 245.65,136.253 247.388,137.414 C248.518,138.169 249.696,138.851 250.913,139.455 L251.998,137.267 L249.556,137.259 L249.535,143.55 C249.53,144.902 250.625,146 251.977,146 L278.023,146 C279.372,146 280.465,144.907 280.465,143.558 Z M275.581,143.558 L278.023,141.116 L251.977,141.116 L254.419,143.566 L254.44,137.275 C254.443,136.345 253.917,135.493 253.083,135.079 C252.053,134.569 251.057,133.992 250.101,133.353 C248.629,132.37 247.258,131.244 246.007,129.993 C241,124.987 238.14,118.223 238.14,111 L235.698,113.442 L294.302,113.442 L291.86,111 C291.86,118.223 289,124.987 283.993,129.993 C282.753,131.233 281.395,132.35 279.939,133.326 C278.978,133.971 277.976,134.553 276.939,135.069 C276.266,135.403 275.785,136.028 275.634,136.764 C275.575,137.379 275.575,137.379 275.583,137.526 C275.583,137.823 275.583,137.823 275.582,138.242 C275.582,138.784 275.582,139.226 275.582,140.406 C275.582,141.588 275.582,141.588 275.581,142.573 C275.581,143.361 275.581,143.361 275.581,143.558 Z" />
            <path d="M267.442,101.246 L267.442,84.953 C267.442,83.605 266.349,82.512 265,82.512 C263.651,82.512 262.558,83.605 262.558,84.953 L262.558,101.246 C262.558,102.595 263.651,103.688 265,103.688 C266.349,103.688 267.442,102.595 267.442,101.246 Z" />
            <path d="M286.977,101.246 L286.977,91.465 C286.977,90.117 285.883,89.023 284.535,89.023 C283.186,89.023 282.093,90.117 282.093,91.465 L282.093,101.246 C282.093,102.595 283.186,103.688 284.535,103.688 C285.883,103.688 286.977,102.595 286.977,101.246 Z" />
            <path d="M247.907,101.246 L247.907,91.465 C247.907,90.117 246.814,89.023 245.465,89.023 C244.117,89.023 243.023,90.117 243.023,91.465 L243.023,101.246 C243.023,102.595 244.117,103.688 245.465,103.688 C246.814,103.688 247.907,102.595 247.907,101.246 Z" />
            <path d="M291.047,82.512 C286.102,82.512 282.093,86.52 282.093,91.465 C282.093,92.814 283.186,93.907 284.535,93.907 C285.883,93.907 286.977,92.814 286.977,91.465 C286.977,89.217 288.799,87.395 291.047,87.395 C292.395,87.395 293.488,86.302 293.488,84.953 C293.488,83.605 292.395,82.512 291.047,82.512 Z" />
            <path d="M271.512,76 C266.567,76 262.558,80.009 262.558,84.953 C262.558,86.302 263.651,87.395 265,87.395 C266.349,87.395 267.442,86.302 267.442,84.953 C267.442,82.706 269.264,80.884 271.512,80.884 C272.86,80.884 273.953,79.79 273.953,78.442 C273.953,77.093 272.86,76 271.512,76 Z" />
            <path d="M251.977,82.512 C247.032,82.512 243.023,86.52 243.023,91.465 C243.023,92.814 244.117,93.907 245.465,93.907 C246.814,93.907 247.907,92.814 247.907,91.465 C247.907,89.217 249.729,87.395 251.977,87.395 C253.325,87.395 254.419,86.302 254.419,84.953 C254.419,83.605 253.325,82.512 251.977,82.512 Z" />
        </g>
        <g id="Regular-S">
            <path d="M480.465,143.558 C480.465,143.361 480.465,143.361 480.465,142.573 C480.465,141.589 480.465,141.589 480.465,140.407 C480.466,139.228 480.466,138.786 480.466,138.245 C480.466,137.827 480.466,137.827 480.467,137.532 C480.467,137.413 480.467,137.413 480.467,137.335 C480.476,137.205 480.476,137.205 480.418,137.746 L478.026,137.255 L479.112,139.442 C480.338,138.833 481.523,138.145 482.659,137.382 C484.379,136.229 485.983,134.91 487.447,133.446 C493.36,127.533 496.744,119.532 496.744,111 C496.744,109.651 495.651,108.558 494.302,108.558 L435.698,108.558 C434.349,108.558 433.256,109.651 433.256,111 C433.256,119.532 436.64,127.533 442.554,133.447 C444.031,134.924 445.65,136.253 447.388,137.414 C448.518,138.169 449.696,138.851 450.913,139.455 L451.998,137.267 L449.556,137.259 L449.535,143.55 C449.53,144.902 450.625,146 451.977,146 L478.023,146 C479.372,146 480.465,144.907 480.465,143.558 Z M475.581,143.558 L478.023,141.116 L451.977,141.116 L454.419,143.566 L454.44,137.275 C454.443,136.345 453.917,135.493 453.083,135.079 C452.053,134.569 451.057,133.992 450.101,133.353 C448.629,132.37 447.258,131.244 446.007,129.993 C441,124.987 438.14,118.223 438.14,111 L435.698,113.442 L494.302,113.442 L491.86,111 C491.86,118.223 489,124.987 483.993,129.993 C482.753,131.233 481.395,132.35 479.939,133.326 C478.978,133.971 477.976,134.553 476.939,135.069 C476.266,135.403 475.785,136.028 475.634,136.764 C475.575,137.379 475.575,137.379 475.583,137.526 C475.583,137.823 475.583,137.823 475.582,138.242 C475.582,138.784 475.582,139.226 475.582,140.406 C475.582,141.588 475.582,141.588 475.581,142.573 C475.581,143.361 475.581,143.361 475.581,143.558 Z" />
            <path d="M467.442,101.246 L467.442,84.953 C467.442,83.605 466.349,82.512 465,82.512 C463.651,82.512 462.558,83.605 462.558,84.953 L462.558,101.246 C462.558,102.595 463.651,103.688 465,103.688 C466.349,103.688 467.442,102.595 467.442,101.246 Z" />
            <path d="M486.977,101.246 L486.977,91.465 C486.977,90.117 485.883,89.023 484.535,89.023 C483.186,89.023 482.093,90.117 482.093,91.465 L482.093,101.246 C482.093,102.595 483.186,103.688 484.535,103.688 C485.883,103.688 486.977,102.595 486.977,101.246 Z" />
            <path d="M447.907,101.246 L447.907,91.465 C447.907,90.117 446.814,89.023 445.465,89.023 C444.117,89.023 443.023,90.117 443.023,91.465 L443.023,101.246 C443.023,102.595 444.117,103.688 445.465,103.688 C446.814,103.688 447.907,102.595 447.907,101.246 Z" />
            <path d="M491.047,82.512 C486.102,82.512 482.093,86.52 482.093,91.465 C482.093,92.814 483.186,93.907 484.535,93.907 C485.883,93.907 486.977,92.814 486.977,91.465 C486.977,89.217 488.799,87.395 491.047,87.395 C492.395,87.395 493.488,86.302 493.488,84.953 C493.488,83.605 492.395,82.512 491.047,82.512 Z" />
            <path d="M471.512,76 C466.567,76 462.558,80.009 462.558,84.953 C462.558,86.302 463.651,87.395 465,87.395 C466.349,87.395 467.442,86.302 467.442,84.953 C467.442,82.706 469.264,80.884 471.512,80.884 C472.86,80.884 473.953,79.79 473.953,78.442 C473.953,77.093 472.86,76 471.512,76 Z" />
            <path d="M451.977,82.512 C447.032,82.512 443.023,86.52 443.023,91.465 C443.023,92.814 444.117,93.907 445.465,93.907 C446.814,93.907 447.907,92.814 447.907,91.465 C447.907,89.217 449.729,87.395 451.977,87.395 C453.325,87.395 454.419,86.302 454.419,84.953 C454.419,83.605 453.325,82.512 451.977,82.512 Z" />
        </g>
        <g id="Black-S">
            <path d="M680.465,143.558 C680.465,143.361 680.465,143.361 680.465,142.573 C680.465,141.589 680.465,141.589 680.465,140.407 C680.466,139.228 680.466,138.786 680.466,138.245 C680.466,137.827 680.466,137.827 680.467,137.532 C680.467,137.413 680.467,137.413 680.467,137.335 C680.476,137.205 680.476,137.205 680.418,137.746 L678.026,137.255 L679.112,139.442 C680.338,138.833 681.523,138.145 682.659,137.382 C684.379,136.229 685.983,134.91 687.447,133.446 C693.36,127.533 696.744,119.532 696.744,111 C696.744,109.651 695.651,108.558 694.302,108.558 L635.698,108.558 C634.349,108.558 633.256,109.651 633.256,111 C633.256,119.532 636.64,127.533 642.554,133.447 C644.031,134.924 645.65,136.253 647.388,137.414 C648.518,138.169 649.696,138.851 650.913,139.455 L651.998,137.267 L649.556,137.259 L649.535,143.55 C649.53,144.902 650.625,146 651.977,146 L678.023,146 C679.372,146 680.465,144.907 680.465,143.558 Z M675.581,143.558 L678.023,141.116 L651.977,141.116 L654.419,143.566 L654.44,137.275 C654.443,136.345 653.917,135.493 653.083,135.079 C652.053,134.569 651.057,133.992 650.101,133.353 C648.63,132.37 647.258,131.244 646.007,129.993 C641,124.987 638.14,118.223 638.14,111 L635.698,113.442 L694.302,113.442 L691.86,111 C691.86,118.223 689,124.987 683.993,129.993 C682.753,131.233 681.395,132.35 679.939,133.326 C678.978,133.971 677.976,134.553 676.939,135.069 C676.266,135.403 675.785,136.028 675.634,136.764 C675.575,137.379 675.575,137.379 675.583,137.526 C675.583,137.823 675.583,137.823 675.582,138.242 C675.582,138.784 675.582,139.226 675.582,140.406 C675.582,141.588 675.582,141.588 675.581,142.573 C675.581,143.361 675.581,143.361 675.581,143.558 Z" />
            <path d="M667.442,101.246 L667.442,84.953 C667.442,83.605 666.349,82.512 665,82.512 C663.651,82.512 662.558,83.605 662.558,84.953 L662.558,101.246 C662.558,102.595 663.651,103.688 665,103.688 C666.349,103.688 667.442,102.595 667.442,101.246 Z" />
            <path d="M686.977,101.246 L686.977,91.465 C686.977,90.117 685.883,89.023 684.535,89.023 C683.186,89.023 682.093,90.117 682.093,91.465 L682.093,101.246 C682.093,102.595 683.186,103.688 684.535,103.688 C685.883,103.688 686.977,102.595 686.977,101.246 Z" />
            <path d="M647.907,101.246 L647.907,91.465 C647.907,90.117 646.814,89.023 645.465,89.023 C644.117,89.023 643.023,90.117 643.023,91.465 L643.023,101.246 C643.023,102.595 644.117,103.688 645.465,103.688 C646.814,103.688 647.907,102.595 647.907,101.246 Z" />
            <path d="M691.047,82.512 C686.102,82.512 682.093,86.52 682.093,91.465 C682.093,92.814 683.186,93.907 684.535,93.907 C685.883,93.907 686.977,92.814 686.977,91.465 C686.977,89.217 688.799,87.395 691.047,87.395 C692.395,87.395 693.488,86.302 693.488,84.953 C693.488,83.605 692.395,82.512 691.047,82.512 Z" />
            <path d="M671.512,76 C666.567,76 662.558,80.009 662.558,84.953 C662.558,86.302 663.651,87.395 665,87.395 C666.349,87.395 667.442,86.302 667.442,84.953 C667.442,82.706 669.264,80.884 671.512,80.884 C672.86,80.884 673.953,79.79 673.953,78.442 C673.953,77.093 672.86,76 671.512,76 Z" />
            <path d="M651.977,82.512 C647.032,82.512 643.023,86.52 643.023,91.465 C643.023,92.814 644.117,93.907 645.465,93.907 C646.814,93.907 647.907,92.814 647.907,91.465 C647.907,89.217 649.729,87.395 651.977,87.395 C653.325,87.395 654.419,86.302 654.419,84.953 C654.419,83.605 653.325,82.512 651.977,82.512 Z" />
        </g>
    </g>
</svg>