<?xml version="1.0" encoding="UTF-8"?>
<svg height="600" width="800" xmlns="http://www.w3.org/2000/svg" xmlns:xlink="http://www.w3.org/1999/xlink">
    <g id="Notes" font-family="'LucidaGrande', 'Lucida Grande', sans-serif" font-size="13">
        <rect fill="white" height="600.0" width="800.0" x="0.0" y="0.0" />
        <g font-size="13">
            <text x="18.0" y="176.0">Small</text>
            <text x="18.0" y="376.0">Medium</text>
            <text x="18.0" y="576.0">Large</text>
        </g>
        <g font-size="9">
            <text x="250.0" y="30.0">Ultralight</text>
            <text x="450.0" y="30.0">Regular</text>
            <text x="650.0" y="30.0">Black</text>
            <text id="template-version" fill="#505050" text-anchor="end" x="785.0" y="575.0">Template v.3.0</text>
            <a href="https://github.com/swhitty/SwiftDraw">
                <text fill="#505050" text-anchor="end" x="785.0" y="590.0">https://github.com/swhitty/SwiftDraw</text>
            </a>
        </g>
    </g>
    <g id="Guides" stroke="rgb(39, 170, 225)" stroke-width="0.5">
        <path id="Capline-S" d="M18,76 l800,0" />
        <path id="H-reference" d="M85,145.755 L87.685,145.755 L113.369,79.287 L114.052,79.287 L114.052,76 L112.148,76 L85,145.755 Z M95.693,121.536 L130.996,121.536 L130.263,119.313 L96.474,119.313 L95.693,121.536 Z M139.15,145.755 L141.787,145.755 L114.638,76 L113.466,76 L113.466,79.287 L139.15,145.755 Z" stroke="none" />
        <path id="Baseline-S" d="M18,146 l800,0" />
        <path id="left-margin-Ultralight-S" d="M219.998,56 l0,110" />
        <path id="right-margin-Ultralight-S" d="M310.002,56 l0,110" />
        <path id="left-margin-Regular-S" d="M419.998,56 l0,110" />
        <path id="right-margin-Regular-S" d="M510.002,56 l0,110" />
        <path id="left-margin-Black-S" d="M619.998,56 l0,110" />
        <path id="right-margin-Black-S" d="M710.002,56 l0,110" />
        <path id="Capline-M" d="M18,276 l800,0" />
        <path id="Baseline-M" d="M18,346 l800,0" />
        <path id="Capline-L" d="M18,476 l800,0" />
        <path id="Baseline-L" d="M18,546 l800,0" />
    </g>
    <g id="Symbols">
        <g id="Ultralight-S">
            <path d="M232.44,146 L297.557,146 C298.905,146 299.998,144.907 299.998,143.558 C299.998,142.21 298.905,141.116 297.557,141.116 L232.44,141.116 C231.092,141.116 229.998,142.21 229.998,143.558 C229.998,144.907 231.092,146 232.44,146 Z" />
            <path d="M231.848,116.625 L244.871,119.881 L243.022,117.512 L243.022,133.791 L245.464,131.349 L232.44,131.349 L234.882,133.791 L234.882,114.256 L231.848,116.625 Z M233.033,111.887 C231.491,111.502 229.998,112.667 229.998,114.256 L229.998,133.791 C229.998,135.139 231.092,136.233 232.44,136.233 L245.464,136.233 C246.812,136.233 247.905,135.139 247.905,133.791 L247.905,117.512 C247.905,116.391 247.143,115.414 246.056,115.143 L233.033,111.887 Z" />
            <path d="M259.579,113.184 L272.602,106.672 L269.068,104.488 L269.068,133.791 L271.51,131.349 L258.487,131.349 L260.929,133.791 L260.929,111 L259.579,113.184 Z M257.395,108.816 C256.568,109.23 256.045,110.075 256.045,111 L256.045,133.791 C256.045,135.139 257.138,136.233 258.487,136.233 L271.51,136.233 C272.859,136.233 273.952,135.139 273.952,133.791 L273.952,104.488 C273.952,102.673 272.042,101.493 270.418,102.304 L257.395,108.816 Z" />
            <path d="M285.625,100.161 L298.649,93.649 L295.115,91.465 L295.115,133.791 L297.557,131.349 L284.533,131.349 L286.975,133.791 L286.975,97.977 L285.625,100.161 Z M283.441,95.793 C282.614,96.206 282.091,97.052 282.091,97.977 L282.091,133.791 C282.091,135.139 283.185,136.233 284.533,136.233 L297.557,136.233 C298.905,136.233 299.998,135.139 299.998,133.791 L299.998,91.465 C299.998,89.65 298.088,88.469 296.465,89.281 L283.441,95.793 Z" />
            <path d="M231.848,103.602 L244.871,106.857 C245.437,106.999 246.034,106.933 246.556,106.672 L298.649,80.626 C300.953,79.474 300.133,76 297.557,76 L281.278,76 C279.929,76 278.836,77.093 278.836,78.442 C278.836,79.79 279.929,80.884 281.278,80.884 L297.557,80.884 L296.465,76.258 L244.372,102.304 L246.056,102.119 L233.033,98.864 C231.724,98.537 230.398,99.332 230.071,100.64 C229.744,101.949 230.54,103.274 231.848,103.602 Z" />
        </g>
        <g id="Regular-S">
            <path d="M432.44,146 L497.557,146 C498.905,146 499.998,144.907 499.998,143.558 C499.998,142.21 498.905,141.116 497.557,141.116 L432.44,141.116 C431.092,141.116 429.998,142.21 429.998,143.558 C429.998,144.907 431.092,146 432.44,146 Z" />
            <path d="M431.848,116.625 L444.871,119.881 L443.022,117.512 L443.022,133.791 L445.464,131.349 L432.44,131.349 L434.882,133.791 L434.882,114.256 L431.848,116.625 Z M433.033,111.887 C431.491,111.502 429.998,112.667 429.998,114.256 L429.998,133.791 C429.998,135.139 431.092,136.233 432.44,136.233 L445.464,136.233 C446.812,136.233 447.905,135.139 447.905,133.791 L447.905,117.512 C447.905,116.391 447.143,115.414 446.056,115.143 L433.033,111.887 Z" />
            <path d="M459.579,113.184 L472.602,106.672 L469.068,104.488 L469.068,133.791 L471.51,131.349 L458.487,131.349 L460.929,133.791 L460.929,111 L459.579,113.184 Z M457.395,108.816 C456.568,109.23 456.045,110.075 456.045,111 L456.045,133.791 C456.045,135.139 457.138,136.233 458.487,136.233 L471.51,136.233 C472.859,136.233 473.952,135.139 473.952,133.791 L473.952,104.488 C473.952,102.673 472.042,101.493 470.418,102.304 L457.395,108.816 Z" />
            <path d="M485.625,100.161 L498.649,93.649 L495.115,91.465 L495.115,133.791 L497.557,131.349 L484.533,131.349 L486.975,133.791 L486.975,97.977 L485.625,100.161 Z M483.441,95.793 C482.614,96.206 482.091,97.052 482.091,97.977 L482.091,133.791 C482.091,135.139 483.185,136.233 484.533,136.233 L497.557,136.233 C498.905,136.233 499.998,135.139 499.998,133.791 L499.998,91.465 C499.998,89.65 498.088,88.469 496.465,89.281 L483.441,95.793 Z" />
            <path d="M431.848,103.602 L444.871,106.857 C445.437,106.999 446.034,106.933 446.556,106.672 L498.649,80.626 C500.953,79.474 500.133,76 497.557,76 L481.278,76 C479.929,76 478.836,77.093 478.836,78.442 C478.836,79.79 479.929,80.884 481.278,80.884 L497.557,80.884 L496.465,76.258 L444.372,102.304 L446.056,102.119 L433.033,98.864 C431.724,98.537 430.398,99.332 430.071,100.64 C429.744,101.949 430.54,103.274 431.848,103.602 Z" />
        </g>
        <g id="Black-S">
            <path d="M632.44,146 L697.557,146 C698.905,146 699.998,144.907 699.998,143.558 C699.998,142.21 698.905,141.116 697.557,141.116 L632.44,141.116 C631.092,141.116 629.998,142.21 629.998,143.558 C629.998,144.907 631.092,146 632.44,146 Z" />
            <path d="M631.848,116.625 L644.871,119.881 L643.022,117.512 L643.022,133.791 L645.464,131.349 L632.44,131.349 L634.882,133.791 L634.882,114.256 L631.848,116.625 Z M633.033,111.887 C631.491,111.502 629.998,112.667 629.998,114.256 L629.998,133.791 C629.998,135.139 631.092,136.233 632.44,136.233 L645.464,136.233 C646.812,136.233 647.905,135.139 647.905,133.791 L647.905,117.512 C647.905,116.391 647.143,115.414 646.056,115.143 L633.033,111.887 Z" />
            <path d="M659.579,113.184 L672.602,106.672 L669.068,104.488 L669.068,133.791 L671.51,131.349 L658.487,131.349 L660.929,133.791 L660.929,111 L659.579,113.184 Z M657.395,108.816 C656.568,109.23 656.045,110.075 656.045,111 L656.045,133.791 C656.045,135.139 657.138,136.233 658.487,136.233 L671.51,136.233 C672.859,136.233 673.952,135.139 673.952,133.791 L673.952,104.488 C673.952,102.673 672.042,101.493 670.418,102.304 L657.395,108.816 Z" />
            <path d="M685.625,100.161 L698.649,93.649 L695.115,91.465 L695.115,133.791 L697.557,131.349 L684.533,131.349 L686.975,133.791 L686.975,97.977 L685.625,100.161 Z M683.441,95.793 C682.614,96.206 682.091,97.052 682.091,97.977 L682.091,133.791 C682.091,135.139 683.185,136.233 684.533,136.233 L697.557,136.233 C698.905,136.233 699.998,135.139 699.998,133.791 L699.998,91.465 C699.998,89.65 698.088,88.469 696.465,89.281 L683.441,95.793 Z" />
            <path d="M631.848,103.602 L644.871,106.857 C645.437,106.999 646.034,106.933 646.556,106.672 L698.649,80.626 C700.953,79.474 700.133,76 697.557,76 L681.278,76 C679.929,76 678.836,77.093 678.836,78.442 C678.836,79.79 679.929,80.884 681.278,80.884 L697.557,80.884 L696.465,76.258 L644.372,102.304 L646.056,102.119 L633.033,98.864 C631.724,98.537 630.398,99.332 630.071,100.64 C629.744,101.949 630.54,103.274 631.848,103.602 Z" />
        </g>
    </g>
</svg>