<?xml version="1.0" encoding="UTF-8"?>
<svg height="600" width="800" xmlns="http://www.w3.org/2000/svg" xmlns:xlink="http://www.w3.org/1999/xlink">
    <g id="Notes" font-family="'LucidaGrande', 'Lucida Grande', sans-serif" font-size="13">
        <rect fill="white" height="600.0" width="800.0" x="0.0" y="0.0" />
        <g font-size="13">
            <text x="18.0" y="176.0">Small</text>
            <text x="18.0" y="376.0">Medium</text>
            <text x="18.0" y="576.0">Large</text>
        </g>
        <g font-size="9">
            <text x="250.0" y="30.0">Ultralight</text>
            <text x="450.0" y="30.0">Regular</text>
            <text x="650.0" y="30.0">Black</text>
            <text id="template-version" fill="#505050" text-anchor="end" x="785.0" y="575.0">Template v.3.0</text>
            <a href="https://github.com/swhitty/SwiftDraw">
                <text fill="#505050" text-anchor="end" x="785.0" y="590.0">https://github.com/swhitty/SwiftDraw</text>
            </a>
        </g>
    </g>
    <g id="Guides" stroke="rgb(39, 170, 225)" stroke-width="0.5">
        <path id="Capline-S" d="M18,76 l800,0" />
        <path id="H-reference" d="M85,145.755 L87.685,145.755 L113.369,79.287 L114.052,79.287 L114.052,76 L112.148,76 L85,145.755 Z M95.693,121.536 L130.996,121.536 L130.263,119.313 L96.474,119.313 L95.693,121.536 Z M139.15,145.755 L141.787,145.755 L114.638,76 L113.466,76 L113.466,79.287 L139.15,145.755 Z" stroke="none" />
        <path id="Baseline-S" d="M18,146 l800,0" />
        <path id="left-margin-Ultralight-S" d="M221,56 l0,110" />
        <path id="right-margin-Ultralight-S" d="M309,56 l0,110" />
        <path id="left-margin-Regular-S" d="M421,56 l0,110" />
        <path id="right-margin-Regular-S" d="M509,56 l0,110" />
        <path id="left-margin-Black-S" d="M621,56 l0,110" />
        <path id="right-margin-Black-S" d="M709,56 l0,110" />
        <path id="Capline-M" d="M18,276 l800,0" />
        <path id="Baseline-M" d="M18,346 l800,0" />
        <path id="Capline-L" d="M18,476 l800,0" />
        <path id="Baseline-L" d="M18,546 l800,0" />
    </g>
    <g id="Symbols">
        <g id="Ultralight-S">
            <path d="M275.581,111 L275.581,140.302 C275.581,140.518 275.496,140.725 275.343,140.878 C275.19,141.031 274.983,141.116 274.767,141.116 L238.953,141.116 C238.738,141.116 238.531,141.031 238.378,140.878 C238.225,140.725 238.14,140.518 238.14,140.302 L238.14,81.698 C238.14,81.482 238.225,81.275 238.378,81.122 C238.531,80.969 238.738,80.884 238.953,80.884 L274.767,80.884 C274.983,80.884 275.19,80.969 275.343,81.122 C275.496,81.275 275.581,81.482 275.581,81.698 L275.581,111 Z M280.465,111 L280.465,81.698 C280.465,80.187 279.865,78.737 278.796,77.669 C277.728,76.6 276.279,76 274.767,76 L238.953,76 C237.442,76 235.993,76.6 234.925,77.669 C233.856,78.737 233.256,80.187 233.256,81.698 L233.256,140.302 C233.256,141.813 233.856,143.263 234.925,144.331 C235.993,145.4 237.442,146 238.953,146 L274.767,146 C276.279,146 277.728,145.4 278.796,144.331 C279.865,143.263 280.465,141.813 280.465,140.302 L280.465,111 Z" />
            <path d="M248.721,129.721 L265,129.721 C266.349,129.721 267.442,128.628 267.442,127.279 C267.442,125.93 266.349,124.837 265,124.837 L248.721,124.837 C247.372,124.837 246.279,125.93 246.279,127.279 C246.279,128.628 247.372,129.721 248.721,129.721 Z" />
            <path d="M296.744,104.488 L296.744,94.721 C296.744,93.372 295.651,92.279 294.302,92.279 L263.373,92.279 L265.325,93.254 C263.34,90.612 260.23,89.023 256.86,89.023 C251.017,89.023 246.279,93.761 246.279,99.605 C246.279,105.449 251.017,110.186 256.86,110.186 C260.23,110.186 263.34,108.597 265.325,105.955 L263.373,106.93 L294.302,106.93 C295.651,106.93 296.744,105.837 296.744,104.488 Z M291.86,104.488 L294.302,102.047 L263.373,102.047 C262.605,102.047 261.882,102.408 261.42,103.022 C260.349,104.449 258.678,105.302 256.86,105.302 C253.714,105.302 251.163,102.751 251.163,99.605 C251.163,96.458 253.714,93.907 256.86,93.907 C258.678,93.907 260.349,94.761 261.42,96.187 C261.882,96.802 262.605,97.163 263.373,97.163 L294.302,97.163 L291.86,94.721 L291.86,104.488 Z" />
        </g>
        <g id="Regular-S">
            <path d="M475.581,111 L475.581,140.302 C475.581,140.518 475.496,140.725 475.343,140.878 C475.19,141.031 474.983,141.116 474.767,141.116 L438.953,141.116 C438.738,141.116 438.531,141.031 438.378,140.878 C438.225,140.725 438.14,140.518 438.14,140.302 L438.14,81.698 C438.14,81.482 438.225,81.275 438.378,81.122 C438.531,80.969 438.738,80.884 438.953,80.884 L474.767,80.884 C474.983,80.884 475.19,80.969 475.343,81.122 C475.496,81.275 475.581,81.482 475.581,81.698 L475.581,111 Z M480.465,111 L480.465,81.698 C480.465,80.187 479.865,78.737 478.796,77.669 C477.728,76.6 476.279,76 474.767,76 L438.953,76 C437.442,76 435.993,76.6 434.925,77.669 C433.856,78.737 433.256,80.187 433.256,81.698 L433.256,140.302 C433.256,141.813 433.856,143.263 434.925,144.331 C435.993,145.4 437.442,146 438.953,146 L474.767,146 C476.279,146 477.728,145.4 478.796,144.331 C479.865,143.263 480.465,141.813 480.465,140.302 L480.465,111 Z" />
            <path d="M448.721,129.721 L465,129.721 C466.349,129.721 467.442,128.628 467.442,127.279 C467.442,125.93 466.349,124.837 465,124.837 L448.721,124.837 C447.372,124.837 446.279,125.93 446.279,127.279 C446.279,128.628 447.372,129.721 448.721,129.721 Z" />
            <path d="M496.744,104.488 L496.744,94.721 C496.744,93.372 495.651,92.279 494.302,92.279 L463.373,92.279 L465.325,93.254 C463.34,90.612 460.23,89.023 456.86,89.023 C451.017,89.023 446.279,93.761 446.279,99.605 C446.279,105.449 451.017,110.186 456.86,110.186 C460.23,110.186 463.34,108.597 465.325,105.955 L463.373,106.93 L494.302,106.93 C495.651,106.93 496.744,105.837 496.744,104.488 Z M491.86,104.488 L494.302,102.047 L463.373,102.047 C462.605,102.047 461.882,102.408 461.42,103.022 C460.349,104.449 458.678,105.302 456.86,105.302 C453.714,105.302 451.163,102.751 451.163,99.605 C451.163,96.458 453.714,93.907 456.86,93.907 C458.678,93.907 460.349,94.761 461.42,96.187 C461.882,96.802 462.605,97.163 463.373,97.163 L494.302,97.163 L491.86,94.721 L491.86,104.488 Z" />
        </g>
        <g id="Black-S">
            <path d="M675.581,111 L675.581,140.302 C675.581,140.518 675.496,140.725 675.343,140.878 C675.19,141.031 674.983,141.116 674.767,141.116 L638.953,141.116 C638.738,141.116 638.531,141.031 638.378,140.878 C638.225,140.725 638.14,140.518 638.14,140.302 L638.14,81.698 C638.14,81.482 638.225,81.275 638.378,81.122 C638.531,80.969 638.738,80.884 638.953,80.884 L674.767,80.884 C674.983,80.884 675.19,80.969 675.343,81.122 C675.496,81.275 675.581,81.482 675.581,81.698 L675.581,111 Z M680.465,111 L680.465,81.698 C680.465,80.187 679.865,78.737 678.796,77.669 C677.728,76.6 676.279,76 674.767,76 L638.953,76 C637.442,76 635.993,76.6 634.925,77.669 C633.856,78.737 633.256,80.187 633.256,81.698 L633.256,140.302 C633.256,141.813 633.856,143.263 634.925,144.331 C635.993,145.4 637.442,146 638.953,146 L674.767,146 C676.279,146 677.728,145.4 678.796,144.331 C679.865,143.263 680.465,141.813 680.465,140.302 L680.465,111 Z" />
            <path d="M648.721,129.721 L665,129.721 C666.349,129.721 667.442,128.628 667.442,127.279 C667.442,125.93 666.349,124.837 665,124.837 L648.721,124.837 C647.372,124.837 646.279,125.93 646.279,127.279 C646.279,128.628 647.372,129.721 648.721,129.721 Z" />
            <path d="M696.744,104.488 L696.744,94.721 C696.744,93.372 695.651,92.279 694.302,92.279 L663.373,92.279 L665.325,93.254 C663.34,90.612 660.23,89.023 656.86,89.023 C651.017,89.023 646.279,93.761 646.279,99.605 C646.279,105.449 651.017,110.186 656.86,110.186 C660.23,110.186 663.34,108.597 665.325,105.955 L663.373,106.93 L694.302,106.93 C695.651,106.93 696.744,105.837 696.744,104.488 Z M691.86,104.488 L694.302,102.047 L663.373,102.047 C662.605,102.047 661.882,102.408 661.42,103.022 C660.349,104.449 658.678,105.302 656.86,105.302 C653.714,105.302 651.163,102.751 651.163,99.605 C651.163,96.458 653.714,93.907 656.86,93.907 C658.678,93.907 660.349,94.761 661.42,96.187 C661.882,96.802 662.605,97.163 663.373,97.163 L694.302,97.163 L691.86,94.721 L691.86,104.488 Z" />
        </g>
    </g>
</svg>