<?xml version="1.0" encoding="UTF-8"?>
<svg height="600" width="800" xmlns="http://www.w3.org/2000/svg" xmlns:xlink="http://www.w3.org/1999/xlink">
    <g id="Notes" font-family="'LucidaGrande', 'Lucida Grande', sans-serif" font-size="13">
        <rect fill="white" height="600.0" width="800.0" x="0.0" y="0.0" />
        <g font-size="13">
            <text x="18.0" y="176.0">Small</text>
            <text x="18.0" y="376.0">Medium</text>
            <text x="18.0" y="576.0">Large</text>
        </g>
        <g font-size="9">
            <text x="250.0" y="30.0">Ultralight</text>
            <text x="450.0" y="30.0">Regular</text>
            <text x="650.0" y="30.0">Black</text>
            <text id="template-version" fill="#505050" text-anchor="end" x="785.0" y="575.0">Template v.3.0</text>
            <a href="https://github.com/swhitty/SwiftDraw">
                <text fill="#505050" text-anchor="end" x="785.0" y="590.0">https://github.com/swhitty/SwiftDraw</text>
            </a>
        </g>
    </g>
    <g id="Guides" stroke="rgb(39, 170, 225)" stroke-width="0.5">
        <path id="Capline-S" d="M18,76 l800,0" />
        <path id="H-reference" d="M85,145.755 L87.685,145.755 L113.369,79.287 L114.052,79.287 L114.052,76 L112.148,76 L85,145.755 Z M95.693,121.536 L130.996,121.536 L130.263,119.313 L96.474,119.313 L95.693,121.536 Z M139.15,145.755 L141.787,145.755 L114.638,76 L113.466,76 L113.466,79.287 L139.15,145.755 Z" stroke="none" />
        <path id="Baseline-S" d="M18,146 l800,0" />
        <path id="left-margin-Ultralight-S" d="M220,56 l0,110" />
        <path id="right-margin-Ultralight-S" d="M310,56 l0,110" />
        <path id="left-margin-Regular-S" d="M420,56 l0,110" />
        <path id="right-margin-Regular-S" d="M510,56 l0,110" />
        <path id="left-margin-Black-S" d="M620,56 l0,110" />
        <path id="right-margin-Black-S" d="M710,56 l0,110" />
        <path id="Capline-M" d="M18,276 l800,0" />
        <path id="Baseline-M" d="M18,346 l800,0" />
        <path id="Capline-L" d="M18,476 l800,0" />
        <path id="Baseline-L" d="M18,546 l800,0" />
    </g>
    <g id="Symbols">
        <g id="Ultralight-S">
            <path d="M250.641,76 L236.282,76 C232.813,76 230,78.813 230,82.282 L230,96.641 C230,98.128 231.205,99.333 232.692,99.333 C234.179,99.333 235.385,98.128 235.385,96.641 L235.385,82.282 C235.385,81.786 235.786,81.385 236.282,81.385 L250.641,81.385 C252.128,81.385 253.333,80.179 253.333,78.692 C253.333,77.205 252.128,76 250.641,76 Z" />
            <path d="M250.641,140.615 L236.282,140.615 C235.786,140.615 235.385,140.214 235.385,139.718 L235.385,125.359 C235.385,123.872 234.179,122.667 232.692,122.667 C231.205,122.667 230,123.872 230,125.359 L230,139.718 C230,143.187 232.813,146 236.282,146 L250.641,146 C252.128,146 253.333,144.795 253.333,143.308 C253.333,141.821 252.128,140.615 250.641,140.615 Z" />
            <path d="M279.359,146 L293.718,146 C297.188,146 300,143.187 300,139.718 L300,125.359 C300,123.872 298.795,122.667 297.308,122.667 C295.821,122.667 294.615,123.872 294.615,125.359 L294.615,139.718 C294.615,140.214 294.214,140.615 293.718,140.615 L279.359,140.615 C277.872,140.615 276.667,141.821 276.667,143.308 C276.667,144.795 277.872,146 279.359,146 Z" />
            <path d="M279.359,81.385 L293.718,81.385 C294.214,81.385 294.615,81.786 294.615,82.282 L294.615,96.641 C294.615,98.128 295.821,99.333 297.308,99.333 C298.795,99.333 300,98.128 300,96.641 L300,82.282 C300,78.813 297.187,76 293.718,76 L279.359,76 C277.872,76 276.667,77.205 276.667,78.692 C276.667,80.179 277.872,81.385 279.359,81.385 Z" />
            <path d="M280.256,111 L280.256,125.359 C280.256,125.597 280.162,125.825 279.994,125.994 C279.825,126.162 279.597,126.256 279.359,126.256 L250.641,126.256 C250.403,126.256 250.175,126.162 250.006,125.994 C249.838,125.825 249.744,125.597 249.744,125.359 L249.744,96.641 C249.744,96.403 249.838,96.175 250.006,96.006 C250.175,95.838 250.403,95.744 250.641,95.744 L279.359,95.744 C279.597,95.744 279.825,95.838 279.994,96.006 C280.162,96.175 280.256,96.403 280.256,96.641 L280.256,111 Z M285.641,111 L285.641,96.641 C285.641,94.975 284.979,93.377 283.801,92.199 C282.623,91.021 281.025,90.359 279.359,90.359 L250.641,90.359 C248.975,90.359 247.377,91.021 246.199,92.199 C245.021,93.377 244.359,94.975 244.359,96.641 L244.359,125.359 C244.359,127.025 245.021,128.623 246.199,129.801 C247.377,130.979 248.975,131.641 250.641,131.641 L279.359,131.641 C281.025,131.641 282.623,130.979 283.801,129.801 C284.979,128.623 285.641,127.025 285.641,125.359 L285.641,111 Z" />
        </g>
        <g id="Regular-S">
            <path d="M450.641,76 L436.282,76 C432.813,76 430,78.813 430,82.282 L430,96.641 C430,98.128 431.205,99.333 432.692,99.333 C434.179,99.333 435.385,98.128 435.385,96.641 L435.385,82.282 C435.385,81.786 435.786,81.385 436.282,81.385 L450.641,81.385 C452.128,81.385 453.333,80.179 453.333,78.692 C453.333,77.205 452.128,76 450.641,76 Z" />
            <path d="M450.641,140.615 L436.282,140.615 C435.786,140.615 435.385,140.214 435.385,139.718 L435.385,125.359 C435.385,123.872 434.179,122.667 432.692,122.667 C431.205,122.667 430,123.872 430,125.359 L430,139.718 C430,143.187 432.813,146 436.282,146 L450.641,146 C452.128,146 453.333,144.795 453.333,143.308 C453.333,141.821 452.128,140.615 450.641,140.615 Z" />
            <path d="M479.359,146 L493.718,146 C497.187,146 500,143.187 500,139.718 L500,125.359 C500,123.872 498.795,122.667 497.308,122.667 C495.821,122.667 494.615,123.872 494.615,125.359 L494.615,139.718 C494.615,140.214 494.214,140.615 493.718,140.615 L479.359,140.615 C477.872,140.615 476.667,141.821 476.667,143.308 C476.667,144.795 477.872,146 479.359,146 Z" />
            <path d="M479.359,81.385 L493.718,81.385 C494.214,81.385 494.615,81.786 494.615,82.282 L494.615,96.641 C494.615,98.128 495.821,99.333 497.308,99.333 C498.795,99.333 500,98.128 500,96.641 L500,82.282 C500,78.813 497.187,76 493.718,76 L479.359,76 C477.872,76 476.667,77.205 476.667,78.692 C476.667,80.179 477.872,81.385 479.359,81.385 Z" />
            <path d="M480.256,111 L480.256,125.359 C480.256,125.597 480.162,125.825 479.994,125.994 C479.825,126.162 479.597,126.256 479.359,126.256 L450.641,126.256 C450.403,126.256 450.175,126.162 450.006,125.994 C449.838,125.825 449.744,125.597 449.744,125.359 L449.744,96.641 C449.744,96.403 449.838,96.175 450.006,96.006 C450.175,95.838 450.403,95.744 450.641,95.744 L479.359,95.744 C479.597,95.744 479.825,95.838 479.994,96.006 C480.162,96.175 480.256,96.403 480.256,96.641 L480.256,111 Z M485.641,111 L485.641,96.641 C485.641,94.975 484.979,93.377 483.801,92.199 C482.623,91.021 481.025,90.359 479.359,90.359 L450.641,90.359 C448.975,90.359 447.377,91.021 446.199,92.199 C445.021,93.377 444.359,94.975 444.359,96.641 L444.359,125.359 C444.359,127.025 445.021,128.623 446.199,129.801 C447.377,130.979 448.975,131.641 450.641,131.641 L479.359,131.641 C481.025,131.641 482.623,130.979 483.801,129.801 C484.979,128.623 485.641,127.025 485.641,125.359 L485.641,111 Z" />
        </g>
        <g id="Black-S">
            <path d="M650.641,76 L636.282,76 C632.813,76 630,78.813 630,82.282 L630,96.641 C630,98.128 631.205,99.333 632.692,99.333 C634.179,99.333 635.385,98.128 635.385,96.641 L635.385,82.282 C635.385,81.786 635.786,81.385 636.282,81.385 L650.641,81.385 C652.128,81.385 653.333,80.179 653.333,78.692 C653.333,77.205 652.128,76 650.641,76 Z" />
            <path d="M650.641,140.615 L636.282,140.615 C635.786,140.615 635.385,140.214 635.385,139.718 L635.385,125.359 C635.385,123.872 634.179,122.667 632.692,122.667 C631.205,122.667 630,123.872 630,125.359 L630,139.718 C630,143.187 632.813,146 636.282,146 L650.641,146 C652.128,146 653.333,144.795 653.333,143.308 C653.333,141.821 652.128,140.615 650.641,140.615 Z" />
            <path d="M679.359,146 L693.718,146 C697.188,146 700,143.187 700,139.718 L700,125.359 C700,123.872 698.795,122.667 697.308,122.667 C695.821,122.667 694.615,123.872 694.615,125.359 L694.615,139.718 C694.615,140.214 694.214,140.615 693.718,140.615 L679.359,140.615 C677.872,140.615 676.667,141.821 676.667,143.308 C676.667,144.795 677.872,146 679.359,146 Z" />
            <path d="M679.359,81.385 L693.718,81.385 C694.214,81.385 694.615,81.786 694.615,82.282 L694.615,96.641 C694.615,98.128 695.821,99.333 697.308,99.333 C698.795,99.333 700,98.128 700,96.641 L700,82.282 C700,78.813 697.188,76 693.718,76 L679.359,76 C677.872,76 676.667,77.205 676.667,78.692 C676.667,80.179 677.872,81.385 679.359,81.385 Z" />
            <path d="M680.256,111 L680.256,125.359 C680.256,125.597 680.162,125.825 679.994,125.994 C679.825,126.162 679.597,126.256 679.359,126.256 L650.641,126.256 C650.403,126.256 650.175,126.162 650.006,125.994 C649.838,125.825 649.744,125.597 649.744,125.359 L649.744,96.641 C649.744,96.403 649.838,96.175 650.006,96.006 C650.175,95.838 650.403,95.744 650.641,95.744 L679.359,95.744 C679.597,95.744 679.825,95.838 679.994,96.006 C680.162,96.175 680.256,96.403 680.256,96.641 L680.256,111 Z M685.641,111 L685.641,96.641 C685.641,94.975 684.979,93.377 683.801,92.199 C682.623,91.021 681.025,90.359 679.359,90.359 L650.641,90.359 C648.975,90.359 647.377,91.021 646.199,92.199 C645.021,93.377 644.359,94.975 644.359,96.641 L644.359,125.359 C644.359,127.025 645.021,128.623 646.199,129.801 C647.377,130.979 648.975,131.641 650.641,131.641 L679.359,131.641 C681.025,131.641 682.623,130.979 683.801,129.801 C684.979,128.623 685.641,127.025 685.641,125.359 L685.641,111 Z" />
        </g>
    </g>
</svg>