<?xml version="1.0" encoding="UTF-8"?>
<svg height="600" width="800" xmlns="http://www.w3.org/2000/svg" xmlns:xlink="http://www.w3.org/1999/xlink">
    <g id="Notes" font-family="'LucidaGrande', 'Lucida Grande', sans-serif" font-size="13">
        <rect fill="white" height="600.0" width="800.0" x="0.0" y="0.0" />
        <g font-size="13">
            <text x="18.0" y="176.0">Small</text>
            <text x="18.0" y="376.0">Medium</text>
            <text x="18.0" y="576.0">Large</text>
        </g>
        <g font-size="9">
            <text x="250.0" y="30.0">Ultralight</text>
            <text x="450.0" y="30.0">Regular</text>
            <text x="650.0" y="30.0">Black</text>
            <text id="template-version" fill="#505050" text-anchor="end" x="785.0" y="575.0">Template v.3.0</text>
            <a href="https://github.com/swhitty/SwiftDraw">
                <text fill="#505050" text-anchor="end" x="785.0" y="590.0">https://github.com/swhitty/SwiftDraw</text>
            </a>
        </g>
    </g>
    <g id="Guides" stroke="rgb(39, 170, 225)" stroke-width="0.5">
        <path id="Capline-S" d="M18,76 l800,0" />
        <path id="H-reference" d="M85,145.755 L87.685,145.755 L113.369,79.287 L114.052,79.287 L114.052,76 L112.148,76 L85,145.755 Z M95.693,121.536 L130.996,121.536 L130.263,119.313 L96.474,119.313 L95.693,121.536 Z M139.15,145.755 L141.787,145.755 L114.638,76 L113.466,76 L113.466,79.287 L139.15,145.755 Z" stroke="none" />
        <path id="Baseline-S" d="M18,146 l800,0" />
        <path id="left-margin-Ultralight-S" d="M220,56 l0,110" />
        <path id="right-margin-Ultralight-S" d="M310,56 l0,110" />
        <path id="left-margin-Regular-S" d="M420,56 l0,110" />
        <path id="right-margin-Regular-S" d="M510,56 l0,110" />
        <path id="left-margin-Black-S" d="M620,56 l0,110" />
        <path id="right-margin-Black-S" d="M710,56 l0,110" />
        <path id="Capline-M" d="M18,276 l800,0" />
        <path id="Baseline-M" d="M18,346 l800,0" />
        <path id="Capline-L" d="M18,476 l800,0" />
        <path id="Baseline-L" d="M18,546 l800,0" />
    </g>
    <g id="Symbols">
        <g id="Ultralight-S">
            <path d="M254.419,91.465 L254.419,78.442 L251.977,80.884 L278.023,80.884 L275.581,78.442 L275.581,91.465 C275.581,92.814 276.675,93.907 278.023,93.907 C279.372,93.907 280.465,92.814 280.465,91.465 L280.465,78.442 C280.465,77.093 279.372,76 278.023,76 L251.977,76 C250.628,76 249.535,77.093 249.535,78.442 L249.535,91.465 C249.535,92.814 250.628,93.907 251.977,93.907 C253.325,93.907 254.419,92.814 254.419,91.465 Z" />
            <path d="M275.581,130.535 L275.581,143.558 L278.023,141.116 L251.977,141.116 L254.419,143.558 L254.419,130.535 C254.419,129.186 253.325,128.093 251.977,128.093 C250.628,128.093 249.535,129.186 249.535,130.535 L249.535,143.558 C249.535,144.907 250.628,146 251.977,146 L278.023,146 C279.372,146 280.465,144.907 280.465,143.558 L280.465,130.535 C280.465,129.186 279.372,128.093 278.023,128.093 C276.675,128.093 275.581,129.186 275.581,130.535 Z" />
            <path d="M255.233,108.558 L232.442,108.558 C231.093,108.558 230,109.651 230,111 C230,112.349 231.093,113.442 232.442,113.442 L255.233,113.442 C256.581,113.442 257.674,112.349 257.674,111 C257.674,109.651 256.581,108.558 255.233,108.558 Z" />
            <path d="M297.558,108.558 L274.767,108.558 C273.419,108.558 272.326,109.651 272.326,111 C272.326,112.349 273.419,113.442 274.767,113.442 L297.558,113.442 C298.907,113.442 300,112.349 300,111 C300,109.651 298.907,108.558 297.558,108.558 Z" />
            <path d="M267.442,127.279 L267.442,94.721 C267.442,93.372 266.349,92.279 265,92.279 C263.651,92.279 262.558,93.372 262.558,94.721 L262.558,127.279 C262.558,128.628 263.651,129.721 265,129.721 C266.349,129.721 267.442,128.628 267.442,127.279 Z" />
            <path d="M287.692,104.587 L295.831,112.727 L295.831,109.273 L287.692,117.413 C286.738,118.366 286.738,119.913 287.692,120.866 C288.646,121.82 290.192,121.82 291.145,120.866 L299.285,112.727 C300.238,111.773 300.238,110.227 299.285,109.273 L291.145,101.134 C290.192,100.18 288.646,100.18 287.692,101.134 C286.738,102.087 286.738,103.634 287.692,104.587 Z" />
            <path d="M238.855,101.134 L230.715,109.273 C229.762,110.227 229.762,111.773 230.715,112.727 L238.855,120.866 C239.808,121.82 241.354,121.82 242.308,120.866 C243.262,119.913 243.262,118.366 242.308,117.413 L234.169,109.273 L234.169,112.727 L242.308,104.587 C243.262,103.634 243.262,102.087 242.308,101.134 C241.354,100.18 239.808,100.18 238.855,101.134 Z" />
        </g>
        <g id="Regular-S">
            <path d="M454.419,91.465 L454.419,78.442 L451.977,80.884 L478.023,80.884 L475.581,78.442 L475.581,91.465 C475.581,92.814 476.675,93.907 478.023,93.907 C479.372,93.907 480.465,92.814 480.465,91.465 L480.465,78.442 C480.465,77.093 479.372,76 478.023,76 L451.977,76 C450.628,76 449.535,77.093 449.535,78.442 L449.535,91.465 C449.535,92.814 450.628,93.907 451.977,93.907 C453.325,93.907 454.419,92.814 454.419,91.465 Z" />
            <path d="M475.581,130.535 L475.581,143.558 L478.023,141.116 L451.977,141.116 L454.419,143.558 L454.419,130.535 C454.419,129.186 453.325,128.093 451.977,128.093 C450.628,128.093 449.535,129.186 449.535,130.535 L449.535,143.558 C449.535,144.907 450.628,146 451.977,146 L478.023,146 C479.372,146 480.465,144.907 480.465,143.558 L480.465,130.535 C480.465,129.186 479.372,128.093 478.023,128.093 C476.675,128.093 475.581,129.186 475.581,130.535 Z" />
            <path d="M455.233,108.558 L432.442,108.558 C431.093,108.558 430,109.651 430,111 C430,112.349 431.093,113.442 432.442,113.442 L455.233,113.442 C456.581,113.442 457.674,112.349 457.674,111 C457.674,109.651 456.581,108.558 455.233,108.558 Z" />
            <path d="M497.558,108.558 L474.767,108.558 C473.419,108.558 472.326,109.651 472.326,111 C472.326,112.349 473.419,113.442 474.767,113.442 L497.558,113.442 C498.907,113.442 500,112.349 500,111 C500,109.651 498.907,108.558 497.558,108.558 Z" />
            <path d="M467.442,127.279 L467.442,94.721 C467.442,93.372 466.349,92.279 465,92.279 C463.651,92.279 462.558,93.372 462.558,94.721 L462.558,127.279 C462.558,128.628 463.651,129.721 465,129.721 C466.349,129.721 467.442,128.628 467.442,127.279 Z" />
            <path d="M487.692,104.587 L495.831,112.727 L495.831,109.273 L487.692,117.413 C486.738,118.366 486.738,119.913 487.692,120.866 C488.646,121.82 490.192,121.82 491.145,120.866 L499.285,112.727 C500.238,111.773 500.238,110.227 499.285,109.273 L491.145,101.134 C490.192,100.18 488.646,100.18 487.692,101.134 C486.738,102.087 486.738,103.634 487.692,104.587 Z" />
            <path d="M438.855,101.134 L430.715,109.273 C429.762,110.227 429.762,111.773 430.715,112.727 L438.855,120.866 C439.808,121.82 441.354,121.82 442.308,120.866 C443.262,119.913 443.262,118.366 442.308,117.413 L434.169,109.273 L434.169,112.727 L442.308,104.587 C443.262,103.634 443.262,102.087 442.308,101.134 C441.354,100.18 439.808,100.18 438.855,101.134 Z" />
        </g>
        <g id="Black-S">
            <path d="M654.419,91.465 L654.419,78.442 L651.977,80.884 L678.023,80.884 L675.581,78.442 L675.581,91.465 C675.581,92.814 676.675,93.907 678.023,93.907 C679.372,93.907 680.465,92.814 680.465,91.465 L680.465,78.442 C680.465,77.093 679.372,76 678.023,76 L651.977,76 C650.628,76 649.535,77.093 649.535,78.442 L649.535,91.465 C649.535,92.814 650.628,93.907 651.977,93.907 C653.325,93.907 654.419,92.814 654.419,91.465 Z" />
            <path d="M675.581,130.535 L675.581,143.558 L678.023,141.116 L651.977,141.116 L654.419,143.558 L654.419,130.535 C654.419,129.186 653.325,128.093 651.977,128.093 C650.628,128.093 649.535,129.186 649.535,130.535 L649.535,143.558 C649.535,144.907 650.628,146 651.977,146 L678.023,146 C679.372,146 680.465,144.907 680.465,143.558 L680.465,130.535 C680.465,129.186 679.372,128.093 678.023,128.093 C676.675,128.093 675.581,129.186 675.581,130.535 Z" />
            <path d="M655.233,108.558 L632.442,108.558 C631.093,108.558 630,109.651 630,111 C630,112.349 631.093,113.442 632.442,113.442 L655.233,113.442 C656.581,113.442 657.674,112.349 657.674,111 C657.674,109.651 656.581,108.558 655.233,108.558 Z" />
            <path d="M697.558,108.558 L674.767,108.558 C673.419,108.558 672.326,109.651 672.326,111 C672.326,112.349 673.419,113.442 674.767,113.442 L697.558,113.442 C698.907,113.442 700,112.349 700,111 C700,109.651 698.907,108.558 697.558,108.558 Z" />
            <path d="M667.442,127.279 L667.442,94.721 C667.442,93.372 666.349,92.279 665,92.279 C663.651,92.279 662.558,93.372 662.558,94.721 L662.558,127.279 C662.558,128.628 663.651,129.721 665,129.721 C666.349,129.721 667.442,128.628 667.442,127.279 Z" />
            <path d="M687.692,104.587 L695.831,112.727 L695.831,109.273 L687.692,117.413 C686.738,118.366 686.738,119.913 687.692,120.866 C688.646,121.82 690.192,121.82 691.145,120.866 L699.285,112.727 C700.238,111.773 700.238,110.227 699.285,109.273 L691.145,101.134 C690.192,100.18 688.646,100.18 687.692,101.134 C686.738,102.087 686.738,103.634 687.692,104.587 Z" />
            <path d="M638.855,101.134 L630.715,109.273 C629.762,110.227 629.762,111.773 630.715,112.727 L638.855,120.866 C639.808,121.82 641.354,121.82 642.308,120.866 C643.262,119.913 643.262,118.366 642.308,117.413 L634.169,109.273 L634.169,112.727 L642.308,104.587 C643.262,103.634 643.262,102.087 642.308,101.134 C641.354,100.18 639.808,100.18 638.855,101.134 Z" />
        </g>
    </g>
</svg>