<?xml version="1.0" encoding="UTF-8"?>
<svg height="600" width="800" xmlns="http://www.w3.org/2000/svg" xmlns:xlink="http://www.w3.org/1999/xlink">
    <g id="Notes" font-family="'LucidaGrande', 'Lucida Grande', sans-serif" font-size="13">
        <rect fill="white" height="600.0" width="800.0" x="0.0" y="0.0" />
        <g font-size="13">
            <text x="18.0" y="176.0">Small</text>
            <text x="18.0" y="376.0">Medium</text>
            <text x="18.0" y="576.0">Large</text>
        </g>
        <g font-size="9">
            <text x="250.0" y="30.0">Ultralight</text>
            <text x="450.0" y="30.0">Regular</text>
            <text x="650.0" y="30.0">Black</text>
            <text id="template-version" fill="#505050" text-anchor="end" x="785.0" y="575.0">Template v.3.0</text>
            <a href="https://github.com/swhitty/SwiftDraw">
                <text fill="#505050" text-anchor="end" x="785.0" y="590.0">https://github.com/swhitty/SwiftDraw</text>
            </a>
        </g>
    </g>
    <g id="Guides" stroke="rgb(39, 170, 225)" stroke-width="0.5">
        <path id="Capline-S" d="M18,76 l800,0" />
        <path id="H-reference" d="M85,145.755 L87.685,145.755 L113.369,79.287 L114.052,79.287 L114.052,76 L112.148,76 L85,145.755 Z M95.693,121.536 L130.996,121.536 L130.263,119.313 L96.474,119.313 L95.693,121.536 Z M139.15,145.755 L141.787,145.755 L114.638,76 L113.466,76 L113.466,79.287 L139.15,145.755 Z" stroke="none" />
        <path id="Baseline-S" d="M18,146 l800,0" />
        <path id="left-margin-Ultralight-S" d="M218.108,56 l0,110" />
        <path id="right-margin-Ultralight-S" d="M311.892,56 l0,110" />
        <path id="left-margin-Regular-S" d="M418.108,56 l0,110" />
        <path id="right-margin-Regular-S" d="M511.892,56 l0,110" />
        <path id="left-margin-Black-S" d="M618.108,56 l0,110" />
        <path id="right-margin-Black-S" d="M711.892,56 l0,110" />
        <path id="Capline-M" d="M18,276 l800,0" />
        <path id="Baseline-M" d="M18,346 l800,0" />
        <path id="Capline-L" d="M18,476 l800,0" />
        <path id="Baseline-L" d="M18,546 l800,0" />
    </g>
    <g id="Symbols">
        <g id="Ultralight-S">
            <path d="M233.784,101.541 C233.784,87.973 240.081,81.676 253.649,81.676 C255.216,81.676 256.487,80.405 256.487,78.838 C256.487,77.271 255.216,76 253.649,76 C236.946,76 228.108,84.838 228.108,101.541 C228.108,103.108 229.379,104.378 230.946,104.378 C232.513,104.378 233.784,103.108 233.784,101.541 Z" />
            <path d="M292.432,120.459 C292.432,134.027 286.135,140.324 272.568,140.324 C271,140.324 269.73,141.595 269.73,143.162 C269.73,144.729 271,146 272.568,146 C289.27,146 298.108,137.162 298.108,120.459 C298.108,118.892 296.838,117.622 295.27,117.622 C293.703,117.622 292.432,118.892 292.432,120.459 Z" />
            <path d="M275.405,97.757 C275.405,88.876 282.605,81.676 291.487,81.676 L299.054,81.676 L296.216,78.838 L296.216,105.324 L299.054,102.486 L272.568,102.486 L275.405,105.324 L275.405,97.757 Z M269.73,97.757 L269.73,105.324 C269.73,106.892 271,108.162 272.568,108.162 L299.054,108.162 C300.621,108.162 301.892,106.892 301.892,105.324 L301.892,78.838 C301.892,77.271 300.621,76 299.054,76 L291.487,76 C279.471,76 269.73,85.741 269.73,97.757 Z" />
            <path d="M230.946,119.514 L257.432,119.514 L254.595,116.676 L254.595,124.243 C254.595,133.124 247.395,140.324 238.514,140.324 L230.946,140.324 L233.784,143.162 L233.784,116.676 L230.946,119.514 Z M230.946,113.838 C229.379,113.838 228.108,115.108 228.108,116.676 L228.108,143.162 C228.108,144.729 229.379,146 230.946,146 L238.514,146 C250.529,146 260.27,136.259 260.27,124.243 L260.27,116.676 C260.27,115.108 259,113.838 257.432,113.838 L230.946,113.838 Z" />
        </g>
        <g id="Regular-S">
            <path d="M433.784,101.541 C433.784,87.973 440.081,81.676 453.649,81.676 C455.216,81.676 456.487,80.405 456.487,78.838 C456.487,77.271 455.216,76 453.649,76 C436.946,76 428.108,84.838 428.108,101.541 C428.108,103.108 429.379,104.378 430.946,104.378 C432.513,104.378 433.784,103.108 433.784,101.541 Z" />
            <path d="M492.432,120.459 C492.432,134.027 486.135,140.324 472.568,140.324 C471,140.324 469.73,141.595 469.73,143.162 C469.73,144.729 471,146 472.568,146 C489.27,146 498.108,137.162 498.108,120.459 C498.108,118.892 496.838,117.622 495.27,117.622 C493.703,117.622 492.432,118.892 492.432,120.459 Z" />
            <path d="M475.405,97.757 C475.405,88.876 482.605,81.676 491.487,81.676 L499.054,81.676 L496.216,78.838 L496.216,105.324 L499.054,102.486 L472.568,102.486 L475.405,105.324 L475.405,97.757 Z M469.73,97.757 L469.73,105.324 C469.73,106.892 471,108.162 472.568,108.162 L499.054,108.162 C500.621,108.162 501.892,106.892 501.892,105.324 L501.892,78.838 C501.892,77.271 500.621,76 499.054,76 L491.487,76 C479.471,76 469.73,85.741 469.73,97.757 Z" />
            <path d="M430.946,119.514 L457.432,119.514 L454.595,116.676 L454.595,124.243 C454.595,133.124 447.395,140.324 438.514,140.324 L430.946,140.324 L433.784,143.162 L433.784,116.676 L430.946,119.514 Z M430.946,113.838 C429.379,113.838 428.108,115.108 428.108,116.676 L428.108,143.162 C428.108,144.729 429.379,146 430.946,146 L438.514,146 C450.529,146 460.27,136.259 460.27,124.243 L460.27,116.676 C460.27,115.108 459,113.838 457.432,113.838 L430.946,113.838 Z" />
        </g>
        <g id="Black-S">
            <path d="M633.784,101.541 C633.784,87.973 640.081,81.676 653.649,81.676 C655.216,81.676 656.487,80.405 656.487,78.838 C656.487,77.271 655.216,76 653.649,76 C636.946,76 628.108,84.838 628.108,101.541 C628.108,103.108 629.379,104.378 630.946,104.378 C632.513,104.378 633.784,103.108 633.784,101.541 Z" />
            <path d="M692.432,120.459 C692.432,134.027 686.135,140.324 672.568,140.324 C671,140.324 669.73,141.595 669.73,143.162 C669.73,144.729 671,146 672.568,146 C689.27,146 698.108,137.162 698.108,120.459 C698.108,118.892 696.838,117.622 695.27,117.622 C693.703,117.622 692.432,118.892 692.432,120.459 Z" />
            <path d="M675.405,97.757 C675.405,88.876 682.605,81.676 691.487,81.676 L699.054,81.676 L696.216,78.838 L696.216,105.324 L699.054,102.486 L672.568,102.486 L675.405,105.324 L675.405,97.757 Z M669.73,97.757 L669.73,105.324 C669.73,106.892 671,108.162 672.568,108.162 L699.054,108.162 C700.621,108.162 701.892,106.892 701.892,105.324 L701.892,78.838 C701.892,77.271 700.621,76 699.054,76 L691.487,76 C679.471,76 669.73,85.741 669.73,97.757 Z" />
            <path d="M630.946,119.514 L657.432,119.514 L654.595,116.676 L654.595,124.243 C654.595,133.124 647.395,140.324 638.514,140.324 L630.946,140.324 L633.784,143.162 L633.784,116.676 L630.946,119.514 Z M630.946,113.838 C629.379,113.838 628.108,115.108 628.108,116.676 L628.108,143.162 C628.108,144.729 629.379,146 630.946,146 L638.514,146 C650.529,146 660.27,136.259 660.27,124.243 L660.27,116.676 C660.27,115.108 659,113.838 657.432,113.838 L630.946,113.838 Z" />
        </g>
    </g>
</svg>