<?xml version="1.0" encoding="UTF-8"?>
<svg height="600" width="800" xmlns="http://www.w3.org/2000/svg" xmlns:xlink="http://www.w3.org/1999/xlink">
    <g id="Notes" font-family="'LucidaGrande', 'Lucida Grande', sans-serif" font-size="13">
        <rect fill="white" height="600.0" width="800.0" x="0.0" y="0.0" />
        <g font-size="13">
            <text x="18.0" y="176.0">Small</text>
            <text x="18.0" y="376.0">Medium</text>
            <text x="18.0" y="576.0">Large</text>
        </g>
        <g font-size="9">
            <text x="250.0" y="30.0">Ultralight</text>
            <text x="450.0" y="30.0">Regular</text>
            <text x="650.0" y="30.0">Black</text>
            <text id="template-version" fill="#505050" text-anchor="end" x="785.0" y="575.0">Template v.3.0</text>
            <a href="https://github.com/swhitty/SwiftDraw">
                <text fill="#505050" text-anchor="end" x="785.0" y="590.0">https://github.com/swhitty/SwiftDraw</text>
            </a>
        </g>
    </g>
    <g id="Guides" stroke="rgb(39, 170, 225)" stroke-width="0.5">
        <path id="Capline-S" d="M18,76 l800,0" />
        <path id="H-reference" d="M85,145.755 L87.685,145.755 L113.369,79.287 L114.052,79.287 L114.052,76 L112.148,76 L85,145.755 Z M95.693,121.536 L130.996,121.536 L130.263,119.313 L96.474,119.313 L95.693,121.536 Z M139.15,145.755 L141.787,145.755 L114.638,76 L113.466,76 L113.466,79.287 L139.15,145.755 Z" stroke="none" />
        <path id="Baseline-S" d="M18,146 l800,0" />
        <path id="left-margin-Ultralight-S" d="M220,56 l0,110" />
        <path id="right-margin-Ultralight-S" d="M310,56 l0,110" />
        <path id="left-margin-Regular-S" d="M420,56 l0,110" />
        <path id="right-margin-Regular-S" d="M510,56 l0,110" />
        <path id="left-margin-Black-S" d="M620,56 l0,110" />
        <path id="right-margin-Black-S" d="M710,56 l0,110" />
        <path id="Capline-M" d="M18,276 l800,0" />
        <path id="Baseline-M" d="M18,346 l800,0" />
        <path id="Capline-L" d="M18,476 l800,0" />
        <path id="Baseline-L" d="M18,546 l800,0" />
    </g>
    <g id="Symbols">
        <g id="Ultralight-S">
            <path d="M235.122,111 C235.122,94.499 248.499,81.122 265,81.122 C281.501,81.122 294.878,94.499 294.878,111 C294.878,127.501 281.501,140.878 265,140.878 C248.499,140.878 235.122,127.501 235.122,111 Z M230,111 C230,130.33 245.67,146 265,146 C284.33,146 300,130.33 300,111 C300,91.67 284.33,76 265,76 C245.67,76 230,91.67 230,111 Z" />
            <path d="M265,118.431 L253.481,118.431 C251.782,118.432 250.149,117.756 248.945,116.553 C247.74,115.35 247.063,113.718 247.063,112.016 L247.063,112.012 C247.063,110.31 247.739,108.677 248.943,107.474 C250.146,106.27 251.779,105.594 253.481,105.594 L276.519,105.594 C278.224,105.595 279.856,106.271 281.06,107.476 C282.263,108.68 282.938,110.313 282.938,112.015 L285.499,112.017 L288.06,112.017 L288.06,112.012 L285.499,112.012 L282.938,112.012 C282.938,113.715 282.261,115.347 281.058,116.551 C279.854,117.755 278.221,118.431 276.519,118.431 L265,118.431 Z M265,123.553 L276.519,123.553 C279.58,123.553 282.515,122.337 284.679,120.173 C286.844,118.008 288.06,115.073 288.06,112.012 L282.938,112.012 L282.938,112.017 L288.06,112.018 C288.061,108.957 286.847,106.021 284.683,103.856 C282.52,101.69 279.585,100.473 276.52,100.472 L253.481,100.472 C250.42,100.472 247.485,101.688 245.321,103.852 C243.157,106.016 241.941,108.952 241.941,112.012 L241.941,112.017 C241.942,115.079 243.159,118.014 245.325,120.177 C247.49,122.339 250.425,123.554 253.482,123.553 L265,123.553 Z" />
            <path d="M270.986,112.455 C270.986,110.871 271.616,109.351 272.737,108.23 C273.857,107.109 275.377,106.48 276.962,106.48 C278.547,106.48 280.067,107.109 281.187,108.23 C282.308,109.351 282.938,110.871 282.938,112.456 C282.938,114.04 282.308,115.56 281.187,116.681 C280.067,117.802 278.547,118.431 276.962,118.431 C275.377,118.431 273.857,117.802 272.737,116.681 C271.616,115.56 270.986,114.04 270.986,112.455 Z M265.864,112.455 C265.864,115.399 267.034,118.221 269.115,120.303 C271.196,122.384 274.019,123.553 276.962,123.553 C279.905,123.553 282.728,122.384 284.809,120.303 C286.89,118.221 288.06,115.399 288.06,112.456 C288.06,109.512 286.89,106.69 284.809,104.608 C282.728,102.527 279.905,101.358 276.962,101.358 C274.019,101.358 271.196,102.527 269.115,104.608 C267.034,106.69 265.864,109.512 265.864,112.455 Z" />
        </g>
        <g id="Regular-S">
            <path d="M435.122,111 C435.122,94.499 448.499,81.122 465,81.122 C481.501,81.122 494.878,94.499 494.878,111 C494.878,127.501 481.501,140.878 465,140.878 C448.499,140.878 435.122,127.501 435.122,111 Z M430,111 C430,130.33 445.67,146 465,146 C484.33,146 500,130.33 500,111 C500,91.67 484.33,76 465,76 C445.67,76 430,91.67 430,111 Z" />
            <path d="M465,118.431 L453.481,118.431 C451.782,118.432 450.149,117.756 448.945,116.553 C447.74,115.35 447.063,113.718 447.063,112.016 L447.063,112.012 C447.063,110.31 447.739,108.677 448.943,107.474 C450.146,106.27 451.779,105.594 453.481,105.594 L476.519,105.594 C478.224,105.595 479.856,106.271 481.06,107.476 C482.263,108.68 482.938,110.313 482.938,112.015 L485.499,112.017 L488.06,112.017 L488.06,112.012 L485.499,112.012 L482.938,112.012 C482.938,113.715 482.261,115.347 481.058,116.551 C479.854,117.755 478.221,118.431 476.519,118.431 L465,118.431 Z M465,123.553 L476.519,123.553 C479.58,123.553 482.515,122.337 484.679,120.173 C486.844,118.008 488.06,115.073 488.06,112.012 L482.938,112.012 L482.938,112.017 L488.06,112.018 C488.061,108.957 486.847,106.021 484.683,103.856 C482.52,101.69 479.585,100.473 476.52,100.472 L453.481,100.472 C450.42,100.472 447.485,101.688 445.321,103.852 C443.156,106.016 441.941,108.952 441.941,112.012 L441.941,112.017 C441.942,115.079 443.159,118.014 445.325,120.177 C447.49,122.339 450.425,123.554 453.482,123.553 L465,123.553 Z" />
            <path d="M470.986,112.455 C470.986,110.871 471.616,109.351 472.737,108.23 C473.857,107.109 475.377,106.48 476.962,106.48 C478.547,106.48 480.067,107.109 481.187,108.23 C482.308,109.351 482.938,110.871 482.938,112.456 C482.938,114.04 482.308,115.56 481.187,116.681 C480.067,117.802 478.547,118.431 476.962,118.431 C475.377,118.431 473.857,117.802 472.737,116.681 C471.616,115.56 470.986,114.04 470.986,112.455 Z M465.864,112.455 C465.864,115.399 467.034,118.221 469.115,120.303 C471.196,122.384 474.019,123.553 476.962,123.553 C479.905,123.553 482.728,122.384 484.809,120.303 C486.89,118.221 488.06,115.399 488.06,112.456 C488.06,109.512 486.89,106.69 484.809,104.608 C482.728,102.527 479.905,101.358 476.962,101.358 C474.019,101.358 471.196,102.527 469.115,104.608 C467.034,106.69 465.864,109.512 465.864,112.455 Z" />
        </g>
        <g id="Black-S">
            <path d="M635.122,111 C635.122,94.499 648.499,81.122 665,81.122 C681.501,81.122 694.878,94.499 694.878,111 C694.878,127.501 681.501,140.878 665,140.878 C648.499,140.878 635.122,127.501 635.122,111 Z M630,111 C630,130.33 645.67,146 665,146 C684.33,146 700,130.33 700,111 C700,91.67 684.33,76 665,76 C645.67,76 630,91.67 630,111 Z" />
            <path d="M665,118.431 L653.481,118.431 C651.782,118.432 650.149,117.756 648.945,116.553 C647.74,115.35 647.063,113.718 647.063,112.016 L647.063,112.012 C647.063,110.31 647.739,108.677 648.943,107.474 C650.146,106.27 651.779,105.594 653.481,105.594 L676.519,105.594 C678.224,105.595 679.856,106.271 681.06,107.476 C682.263,108.68 682.938,110.313 682.938,112.015 L685.499,112.017 L688.06,112.017 L688.06,112.012 L685.499,112.012 L682.938,112.012 C682.938,113.715 682.261,115.347 681.058,116.551 C679.854,117.755 678.221,118.431 676.519,118.431 L665,118.431 Z M665,123.553 L676.519,123.553 C679.58,123.553 682.515,122.337 684.679,120.173 C686.844,118.008 688.06,115.073 688.06,112.012 L682.938,112.012 L682.938,112.017 L688.06,112.018 C688.061,108.957 686.847,106.021 684.683,103.856 C682.52,101.69 679.585,100.473 676.52,100.472 L653.481,100.472 C650.42,100.472 647.485,101.688 645.321,103.852 C643.157,106.016 641.941,108.952 641.941,112.012 L641.941,112.017 C641.942,115.079 643.159,118.014 645.325,120.177 C647.49,122.339 650.425,123.554 653.482,123.553 L665,123.553 Z" />
            <path d="M670.986,112.455 C670.986,110.871 671.616,109.351 672.737,108.23 C673.857,107.109 675.377,106.48 676.962,106.48 C678.547,106.48 680.067,107.109 681.187,108.23 C682.308,109.351 682.938,110.871 682.938,112.456 C682.938,114.04 682.308,115.56 681.187,116.681 C680.067,117.802 678.547,118.431 676.962,118.431 C675.377,118.431 673.857,117.802 672.737,116.681 C671.616,115.56 670.986,114.04 670.986,112.455 Z M665.864,112.455 C665.864,115.399 667.034,118.221 669.115,120.303 C671.196,122.384 674.019,123.553 676.962,123.553 C679.905,123.553 682.728,122.384 684.809,120.303 C686.89,118.221 688.06,115.399 688.06,112.456 C688.06,109.512 686.89,106.69 684.809,104.608 C682.728,102.527 679.905,101.358 676.962,101.358 C674.019,101.358 671.196,102.527 669.115,104.608 C667.034,106.69 665.864,109.512 665.864,112.455 Z" />
        </g>
    </g>
</svg>