<?xml version="1.0" encoding="UTF-8"?>
<svg height="600" width="800" xmlns="http://www.w3.org/2000/svg" xmlns:xlink="http://www.w3.org/1999/xlink">
    <g id="Notes" font-family="'LucidaGrande', 'Lucida Grande', sans-serif" font-size="13">
        <rect fill="white" height="600.0" width="800.0" x="0.0" y="0.0" />
        <g font-size="13">
            <text x="18.0" y="176.0">Small</text>
            <text x="18.0" y="376.0">Medium</text>
            <text x="18.0" y="576.0">Large</text>
        </g>
        <g font-size="9">
            <text x="250.0" y="30.0">Ultralight</text>
            <text x="450.0" y="30.0">Regular</text>
            <text x="650.0" y="30.0">Black</text>
            <text id="template-version" fill="#505050" text-anchor="end" x="785.0" y="575.0">Template v.3.0</text>
            <a href="https://github.com/swhitty/SwiftDraw">
                <text fill="#505050" text-anchor="end" x="785.0" y="590.0">https://github.com/swhitty/SwiftDraw</text>
            </a>
        </g>
    </g>
    <g id="Guides" stroke="rgb(39, 170, 225)" stroke-width="0.5">
        <path id="Capline-S" d="M18,76 l800,0" />
        <path id="H-reference" d="M85,145.755 L87.685,145.755 L113.369,79.287 L114.052,79.287 L114.052,76 L112.148,76 L85,145.755 Z M95.693,121.536 L130.996,121.536 L130.263,119.313 L96.474,119.313 L95.693,121.536 Z M139.15,145.755 L141.787,145.755 L114.638,76 L113.466,76 L113.466,79.287 L139.15,145.755 Z" stroke="none" />
        <path id="Baseline-S" d="M18,146 l800,0" />
        <path id="left-margin-Ultralight-S" d="M220,56 l0,110" />
        <path id="right-margin-Ultralight-S" d="M310,56 l0,110" />
        <path id="left-margin-Regular-S" d="M420,56 l0,110" />
        <path id="right-margin-Regular-S" d="M510,56 l0,110" />
        <path id="left-margin-Black-S" d="M620,56 l0,110" />
        <path id="right-margin-Black-S" d="M710,56 l0,110" />
        <path id="Capline-M" d="M18,276 l800,0" />
        <path id="Baseline-M" d="M18,346 l800,0" />
        <path id="Capline-L" d="M18,476 l800,0" />
        <path id="Baseline-L" d="M18,546 l800,0" />
    </g>
    <g id="Symbols">
        <g id="Ultralight-S">
            <path d="M265,135.659 C278.619,135.659 289.659,124.619 289.659,111 C289.659,97.381 278.619,86.341 265,86.341 C251.381,86.341 240.341,97.381 240.341,111 C240.341,124.619 251.381,135.659 265,135.659 Z M265,130.886 C254.017,130.886 245.114,121.983 245.114,111 C245.114,100.017 254.017,91.114 265,91.114 C275.983,91.114 284.886,100.017 284.886,111 C284.886,121.983 275.983,130.886 265,130.886 Z" />
            <path d="M243.406,121.16 C247.409,122.816 251.925,122.762 254.496,119.763 C255.495,118.597 255.934,117.285 256.107,115.626 C256.144,115.274 256.161,115.027 256.196,114.424 C256.268,113.193 256.323,113.01 256.289,113.029 C256.209,113.074 256.041,113.096 255.942,113.073 C256.098,113.11 255.997,113.048 257.561,114.089 C259.81,115.587 261.729,116.222 264.294,115.761 C269.575,114.812 273.75,108.105 273.75,103.045 C273.75,100.979 273.132,99.813 271.719,98.244 C271.693,98.216 271.693,98.216 271.669,98.189 C270.988,97.433 270.858,97.204 270.821,96.617 C270.743,95.379 271.124,94.271 271.833,93.284 C272.227,92.736 272.608,92.368 272.795,92.227 C273.85,91.436 274.063,89.941 273.273,88.886 C272.482,87.832 270.986,87.618 269.932,88.409 C269.384,88.82 268.664,89.514 267.956,90.501 C266.647,92.324 265.903,94.483 266.058,96.919 C266.179,98.822 266.787,99.902 268.123,101.384 C268.149,101.412 268.149,101.412 268.173,101.44 C268.871,102.214 268.977,102.414 268.977,103.045 C268.977,106.017 266.136,110.58 263.45,111.063 C262.335,111.264 261.528,110.997 260.207,110.117 C260.415,110.256 259.213,109.44 258.885,109.238 C258.24,108.841 257.663,108.573 257.02,108.424 C255.975,108.182 254.924,108.321 253.949,108.87 C251.999,109.966 251.598,111.302 251.432,114.145 C251.401,114.673 251.387,114.876 251.36,115.131 C251.278,115.914 251.131,116.355 250.872,116.657 C249.997,117.677 247.544,117.707 245.231,116.75 C244.013,116.246 242.617,116.824 242.113,118.042 C241.609,119.26 242.188,120.656 243.406,121.16 Z" />
            <path d="M272.895,129.852 C272.886,129.845 271.896,129.029 271.665,128.828 C270.784,128.059 270.568,127.685 270.568,126.91 C270.568,126.742 270.552,126.802 270.433,126.959 C270.318,127.11 270.276,127.136 270.4,127.082 C270.431,127.069 270.739,126.937 270.849,126.888 C271.081,126.786 271.286,126.687 271.495,126.573 C272.058,126.267 272.57,125.895 273.05,125.415 C274.018,124.447 274.458,123.347 274.772,121.777 C274.812,121.58 274.818,121.544 274.904,121.072 C275.014,120.467 275.077,120.197 275.145,120.028 C275.134,120.055 275.026,120.189 274.817,120.294 C274.828,120.288 275.896,120.422 277.262,120.928 C279.047,121.588 280.981,122.685 282.586,123.988 C283.608,124.819 285.111,124.664 285.943,123.641 C286.774,122.619 286.618,121.116 285.596,120.284 C281.298,116.792 275.466,114.634 272.683,116.024 C271.054,116.839 270.63,117.897 270.208,120.218 C270.129,120.653 270.124,120.684 270.092,120.841 C269.948,121.563 269.811,121.904 269.676,122.04 C269.421,122.294 269.358,122.328 268.486,122.71 C266.726,123.48 265.796,124.702 265.796,126.908 C265.795,129.263 266.7,130.829 268.526,132.423 C268.818,132.678 269.871,133.545 269.831,133.512 C270.842,134.358 272.347,134.224 273.193,133.214 C274.039,132.203 273.905,130.698 272.895,129.852 Z" />
            <path d="M261.818,79.182 C261.818,77.425 263.243,76 265,76 C266.757,76 268.182,77.425 268.182,79.182 C268.182,80.939 266.757,82.364 265,82.364 C263.243,82.364 261.818,80.939 261.818,79.182 Z" />
            <path d="M261.818,142.818 C261.818,141.061 263.243,139.636 265,139.636 C266.757,139.636 268.182,141.061 268.182,142.818 C268.182,144.575 266.757,146 265,146 C263.243,146 261.818,144.575 261.818,142.818 Z" />
            <path d="M293.636,111 C293.636,109.243 295.061,107.818 296.818,107.818 C298.575,107.818 300,109.243 300,111 C300,112.757 298.575,114.182 296.818,114.182 C295.061,114.182 293.636,112.757 293.636,111 Z" />
            <path d="M284.091,88.727 C284.091,86.97 285.515,85.545 287.273,85.545 C289.03,85.545 290.455,86.97 290.455,88.727 C290.455,90.485 289.03,91.909 287.273,91.909 C285.515,91.909 284.091,90.485 284.091,88.727 Z" />
            <path d="M239.545,133.273 C239.545,131.515 240.97,130.091 242.727,130.091 C244.485,130.091 245.909,131.515 245.909,133.273 C245.909,135.03 244.485,136.455 242.727,136.455 C240.97,136.455 239.545,135.03 239.545,133.273 Z" />
            <path d="M230,111 C230,109.243 231.425,107.818 233.182,107.818 C234.939,107.818 236.364,109.243 236.364,111 C236.364,112.757 234.939,114.182 233.182,114.182 C231.425,114.182 230,112.757 230,111 Z" />
            <path d="M239.545,88.727 C239.545,86.97 240.97,85.545 242.727,85.545 C244.485,85.545 245.909,86.97 245.909,88.727 C245.909,90.485 244.485,91.909 242.727,91.909 C240.97,91.909 239.545,90.485 239.545,88.727 Z" />
            <path d="M284.091,133.273 C284.091,131.515 285.515,130.091 287.273,130.091 C289.03,130.091 290.455,131.515 290.455,133.273 C290.455,135.03 289.03,136.455 287.273,136.455 C285.515,136.455 284.091,135.03 284.091,133.273 Z" />
            <path d="M240.341,111 C240.341,117.539 242.901,123.68 247.386,128.258 C248.309,129.199 249.82,129.215 250.761,128.292 C251.702,127.37 251.718,125.859 250.795,124.918 C247.175,121.223 245.114,116.277 245.114,111 C245.114,109.682 244.045,108.614 242.727,108.614 C241.409,108.614 240.341,109.682 240.341,111 Z" />
            <path d="M265,135.659 C278.619,135.659 289.659,124.619 289.659,111 C289.659,109.682 288.591,108.614 287.273,108.614 C285.955,108.614 284.886,109.682 284.886,111 C284.886,121.983 275.983,130.886 265,130.886 C263.682,130.886 262.614,131.955 262.614,133.273 C262.614,134.591 263.682,135.659 265,135.659 Z" />
            <path d="M265,91.114 C270.277,91.114 275.223,93.175 278.918,96.795 C279.859,97.718 281.37,97.702 282.292,96.761 C283.215,95.82 283.199,94.309 282.258,93.386 C277.68,88.901 271.539,86.341 265,86.341 C263.682,86.341 262.614,87.409 262.614,88.727 C262.614,90.045 263.682,91.114 265,91.114 Z" />
        </g>
        <g id="Regular-S">
            <path d="M465,135.659 C478.619,135.659 489.659,124.619 489.659,111 C489.659,97.381 478.619,86.341 465,86.341 C451.381,86.341 440.341,97.381 440.341,111 C440.341,124.619 451.381,135.659 465,135.659 Z M465,130.886 C454.017,130.886 445.114,121.983 445.114,111 C445.114,100.017 454.017,91.114 465,91.114 C475.983,91.114 484.886,100.017 484.886,111 C484.886,121.983 475.983,130.886 465,130.886 Z" />
            <path d="M443.406,121.16 C447.409,122.816 451.925,122.762 454.496,119.763 C455.495,118.597 455.934,117.285 456.107,115.626 C456.144,115.274 456.161,115.027 456.196,114.424 C456.268,113.193 456.323,113.01 456.289,113.029 C456.209,113.074 456.041,113.096 455.942,113.073 C456.098,113.11 455.997,113.048 457.561,114.089 C459.81,115.587 461.729,116.222 464.294,115.761 C469.575,114.812 473.75,108.105 473.75,103.045 C473.75,100.979 473.132,99.813 471.719,98.244 C471.693,98.216 471.693,98.216 471.669,98.189 C470.988,97.433 470.858,97.204 470.821,96.617 C470.743,95.379 471.124,94.271 471.833,93.284 C472.227,92.736 472.608,92.368 472.795,92.227 C473.85,91.436 474.063,89.941 473.273,88.886 C472.482,87.832 470.986,87.618 469.932,88.409 C469.384,88.82 468.664,89.514 467.956,90.501 C466.647,92.324 465.903,94.483 466.058,96.919 C466.179,98.822 466.787,99.902 468.123,101.384 C468.149,101.412 468.149,101.412 468.173,101.44 C468.871,102.214 468.977,102.414 468.977,103.045 C468.977,106.017 466.136,110.58 463.45,111.063 C462.335,111.264 461.528,110.997 460.207,110.117 C460.415,110.256 459.213,109.44 458.885,109.238 C458.24,108.841 457.663,108.573 457.02,108.424 C455.975,108.182 454.924,108.321 453.949,108.87 C451.999,109.966 451.598,111.302 451.432,114.145 C451.401,114.673 451.387,114.876 451.36,115.131 C451.278,115.914 451.131,116.355 450.872,116.657 C449.997,117.677 447.544,117.707 445.231,116.75 C444.013,116.246 442.617,116.824 442.113,118.042 C441.609,119.26 442.188,120.656 443.406,121.16 Z" />
            <path d="M472.895,129.852 C472.886,129.845 471.896,129.029 471.665,128.828 C470.784,128.059 470.568,127.685 470.568,126.91 C470.568,126.742 470.552,126.802 470.433,126.959 C470.318,127.11 470.276,127.136 470.4,127.082 C470.431,127.069 470.739,126.937 470.849,126.888 C471.081,126.786 471.286,126.687 471.495,126.573 C472.058,126.267 472.57,125.895 473.05,125.415 C474.018,124.447 474.458,123.347 474.772,121.777 C474.812,121.58 474.818,121.544 474.904,121.072 C475.014,120.467 475.077,120.197 475.145,120.028 C475.134,120.055 475.026,120.189 474.817,120.294 C474.828,120.288 475.896,120.422 477.262,120.928 C479.047,121.588 480.981,122.685 482.586,123.988 C483.608,124.819 485.111,124.664 485.943,123.641 C486.774,122.619 486.618,121.116 485.596,120.284 C481.298,116.792 475.466,114.634 472.683,116.024 C471.054,116.839 470.63,117.897 470.208,120.218 C470.129,120.653 470.124,120.684 470.092,120.841 C469.948,121.563 469.811,121.904 469.676,122.04 C469.421,122.294 469.358,122.328 468.486,122.71 C466.726,123.48 465.796,124.702 465.796,126.908 C465.795,129.263 466.7,130.829 468.526,132.423 C468.818,132.678 469.871,133.545 469.831,133.512 C470.842,134.358 472.347,134.224 473.193,133.214 C474.039,132.203 473.905,130.698 472.895,129.852 Z" />
            <path d="M461.818,79.182 C461.818,77.425 463.243,76 465,76 C466.757,76 468.182,77.425 468.182,79.182 C468.182,80.939 466.757,82.364 465,82.364 C463.243,82.364 461.818,80.939 461.818,79.182 Z" />
            <path d="M461.818,142.818 C461.818,141.061 463.243,139.636 465,139.636 C466.757,139.636 468.182,141.061 468.182,142.818 C468.182,144.575 466.757,146 465,146 C463.243,146 461.818,144.575 461.818,142.818 Z" />
            <path d="M493.636,111 C493.636,109.243 495.061,107.818 496.818,107.818 C498.575,107.818 500,109.243 500,111 C500,112.757 498.575,114.182 496.818,114.182 C495.061,114.182 493.636,112.757 493.636,111 Z" />
            <path d="M484.091,88.727 C484.091,86.97 485.515,85.545 487.273,85.545 C489.03,85.545 490.455,86.97 490.455,88.727 C490.455,90.485 489.03,91.909 487.273,91.909 C485.515,91.909 484.091,90.485 484.091,88.727 Z" />
            <path d="M439.545,133.273 C439.545,131.515 440.97,130.091 442.727,130.091 C444.485,130.091 445.909,131.515 445.909,133.273 C445.909,135.03 444.485,136.455 442.727,136.455 C440.97,136.455 439.545,135.03 439.545,133.273 Z" />
            <path d="M430,111 C430,109.243 431.425,107.818 433.182,107.818 C434.939,107.818 436.364,109.243 436.364,111 C436.364,112.757 434.939,114.182 433.182,114.182 C431.425,114.182 430,112.757 430,111 Z" />
            <path d="M439.545,88.727 C439.545,86.97 440.97,85.545 442.727,85.545 C444.485,85.545 445.909,86.97 445.909,88.727 C445.909,90.485 444.485,91.909 442.727,91.909 C440.97,91.909 439.545,90.485 439.545,88.727 Z" />
            <path d="M484.091,133.273 C484.091,131.515 485.515,130.091 487.273,130.091 C489.03,130.091 490.455,131.515 490.455,133.273 C490.455,135.03 489.03,136.455 487.273,136.455 C485.515,136.455 484.091,135.03 484.091,133.273 Z" />
            <path d="M440.341,111 C440.341,117.539 442.901,123.68 447.386,128.258 C448.309,129.199 449.82,129.215 450.761,128.292 C451.702,127.37 451.718,125.859 450.795,124.918 C447.175,121.223 445.114,116.277 445.114,111 C445.114,109.682 444.045,108.614 442.727,108.614 C441.409,108.614 440.341,109.682 440.341,111 Z" />
            <path d="M465,135.659 C478.619,135.659 489.659,124.619 489.659,111 C489.659,109.682 488.591,108.614 487.273,108.614 C485.955,108.614 484.886,109.682 484.886,111 C484.886,121.983 475.983,130.886 465,130.886 C463.682,130.886 462.614,131.955 462.614,133.273 C462.614,134.591 463.682,135.659 465,135.659 Z" />
            <path d="M465,91.114 C470.277,91.114 475.223,93.175 478.918,96.795 C479.859,97.718 481.37,97.702 482.292,96.761 C483.215,95.82 483.199,94.309 482.258,93.386 C477.68,88.901 471.539,86.341 465,86.341 C463.682,86.341 462.614,87.409 462.614,88.727 C462.614,90.045 463.682,91.114 465,91.114 Z" />
        </g>
        <g id="Black-S">
            <path d="M665,135.659 C678.619,135.659 689.659,124.619 689.659,111 C689.659,97.381 678.619,86.341 665,86.341 C651.381,86.341 640.341,97.381 640.341,111 C640.341,124.619 651.381,135.659 665,135.659 Z M665,130.886 C654.017,130.886 645.114,121.983 645.114,111 C645.114,100.017 654.017,91.114 665,91.114 C675.983,91.114 684.886,100.017 684.886,111 C684.886,121.983 675.983,130.886 665,130.886 Z" />
            <path d="M643.406,121.16 C647.409,122.816 651.925,122.762 654.496,119.763 C655.495,118.597 655.934,117.285 656.107,115.626 C656.144,115.274 656.161,115.027 656.196,114.424 C656.268,113.193 656.323,113.01 656.289,113.029 C656.209,113.074 656.041,113.096 655.942,113.073 C656.098,113.11 655.997,113.048 657.561,114.089 C659.81,115.587 661.729,116.222 664.294,115.761 C669.575,114.812 673.75,108.105 673.75,103.045 C673.75,100.979 673.132,99.813 671.719,98.244 C671.693,98.216 671.693,98.216 671.669,98.189 C670.988,97.433 670.858,97.204 670.821,96.617 C670.743,95.379 671.124,94.271 671.833,93.284 C672.227,92.736 672.608,92.368 672.795,92.227 C673.85,91.436 674.063,89.941 673.273,88.886 C672.482,87.832 670.986,87.618 669.932,88.409 C669.384,88.82 668.664,89.514 667.956,90.501 C666.647,92.324 665.903,94.483 666.058,96.919 C666.179,98.822 666.787,99.902 668.123,101.384 C668.149,101.412 668.149,101.412 668.173,101.44 C668.871,102.214 668.977,102.414 668.977,103.045 C668.977,106.017 666.136,110.58 663.45,111.063 C662.335,111.264 661.528,110.997 660.207,110.117 C660.415,110.256 659.213,109.44 658.885,109.238 C658.24,108.841 657.663,108.573 657.02,108.424 C655.975,108.182 654.924,108.321 653.949,108.87 C651.999,109.966 651.598,111.302 651.432,114.145 C651.401,114.673 651.387,114.876 651.36,115.131 C651.278,115.914 651.131,116.355 650.872,116.657 C649.997,117.677 647.544,117.707 645.231,116.75 C644.013,116.246 642.617,116.824 642.113,118.042 C641.609,119.26 642.188,120.656 643.406,121.16 Z" />
            <path d="M672.895,129.852 C672.886,129.845 671.896,129.029 671.665,128.828 C670.784,128.059 670.568,127.685 670.568,126.91 C670.568,126.742 670.552,126.802 670.433,126.959 C670.318,127.11 670.276,127.136 670.4,127.082 C670.431,127.069 670.739,126.937 670.849,126.888 C671.081,126.786 671.286,126.687 671.495,126.573 C672.058,126.267 672.57,125.895 673.05,125.415 C674.018,124.447 674.458,123.347 674.772,121.777 C674.812,121.58 674.818,121.544 674.904,121.072 C675.014,120.467 675.077,120.197 675.145,120.028 C675.134,120.055 675.026,120.189 674.817,120.294 C674.828,120.288 675.896,120.422 677.262,120.928 C679.047,121.588 680.981,122.685 682.586,123.988 C683.608,124.819 685.111,124.664 685.943,123.641 C686.774,122.619 686.618,121.116 685.596,120.284 C681.298,116.792 675.466,114.634 672.683,116.024 C671.054,116.839 670.63,117.897 670.208,120.218 C670.129,120.653 670.123,120.684 670.092,120.841 C669.948,121.563 669.811,121.904 669.676,122.04 C669.421,122.294 669.358,122.328 668.486,122.71 C666.726,123.48 665.796,124.702 665.796,126.908 C665.795,129.263 666.7,130.829 668.526,132.423 C668.818,132.678 669.871,133.545 669.831,133.512 C670.842,134.358 672.347,134.224 673.193,133.214 C674.039,132.203 673.905,130.698 672.895,129.852 Z" />
            <path d="M661.818,79.182 C661.818,77.425 663.243,76 665,76 C666.757,76 668.182,77.425 668.182,79.182 C668.182,80.939 666.757,82.364 665,82.364 C663.243,82.364 661.818,80.939 661.818,79.182 Z" />
            <path d="M661.818,142.818 C661.818,141.061 663.243,139.636 665,139.636 C666.757,139.636 668.182,141.061 668.182,142.818 C668.182,144.575 666.757,146 665,146 C663.243,146 661.818,144.575 661.818,142.818 Z" />
            <path d="M693.636,111 C693.636,109.243 695.061,107.818 696.818,107.818 C698.575,107.818 700,109.243 700,111 C700,112.757 698.575,114.182 696.818,114.182 C695.061,114.182 693.636,112.757 693.636,111 Z" />
            <path d="M684.091,88.727 C684.091,86.97 685.515,85.545 687.273,85.545 C689.03,85.545 690.455,86.97 690.455,88.727 C690.455,90.485 689.03,91.909 687.273,91.909 C685.515,91.909 684.091,90.485 684.091,88.727 Z" />
            <path d="M639.545,133.273 C639.545,131.515 640.97,130.091 642.727,130.091 C644.485,130.091 645.909,131.515 645.909,133.273 C645.909,135.03 644.485,136.455 642.727,136.455 C640.97,136.455 639.545,135.03 639.545,133.273 Z" />
            <path d="M630,111 C630,109.243 631.425,107.818 633.182,107.818 C634.939,107.818 636.364,109.243 636.364,111 C636.364,112.757 634.939,114.182 633.182,114.182 C631.425,114.182 630,112.757 630,111 Z" />
            <path d="M639.545,88.727 C639.545,86.97 640.97,85.545 642.727,85.545 C644.485,85.545 645.909,86.97 645.909,88.727 C645.909,90.485 644.485,91.909 642.727,91.909 C640.97,91.909 639.545,90.485 639.545,88.727 Z" />
            <path d="M684.091,133.273 C684.091,131.515 685.515,130.091 687.273,130.091 C689.03,130.091 690.455,131.515 690.455,133.273 C690.455,135.03 689.03,136.455 687.273,136.455 C685.515,136.455 684.091,135.03 684.091,133.273 Z" />
            <path d="M640.341,111 C640.341,117.539 642.901,123.68 647.386,128.258 C648.309,129.199 649.82,129.215 650.761,128.292 C651.702,127.37 651.718,125.859 650.795,124.918 C647.175,121.223 645.114,116.277 645.114,111 C645.114,109.682 644.045,108.614 642.727,108.614 C641.409,108.614 640.341,109.682 640.341,111 Z" />
            <path d="M665,135.659 C678.619,135.659 689.659,124.619 689.659,111 C689.659,109.682 688.591,108.614 687.273,108.614 C685.955,108.614 684.886,109.682 684.886,111 C684.886,121.983 675.983,130.886 665,130.886 C663.682,130.886 662.614,131.955 662.614,133.273 C662.614,134.591 663.682,135.659 665,135.659 Z" />
            <path d="M665,91.114 C670.277,91.114 675.223,93.175 678.917,96.795 C679.859,97.718 681.37,97.702 682.292,96.761 C683.215,95.82 683.199,94.309 682.258,93.386 C677.68,88.901 671.539,86.341 665,86.341 C663.682,86.341 662.614,87.409 662.614,88.727 C662.614,90.045 663.682,91.114 665,91.114 Z" />
        </g>
    </g>
</svg>