<?xml version="1.0" encoding="UTF-8"?>
<svg height="600" width="800" xmlns="http://www.w3.org/2000/svg" xmlns:xlink="http://www.w3.org/1999/xlink">
    <g id="Notes" font-family="'LucidaGrande', 'Lucida Grande', sans-serif" font-size="13">
        <rect fill="white" height="600.0" width="800.0" x="0.0" y="0.0" />
        <g font-size="13">
            <text x="18.0" y="176.0">Small</text>
            <text x="18.0" y="376.0">Medium</text>
            <text x="18.0" y="576.0">Large</text>
        </g>
        <g font-size="9">
            <text x="250.0" y="30.0">Ultralight</text>
            <text x="450.0" y="30.0">Regular</text>
            <text x="650.0" y="30.0">Black</text>
            <text id="template-version" fill="#505050" text-anchor="end" x="785.0" y="575.0">Template v.3.0</text>
            <a href="https://github.com/swhitty/SwiftDraw">
                <text fill="#505050" text-anchor="end" x="785.0" y="590.0">https://github.com/swhitty/SwiftDraw</text>
            </a>
        </g>
    </g>
    <g id="Guides" stroke="rgb(39, 170, 225)" stroke-width="0.5">
        <path id="Capline-S" d="M18,76 l800,0" />
        <path id="H-reference" d="M85,145.755 L87.685,145.755 L113.369,79.287 L114.052,79.287 L114.052,76 L112.148,76 L85,145.755 Z M95.693,121.536 L130.996,121.536 L130.263,119.313 L96.474,119.313 L95.693,121.536 Z M139.15,145.755 L141.787,145.755 L114.638,76 L113.466,76 L113.466,79.287 L139.15,145.755 Z" stroke="none" />
        <path id="Baseline-S" d="M18,146 l800,0" />
        <path id="left-margin-Ultralight-S" d="M211,56 l0,110" />
        <path id="right-margin-Ultralight-S" d="M319,56 l0,110" />
        <path id="left-margin-Regular-S" d="M411,56 l0,110" />
        <path id="right-margin-Regular-S" d="M519,56 l0,110" />
        <path id="left-margin-Black-S" d="M611,56 l0,110" />
        <path id="right-margin-Black-S" d="M719,56 l0,110" />
        <path id="Capline-M" d="M18,276 l800,0" />
        <path id="Baseline-M" d="M18,346 l800,0" />
        <path id="Capline-L" d="M18,476 l800,0" />
        <path id="Baseline-L" d="M18,546 l800,0" />
    </g>
    <g id="Symbols">
        <g id="Ultralight-S">
            <path d="M293.629,86.882 C288.733,83.932 283.118,82.349 277.279,82.349 C271.44,82.349 265.825,83.932 260.929,86.882 C259.477,87.757 259.009,89.644 259.884,91.096 C260.759,92.548 262.645,93.016 264.097,92.141 C268.044,89.763 272.565,88.488 277.279,88.488 C281.994,88.488 286.514,89.763 290.461,92.141 C291.913,93.016 293.799,92.548 294.674,91.096 C295.549,89.644 295.081,87.757 293.629,86.882 Z M292.045,92.581 L301.837,92.581 L298.767,89.512 L298.767,99.304 C298.767,100.999 300.142,102.374 301.837,102.374 C303.533,102.374 304.907,100.999 304.907,99.304 L304.907,89.512 C304.907,87.816 303.533,86.442 301.837,86.442 L292.045,86.442 C290.35,86.442 288.975,87.816 288.975,89.512 C288.975,91.207 290.35,92.581 292.045,92.581 Z M290.461,92.141 C294.041,94.298 297.051,97.308 299.208,100.888 C300.083,102.34 301.97,102.808 303.422,101.933 C304.874,101.058 305.342,99.171 304.466,97.719 C301.793,93.283 298.066,89.556 293.629,86.882 C292.177,86.007 290.291,86.475 289.416,87.927 C288.541,89.379 289.009,91.266 290.461,92.141 Z M262.513,86.442 L224.07,86.442 C222.374,86.442 221,87.816 221,89.512 L221,138.628 C221,140.323 222.374,141.698 224.07,141.698 L262.513,141.698 C264.208,141.698 265.583,140.323 265.583,138.628 C265.583,136.933 264.208,135.558 262.513,135.558 L224.07,135.558 L227.14,138.628 L227.14,89.512 L224.07,92.581 L262.513,92.581 C264.208,92.581 265.583,91.207 265.583,89.512 C265.583,87.816 264.208,86.442 262.513,86.442 Z M260.929,86.882 C251.468,92.583 245.558,102.817 245.558,114.07 C245.558,125.322 251.468,135.557 260.929,141.257 C262.381,142.132 264.267,141.664 265.142,140.212 C266.017,138.76 265.55,136.874 264.097,135.999 C256.462,131.398 251.698,123.148 251.698,114.07 C251.698,104.992 256.462,96.742 264.097,92.141 C265.55,91.266 266.017,89.379 265.142,87.927 C264.267,86.475 262.381,86.007 260.929,86.882 Z M290.461,135.999 C286.514,138.377 281.994,139.651 277.279,139.651 C272.565,139.651 268.044,138.377 264.097,135.999 C262.645,135.124 260.759,135.591 259.884,137.044 C259.009,138.496 259.477,140.382 260.929,141.257 C265.825,144.208 271.44,145.791 277.279,145.791 C283.118,145.791 288.733,144.208 293.629,141.257 C295.081,140.382 295.549,138.496 294.674,137.044 C293.799,135.591 291.913,135.124 290.461,135.999 Z M292.045,141.698 L301.837,141.698 C303.533,141.698 304.907,140.323 304.907,138.628 L304.907,128.836 C304.907,127.14 303.533,125.766 301.837,125.766 C300.142,125.766 298.767,127.14 298.767,128.836 L298.767,138.628 L301.837,135.558 L292.045,135.558 C290.35,135.558 288.975,136.933 288.975,138.628 C288.975,140.323 290.35,141.698 292.045,141.698 Z M293.629,141.257 C298.066,138.584 301.793,134.856 304.466,130.42 C305.342,128.968 304.874,127.082 303.422,126.206 C301.97,125.331 300.083,125.799 299.208,127.251 C297.051,130.831 294.041,133.841 290.461,135.999 C289.009,136.874 288.541,138.76 289.416,140.212 C290.291,141.664 292.177,142.132 293.629,141.257 Z M299.208,100.888 C301.586,104.835 302.86,109.355 302.86,114.07 C302.86,118.784 301.586,123.305 299.208,127.251 C298.333,128.704 298.801,130.59 300.253,131.465 C301.705,132.34 303.592,131.872 304.467,130.42 C307.417,125.523 309,119.909 309,114.07 C309,108.231 307.417,102.616 304.467,97.719 C303.592,96.267 301.705,95.799 300.253,96.674 C298.801,97.549 298.333,99.436 299.208,100.888 Z" />
            <path d="M247.605,79.279 L247.605,89.512 L250.674,86.442 L232.256,86.442 L235.326,89.512 L235.326,79.279 L232.256,82.349 L250.674,82.349 L247.605,79.279 Z M253.744,79.279 C253.744,77.584 252.37,76.209 250.674,76.209 L232.256,76.209 C230.56,76.209 229.186,77.584 229.186,79.279 L229.186,89.512 C229.186,91.207 230.56,92.581 232.256,92.581 L250.674,92.581 C252.37,92.581 253.744,91.207 253.744,89.512 L253.744,79.279 Z" />
            <path d="M233.279,105.884 L233.279,122.256 C233.279,123.951 234.653,125.326 236.349,125.326 C238.044,125.326 239.419,123.951 239.419,122.256 L239.419,105.884 C239.419,104.188 238.044,102.814 236.349,102.814 C234.653,102.814 233.279,104.188 233.279,105.884 Z" />
            <path d="M286.488,114.07 C286.488,119.156 282.365,123.279 277.279,123.279 C275.584,123.279 274.209,124.653 274.209,126.349 C274.209,128.044 275.584,129.419 277.279,129.419 C285.756,129.419 292.628,122.547 292.628,114.07 C292.628,112.374 291.254,111 289.558,111 C287.863,111 286.488,112.374 286.488,114.07 Z M268.07,114.07 C268.07,108.984 272.193,104.86 277.279,104.86 C278.974,104.86 280.349,103.486 280.349,101.791 C280.349,100.095 278.974,98.721 277.279,98.721 C268.802,98.721 261.93,105.593 261.93,114.07 C261.93,115.765 263.305,117.14 265,117.14 C266.695,117.14 268.07,115.765 268.07,114.07 Z" />
        </g>
        <g id="Regular-S">
            <path d="M493.629,86.882 C488.733,83.932 483.118,82.349 477.279,82.349 C471.44,82.349 465.825,83.932 460.929,86.882 C459.477,87.757 459.009,89.644 459.884,91.096 C460.759,92.548 462.645,93.016 464.097,92.141 C468.044,89.763 472.565,88.488 477.279,88.488 C481.994,88.488 486.514,89.763 490.461,92.141 C491.913,93.016 493.799,92.548 494.674,91.096 C495.549,89.644 495.081,87.757 493.629,86.882 Z M492.045,92.581 L501.837,92.581 L498.767,89.512 L498.767,99.304 C498.767,100.999 500.142,102.374 501.837,102.374 C503.533,102.374 504.907,100.999 504.907,99.304 L504.907,89.512 C504.907,87.816 503.533,86.442 501.837,86.442 L492.045,86.442 C490.35,86.442 488.975,87.816 488.975,89.512 C488.975,91.207 490.35,92.581 492.045,92.581 Z M490.461,92.141 C494.041,94.298 497.051,97.308 499.208,100.888 C500.083,102.34 501.97,102.808 503.422,101.933 C504.874,101.058 505.342,99.171 504.466,97.719 C501.793,93.283 498.066,89.556 493.629,86.882 C492.177,86.007 490.291,86.475 489.416,87.927 C488.541,89.379 489.009,91.266 490.461,92.141 Z M462.513,86.442 L424.07,86.442 C422.374,86.442 421,87.816 421,89.512 L421,138.628 C421,140.323 422.374,141.698 424.07,141.698 L462.513,141.698 C464.208,141.698 465.583,140.323 465.583,138.628 C465.583,136.933 464.208,135.558 462.513,135.558 L424.07,135.558 L427.14,138.628 L427.14,89.512 L424.07,92.581 L462.513,92.581 C464.208,92.581 465.583,91.207 465.583,89.512 C465.583,87.816 464.208,86.442 462.513,86.442 Z M460.929,86.882 C451.468,92.583 445.558,102.817 445.558,114.07 C445.558,125.322 451.468,135.557 460.929,141.257 C462.381,142.132 464.267,141.664 465.142,140.212 C466.017,138.76 465.55,136.874 464.097,135.999 C456.462,131.398 451.698,123.148 451.698,114.07 C451.698,104.992 456.462,96.742 464.097,92.141 C465.55,91.266 466.017,89.379 465.142,87.927 C464.267,86.475 462.381,86.007 460.929,86.882 Z M490.461,135.999 C486.514,138.377 481.994,139.651 477.279,139.651 C472.565,139.651 468.044,138.377 464.097,135.999 C462.645,135.124 460.759,135.591 459.884,137.044 C459.009,138.496 459.477,140.382 460.929,141.257 C465.825,144.208 471.44,145.791 477.279,145.791 C483.118,145.791 488.733,144.208 493.629,141.257 C495.081,140.382 495.549,138.496 494.674,137.044 C493.799,135.591 491.913,135.124 490.461,135.999 Z M492.045,141.698 L501.837,141.698 C503.533,141.698 504.907,140.323 504.907,138.628 L504.907,128.836 C504.907,127.14 503.533,125.766 501.837,125.766 C500.142,125.766 498.767,127.14 498.767,128.836 L498.767,138.628 L501.837,135.558 L492.045,135.558 C490.35,135.558 488.975,136.933 488.975,138.628 C488.975,140.323 490.35,141.698 492.045,141.698 Z M493.629,141.257 C498.066,138.584 501.793,134.856 504.466,130.42 C505.342,128.968 504.874,127.082 503.422,126.206 C501.97,125.331 500.083,125.799 499.208,127.251 C497.051,130.831 494.041,133.841 490.461,135.999 C489.009,136.874 488.541,138.76 489.416,140.212 C490.291,141.664 492.177,142.132 493.629,141.257 Z M499.208,100.888 C501.586,104.835 502.86,109.355 502.86,114.07 C502.86,118.784 501.586,123.305 499.208,127.251 C498.333,128.704 498.801,130.59 500.253,131.465 C501.705,132.34 503.592,131.872 504.467,130.42 C507.417,125.523 509,119.909 509,114.07 C509,108.231 507.417,102.616 504.467,97.719 C503.592,96.267 501.705,95.799 500.253,96.674 C498.801,97.549 498.333,99.436 499.208,100.888 Z" />
            <path d="M447.605,79.279 L447.605,89.512 L450.674,86.442 L432.256,86.442 L435.326,89.512 L435.326,79.279 L432.256,82.349 L450.674,82.349 L447.605,79.279 Z M453.744,79.279 C453.744,77.584 452.37,76.209 450.674,76.209 L432.256,76.209 C430.56,76.209 429.186,77.584 429.186,79.279 L429.186,89.512 C429.186,91.207 430.56,92.581 432.256,92.581 L450.674,92.581 C452.37,92.581 453.744,91.207 453.744,89.512 L453.744,79.279 Z" />
            <path d="M433.279,105.884 L433.279,122.256 C433.279,123.951 434.653,125.326 436.349,125.326 C438.044,125.326 439.419,123.951 439.419,122.256 L439.419,105.884 C439.419,104.188 438.044,102.814 436.349,102.814 C434.653,102.814 433.279,104.188 433.279,105.884 Z" />
            <path d="M486.488,114.07 C486.488,119.156 482.365,123.279 477.279,123.279 C475.584,123.279 474.209,124.653 474.209,126.349 C474.209,128.044 475.584,129.419 477.279,129.419 C485.756,129.419 492.628,122.547 492.628,114.07 C492.628,112.374 491.254,111 489.558,111 C487.863,111 486.488,112.374 486.488,114.07 Z M468.07,114.07 C468.07,108.984 472.193,104.86 477.279,104.86 C478.974,104.86 480.349,103.486 480.349,101.791 C480.349,100.095 478.974,98.721 477.279,98.721 C468.802,98.721 461.93,105.593 461.93,114.07 C461.93,115.765 463.305,117.14 465,117.14 C466.695,117.14 468.07,115.765 468.07,114.07 Z" />
        </g>
        <g id="Black-S">
            <path d="M693.629,86.882 C688.733,83.932 683.118,82.349 677.279,82.349 C671.44,82.349 665.826,83.932 660.929,86.882 C659.477,87.757 659.009,89.644 659.884,91.096 C660.759,92.548 662.645,93.016 664.097,92.141 C668.044,89.763 672.565,88.488 677.279,88.488 C681.994,88.488 686.514,89.763 690.461,92.141 C691.913,93.016 693.799,92.548 694.674,91.096 C695.549,89.644 695.081,87.757 693.629,86.882 Z M692.045,92.581 L701.837,92.581 L698.767,89.512 L698.767,99.304 C698.767,100.999 700.142,102.374 701.837,102.374 C703.533,102.374 704.907,100.999 704.907,99.304 L704.907,89.512 C704.907,87.816 703.533,86.442 701.837,86.442 L692.045,86.442 C690.35,86.442 688.975,87.816 688.975,89.512 C688.975,91.207 690.35,92.581 692.045,92.581 Z M690.461,92.141 C694.041,94.298 697.051,97.308 699.208,100.888 C700.083,102.34 701.97,102.808 703.422,101.933 C704.874,101.058 705.342,99.171 704.466,97.719 C701.793,93.283 698.066,89.556 693.629,86.882 C692.177,86.007 690.291,86.475 689.416,87.927 C688.541,89.379 689.009,91.266 690.461,92.141 Z M662.513,86.442 L624.07,86.442 C622.374,86.442 621,87.816 621,89.512 L621,138.628 C621,140.323 622.374,141.698 624.07,141.698 L662.513,141.698 C664.208,141.698 665.583,140.323 665.583,138.628 C665.583,136.933 664.208,135.558 662.513,135.558 L624.07,135.558 L627.14,138.628 L627.14,89.512 L624.07,92.581 L662.513,92.581 C664.208,92.581 665.583,91.207 665.583,89.512 C665.583,87.816 664.208,86.442 662.513,86.442 Z M660.929,86.882 C651.468,92.583 645.558,102.817 645.558,114.07 C645.558,125.322 651.468,135.557 660.929,141.257 C662.381,142.132 664.267,141.664 665.142,140.212 C666.017,138.76 665.55,136.874 664.097,135.999 C656.462,131.398 651.698,123.148 651.698,114.07 C651.698,104.992 656.462,96.742 664.097,92.141 C665.55,91.266 666.017,89.379 665.142,87.927 C664.267,86.475 662.381,86.007 660.929,86.882 Z M690.461,135.999 C686.514,138.377 681.994,139.651 677.279,139.651 C672.565,139.651 668.044,138.377 664.097,135.999 C662.645,135.124 660.759,135.591 659.884,137.044 C659.009,138.496 659.477,140.382 660.929,141.257 C665.826,144.208 671.44,145.791 677.279,145.791 C683.118,145.791 688.733,144.208 693.629,141.257 C695.081,140.382 695.549,138.496 694.674,137.044 C693.799,135.591 691.913,135.124 690.461,135.999 Z M692.045,141.698 L701.837,141.698 C703.533,141.698 704.907,140.323 704.907,138.628 L704.907,128.836 C704.907,127.14 703.533,125.766 701.837,125.766 C700.142,125.766 698.767,127.14 698.767,128.836 L698.767,138.628 L701.837,135.558 L692.045,135.558 C690.35,135.558 688.975,136.933 688.975,138.628 C688.975,140.323 690.35,141.698 692.045,141.698 Z M693.629,141.257 C698.066,138.584 701.793,134.856 704.466,130.42 C705.342,128.968 704.874,127.082 703.422,126.206 C701.97,125.331 700.083,125.799 699.208,127.251 C697.051,130.831 694.041,133.841 690.461,135.999 C689.009,136.874 688.541,138.76 689.416,140.212 C690.291,141.664 692.177,142.132 693.629,141.257 Z M699.208,100.888 C701.586,104.835 702.86,109.355 702.86,114.07 C702.86,118.784 701.586,123.305 699.208,127.251 C698.333,128.704 698.801,130.59 700.253,131.465 C701.705,132.34 703.592,131.872 704.467,130.42 C707.417,125.523 709,119.909 709,114.07 C709,108.231 707.417,102.616 704.467,97.719 C703.592,96.267 701.705,95.799 700.253,96.674 C698.801,97.549 698.333,99.436 699.208,100.888 Z" />
            <path d="M647.605,79.279 L647.605,89.512 L650.674,86.442 L632.256,86.442 L635.326,89.512 L635.326,79.279 L632.256,82.349 L650.674,82.349 L647.605,79.279 Z M653.744,79.279 C653.744,77.584 652.37,76.209 650.674,76.209 L632.256,76.209 C630.56,76.209 629.186,77.584 629.186,79.279 L629.186,89.512 C629.186,91.207 630.56,92.581 632.256,92.581 L650.674,92.581 C652.37,92.581 653.744,91.207 653.744,89.512 L653.744,79.279 Z" />
            <path d="M633.279,105.884 L633.279,122.256 C633.279,123.951 634.653,125.326 636.349,125.326 C638.044,125.326 639.419,123.951 639.419,122.256 L639.419,105.884 C639.419,104.188 638.044,102.814 636.349,102.814 C634.653,102.814 633.279,104.188 633.279,105.884 Z" />
            <path d="M686.488,114.07 C686.488,119.156 682.365,123.279 677.279,123.279 C675.584,123.279 674.209,124.653 674.209,126.349 C674.209,128.044 675.584,129.419 677.279,129.419 C685.756,129.419 692.628,122.547 692.628,114.07 C692.628,112.374 691.254,111 689.558,111 C687.863,111 686.488,112.374 686.488,114.07 Z M668.07,114.07 C668.07,108.984 672.193,104.86 677.279,104.86 C678.974,104.86 680.349,103.486 680.349,101.791 C680.349,100.095 678.974,98.721 677.279,98.721 C668.802,98.721 661.93,105.593 661.93,114.07 C661.93,115.765 663.305,117.14 665,117.14 C666.695,117.14 668.07,115.765 668.07,114.07 Z" />
        </g>
    </g>
</svg>