<?xml version="1.0" encoding="UTF-8"?>
<svg height="600" width="800" xmlns="http://www.w3.org/2000/svg" xmlns:xlink="http://www.w3.org/1999/xlink">
    <g id="Notes" font-family="'LucidaGrande', 'Lucida Grande', sans-serif" font-size="13">
        <rect fill="white" height="600.0" width="800.0" x="0.0" y="0.0" />
        <g font-size="13">
            <text x="18.0" y="176.0">Small</text>
            <text x="18.0" y="376.0">Medium</text>
            <text x="18.0" y="576.0">Large</text>
        </g>
        <g font-size="9">
            <text x="250.0" y="30.0">Ultralight</text>
            <text x="450.0" y="30.0">Regular</text>
            <text x="650.0" y="30.0">Black</text>
            <text id="template-version" fill="#505050" text-anchor="end" x="785.0" y="575.0">Template v.3.0</text>
            <a href="https://github.com/swhitty/SwiftDraw">
                <text fill="#505050" text-anchor="end" x="785.0" y="590.0">https://github.com/swhitty/SwiftDraw</text>
            </a>
        </g>
    </g>
    <g id="Guides" stroke="rgb(39, 170, 225)" stroke-width="0.5">
        <path id="Capline-S" d="M18,76 l800,0" />
        <path id="H-reference" d="M85,145.755 L87.685,145.755 L113.369,79.287 L114.052,79.287 L114.052,76 L112.148,76 L85,145.755 Z M95.693,121.536 L130.996,121.536 L130.263,119.313 L96.474,119.313 L95.693,121.536 Z M139.15,145.755 L141.787,145.755 L114.638,76 L113.466,76 L113.466,79.287 L139.15,145.755 Z" stroke="none" />
        <path id="Baseline-S" d="M18,146 l800,0" />
        <path id="left-margin-Ultralight-S" d="M218.207,56 l0,110" />
        <path id="right-margin-Ultralight-S" d="M311.793,56 l0,110" />
        <path id="left-margin-Regular-S" d="M418.207,56 l0,110" />
        <path id="right-margin-Regular-S" d="M511.793,56 l0,110" />
        <path id="left-margin-Black-S" d="M618.207,56 l0,110" />
        <path id="right-margin-Black-S" d="M711.793,56 l0,110" />
        <path id="Capline-M" d="M18,276 l800,0" />
        <path id="Baseline-M" d="M18,346 l800,0" />
        <path id="Capline-L" d="M18,476 l800,0" />
        <path id="Baseline-L" d="M18,546 l800,0" />
    </g>
    <g id="Symbols">
        <g id="Ultralight-S">
            <path d="M291.018,106.842 C290.715,89.734 276.75,76 259.615,76 C242.269,76 228.207,90.062 228.207,107.408 C228.207,115.376 231.19,122.886 236.47,128.639 L235.797,126.377 L233.646,139.318 C233.297,141.418 235.409,143.073 237.365,142.233 L250.133,136.748 L248.221,136.829 C254.265,138.839 260.034,139.347 265.495,138.324 C266.956,138.05 267.919,136.643 267.645,135.182 C267.371,133.721 265.965,132.758 264.503,133.032 C259.979,133.879 255.129,133.452 249.92,131.72 C249.295,131.512 248.614,131.541 248.008,131.801 L235.24,137.286 L238.958,140.201 L241.109,127.26 C241.245,126.443 240.997,125.609 240.436,124.998 C236.06,120.229 233.591,114.015 233.591,107.408 C233.591,93.035 245.242,81.384 259.615,81.384 C273.812,81.384 285.383,92.764 285.634,106.937 C285.661,108.424 286.887,109.608 288.374,109.581 C289.86,109.555 291.044,108.328 291.018,106.842 Z" />
            <path d="M249.071,104.656 C251.301,104.656 253.109,102.835 253.109,100.588 C253.109,98.341 251.301,96.52 249.071,96.52 C246.841,96.52 245.033,98.341 245.033,100.588 C245.033,102.835 246.841,104.656 249.071,104.656 Z" />
            <path d="M265.223,104.656 C267.454,104.656 269.262,102.835 269.262,100.588 C269.262,98.341 267.454,96.52 265.223,96.52 C262.993,96.52 261.185,98.341 261.185,100.588 C261.185,102.835 262.993,104.656 265.223,104.656 Z" />
            <path d="M289.885,137.426 C287.121,139.483 283.777,140.61 280.254,140.61 C271.333,140.61 264.102,133.379 264.102,124.458 C264.102,115.537 271.333,108.305 280.254,108.305 C289.175,108.305 296.407,115.537 296.407,124.458 C296.407,126.872 295.879,129.206 294.874,131.337 C294.24,132.682 294.816,134.286 296.16,134.92 C297.505,135.554 299.109,134.978 299.743,133.634 C301.086,130.788 301.791,127.67 301.791,124.458 C301.791,112.563 292.149,102.921 280.254,102.921 C268.36,102.921 258.717,112.563 258.717,124.458 C258.717,136.352 268.36,145.995 280.254,145.995 C284.945,145.995 289.414,144.488 293.1,141.746 C294.292,140.858 294.54,139.172 293.652,137.979 C292.765,136.786 291.078,136.539 289.885,137.426 Z" />
            <path d="M294.653,132.925 L296.443,143.742 L300.281,140.884 L292.674,137.167 C291.338,136.515 289.726,137.068 289.074,138.404 C288.421,139.74 288.975,141.352 290.311,142.005 L297.917,145.721 C299.883,146.682 302.112,145.021 301.755,142.863 L299.965,132.046 C299.722,130.579 298.336,129.587 296.869,129.829 C295.402,130.072 294.41,131.458 294.653,132.925 Z" />
            <path d="M285.975,123.201 C284.302,123.201 282.946,121.835 282.946,120.15 C282.946,118.465 284.302,117.099 285.975,117.099 C287.648,117.099 289.004,118.465 289.004,120.15 C289.004,121.835 287.648,123.201 285.975,123.201 Z" />
            <path d="M273.861,123.201 C272.188,123.201 270.832,121.835 270.832,120.15 C270.832,118.465 272.188,117.099 273.861,117.099 C275.533,117.099 276.889,118.465 276.889,120.15 C276.889,121.835 275.533,123.201 273.861,123.201 Z" />
        </g>
        <g id="Regular-S">
            <path d="M491.018,106.842 C490.715,89.734 476.75,76 459.615,76 C442.269,76 428.207,90.062 428.207,107.408 C428.207,115.376 431.19,122.886 436.47,128.639 L435.797,126.377 L433.646,139.318 C433.297,141.418 435.409,143.073 437.365,142.233 L450.133,136.748 L448.221,136.829 C454.265,138.839 460.034,139.347 465.495,138.324 C466.956,138.05 467.919,136.643 467.645,135.182 C467.371,133.721 465.965,132.758 464.503,133.032 C459.979,133.879 455.129,133.452 449.92,131.72 C449.295,131.512 448.614,131.541 448.008,131.801 L435.24,137.286 L438.958,140.201 L441.109,127.26 C441.245,126.443 440.997,125.609 440.436,124.998 C436.06,120.229 433.591,114.015 433.591,107.408 C433.591,93.035 445.242,81.384 459.615,81.384 C473.812,81.384 485.383,92.764 485.634,106.937 C485.661,108.424 486.887,109.608 488.374,109.581 C489.86,109.555 491.044,108.328 491.018,106.842 Z" />
            <path d="M449.071,104.656 C451.301,104.656 453.109,102.835 453.109,100.588 C453.109,98.341 451.301,96.52 449.071,96.52 C446.841,96.52 445.033,98.341 445.033,100.588 C445.033,102.835 446.841,104.656 449.071,104.656 Z" />
            <path d="M465.223,104.656 C467.454,104.656 469.262,102.835 469.262,100.588 C469.262,98.341 467.454,96.52 465.223,96.52 C462.993,96.52 461.185,98.341 461.185,100.588 C461.185,102.835 462.993,104.656 465.223,104.656 Z" />
            <path d="M489.885,137.426 C487.121,139.483 483.777,140.61 480.254,140.61 C471.333,140.61 464.102,133.379 464.102,124.458 C464.102,115.537 471.333,108.305 480.254,108.305 C489.175,108.305 496.407,115.537 496.407,124.458 C496.407,126.872 495.879,129.206 494.874,131.337 C494.24,132.682 494.816,134.286 496.16,134.92 C497.505,135.554 499.109,134.978 499.743,133.634 C501.086,130.788 501.791,127.67 501.791,124.458 C501.791,112.563 492.149,102.921 480.254,102.921 C468.36,102.921 458.717,112.563 458.717,124.458 C458.717,136.352 468.36,145.995 480.254,145.995 C484.945,145.995 489.414,144.488 493.1,141.746 C494.292,140.858 494.54,139.172 493.652,137.979 C492.765,136.786 491.078,136.539 489.885,137.426 Z" />
            <path d="M494.653,132.925 L496.443,143.742 L500.281,140.884 L492.674,137.167 C491.338,136.515 489.726,137.068 489.074,138.404 C488.421,139.74 488.975,141.352 490.311,142.005 L497.917,145.721 C499.883,146.682 502.112,145.021 501.755,142.863 L499.965,132.046 C499.722,130.579 498.336,129.587 496.869,129.829 C495.402,130.072 494.41,131.458 494.653,132.925 Z" />
            <path d="M485.975,123.201 C484.302,123.201 482.946,121.835 482.946,120.15 C482.946,118.465 484.302,117.099 485.975,117.099 C487.648,117.099 489.004,118.465 489.004,120.15 C489.004,121.835 487.648,123.201 485.975,123.201 Z" />
            <path d="M473.861,123.201 C472.188,123.201 470.832,121.835 470.832,120.15 C470.832,118.465 472.188,117.099 473.861,117.099 C475.533,117.099 476.889,118.465 476.889,120.15 C476.889,121.835 475.533,123.201 473.861,123.201 Z" />
        </g>
        <g id="Black-S">
            <path d="M691.018,106.842 C690.715,89.734 676.75,76 659.615,76 C642.269,76 628.207,90.062 628.207,107.408 C628.207,115.376 631.19,122.886 636.47,128.639 L635.797,126.377 L633.646,139.318 C633.297,141.418 635.409,143.073 637.365,142.233 L650.133,136.748 L648.221,136.829 C654.265,138.839 660.034,139.347 665.495,138.324 C666.956,138.05 667.919,136.643 667.645,135.182 C667.371,133.721 665.965,132.758 664.503,133.032 C659.979,133.879 655.129,133.452 649.92,131.72 C649.295,131.512 648.614,131.541 648.008,131.801 L635.24,137.286 L638.958,140.201 L641.109,127.26 C641.245,126.443 640.997,125.609 640.436,124.998 C636.06,120.229 633.591,114.015 633.591,107.408 C633.591,93.035 645.242,81.384 659.615,81.384 C673.812,81.384 685.383,92.764 685.634,106.937 C685.661,108.424 686.887,109.608 688.374,109.581 C689.86,109.555 691.044,108.328 691.018,106.842 Z" />
            <path d="M649.071,104.656 C651.301,104.656 653.109,102.835 653.109,100.588 C653.109,98.341 651.301,96.52 649.071,96.52 C646.841,96.52 645.033,98.341 645.033,100.588 C645.033,102.835 646.841,104.656 649.071,104.656 Z" />
            <path d="M665.223,104.656 C667.454,104.656 669.262,102.835 669.262,100.588 C669.262,98.341 667.454,96.52 665.223,96.52 C662.993,96.52 661.185,98.341 661.185,100.588 C661.185,102.835 662.993,104.656 665.223,104.656 Z" />
            <path d="M689.885,137.426 C687.121,139.483 683.777,140.61 680.254,140.61 C671.333,140.61 664.102,133.379 664.102,124.458 C664.102,115.537 671.333,108.305 680.254,108.305 C689.175,108.305 696.407,115.537 696.407,124.458 C696.407,126.872 695.879,129.206 694.874,131.337 C694.24,132.682 694.816,134.286 696.16,134.92 C697.505,135.554 699.109,134.978 699.744,133.634 C701.086,130.788 701.791,127.67 701.791,124.458 C701.791,112.563 692.149,102.921 680.254,102.921 C668.36,102.921 658.718,112.563 658.718,124.458 C658.718,136.352 668.36,145.995 680.254,145.995 C684.945,145.995 689.414,144.488 693.1,141.746 C694.292,140.858 694.54,139.172 693.652,137.979 C692.765,136.786 691.078,136.539 689.885,137.426 Z" />
            <path d="M694.653,132.925 L696.443,143.742 L700.281,140.884 L692.674,137.167 C691.339,136.515 689.726,137.068 689.074,138.404 C688.421,139.74 688.975,141.352 690.311,142.005 L697.917,145.721 C699.883,146.682 702.112,145.021 701.755,142.863 L699.965,132.046 C699.722,130.579 698.336,129.587 696.869,129.829 C695.402,130.072 694.41,131.458 694.653,132.925 Z" />
            <path d="M685.975,123.201 C684.302,123.201 682.946,121.835 682.946,120.15 C682.946,118.465 684.302,117.099 685.975,117.099 C687.648,117.099 689.004,118.465 689.004,120.15 C689.004,121.835 687.648,123.201 685.975,123.201 Z" />
            <path d="M673.861,123.201 C672.188,123.201 670.832,121.835 670.832,120.15 C670.832,118.465 672.188,117.099 673.861,117.099 C675.533,117.099 676.889,118.465 676.889,120.15 C676.889,121.835 675.533,123.201 673.861,123.201 Z" />
        </g>
    </g>
</svg>