<?xml version="1.0" encoding="UTF-8"?>
<svg height="600" width="800" xmlns="http://www.w3.org/2000/svg" xmlns:xlink="http://www.w3.org/1999/xlink">
    <g id="Notes" font-family="'LucidaGrande', 'Lucida Grande', sans-serif" font-size="13">
        <rect fill="white" height="600.0" width="800.0" x="0.0" y="0.0" />
        <g font-size="13">
            <text x="18.0" y="176.0">Small</text>
            <text x="18.0" y="376.0">Medium</text>
            <text x="18.0" y="576.0">Large</text>
        </g>
        <g font-size="9">
            <text x="250.0" y="30.0">Ultralight</text>
            <text x="450.0" y="30.0">Regular</text>
            <text x="650.0" y="30.0">Black</text>
            <text id="template-version" fill="#505050" text-anchor="end" x="785.0" y="575.0">Template v.3.0</text>
            <a href="https://github.com/swhitty/SwiftDraw">
                <text fill="#505050" text-anchor="end" x="785.0" y="590.0">https://github.com/swhitty/SwiftDraw</text>
            </a>
        </g>
    </g>
    <g id="Guides" stroke="rgb(39, 170, 225)" stroke-width="0.5">
        <path id="Capline-S" d="M18,76 l800,0" />
        <path id="H-reference" d="M85,145.755 L87.685,145.755 L113.369,79.287 L114.052,79.287 L114.052,76 L112.148,76 L85,145.755 Z M95.693,121.536 L130.996,121.536 L130.263,119.313 L96.474,119.313 L95.693,121.536 Z M139.15,145.755 L141.787,145.755 L114.638,76 L113.466,76 L113.466,79.287 L139.15,145.755 Z" stroke="none" />
        <path id="Baseline-S" d="M18,146 l800,0" />
        <path id="left-margin-Ultralight-S" d="M220,56 l0,110" />
        <path id="right-margin-Ultralight-S" d="M310,56 l0,110" />
        <path id="left-margin-Regular-S" d="M420,56 l0,110" />
        <path id="right-margin-Regular-S" d="M510,56 l0,110" />
        <path id="left-margin-Black-S" d="M620,56 l0,110" />
        <path id="right-margin-Black-S" d="M710,56 l0,110" />
        <path id="Capline-M" d="M18,276 l800,0" />
        <path id="Baseline-M" d="M18,346 l800,0" />
        <path id="Capline-L" d="M18,476 l800,0" />
        <path id="Baseline-L" d="M18,546 l800,0" />
    </g>
    <g id="Symbols">
        <g id="Ultralight-S">
            <path d="M265,146 C284.33,146 300,130.33 300,111 C300,91.67 284.33,76 265,76 C245.67,76 230,91.67 230,111 C230,116.016 232.106,119.079 236.511,121.658 C237.78,122.4 239.062,122.81 241.466,123.385 C240.868,123.241 242.741,123.687 243.14,123.785 C243.757,123.938 244.274,124.076 244.761,124.222 C246.752,124.816 248.201,125.532 249.348,126.561 C250.566,127.653 251.448,129.117 252.11,131.011 C252.395,131.825 252.633,132.698 252.866,133.735 C252.999,134.326 253.386,136.232 253.418,136.381 C253.543,136.965 253.654,137.424 253.776,137.843 C255.062,142.246 259.802,146 265,146 Z M265,140.706 C262.214,140.706 259.5,138.556 258.858,136.359 C258.778,136.086 258.695,135.741 258.595,135.273 C258.573,135.172 258.179,133.231 258.031,132.575 C257.757,131.354 257.468,130.294 257.108,129.264 C256.173,126.589 254.837,124.373 252.884,122.62 C251.071,120.994 248.952,119.948 246.276,119.149 C245.699,118.976 245.103,118.817 244.411,118.646 C243.985,118.541 242.066,118.085 242.697,118.235 C240.796,117.781 239.855,117.48 239.185,117.089 C236.284,115.391 235.294,113.95 235.294,111 C235.294,94.594 248.594,81.294 265,81.294 C281.406,81.294 294.706,94.594 294.706,111 C294.706,127.406 281.406,140.706 265,140.706 Z" />
            <path d="M254.657,100.359 C253.567,103.007 253.033,106.06 253.033,109.505 C253.033,112.659 253.367,115.781 254.037,118.871 C254.977,123.21 259.257,125.965 263.596,125.025 C263.753,124.991 263.909,124.952 264.063,124.909 C267.467,123.954 270.456,122.693 273.03,121.118 C275.444,119.639 277.683,117.781 279.747,115.55 C282.761,112.29 282.562,107.204 279.303,104.19 C279.209,104.103 279.114,104.019 279.017,103.938 C276.682,101.975 274.235,100.21 271.677,98.644 C268.823,96.896 265.977,95.823 263.143,95.449 C259.528,94.972 256.045,96.987 254.657,100.359 Z M259.553,102.374 C260.027,101.223 261.216,100.535 262.45,100.698 C264.51,100.969 266.663,101.781 268.913,103.159 C271.244,104.586 273.476,106.196 275.611,107.991 C275.645,108.019 275.677,108.048 275.709,108.077 C276.821,109.106 276.889,110.843 275.86,111.956 C274.12,113.837 272.256,115.384 270.265,116.602 C268.128,117.911 265.586,118.983 262.635,119.811 C262.583,119.826 262.528,119.839 262.474,119.851 C260.994,120.172 259.532,119.231 259.211,117.749 C258.621,115.028 258.327,112.281 258.327,109.505 C258.327,106.716 258.742,104.343 259.553,102.374 Z" />
        </g>
        <g id="Regular-S">
            <path d="M465,146 C484.33,146 500,130.33 500,111 C500,91.67 484.33,76 465,76 C445.67,76 430,91.67 430,111 C430,116.016 432.106,119.079 436.511,121.658 C437.78,122.4 439.062,122.81 441.466,123.385 C440.868,123.241 442.741,123.687 443.14,123.785 C443.757,123.938 444.274,124.076 444.761,124.222 C446.752,124.816 448.201,125.532 449.348,126.561 C450.566,127.653 451.448,129.117 452.11,131.011 C452.395,131.825 452.633,132.698 452.866,133.735 C452.999,134.326 453.386,136.232 453.418,136.381 C453.543,136.965 453.654,137.424 453.776,137.843 C455.062,142.246 459.802,146 465,146 Z M465,140.706 C462.214,140.706 459.5,138.556 458.858,136.359 C458.778,136.086 458.695,135.741 458.595,135.273 C458.573,135.172 458.179,133.231 458.031,132.575 C457.757,131.354 457.468,130.294 457.108,129.264 C456.173,126.589 454.837,124.373 452.884,122.62 C451.071,120.994 448.952,119.948 446.276,119.149 C445.699,118.976 445.103,118.817 444.411,118.646 C443.985,118.541 442.066,118.085 442.697,118.235 C440.796,117.781 439.855,117.48 439.185,117.089 C436.284,115.391 435.294,113.95 435.294,111 C435.294,94.594 448.594,81.294 465,81.294 C481.406,81.294 494.706,94.594 494.706,111 C494.706,127.406 481.406,140.706 465,140.706 Z" />
            <path d="M454.657,100.359 C453.567,103.007 453.033,106.06 453.033,109.505 C453.033,112.659 453.367,115.781 454.037,118.871 C454.977,123.21 459.257,125.965 463.596,125.025 C463.753,124.991 463.909,124.952 464.063,124.909 C467.467,123.954 470.456,122.693 473.03,121.118 C475.444,119.639 477.683,117.781 479.747,115.55 C482.761,112.29 482.562,107.204 479.303,104.19 C479.209,104.103 479.114,104.019 479.017,103.938 C476.682,101.975 474.235,100.21 471.677,98.644 C468.823,96.896 465.977,95.823 463.143,95.449 C459.528,94.972 456.045,96.987 454.657,100.359 Z M459.553,102.374 C460.027,101.223 461.216,100.535 462.45,100.698 C464.51,100.969 466.663,101.781 468.913,103.159 C471.244,104.586 473.476,106.196 475.611,107.991 C475.645,108.019 475.677,108.048 475.709,108.077 C476.821,109.106 476.889,110.843 475.86,111.956 C474.12,113.837 472.256,115.384 470.265,116.602 C468.128,117.911 465.586,118.983 462.635,119.811 C462.583,119.826 462.528,119.839 462.474,119.851 C460.994,120.172 459.532,119.231 459.211,117.749 C458.621,115.028 458.327,112.281 458.327,109.505 C458.327,106.716 458.742,104.343 459.553,102.374 Z" />
        </g>
        <g id="Black-S">
            <path d="M665,146 C684.33,146 700,130.33 700,111 C700,91.67 684.33,76 665,76 C645.67,76 630,91.67 630,111 C630,116.016 632.106,119.079 636.511,121.658 C637.78,122.4 639.062,122.81 641.466,123.385 C640.868,123.241 642.741,123.687 643.14,123.785 C643.757,123.938 644.274,124.076 644.761,124.222 C646.752,124.816 648.201,125.532 649.348,126.561 C650.566,127.653 651.448,129.117 652.11,131.011 C652.395,131.825 652.633,132.698 652.866,133.735 C652.999,134.326 653.386,136.232 653.418,136.381 C653.543,136.965 653.654,137.424 653.776,137.843 C655.062,142.246 659.802,146 665,146 Z M665,140.706 C662.214,140.706 659.5,138.556 658.858,136.359 C658.778,136.086 658.695,135.741 658.595,135.273 C658.573,135.172 658.179,133.231 658.031,132.575 C657.757,131.354 657.468,130.294 657.108,129.264 C656.173,126.589 654.837,124.373 652.884,122.62 C651.071,120.994 648.952,119.948 646.276,119.149 C645.699,118.976 645.103,118.817 644.411,118.646 C643.985,118.541 642.067,118.085 642.697,118.235 C640.796,117.781 639.855,117.48 639.185,117.089 C636.284,115.391 635.294,113.95 635.294,111 C635.294,94.594 648.594,81.294 665,81.294 C681.406,81.294 694.706,94.594 694.706,111 C694.706,127.406 681.406,140.706 665,140.706 Z" />
            <path d="M654.657,100.359 C653.567,103.007 653.033,106.06 653.033,109.505 C653.033,112.659 653.367,115.781 654.037,118.871 C654.977,123.21 659.257,125.965 663.596,125.025 C663.753,124.991 663.909,124.952 664.063,124.909 C667.467,123.954 670.456,122.693 673.03,121.118 C675.444,119.639 677.683,117.781 679.747,115.55 C682.761,112.29 682.562,107.204 679.303,104.19 C679.209,104.103 679.114,104.019 679.017,103.938 C676.682,101.975 674.235,100.21 671.677,98.644 C668.823,96.896 665.977,95.823 663.143,95.449 C659.528,94.972 656.045,96.987 654.657,100.359 Z M659.553,102.374 C660.027,101.223 661.216,100.535 662.45,100.698 C664.51,100.969 666.663,101.781 668.913,103.159 C671.244,104.586 673.476,106.196 675.611,107.991 C675.645,108.019 675.677,108.048 675.709,108.077 C676.821,109.106 676.889,110.843 675.86,111.956 C674.12,113.837 672.256,115.384 670.265,116.602 C668.128,117.911 665.586,118.983 662.635,119.811 C662.583,119.826 662.528,119.839 662.474,119.851 C660.994,120.172 659.532,119.231 659.211,117.749 C658.621,115.028 658.327,112.281 658.327,109.505 C658.327,106.716 658.742,104.343 659.553,102.374 Z" />
        </g>
    </g>
</svg>