<?xml version="1.0" encoding="UTF-8"?>
<svg height="600" width="800" xmlns="http://www.w3.org/2000/svg" xmlns:xlink="http://www.w3.org/1999/xlink">
    <g id="Notes" font-family="'LucidaGrande', 'Lucida Grande', sans-serif" font-size="13">
        <rect fill="white" height="600.0" width="800.0" x="0.0" y="0.0" />
        <g font-size="13">
            <text x="18.0" y="176.0">Small</text>
            <text x="18.0" y="376.0">Medium</text>
            <text x="18.0" y="576.0">Large</text>
        </g>
        <g font-size="9">
            <text x="250.0" y="30.0">Ultralight</text>
            <text x="450.0" y="30.0">Regular</text>
            <text x="650.0" y="30.0">Black</text>
            <text id="template-version" fill="#505050" text-anchor="end" x="785.0" y="575.0">Template v.3.0</text>
            <a href="https://github.com/swhitty/SwiftDraw">
                <text fill="#505050" text-anchor="end" x="785.0" y="590.0">https://github.com/swhitty/SwiftDraw</text>
            </a>
        </g>
    </g>
    <g id="Guides" stroke="rgb(39, 170, 225)" stroke-width="0.5">
        <path id="Capline-S" d="M18,76 l800,0" />
        <path id="H-reference" d="M85,145.755 L87.685,145.755 L113.369,79.287 L114.052,79.287 L114.052,76 L112.148,76 L85,145.755 Z M95.693,121.536 L130.996,121.536 L130.263,119.313 L96.474,119.313 L95.693,121.536 Z M139.15,145.755 L141.787,145.755 L114.638,76 L113.466,76 L113.466,79.287 L139.15,145.755 Z" stroke="none" />
        <path id="Baseline-S" d="M18,146 l800,0" />
        <path id="left-margin-Ultralight-S" d="M220,56 l0,110" />
        <path id="right-margin-Ultralight-S" d="M310,56 l0,110" />
        <path id="left-margin-Regular-S" d="M420,56 l0,110" />
        <path id="right-margin-Regular-S" d="M510,56 l0,110" />
        <path id="left-margin-Black-S" d="M620,56 l0,110" />
        <path id="right-margin-Black-S" d="M710,56 l0,110" />
        <path id="Capline-M" d="M18,276 l800,0" />
        <path id="Baseline-M" d="M18,346 l800,0" />
        <path id="Capline-L" d="M18,476 l800,0" />
        <path id="Baseline-L" d="M18,546 l800,0" />
    </g>
    <g id="Symbols">
        <g id="Ultralight-S">
            <path d="M294.878,120.39 L294.878,140.024 C294.878,140.251 294.788,140.468 294.628,140.628 C294.468,140.788 294.251,140.878 294.024,140.878 L254.756,140.878 C254.53,140.878 254.313,140.788 254.152,140.628 C253.992,140.468 253.902,140.251 253.902,140.024 L253.902,100.756 C253.902,100.53 253.992,100.313 254.152,100.152 C254.313,99.992 254.53,99.902 254.756,99.902 L294.024,99.902 C294.251,99.902 294.468,99.992 294.628,100.152 C294.788,100.313 294.878,100.53 294.878,100.756 L294.878,120.39 Z M300,120.39 L300,100.756 C300,99.171 299.37,97.651 298.25,96.531 C297.129,95.41 295.609,94.78 294.024,94.78 L254.756,94.78 C253.171,94.78 251.651,95.41 250.531,96.531 C249.41,97.651 248.78,99.171 248.78,100.756 L248.78,140.024 C248.78,141.609 249.41,143.129 250.531,144.25 C251.651,145.37 253.171,146 254.756,146 L294.024,146 C295.609,146 297.129,145.37 298.25,144.25 C299.37,143.129 300,141.609 300,140.024 L300,120.39 Z" />
            <path d="M276.098,101.61 L276.098,121.244 C276.098,121.47 276.008,121.687 275.848,121.848 C275.687,122.008 275.47,122.098 275.244,122.098 L235.976,122.098 C235.749,122.098 235.532,122.008 235.372,121.848 C235.212,121.687 235.122,121.47 235.122,121.244 L235.122,81.976 C235.122,81.749 235.212,81.532 235.372,81.372 C235.532,81.212 235.749,81.122 235.976,81.122 L275.244,81.122 C275.47,81.122 275.687,81.212 275.848,81.372 C276.008,81.532 276.098,81.749 276.098,81.976 L276.098,101.61 Z M281.22,101.61 L281.22,81.976 C281.22,80.391 280.59,78.871 279.469,77.75 C278.349,76.63 276.829,76 275.244,76 L235.976,76 C234.391,76 232.871,76.63 231.75,77.75 C230.63,78.871 230,80.391 230,81.976 L230,121.244 C230,122.829 230.63,124.349 231.75,125.469 C232.871,126.59 234.391,127.22 235.976,127.22 L275.244,127.22 C276.829,127.22 278.349,126.59 279.469,125.469 C280.59,124.349 281.22,122.829 281.22,121.244 L281.22,101.61 Z" />
            <path d="M268.311,95.531 L249.531,114.311 C248.53,115.311 248.53,116.933 249.531,117.933 C250.531,118.933 252.152,118.933 253.152,117.933 L271.933,99.152 C272.933,98.152 272.933,96.531 271.933,95.531 C270.933,94.53 269.311,94.53 268.311,95.531 Z" />
            <path d="M276.848,104.067 L258.067,122.848 C257.067,123.848 257.067,125.469 258.067,126.469 C259.067,127.47 260.689,127.47 261.689,126.469 L280.469,107.689 C281.47,106.689 281.47,105.067 280.469,104.067 C279.469,103.067 277.848,103.067 276.848,104.067 Z" />
        </g>
        <g id="Regular-S">
            <path d="M494.878,120.39 L494.878,140.024 C494.878,140.251 494.788,140.468 494.628,140.628 C494.468,140.788 494.251,140.878 494.024,140.878 L454.756,140.878 C454.53,140.878 454.313,140.788 454.152,140.628 C453.992,140.468 453.902,140.251 453.902,140.024 L453.902,100.756 C453.902,100.53 453.992,100.313 454.152,100.152 C454.313,99.992 454.53,99.902 454.756,99.902 L494.024,99.902 C494.251,99.902 494.468,99.992 494.628,100.152 C494.788,100.313 494.878,100.53 494.878,100.756 L494.878,120.39 Z M500,120.39 L500,100.756 C500,99.171 499.37,97.651 498.25,96.531 C497.129,95.41 495.609,94.78 494.024,94.78 L454.756,94.78 C453.171,94.78 451.651,95.41 450.531,96.531 C449.41,97.651 448.78,99.171 448.78,100.756 L448.78,140.024 C448.78,141.609 449.41,143.129 450.531,144.25 C451.651,145.37 453.171,146 454.756,146 L494.024,146 C495.609,146 497.129,145.37 498.25,144.25 C499.37,143.129 500,141.609 500,140.024 L500,120.39 Z" />
            <path d="M476.098,101.61 L476.098,121.244 C476.098,121.47 476.008,121.687 475.848,121.848 C475.687,122.008 475.47,122.098 475.244,122.098 L435.976,122.098 C435.749,122.098 435.532,122.008 435.372,121.848 C435.212,121.687 435.122,121.47 435.122,121.244 L435.122,81.976 C435.122,81.749 435.212,81.532 435.372,81.372 C435.532,81.212 435.749,81.122 435.976,81.122 L475.244,81.122 C475.47,81.122 475.687,81.212 475.848,81.372 C476.008,81.532 476.098,81.749 476.098,81.976 L476.098,101.61 Z M481.22,101.61 L481.22,81.976 C481.22,80.391 480.59,78.871 479.469,77.75 C478.349,76.63 476.829,76 475.244,76 L435.976,76 C434.391,76 432.871,76.63 431.75,77.75 C430.63,78.871 430,80.391 430,81.976 L430,121.244 C430,122.829 430.63,124.349 431.75,125.469 C432.871,126.59 434.391,127.22 435.976,127.22 L475.244,127.22 C476.829,127.22 478.349,126.59 479.469,125.469 C480.59,124.349 481.22,122.829 481.22,121.244 L481.22,101.61 Z" />
            <path d="M468.311,95.531 L449.531,114.311 C448.53,115.311 448.53,116.933 449.531,117.933 C450.531,118.933 452.152,118.933 453.152,117.933 L471.933,99.152 C472.933,98.152 472.933,96.531 471.933,95.531 C470.933,94.53 469.311,94.53 468.311,95.531 Z" />
            <path d="M476.848,104.067 L458.067,122.848 C457.067,123.848 457.067,125.469 458.067,126.469 C459.067,127.47 460.689,127.47 461.689,126.469 L480.469,107.689 C481.47,106.689 481.47,105.067 480.469,104.067 C479.469,103.067 477.848,103.067 476.848,104.067 Z" />
        </g>
        <g id="Black-S">
            <path d="M694.878,120.39 L694.878,140.024 C694.878,140.251 694.788,140.468 694.628,140.628 C694.468,140.788 694.251,140.878 694.024,140.878 L654.756,140.878 C654.53,140.878 654.313,140.788 654.152,140.628 C653.992,140.468 653.902,140.251 653.902,140.024 L653.902,100.756 C653.902,100.53 653.992,100.313 654.152,100.152 C654.313,99.992 654.53,99.902 654.756,99.902 L694.024,99.902 C694.251,99.902 694.468,99.992 694.628,100.152 C694.788,100.313 694.878,100.53 694.878,100.756 L694.878,120.39 Z M700,120.39 L700,100.756 C700,99.171 699.37,97.651 698.25,96.531 C697.129,95.41 695.609,94.78 694.024,94.78 L654.756,94.78 C653.171,94.78 651.651,95.41 650.531,96.531 C649.41,97.651 648.781,99.171 648.781,100.756 L648.781,140.024 C648.781,141.609 649.41,143.129 650.531,144.25 C651.651,145.37 653.171,146 654.756,146 L694.024,146 C695.609,146 697.129,145.37 698.25,144.25 C699.37,143.129 700,141.609 700,140.024 L700,120.39 Z" />
            <path d="M676.098,101.61 L676.098,121.244 C676.098,121.47 676.008,121.687 675.848,121.848 C675.687,122.008 675.47,122.098 675.244,122.098 L635.976,122.098 C635.749,122.098 635.532,122.008 635.372,121.848 C635.212,121.687 635.122,121.47 635.122,121.244 L635.122,81.976 C635.122,81.749 635.212,81.532 635.372,81.372 C635.532,81.212 635.749,81.122 635.976,81.122 L675.244,81.122 C675.47,81.122 675.687,81.212 675.848,81.372 C676.008,81.532 676.098,81.749 676.098,81.976 L676.098,101.61 Z M681.22,101.61 L681.22,81.976 C681.22,80.391 680.59,78.871 679.469,77.75 C678.349,76.63 676.829,76 675.244,76 L635.976,76 C634.391,76 632.871,76.63 631.75,77.75 C630.63,78.871 630,80.391 630,81.976 L630,121.244 C630,122.829 630.63,124.349 631.75,125.469 C632.871,126.59 634.391,127.22 635.976,127.22 L675.244,127.22 C676.829,127.22 678.349,126.59 679.469,125.469 C680.59,124.349 681.22,122.829 681.22,121.244 L681.22,101.61 Z" />
            <path d="M668.311,95.531 L649.531,114.311 C648.53,115.311 648.53,116.933 649.531,117.933 C650.531,118.933 652.152,118.933 653.152,117.933 L671.933,99.152 C672.933,98.152 672.933,96.531 671.933,95.531 C670.933,94.53 669.311,94.53 668.311,95.531 Z" />
            <path d="M676.848,104.067 L658.067,122.848 C657.067,123.848 657.067,125.469 658.067,126.469 C659.067,127.47 660.689,127.47 661.689,126.469 L680.469,107.689 C681.47,106.689 681.47,105.067 680.469,104.067 C679.469,103.067 677.848,103.067 676.848,104.067 Z" />
        </g>
    </g>
</svg>