<?xml version="1.0" encoding="UTF-8"?>
<svg height="600" width="800" xmlns="http://www.w3.org/2000/svg" xmlns:xlink="http://www.w3.org/1999/xlink">
    <g id="Notes" font-family="'LucidaGrande', 'Lucida Grande', sans-serif" font-size="13">
        <rect fill="white" height="600.0" width="800.0" x="0.0" y="0.0" />
        <g font-size="13">
            <text x="18.0" y="176.0">Small</text>
            <text x="18.0" y="376.0">Medium</text>
            <text x="18.0" y="576.0">Large</text>
        </g>
        <g font-size="9">
            <text x="250.0" y="30.0">Ultralight</text>
            <text x="450.0" y="30.0">Regular</text>
            <text x="650.0" y="30.0">Black</text>
            <text id="template-version" fill="#505050" text-anchor="end" x="785.0" y="575.0">Template v.3.0</text>
            <a href="https://github.com/swhitty/SwiftDraw">
                <text fill="#505050" text-anchor="end" x="785.0" y="590.0">https://github.com/swhitty/SwiftDraw</text>
            </a>
        </g>
    </g>
    <g id="Guides" stroke="rgb(39, 170, 225)" stroke-width="0.5">
        <path id="Capline-S" d="M18,76 l800,0" />
        <path id="H-reference" d="M85,145.755 L87.685,145.755 L113.369,79.287 L114.052,79.287 L114.052,76 L112.148,76 L85,145.755 Z M95.693,121.536 L130.996,121.536 L130.263,119.313 L96.474,119.313 L95.693,121.536 Z M139.15,145.755 L141.787,145.755 L114.638,76 L113.466,76 L113.466,79.287 L139.15,145.755 Z" stroke="none" />
        <path id="Baseline-S" d="M18,146 l800,0" />
        <path id="left-margin-Ultralight-S" d="M221,56 l0,110" />
        <path id="right-margin-Ultralight-S" d="M309,56 l0,110" />
        <path id="left-margin-Regular-S" d="M421,56 l0,110" />
        <path id="right-margin-Regular-S" d="M509,56 l0,110" />
        <path id="left-margin-Black-S" d="M621,56 l0,110" />
        <path id="right-margin-Black-S" d="M709,56 l0,110" />
        <path id="Capline-M" d="M18,276 l800,0" />
        <path id="Baseline-M" d="M18,346 l800,0" />
        <path id="Capline-L" d="M18,476 l800,0" />
        <path id="Baseline-L" d="M18,546 l800,0" />
    </g>
    <g id="Symbols">
        <g id="Ultralight-S">
            <path d="M262.5,78.5 L262.5,110.167 L263.424,108.226 L236.757,129.893 C235.685,130.764 235.522,132.338 236.393,133.41 C237.264,134.481 238.838,134.644 239.91,133.774 L266.576,112.107 L267.5,111.357 L267.5,110.167 L267.5,78.5 C267.5,77.119 266.381,76 265,76 C263.619,76 262.5,77.119 262.5,78.5 Z" />
            <path d="M263.424,112.107 L290.09,133.774 C291.162,134.644 292.736,134.481 293.607,133.41 C294.478,132.338 294.315,130.764 293.243,129.893 L266.576,108.226 C265.505,107.356 263.93,107.519 263.06,108.59 C262.189,109.662 262.352,111.236 263.424,112.107 Z" />
            <path d="M278.053,107.247 L293.053,97.247 C294.202,96.481 294.513,94.929 293.747,93.78 C292.981,92.631 291.429,92.321 290.28,93.087 L275.28,103.087 C274.131,103.852 273.821,105.405 274.587,106.553 C275.352,107.702 276.905,108.013 278.053,107.247 Z" />
            <path d="M254.72,103.087 L239.72,93.087 C238.571,92.321 237.019,92.631 236.253,93.78 C235.487,94.929 235.798,96.481 236.947,97.247 L251.947,107.247 C253.095,108.013 254.648,107.702 255.413,106.553 C256.179,105.405 255.869,103.852 254.72,103.087 Z" />
            <path d="M262.5,123.5 L262.5,143.5 C262.5,144.881 263.619,146 265,146 C266.381,146 267.5,144.881 267.5,143.5 L267.5,123.5 C267.5,122.119 266.381,121 265,121 C263.619,121 262.5,122.119 262.5,123.5 Z" />
        </g>
        <g id="Regular-S">
            <path d="M462.5,78.5 L462.5,110.167 L463.424,108.226 L436.757,129.893 C435.685,130.764 435.522,132.338 436.393,133.41 C437.264,134.481 438.838,134.644 439.91,133.774 L466.576,112.107 L467.5,111.357 L467.5,110.167 L467.5,78.5 C467.5,77.119 466.381,76 465,76 C463.619,76 462.5,77.119 462.5,78.5 Z" />
            <path d="M463.424,112.107 L490.09,133.774 C491.162,134.644 492.736,134.481 493.607,133.41 C494.478,132.338 494.315,130.764 493.243,129.893 L466.576,108.226 C465.505,107.356 463.93,107.519 463.06,108.59 C462.189,109.662 462.352,111.236 463.424,112.107 Z" />
            <path d="M478.053,107.247 L493.053,97.247 C494.202,96.481 494.513,94.929 493.747,93.78 C492.981,92.631 491.429,92.321 490.28,93.087 L475.28,103.087 C474.131,103.852 473.821,105.405 474.587,106.553 C475.352,107.702 476.905,108.013 478.053,107.247 Z" />
            <path d="M454.72,103.087 L439.72,93.087 C438.571,92.321 437.019,92.631 436.253,93.78 C435.487,94.929 435.798,96.481 436.947,97.247 L451.947,107.247 C453.095,108.013 454.648,107.702 455.413,106.553 C456.179,105.405 455.869,103.852 454.72,103.087 Z" />
            <path d="M462.5,123.5 L462.5,143.5 C462.5,144.881 463.619,146 465,146 C466.381,146 467.5,144.881 467.5,143.5 L467.5,123.5 C467.5,122.119 466.381,121 465,121 C463.619,121 462.5,122.119 462.5,123.5 Z" />
        </g>
        <g id="Black-S">
            <path d="M662.5,78.5 L662.5,110.167 L663.424,108.226 L636.757,129.893 C635.685,130.764 635.522,132.338 636.393,133.41 C637.264,134.481 638.838,134.644 639.91,133.774 L666.576,112.107 L667.5,111.357 L667.5,110.167 L667.5,78.5 C667.5,77.119 666.381,76 665,76 C663.619,76 662.5,77.119 662.5,78.5 Z" />
            <path d="M663.424,112.107 L690.09,133.774 C691.162,134.644 692.736,134.481 693.607,133.41 C694.478,132.338 694.315,130.764 693.243,129.893 L666.576,108.226 C665.505,107.356 663.93,107.519 663.06,108.59 C662.189,109.662 662.352,111.236 663.424,112.107 Z" />
            <path d="M678.053,107.247 L693.053,97.247 C694.202,96.481 694.513,94.929 693.747,93.78 C692.981,92.631 691.429,92.321 690.28,93.087 L675.28,103.087 C674.131,103.852 673.821,105.405 674.587,106.553 C675.352,107.702 676.905,108.013 678.053,107.247 Z" />
            <path d="M654.72,103.087 L639.72,93.087 C638.571,92.321 637.019,92.631 636.253,93.78 C635.487,94.929 635.798,96.481 636.947,97.247 L651.947,107.247 C653.095,108.013 654.648,107.702 655.413,106.553 C656.179,105.405 655.869,103.852 654.72,103.087 Z" />
            <path d="M662.5,123.5 L662.5,143.5 C662.5,144.881 663.619,146 665,146 C666.381,146 667.5,144.881 667.5,143.5 L667.5,123.5 C667.5,122.119 666.381,121 665,121 C663.619,121 662.5,122.119 662.5,123.5 Z" />
        </g>
    </g>
</svg>