<?xml version="1.0" encoding="UTF-8"?>
<svg height="600" width="800" xmlns="http://www.w3.org/2000/svg" xmlns:xlink="http://www.w3.org/1999/xlink">
    <g id="Notes" font-family="'LucidaGrande', 'Lucida Grande', sans-serif" font-size="13">
        <rect fill="white" height="600.0" width="800.0" x="0.0" y="0.0" />
        <g font-size="13">
            <text x="18.0" y="176.0">Small</text>
            <text x="18.0" y="376.0">Medium</text>
            <text x="18.0" y="576.0">Large</text>
        </g>
        <g font-size="9">
            <text x="250.0" y="30.0">Ultralight</text>
            <text x="450.0" y="30.0">Regular</text>
            <text x="650.0" y="30.0">Black</text>
            <text id="template-version" fill="#505050" text-anchor="end" x="785.0" y="575.0">Template v.3.0</text>
            <a href="https://github.com/swhitty/SwiftDraw">
                <text fill="#505050" text-anchor="end" x="785.0" y="590.0">https://github.com/swhitty/SwiftDraw</text>
            </a>
        </g>
    </g>
    <g id="Guides" stroke="rgb(39, 170, 225)" stroke-width="0.5">
        <path id="Capline-S" d="M18,76 l800,0" />
        <path id="H-reference" d="M85,145.755 L87.685,145.755 L113.369,79.287 L114.052,79.287 L114.052,76 L112.148,76 L85,145.755 Z M95.693,121.536 L130.996,121.536 L130.263,119.313 L96.474,119.313 L95.693,121.536 Z M139.15,145.755 L141.787,145.755 L114.638,76 L113.466,76 L113.466,79.287 L139.15,145.755 Z" stroke="none" />
        <path id="Baseline-S" d="M18,146 l800,0" />
        <path id="left-margin-Ultralight-S" d="M220,56 l0,110" />
        <path id="right-margin-Ultralight-S" d="M310,56 l0,110" />
        <path id="left-margin-Regular-S" d="M420,56 l0,110" />
        <path id="right-margin-Regular-S" d="M510,56 l0,110" />
        <path id="left-margin-Black-S" d="M620,56 l0,110" />
        <path id="right-margin-Black-S" d="M710,56 l0,110" />
        <path id="Capline-M" d="M18,276 l800,0" />
        <path id="Baseline-M" d="M18,346 l800,0" />
        <path id="Capline-L" d="M18,476 l800,0" />
        <path id="Baseline-L" d="M18,546 l800,0" />
    </g>
    <g id="Symbols">
        <g id="Ultralight-S">
            <path d="M247.498,80.684 C236.758,86.897 230,98.361 230,111 C230,112.349 231.093,113.442 232.442,113.442 C233.79,113.442 234.884,112.349 234.884,111 C234.884,100.122 240.697,90.26 249.944,84.911 C251.111,84.236 251.51,82.742 250.835,81.575 C250.159,80.408 248.666,80.009 247.498,80.684 Z M246.279,82.798 L246.279,94.721 C246.279,96.07 247.372,97.163 248.721,97.163 C250.07,97.163 251.163,96.07 251.163,94.721 L251.163,82.798 C251.163,81.449 250.07,80.356 248.721,80.356 C247.372,80.356 246.279,81.449 246.279,82.798 Z M248.721,80.356 L236.798,80.356 C235.449,80.356 234.356,81.449 234.356,82.798 C234.356,84.146 235.449,85.24 236.798,85.24 L248.721,85.24 C250.07,85.24 251.163,84.146 251.163,82.798 C251.163,81.449 250.07,80.356 248.721,80.356 Z" />
            <path d="M234.684,128.502 C240.897,139.242 252.361,146 265,146 C266.349,146 267.442,144.907 267.442,143.558 C267.442,142.21 266.349,141.116 265,141.116 C254.122,141.116 244.26,135.303 238.911,126.056 C238.236,124.889 236.742,124.49 235.575,125.165 C234.408,125.841 234.009,127.334 234.684,128.502 Z M236.798,129.721 L248.721,129.721 C250.07,129.721 251.163,128.628 251.163,127.279 C251.163,125.93 250.07,124.837 248.721,124.837 L236.798,124.837 C235.449,124.837 234.356,125.93 234.356,127.279 C234.356,128.628 235.449,129.721 236.798,129.721 Z M234.356,127.279 L234.356,139.203 C234.356,140.551 235.449,141.644 236.798,141.644 C238.146,141.644 239.239,140.551 239.239,139.203 L239.239,127.279 C239.239,125.93 238.146,124.837 236.798,124.837 C235.449,124.837 234.356,125.93 234.356,127.279 Z" />
            <path d="M282.502,141.316 C293.242,135.103 300,123.639 300,111 C300,109.651 298.907,108.558 297.558,108.558 C296.21,108.558 295.116,109.651 295.116,111 C295.116,121.878 289.303,131.74 280.056,137.089 C278.889,137.764 278.49,139.258 279.165,140.425 C279.841,141.593 281.334,141.991 282.502,141.316 Z M283.721,139.203 L283.721,127.279 C283.721,125.93 282.628,124.837 281.279,124.837 C279.93,124.837 278.837,125.93 278.837,127.279 L278.837,139.203 C278.837,140.551 279.93,141.644 281.279,141.644 C282.628,141.644 283.721,140.551 283.721,139.203 Z M281.279,141.644 L293.203,141.644 C294.551,141.644 295.644,140.551 295.644,139.203 C295.644,137.854 294.551,136.761 293.203,136.761 L281.279,136.761 C279.93,136.761 278.837,137.854 278.837,139.203 C278.837,140.551 279.93,141.644 281.279,141.644 Z" />
            <path d="M295.316,93.498 C289.103,82.758 277.639,76 265,76 C263.651,76 262.558,77.093 262.558,78.442 C262.558,79.79 263.651,80.884 265,80.884 C275.878,80.884 285.74,86.697 291.089,95.944 C291.764,97.111 293.258,97.51 294.425,96.835 C295.592,96.159 295.991,94.666 295.316,93.498 Z M293.202,92.279 L281.279,92.279 C279.93,92.279 278.837,93.372 278.837,94.721 C278.837,96.07 279.93,97.163 281.279,97.163 L293.202,97.163 C294.551,97.163 295.644,96.07 295.644,94.721 C295.644,93.372 294.551,92.279 293.202,92.279 Z M295.644,94.721 L295.644,82.798 C295.644,81.449 294.551,80.356 293.202,80.356 C291.854,80.356 290.76,81.449 290.76,82.798 L290.76,94.721 C290.76,96.07 291.854,97.163 293.202,97.163 C294.551,97.163 295.644,96.07 295.644,94.721 Z" />
        </g>
        <g id="Regular-S">
            <path d="M447.498,80.684 C436.758,86.897 430,98.361 430,111 C430,112.349 431.093,113.442 432.442,113.442 C433.79,113.442 434.884,112.349 434.884,111 C434.884,100.122 440.697,90.26 449.944,84.911 C451.111,84.236 451.51,82.742 450.835,81.575 C450.159,80.408 448.666,80.009 447.498,80.684 Z M446.279,82.798 L446.279,94.721 C446.279,96.07 447.372,97.163 448.721,97.163 C450.07,97.163 451.163,96.07 451.163,94.721 L451.163,82.798 C451.163,81.449 450.07,80.356 448.721,80.356 C447.372,80.356 446.279,81.449 446.279,82.798 Z M448.721,80.356 L436.798,80.356 C435.449,80.356 434.356,81.449 434.356,82.798 C434.356,84.146 435.449,85.24 436.798,85.24 L448.721,85.24 C450.07,85.24 451.163,84.146 451.163,82.798 C451.163,81.449 450.07,80.356 448.721,80.356 Z" />
            <path d="M434.684,128.502 C440.897,139.242 452.361,146 465,146 C466.349,146 467.442,144.907 467.442,143.558 C467.442,142.21 466.349,141.116 465,141.116 C454.122,141.116 444.26,135.303 438.911,126.056 C438.236,124.889 436.742,124.49 435.575,125.165 C434.408,125.841 434.009,127.334 434.684,128.502 Z M436.798,129.721 L448.721,129.721 C450.07,129.721 451.163,128.628 451.163,127.279 C451.163,125.93 450.07,124.837 448.721,124.837 L436.798,124.837 C435.449,124.837 434.356,125.93 434.356,127.279 C434.356,128.628 435.449,129.721 436.798,129.721 Z M434.356,127.279 L434.356,139.203 C434.356,140.551 435.449,141.644 436.798,141.644 C438.146,141.644 439.239,140.551 439.239,139.203 L439.239,127.279 C439.239,125.93 438.146,124.837 436.798,124.837 C435.449,124.837 434.356,125.93 434.356,127.279 Z" />
            <path d="M482.502,141.316 C493.242,135.103 500,123.639 500,111 C500,109.651 498.907,108.558 497.558,108.558 C496.21,108.558 495.116,109.651 495.116,111 C495.116,121.878 489.303,131.74 480.056,137.089 C478.889,137.764 478.49,139.258 479.165,140.425 C479.841,141.593 481.334,141.991 482.502,141.316 Z M483.721,139.203 L483.721,127.279 C483.721,125.93 482.628,124.837 481.279,124.837 C479.93,124.837 478.837,125.93 478.837,127.279 L478.837,139.203 C478.837,140.551 479.93,141.644 481.279,141.644 C482.628,141.644 483.721,140.551 483.721,139.203 Z M481.279,141.644 L493.203,141.644 C494.551,141.644 495.644,140.551 495.644,139.203 C495.644,137.854 494.551,136.761 493.203,136.761 L481.279,136.761 C479.93,136.761 478.837,137.854 478.837,139.203 C478.837,140.551 479.93,141.644 481.279,141.644 Z" />
            <path d="M495.316,93.498 C489.103,82.758 477.639,76 465,76 C463.651,76 462.558,77.093 462.558,78.442 C462.558,79.79 463.651,80.884 465,80.884 C475.878,80.884 485.74,86.697 491.089,95.944 C491.764,97.111 493.258,97.51 494.425,96.835 C495.592,96.159 495.991,94.666 495.316,93.498 Z M493.202,92.279 L481.279,92.279 C479.93,92.279 478.837,93.372 478.837,94.721 C478.837,96.07 479.93,97.163 481.279,97.163 L493.202,97.163 C494.551,97.163 495.644,96.07 495.644,94.721 C495.644,93.372 494.551,92.279 493.202,92.279 Z M495.644,94.721 L495.644,82.798 C495.644,81.449 494.551,80.356 493.202,80.356 C491.854,80.356 490.76,81.449 490.76,82.798 L490.76,94.721 C490.76,96.07 491.854,97.163 493.202,97.163 C494.551,97.163 495.644,96.07 495.644,94.721 Z" />
        </g>
        <g id="Black-S">
            <path d="M647.498,80.684 C636.758,86.897 630,98.361 630,111 C630,112.349 631.093,113.442 632.442,113.442 C633.79,113.442 634.884,112.349 634.884,111 C634.884,100.122 640.697,90.26 649.944,84.911 C651.111,84.236 651.51,82.742 650.835,81.575 C650.159,80.408 648.666,80.009 647.498,80.684 Z M646.279,82.798 L646.279,94.721 C646.279,96.07 647.372,97.163 648.721,97.163 C650.07,97.163 651.163,96.07 651.163,94.721 L651.163,82.798 C651.163,81.449 650.07,80.356 648.721,80.356 C647.372,80.356 646.279,81.449 646.279,82.798 Z M648.721,80.356 L636.798,80.356 C635.449,80.356 634.356,81.449 634.356,82.798 C634.356,84.146 635.449,85.24 636.798,85.24 L648.721,85.24 C650.07,85.24 651.163,84.146 651.163,82.798 C651.163,81.449 650.07,80.356 648.721,80.356 Z" />
            <path d="M634.684,128.502 C640.897,139.242 652.361,146 665,146 C666.349,146 667.442,144.907 667.442,143.558 C667.442,142.21 666.349,141.116 665,141.116 C654.122,141.116 644.26,135.303 638.911,126.056 C638.236,124.889 636.742,124.49 635.575,125.165 C634.407,125.841 634.009,127.334 634.684,128.502 Z M636.798,129.721 L648.721,129.721 C650.07,129.721 651.163,128.628 651.163,127.279 C651.163,125.93 650.07,124.837 648.721,124.837 L636.798,124.837 C635.449,124.837 634.356,125.93 634.356,127.279 C634.356,128.628 635.449,129.721 636.798,129.721 Z M634.356,127.279 L634.356,139.203 C634.356,140.551 635.449,141.644 636.798,141.644 C638.146,141.644 639.239,140.551 639.239,139.203 L639.239,127.279 C639.239,125.93 638.146,124.837 636.798,124.837 C635.449,124.837 634.356,125.93 634.356,127.279 Z" />
            <path d="M682.502,141.316 C693.242,135.103 700,123.639 700,111 C700,109.651 698.907,108.558 697.558,108.558 C696.21,108.558 695.116,109.651 695.116,111 C695.116,121.878 689.303,131.74 680.056,137.089 C678.889,137.764 678.49,139.258 679.165,140.425 C679.841,141.593 681.334,141.991 682.502,141.316 Z M683.721,139.203 L683.721,127.279 C683.721,125.93 682.628,124.837 681.279,124.837 C679.93,124.837 678.837,125.93 678.837,127.279 L678.837,139.203 C678.837,140.551 679.93,141.644 681.279,141.644 C682.628,141.644 683.721,140.551 683.721,139.203 Z M681.279,141.644 L693.203,141.644 C694.551,141.644 695.644,140.551 695.644,139.203 C695.644,137.854 694.551,136.761 693.203,136.761 L681.279,136.761 C679.93,136.761 678.837,137.854 678.837,139.203 C678.837,140.551 679.93,141.644 681.279,141.644 Z" />
            <path d="M695.316,93.498 C689.103,82.758 677.639,76 665,76 C663.651,76 662.558,77.093 662.558,78.442 C662.558,79.79 663.651,80.884 665,80.884 C675.878,80.884 685.74,86.697 691.089,95.944 C691.764,97.111 693.258,97.51 694.425,96.835 C695.592,96.159 695.991,94.666 695.316,93.498 Z M693.202,92.279 L681.279,92.279 C679.93,92.279 678.837,93.372 678.837,94.721 C678.837,96.07 679.93,97.163 681.279,97.163 L693.202,97.163 C694.551,97.163 695.644,96.07 695.644,94.721 C695.644,93.372 694.551,92.279 693.202,92.279 Z M695.644,94.721 L695.644,82.798 C695.644,81.449 694.551,80.356 693.202,80.356 C691.854,80.356 690.76,81.449 690.76,82.798 L690.76,94.721 C690.76,96.07 691.854,97.163 693.202,97.163 C694.551,97.163 695.644,96.07 695.644,94.721 Z" />
        </g>
    </g>
</svg>