<?xml version="1.0" encoding="UTF-8"?>
<svg height="600" width="800" xmlns="http://www.w3.org/2000/svg" xmlns:xlink="http://www.w3.org/1999/xlink">
    <g id="Notes" font-family="'LucidaGrande', 'Lucida Grande', sans-serif" font-size="13">
        <rect fill="white" height="600.0" width="800.0" x="0.0" y="0.0" />
        <g font-size="13">
            <text x="18.0" y="176.0">Small</text>
            <text x="18.0" y="376.0">Medium</text>
            <text x="18.0" y="576.0">Large</text>
        </g>
        <g font-size="9">
            <text x="250.0" y="30.0">Ultralight</text>
            <text x="450.0" y="30.0">Regular</text>
            <text x="650.0" y="30.0">Black</text>
            <text id="template-version" fill="#505050" text-anchor="end" x="785.0" y="575.0">Template v.3.0</text>
            <a href="https://github.com/swhitty/SwiftDraw">
                <text fill="#505050" text-anchor="end" x="785.0" y="590.0">https://github.com/swhitty/SwiftDraw</text>
            </a>
        </g>
    </g>
    <g id="Guides" stroke="rgb(39, 170, 225)" stroke-width="0.5">
        <path id="Capline-S" d="M18,76 l800,0" />
        <path id="H-reference" d="M85,145.755 L87.685,145.755 L113.369,79.287 L114.052,79.287 L114.052,76 L112.148,76 L85,145.755 Z M95.693,121.536 L130.996,121.536 L130.263,119.313 L96.474,119.313 L95.693,121.536 Z M139.15,145.755 L141.787,145.755 L114.638,76 L113.466,76 L113.466,79.287 L139.15,145.755 Z" stroke="none" />
        <path id="Baseline-S" d="M18,146 l800,0" />
        <path id="left-margin-Ultralight-S" d="M221,56 l0,110" />
        <path id="right-margin-Ultralight-S" d="M309,56 l0,110" />
        <path id="left-margin-Regular-S" d="M421,56 l0,110" />
        <path id="right-margin-Regular-S" d="M509,56 l0,110" />
        <path id="left-margin-Black-S" d="M621,56 l0,110" />
        <path id="right-margin-Black-S" d="M709,56 l0,110" />
        <path id="Capline-M" d="M18,276 l800,0" />
        <path id="Baseline-M" d="M18,346 l800,0" />
        <path id="Capline-L" d="M18,476 l800,0" />
        <path id="Baseline-L" d="M18,546 l800,0" />
    </g>
    <g id="Symbols">
        <g id="Ultralight-S">
            <path d="M244.819,78.282 L237.233,85.868 C234.19,88.91 234.19,93.843 237.233,96.885 C240.275,99.928 245.208,99.928 248.25,96.885 L255.836,89.299 C258.879,86.257 258.879,81.324 255.836,78.282 C252.794,75.239 247.861,75.239 244.819,78.282 Z M248.25,81.713 C249.397,80.566 251.257,80.566 252.404,81.714 C253.552,82.861 253.552,84.721 252.404,85.868 L244.819,93.454 C243.672,94.601 241.812,94.601 240.664,93.454 C239.517,92.306 239.517,90.446 240.664,89.299 L248.25,81.714 Z" />
            <path d="M261.256,92.19 L251.141,102.304 C248.099,105.347 248.099,110.279 251.141,113.322 C254.184,116.364 259.117,116.364 262.159,113.322 L272.273,103.207 C275.316,100.165 275.316,95.232 272.273,92.19 C269.231,89.147 264.298,89.147 261.256,92.19 Z M264.688,95.621 C265.835,94.474 267.695,94.474 268.842,95.621 C269.989,96.769 269.989,98.628 268.842,99.775 L258.727,109.89 C257.58,111.037 255.72,111.037 254.573,109.89 C253.426,108.743 253.426,106.883 254.573,105.736 L264.688,95.621 Z" />
            <path d="M267.576,104.471 L289.852,126.747 C290.469,127.364 290.293,128.896 289.07,130.119 C287.847,131.342 286.315,131.518 285.698,130.902 L263.422,108.626 L259.991,112.057 L282.266,134.333 C284.975,137.042 289.535,136.517 292.501,133.55 C295.468,130.584 295.993,126.024 293.284,123.316 L271.008,101.04 L267.576,104.471 Z" />
            <path d="M257.462,80.811 L239.762,98.511 C236.72,101.553 236.72,106.486 239.762,109.529 C242.804,112.571 247.737,112.571 250.78,109.529 L268.48,91.828 C271.522,88.786 271.522,83.853 268.48,80.811 C265.438,77.768 260.505,77.768 257.462,80.811 Z M260.894,84.242 C262.041,83.095 263.901,83.095 265.048,84.242 C266.195,85.39 266.195,87.249 265.048,88.396 L247.348,106.097 C246.201,107.244 244.341,107.244 243.194,106.097 C242.047,104.95 242.047,103.09 243.194,101.943 L260.894,84.242 Z" />
            <path d="M242.997,110.343 C245.063,116.782 244.743,121.219 242.35,123.891 C235.595,131.433 238.995,146 250.672,146 C263.491,146 267.62,129.718 256.428,123.961 C255.236,123.348 253.773,123.818 253.16,125.009 C252.547,126.201 253.017,127.664 254.208,128.277 C260.838,131.687 258.439,141.147 250.672,141.147 C247.09,141.147 244.922,139.226 244.15,135.918 C243.418,132.782 244.217,129.08 245.965,127.129 C249.712,122.944 250.158,116.775 247.618,108.86 C247.209,107.584 245.842,106.881 244.566,107.291 C243.29,107.7 242.588,109.067 242.997,110.343 Z" />
        </g>
        <g id="Regular-S">
            <path d="M444.819,78.282 L437.233,85.868 C434.19,88.91 434.19,93.843 437.233,96.885 C440.275,99.928 445.208,99.928 448.25,96.885 L455.836,89.299 C458.879,86.257 458.879,81.324 455.836,78.282 C452.794,75.239 447.861,75.239 444.819,78.282 Z M448.25,81.713 C449.397,80.566 451.257,80.566 452.404,81.714 C453.552,82.861 453.552,84.721 452.404,85.868 L444.819,93.454 C443.672,94.601 441.812,94.601 440.664,93.454 C439.517,92.306 439.517,90.446 440.664,89.299 L448.25,81.714 Z" />
            <path d="M461.256,92.19 L451.141,102.304 C448.099,105.347 448.099,110.279 451.141,113.322 C454.184,116.364 459.117,116.364 462.159,113.322 L472.274,103.207 C475.316,100.165 475.316,95.232 472.274,92.19 C469.231,89.147 464.298,89.147 461.256,92.19 Z M464.688,95.621 C465.835,94.474 467.695,94.474 468.842,95.621 C469.989,96.769 469.989,98.628 468.842,99.775 L458.727,109.89 C457.58,111.037 455.72,111.037 454.573,109.89 C453.426,108.743 453.426,106.883 454.573,105.736 L464.688,95.621 Z" />
            <path d="M467.576,104.471 L489.852,126.747 C490.469,127.364 490.293,128.896 489.07,130.119 C487.847,131.342 486.315,131.518 485.698,130.902 L463.422,108.626 L459.991,112.057 L482.266,134.333 C484.975,137.042 489.535,136.517 492.501,133.55 C495.468,130.584 495.993,126.024 493.284,123.316 L471.008,101.04 L467.576,104.471 Z" />
            <path d="M457.462,80.811 L439.762,98.511 C436.72,101.553 436.72,106.486 439.762,109.529 C442.804,112.571 447.737,112.571 450.78,109.529 L468.48,91.828 C471.522,88.786 471.522,83.853 468.48,80.811 C465.438,77.768 460.505,77.768 457.462,80.811 Z M460.894,84.242 C462.041,83.095 463.901,83.095 465.048,84.242 C466.195,85.39 466.195,87.249 465.048,88.396 L447.348,106.097 C446.201,107.244 444.341,107.244 443.194,106.097 C442.047,104.95 442.047,103.09 443.194,101.943 L460.894,84.242 Z" />
            <path d="M442.997,110.343 C445.063,116.782 444.743,121.219 442.35,123.891 C435.595,131.433 438.995,146 450.672,146 C463.491,146 467.62,129.718 456.428,123.961 C455.236,123.348 453.773,123.818 453.16,125.009 C452.547,126.201 453.017,127.664 454.208,128.277 C460.838,131.687 458.439,141.147 450.672,141.147 C447.09,141.147 444.922,139.226 444.15,135.918 C443.418,132.782 444.217,129.08 445.965,127.129 C449.712,122.944 450.158,116.775 447.618,108.86 C447.209,107.584 445.842,106.881 444.566,107.291 C443.29,107.7 442.588,109.067 442.997,110.343 Z" />
        </g>
        <g id="Black-S">
            <path d="M644.819,78.282 L637.233,85.868 C634.19,88.91 634.19,93.843 637.233,96.885 C640.275,99.928 645.208,99.928 648.25,96.885 L655.836,89.299 C658.879,86.257 658.879,81.324 655.836,78.282 C652.794,75.239 647.861,75.239 644.819,78.282 Z M648.25,81.713 C649.397,80.566 651.257,80.566 652.404,81.714 C653.552,82.861 653.552,84.721 652.404,85.868 L644.819,93.454 C643.672,94.601 641.812,94.601 640.664,93.454 C639.517,92.306 639.517,90.446 640.664,89.299 L648.25,81.714 Z" />
            <path d="M661.256,92.19 L651.141,102.304 C648.099,105.347 648.099,110.279 651.141,113.322 C654.184,116.364 659.117,116.364 662.159,113.322 L672.273,103.207 C675.316,100.165 675.316,95.232 672.273,92.19 C669.231,89.147 664.298,89.147 661.256,92.19 Z M664.688,95.621 C665.835,94.474 667.695,94.474 668.842,95.621 C669.989,96.769 669.989,98.628 668.842,99.775 L658.727,109.89 C657.58,111.037 655.72,111.037 654.573,109.89 C653.426,108.743 653.426,106.883 654.573,105.736 L664.688,95.621 Z" />
            <path d="M667.576,104.471 L689.852,126.747 C690.469,127.364 690.293,128.896 689.07,130.119 C687.847,131.342 686.315,131.518 685.698,130.902 L663.422,108.626 L659.991,112.057 L682.266,134.333 C684.975,137.042 689.535,136.517 692.501,133.55 C695.468,130.584 695.993,126.024 693.284,123.316 L671.008,101.04 L667.576,104.471 Z" />
            <path d="M657.462,80.811 L639.762,98.511 C636.72,101.553 636.72,106.486 639.762,109.529 C642.804,112.571 647.737,112.571 650.78,109.529 L668.48,91.828 C671.522,88.786 671.522,83.853 668.48,80.811 C665.438,77.768 660.505,77.768 657.462,80.811 Z M660.894,84.242 C662.041,83.095 663.901,83.095 665.048,84.242 C666.195,85.39 666.195,87.249 665.048,88.396 L647.348,106.097 C646.201,107.244 644.341,107.244 643.194,106.097 C642.047,104.95 642.047,103.09 643.194,101.943 L660.894,84.242 Z" />
            <path d="M642.997,110.343 C645.063,116.782 644.743,121.219 642.349,123.891 C635.595,131.433 638.995,146 650.672,146 C663.491,146 667.62,129.718 656.428,123.961 C655.236,123.348 653.773,123.818 653.16,125.009 C652.547,126.201 653.017,127.664 654.208,128.277 C660.838,131.687 658.439,141.147 650.672,141.147 C647.09,141.147 644.922,139.226 644.15,135.918 C643.418,132.782 644.217,129.08 645.965,127.129 C649.712,122.944 650.158,116.775 647.618,108.86 C647.209,107.584 645.842,106.881 644.566,107.291 C643.29,107.7 642.588,109.067 642.997,110.343 Z" />
        </g>
    </g>
</svg>