<?xml version="1.0" encoding="UTF-8"?>
<svg height="600" width="800" xmlns="http://www.w3.org/2000/svg" xmlns:xlink="http://www.w3.org/1999/xlink">
    <g id="Notes" font-family="'LucidaGrande', 'Lucida Grande', sans-serif" font-size="13">
        <rect fill="white" height="600.0" width="800.0" x="0.0" y="0.0" />
        <g font-size="13">
            <text x="18.0" y="176.0">Small</text>
            <text x="18.0" y="376.0">Medium</text>
            <text x="18.0" y="576.0">Large</text>
        </g>
        <g font-size="9">
            <text x="250.0" y="30.0">Ultralight</text>
            <text x="450.0" y="30.0">Regular</text>
            <text x="650.0" y="30.0">Black</text>
            <text id="template-version" fill="#505050" text-anchor="end" x="785.0" y="575.0">Template v.3.0</text>
            <a href="https://github.com/swhitty/SwiftDraw">
                <text fill="#505050" text-anchor="end" x="785.0" y="590.0">https://github.com/swhitty/SwiftDraw</text>
            </a>
        </g>
    </g>
    <g id="Guides" stroke="rgb(39, 170, 225)" stroke-width="0.5">
        <path id="Capline-S" d="M18,76 l800,0" />
        <path id="H-reference" d="M85,145.755 L87.685,145.755 L113.369,79.287 L114.052,79.287 L114.052,76 L112.148,76 L85,145.755 Z M95.693,121.536 L130.996,121.536 L130.263,119.313 L96.474,119.313 L95.693,121.536 Z M139.15,145.755 L141.787,145.755 L114.638,76 L113.466,76 L113.466,79.287 L139.15,145.755 Z" stroke="none" />
        <path id="Baseline-S" d="M18,146 l800,0" />
        <path id="left-margin-Ultralight-S" d="M220,56 l0,110" />
        <path id="right-margin-Ultralight-S" d="M310,56 l0,110" />
        <path id="left-margin-Regular-S" d="M420,56 l0,110" />
        <path id="right-margin-Regular-S" d="M510,56 l0,110" />
        <path id="left-margin-Black-S" d="M620,56 l0,110" />
        <path id="right-margin-Black-S" d="M710,56 l0,110" />
        <path id="Capline-M" d="M18,276 l800,0" />
        <path id="Baseline-M" d="M18,346 l800,0" />
        <path id="Capline-L" d="M18,476 l800,0" />
        <path id="Baseline-L" d="M18,546 l800,0" />
    </g>
    <g id="Symbols">
        <g id="Ultralight-S">
            <path d="M294.878,122.951 L294.878,97.341 C294.878,96.416 294.379,95.563 293.573,95.109 L272.231,83.105 C270.998,82.411 269.437,82.849 268.744,84.081 C268.05,85.314 268.487,86.876 269.72,87.569 L291.062,99.574 L289.756,97.341 L289.756,122.951 C289.756,124.366 290.903,125.512 292.317,125.512 C293.731,125.512 294.878,124.366 294.878,122.951 Z M257.769,83.105 L236.427,95.109 C235.621,95.563 235.122,96.416 235.122,97.341 L235.122,122.951 C235.122,124.366 236.269,125.512 237.683,125.512 C239.097,125.512 240.244,124.366 240.244,122.951 L240.244,97.341 L238.938,99.574 L260.28,87.569 C261.513,86.876 261.95,85.314 261.256,84.081 C260.563,82.849 259.002,82.411 257.769,83.105 Z M241.549,133.186 L263.744,145.671 C264.524,146.11 265.476,146.11 266.256,145.671 L279.914,137.988 L288.451,133.186 C289.683,132.493 290.121,130.931 289.427,129.699 C288.734,128.466 287.172,128.029 285.94,128.722 L277.403,133.524 L263.744,141.207 L266.256,141.207 L244.06,128.722 C242.828,128.029 241.266,128.466 240.573,129.699 C239.879,130.931 240.317,132.493 241.549,133.186 Z" />
            <path d="M258.588,101.532 L253.466,104.52 C252.679,104.979 252.195,105.821 252.195,106.732 L252.195,112.707 L252.195,118.683 C252.195,119.594 252.679,120.436 253.466,120.895 L258.588,123.883 L263.71,126.871 C264.507,127.336 265.493,127.336 266.29,126.871 L271.412,123.883 L276.534,120.895 C277.321,120.436 277.805,119.594 277.805,118.683 L277.805,112.707 L277.805,106.732 C277.805,105.821 277.321,104.979 276.534,104.52 L271.412,101.532 L266.29,98.544 C265.493,98.079 264.507,98.079 263.71,98.544 L258.588,101.532 Z M261.168,105.956 L266.29,102.968 L263.71,102.968 L268.832,105.956 L273.953,108.944 L272.683,106.732 L272.683,112.707 L272.683,118.683 L273.953,116.471 L268.832,119.459 L263.71,122.446 L266.29,122.446 L261.168,119.459 L256.047,116.471 L257.317,118.683 L257.317,112.707 L257.317,106.732 L256.047,108.944 L261.168,105.956 Z" />
            <path d="M267.561,100.756 L267.561,88.805 C267.561,87.39 266.414,86.244 265,86.244 C263.586,86.244 262.439,87.39 262.439,88.805 L262.439,100.756 C262.439,102.17 263.586,103.317 265,103.317 C266.414,103.317 267.561,102.17 267.561,100.756 Z" />
            <path d="M273.973,120.053 L285.924,126.882 C287.153,127.584 288.717,127.157 289.419,125.929 C290.12,124.701 289.694,123.137 288.466,122.435 L276.514,115.606 C275.286,114.904 273.722,115.331 273.02,116.559 C272.319,117.787 272.745,119.351 273.973,120.053 Z" />
            <path d="M253.485,115.606 L241.534,122.435 C240.306,123.137 239.88,124.701 240.581,125.929 C241.283,127.157 242.847,127.584 244.075,126.882 L256.027,120.053 C257.255,119.351 257.681,117.787 256.98,116.559 C256.278,115.331 254.714,114.904 253.485,115.606 Z" />
            <path d="M262.439,83.683 C262.439,82.269 263.586,81.122 265,81.122 C266.414,81.122 267.561,82.269 267.561,83.683 C267.561,85.097 266.414,86.244 265,86.244 C263.586,86.244 262.439,85.097 262.439,83.683 Z M257.317,83.683 C257.317,87.926 260.757,91.366 265,91.366 C269.243,91.366 272.683,87.926 272.683,83.683 C272.683,79.44 269.243,76 265,76 C260.757,76 257.317,79.44 257.317,83.683 Z" />
            <path d="M235.122,128.073 C235.122,126.659 236.269,125.512 237.683,125.512 C239.097,125.512 240.244,126.659 240.244,128.073 C240.244,129.488 239.097,130.634 237.683,130.634 C236.269,130.634 235.122,129.488 235.122,128.073 Z M230,128.073 C230,132.316 233.44,135.756 237.683,135.756 C241.926,135.756 245.366,132.316 245.366,128.073 C245.366,123.83 241.926,120.39 237.683,120.39 C233.44,120.39 230,123.83 230,128.073 Z" />
            <path d="M289.756,128.073 C289.756,126.659 290.903,125.512 292.317,125.512 C293.731,125.512 294.878,126.659 294.878,128.073 C294.878,129.488 293.731,130.634 292.317,130.634 C290.903,130.634 289.756,129.488 289.756,128.073 Z M284.634,128.073 C284.634,132.316 288.074,135.756 292.317,135.756 C296.56,135.756 300,132.316 300,128.073 C300,123.83 296.56,120.39 292.317,120.39 C288.074,120.39 284.634,123.83 284.634,128.073 Z" />
        </g>
        <g id="Regular-S">
            <path d="M494.878,122.951 L494.878,97.341 C494.878,96.416 494.379,95.563 493.573,95.109 L472.231,83.105 C470.998,82.411 469.437,82.849 468.744,84.081 C468.05,85.314 468.487,86.876 469.72,87.569 L491.062,99.574 L489.756,97.341 L489.756,122.951 C489.756,124.366 490.903,125.512 492.317,125.512 C493.731,125.512 494.878,124.366 494.878,122.951 Z M457.769,83.105 L436.427,95.109 C435.621,95.563 435.122,96.416 435.122,97.341 L435.122,122.951 C435.122,124.366 436.269,125.512 437.683,125.512 C439.097,125.512 440.244,124.366 440.244,122.951 L440.244,97.341 L438.938,99.574 L460.28,87.569 C461.513,86.876 461.95,85.314 461.256,84.081 C460.563,82.849 459.002,82.411 457.769,83.105 Z M441.549,133.186 L463.744,145.671 C464.524,146.11 465.476,146.11 466.256,145.671 L479.914,137.988 L488.451,133.186 C489.683,132.493 490.121,130.931 489.427,129.699 C488.734,128.466 487.172,128.029 485.94,128.722 L477.403,133.524 L463.744,141.207 L466.256,141.207 L444.06,128.722 C442.828,128.029 441.266,128.466 440.573,129.699 C439.879,130.931 440.317,132.493 441.549,133.186 Z" />
            <path d="M458.588,101.532 L453.466,104.52 C452.679,104.979 452.195,105.821 452.195,106.732 L452.195,112.707 L452.195,118.683 C452.195,119.594 452.679,120.436 453.466,120.895 L458.588,123.883 L463.71,126.871 C464.507,127.336 465.493,127.336 466.29,126.871 L471.412,123.883 L476.534,120.895 C477.321,120.436 477.805,119.594 477.805,118.683 L477.805,112.707 L477.805,106.732 C477.805,105.821 477.321,104.979 476.534,104.52 L471.412,101.532 L466.29,98.544 C465.493,98.079 464.507,98.079 463.71,98.544 L458.588,101.532 Z M461.168,105.956 L466.29,102.968 L463.71,102.968 L468.832,105.956 L473.953,108.944 L472.683,106.732 L472.683,112.707 L472.683,118.683 L473.953,116.471 L468.832,119.459 L463.71,122.446 L466.29,122.446 L461.168,119.459 L456.047,116.471 L457.317,118.683 L457.317,112.707 L457.317,106.732 L456.047,108.944 L461.168,105.956 Z" />
            <path d="M467.561,100.756 L467.561,88.805 C467.561,87.39 466.414,86.244 465,86.244 C463.586,86.244 462.439,87.39 462.439,88.805 L462.439,100.756 C462.439,102.17 463.586,103.317 465,103.317 C466.414,103.317 467.561,102.17 467.561,100.756 Z" />
            <path d="M473.973,120.053 L485.924,126.882 C487.153,127.584 488.717,127.157 489.419,125.929 C490.12,124.701 489.694,123.137 488.466,122.435 L476.514,115.606 C475.286,114.904 473.722,115.331 473.02,116.559 C472.319,117.787 472.745,119.351 473.973,120.053 Z" />
            <path d="M453.486,115.606 L441.534,122.435 C440.306,123.137 439.88,124.701 440.581,125.929 C441.283,127.157 442.847,127.584 444.075,126.882 L456.027,120.053 C457.255,119.351 457.681,117.787 456.98,116.559 C456.278,115.331 454.714,114.904 453.486,115.606 Z" />
            <path d="M462.439,83.683 C462.439,82.269 463.586,81.122 465,81.122 C466.414,81.122 467.561,82.269 467.561,83.683 C467.561,85.097 466.414,86.244 465,86.244 C463.586,86.244 462.439,85.097 462.439,83.683 Z M457.317,83.683 C457.317,87.926 460.757,91.366 465,91.366 C469.243,91.366 472.683,87.926 472.683,83.683 C472.683,79.44 469.243,76 465,76 C460.757,76 457.317,79.44 457.317,83.683 Z" />
            <path d="M435.122,128.073 C435.122,126.659 436.269,125.512 437.683,125.512 C439.097,125.512 440.244,126.659 440.244,128.073 C440.244,129.488 439.097,130.634 437.683,130.634 C436.269,130.634 435.122,129.488 435.122,128.073 Z M430,128.073 C430,132.316 433.44,135.756 437.683,135.756 C441.926,135.756 445.366,132.316 445.366,128.073 C445.366,123.83 441.926,120.39 437.683,120.39 C433.44,120.39 430,123.83 430,128.073 Z" />
            <path d="M489.756,128.073 C489.756,126.659 490.903,125.512 492.317,125.512 C493.731,125.512 494.878,126.659 494.878,128.073 C494.878,129.488 493.731,130.634 492.317,130.634 C490.903,130.634 489.756,129.488 489.756,128.073 Z M484.634,128.073 C484.634,132.316 488.074,135.756 492.317,135.756 C496.56,135.756 500,132.316 500,128.073 C500,123.83 496.56,120.39 492.317,120.39 C488.074,120.39 484.634,123.83 484.634,128.073 Z" />
        </g>
        <g id="Black-S">
            <path d="M694.878,122.951 L694.878,97.341 C694.878,96.416 694.379,95.563 693.573,95.109 L672.231,83.105 C670.998,82.411 669.437,82.849 668.744,84.081 C668.05,85.314 668.487,86.876 669.72,87.569 L691.062,99.574 L689.756,97.341 L689.756,122.951 C689.756,124.366 690.903,125.512 692.317,125.512 C693.732,125.512 694.878,124.366 694.878,122.951 Z M657.769,83.105 L636.427,95.109 C635.621,95.563 635.122,96.416 635.122,97.341 L635.122,122.951 C635.122,124.366 636.269,125.512 637.683,125.512 C639.097,125.512 640.244,124.366 640.244,122.951 L640.244,97.341 L638.938,99.574 L660.28,87.569 C661.513,86.876 661.95,85.314 661.256,84.081 C660.563,82.849 659.002,82.411 657.769,83.105 Z M641.549,133.186 L663.745,145.671 C664.524,146.11 665.476,146.11 666.256,145.671 L679.914,137.988 L688.451,133.186 C689.683,132.493 690.121,130.931 689.427,129.699 C688.734,128.466 687.172,128.029 685.94,128.722 L677.403,133.524 L663.745,141.207 L666.256,141.207 L644.06,128.722 C642.828,128.029 641.266,128.466 640.573,129.699 C639.879,130.931 640.317,132.493 641.549,133.186 Z" />
            <path d="M658.588,101.532 L653.466,104.52 C652.679,104.979 652.195,105.821 652.195,106.732 L652.195,112.707 L652.195,118.683 C652.195,119.594 652.679,120.436 653.466,120.895 L658.588,123.883 L663.71,126.871 C664.507,127.336 665.493,127.336 666.29,126.871 L671.412,123.883 L676.534,120.895 C677.321,120.436 677.805,119.594 677.805,118.683 L677.805,112.707 L677.805,106.732 C677.805,105.821 677.321,104.979 676.534,104.52 L671.412,101.532 L666.29,98.544 C665.493,98.079 664.507,98.079 663.71,98.544 L658.588,101.532 Z M661.168,105.956 L666.29,102.968 L663.71,102.968 L668.832,105.956 L673.954,108.944 L672.683,106.732 L672.683,112.707 L672.683,118.683 L673.954,116.471 L668.832,119.459 L663.71,122.446 L666.29,122.446 L661.168,119.459 L656.047,116.471 L657.317,118.683 L657.317,112.707 L657.317,106.732 L656.047,108.944 L661.168,105.956 Z" />
            <path d="M667.561,100.756 L667.561,88.805 C667.561,87.39 666.414,86.244 665,86.244 C663.586,86.244 662.439,87.39 662.439,88.805 L662.439,100.756 C662.439,102.17 663.586,103.317 665,103.317 C666.414,103.317 667.561,102.17 667.561,100.756 Z" />
            <path d="M673.973,120.053 L685.925,126.882 C687.153,127.584 688.717,127.157 689.419,125.929 C690.12,124.701 689.694,123.137 688.466,122.435 L676.515,115.606 C675.286,114.904 673.722,115.331 673.02,116.559 C672.319,117.787 672.745,119.351 673.973,120.053 Z" />
            <path d="M653.486,115.606 L641.534,122.435 C640.306,123.137 639.88,124.701 640.581,125.929 C641.283,127.157 642.847,127.584 644.076,126.882 L656.027,120.053 C657.255,119.351 657.681,117.787 656.98,116.559 C656.278,115.331 654.714,114.904 653.486,115.606 Z" />
            <path d="M662.439,83.683 C662.439,82.269 663.586,81.122 665,81.122 C666.414,81.122 667.561,82.269 667.561,83.683 C667.561,85.097 666.414,86.244 665,86.244 C663.586,86.244 662.439,85.097 662.439,83.683 Z M657.317,83.683 C657.317,87.926 660.757,91.366 665,91.366 C669.243,91.366 672.683,87.926 672.683,83.683 C672.683,79.44 669.243,76 665,76 C660.757,76 657.317,79.44 657.317,83.683 Z" />
            <path d="M635.122,128.073 C635.122,126.659 636.269,125.512 637.683,125.512 C639.097,125.512 640.244,126.659 640.244,128.073 C640.244,129.488 639.097,130.634 637.683,130.634 C636.269,130.634 635.122,129.488 635.122,128.073 Z M630,128.073 C630,132.316 633.44,135.756 637.683,135.756 C641.926,135.756 645.366,132.316 645.366,128.073 C645.366,123.83 641.926,120.39 637.683,120.39 C633.44,120.39 630,123.83 630,128.073 Z" />
            <path d="M689.756,128.073 C689.756,126.659 690.903,125.512 692.317,125.512 C693.732,125.512 694.878,126.659 694.878,128.073 C694.878,129.488 693.732,130.634 692.317,130.634 C690.903,130.634 689.756,129.488 689.756,128.073 Z M684.634,128.073 C684.634,132.316 688.074,135.756 692.317,135.756 C696.56,135.756 700,132.316 700,128.073 C700,123.83 696.56,120.39 692.317,120.39 C688.074,120.39 684.634,123.83 684.634,128.073 Z" />
        </g>
    </g>
</svg>