<?xml version="1.0" encoding="UTF-8"?>
<svg height="600" width="800" xmlns="http://www.w3.org/2000/svg" xmlns:xlink="http://www.w3.org/1999/xlink">
    <g id="Notes" font-family="'LucidaGrande', 'Lucida Grande', sans-serif" font-size="13">
        <rect fill="white" height="600.0" width="800.0" x="0.0" y="0.0" />
        <g font-size="13">
            <text x="18.0" y="176.0">Small</text>
            <text x="18.0" y="376.0">Medium</text>
            <text x="18.0" y="576.0">Large</text>
        </g>
        <g font-size="9">
            <text x="250.0" y="30.0">Ultralight</text>
            <text x="450.0" y="30.0">Regular</text>
            <text x="650.0" y="30.0">Black</text>
            <text id="template-version" fill="#505050" text-anchor="end" x="785.0" y="575.0">Template v.3.0</text>
            <a href="https://github.com/swhitty/SwiftDraw">
                <text fill="#505050" text-anchor="end" x="785.0" y="590.0">https://github.com/swhitty/SwiftDraw</text>
            </a>
        </g>
    </g>
    <g id="Guides" stroke="rgb(39, 170, 225)" stroke-width="0.5">
        <path id="Capline-S" d="M18,76 l800,0" />
        <path id="H-reference" d="M85,145.755 L87.685,145.755 L113.369,79.287 L114.052,79.287 L114.052,76 L112.148,76 L85,145.755 Z M95.693,121.536 L130.996,121.536 L130.263,119.313 L96.474,119.313 L95.693,121.536 Z M139.15,145.755 L141.787,145.755 L114.638,76 L113.466,76 L113.466,79.287 L139.15,145.755 Z" stroke="none" />
        <path id="Baseline-S" d="M18,146 l800,0" />
        <path id="left-margin-Ultralight-S" d="M220,56 l0,110" />
        <path id="right-margin-Ultralight-S" d="M310,56 l0,110" />
        <path id="left-margin-Regular-S" d="M420,56 l0,110" />
        <path id="right-margin-Regular-S" d="M510,56 l0,110" />
        <path id="left-margin-Black-S" d="M620,56 l0,110" />
        <path id="right-margin-Black-S" d="M710,56 l0,110" />
        <path id="Capline-M" d="M18,276 l800,0" />
        <path id="Baseline-M" d="M18,346 l800,0" />
        <path id="Capline-L" d="M18,476 l800,0" />
        <path id="Baseline-L" d="M18,546 l800,0" />
    </g>
    <g id="Symbols">
        <g id="Ultralight-S">
            <path d="M265,146 C284.33,146 300,130.33 300,111 C300,91.67 284.33,76 265,76 C245.67,76 230,91.67 230,111 C230,130.33 245.67,146 265,146 Z M265,141.116 C248.367,141.116 234.884,127.633 234.884,111 C234.884,94.367 248.367,80.884 265,80.884 C281.633,80.884 295.116,94.367 295.116,111 C295.116,127.633 281.633,141.116 265,141.116 Z" />
            <path d="M265,89.023 C252.863,89.023 243.023,98.863 243.023,111 C243.023,112.349 244.117,113.442 245.465,113.442 C246.814,113.442 247.907,112.349 247.907,111 C247.907,101.56 255.56,93.907 265,93.907 C266.349,93.907 267.442,92.814 267.442,91.465 C267.442,90.117 266.349,89.023 265,89.023 Z" />
            <path d="M265,132.977 C277.137,132.977 286.977,123.137 286.977,111 C286.977,109.651 285.883,108.558 284.535,108.558 C283.186,108.558 282.093,109.651 282.093,111 C282.093,120.44 274.44,128.093 265,128.093 C263.651,128.093 262.558,129.186 262.558,130.535 C262.558,131.883 263.651,132.977 265,132.977 Z" />
            <path d="M265,119.953 C269.945,119.953 273.953,115.945 273.953,111 C273.953,106.055 269.945,102.047 265,102.047 C260.055,102.047 256.047,106.055 256.047,111 C256.047,115.945 260.055,119.953 265,119.953 Z M265,115.07 C262.752,115.07 260.93,113.248 260.93,111 C260.93,108.752 262.752,106.93 265,106.93 C267.248,106.93 269.07,108.752 269.07,111 C269.07,113.248 267.248,115.07 265,115.07 Z" />
        </g>
        <g id="Regular-S">
            <path d="M465,146 C484.33,146 500,130.33 500,111 C500,91.67 484.33,76 465,76 C445.67,76 430,91.67 430,111 C430,130.33 445.67,146 465,146 Z M465,141.116 C448.367,141.116 434.884,127.633 434.884,111 C434.884,94.367 448.367,80.884 465,80.884 C481.633,80.884 495.116,94.367 495.116,111 C495.116,127.633 481.633,141.116 465,141.116 Z" />
            <path d="M465,89.023 C452.863,89.023 443.023,98.863 443.023,111 C443.023,112.349 444.117,113.442 445.465,113.442 C446.814,113.442 447.907,112.349 447.907,111 C447.907,101.56 455.56,93.907 465,93.907 C466.349,93.907 467.442,92.814 467.442,91.465 C467.442,90.117 466.349,89.023 465,89.023 Z" />
            <path d="M465,132.977 C477.137,132.977 486.977,123.137 486.977,111 C486.977,109.651 485.883,108.558 484.535,108.558 C483.186,108.558 482.093,109.651 482.093,111 C482.093,120.44 474.44,128.093 465,128.093 C463.651,128.093 462.558,129.186 462.558,130.535 C462.558,131.883 463.651,132.977 465,132.977 Z" />
            <path d="M465,119.953 C469.945,119.953 473.953,115.945 473.953,111 C473.953,106.055 469.945,102.047 465,102.047 C460.055,102.047 456.047,106.055 456.047,111 C456.047,115.945 460.055,119.953 465,119.953 Z M465,115.07 C462.752,115.07 460.93,113.248 460.93,111 C460.93,108.752 462.752,106.93 465,106.93 C467.248,106.93 469.07,108.752 469.07,111 C469.07,113.248 467.248,115.07 465,115.07 Z" />
        </g>
        <g id="Black-S">
            <path d="M665,146 C684.33,146 700,130.33 700,111 C700,91.67 684.33,76 665,76 C645.67,76 630,91.67 630,111 C630,130.33 645.67,146 665,146 Z M665,141.116 C648.367,141.116 634.884,127.633 634.884,111 C634.884,94.367 648.367,80.884 665,80.884 C681.633,80.884 695.116,94.367 695.116,111 C695.116,127.633 681.633,141.116 665,141.116 Z" />
            <path d="M665,89.023 C652.863,89.023 643.023,98.863 643.023,111 C643.023,112.349 644.117,113.442 645.465,113.442 C646.814,113.442 647.907,112.349 647.907,111 C647.907,101.56 655.56,93.907 665,93.907 C666.349,93.907 667.442,92.814 667.442,91.465 C667.442,90.117 666.349,89.023 665,89.023 Z" />
            <path d="M665,132.977 C677.137,132.977 686.977,123.137 686.977,111 C686.977,109.651 685.883,108.558 684.535,108.558 C683.186,108.558 682.093,109.651 682.093,111 C682.093,120.44 674.44,128.093 665,128.093 C663.651,128.093 662.558,129.186 662.558,130.535 C662.558,131.883 663.651,132.977 665,132.977 Z" />
            <path d="M665,119.953 C669.945,119.953 673.953,115.945 673.953,111 C673.953,106.055 669.945,102.047 665,102.047 C660.055,102.047 656.047,106.055 656.047,111 C656.047,115.945 660.055,119.953 665,119.953 Z M665,115.07 C662.752,115.07 660.93,113.248 660.93,111 C660.93,108.752 662.752,106.93 665,106.93 C667.248,106.93 669.07,108.752 669.07,111 C669.07,113.248 667.248,115.07 665,115.07 Z" />
        </g>
    </g>
</svg>