<?xml version="1.0" encoding="UTF-8"?>
<svg height="600" width="800" xmlns="http://www.w3.org/2000/svg" xmlns:xlink="http://www.w3.org/1999/xlink">
    <g id="Notes" font-family="'LucidaGrande', 'Lucida Grande', sans-serif" font-size="13">
        <rect fill="white" height="600.0" width="800.0" x="0.0" y="0.0" />
        <g font-size="13">
            <text x="18.0" y="176.0">Small</text>
            <text x="18.0" y="376.0">Medium</text>
            <text x="18.0" y="576.0">Large</text>
        </g>
        <g font-size="9">
            <text x="250.0" y="30.0">Ultralight</text>
            <text x="450.0" y="30.0">Regular</text>
            <text x="650.0" y="30.0">Black</text>
            <text id="template-version" fill="#505050" text-anchor="end" x="785.0" y="575.0">Template v.3.0</text>
            <a href="https://github.com/swhitty/SwiftDraw">
                <text fill="#505050" text-anchor="end" x="785.0" y="590.0">https://github.com/swhitty/SwiftDraw</text>
            </a>
        </g>
    </g>
    <g id="Guides" stroke="rgb(39, 170, 225)" stroke-width="0.5">
        <path id="Capline-S" d="M18,76 l800,0" />
        <path id="H-reference" d="M85,145.755 L87.685,145.755 L113.369,79.287 L114.052,79.287 L114.052,76 L112.148,76 L85,145.755 Z M95.693,121.536 L130.996,121.536 L130.263,119.313 L96.474,119.313 L95.693,121.536 Z M139.15,145.755 L141.787,145.755 L114.638,76 L113.466,76 L113.466,79.287 L139.15,145.755 Z" stroke="none" />
        <path id="Baseline-S" d="M18,146 l800,0" />
        <path id="left-margin-Ultralight-S" d="M221,56 l0,110" />
        <path id="right-margin-Ultralight-S" d="M309,56 l0,110" />
        <path id="left-margin-Regular-S" d="M421,56 l0,110" />
        <path id="right-margin-Regular-S" d="M509,56 l0,110" />
        <path id="left-margin-Black-S" d="M621,56 l0,110" />
        <path id="right-margin-Black-S" d="M709,56 l0,110" />
        <path id="Capline-M" d="M18,276 l800,0" />
        <path id="Baseline-M" d="M18,346 l800,0" />
        <path id="Capline-L" d="M18,476 l800,0" />
        <path id="Baseline-L" d="M18,546 l800,0" />
    </g>
    <g id="Symbols">
        <g id="Ultralight-S">
            <path d="M279.651,124.837 L250.349,124.837 L252.591,126.313 L241.196,99.86 L241.334,101.37 L244.59,87.126 L242.209,89.023 L287.791,89.023 L285.41,87.126 L288.666,101.37 L288.804,99.86 L277.409,126.313 L279.651,124.837 Z M279.651,129.721 C280.626,129.721 281.508,129.141 281.894,128.245 L293.289,101.792 C293.494,101.316 293.542,100.787 293.427,100.281 L290.171,86.037 C289.917,84.927 288.93,84.14 287.791,84.14 L242.209,84.14 C241.07,84.14 240.083,84.927 239.829,86.037 L236.573,100.281 C236.458,100.787 236.506,101.316 236.711,101.792 L248.106,128.245 C248.492,129.141 249.374,129.721 250.349,129.721 L279.651,129.721 Z" />
            <path d="M252.791,78.442 L252.791,86.581 C252.791,87.93 253.884,89.023 255.233,89.023 C256.581,89.023 257.674,87.93 257.674,86.581 L257.674,78.442 C257.674,77.093 256.581,76 255.233,76 C253.884,76 252.791,77.093 252.791,78.442 Z" />
            <path d="M272.326,78.442 L272.326,86.581 C272.326,87.93 273.419,89.023 274.767,89.023 C276.116,89.023 277.209,87.93 277.209,86.581 L277.209,78.442 C277.209,77.093 276.116,76 274.767,76 C273.419,76 272.326,77.093 272.326,78.442 Z" />
            <path d="M262.558,127.279 L262.558,143.558 C262.558,144.907 263.651,146 265,146 L291.047,146 C292.395,146 293.488,144.907 293.488,143.558 L293.488,131.563 C293.488,130.214 292.395,129.121 291.047,129.121 C289.698,129.121 288.605,130.214 288.605,131.563 L288.605,143.558 L291.047,141.116 L265,141.116 L267.442,143.558 L267.442,127.279 C267.442,125.93 266.349,124.837 265,124.837 C263.651,124.837 262.558,125.93 262.558,127.279 Z" />
            <path d="M255.233,108.558 L274.767,108.558 C276.116,108.558 277.209,107.465 277.209,106.116 C277.209,104.768 276.116,103.674 274.767,103.674 L255.233,103.674 C253.884,103.674 252.791,104.768 252.791,106.116 C252.791,107.465 253.884,108.558 255.233,108.558 Z" />
        </g>
        <g id="Regular-S">
            <path d="M479.651,124.837 L450.349,124.837 L452.591,126.313 L441.196,99.86 L441.334,101.37 L444.59,87.126 L442.209,89.023 L487.791,89.023 L485.41,87.126 L488.666,101.37 L488.804,99.86 L477.409,126.313 L479.651,124.837 Z M479.651,129.721 C480.626,129.721 481.508,129.141 481.894,128.245 L493.289,101.792 C493.494,101.316 493.542,100.787 493.427,100.281 L490.171,86.037 C489.917,84.927 488.93,84.14 487.791,84.14 L442.209,84.14 C441.07,84.14 440.083,84.927 439.829,86.037 L436.573,100.281 C436.458,100.787 436.506,101.316 436.711,101.792 L448.106,128.245 C448.492,129.141 449.374,129.721 450.349,129.721 L479.651,129.721 Z" />
            <path d="M452.791,78.442 L452.791,86.581 C452.791,87.93 453.884,89.023 455.233,89.023 C456.581,89.023 457.674,87.93 457.674,86.581 L457.674,78.442 C457.674,77.093 456.581,76 455.233,76 C453.884,76 452.791,77.093 452.791,78.442 Z" />
            <path d="M472.326,78.442 L472.326,86.581 C472.326,87.93 473.419,89.023 474.767,89.023 C476.116,89.023 477.209,87.93 477.209,86.581 L477.209,78.442 C477.209,77.093 476.116,76 474.767,76 C473.419,76 472.326,77.093 472.326,78.442 Z" />
            <path d="M462.558,127.279 L462.558,143.558 C462.558,144.907 463.651,146 465,146 L491.047,146 C492.395,146 493.488,144.907 493.488,143.558 L493.488,131.563 C493.488,130.214 492.395,129.121 491.047,129.121 C489.698,129.121 488.605,130.214 488.605,131.563 L488.605,143.558 L491.047,141.116 L465,141.116 L467.442,143.558 L467.442,127.279 C467.442,125.93 466.349,124.837 465,124.837 C463.651,124.837 462.558,125.93 462.558,127.279 Z" />
            <path d="M455.233,108.558 L474.767,108.558 C476.116,108.558 477.209,107.465 477.209,106.116 C477.209,104.768 476.116,103.674 474.767,103.674 L455.233,103.674 C453.884,103.674 452.791,104.768 452.791,106.116 C452.791,107.465 453.884,108.558 455.233,108.558 Z" />
        </g>
        <g id="Black-S">
            <path d="M679.651,124.837 L650.349,124.837 L652.591,126.313 L641.196,99.86 L641.334,101.37 L644.59,87.126 L642.209,89.023 L687.791,89.023 L685.41,87.126 L688.666,101.37 L688.804,99.86 L677.409,126.313 L679.651,124.837 Z M679.651,129.721 C680.626,129.721 681.508,129.141 681.894,128.245 L693.289,101.792 C693.494,101.316 693.542,100.787 693.427,100.281 L690.171,86.037 C689.917,84.927 688.93,84.14 687.791,84.14 L642.209,84.14 C641.07,84.14 640.083,84.927 639.829,86.037 L636.573,100.281 C636.458,100.787 636.506,101.316 636.711,101.792 L648.106,128.245 C648.492,129.141 649.374,129.721 650.349,129.721 L679.651,129.721 Z" />
            <path d="M652.791,78.442 L652.791,86.581 C652.791,87.93 653.884,89.023 655.233,89.023 C656.581,89.023 657.674,87.93 657.674,86.581 L657.674,78.442 C657.674,77.093 656.581,76 655.233,76 C653.884,76 652.791,77.093 652.791,78.442 Z" />
            <path d="M672.326,78.442 L672.326,86.581 C672.326,87.93 673.419,89.023 674.767,89.023 C676.116,89.023 677.209,87.93 677.209,86.581 L677.209,78.442 C677.209,77.093 676.116,76 674.767,76 C673.419,76 672.326,77.093 672.326,78.442 Z" />
            <path d="M662.558,127.279 L662.558,143.558 C662.558,144.907 663.651,146 665,146 L691.047,146 C692.395,146 693.488,144.907 693.488,143.558 L693.488,131.563 C693.488,130.214 692.395,129.121 691.047,129.121 C689.698,129.121 688.605,130.214 688.605,131.563 L688.605,143.558 L691.047,141.116 L665,141.116 L667.442,143.558 L667.442,127.279 C667.442,125.93 666.349,124.837 665,124.837 C663.651,124.837 662.558,125.93 662.558,127.279 Z" />
            <path d="M655.233,108.558 L674.767,108.558 C676.116,108.558 677.209,107.465 677.209,106.116 C677.209,104.768 676.116,103.674 674.767,103.674 L655.233,103.674 C653.884,103.674 652.791,104.768 652.791,106.116 C652.791,107.465 653.884,108.558 655.233,108.558 Z" />
        </g>
    </g>
</svg>