<?xml version="1.0" encoding="UTF-8"?>
<svg height="600" width="800" xmlns="http://www.w3.org/2000/svg" xmlns:xlink="http://www.w3.org/1999/xlink">
    <g id="Notes" font-family="'LucidaGrande', 'Lucida Grande', sans-serif" font-size="13">
        <rect fill="white" height="600.0" width="800.0" x="0.0" y="0.0" />
        <g font-size="13">
            <text x="18.0" y="176.0">Small</text>
            <text x="18.0" y="376.0">Medium</text>
            <text x="18.0" y="576.0">Large</text>
        </g>
        <g font-size="9">
            <text x="250.0" y="30.0">Ultralight</text>
            <text x="450.0" y="30.0">Regular</text>
            <text x="650.0" y="30.0">Black</text>
            <text id="template-version" fill="#505050" text-anchor="end" x="785.0" y="575.0">Template v.3.0</text>
            <a href="https://github.com/swhitty/SwiftDraw">
                <text fill="#505050" text-anchor="end" x="785.0" y="590.0">https://github.com/swhitty/SwiftDraw</text>
            </a>
        </g>
    </g>
    <g id="Guides" stroke="rgb(39, 170, 225)" stroke-width="0.5">
        <path id="Capline-S" d="M18,76 l800,0" />
        <path id="H-reference" d="M85,145.755 L87.685,145.755 L113.369,79.287 L114.052,79.287 L114.052,76 L112.148,76 L85,145.755 Z M95.693,121.536 L130.996,121.536 L130.263,119.313 L96.474,119.313 L95.693,121.536 Z M139.15,145.755 L141.787,145.755 L114.638,76 L113.466,76 L113.466,79.287 L139.15,145.755 Z" stroke="none" />
        <path id="Baseline-S" d="M18,146 l800,0" />
        <path id="left-margin-Ultralight-S" d="M220,56 l0,110" />
        <path id="right-margin-Ultralight-S" d="M310,56 l0,110" />
        <path id="left-margin-Regular-S" d="M420,56 l0,110" />
        <path id="right-margin-Regular-S" d="M510,56 l0,110" />
        <path id="left-margin-Black-S" d="M620,56 l0,110" />
        <path id="right-margin-Black-S" d="M710,56 l0,110" />
        <path id="Capline-M" d="M18,276 l800,0" />
        <path id="Baseline-M" d="M18,346 l800,0" />
        <path id="Capline-L" d="M18,476 l800,0" />
        <path id="Baseline-L" d="M18,546 l800,0" />
    </g>
    <g id="Symbols">
        <g id="Ultralight-S">
            <path d="M294.615,111 L294.615,137.923 C294.615,138.637 294.332,139.322 293.827,139.827 C293.322,140.332 292.637,140.615 291.923,140.615 L238.077,140.615 C237.363,140.615 236.678,140.332 236.173,139.827 C235.668,139.322 235.385,138.637 235.385,137.923 L235.385,84.077 C235.385,83.363 235.668,82.678 236.173,82.173 C236.678,81.668 237.363,81.385 238.077,81.385 L291.923,81.385 C292.637,81.385 293.322,81.668 293.827,82.173 C294.332,82.678 294.615,83.363 294.615,84.077 L294.615,111 Z M300,111 L300,84.077 C300,81.935 299.149,79.88 297.634,78.366 C296.12,76.851 294.065,76 291.923,76 L238.077,76 C235.935,76 233.88,76.851 232.366,78.366 C230.851,79.88 230,81.935 230,84.077 L230,137.923 C230,140.065 230.851,142.12 232.366,143.634 C233.88,145.149 235.935,146 238.077,146 L291.923,146 C294.065,146 296.12,145.149 297.634,143.634 C299.149,142.12 300,140.065 300,137.923 L300,111 Z" />
            <path d="M271.282,116.385 L271.282,127.154 L273.974,124.462 L256.026,124.462 L258.718,127.154 L258.718,116.385 L256.026,119.077 L273.974,119.077 L271.282,116.385 Z M276.667,116.385 C276.667,114.898 275.461,113.692 273.974,113.692 L256.026,113.692 C254.539,113.692 253.333,114.898 253.333,116.385 L253.333,127.154 C253.333,128.641 254.539,129.846 256.026,129.846 L273.974,129.846 C275.461,129.846 276.667,128.641 276.667,127.154 L276.667,116.385 Z" />
            <path d="M280.256,102.026 L280.256,116.385 L282.949,113.692 L247.051,113.692 L249.744,116.385 L249.744,102.026 L247.051,104.718 L282.949,104.718 L280.256,102.026 Z M285.641,102.026 C285.641,100.539 284.436,99.333 282.949,99.333 L247.051,99.333 C245.564,99.333 244.359,100.539 244.359,102.026 L244.359,116.385 C244.359,117.872 245.564,119.077 247.051,119.077 L282.949,119.077 C284.436,119.077 285.641,117.872 285.641,116.385 L285.641,102.026 Z" />
            <path d="M283.846,102.026 L283.846,94.846 C283.846,93.359 282.641,92.154 281.154,92.154 C279.667,92.154 278.462,93.359 278.462,94.846 L278.462,102.026 C278.462,103.513 279.667,104.718 281.154,104.718 C282.641,104.718 283.846,103.513 283.846,102.026 Z" />
            <path d="M273.077,102.026 L273.077,94.846 C273.077,93.359 271.872,92.154 270.385,92.154 C268.898,92.154 267.692,93.359 267.692,94.846 L267.692,102.026 C267.692,103.513 268.898,104.718 270.385,104.718 C271.872,104.718 273.077,103.513 273.077,102.026 Z" />
            <path d="M262.308,102.026 L262.308,94.846 C262.308,93.359 261.102,92.154 259.615,92.154 C258.128,92.154 256.923,93.359 256.923,94.846 L256.923,102.026 C256.923,103.513 258.128,104.718 259.615,104.718 C261.102,104.718 262.308,103.513 262.308,102.026 Z" />
            <path d="M251.538,102.026 L251.538,94.846 C251.538,93.359 250.333,92.154 248.846,92.154 C247.359,92.154 246.154,93.359 246.154,94.846 L246.154,102.026 C246.154,103.513 247.359,104.718 248.846,104.718 C250.333,104.718 251.538,103.513 251.538,102.026 Z" />
        </g>
        <g id="Regular-S">
            <path d="M494.615,111 L494.615,137.923 C494.615,138.637 494.332,139.322 493.827,139.827 C493.322,140.332 492.637,140.615 491.923,140.615 L438.077,140.615 C437.363,140.615 436.678,140.332 436.173,139.827 C435.668,139.322 435.385,138.637 435.385,137.923 L435.385,84.077 C435.385,83.363 435.668,82.678 436.173,82.173 C436.678,81.668 437.363,81.385 438.077,81.385 L491.923,81.385 C492.637,81.385 493.322,81.668 493.827,82.173 C494.332,82.678 494.615,83.363 494.615,84.077 L494.615,111 Z M500,111 L500,84.077 C500,81.935 499.149,79.88 497.634,78.366 C496.12,76.851 494.065,76 491.923,76 L438.077,76 C435.935,76 433.88,76.851 432.366,78.366 C430.851,79.88 430,81.935 430,84.077 L430,137.923 C430,140.065 430.851,142.12 432.366,143.634 C433.88,145.149 435.935,146 438.077,146 L491.923,146 C494.065,146 496.12,145.149 497.634,143.634 C499.149,142.12 500,140.065 500,137.923 L500,111 Z" />
            <path d="M471.282,116.385 L471.282,127.154 L473.974,124.462 L456.026,124.462 L458.718,127.154 L458.718,116.385 L456.026,119.077 L473.974,119.077 L471.282,116.385 Z M476.667,116.385 C476.667,114.898 475.461,113.692 473.974,113.692 L456.026,113.692 C454.539,113.692 453.333,114.898 453.333,116.385 L453.333,127.154 C453.333,128.641 454.539,129.846 456.026,129.846 L473.974,129.846 C475.461,129.846 476.667,128.641 476.667,127.154 L476.667,116.385 Z" />
            <path d="M480.256,102.026 L480.256,116.385 L482.949,113.692 L447.051,113.692 L449.744,116.385 L449.744,102.026 L447.051,104.718 L482.949,104.718 L480.256,102.026 Z M485.641,102.026 C485.641,100.539 484.436,99.333 482.949,99.333 L447.051,99.333 C445.564,99.333 444.359,100.539 444.359,102.026 L444.359,116.385 C444.359,117.872 445.564,119.077 447.051,119.077 L482.949,119.077 C484.436,119.077 485.641,117.872 485.641,116.385 L485.641,102.026 Z" />
            <path d="M483.846,102.026 L483.846,94.846 C483.846,93.359 482.641,92.154 481.154,92.154 C479.667,92.154 478.462,93.359 478.462,94.846 L478.462,102.026 C478.462,103.513 479.667,104.718 481.154,104.718 C482.641,104.718 483.846,103.513 483.846,102.026 Z" />
            <path d="M473.077,102.026 L473.077,94.846 C473.077,93.359 471.872,92.154 470.385,92.154 C468.898,92.154 467.692,93.359 467.692,94.846 L467.692,102.026 C467.692,103.513 468.898,104.718 470.385,104.718 C471.872,104.718 473.077,103.513 473.077,102.026 Z" />
            <path d="M462.308,102.026 L462.308,94.846 C462.308,93.359 461.102,92.154 459.615,92.154 C458.128,92.154 456.923,93.359 456.923,94.846 L456.923,102.026 C456.923,103.513 458.128,104.718 459.615,104.718 C461.102,104.718 462.308,103.513 462.308,102.026 Z" />
            <path d="M451.538,102.026 L451.538,94.846 C451.538,93.359 450.333,92.154 448.846,92.154 C447.359,92.154 446.154,93.359 446.154,94.846 L446.154,102.026 C446.154,103.513 447.359,104.718 448.846,104.718 C450.333,104.718 451.538,103.513 451.538,102.026 Z" />
        </g>
        <g id="Black-S">
            <path d="M694.615,111 L694.615,137.923 C694.615,138.637 694.332,139.322 693.827,139.827 C693.322,140.332 692.637,140.615 691.923,140.615 L638.077,140.615 C637.363,140.615 636.678,140.332 636.173,139.827 C635.668,139.322 635.385,138.637 635.385,137.923 L635.385,84.077 C635.385,83.363 635.668,82.678 636.173,82.173 C636.678,81.668 637.363,81.385 638.077,81.385 L691.923,81.385 C692.637,81.385 693.322,81.668 693.827,82.173 C694.332,82.678 694.615,83.363 694.615,84.077 L694.615,111 Z M700,111 L700,84.077 C700,81.935 699.149,79.88 697.634,78.366 C696.12,76.851 694.065,76 691.923,76 L638.077,76 C635.935,76 633.88,76.851 632.366,78.366 C630.851,79.88 630,81.935 630,84.077 L630,137.923 C630,140.065 630.851,142.12 632.366,143.634 C633.88,145.149 635.935,146 638.077,146 L691.923,146 C694.065,146 696.12,145.149 697.634,143.634 C699.149,142.12 700,140.065 700,137.923 L700,111 Z" />
            <path d="M671.282,116.385 L671.282,127.154 L673.974,124.462 L656.026,124.462 L658.718,127.154 L658.718,116.385 L656.026,119.077 L673.974,119.077 L671.282,116.385 Z M676.667,116.385 C676.667,114.898 675.461,113.692 673.974,113.692 L656.026,113.692 C654.539,113.692 653.333,114.898 653.333,116.385 L653.333,127.154 C653.333,128.641 654.539,129.846 656.026,129.846 L673.974,129.846 C675.461,129.846 676.667,128.641 676.667,127.154 L676.667,116.385 Z" />
            <path d="M680.256,102.026 L680.256,116.385 L682.949,113.692 L647.051,113.692 L649.744,116.385 L649.744,102.026 L647.051,104.718 L682.949,104.718 L680.256,102.026 Z M685.641,102.026 C685.641,100.539 684.436,99.333 682.949,99.333 L647.051,99.333 C645.564,99.333 644.359,100.539 644.359,102.026 L644.359,116.385 C644.359,117.872 645.564,119.077 647.051,119.077 L682.949,119.077 C684.436,119.077 685.641,117.872 685.641,116.385 L685.641,102.026 Z" />
            <path d="M683.846,102.026 L683.846,94.846 C683.846,93.359 682.641,92.154 681.154,92.154 C679.667,92.154 678.462,93.359 678.462,94.846 L678.462,102.026 C678.462,103.513 679.667,104.718 681.154,104.718 C682.641,104.718 683.846,103.513 683.846,102.026 Z" />
            <path d="M673.077,102.026 L673.077,94.846 C673.077,93.359 671.872,92.154 670.385,92.154 C668.898,92.154 667.692,93.359 667.692,94.846 L667.692,102.026 C667.692,103.513 668.898,104.718 670.385,104.718 C671.872,104.718 673.077,103.513 673.077,102.026 Z" />
            <path d="M662.308,102.026 L662.308,94.846 C662.308,93.359 661.102,92.154 659.615,92.154 C658.128,92.154 656.923,93.359 656.923,94.846 L656.923,102.026 C656.923,103.513 658.128,104.718 659.615,104.718 C661.102,104.718 662.308,103.513 662.308,102.026 Z" />
            <path d="M651.538,102.026 L651.538,94.846 C651.538,93.359 650.333,92.154 648.846,92.154 C647.359,92.154 646.154,93.359 646.154,94.846 L646.154,102.026 C646.154,103.513 647.359,104.718 648.846,104.718 C650.333,104.718 651.538,103.513 651.538,102.026 Z" />
        </g>
    </g>
</svg>