<?xml version="1.0" encoding="UTF-8"?>
<svg height="600" width="800" xmlns="http://www.w3.org/2000/svg" xmlns:xlink="http://www.w3.org/1999/xlink">
    <g id="Notes" font-family="'LucidaGrande', 'Lucida Grande', sans-serif" font-size="13">
        <rect fill="white" height="600.0" width="800.0" x="0.0" y="0.0" />
        <g font-size="13">
            <text x="18.0" y="176.0">Small</text>
            <text x="18.0" y="376.0">Medium</text>
            <text x="18.0" y="576.0">Large</text>
        </g>
        <g font-size="9">
            <text x="250.0" y="30.0">Ultralight</text>
            <text x="450.0" y="30.0">Regular</text>
            <text x="650.0" y="30.0">Black</text>
            <text id="template-version" fill="#505050" text-anchor="end" x="785.0" y="575.0">Template v.3.0</text>
            <a href="https://github.com/swhitty/SwiftDraw">
                <text fill="#505050" text-anchor="end" x="785.0" y="590.0">https://github.com/swhitty/SwiftDraw</text>
            </a>
        </g>
    </g>
    <g id="Guides" stroke="rgb(39, 170, 225)" stroke-width="0.5">
        <path id="Capline-S" d="M18,76 l800,0" />
        <path id="H-reference" d="M85,145.755 L87.685,145.755 L113.369,79.287 L114.052,79.287 L114.052,76 L112.148,76 L85,145.755 Z M95.693,121.536 L130.996,121.536 L130.263,119.313 L96.474,119.313 L95.693,121.536 Z M139.15,145.755 L141.787,145.755 L114.638,76 L113.466,76 L113.466,79.287 L139.15,145.755 Z" stroke="none" />
        <path id="Baseline-S" d="M18,146 l800,0" />
        <path id="left-margin-Ultralight-S" d="M212,56 l0,110" />
        <path id="right-margin-Ultralight-S" d="M318,56 l0,110" />
        <path id="left-margin-Regular-S" d="M412,56 l0,110" />
        <path id="right-margin-Regular-S" d="M518,56 l0,110" />
        <path id="left-margin-Black-S" d="M612,56 l0,110" />
        <path id="right-margin-Black-S" d="M718,56 l0,110" />
        <path id="Capline-M" d="M18,276 l800,0" />
        <path id="Baseline-M" d="M18,346 l800,0" />
        <path id="Capline-L" d="M18,476 l800,0" />
        <path id="Baseline-L" d="M18,546 l800,0" />
    </g>
    <g id="Symbols">
        <g id="Ultralight-S">
            <path d="M301,76 L229,76 C225.134,76 222,79.134 222,83 L222,139 C222,142.866 225.134,146 229,146 L301,146 C304.866,146 308,142.866 308,139 L308,83 C308,79.134 304.866,76 301,76 Z M301,82 C301.552,82 302,82.448 302,83 L302,139 C302,139.552 301.552,140 301,140 L229,140 C228.448,140 228,139.552 228,139 L228,83 C228,82.448 228.448,82 229,82 L301,82 Z" />
            <path d="M241,106 L245,106 C246.657,106 248,104.657 248,103 C248,101.343 246.657,100 245,100 L241,100 C239.343,100 238,101.343 238,103 C238,104.657 239.343,106 241,106 Z" />
            <path d="M259,106 L263,106 C264.657,106 266,104.657 266,103 C266,101.343 264.657,100 263,100 L259,100 C257.343,100 256,101.343 256,103 C256,104.657 257.343,106 259,106 Z" />
            <path d="M275,106 L289,106 C290.657,106 292,104.657 292,103 C292,101.343 290.657,100 289,100 L275,100 C273.343,100 272,101.343 272,103 C272,104.657 273.343,106 275,106 Z" />
            <path d="M241,124 L289,124 C290.657,124 292,122.657 292,121 C292,119.343 290.657,118 289,118 L241,118 C239.343,118 238,119.343 238,121 C238,122.657 239.343,124 241,124 Z" />
        </g>
        <g id="Regular-S">
            <path d="M501,76 L429,76 C425.134,76 422,79.134 422,83 L422,139 C422,142.866 425.134,146 429,146 L501,146 C504.866,146 508,142.866 508,139 L508,83 C508,79.134 504.866,76 501,76 Z M501,82 C501.552,82 502,82.448 502,83 L502,139 C502,139.552 501.552,140 501,140 L429,140 C428.448,140 428,139.552 428,139 L428,83 C428,82.448 428.448,82 429,82 L501,82 Z" />
            <path d="M441,106 L445,106 C446.657,106 448,104.657 448,103 C448,101.343 446.657,100 445,100 L441,100 C439.343,100 438,101.343 438,103 C438,104.657 439.343,106 441,106 Z" />
            <path d="M459,106 L463,106 C464.657,106 466,104.657 466,103 C466,101.343 464.657,100 463,100 L459,100 C457.343,100 456,101.343 456,103 C456,104.657 457.343,106 459,106 Z" />
            <path d="M475,106 L489,106 C490.657,106 492,104.657 492,103 C492,101.343 490.657,100 489,100 L475,100 C473.343,100 472,101.343 472,103 C472,104.657 473.343,106 475,106 Z" />
            <path d="M441,124 L489,124 C490.657,124 492,122.657 492,121 C492,119.343 490.657,118 489,118 L441,118 C439.343,118 438,119.343 438,121 C438,122.657 439.343,124 441,124 Z" />
        </g>
        <g id="Black-S">
            <path d="M701,76 L629,76 C625.134,76 622,79.134 622,83 L622,139 C622,142.866 625.134,146 629,146 L701,146 C704.866,146 708,142.866 708,139 L708,83 C708,79.134 704.866,76 701,76 Z M701,82 C701.552,82 702,82.448 702,83 L702,139 C702,139.552 701.552,140 701,140 L629,140 C628.448,140 628,139.552 628,139 L628,83 C628,82.448 628.448,82 629,82 L701,82 Z" />
            <path d="M641,106 L645,106 C646.657,106 648,104.657 648,103 C648,101.343 646.657,100 645,100 L641,100 C639.343,100 638,101.343 638,103 C638,104.657 639.343,106 641,106 Z" />
            <path d="M659,106 L663,106 C664.657,106 666,104.657 666,103 C666,101.343 664.657,100 663,100 L659,100 C657.343,100 656,101.343 656,103 C656,104.657 657.343,106 659,106 Z" />
            <path d="M675,106 L689,106 C690.657,106 692,104.657 692,103 C692,101.343 690.657,100 689,100 L675,100 C673.343,100 672,101.343 672,103 C672,104.657 673.343,106 675,106 Z" />
            <path d="M641,124 L689,124 C690.657,124 692,122.657 692,121 C692,119.343 690.657,118 689,118 L641,118 C639.343,118 638,119.343 638,121 C638,122.657 639.343,124 641,124 Z" />
        </g>
    </g>
</svg>