<?xml version="1.0" encoding="UTF-8"?>
<svg height="600" width="800" xmlns="http://www.w3.org/2000/svg" xmlns:xlink="http://www.w3.org/1999/xlink">
    <g id="Notes" font-family="'LucidaGrande', 'Lucida Grande', sans-serif" font-size="13">
        <rect fill="white" height="600.0" width="800.0" x="0.0" y="0.0" />
        <g font-size="13">
            <text x="18.0" y="176.0">Small</text>
            <text x="18.0" y="376.0">Medium</text>
            <text x="18.0" y="576.0">Large</text>
        </g>
        <g font-size="9">
            <text x="250.0" y="30.0">Ultralight</text>
            <text x="450.0" y="30.0">Regular</text>
            <text x="650.0" y="30.0">Black</text>
            <text id="template-version" fill="#505050" text-anchor="end" x="785.0" y="575.0">Template v.3.0</text>
            <a href="https://github.com/swhitty/SwiftDraw">
                <text fill="#505050" text-anchor="end" x="785.0" y="590.0">https://github.com/swhitty/SwiftDraw</text>
            </a>
        </g>
    </g>
    <g id="Guides" stroke="rgb(39, 170, 225)" stroke-width="0.5">
        <path id="Capline-S" d="M18,76 l800,0" />
        <path id="H-reference" d="M85,145.755 L87.685,145.755 L113.369,79.287 L114.052,79.287 L114.052,76 L112.148,76 L85,145.755 Z M95.693,121.536 L130.996,121.536 L130.263,119.313 L96.474,119.313 L95.693,121.536 Z M139.15,145.755 L141.787,145.755 L114.638,76 L113.466,76 L113.466,79.287 L139.15,145.755 Z" stroke="none" />
        <path id="Baseline-S" d="M18,146 l800,0" />
        <path id="left-margin-Ultralight-S" d="M220,56 l0,110" />
        <path id="right-margin-Ultralight-S" d="M310,56 l0,110" />
        <path id="left-margin-Regular-S" d="M420,56 l0,110" />
        <path id="right-margin-Regular-S" d="M510,56 l0,110" />
        <path id="left-margin-Black-S" d="M620,56 l0,110" />
        <path id="right-margin-Black-S" d="M710,56 l0,110" />
        <path id="Capline-M" d="M18,276 l800,0" />
        <path id="Baseline-M" d="M18,346 l800,0" />
        <path id="Capline-L" d="M18,476 l800,0" />
        <path id="Baseline-L" d="M18,546 l800,0" />
    </g>
    <g id="Symbols">
        <g id="Ultralight-S">
            <path d="M294.615,111 L294.615,137.923 C294.615,138.637 294.332,139.322 293.827,139.827 C293.322,140.332 292.637,140.615 291.923,140.615 L238.077,140.615 C237.363,140.615 236.678,140.332 236.173,139.827 C235.668,139.322 235.385,138.637 235.385,137.923 L235.385,84.077 C235.385,83.363 235.668,82.678 236.173,82.173 C236.678,81.668 237.363,81.385 238.077,81.385 L291.923,81.385 C292.637,81.385 293.322,81.668 293.827,82.173 C294.332,82.678 294.615,83.363 294.615,84.077 L294.615,111 Z M300,111 L300,84.077 C300,81.935 299.149,79.88 297.634,78.366 C296.12,76.851 294.065,76 291.923,76 L238.077,76 C235.935,76 233.88,76.851 232.366,78.366 C230.851,79.88 230,81.935 230,84.077 L230,137.923 C230,140.065 230.851,142.12 232.366,143.634 C233.88,145.149 235.935,146 238.077,146 L291.923,146 C294.065,146 296.12,145.149 297.634,143.634 C299.149,142.12 300,140.065 300,137.923 L300,111 Z" />
            <path d="M280.256,93.051 L280.256,128.949 L282.949,126.256 L247.051,126.256 L249.744,128.949 L249.744,93.051 L247.051,95.744 L282.949,95.744 L280.256,93.051 Z M285.641,93.051 C285.641,91.564 284.436,90.359 282.949,90.359 L247.051,90.359 C245.564,90.359 244.359,91.564 244.359,93.051 L244.359,128.949 C244.359,130.436 245.564,131.641 247.051,131.641 L282.949,131.641 C284.436,131.641 285.641,130.436 285.641,128.949 L285.641,93.051 Z" />
            <path d="M281.045,107.301 L261.301,127.045 C260.25,128.096 260.25,129.801 261.301,130.852 C262.353,131.904 264.057,131.904 265.109,130.852 L284.852,111.109 C285.904,110.057 285.904,108.353 284.852,107.301 C283.801,106.25 282.096,106.25 281.045,107.301 Z" />
            <path d="M264.891,91.148 L245.148,110.891 C244.096,111.943 244.096,113.647 245.148,114.699 C246.199,115.75 247.904,115.75 248.955,114.699 L268.699,94.955 C269.75,93.904 269.75,92.199 268.699,91.148 C267.647,90.096 265.943,90.096 264.891,91.148 Z" />
            <path d="M281.045,91.148 L245.148,127.045 C244.096,128.096 244.096,129.801 245.148,130.852 C246.199,131.904 247.904,131.904 248.955,130.852 L284.852,94.955 C285.904,93.904 285.904,92.199 284.852,91.148 C283.801,90.096 282.096,90.096 281.045,91.148 Z" />
            <path d="M244.359,107.41 L244.359,128.949 C244.359,130.436 245.564,131.641 247.051,131.641 L268.59,131.641 C270.077,131.641 271.282,130.436 271.282,128.949 C271.282,127.462 270.077,126.256 268.59,126.256 L247.051,126.256 L249.744,128.949 L249.744,107.41 C249.744,105.923 248.538,104.718 247.051,104.718 C245.564,104.718 244.359,105.923 244.359,107.41 Z" />
            <path d="M261.41,95.744 L282.949,95.744 L280.256,93.051 L280.256,114.59 C280.256,116.077 281.462,117.282 282.949,117.282 C284.436,117.282 285.641,116.077 285.641,114.59 L285.641,93.051 C285.641,91.564 284.436,90.359 282.949,90.359 L261.41,90.359 C259.923,90.359 258.718,91.564 258.718,93.051 C258.718,94.538 259.923,95.744 261.41,95.744 Z" />
        </g>
        <g id="Regular-S">
            <path d="M494.615,111 L494.615,137.923 C494.615,138.637 494.332,139.322 493.827,139.827 C493.322,140.332 492.637,140.615 491.923,140.615 L438.077,140.615 C437.363,140.615 436.678,140.332 436.173,139.827 C435.668,139.322 435.385,138.637 435.385,137.923 L435.385,84.077 C435.385,83.363 435.668,82.678 436.173,82.173 C436.678,81.668 437.363,81.385 438.077,81.385 L491.923,81.385 C492.637,81.385 493.322,81.668 493.827,82.173 C494.332,82.678 494.615,83.363 494.615,84.077 L494.615,111 Z M500,111 L500,84.077 C500,81.935 499.149,79.88 497.634,78.366 C496.12,76.851 494.065,76 491.923,76 L438.077,76 C435.935,76 433.88,76.851 432.366,78.366 C430.851,79.88 430,81.935 430,84.077 L430,137.923 C430,140.065 430.851,142.12 432.366,143.634 C433.88,145.149 435.935,146 438.077,146 L491.923,146 C494.065,146 496.12,145.149 497.634,143.634 C499.149,142.12 500,140.065 500,137.923 L500,111 Z" />
            <path d="M480.256,93.051 L480.256,128.949 L482.949,126.256 L447.051,126.256 L449.744,128.949 L449.744,93.051 L447.051,95.744 L482.949,95.744 L480.256,93.051 Z M485.641,93.051 C485.641,91.564 484.436,90.359 482.949,90.359 L447.051,90.359 C445.564,90.359 444.359,91.564 444.359,93.051 L444.359,128.949 C444.359,130.436 445.564,131.641 447.051,131.641 L482.949,131.641 C484.436,131.641 485.641,130.436 485.641,128.949 L485.641,93.051 Z" />
            <path d="M481.045,107.301 L461.301,127.045 C460.25,128.096 460.25,129.801 461.301,130.852 C462.353,131.904 464.057,131.904 465.109,130.852 L484.852,111.109 C485.904,110.057 485.904,108.353 484.852,107.301 C483.801,106.25 482.096,106.25 481.045,107.301 Z" />
            <path d="M464.891,91.148 L445.148,110.891 C444.096,111.943 444.096,113.647 445.148,114.699 C446.199,115.75 447.904,115.75 448.955,114.699 L468.699,94.955 C469.75,93.904 469.75,92.199 468.699,91.148 C467.647,90.096 465.943,90.096 464.891,91.148 Z" />
            <path d="M481.045,91.148 L445.148,127.045 C444.096,128.096 444.096,129.801 445.148,130.852 C446.199,131.904 447.904,131.904 448.955,130.852 L484.852,94.955 C485.904,93.904 485.904,92.199 484.852,91.148 C483.801,90.096 482.096,90.096 481.045,91.148 Z" />
            <path d="M444.359,107.41 L444.359,128.949 C444.359,130.436 445.564,131.641 447.051,131.641 L468.59,131.641 C470.077,131.641 471.282,130.436 471.282,128.949 C471.282,127.462 470.077,126.256 468.59,126.256 L447.051,126.256 L449.744,128.949 L449.744,107.41 C449.744,105.923 448.538,104.718 447.051,104.718 C445.564,104.718 444.359,105.923 444.359,107.41 Z" />
            <path d="M461.41,95.744 L482.949,95.744 L480.256,93.051 L480.256,114.59 C480.256,116.077 481.462,117.282 482.949,117.282 C484.436,117.282 485.641,116.077 485.641,114.59 L485.641,93.051 C485.641,91.564 484.436,90.359 482.949,90.359 L461.41,90.359 C459.923,90.359 458.718,91.564 458.718,93.051 C458.718,94.538 459.923,95.744 461.41,95.744 Z" />
        </g>
        <g id="Black-S">
            <path d="M694.615,111 L694.615,137.923 C694.615,138.637 694.332,139.322 693.827,139.827 C693.322,140.332 692.637,140.615 691.923,140.615 L638.077,140.615 C637.363,140.615 636.678,140.332 636.173,139.827 C635.668,139.322 635.385,138.637 635.385,137.923 L635.385,84.077 C635.385,83.363 635.668,82.678 636.173,82.173 C636.678,81.668 637.363,81.385 638.077,81.385 L691.923,81.385 C692.637,81.385 693.322,81.668 693.827,82.173 C694.332,82.678 694.615,83.363 694.615,84.077 L694.615,111 Z M700,111 L700,84.077 C700,81.935 699.149,79.88 697.634,78.366 C696.12,76.851 694.065,76 691.923,76 L638.077,76 C635.935,76 633.88,76.851 632.366,78.366 C630.851,79.88 630,81.935 630,84.077 L630,137.923 C630,140.065 630.851,142.12 632.366,143.634 C633.88,145.149 635.935,146 638.077,146 L691.923,146 C694.065,146 696.12,145.149 697.634,143.634 C699.149,142.12 700,140.065 700,137.923 L700,111 Z" />
            <path d="M680.256,93.051 L680.256,128.949 L682.949,126.256 L647.051,126.256 L649.744,128.949 L649.744,93.051 L647.051,95.744 L682.949,95.744 L680.256,93.051 Z M685.641,93.051 C685.641,91.564 684.436,90.359 682.949,90.359 L647.051,90.359 C645.564,90.359 644.359,91.564 644.359,93.051 L644.359,128.949 C644.359,130.436 645.564,131.641 647.051,131.641 L682.949,131.641 C684.436,131.641 685.641,130.436 685.641,128.949 L685.641,93.051 Z" />
            <path d="M681.045,107.301 L661.301,127.045 C660.25,128.096 660.25,129.801 661.301,130.852 C662.353,131.904 664.057,131.904 665.109,130.852 L684.852,111.109 C685.904,110.057 685.904,108.353 684.852,107.301 C683.801,106.25 682.096,106.25 681.045,107.301 Z" />
            <path d="M664.891,91.148 L645.148,110.891 C644.096,111.943 644.096,113.647 645.148,114.699 C646.199,115.75 647.904,115.75 648.955,114.699 L668.699,94.955 C669.75,93.904 669.75,92.199 668.699,91.148 C667.647,90.096 665.943,90.096 664.891,91.148 Z" />
            <path d="M681.045,91.148 L645.148,127.045 C644.096,128.096 644.096,129.801 645.148,130.852 C646.199,131.904 647.904,131.904 648.955,130.852 L684.852,94.955 C685.904,93.904 685.904,92.199 684.852,91.148 C683.801,90.096 682.096,90.096 681.045,91.148 Z" />
            <path d="M644.359,107.41 L644.359,128.949 C644.359,130.436 645.564,131.641 647.051,131.641 L668.59,131.641 C670.077,131.641 671.282,130.436 671.282,128.949 C671.282,127.462 670.077,126.256 668.59,126.256 L647.051,126.256 L649.744,128.949 L649.744,107.41 C649.744,105.923 648.538,104.718 647.051,104.718 C645.564,104.718 644.359,105.923 644.359,107.41 Z" />
            <path d="M661.41,95.744 L682.949,95.744 L680.256,93.051 L680.256,114.59 C680.256,116.077 681.462,117.282 682.949,117.282 C684.436,117.282 685.641,116.077 685.641,114.59 L685.641,93.051 C685.641,91.564 684.436,90.359 682.949,90.359 L661.41,90.359 C659.923,90.359 658.718,91.564 658.718,93.051 C658.718,94.538 659.923,95.744 661.41,95.744 Z" />
        </g>
    </g>
</svg>