<?xml version="1.0" encoding="UTF-8"?>
<svg height="600" width="800" xmlns="http://www.w3.org/2000/svg" xmlns:xlink="http://www.w3.org/1999/xlink">
    <g id="Notes" font-family="'LucidaGrande', 'Lucida Grande', sans-serif" font-size="13">
        <rect fill="white" height="600.0" width="800.0" x="0.0" y="0.0" />
        <g font-size="13">
            <text x="18.0" y="176.0">Small</text>
            <text x="18.0" y="376.0">Medium</text>
            <text x="18.0" y="576.0">Large</text>
        </g>
        <g font-size="9">
            <text x="250.0" y="30.0">Ultralight</text>
            <text x="450.0" y="30.0">Regular</text>
            <text x="650.0" y="30.0">Black</text>
            <text id="template-version" fill="#505050" text-anchor="end" x="785.0" y="575.0">Template v.3.0</text>
            <a href="https://github.com/swhitty/SwiftDraw">
                <text fill="#505050" text-anchor="end" x="785.0" y="590.0">https://github.com/swhitty/SwiftDraw</text>
            </a>
        </g>
    </g>
    <g id="Guides" stroke="rgb(39, 170, 225)" stroke-width="0.5">
        <path id="Capline-S" d="M18,76 l800,0" />
        <path id="H-reference" d="M85,145.755 L87.685,145.755 L113.369,79.287 L114.052,79.287 L114.052,76 L112.148,76 L85,145.755 Z M95.693,121.536 L130.996,121.536 L130.263,119.313 L96.474,119.313 L95.693,121.536 Z M139.15,145.755 L141.787,145.755 L114.638,76 L113.466,76 L113.466,79.287 L139.15,145.755 Z" stroke="none" />
        <path id="Baseline-S" d="M18,146 l800,0" />
        <path id="left-margin-Ultralight-S" d="M218.292,56 l0,110" />
        <path id="right-margin-Ultralight-S" d="M311.708,56 l0,110" />
        <path id="left-margin-Regular-S" d="M418.292,56 l0,110" />
        <path id="right-margin-Regular-S" d="M511.708,56 l0,110" />
        <path id="left-margin-Black-S" d="M618.292,56 l0,110" />
        <path id="right-margin-Black-S" d="M711.708,56 l0,110" />
        <path id="Capline-M" d="M18,276 l800,0" />
        <path id="Baseline-M" d="M18,346 l800,0" />
        <path id="Capline-L" d="M18,476 l800,0" />
        <path id="Baseline-L" d="M18,546 l800,0" />
    </g>
    <g id="Symbols">
        <g id="Ultralight-S">
            <path d="M229.636,142.277 L233.904,144.585 C237.396,146.472 241.385,146.472 244.876,144.585 C246.848,143.519 249.006,143.519 250.977,144.585 C254.469,146.472 258.458,146.472 261.949,144.585 C263.921,143.519 266.079,143.519 268.05,144.585 C271.542,146.472 275.531,146.472 279.023,144.585 C280.994,143.519 283.152,143.519 285.124,144.585 C288.615,146.472 292.604,146.472 296.096,144.585 L300.364,142.277 C301.608,141.605 302.072,140.051 301.399,138.807 C300.727,137.562 299.173,137.099 297.929,137.772 L293.66,140.079 C291.688,141.145 289.531,141.145 287.559,140.079 C284.068,138.191 280.079,138.191 276.587,140.079 C274.615,141.145 272.458,141.145 270.486,140.079 C266.994,138.191 263.005,138.191 259.514,140.079 C257.542,141.145 255.385,141.145 253.413,140.079 C249.921,138.191 245.932,138.191 242.441,140.079 C240.469,141.145 238.312,141.145 236.34,140.079 L232.071,137.772 C230.827,137.099 229.273,137.562 228.601,138.807 C227.928,140.051 228.392,141.605 229.636,142.277 Z" />
            <path d="M250.488,90.512 L250.488,78.561 C250.488,77.147 249.341,76 247.927,76 C246.512,76 245.366,77.147 245.366,78.561 L245.366,90.512 C245.366,91.927 246.512,93.073 247.927,93.073 C249.341,93.073 250.488,91.927 250.488,90.512 Z" />
            <path d="M279.512,90.512 L279.512,78.561 C279.512,77.147 278.366,76 276.951,76 C275.537,76 274.39,77.147 274.39,78.561 L274.39,90.512 C274.39,91.927 275.537,93.073 276.951,93.073 C278.366,93.073 279.512,91.927 279.512,90.512 Z" />
            <path d="M262.439,85.39 L262.439,78.561 C262.439,77.147 261.292,76 259.878,76 C258.464,76 257.317,77.147 257.317,78.561 L257.317,85.39 C257.317,86.805 258.464,87.951 259.878,87.951 C261.292,87.951 262.439,86.805 262.439,85.39 Z" />
            <path d="M291.463,85.39 L291.463,78.561 C291.463,77.147 290.317,76 288.902,76 C287.488,76 286.341,77.147 286.341,78.561 L286.341,85.39 C286.341,86.805 287.488,87.951 288.902,87.951 C290.317,87.951 291.463,86.805 291.463,85.39 Z" />
            <path d="M244.512,84.537 L258.171,84.537 C259.585,84.537 260.732,83.39 260.732,81.976 C260.732,80.561 259.585,79.415 258.171,79.415 L244.512,79.415 C243.098,79.415 241.951,80.561 241.951,81.976 C241.951,83.39 243.098,84.537 244.512,84.537 Z" />
            <path d="M273.537,84.537 L287.195,84.537 C288.609,84.537 289.756,83.39 289.756,81.976 C289.756,80.561 288.609,79.415 287.195,79.415 L273.537,79.415 C272.122,79.415 270.976,80.561 270.976,81.976 C270.976,83.39 272.122,84.537 273.537,84.537 Z" />
            <path d="M252.195,111 L252.195,124.659 C252.195,125.791 251.745,126.876 250.945,127.677 C250.145,128.477 249.059,128.927 247.927,128.927 C246.795,128.927 245.709,128.477 244.909,127.677 C244.108,126.876 243.659,125.791 243.659,124.659 L243.659,97.341 C243.659,96.209 244.108,95.124 244.909,94.323 C245.709,93.523 246.795,93.073 247.927,93.073 C249.059,93.073 250.145,93.523 250.945,94.323 C251.745,95.124 252.195,96.209 252.195,97.341 L252.195,111 Z M257.317,111 L257.317,97.341 C257.317,94.851 256.328,92.463 254.567,90.702 C252.806,88.941 250.417,87.951 247.927,87.951 C245.436,87.951 243.048,88.941 241.287,90.702 C239.526,92.463 238.537,94.851 238.537,97.341 L238.537,124.659 C238.537,127.149 239.526,129.537 241.287,131.298 C243.048,133.059 245.436,134.049 247.927,134.049 C250.417,134.049 252.806,133.059 254.567,131.298 C256.328,129.537 257.317,127.149 257.317,124.659 L257.317,111 Z" />
            <path d="M281.22,111 L281.22,124.659 C281.22,125.791 280.77,126.876 279.969,127.677 C279.169,128.477 278.083,128.927 276.951,128.927 C275.819,128.927 274.734,128.477 273.933,127.677 C273.133,126.876 272.683,125.791 272.683,124.659 L272.683,97.341 C272.683,96.209 273.133,95.124 273.933,94.323 C274.734,93.523 275.819,93.073 276.951,93.073 C278.083,93.073 279.169,93.523 279.969,94.323 C280.77,95.124 281.22,96.209 281.22,97.341 L281.22,111 Z M286.341,111 L286.341,97.341 C286.341,94.851 285.352,92.463 283.591,90.702 C281.83,88.941 279.442,87.951 276.951,87.951 C274.461,87.951 272.072,88.941 270.311,90.702 C268.55,92.463 267.561,94.851 267.561,97.341 L267.561,124.659 C267.561,127.149 268.55,129.537 270.311,131.298 C272.072,133.059 274.461,134.049 276.951,134.049 C279.442,134.049 281.83,133.059 283.591,131.298 C285.352,129.537 286.341,127.149 286.341,124.659 L286.341,111 Z" />
            <path d="M272.683,97.341 C272.683,94.984 274.594,93.073 276.951,93.073 C279.308,93.073 281.22,94.984 281.22,97.341 L281.22,104.171 L283.78,101.61 L270.122,101.61 L272.683,104.171 L272.683,97.341 Z M267.561,97.341 L267.561,104.171 C267.561,105.585 268.708,106.732 270.122,106.732 L283.78,106.732 C285.195,106.732 286.341,105.585 286.341,104.171 L286.341,97.341 C286.341,92.155 282.137,87.951 276.951,87.951 C271.765,87.951 267.561,92.155 267.561,97.341 Z" />
            <path d="M243.659,97.341 C243.659,94.984 245.57,93.073 247.927,93.073 C250.284,93.073 252.195,94.984 252.195,97.341 L252.195,104.171 L254.756,101.61 L241.098,101.61 L243.659,104.171 L243.659,97.341 Z M238.537,97.341 L238.537,104.171 C238.537,105.585 239.683,106.732 241.098,106.732 L254.756,106.732 C256.17,106.732 257.317,105.585 257.317,104.171 L257.317,97.341 C257.317,92.155 253.113,87.951 247.927,87.951 C242.741,87.951 238.537,92.155 238.537,97.341 Z" />
        </g>
        <g id="Regular-S">
            <path d="M429.636,142.277 L433.904,144.585 C437.396,146.472 441.385,146.472 444.876,144.585 C446.848,143.519 449.005,143.519 450.977,144.585 C454.469,146.472 458.458,146.472 461.949,144.585 C463.921,143.519 466.079,143.519 468.05,144.585 C471.542,146.472 475.531,146.472 479.023,144.585 C480.994,143.519 483.152,143.519 485.124,144.585 C488.615,146.472 492.604,146.472 496.096,144.585 L500.364,142.277 C501.608,141.605 502.072,140.051 501.399,138.807 C500.727,137.562 499.173,137.099 497.929,137.772 L493.66,140.079 C491.688,141.145 489.531,141.145 487.559,140.079 C484.068,138.191 480.079,138.191 476.587,140.079 C474.615,141.145 472.458,141.145 470.486,140.079 C466.994,138.191 463.005,138.191 459.514,140.079 C457.542,141.145 455.385,141.145 453.413,140.079 C449.921,138.191 445.932,138.191 442.441,140.079 C440.469,141.145 438.311,141.145 436.34,140.079 L432.071,137.772 C430.827,137.099 429.273,137.562 428.601,138.807 C427.928,140.051 428.392,141.605 429.636,142.277 Z" />
            <path d="M450.488,90.512 L450.488,78.561 C450.488,77.147 449.341,76 447.927,76 C446.512,76 445.366,77.147 445.366,78.561 L445.366,90.512 C445.366,91.927 446.512,93.073 447.927,93.073 C449.341,93.073 450.488,91.927 450.488,90.512 Z" />
            <path d="M479.512,90.512 L479.512,78.561 C479.512,77.147 478.366,76 476.951,76 C475.537,76 474.39,77.147 474.39,78.561 L474.39,90.512 C474.39,91.927 475.537,93.073 476.951,93.073 C478.366,93.073 479.512,91.927 479.512,90.512 Z" />
            <path d="M462.439,85.39 L462.439,78.561 C462.439,77.147 461.292,76 459.878,76 C458.464,76 457.317,77.147 457.317,78.561 L457.317,85.39 C457.317,86.805 458.464,87.951 459.878,87.951 C461.292,87.951 462.439,86.805 462.439,85.39 Z" />
            <path d="M491.463,85.39 L491.463,78.561 C491.463,77.147 490.317,76 488.902,76 C487.488,76 486.341,77.147 486.341,78.561 L486.341,85.39 C486.341,86.805 487.488,87.951 488.902,87.951 C490.317,87.951 491.463,86.805 491.463,85.39 Z" />
            <path d="M444.512,84.537 L458.171,84.537 C459.585,84.537 460.732,83.39 460.732,81.976 C460.732,80.561 459.585,79.415 458.171,79.415 L444.512,79.415 C443.098,79.415 441.951,80.561 441.951,81.976 C441.951,83.39 443.098,84.537 444.512,84.537 Z" />
            <path d="M473.537,84.537 L487.195,84.537 C488.609,84.537 489.756,83.39 489.756,81.976 C489.756,80.561 488.609,79.415 487.195,79.415 L473.537,79.415 C472.122,79.415 470.976,80.561 470.976,81.976 C470.976,83.39 472.122,84.537 473.537,84.537 Z" />
            <path d="M452.195,111 L452.195,124.659 C452.195,125.791 451.745,126.876 450.945,127.677 C450.145,128.477 449.059,128.927 447.927,128.927 C446.795,128.927 445.709,128.477 444.909,127.677 C444.108,126.876 443.659,125.791 443.659,124.659 L443.659,97.341 C443.659,96.209 444.108,95.124 444.909,94.323 C445.709,93.523 446.795,93.073 447.927,93.073 C449.059,93.073 450.145,93.523 450.945,94.323 C451.745,95.124 452.195,96.209 452.195,97.341 L452.195,111 Z M457.317,111 L457.317,97.341 C457.317,94.851 456.328,92.463 454.567,90.702 C452.806,88.941 450.417,87.951 447.927,87.951 C445.436,87.951 443.048,88.941 441.287,90.702 C439.526,92.463 438.537,94.851 438.537,97.341 L438.537,124.659 C438.537,127.149 439.526,129.537 441.287,131.298 C443.048,133.059 445.436,134.049 447.927,134.049 C450.417,134.049 452.806,133.059 454.567,131.298 C456.328,129.537 457.317,127.149 457.317,124.659 L457.317,111 Z" />
            <path d="M481.22,111 L481.22,124.659 C481.22,125.791 480.77,126.876 479.969,127.677 C479.169,128.477 478.083,128.927 476.951,128.927 C475.819,128.927 474.734,128.477 473.933,127.677 C473.133,126.876 472.683,125.791 472.683,124.659 L472.683,97.341 C472.683,96.209 473.133,95.124 473.933,94.323 C474.734,93.523 475.819,93.073 476.951,93.073 C478.083,93.073 479.169,93.523 479.969,94.323 C480.77,95.124 481.22,96.209 481.22,97.341 L481.22,111 Z M486.341,111 L486.341,97.341 C486.341,94.851 485.352,92.463 483.591,90.702 C481.83,88.941 479.442,87.951 476.951,87.951 C474.461,87.951 472.072,88.941 470.311,90.702 C468.55,92.463 467.561,94.851 467.561,97.341 L467.561,124.659 C467.561,127.149 468.55,129.537 470.311,131.298 C472.072,133.059 474.461,134.049 476.951,134.049 C479.442,134.049 481.83,133.059 483.591,131.298 C485.352,129.537 486.341,127.149 486.341,124.659 L486.341,111 Z" />
            <path d="M472.683,97.341 C472.683,94.984 474.594,93.073 476.951,93.073 C479.308,93.073 481.22,94.984 481.22,97.341 L481.22,104.171 L483.78,101.61 L470.122,101.61 L472.683,104.171 L472.683,97.341 Z M467.561,97.341 L467.561,104.171 C467.561,105.585 468.708,106.732 470.122,106.732 L483.78,106.732 C485.195,106.732 486.341,105.585 486.341,104.171 L486.341,97.341 C486.341,92.155 482.137,87.951 476.951,87.951 C471.765,87.951 467.561,92.155 467.561,97.341 Z" />
            <path d="M443.659,97.341 C443.659,94.984 445.57,93.073 447.927,93.073 C450.284,93.073 452.195,94.984 452.195,97.341 L452.195,104.171 L454.756,101.61 L441.098,101.61 L443.659,104.171 L443.659,97.341 Z M438.537,97.341 L438.537,104.171 C438.537,105.585 439.683,106.732 441.098,106.732 L454.756,106.732 C456.17,106.732 457.317,105.585 457.317,104.171 L457.317,97.341 C457.317,92.155 453.113,87.951 447.927,87.951 C442.741,87.951 438.537,92.155 438.537,97.341 Z" />
        </g>
        <g id="Black-S">
            <path d="M629.636,142.277 L633.904,144.585 C637.396,146.472 641.385,146.472 644.876,144.585 C646.848,143.519 649.006,143.519 650.977,144.585 C654.469,146.472 658.458,146.472 661.949,144.585 C663.921,143.519 666.079,143.519 668.05,144.585 C671.542,146.472 675.531,146.472 679.023,144.585 C680.995,143.519 683.152,143.519 685.124,144.585 C688.615,146.472 692.604,146.472 696.096,144.585 L700.364,142.277 C701.608,141.605 702.072,140.051 701.399,138.807 C700.727,137.562 699.173,137.099 697.929,137.772 L693.66,140.079 C691.689,141.145 689.531,141.145 687.559,140.079 C684.068,138.191 680.079,138.191 676.587,140.079 C674.615,141.145 672.458,141.145 670.486,140.079 C666.995,138.191 663.006,138.191 659.514,140.079 C657.542,141.145 655.385,141.145 653.413,140.079 C649.921,138.191 645.932,138.191 642.441,140.079 C640.469,141.145 638.312,141.145 636.34,140.079 L632.072,137.772 C630.827,137.099 629.273,137.562 628.601,138.807 C627.928,140.051 628.392,141.605 629.636,142.277 Z" />
            <path d="M650.488,90.512 L650.488,78.561 C650.488,77.147 649.341,76 647.927,76 C646.512,76 645.366,77.147 645.366,78.561 L645.366,90.512 C645.366,91.927 646.512,93.073 647.927,93.073 C649.341,93.073 650.488,91.927 650.488,90.512 Z" />
            <path d="M679.512,90.512 L679.512,78.561 C679.512,77.147 678.366,76 676.951,76 C675.537,76 674.39,77.147 674.39,78.561 L674.39,90.512 C674.39,91.927 675.537,93.073 676.951,93.073 C678.366,93.073 679.512,91.927 679.512,90.512 Z" />
            <path d="M662.439,85.39 L662.439,78.561 C662.439,77.147 661.292,76 659.878,76 C658.464,76 657.317,77.147 657.317,78.561 L657.317,85.39 C657.317,86.805 658.464,87.951 659.878,87.951 C661.292,87.951 662.439,86.805 662.439,85.39 Z" />
            <path d="M691.463,85.39 L691.463,78.561 C691.463,77.147 690.317,76 688.902,76 C687.488,76 686.341,77.147 686.341,78.561 L686.341,85.39 C686.341,86.805 687.488,87.951 688.902,87.951 C690.317,87.951 691.463,86.805 691.463,85.39 Z" />
            <path d="M644.512,84.537 L658.171,84.537 C659.585,84.537 660.732,83.39 660.732,81.976 C660.732,80.561 659.585,79.415 658.171,79.415 L644.512,79.415 C643.098,79.415 641.951,80.561 641.951,81.976 C641.951,83.39 643.098,84.537 644.512,84.537 Z" />
            <path d="M673.537,84.537 L687.195,84.537 C688.61,84.537 689.756,83.39 689.756,81.976 C689.756,80.561 688.61,79.415 687.195,79.415 L673.537,79.415 C672.122,79.415 670.976,80.561 670.976,81.976 C670.976,83.39 672.122,84.537 673.537,84.537 Z" />
            <path d="M652.195,111 L652.195,124.659 C652.195,125.791 651.745,126.876 650.945,127.677 C650.145,128.477 649.059,128.927 647.927,128.927 C646.795,128.927 645.709,128.477 644.909,127.677 C644.108,126.876 643.659,125.791 643.659,124.659 L643.659,97.341 C643.659,96.209 644.108,95.124 644.909,94.323 C645.709,93.523 646.795,93.073 647.927,93.073 C649.059,93.073 650.145,93.523 650.945,94.323 C651.745,95.124 652.195,96.209 652.195,97.341 L652.195,111 Z M657.317,111 L657.317,97.341 C657.317,94.851 656.328,92.463 654.567,90.702 C652.806,88.941 650.417,87.951 647.927,87.951 C645.436,87.951 643.048,88.941 641.287,90.702 C639.526,92.463 638.537,94.851 638.537,97.341 L638.537,124.659 C638.537,127.149 639.526,129.537 641.287,131.298 C643.048,133.059 645.436,134.049 647.927,134.049 C650.417,134.049 652.806,133.059 654.567,131.298 C656.328,129.537 657.317,127.149 657.317,124.659 L657.317,111 Z" />
            <path d="M681.22,111 L681.22,124.659 C681.22,125.791 680.77,126.876 679.969,127.677 C679.169,128.477 678.083,128.927 676.951,128.927 C675.819,128.927 674.734,128.477 673.933,127.677 C673.133,126.876 672.683,125.791 672.683,124.659 L672.683,97.341 C672.683,96.209 673.133,95.124 673.933,94.323 C674.734,93.523 675.819,93.073 676.951,93.073 C678.083,93.073 679.169,93.523 679.969,94.323 C680.77,95.124 681.22,96.209 681.22,97.341 L681.22,111 Z M686.341,111 L686.341,97.341 C686.341,94.851 685.352,92.463 683.591,90.702 C681.83,88.941 679.442,87.951 676.951,87.951 C674.461,87.951 672.072,88.941 670.311,90.702 C668.55,92.463 667.561,94.851 667.561,97.341 L667.561,124.659 C667.561,127.149 668.55,129.537 670.311,131.298 C672.072,133.059 674.461,134.049 676.951,134.049 C679.442,134.049 681.83,133.059 683.591,131.298 C685.352,129.537 686.341,127.149 686.341,124.659 L686.341,111 Z" />
            <path d="M672.683,97.341 C672.683,94.984 674.594,93.073 676.951,93.073 C679.308,93.073 681.22,94.984 681.22,97.341 L681.22,104.171 L683.781,101.61 L670.122,101.61 L672.683,104.171 L672.683,97.341 Z M667.561,97.341 L667.561,104.171 C667.561,105.585 668.708,106.732 670.122,106.732 L683.781,106.732 C685.195,106.732 686.341,105.585 686.341,104.171 L686.341,97.341 C686.341,92.155 682.137,87.951 676.951,87.951 C671.765,87.951 667.561,92.155 667.561,97.341 Z" />
            <path d="M643.659,97.341 C643.659,94.984 645.57,93.073 647.927,93.073 C650.284,93.073 652.195,94.984 652.195,97.341 L652.195,104.171 L654.756,101.61 L641.098,101.61 L643.659,104.171 L643.659,97.341 Z M638.537,97.341 L638.537,104.171 C638.537,105.585 639.683,106.732 641.098,106.732 L654.756,106.732 C656.171,106.732 657.317,105.585 657.317,104.171 L657.317,97.341 C657.317,92.155 653.113,87.951 647.927,87.951 C642.741,87.951 638.537,92.155 638.537,97.341 Z" />
        </g>
    </g>
</svg>