<?xml version="1.0" encoding="UTF-8"?>
<svg height="600" width="800" xmlns="http://www.w3.org/2000/svg" xmlns:xlink="http://www.w3.org/1999/xlink">
    <g id="Notes" font-family="'LucidaGrande', 'Lucida Grande', sans-serif" font-size="13">
        <rect fill="white" height="600.0" width="800.0" x="0.0" y="0.0" />
        <g font-size="13">
            <text x="18.0" y="176.0">Small</text>
            <text x="18.0" y="376.0">Medium</text>
            <text x="18.0" y="576.0">Large</text>
        </g>
        <g font-size="9">
            <text x="250.0" y="30.0">Ultralight</text>
            <text x="450.0" y="30.0">Regular</text>
            <text x="650.0" y="30.0">Black</text>
            <text id="template-version" fill="#505050" text-anchor="end" x="785.0" y="575.0">Template v.3.0</text>
            <a href="https://github.com/swhitty/SwiftDraw">
                <text fill="#505050" text-anchor="end" x="785.0" y="590.0">https://github.com/swhitty/SwiftDraw</text>
            </a>
        </g>
    </g>
    <g id="Guides" stroke="rgb(39, 170, 225)" stroke-width="0.5">
        <path id="Capline-S" d="M18,76 l800,0" />
        <path id="H-reference" d="M85,145.755 L87.685,145.755 L113.369,79.287 L114.052,79.287 L114.052,76 L112.148,76 L85,145.755 Z M95.693,121.536 L130.996,121.536 L130.263,119.313 L96.474,119.313 L95.693,121.536 Z M139.15,145.755 L141.787,145.755 L114.638,76 L113.466,76 L113.466,79.287 L139.15,145.755 Z" stroke="none" />
        <path id="Baseline-S" d="M18,146 l800,0" />
        <path id="left-margin-Ultralight-S" d="M221,56 l0,110" />
        <path id="right-margin-Ultralight-S" d="M309,56 l0,110" />
        <path id="left-margin-Regular-S" d="M421,56 l0,110" />
        <path id="right-margin-Regular-S" d="M509,56 l0,110" />
        <path id="left-margin-Black-S" d="M621,56 l0,110" />
        <path id="right-margin-Black-S" d="M709,56 l0,110" />
        <path id="Capline-M" d="M18,276 l800,0" />
        <path id="Baseline-M" d="M18,346 l800,0" />
        <path id="Capline-L" d="M18,476 l800,0" />
        <path id="Baseline-L" d="M18,546 l800,0" />
    </g>
    <g id="Symbols">
        <g id="Ultralight-S">
            <path d="M265,137.667 C282.341,137.667 295.833,124.477 295.833,106.833 C295.833,105.453 294.714,104.333 293.333,104.333 L236.667,104.333 C235.286,104.333 234.167,105.453 234.167,106.833 C234.167,124.477 247.659,137.667 265,137.667 Z M265,132.667 C250.395,132.667 239.167,121.69 239.167,106.833 L236.667,109.333 L293.333,109.333 L290.833,106.833 C290.833,121.69 279.605,132.667 265,132.667 Z" />
            <path d="M252.628,132.709 L249.295,142.709 C248.755,144.328 249.96,146 251.667,146 L278.333,146 C280.04,146 281.245,144.328 280.705,142.709 L277.372,132.709 C276.935,131.4 275.519,130.692 274.209,131.128 C272.9,131.565 272.192,132.981 272.628,134.291 L275.962,144.291 L278.333,141 L251.667,141 L254.038,144.291 L257.372,134.291 C257.808,132.981 257.1,131.565 255.791,131.128 C254.481,130.692 253.065,131.4 252.628,132.709 Z" />
            <path d="M242.5,86.833 L242.5,93.5 C242.5,94.881 243.619,96 245,96 C246.381,96 247.5,94.881 247.5,93.5 L247.5,86.833 C247.5,85.453 246.381,84.333 245,84.333 C243.619,84.333 242.5,85.453 242.5,86.833 Z" />
            <path d="M282.5,86.833 L282.5,93.5 C282.5,94.881 283.619,96 285,96 C286.381,96 287.5,94.881 287.5,93.5 L287.5,86.833 C287.5,85.453 286.381,84.333 285,84.333 C283.619,84.333 282.5,85.453 282.5,86.833 Z" />
            <path d="M262.5,78.5 L262.5,93.5 C262.5,94.881 263.619,96 265,96 C266.381,96 267.5,94.881 267.5,93.5 L267.5,78.5 C267.5,77.119 266.381,76 265,76 C263.619,76 262.5,77.119 262.5,78.5 Z" />
        </g>
        <g id="Regular-S">
            <path d="M465,137.667 C482.341,137.667 495.833,124.477 495.833,106.833 C495.833,105.453 494.714,104.333 493.333,104.333 L436.667,104.333 C435.286,104.333 434.167,105.453 434.167,106.833 C434.167,124.477 447.659,137.667 465,137.667 Z M465,132.667 C450.395,132.667 439.167,121.69 439.167,106.833 L436.667,109.333 L493.333,109.333 L490.833,106.833 C490.833,121.69 479.605,132.667 465,132.667 Z" />
            <path d="M452.628,132.709 L449.295,142.709 C448.755,144.328 449.96,146 451.667,146 L478.333,146 C480.04,146 481.245,144.328 480.705,142.709 L477.372,132.709 C476.935,131.4 475.519,130.692 474.209,131.128 C472.9,131.565 472.192,132.981 472.628,134.291 L475.962,144.291 L478.333,141 L451.667,141 L454.038,144.291 L457.372,134.291 C457.808,132.981 457.1,131.565 455.791,131.128 C454.481,130.692 453.065,131.4 452.628,132.709 Z" />
            <path d="M442.5,86.833 L442.5,93.5 C442.5,94.881 443.619,96 445,96 C446.381,96 447.5,94.881 447.5,93.5 L447.5,86.833 C447.5,85.453 446.381,84.333 445,84.333 C443.619,84.333 442.5,85.453 442.5,86.833 Z" />
            <path d="M482.5,86.833 L482.5,93.5 C482.5,94.881 483.619,96 485,96 C486.381,96 487.5,94.881 487.5,93.5 L487.5,86.833 C487.5,85.453 486.381,84.333 485,84.333 C483.619,84.333 482.5,85.453 482.5,86.833 Z" />
            <path d="M462.5,78.5 L462.5,93.5 C462.5,94.881 463.619,96 465,96 C466.381,96 467.5,94.881 467.5,93.5 L467.5,78.5 C467.5,77.119 466.381,76 465,76 C463.619,76 462.5,77.119 462.5,78.5 Z" />
        </g>
        <g id="Black-S">
            <path d="M665,137.667 C682.341,137.667 695.833,124.477 695.833,106.833 C695.833,105.453 694.714,104.333 693.333,104.333 L636.667,104.333 C635.286,104.333 634.167,105.453 634.167,106.833 C634.167,124.477 647.659,137.667 665,137.667 Z M665,132.667 C650.395,132.667 639.167,121.69 639.167,106.833 L636.667,109.333 L693.333,109.333 L690.833,106.833 C690.833,121.69 679.605,132.667 665,132.667 Z" />
            <path d="M652.628,132.709 L649.295,142.709 C648.755,144.328 649.96,146 651.667,146 L678.333,146 C680.04,146 681.245,144.328 680.705,142.709 L677.372,132.709 C676.935,131.4 675.519,130.692 674.209,131.128 C672.9,131.565 672.192,132.981 672.628,134.291 L675.962,144.291 L678.333,141 L651.667,141 L654.038,144.291 L657.372,134.291 C657.808,132.981 657.1,131.565 655.791,131.128 C654.481,130.692 653.065,131.4 652.628,132.709 Z" />
            <path d="M642.5,86.833 L642.5,93.5 C642.5,94.881 643.619,96 645,96 C646.381,96 647.5,94.881 647.5,93.5 L647.5,86.833 C647.5,85.453 646.381,84.333 645,84.333 C643.619,84.333 642.5,85.453 642.5,86.833 Z" />
            <path d="M682.5,86.833 L682.5,93.5 C682.5,94.881 683.619,96 685,96 C686.381,96 687.5,94.881 687.5,93.5 L687.5,86.833 C687.5,85.453 686.381,84.333 685,84.333 C683.619,84.333 682.5,85.453 682.5,86.833 Z" />
            <path d="M662.5,78.5 L662.5,93.5 C662.5,94.881 663.619,96 665,96 C666.381,96 667.5,94.881 667.5,93.5 L667.5,78.5 C667.5,77.119 666.381,76 665,76 C663.619,76 662.5,77.119 662.5,78.5 Z" />
        </g>
    </g>
</svg>