<?xml version="1.0" encoding="UTF-8"?>
<svg height="600" width="800" xmlns="http://www.w3.org/2000/svg" xmlns:xlink="http://www.w3.org/1999/xlink">
    <g id="Notes" font-family="'LucidaGrande', 'Lucida Grande', sans-serif" font-size="13">
        <rect fill="white" height="600.0" width="800.0" x="0.0" y="0.0" />
        <g font-size="13">
            <text x="18.0" y="176.0">Small</text>
            <text x="18.0" y="376.0">Medium</text>
            <text x="18.0" y="576.0">Large</text>
        </g>
        <g font-size="9">
            <text x="250.0" y="30.0">Ultralight</text>
            <text x="450.0" y="30.0">Regular</text>
            <text x="650.0" y="30.0">Black</text>
            <text id="template-version" fill="#505050" text-anchor="end" x="785.0" y="575.0">Template v.3.0</text>
            <a href="https://github.com/swhitty/SwiftDraw">
                <text fill="#505050" text-anchor="end" x="785.0" y="590.0">https://github.com/swhitty/SwiftDraw</text>
            </a>
        </g>
    </g>
    <g id="Guides" stroke="rgb(39, 170, 225)" stroke-width="0.5">
        <path id="Capline-S" d="M18,76 l800,0" />
        <path id="H-reference" d="M85,145.755 L87.685,145.755 L113.369,79.287 L114.052,79.287 L114.052,76 L112.148,76 L85,145.755 Z M95.693,121.536 L130.996,121.536 L130.263,119.313 L96.474,119.313 L95.693,121.536 Z M139.15,145.755 L141.787,145.755 L114.638,76 L113.466,76 L113.466,79.287 L139.15,145.755 Z" stroke="none" />
        <path id="Baseline-S" d="M18,146 l800,0" />
        <path id="left-margin-Ultralight-S" d="M213.64,56 l0,110" />
        <path id="right-margin-Ultralight-S" d="M316.36,56 l0,110" />
        <path id="left-margin-Regular-S" d="M413.64,56 l0,110" />
        <path id="right-margin-Regular-S" d="M516.36,56 l0,110" />
        <path id="left-margin-Black-S" d="M613.64,56 l0,110" />
        <path id="right-margin-Black-S" d="M716.36,56 l0,110" />
        <path id="Capline-M" d="M18,276 l800,0" />
        <path id="Baseline-M" d="M18,346 l800,0" />
        <path id="Capline-L" d="M18,476 l800,0" />
        <path id="Baseline-L" d="M18,546 l800,0" />
    </g>
    <g id="Symbols">
        <g id="Ultralight-S">
            <path d="M256.516,82.369 L303.178,82.369 C304.935,82.369 306.36,80.945 306.36,79.188 C306.36,77.431 304.935,76.006 303.178,76.006 L256.516,76.006 C254.759,76.006 253.334,77.431 253.334,79.188 C253.334,80.945 254.759,82.369 256.516,82.369 Z" />
            <path d="M256.516,103.58 L303.178,103.58 C304.935,103.58 306.36,102.155 306.36,100.398 C306.36,98.641 304.935,97.217 303.178,97.217 L256.516,97.217 C254.759,97.217 253.334,98.641 253.334,100.398 C253.334,102.155 254.759,103.58 256.516,103.58 Z" />
            <path d="M256.516,124.79 L303.178,124.79 C304.935,124.79 306.36,123.365 306.36,121.608 C306.36,119.851 304.935,118.427 303.178,118.427 L256.516,118.427 C254.759,118.427 253.334,119.851 253.334,121.608 C253.334,123.365 254.759,124.79 256.516,124.79 Z" />
            <path d="M256.516,146 L303.178,146 C304.935,146 306.36,144.576 306.36,142.818 C306.36,141.061 304.935,139.637 303.178,139.637 L256.516,139.637 C254.759,139.637 253.334,141.061 253.334,142.818 C253.334,144.576 254.759,146 256.516,146 Z" />
            <path d="M226.822,124.79 L239.548,124.79 L236.366,121.608 L236.366,127.971 L237.298,125.722 L224.572,138.448 C223.975,139.044 223.64,139.854 223.64,140.697 L223.64,142.818 C223.64,144.576 225.065,146 226.822,146 L239.548,146 C241.305,146 242.729,144.576 242.729,142.818 C242.729,141.061 241.305,139.637 239.548,139.637 L226.822,139.637 L226.822,142.818 L230.003,142.818 L230.003,140.697 L226.822,140.697 L229.071,142.947 L241.797,130.221 C242.394,129.624 242.729,128.815 242.729,127.971 L242.729,121.608 C242.729,119.851 241.305,118.427 239.548,118.427 L226.822,118.427 C225.065,118.427 223.64,119.851 223.64,121.608 C223.64,123.365 225.065,124.79 226.822,124.79 Z" />
            <path d="M231.192,85.68 L235.434,81.438 L230.003,79.188 L230.003,100.398 C230.003,102.155 231.428,103.58 233.185,103.58 C234.942,103.58 236.366,102.155 236.366,100.398 L236.366,79.188 C236.366,76.353 232.939,74.934 230.935,76.938 L226.693,81.18 C225.451,82.423 225.451,84.437 226.693,85.68 C227.935,86.922 229.95,86.922 231.192,85.68 Z M233.185,97.217 L228.943,97.217 C227.186,97.217 225.761,98.641 225.761,100.398 C225.761,102.155 227.186,103.58 228.943,103.58 L233.185,103.58 C234.942,103.58 236.366,102.155 236.366,100.398 C236.366,98.641 234.942,97.217 233.185,97.217 Z M233.185,103.58 L237.427,103.58 C239.184,103.58 240.608,102.155 240.608,100.398 C240.608,98.641 239.184,97.217 237.427,97.217 L233.185,97.217 C231.428,97.217 230.003,98.641 230.003,100.398 C230.003,102.155 231.428,103.58 233.185,103.58 Z" />
        </g>
        <g id="Regular-S">
            <path d="M456.516,82.369 L503.178,82.369 C504.935,82.369 506.36,80.945 506.36,79.188 C506.36,77.431 504.935,76.006 503.178,76.006 L456.516,76.006 C454.759,76.006 453.334,77.431 453.334,79.188 C453.334,80.945 454.759,82.369 456.516,82.369 Z" />
            <path d="M456.516,103.58 L503.178,103.58 C504.935,103.58 506.36,102.155 506.36,100.398 C506.36,98.641 504.935,97.217 503.178,97.217 L456.516,97.217 C454.759,97.217 453.334,98.641 453.334,100.398 C453.334,102.155 454.759,103.58 456.516,103.58 Z" />
            <path d="M456.516,124.79 L503.178,124.79 C504.935,124.79 506.36,123.365 506.36,121.608 C506.36,119.851 504.935,118.427 503.178,118.427 L456.516,118.427 C454.759,118.427 453.334,119.851 453.334,121.608 C453.334,123.365 454.759,124.79 456.516,124.79 Z" />
            <path d="M456.516,146 L503.178,146 C504.935,146 506.36,144.576 506.36,142.818 C506.36,141.061 504.935,139.637 503.178,139.637 L456.516,139.637 C454.759,139.637 453.334,141.061 453.334,142.818 C453.334,144.576 454.759,146 456.516,146 Z" />
            <path d="M426.822,124.79 L439.548,124.79 L436.366,121.608 L436.366,127.971 L437.298,125.722 L424.572,138.448 C423.975,139.044 423.64,139.854 423.64,140.697 L423.64,142.818 C423.64,144.576 425.065,146 426.822,146 L439.548,146 C441.305,146 442.729,144.576 442.729,142.818 C442.729,141.061 441.305,139.637 439.548,139.637 L426.822,139.637 L426.822,142.818 L430.003,142.818 L430.003,140.697 L426.822,140.697 L429.071,142.947 L441.797,130.221 C442.394,129.624 442.729,128.815 442.729,127.971 L442.729,121.608 C442.729,119.851 441.305,118.427 439.548,118.427 L426.822,118.427 C425.065,118.427 423.64,119.851 423.64,121.608 C423.64,123.365 425.065,124.79 426.822,124.79 Z" />
            <path d="M431.192,85.68 L435.434,81.438 L430.003,79.188 L430.003,100.398 C430.003,102.155 431.428,103.58 433.185,103.58 C434.942,103.58 436.366,102.155 436.366,100.398 L436.366,79.188 C436.366,76.353 432.939,74.934 430.935,76.938 L426.693,81.18 C425.451,82.423 425.451,84.437 426.693,85.68 C427.935,86.922 429.95,86.922 431.192,85.68 Z M433.185,97.217 L428.943,97.217 C427.186,97.217 425.761,98.641 425.761,100.398 C425.761,102.155 427.186,103.58 428.943,103.58 L433.185,103.58 C434.942,103.58 436.366,102.155 436.366,100.398 C436.366,98.641 434.942,97.217 433.185,97.217 Z M433.185,103.58 L437.427,103.58 C439.184,103.58 440.608,102.155 440.608,100.398 C440.608,98.641 439.184,97.217 437.427,97.217 L433.185,97.217 C431.428,97.217 430.003,98.641 430.003,100.398 C430.003,102.155 431.428,103.58 433.185,103.58 Z" />
        </g>
        <g id="Black-S">
            <path d="M656.516,82.369 L703.178,82.369 C704.935,82.369 706.36,80.945 706.36,79.188 C706.36,77.431 704.935,76.006 703.178,76.006 L656.516,76.006 C654.759,76.006 653.334,77.431 653.334,79.188 C653.334,80.945 654.759,82.369 656.516,82.369 Z" />
            <path d="M656.516,103.58 L703.178,103.58 C704.935,103.58 706.36,102.155 706.36,100.398 C706.36,98.641 704.935,97.217 703.178,97.217 L656.516,97.217 C654.759,97.217 653.334,98.641 653.334,100.398 C653.334,102.155 654.759,103.58 656.516,103.58 Z" />
            <path d="M656.516,124.79 L703.178,124.79 C704.935,124.79 706.36,123.365 706.36,121.608 C706.36,119.851 704.935,118.427 703.178,118.427 L656.516,118.427 C654.759,118.427 653.334,119.851 653.334,121.608 C653.334,123.365 654.759,124.79 656.516,124.79 Z" />
            <path d="M656.516,146 L703.178,146 C704.935,146 706.36,144.576 706.36,142.818 C706.36,141.061 704.935,139.637 703.178,139.637 L656.516,139.637 C654.759,139.637 653.334,141.061 653.334,142.818 C653.334,144.576 654.759,146 656.516,146 Z" />
            <path d="M626.822,124.79 L639.548,124.79 L636.366,121.608 L636.366,127.971 L637.298,125.722 L624.572,138.448 C623.975,139.044 623.64,139.854 623.64,140.697 L623.64,142.818 C623.64,144.576 625.065,146 626.822,146 L639.548,146 C641.305,146 642.729,144.576 642.729,142.818 C642.729,141.061 641.305,139.637 639.548,139.637 L626.822,139.637 L626.822,142.818 L630.003,142.818 L630.003,140.697 L626.822,140.697 L629.071,142.947 L641.797,130.221 C642.394,129.624 642.729,128.815 642.729,127.971 L642.729,121.608 C642.729,119.851 641.305,118.427 639.548,118.427 L626.822,118.427 C625.065,118.427 623.64,119.851 623.64,121.608 C623.64,123.365 625.065,124.79 626.822,124.79 Z" />
            <path d="M631.192,85.68 L635.434,81.438 L630.003,79.188 L630.003,100.398 C630.003,102.155 631.428,103.58 633.185,103.58 C634.942,103.58 636.366,102.155 636.366,100.398 L636.366,79.188 C636.366,76.353 632.939,74.934 630.935,76.938 L626.693,81.18 C625.451,82.423 625.451,84.437 626.693,85.68 C627.935,86.922 629.95,86.922 631.192,85.68 Z M633.185,97.217 L628.943,97.217 C627.186,97.217 625.761,98.641 625.761,100.398 C625.761,102.155 627.186,103.58 628.943,103.58 L633.185,103.58 C634.942,103.58 636.366,102.155 636.366,100.398 C636.366,98.641 634.942,97.217 633.185,97.217 Z M633.185,103.58 L637.427,103.58 C639.184,103.58 640.608,102.155 640.608,100.398 C640.608,98.641 639.184,97.217 637.427,97.217 L633.185,97.217 C631.428,97.217 630.003,98.641 630.003,100.398 C630.003,102.155 631.428,103.58 633.185,103.58 Z" />
        </g>
    </g>
</svg>