<?xml version="1.0" encoding="UTF-8"?>
<svg height="600" width="800" xmlns="http://www.w3.org/2000/svg" xmlns:xlink="http://www.w3.org/1999/xlink">
    <g id="Notes" font-family="'LucidaGrande', 'Lucida Grande', sans-serif" font-size="13">
        <rect fill="white" height="600.0" width="800.0" x="0.0" y="0.0" />
        <g font-size="13">
            <text x="18.0" y="176.0">Small</text>
            <text x="18.0" y="376.0">Medium</text>
            <text x="18.0" y="576.0">Large</text>
        </g>
        <g font-size="9">
            <text x="250.0" y="30.0">Ultralight</text>
            <text x="450.0" y="30.0">Regular</text>
            <text x="650.0" y="30.0">Black</text>
            <text id="template-version" fill="#505050" text-anchor="end" x="785.0" y="575.0">Template v.3.0</text>
            <a href="https://github.com/swhitty/SwiftDraw">
                <text fill="#505050" text-anchor="end" x="785.0" y="590.0">https://github.com/swhitty/SwiftDraw</text>
            </a>
        </g>
    </g>
    <g id="Guides" stroke="rgb(39, 170, 225)" stroke-width="0.5">
        <path id="Capline-S" d="M18,76 l800,0" />
        <path id="H-reference" d="M85,145.755 L87.685,145.755 L113.369,79.287 L114.052,79.287 L114.052,76 L112.148,76 L85,145.755 Z M95.693,121.536 L130.996,121.536 L130.263,119.313 L96.474,119.313 L95.693,121.536 Z M139.15,145.755 L141.787,145.755 L114.638,76 L113.466,76 L113.466,79.287 L139.15,145.755 Z" stroke="none" />
        <path id="Baseline-S" d="M18,146 l800,0" />
        <path id="left-margin-Ultralight-S" d="M220,56 l0,110" />
        <path id="right-margin-Ultralight-S" d="M310,56 l0,110" />
        <path id="left-margin-Regular-S" d="M420,56 l0,110" />
        <path id="right-margin-Regular-S" d="M510,56 l0,110" />
        <path id="left-margin-Black-S" d="M620,56 l0,110" />
        <path id="right-margin-Black-S" d="M710,56 l0,110" />
        <path id="Capline-M" d="M18,276 l800,0" />
        <path id="Baseline-M" d="M18,346 l800,0" />
        <path id="Capline-L" d="M18,476 l800,0" />
        <path id="Baseline-L" d="M18,546 l800,0" />
    </g>
    <g id="Symbols">
        <g id="Ultralight-S">
            <path d="M295.116,111 C295.116,127.633 281.633,141.116 265,141.116 C248.367,141.116 234.884,127.633 234.884,111 C234.884,94.367 248.367,80.884 265,80.884 L262.558,78.442 L262.558,111 C262.558,112.349 263.651,113.442 265,113.442 L297.558,113.442 L295.116,111 Z M300,111 C300,109.651 298.907,108.558 297.558,108.558 L265,108.558 L267.442,111 L267.442,78.442 C267.442,77.093 266.349,76 265,76 C245.67,76 230,91.67 230,111 C230,130.33 245.67,146 265,146 C284.33,146 300,130.33 300,111 Z" />
            <path d="M296.068,98.791 L274.767,98.791 L277.209,101.233 L277.209,79.932 L274.036,82.262 C283.4,85.203 290.797,92.6 293.738,101.964 L296.068,98.791 Z M296.068,103.674 C297.716,103.674 298.891,102.074 298.397,100.501 C294.978,89.613 286.387,81.022 275.499,77.603 C273.926,77.109 272.326,78.283 272.326,79.932 L272.326,101.233 C272.326,102.581 273.419,103.674 274.767,103.674 L296.068,103.674 Z" />
        </g>
        <g id="Regular-S">
            <path d="M495.116,111 C495.116,127.633 481.633,141.116 465,141.116 C448.367,141.116 434.884,127.633 434.884,111 C434.884,94.367 448.367,80.884 465,80.884 L462.558,78.442 L462.558,111 C462.558,112.349 463.651,113.442 465,113.442 L497.558,113.442 L495.116,111 Z M500,111 C500,109.651 498.907,108.558 497.558,108.558 L465,108.558 L467.442,111 L467.442,78.442 C467.442,77.093 466.349,76 465,76 C445.67,76 430,91.67 430,111 C430,130.33 445.67,146 465,146 C484.33,146 500,130.33 500,111 Z" />
            <path d="M496.068,98.791 L474.767,98.791 L477.209,101.233 L477.209,79.932 L474.036,82.262 C483.4,85.203 490.797,92.6 493.738,101.964 L496.068,98.791 Z M496.068,103.674 C497.716,103.674 498.891,102.074 498.397,100.501 C494.978,89.613 486.387,81.022 475.499,77.603 C473.926,77.109 472.326,78.283 472.326,79.932 L472.326,101.233 C472.326,102.581 473.419,103.674 474.767,103.674 L496.068,103.674 Z" />
        </g>
        <g id="Black-S">
            <path d="M695.116,111 C695.116,127.633 681.633,141.116 665,141.116 C648.367,141.116 634.884,127.633 634.884,111 C634.884,94.367 648.367,80.884 665,80.884 L662.558,78.442 L662.558,111 C662.558,112.349 663.651,113.442 665,113.442 L697.558,113.442 L695.116,111 Z M700,111 C700,109.651 698.907,108.558 697.558,108.558 L665,108.558 L667.442,111 L667.442,78.442 C667.442,77.093 666.349,76 665,76 C645.67,76 630,91.67 630,111 C630,130.33 645.67,146 665,146 C684.33,146 700,130.33 700,111 Z" />
            <path d="M696.068,98.791 L674.767,98.791 L677.209,101.233 L677.209,79.932 L674.036,82.262 C683.4,85.203 690.797,92.6 693.738,101.964 L696.068,98.791 Z M696.068,103.674 C697.716,103.674 698.891,102.074 698.397,100.501 C694.978,89.613 686.387,81.022 675.499,77.603 C673.926,77.109 672.326,78.283 672.326,79.932 L672.326,101.233 C672.326,102.581 673.419,103.674 674.767,103.674 L696.068,103.674 Z" />
        </g>
    </g>
</svg>