<?xml version="1.0" encoding="UTF-8"?>
<svg height="600" width="800" xmlns="http://www.w3.org/2000/svg" xmlns:xlink="http://www.w3.org/1999/xlink">
    <g id="Notes" font-family="'LucidaGrande', 'Lucida Grande', sans-serif" font-size="13">
        <rect fill="white" height="600.0" width="800.0" x="0.0" y="0.0" />
        <g font-size="13">
            <text x="18.0" y="176.0">Small</text>
            <text x="18.0" y="376.0">Medium</text>
            <text x="18.0" y="576.0">Large</text>
        </g>
        <g font-size="9">
            <text x="250.0" y="30.0">Ultralight</text>
            <text x="450.0" y="30.0">Regular</text>
            <text x="650.0" y="30.0">Black</text>
            <text id="template-version" fill="#505050" text-anchor="end" x="785.0" y="575.0">Template v.3.0</text>
            <a href="https://github.com/swhitty/SwiftDraw">
                <text fill="#505050" text-anchor="end" x="785.0" y="590.0">https://github.com/swhitty/SwiftDraw</text>
            </a>
        </g>
    </g>
    <g id="Guides" stroke="rgb(39, 170, 225)" stroke-width="0.5">
        <path id="Capline-S" d="M18,76 l800,0" />
        <path id="H-reference" d="M85,145.755 L87.685,145.755 L113.369,79.287 L114.052,79.287 L114.052,76 L112.148,76 L85,145.755 Z M95.693,121.536 L130.996,121.536 L130.263,119.313 L96.474,119.313 L95.693,121.536 Z M139.15,145.755 L141.787,145.755 L114.638,76 L113.466,76 L113.466,79.287 L139.15,145.755 Z" stroke="none" />
        <path id="Baseline-S" d="M18,146 l800,0" />
        <path id="left-margin-Ultralight-S" d="M219.979,56 l0,110" />
        <path id="right-margin-Ultralight-S" d="M310.021,56 l0,110" />
        <path id="left-margin-Regular-S" d="M419.979,56 l0,110" />
        <path id="right-margin-Regular-S" d="M510.021,56 l0,110" />
        <path id="left-margin-Black-S" d="M619.979,56 l0,110" />
        <path id="right-margin-Black-S" d="M710.021,56 l0,110" />
        <path id="Capline-M" d="M18,276 l800,0" />
        <path id="Baseline-M" d="M18,346 l800,0" />
        <path id="Capline-L" d="M18,476 l800,0" />
        <path id="Baseline-L" d="M18,546 l800,0" />
    </g>
    <g id="Symbols">
        <g id="Ultralight-S">
            <path d="M258.149,108.439 C266.164,108.439 272.661,101.942 272.661,93.927 C272.661,85.912 266.164,79.415 258.149,79.415 C250.135,79.415 243.637,85.912 243.637,93.927 C243.637,101.942 250.135,108.439 258.149,108.439 Z M258.149,103.317 C252.963,103.317 248.759,99.113 248.759,93.927 C248.759,88.741 252.963,84.537 258.149,84.537 C263.335,84.537 267.54,88.741 267.54,93.927 C267.54,99.113 263.335,103.317 258.149,103.317 Z" />
            <path d="M279.761,86.536 C279.907,86.829 280.17,87.483 280.444,88.437 C281.576,92.38 281.576,96.862 279.681,101.494 C279.146,102.803 279.773,104.298 281.082,104.834 C282.391,105.37 283.886,104.742 284.422,103.433 C286.795,97.632 286.795,91.996 285.367,87.023 C285.001,85.749 284.623,84.806 284.342,84.245 C283.71,82.98 282.171,82.468 280.906,83.1 C279.641,83.733 279.129,85.271 279.761,86.536 Z" />
            <path d="M291.764,79.805 C291.835,79.933 291.988,80.238 292.197,80.706 C292.56,81.521 292.926,82.474 293.27,83.551 C295.652,91.013 295.652,99.477 291.671,108.233 C291.086,109.521 291.655,111.039 292.943,111.624 C294.231,112.21 295.749,111.64 296.334,110.353 C300.891,100.329 300.891,90.582 298.15,81.994 C297.455,79.817 296.746,78.227 296.241,77.318 C295.555,76.081 293.995,75.636 292.759,76.323 C291.523,77.01 291.077,78.569 291.764,79.805 Z" />
            <path d="M229.979,141.39 L229.979,143.439 C229.979,144.853 231.125,146 232.54,146 L283.759,146 C285.173,146 286.32,144.853 286.32,143.439 L286.32,141.39 C286.32,131.314 286.124,128.917 284.552,125.832 C282.997,122.78 280.516,120.299 277.464,118.744 C274.379,117.172 271.982,116.976 261.905,116.976 L254.393,116.976 C244.317,116.976 241.92,117.172 238.835,118.743 C235.783,120.299 233.302,122.78 231.747,125.832 C230.175,128.917 229.979,131.314 229.979,141.39 Z M235.101,141.39 C235.101,132.343 235.277,130.185 236.31,128.157 C237.374,126.069 239.072,124.371 241.16,123.307 C243.188,122.274 245.346,122.098 254.393,122.098 L261.905,122.098 C270.952,122.098 273.111,122.274 275.139,123.307 C277.227,124.371 278.925,126.069 279.989,128.157 C281.022,130.185 281.198,132.343 281.198,141.39 L281.198,143.439 L283.759,143.439 L283.759,140.878 L232.54,140.878 L232.54,143.439 L235.101,143.439 L235.101,141.39 Z" />
        </g>
        <g id="Regular-S">
            <path d="M458.149,108.439 C466.164,108.439 472.661,101.942 472.661,93.927 C472.661,85.912 466.164,79.415 458.149,79.415 C450.135,79.415 443.637,85.912 443.637,93.927 C443.637,101.942 450.135,108.439 458.149,108.439 Z M458.149,103.317 C452.963,103.317 448.759,99.113 448.759,93.927 C448.759,88.741 452.963,84.537 458.149,84.537 C463.335,84.537 467.54,88.741 467.54,93.927 C467.54,99.113 463.335,103.317 458.149,103.317 Z" />
            <path d="M479.761,86.536 C479.907,86.829 480.17,87.483 480.444,88.437 C481.576,92.38 481.576,96.862 479.681,101.494 C479.146,102.803 479.773,104.298 481.082,104.834 C482.391,105.37 483.886,104.742 484.422,103.433 C486.795,97.632 486.795,91.996 485.367,87.023 C485.001,85.749 484.623,84.806 484.342,84.245 C483.71,82.98 482.171,82.468 480.906,83.1 C479.641,83.733 479.129,85.271 479.761,86.536 Z" />
            <path d="M491.764,79.805 C491.835,79.933 491.988,80.238 492.197,80.706 C492.56,81.521 492.926,82.474 493.27,83.551 C495.652,91.013 495.652,99.477 491.671,108.233 C491.086,109.521 491.655,111.039 492.943,111.624 C494.231,112.21 495.749,111.64 496.334,110.353 C500.891,100.329 500.891,90.582 498.15,81.994 C497.455,79.817 496.746,78.227 496.241,77.318 C495.555,76.081 493.995,75.636 492.759,76.323 C491.523,77.01 491.077,78.569 491.764,79.805 Z" />
            <path d="M429.979,141.39 L429.979,143.439 C429.979,144.853 431.125,146 432.54,146 L483.759,146 C485.173,146 486.32,144.853 486.32,143.439 L486.32,141.39 C486.32,131.314 486.124,128.917 484.552,125.832 C482.997,122.78 480.516,120.299 477.464,118.744 C474.379,117.172 471.982,116.976 461.905,116.976 L454.393,116.976 C444.317,116.976 441.92,117.172 438.835,118.743 C435.783,120.299 433.302,122.78 431.747,125.832 C430.175,128.917 429.979,131.314 429.979,141.39 Z M435.101,141.39 C435.101,132.343 435.277,130.185 436.31,128.157 C437.374,126.069 439.072,124.371 441.16,123.307 C443.188,122.274 445.346,122.098 454.393,122.098 L461.905,122.098 C470.952,122.098 473.111,122.274 475.139,123.307 C477.227,124.371 478.925,126.069 479.989,128.157 C481.022,130.185 481.198,132.343 481.198,141.39 L481.198,143.439 L483.759,143.439 L483.759,140.878 L432.54,140.878 L432.54,143.439 L435.101,143.439 L435.101,141.39 Z" />
        </g>
        <g id="Black-S">
            <path d="M658.149,108.439 C666.164,108.439 672.661,101.942 672.661,93.927 C672.661,85.912 666.164,79.415 658.149,79.415 C650.135,79.415 643.637,85.912 643.637,93.927 C643.637,101.942 650.135,108.439 658.149,108.439 Z M658.149,103.317 C652.963,103.317 648.759,99.113 648.759,93.927 C648.759,88.741 652.963,84.537 658.149,84.537 C663.335,84.537 667.54,88.741 667.54,93.927 C667.54,99.113 663.335,103.317 658.149,103.317 Z" />
            <path d="M679.761,86.536 C679.907,86.829 680.17,87.483 680.444,88.437 C681.576,92.38 681.576,96.862 679.681,101.494 C679.146,102.803 679.773,104.298 681.082,104.834 C682.391,105.37 683.886,104.742 684.422,103.433 C686.795,97.632 686.795,91.996 685.367,87.023 C685.001,85.749 684.623,84.806 684.342,84.245 C683.71,82.98 682.171,82.468 680.906,83.1 C679.641,83.733 679.129,85.271 679.761,86.536 Z" />
            <path d="M691.764,79.805 C691.835,79.933 691.988,80.238 692.197,80.706 C692.56,81.521 692.926,82.474 693.27,83.551 C695.652,91.013 695.652,99.477 691.671,108.233 C691.086,109.521 691.655,111.039 692.943,111.624 C694.231,112.21 695.749,111.64 696.334,110.353 C700.891,100.329 700.891,90.582 698.15,81.994 C697.455,79.817 696.746,78.227 696.241,77.318 C695.555,76.081 693.995,75.636 692.759,76.323 C691.523,77.01 691.077,78.569 691.764,79.805 Z" />
            <path d="M629.979,141.39 L629.979,143.439 C629.979,144.853 631.125,146 632.54,146 L683.759,146 C685.173,146 686.32,144.853 686.32,143.439 L686.32,141.39 C686.32,131.314 686.124,128.917 684.552,125.832 C682.997,122.78 680.516,120.299 677.464,118.744 C674.379,117.172 671.982,116.976 661.905,116.976 L654.393,116.976 C644.317,116.976 641.92,117.172 638.835,118.743 C635.783,120.299 633.302,122.78 631.747,125.832 C630.175,128.917 629.979,131.314 629.979,141.39 Z M635.101,141.39 C635.101,132.343 635.277,130.185 636.31,128.157 C637.374,126.069 639.072,124.371 641.16,123.307 C643.188,122.274 645.346,122.098 654.393,122.098 L661.905,122.098 C670.952,122.098 673.111,122.274 675.139,123.307 C677.227,124.371 678.925,126.069 679.989,128.157 C681.022,130.185 681.198,132.343 681.198,141.39 L681.198,143.439 L683.759,143.439 L683.759,140.878 L632.54,140.878 L632.54,143.439 L635.101,143.439 L635.101,141.39 Z" />
        </g>
    </g>
</svg>