<?xml version="1.0" encoding="UTF-8"?>
<svg height="600" width="800" xmlns="http://www.w3.org/2000/svg" xmlns:xlink="http://www.w3.org/1999/xlink">
    <g id="Notes" font-family="'LucidaGrande', 'Lucida Grande', sans-serif" font-size="13">
        <rect fill="white" height="600.0" width="800.0" x="0.0" y="0.0" />
        <g font-size="13">
            <text x="18.0" y="176.0">Small</text>
            <text x="18.0" y="376.0">Medium</text>
            <text x="18.0" y="576.0">Large</text>
        </g>
        <g font-size="9">
            <text x="250.0" y="30.0">Ultralight</text>
            <text x="450.0" y="30.0">Regular</text>
            <text x="650.0" y="30.0">Black</text>
            <text id="template-version" fill="#505050" text-anchor="end" x="785.0" y="575.0">Template v.3.0</text>
            <a href="https://github.com/swhitty/SwiftDraw">
                <text fill="#505050" text-anchor="end" x="785.0" y="590.0">https://github.com/swhitty/SwiftDraw</text>
            </a>
        </g>
    </g>
    <g id="Guides" stroke="rgb(39, 170, 225)" stroke-width="0.5">
        <path id="Capline-S" d="M18,76 l800,0" />
        <path id="H-reference" d="M85,145.755 L87.685,145.755 L113.369,79.287 L114.052,79.287 L114.052,76 L112.148,76 L85,145.755 Z M95.693,121.536 L130.996,121.536 L130.263,119.313 L96.474,119.313 L95.693,121.536 Z M139.15,145.755 L141.787,145.755 L114.638,76 L113.466,76 L113.466,79.287 L139.15,145.755 Z" stroke="none" />
        <path id="Baseline-S" d="M18,146 l800,0" />
        <path id="left-margin-Ultralight-S" d="M221,56 l0,110" />
        <path id="right-margin-Ultralight-S" d="M309,56 l0,110" />
        <path id="left-margin-Regular-S" d="M421,56 l0,110" />
        <path id="right-margin-Regular-S" d="M509,56 l0,110" />
        <path id="left-margin-Black-S" d="M621,56 l0,110" />
        <path id="right-margin-Black-S" d="M709,56 l0,110" />
        <path id="Capline-M" d="M18,276 l800,0" />
        <path id="Baseline-M" d="M18,346 l800,0" />
        <path id="Capline-L" d="M18,476 l800,0" />
        <path id="Baseline-L" d="M18,546 l800,0" />
    </g>
    <g id="Symbols">
        <g id="Ultralight-S">
            <path d="M264.167,143.255 L262.539,130.232 C262.372,128.894 261.152,127.944 259.813,128.112 C258.475,128.279 257.526,129.499 257.693,130.838 L259.321,143.861 C259.488,145.199 260.709,146.148 262.047,145.981 C263.385,145.814 264.334,144.593 264.167,143.255 Z" />
            <path d="M296.744,143.558 L296.744,91.465 C296.744,90.116 295.651,89.023 294.302,89.023 L268.256,89.023 C266.787,89.023 265.651,90.311 265.833,91.768 L267.461,104.791 L269.089,117.814 L270.716,130.838 L271.302,128.927 L259.907,141.95 C258.525,143.529 259.646,146 261.744,146 L294.302,146 C295.651,146 296.744,144.906 296.744,143.558 Z M291.86,143.558 L294.302,141.116 L261.744,141.116 L263.582,145.166 L274.977,132.143 C275.436,131.618 275.649,130.923 275.562,130.232 L273.935,117.209 L272.307,104.185 L270.679,91.162 L268.256,93.907 L294.302,93.907 L291.86,91.465 L291.86,143.558 Z" />
            <path d="M271.512,119.953 L279.651,119.953 C281,119.953 282.093,118.86 282.093,117.511 C282.093,116.163 281,115.07 279.651,115.07 L271.512,115.07 C270.163,115.07 269.07,116.163 269.07,117.511 C269.07,118.86 270.163,119.953 271.512,119.953 Z" />
            <path d="M269.884,106.93 L279.651,106.93 C281,106.93 282.093,105.837 282.093,104.488 C282.093,103.14 281,102.046 279.651,102.046 L269.884,102.046 C268.535,102.046 267.442,103.14 267.442,104.488 C267.442,105.837 268.535,106.93 269.884,106.93 Z" />
            <path d="M235.698,80.884 L266.628,80.884 L264.205,78.745 L265.833,91.768 L267.461,104.791 L269.089,117.814 L270.716,130.838 L273.139,128.093 L260.116,128.093 L235.698,128.093 L238.14,130.535 L238.14,78.442 L235.698,80.884 Z M235.698,76 C234.349,76 233.256,77.093 233.256,78.442 L233.256,130.535 C233.256,131.883 234.349,132.977 235.698,132.977 L260.116,132.977 L273.139,132.977 C274.608,132.977 275.745,131.689 275.562,130.232 L273.935,117.209 L272.307,104.185 L270.679,91.162 L269.051,78.139 C268.898,76.917 267.859,76 266.628,76 L235.698,76 Z" />
            <path d="M245.465,93.907 L256.861,93.907 C258.209,93.907 259.302,92.814 259.302,91.465 C259.302,90.116 258.209,89.023 256.861,89.023 L245.465,89.023 C244.117,89.023 243.023,90.116 243.023,91.465 C243.023,92.814 244.117,93.907 245.465,93.907 Z" />
            <path d="M245.465,106.93 L258.488,106.93 C259.837,106.93 260.93,105.837 260.93,104.488 C260.93,103.14 259.837,102.046 258.488,102.046 L245.465,102.046 C244.117,102.046 243.023,103.14 243.023,104.488 C243.023,105.837 244.117,106.93 245.465,106.93 Z" />
            <path d="M245.465,119.953 L260.116,119.953 C261.465,119.953 262.558,118.86 262.558,117.511 C262.558,116.163 261.465,115.07 260.116,115.07 L245.465,115.07 C244.117,115.07 243.023,116.163 243.023,117.511 C243.023,118.86 244.117,119.953 245.465,119.953 Z" />
        </g>
        <g id="Regular-S">
            <path d="M464.167,143.255 L462.539,130.232 C462.372,128.894 461.152,127.944 459.813,128.112 C458.475,128.279 457.526,129.499 457.693,130.838 L459.321,143.861 C459.488,145.199 460.709,146.148 462.047,145.981 C463.385,145.814 464.334,144.593 464.167,143.255 Z" />
            <path d="M496.744,143.558 L496.744,91.465 C496.744,90.116 495.651,89.023 494.302,89.023 L468.256,89.023 C466.787,89.023 465.651,90.311 465.833,91.768 L467.461,104.791 L469.089,117.814 L470.717,130.838 L471.302,128.927 L459.907,141.95 C458.525,143.529 459.646,146 461.744,146 L494.302,146 C495.651,146 496.744,144.906 496.744,143.558 Z M491.86,143.558 L494.302,141.116 L461.744,141.116 L463.582,145.166 L474.977,132.143 C475.436,131.618 475.649,130.923 475.562,130.232 L473.935,117.209 L472.307,104.185 L470.679,91.162 L468.256,93.907 L494.302,93.907 L491.86,91.465 L491.86,143.558 Z" />
            <path d="M471.512,119.953 L479.651,119.953 C481,119.953 482.093,118.86 482.093,117.511 C482.093,116.163 481,115.07 479.651,115.07 L471.512,115.07 C470.163,115.07 469.07,116.163 469.07,117.511 C469.07,118.86 470.163,119.953 471.512,119.953 Z" />
            <path d="M469.884,106.93 L479.651,106.93 C481,106.93 482.093,105.837 482.093,104.488 C482.093,103.14 481,102.046 479.651,102.046 L469.884,102.046 C468.535,102.046 467.442,103.14 467.442,104.488 C467.442,105.837 468.535,106.93 469.884,106.93 Z" />
            <path d="M435.698,80.884 L466.628,80.884 L464.205,78.745 L465.833,91.768 L467.461,104.791 L469.089,117.814 L470.717,130.838 L473.14,128.093 L460.116,128.093 L435.698,128.093 L438.14,130.535 L438.14,78.442 L435.698,80.884 Z M435.698,76 C434.349,76 433.256,77.093 433.256,78.442 L433.256,130.535 C433.256,131.883 434.349,132.977 435.698,132.977 L460.116,132.977 L473.14,132.977 C474.608,132.977 475.745,131.689 475.562,130.232 L473.935,117.209 L472.307,104.185 L470.679,91.162 L469.051,78.139 C468.898,76.917 467.859,76 466.628,76 L435.698,76 Z" />
            <path d="M445.465,93.907 L456.861,93.907 C458.209,93.907 459.302,92.814 459.302,91.465 C459.302,90.116 458.209,89.023 456.861,89.023 L445.465,89.023 C444.117,89.023 443.023,90.116 443.023,91.465 C443.023,92.814 444.117,93.907 445.465,93.907 Z" />
            <path d="M445.465,106.93 L458.488,106.93 C459.837,106.93 460.93,105.837 460.93,104.488 C460.93,103.14 459.837,102.046 458.488,102.046 L445.465,102.046 C444.117,102.046 443.023,103.14 443.023,104.488 C443.023,105.837 444.117,106.93 445.465,106.93 Z" />
            <path d="M445.465,119.953 L460.116,119.953 C461.465,119.953 462.558,118.86 462.558,117.511 C462.558,116.163 461.465,115.07 460.116,115.07 L445.465,115.07 C444.117,115.07 443.023,116.163 443.023,117.511 C443.023,118.86 444.117,119.953 445.465,119.953 Z" />
        </g>
        <g id="Black-S">
            <path d="M664.167,143.255 L662.539,130.232 C662.372,128.894 661.152,127.944 659.813,128.112 C658.475,128.279 657.526,129.499 657.693,130.838 L659.321,143.861 C659.488,145.199 660.709,146.148 662.047,145.981 C663.385,145.814 664.334,144.593 664.167,143.255 Z" />
            <path d="M696.744,143.558 L696.744,91.465 C696.744,90.116 695.651,89.023 694.302,89.023 L668.256,89.023 C666.787,89.023 665.651,90.311 665.833,91.768 L667.461,104.791 L669.089,117.814 L670.716,130.838 L671.302,128.927 L659.906,141.95 C658.525,143.529 659.646,146 661.744,146 L694.302,146 C695.651,146 696.744,144.906 696.744,143.558 Z M691.86,143.558 L694.302,141.116 L661.744,141.116 L663.582,145.166 L674.977,132.143 C675.436,131.618 675.649,130.923 675.562,130.232 L673.935,117.209 L672.307,104.185 L670.679,91.162 L668.256,93.907 L694.302,93.907 L691.86,91.465 L691.86,143.558 Z" />
            <path d="M671.512,119.953 L679.651,119.953 C681,119.953 682.093,118.86 682.093,117.511 C682.093,116.163 681,115.07 679.651,115.07 L671.512,115.07 C670.163,115.07 669.07,116.163 669.07,117.511 C669.07,118.86 670.163,119.953 671.512,119.953 Z" />
            <path d="M669.884,106.93 L679.651,106.93 C681,106.93 682.093,105.837 682.093,104.488 C682.093,103.14 681,102.046 679.651,102.046 L669.884,102.046 C668.535,102.046 667.442,103.14 667.442,104.488 C667.442,105.837 668.535,106.93 669.884,106.93 Z" />
            <path d="M635.698,80.884 L666.628,80.884 L664.205,78.745 L665.833,91.768 L667.461,104.791 L669.089,117.814 L670.716,130.838 L673.139,128.093 L660.116,128.093 L635.698,128.093 L638.14,130.535 L638.14,78.442 L635.698,80.884 Z M635.698,76 C634.349,76 633.256,77.093 633.256,78.442 L633.256,130.535 C633.256,131.883 634.349,132.977 635.698,132.977 L660.116,132.977 L673.139,132.977 C674.608,132.977 675.745,131.689 675.562,130.232 L673.935,117.209 L672.307,104.185 L670.679,91.162 L669.051,78.139 C668.898,76.917 667.859,76 666.628,76 L635.698,76 Z" />
            <path d="M645.465,93.907 L656.86,93.907 C658.209,93.907 659.302,92.814 659.302,91.465 C659.302,90.116 658.209,89.023 656.86,89.023 L645.465,89.023 C644.117,89.023 643.023,90.116 643.023,91.465 C643.023,92.814 644.117,93.907 645.465,93.907 Z" />
            <path d="M645.465,106.93 L658.488,106.93 C659.837,106.93 660.93,105.837 660.93,104.488 C660.93,103.14 659.837,102.046 658.488,102.046 L645.465,102.046 C644.117,102.046 643.023,103.14 643.023,104.488 C643.023,105.837 644.117,106.93 645.465,106.93 Z" />
            <path d="M645.465,119.953 L660.116,119.953 C661.465,119.953 662.558,118.86 662.558,117.511 C662.558,116.163 661.465,115.07 660.116,115.07 L645.465,115.07 C644.117,115.07 643.023,116.163 643.023,117.511 C643.023,118.86 644.117,119.953 645.465,119.953 Z" />
        </g>
    </g>
</svg>