<?xml version="1.0" encoding="UTF-8"?>
<svg height="600" width="800" xmlns="http://www.w3.org/2000/svg" xmlns:xlink="http://www.w3.org/1999/xlink">
    <g id="Notes" font-family="'LucidaGrande', 'Lucida Grande', sans-serif" font-size="13">
        <rect fill="white" height="600.0" width="800.0" x="0.0" y="0.0" />
        <g font-size="13">
            <text x="18.0" y="176.0">Small</text>
            <text x="18.0" y="376.0">Medium</text>
            <text x="18.0" y="576.0">Large</text>
        </g>
        <g font-size="9">
            <text x="250.0" y="30.0">Ultralight</text>
            <text x="450.0" y="30.0">Regular</text>
            <text x="650.0" y="30.0">Black</text>
            <text id="template-version" fill="#505050" text-anchor="end" x="785.0" y="575.0">Template v.3.0</text>
            <a href="https://github.com/swhitty/SwiftDraw">
                <text fill="#505050" text-anchor="end" x="785.0" y="590.0">https://github.com/swhitty/SwiftDraw</text>
            </a>
        </g>
    </g>
    <g id="Guides" stroke="rgb(39, 170, 225)" stroke-width="0.5">
        <path id="Capline-S" d="M18,76 l800,0" />
        <path id="H-reference" d="M85,145.755 L87.685,145.755 L113.369,79.287 L114.052,79.287 L114.052,76 L112.148,76 L85,145.755 Z M95.693,121.536 L130.996,121.536 L130.263,119.313 L96.474,119.313 L95.693,121.536 Z M139.15,145.755 L141.787,145.755 L114.638,76 L113.466,76 L113.466,79.287 L139.15,145.755 Z" stroke="none" />
        <path id="Baseline-S" d="M18,146 l800,0" />
        <path id="left-margin-Ultralight-S" d="M221,56 l0,110" />
        <path id="right-margin-Ultralight-S" d="M309,56 l0,110" />
        <path id="left-margin-Regular-S" d="M421,56 l0,110" />
        <path id="right-margin-Regular-S" d="M509,56 l0,110" />
        <path id="left-margin-Black-S" d="M621,56 l0,110" />
        <path id="right-margin-Black-S" d="M709,56 l0,110" />
        <path id="Capline-M" d="M18,276 l800,0" />
        <path id="Baseline-M" d="M18,346 l800,0" />
        <path id="Capline-L" d="M18,476 l800,0" />
        <path id="Baseline-L" d="M18,546 l800,0" />
    </g>
    <g id="Symbols">
        <g id="Ultralight-S">
            <path d="M244.514,98.194 L234.27,98.194 L236.831,100.754 L236.831,78.561 L234.27,81.122 L295.73,81.122 L293.169,78.561 L293.169,100.754 L295.73,98.194 L285.486,98.194 C284.072,98.194 282.926,99.34 282.926,100.754 C282.926,102.169 284.072,103.315 285.486,103.315 L295.73,103.315 C297.144,103.315 298.29,102.169 298.29,100.754 L298.29,78.561 C298.29,77.147 297.144,76 295.73,76 L234.27,76 C232.856,76 231.71,77.147 231.71,78.561 L231.71,100.754 C231.71,102.169 232.856,103.315 234.27,103.315 L244.514,103.315 C245.928,103.315 247.074,102.169 247.074,100.754 C247.074,99.34 245.928,98.194 244.514,98.194 Z" />
            <path d="M244.514,91.365 L285.486,91.365 L282.926,88.804 L282.926,143.435 L287.011,141.377 L276.767,133.789 C275.862,133.119 274.624,133.119 273.719,133.789 L263.476,141.377 L266.524,141.377 L256.281,133.789 C255.376,133.119 254.138,133.119 253.233,133.789 L242.989,141.377 L247.074,143.435 L247.074,88.804 L244.514,91.365 Z M244.514,86.243 C243.099,86.243 241.953,87.39 241.953,88.804 L241.953,143.435 C241.953,145.538 244.348,146.744 246.038,145.492 L256.281,137.905 L253.233,137.905 L263.476,145.492 C264.381,146.163 265.619,146.163 266.524,145.492 L276.767,137.905 L273.719,137.905 L283.962,145.492 C285.652,146.744 288.047,145.538 288.047,143.435 L288.047,88.804 C288.047,87.39 286.901,86.243 285.486,86.243 L244.514,86.243 Z" />
            <path d="M258.171,115.266 L271.829,115.266 C273.243,115.266 274.39,114.119 274.39,112.705 C274.39,111.291 273.243,110.144 271.829,110.144 L258.171,110.144 C256.757,110.144 255.61,111.291 255.61,112.705 C255.61,114.119 256.757,115.266 258.171,115.266 Z" />
            <path d="M262.439,105.876 L262.439,119.534 C262.439,120.948 263.586,122.095 265,122.095 C266.414,122.095 267.561,120.948 267.561,119.534 L267.561,105.876 C267.561,104.462 266.414,103.315 265,103.315 C263.586,103.315 262.439,104.462 262.439,105.876 Z" />
        </g>
        <g id="Regular-S">
            <path d="M444.514,98.194 L434.27,98.194 L436.831,100.754 L436.831,78.561 L434.27,81.122 L495.73,81.122 L493.169,78.561 L493.169,100.754 L495.73,98.194 L485.486,98.194 C484.072,98.194 482.926,99.34 482.926,100.754 C482.926,102.169 484.072,103.315 485.486,103.315 L495.73,103.315 C497.144,103.315 498.29,102.169 498.29,100.754 L498.29,78.561 C498.29,77.147 497.144,76 495.73,76 L434.27,76 C432.856,76 431.71,77.147 431.71,78.561 L431.71,100.754 C431.71,102.169 432.856,103.315 434.27,103.315 L444.514,103.315 C445.928,103.315 447.074,102.169 447.074,100.754 C447.074,99.34 445.928,98.194 444.514,98.194 Z" />
            <path d="M444.514,91.365 L485.486,91.365 L482.926,88.804 L482.926,143.435 L487.011,141.377 L476.767,133.789 C475.862,133.119 474.624,133.119 473.719,133.789 L463.476,141.377 L466.524,141.377 L456.281,133.789 C455.376,133.119 454.138,133.119 453.233,133.789 L442.989,141.377 L447.074,143.435 L447.074,88.804 L444.514,91.365 Z M444.514,86.243 C443.099,86.243 441.953,87.39 441.953,88.804 L441.953,143.435 C441.953,145.538 444.348,146.744 446.038,145.492 L456.281,137.905 L453.233,137.905 L463.476,145.492 C464.381,146.163 465.619,146.163 466.524,145.492 L476.767,137.905 L473.719,137.905 L483.962,145.492 C485.652,146.744 488.047,145.538 488.047,143.435 L488.047,88.804 C488.047,87.39 486.901,86.243 485.486,86.243 L444.514,86.243 Z" />
            <path d="M458.171,115.266 L471.829,115.266 C473.243,115.266 474.39,114.119 474.39,112.705 C474.39,111.291 473.243,110.144 471.829,110.144 L458.171,110.144 C456.757,110.144 455.61,111.291 455.61,112.705 C455.61,114.119 456.757,115.266 458.171,115.266 Z" />
            <path d="M462.439,105.876 L462.439,119.534 C462.439,120.948 463.586,122.095 465,122.095 C466.414,122.095 467.561,120.948 467.561,119.534 L467.561,105.876 C467.561,104.462 466.414,103.315 465,103.315 C463.586,103.315 462.439,104.462 462.439,105.876 Z" />
        </g>
        <g id="Black-S">
            <path d="M644.514,98.194 L634.27,98.194 L636.831,100.754 L636.831,78.561 L634.27,81.122 L695.73,81.122 L693.169,78.561 L693.169,100.754 L695.73,98.194 L685.486,98.194 C684.072,98.194 682.926,99.34 682.926,100.754 C682.926,102.169 684.072,103.315 685.486,103.315 L695.73,103.315 C697.144,103.315 698.291,102.169 698.291,100.754 L698.291,78.561 C698.291,77.147 697.144,76 695.73,76 L634.27,76 C632.856,76 631.71,77.147 631.71,78.561 L631.71,100.754 C631.71,102.169 632.856,103.315 634.27,103.315 L644.514,103.315 C645.928,103.315 647.074,102.169 647.074,100.754 C647.074,99.34 645.928,98.194 644.514,98.194 Z" />
            <path d="M644.514,91.365 L685.486,91.365 L682.926,88.804 L682.926,143.435 L687.011,141.377 L676.767,133.789 C675.862,133.119 674.624,133.119 673.719,133.789 L663.476,141.377 L666.524,141.377 L656.281,133.789 C655.376,133.119 654.138,133.119 653.233,133.789 L642.989,141.377 L647.074,143.435 L647.074,88.804 L644.514,91.365 Z M644.514,86.243 C643.099,86.243 641.953,87.39 641.953,88.804 L641.953,143.435 C641.953,145.538 644.348,146.744 646.038,145.492 L656.281,137.905 L653.233,137.905 L663.476,145.492 C664.381,146.163 665.619,146.163 666.524,145.492 L676.767,137.905 L673.719,137.905 L683.962,145.492 C685.652,146.744 688.047,145.538 688.047,143.435 L688.047,88.804 C688.047,87.39 686.901,86.243 685.486,86.243 L644.514,86.243 Z" />
            <path d="M658.171,115.266 L671.829,115.266 C673.243,115.266 674.39,114.119 674.39,112.705 C674.39,111.291 673.243,110.144 671.829,110.144 L658.171,110.144 C656.757,110.144 655.61,111.291 655.61,112.705 C655.61,114.119 656.757,115.266 658.171,115.266 Z" />
            <path d="M662.439,105.876 L662.439,119.534 C662.439,120.948 663.586,122.095 665,122.095 C666.414,122.095 667.561,120.948 667.561,119.534 L667.561,105.876 C667.561,104.462 666.414,103.315 665,103.315 C663.586,103.315 662.439,104.462 662.439,105.876 Z" />
        </g>
    </g>
</svg>