<?xml version="1.0" encoding="UTF-8"?>
<svg height="600" width="800" xmlns="http://www.w3.org/2000/svg" xmlns:xlink="http://www.w3.org/1999/xlink">
    <g id="Notes" font-family="'LucidaGrande', 'Lucida Grande', sans-serif" font-size="13">
        <rect fill="white" height="600.0" width="800.0" x="0.0" y="0.0" />
        <g font-size="13">
            <text x="18.0" y="176.0">Small</text>
            <text x="18.0" y="376.0">Medium</text>
            <text x="18.0" y="576.0">Large</text>
        </g>
        <g font-size="9">
            <text x="250.0" y="30.0">Ultralight</text>
            <text x="450.0" y="30.0">Regular</text>
            <text x="650.0" y="30.0">Black</text>
            <text id="template-version" fill="#505050" text-anchor="end" x="785.0" y="575.0">Template v.3.0</text>
            <a href="https://github.com/swhitty/SwiftDraw">
                <text fill="#505050" text-anchor="end" x="785.0" y="590.0">https://github.com/swhitty/SwiftDraw</text>
            </a>
        </g>
    </g>
    <g id="Guides" stroke="rgb(39, 170, 225)" stroke-width="0.5">
        <path id="Capline-S" d="M18,76 l800,0" />
        <path id="H-reference" d="M85,145.755 L87.685,145.755 L113.369,79.287 L114.052,79.287 L114.052,76 L112.148,76 L85,145.755 Z M95.693,121.536 L130.996,121.536 L130.263,119.313 L96.474,119.313 L95.693,121.536 Z M139.15,145.755 L141.787,145.755 L114.638,76 L113.466,76 L113.466,79.287 L139.15,145.755 Z" stroke="none" />
        <path id="Baseline-S" d="M18,146 l800,0" />
        <path id="left-margin-Ultralight-S" d="M218.205,56 l0,110" />
        <path id="right-margin-Ultralight-S" d="M311.795,56 l0,110" />
        <path id="left-margin-Regular-S" d="M418.205,56 l0,110" />
        <path id="right-margin-Regular-S" d="M511.795,56 l0,110" />
        <path id="left-margin-Black-S" d="M618.205,56 l0,110" />
        <path id="right-margin-Black-S" d="M711.795,56 l0,110" />
        <path id="Capline-M" d="M18,276 l800,0" />
        <path id="Baseline-M" d="M18,346 l800,0" />
        <path id="Capline-L" d="M18,476 l800,0" />
        <path id="Baseline-L" d="M18,546 l800,0" />
    </g>
    <g id="Symbols">
        <g id="Ultralight-S">
            <path d="M267.692,98.436 L267.692,91.256 C267.692,85.564 271.872,81.385 277.564,81.385 C283.257,81.385 287.436,85.564 287.436,91.256 L287.436,125.359 C287.436,126.846 288.641,128.051 290.128,128.051 C291.615,128.051 292.82,126.846 292.82,125.359 L292.82,91.256 C292.82,82.59 286.23,76 277.564,76 C268.898,76 262.308,82.59 262.308,91.256 L262.308,98.436 C262.308,99.923 263.513,101.128 265,101.128 C266.487,101.128 267.692,99.923 267.692,98.436 Z" />
            <path d="M237.18,78.692 L237.18,130.743 C237.18,139.41 243.77,146 252.436,146 C261.102,146 267.692,139.41 267.692,130.743 L267.692,98.436 C267.692,96.949 266.487,95.744 265,95.744 C263.513,95.744 262.308,96.949 262.308,98.436 L262.308,130.743 C262.308,136.436 258.128,140.615 252.436,140.615 C246.743,140.615 242.564,136.436 242.564,130.743 L242.564,78.692 C242.564,77.205 241.359,76 239.872,76 C238.385,76 237.18,77.205 237.18,78.692 Z" />
            <path d="M250.75,85.763 L241.776,76.789 C240.724,75.737 239.02,75.737 237.968,76.789 L228.994,85.763 C227.942,86.814 227.942,88.519 228.994,89.57 C230.045,90.622 231.75,90.622 232.801,89.57 L241.776,80.596 L237.968,80.596 L246.942,89.57 C247.994,90.622 249.699,90.622 250.75,89.57 C251.801,88.519 251.801,86.814 250.75,85.763 Z" />
            <path d="M283.846,134.333 C283.846,130.864 286.659,128.051 290.128,128.051 C293.598,128.051 296.41,130.864 296.41,134.333 C296.41,137.803 293.598,140.615 290.128,140.615 C286.659,140.615 283.846,137.803 283.846,134.333 Z M278.461,134.333 C278.461,140.777 283.685,146 290.128,146 C296.571,146 301.795,140.777 301.795,134.333 C301.795,127.89 296.571,122.667 290.128,122.667 C283.685,122.667 278.461,127.89 278.461,134.333 Z" />
        </g>
        <g id="Regular-S">
            <path d="M467.692,98.436 L467.692,91.256 C467.692,85.564 471.871,81.385 477.564,81.385 C483.257,81.385 487.436,85.564 487.436,91.256 L487.436,125.359 C487.436,126.846 488.641,128.051 490.128,128.051 C491.615,128.051 492.82,126.846 492.82,125.359 L492.82,91.256 C492.82,82.59 486.23,76 477.564,76 C468.898,76 462.308,82.59 462.308,91.256 L462.308,98.436 C462.308,99.923 463.513,101.128 465,101.128 C466.487,101.128 467.692,99.923 467.692,98.436 Z" />
            <path d="M437.18,78.692 L437.18,130.743 C437.18,139.41 443.77,146 452.436,146 C461.102,146 467.692,139.41 467.692,130.743 L467.692,98.436 C467.692,96.949 466.487,95.744 465,95.744 C463.513,95.744 462.308,96.949 462.308,98.436 L462.308,130.743 C462.308,136.436 458.128,140.615 452.436,140.615 C446.743,140.615 442.564,136.436 442.564,130.743 L442.564,78.692 C442.564,77.205 441.359,76 439.872,76 C438.385,76 437.18,77.205 437.18,78.692 Z" />
            <path d="M450.75,85.763 L441.776,76.789 C440.724,75.737 439.02,75.737 437.968,76.789 L428.994,85.763 C427.942,86.814 427.942,88.519 428.994,89.57 C430.045,90.622 431.75,90.622 432.801,89.57 L441.776,80.596 L437.968,80.596 L446.942,89.57 C447.994,90.622 449.699,90.622 450.75,89.57 C451.801,88.519 451.801,86.814 450.75,85.763 Z" />
            <path d="M483.846,134.333 C483.846,130.864 486.659,128.051 490.128,128.051 C493.598,128.051 496.41,130.864 496.41,134.333 C496.41,137.803 493.598,140.615 490.128,140.615 C486.659,140.615 483.846,137.803 483.846,134.333 Z M478.461,134.333 C478.461,140.777 483.685,146 490.128,146 C496.571,146 501.795,140.777 501.795,134.333 C501.795,127.89 496.571,122.667 490.128,122.667 C483.685,122.667 478.461,127.89 478.461,134.333 Z" />
        </g>
        <g id="Black-S">
            <path d="M667.692,98.436 L667.692,91.256 C667.692,85.564 671.872,81.385 677.564,81.385 C683.257,81.385 687.436,85.564 687.436,91.256 L687.436,125.359 C687.436,126.846 688.641,128.051 690.128,128.051 C691.615,128.051 692.82,126.846 692.82,125.359 L692.82,91.256 C692.82,82.59 686.23,76 677.564,76 C668.898,76 662.308,82.59 662.308,91.256 L662.308,98.436 C662.308,99.923 663.513,101.128 665,101.128 C666.487,101.128 667.692,99.923 667.692,98.436 Z" />
            <path d="M637.18,78.692 L637.18,130.743 C637.18,139.41 643.77,146 652.436,146 C661.102,146 667.692,139.41 667.692,130.743 L667.692,98.436 C667.692,96.949 666.487,95.744 665,95.744 C663.513,95.744 662.308,96.949 662.308,98.436 L662.308,130.743 C662.308,136.436 658.128,140.615 652.436,140.615 C646.743,140.615 642.564,136.436 642.564,130.743 L642.564,78.692 C642.564,77.205 641.359,76 639.872,76 C638.385,76 637.18,77.205 637.18,78.692 Z" />
            <path d="M650.75,85.763 L641.776,76.789 C640.724,75.737 639.02,75.737 637.968,76.789 L628.994,85.763 C627.942,86.814 627.942,88.519 628.994,89.57 C630.045,90.622 631.75,90.622 632.801,89.57 L641.776,80.596 L637.968,80.596 L646.943,89.57 C647.994,90.622 649.699,90.622 650.75,89.57 C651.801,88.519 651.801,86.814 650.75,85.763 Z" />
            <path d="M683.846,134.333 C683.846,130.864 686.659,128.051 690.128,128.051 C693.598,128.051 696.41,130.864 696.41,134.333 C696.41,137.803 693.598,140.615 690.128,140.615 C686.659,140.615 683.846,137.803 683.846,134.333 Z M678.462,134.333 C678.462,140.777 683.685,146 690.128,146 C696.571,146 701.795,140.777 701.795,134.333 C701.795,127.89 696.571,122.667 690.128,122.667 C683.685,122.667 678.462,127.89 678.462,134.333 Z" />
        </g>
    </g>
</svg>