<?xml version="1.0" encoding="UTF-8"?>
<svg height="600" width="800" xmlns="http://www.w3.org/2000/svg" xmlns:xlink="http://www.w3.org/1999/xlink">
    <g id="Notes" font-family="'LucidaGrande', 'Lucida Grande', sans-serif" font-size="13">
        <rect fill="white" height="600.0" width="800.0" x="0.0" y="0.0" />
        <g font-size="13">
            <text x="18.0" y="176.0">Small</text>
            <text x="18.0" y="376.0">Medium</text>
            <text x="18.0" y="576.0">Large</text>
        </g>
        <g font-size="9">
            <text x="250.0" y="30.0">Ultralight</text>
            <text x="450.0" y="30.0">Regular</text>
            <text x="650.0" y="30.0">Black</text>
            <text id="template-version" fill="#505050" text-anchor="end" x="785.0" y="575.0">Template v.3.0</text>
            <a href="https://github.com/swhitty/SwiftDraw">
                <text fill="#505050" text-anchor="end" x="785.0" y="590.0">https://github.com/swhitty/SwiftDraw</text>
            </a>
        </g>
    </g>
    <g id="Guides" stroke="rgb(39, 170, 225)" stroke-width="0.5">
        <path id="Capline-S" d="M18,76 l800,0" />
        <path id="H-reference" d="M85,145.755 L87.685,145.755 L113.369,79.287 L114.052,79.287 L114.052,76 L112.148,76 L85,145.755 Z M95.693,121.536 L130.996,121.536 L130.263,119.313 L96.474,119.313 L95.693,121.536 Z M139.15,145.755 L141.787,145.755 L114.638,76 L113.466,76 L113.466,79.287 L139.15,145.755 Z" stroke="none" />
        <path id="Baseline-S" d="M18,146 l800,0" />
        <path id="left-margin-Ultralight-S" d="M220,56 l0,110" />
        <path id="right-margin-Ultralight-S" d="M310,56 l0,110" />
        <path id="left-margin-Regular-S" d="M420,56 l0,110" />
        <path id="right-margin-Regular-S" d="M510,56 l0,110" />
        <path id="left-margin-Black-S" d="M620,56 l0,110" />
        <path id="right-margin-Black-S" d="M710,56 l0,110" />
        <path id="Capline-M" d="M18,276 l800,0" />
        <path id="Baseline-M" d="M18,346 l800,0" />
        <path id="Capline-L" d="M18,476 l800,0" />
        <path id="Baseline-L" d="M18,546 l800,0" />
    </g>
    <g id="Symbols">
        <g id="Ultralight-S">
            <path d="M238.077,111.897 L291.923,111.897 L289.231,109.205 L289.231,128.949 C289.231,129.444 288.829,129.846 288.333,129.846 L241.667,129.846 C241.171,129.846 240.769,129.444 240.769,128.949 L240.769,109.205 L238.077,111.897 Z M238.077,106.513 C236.59,106.513 235.385,107.718 235.385,109.205 L235.385,128.949 C235.385,132.418 238.197,135.231 241.667,135.231 L288.333,135.231 C291.803,135.231 294.615,132.418 294.615,128.949 L294.615,109.205 C294.615,107.718 293.41,106.513 291.923,106.513 L238.077,106.513 Z" />
            <path d="M240.769,82.282 C240.769,81.786 241.171,81.385 241.667,81.385 L288.333,81.385 C288.829,81.385 289.231,81.786 289.231,82.282 L289.231,109.205 L291.923,106.513 L238.077,106.513 L240.769,109.205 L240.769,82.282 Z M235.385,82.282 L235.385,109.205 C235.385,110.692 236.59,111.897 238.077,111.897 L291.923,111.897 C293.41,111.897 294.615,110.692 294.615,109.205 L294.615,82.282 C294.615,78.813 291.803,76 288.333,76 L241.667,76 C238.197,76 235.385,78.813 235.385,82.282 Z" />
            <path d="M248.846,140.615 C247.359,140.615 246.154,139.41 246.154,137.923 L246.154,132.538 L243.462,135.231 L254.231,135.231 L251.538,132.538 L251.538,137.923 C251.538,139.41 250.333,140.615 248.846,140.615 Z M248.846,146 C253.307,146 256.923,142.384 256.923,137.923 L256.923,132.538 C256.923,131.052 255.718,129.846 254.231,129.846 L243.462,129.846 C241.975,129.846 240.769,131.052 240.769,132.538 L240.769,137.923 C240.769,142.384 244.385,146 248.846,146 Z" />
            <path d="M281.154,140.615 C279.667,140.615 278.462,139.41 278.462,137.923 L278.462,132.538 L275.769,135.231 L286.538,135.231 L283.846,132.538 L283.846,137.923 C283.846,139.41 282.641,140.615 281.154,140.615 Z M281.154,146 C285.615,146 289.231,142.384 289.231,137.923 L289.231,132.538 C289.231,131.052 288.025,129.846 286.538,129.846 L275.769,129.846 C274.282,129.846 273.077,131.052 273.077,132.538 L273.077,137.923 C273.077,142.384 276.693,146 281.154,146 Z" />
            <path d="M230,89.462 L230,96.641 C230,98.128 231.205,99.333 232.692,99.333 C234.179,99.333 235.385,98.128 235.385,96.641 L235.385,89.462 C235.385,87.975 234.179,86.769 232.692,86.769 C231.205,86.769 230,87.975 230,89.462 Z" />
            <path d="M294.615,89.462 L294.615,96.641 C294.615,98.128 295.821,99.333 297.308,99.333 C298.795,99.333 300,98.128 300,96.641 L300,89.462 C300,87.975 298.795,86.769 297.308,86.769 C295.821,86.769 294.615,87.975 294.615,89.462 Z" />
            <path d="M245.256,121.769 C245.256,119.787 246.864,118.179 248.846,118.179 C250.829,118.179 252.436,119.787 252.436,121.769 C252.436,123.752 250.829,125.359 248.846,125.359 C246.864,125.359 245.256,123.752 245.256,121.769 Z" />
            <path d="M277.564,121.769 C277.564,119.787 279.171,118.179 281.154,118.179 C283.136,118.179 284.744,119.787 284.744,121.769 C284.744,123.752 283.136,125.359 281.154,125.359 C279.171,125.359 277.564,123.752 277.564,121.769 Z" />
            <path d="M275.563,76.891 L259.409,94.84 C258.414,95.945 258.504,97.648 259.609,98.642 C260.714,99.637 262.417,99.547 263.411,98.442 L279.565,80.493 C280.56,79.388 280.47,77.686 279.365,76.691 C278.26,75.696 276.558,75.786 275.563,76.891 Z" />
            <path d="M288.06,78.764 L279.086,89.533 C278.134,90.675 278.288,92.373 279.43,93.325 C280.573,94.277 282.27,94.122 283.222,92.98 L292.196,82.211 C293.148,81.068 292.994,79.371 291.852,78.419 C290.709,77.467 289.012,77.621 288.06,78.764 Z" />
        </g>
        <g id="Regular-S">
            <path d="M438.077,111.897 L491.923,111.897 L489.231,109.205 L489.231,128.949 C489.231,129.444 488.829,129.846 488.333,129.846 L441.667,129.846 C441.171,129.846 440.769,129.444 440.769,128.949 L440.769,109.205 L438.077,111.897 Z M438.077,106.513 C436.59,106.513 435.385,107.718 435.385,109.205 L435.385,128.949 C435.385,132.418 438.197,135.231 441.667,135.231 L488.333,135.231 C491.803,135.231 494.615,132.418 494.615,128.949 L494.615,109.205 C494.615,107.718 493.41,106.513 491.923,106.513 L438.077,106.513 Z" />
            <path d="M440.769,82.282 C440.769,81.786 441.171,81.385 441.667,81.385 L488.333,81.385 C488.829,81.385 489.231,81.786 489.231,82.282 L489.231,109.205 L491.923,106.513 L438.077,106.513 L440.769,109.205 L440.769,82.282 Z M435.385,82.282 L435.385,109.205 C435.385,110.692 436.59,111.897 438.077,111.897 L491.923,111.897 C493.41,111.897 494.615,110.692 494.615,109.205 L494.615,82.282 C494.615,78.813 491.803,76 488.333,76 L441.667,76 C438.197,76 435.385,78.813 435.385,82.282 Z" />
            <path d="M448.846,140.615 C447.359,140.615 446.154,139.41 446.154,137.923 L446.154,132.538 L443.462,135.231 L454.231,135.231 L451.538,132.538 L451.538,137.923 C451.538,139.41 450.333,140.615 448.846,140.615 Z M448.846,146 C453.307,146 456.923,142.384 456.923,137.923 L456.923,132.538 C456.923,131.052 455.718,129.846 454.231,129.846 L443.462,129.846 C441.975,129.846 440.769,131.052 440.769,132.538 L440.769,137.923 C440.769,142.384 444.385,146 448.846,146 Z" />
            <path d="M481.154,140.615 C479.667,140.615 478.462,139.41 478.462,137.923 L478.462,132.538 L475.769,135.231 L486.538,135.231 L483.846,132.538 L483.846,137.923 C483.846,139.41 482.641,140.615 481.154,140.615 Z M481.154,146 C485.615,146 489.231,142.384 489.231,137.923 L489.231,132.538 C489.231,131.052 488.025,129.846 486.538,129.846 L475.769,129.846 C474.282,129.846 473.077,131.052 473.077,132.538 L473.077,137.923 C473.077,142.384 476.693,146 481.154,146 Z" />
            <path d="M430,89.462 L430,96.641 C430,98.128 431.205,99.333 432.692,99.333 C434.179,99.333 435.385,98.128 435.385,96.641 L435.385,89.462 C435.385,87.975 434.179,86.769 432.692,86.769 C431.205,86.769 430,87.975 430,89.462 Z" />
            <path d="M494.615,89.462 L494.615,96.641 C494.615,98.128 495.821,99.333 497.308,99.333 C498.795,99.333 500,98.128 500,96.641 L500,89.462 C500,87.975 498.795,86.769 497.308,86.769 C495.821,86.769 494.615,87.975 494.615,89.462 Z" />
            <path d="M445.256,121.769 C445.256,119.787 446.864,118.179 448.846,118.179 C450.829,118.179 452.436,119.787 452.436,121.769 C452.436,123.752 450.829,125.359 448.846,125.359 C446.864,125.359 445.256,123.752 445.256,121.769 Z" />
            <path d="M477.564,121.769 C477.564,119.787 479.171,118.179 481.154,118.179 C483.136,118.179 484.744,119.787 484.744,121.769 C484.744,123.752 483.136,125.359 481.154,125.359 C479.171,125.359 477.564,123.752 477.564,121.769 Z" />
            <path d="M475.563,76.891 L459.409,94.84 C458.414,95.945 458.504,97.648 459.609,98.642 C460.714,99.637 462.417,99.547 463.411,98.442 L479.565,80.493 C480.56,79.388 480.47,77.686 479.365,76.691 C478.26,75.696 476.558,75.786 475.563,76.891 Z" />
            <path d="M488.06,78.764 L479.086,89.533 C478.134,90.675 478.288,92.373 479.43,93.325 C480.573,94.277 482.27,94.122 483.222,92.98 L492.196,82.211 C493.148,81.068 492.994,79.371 491.852,78.419 C490.709,77.467 489.012,77.621 488.06,78.764 Z" />
        </g>
        <g id="Black-S">
            <path d="M638.077,111.897 L691.923,111.897 L689.231,109.205 L689.231,128.949 C689.231,129.444 688.829,129.846 688.333,129.846 L641.667,129.846 C641.171,129.846 640.769,129.444 640.769,128.949 L640.769,109.205 L638.077,111.897 Z M638.077,106.513 C636.59,106.513 635.385,107.718 635.385,109.205 L635.385,128.949 C635.385,132.418 638.197,135.231 641.667,135.231 L688.333,135.231 C691.803,135.231 694.615,132.418 694.615,128.949 L694.615,109.205 C694.615,107.718 693.41,106.513 691.923,106.513 L638.077,106.513 Z" />
            <path d="M640.769,82.282 C640.769,81.786 641.171,81.385 641.667,81.385 L688.333,81.385 C688.829,81.385 689.231,81.786 689.231,82.282 L689.231,109.205 L691.923,106.513 L638.077,106.513 L640.769,109.205 L640.769,82.282 Z M635.385,82.282 L635.385,109.205 C635.385,110.692 636.59,111.897 638.077,111.897 L691.923,111.897 C693.41,111.897 694.615,110.692 694.615,109.205 L694.615,82.282 C694.615,78.813 691.803,76 688.333,76 L641.667,76 C638.197,76 635.385,78.813 635.385,82.282 Z" />
            <path d="M648.846,140.615 C647.359,140.615 646.154,139.41 646.154,137.923 L646.154,132.538 L643.462,135.231 L654.231,135.231 L651.538,132.538 L651.538,137.923 C651.538,139.41 650.333,140.615 648.846,140.615 Z M648.846,146 C653.307,146 656.923,142.384 656.923,137.923 L656.923,132.538 C656.923,131.052 655.718,129.846 654.231,129.846 L643.462,129.846 C641.975,129.846 640.769,131.052 640.769,132.538 L640.769,137.923 C640.769,142.384 644.385,146 648.846,146 Z" />
            <path d="M681.154,140.615 C679.667,140.615 678.462,139.41 678.462,137.923 L678.462,132.538 L675.769,135.231 L686.538,135.231 L683.846,132.538 L683.846,137.923 C683.846,139.41 682.641,140.615 681.154,140.615 Z M681.154,146 C685.615,146 689.231,142.384 689.231,137.923 L689.231,132.538 C689.231,131.052 688.025,129.846 686.538,129.846 L675.769,129.846 C674.282,129.846 673.077,131.052 673.077,132.538 L673.077,137.923 C673.077,142.384 676.693,146 681.154,146 Z" />
            <path d="M630,89.462 L630,96.641 C630,98.128 631.205,99.333 632.692,99.333 C634.179,99.333 635.385,98.128 635.385,96.641 L635.385,89.462 C635.385,87.975 634.179,86.769 632.692,86.769 C631.205,86.769 630,87.975 630,89.462 Z" />
            <path d="M694.615,89.462 L694.615,96.641 C694.615,98.128 695.821,99.333 697.308,99.333 C698.795,99.333 700,98.128 700,96.641 L700,89.462 C700,87.975 698.795,86.769 697.308,86.769 C695.821,86.769 694.615,87.975 694.615,89.462 Z" />
            <path d="M645.256,121.769 C645.256,119.787 646.864,118.179 648.846,118.179 C650.829,118.179 652.436,119.787 652.436,121.769 C652.436,123.752 650.829,125.359 648.846,125.359 C646.864,125.359 645.256,123.752 645.256,121.769 Z" />
            <path d="M677.564,121.769 C677.564,119.787 679.171,118.179 681.154,118.179 C683.136,118.179 684.744,119.787 684.744,121.769 C684.744,123.752 683.136,125.359 681.154,125.359 C679.171,125.359 677.564,123.752 677.564,121.769 Z" />
            <path d="M675.563,76.891 L659.409,94.84 C658.414,95.945 658.504,97.648 659.609,98.642 C660.714,99.637 662.417,99.547 663.411,98.442 L679.565,80.493 C680.56,79.388 680.47,77.686 679.365,76.691 C678.26,75.696 676.558,75.786 675.563,76.891 Z" />
            <path d="M688.06,78.764 L679.086,89.533 C678.134,90.675 678.288,92.373 679.43,93.325 C680.573,94.277 682.27,94.122 683.222,92.98 L692.196,82.211 C693.148,81.068 692.994,79.371 691.852,78.419 C690.709,77.467 689.012,77.621 688.06,78.764 Z" />
        </g>
    </g>
</svg>