<?xml version="1.0" encoding="UTF-8"?>
<svg height="600" width="800" xmlns="http://www.w3.org/2000/svg" xmlns:xlink="http://www.w3.org/1999/xlink">
    <g id="Notes" font-family="'LucidaGrande', 'Lucida Grande', sans-serif" font-size="13">
        <rect fill="white" height="600.0" width="800.0" x="0.0" y="0.0" />
        <g font-size="13">
            <text x="18.0" y="176.0">Small</text>
            <text x="18.0" y="376.0">Medium</text>
            <text x="18.0" y="576.0">Large</text>
        </g>
        <g font-size="9">
            <text x="250.0" y="30.0">Ultralight</text>
            <text x="450.0" y="30.0">Regular</text>
            <text x="650.0" y="30.0">Black</text>
            <text id="template-version" fill="#505050" text-anchor="end" x="785.0" y="575.0">Template v.3.0</text>
            <a href="https://github.com/swhitty/SwiftDraw">
                <text fill="#505050" text-anchor="end" x="785.0" y="590.0">https://github.com/swhitty/SwiftDraw</text>
            </a>
        </g>
    </g>
    <g id="Guides" stroke="rgb(39, 170, 225)" stroke-width="0.5">
        <path id="Capline-S" d="M18,76 l800,0" />
        <path id="H-reference" d="M85,145.755 L87.685,145.755 L113.369,79.287 L114.052,79.287 L114.052,76 L112.148,76 L85,145.755 Z M95.693,121.536 L130.996,121.536 L130.263,119.313 L96.474,119.313 L95.693,121.536 Z M139.15,145.755 L141.787,145.755 L114.638,76 L113.466,76 L113.466,79.287 L139.15,145.755 Z" stroke="none" />
        <path id="Baseline-S" d="M18,146 l800,0" />
        <path id="left-margin-Ultralight-S" d="M213.634,56 l0,110" />
        <path id="right-margin-Ultralight-S" d="M316.366,56 l0,110" />
        <path id="left-margin-Regular-S" d="M413.634,56 l0,110" />
        <path id="right-margin-Regular-S" d="M516.366,56 l0,110" />
        <path id="left-margin-Black-S" d="M613.634,56 l0,110" />
        <path id="right-margin-Black-S" d="M716.366,56 l0,110" />
        <path id="Capline-M" d="M18,276 l800,0" />
        <path id="Baseline-M" d="M18,346 l800,0" />
        <path id="Capline-L" d="M18,476 l800,0" />
        <path id="Baseline-L" d="M18,546 l800,0" />
    </g>
    <g id="Symbols">
        <g id="Ultralight-S">
            <path d="M256.518,82.364 L303.184,82.364 C304.941,82.364 306.366,80.939 306.366,79.182 C306.366,77.425 304.941,76 303.184,76 L256.518,76 C254.76,76 253.336,77.425 253.336,79.182 C253.336,80.939 254.76,82.364 256.518,82.364 Z" />
            <path d="M256.518,103.576 L303.184,103.576 C304.941,103.576 306.366,102.151 306.366,100.394 C306.366,98.637 304.941,97.212 303.184,97.212 L256.518,97.212 C254.76,97.212 253.336,98.637 253.336,100.394 C253.336,102.151 254.76,103.576 256.518,103.576 Z" />
            <path d="M256.518,124.788 L303.184,124.788 C304.941,124.788 306.366,123.363 306.366,121.606 C306.366,119.849 304.941,118.424 303.184,118.424 L256.518,118.424 C254.76,118.424 253.336,119.849 253.336,121.606 C253.336,123.363 254.76,124.788 256.518,124.788 Z" />
            <path d="M256.518,146 L303.184,146 C304.941,146 306.366,144.575 306.366,142.818 C306.366,141.061 304.941,139.636 303.184,139.636 L256.518,139.636 C254.76,139.636 253.336,141.061 253.336,142.818 C253.336,144.575 254.76,146 256.518,146 Z" />
            <path d="M226.821,124.788 L239.548,124.788 L236.82,119.969 L224.092,141.181 C222.82,143.302 224.348,146 226.821,146 L239.548,146 C241.305,146 242.73,144.575 242.73,142.818 C242.73,141.061 241.305,139.636 239.548,139.636 L226.821,139.636 L229.549,144.455 L242.276,123.243 C243.549,121.122 242.021,118.424 239.548,118.424 L226.821,118.424 C225.063,118.424 223.639,119.849 223.639,121.606 C223.639,123.363 225.063,124.788 226.821,124.788 Z" />
            <path d="M229.987,100.711 L230.623,94.347 C230.798,92.599 229.522,91.039 227.774,90.864 C226.025,90.69 224.466,91.965 224.291,93.714 L223.655,100.077 C223.48,101.826 224.756,103.385 226.504,103.56 C228.253,103.735 229.812,102.459 229.987,100.711 Z M242.714,100.077 L242.078,93.714 C241.903,91.965 240.344,90.69 238.595,90.864 C236.846,91.039 235.571,92.599 235.746,94.347 L236.382,100.711 C236.557,102.459 238.116,103.735 239.865,103.56 C241.613,103.385 242.889,101.826 242.714,100.077 Z M242.078,93.714 L240.593,78.865 C240.43,77.239 239.061,76 237.427,76 L228.942,76 C227.307,76 225.939,77.239 225.776,78.865 L224.291,93.714 C224.116,95.462 225.392,97.022 227.141,97.196 C228.889,97.371 230.448,96.096 230.623,94.347 L232.108,79.499 L228.942,82.364 L237.427,82.364 L234.261,79.498 L235.746,94.347 C235.92,96.096 237.48,97.371 239.228,97.196 C240.977,97.022 242.253,95.462 242.078,93.714 Z M238.912,90.849 L227.457,90.849 C225.7,90.849 224.275,92.273 224.275,94.03 C224.275,95.788 225.7,97.212 227.457,97.212 L238.912,97.212 C240.669,97.212 242.093,95.788 242.093,94.03 C242.093,92.273 240.669,90.849 238.912,90.849 Z" />
        </g>
        <g id="Regular-S">
            <path d="M456.518,82.364 L503.184,82.364 C504.941,82.364 506.366,80.939 506.366,79.182 C506.366,77.425 504.941,76 503.184,76 L456.518,76 C454.76,76 453.336,77.425 453.336,79.182 C453.336,80.939 454.76,82.364 456.518,82.364 Z" />
            <path d="M456.518,103.576 L503.184,103.576 C504.941,103.576 506.366,102.151 506.366,100.394 C506.366,98.637 504.941,97.212 503.184,97.212 L456.518,97.212 C454.76,97.212 453.336,98.637 453.336,100.394 C453.336,102.151 454.76,103.576 456.518,103.576 Z" />
            <path d="M456.518,124.788 L503.184,124.788 C504.941,124.788 506.366,123.363 506.366,121.606 C506.366,119.849 504.941,118.424 503.184,118.424 L456.518,118.424 C454.76,118.424 453.336,119.849 453.336,121.606 C453.336,123.363 454.76,124.788 456.518,124.788 Z" />
            <path d="M456.518,146 L503.184,146 C504.941,146 506.366,144.575 506.366,142.818 C506.366,141.061 504.941,139.636 503.184,139.636 L456.518,139.636 C454.76,139.636 453.336,141.061 453.336,142.818 C453.336,144.575 454.76,146 456.518,146 Z" />
            <path d="M426.821,124.788 L439.548,124.788 L436.82,119.969 L424.092,141.181 C422.82,143.302 424.348,146 426.821,146 L439.548,146 C441.305,146 442.73,144.575 442.73,142.818 C442.73,141.061 441.305,139.636 439.548,139.636 L426.821,139.636 L429.549,144.455 L442.276,123.243 C443.549,121.122 442.021,118.424 439.548,118.424 L426.821,118.424 C425.063,118.424 423.639,119.849 423.639,121.606 C423.639,123.363 425.063,124.788 426.821,124.788 Z" />
            <path d="M429.987,100.711 L430.623,94.347 C430.798,92.599 429.522,91.039 427.774,90.864 C426.025,90.69 424.466,91.965 424.291,93.714 L423.655,100.077 C423.48,101.826 424.756,103.385 426.504,103.56 C428.253,103.735 429.812,102.459 429.987,100.711 Z M442.714,100.077 L442.078,93.714 C441.903,91.965 440.344,90.69 438.595,90.864 C436.846,91.039 435.571,92.599 435.746,94.347 L436.382,100.711 C436.557,102.459 438.116,103.735 439.865,103.56 C441.613,103.385 442.889,101.826 442.714,100.077 Z M442.078,93.714 L440.593,78.865 C440.43,77.239 439.061,76 437.427,76 L428.942,76 C427.307,76 425.939,77.239 425.776,78.865 L424.291,93.714 C424.116,95.462 425.392,97.022 427.141,97.196 C428.889,97.371 430.448,96.096 430.623,94.347 L432.108,79.499 L428.942,82.364 L437.427,82.364 L434.261,79.498 L435.746,94.347 C435.92,96.096 437.48,97.371 439.228,97.196 C440.977,97.022 442.252,95.462 442.078,93.714 Z M438.912,90.849 L427.457,90.849 C425.7,90.849 424.275,92.273 424.275,94.03 C424.275,95.788 425.7,97.212 427.457,97.212 L438.912,97.212 C440.669,97.212 442.093,95.788 442.093,94.03 C442.093,92.273 440.669,90.849 438.912,90.849 Z" />
        </g>
        <g id="Black-S">
            <path d="M656.518,82.364 L703.184,82.364 C704.941,82.364 706.366,80.939 706.366,79.182 C706.366,77.425 704.941,76 703.184,76 L656.518,76 C654.76,76 653.336,77.425 653.336,79.182 C653.336,80.939 654.76,82.364 656.518,82.364 Z" />
            <path d="M656.518,103.576 L703.184,103.576 C704.941,103.576 706.366,102.151 706.366,100.394 C706.366,98.637 704.941,97.212 703.184,97.212 L656.518,97.212 C654.76,97.212 653.336,98.637 653.336,100.394 C653.336,102.151 654.76,103.576 656.518,103.576 Z" />
            <path d="M656.518,124.788 L703.184,124.788 C704.941,124.788 706.366,123.363 706.366,121.606 C706.366,119.849 704.941,118.424 703.184,118.424 L656.518,118.424 C654.76,118.424 653.336,119.849 653.336,121.606 C653.336,123.363 654.76,124.788 656.518,124.788 Z" />
            <path d="M656.518,146 L703.184,146 C704.941,146 706.366,144.575 706.366,142.818 C706.366,141.061 704.941,139.636 703.184,139.636 L656.518,139.636 C654.76,139.636 653.336,141.061 653.336,142.818 C653.336,144.575 654.76,146 656.518,146 Z" />
            <path d="M626.821,124.788 L639.548,124.788 L636.82,119.969 L624.092,141.181 C622.82,143.302 624.348,146 626.821,146 L639.548,146 C641.305,146 642.73,144.575 642.73,142.818 C642.73,141.061 641.305,139.636 639.548,139.636 L626.821,139.636 L629.549,144.455 L642.276,123.243 C643.549,121.122 642.021,118.424 639.548,118.424 L626.821,118.424 C625.063,118.424 623.639,119.849 623.639,121.606 C623.639,123.363 625.063,124.788 626.821,124.788 Z" />
            <path d="M629.987,100.711 L630.623,94.347 C630.798,92.599 629.522,91.039 627.774,90.864 C626.025,90.69 624.466,91.965 624.291,93.714 L623.655,100.077 C623.48,101.826 624.756,103.385 626.504,103.56 C628.253,103.735 629.812,102.459 629.987,100.711 Z M642.714,100.077 L642.078,93.714 C641.903,91.965 640.344,90.69 638.595,90.864 C636.846,91.039 635.571,92.599 635.746,94.347 L636.382,100.711 C636.557,102.459 638.116,103.735 639.865,103.56 C641.613,103.385 642.889,101.826 642.714,100.077 Z M642.078,93.714 L640.593,78.865 C640.43,77.239 639.061,76 637.427,76 L628.942,76 C627.307,76 625.939,77.239 625.776,78.865 L624.291,93.714 C624.116,95.462 625.392,97.022 627.141,97.196 C628.889,97.371 630.448,96.096 630.623,94.347 L632.108,79.499 L628.942,82.364 L637.427,82.364 L634.261,79.498 L635.746,94.347 C635.92,96.096 637.48,97.371 639.228,97.196 C640.977,97.022 642.253,95.462 642.078,93.714 Z M638.912,90.849 L627.457,90.849 C625.7,90.849 624.275,92.273 624.275,94.03 C624.275,95.788 625.7,97.212 627.457,97.212 L638.912,97.212 C640.669,97.212 642.093,95.788 642.093,94.03 C642.093,92.273 640.669,90.849 638.912,90.849 Z" />
        </g>
    </g>
</svg>