<?xml version="1.0" encoding="UTF-8"?>
<svg height="600" width="800" xmlns="http://www.w3.org/2000/svg" xmlns:xlink="http://www.w3.org/1999/xlink">
    <g id="Notes" font-family="'LucidaGrande', 'Lucida Grande', sans-serif" font-size="13">
        <rect fill="white" height="600.0" width="800.0" x="0.0" y="0.0" />
        <g font-size="13">
            <text x="18.0" y="176.0">Small</text>
            <text x="18.0" y="376.0">Medium</text>
            <text x="18.0" y="576.0">Large</text>
        </g>
        <g font-size="9">
            <text x="250.0" y="30.0">Ultralight</text>
            <text x="450.0" y="30.0">Regular</text>
            <text x="650.0" y="30.0">Black</text>
            <text id="template-version" fill="#505050" text-anchor="end" x="785.0" y="575.0">Template v.3.0</text>
            <a href="https://github.com/swhitty/SwiftDraw">
                <text fill="#505050" text-anchor="end" x="785.0" y="590.0">https://github.com/swhitty/SwiftDraw</text>
            </a>
        </g>
    </g>
    <g id="Guides" stroke="rgb(39, 170, 225)" stroke-width="0.5">
        <path id="Capline-S" d="M18,76 l800,0" />
        <path id="H-reference" d="M85,145.755 L87.685,145.755 L113.369,79.287 L114.052,79.287 L114.052,76 L112.148,76 L85,145.755 Z M95.693,121.536 L130.996,121.536 L130.263,119.313 L96.474,119.313 L95.693,121.536 Z M139.15,145.755 L141.787,145.755 L114.638,76 L113.466,76 L113.466,79.287 L139.15,145.755 Z" stroke="none" />
        <path id="Baseline-S" d="M18,146 l800,0" />
        <path id="left-margin-Ultralight-S" d="M220.002,56 l0,110" />
        <path id="right-margin-Ultralight-S" d="M309.998,56 l0,110" />
        <path id="left-margin-Regular-S" d="M420.002,56 l0,110" />
        <path id="right-margin-Regular-S" d="M509.998,56 l0,110" />
        <path id="left-margin-Black-S" d="M620.002,56 l0,110" />
        <path id="right-margin-Black-S" d="M709.998,56 l0,110" />
        <path id="Capline-M" d="M18,276 l800,0" />
        <path id="Baseline-M" d="M18,346 l800,0" />
        <path id="Capline-L" d="M18,476 l800,0" />
        <path id="Baseline-L" d="M18,546 l800,0" />
    </g>
    <g id="Symbols">
        <g id="Ultralight-S">
            <path d="M266.628,141.115 L287.789,141.115 C289.138,141.115 290.231,140.021 290.231,138.673 L290.231,127.278 C290.231,125.93 289.138,124.836 287.789,124.836 C286.441,124.836 285.348,125.93 285.348,127.278 L285.348,138.673 L287.789,136.231 L266.628,136.231 C265.279,136.231 264.186,137.324 264.186,138.673 C264.186,140.021 265.279,141.115 266.628,141.115 Z" />
            <path d="M266.628,85.769 L287.789,85.769 L285.348,83.327 L285.348,94.722 C285.348,96.07 286.441,97.164 287.789,97.164 C289.138,97.164 290.231,96.07 290.231,94.722 L290.231,83.327 C290.231,81.979 289.138,80.886 287.789,80.886 L266.628,80.886 C265.279,80.886 264.186,81.979 264.186,83.327 C264.186,84.676 265.279,85.769 266.628,85.769 Z" />
            <path d="M264.186,127.674 L264.186,143.556 L267.452,141.258 L243.035,132.498 L244.652,134.796 L244.652,127.278 C244.652,125.93 243.559,124.836 242.211,124.836 C240.862,124.836 239.769,125.93 239.769,127.278 L239.769,134.796 C239.769,135.827 240.416,136.747 241.386,137.095 L265.803,145.854 C267.394,146.425 269.07,145.246 269.07,143.556 L269.07,127.674 C269.07,126.325 267.976,125.232 266.628,125.232 C265.279,125.232 264.186,126.325 264.186,127.674 Z" />
            <path d="M269.07,94.678 L269.07,78.444 C269.07,76.754 267.394,75.575 265.803,76.146 L241.386,84.905 C240.416,85.253 239.769,86.173 239.769,87.203 L239.769,94.678 C239.769,96.026 240.862,97.12 242.211,97.12 C243.559,97.12 244.652,96.026 244.652,94.678 L244.652,87.203 L243.035,89.502 L267.452,80.742 L264.186,78.444 L264.186,94.678 C264.186,96.026 265.279,97.12 266.628,97.12 C267.976,97.12 269.07,96.026 269.07,94.678 Z" />
            <path d="M295.115,111 L295.115,124.022 C295.115,124.238 295.029,124.445 294.876,124.598 C294.723,124.751 294.516,124.836 294.301,124.836 L235.699,124.836 C235.484,124.836 235.277,124.751 235.124,124.598 C234.971,124.445 234.886,124.238 234.886,124.022 L234.886,97.978 C234.886,97.762 234.971,97.555 235.124,97.402 C235.277,97.249 235.484,97.164 235.699,97.164 L294.301,97.164 C294.516,97.164 294.723,97.249 294.876,97.402 C295.029,97.555 295.115,97.762 295.115,97.978 L295.115,111 Z M299.998,111 L299.998,97.978 C299.998,96.466 299.398,95.017 298.329,93.949 C297.261,92.88 295.812,92.28 294.301,92.28 L235.699,92.28 C234.188,92.28 232.739,92.88 231.671,93.949 C230.602,95.017 230.002,96.466 230.002,97.978 L230.002,124.022 C230.002,125.534 230.602,126.983 231.671,128.051 C232.739,129.12 234.188,129.72 235.699,129.72 L294.301,129.72 C295.812,129.72 297.261,129.12 298.329,128.051 C299.398,126.983 299.998,125.534 299.998,124.022 L299.998,111 Z" />
            <path d="M239.769,102.861 L239.769,119.139 C239.769,120.488 240.862,121.581 242.211,121.581 C243.559,121.581 244.652,120.488 244.652,119.139 L244.652,102.861 C244.652,101.512 243.559,100.419 242.211,100.419 C240.862,100.419 239.769,101.512 239.769,102.861 Z" />
            <path d="M257.675,102.861 L257.675,119.139 C257.675,120.488 258.768,121.581 260.117,121.581 C261.465,121.581 262.558,120.488 262.558,119.139 L262.558,102.861 C262.558,101.512 261.465,100.419 260.117,100.419 C258.768,100.419 257.675,101.512 257.675,102.861 Z" />
            <path d="M280.464,104.489 L280.464,117.511 C280.464,118.86 281.557,119.953 282.906,119.953 C284.254,119.953 285.348,118.86 285.348,117.511 L285.348,104.489 C285.348,103.14 284.254,102.047 282.906,102.047 C281.557,102.047 280.464,103.14 280.464,104.489 Z" />
            <path d="M278.022,106.93 L282.906,106.93 L287.789,106.93 C289.138,106.93 290.231,105.837 290.231,104.489 C290.231,103.14 289.138,102.047 287.789,102.047 L282.906,102.047 L278.022,102.047 C276.674,102.047 275.581,103.14 275.581,104.489 C275.581,105.837 276.674,106.93 278.022,106.93 Z" />
            <path d="M242.211,105.303 L247.094,105.303 C248.443,105.303 249.536,106.396 249.536,107.744 C249.536,109.093 248.443,110.186 247.094,110.186 L242.211,110.186 C240.862,110.186 239.769,111.279 239.769,112.628 C239.769,113.976 240.862,115.07 242.211,115.07 L247.094,115.07 C251.14,115.07 254.419,111.79 254.419,107.744 C254.419,103.699 251.14,100.419 247.094,100.419 L242.211,100.419 C240.862,100.419 239.769,101.512 239.769,102.861 C239.769,104.209 240.862,105.303 242.211,105.303 Z" />
            <path d="M260.117,105.303 L265,105.303 C266.349,105.303 267.442,106.396 267.442,107.744 C267.442,109.093 266.349,110.186 265,110.186 L260.117,110.186 C258.768,110.186 257.675,111.279 257.675,112.628 C257.675,113.976 258.768,115.07 260.117,115.07 L265,115.07 C269.046,115.07 272.325,111.79 272.325,107.744 C272.325,103.699 269.046,100.419 265,100.419 L260.117,100.419 C258.768,100.419 257.675,101.512 257.675,102.861 C257.675,104.209 258.768,105.303 260.117,105.303 Z" />
        </g>
        <g id="Regular-S">
            <path d="M466.628,141.115 L487.789,141.115 C489.138,141.115 490.231,140.021 490.231,138.673 L490.231,127.278 C490.231,125.93 489.138,124.836 487.789,124.836 C486.441,124.836 485.348,125.93 485.348,127.278 L485.348,138.673 L487.789,136.231 L466.628,136.231 C465.279,136.231 464.186,137.324 464.186,138.673 C464.186,140.021 465.279,141.115 466.628,141.115 Z" />
            <path d="M466.628,85.769 L487.789,85.769 L485.348,83.327 L485.348,94.722 C485.348,96.07 486.441,97.164 487.789,97.164 C489.138,97.164 490.231,96.07 490.231,94.722 L490.231,83.327 C490.231,81.979 489.138,80.886 487.789,80.886 L466.628,80.886 C465.279,80.886 464.186,81.979 464.186,83.327 C464.186,84.676 465.279,85.769 466.628,85.769 Z" />
            <path d="M464.186,127.674 L464.186,143.556 L467.452,141.258 L443.035,132.498 L444.652,134.796 L444.652,127.278 C444.652,125.93 443.559,124.836 442.211,124.836 C440.862,124.836 439.769,125.93 439.769,127.278 L439.769,134.796 C439.769,135.827 440.416,136.747 441.386,137.095 L465.803,145.854 C467.394,146.425 469.07,145.246 469.07,143.556 L469.07,127.674 C469.07,126.325 467.976,125.232 466.628,125.232 C465.279,125.232 464.186,126.325 464.186,127.674 Z" />
            <path d="M469.07,94.678 L469.07,78.444 C469.07,76.754 467.394,75.575 465.803,76.146 L441.386,84.905 C440.416,85.253 439.769,86.173 439.769,87.203 L439.769,94.678 C439.769,96.026 440.862,97.12 442.211,97.12 C443.559,97.12 444.652,96.026 444.652,94.678 L444.652,87.203 L443.035,89.502 L467.452,80.742 L464.186,78.444 L464.186,94.678 C464.186,96.026 465.279,97.12 466.628,97.12 C467.976,97.12 469.07,96.026 469.07,94.678 Z" />
            <path d="M495.115,111 L495.115,124.022 C495.115,124.238 495.029,124.445 494.876,124.598 C494.723,124.751 494.516,124.836 494.301,124.836 L435.699,124.836 C435.484,124.836 435.277,124.751 435.124,124.598 C434.971,124.445 434.885,124.238 434.885,124.022 L434.885,97.978 C434.885,97.762 434.971,97.555 435.124,97.402 C435.277,97.249 435.484,97.164 435.699,97.164 L494.301,97.164 C494.516,97.164 494.723,97.249 494.876,97.402 C495.029,97.555 495.115,97.762 495.115,97.978 L495.115,111 Z M499.998,111 L499.998,97.978 C499.998,96.466 499.398,95.017 498.329,93.949 C497.261,92.88 495.812,92.28 494.301,92.28 L435.699,92.28 C434.188,92.28 432.739,92.88 431.671,93.949 C430.602,95.017 430.002,96.466 430.002,97.978 L430.002,124.022 C430.002,125.534 430.602,126.983 431.671,128.051 C432.739,129.12 434.188,129.72 435.699,129.72 L494.301,129.72 C495.812,129.72 497.261,129.12 498.329,128.051 C499.398,126.983 499.998,125.534 499.998,124.022 L499.998,111 Z" />
            <path d="M439.769,102.861 L439.769,119.139 C439.769,120.488 440.862,121.581 442.211,121.581 C443.559,121.581 444.652,120.488 444.652,119.139 L444.652,102.861 C444.652,101.512 443.559,100.419 442.211,100.419 C440.862,100.419 439.769,101.512 439.769,102.861 Z" />
            <path d="M457.675,102.861 L457.675,119.139 C457.675,120.488 458.768,121.581 460.117,121.581 C461.465,121.581 462.558,120.488 462.558,119.139 L462.558,102.861 C462.558,101.512 461.465,100.419 460.117,100.419 C458.768,100.419 457.675,101.512 457.675,102.861 Z" />
            <path d="M480.464,104.489 L480.464,117.511 C480.464,118.86 481.557,119.953 482.906,119.953 C484.254,119.953 485.348,118.86 485.348,117.511 L485.348,104.489 C485.348,103.14 484.254,102.047 482.906,102.047 C481.557,102.047 480.464,103.14 480.464,104.489 Z" />
            <path d="M478.022,106.93 L482.906,106.93 L487.789,106.93 C489.138,106.93 490.231,105.837 490.231,104.489 C490.231,103.14 489.138,102.047 487.789,102.047 L482.906,102.047 L478.022,102.047 C476.674,102.047 475.581,103.14 475.581,104.489 C475.581,105.837 476.674,106.93 478.022,106.93 Z" />
            <path d="M442.211,105.303 L447.094,105.303 C448.443,105.303 449.536,106.396 449.536,107.744 C449.536,109.093 448.443,110.186 447.094,110.186 L442.211,110.186 C440.862,110.186 439.769,111.279 439.769,112.628 C439.769,113.976 440.862,115.07 442.211,115.07 L447.094,115.07 C451.14,115.07 454.419,111.79 454.419,107.744 C454.419,103.699 451.14,100.419 447.094,100.419 L442.211,100.419 C440.862,100.419 439.769,101.512 439.769,102.861 C439.769,104.209 440.862,105.303 442.211,105.303 Z" />
            <path d="M460.117,105.303 L465,105.303 C466.349,105.303 467.442,106.396 467.442,107.744 C467.442,109.093 466.349,110.186 465,110.186 L460.117,110.186 C458.768,110.186 457.675,111.279 457.675,112.628 C457.675,113.976 458.768,115.07 460.117,115.07 L465,115.07 C469.046,115.07 472.325,111.79 472.325,107.744 C472.325,103.699 469.046,100.419 465,100.419 L460.117,100.419 C458.768,100.419 457.675,101.512 457.675,102.861 C457.675,104.209 458.768,105.303 460.117,105.303 Z" />
        </g>
        <g id="Black-S">
            <path d="M666.628,141.115 L687.789,141.115 C689.138,141.115 690.231,140.021 690.231,138.673 L690.231,127.278 C690.231,125.93 689.138,124.836 687.789,124.836 C686.441,124.836 685.348,125.93 685.348,127.278 L685.348,138.673 L687.789,136.231 L666.628,136.231 C665.279,136.231 664.186,137.324 664.186,138.673 C664.186,140.021 665.279,141.115 666.628,141.115 Z" />
            <path d="M666.628,85.769 L687.789,85.769 L685.348,83.327 L685.348,94.722 C685.348,96.07 686.441,97.164 687.789,97.164 C689.138,97.164 690.231,96.07 690.231,94.722 L690.231,83.327 C690.231,81.979 689.138,80.886 687.789,80.886 L666.628,80.886 C665.279,80.886 664.186,81.979 664.186,83.327 C664.186,84.676 665.279,85.769 666.628,85.769 Z" />
            <path d="M664.186,127.674 L664.186,143.556 L667.452,141.258 L643.035,132.498 L644.652,134.796 L644.652,127.278 C644.652,125.93 643.559,124.836 642.211,124.836 C640.862,124.836 639.769,125.93 639.769,127.278 L639.769,134.796 C639.769,135.827 640.416,136.747 641.386,137.095 L665.803,145.854 C667.394,146.425 669.07,145.246 669.07,143.556 L669.07,127.674 C669.07,126.325 667.976,125.232 666.628,125.232 C665.279,125.232 664.186,126.325 664.186,127.674 Z" />
            <path d="M669.07,94.678 L669.07,78.444 C669.07,76.754 667.394,75.575 665.803,76.146 L641.386,84.905 C640.416,85.253 639.769,86.173 639.769,87.203 L639.769,94.678 C639.769,96.026 640.862,97.12 642.211,97.12 C643.559,97.12 644.652,96.026 644.652,94.678 L644.652,87.203 L643.035,89.502 L667.452,80.742 L664.186,78.444 L664.186,94.678 C664.186,96.026 665.279,97.12 666.628,97.12 C667.976,97.12 669.07,96.026 669.07,94.678 Z" />
            <path d="M695.115,111 L695.115,124.022 C695.115,124.238 695.029,124.445 694.876,124.598 C694.723,124.751 694.516,124.836 694.301,124.836 L635.699,124.836 C635.484,124.836 635.277,124.751 635.124,124.598 C634.971,124.445 634.885,124.238 634.885,124.022 L634.885,97.978 C634.885,97.762 634.971,97.555 635.124,97.402 C635.277,97.249 635.484,97.164 635.699,97.164 L694.301,97.164 C694.516,97.164 694.723,97.249 694.876,97.402 C695.029,97.555 695.115,97.762 695.115,97.978 L695.115,111 Z M699.998,111 L699.998,97.978 C699.998,96.466 699.398,95.017 698.329,93.949 C697.261,92.88 695.812,92.28 694.301,92.28 L635.699,92.28 C634.188,92.28 632.739,92.88 631.671,93.949 C630.602,95.017 630.002,96.466 630.002,97.978 L630.002,124.022 C630.002,125.534 630.602,126.983 631.671,128.051 C632.739,129.12 634.188,129.72 635.699,129.72 L694.301,129.72 C695.812,129.72 697.261,129.12 698.329,128.051 C699.398,126.983 699.998,125.534 699.998,124.022 L699.998,111 Z" />
            <path d="M639.769,102.861 L639.769,119.139 C639.769,120.488 640.862,121.581 642.211,121.581 C643.559,121.581 644.652,120.488 644.652,119.139 L644.652,102.861 C644.652,101.512 643.559,100.419 642.211,100.419 C640.862,100.419 639.769,101.512 639.769,102.861 Z" />
            <path d="M657.675,102.861 L657.675,119.139 C657.675,120.488 658.768,121.581 660.117,121.581 C661.465,121.581 662.558,120.488 662.558,119.139 L662.558,102.861 C662.558,101.512 661.465,100.419 660.117,100.419 C658.768,100.419 657.675,101.512 657.675,102.861 Z" />
            <path d="M680.464,104.489 L680.464,117.511 C680.464,118.86 681.557,119.953 682.906,119.953 C684.254,119.953 685.348,118.86 685.348,117.511 L685.348,104.489 C685.348,103.14 684.254,102.047 682.906,102.047 C681.557,102.047 680.464,103.14 680.464,104.489 Z" />
            <path d="M678.022,106.93 L682.906,106.93 L687.789,106.93 C689.138,106.93 690.231,105.837 690.231,104.489 C690.231,103.14 689.138,102.047 687.789,102.047 L682.906,102.047 L678.022,102.047 C676.674,102.047 675.581,103.14 675.581,104.489 C675.581,105.837 676.674,106.93 678.022,106.93 Z" />
            <path d="M642.211,105.303 L647.094,105.303 C648.443,105.303 649.536,106.396 649.536,107.744 C649.536,109.093 648.443,110.186 647.094,110.186 L642.211,110.186 C640.862,110.186 639.769,111.279 639.769,112.628 C639.769,113.976 640.862,115.07 642.211,115.07 L647.094,115.07 C651.14,115.07 654.419,111.79 654.419,107.744 C654.419,103.699 651.14,100.419 647.094,100.419 L642.211,100.419 C640.862,100.419 639.769,101.512 639.769,102.861 C639.769,104.209 640.862,105.303 642.211,105.303 Z" />
            <path d="M660.117,105.303 L665,105.303 C666.349,105.303 667.442,106.396 667.442,107.744 C667.442,109.093 666.349,110.186 665,110.186 L660.117,110.186 C658.768,110.186 657.675,111.279 657.675,112.628 C657.675,113.976 658.768,115.07 660.117,115.07 L665,115.07 C669.046,115.07 672.325,111.79 672.325,107.744 C672.325,103.699 669.046,100.419 665,100.419 L660.117,100.419 C658.768,100.419 657.675,101.512 657.675,102.861 C657.675,104.209 658.768,105.303 660.117,105.303 Z" />
        </g>
    </g>
</svg>