<?xml version="1.0" encoding="UTF-8"?>
<svg height="600" width="800" xmlns="http://www.w3.org/2000/svg" xmlns:xlink="http://www.w3.org/1999/xlink">
    <g id="Notes" font-family="'LucidaGrande', 'Lucida Grande', sans-serif" font-size="13">
        <rect fill="white" height="600.0" width="800.0" x="0.0" y="0.0" />
        <g font-size="13">
            <text x="18.0" y="176.0">Small</text>
            <text x="18.0" y="376.0">Medium</text>
            <text x="18.0" y="576.0">Large</text>
        </g>
        <g font-size="9">
            <text x="250.0" y="30.0">Ultralight</text>
            <text x="450.0" y="30.0">Regular</text>
            <text x="650.0" y="30.0">Black</text>
            <text id="template-version" fill="#505050" text-anchor="end" x="785.0" y="575.0">Template v.3.0</text>
            <a href="https://github.com/swhitty/SwiftDraw">
                <text fill="#505050" text-anchor="end" x="785.0" y="590.0">https://github.com/swhitty/SwiftDraw</text>
            </a>
        </g>
    </g>
    <g id="Guides" stroke="rgb(39, 170, 225)" stroke-width="0.5">
        <path id="Capline-S" d="M18,76 l800,0" />
        <path id="H-reference" d="M85,145.755 L87.685,145.755 L113.369,79.287 L114.052,79.287 L114.052,76 L112.148,76 L85,145.755 Z M95.693,121.536 L130.996,121.536 L130.263,119.313 L96.474,119.313 L95.693,121.536 Z M139.15,145.755 L141.787,145.755 L114.638,76 L113.466,76 L113.466,79.287 L139.15,145.755 Z" stroke="none" />
        <path id="Baseline-S" d="M18,146 l800,0" />
        <path id="left-margin-Ultralight-S" d="M220,56 l0,110" />
        <path id="right-margin-Ultralight-S" d="M310,56 l0,110" />
        <path id="left-margin-Regular-S" d="M420,56 l0,110" />
        <path id="right-margin-Regular-S" d="M510,56 l0,110" />
        <path id="left-margin-Black-S" d="M620,56 l0,110" />
        <path id="right-margin-Black-S" d="M710,56 l0,110" />
        <path id="Capline-M" d="M18,276 l800,0" />
        <path id="Baseline-M" d="M18,346 l800,0" />
        <path id="Capline-L" d="M18,476 l800,0" />
        <path id="Baseline-L" d="M18,546 l800,0" />
    </g>
    <g id="Symbols">
        <g id="Ultralight-S">
            <path d="M262.308,111 L262.308,100.231 L258.23,102.539 L267.205,107.924 L276.179,113.309 L276.179,108.691 L267.205,114.076 L258.23,119.461 L262.308,121.769 L262.308,111 Z M256.923,111 L256.923,121.769 C256.923,123.862 259.206,125.155 261.001,124.078 L269.975,118.693 L278.949,113.309 C280.692,112.263 280.692,109.737 278.949,108.691 L269.975,103.307 L261.001,97.922 C259.206,96.845 256.923,98.138 256.923,100.231 L256.923,111 Z" />
            <path d="M240.251,135.749 C246.771,142.268 255.593,146 265,146 C284.33,146 300,130.33 300,111 C300,91.67 284.33,76 265,76 C255.593,76 246.771,79.732 240.251,86.251 C239.264,87.238 237.873,88.714 236.171,90.567 C236.038,90.712 236.038,90.712 235.905,90.857 C234.743,92.124 233.515,93.481 232.297,94.838 C231.871,95.312 231.477,95.753 231.124,96.149 C230.912,96.386 230.761,96.556 230.679,96.648 C229.692,97.76 229.793,99.462 230.905,100.449 C232.016,101.436 233.718,101.335 234.705,100.224 C234.784,100.136 234.933,99.968 235.142,99.733 C235.492,99.341 235.882,98.905 236.305,98.434 C237.511,97.091 238.727,95.747 239.874,94.495 C240.006,94.352 240.006,94.352 240.137,94.209 C241.791,92.409 243.139,90.978 244.059,90.059 C249.579,84.539 257.036,81.385 265,81.385 C281.356,81.385 294.615,94.644 294.615,111 C294.615,127.356 281.356,140.615 265,140.615 C257.036,140.615 249.579,137.461 244.059,131.941 C243.007,130.89 241.303,130.89 240.251,131.941 C239.2,132.993 239.2,134.697 240.251,135.749 Z" />
            <path d="M230,84.077 L230,98.436 C230,99.923 231.205,101.128 232.692,101.128 L247.051,101.128 C248.538,101.128 249.744,99.923 249.744,98.436 C249.744,96.949 248.538,95.744 247.051,95.744 L232.692,95.744 L235.385,98.436 L235.385,84.077 C235.385,82.59 234.179,81.385 232.692,81.385 C231.205,81.385 230,82.59 230,84.077 Z" />
        </g>
        <g id="Regular-S">
            <path d="M462.308,111 L462.308,100.231 L458.23,102.539 L467.205,107.924 L476.179,113.309 L476.179,108.691 L467.205,114.076 L458.23,119.461 L462.308,121.769 L462.308,111 Z M456.923,111 L456.923,121.769 C456.923,123.862 459.206,125.155 461.001,124.078 L469.975,118.693 L478.949,113.309 C480.692,112.263 480.692,109.737 478.949,108.691 L469.975,103.307 L461.001,97.922 C459.206,96.845 456.923,98.138 456.923,100.231 L456.923,111 Z" />
            <path d="M440.251,135.749 C446.771,142.268 455.593,146 465,146 C484.33,146 500,130.33 500,111 C500,91.67 484.33,76 465,76 C455.593,76 446.771,79.732 440.251,86.251 C439.264,87.238 437.873,88.714 436.171,90.567 C436.038,90.712 436.038,90.712 435.905,90.857 C434.743,92.124 433.515,93.481 432.297,94.838 C431.871,95.312 431.477,95.753 431.124,96.149 C430.912,96.386 430.761,96.556 430.679,96.648 C429.692,97.76 429.793,99.462 430.905,100.449 C432.016,101.436 433.718,101.335 434.705,100.224 C434.784,100.136 434.933,99.968 435.142,99.733 C435.492,99.341 435.882,98.905 436.305,98.434 C437.511,97.091 438.727,95.747 439.874,94.495 C440.006,94.352 440.006,94.352 440.137,94.209 C441.791,92.409 443.139,90.978 444.059,90.059 C449.579,84.539 457.036,81.385 465,81.385 C481.356,81.385 494.615,94.644 494.615,111 C494.615,127.356 481.356,140.615 465,140.615 C457.036,140.615 449.579,137.461 444.059,131.941 C443.007,130.89 441.303,130.89 440.251,131.941 C439.2,132.993 439.2,134.697 440.251,135.749 Z" />
            <path d="M430,84.077 L430,98.436 C430,99.923 431.205,101.128 432.692,101.128 L447.051,101.128 C448.538,101.128 449.744,99.923 449.744,98.436 C449.744,96.949 448.538,95.744 447.051,95.744 L432.692,95.744 L435.385,98.436 L435.385,84.077 C435.385,82.59 434.179,81.385 432.692,81.385 C431.205,81.385 430,82.59 430,84.077 Z" />
        </g>
        <g id="Black-S">
            <path d="M662.308,111 L662.308,100.231 L658.23,102.539 L667.205,107.924 L676.179,113.309 L676.179,108.691 L667.205,114.076 L658.23,119.461 L662.308,121.769 L662.308,111 Z M656.923,111 L656.923,121.769 C656.923,123.862 659.206,125.155 661.001,124.078 L669.975,118.693 L678.949,113.309 C680.692,112.263 680.692,109.737 678.949,108.691 L669.975,103.307 L661.001,97.922 C659.206,96.845 656.923,98.138 656.923,100.231 L656.923,111 Z" />
            <path d="M640.251,135.749 C646.771,142.268 655.593,146 665,146 C684.33,146 700,130.33 700,111 C700,91.67 684.33,76 665,76 C655.593,76 646.771,79.732 640.251,86.251 C639.264,87.238 637.873,88.714 636.171,90.567 C636.038,90.712 636.038,90.712 635.905,90.857 C634.743,92.124 633.515,93.481 632.297,94.838 C631.871,95.312 631.477,95.753 631.124,96.149 C630.912,96.386 630.761,96.556 630.679,96.648 C629.692,97.76 629.793,99.462 630.905,100.449 C632.016,101.436 633.718,101.335 634.705,100.224 C634.784,100.136 634.933,99.968 635.142,99.733 C635.492,99.341 635.882,98.905 636.305,98.434 C637.511,97.091 638.727,95.747 639.874,94.495 C640.005,94.352 640.005,94.352 640.137,94.209 C641.791,92.409 643.139,90.978 644.059,90.059 C649.579,84.539 657.036,81.385 665,81.385 C681.356,81.385 694.615,94.644 694.615,111 C694.615,127.356 681.356,140.615 665,140.615 C657.036,140.615 649.579,137.461 644.059,131.941 C643.007,130.89 641.303,130.89 640.251,131.941 C639.2,132.993 639.2,134.697 640.251,135.749 Z" />
            <path d="M630,84.077 L630,98.436 C630,99.923 631.205,101.128 632.692,101.128 L647.051,101.128 C648.538,101.128 649.744,99.923 649.744,98.436 C649.744,96.949 648.538,95.744 647.051,95.744 L632.692,95.744 L635.385,98.436 L635.385,84.077 C635.385,82.59 634.179,81.385 632.692,81.385 C631.205,81.385 630,82.59 630,84.077 Z" />
        </g>
    </g>
</svg>