<?xml version="1.0" encoding="UTF-8"?>
<svg height="600" width="800" xmlns="http://www.w3.org/2000/svg" xmlns:xlink="http://www.w3.org/1999/xlink">
    <g id="Notes" font-family="'LucidaGrande', 'Lucida Grande', sans-serif" font-size="13">
        <rect fill="white" height="600.0" width="800.0" x="0.0" y="0.0" />
        <g font-size="13">
            <text x="18.0" y="176.0">Small</text>
            <text x="18.0" y="376.0">Medium</text>
            <text x="18.0" y="576.0">Large</text>
        </g>
        <g font-size="9">
            <text x="250.0" y="30.0">Ultralight</text>
            <text x="450.0" y="30.0">Regular</text>
            <text x="650.0" y="30.0">Black</text>
            <text id="template-version" fill="#505050" text-anchor="end" x="785.0" y="575.0">Template v.3.0</text>
            <a href="https://github.com/swhitty/SwiftDraw">
                <text fill="#505050" text-anchor="end" x="785.0" y="590.0">https://github.com/swhitty/SwiftDraw</text>
            </a>
        </g>
    </g>
    <g id="Guides" stroke="rgb(39, 170, 225)" stroke-width="0.5">
        <path id="Capline-S" d="M18,76 l800,0" />
        <path id="H-reference" d="M85,145.755 L87.685,145.755 L113.369,79.287 L114.052,79.287 L114.052,76 L112.148,76 L85,145.755 Z M95.693,121.536 L130.996,121.536 L130.263,119.313 L96.474,119.313 L95.693,121.536 Z M139.15,145.755 L141.787,145.755 L114.638,76 L113.466,76 L113.466,79.287 L139.15,145.755 Z" stroke="none" />
        <path id="Baseline-S" d="M18,146 l800,0" />
        <path id="left-margin-Ultralight-S" d="M220,56 l0,110" />
        <path id="right-margin-Ultralight-S" d="M310,56 l0,110" />
        <path id="left-margin-Regular-S" d="M420,56 l0,110" />
        <path id="right-margin-Regular-S" d="M510,56 l0,110" />
        <path id="left-margin-Black-S" d="M620,56 l0,110" />
        <path id="right-margin-Black-S" d="M710,56 l0,110" />
        <path id="Capline-M" d="M18,276 l800,0" />
        <path id="Baseline-M" d="M18,346 l800,0" />
        <path id="Capline-L" d="M18,476 l800,0" />
        <path id="Baseline-L" d="M18,546 l800,0" />
    </g>
    <g id="Symbols">
        <g id="Ultralight-S">
            <path d="M250.641,81.385 L279.359,81.385 L276.667,78.692 L276.667,89.462 L279.359,86.769 L250.641,86.769 L253.333,89.462 L253.333,78.692 L250.641,81.385 Z M250.641,76 C249.154,76 247.949,77.205 247.949,78.692 L247.949,89.462 C247.949,90.948 249.154,92.154 250.641,92.154 L279.359,92.154 C280.846,92.154 282.051,90.948 282.051,89.462 L282.051,78.692 C282.051,77.205 280.846,76 279.359,76 L250.641,76 Z" />
            <path d="M235.385,143.308 L235.385,78.692 C235.385,77.205 234.179,76 232.692,76 C231.205,76 230,77.205 230,78.692 L230,143.308 C230,144.795 231.205,146 232.692,146 C234.179,146 235.385,144.795 235.385,143.308 Z" />
            <path d="M250.641,108.308 L286.538,108.308 L283.846,105.615 L283.846,116.385 L286.538,113.692 L250.641,113.692 L253.333,116.385 L253.333,105.615 L250.641,108.308 Z M250.641,102.923 C249.154,102.923 247.949,104.128 247.949,105.615 L247.949,116.385 C247.949,117.872 249.154,119.077 250.641,119.077 L286.538,119.077 C288.025,119.077 289.231,117.872 289.231,116.385 L289.231,105.615 C289.231,104.128 288.025,102.923 286.538,102.923 L250.641,102.923 Z" />
            <path d="M250.641,135.231 L297.308,135.231 L294.615,132.538 L294.615,143.308 L297.308,140.615 L250.641,140.615 L253.333,143.308 L253.333,132.538 L250.641,135.231 Z M250.641,129.846 C249.154,129.846 247.949,131.052 247.949,132.538 L247.949,143.308 C247.949,144.795 249.154,146 250.641,146 L297.308,146 C298.795,146 300,144.795 300,143.308 L300,132.538 C300,131.052 298.795,129.846 297.308,129.846 L250.641,129.846 Z" />
        </g>
        <g id="Regular-S">
            <path d="M450.641,81.385 L479.359,81.385 L476.667,78.692 L476.667,89.462 L479.359,86.769 L450.641,86.769 L453.333,89.462 L453.333,78.692 L450.641,81.385 Z M450.641,76 C449.154,76 447.949,77.205 447.949,78.692 L447.949,89.462 C447.949,90.948 449.154,92.154 450.641,92.154 L479.359,92.154 C480.846,92.154 482.051,90.948 482.051,89.462 L482.051,78.692 C482.051,77.205 480.846,76 479.359,76 L450.641,76 Z" />
            <path d="M435.385,143.308 L435.385,78.692 C435.385,77.205 434.179,76 432.692,76 C431.205,76 430,77.205 430,78.692 L430,143.308 C430,144.795 431.205,146 432.692,146 C434.179,146 435.385,144.795 435.385,143.308 Z" />
            <path d="M450.641,108.308 L486.538,108.308 L483.846,105.615 L483.846,116.385 L486.538,113.692 L450.641,113.692 L453.333,116.385 L453.333,105.615 L450.641,108.308 Z M450.641,102.923 C449.154,102.923 447.949,104.128 447.949,105.615 L447.949,116.385 C447.949,117.872 449.154,119.077 450.641,119.077 L486.538,119.077 C488.025,119.077 489.231,117.872 489.231,116.385 L489.231,105.615 C489.231,104.128 488.025,102.923 486.538,102.923 L450.641,102.923 Z" />
            <path d="M450.641,135.231 L497.308,135.231 L494.615,132.538 L494.615,143.308 L497.308,140.615 L450.641,140.615 L453.333,143.308 L453.333,132.538 L450.641,135.231 Z M450.641,129.846 C449.154,129.846 447.949,131.052 447.949,132.538 L447.949,143.308 C447.949,144.795 449.154,146 450.641,146 L497.308,146 C498.795,146 500,144.795 500,143.308 L500,132.538 C500,131.052 498.795,129.846 497.308,129.846 L450.641,129.846 Z" />
        </g>
        <g id="Black-S">
            <path d="M650.641,81.385 L679.359,81.385 L676.667,78.692 L676.667,89.462 L679.359,86.769 L650.641,86.769 L653.333,89.462 L653.333,78.692 L650.641,81.385 Z M650.641,76 C649.154,76 647.949,77.205 647.949,78.692 L647.949,89.462 C647.949,90.948 649.154,92.154 650.641,92.154 L679.359,92.154 C680.846,92.154 682.051,90.948 682.051,89.462 L682.051,78.692 C682.051,77.205 680.846,76 679.359,76 L650.641,76 Z" />
            <path d="M635.385,143.308 L635.385,78.692 C635.385,77.205 634.179,76 632.692,76 C631.205,76 630,77.205 630,78.692 L630,143.308 C630,144.795 631.205,146 632.692,146 C634.179,146 635.385,144.795 635.385,143.308 Z" />
            <path d="M650.641,108.308 L686.538,108.308 L683.846,105.615 L683.846,116.385 L686.538,113.692 L650.641,113.692 L653.333,116.385 L653.333,105.615 L650.641,108.308 Z M650.641,102.923 C649.154,102.923 647.949,104.128 647.949,105.615 L647.949,116.385 C647.949,117.872 649.154,119.077 650.641,119.077 L686.538,119.077 C688.025,119.077 689.231,117.872 689.231,116.385 L689.231,105.615 C689.231,104.128 688.025,102.923 686.538,102.923 L650.641,102.923 Z" />
            <path d="M650.641,135.231 L697.308,135.231 L694.615,132.538 L694.615,143.308 L697.308,140.615 L650.641,140.615 L653.333,143.308 L653.333,132.538 L650.641,135.231 Z M650.641,129.846 C649.154,129.846 647.949,131.052 647.949,132.538 L647.949,143.308 C647.949,144.795 649.154,146 650.641,146 L697.308,146 C698.795,146 700,144.795 700,143.308 L700,132.538 C700,131.052 698.795,129.846 697.308,129.846 L650.641,129.846 Z" />
        </g>
    </g>
</svg>