<?xml version="1.0" encoding="UTF-8"?>
<svg height="600" width="800" xmlns="http://www.w3.org/2000/svg" xmlns:xlink="http://www.w3.org/1999/xlink">
    <g id="Notes" font-family="'LucidaGrande', 'Lucida Grande', sans-serif" font-size="13">
        <rect fill="white" height="600.0" width="800.0" x="0.0" y="0.0" />
        <g font-size="13">
            <text x="18.0" y="176.0">Small</text>
            <text x="18.0" y="376.0">Medium</text>
            <text x="18.0" y="576.0">Large</text>
        </g>
        <g font-size="9">
            <text x="250.0" y="30.0">Ultralight</text>
            <text x="450.0" y="30.0">Regular</text>
            <text x="650.0" y="30.0">Black</text>
            <text id="template-version" fill="#505050" text-anchor="end" x="785.0" y="575.0">Template v.3.0</text>
            <a href="https://github.com/swhitty/SwiftDraw">
                <text fill="#505050" text-anchor="end" x="785.0" y="590.0">https://github.com/swhitty/SwiftDraw</text>
            </a>
        </g>
    </g>
    <g id="Guides" stroke="rgb(39, 170, 225)" stroke-width="0.5">
        <path id="Capline-S" d="M18,76 l800,0" />
        <path id="H-reference" d="M85,145.755 L87.685,145.755 L113.369,79.287 L114.052,79.287 L114.052,76 L112.148,76 L85,145.755 Z M95.693,121.536 L130.996,121.536 L130.263,119.313 L96.474,119.313 L95.693,121.536 Z M139.15,145.755 L141.787,145.755 L114.638,76 L113.466,76 L113.466,79.287 L139.15,145.755 Z" stroke="none" />
        <path id="Baseline-S" d="M18,146 l800,0" />
        <path id="left-margin-Ultralight-S" d="M218.205,56 l0,110" />
        <path id="right-margin-Ultralight-S" d="M311.795,56 l0,110" />
        <path id="left-margin-Regular-S" d="M418.205,56 l0,110" />
        <path id="right-margin-Regular-S" d="M511.795,56 l0,110" />
        <path id="left-margin-Black-S" d="M618.205,56 l0,110" />
        <path id="right-margin-Black-S" d="M711.795,56 l0,110" />
        <path id="Capline-M" d="M18,276 l800,0" />
        <path id="Baseline-M" d="M18,346 l800,0" />
        <path id="Capline-L" d="M18,476 l800,0" />
        <path id="Baseline-L" d="M18,546 l800,0" />
    </g>
    <g id="Symbols">
        <g id="Ultralight-S">
            <path d="M301.795,109.205 L301.795,93.051 C301.795,89.582 298.982,86.769 295.513,86.769 L265,86.769 L267.068,87.738 L258.094,76.969 C257.582,76.355 256.825,76 256.026,76 L234.487,76 C231.018,76 228.205,78.813 228.205,82.282 L228.205,139.718 C228.205,143.187 231.018,146 234.487,146 L261.41,146 C262.897,146 264.103,144.795 264.103,143.308 C264.103,141.821 262.897,140.615 261.41,140.615 L234.487,140.615 C233.992,140.615 233.59,140.214 233.59,139.718 L233.59,82.282 C233.59,81.786 233.992,81.385 234.487,81.385 L256.026,81.385 L253.957,80.416 L262.932,91.185 C263.443,91.799 264.201,92.154 265,92.154 L295.513,92.154 C296.009,92.154 296.41,92.556 296.41,93.051 L296.41,109.205 C296.41,110.692 297.616,111.897 299.103,111.897 C300.589,111.897 301.795,110.692 301.795,109.205 Z" />
            <path d="M296.41,128.949 L296.41,143.308 L299.103,140.615 L273.974,140.615 L276.667,143.308 L276.667,128.949 L273.974,131.641 L299.103,131.641 L296.41,128.949 Z M301.795,128.949 C301.795,127.462 300.589,126.256 299.103,126.256 L273.974,126.256 C272.487,126.256 271.282,127.462 271.282,128.949 L271.282,143.308 C271.282,144.795 272.487,146 273.974,146 L299.103,146 C300.589,146 301.795,144.795 301.795,143.308 L301.795,128.949 Z" />
            <path d="M294.615,128.949 L294.615,123.564 C294.615,119.103 290.999,115.487 286.538,115.487 C282.078,115.487 278.462,119.103 278.462,123.564 L278.462,128.949 C278.462,130.436 279.667,131.641 281.154,131.641 C282.641,131.641 283.846,130.436 283.846,128.949 L283.846,123.564 C283.846,122.077 285.051,120.872 286.538,120.872 C288.025,120.872 289.231,122.077 289.231,123.564 L289.231,128.949 C289.231,130.436 290.436,131.641 291.923,131.641 C293.41,131.641 294.615,130.436 294.615,128.949 Z" />
        </g>
        <g id="Regular-S">
            <path d="M501.795,109.205 L501.795,93.051 C501.795,89.582 498.982,86.769 495.513,86.769 L465,86.769 L467.068,87.738 L458.094,76.969 C457.582,76.355 456.825,76 456.026,76 L434.487,76 C431.018,76 428.205,78.813 428.205,82.282 L428.205,139.718 C428.205,143.187 431.018,146 434.487,146 L461.41,146 C462.897,146 464.103,144.795 464.103,143.308 C464.103,141.821 462.897,140.615 461.41,140.615 L434.487,140.615 C433.992,140.615 433.59,140.214 433.59,139.718 L433.59,82.282 C433.59,81.786 433.992,81.385 434.487,81.385 L456.026,81.385 L453.957,80.416 L462.932,91.185 C463.443,91.799 464.201,92.154 465,92.154 L495.513,92.154 C496.009,92.154 496.41,92.556 496.41,93.051 L496.41,109.205 C496.41,110.692 497.616,111.897 499.103,111.897 C500.589,111.897 501.795,110.692 501.795,109.205 Z" />
            <path d="M496.41,128.949 L496.41,143.308 L499.103,140.615 L473.974,140.615 L476.667,143.308 L476.667,128.949 L473.974,131.641 L499.103,131.641 L496.41,128.949 Z M501.795,128.949 C501.795,127.462 500.589,126.256 499.103,126.256 L473.974,126.256 C472.487,126.256 471.282,127.462 471.282,128.949 L471.282,143.308 C471.282,144.795 472.487,146 473.974,146 L499.103,146 C500.589,146 501.795,144.795 501.795,143.308 L501.795,128.949 Z" />
            <path d="M494.615,128.949 L494.615,123.564 C494.615,119.103 490.999,115.487 486.538,115.487 C482.078,115.487 478.462,119.103 478.462,123.564 L478.462,128.949 C478.462,130.436 479.667,131.641 481.154,131.641 C482.641,131.641 483.846,130.436 483.846,128.949 L483.846,123.564 C483.846,122.077 485.051,120.872 486.538,120.872 C488.025,120.872 489.231,122.077 489.231,123.564 L489.231,128.949 C489.231,130.436 490.436,131.641 491.923,131.641 C493.41,131.641 494.615,130.436 494.615,128.949 Z" />
        </g>
        <g id="Black-S">
            <path d="M701.795,109.205 L701.795,93.051 C701.795,89.582 698.982,86.769 695.513,86.769 L665,86.769 L667.068,87.738 L658.094,76.969 C657.582,76.355 656.825,76 656.026,76 L634.487,76 C631.018,76 628.205,78.813 628.205,82.282 L628.205,139.718 C628.205,143.187 631.018,146 634.487,146 L661.41,146 C662.897,146 664.103,144.795 664.103,143.308 C664.103,141.821 662.897,140.615 661.41,140.615 L634.487,140.615 C633.992,140.615 633.59,140.214 633.59,139.718 L633.59,82.282 C633.59,81.786 633.992,81.385 634.487,81.385 L656.026,81.385 L653.957,80.416 L662.932,91.185 C663.443,91.799 664.201,92.154 665,92.154 L695.513,92.154 C696.009,92.154 696.41,92.556 696.41,93.051 L696.41,109.205 C696.41,110.692 697.616,111.897 699.103,111.897 C700.589,111.897 701.795,110.692 701.795,109.205 Z" />
            <path d="M696.41,128.949 L696.41,143.308 L699.103,140.615 L673.974,140.615 L676.667,143.308 L676.667,128.949 L673.974,131.641 L699.103,131.641 L696.41,128.949 Z M701.795,128.949 C701.795,127.462 700.589,126.256 699.103,126.256 L673.974,126.256 C672.487,126.256 671.282,127.462 671.282,128.949 L671.282,143.308 C671.282,144.795 672.487,146 673.974,146 L699.103,146 C700.589,146 701.795,144.795 701.795,143.308 L701.795,128.949 Z" />
            <path d="M694.615,128.949 L694.615,123.564 C694.615,119.103 690.999,115.487 686.538,115.487 C682.078,115.487 678.462,119.103 678.462,123.564 L678.462,128.949 C678.462,130.436 679.667,131.641 681.154,131.641 C682.641,131.641 683.846,130.436 683.846,128.949 L683.846,123.564 C683.846,122.077 685.051,120.872 686.538,120.872 C688.026,120.872 689.231,122.077 689.231,123.564 L689.231,128.949 C689.231,130.436 690.436,131.641 691.923,131.641 C693.41,131.641 694.615,130.436 694.615,128.949 Z" />
        </g>
    </g>
</svg>