<?xml version="1.0" encoding="UTF-8"?>
<svg height="600" width="800" xmlns="http://www.w3.org/2000/svg" xmlns:xlink="http://www.w3.org/1999/xlink">
    <g id="Notes" font-family="'LucidaGrande', 'Lucida Grande', sans-serif" font-size="13">
        <rect fill="white" height="600.0" width="800.0" x="0.0" y="0.0" />
        <g font-size="13">
            <text x="18.0" y="176.0">Small</text>
            <text x="18.0" y="376.0">Medium</text>
            <text x="18.0" y="576.0">Large</text>
        </g>
        <g font-size="9">
            <text x="250.0" y="30.0">Ultralight</text>
            <text x="450.0" y="30.0">Regular</text>
            <text x="650.0" y="30.0">Black</text>
            <text id="template-version" fill="#505050" text-anchor="end" x="785.0" y="575.0">Template v.3.0</text>
            <a href="https://github.com/swhitty/SwiftDraw">
                <text fill="#505050" text-anchor="end" x="785.0" y="590.0">https://github.com/swhitty/SwiftDraw</text>
            </a>
        </g>
    </g>
    <g id="Guides" stroke="rgb(39, 170, 225)" stroke-width="0.5">
        <path id="Capline-S" d="M18,76 l800,0" />
        <path id="H-reference" d="M85,145.755 L87.685,145.755 L113.369,79.287 L114.052,79.287 L114.052,76 L112.148,76 L85,145.755 Z M95.693,121.536 L130.996,121.536 L130.263,119.313 L96.474,119.313 L95.693,121.536 Z M139.15,145.755 L141.787,145.755 L114.638,76 L113.466,76 L113.466,79.287 L139.15,145.755 Z" stroke="none" />
        <path id="Baseline-S" d="M18,146 l800,0" />
        <path id="left-margin-Ultralight-S" d="M214.324,56 l0,110" />
        <path id="right-margin-Ultralight-S" d="M315.676,56 l0,110" />
        <path id="left-margin-Regular-S" d="M414.324,56 l0,110" />
        <path id="right-margin-Regular-S" d="M515.676,56 l0,110" />
        <path id="left-margin-Black-S" d="M614.324,56 l0,110" />
        <path id="right-margin-Black-S" d="M715.676,56 l0,110" />
        <path id="Capline-M" d="M18,276 l800,0" />
        <path id="Baseline-M" d="M18,346 l800,0" />
        <path id="Capline-L" d="M18,476 l800,0" />
        <path id="Baseline-L" d="M18,546 l800,0" />
    </g>
    <g id="Symbols">
        <g id="Ultralight-S">
            <path d="M234.73,96.811 C240.476,96.811 245.135,92.152 245.135,86.405 C245.135,80.659 240.476,76 234.73,76 C228.983,76 224.324,80.659 224.324,86.405 C224.324,92.152 228.983,96.811 234.73,96.811 Z M234.73,91.135 C232.118,91.135 230,89.018 230,86.405 C230,83.793 232.118,81.676 234.73,81.676 C237.342,81.676 239.459,83.793 239.459,86.405 C239.459,89.017 237.342,91.135 234.73,91.135 Z" />
            <path d="M234.73,119.514 C238.387,119.514 241.351,116.549 241.351,112.892 C241.351,109.235 238.387,106.27 234.73,106.27 C231.073,106.27 228.108,109.235 228.108,112.892 C228.108,116.549 231.073,119.514 234.73,119.514 Z M234.73,113.838 C234.207,113.838 233.784,113.414 233.784,112.892 C233.784,112.369 234.207,111.946 234.73,111.946 C235.252,111.946 235.676,112.369 235.676,112.892 C235.676,113.414 235.252,113.838 234.73,113.838 Z" />
            <path d="M234.73,146 C238.387,146 241.351,143.035 241.351,139.378 C241.351,135.721 238.387,132.757 234.73,132.757 C231.073,132.757 228.108,135.721 228.108,139.378 C228.108,143.035 231.073,146 234.73,146 Z M234.73,140.324 C234.207,140.324 233.784,139.901 233.784,139.378 C233.784,138.856 234.207,138.432 234.73,138.432 C235.252,138.432 235.676,138.856 235.676,139.378 C235.676,139.901 235.252,140.324 234.73,140.324 Z" />
            <path d="M257.432,115.73 L302.838,115.73 C304.405,115.73 305.676,114.459 305.676,112.892 C305.676,111.325 304.405,110.054 302.838,110.054 L257.432,110.054 C255.865,110.054 254.595,111.325 254.595,112.892 C254.595,114.459 255.865,115.73 257.432,115.73 Z" />
            <path d="M257.432,142.216 L302.838,142.216 C304.405,142.216 305.676,140.946 305.676,139.378 C305.676,137.811 304.405,136.541 302.838,136.541 L257.432,136.541 C255.865,136.541 254.595,137.811 254.595,139.378 C254.595,140.946 255.865,142.216 257.432,142.216 Z" />
            <path d="M257.432,89.243 L302.838,89.243 C304.405,89.243 305.676,87.973 305.676,86.405 C305.676,84.838 304.405,83.568 302.838,83.568 L257.432,83.568 C255.865,83.568 254.595,84.838 254.595,86.405 C254.595,87.973 255.865,89.243 257.432,89.243 Z" />
        </g>
        <g id="Regular-S">
            <path d="M434.73,96.811 C440.476,96.811 445.135,92.152 445.135,86.405 C445.135,80.659 440.476,76 434.73,76 C428.983,76 424.324,80.659 424.324,86.405 C424.324,92.152 428.983,96.811 434.73,96.811 Z M434.73,91.135 C432.118,91.135 430,89.018 430,86.405 C430,83.793 432.118,81.676 434.73,81.676 C437.342,81.676 439.459,83.793 439.459,86.405 C439.459,89.017 437.342,91.135 434.73,91.135 Z" />
            <path d="M434.73,119.514 C438.387,119.514 441.351,116.549 441.351,112.892 C441.351,109.235 438.387,106.27 434.73,106.27 C431.073,106.27 428.108,109.235 428.108,112.892 C428.108,116.549 431.073,119.514 434.73,119.514 Z M434.73,113.838 C434.207,113.838 433.784,113.414 433.784,112.892 C433.784,112.369 434.207,111.946 434.73,111.946 C435.252,111.946 435.676,112.369 435.676,112.892 C435.676,113.414 435.252,113.838 434.73,113.838 Z" />
            <path d="M434.73,146 C438.387,146 441.351,143.035 441.351,139.378 C441.351,135.721 438.387,132.757 434.73,132.757 C431.073,132.757 428.108,135.721 428.108,139.378 C428.108,143.035 431.073,146 434.73,146 Z M434.73,140.324 C434.207,140.324 433.784,139.901 433.784,139.378 C433.784,138.856 434.207,138.432 434.73,138.432 C435.252,138.432 435.676,138.856 435.676,139.378 C435.676,139.901 435.252,140.324 434.73,140.324 Z" />
            <path d="M457.432,115.73 L502.838,115.73 C504.405,115.73 505.676,114.459 505.676,112.892 C505.676,111.325 504.405,110.054 502.838,110.054 L457.432,110.054 C455.865,110.054 454.595,111.325 454.595,112.892 C454.595,114.459 455.865,115.73 457.432,115.73 Z" />
            <path d="M457.432,142.216 L502.838,142.216 C504.405,142.216 505.676,140.946 505.676,139.378 C505.676,137.811 504.405,136.541 502.838,136.541 L457.432,136.541 C455.865,136.541 454.595,137.811 454.595,139.378 C454.595,140.946 455.865,142.216 457.432,142.216 Z" />
            <path d="M457.432,89.243 L502.838,89.243 C504.405,89.243 505.676,87.973 505.676,86.405 C505.676,84.838 504.405,83.568 502.838,83.568 L457.432,83.568 C455.865,83.568 454.595,84.838 454.595,86.405 C454.595,87.973 455.865,89.243 457.432,89.243 Z" />
        </g>
        <g id="Black-S">
            <path d="M634.73,96.811 C640.476,96.811 645.135,92.152 645.135,86.405 C645.135,80.659 640.476,76 634.73,76 C628.983,76 624.324,80.659 624.324,86.405 C624.324,92.152 628.983,96.811 634.73,96.811 Z M634.73,91.135 C632.118,91.135 630,89.018 630,86.405 C630,83.793 632.118,81.676 634.73,81.676 C637.342,81.676 639.459,83.793 639.459,86.405 C639.459,89.017 637.342,91.135 634.73,91.135 Z" />
            <path d="M634.73,119.514 C638.387,119.514 641.351,116.549 641.351,112.892 C641.351,109.235 638.387,106.27 634.73,106.27 C631.073,106.27 628.108,109.235 628.108,112.892 C628.108,116.549 631.073,119.514 634.73,119.514 Z M634.73,113.838 C634.207,113.838 633.784,113.414 633.784,112.892 C633.784,112.369 634.207,111.946 634.73,111.946 C635.252,111.946 635.676,112.369 635.676,112.892 C635.676,113.414 635.252,113.838 634.73,113.838 Z" />
            <path d="M634.73,146 C638.387,146 641.351,143.035 641.351,139.378 C641.351,135.721 638.387,132.757 634.73,132.757 C631.073,132.757 628.108,135.721 628.108,139.378 C628.108,143.035 631.073,146 634.73,146 Z M634.73,140.324 C634.207,140.324 633.784,139.901 633.784,139.378 C633.784,138.856 634.207,138.432 634.73,138.432 C635.252,138.432 635.676,138.856 635.676,139.378 C635.676,139.901 635.252,140.324 634.73,140.324 Z" />
            <path d="M657.432,115.73 L702.838,115.73 C704.405,115.73 705.676,114.459 705.676,112.892 C705.676,111.325 704.405,110.054 702.838,110.054 L657.432,110.054 C655.865,110.054 654.595,111.325 654.595,112.892 C654.595,114.459 655.865,115.73 657.432,115.73 Z" />
            <path d="M657.432,142.216 L702.838,142.216 C704.405,142.216 705.676,140.946 705.676,139.378 C705.676,137.811 704.405,136.541 702.838,136.541 L657.432,136.541 C655.865,136.541 654.595,137.811 654.595,139.378 C654.595,140.946 655.865,142.216 657.432,142.216 Z" />
            <path d="M657.432,89.243 L702.838,89.243 C704.405,89.243 705.676,87.973 705.676,86.405 C705.676,84.838 704.405,83.568 702.838,83.568 L657.432,83.568 C655.865,83.568 654.595,84.838 654.595,86.405 C654.595,87.973 655.865,89.243 657.432,89.243 Z" />
        </g>
    </g>
</svg>