<?xml version="1.0" encoding="UTF-8"?>
<svg height="600" width="800" xmlns="http://www.w3.org/2000/svg" xmlns:xlink="http://www.w3.org/1999/xlink">
    <g id="Notes" font-family="'LucidaGrande', 'Lucida Grande', sans-serif" font-size="13">
        <rect fill="white" height="600.0" width="800.0" x="0.0" y="0.0" />
        <g font-size="13">
            <text x="18.0" y="176.0">Small</text>
            <text x="18.0" y="376.0">Medium</text>
            <text x="18.0" y="576.0">Large</text>
        </g>
        <g font-size="9">
            <text x="250.0" y="30.0">Ultralight</text>
            <text x="450.0" y="30.0">Regular</text>
            <text x="650.0" y="30.0">Black</text>
            <text id="template-version" fill="#505050" text-anchor="end" x="785.0" y="575.0">Template v.3.0</text>
            <a href="https://github.com/swhitty/SwiftDraw">
                <text fill="#505050" text-anchor="end" x="785.0" y="590.0">https://github.com/swhitty/SwiftDraw</text>
            </a>
        </g>
    </g>
    <g id="Guides" stroke="rgb(39, 170, 225)" stroke-width="0.5">
        <path id="Capline-S" d="M18,76 l800,0" />
        <path id="H-reference" d="M85,145.755 L87.685,145.755 L113.369,79.287 L114.052,79.287 L114.052,76 L112.148,76 L85,145.755 Z M95.693,121.536 L130.996,121.536 L130.263,119.313 L96.474,119.313 L95.693,121.536 Z M139.15,145.755 L141.787,145.755 L114.638,76 L113.466,76 L113.466,79.287 L139.15,145.755 Z" stroke="none" />
        <path id="Baseline-S" d="M18,146 l800,0" />
        <path id="left-margin-Ultralight-S" d="M221,56 l0,110" />
        <path id="right-margin-Ultralight-S" d="M309,56 l0,110" />
        <path id="left-margin-Regular-S" d="M421,56 l0,110" />
        <path id="right-margin-Regular-S" d="M509,56 l0,110" />
        <path id="left-margin-Black-S" d="M621,56 l0,110" />
        <path id="right-margin-Black-S" d="M709,56 l0,110" />
        <path id="Capline-M" d="M18,276 l800,0" />
        <path id="Baseline-M" d="M18,346 l800,0" />
        <path id="Capline-L" d="M18,476 l800,0" />
        <path id="Baseline-L" d="M18,546 l800,0" />
    </g>
    <g id="Symbols">
        <g id="Ultralight-S">
            <path d="M293.488,109.372 L293.488,94.721 C293.488,94.118 293.265,93.536 292.862,93.087 L278.21,76.808 C277.747,76.294 277.088,76 276.395,76 L242.209,76 C239.063,76 236.512,78.551 236.512,81.698 L236.512,140.302 C236.512,143.449 239.063,146 242.209,146 L261.744,146 C263.093,146 264.186,144.907 264.186,143.558 C264.186,142.21 263.093,141.116 261.744,141.116 L242.209,141.116 C241.76,141.116 241.395,140.752 241.395,140.302 L241.395,81.698 C241.395,81.248 241.76,80.884 242.209,80.884 L276.395,80.884 L274.58,80.075 L289.232,96.354 L288.605,94.721 L288.605,109.372 C288.605,110.721 289.698,111.814 291.047,111.814 C292.395,111.814 293.488,110.721 293.488,109.372 Z" />
            <path d="M268.256,126.465 L279.651,126.465 L291.047,126.465 C292.395,126.465 293.488,125.372 293.488,124.023 C293.488,122.675 292.395,121.581 291.047,121.581 L279.651,121.581 L268.256,121.581 C266.907,121.581 265.814,122.675 265.814,124.023 C265.814,125.372 266.907,126.465 268.256,126.465 Z" />
            <path d="M268.256,136.233 L279.651,136.233 L291.047,136.233 C292.395,136.233 293.488,135.139 293.488,133.791 C293.488,132.442 292.395,131.349 291.047,131.349 L279.651,131.349 L268.256,131.349 C266.907,131.349 265.814,132.442 265.814,133.791 C265.814,135.139 266.907,136.233 268.256,136.233 Z" />
            <path d="M272.326,117.512 L272.326,140.302 C272.326,141.651 273.419,142.744 274.767,142.744 C276.116,142.744 277.209,141.651 277.209,140.302 L277.209,117.512 C277.209,116.163 276.116,115.07 274.767,115.07 C273.419,115.07 272.326,116.163 272.326,117.512 Z" />
            <path d="M282.093,117.512 L282.093,140.302 C282.093,141.651 283.186,142.744 284.535,142.744 C285.883,142.744 286.977,141.651 286.977,140.302 L286.977,117.512 C286.977,116.163 285.883,115.07 284.535,115.07 C283.186,115.07 282.093,116.163 282.093,117.512 Z" />
            <path d="M272.326,78.442 L272.326,94.721 C272.326,96.07 273.419,97.163 274.767,97.163 L291.047,97.163 C292.395,97.163 293.488,96.07 293.488,94.721 C293.488,93.372 292.395,92.279 291.047,92.279 L274.767,92.279 L277.209,94.721 L277.209,78.442 C277.209,77.093 276.116,76 274.767,76 C273.419,76 272.326,77.093 272.326,78.442 Z" />
        </g>
        <g id="Regular-S">
            <path d="M493.488,109.372 L493.488,94.721 C493.488,94.118 493.265,93.536 492.862,93.087 L478.21,76.808 C477.747,76.294 477.088,76 476.395,76 L442.209,76 C439.063,76 436.512,78.551 436.512,81.698 L436.512,140.302 C436.512,143.449 439.063,146 442.209,146 L461.744,146 C463.093,146 464.186,144.907 464.186,143.558 C464.186,142.21 463.093,141.116 461.744,141.116 L442.209,141.116 C441.76,141.116 441.395,140.752 441.395,140.302 L441.395,81.698 C441.395,81.248 441.76,80.884 442.209,80.884 L476.395,80.884 L474.58,80.075 L489.232,96.354 L488.605,94.721 L488.605,109.372 C488.605,110.721 489.698,111.814 491.047,111.814 C492.395,111.814 493.488,110.721 493.488,109.372 Z" />
            <path d="M468.256,126.465 L479.651,126.465 L491.047,126.465 C492.395,126.465 493.488,125.372 493.488,124.023 C493.488,122.675 492.395,121.581 491.047,121.581 L479.651,121.581 L468.256,121.581 C466.907,121.581 465.814,122.675 465.814,124.023 C465.814,125.372 466.907,126.465 468.256,126.465 Z" />
            <path d="M468.256,136.233 L479.651,136.233 L491.047,136.233 C492.395,136.233 493.488,135.139 493.488,133.791 C493.488,132.442 492.395,131.349 491.047,131.349 L479.651,131.349 L468.256,131.349 C466.907,131.349 465.814,132.442 465.814,133.791 C465.814,135.139 466.907,136.233 468.256,136.233 Z" />
            <path d="M472.326,117.512 L472.326,140.302 C472.326,141.651 473.419,142.744 474.767,142.744 C476.116,142.744 477.209,141.651 477.209,140.302 L477.209,117.512 C477.209,116.163 476.116,115.07 474.767,115.07 C473.419,115.07 472.326,116.163 472.326,117.512 Z" />
            <path d="M482.093,117.512 L482.093,140.302 C482.093,141.651 483.186,142.744 484.535,142.744 C485.883,142.744 486.977,141.651 486.977,140.302 L486.977,117.512 C486.977,116.163 485.883,115.07 484.535,115.07 C483.186,115.07 482.093,116.163 482.093,117.512 Z" />
            <path d="M472.326,78.442 L472.326,94.721 C472.326,96.07 473.419,97.163 474.767,97.163 L491.047,97.163 C492.395,97.163 493.488,96.07 493.488,94.721 C493.488,93.372 492.395,92.279 491.047,92.279 L474.767,92.279 L477.209,94.721 L477.209,78.442 C477.209,77.093 476.116,76 474.767,76 C473.419,76 472.326,77.093 472.326,78.442 Z" />
        </g>
        <g id="Black-S">
            <path d="M693.488,109.372 L693.488,94.721 C693.488,94.118 693.265,93.536 692.862,93.087 L678.21,76.808 C677.747,76.294 677.088,76 676.395,76 L642.209,76 C639.063,76 636.512,78.551 636.512,81.698 L636.512,140.302 C636.512,143.449 639.063,146 642.209,146 L661.744,146 C663.093,146 664.186,144.907 664.186,143.558 C664.186,142.21 663.093,141.116 661.744,141.116 L642.209,141.116 C641.76,141.116 641.395,140.752 641.395,140.302 L641.395,81.698 C641.395,81.248 641.76,80.884 642.209,80.884 L676.395,80.884 L674.58,80.075 L689.232,96.354 L688.605,94.721 L688.605,109.372 C688.605,110.721 689.698,111.814 691.047,111.814 C692.395,111.814 693.488,110.721 693.488,109.372 Z" />
            <path d="M668.256,126.465 L679.651,126.465 L691.047,126.465 C692.395,126.465 693.488,125.372 693.488,124.023 C693.488,122.675 692.395,121.581 691.047,121.581 L679.651,121.581 L668.256,121.581 C666.907,121.581 665.814,122.675 665.814,124.023 C665.814,125.372 666.907,126.465 668.256,126.465 Z" />
            <path d="M668.256,136.233 L679.651,136.233 L691.047,136.233 C692.395,136.233 693.488,135.139 693.488,133.791 C693.488,132.442 692.395,131.349 691.047,131.349 L679.651,131.349 L668.256,131.349 C666.907,131.349 665.814,132.442 665.814,133.791 C665.814,135.139 666.907,136.233 668.256,136.233 Z" />
            <path d="M672.326,117.512 L672.326,140.302 C672.326,141.651 673.419,142.744 674.767,142.744 C676.116,142.744 677.209,141.651 677.209,140.302 L677.209,117.512 C677.209,116.163 676.116,115.07 674.767,115.07 C673.419,115.07 672.326,116.163 672.326,117.512 Z" />
            <path d="M682.093,117.512 L682.093,140.302 C682.093,141.651 683.186,142.744 684.535,142.744 C685.883,142.744 686.977,141.651 686.977,140.302 L686.977,117.512 C686.977,116.163 685.883,115.07 684.535,115.07 C683.186,115.07 682.093,116.163 682.093,117.512 Z" />
            <path d="M672.326,78.442 L672.326,94.721 C672.326,96.07 673.419,97.163 674.767,97.163 L691.047,97.163 C692.395,97.163 693.488,96.07 693.488,94.721 C693.488,93.372 692.395,92.279 691.047,92.279 L674.767,92.279 L677.209,94.721 L677.209,78.442 C677.209,77.093 676.116,76 674.767,76 C673.419,76 672.326,77.093 672.326,78.442 Z" />
        </g>
    </g>
</svg>