<?xml version="1.0" encoding="UTF-8"?>
<svg height="600" width="800" xmlns="http://www.w3.org/2000/svg" xmlns:xlink="http://www.w3.org/1999/xlink">
    <g id="Notes" font-family="'LucidaGrande', 'Lucida Grande', sans-serif" font-size="13">
        <rect fill="white" height="600.0" width="800.0" x="0.0" y="0.0" />
        <g font-size="13">
            <text x="18.0" y="176.0">Small</text>
            <text x="18.0" y="376.0">Medium</text>
            <text x="18.0" y="576.0">Large</text>
        </g>
        <g font-size="9">
            <text x="250.0" y="30.0">Ultralight</text>
            <text x="450.0" y="30.0">Regular</text>
            <text x="650.0" y="30.0">Black</text>
            <text id="template-version" fill="#505050" text-anchor="end" x="785.0" y="575.0">Template v.3.0</text>
            <a href="https://github.com/swhitty/SwiftDraw">
                <text fill="#505050" text-anchor="end" x="785.0" y="590.0">https://github.com/swhitty/SwiftDraw</text>
            </a>
        </g>
    </g>
    <g id="Guides" stroke="rgb(39, 170, 225)" stroke-width="0.5">
        <path id="Capline-S" d="M18,76 l800,0" />
        <path id="H-reference" d="M85,145.755 L87.685,145.755 L113.369,79.287 L114.052,79.287 L114.052,76 L112.148,76 L85,145.755 Z M95.693,121.536 L130.996,121.536 L130.263,119.313 L96.474,119.313 L95.693,121.536 Z M139.15,145.755 L141.787,145.755 L114.638,76 L113.466,76 L113.466,79.287 L139.15,145.755 Z" stroke="none" />
        <path id="Baseline-S" d="M18,146 l800,0" />
        <path id="left-margin-Ultralight-S" d="M220,56 l0,110" />
        <path id="right-margin-Ultralight-S" d="M310,56 l0,110" />
        <path id="left-margin-Regular-S" d="M420,56 l0,110" />
        <path id="right-margin-Regular-S" d="M510,56 l0,110" />
        <path id="left-margin-Black-S" d="M620,56 l0,110" />
        <path id="right-margin-Black-S" d="M710,56 l0,110" />
        <path id="Capline-M" d="M18,276 l800,0" />
        <path id="Baseline-M" d="M18,346 l800,0" />
        <path id="Capline-L" d="M18,476 l800,0" />
        <path id="Baseline-L" d="M18,546 l800,0" />
    </g>
    <g id="Symbols">
        <g id="Ultralight-S">
            <path d="M233.889,114.867 L296.111,114.867 C298.259,114.867 300,113.126 300,110.978 C300,108.831 298.259,107.09 296.111,107.09 L233.889,107.09 C231.741,107.09 230,108.831 230,110.978 C230,113.126 231.741,114.867 233.889,114.867 Z" />
            <path d="M267.75,139.361 L236.639,108.25 L236.639,113.75 L267.75,82.639 C269.269,81.12 269.269,78.658 267.75,77.139 C266.231,75.62 263.769,75.62 262.25,77.139 L231.139,108.25 C229.62,109.769 229.62,112.231 231.139,113.75 L262.25,144.861 C263.769,146.38 266.231,146.38 267.75,144.861 C269.269,143.342 269.269,140.88 267.75,139.361 Z" />
        </g>
        <g id="Regular-S">
            <path d="M433.889,114.867 L496.111,114.867 C498.259,114.867 500,113.126 500,110.978 C500,108.831 498.259,107.09 496.111,107.09 L433.889,107.09 C431.741,107.09 430,108.831 430,110.978 C430,113.126 431.741,114.867 433.889,114.867 Z" />
            <path d="M467.75,139.361 L436.639,108.25 L436.639,113.75 L467.75,82.639 C469.269,81.12 469.269,78.658 467.75,77.139 C466.231,75.62 463.769,75.62 462.25,77.139 L431.139,108.25 C429.62,109.769 429.62,112.231 431.139,113.75 L462.25,144.861 C463.769,146.38 466.231,146.38 467.75,144.861 C469.269,143.342 469.269,140.88 467.75,139.361 Z" />
        </g>
        <g id="Black-S">
            <path d="M633.889,114.867 L696.111,114.867 C698.259,114.867 700,113.126 700,110.978 C700,108.831 698.259,107.09 696.111,107.09 L633.889,107.09 C631.741,107.09 630,108.831 630,110.978 C630,113.126 631.741,114.867 633.889,114.867 Z" />
            <path d="M667.75,139.361 L636.639,108.25 L636.639,113.75 L667.75,82.639 C669.269,81.12 669.269,78.658 667.75,77.139 C666.231,75.62 663.769,75.62 662.25,77.139 L631.139,108.25 C629.62,109.769 629.62,112.231 631.139,113.75 L662.25,144.861 C663.769,146.38 666.231,146.38 667.75,144.861 C669.269,143.342 669.269,140.88 667.75,139.361 Z" />
        </g>
    </g>
</svg>