<?xml version="1.0" encoding="UTF-8"?>
<svg height="600" width="800" xmlns="http://www.w3.org/2000/svg" xmlns:xlink="http://www.w3.org/1999/xlink">
    <g id="Notes" font-family="'LucidaGrande', 'Lucida Grande', sans-serif" font-size="13">
        <rect fill="white" height="600.0" width="800.0" x="0.0" y="0.0" />
        <g font-size="13">
            <text x="18.0" y="176.0">Small</text>
            <text x="18.0" y="376.0">Medium</text>
            <text x="18.0" y="576.0">Large</text>
        </g>
        <g font-size="9">
            <text x="250.0" y="30.0">Ultralight</text>
            <text x="450.0" y="30.0">Regular</text>
            <text x="650.0" y="30.0">Black</text>
            <text id="template-version" fill="#505050" text-anchor="end" x="785.0" y="575.0">Template v.3.0</text>
            <a href="https://github.com/swhitty/SwiftDraw">
                <text fill="#505050" text-anchor="end" x="785.0" y="590.0">https://github.com/swhitty/SwiftDraw</text>
            </a>
        </g>
    </g>
    <g id="Guides" stroke="rgb(39, 170, 225)" stroke-width="0.5">
        <path id="Capline-S" d="M18,76 l800,0" />
        <path id="H-reference" d="M85,145.755 L87.685,145.755 L113.369,79.287 L114.052,79.287 L114.052,76 L112.148,76 L85,145.755 Z M95.693,121.536 L130.996,121.536 L130.263,119.313 L96.474,119.313 L95.693,121.536 Z M139.15,145.755 L141.787,145.755 L114.638,76 L113.466,76 L113.466,79.287 L139.15,145.755 Z" stroke="none" />
        <path id="Baseline-S" d="M18,146 l800,0" />
        <path id="left-margin-Ultralight-S" d="M221,56 l0,110" />
        <path id="right-margin-Ultralight-S" d="M309,56 l0,110" />
        <path id="left-margin-Regular-S" d="M421,56 l0,110" />
        <path id="right-margin-Regular-S" d="M509,56 l0,110" />
        <path id="left-margin-Black-S" d="M621,56 l0,110" />
        <path id="right-margin-Black-S" d="M709,56 l0,110" />
        <path id="Capline-M" d="M18,276 l800,0" />
        <path id="Baseline-M" d="M18,346 l800,0" />
        <path id="Capline-L" d="M18,476 l800,0" />
        <path id="Baseline-L" d="M18,546 l800,0" />
    </g>
    <g id="Symbols">
        <g id="Ultralight-S">
            <path d="M256.047,89.837 C256.047,84.892 260.055,80.884 265,80.884 C269.945,80.884 273.953,84.892 273.953,89.837 C273.953,94.782 269.945,98.791 265,98.791 C260.055,98.791 256.047,94.782 256.047,89.837 Z M251.163,89.837 C251.163,97.479 257.358,103.674 265,103.674 C272.642,103.674 278.837,97.479 278.837,89.837 C278.837,82.195 272.642,76 265,76 C257.358,76 251.163,82.195 251.163,89.837 Z" />
            <path d="M269.884,141.116 L260.116,141.116 L262.164,142.227 L241.001,109.669 L238.953,113.442 L291.047,113.442 L288.999,109.669 L267.836,142.227 L269.884,141.116 Z M269.884,146 C270.71,146 271.481,145.582 271.931,144.889 L293.094,112.331 C294.15,110.706 292.984,108.558 291.047,108.558 L238.953,108.558 C237.016,108.558 235.85,110.706 236.906,112.331 L258.069,144.889 C258.519,145.582 259.29,146 260.116,146 L269.884,146 Z" />
        </g>
        <g id="Regular-S">
            <path d="M456.047,89.837 C456.047,84.892 460.055,80.884 465,80.884 C469.945,80.884 473.953,84.892 473.953,89.837 C473.953,94.782 469.945,98.791 465,98.791 C460.055,98.791 456.047,94.782 456.047,89.837 Z M451.163,89.837 C451.163,97.479 457.358,103.674 465,103.674 C472.642,103.674 478.837,97.479 478.837,89.837 C478.837,82.195 472.642,76 465,76 C457.358,76 451.163,82.195 451.163,89.837 Z" />
            <path d="M469.884,141.116 L460.116,141.116 L462.164,142.227 L441.001,109.669 L438.953,113.442 L491.047,113.442 L488.999,109.669 L467.836,142.227 L469.884,141.116 Z M469.884,146 C470.71,146 471.481,145.582 471.931,144.889 L493.094,112.331 C494.15,110.706 492.984,108.558 491.047,108.558 L438.953,108.558 C437.016,108.558 435.85,110.706 436.906,112.331 L458.069,144.889 C458.519,145.582 459.29,146 460.116,146 L469.884,146 Z" />
        </g>
        <g id="Black-S">
            <path d="M656.047,89.837 C656.047,84.892 660.055,80.884 665,80.884 C669.945,80.884 673.953,84.892 673.953,89.837 C673.953,94.782 669.945,98.791 665,98.791 C660.055,98.791 656.047,94.782 656.047,89.837 Z M651.163,89.837 C651.163,97.479 657.358,103.674 665,103.674 C672.642,103.674 678.837,97.479 678.837,89.837 C678.837,82.195 672.642,76 665,76 C657.358,76 651.163,82.195 651.163,89.837 Z" />
            <path d="M669.884,141.116 L660.116,141.116 L662.164,142.227 L641.001,109.669 L638.953,113.442 L691.047,113.442 L688.999,109.669 L667.836,142.227 L669.884,141.116 Z M669.884,146 C670.71,146 671.481,145.582 671.931,144.889 L693.094,112.331 C694.15,110.706 692.984,108.558 691.047,108.558 L638.953,108.558 C637.016,108.558 635.85,110.706 636.906,112.331 L658.069,144.889 C658.519,145.582 659.29,146 660.116,146 L669.884,146 Z" />
        </g>
    </g>
</svg>