<?xml version="1.0" encoding="UTF-8"?>
<svg height="600" width="800" xmlns="http://www.w3.org/2000/svg" xmlns:xlink="http://www.w3.org/1999/xlink">
    <g id="Notes" font-family="'LucidaGrande', 'Lucida Grande', sans-serif" font-size="13">
        <rect fill="white" height="600.0" width="800.0" x="0.0" y="0.0" />
        <g font-size="13">
            <text x="18.0" y="176.0">Small</text>
            <text x="18.0" y="376.0">Medium</text>
            <text x="18.0" y="576.0">Large</text>
        </g>
        <g font-size="9">
            <text x="250.0" y="30.0">Ultralight</text>
            <text x="450.0" y="30.0">Regular</text>
            <text x="650.0" y="30.0">Black</text>
            <text id="template-version" fill="#505050" text-anchor="end" x="785.0" y="575.0">Template v.3.0</text>
            <a href="https://github.com/swhitty/SwiftDraw">
                <text fill="#505050" text-anchor="end" x="785.0" y="590.0">https://github.com/swhitty/SwiftDraw</text>
            </a>
        </g>
    </g>
    <g id="Guides" stroke="rgb(39, 170, 225)" stroke-width="0.5">
        <path id="Capline-S" d="M18,76 l800,0" />
        <path id="H-reference" d="M85,145.755 L87.685,145.755 L113.369,79.287 L114.052,79.287 L114.052,76 L112.148,76 L85,145.755 Z M95.693,121.536 L130.996,121.536 L130.263,119.313 L96.474,119.313 L95.693,121.536 Z M139.15,145.755 L141.787,145.755 L114.638,76 L113.466,76 L113.466,79.287 L139.15,145.755 Z" stroke="none" />
        <path id="Baseline-S" d="M18,146 l800,0" />
        <path id="left-margin-Ultralight-S" d="M220,56 l0,110" />
        <path id="right-margin-Ultralight-S" d="M310,56 l0,110" />
        <path id="left-margin-Regular-S" d="M420,56 l0,110" />
        <path id="right-margin-Regular-S" d="M510,56 l0,110" />
        <path id="left-margin-Black-S" d="M620,56 l0,110" />
        <path id="right-margin-Black-S" d="M710,56 l0,110" />
        <path id="Capline-M" d="M18,276 l800,0" />
        <path id="Baseline-M" d="M18,346 l800,0" />
        <path id="Capline-L" d="M18,476 l800,0" />
        <path id="Baseline-L" d="M18,546 l800,0" />
    </g>
    <g id="Symbols">
        <g id="Ultralight-S">
            <path d="M295.116,88.209 C295.116,88.608 294.685,89.241 293.587,90.02 C292.197,91.006 290.054,91.957 287.32,92.777 C281.499,94.524 273.528,95.535 265,95.535 C256.472,95.535 248.501,94.524 242.68,92.777 C239.946,91.957 237.803,91.006 236.413,90.02 C235.315,89.241 234.884,88.608 234.884,88.209 C234.884,87.81 235.315,87.178 236.413,86.399 C237.803,85.413 239.946,84.462 242.68,83.642 C248.501,81.895 256.472,80.884 265,80.884 C273.528,80.884 281.499,81.895 287.32,83.642 C290.054,84.462 292.197,85.413 293.587,86.399 C294.685,87.178 295.116,87.81 295.116,88.209 Z M300,88.209 C300,80.677 284.409,76 265,76 C245.591,76 230,80.677 230,88.209 C230,95.741 245.591,100.419 265,100.419 C284.409,100.419 300,95.741 300,88.209 Z" />
            <path d="M295.116,133.791 C295.116,134.19 294.685,134.822 293.587,135.601 C292.197,136.587 290.054,137.538 287.32,138.358 C281.499,140.105 273.528,141.116 265,141.116 C256.472,141.116 248.501,140.105 242.68,138.358 C239.946,137.538 237.803,136.587 236.413,135.601 C235.315,134.822 234.884,134.19 234.884,133.791 C234.884,133.392 235.315,132.759 236.413,131.98 C237.803,130.994 239.946,130.043 242.68,129.223 C248.501,127.476 256.472,126.465 265,126.465 C273.528,126.465 281.499,127.476 287.32,129.223 C290.054,130.043 292.197,130.994 293.587,131.98 C294.685,132.759 295.116,133.392 295.116,133.791 Z M300,133.791 C300,126.259 284.409,121.581 265,121.581 C245.591,121.581 230,126.259 230,133.791 C230,141.323 245.591,146 265,146 C284.409,146 300,141.323 300,133.791 Z" />
            <path d="M295.116,88.209 L295.116,133.791 C295.116,135.139 296.21,136.233 297.558,136.233 C298.907,136.233 300,135.139 300,133.791 L300,88.209 C300,86.861 298.907,85.767 297.558,85.767 C296.21,85.767 295.116,86.861 295.116,88.209 Z" />
            <path d="M230,88.209 L230,133.791 C230,135.139 231.093,136.233 232.442,136.233 C233.79,136.233 234.884,135.139 234.884,133.791 L234.884,88.209 C234.884,86.861 233.79,85.767 232.442,85.767 C231.093,85.767 230,86.861 230,88.209 Z" />
        </g>
        <g id="Regular-S">
            <path d="M495.116,88.209 C495.116,88.608 494.685,89.241 493.587,90.02 C492.197,91.006 490.054,91.957 487.32,92.777 C481.499,94.524 473.528,95.535 465,95.535 C456.472,95.535 448.501,94.524 442.68,92.777 C439.946,91.957 437.803,91.006 436.413,90.02 C435.315,89.241 434.884,88.608 434.884,88.209 C434.884,87.81 435.315,87.178 436.413,86.399 C437.803,85.413 439.946,84.462 442.68,83.642 C448.501,81.895 456.472,80.884 465,80.884 C473.528,80.884 481.499,81.895 487.32,83.642 C490.054,84.462 492.197,85.413 493.587,86.399 C494.685,87.178 495.116,87.81 495.116,88.209 Z M500,88.209 C500,80.677 484.409,76 465,76 C445.591,76 430,80.677 430,88.209 C430,95.741 445.591,100.419 465,100.419 C484.409,100.419 500,95.741 500,88.209 Z" />
            <path d="M495.116,133.791 C495.116,134.19 494.685,134.822 493.587,135.601 C492.197,136.587 490.054,137.538 487.32,138.358 C481.499,140.105 473.528,141.116 465,141.116 C456.472,141.116 448.501,140.105 442.68,138.358 C439.946,137.538 437.803,136.587 436.413,135.601 C435.315,134.822 434.884,134.19 434.884,133.791 C434.884,133.392 435.315,132.759 436.413,131.98 C437.803,130.994 439.946,130.043 442.68,129.223 C448.501,127.476 456.472,126.465 465,126.465 C473.528,126.465 481.499,127.476 487.32,129.223 C490.054,130.043 492.197,130.994 493.587,131.98 C494.685,132.759 495.116,133.392 495.116,133.791 Z M500,133.791 C500,126.259 484.409,121.581 465,121.581 C445.591,121.581 430,126.259 430,133.791 C430,141.323 445.591,146 465,146 C484.409,146 500,141.323 500,133.791 Z" />
            <path d="M495.116,88.209 L495.116,133.791 C495.116,135.139 496.21,136.233 497.558,136.233 C498.907,136.233 500,135.139 500,133.791 L500,88.209 C500,86.861 498.907,85.767 497.558,85.767 C496.21,85.767 495.116,86.861 495.116,88.209 Z" />
            <path d="M430,88.209 L430,133.791 C430,135.139 431.093,136.233 432.442,136.233 C433.79,136.233 434.884,135.139 434.884,133.791 L434.884,88.209 C434.884,86.861 433.79,85.767 432.442,85.767 C431.093,85.767 430,86.861 430,88.209 Z" />
        </g>
        <g id="Black-S">
            <path d="M695.116,88.209 C695.116,88.608 694.685,89.241 693.587,90.02 C692.197,91.006 690.054,91.957 687.32,92.777 C681.499,94.524 673.528,95.535 665,95.535 C656.472,95.535 648.501,94.524 642.68,92.777 C639.946,91.957 637.803,91.006 636.413,90.02 C635.315,89.241 634.884,88.608 634.884,88.209 C634.884,87.81 635.315,87.178 636.413,86.399 C637.803,85.413 639.946,84.462 642.68,83.642 C648.501,81.895 656.472,80.884 665,80.884 C673.528,80.884 681.499,81.895 687.32,83.642 C690.054,84.462 692.197,85.413 693.587,86.399 C694.685,87.178 695.116,87.81 695.116,88.209 Z M700,88.209 C700,80.677 684.409,76 665,76 C645.591,76 630,80.677 630,88.209 C630,95.741 645.591,100.419 665,100.419 C684.409,100.419 700,95.741 700,88.209 Z" />
            <path d="M695.116,133.791 C695.116,134.19 694.685,134.822 693.587,135.601 C692.197,136.587 690.054,137.538 687.32,138.358 C681.499,140.105 673.528,141.116 665,141.116 C656.472,141.116 648.501,140.105 642.68,138.358 C639.946,137.538 637.803,136.587 636.413,135.601 C635.315,134.822 634.884,134.19 634.884,133.791 C634.884,133.392 635.315,132.759 636.413,131.98 C637.803,130.994 639.946,130.043 642.68,129.223 C648.501,127.476 656.472,126.465 665,126.465 C673.528,126.465 681.499,127.476 687.32,129.223 C690.054,130.043 692.197,130.994 693.587,131.98 C694.685,132.759 695.116,133.392 695.116,133.791 Z M700,133.791 C700,126.259 684.409,121.581 665,121.581 C645.591,121.581 630,126.259 630,133.791 C630,141.323 645.591,146 665,146 C684.409,146 700,141.323 700,133.791 Z" />
            <path d="M695.116,88.209 L695.116,133.791 C695.116,135.139 696.21,136.233 697.558,136.233 C698.907,136.233 700,135.139 700,133.791 L700,88.209 C700,86.861 698.907,85.767 697.558,85.767 C696.21,85.767 695.116,86.861 695.116,88.209 Z" />
            <path d="M630,88.209 L630,133.791 C630,135.139 631.093,136.233 632.442,136.233 C633.79,136.233 634.884,135.139 634.884,133.791 L634.884,88.209 C634.884,86.861 633.79,85.767 632.442,85.767 C631.093,85.767 630,86.861 630,88.209 Z" />
        </g>
    </g>
</svg>