<?xml version="1.0" encoding="UTF-8"?>
<svg height="600" width="800" xmlns="http://www.w3.org/2000/svg" xmlns:xlink="http://www.w3.org/1999/xlink">
    <g id="Notes" font-family="'LucidaGrande', 'Lucida Grande', sans-serif" font-size="13">
        <rect fill="white" height="600.0" width="800.0" x="0.0" y="0.0" />
        <g font-size="13">
            <text x="18.0" y="176.0">Small</text>
            <text x="18.0" y="376.0">Medium</text>
            <text x="18.0" y="576.0">Large</text>
        </g>
        <g font-size="9">
            <text x="250.0" y="30.0">Ultralight</text>
            <text x="450.0" y="30.0">Regular</text>
            <text x="650.0" y="30.0">Black</text>
            <text id="template-version" fill="#505050" text-anchor="end" x="785.0" y="575.0">Template v.3.0</text>
            <a href="https://github.com/swhitty/SwiftDraw">
                <text fill="#505050" text-anchor="end" x="785.0" y="590.0">https://github.com/swhitty/SwiftDraw</text>
            </a>
        </g>
    </g>
    <g id="Guides" stroke="rgb(39, 170, 225)" stroke-width="0.5">
        <path id="Capline-S" d="M18,76 l800,0" />
        <path id="H-reference" d="M85,145.755 L87.685,145.755 L113.369,79.287 L114.052,79.287 L114.052,76 L112.148,76 L85,145.755 Z M95.693,121.536 L130.996,121.536 L130.263,119.313 L96.474,119.313 L95.693,121.536 Z M139.15,145.755 L141.787,145.755 L114.638,76 L113.466,76 L113.466,79.287 L139.15,145.755 Z" stroke="none" />
        <path id="Baseline-S" d="M18,146 l800,0" />
        <path id="left-margin-Ultralight-S" d="M220,56 l0,110" />
        <path id="right-margin-Ultralight-S" d="M310,56 l0,110" />
        <path id="left-margin-Regular-S" d="M420,56 l0,110" />
        <path id="right-margin-Regular-S" d="M510,56 l0,110" />
        <path id="left-margin-Black-S" d="M620,56 l0,110" />
        <path id="right-margin-Black-S" d="M710,56 l0,110" />
        <path id="Capline-M" d="M18,276 l800,0" />
        <path id="Baseline-M" d="M18,346 l800,0" />
        <path id="Capline-L" d="M18,476 l800,0" />
        <path id="Baseline-L" d="M18,546 l800,0" />
    </g>
    <g id="Symbols">
        <g id="Ultralight-S">
            <path d="M283.721,107.744 L283.721,132.163 C283.721,133.511 284.814,134.605 286.163,134.605 C287.511,134.605 288.605,133.511 288.605,132.163 L288.605,107.744 C288.605,106.396 287.511,105.302 286.163,105.302 C284.814,105.302 283.721,106.396 283.721,107.744 Z M241.395,132.163 L241.395,143.558 C241.395,144.907 242.489,146 243.837,146 L286.163,146 C287.511,146 288.605,144.907 288.605,143.558 L288.605,132.163 C288.605,130.814 287.511,129.721 286.163,129.721 C284.814,129.721 283.721,130.814 283.721,132.163 L283.721,143.558 L286.163,141.116 L243.837,141.116 L246.279,143.558 L246.279,132.163 C246.279,130.814 245.186,129.721 243.837,129.721 C242.489,129.721 241.395,130.814 241.395,132.163 Z M243.837,129.721 L232.442,129.721 L234.884,132.163 L234.884,107.744 C234.884,103.717 237.716,98.66 242.145,94.969 C242.947,94.3 243.844,93.698 244.819,93.162 C246.454,92.263 248.226,91.589 250.001,91.116 C250.622,90.95 251.196,90.822 251.706,90.727 C251.999,90.673 252.196,90.643 252.28,90.632 L250.25,89.936 L263.273,102.959 C264.227,103.913 265.773,103.913 266.727,102.959 C267.68,102.006 267.68,100.46 266.727,99.506 L253.703,86.483 C253.171,85.95 252.422,85.693 251.674,85.786 C251.049,85.864 250.03,86.054 248.743,86.397 C246.611,86.965 244.476,87.776 242.465,88.883 C241.226,89.564 240.071,90.34 239.018,91.217 C233.557,95.768 230,102.12 230,107.744 L230,132.163 C230,133.511 231.093,134.605 232.442,134.605 L243.837,134.605 C245.186,134.605 246.279,133.511 246.279,132.163 C246.279,130.814 245.186,129.721 243.837,129.721 Z M246.279,132.163 L246.279,107.744 C246.279,106.396 245.186,105.302 243.837,105.302 C242.489,105.302 241.395,106.396 241.395,107.744 L241.395,132.163 C241.395,133.511 242.489,134.605 243.837,134.605 C245.186,134.605 246.279,133.511 246.279,132.163 Z M286.163,134.605 L297.558,134.605 C298.907,134.605 300,133.511 300,132.163 L300,107.744 C300,102.12 296.443,95.768 290.982,91.217 C289.929,90.34 288.774,89.564 287.535,88.883 C285.524,87.776 283.389,86.965 281.257,86.397 C279.97,86.054 278.951,85.864 278.326,85.786 C277.578,85.693 276.829,85.95 276.297,86.483 L263.273,99.506 C262.32,100.46 262.32,102.006 263.273,102.959 C264.227,103.913 265.773,103.913 266.727,102.959 L279.75,89.936 L277.72,90.632 C277.804,90.643 278.001,90.673 278.294,90.727 C278.804,90.822 279.378,90.95 279.999,91.116 C281.774,91.589 283.546,92.263 285.181,93.162 C286.156,93.698 287.053,94.3 287.855,94.969 C292.284,98.66 295.116,103.717 295.116,107.744 L295.116,132.163 L297.558,129.721 L286.163,129.721 C284.814,129.721 283.721,130.814 283.721,132.163 C283.721,133.511 284.814,134.605 286.163,134.605 Z M262.558,101.233 L262.558,115.884 C262.558,117.232 263.651,118.326 265,118.326 C266.349,118.326 267.442,117.232 267.442,115.884 L267.442,101.233 C267.442,99.884 266.349,98.791 265,98.791 C263.651,98.791 262.558,99.884 262.558,101.233 Z" />
            <path d="M242.145,94.969 C242.947,94.3 243.844,93.698 244.819,93.162 C246.454,92.263 248.226,91.589 250.001,91.116 C250.622,90.95 251.196,90.822 251.706,90.727 C251.999,90.673 252.196,90.643 252.28,90.632 L250.25,89.936 L263.273,102.959 C264.227,103.913 265.773,103.913 266.727,102.959 L279.75,89.936 L277.72,90.632 C277.804,90.643 278.001,90.673 278.294,90.727 C278.804,90.822 279.378,90.95 279.999,91.116 C281.774,91.589 283.546,92.263 285.181,93.162 C286.156,93.698 287.053,94.3 287.855,94.969 C289.1,96.006 290.992,95.566 291.65,94.085 L294.906,86.759 C295.186,86.128 295.186,85.407 294.906,84.776 L291.65,77.45 C291.258,76.568 290.384,76 289.419,76 L240.581,76 C239.616,76 238.742,76.568 238.35,77.45 L235.094,84.776 C234.814,85.407 234.814,86.128 235.094,86.759 L238.35,94.085 C239.008,95.566 240.9,96.006 242.145,94.969 Z M239.018,91.217 L242.813,92.101 L239.557,84.776 L239.557,86.759 L242.813,79.434 L240.581,80.884 L289.419,80.884 L287.187,79.434 L290.443,86.759 L290.443,84.776 L287.187,92.101 L290.982,91.217 C289.929,90.34 288.774,89.564 287.535,88.883 C285.524,87.776 283.389,86.965 281.257,86.397 C279.97,86.054 278.951,85.864 278.326,85.786 C277.578,85.693 276.829,85.95 276.297,86.483 L263.273,99.506 L266.727,99.506 L253.703,86.483 C253.171,85.95 252.422,85.693 251.674,85.786 C251.049,85.864 250.03,86.054 248.743,86.397 C246.611,86.965 244.476,87.776 242.465,88.883 C241.226,89.564 240.071,90.34 239.018,91.217 Z" />
        </g>
        <g id="Regular-S">
            <path d="M483.721,107.744 L483.721,132.163 C483.721,133.511 484.814,134.605 486.163,134.605 C487.511,134.605 488.605,133.511 488.605,132.163 L488.605,107.744 C488.605,106.396 487.511,105.302 486.163,105.302 C484.814,105.302 483.721,106.396 483.721,107.744 Z M441.395,132.163 L441.395,143.558 C441.395,144.907 442.489,146 443.837,146 L486.163,146 C487.511,146 488.605,144.907 488.605,143.558 L488.605,132.163 C488.605,130.814 487.511,129.721 486.163,129.721 C484.814,129.721 483.721,130.814 483.721,132.163 L483.721,143.558 L486.163,141.116 L443.837,141.116 L446.279,143.558 L446.279,132.163 C446.279,130.814 445.186,129.721 443.837,129.721 C442.489,129.721 441.395,130.814 441.395,132.163 Z M443.837,129.721 L432.442,129.721 L434.884,132.163 L434.884,107.744 C434.884,103.717 437.716,98.66 442.145,94.969 C442.947,94.3 443.844,93.698 444.819,93.162 C446.454,92.263 448.226,91.589 450.001,91.116 C450.622,90.95 451.196,90.822 451.706,90.727 C451.999,90.673 452.196,90.643 452.28,90.632 L450.25,89.936 L463.273,102.959 C464.227,103.913 465.773,103.913 466.727,102.959 C467.68,102.006 467.68,100.46 466.727,99.506 L453.703,86.483 C453.171,85.95 452.422,85.693 451.674,85.786 C451.049,85.864 450.03,86.054 448.743,86.397 C446.611,86.965 444.476,87.776 442.465,88.883 C441.226,89.564 440.071,90.34 439.018,91.217 C433.557,95.768 430,102.12 430,107.744 L430,132.163 C430,133.511 431.093,134.605 432.442,134.605 L443.837,134.605 C445.186,134.605 446.279,133.511 446.279,132.163 C446.279,130.814 445.186,129.721 443.837,129.721 Z M446.279,132.163 L446.279,107.744 C446.279,106.396 445.186,105.302 443.837,105.302 C442.489,105.302 441.395,106.396 441.395,107.744 L441.395,132.163 C441.395,133.511 442.489,134.605 443.837,134.605 C445.186,134.605 446.279,133.511 446.279,132.163 Z M486.163,134.605 L497.558,134.605 C498.907,134.605 500,133.511 500,132.163 L500,107.744 C500,102.12 496.443,95.768 490.982,91.217 C489.929,90.34 488.774,89.564 487.535,88.883 C485.524,87.776 483.389,86.965 481.257,86.397 C479.97,86.054 478.951,85.864 478.326,85.786 C477.578,85.693 476.829,85.95 476.297,86.483 L463.273,99.506 C462.32,100.46 462.32,102.006 463.273,102.959 C464.227,103.913 465.773,103.913 466.727,102.959 L479.75,89.936 L477.72,90.632 C477.804,90.643 478.001,90.673 478.294,90.727 C478.804,90.822 479.378,90.95 479.999,91.116 C481.774,91.589 483.546,92.263 485.181,93.162 C486.156,93.698 487.053,94.3 487.855,94.969 C492.284,98.66 495.116,103.717 495.116,107.744 L495.116,132.163 L497.558,129.721 L486.163,129.721 C484.814,129.721 483.721,130.814 483.721,132.163 C483.721,133.511 484.814,134.605 486.163,134.605 Z M462.558,101.233 L462.558,115.884 C462.558,117.232 463.651,118.326 465,118.326 C466.349,118.326 467.442,117.232 467.442,115.884 L467.442,101.233 C467.442,99.884 466.349,98.791 465,98.791 C463.651,98.791 462.558,99.884 462.558,101.233 Z" />
            <path d="M442.145,94.969 C442.947,94.3 443.844,93.698 444.819,93.162 C446.454,92.263 448.226,91.589 450.001,91.116 C450.622,90.95 451.196,90.822 451.706,90.727 C451.999,90.673 452.196,90.643 452.28,90.632 L450.25,89.936 L463.273,102.959 C464.227,103.913 465.773,103.913 466.727,102.959 L479.75,89.936 L477.72,90.632 C477.804,90.643 478.001,90.673 478.294,90.727 C478.804,90.822 479.378,90.95 479.999,91.116 C481.774,91.589 483.546,92.263 485.181,93.162 C486.156,93.698 487.053,94.3 487.855,94.969 C489.1,96.006 490.992,95.566 491.65,94.085 L494.906,86.759 C495.186,86.128 495.186,85.407 494.906,84.776 L491.65,77.45 C491.258,76.568 490.384,76 489.419,76 L440.581,76 C439.616,76 438.742,76.568 438.35,77.45 L435.094,84.776 C434.814,85.407 434.814,86.128 435.094,86.759 L438.35,94.085 C439.008,95.566 440.9,96.006 442.145,94.969 Z M439.018,91.217 L442.813,92.101 L439.557,84.776 L439.557,86.759 L442.813,79.434 L440.581,80.884 L489.419,80.884 L487.187,79.434 L490.443,86.759 L490.443,84.776 L487.187,92.101 L490.982,91.217 C489.929,90.34 488.774,89.564 487.535,88.883 C485.524,87.776 483.389,86.965 481.257,86.397 C479.97,86.054 478.951,85.864 478.326,85.786 C477.578,85.693 476.829,85.95 476.297,86.483 L463.273,99.506 L466.727,99.506 L453.703,86.483 C453.171,85.95 452.422,85.693 451.674,85.786 C451.049,85.864 450.03,86.054 448.743,86.397 C446.611,86.965 444.476,87.776 442.465,88.883 C441.226,89.564 440.071,90.34 439.018,91.217 Z" />
        </g>
        <g id="Black-S">
            <path d="M683.721,107.744 L683.721,132.163 C683.721,133.511 684.814,134.605 686.163,134.605 C687.511,134.605 688.605,133.511 688.605,132.163 L688.605,107.744 C688.605,106.396 687.511,105.302 686.163,105.302 C684.814,105.302 683.721,106.396 683.721,107.744 Z M641.395,132.163 L641.395,143.558 C641.395,144.907 642.489,146 643.837,146 L686.163,146 C687.511,146 688.605,144.907 688.605,143.558 L688.605,132.163 C688.605,130.814 687.511,129.721 686.163,129.721 C684.814,129.721 683.721,130.814 683.721,132.163 L683.721,143.558 L686.163,141.116 L643.837,141.116 L646.279,143.558 L646.279,132.163 C646.279,130.814 645.186,129.721 643.837,129.721 C642.489,129.721 641.395,130.814 641.395,132.163 Z M643.837,129.721 L632.442,129.721 L634.884,132.163 L634.884,107.744 C634.884,103.717 637.716,98.66 642.145,94.969 C642.947,94.3 643.844,93.698 644.819,93.162 C646.454,92.263 648.226,91.589 650.001,91.116 C650.622,90.95 651.196,90.822 651.706,90.727 C651.999,90.673 652.196,90.643 652.28,90.632 L650.25,89.936 L663.273,102.959 C664.227,103.913 665.773,103.913 666.727,102.959 C667.68,102.006 667.68,100.46 666.727,99.506 L653.703,86.483 C653.171,85.95 652.422,85.693 651.674,85.786 C651.049,85.864 650.03,86.054 648.743,86.397 C646.611,86.965 644.476,87.776 642.465,88.883 C641.226,89.564 640.071,90.34 639.018,91.217 C633.557,95.768 630,102.12 630,107.744 L630,132.163 C630,133.511 631.093,134.605 632.442,134.605 L643.837,134.605 C645.186,134.605 646.279,133.511 646.279,132.163 C646.279,130.814 645.186,129.721 643.837,129.721 Z M646.279,132.163 L646.279,107.744 C646.279,106.396 645.186,105.302 643.837,105.302 C642.489,105.302 641.395,106.396 641.395,107.744 L641.395,132.163 C641.395,133.511 642.489,134.605 643.837,134.605 C645.186,134.605 646.279,133.511 646.279,132.163 Z M686.163,134.605 L697.558,134.605 C698.907,134.605 700,133.511 700,132.163 L700,107.744 C700,102.12 696.443,95.768 690.982,91.217 C689.929,90.34 688.774,89.564 687.535,88.883 C685.524,87.776 683.389,86.965 681.257,86.397 C679.97,86.054 678.951,85.864 678.326,85.786 C677.578,85.693 676.829,85.95 676.297,86.483 L663.273,99.506 C662.32,100.46 662.32,102.006 663.273,102.959 C664.227,103.913 665.773,103.913 666.727,102.959 L679.75,89.936 L677.72,90.632 C677.804,90.643 678.001,90.673 678.294,90.727 C678.804,90.822 679.378,90.95 679.999,91.116 C681.774,91.589 683.546,92.263 685.181,93.162 C686.156,93.698 687.053,94.3 687.855,94.969 C692.284,98.66 695.116,103.717 695.116,107.744 L695.116,132.163 L697.558,129.721 L686.163,129.721 C684.814,129.721 683.721,130.814 683.721,132.163 C683.721,133.511 684.814,134.605 686.163,134.605 Z M662.558,101.233 L662.558,115.884 C662.558,117.232 663.651,118.326 665,118.326 C666.349,118.326 667.442,117.232 667.442,115.884 L667.442,101.233 C667.442,99.884 666.349,98.791 665,98.791 C663.651,98.791 662.558,99.884 662.558,101.233 Z" />
            <path d="M642.145,94.969 C642.947,94.3 643.844,93.698 644.819,93.162 C646.454,92.263 648.226,91.589 650.001,91.116 C650.622,90.95 651.196,90.822 651.706,90.727 C651.999,90.673 652.196,90.643 652.28,90.632 L650.25,89.936 L663.273,102.959 C664.227,103.913 665.773,103.913 666.727,102.959 L679.75,89.936 L677.72,90.632 C677.804,90.643 678.001,90.673 678.294,90.727 C678.804,90.822 679.378,90.95 679.999,91.116 C681.774,91.589 683.546,92.263 685.181,93.162 C686.156,93.698 687.053,94.3 687.855,94.969 C689.1,96.006 690.992,95.566 691.65,94.085 L694.906,86.759 C695.186,86.128 695.186,85.407 694.906,84.776 L691.65,77.45 C691.258,76.568 690.384,76 689.419,76 L640.581,76 C639.616,76 638.742,76.568 638.35,77.45 L635.094,84.776 C634.814,85.407 634.814,86.128 635.094,86.759 L638.35,94.085 C639.008,95.566 640.9,96.006 642.145,94.969 Z M639.018,91.217 L642.813,92.101 L639.557,84.776 L639.557,86.759 L642.813,79.434 L640.581,80.884 L689.419,80.884 L687.187,79.434 L690.443,86.759 L690.443,84.776 L687.187,92.101 L690.982,91.217 C689.929,90.34 688.774,89.564 687.535,88.883 C685.524,87.776 683.389,86.965 681.257,86.397 C679.97,86.054 678.951,85.864 678.326,85.786 C677.578,85.693 676.829,85.95 676.297,86.483 L663.273,99.506 L666.727,99.506 L653.703,86.483 C653.171,85.95 652.422,85.693 651.674,85.786 C651.049,85.864 650.03,86.054 648.743,86.397 C646.611,86.965 644.476,87.776 642.465,88.883 C641.226,89.564 640.071,90.34 639.018,91.217 Z" />
        </g>
    </g>
</svg>