<?xml version="1.0" encoding="UTF-8"?>
<svg height="600" width="800" xmlns="http://www.w3.org/2000/svg" xmlns:xlink="http://www.w3.org/1999/xlink">
    <g id="Notes" font-family="'LucidaGrande', 'Lucida Grande', sans-serif" font-size="13">
        <rect fill="white" height="600.0" width="800.0" x="0.0" y="0.0" />
        <g font-size="13">
            <text x="18.0" y="176.0">Small</text>
            <text x="18.0" y="376.0">Medium</text>
            <text x="18.0" y="576.0">Large</text>
        </g>
        <g font-size="9">
            <text x="250.0" y="30.0">Ultralight</text>
            <text x="450.0" y="30.0">Regular</text>
            <text x="650.0" y="30.0">Black</text>
            <text id="template-version" fill="#505050" text-anchor="end" x="785.0" y="575.0">Template v.3.0</text>
            <a href="https://github.com/swhitty/SwiftDraw">
                <text fill="#505050" text-anchor="end" x="785.0" y="590.0">https://github.com/swhitty/SwiftDraw</text>
            </a>
        </g>
    </g>
    <g id="Guides" stroke="rgb(39, 170, 225)" stroke-width="0.5">
        <path id="Capline-S" d="M18,76 l800,0" />
        <path id="H-reference" d="M85,145.755 L87.685,145.755 L113.369,79.287 L114.052,79.287 L114.052,76 L112.148,76 L85,145.755 Z M95.693,121.536 L130.996,121.536 L130.263,119.313 L96.474,119.313 L95.693,121.536 Z M139.15,145.755 L141.787,145.755 L114.638,76 L113.466,76 L113.466,79.287 L139.15,145.755 Z" stroke="none" />
        <path id="Baseline-S" d="M18,146 l800,0" />
        <path id="left-margin-Ultralight-S" d="M221,56 l0,110" />
        <path id="right-margin-Ultralight-S" d="M309,56 l0,110" />
        <path id="left-margin-Regular-S" d="M421,56 l0,110" />
        <path id="right-margin-Regular-S" d="M509,56 l0,110" />
        <path id="left-margin-Black-S" d="M621,56 l0,110" />
        <path id="right-margin-Black-S" d="M709,56 l0,110" />
        <path id="Capline-M" d="M18,276 l800,0" />
        <path id="Baseline-M" d="M18,346 l800,0" />
        <path id="Capline-L" d="M18,476 l800,0" />
        <path id="Baseline-L" d="M18,546 l800,0" />
    </g>
    <g id="Symbols">
        <g id="Ultralight-S">
            <path d="M275.581,101.233 L275.581,111 C275.581,113.806 274.467,116.498 272.482,118.482 C270.498,120.467 267.806,121.581 265,121.581 C262.194,121.581 259.502,120.467 257.518,118.482 C255.533,116.498 254.419,113.806 254.419,111 L254.419,91.465 C254.419,88.659 255.533,85.967 257.518,83.983 C259.502,81.999 262.194,80.884 265,80.884 C267.806,80.884 270.498,81.999 272.482,83.983 C274.467,85.967 275.581,88.659 275.581,91.465 L275.581,101.233 Z M280.465,101.233 L280.465,91.465 C280.465,87.364 278.836,83.43 275.935,80.53 C273.035,77.629 269.102,76 265,76 C260.898,76 256.965,77.629 254.065,80.53 C251.164,83.43 249.535,87.364 249.535,91.465 L249.535,111 C249.535,115.102 251.164,119.035 254.065,121.935 C256.965,124.836 260.898,126.465 265,126.465 C269.102,126.465 273.035,124.836 275.935,121.935 C278.836,119.035 280.465,115.102 280.465,111 L280.465,101.233 Z" />
            <path d="M239.767,106.116 L239.767,111 C239.767,124.936 251.064,136.233 265,136.233 C278.936,136.233 290.233,124.936 290.233,111 L290.233,106.116 C290.233,104.768 289.139,103.674 287.791,103.674 C286.442,103.674 285.349,104.768 285.349,106.116 L285.349,111 C285.349,122.238 276.238,131.349 265,131.349 C253.762,131.349 244.651,122.238 244.651,111 L244.651,106.116 C244.651,104.768 243.558,103.674 242.209,103.674 C240.861,103.674 239.767,104.768 239.767,106.116 Z" />
            <path d="M262.558,80.07 L262.558,89.837 C262.558,91.186 263.651,92.279 265,92.279 C266.349,92.279 267.442,91.186 267.442,89.837 L267.442,80.07 C267.442,78.721 266.349,77.628 265,77.628 C263.651,77.628 262.558,78.721 262.558,80.07 Z" />
            <path d="M251.977,100.419 L260.116,100.419 C261.465,100.419 262.558,99.325 262.558,97.977 C262.558,96.628 261.465,95.535 260.116,95.535 L251.977,95.535 C250.628,95.535 249.535,96.628 249.535,97.977 C249.535,99.325 250.628,100.419 251.977,100.419 Z" />
            <path d="M269.884,100.419 L278.023,100.419 C279.372,100.419 280.465,99.325 280.465,97.977 C280.465,96.628 279.372,95.535 278.023,95.535 L269.884,95.535 C268.535,95.535 267.442,96.628 267.442,97.977 C267.442,99.325 268.535,100.419 269.884,100.419 Z" />
            <path d="M251.977,110.186 L260.116,110.186 C261.465,110.186 262.558,109.093 262.558,107.744 C262.558,106.396 261.465,105.302 260.116,105.302 L251.977,105.302 C250.628,105.302 249.535,106.396 249.535,107.744 C249.535,109.093 250.628,110.186 251.977,110.186 Z" />
            <path d="M269.884,110.186 L278.023,110.186 C279.372,110.186 280.465,109.093 280.465,107.744 C280.465,106.396 279.372,105.302 278.023,105.302 L269.884,105.302 C268.535,105.302 267.442,106.396 267.442,107.744 C267.442,109.093 268.535,110.186 269.884,110.186 Z" />
            <path d="M262.558,133.791 L262.558,143.558 L267.442,143.558 L267.442,133.791 L262.558,133.791 Z" />
            <path d="M251.977,146 L278.023,146 C279.372,146 280.465,144.907 280.465,143.558 C280.465,142.21 279.372,141.116 278.023,141.116 L251.977,141.116 C250.628,141.116 249.535,142.21 249.535,143.558 C249.535,144.907 250.628,146 251.977,146 Z" />
        </g>
        <g id="Regular-S">
            <path d="M475.581,101.233 L475.581,111 C475.581,113.806 474.467,116.498 472.482,118.482 C470.498,120.467 467.806,121.581 465,121.581 C462.194,121.581 459.502,120.467 457.518,118.482 C455.533,116.498 454.419,113.806 454.419,111 L454.419,91.465 C454.419,88.659 455.533,85.967 457.518,83.983 C459.502,81.999 462.194,80.884 465,80.884 C467.806,80.884 470.498,81.999 472.482,83.983 C474.467,85.967 475.581,88.659 475.581,91.465 L475.581,101.233 Z M480.465,101.233 L480.465,91.465 C480.465,87.364 478.836,83.43 475.935,80.53 C473.035,77.629 469.102,76 465,76 C460.898,76 456.965,77.629 454.065,80.53 C451.164,83.43 449.535,87.364 449.535,91.465 L449.535,111 C449.535,115.102 451.164,119.035 454.065,121.935 C456.965,124.836 460.898,126.465 465,126.465 C469.102,126.465 473.035,124.836 475.935,121.935 C478.836,119.035 480.465,115.102 480.465,111 L480.465,101.233 Z" />
            <path d="M439.767,106.116 L439.767,111 C439.767,124.936 451.064,136.233 465,136.233 C478.936,136.233 490.233,124.936 490.233,111 L490.233,106.116 C490.233,104.768 489.139,103.674 487.791,103.674 C486.442,103.674 485.349,104.768 485.349,106.116 L485.349,111 C485.349,122.238 476.238,131.349 465,131.349 C453.762,131.349 444.651,122.238 444.651,111 L444.651,106.116 C444.651,104.768 443.558,103.674 442.209,103.674 C440.861,103.674 439.767,104.768 439.767,106.116 Z" />
            <path d="M462.558,80.07 L462.558,89.837 C462.558,91.186 463.651,92.279 465,92.279 C466.349,92.279 467.442,91.186 467.442,89.837 L467.442,80.07 C467.442,78.721 466.349,77.628 465,77.628 C463.651,77.628 462.558,78.721 462.558,80.07 Z" />
            <path d="M451.977,100.419 L460.116,100.419 C461.465,100.419 462.558,99.325 462.558,97.977 C462.558,96.628 461.465,95.535 460.116,95.535 L451.977,95.535 C450.628,95.535 449.535,96.628 449.535,97.977 C449.535,99.325 450.628,100.419 451.977,100.419 Z" />
            <path d="M469.884,100.419 L478.023,100.419 C479.372,100.419 480.465,99.325 480.465,97.977 C480.465,96.628 479.372,95.535 478.023,95.535 L469.884,95.535 C468.535,95.535 467.442,96.628 467.442,97.977 C467.442,99.325 468.535,100.419 469.884,100.419 Z" />
            <path d="M451.977,110.186 L460.116,110.186 C461.465,110.186 462.558,109.093 462.558,107.744 C462.558,106.396 461.465,105.302 460.116,105.302 L451.977,105.302 C450.628,105.302 449.535,106.396 449.535,107.744 C449.535,109.093 450.628,110.186 451.977,110.186 Z" />
            <path d="M469.884,110.186 L478.023,110.186 C479.372,110.186 480.465,109.093 480.465,107.744 C480.465,106.396 479.372,105.302 478.023,105.302 L469.884,105.302 C468.535,105.302 467.442,106.396 467.442,107.744 C467.442,109.093 468.535,110.186 469.884,110.186 Z" />
            <path d="M462.558,133.791 L462.558,143.558 L467.442,143.558 L467.442,133.791 L462.558,133.791 Z" />
            <path d="M451.977,146 L478.023,146 C479.372,146 480.465,144.907 480.465,143.558 C480.465,142.21 479.372,141.116 478.023,141.116 L451.977,141.116 C450.628,141.116 449.535,142.21 449.535,143.558 C449.535,144.907 450.628,146 451.977,146 Z" />
        </g>
        <g id="Black-S">
            <path d="M675.581,101.233 L675.581,111 C675.581,113.806 674.467,116.498 672.482,118.482 C670.498,120.467 667.806,121.581 665,121.581 C662.194,121.581 659.502,120.467 657.518,118.482 C655.533,116.498 654.419,113.806 654.419,111 L654.419,91.465 C654.419,88.659 655.533,85.967 657.518,83.983 C659.502,81.999 662.194,80.884 665,80.884 C667.806,80.884 670.498,81.999 672.482,83.983 C674.467,85.967 675.581,88.659 675.581,91.465 L675.581,101.233 Z M680.465,101.233 L680.465,91.465 C680.465,87.364 678.836,83.43 675.935,80.53 C673.035,77.629 669.102,76 665,76 C660.898,76 656.965,77.629 654.065,80.53 C651.164,83.43 649.535,87.364 649.535,91.465 L649.535,111 C649.535,115.102 651.164,119.035 654.065,121.935 C656.965,124.836 660.898,126.465 665,126.465 C669.102,126.465 673.035,124.836 675.935,121.935 C678.836,119.035 680.465,115.102 680.465,111 L680.465,101.233 Z" />
            <path d="M639.767,106.116 L639.767,111 C639.767,124.936 651.064,136.233 665,136.233 C678.936,136.233 690.233,124.936 690.233,111 L690.233,106.116 C690.233,104.768 689.139,103.674 687.791,103.674 C686.442,103.674 685.349,104.768 685.349,106.116 L685.349,111 C685.349,122.238 676.238,131.349 665,131.349 C653.762,131.349 644.651,122.238 644.651,111 L644.651,106.116 C644.651,104.768 643.558,103.674 642.209,103.674 C640.861,103.674 639.767,104.768 639.767,106.116 Z" />
            <path d="M662.558,80.07 L662.558,89.837 C662.558,91.186 663.651,92.279 665,92.279 C666.349,92.279 667.442,91.186 667.442,89.837 L667.442,80.07 C667.442,78.721 666.349,77.628 665,77.628 C663.651,77.628 662.558,78.721 662.558,80.07 Z" />
            <path d="M651.977,100.419 L660.116,100.419 C661.465,100.419 662.558,99.325 662.558,97.977 C662.558,96.628 661.465,95.535 660.116,95.535 L651.977,95.535 C650.628,95.535 649.535,96.628 649.535,97.977 C649.535,99.325 650.628,100.419 651.977,100.419 Z" />
            <path d="M669.884,100.419 L678.023,100.419 C679.372,100.419 680.465,99.325 680.465,97.977 C680.465,96.628 679.372,95.535 678.023,95.535 L669.884,95.535 C668.535,95.535 667.442,96.628 667.442,97.977 C667.442,99.325 668.535,100.419 669.884,100.419 Z" />
            <path d="M651.977,110.186 L660.116,110.186 C661.465,110.186 662.558,109.093 662.558,107.744 C662.558,106.396 661.465,105.302 660.116,105.302 L651.977,105.302 C650.628,105.302 649.535,106.396 649.535,107.744 C649.535,109.093 650.628,110.186 651.977,110.186 Z" />
            <path d="M669.884,110.186 L678.023,110.186 C679.372,110.186 680.465,109.093 680.465,107.744 C680.465,106.396 679.372,105.302 678.023,105.302 L669.884,105.302 C668.535,105.302 667.442,106.396 667.442,107.744 C667.442,109.093 668.535,110.186 669.884,110.186 Z" />
            <path d="M662.558,133.791 L662.558,143.558 L667.442,143.558 L667.442,133.791 L662.558,133.791 Z" />
            <path d="M651.977,146 L678.023,146 C679.372,146 680.465,144.907 680.465,143.558 C680.465,142.21 679.372,141.116 678.023,141.116 L651.977,141.116 C650.628,141.116 649.535,142.21 649.535,143.558 C649.535,144.907 650.628,146 651.977,146 Z" />
        </g>
    </g>
</svg>