<?xml version="1.0" encoding="UTF-8"?>
<svg height="600" width="800" xmlns="http://www.w3.org/2000/svg" xmlns:xlink="http://www.w3.org/1999/xlink">
    <g id="Notes" font-family="'LucidaGrande', 'Lucida Grande', sans-serif" font-size="13">
        <rect fill="white" height="600.0" width="800.0" x="0.0" y="0.0" />
        <g font-size="13">
            <text x="18.0" y="176.0">Small</text>
            <text x="18.0" y="376.0">Medium</text>
            <text x="18.0" y="576.0">Large</text>
        </g>
        <g font-size="9">
            <text x="250.0" y="30.0">Ultralight</text>
            <text x="450.0" y="30.0">Regular</text>
            <text x="650.0" y="30.0">Black</text>
            <text id="template-version" fill="#505050" text-anchor="end" x="785.0" y="575.0">Template v.3.0</text>
            <a href="https://github.com/swhitty/SwiftDraw">
                <text fill="#505050" text-anchor="end" x="785.0" y="590.0">https://github.com/swhitty/SwiftDraw</text>
            </a>
        </g>
    </g>
    <g id="Guides" stroke="rgb(39, 170, 225)" stroke-width="0.5">
        <path id="Capline-S" d="M18,76 l800,0" />
        <path id="H-reference" d="M85,145.755 L87.685,145.755 L113.369,79.287 L114.052,79.287 L114.052,76 L112.148,76 L85,145.755 Z M95.693,121.536 L130.996,121.536 L130.263,119.313 L96.474,119.313 L95.693,121.536 Z M139.15,145.755 L141.787,145.755 L114.638,76 L113.466,76 L113.466,79.287 L139.15,145.755 Z" stroke="none" />
        <path id="Baseline-S" d="M18,146 l800,0" />
        <path id="left-margin-Ultralight-S" d="M220,56 l0,110" />
        <path id="right-margin-Ultralight-S" d="M310,56 l0,110" />
        <path id="left-margin-Regular-S" d="M420,56 l0,110" />
        <path id="right-margin-Regular-S" d="M510,56 l0,110" />
        <path id="left-margin-Black-S" d="M620,56 l0,110" />
        <path id="right-margin-Black-S" d="M710,56 l0,110" />
        <path id="Capline-M" d="M18,276 l800,0" />
        <path id="Baseline-M" d="M18,346 l800,0" />
        <path id="Capline-L" d="M18,476 l800,0" />
        <path id="Baseline-L" d="M18,546 l800,0" />
    </g>
    <g id="Symbols">
        <g id="Ultralight-S">
            <path d="M245.465,76 L232.442,76 C231.093,76 230,77.093 230,78.442 L230,91.465 C230,92.814 231.093,93.907 232.442,93.907 L245.465,93.907 C246.814,93.907 247.907,92.814 247.907,91.465 L247.907,78.442 C247.907,77.093 246.814,76 245.465,76 Z M245.465,80.884 L243.023,78.442 L243.023,91.465 L245.465,89.023 L232.442,89.023 L234.884,91.465 L234.884,78.442 L232.442,80.884 L245.465,80.884 Z" />
            <path d="M297.558,128.093 L284.535,128.093 C283.186,128.093 282.093,129.186 282.093,130.535 L282.093,143.558 C282.093,144.907 283.186,146 284.535,146 L297.558,146 C298.907,146 300,144.907 300,143.558 L300,130.535 C300,129.186 298.907,128.093 297.558,128.093 Z M297.558,132.977 L295.116,130.535 L295.116,143.558 L297.558,141.116 L284.535,141.116 L286.977,143.558 L286.977,130.535 L284.535,132.977 L297.558,132.977 Z" />
            <path d="M245.465,128.093 L232.442,128.093 C231.093,128.093 230,129.186 230,130.535 L230,143.558 C230,144.907 231.093,146 232.442,146 L245.465,146 C246.814,146 247.907,144.907 247.907,143.558 L247.907,130.535 C247.907,129.186 246.814,128.093 245.465,128.093 Z M245.465,132.977 L243.023,130.535 L243.023,143.558 L245.465,141.116 L232.442,141.116 L234.884,143.558 L234.884,130.535 L232.442,132.977 L245.465,132.977 Z" />
            <path d="M297.558,76 L284.535,76 C283.186,76 282.093,77.093 282.093,78.442 L282.093,91.465 C282.093,92.814 283.186,93.907 284.535,93.907 L297.558,93.907 C298.907,93.907 300,92.814 300,91.465 L300,78.442 C300,77.093 298.907,76 297.558,76 Z M297.558,80.884 L295.116,78.442 L295.116,91.465 L297.558,89.023 L284.535,89.023 L286.977,91.465 L286.977,78.442 L284.535,80.884 L297.558,80.884 Z" />
            <path d="M241.395,130.535 L241.395,91.465 C241.395,90.117 240.302,89.023 238.953,89.023 C237.605,89.023 236.512,90.117 236.512,91.465 L236.512,130.535 C236.512,131.883 237.605,132.977 238.953,132.977 C240.302,132.977 241.395,131.883 241.395,130.535 Z" />
            <path d="M293.488,130.535 L293.488,91.465 C293.488,90.117 292.395,89.023 291.047,89.023 C289.698,89.023 288.605,90.117 288.605,91.465 L288.605,130.535 C288.605,131.883 289.698,132.977 291.047,132.977 C292.395,132.977 293.488,131.883 293.488,130.535 Z" />
            <path d="M245.465,87.395 L284.535,87.395 C285.883,87.395 286.977,86.302 286.977,84.953 C286.977,83.605 285.883,82.512 284.535,82.512 L245.465,82.512 C244.117,82.512 243.023,83.605 243.023,84.953 C243.023,86.302 244.117,87.395 245.465,87.395 Z" />
            <path d="M245.465,139.488 L284.535,139.488 C285.883,139.488 286.977,138.395 286.977,137.047 C286.977,135.698 285.883,134.605 284.535,134.605 L245.465,134.605 C244.117,134.605 243.023,135.698 243.023,137.047 C243.023,138.395 244.117,139.488 245.465,139.488 Z" />
        </g>
        <g id="Regular-S">
            <path d="M445.465,76 L432.442,76 C431.093,76 430,77.093 430,78.442 L430,91.465 C430,92.814 431.093,93.907 432.442,93.907 L445.465,93.907 C446.814,93.907 447.907,92.814 447.907,91.465 L447.907,78.442 C447.907,77.093 446.814,76 445.465,76 Z M445.465,80.884 L443.023,78.442 L443.023,91.465 L445.465,89.023 L432.442,89.023 L434.884,91.465 L434.884,78.442 L432.442,80.884 L445.465,80.884 Z" />
            <path d="M497.558,128.093 L484.535,128.093 C483.186,128.093 482.093,129.186 482.093,130.535 L482.093,143.558 C482.093,144.907 483.186,146 484.535,146 L497.558,146 C498.907,146 500,144.907 500,143.558 L500,130.535 C500,129.186 498.907,128.093 497.558,128.093 Z M497.558,132.977 L495.116,130.535 L495.116,143.558 L497.558,141.116 L484.535,141.116 L486.977,143.558 L486.977,130.535 L484.535,132.977 L497.558,132.977 Z" />
            <path d="M445.465,128.093 L432.442,128.093 C431.093,128.093 430,129.186 430,130.535 L430,143.558 C430,144.907 431.093,146 432.442,146 L445.465,146 C446.814,146 447.907,144.907 447.907,143.558 L447.907,130.535 C447.907,129.186 446.814,128.093 445.465,128.093 Z M445.465,132.977 L443.023,130.535 L443.023,143.558 L445.465,141.116 L432.442,141.116 L434.884,143.558 L434.884,130.535 L432.442,132.977 L445.465,132.977 Z" />
            <path d="M497.558,76 L484.535,76 C483.186,76 482.093,77.093 482.093,78.442 L482.093,91.465 C482.093,92.814 483.186,93.907 484.535,93.907 L497.558,93.907 C498.907,93.907 500,92.814 500,91.465 L500,78.442 C500,77.093 498.907,76 497.558,76 Z M497.558,80.884 L495.116,78.442 L495.116,91.465 L497.558,89.023 L484.535,89.023 L486.977,91.465 L486.977,78.442 L484.535,80.884 L497.558,80.884 Z" />
            <path d="M441.395,130.535 L441.395,91.465 C441.395,90.117 440.302,89.023 438.953,89.023 C437.605,89.023 436.512,90.117 436.512,91.465 L436.512,130.535 C436.512,131.883 437.605,132.977 438.953,132.977 C440.302,132.977 441.395,131.883 441.395,130.535 Z" />
            <path d="M493.488,130.535 L493.488,91.465 C493.488,90.117 492.395,89.023 491.047,89.023 C489.698,89.023 488.605,90.117 488.605,91.465 L488.605,130.535 C488.605,131.883 489.698,132.977 491.047,132.977 C492.395,132.977 493.488,131.883 493.488,130.535 Z" />
            <path d="M445.465,87.395 L484.535,87.395 C485.883,87.395 486.977,86.302 486.977,84.953 C486.977,83.605 485.883,82.512 484.535,82.512 L445.465,82.512 C444.117,82.512 443.023,83.605 443.023,84.953 C443.023,86.302 444.117,87.395 445.465,87.395 Z" />
            <path d="M445.465,139.488 L484.535,139.488 C485.883,139.488 486.977,138.395 486.977,137.047 C486.977,135.698 485.883,134.605 484.535,134.605 L445.465,134.605 C444.117,134.605 443.023,135.698 443.023,137.047 C443.023,138.395 444.117,139.488 445.465,139.488 Z" />
        </g>
        <g id="Black-S">
            <path d="M645.465,76 L632.442,76 C631.093,76 630,77.093 630,78.442 L630,91.465 C630,92.814 631.093,93.907 632.442,93.907 L645.465,93.907 C646.814,93.907 647.907,92.814 647.907,91.465 L647.907,78.442 C647.907,77.093 646.814,76 645.465,76 Z M645.465,80.884 L643.023,78.442 L643.023,91.465 L645.465,89.023 L632.442,89.023 L634.884,91.465 L634.884,78.442 L632.442,80.884 L645.465,80.884 Z" />
            <path d="M697.558,128.093 L684.535,128.093 C683.186,128.093 682.093,129.186 682.093,130.535 L682.093,143.558 C682.093,144.907 683.186,146 684.535,146 L697.558,146 C698.907,146 700,144.907 700,143.558 L700,130.535 C700,129.186 698.907,128.093 697.558,128.093 Z M697.558,132.977 L695.116,130.535 L695.116,143.558 L697.558,141.116 L684.535,141.116 L686.977,143.558 L686.977,130.535 L684.535,132.977 L697.558,132.977 Z" />
            <path d="M645.465,128.093 L632.442,128.093 C631.093,128.093 630,129.186 630,130.535 L630,143.558 C630,144.907 631.093,146 632.442,146 L645.465,146 C646.814,146 647.907,144.907 647.907,143.558 L647.907,130.535 C647.907,129.186 646.814,128.093 645.465,128.093 Z M645.465,132.977 L643.023,130.535 L643.023,143.558 L645.465,141.116 L632.442,141.116 L634.884,143.558 L634.884,130.535 L632.442,132.977 L645.465,132.977 Z" />
            <path d="M697.558,76 L684.535,76 C683.186,76 682.093,77.093 682.093,78.442 L682.093,91.465 C682.093,92.814 683.186,93.907 684.535,93.907 L697.558,93.907 C698.907,93.907 700,92.814 700,91.465 L700,78.442 C700,77.093 698.907,76 697.558,76 Z M697.558,80.884 L695.116,78.442 L695.116,91.465 L697.558,89.023 L684.535,89.023 L686.977,91.465 L686.977,78.442 L684.535,80.884 L697.558,80.884 Z" />
            <path d="M641.395,130.535 L641.395,91.465 C641.395,90.117 640.302,89.023 638.953,89.023 C637.605,89.023 636.512,90.117 636.512,91.465 L636.512,130.535 C636.512,131.883 637.605,132.977 638.953,132.977 C640.302,132.977 641.395,131.883 641.395,130.535 Z" />
            <path d="M693.488,130.535 L693.488,91.465 C693.488,90.117 692.395,89.023 691.047,89.023 C689.698,89.023 688.605,90.117 688.605,91.465 L688.605,130.535 C688.605,131.883 689.698,132.977 691.047,132.977 C692.395,132.977 693.488,131.883 693.488,130.535 Z" />
            <path d="M645.465,87.395 L684.535,87.395 C685.883,87.395 686.977,86.302 686.977,84.953 C686.977,83.605 685.883,82.512 684.535,82.512 L645.465,82.512 C644.117,82.512 643.023,83.605 643.023,84.953 C643.023,86.302 644.117,87.395 645.465,87.395 Z" />
            <path d="M645.465,139.488 L684.535,139.488 C685.883,139.488 686.977,138.395 686.977,137.047 C686.977,135.698 685.883,134.605 684.535,134.605 L645.465,134.605 C644.117,134.605 643.023,135.698 643.023,137.047 C643.023,138.395 644.117,139.488 645.465,139.488 Z" />
        </g>
    </g>
</svg>