<?xml version="1.0" encoding="UTF-8"?>
<svg height="600" width="800" xmlns="http://www.w3.org/2000/svg" xmlns:xlink="http://www.w3.org/1999/xlink">
    <g id="Notes" font-family="'LucidaGrande', 'Lucida Grande', sans-serif" font-size="13">
        <rect fill="white" height="600.0" width="800.0" x="0.0" y="0.0" />
        <g font-size="13">
            <text x="18.0" y="176.0">Small</text>
            <text x="18.0" y="376.0">Medium</text>
            <text x="18.0" y="576.0">Large</text>
        </g>
        <g font-size="9">
            <text x="250.0" y="30.0">Ultralight</text>
            <text x="450.0" y="30.0">Regular</text>
            <text x="650.0" y="30.0">Black</text>
            <text id="template-version" fill="#505050" text-anchor="end" x="785.0" y="575.0">Template v.3.0</text>
            <a href="https://github.com/swhitty/SwiftDraw">
                <text fill="#505050" text-anchor="end" x="785.0" y="590.0">https://github.com/swhitty/SwiftDraw</text>
            </a>
        </g>
    </g>
    <g id="Guides" stroke="rgb(39, 170, 225)" stroke-width="0.5">
        <path id="Capline-S" d="M18,76 l800,0" />
        <path id="H-reference" d="M85,145.755 L87.685,145.755 L113.369,79.287 L114.052,79.287 L114.052,76 L112.148,76 L85,145.755 Z M95.693,121.536 L130.996,121.536 L130.263,119.313 L96.474,119.313 L95.693,121.536 Z M139.15,145.755 L141.787,145.755 L114.638,76 L113.466,76 L113.466,79.287 L139.15,145.755 Z" stroke="none" />
        <path id="Baseline-S" d="M18,146 l800,0" />
        <path id="left-margin-Ultralight-S" d="M221,56 l0,110" />
        <path id="right-margin-Ultralight-S" d="M309,56 l0,110" />
        <path id="left-margin-Regular-S" d="M421,56 l0,110" />
        <path id="right-margin-Regular-S" d="M509,56 l0,110" />
        <path id="left-margin-Black-S" d="M621,56 l0,110" />
        <path id="right-margin-Black-S" d="M709,56 l0,110" />
        <path id="Capline-M" d="M18,276 l800,0" />
        <path id="Baseline-M" d="M18,346 l800,0" />
        <path id="Capline-L" d="M18,476 l800,0" />
        <path id="Baseline-L" d="M18,546 l800,0" />
    </g>
    <g id="Symbols">
        <g id="Ultralight-S">
            <path d="M291.86,109.372 L291.86,94.721 C291.86,94.118 291.637,93.536 291.234,93.087 L276.582,76.808 C276.119,76.294 275.46,76 274.767,76 L240.581,76 C237.435,76 234.884,78.551 234.884,81.698 L234.884,140.302 C234.884,143.449 237.435,146 240.581,146 L260.116,146 C261.465,146 262.558,144.907 262.558,143.558 C262.558,142.21 261.465,141.116 260.116,141.116 L240.581,141.116 C240.132,141.116 239.767,140.752 239.767,140.302 L239.767,81.698 C239.767,81.248 240.132,80.884 240.581,80.884 L274.767,80.884 L272.952,80.075 L287.604,96.354 L286.977,94.721 L286.977,109.372 C286.977,110.721 288.07,111.814 289.419,111.814 C290.767,111.814 291.86,110.721 291.86,109.372 Z" />
            <path d="M273.041,123.925 L264.901,132.064 C263.948,133.018 263.948,134.564 264.901,135.517 L273.041,143.657 C273.994,144.611 275.54,144.611 276.494,143.657 C277.448,142.703 277.448,141.157 276.494,140.204 L268.355,132.064 L268.355,135.517 L276.494,127.378 C277.448,126.424 277.448,124.878 276.494,123.925 C275.54,122.971 273.994,122.971 273.041,123.925 Z" />
            <path d="M266.628,136.233 L292.674,136.233 C294.023,136.233 295.116,135.139 295.116,133.791 L295.116,120.767 C295.116,119.419 294.023,118.326 292.674,118.326 C291.326,118.326 290.233,119.419 290.233,120.767 L290.233,133.791 L292.674,131.349 L266.628,131.349 C265.279,131.349 264.186,132.442 264.186,133.791 C264.186,135.139 265.279,136.233 266.628,136.233 Z" />
            <path d="M270.698,78.442 L270.698,94.721 C270.698,96.07 271.791,97.163 273.14,97.163 L289.419,97.163 C290.767,97.163 291.86,96.07 291.86,94.721 C291.86,93.372 290.767,92.279 289.419,92.279 L273.14,92.279 L275.581,94.721 L275.581,78.442 C275.581,77.093 274.488,76 273.14,76 C271.791,76 270.698,77.093 270.698,78.442 Z" />
        </g>
        <g id="Regular-S">
            <path d="M491.86,109.372 L491.86,94.721 C491.86,94.118 491.637,93.536 491.234,93.087 L476.582,76.808 C476.119,76.294 475.46,76 474.767,76 L440.581,76 C437.435,76 434.884,78.551 434.884,81.698 L434.884,140.302 C434.884,143.449 437.435,146 440.581,146 L460.116,146 C461.465,146 462.558,144.907 462.558,143.558 C462.558,142.21 461.465,141.116 460.116,141.116 L440.581,141.116 C440.132,141.116 439.767,140.752 439.767,140.302 L439.767,81.698 C439.767,81.248 440.132,80.884 440.581,80.884 L474.767,80.884 L472.952,80.075 L487.604,96.354 L486.977,94.721 L486.977,109.372 C486.977,110.721 488.07,111.814 489.419,111.814 C490.767,111.814 491.86,110.721 491.86,109.372 Z" />
            <path d="M473.041,123.925 L464.901,132.064 C463.948,133.018 463.948,134.564 464.901,135.517 L473.041,143.657 C473.994,144.611 475.54,144.611 476.494,143.657 C477.448,142.703 477.448,141.157 476.494,140.204 L468.355,132.064 L468.355,135.517 L476.494,127.378 C477.448,126.424 477.448,124.878 476.494,123.925 C475.54,122.971 473.994,122.971 473.041,123.925 Z" />
            <path d="M466.628,136.233 L492.674,136.233 C494.023,136.233 495.116,135.139 495.116,133.791 L495.116,120.767 C495.116,119.419 494.023,118.326 492.674,118.326 C491.326,118.326 490.233,119.419 490.233,120.767 L490.233,133.791 L492.674,131.349 L466.628,131.349 C465.279,131.349 464.186,132.442 464.186,133.791 C464.186,135.139 465.279,136.233 466.628,136.233 Z" />
            <path d="M470.698,78.442 L470.698,94.721 C470.698,96.07 471.791,97.163 473.14,97.163 L489.419,97.163 C490.767,97.163 491.86,96.07 491.86,94.721 C491.86,93.372 490.767,92.279 489.419,92.279 L473.14,92.279 L475.581,94.721 L475.581,78.442 C475.581,77.093 474.488,76 473.14,76 C471.791,76 470.698,77.093 470.698,78.442 Z" />
        </g>
        <g id="Black-S">
            <path d="M691.86,109.372 L691.86,94.721 C691.86,94.118 691.637,93.536 691.234,93.087 L676.582,76.808 C676.119,76.294 675.46,76 674.767,76 L640.581,76 C637.435,76 634.884,78.551 634.884,81.698 L634.884,140.302 C634.884,143.449 637.435,146 640.581,146 L660.116,146 C661.465,146 662.558,144.907 662.558,143.558 C662.558,142.21 661.465,141.116 660.116,141.116 L640.581,141.116 C640.132,141.116 639.767,140.752 639.767,140.302 L639.767,81.698 C639.767,81.248 640.132,80.884 640.581,80.884 L674.767,80.884 L672.952,80.075 L687.604,96.354 L686.977,94.721 L686.977,109.372 C686.977,110.721 688.07,111.814 689.419,111.814 C690.767,111.814 691.86,110.721 691.86,109.372 Z" />
            <path d="M673.041,123.925 L664.901,132.064 C663.948,133.018 663.948,134.564 664.901,135.517 L673.041,143.657 C673.994,144.611 675.54,144.611 676.494,143.657 C677.448,142.703 677.448,141.157 676.494,140.204 L668.355,132.064 L668.355,135.517 L676.494,127.378 C677.448,126.424 677.448,124.878 676.494,123.925 C675.54,122.971 673.994,122.971 673.041,123.925 Z" />
            <path d="M666.628,136.233 L692.674,136.233 C694.023,136.233 695.116,135.139 695.116,133.791 L695.116,120.767 C695.116,119.419 694.023,118.326 692.674,118.326 C691.326,118.326 690.233,119.419 690.233,120.767 L690.233,133.791 L692.674,131.349 L666.628,131.349 C665.279,131.349 664.186,132.442 664.186,133.791 C664.186,135.139 665.279,136.233 666.628,136.233 Z" />
            <path d="M670.698,78.442 L670.698,94.721 C670.698,96.07 671.791,97.163 673.14,97.163 L689.419,97.163 C690.767,97.163 691.86,96.07 691.86,94.721 C691.86,93.372 690.767,92.279 689.419,92.279 L673.14,92.279 L675.581,94.721 L675.581,78.442 C675.581,77.093 674.488,76 673.14,76 C671.791,76 670.698,77.093 670.698,78.442 Z" />
        </g>
    </g>
</svg>