<?xml version="1.0" encoding="UTF-8"?>
<svg height="600" width="800" xmlns="http://www.w3.org/2000/svg" xmlns:xlink="http://www.w3.org/1999/xlink">
    <g id="Notes" font-family="'LucidaGrande', 'Lucida Grande', sans-serif" font-size="13">
        <rect fill="white" height="600.0" width="800.0" x="0.0" y="0.0" />
        <g font-size="13">
            <text x="18.0" y="176.0">Small</text>
            <text x="18.0" y="376.0">Medium</text>
            <text x="18.0" y="576.0">Large</text>
        </g>
        <g font-size="9">
            <text x="250.0" y="30.0">Ultralight</text>
            <text x="450.0" y="30.0">Regular</text>
            <text x="650.0" y="30.0">Black</text>
            <text id="template-version" fill="#505050" text-anchor="end" x="785.0" y="575.0">Template v.3.0</text>
            <a href="https://github.com/swhitty/SwiftDraw">
                <text fill="#505050" text-anchor="end" x="785.0" y="590.0">https://github.com/swhitty/SwiftDraw</text>
            </a>
        </g>
    </g>
    <g id="Guides" stroke="rgb(39, 170, 225)" stroke-width="0.5">
        <path id="Capline-S" d="M18,76 l800,0" />
        <path id="H-reference" d="M85,145.755 L87.685,145.755 L113.369,79.287 L114.052,79.287 L114.052,76 L112.148,76 L85,145.755 Z M95.693,121.536 L130.996,121.536 L130.263,119.313 L96.474,119.313 L95.693,121.536 Z M139.15,145.755 L141.787,145.755 L114.638,76 L113.466,76 L113.466,79.287 L139.15,145.755 Z" stroke="none" />
        <path id="Baseline-S" d="M18,146 l800,0" />
        <path id="left-margin-Ultralight-S" d="M216.41,56 l0,110" />
        <path id="right-margin-Ultralight-S" d="M313.59,56 l0,110" />
        <path id="left-margin-Regular-S" d="M416.41,56 l0,110" />
        <path id="right-margin-Regular-S" d="M513.59,56 l0,110" />
        <path id="left-margin-Black-S" d="M616.41,56 l0,110" />
        <path id="right-margin-Black-S" d="M713.59,56 l0,110" />
        <path id="Capline-M" d="M18,276 l800,0" />
        <path id="Baseline-M" d="M18,346 l800,0" />
        <path id="Capline-L" d="M18,476 l800,0" />
        <path id="Baseline-L" d="M18,546 l800,0" />
    </g>
    <g id="Symbols">
        <g id="Ultralight-S">
            <path d="M297.308,76 L232.692,76 C229.223,76 226.41,78.813 226.41,82.282 L226.41,139.718 C226.41,143.187 229.223,146 232.692,146 L297.308,146 C300.777,146 303.59,143.187 303.59,139.718 L303.59,82.282 C303.59,78.813 300.777,76 297.308,76 Z M297.308,81.385 C297.803,81.385 298.205,81.786 298.205,82.282 L298.205,139.718 C298.205,140.214 297.803,140.615 297.308,140.615 L232.692,140.615 C232.197,140.615 231.795,140.214 231.795,139.718 L231.795,82.282 C231.795,81.786 232.197,81.385 232.692,81.385 L297.308,81.385 Z" />
            <path d="M229.103,102.923 L300.897,102.923 C302.384,102.923 303.59,101.718 303.59,100.231 C303.59,98.744 302.384,97.538 300.897,97.538 L229.103,97.538 C227.616,97.538 226.41,98.744 226.41,100.231 C226.41,101.718 227.616,102.923 229.103,102.923 Z" />
            <path d="M250.641,100.231 L250.641,143.308 C250.641,144.795 251.846,146 253.333,146 C254.82,146 256.026,144.795 256.026,143.308 L256.026,100.231 C256.026,98.744 254.82,97.538 253.333,97.538 C251.846,97.538 250.641,98.744 250.641,100.231 Z" />
            <path d="M273.974,100.231 L273.974,143.308 C273.974,144.795 275.18,146 276.667,146 C278.154,146 279.359,144.795 279.359,143.308 L279.359,100.231 C279.359,98.744 278.154,97.538 276.667,97.538 C275.18,97.538 273.974,98.744 273.974,100.231 Z" />
            <path d="M229.103,124.462 L300.897,124.462 C302.384,124.462 303.59,123.256 303.59,121.769 C303.59,120.282 302.384,119.077 300.897,119.077 L229.103,119.077 C227.616,119.077 226.41,120.282 226.41,121.769 C226.41,123.256 227.616,124.462 229.103,124.462 Z" />
            <path d="M298.205,82.282 L298.205,139.718 C298.205,140.214 297.803,140.615 297.308,140.615 L232.692,140.615 C232.197,140.615 231.795,140.214 231.795,139.718 L231.795,82.282 C231.795,80.795 230.589,79.59 229.103,79.59 C227.616,79.59 226.41,80.795 226.41,82.282 L226.41,139.718 C226.41,143.187 229.223,146 232.692,146 L297.308,146 C300.777,146 303.59,143.187 303.59,139.718 L303.59,82.282 C303.59,80.795 302.384,79.59 300.897,79.59 C299.411,79.59 298.205,80.795 298.205,82.282 Z" />
        </g>
        <g id="Regular-S">
            <path d="M497.308,76 L432.692,76 C429.223,76 426.41,78.813 426.41,82.282 L426.41,139.718 C426.41,143.187 429.223,146 432.692,146 L497.308,146 C500.777,146 503.59,143.187 503.59,139.718 L503.59,82.282 C503.59,78.813 500.777,76 497.308,76 Z M497.308,81.385 C497.803,81.385 498.205,81.786 498.205,82.282 L498.205,139.718 C498.205,140.214 497.803,140.615 497.308,140.615 L432.692,140.615 C432.197,140.615 431.795,140.214 431.795,139.718 L431.795,82.282 C431.795,81.786 432.197,81.385 432.692,81.385 L497.308,81.385 Z" />
            <path d="M429.103,102.923 L500.897,102.923 C502.384,102.923 503.59,101.718 503.59,100.231 C503.59,98.744 502.384,97.538 500.897,97.538 L429.103,97.538 C427.616,97.538 426.41,98.744 426.41,100.231 C426.41,101.718 427.616,102.923 429.103,102.923 Z" />
            <path d="M450.641,100.231 L450.641,143.308 C450.641,144.795 451.846,146 453.333,146 C454.82,146 456.026,144.795 456.026,143.308 L456.026,100.231 C456.026,98.744 454.82,97.538 453.333,97.538 C451.846,97.538 450.641,98.744 450.641,100.231 Z" />
            <path d="M473.974,100.231 L473.974,143.308 C473.974,144.795 475.18,146 476.667,146 C478.154,146 479.359,144.795 479.359,143.308 L479.359,100.231 C479.359,98.744 478.154,97.538 476.667,97.538 C475.18,97.538 473.974,98.744 473.974,100.231 Z" />
            <path d="M429.103,124.462 L500.897,124.462 C502.384,124.462 503.59,123.256 503.59,121.769 C503.59,120.282 502.384,119.077 500.897,119.077 L429.103,119.077 C427.616,119.077 426.41,120.282 426.41,121.769 C426.41,123.256 427.616,124.462 429.103,124.462 Z" />
            <path d="M498.205,82.282 L498.205,139.718 C498.205,140.214 497.803,140.615 497.308,140.615 L432.692,140.615 C432.197,140.615 431.795,140.214 431.795,139.718 L431.795,82.282 C431.795,80.795 430.589,79.59 429.103,79.59 C427.616,79.59 426.41,80.795 426.41,82.282 L426.41,139.718 C426.41,143.187 429.223,146 432.692,146 L497.308,146 C500.777,146 503.59,143.187 503.59,139.718 L503.59,82.282 C503.59,80.795 502.384,79.59 500.897,79.59 C499.411,79.59 498.205,80.795 498.205,82.282 Z" />
        </g>
        <g id="Black-S">
            <path d="M697.308,76 L632.692,76 C629.223,76 626.41,78.813 626.41,82.282 L626.41,139.718 C626.41,143.187 629.223,146 632.692,146 L697.308,146 C700.777,146 703.59,143.187 703.59,139.718 L703.59,82.282 C703.59,78.813 700.777,76 697.308,76 Z M697.308,81.385 C697.803,81.385 698.205,81.786 698.205,82.282 L698.205,139.718 C698.205,140.214 697.803,140.615 697.308,140.615 L632.692,140.615 C632.197,140.615 631.795,140.214 631.795,139.718 L631.795,82.282 C631.795,81.786 632.197,81.385 632.692,81.385 L697.308,81.385 Z" />
            <path d="M629.103,102.923 L700.897,102.923 C702.384,102.923 703.59,101.718 703.59,100.231 C703.59,98.744 702.384,97.538 700.897,97.538 L629.103,97.538 C627.616,97.538 626.41,98.744 626.41,100.231 C626.41,101.718 627.616,102.923 629.103,102.923 Z" />
            <path d="M650.641,100.231 L650.641,143.308 C650.641,144.795 651.846,146 653.333,146 C654.82,146 656.026,144.795 656.026,143.308 L656.026,100.231 C656.026,98.744 654.82,97.538 653.333,97.538 C651.846,97.538 650.641,98.744 650.641,100.231 Z" />
            <path d="M673.974,100.231 L673.974,143.308 C673.974,144.795 675.18,146 676.667,146 C678.154,146 679.359,144.795 679.359,143.308 L679.359,100.231 C679.359,98.744 678.154,97.538 676.667,97.538 C675.18,97.538 673.974,98.744 673.974,100.231 Z" />
            <path d="M629.103,124.462 L700.897,124.462 C702.384,124.462 703.59,123.256 703.59,121.769 C703.59,120.282 702.384,119.077 700.897,119.077 L629.103,119.077 C627.616,119.077 626.41,120.282 626.41,121.769 C626.41,123.256 627.616,124.462 629.103,124.462 Z" />
            <path d="M698.205,82.282 L698.205,139.718 C698.205,140.214 697.803,140.615 697.308,140.615 L632.692,140.615 C632.197,140.615 631.795,140.214 631.795,139.718 L631.795,82.282 C631.795,80.795 630.589,79.59 629.103,79.59 C627.616,79.59 626.41,80.795 626.41,82.282 L626.41,139.718 C626.41,143.187 629.223,146 632.692,146 L697.308,146 C700.777,146 703.59,143.187 703.59,139.718 L703.59,82.282 C703.59,80.795 702.384,79.59 700.897,79.59 C699.411,79.59 698.205,80.795 698.205,82.282 Z" />
        </g>
    </g>
</svg>