<?xml version="1.0" encoding="UTF-8"?>
<svg height="600" width="800" xmlns="http://www.w3.org/2000/svg" xmlns:xlink="http://www.w3.org/1999/xlink">
    <g id="Notes" font-family="'LucidaGrande', 'Lucida Grande', sans-serif" font-size="13">
        <rect fill="white" height="600.0" width="800.0" x="0.0" y="0.0" />
        <g font-size="13">
            <text x="18.0" y="176.0">Small</text>
            <text x="18.0" y="376.0">Medium</text>
            <text x="18.0" y="576.0">Large</text>
        </g>
        <g font-size="9">
            <text x="250.0" y="30.0">Ultralight</text>
            <text x="450.0" y="30.0">Regular</text>
            <text x="650.0" y="30.0">Black</text>
            <text id="template-version" fill="#505050" text-anchor="end" x="785.0" y="575.0">Template v.3.0</text>
            <a href="https://github.com/swhitty/SwiftDraw">
                <text fill="#505050" text-anchor="end" x="785.0" y="590.0">https://github.com/swhitty/SwiftDraw</text>
            </a>
        </g>
    </g>
    <g id="Guides" stroke="rgb(39, 170, 225)" stroke-width="0.5">
        <path id="Capline-S" d="M18,76 l800,0" />
        <path id="H-reference" d="M85,145.755 L87.685,145.755 L113.369,79.287 L114.052,79.287 L114.052,76 L112.148,76 L85,145.755 Z M95.693,121.536 L130.996,121.536 L130.263,119.313 L96.474,119.313 L95.693,121.536 Z M139.15,145.755 L141.787,145.755 L114.638,76 L113.466,76 L113.466,79.287 L139.15,145.755 Z" stroke="none" />
        <path id="Baseline-S" d="M18,146 l800,0" />
        <path id="left-margin-Ultralight-S" d="M221,56 l0,110" />
        <path id="right-margin-Ultralight-S" d="M309,56 l0,110" />
        <path id="left-margin-Regular-S" d="M421,56 l0,110" />
        <path id="right-margin-Regular-S" d="M509,56 l0,110" />
        <path id="left-margin-Black-S" d="M621,56 l0,110" />
        <path id="right-margin-Black-S" d="M709,56 l0,110" />
        <path id="Capline-M" d="M18,276 l800,0" />
        <path id="Baseline-M" d="M18,346 l800,0" />
        <path id="Capline-L" d="M18,476 l800,0" />
        <path id="Baseline-L" d="M18,546 l800,0" />
    </g>
    <g id="Symbols">
        <g id="Ultralight-S">
            <path d="M257.674,143.558 L257.674,107.744 C257.674,103.698 260.954,100.419 265,100.419 C269.046,100.419 272.326,103.698 272.326,107.744 L272.326,143.558 C272.326,144.907 273.419,146 274.767,146 C276.116,146 277.209,144.907 277.209,143.558 L277.209,107.744 C277.209,101.001 271.743,95.535 265,95.535 C258.257,95.535 252.791,101.001 252.791,107.744 L252.791,143.558 C252.791,144.907 253.884,146 255.233,146 C256.581,146 257.674,144.907 257.674,143.558 Z" />
            <path d="M247.907,143.558 L247.907,107.744 C247.907,98.304 255.56,90.651 265,90.651 C274.44,90.651 282.093,98.304 282.093,107.744 L282.093,143.558 C282.093,144.907 283.186,146 284.535,146 C285.883,146 286.977,144.907 286.977,143.558 L286.977,107.744 C286.977,95.607 277.137,85.767 265,85.767 C252.863,85.767 243.023,95.607 243.023,107.744 L243.023,143.558 C243.023,144.907 244.117,146 245.465,146 C246.814,146 247.907,144.907 247.907,143.558 Z" />
            <path d="M238.14,143.558 L238.14,107.744 C238.14,92.91 250.165,80.884 265,80.884 C279.835,80.884 291.86,92.91 291.86,107.744 L291.86,143.558 C291.86,144.907 292.954,146 294.302,146 C295.651,146 296.744,144.907 296.744,143.558 L296.744,107.744 C296.744,90.212 282.532,76 265,76 C247.468,76 233.256,90.212 233.256,107.744 L233.256,143.558 C233.256,144.907 234.349,146 235.698,146 C237.046,146 238.14,144.907 238.14,143.558 Z" />
            <path d="M267.442,143.558 L267.442,107.744 C267.442,106.396 266.349,105.302 265,105.302 C263.651,105.302 262.558,106.396 262.558,107.744 L262.558,143.558 C262.558,144.907 263.651,146 265,146 C266.349,146 267.442,144.907 267.442,143.558 Z" />
        </g>
        <g id="Regular-S">
            <path d="M457.674,143.558 L457.674,107.744 C457.674,103.698 460.954,100.419 465,100.419 C469.046,100.419 472.326,103.698 472.326,107.744 L472.326,143.558 C472.326,144.907 473.419,146 474.767,146 C476.116,146 477.209,144.907 477.209,143.558 L477.209,107.744 C477.209,101.001 471.743,95.535 465,95.535 C458.257,95.535 452.791,101.001 452.791,107.744 L452.791,143.558 C452.791,144.907 453.884,146 455.233,146 C456.581,146 457.674,144.907 457.674,143.558 Z" />
            <path d="M447.907,143.558 L447.907,107.744 C447.907,98.304 455.56,90.651 465,90.651 C474.44,90.651 482.093,98.304 482.093,107.744 L482.093,143.558 C482.093,144.907 483.186,146 484.535,146 C485.883,146 486.977,144.907 486.977,143.558 L486.977,107.744 C486.977,95.607 477.137,85.767 465,85.767 C452.863,85.767 443.023,95.607 443.023,107.744 L443.023,143.558 C443.023,144.907 444.117,146 445.465,146 C446.814,146 447.907,144.907 447.907,143.558 Z" />
            <path d="M438.14,143.558 L438.14,107.744 C438.14,92.91 450.165,80.884 465,80.884 C479.835,80.884 491.86,92.91 491.86,107.744 L491.86,143.558 C491.86,144.907 492.954,146 494.302,146 C495.651,146 496.744,144.907 496.744,143.558 L496.744,107.744 C496.744,90.212 482.532,76 465,76 C447.468,76 433.256,90.212 433.256,107.744 L433.256,143.558 C433.256,144.907 434.349,146 435.698,146 C437.046,146 438.14,144.907 438.14,143.558 Z" />
            <path d="M467.442,143.558 L467.442,107.744 C467.442,106.396 466.349,105.302 465,105.302 C463.651,105.302 462.558,106.396 462.558,107.744 L462.558,143.558 C462.558,144.907 463.651,146 465,146 C466.349,146 467.442,144.907 467.442,143.558 Z" />
        </g>
        <g id="Black-S">
            <path d="M657.674,143.558 L657.674,107.744 C657.674,103.698 660.954,100.419 665,100.419 C669.046,100.419 672.326,103.698 672.326,107.744 L672.326,143.558 C672.326,144.907 673.419,146 674.767,146 C676.116,146 677.209,144.907 677.209,143.558 L677.209,107.744 C677.209,101.001 671.743,95.535 665,95.535 C658.257,95.535 652.791,101.001 652.791,107.744 L652.791,143.558 C652.791,144.907 653.884,146 655.233,146 C656.581,146 657.674,144.907 657.674,143.558 Z" />
            <path d="M647.907,143.558 L647.907,107.744 C647.907,98.304 655.56,90.651 665,90.651 C674.44,90.651 682.093,98.304 682.093,107.744 L682.093,143.558 C682.093,144.907 683.186,146 684.535,146 C685.883,146 686.977,144.907 686.977,143.558 L686.977,107.744 C686.977,95.607 677.137,85.767 665,85.767 C652.863,85.767 643.023,95.607 643.023,107.744 L643.023,143.558 C643.023,144.907 644.117,146 645.465,146 C646.814,146 647.907,144.907 647.907,143.558 Z" />
            <path d="M638.14,143.558 L638.14,107.744 C638.14,92.91 650.165,80.884 665,80.884 C679.835,80.884 691.86,92.91 691.86,107.744 L691.86,143.558 C691.86,144.907 692.954,146 694.302,146 C695.651,146 696.744,144.907 696.744,143.558 L696.744,107.744 C696.744,90.212 682.532,76 665,76 C647.468,76 633.256,90.212 633.256,107.744 L633.256,143.558 C633.256,144.907 634.349,146 635.698,146 C637.046,146 638.14,144.907 638.14,143.558 Z" />
            <path d="M667.442,143.558 L667.442,107.744 C667.442,106.396 666.349,105.302 665,105.302 C663.651,105.302 662.558,106.396 662.558,107.744 L662.558,143.558 C662.558,144.907 663.651,146 665,146 C666.349,146 667.442,144.907 667.442,143.558 Z" />
        </g>
    </g>
</svg>