<?xml version="1.0" encoding="UTF-8"?>
<svg height="600" width="800" xmlns="http://www.w3.org/2000/svg" xmlns:xlink="http://www.w3.org/1999/xlink">
    <g id="Notes" font-family="'LucidaGrande', 'Lucida Grande', sans-serif" font-size="13">
        <rect fill="white" height="600.0" width="800.0" x="0.0" y="0.0" />
        <g font-size="13">
            <text x="18.0" y="176.0">Small</text>
            <text x="18.0" y="376.0">Medium</text>
            <text x="18.0" y="576.0">Large</text>
        </g>
        <g font-size="9">
            <text x="250.0" y="30.0">Ultralight</text>
            <text x="450.0" y="30.0">Regular</text>
            <text x="650.0" y="30.0">Black</text>
            <text id="template-version" fill="#505050" text-anchor="end" x="785.0" y="575.0">Template v.3.0</text>
            <a href="https://github.com/swhitty/SwiftDraw">
                <text fill="#505050" text-anchor="end" x="785.0" y="590.0">https://github.com/swhitty/SwiftDraw</text>
            </a>
        </g>
    </g>
    <g id="Guides" stroke="rgb(39, 170, 225)" stroke-width="0.5">
        <path id="Capline-S" d="M18,76 l800,0" />
        <path id="H-reference" d="M85,145.755 L87.685,145.755 L113.369,79.287 L114.052,79.287 L114.052,76 L112.148,76 L85,145.755 Z M95.693,121.536 L130.996,121.536 L130.263,119.313 L96.474,119.313 L95.693,121.536 Z M139.15,145.755 L141.787,145.755 L114.638,76 L113.466,76 L113.466,79.287 L139.15,145.755 Z" stroke="none" />
        <path id="Baseline-S" d="M18,146 l800,0" />
        <path id="left-margin-Ultralight-S" d="M211,56 l0,110" />
        <path id="right-margin-Ultralight-S" d="M319,56 l0,110" />
        <path id="left-margin-Regular-S" d="M411,56 l0,110" />
        <path id="right-margin-Regular-S" d="M519,56 l0,110" />
        <path id="left-margin-Black-S" d="M611,56 l0,110" />
        <path id="right-margin-Black-S" d="M719,56 l0,110" />
        <path id="Capline-M" d="M18,276 l800,0" />
        <path id="Baseline-M" d="M18,346 l800,0" />
        <path id="Capline-L" d="M18,476 l800,0" />
        <path id="Baseline-L" d="M18,546 l800,0" />
    </g>
    <g id="Symbols">
        <g id="Ultralight-S">
            <path d="M226.116,95.651 L303.884,95.651 C303.319,95.651 302.86,95.193 302.86,94.628 L302.86,139.651 C302.86,139.086 303.319,138.628 303.884,138.628 L277.279,138.628 L279.451,139.528 L267.189,127.252 C265.991,126.053 264.048,126.051 262.848,127.249 L250.552,139.525 L252.721,138.628 L226.116,138.628 C226.681,138.628 227.14,139.086 227.14,139.651 L227.14,94.628 C227.14,95.193 226.681,95.651 226.116,95.651 Z M226.116,89.512 C223.291,89.512 221,91.802 221,94.628 L221,139.651 C221,142.477 223.291,144.767 226.116,144.767 L252.721,144.767 C253.534,144.767 254.314,144.445 254.89,143.87 L267.186,131.594 L262.845,131.591 L275.107,143.867 C275.683,144.444 276.464,144.767 277.279,144.767 L303.884,144.767 C306.709,144.767 309,142.477 309,139.651 L309,94.628 C309,91.802 306.709,89.512 303.884,89.512 L226.116,89.512 Z" />
            <path d="M244.535,128.395 C250.751,128.395 255.791,123.356 255.791,117.14 C255.791,110.923 250.751,105.884 244.535,105.884 C238.319,105.884 233.279,110.923 233.279,117.14 C233.279,123.356 238.319,128.395 244.535,128.395 Z M244.535,122.256 C241.709,122.256 239.419,119.965 239.419,117.14 C239.419,114.314 241.709,112.023 244.535,112.023 C247.36,112.023 249.651,114.314 249.651,117.14 C249.651,119.965 247.36,122.256 244.535,122.256 Z" />
            <path d="M285.465,128.395 C291.681,128.395 296.721,123.356 296.721,117.14 C296.721,110.923 291.681,105.884 285.465,105.884 C279.249,105.884 274.209,110.923 274.209,117.14 C274.209,123.356 279.249,128.395 285.465,128.395 Z M285.465,122.256 C282.64,122.256 280.349,119.965 280.349,117.14 C280.349,114.314 282.64,112.023 285.465,112.023 C288.291,112.023 290.581,114.314 290.581,117.14 C290.581,119.965 288.291,122.256 285.465,122.256 Z" />
            <path d="M228.163,83.372 L301.837,83.372 C303.533,83.372 304.907,81.998 304.907,80.302 C304.907,78.607 303.533,77.233 301.837,77.233 L228.163,77.233 C226.467,77.233 225.093,78.607 225.093,80.302 C225.093,81.998 226.467,83.372 228.163,83.372 Z" />
        </g>
        <g id="Regular-S">
            <path d="M426.116,95.651 L503.884,95.651 C503.319,95.651 502.86,95.193 502.86,94.628 L502.86,139.651 C502.86,139.086 503.319,138.628 503.884,138.628 L477.279,138.628 L479.451,139.528 L467.189,127.252 C465.991,126.053 464.048,126.051 462.848,127.249 L450.552,139.525 L452.721,138.628 L426.116,138.628 C426.681,138.628 427.14,139.086 427.14,139.651 L427.14,94.628 C427.14,95.193 426.681,95.651 426.116,95.651 Z M426.116,89.512 C423.291,89.512 421,91.802 421,94.628 L421,139.651 C421,142.477 423.291,144.767 426.116,144.767 L452.721,144.767 C453.534,144.767 454.314,144.445 454.89,143.87 L467.186,131.594 L462.845,131.591 L475.107,143.867 C475.683,144.444 476.464,144.767 477.279,144.767 L503.884,144.767 C506.709,144.767 509,142.477 509,139.651 L509,94.628 C509,91.802 506.709,89.512 503.884,89.512 L426.116,89.512 Z" />
            <path d="M444.535,128.395 C450.751,128.395 455.791,123.356 455.791,117.14 C455.791,110.923 450.751,105.884 444.535,105.884 C438.319,105.884 433.279,110.923 433.279,117.14 C433.279,123.356 438.319,128.395 444.535,128.395 Z M444.535,122.256 C441.709,122.256 439.419,119.965 439.419,117.14 C439.419,114.314 441.709,112.023 444.535,112.023 C447.36,112.023 449.651,114.314 449.651,117.14 C449.651,119.965 447.36,122.256 444.535,122.256 Z" />
            <path d="M485.465,128.395 C491.681,128.395 496.721,123.356 496.721,117.14 C496.721,110.923 491.681,105.884 485.465,105.884 C479.249,105.884 474.209,110.923 474.209,117.14 C474.209,123.356 479.249,128.395 485.465,128.395 Z M485.465,122.256 C482.64,122.256 480.349,119.965 480.349,117.14 C480.349,114.314 482.64,112.023 485.465,112.023 C488.291,112.023 490.581,114.314 490.581,117.14 C490.581,119.965 488.291,122.256 485.465,122.256 Z" />
            <path d="M428.163,83.372 L501.837,83.372 C503.533,83.372 504.907,81.998 504.907,80.302 C504.907,78.607 503.533,77.233 501.837,77.233 L428.163,77.233 C426.467,77.233 425.093,78.607 425.093,80.302 C425.093,81.998 426.467,83.372 428.163,83.372 Z" />
        </g>
        <g id="Black-S">
            <path d="M626.116,95.651 L703.884,95.651 C703.319,95.651 702.86,95.193 702.86,94.628 L702.86,139.651 C702.86,139.086 703.319,138.628 703.884,138.628 L677.279,138.628 L679.451,139.528 L667.189,127.252 C665.991,126.053 664.048,126.051 662.848,127.249 L650.552,139.525 L652.721,138.628 L626.116,138.628 C626.681,138.628 627.14,139.086 627.14,139.651 L627.14,94.628 C627.14,95.193 626.681,95.651 626.116,95.651 Z M626.116,89.512 C623.291,89.512 621,91.802 621,94.628 L621,139.651 C621,142.477 623.291,144.767 626.116,144.767 L652.721,144.767 C653.534,144.767 654.314,144.445 654.89,143.87 L667.186,131.594 L662.845,131.591 L675.107,143.867 C675.683,144.444 676.464,144.767 677.279,144.767 L703.884,144.767 C706.709,144.767 709,142.477 709,139.651 L709,94.628 C709,91.802 706.709,89.512 703.884,89.512 L626.116,89.512 Z" />
            <path d="M644.535,128.395 C650.751,128.395 655.791,123.356 655.791,117.14 C655.791,110.923 650.751,105.884 644.535,105.884 C638.319,105.884 633.279,110.923 633.279,117.14 C633.279,123.356 638.319,128.395 644.535,128.395 Z M644.535,122.256 C641.709,122.256 639.419,119.965 639.419,117.14 C639.419,114.314 641.709,112.023 644.535,112.023 C647.36,112.023 649.651,114.314 649.651,117.14 C649.651,119.965 647.36,122.256 644.535,122.256 Z" />
            <path d="M685.465,128.395 C691.681,128.395 696.721,123.356 696.721,117.14 C696.721,110.923 691.681,105.884 685.465,105.884 C679.249,105.884 674.209,110.923 674.209,117.14 C674.209,123.356 679.249,128.395 685.465,128.395 Z M685.465,122.256 C682.64,122.256 680.349,119.965 680.349,117.14 C680.349,114.314 682.64,112.023 685.465,112.023 C688.291,112.023 690.581,114.314 690.581,117.14 C690.581,119.965 688.291,122.256 685.465,122.256 Z" />
            <path d="M628.163,83.372 L701.837,83.372 C703.533,83.372 704.907,81.998 704.907,80.302 C704.907,78.607 703.533,77.233 701.837,77.233 L628.163,77.233 C626.467,77.233 625.093,78.607 625.093,80.302 C625.093,81.998 626.467,83.372 628.163,83.372 Z" />
        </g>
    </g>
</svg>