<?xml version="1.0" encoding="UTF-8"?>
<svg height="600" width="800" xmlns="http://www.w3.org/2000/svg" xmlns:xlink="http://www.w3.org/1999/xlink">
    <g id="Notes" font-family="'LucidaGrande', 'Lucida Grande', sans-serif" font-size="13">
        <rect fill="white" height="600.0" width="800.0" x="0.0" y="0.0" />
        <g font-size="13">
            <text x="18.0" y="176.0">Small</text>
            <text x="18.0" y="376.0">Medium</text>
            <text x="18.0" y="576.0">Large</text>
        </g>
        <g font-size="9">
            <text x="250.0" y="30.0">Ultralight</text>
            <text x="450.0" y="30.0">Regular</text>
            <text x="650.0" y="30.0">Black</text>
            <text id="template-version" fill="#505050" text-anchor="end" x="785.0" y="575.0">Template v.3.0</text>
            <a href="https://github.com/swhitty/SwiftDraw">
                <text fill="#505050" text-anchor="end" x="785.0" y="590.0">https://github.com/swhitty/SwiftDraw</text>
            </a>
        </g>
    </g>
    <g id="Guides" stroke="rgb(39, 170, 225)" stroke-width="0.5">
        <path id="Capline-S" d="M18,76 l800,0" />
        <path id="H-reference" d="M85,145.755 L87.685,145.755 L113.369,79.287 L114.052,79.287 L114.052,76 L112.148,76 L85,145.755 Z M95.693,121.536 L130.996,121.536 L130.263,119.313 L96.474,119.313 L95.693,121.536 Z M139.15,145.755 L141.787,145.755 L114.638,76 L113.466,76 L113.466,79.287 L139.15,145.755 Z" stroke="none" />
        <path id="Baseline-S" d="M18,146 l800,0" />
        <path id="left-margin-Ultralight-S" d="M220,56 l0,110" />
        <path id="right-margin-Ultralight-S" d="M310,56 l0,110" />
        <path id="left-margin-Regular-S" d="M420,56 l0,110" />
        <path id="right-margin-Regular-S" d="M510,56 l0,110" />
        <path id="left-margin-Black-S" d="M620,56 l0,110" />
        <path id="right-margin-Black-S" d="M710,56 l0,110" />
        <path id="Capline-M" d="M18,276 l800,0" />
        <path id="Baseline-M" d="M18,346 l800,0" />
        <path id="Capline-L" d="M18,476 l800,0" />
        <path id="Baseline-L" d="M18,546 l800,0" />
    </g>
    <g id="Symbols">
        <g id="Ultralight-S">
            <path d="M275.769,81.385 L297.308,81.385 L294.615,78.692 L294.615,100.231 C294.615,101.718 295.821,102.923 297.308,102.923 C298.795,102.923 300,101.718 300,100.231 L300,78.692 C300,77.205 298.795,76 297.308,76 L275.769,76 C274.282,76 273.077,77.205 273.077,78.692 C273.077,80.179 274.282,81.385 275.769,81.385 Z" />
            <path d="M277.564,117.282 L256.026,117.282 L258.718,119.974 L258.718,98.436 C258.718,96.949 257.513,95.744 256.026,95.744 C254.539,95.744 253.333,96.949 253.333,98.436 L253.333,119.974 C253.333,121.461 254.539,122.667 256.026,122.667 L277.564,122.667 C279.051,122.667 280.256,121.461 280.256,119.974 C280.256,118.487 279.051,117.282 277.564,117.282 Z" />
            <path d="M295.404,76.789 L254.122,118.071 C253.07,119.122 253.07,120.827 254.122,121.878 C255.173,122.93 256.878,122.93 257.929,121.878 L299.211,80.596 C300.263,79.545 300.263,77.84 299.211,76.789 C298.16,75.737 296.455,75.737 295.404,76.789 Z" />
            <path d="M261.41,76 L236.282,76 C232.813,76 230,78.813 230,82.282 L230,139.718 C230,143.187 232.813,146 236.282,146 L293.718,146 C297.188,146 300,143.187 300,139.718 L300,114.59 C300,113.103 298.795,111.897 297.308,111.897 C295.821,111.897 294.615,113.103 294.615,114.59 L294.615,139.718 C294.615,140.214 294.214,140.615 293.718,140.615 L236.282,140.615 C235.786,140.615 235.385,140.214 235.385,139.718 L235.385,82.282 C235.385,81.786 235.786,81.385 236.282,81.385 L261.41,81.385 C262.897,81.385 264.103,80.179 264.103,78.692 C264.103,77.205 262.897,76 261.41,76 Z" />
        </g>
        <g id="Regular-S">
            <path d="M475.769,81.385 L497.308,81.385 L494.615,78.692 L494.615,100.231 C494.615,101.718 495.821,102.923 497.308,102.923 C498.795,102.923 500,101.718 500,100.231 L500,78.692 C500,77.205 498.795,76 497.308,76 L475.769,76 C474.282,76 473.077,77.205 473.077,78.692 C473.077,80.179 474.282,81.385 475.769,81.385 Z" />
            <path d="M477.564,117.282 L456.026,117.282 L458.718,119.974 L458.718,98.436 C458.718,96.949 457.513,95.744 456.026,95.744 C454.539,95.744 453.333,96.949 453.333,98.436 L453.333,119.974 C453.333,121.461 454.539,122.667 456.026,122.667 L477.564,122.667 C479.051,122.667 480.256,121.461 480.256,119.974 C480.256,118.487 479.051,117.282 477.564,117.282 Z" />
            <path d="M495.404,76.789 L454.122,118.071 C453.07,119.122 453.07,120.827 454.122,121.878 C455.173,122.93 456.878,122.93 457.929,121.878 L499.211,80.596 C500.263,79.545 500.263,77.84 499.211,76.789 C498.16,75.737 496.455,75.737 495.404,76.789 Z" />
            <path d="M461.41,76 L436.282,76 C432.813,76 430,78.813 430,82.282 L430,139.718 C430,143.187 432.813,146 436.282,146 L493.718,146 C497.187,146 500,143.187 500,139.718 L500,114.59 C500,113.103 498.795,111.897 497.308,111.897 C495.821,111.897 494.615,113.103 494.615,114.59 L494.615,139.718 C494.615,140.214 494.214,140.615 493.718,140.615 L436.282,140.615 C435.786,140.615 435.385,140.214 435.385,139.718 L435.385,82.282 C435.385,81.786 435.786,81.385 436.282,81.385 L461.41,81.385 C462.897,81.385 464.103,80.179 464.103,78.692 C464.103,77.205 462.897,76 461.41,76 Z" />
        </g>
        <g id="Black-S">
            <path d="M675.769,81.385 L697.308,81.385 L694.615,78.692 L694.615,100.231 C694.615,101.718 695.821,102.923 697.308,102.923 C698.795,102.923 700,101.718 700,100.231 L700,78.692 C700,77.205 698.795,76 697.308,76 L675.769,76 C674.282,76 673.077,77.205 673.077,78.692 C673.077,80.179 674.282,81.385 675.769,81.385 Z" />
            <path d="M677.564,117.282 L656.026,117.282 L658.718,119.974 L658.718,98.436 C658.718,96.949 657.513,95.744 656.026,95.744 C654.539,95.744 653.333,96.949 653.333,98.436 L653.333,119.974 C653.333,121.461 654.539,122.667 656.026,122.667 L677.564,122.667 C679.051,122.667 680.256,121.461 680.256,119.974 C680.256,118.487 679.051,117.282 677.564,117.282 Z" />
            <path d="M695.404,76.789 L654.122,118.071 C653.07,119.122 653.07,120.827 654.122,121.878 C655.173,122.93 656.878,122.93 657.929,121.878 L699.211,80.596 C700.263,79.545 700.263,77.84 699.211,76.789 C698.16,75.737 696.455,75.737 695.404,76.789 Z" />
            <path d="M661.41,76 L636.282,76 C632.813,76 630,78.813 630,82.282 L630,139.718 C630,143.187 632.813,146 636.282,146 L693.718,146 C697.188,146 700,143.187 700,139.718 L700,114.59 C700,113.103 698.795,111.897 697.308,111.897 C695.821,111.897 694.615,113.103 694.615,114.59 L694.615,139.718 C694.615,140.214 694.214,140.615 693.718,140.615 L636.282,140.615 C635.786,140.615 635.385,140.214 635.385,139.718 L635.385,82.282 C635.385,81.786 635.786,81.385 636.282,81.385 L661.41,81.385 C662.897,81.385 664.103,80.179 664.103,78.692 C664.103,77.205 662.897,76 661.41,76 Z" />
        </g>
    </g>
</svg>