<?xml version="1.0" encoding="UTF-8"?>
<svg height="600" width="800" xmlns="http://www.w3.org/2000/svg" xmlns:xlink="http://www.w3.org/1999/xlink">
    <g id="Notes" font-family="'LucidaGrande', 'Lucida Grande', sans-serif" font-size="13">
        <rect fill="white" height="600.0" width="800.0" x="0.0" y="0.0" />
        <g font-size="13">
            <text x="18.0" y="176.0">Small</text>
            <text x="18.0" y="376.0">Medium</text>
            <text x="18.0" y="576.0">Large</text>
        </g>
        <g font-size="9">
            <text x="250.0" y="30.0">Ultralight</text>
            <text x="450.0" y="30.0">Regular</text>
            <text x="650.0" y="30.0">Black</text>
            <text id="template-version" fill="#505050" text-anchor="end" x="785.0" y="575.0">Template v.3.0</text>
            <a href="https://github.com/swhitty/SwiftDraw">
                <text fill="#505050" text-anchor="end" x="785.0" y="590.0">https://github.com/swhitty/SwiftDraw</text>
            </a>
        </g>
    </g>
    <g id="Guides" stroke="rgb(39, 170, 225)" stroke-width="0.5">
        <path id="Capline-S" d="M18,76 l800,0" />
        <path id="H-reference" d="M85,145.755 L87.685,145.755 L113.369,79.287 L114.052,79.287 L114.052,76 L112.148,76 L85,145.755 Z M95.693,121.536 L130.996,121.536 L130.263,119.313 L96.474,119.313 L95.693,121.536 Z M139.15,145.755 L141.787,145.755 L114.638,76 L113.466,76 L113.466,79.287 L139.15,145.755 Z" stroke="none" />
        <path id="Baseline-S" d="M18,146 l800,0" />
        <path id="left-margin-Ultralight-S" d="M220,56 l0,110" />
        <path id="right-margin-Ultralight-S" d="M310,56 l0,110" />
        <path id="left-margin-Regular-S" d="M420,56 l0,110" />
        <path id="right-margin-Regular-S" d="M510,56 l0,110" />
        <path id="left-margin-Black-S" d="M620,56 l0,110" />
        <path id="right-margin-Black-S" d="M710,56 l0,110" />
        <path id="Capline-M" d="M18,276 l800,0" />
        <path id="Baseline-M" d="M18,346 l800,0" />
        <path id="Capline-L" d="M18,476 l800,0" />
        <path id="Baseline-L" d="M18,546 l800,0" />
    </g>
    <g id="Symbols">
        <g id="Ultralight-S">
            <path d="M297.094,125.001 C299.002,120.631 300,115.881 300,111 C300,91.663 284.337,76 265,76 C245.663,76 230,91.663 230,111 C230,112.349 231.093,113.442 232.442,113.442 L265,113.442 L262.558,111.003 L262.574,124.026 C262.574,131.672 268.763,137.86 276.412,137.86 C284.06,137.86 290.249,131.672 290.249,124.023 L287.807,126.465 L294.856,126.465 C295.827,126.465 296.705,125.89 297.094,125.001 Z M292.618,123.046 L294.856,121.581 L287.807,121.581 C286.458,121.581 285.365,122.675 285.365,124.023 C285.365,128.975 281.363,132.977 276.412,132.977 C271.46,132.977 267.458,128.975 267.458,124.023 L267.442,110.997 C267.44,109.65 266.347,108.558 265,108.558 L232.442,108.558 L234.884,111 C234.884,94.36 248.36,80.884 265,80.884 C281.64,80.884 295.116,94.36 295.116,111 C295.116,115.206 294.258,119.291 292.618,123.046 Z" />
            <path d="M276.395,127.279 C278.186,127.279 279.651,125.814 279.651,124.023 C279.651,122.233 278.186,120.767 276.395,120.767 C274.605,120.767 273.14,122.233 273.14,124.023 C273.14,125.814 274.605,127.279 276.395,127.279 Z" />
            <path d="M264.47,121.64 L235.168,128.151 C233.467,128.529 232.698,130.515 233.7,131.94 C233.741,131.998 233.741,131.998 233.782,132.055 C233.843,132.143 233.843,132.143 233.905,132.23 C239.456,140.122 242.442,143.362 247.702,145.777 C248.425,146.109 249.264,146.068 249.951,145.667 L269.486,134.272 C270.651,133.592 271.045,132.097 270.365,130.932 C269.686,129.768 268.19,129.374 267.025,130.054 L247.491,141.449 L249.74,141.339 C245.535,139.408 242.959,136.613 237.899,129.42 C237.838,129.333 237.838,129.333 237.776,129.246 C237.736,129.188 237.736,129.188 237.695,129.13 L236.227,132.919 L265.53,126.407 C266.846,126.114 267.676,124.81 267.384,123.494 C267.091,122.177 265.787,121.347 264.47,121.64 Z" />
        </g>
        <g id="Regular-S">
            <path d="M497.094,125.001 C499.002,120.631 500,115.881 500,111 C500,91.663 484.337,76 465,76 C445.663,76 430,91.663 430,111 C430,112.349 431.093,113.442 432.442,113.442 L465,113.442 L462.558,111.003 L462.574,124.026 C462.574,131.672 468.763,137.86 476.412,137.86 C484.06,137.86 490.249,131.672 490.249,124.023 L487.807,126.465 L494.856,126.465 C495.827,126.465 496.705,125.89 497.094,125.001 Z M492.618,123.046 L494.856,121.581 L487.807,121.581 C486.458,121.581 485.365,122.675 485.365,124.023 C485.365,128.975 481.363,132.977 476.412,132.977 C471.46,132.977 467.458,128.975 467.458,124.023 L467.442,110.997 C467.44,109.65 466.347,108.558 465,108.558 L432.442,108.558 L434.884,111 C434.884,94.36 448.36,80.884 465,80.884 C481.64,80.884 495.116,94.36 495.116,111 C495.116,115.206 494.258,119.291 492.618,123.046 Z" />
            <path d="M476.395,127.279 C478.186,127.279 479.651,125.814 479.651,124.023 C479.651,122.233 478.186,120.767 476.395,120.767 C474.605,120.767 473.14,122.233 473.14,124.023 C473.14,125.814 474.605,127.279 476.395,127.279 Z" />
            <path d="M464.47,121.64 L435.168,128.151 C433.467,128.529 432.698,130.515 433.701,131.94 C433.741,131.998 433.741,131.998 433.782,132.055 C433.843,132.143 433.843,132.143 433.905,132.23 C439.456,140.122 442.442,143.362 447.702,145.777 C448.425,146.109 449.264,146.068 449.951,145.667 L469.486,134.272 C470.651,133.592 471.045,132.097 470.365,130.932 C469.686,129.768 468.19,129.374 467.025,130.054 L447.491,141.449 L449.74,141.339 C445.535,139.408 442.959,136.613 437.899,129.42 C437.838,129.333 437.838,129.333 437.776,129.246 C437.736,129.188 437.736,129.188 437.695,129.13 L436.227,132.919 L465.53,126.407 C466.846,126.114 467.676,124.81 467.384,123.494 C467.091,122.177 465.787,121.347 464.47,121.64 Z" />
        </g>
        <g id="Black-S">
            <path d="M697.094,125.001 C699.002,120.631 700,115.881 700,111 C700,91.663 684.337,76 665,76 C645.663,76 630,91.663 630,111 C630,112.349 631.093,113.442 632.442,113.442 L665,113.442 L662.558,111.003 L662.574,124.026 C662.574,131.672 668.763,137.86 676.412,137.86 C684.06,137.86 690.249,131.672 690.249,124.023 L687.807,126.465 L694.856,126.465 C695.827,126.465 696.705,125.89 697.094,125.001 Z M692.618,123.046 L694.856,121.581 L687.807,121.581 C686.458,121.581 685.365,122.675 685.365,124.023 C685.365,128.975 681.363,132.977 676.412,132.977 C671.46,132.977 667.458,128.975 667.458,124.023 L667.442,110.997 C667.44,109.65 666.347,108.558 665,108.558 L632.442,108.558 L634.884,111 C634.884,94.36 648.36,80.884 665,80.884 C681.64,80.884 695.116,94.36 695.116,111 C695.116,115.206 694.258,119.291 692.618,123.046 Z" />
            <path d="M676.395,127.279 C678.186,127.279 679.651,125.814 679.651,124.023 C679.651,122.233 678.186,120.767 676.395,120.767 C674.605,120.767 673.14,122.233 673.14,124.023 C673.14,125.814 674.605,127.279 676.395,127.279 Z" />
            <path d="M664.47,121.64 L635.168,128.151 C633.467,128.529 632.698,130.515 633.701,131.94 C633.741,131.998 633.741,131.998 633.782,132.055 C633.843,132.143 633.843,132.143 633.905,132.23 C639.456,140.122 642.442,143.362 647.702,145.777 C648.425,146.109 649.264,146.068 649.951,145.667 L669.486,134.272 C670.651,133.592 671.045,132.097 670.365,130.932 C669.686,129.768 668.19,129.374 667.025,130.054 L647.491,141.449 L649.74,141.339 C645.535,139.408 642.959,136.613 637.899,129.42 C637.838,129.333 637.838,129.333 637.776,129.246 C637.736,129.188 637.736,129.188 637.695,129.13 L636.227,132.919 L665.53,126.407 C666.846,126.114 667.676,124.81 667.384,123.494 C667.091,122.177 665.787,121.347 664.47,121.64 Z" />
        </g>
    </g>
</svg>