<?xml version="1.0" encoding="UTF-8"?>
<svg height="600" width="800" xmlns="http://www.w3.org/2000/svg" xmlns:xlink="http://www.w3.org/1999/xlink">
    <g id="Notes" font-family="'LucidaGrande', 'Lucida Grande', sans-serif" font-size="13">
        <rect fill="white" height="600.0" width="800.0" x="0.0" y="0.0" />
        <g font-size="13">
            <text x="18.0" y="176.0">Small</text>
            <text x="18.0" y="376.0">Medium</text>
            <text x="18.0" y="576.0">Large</text>
        </g>
        <g font-size="9">
            <text x="250.0" y="30.0">Ultralight</text>
            <text x="450.0" y="30.0">Regular</text>
            <text x="650.0" y="30.0">Black</text>
            <text id="template-version" fill="#505050" text-anchor="end" x="785.0" y="575.0">Template v.3.0</text>
            <a href="https://github.com/swhitty/SwiftDraw">
                <text fill="#505050" text-anchor="end" x="785.0" y="590.0">https://github.com/swhitty/SwiftDraw</text>
            </a>
        </g>
    </g>
    <g id="Guides" stroke="rgb(39, 170, 225)" stroke-width="0.5">
        <path id="Capline-S" d="M18,76 l800,0" />
        <path id="H-reference" d="M85,145.755 L87.685,145.755 L113.369,79.287 L114.052,79.287 L114.052,76 L112.148,76 L85,145.755 Z M95.693,121.536 L130.996,121.536 L130.263,119.313 L96.474,119.313 L95.693,121.536 Z M139.15,145.755 L141.787,145.755 L114.638,76 L113.466,76 L113.466,79.287 L139.15,145.755 Z" stroke="none" />
        <path id="Baseline-S" d="M18,146 l800,0" />
        <path id="left-margin-Ultralight-S" d="M221,56 l0,110" />
        <path id="right-margin-Ultralight-S" d="M309,56 l0,110" />
        <path id="left-margin-Regular-S" d="M421,56 l0,110" />
        <path id="right-margin-Regular-S" d="M509,56 l0,110" />
        <path id="left-margin-Black-S" d="M621,56 l0,110" />
        <path id="right-margin-Black-S" d="M709,56 l0,110" />
        <path id="Capline-M" d="M18,276 l800,0" />
        <path id="Baseline-M" d="M18,346 l800,0" />
        <path id="Capline-L" d="M18,476 l800,0" />
        <path id="Baseline-L" d="M18,546 l800,0" />
    </g>
    <g id="Symbols">
        <g id="Ultralight-S">
            <path d="M253.04,86.662 C263.003,88.752 264.923,92.302 264.925,92.306 C261.241,71.013 249.96,76.226 247.559,77.46 C247.259,77.614 247.054,77.9 247.012,78.234 C246.8,79.904 246.557,85.302 253.04,86.662 Z" />
            <path d="M249.075,108.202 C248.129,110.829 247.845,113.774 248.355,116.812 C249.633,124.43 255.932,129.95 263.294,130.552 L265.814,131.449 C266.804,131.769 268.1,132.085 269.621,132.306 C271.871,132.634 274.179,132.683 276.464,132.359 C282.009,131.572 286.682,128.717 289.935,123.297 L290.668,122.017 C288.672,133.015 280.839,143.13 268.322,145.473 C259.609,147.105 251.371,144.857 245.217,139.96 L245.288,140.1 C241.222,132.207 240.494,125.09 242.356,118.744 C243.248,115.706 244.792,112.99 246.814,110.581 C247.524,109.735 248.267,108.959 249.031,108.244 L249.075,108.202 Z M253.581,94.437 C257.714,93.785 264.461,93.822 268.246,98.05 C268.3,98.11 268.247,98.205 268.168,98.189 C266.147,97.776 263.405,97.768 261.3,98.122 C256.862,98.866 253.287,101.231 250.983,104.517 L250.173,105.13 C249.802,105.416 249.406,105.727 249.136,105.953 C247.889,106.995 246.684,108.174 245.553,109.522 C243.392,112.096 241.736,115.008 240.776,118.28 C239.102,123.984 239.392,130.256 242.086,137.046 C239.733,134.485 237.839,131.454 236.542,128.057 C233.517,120.135 234.438,109.824 239.635,103.17 C243.342,98.424 248.801,95.192 253.581,94.437 Z M277.122,82.418 C284.704,72.268 293.795,79.687 294.991,80.737 C295.079,80.815 295.133,80.919 295.145,81.036 C295.307,82.608 295.732,93.957 273.895,93.574 C279.839,95.031 286.141,99.985 288.778,105.423 C289.662,107.246 290.343,109.144 290.704,111.137 C291.055,113.074 291.208,115.055 291.168,117.041 C291.081,117.499 290.781,118.252 290.315,119.191 L290.126,119.565 L289.731,120.312 L288.822,121.936 C285.822,127.248 281.476,129.984 276.233,130.728 C274.115,131.028 271.962,130.983 269.858,130.676 C269.12,130.569 268.44,130.438 267.83,130.296 C272.432,129.396 276.229,126.654 278.582,122.97 C279.126,122.245 279.588,121.447 279.95,120.557 C281.607,116.479 281.827,112.415 280.542,107.858 C278.486,100.564 272.979,95.226 266.031,92.833 C265.97,92.812 265.969,92.728 266.03,92.711 C266.943,92.446 270.797,90.887 277.122,82.418 Z" />
        </g>
        <g id="Regular-S">
            <path d="M453.04,86.662 C463.003,88.752 464.923,92.302 464.925,92.306 C461.241,71.013 449.96,76.226 447.559,77.46 C447.259,77.614 447.054,77.9 447.012,78.234 C446.8,79.904 446.557,85.302 453.04,86.662 Z" />
            <path d="M449.075,108.202 C448.129,110.829 447.845,113.774 448.355,116.812 C449.633,124.43 455.932,129.95 463.294,130.552 L465.814,131.449 C466.804,131.769 468.1,132.085 469.621,132.306 C471.871,132.634 474.179,132.683 476.464,132.359 C482.009,131.572 486.682,128.717 489.935,123.297 L490.668,122.017 C488.672,133.015 480.839,143.13 468.322,145.473 C459.609,147.105 451.371,144.857 445.217,139.96 L445.288,140.1 C441.222,132.207 440.494,125.09 442.356,118.744 C443.248,115.706 444.792,112.99 446.814,110.581 C447.524,109.735 448.267,108.959 449.031,108.244 L449.075,108.202 Z M453.581,94.437 C457.714,93.785 464.461,93.822 468.246,98.05 C468.3,98.11 468.247,98.205 468.168,98.189 C466.147,97.776 463.405,97.768 461.3,98.122 C456.862,98.866 453.287,101.231 450.983,104.517 L450.173,105.13 C449.802,105.416 449.406,105.727 449.136,105.953 C447.889,106.995 446.684,108.174 445.553,109.522 C443.392,112.096 441.736,115.008 440.776,118.28 C439.102,123.984 439.392,130.256 442.086,137.046 C439.733,134.485 437.839,131.454 436.542,128.057 C433.517,120.135 434.438,109.824 439.635,103.17 C443.342,98.424 448.801,95.192 453.581,94.437 Z M477.122,82.418 C484.704,72.268 493.795,79.687 494.991,80.737 C495.079,80.815 495.133,80.919 495.145,81.036 C495.307,82.608 495.732,93.957 473.895,93.574 C479.839,95.031 486.141,99.985 488.778,105.423 C489.662,107.246 490.343,109.144 490.704,111.137 C491.055,113.074 491.208,115.055 491.168,117.041 C491.081,117.499 490.781,118.252 490.315,119.191 L490.126,119.565 L489.731,120.312 L488.822,121.936 C485.822,127.248 481.476,129.984 476.233,130.728 C474.115,131.028 471.962,130.983 469.858,130.676 C469.12,130.569 468.44,130.438 467.83,130.296 C472.432,129.396 476.229,126.654 478.582,122.97 C479.126,122.245 479.588,121.447 479.95,120.557 C481.607,116.479 481.827,112.415 480.542,107.858 C478.486,100.564 472.979,95.226 466.031,92.833 C465.97,92.812 465.969,92.728 466.03,92.711 C466.943,92.446 470.797,90.887 477.122,82.418 Z" />
        </g>
        <g id="Black-S">
            <path d="M653.04,86.662 C663.003,88.752 664.923,92.302 664.926,92.306 C661.241,71.013 649.96,76.226 647.559,77.46 C647.259,77.614 647.054,77.9 647.012,78.234 C646.8,79.904 646.557,85.302 653.04,86.662 Z" />
            <path d="M649.075,108.202 C648.129,110.829 647.845,113.774 648.355,116.812 C649.633,124.43 655.932,129.95 663.294,130.552 L665.814,131.449 C666.804,131.769 668.1,132.085 669.621,132.306 C671.871,132.634 674.18,132.683 676.464,132.359 C682.009,131.572 686.682,128.717 689.935,123.297 L690.668,122.017 C688.672,133.015 680.839,143.13 668.322,145.473 C659.609,147.105 651.371,144.857 645.217,139.96 L645.288,140.1 C641.222,132.207 640.494,125.09 642.356,118.744 C643.248,115.706 644.792,112.99 646.814,110.581 C647.524,109.735 648.267,108.959 649.031,108.244 L649.075,108.202 Z M653.581,94.437 C657.714,93.785 664.461,93.822 668.246,98.05 C668.3,98.11 668.247,98.205 668.168,98.189 C666.147,97.776 663.405,97.768 661.3,98.122 C656.862,98.866 653.287,101.231 650.983,104.517 L650.173,105.13 C649.802,105.416 649.406,105.727 649.136,105.953 C647.89,106.995 646.684,108.174 645.553,109.522 C643.392,112.096 641.736,115.008 640.776,118.28 C639.102,123.984 639.392,130.256 642.086,137.046 C639.733,134.485 637.839,131.454 636.542,128.057 C633.517,120.135 634.438,109.824 639.635,103.17 C643.342,98.424 648.801,95.192 653.581,94.437 Z M677.122,82.418 C684.704,72.268 693.795,79.687 694.991,80.737 C695.079,80.815 695.133,80.919 695.145,81.036 C695.307,82.608 695.732,93.957 673.895,93.574 C679.839,95.031 686.141,99.985 688.778,105.423 C689.662,107.246 690.343,109.144 690.705,111.137 C691.055,113.074 691.208,115.055 691.168,117.041 C691.081,117.499 690.781,118.252 690.315,119.191 L690.126,119.565 L689.731,120.312 L688.822,121.936 C685.822,127.248 681.476,129.984 676.233,130.728 C674.115,131.028 671.962,130.983 669.858,130.676 C669.12,130.569 668.44,130.438 667.83,130.296 C672.432,129.396 676.229,126.654 678.582,122.97 C679.126,122.245 679.588,121.447 679.95,120.557 C681.607,116.479 681.827,112.415 680.542,107.858 C678.486,100.564 672.979,95.226 666.031,92.833 C665.97,92.812 665.969,92.728 666.03,92.711 C666.943,92.446 670.797,90.887 677.122,82.418 Z" />
        </g>
    </g>
</svg>