<?xml version="1.0" encoding="UTF-8"?>
<svg height="600" width="800" xmlns="http://www.w3.org/2000/svg" xmlns:xlink="http://www.w3.org/1999/xlink">
    <g id="Notes" font-family="'LucidaGrande', 'Lucida Grande', sans-serif" font-size="13">
        <rect fill="white" height="600.0" width="800.0" x="0.0" y="0.0" />
        <g font-size="13">
            <text x="18.0" y="176.0">Small</text>
            <text x="18.0" y="376.0">Medium</text>
            <text x="18.0" y="576.0">Large</text>
        </g>
        <g font-size="9">
            <text x="250.0" y="30.0">Ultralight</text>
            <text x="450.0" y="30.0">Regular</text>
            <text x="650.0" y="30.0">Black</text>
            <text id="template-version" fill="#505050" text-anchor="end" x="785.0" y="575.0">Template v.3.0</text>
            <a href="https://github.com/swhitty/SwiftDraw">
                <text fill="#505050" text-anchor="end" x="785.0" y="590.0">https://github.com/swhitty/SwiftDraw</text>
            </a>
        </g>
    </g>
    <g id="Guides" stroke="rgb(39, 170, 225)" stroke-width="0.5">
        <path id="Capline-S" d="M18,76 l800,0" />
        <path id="H-reference" d="M85,145.755 L87.685,145.755 L113.369,79.287 L114.052,79.287 L114.052,76 L112.148,76 L85,145.755 Z M95.693,121.536 L130.996,121.536 L130.263,119.313 L96.474,119.313 L95.693,121.536 Z M139.15,145.755 L141.787,145.755 L114.638,76 L113.466,76 L113.466,79.287 L139.15,145.755 Z" stroke="none" />
        <path id="Baseline-S" d="M18,146 l800,0" />
        <path id="left-margin-Ultralight-S" d="M215.513,56 l0,110" />
        <path id="right-margin-Ultralight-S" d="M314.487,56 l0,110" />
        <path id="left-margin-Regular-S" d="M415.513,56 l0,110" />
        <path id="right-margin-Regular-S" d="M514.487,56 l0,110" />
        <path id="left-margin-Black-S" d="M615.513,56 l0,110" />
        <path id="right-margin-Black-S" d="M714.487,56 l0,110" />
        <path id="Capline-M" d="M18,276 l800,0" />
        <path id="Baseline-M" d="M18,346 l800,0" />
        <path id="Capline-L" d="M18,476 l800,0" />
        <path id="Baseline-L" d="M18,546 l800,0" />
    </g>
    <g id="Symbols">
        <g id="Ultralight-S">
            <path d="M300,121.769 L300,111.828 C300,92.056 284.345,76 265,76 C245.655,76 230,92.056 230,111.828 L230,121.769 C230,123.256 231.205,124.462 232.692,124.462 C234.179,124.462 235.385,123.256 235.385,121.769 L235.385,111.828 C235.385,95 248.659,81.385 265,81.385 C281.341,81.385 294.615,95 294.615,111.828 L294.615,121.769 C294.615,123.256 295.821,124.462 297.308,124.462 C298.795,124.462 300,123.256 300,121.769 Z" />
            <path d="M285.641,125.359 C285.641,122.881 287.65,120.872 290.128,120.872 L297.308,120.872 L294.615,118.179 L294.615,143.308 L297.308,140.615 L290.128,140.615 C287.65,140.615 285.641,138.606 285.641,136.128 L285.641,125.359 Z M280.256,125.359 L280.256,136.128 C280.256,141.58 284.676,146 290.128,146 L297.308,146 C298.795,146 300,144.795 300,143.308 L300,118.179 C300,116.693 298.795,115.487 297.308,115.487 L290.128,115.487 C284.676,115.487 280.256,119.907 280.256,125.359 Z" />
            <path d="M297.308,125.359 L300.897,125.359 C302.88,125.359 304.487,126.966 304.487,128.949 L304.487,132.538 C304.487,134.521 302.88,136.128 300.897,136.128 L297.308,136.128 L297.308,125.359 Z" />
            <path d="M232.692,125.359 L229.103,125.359 C227.12,125.359 225.513,126.966 225.513,128.949 L225.513,132.538 C225.513,134.521 227.12,136.128 229.103,136.128 L232.692,136.128 L232.692,125.359 Z" />
            <path d="M232.692,120.872 L239.872,120.872 C242.35,120.872 244.359,122.881 244.359,125.359 L244.359,136.128 C244.359,138.606 242.35,140.615 239.872,140.615 L232.692,140.615 L235.385,143.308 L235.385,118.179 L232.692,120.872 Z M232.692,115.487 C231.205,115.487 230,116.693 230,118.179 L230,143.308 C230,144.795 231.205,146 232.692,146 L239.872,146 C245.324,146 249.744,141.58 249.744,136.128 L249.744,125.359 C249.744,119.907 245.324,115.487 239.872,115.487 L232.692,115.487 Z" />
        </g>
        <g id="Regular-S">
            <path d="M500,121.769 L500,111.828 C500,92.056 484.345,76 465,76 C445.655,76 430,92.056 430,111.828 L430,121.769 C430,123.256 431.205,124.462 432.692,124.462 C434.179,124.462 435.385,123.256 435.385,121.769 L435.385,111.828 C435.385,95 448.659,81.385 465,81.385 C481.341,81.385 494.615,95 494.615,111.828 L494.615,121.769 C494.615,123.256 495.821,124.462 497.308,124.462 C498.795,124.462 500,123.256 500,121.769 Z" />
            <path d="M485.641,125.359 C485.641,122.881 487.65,120.872 490.128,120.872 L497.308,120.872 L494.615,118.179 L494.615,143.308 L497.308,140.615 L490.128,140.615 C487.65,140.615 485.641,138.606 485.641,136.128 L485.641,125.359 Z M480.256,125.359 L480.256,136.128 C480.256,141.58 484.676,146 490.128,146 L497.308,146 C498.795,146 500,144.795 500,143.308 L500,118.179 C500,116.693 498.795,115.487 497.308,115.487 L490.128,115.487 C484.676,115.487 480.256,119.907 480.256,125.359 Z" />
            <path d="M497.308,125.359 L500.897,125.359 C502.88,125.359 504.487,126.966 504.487,128.949 L504.487,132.538 C504.487,134.521 502.88,136.128 500.897,136.128 L497.308,136.128 L497.308,125.359 Z" />
            <path d="M432.692,125.359 L429.103,125.359 C427.12,125.359 425.513,126.966 425.513,128.949 L425.513,132.538 C425.513,134.521 427.12,136.128 429.103,136.128 L432.692,136.128 L432.692,125.359 Z" />
            <path d="M432.692,120.872 L439.872,120.872 C442.35,120.872 444.359,122.881 444.359,125.359 L444.359,136.128 C444.359,138.606 442.35,140.615 439.872,140.615 L432.692,140.615 L435.385,143.308 L435.385,118.179 L432.692,120.872 Z M432.692,115.487 C431.205,115.487 430,116.693 430,118.179 L430,143.308 C430,144.795 431.205,146 432.692,146 L439.872,146 C445.324,146 449.744,141.58 449.744,136.128 L449.744,125.359 C449.744,119.907 445.324,115.487 439.872,115.487 L432.692,115.487 Z" />
        </g>
        <g id="Black-S">
            <path d="M700,121.769 L700,111.828 C700,92.056 684.345,76 665,76 C645.655,76 630,92.056 630,111.828 L630,121.769 C630,123.256 631.205,124.462 632.692,124.462 C634.179,124.462 635.385,123.256 635.385,121.769 L635.385,111.828 C635.385,95 648.659,81.385 665,81.385 C681.341,81.385 694.615,95 694.615,111.828 L694.615,121.769 C694.615,123.256 695.821,124.462 697.308,124.462 C698.795,124.462 700,123.256 700,121.769 Z" />
            <path d="M685.641,125.359 C685.641,122.881 687.65,120.872 690.128,120.872 L697.308,120.872 L694.615,118.179 L694.615,143.308 L697.308,140.615 L690.128,140.615 C687.65,140.615 685.641,138.606 685.641,136.128 L685.641,125.359 Z M680.256,125.359 L680.256,136.128 C680.256,141.58 684.676,146 690.128,146 L697.308,146 C698.795,146 700,144.795 700,143.308 L700,118.179 C700,116.693 698.795,115.487 697.308,115.487 L690.128,115.487 C684.676,115.487 680.256,119.907 680.256,125.359 Z" />
            <path d="M697.308,125.359 L700.897,125.359 C702.88,125.359 704.487,126.966 704.487,128.949 L704.487,132.538 C704.487,134.521 702.88,136.128 700.897,136.128 L697.308,136.128 L697.308,125.359 Z" />
            <path d="M632.692,125.359 L629.103,125.359 C627.12,125.359 625.513,126.966 625.513,128.949 L625.513,132.538 C625.513,134.521 627.12,136.128 629.103,136.128 L632.692,136.128 L632.692,125.359 Z" />
            <path d="M632.692,120.872 L639.872,120.872 C642.35,120.872 644.359,122.881 644.359,125.359 L644.359,136.128 C644.359,138.606 642.35,140.615 639.872,140.615 L632.692,140.615 L635.385,143.308 L635.385,118.179 L632.692,120.872 Z M632.692,115.487 C631.205,115.487 630,116.693 630,118.179 L630,143.308 C630,144.795 631.205,146 632.692,146 L639.872,146 C645.324,146 649.744,141.58 649.744,136.128 L649.744,125.359 C649.744,119.907 645.324,115.487 639.872,115.487 L632.692,115.487 Z" />
        </g>
    </g>
</svg>