<?xml version="1.0" encoding="UTF-8"?>
<svg height="600" width="800" xmlns="http://www.w3.org/2000/svg" xmlns:xlink="http://www.w3.org/1999/xlink">
    <g id="Notes" font-family="'LucidaGrande', 'Lucida Grande', sans-serif" font-size="13">
        <rect fill="white" height="600.0" width="800.0" x="0.0" y="0.0" />
        <g font-size="13">
            <text x="18.0" y="176.0">Small</text>
            <text x="18.0" y="376.0">Medium</text>
            <text x="18.0" y="576.0">Large</text>
        </g>
        <g font-size="9">
            <text x="250.0" y="30.0">Ultralight</text>
            <text x="450.0" y="30.0">Regular</text>
            <text x="650.0" y="30.0">Black</text>
            <text id="template-version" fill="#505050" text-anchor="end" x="785.0" y="575.0">Template v.3.0</text>
            <a href="https://github.com/swhitty/SwiftDraw">
                <text fill="#505050" text-anchor="end" x="785.0" y="590.0">https://github.com/swhitty/SwiftDraw</text>
            </a>
        </g>
    </g>
    <g id="Guides" stroke="rgb(39, 170, 225)" stroke-width="0.5">
        <path id="Capline-S" d="M18,76 l800,0" />
        <path id="H-reference" d="M85,145.755 L87.685,145.755 L113.369,79.287 L114.052,79.287 L114.052,76 L112.148,76 L85,145.755 Z M95.693,121.536 L130.996,121.536 L130.263,119.313 L96.474,119.313 L95.693,121.536 Z M139.15,145.755 L141.787,145.755 L114.638,76 L113.466,76 L113.466,79.287 L139.15,145.755 Z" stroke="none" />
        <path id="Baseline-S" d="M18,146 l800,0" />
        <path id="left-margin-Ultralight-S" d="M220,56 l0,110" />
        <path id="right-margin-Ultralight-S" d="M310,56 l0,110" />
        <path id="left-margin-Regular-S" d="M420,56 l0,110" />
        <path id="right-margin-Regular-S" d="M510,56 l0,110" />
        <path id="left-margin-Black-S" d="M620,56 l0,110" />
        <path id="right-margin-Black-S" d="M710,56 l0,110" />
        <path id="Capline-M" d="M18,276 l800,0" />
        <path id="Baseline-M" d="M18,346 l800,0" />
        <path id="Capline-L" d="M18,476 l800,0" />
        <path id="Baseline-L" d="M18,546 l800,0" />
    </g>
    <g id="Symbols">
        <g id="Ultralight-S">
            <path d="M230.715,80.169 C231.111,80.565 231.834,81.184 232.897,81.95 C234.612,83.184 236.692,84.408 239.151,85.543 C246.083,88.742 254.674,90.651 265,90.651 C275.326,90.651 283.917,88.742 290.849,85.543 C293.308,84.408 295.388,83.184 297.103,81.95 C298.166,81.184 298.889,80.565 299.285,80.169 C300.238,79.215 300.238,77.669 299.285,76.715 C298.331,75.762 296.785,75.762 295.831,76.715 C295.617,76.93 295.094,77.378 294.249,77.986 C292.784,79.041 290.973,80.107 288.802,81.108 C282.508,84.014 274.616,85.767 265,85.767 C255.384,85.767 247.492,84.014 241.198,81.108 C239.027,80.107 237.216,79.041 235.751,77.986 C234.906,77.378 234.383,76.93 234.169,76.715 C233.215,75.762 231.669,75.762 230.715,76.715 C229.762,77.669 229.762,79.215 230.715,80.169 Z" />
            <path d="M262.558,88.209 L262.558,97.977 C262.558,99.325 263.651,100.419 265,100.419 C266.349,100.419 267.442,99.325 267.442,97.977 L267.442,88.209 C267.442,86.861 266.349,85.767 265,85.767 C263.651,85.767 262.558,86.861 262.558,88.209 Z" />
            <path d="M264.186,120.767 C264.186,109.35 269.29,100.419 274.767,100.419 C280.245,100.419 285.349,109.35 285.349,120.767 C285.349,132.185 280.245,141.116 274.767,141.116 C269.29,141.116 264.186,132.185 264.186,120.767 Z M259.302,120.767 C259.302,134.524 265.86,146 274.767,146 C283.675,146 290.233,134.524 290.233,120.767 C290.233,107.011 283.675,95.535 274.767,95.535 C265.86,95.535 259.302,107.011 259.302,120.767 Z" />
            <path d="M272.326,120.767 C272.326,118.503 272.767,116.415 273.498,114.953 C274.037,113.875 274.549,113.442 274.767,113.442 C274.986,113.442 275.498,113.875 276.037,114.953 C276.768,116.415 277.209,118.503 277.209,120.767 C277.209,123.032 276.768,125.12 276.037,126.582 C275.498,127.66 274.986,128.093 274.767,128.093 C274.549,128.093 274.037,127.66 273.498,126.582 C272.767,125.12 272.326,123.032 272.326,120.767 Z M267.442,120.767 C267.442,127.337 270.262,132.977 274.767,132.977 C279.273,132.977 282.093,127.337 282.093,120.767 C282.093,114.197 279.273,108.558 274.767,108.558 C270.262,108.558 267.442,114.197 267.442,120.767 Z" />
            <path d="M255.233,141.116 C249.755,141.116 244.651,132.185 244.651,120.767 C244.651,109.35 249.755,100.419 255.233,100.419 C256.581,100.419 257.674,99.325 257.674,97.977 C257.674,96.628 256.581,95.535 255.233,95.535 C246.325,95.535 239.767,107.011 239.767,120.767 C239.767,134.524 246.325,146 255.233,146 C256.581,146 257.674,144.907 257.674,143.558 C257.674,142.21 256.581,141.116 255.233,141.116 Z" />
            <path d="M274.767,95.535 L255.233,95.535 C253.884,95.535 252.791,96.628 252.791,97.977 C252.791,99.325 253.884,100.419 255.233,100.419 L274.767,100.419 C276.116,100.419 277.209,99.325 277.209,97.977 C277.209,96.628 276.116,95.535 274.767,95.535 Z" />
            <path d="M274.767,141.116 L255.233,141.116 C253.884,141.116 252.791,142.21 252.791,143.558 C252.791,144.907 253.884,146 255.233,146 L274.767,146 C276.116,146 277.209,144.907 277.209,143.558 C277.209,142.21 276.116,141.116 274.767,141.116 Z" />
            <path d="M261.744,116.698 L242.209,116.698 C240.861,116.698 239.767,117.791 239.767,119.14 C239.767,120.488 240.861,121.581 242.209,121.581 L261.744,121.581 C263.093,121.581 264.186,120.488 264.186,119.14 C264.186,117.791 263.093,116.698 261.744,116.698 Z" />
            <path d="M263.372,105.302 L245.465,105.302 C244.117,105.302 243.023,106.396 243.023,107.744 C243.023,109.093 244.117,110.186 245.465,110.186 L263.372,110.186 C264.721,110.186 265.814,109.093 265.814,107.744 C265.814,106.396 264.721,105.302 263.372,105.302 Z" />
            <path d="M263.372,129.721 L245.465,129.721 C244.117,129.721 243.023,130.814 243.023,132.163 C243.023,133.511 244.117,134.605 245.465,134.605 L263.372,134.605 C264.721,134.605 265.814,133.511 265.814,132.163 C265.814,130.814 264.721,129.721 263.372,129.721 Z" />
        </g>
        <g id="Regular-S">
            <path d="M430.715,80.169 C431.111,80.565 431.834,81.184 432.897,81.95 C434.612,83.184 436.692,84.408 439.151,85.543 C446.083,88.742 454.674,90.651 465,90.651 C475.326,90.651 483.917,88.742 490.849,85.543 C493.308,84.408 495.388,83.184 497.103,81.95 C498.166,81.184 498.889,80.565 499.285,80.169 C500.238,79.215 500.238,77.669 499.285,76.715 C498.331,75.762 496.785,75.762 495.831,76.715 C495.617,76.93 495.094,77.378 494.249,77.986 C492.784,79.041 490.973,80.107 488.802,81.108 C482.508,84.014 474.616,85.767 465,85.767 C455.384,85.767 447.492,84.014 441.198,81.108 C439.027,80.107 437.216,79.041 435.751,77.986 C434.906,77.378 434.383,76.93 434.169,76.715 C433.215,75.762 431.669,75.762 430.715,76.715 C429.762,77.669 429.762,79.215 430.715,80.169 Z" />
            <path d="M462.558,88.209 L462.558,97.977 C462.558,99.325 463.651,100.419 465,100.419 C466.349,100.419 467.442,99.325 467.442,97.977 L467.442,88.209 C467.442,86.861 466.349,85.767 465,85.767 C463.651,85.767 462.558,86.861 462.558,88.209 Z" />
            <path d="M464.186,120.767 C464.186,109.35 469.29,100.419 474.767,100.419 C480.245,100.419 485.349,109.35 485.349,120.767 C485.349,132.185 480.245,141.116 474.767,141.116 C469.29,141.116 464.186,132.185 464.186,120.767 Z M459.302,120.767 C459.302,134.524 465.86,146 474.767,146 C483.675,146 490.233,134.524 490.233,120.767 C490.233,107.011 483.675,95.535 474.767,95.535 C465.86,95.535 459.302,107.011 459.302,120.767 Z" />
            <path d="M472.326,120.767 C472.326,118.503 472.767,116.415 473.498,114.953 C474.037,113.875 474.549,113.442 474.767,113.442 C474.986,113.442 475.498,113.875 476.037,114.953 C476.768,116.415 477.209,118.503 477.209,120.767 C477.209,123.032 476.768,125.12 476.037,126.582 C475.498,127.66 474.986,128.093 474.767,128.093 C474.549,128.093 474.037,127.66 473.498,126.582 C472.767,125.12 472.326,123.032 472.326,120.767 Z M467.442,120.767 C467.442,127.337 470.262,132.977 474.767,132.977 C479.273,132.977 482.093,127.337 482.093,120.767 C482.093,114.197 479.273,108.558 474.767,108.558 C470.262,108.558 467.442,114.197 467.442,120.767 Z" />
            <path d="M455.233,141.116 C449.755,141.116 444.651,132.185 444.651,120.767 C444.651,109.35 449.755,100.419 455.233,100.419 C456.581,100.419 457.674,99.325 457.674,97.977 C457.674,96.628 456.581,95.535 455.233,95.535 C446.325,95.535 439.767,107.011 439.767,120.767 C439.767,134.524 446.325,146 455.233,146 C456.581,146 457.674,144.907 457.674,143.558 C457.674,142.21 456.581,141.116 455.233,141.116 Z" />
            <path d="M474.767,95.535 L455.233,95.535 C453.884,95.535 452.791,96.628 452.791,97.977 C452.791,99.325 453.884,100.419 455.233,100.419 L474.767,100.419 C476.116,100.419 477.209,99.325 477.209,97.977 C477.209,96.628 476.116,95.535 474.767,95.535 Z" />
            <path d="M474.767,141.116 L455.233,141.116 C453.884,141.116 452.791,142.21 452.791,143.558 C452.791,144.907 453.884,146 455.233,146 L474.767,146 C476.116,146 477.209,144.907 477.209,143.558 C477.209,142.21 476.116,141.116 474.767,141.116 Z" />
            <path d="M461.744,116.698 L442.209,116.698 C440.861,116.698 439.767,117.791 439.767,119.14 C439.767,120.488 440.861,121.581 442.209,121.581 L461.744,121.581 C463.093,121.581 464.186,120.488 464.186,119.14 C464.186,117.791 463.093,116.698 461.744,116.698 Z" />
            <path d="M463.372,105.302 L445.465,105.302 C444.117,105.302 443.023,106.396 443.023,107.744 C443.023,109.093 444.117,110.186 445.465,110.186 L463.372,110.186 C464.721,110.186 465.814,109.093 465.814,107.744 C465.814,106.396 464.721,105.302 463.372,105.302 Z" />
            <path d="M463.372,129.721 L445.465,129.721 C444.117,129.721 443.023,130.814 443.023,132.163 C443.023,133.511 444.117,134.605 445.465,134.605 L463.372,134.605 C464.721,134.605 465.814,133.511 465.814,132.163 C465.814,130.814 464.721,129.721 463.372,129.721 Z" />
        </g>
        <g id="Black-S">
            <path d="M630.715,80.169 C631.111,80.565 631.834,81.184 632.897,81.95 C634.612,83.184 636.692,84.408 639.151,85.543 C646.083,88.742 654.674,90.651 665,90.651 C675.326,90.651 683.917,88.742 690.849,85.543 C693.308,84.408 695.388,83.184 697.103,81.95 C698.166,81.184 698.889,80.565 699.285,80.169 C700.238,79.215 700.238,77.669 699.285,76.715 C698.331,75.762 696.785,75.762 695.831,76.715 C695.617,76.93 695.094,77.378 694.249,77.986 C692.784,79.041 690.973,80.107 688.802,81.108 C682.508,84.014 674.616,85.767 665,85.767 C655.384,85.767 647.492,84.014 641.198,81.108 C639.027,80.107 637.216,79.041 635.751,77.986 C634.906,77.378 634.383,76.93 634.169,76.715 C633.215,75.762 631.669,75.762 630.715,76.715 C629.762,77.669 629.762,79.215 630.715,80.169 Z" />
            <path d="M662.558,88.209 L662.558,97.977 C662.558,99.325 663.651,100.419 665,100.419 C666.349,100.419 667.442,99.325 667.442,97.977 L667.442,88.209 C667.442,86.861 666.349,85.767 665,85.767 C663.651,85.767 662.558,86.861 662.558,88.209 Z" />
            <path d="M664.186,120.767 C664.186,109.35 669.29,100.419 674.767,100.419 C680.245,100.419 685.349,109.35 685.349,120.767 C685.349,132.185 680.245,141.116 674.767,141.116 C669.29,141.116 664.186,132.185 664.186,120.767 Z M659.302,120.767 C659.302,134.524 665.86,146 674.767,146 C683.675,146 690.233,134.524 690.233,120.767 C690.233,107.011 683.675,95.535 674.767,95.535 C665.86,95.535 659.302,107.011 659.302,120.767 Z" />
            <path d="M672.326,120.767 C672.326,118.503 672.767,116.415 673.498,114.953 C674.037,113.875 674.549,113.442 674.767,113.442 C674.986,113.442 675.498,113.875 676.037,114.953 C676.768,116.415 677.209,118.503 677.209,120.767 C677.209,123.032 676.768,125.12 676.037,126.582 C675.498,127.66 674.986,128.093 674.767,128.093 C674.549,128.093 674.037,127.66 673.498,126.582 C672.767,125.12 672.326,123.032 672.326,120.767 Z M667.442,120.767 C667.442,127.337 670.262,132.977 674.767,132.977 C679.273,132.977 682.093,127.337 682.093,120.767 C682.093,114.197 679.273,108.558 674.767,108.558 C670.262,108.558 667.442,114.197 667.442,120.767 Z" />
            <path d="M655.233,141.116 C649.755,141.116 644.651,132.185 644.651,120.767 C644.651,109.35 649.755,100.419 655.233,100.419 C656.581,100.419 657.674,99.325 657.674,97.977 C657.674,96.628 656.581,95.535 655.233,95.535 C646.325,95.535 639.767,107.011 639.767,120.767 C639.767,134.524 646.325,146 655.233,146 C656.581,146 657.674,144.907 657.674,143.558 C657.674,142.21 656.581,141.116 655.233,141.116 Z" />
            <path d="M674.767,95.535 L655.233,95.535 C653.884,95.535 652.791,96.628 652.791,97.977 C652.791,99.325 653.884,100.419 655.233,100.419 L674.767,100.419 C676.116,100.419 677.209,99.325 677.209,97.977 C677.209,96.628 676.116,95.535 674.767,95.535 Z" />
            <path d="M674.767,141.116 L655.233,141.116 C653.884,141.116 652.791,142.21 652.791,143.558 C652.791,144.907 653.884,146 655.233,146 L674.767,146 C676.116,146 677.209,144.907 677.209,143.558 C677.209,142.21 676.116,141.116 674.767,141.116 Z" />
            <path d="M661.744,116.698 L642.209,116.698 C640.861,116.698 639.767,117.791 639.767,119.14 C639.767,120.488 640.861,121.581 642.209,121.581 L661.744,121.581 C663.093,121.581 664.186,120.488 664.186,119.14 C664.186,117.791 663.093,116.698 661.744,116.698 Z" />
            <path d="M663.372,105.302 L645.465,105.302 C644.117,105.302 643.023,106.396 643.023,107.744 C643.023,109.093 644.117,110.186 645.465,110.186 L663.372,110.186 C664.721,110.186 665.814,109.093 665.814,107.744 C665.814,106.396 664.721,105.302 663.372,105.302 Z" />
            <path d="M663.372,129.721 L645.465,129.721 C644.117,129.721 643.023,130.814 643.023,132.163 C643.023,133.511 644.117,134.605 645.465,134.605 L663.372,134.605 C664.721,134.605 665.814,133.511 665.814,132.163 C665.814,130.814 664.721,129.721 663.372,129.721 Z" />
        </g>
    </g>
</svg>