<?xml version="1.0" encoding="UTF-8"?>
<svg height="600" width="800" xmlns="http://www.w3.org/2000/svg" xmlns:xlink="http://www.w3.org/1999/xlink">
    <g id="Notes" font-family="'LucidaGrande', 'Lucida Grande', sans-serif" font-size="13">
        <rect fill="white" height="600.0" width="800.0" x="0.0" y="0.0" />
        <g font-size="13">
            <text x="18.0" y="176.0">Small</text>
            <text x="18.0" y="376.0">Medium</text>
            <text x="18.0" y="576.0">Large</text>
        </g>
        <g font-size="9">
            <text x="250.0" y="30.0">Ultralight</text>
            <text x="450.0" y="30.0">Regular</text>
            <text x="650.0" y="30.0">Black</text>
            <text id="template-version" fill="#505050" text-anchor="end" x="785.0" y="575.0">Template v.3.0</text>
            <a href="https://github.com/swhitty/SwiftDraw">
                <text fill="#505050" text-anchor="end" x="785.0" y="590.0">https://github.com/swhitty/SwiftDraw</text>
            </a>
        </g>
    </g>
    <g id="Guides" stroke="rgb(39, 170, 225)" stroke-width="0.5">
        <path id="Capline-S" d="M18,76 l800,0" />
        <path id="H-reference" d="M85,145.755 L87.685,145.755 L113.369,79.287 L114.052,79.287 L114.052,76 L112.148,76 L85,145.755 Z M95.693,121.536 L130.996,121.536 L130.263,119.313 L96.474,119.313 L95.693,121.536 Z M139.15,145.755 L141.787,145.755 L114.638,76 L113.466,76 L113.466,79.287 L139.15,145.755 Z" stroke="none" />
        <path id="Baseline-S" d="M18,146 l800,0" />
        <path id="left-margin-Ultralight-S" d="M220,56 l0,110" />
        <path id="right-margin-Ultralight-S" d="M310,56 l0,110" />
        <path id="left-margin-Regular-S" d="M420,56 l0,110" />
        <path id="right-margin-Regular-S" d="M510,56 l0,110" />
        <path id="left-margin-Black-S" d="M620,56 l0,110" />
        <path id="right-margin-Black-S" d="M710,56 l0,110" />
        <path id="Capline-M" d="M18,276 l800,0" />
        <path id="Baseline-M" d="M18,346 l800,0" />
        <path id="Capline-L" d="M18,476 l800,0" />
        <path id="Baseline-L" d="M18,546 l800,0" />
    </g>
    <g id="Symbols">
        <g id="Ultralight-S">
            <path d="M294.615,111 L294.615,137.923 C294.615,138.637 294.332,139.322 293.827,139.827 C293.322,140.332 292.637,140.615 291.923,140.615 L238.077,140.615 C237.363,140.615 236.678,140.332 236.173,139.827 C235.668,139.322 235.385,138.637 235.385,137.923 L235.385,84.077 C235.385,83.363 235.668,82.678 236.173,82.173 C236.678,81.668 237.363,81.385 238.077,81.385 L291.923,81.385 C292.637,81.385 293.322,81.668 293.827,82.173 C294.332,82.678 294.615,83.363 294.615,84.077 L294.615,111 Z M300,111 L300,84.077 C300,81.935 299.149,79.88 297.634,78.366 C296.12,76.851 294.065,76 291.923,76 L238.077,76 C235.935,76 233.88,76.851 232.366,78.366 C230.851,79.88 230,81.935 230,84.077 L230,137.923 C230,140.065 230.851,142.12 232.366,143.634 C233.88,145.149 235.935,146 238.077,146 L291.923,146 C294.065,146 296.12,145.149 297.634,143.634 C299.149,142.12 300,140.065 300,137.923 L300,111 Z" />
            <path d="M282.949,108.308 L247.051,108.308 C245.564,108.308 244.359,109.513 244.359,111 C244.359,112.487 245.564,113.692 247.051,113.692 L282.949,113.692 C284.436,113.692 285.641,112.487 285.641,111 C285.641,109.513 284.436,108.308 282.949,108.308 Z" />
            <path d="M282.949,92.154 L247.051,92.154 C245.564,92.154 244.359,93.359 244.359,94.846 C244.359,96.333 245.564,97.538 247.051,97.538 L282.949,97.538 C284.436,97.538 285.641,96.333 285.641,94.846 C285.641,93.359 284.436,92.154 282.949,92.154 Z" />
            <path d="M282.949,124.462 L247.051,124.462 C245.564,124.462 244.359,125.667 244.359,127.154 C244.359,128.641 245.564,129.846 247.051,129.846 L282.949,129.846 C284.436,129.846 285.641,128.641 285.641,127.154 C285.641,125.667 284.436,124.462 282.949,124.462 Z" />
        </g>
        <g id="Regular-S">
            <path d="M494.615,111 L494.615,137.923 C494.615,138.637 494.332,139.322 493.827,139.827 C493.322,140.332 492.637,140.615 491.923,140.615 L438.077,140.615 C437.363,140.615 436.678,140.332 436.173,139.827 C435.668,139.322 435.385,138.637 435.385,137.923 L435.385,84.077 C435.385,83.363 435.668,82.678 436.173,82.173 C436.678,81.668 437.363,81.385 438.077,81.385 L491.923,81.385 C492.637,81.385 493.322,81.668 493.827,82.173 C494.332,82.678 494.615,83.363 494.615,84.077 L494.615,111 Z M500,111 L500,84.077 C500,81.935 499.149,79.88 497.634,78.366 C496.12,76.851 494.065,76 491.923,76 L438.077,76 C435.935,76 433.88,76.851 432.366,78.366 C430.851,79.88 430,81.935 430,84.077 L430,137.923 C430,140.065 430.851,142.12 432.366,143.634 C433.88,145.149 435.935,146 438.077,146 L491.923,146 C494.065,146 496.12,145.149 497.634,143.634 C499.149,142.12 500,140.065 500,137.923 L500,111 Z" />
            <path d="M482.949,108.308 L447.051,108.308 C445.564,108.308 444.359,109.513 444.359,111 C444.359,112.487 445.564,113.692 447.051,113.692 L482.949,113.692 C484.436,113.692 485.641,112.487 485.641,111 C485.641,109.513 484.436,108.308 482.949,108.308 Z" />
            <path d="M482.949,92.154 L447.051,92.154 C445.564,92.154 444.359,93.359 444.359,94.846 C444.359,96.333 445.564,97.538 447.051,97.538 L482.949,97.538 C484.436,97.538 485.641,96.333 485.641,94.846 C485.641,93.359 484.436,92.154 482.949,92.154 Z" />
            <path d="M482.949,124.462 L447.051,124.462 C445.564,124.462 444.359,125.667 444.359,127.154 C444.359,128.641 445.564,129.846 447.051,129.846 L482.949,129.846 C484.436,129.846 485.641,128.641 485.641,127.154 C485.641,125.667 484.436,124.462 482.949,124.462 Z" />
        </g>
        <g id="Black-S">
            <path d="M694.615,111 L694.615,137.923 C694.615,138.637 694.332,139.322 693.827,139.827 C693.322,140.332 692.637,140.615 691.923,140.615 L638.077,140.615 C637.363,140.615 636.678,140.332 636.173,139.827 C635.668,139.322 635.385,138.637 635.385,137.923 L635.385,84.077 C635.385,83.363 635.668,82.678 636.173,82.173 C636.678,81.668 637.363,81.385 638.077,81.385 L691.923,81.385 C692.637,81.385 693.322,81.668 693.827,82.173 C694.332,82.678 694.615,83.363 694.615,84.077 L694.615,111 Z M700,111 L700,84.077 C700,81.935 699.149,79.88 697.634,78.366 C696.12,76.851 694.065,76 691.923,76 L638.077,76 C635.935,76 633.88,76.851 632.366,78.366 C630.851,79.88 630,81.935 630,84.077 L630,137.923 C630,140.065 630.851,142.12 632.366,143.634 C633.88,145.149 635.935,146 638.077,146 L691.923,146 C694.065,146 696.12,145.149 697.634,143.634 C699.149,142.12 700,140.065 700,137.923 L700,111 Z" />
            <path d="M682.949,108.308 L647.051,108.308 C645.564,108.308 644.359,109.513 644.359,111 C644.359,112.487 645.564,113.692 647.051,113.692 L682.949,113.692 C684.436,113.692 685.641,112.487 685.641,111 C685.641,109.513 684.436,108.308 682.949,108.308 Z" />
            <path d="M682.949,92.154 L647.051,92.154 C645.564,92.154 644.359,93.359 644.359,94.846 C644.359,96.333 645.564,97.538 647.051,97.538 L682.949,97.538 C684.436,97.538 685.641,96.333 685.641,94.846 C685.641,93.359 684.436,92.154 682.949,92.154 Z" />
            <path d="M682.949,124.462 L647.051,124.462 C645.564,124.462 644.359,125.667 644.359,127.154 C644.359,128.641 645.564,129.846 647.051,129.846 L682.949,129.846 C684.436,129.846 685.641,128.641 685.641,127.154 C685.641,125.667 684.436,124.462 682.949,124.462 Z" />
        </g>
    </g>
</svg>