<?xml version="1.0" encoding="UTF-8"?>
<svg height="600" width="800" xmlns="http://www.w3.org/2000/svg" xmlns:xlink="http://www.w3.org/1999/xlink">
    <g id="Notes" font-family="'LucidaGrande', 'Lucida Grande', sans-serif" font-size="13">
        <rect fill="white" height="600.0" width="800.0" x="0.0" y="0.0" />
        <g font-size="13">
            <text x="18.0" y="176.0">Small</text>
            <text x="18.0" y="376.0">Medium</text>
            <text x="18.0" y="576.0">Large</text>
        </g>
        <g font-size="9">
            <text x="250.0" y="30.0">Ultralight</text>
            <text x="450.0" y="30.0">Regular</text>
            <text x="650.0" y="30.0">Black</text>
            <text id="template-version" fill="#505050" text-anchor="end" x="785.0" y="575.0">Template v.3.0</text>
            <a href="https://github.com/swhitty/SwiftDraw">
                <text fill="#505050" text-anchor="end" x="785.0" y="590.0">https://github.com/swhitty/SwiftDraw</text>
            </a>
        </g>
    </g>
    <g id="Guides" stroke="rgb(39, 170, 225)" stroke-width="0.5">
        <path id="Capline-S" d="M18,76 l800,0" />
        <path id="H-reference" d="M85,145.755 L87.685,145.755 L113.369,79.287 L114.052,79.287 L114.052,76 L112.148,76 L85,145.755 Z M95.693,121.536 L130.996,121.536 L130.263,119.313 L96.474,119.313 L95.693,121.536 Z M139.15,145.755 L141.787,145.755 L114.638,76 L113.466,76 L113.466,79.287 L139.15,145.755 Z" stroke="none" />
        <path id="Baseline-S" d="M18,146 l800,0" />
        <path id="left-margin-Ultralight-S" d="M220,56 l0,110" />
        <path id="right-margin-Ultralight-S" d="M310,56 l0,110" />
        <path id="left-margin-Regular-S" d="M420,56 l0,110" />
        <path id="right-margin-Regular-S" d="M510,56 l0,110" />
        <path id="left-margin-Black-S" d="M620,56 l0,110" />
        <path id="right-margin-Black-S" d="M710,56 l0,110" />
        <path id="Capline-M" d="M18,276 l800,0" />
        <path id="Baseline-M" d="M18,346 l800,0" />
        <path id="Capline-L" d="M18,476 l800,0" />
        <path id="Baseline-L" d="M18,546 l800,0" />
    </g>
    <g id="Symbols">
        <g id="Ultralight-S">
            <path d="M295.116,97.977 C295.116,107.417 287.463,115.07 278.023,115.07 C275.196,115.07 272.473,114.385 270.033,113.092 C269.086,112.59 267.922,112.765 267.163,113.523 L238.855,141.831 L242.308,141.831 L234.169,133.692 L234.169,137.145 L262.477,108.837 C263.235,108.078 263.41,106.914 262.908,105.967 C261.615,103.527 260.93,100.804 260.93,97.977 C260.93,88.537 268.583,80.884 278.023,80.884 C280.85,80.884 283.573,81.569 286.013,82.862 L285.43,78.977 L273.041,91.366 C272.087,92.32 272.087,93.866 273.041,94.82 L281.18,102.959 C282.134,103.913 283.68,103.913 284.634,102.959 L297.023,90.57 L293.138,89.987 C294.431,92.427 295.116,95.15 295.116,97.977 Z M300,97.977 C300,94.348 299.117,90.841 297.454,87.7 C296.685,86.249 294.731,85.955 293.569,87.117 L281.18,99.506 L284.634,99.506 L276.494,91.366 L276.494,94.82 L288.883,82.431 C290.045,81.269 289.751,79.315 288.3,78.546 C285.16,76.882 281.652,76 278.023,76 C265.886,76 256.047,85.839 256.047,97.977 C256.047,101.606 256.929,105.113 258.593,108.253 L259.024,105.383 L230.715,133.692 C229.762,134.646 229.762,136.192 230.715,137.145 L238.855,145.285 C239.808,146.238 241.354,146.238 242.308,145.285 L270.617,116.976 L267.747,117.407 C270.887,119.071 274.394,119.953 278.023,119.953 C290.161,119.953 300,110.114 300,97.977 Z" />
        </g>
        <g id="Regular-S">
            <path d="M495.116,97.977 C495.116,107.417 487.463,115.07 478.023,115.07 C475.196,115.07 472.473,114.385 470.033,113.092 C469.086,112.59 467.922,112.765 467.163,113.523 L438.855,141.831 L442.308,141.831 L434.169,133.692 L434.169,137.145 L462.477,108.837 C463.235,108.078 463.41,106.914 462.908,105.967 C461.615,103.527 460.93,100.804 460.93,97.977 C460.93,88.537 468.583,80.884 478.023,80.884 C480.85,80.884 483.573,81.569 486.013,82.862 L485.43,78.977 L473.041,91.366 C472.087,92.32 472.087,93.866 473.041,94.82 L481.18,102.959 C482.134,103.913 483.68,103.913 484.634,102.959 L497.023,90.57 L493.138,89.987 C494.431,92.427 495.116,95.15 495.116,97.977 Z M500,97.977 C500,94.348 499.117,90.841 497.454,87.7 C496.685,86.249 494.731,85.955 493.569,87.117 L481.18,99.506 L484.634,99.506 L476.494,91.366 L476.494,94.82 L488.883,82.431 C490.045,81.269 489.751,79.315 488.3,78.546 C485.16,76.882 481.652,76 478.023,76 C465.886,76 456.047,85.839 456.047,97.977 C456.047,101.606 456.929,105.113 458.593,108.253 L459.024,105.383 L430.715,133.692 C429.762,134.646 429.762,136.192 430.715,137.145 L438.855,145.285 C439.808,146.238 441.354,146.238 442.308,145.285 L470.617,116.976 L467.747,117.407 C470.887,119.071 474.394,119.953 478.023,119.953 C490.161,119.953 500,110.114 500,97.977 Z" />
        </g>
        <g id="Black-S">
            <path d="M695.116,97.977 C695.116,107.417 687.463,115.07 678.023,115.07 C675.196,115.07 672.473,114.385 670.033,113.092 C669.086,112.59 667.922,112.765 667.163,113.523 L638.855,141.831 L642.308,141.831 L634.169,133.692 L634.169,137.145 L662.477,108.837 C663.235,108.078 663.41,106.914 662.908,105.967 C661.615,103.527 660.93,100.804 660.93,97.977 C660.93,88.537 668.583,80.884 678.023,80.884 C680.85,80.884 683.573,81.569 686.013,82.862 L685.43,78.977 L673.041,91.366 C672.087,92.32 672.087,93.866 673.041,94.82 L681.18,102.959 C682.134,103.913 683.68,103.913 684.634,102.959 L697.023,90.57 L693.138,89.987 C694.431,92.427 695.116,95.15 695.116,97.977 Z M700,97.977 C700,94.348 699.117,90.841 697.454,87.7 C696.685,86.249 694.731,85.955 693.569,87.117 L681.18,99.506 L684.634,99.506 L676.494,91.366 L676.494,94.82 L688.883,82.431 C690.045,81.269 689.751,79.315 688.3,78.546 C685.16,76.882 681.652,76 678.023,76 C665.886,76 656.047,85.839 656.047,97.977 C656.047,101.606 656.929,105.113 658.593,108.253 L659.024,105.383 L630.715,133.692 C629.762,134.646 629.762,136.192 630.715,137.145 L638.855,145.285 C639.808,146.238 641.354,146.238 642.308,145.285 L670.617,116.976 L667.747,117.407 C670.887,119.071 674.394,119.953 678.023,119.953 C690.161,119.953 700,110.114 700,97.977 Z" />
        </g>
    </g>
</svg>