<?xml version="1.0" encoding="UTF-8"?>
<svg height="600" width="800" xmlns="http://www.w3.org/2000/svg" xmlns:xlink="http://www.w3.org/1999/xlink">
    <g id="Notes" font-family="'LucidaGrande', 'Lucida Grande', sans-serif" font-size="13">
        <rect fill="white" height="600.0" width="800.0" x="0.0" y="0.0" />
        <g font-size="13">
            <text x="18.0" y="176.0">Small</text>
            <text x="18.0" y="376.0">Medium</text>
            <text x="18.0" y="576.0">Large</text>
        </g>
        <g font-size="9">
            <text x="250.0" y="30.0">Ultralight</text>
            <text x="450.0" y="30.0">Regular</text>
            <text x="650.0" y="30.0">Black</text>
            <text id="template-version" fill="#505050" text-anchor="end" x="785.0" y="575.0">Template v.3.0</text>
            <a href="https://github.com/swhitty/SwiftDraw">
                <text fill="#505050" text-anchor="end" x="785.0" y="590.0">https://github.com/swhitty/SwiftDraw</text>
            </a>
        </g>
    </g>
    <g id="Guides" stroke="rgb(39, 170, 225)" stroke-width="0.5">
        <path id="Capline-S" d="M18,76 l800,0" />
        <path id="H-reference" d="M85,145.755 L87.685,145.755 L113.369,79.287 L114.052,79.287 L114.052,76 L112.148,76 L85,145.755 Z M95.693,121.536 L130.996,121.536 L130.263,119.313 L96.474,119.313 L95.693,121.536 Z M139.15,145.755 L141.787,145.755 L114.638,76 L113.466,76 L113.466,79.287 L139.15,145.755 Z" stroke="none" />
        <path id="Baseline-S" d="M18,146 l800,0" />
        <path id="left-margin-Ultralight-S" d="M221,56 l0,110" />
        <path id="right-margin-Ultralight-S" d="M309,56 l0,110" />
        <path id="left-margin-Regular-S" d="M421,56 l0,110" />
        <path id="right-margin-Regular-S" d="M509,56 l0,110" />
        <path id="left-margin-Black-S" d="M621,56 l0,110" />
        <path id="right-margin-Black-S" d="M709,56 l0,110" />
        <path id="Capline-M" d="M18,276 l800,0" />
        <path id="Baseline-M" d="M18,346 l800,0" />
        <path id="Capline-L" d="M18,476 l800,0" />
        <path id="Baseline-L" d="M18,546 l800,0" />
    </g>
    <g id="Symbols">
        <g id="Ultralight-S">
            <path d="M296.744,114.256 L296.744,107.744 C296.744,90.212 282.532,76 265,76 C247.468,76 233.256,90.212 233.256,107.744 L233.256,114.256 C233.256,115.604 234.349,116.698 235.698,116.698 C237.046,116.698 238.14,115.604 238.14,114.256 L238.14,107.744 C238.14,92.91 250.165,80.884 265,80.884 C279.835,80.884 291.86,92.91 291.86,107.744 L291.86,114.256 C291.86,115.604 292.954,116.698 294.302,116.698 C295.651,116.698 296.744,115.604 296.744,114.256 Z" />
            <path d="M280.465,115.884 L280.465,91.465 C280.465,82.924 273.541,76 265,76 C256.459,76 249.535,82.924 249.535,91.465 L249.535,115.884 C249.535,117.232 250.628,118.326 251.977,118.326 C253.325,118.326 254.419,117.232 254.419,115.884 L254.419,91.465 C254.419,85.621 259.156,80.884 265,80.884 C270.844,80.884 275.581,85.621 275.581,91.465 L275.581,115.884 C275.581,117.232 276.675,118.326 278.023,118.326 C279.372,118.326 280.465,117.232 280.465,115.884 Z" />
            <path d="M262.558,111 L262.558,133.791 C262.558,140.534 268.024,146 274.767,146 C281.51,146 286.977,140.534 286.977,133.791 L286.977,129.088 C286.977,127.739 285.883,126.646 284.535,126.646 C283.186,126.646 282.093,127.739 282.093,129.088 L282.093,133.791 C282.093,137.836 278.813,141.116 274.767,141.116 C270.722,141.116 267.442,137.836 267.442,133.791 L267.442,111 C267.442,109.651 266.349,108.558 265,108.558 C263.651,108.558 262.558,109.651 262.558,111 Z" />
            <path d="M245.465,113.442 L294.302,113.442 C295.651,113.442 296.744,112.349 296.744,111 C296.744,109.651 295.651,108.558 294.302,108.558 L245.465,108.558 C244.117,108.558 243.023,109.651 243.023,111 C243.023,112.349 244.117,113.442 245.465,113.442 Z" />
        </g>
        <g id="Regular-S">
            <path d="M496.744,114.256 L496.744,107.744 C496.744,90.212 482.532,76 465,76 C447.468,76 433.256,90.212 433.256,107.744 L433.256,114.256 C433.256,115.604 434.349,116.698 435.698,116.698 C437.046,116.698 438.14,115.604 438.14,114.256 L438.14,107.744 C438.14,92.91 450.165,80.884 465,80.884 C479.835,80.884 491.86,92.91 491.86,107.744 L491.86,114.256 C491.86,115.604 492.954,116.698 494.302,116.698 C495.651,116.698 496.744,115.604 496.744,114.256 Z" />
            <path d="M480.465,115.884 L480.465,91.465 C480.465,82.924 473.541,76 465,76 C456.459,76 449.535,82.924 449.535,91.465 L449.535,115.884 C449.535,117.232 450.628,118.326 451.977,118.326 C453.325,118.326 454.419,117.232 454.419,115.884 L454.419,91.465 C454.419,85.621 459.156,80.884 465,80.884 C470.844,80.884 475.581,85.621 475.581,91.465 L475.581,115.884 C475.581,117.232 476.675,118.326 478.023,118.326 C479.372,118.326 480.465,117.232 480.465,115.884 Z" />
            <path d="M462.558,111 L462.558,133.791 C462.558,140.534 468.024,146 474.767,146 C481.51,146 486.977,140.534 486.977,133.791 L486.977,129.088 C486.977,127.739 485.883,126.646 484.535,126.646 C483.186,126.646 482.093,127.739 482.093,129.088 L482.093,133.791 C482.093,137.836 478.813,141.116 474.767,141.116 C470.722,141.116 467.442,137.836 467.442,133.791 L467.442,111 C467.442,109.651 466.349,108.558 465,108.558 C463.651,108.558 462.558,109.651 462.558,111 Z" />
            <path d="M445.465,113.442 L494.302,113.442 C495.651,113.442 496.744,112.349 496.744,111 C496.744,109.651 495.651,108.558 494.302,108.558 L445.465,108.558 C444.117,108.558 443.023,109.651 443.023,111 C443.023,112.349 444.117,113.442 445.465,113.442 Z" />
        </g>
        <g id="Black-S">
            <path d="M696.744,114.256 L696.744,107.744 C696.744,90.212 682.532,76 665,76 C647.468,76 633.256,90.212 633.256,107.744 L633.256,114.256 C633.256,115.604 634.349,116.698 635.698,116.698 C637.046,116.698 638.14,115.604 638.14,114.256 L638.14,107.744 C638.14,92.91 650.165,80.884 665,80.884 C679.835,80.884 691.86,92.91 691.86,107.744 L691.86,114.256 C691.86,115.604 692.954,116.698 694.302,116.698 C695.651,116.698 696.744,115.604 696.744,114.256 Z" />
            <path d="M680.465,115.884 L680.465,91.465 C680.465,82.924 673.541,76 665,76 C656.459,76 649.535,82.924 649.535,91.465 L649.535,115.884 C649.535,117.232 650.628,118.326 651.977,118.326 C653.325,118.326 654.419,117.232 654.419,115.884 L654.419,91.465 C654.419,85.621 659.156,80.884 665,80.884 C670.844,80.884 675.581,85.621 675.581,91.465 L675.581,115.884 C675.581,117.232 676.675,118.326 678.023,118.326 C679.372,118.326 680.465,117.232 680.465,115.884 Z" />
            <path d="M662.558,111 L662.558,133.791 C662.558,140.534 668.024,146 674.767,146 C681.51,146 686.977,140.534 686.977,133.791 L686.977,129.088 C686.977,127.739 685.883,126.646 684.535,126.646 C683.186,126.646 682.093,127.739 682.093,129.088 L682.093,133.791 C682.093,137.836 678.813,141.116 674.767,141.116 C670.722,141.116 667.442,137.836 667.442,133.791 L667.442,111 C667.442,109.651 666.349,108.558 665,108.558 C663.651,108.558 662.558,109.651 662.558,111 Z" />
            <path d="M645.465,113.442 L694.302,113.442 C695.651,113.442 696.744,112.349 696.744,111 C696.744,109.651 695.651,108.558 694.302,108.558 L645.465,108.558 C644.117,108.558 643.023,109.651 643.023,111 C643.023,112.349 644.117,113.442 645.465,113.442 Z" />
        </g>
    </g>
</svg>