<?xml version="1.0" encoding="UTF-8"?>
<svg height="600" width="800" xmlns="http://www.w3.org/2000/svg" xmlns:xlink="http://www.w3.org/1999/xlink">
    <g id="Notes" font-family="'LucidaGrande', 'Lucida Grande', sans-serif" font-size="13">
        <rect fill="white" height="600.0" width="800.0" x="0.0" y="0.0" />
        <g font-size="13">
            <text x="18.0" y="176.0">Small</text>
            <text x="18.0" y="376.0">Medium</text>
            <text x="18.0" y="576.0">Large</text>
        </g>
        <g font-size="9">
            <text x="250.0" y="30.0">Ultralight</text>
            <text x="450.0" y="30.0">Regular</text>
            <text x="650.0" y="30.0">Black</text>
            <text id="template-version" fill="#505050" text-anchor="end" x="785.0" y="575.0">Template v.3.0</text>
            <a href="https://github.com/swhitty/SwiftDraw">
                <text fill="#505050" text-anchor="end" x="785.0" y="590.0">https://github.com/swhitty/SwiftDraw</text>
            </a>
        </g>
    </g>
    <g id="Guides" stroke="rgb(39, 170, 225)" stroke-width="0.5">
        <path id="Capline-S" d="M18,76 l800,0" />
        <path id="H-reference" d="M85,145.755 L87.685,145.755 L113.369,79.287 L114.052,79.287 L114.052,76 L112.148,76 L85,145.755 Z M95.693,121.536 L130.996,121.536 L130.263,119.313 L96.474,119.313 L95.693,121.536 Z M139.15,145.755 L141.787,145.755 L114.638,76 L113.466,76 L113.466,79.287 L139.15,145.755 Z" stroke="none" />
        <path id="Baseline-S" d="M18,146 l800,0" />
        <path id="left-margin-Ultralight-S" d="M212,56 l0,110" />
        <path id="right-margin-Ultralight-S" d="M318,56 l0,110" />
        <path id="left-margin-Regular-S" d="M412,56 l0,110" />
        <path id="right-margin-Regular-S" d="M518,56 l0,110" />
        <path id="left-margin-Black-S" d="M612,56 l0,110" />
        <path id="right-margin-Black-S" d="M718,56 l0,110" />
        <path id="Capline-M" d="M18,276 l800,0" />
        <path id="Baseline-M" d="M18,346 l800,0" />
        <path id="Capline-L" d="M18,476 l800,0" />
        <path id="Baseline-L" d="M18,546 l800,0" />
    </g>
    <g id="Symbols">
        <g id="Ultralight-S">
            <path d="M233,122 C239.075,122 244,117.075 244,111 C244,104.925 239.075,100 233,100 C226.925,100 222,104.925 222,111 C222,117.075 226.925,122 233,122 Z M233,116 C230.239,116 228,113.761 228,111 C228,108.239 230.239,106 233,106 C235.761,106 238,108.239 238,111 C238,113.761 235.761,116 233,116 Z" />
            <path d="M233,90 C236.866,90 240,86.866 240,83 C240,79.134 236.866,76 233,76 C229.134,76 226,79.134 226,83 C226,86.866 229.134,90 233,90 Z M233,84 C232.448,84 232,83.552 232,83 C232,82.448 232.448,82 233,82 C233.552,82 234,82.448 234,83 C234,83.552 233.552,84 233,84 Z" />
            <path d="M233,146 C236.866,146 240,142.866 240,139 C240,135.134 236.866,132 233,132 C229.134,132 226,135.134 226,139 C226,142.866 229.134,146 233,146 Z M233,140 C232.448,140 232,139.552 232,139 C232,138.448 232.448,138 233,138 C233.552,138 234,138.448 234,139 C234,139.552 233.552,140 233,140 Z" />
            <path d="M257,114 L305,114 C306.657,114 308,112.657 308,111 C308,109.343 306.657,108 305,108 L257,108 C255.343,108 254,109.343 254,111 C254,112.657 255.343,114 257,114 Z" />
            <path d="M257,142 L305,142 C306.657,142 308,140.657 308,139 C308,137.343 306.657,136 305,136 L257,136 C255.343,136 254,137.343 254,139 C254,140.657 255.343,142 257,142 Z" />
            <path d="M257,86 L305,86 C306.657,86 308,84.657 308,83 C308,81.343 306.657,80 305,80 L257,80 C255.343,80 254,81.343 254,83 C254,84.657 255.343,86 257,86 Z" />
        </g>
        <g id="Regular-S">
            <path d="M433,122 C439.075,122 444,117.075 444,111 C444,104.925 439.075,100 433,100 C426.925,100 422,104.925 422,111 C422,117.075 426.925,122 433,122 Z M433,116 C430.239,116 428,113.761 428,111 C428,108.239 430.239,106 433,106 C435.761,106 438,108.239 438,111 C438,113.761 435.761,116 433,116 Z" />
            <path d="M433,90 C436.866,90 440,86.866 440,83 C440,79.134 436.866,76 433,76 C429.134,76 426,79.134 426,83 C426,86.866 429.134,90 433,90 Z M433,84 C432.448,84 432,83.552 432,83 C432,82.448 432.448,82 433,82 C433.552,82 434,82.448 434,83 C434,83.552 433.552,84 433,84 Z" />
            <path d="M433,146 C436.866,146 440,142.866 440,139 C440,135.134 436.866,132 433,132 C429.134,132 426,135.134 426,139 C426,142.866 429.134,146 433,146 Z M433,140 C432.448,140 432,139.552 432,139 C432,138.448 432.448,138 433,138 C433.552,138 434,138.448 434,139 C434,139.552 433.552,140 433,140 Z" />
            <path d="M457,114 L505,114 C506.657,114 508,112.657 508,111 C508,109.343 506.657,108 505,108 L457,108 C455.343,108 454,109.343 454,111 C454,112.657 455.343,114 457,114 Z" />
            <path d="M457,142 L505,142 C506.657,142 508,140.657 508,139 C508,137.343 506.657,136 505,136 L457,136 C455.343,136 454,137.343 454,139 C454,140.657 455.343,142 457,142 Z" />
            <path d="M457,86 L505,86 C506.657,86 508,84.657 508,83 C508,81.343 506.657,80 505,80 L457,80 C455.343,80 454,81.343 454,83 C454,84.657 455.343,86 457,86 Z" />
        </g>
        <g id="Black-S">
            <path d="M633,122 C639.075,122 644,117.075 644,111 C644,104.925 639.075,100 633,100 C626.925,100 622,104.925 622,111 C622,117.075 626.925,122 633,122 Z M633,116 C630.239,116 628,113.761 628,111 C628,108.239 630.239,106 633,106 C635.761,106 638,108.239 638,111 C638,113.761 635.761,116 633,116 Z" />
            <path d="M633,90 C636.866,90 640,86.866 640,83 C640,79.134 636.866,76 633,76 C629.134,76 626,79.134 626,83 C626,86.866 629.134,90 633,90 Z M633,84 C632.448,84 632,83.552 632,83 C632,82.448 632.448,82 633,82 C633.552,82 634,82.448 634,83 C634,83.552 633.552,84 633,84 Z" />
            <path d="M633,146 C636.866,146 640,142.866 640,139 C640,135.134 636.866,132 633,132 C629.134,132 626,135.134 626,139 C626,142.866 629.134,146 633,146 Z M633,140 C632.448,140 632,139.552 632,139 C632,138.448 632.448,138 633,138 C633.552,138 634,138.448 634,139 C634,139.552 633.552,140 633,140 Z" />
            <path d="M657,114 L705,114 C706.657,114 708,112.657 708,111 C708,109.343 706.657,108 705,108 L657,108 C655.343,108 654,109.343 654,111 C654,112.657 655.343,114 657,114 Z" />
            <path d="M657,142 L705,142 C706.657,142 708,140.657 708,139 C708,137.343 706.657,136 705,136 L657,136 C655.343,136 654,137.343 654,139 C654,140.657 655.343,142 657,142 Z" />
            <path d="M657,86 L705,86 C706.657,86 708,84.657 708,83 C708,81.343 706.657,80 705,80 L657,80 C655.343,80 654,81.343 654,83 C654,84.657 655.343,86 657,86 Z" />
        </g>
    </g>
</svg>