<?xml version="1.0" encoding="UTF-8"?>
<svg height="600" width="800" xmlns="http://www.w3.org/2000/svg" xmlns:xlink="http://www.w3.org/1999/xlink">
    <g id="Notes" font-family="'LucidaGrande', 'Lucida Grande', sans-serif" font-size="13">
        <rect fill="white" height="600.0" width="800.0" x="0.0" y="0.0" />
        <g font-size="13">
            <text x="18.0" y="176.0">Small</text>
            <text x="18.0" y="376.0">Medium</text>
            <text x="18.0" y="576.0">Large</text>
        </g>
        <g font-size="9">
            <text x="250.0" y="30.0">Ultralight</text>
            <text x="450.0" y="30.0">Regular</text>
            <text x="650.0" y="30.0">Black</text>
            <text id="template-version" fill="#505050" text-anchor="end" x="785.0" y="575.0">Template v.3.0</text>
            <a href="https://github.com/swhitty/SwiftDraw">
                <text fill="#505050" text-anchor="end" x="785.0" y="590.0">https://github.com/swhitty/SwiftDraw</text>
            </a>
        </g>
    </g>
    <g id="Guides" stroke="rgb(39, 170, 225)" stroke-width="0.5">
        <path id="Capline-S" d="M18,76 l800,0" />
        <path id="H-reference" d="M85,145.755 L87.685,145.755 L113.369,79.287 L114.052,79.287 L114.052,76 L112.148,76 L85,145.755 Z M95.693,121.536 L130.996,121.536 L130.263,119.313 L96.474,119.313 L95.693,121.536 Z M139.15,145.755 L141.787,145.755 L114.638,76 L113.466,76 L113.466,79.287 L139.15,145.755 Z" stroke="none" />
        <path id="Baseline-S" d="M18,146 l800,0" />
        <path id="left-margin-Ultralight-S" d="M220.712,56 l0,110" />
        <path id="right-margin-Ultralight-S" d="M309.288,56 l0,110" />
        <path id="left-margin-Regular-S" d="M420.712,56 l0,110" />
        <path id="right-margin-Regular-S" d="M509.288,56 l0,110" />
        <path id="left-margin-Black-S" d="M620.712,56 l0,110" />
        <path id="right-margin-Black-S" d="M709.288,56 l0,110" />
        <path id="Capline-M" d="M18,276 l800,0" />
        <path id="Baseline-M" d="M18,346 l800,0" />
        <path id="Capline-L" d="M18,476 l800,0" />
        <path id="Baseline-L" d="M18,546 l800,0" />
    </g>
    <g id="Symbols">
        <g id="Ultralight-S">
            <path d="M291.315,132.163 L291.315,143.558 L293.707,141.116 L236.298,141.116 L238.69,143.558 L238.69,132.163 L236.298,134.605 L293.707,134.605 L291.315,132.163 Z M296.099,132.163 C296.099,130.814 295.028,129.721 293.707,129.721 L236.298,129.721 C234.977,129.721 233.906,130.814 233.906,132.163 L233.906,143.558 C233.906,144.907 234.977,146 236.298,146 L293.707,146 C295.028,146 296.099,144.907 296.099,143.558 L296.099,132.163 Z" />
            <path d="M289.713,130.348 L286.523,88.022 C286.428,86.75 285.388,85.767 284.139,85.767 L233.109,85.767 C231.057,85.767 229.957,88.231 231.304,89.812 L241.774,102.101 C242.196,102.596 242.405,103.244 242.354,103.897 L240.292,130.341 C240.187,131.685 241.17,132.862 242.487,132.969 C243.804,133.076 244.956,132.073 245.061,130.729 L247.123,104.285 C247.276,102.323 246.649,100.381 245.384,98.896 L234.914,86.607 L233.109,90.651 L284.139,90.651 L281.754,88.397 L284.943,130.722 C285.044,132.067 286.194,133.073 287.511,132.97 C288.829,132.866 289.814,131.692 289.713,130.348 Z" />
            <path d="M268.192,98.791 L260.218,98.791 C258.897,98.791 257.826,99.884 257.826,101.233 C257.826,102.581 258.897,103.674 260.218,103.674 L268.192,103.674 C269.513,103.674 270.584,102.581 270.584,101.233 C270.584,99.884 269.513,98.791 268.192,98.791 Z" />
            <path d="M268.192,108.558 L260.218,108.558 C258.897,108.558 257.826,109.651 257.826,111 C257.826,112.349 258.897,113.442 260.218,113.442 L268.192,113.442 C269.513,113.442 270.584,112.349 270.584,111 C270.584,109.651 269.513,108.558 268.192,108.558 Z" />
            <path d="M268.192,118.326 L260.218,118.326 C258.897,118.326 257.826,119.419 257.826,120.767 C257.826,122.116 258.897,123.209 260.218,123.209 L268.192,123.209 C269.513,123.209 270.584,122.116 270.584,120.767 C270.584,119.419 269.513,118.326 268.192,118.326 Z" />
            <path d="M284.139,90.651 L296.896,90.651 L294.504,88.209 L294.504,114.256 L296.896,111.814 L287.328,111.814 C286.007,111.814 284.936,112.907 284.936,114.256 C284.936,115.604 286.007,116.698 287.328,116.698 L296.896,116.698 C298.217,116.698 299.288,115.604 299.288,114.256 L299.288,88.209 C299.288,86.861 298.217,85.767 296.896,85.767 L284.139,85.767 C282.817,85.767 281.746,86.861 281.746,88.209 C281.746,89.558 282.817,90.651 284.139,90.651 Z" />
            <path d="M259.421,86.581 L259.421,78.442 L257.029,80.884 L271.381,80.884 L268.989,78.442 L268.989,86.581 C268.989,87.93 270.06,89.023 271.381,89.023 C272.702,89.023 273.773,87.93 273.773,86.581 L273.773,78.442 C273.773,77.093 272.702,76 271.381,76 L257.029,76 C255.708,76 254.637,77.093 254.637,78.442 L254.637,86.581 C254.637,87.93 255.708,89.023 257.029,89.023 C258.35,89.023 259.421,87.93 259.421,86.581 Z" />
        </g>
        <g id="Regular-S">
            <path d="M491.315,132.163 L491.315,143.558 L493.707,141.116 L436.298,141.116 L438.69,143.558 L438.69,132.163 L436.298,134.605 L493.707,134.605 L491.315,132.163 Z M496.099,132.163 C496.099,130.814 495.028,129.721 493.707,129.721 L436.298,129.721 C434.977,129.721 433.906,130.814 433.906,132.163 L433.906,143.558 C433.906,144.907 434.977,146 436.298,146 L493.707,146 C495.028,146 496.099,144.907 496.099,143.558 L496.099,132.163 Z" />
            <path d="M489.713,130.348 L486.523,88.022 C486.428,86.75 485.388,85.767 484.139,85.767 L433.109,85.767 C431.057,85.767 429.957,88.231 431.304,89.812 L441.774,102.101 C442.196,102.596 442.405,103.244 442.354,103.897 L440.292,130.341 C440.187,131.685 441.17,132.862 442.487,132.969 C443.804,133.076 444.956,132.073 445.061,130.729 L447.123,104.285 C447.276,102.323 446.649,100.381 445.384,98.896 L434.914,86.607 L433.109,90.651 L484.139,90.651 L481.754,88.397 L484.943,130.722 C485.044,132.067 486.194,133.073 487.511,132.97 C488.829,132.866 489.814,131.692 489.713,130.348 Z" />
            <path d="M468.192,98.791 L460.218,98.791 C458.897,98.791 457.826,99.884 457.826,101.233 C457.826,102.581 458.897,103.674 460.218,103.674 L468.192,103.674 C469.513,103.674 470.584,102.581 470.584,101.233 C470.584,99.884 469.513,98.791 468.192,98.791 Z" />
            <path d="M468.192,108.558 L460.218,108.558 C458.897,108.558 457.826,109.651 457.826,111 C457.826,112.349 458.897,113.442 460.218,113.442 L468.192,113.442 C469.513,113.442 470.584,112.349 470.584,111 C470.584,109.651 469.513,108.558 468.192,108.558 Z" />
            <path d="M468.192,118.326 L460.218,118.326 C458.897,118.326 457.826,119.419 457.826,120.767 C457.826,122.116 458.897,123.209 460.218,123.209 L468.192,123.209 C469.513,123.209 470.584,122.116 470.584,120.767 C470.584,119.419 469.513,118.326 468.192,118.326 Z" />
            <path d="M484.139,90.651 L496.896,90.651 L494.504,88.209 L494.504,114.256 L496.896,111.814 L487.328,111.814 C486.007,111.814 484.936,112.907 484.936,114.256 C484.936,115.604 486.007,116.698 487.328,116.698 L496.896,116.698 C498.217,116.698 499.288,115.604 499.288,114.256 L499.288,88.209 C499.288,86.861 498.217,85.767 496.896,85.767 L484.139,85.767 C482.817,85.767 481.746,86.861 481.746,88.209 C481.746,89.558 482.817,90.651 484.139,90.651 Z" />
            <path d="M459.421,86.581 L459.421,78.442 L457.029,80.884 L471.381,80.884 L468.989,78.442 L468.989,86.581 C468.989,87.93 470.06,89.023 471.381,89.023 C472.702,89.023 473.773,87.93 473.773,86.581 L473.773,78.442 C473.773,77.093 472.702,76 471.381,76 L457.029,76 C455.708,76 454.637,77.093 454.637,78.442 L454.637,86.581 C454.637,87.93 455.708,89.023 457.029,89.023 C458.35,89.023 459.421,87.93 459.421,86.581 Z" />
        </g>
        <g id="Black-S">
            <path d="M691.315,132.163 L691.315,143.558 L693.707,141.116 L636.298,141.116 L638.69,143.558 L638.69,132.163 L636.298,134.605 L693.707,134.605 L691.315,132.163 Z M696.099,132.163 C696.099,130.814 695.028,129.721 693.707,129.721 L636.298,129.721 C634.977,129.721 633.906,130.814 633.906,132.163 L633.906,143.558 C633.906,144.907 634.977,146 636.298,146 L693.707,146 C695.028,146 696.099,144.907 696.099,143.558 L696.099,132.163 Z" />
            <path d="M689.713,130.348 L686.523,88.022 C686.428,86.75 685.388,85.767 684.138,85.767 L633.109,85.767 C631.057,85.767 629.957,88.231 631.304,89.812 L641.774,102.101 C642.196,102.596 642.405,103.244 642.354,103.897 L640.292,130.341 C640.187,131.685 641.17,132.862 642.487,132.969 C643.804,133.076 644.956,132.073 645.061,130.729 L647.123,104.285 C647.276,102.323 646.649,100.381 645.384,98.896 L634.914,86.607 L633.109,90.651 L684.138,90.651 L681.753,88.397 L684.943,130.722 C685.044,132.067 686.194,133.073 687.511,132.97 C688.828,132.866 689.814,131.692 689.713,130.348 Z" />
            <path d="M668.192,98.791 L660.218,98.791 C658.897,98.791 657.826,99.884 657.826,101.233 C657.826,102.581 658.897,103.674 660.218,103.674 L668.192,103.674 C669.513,103.674 670.584,102.581 670.584,101.233 C670.584,99.884 669.513,98.791 668.192,98.791 Z" />
            <path d="M668.192,108.558 L660.218,108.558 C658.897,108.558 657.826,109.651 657.826,111 C657.826,112.349 658.897,113.442 660.218,113.442 L668.192,113.442 C669.513,113.442 670.584,112.349 670.584,111 C670.584,109.651 669.513,108.558 668.192,108.558 Z" />
            <path d="M668.192,118.326 L660.218,118.326 C658.897,118.326 657.826,119.419 657.826,120.767 C657.826,122.116 658.897,123.209 660.218,123.209 L668.192,123.209 C669.513,123.209 670.584,122.116 670.584,120.767 C670.584,119.419 669.513,118.326 668.192,118.326 Z" />
            <path d="M684.138,90.651 L696.896,90.651 L694.504,88.209 L694.504,114.256 L696.896,111.814 L687.328,111.814 C686.007,111.814 684.936,112.907 684.936,114.256 C684.936,115.604 686.007,116.698 687.328,116.698 L696.896,116.698 C698.217,116.698 699.288,115.604 699.288,114.256 L699.288,88.209 C699.288,86.861 698.217,85.767 696.896,85.767 L684.138,85.767 C682.817,85.767 681.746,86.861 681.746,88.209 C681.746,89.558 682.817,90.651 684.138,90.651 Z" />
            <path d="M659.421,86.581 L659.421,78.442 L657.029,80.884 L671.381,80.884 L668.989,78.442 L668.989,86.581 C668.989,87.93 670.06,89.023 671.381,89.023 C672.702,89.023 673.773,87.93 673.773,86.581 L673.773,78.442 C673.773,77.093 672.702,76 671.381,76 L657.029,76 C655.708,76 654.637,77.093 654.637,78.442 L654.637,86.581 C654.637,87.93 655.708,89.023 657.029,89.023 C658.35,89.023 659.421,87.93 659.421,86.581 Z" />
        </g>
    </g>
</svg>